  0
SECTION
  2
HEADER
  9
$ACADVER
  1
AC1009
  9
$EXTMIN
 10
0.0
 20
0.0
 30
0.0
  9
$EXTMAX
 10
1000.0
 20
1000.0
 30
0.0
  9
$FILLMODE
 70
 0
  9
$SPLFRAME
 70
 1
  0
ENDSEC
  0
SECTION
  2
TABLES
  0
TABLE
  2
LAYER
 70
1
  0
LAYER
  2
0
 70
     0
 62
     7
  6
CONTINUOUS
  0
ENDTAB
  0
ENDSEC
  0
SECTION
  2
ENTITIES
  0
LINE
  8
0
 62
     0
 10
0.0950846
 20
160.419
 30
0.0
 11
351.568
 21
160.419
 31
0.0
  0
LINE
  8
0
 62
     0
 10
351.568
 20
160.419
 30
0.0
 11
351.568
 21
0.398254
 31
0.0
  0
LINE
  8
0
 62
     0
 10
351.568
 20
0.398254
 30
0.0
 11
0.0950846
 21
0.398254
 31
0.0
  0
LINE
  8
0
 62
     0
 10
0.0950846
 20
0.398254
 30
0.0
 11
0.0950846
 21
160.419
 31
0.0
  0
LINE
  8
0
 62
     0
 10
164.545
 20
16.9251
 30
0.0
 11
178.544
 21
16.9251
 31
0.0
  0
LINE
  8
0
 62
     0
 10
178.544
 20
16.9251
 30
0.0
 11
178.544
 21
2.9242
 31
0.0
  0
LINE
  8
0
 62
     0
 10
178.544
 20
2.9242
 30
0.0
 11
164.545
 21
2.9242
 31
0.0
  0
LINE
  8
0
 62
     0
 10
164.545
 20
2.9242
 30
0.0
 11
164.545
 21
16.9251
 31
0.0
  0
LINE
  8
0
 62
     0
 10
145.495
 20
16.9251
 30
0.0
 11
159.494
 21
16.9251
 31
0.0
  0
LINE
  8
0
 62
     0
 10
159.494
 20
16.9251
 30
0.0
 11
159.494
 21
2.9242
 31
0.0
  0
LINE
  8
0
 62
     0
 10
159.494
 20
2.9242
 30
0.0
 11
145.495
 21
2.9242
 31
0.0
  0
LINE
  8
0
 62
     0
 10
145.495
 20
2.9242
 30
0.0
 11
145.495
 21
16.9251
 31
0.0
  0
LINE
  8
0
 62
     0
 10
126.445
 20
16.9251
 30
0.0
 11
140.444
 21
16.9251
 31
0.0
  0
LINE
  8
0
 62
     0
 10
140.444
 20
16.9251
 30
0.0
 11
140.444
 21
2.9242
 31
0.0
  0
LINE
  8
0
 62
     0
 10
140.444
 20
2.9242
 30
0.0
 11
126.445
 21
2.9242
 31
0.0
  0
LINE
  8
0
 62
     0
 10
126.445
 20
2.9242
 30
0.0
 11
126.445
 21
16.9251
 31
0.0
  0
LINE
  8
0
 62
     0
 10
173.962
 20
36.1431
 30
0.0
 11
176.873
 21
22.4482
 31
0.0
  0
LINE
  8
0
 62
     0
 10
176.873
 20
22.4482
 30
0.0
 11
190.566
 21
25.36
 31
0.0
  0
LINE
  8
0
 62
     0
 10
190.566
 20
25.36
 30
0.0
 11
187.656
 21
39.0536
 31
0.0
  0
LINE
  8
0
 62
     0
 10
187.656
 20
39.0536
 30
0.0
 11
173.962
 21
36.1431
 31
0.0
  0
LINE
  8
0
 62
     0
 10
128.673
 20
25.5116
 30
0.0
 11
142.368
 21
22.6012
 31
0.0
  0
LINE
  8
0
 62
     0
 10
142.368
 20
22.6012
 30
0.0
 11
145.278
 21
36.2948
 31
0.0
  0
LINE
  8
0
 62
     0
 10
145.278
 20
36.2948
 30
0.0
 11
131.585
 21
39.2053
 31
0.0
  0
LINE
  8
0
 62
     0
 10
131.585
 20
39.2053
 30
0.0
 11
128.673
 21
25.5116
 31
0.0
  0
LINE
  8
0
 62
     0
 10
219.732
 20
44.3689
 30
0.0
 11
220.405
 21
41.209
 31
0.0
  0
LINE
  8
0
 62
     0
 10
220.405
 20
41.209
 30
0.0
 11
218.912
 21
40.8919
 31
0.0
  0
LINE
  8
0
 62
     0
 10
218.912
 20
40.8919
 30
0.0
 11
217.936
 21
45.4889
 31
0.0
  0
LINE
  8
0
 62
     0
 10
217.936
 20
45.4889
 30
0.0
 11
204.242
 21
42.5785
 31
0.0
  0
LINE
  8
0
 62
     0
 10
204.242
 20
42.5785
 30
0.0
 11
205.219
 21
37.9815
 31
0.0
  0
LINE
  8
0
 62
     0
 10
205.219
 20
37.9815
 30
0.0
 11
203.726
 21
37.6647
 31
0.0
  0
LINE
  8
0
 62
     0
 10
203.726
 20
37.6647
 30
0.0
 11
203.055
 21
40.8231
 31
0.0
  0
LINE
  8
0
 62
     0
 10
203.055
 20
40.8231
 30
0.0
 11
196.453
 21
39.4201
 31
0.0
  0
LINE
  8
0
 62
     0
 10
196.453
 20
39.4201
 30
0.0
 11
197.124
 21
36.2631
 31
0.0
  0
LINE
  8
0
 62
     0
 10
197.124
 20
36.2631
 30
0.0
 11
196.318
 21
36.0895
 31
0.0
  0
LINE
  8
0
 62
     0
 10
196.318
 20
36.0895
 30
0.0
 11
196.9
 21
33.3499
 31
0.0
  0
LINE
  8
0
 62
     0
 10
196.9
 20
33.3499
 30
0.0
 11
197.707
 21
33.5221
 31
0.0
  0
LINE
  8
0
 62
     0
 10
197.707
 20
33.5221
 30
0.0
 11
199.009
 21
27.3899
 31
0.0
  0
LINE
  8
0
 62
     0
 10
199.009
 20
27.3899
 30
0.0
 11
200.697
 21
27.7468
 31
0.0
  0
LINE
  8
0
 62
     0
 10
200.697
 20
27.7468
 30
0.0
 11
200.947
 21
26.5741
 31
0.0
  0
LINE
  8
0
 62
     0
 10
200.947
 20
26.5741
 30
0.0
 11
204.174
 21
27.2603
 31
0.0
  0
LINE
  8
0
 62
     0
 10
204.174
 20
27.2603
 30
0.0
 11
203.925
 21
28.4331
 31
0.0
  0
LINE
  8
0
 62
     0
 10
203.925
 20
28.4331
 30
0.0
 11
205.613
 21
28.7927
 31
0.0
  0
LINE
  8
0
 62
     0
 10
205.613
 20
28.7927
 30
0.0
 11
204.684
 21
33.1639
 31
0.0
  0
LINE
  8
0
 62
     0
 10
204.684
 20
33.1639
 30
0.0
 11
206.174
 21
33.4808
 31
0.0
  0
LINE
  8
0
 62
     0
 10
206.174
 20
33.4808
 30
0.0
 11
207.151
 21
28.8851
 31
0.0
  0
LINE
  8
0
 62
     0
 10
207.151
 20
28.8851
 30
0.0
 11
220.846
 21
31.7955
 31
0.0
  0
LINE
  8
0
 62
     0
 10
220.846
 20
31.7955
 30
0.0
 11
219.869
 21
36.394
 31
0.0
  0
LINE
  8
0
 62
     0
 10
219.869
 20
36.394
 30
0.0
 11
221.361
 21
36.7097
 31
0.0
  0
LINE
  8
0
 62
     0
 10
221.361
 20
36.7097
 30
0.0
 11
222.29
 21
32.3371
 31
0.0
  0
LINE
  8
0
 62
     0
 10
222.29
 20
32.3371
 30
0.0
 11
223.978
 21
32.6967
 31
0.0
  0
LINE
  8
0
 62
     0
 10
223.978
 20
32.6967
 30
0.0
 11
224.226
 21
31.5226
 31
0.0
  0
LINE
  8
0
 62
     0
 10
224.226
 20
31.5226
 30
0.0
 11
227.455
 21
32.2089
 31
0.0
  0
LINE
  8
0
 62
     0
 10
227.455
 20
32.2089
 30
0.0
 11
227.205
 21
33.383
 31
0.0
  0
LINE
  8
0
 62
     0
 10
227.205
 20
33.383
 30
0.0
 11
228.892
 21
33.7399
 31
0.0
  0
LINE
  8
0
 62
     0
 10
228.892
 20
33.7399
 30
0.0
 11
227.589
 21
39.8734
 31
0.0
  0
LINE
  8
0
 62
     0
 10
227.589
 20
39.8734
 30
0.0
 11
228.396
 21
40.0459
 31
0.0
  0
LINE
  8
0
 62
     0
 10
228.396
 20
40.0459
 30
0.0
 11
227.813
 21
42.7838
 31
0.0
  0
LINE
  8
0
 62
     0
 10
227.813
 20
42.7838
 30
0.0
 11
227.007
 21
42.6131
 31
0.0
  0
LINE
  8
0
 62
     0
 10
227.007
 20
42.6131
 30
0.0
 11
226.336
 21
45.7729
 31
0.0
  0
LINE
  8
0
 62
     0
 10
226.336
 20
45.7729
 30
0.0
 11
219.732
 21
44.3689
 31
0.0
  0
LINE
  8
0
 62
     0
 10
94.8503
 20
46.779
 30
0.0
 11
93.1623
 21
47.1371
 31
0.0
  0
LINE
  8
0
 62
     0
 10
93.1623
 20
47.1371
 30
0.0
 11
91.8602
 21
41.0048
 31
0.0
  0
LINE
  8
0
 62
     0
 10
91.8602
 20
41.0048
 30
0.0
 11
91.0526
 21
41.1759
 31
0.0
  0
LINE
  8
0
 62
     0
 10
91.0526
 20
41.1759
 30
0.0
 11
90.4709
 21
38.4376
 31
0.0
  0
LINE
  8
0
 62
     0
 10
90.4709
 20
38.4376
 30
0.0
 11
91.277
 21
38.2655
 31
0.0
  0
LINE
  8
0
 62
     0
 10
91.277
 20
38.2655
 30
0.0
 11
90.606
 21
35.1069
 31
0.0
  0
LINE
  8
0
 62
     0
 10
90.606
 20
35.1069
 30
0.0
 11
97.2083
 21
33.7027
 31
0.0
  0
LINE
  8
0
 62
     0
 10
97.2083
 20
33.7027
 30
0.0
 11
97.8793
 21
36.8639
 31
0.0
  0
LINE
  8
0
 62
     0
 10
97.8793
 20
36.8639
 30
0.0
 11
99.3719
 21
36.5457
 31
0.0
  0
LINE
  8
0
 62
     0
 10
99.3719
 20
36.5457
 30
0.0
 11
98.3947
 21
31.9471
 31
0.0
  0
LINE
  8
0
 62
     0
 10
98.3947
 20
31.9471
 30
0.0
 11
112.088
 21
29.038
 31
0.0
  0
LINE
  8
0
 62
     0
 10
112.088
 20
29.038
 30
0.0
 11
113.065
 21
33.6338
 31
0.0
  0
LINE
  8
0
 62
     0
 10
113.065
 20
33.6338
 30
0.0
 11
114.556
 21
33.3168
 31
0.0
  0
LINE
  8
0
 62
     0
 10
114.556
 20
33.3168
 30
0.0
 11
113.885
 21
30.1584
 31
0.0
  0
LINE
  8
0
 62
     0
 10
113.885
 20
30.1584
 30
0.0
 11
120.487
 21
28.7541
 31
0.0
  0
LINE
  8
0
 62
     0
 10
120.487
 20
28.7541
 30
0.0
 11
121.16
 21
31.914
 31
0.0
  0
LINE
  8
0
 62
     0
 10
121.16
 20
31.914
 30
0.0
 11
121.966
 21
31.7417
 31
0.0
  0
LINE
  8
0
 62
     0
 10
121.966
 20
31.7417
 30
0.0
 11
122.549
 21
34.4827
 31
0.0
  0
LINE
  8
0
 62
     0
 10
122.549
 20
34.4827
 30
0.0
 11
121.741
 21
34.6522
 31
0.0
  0
LINE
  8
0
 62
     0
 10
121.741
 20
34.6522
 30
0.0
 11
123.045
 21
40.7857
 31
0.0
  0
LINE
  8
0
 62
     0
 10
123.045
 20
40.7857
 30
0.0
 11
121.357
 21
41.1441
 31
0.0
  0
LINE
  8
0
 62
     0
 10
121.357
 20
41.1441
 30
0.0
 11
121.608
 21
42.3182
 31
0.0
  0
LINE
  8
0
 62
     0
 10
121.608
 20
42.3182
 30
0.0
 11
118.379
 21
43.0043
 31
0.0
  0
LINE
  8
0
 62
     0
 10
118.379
 20
43.0043
 30
0.0
 11
118.131
 21
41.8303
 31
0.0
  0
LINE
  8
0
 62
     0
 10
118.131
 20
41.8303
 30
0.0
 11
116.443
 21
42.1901
 31
0.0
  0
LINE
  8
0
 62
     0
 10
116.443
 20
42.1901
 30
0.0
 11
115.514
 21
37.816
 31
0.0
  0
LINE
  8
0
 62
     0
 10
115.514
 20
37.816
 30
0.0
 11
114.022
 21
38.1332
 31
0.0
  0
LINE
  8
0
 62
     0
 10
114.022
 20
38.1332
 30
0.0
 11
114.999
 21
42.7316
 31
0.0
  0
LINE
  8
0
 62
     0
 10
114.999
 20
42.7316
 30
0.0
 11
101.305
 21
45.642
 31
0.0
  0
LINE
  8
0
 62
     0
 10
101.305
 20
45.642
 30
0.0
 11
100.328
 21
41.045
 31
0.0
  0
LINE
  8
0
 62
     0
 10
100.328
 20
41.045
 30
0.0
 11
98.8356
 21
41.3618
 31
0.0
  0
LINE
  8
0
 62
     0
 10
98.8356
 20
41.3618
 30
0.0
 11
99.7659
 21
45.7345
 31
0.0
  0
LINE
  8
0
 62
     0
 10
99.7659
 20
45.7345
 30
0.0
 11
98.0793
 21
46.0925
 31
0.0
  0
LINE
  8
0
 62
     0
 10
98.0793
 20
46.0925
 30
0.0
 11
98.3273
 21
47.2666
 31
0.0
  0
LINE
  8
0
 62
     0
 10
98.3273
 20
47.2666
 30
0.0
 11
95.0997
 21
47.9531
 31
0.0
  0
LINE
  8
0
 62
     0
 10
95.0997
 20
47.9531
 30
0.0
 11
94.8503
 21
46.779
 31
0.0
  0
LINE
  8
0
 62
     0
 10
335.041
 20
48.3567
 30
0.0
 11
349.042
 21
48.3567
 31
0.0
  0
LINE
  8
0
 62
     0
 10
349.042
 20
48.3567
 30
0.0
 11
349.042
 21
34.3572
 31
0.0
  0
LINE
  8
0
 62
     0
 10
349.042
 20
34.3572
 30
0.0
 11
335.041
 21
34.3572
 31
0.0
  0
LINE
  8
0
 62
     0
 10
335.041
 20
34.3572
 30
0.0
 11
335.041
 21
48.3567
 31
0.0
  0
LINE
  8
0
 62
     0
 10
315.991
 20
48.3567
 30
0.0
 11
329.992
 21
48.3567
 31
0.0
  0
LINE
  8
0
 62
     0
 10
329.992
 20
48.3567
 30
0.0
 11
329.992
 21
34.3572
 31
0.0
  0
LINE
  8
0
 62
     0
 10
329.992
 20
34.3572
 30
0.0
 11
315.991
 21
34.3572
 31
0.0
  0
LINE
  8
0
 62
     0
 10
315.991
 20
34.3572
 30
0.0
 11
315.991
 21
48.3567
 31
0.0
  0
LINE
  8
0
 62
     0
 10
296.941
 20
48.3567
 30
0.0
 11
310.942
 21
48.3567
 31
0.0
  0
LINE
  8
0
 62
     0
 10
310.942
 20
48.3567
 30
0.0
 11
310.942
 21
34.3572
 31
0.0
  0
LINE
  8
0
 62
     0
 10
310.942
 20
34.3572
 30
0.0
 11
296.941
 21
34.3572
 31
0.0
  0
LINE
  8
0
 62
     0
 10
296.941
 20
34.3572
 30
0.0
 11
296.941
 21
48.3567
 31
0.0
  0
LINE
  8
0
 62
     0
 10
236.85
 20
49.5102
 30
0.0
 11
239.761
 21
35.8151
 31
0.0
  0
LINE
  8
0
 62
     0
 10
239.761
 20
35.8151
 30
0.0
 11
253.454
 21
38.7269
 31
0.0
  0
LINE
  8
0
 62
     0
 10
253.454
 20
38.7269
 30
0.0
 11
250.544
 21
52.4207
 31
0.0
  0
LINE
  8
0
 62
     0
 10
250.544
 20
52.4207
 30
0.0
 11
236.85
 21
49.5102
 31
0.0
  0
LINE
  8
0
 62
     0
 10
65.786
 20
38.88
 30
0.0
 11
79.4798
 21
35.9682
 31
0.0
  0
LINE
  8
0
 62
     0
 10
79.4798
 20
35.9682
 30
0.0
 11
82.3902
 21
49.6616
 31
0.0
  0
LINE
  8
0
 62
     0
 10
82.3902
 20
49.6616
 30
0.0
 11
68.6954
 21
52.5734
 31
0.0
  0
LINE
  8
0
 62
     0
 10
68.6954
 20
52.5734
 30
0.0
 11
65.786
 21
38.88
 31
0.0
  0
LINE
  8
0
 62
     0
 10
160.683
 20
52.7953
 30
0.0
 11
163.594
 21
39.1019
 31
0.0
  0
LINE
  8
0
 62
     0
 10
163.594
 20
39.1019
 30
0.0
 11
177.289
 21
42.0123
 31
0.0
  0
LINE
  8
0
 62
     0
 10
177.289
 20
42.0123
 30
0.0
 11
174.377
 21
55.7057
 31
0.0
  0
LINE
  8
0
 62
     0
 10
174.377
 20
55.7057
 30
0.0
 11
160.683
 21
52.7953
 31
0.0
  0
LINE
  8
0
 62
     0
 10
266.937
 20
53.1192
 30
0.0
 11
280.938
 21
53.1192
 31
0.0
  0
LINE
  8
0
 62
     0
 10
280.938
 20
53.1192
 30
0.0
 11
280.938
 21
39.1199
 31
0.0
  0
LINE
  8
0
 62
     0
 10
280.938
 20
39.1199
 30
0.0
 11
266.937
 21
39.1199
 31
0.0
  0
LINE
  8
0
 62
     0
 10
266.937
 20
39.1199
 30
0.0
 11
266.937
 21
53.1192
 31
0.0
  0
LINE
  8
0
 62
     0
 10
33.5759
 20
53.1192
 30
0.0
 11
47.5753
 21
53.1192
 31
0.0
  0
LINE
  8
0
 62
     0
 10
47.5753
 20
53.1192
 30
0.0
 11
47.5753
 21
39.1199
 31
0.0
  0
LINE
  8
0
 62
     0
 10
47.5753
 20
39.1199
 30
0.0
 11
33.5759
 21
39.1199
 31
0.0
  0
LINE
  8
0
 62
     0
 10
33.5759
 20
39.1199
 30
0.0
 11
33.5759
 21
53.1192
 31
0.0
  0
LINE
  8
0
 62
     0
 10
7.38216
 20
53.1192
 30
0.0
 11
21.3817
 21
53.1192
 31
0.0
  0
LINE
  8
0
 62
     0
 10
21.3817
 20
53.1192
 30
0.0
 11
21.3817
 21
39.1199
 31
0.0
  0
LINE
  8
0
 62
     0
 10
21.3817
 20
39.1199
 30
0.0
 11
7.38216
 21
39.1199
 31
0.0
  0
LINE
  8
0
 62
     0
 10
7.38216
 20
39.1199
 30
0.0
 11
7.38216
 21
53.1192
 31
0.0
  0
LINE
  8
0
 62
     0
 10
179.317
 20
56.7559
 30
0.0
 11
182.229
 21
43.0622
 31
0.0
  0
LINE
  8
0
 62
     0
 10
182.229
 20
43.0622
 30
0.0
 11
195.923
 21
45.9726
 31
0.0
  0
LINE
  8
0
 62
     0
 10
195.923
 20
45.9726
 30
0.0
 11
193.012
 21
59.6678
 31
0.0
  0
LINE
  8
0
 62
     0
 10
193.012
 20
59.6678
 30
0.0
 11
179.317
 21
56.7559
 31
0.0
  0
LINE
  8
0
 62
     0
 10
123.318
 20
46.1257
 30
0.0
 11
137.011
 21
43.2153
 31
0.0
  0
LINE
  8
0
 62
     0
 10
137.011
 20
43.2153
 30
0.0
 11
139.922
 21
56.9087
 31
0.0
  0
LINE
  8
0
 62
     0
 10
139.922
 20
56.9087
 30
0.0
 11
126.228
 21
59.8191
 31
0.0
  0
LINE
  8
0
 62
     0
 10
126.228
 20
59.8191
 30
0.0
 11
123.318
 21
46.1257
 31
0.0
  0
LINE
  8
0
 62
     0
 10
197.951
 20
60.7176
 30
0.0
 11
200.861
 21
47.0228
 31
0.0
  0
LINE
  8
0
 62
     0
 10
200.861
 20
47.0228
 30
0.0
 11
214.556
 21
49.9346
 31
0.0
  0
LINE
  8
0
 62
     0
 10
214.556
 20
49.9346
 30
0.0
 11
211.646
 21
63.6281
 31
0.0
  0
LINE
  8
0
 62
     0
 10
211.646
 20
63.6281
 30
0.0
 11
197.951
 21
60.7176
 31
0.0
  0
LINE
  8
0
 62
     0
 10
104.684
 20
50.0863
 30
0.0
 11
118.379
 21
47.1759
 31
0.0
  0
LINE
  8
0
 62
     0
 10
118.379
 20
47.1759
 30
0.0
 11
121.288
 21
60.8693
 31
0.0
  0
LINE
  8
0
 62
     0
 10
121.288
 20
60.8693
 30
0.0
 11
107.594
 21
63.7798
 31
0.0
  0
LINE
  8
0
 62
     0
 10
107.594
 20
63.7798
 30
0.0
 11
104.684
 21
50.0863
 31
0.0
  0
LINE
  8
0
 62
     0
 10
216.585
 20
64.6783
 30
0.0
 11
219.495
 21
50.9845
 31
0.0
  0
LINE
  8
0
 62
     0
 10
219.495
 20
50.9845
 30
0.0
 11
233.189
 21
53.8949
 31
0.0
  0
LINE
  8
0
 62
     0
 10
233.189
 20
53.8949
 30
0.0
 11
230.279
 21
67.5887
 31
0.0
  0
LINE
  8
0
 62
     0
 10
230.279
 20
67.5887
 30
0.0
 11
216.585
 21
64.6783
 31
0.0
  0
LINE
  8
0
 62
     0
 10
86.0503
 20
54.048
 30
0.0
 11
99.7451
 21
51.1362
 31
0.0
  0
LINE
  8
0
 62
     0
 10
99.7451
 20
51.1362
 30
0.0
 11
102.656
 21
64.83
 31
0.0
  0
LINE
  8
0
 62
     0
 10
102.656
 20
64.83
 30
0.0
 11
88.9621
 21
67.7414
 31
0.0
  0
LINE
  8
0
 62
     0
 10
88.9621
 20
67.7414
 30
0.0
 11
86.0503
 21
54.048
 31
0.0
  0
LINE
  8
0
 62
     0
 10
315.991
 20
67.4067
 30
0.0
 11
329.992
 21
67.4067
 31
0.0
  0
LINE
  8
0
 62
     0
 10
329.992
 20
67.4067
 30
0.0
 11
329.992
 21
53.4074
 31
0.0
  0
LINE
  8
0
 62
     0
 10
329.992
 20
53.4074
 30
0.0
 11
315.991
 21
53.4074
 31
0.0
  0
LINE
  8
0
 62
     0
 10
315.991
 20
53.4074
 30
0.0
 11
315.991
 21
67.4067
 31
0.0
  0
LINE
  8
0
 62
     0
 10
235.219
 20
68.6386
 30
0.0
 11
238.129
 21
54.9437
 31
0.0
  0
LINE
  8
0
 62
     0
 10
238.129
 20
54.9437
 30
0.0
 11
251.823
 21
57.8556
 31
0.0
  0
LINE
  8
0
 62
     0
 10
251.823
 20
57.8556
 30
0.0
 11
248.912
 21
71.549
 31
0.0
  0
LINE
  8
0
 62
     0
 10
248.912
 20
71.549
 30
0.0
 11
235.219
 21
68.6386
 31
0.0
  0
LINE
  8
0
 62
     0
 10
67.4165
 20
58.0087
 30
0.0
 11
81.11
 21
55.0968
 31
0.0
  0
LINE
  8
0
 62
     0
 10
81.11
 20
55.0968
 30
0.0
 11
84.0218
 21
68.7917
 31
0.0
  0
LINE
  8
0
 62
     0
 10
84.0218
 20
68.7917
 30
0.0
 11
70.327
 21
71.7021
 31
0.0
  0
LINE
  8
0
 62
     0
 10
70.327
 20
71.7021
 30
0.0
 11
67.4165
 21
58.0087
 31
0.0
  0
LINE
  8
0
 62
     0
 10
14.5259
 20
72.1692
 30
0.0
 11
14.5259
 21
67.4688
 31
0.0
  0
LINE
  8
0
 62
     0
 10
14.5259
 20
67.4688
 30
0.0
 11
13.0004
 21
67.4688
 31
0.0
  0
LINE
  8
0
 62
     0
 10
13.0004
 20
67.4688
 30
0.0
 11
13.0004
 21
70.6988
 31
0.0
  0
LINE
  8
0
 62
     0
 10
13.0004
 20
70.6988
 30
0.0
 11
6.2508
 21
70.6988
 31
0.0
  0
LINE
  8
0
 62
     0
 10
6.2508
 20
70.6988
 30
0.0
 11
6.2508
 21
67.4688
 31
0.0
  0
LINE
  8
0
 62
     0
 10
6.2508
 20
67.4688
 30
0.0
 11
5.42533
 21
67.4688
 31
0.0
  0
LINE
  8
0
 62
     0
 10
5.42533
 20
67.4688
 30
0.0
 11
5.42533
 21
64.6698
 31
0.0
  0
LINE
  8
0
 62
     0
 10
5.42533
 20
64.6698
 30
0.0
 11
6.2508
 21
64.6698
 31
0.0
  0
LINE
  8
0
 62
     0
 10
6.2508
 20
64.6698
 30
0.0
 11
6.2508
 21
58.3999
 31
0.0
  0
LINE
  8
0
 62
     0
 10
6.2508
 20
58.3999
 30
0.0
 11
7.97609
 21
58.3999
 31
0.0
  0
LINE
  8
0
 62
     0
 10
7.97609
 20
58.3999
 30
0.0
 11
7.97609
 21
57.1997
 31
0.0
  0
LINE
  8
0
 62
     0
 10
7.97609
 20
57.1997
 30
0.0
 11
11.2751
 21
57.1997
 31
0.0
  0
LINE
  8
0
 62
     0
 10
11.2751
 20
57.1997
 30
0.0
 11
11.2751
 21
58.3999
 31
0.0
  0
LINE
  8
0
 62
     0
 10
11.2751
 20
58.3999
 30
0.0
 11
13.0004
 21
58.3999
 31
0.0
  0
LINE
  8
0
 62
     0
 10
13.0004
 20
58.3999
 30
0.0
 11
13.0004
 21
62.8689
 31
0.0
  0
LINE
  8
0
 62
     0
 10
13.0004
 20
62.8689
 30
0.0
 11
14.5259
 21
62.8689
 31
0.0
  0
LINE
  8
0
 62
     0
 10
14.5259
 20
62.8689
 30
0.0
 11
14.5259
 21
58.1699
 31
0.0
  0
LINE
  8
0
 62
     0
 10
14.5259
 20
58.1699
 30
0.0
 11
28.5254
 21
58.1699
 31
0.0
  0
LINE
  8
0
 62
     0
 10
28.5254
 20
58.1699
 30
0.0
 11
28.5254
 21
62.8689
 31
0.0
  0
LINE
  8
0
 62
     0
 10
28.5254
 20
62.8689
 30
0.0
 11
30.0509
 21
62.8689
 31
0.0
  0
LINE
  8
0
 62
     0
 10
30.0509
 20
62.8689
 30
0.0
 11
30.0509
 21
58.3999
 31
0.0
  0
LINE
  8
0
 62
     0
 10
30.0509
 20
58.3999
 30
0.0
 11
31.7748
 21
58.3999
 31
0.0
  0
LINE
  8
0
 62
     0
 10
31.7748
 20
58.3999
 30
0.0
 11
31.7748
 21
57.1997
 31
0.0
  0
LINE
  8
0
 62
     0
 10
31.7748
 20
57.1997
 30
0.0
 11
35.0752
 21
57.1997
 31
0.0
  0
LINE
  8
0
 62
     0
 10
35.0752
 20
57.1997
 30
0.0
 11
35.0752
 21
58.3999
 31
0.0
  0
LINE
  8
0
 62
     0
 10
35.0752
 20
58.3999
 30
0.0
 11
36.8004
 21
58.3999
 31
0.0
  0
LINE
  8
0
 62
     0
 10
36.8004
 20
58.3999
 30
0.0
 11
36.8004
 21
64.6698
 31
0.0
  0
LINE
  8
0
 62
     0
 10
36.8004
 20
64.6698
 30
0.0
 11
37.6259
 21
64.6698
 31
0.0
  0
LINE
  8
0
 62
     0
 10
37.6259
 20
64.6698
 30
0.0
 11
37.6259
 21
67.4688
 31
0.0
  0
LINE
  8
0
 62
     0
 10
37.6259
 20
67.4688
 30
0.0
 11
36.8004
 21
67.4688
 31
0.0
  0
LINE
  8
0
 62
     0
 10
36.8004
 20
67.4688
 30
0.0
 11
36.8004
 21
70.6988
 31
0.0
  0
LINE
  8
0
 62
     0
 10
36.8004
 20
70.6988
 30
0.0
 11
30.0509
 21
70.6988
 31
0.0
  0
LINE
  8
0
 62
     0
 10
30.0509
 20
70.6988
 30
0.0
 11
30.0509
 21
67.4688
 31
0.0
  0
LINE
  8
0
 62
     0
 10
30.0509
 20
67.4688
 30
0.0
 11
28.5254
 21
67.4688
 31
0.0
  0
LINE
  8
0
 62
     0
 10
28.5254
 20
67.4688
 30
0.0
 11
28.5254
 21
72.1692
 31
0.0
  0
LINE
  8
0
 62
     0
 10
28.5254
 20
72.1692
 30
0.0
 11
14.5259
 21
72.1692
 31
0.0
  0
LINE
  8
0
 62
     0
 10
285.036
 20
72.1692
 30
0.0
 11
299.036
 21
72.1692
 31
0.0
  0
LINE
  8
0
 62
     0
 10
299.036
 20
72.1692
 30
0.0
 11
299.036
 21
58.1699
 31
0.0
  0
LINE
  8
0
 62
     0
 10
299.036
 20
58.1699
 30
0.0
 11
285.036
 21
58.1699
 31
0.0
  0
LINE
  8
0
 62
     0
 10
285.036
 20
58.1699
 30
0.0
 11
285.036
 21
72.1692
 31
0.0
  0
LINE
  8
0
 62
     0
 10
258.841
 20
72.1692
 30
0.0
 11
272.842
 21
72.1692
 31
0.0
  0
LINE
  8
0
 62
     0
 10
272.842
 20
72.1692
 30
0.0
 11
272.842
 21
58.1699
 31
0.0
  0
LINE
  8
0
 62
     0
 10
272.842
 20
58.1699
 30
0.0
 11
258.841
 21
58.1699
 31
0.0
  0
LINE
  8
0
 62
     0
 10
258.841
 20
58.1699
 30
0.0
 11
258.841
 21
72.1692
 31
0.0
  0
LINE
  8
0
 62
     0
 10
45.4822
 20
72.1692
 30
0.0
 11
59.4815
 21
72.1692
 31
0.0
  0
LINE
  8
0
 62
     0
 10
59.4815
 20
72.1692
 30
0.0
 11
59.4815
 21
58.1699
 31
0.0
  0
LINE
  8
0
 62
     0
 10
59.4815
 20
58.1699
 30
0.0
 11
45.4822
 21
58.1699
 31
0.0
  0
LINE
  8
0
 62
     0
 10
45.4822
 20
58.1699
 30
0.0
 11
45.4822
 21
72.1692
 31
0.0
  0
LINE
  8
0
 62
     0
 10
170.699
 20
74.4001
 30
0.0
 11
173.609
 21
60.7067
 31
0.0
  0
LINE
  8
0
 62
     0
 10
173.609
 20
60.7067
 30
0.0
 11
187.303
 21
63.6157
 31
0.0
  0
LINE
  8
0
 62
     0
 10
187.303
 20
63.6157
 30
0.0
 11
184.393
 21
77.3105
 31
0.0
  0
LINE
  8
0
 62
     0
 10
184.393
 20
77.3105
 30
0.0
 11
170.699
 21
74.4001
 31
0.0
  0
LINE
  8
0
 62
     0
 10
117.961
 20
66.7399
 30
0.0
 11
131.655
 21
63.8295
 31
0.0
  0
LINE
  8
0
 62
     0
 10
131.655
 20
63.8295
 30
0.0
 11
134.567
 21
77.5229
 31
0.0
  0
LINE
  8
0
 62
     0
 10
134.567
 20
77.5229
 30
0.0
 11
120.872
 21
80.4333
 31
0.0
  0
LINE
  8
0
 62
     0
 10
120.872
 20
80.4333
 30
0.0
 11
117.961
 21
66.7399
 31
0.0
  0
LINE
  8
0
 62
     0
 10
189.333
 20
78.3608
 30
0.0
 11
192.242
 21
64.6659
 31
0.0
  0
LINE
  8
0
 62
     0
 10
192.242
 20
64.6659
 30
0.0
 11
205.937
 21
67.5778
 31
0.0
  0
LINE
  8
0
 62
     0
 10
205.937
 20
67.5778
 30
0.0
 11
203.026
 21
81.2712
 31
0.0
  0
LINE
  8
0
 62
     0
 10
203.026
 20
81.2712
 30
0.0
 11
189.333
 21
78.3608
 31
0.0
  0
LINE
  8
0
 62
     0
 10
99.3278
 20
70.7002
 30
0.0
 11
113.021
 21
67.7898
 31
0.0
  0
LINE
  8
0
 62
     0
 10
113.021
 20
67.7898
 30
0.0
 11
115.933
 21
81.4836
 31
0.0
  0
LINE
  8
0
 62
     0
 10
115.933
 20
81.4836
 30
0.0
 11
102.238
 21
84.394
 31
0.0
  0
LINE
  8
0
 62
     0
 10
102.238
 20
84.394
 30
0.0
 11
99.3278
 21
70.7002
 31
0.0
  0
LINE
  8
0
 62
     0
 10
207.965
 20
82.3214
 30
0.0
 11
210.877
 21
68.6276
 31
0.0
  0
LINE
  8
0
 62
     0
 10
210.877
 20
68.6276
 30
0.0
 11
224.571
 21
71.538
 31
0.0
  0
LINE
  8
0
 62
     0
 10
224.571
 20
71.538
 30
0.0
 11
221.659
 21
85.2329
 31
0.0
  0
LINE
  8
0
 62
     0
 10
221.659
 20
85.2329
 30
0.0
 11
207.965
 21
82.3214
 31
0.0
  0
LINE
  8
0
 62
     0
 10
80.6951
 20
74.6608
 30
0.0
 11
94.3889
 21
71.7504
 31
0.0
  0
LINE
  8
0
 62
     0
 10
94.3889
 20
71.7504
 30
0.0
 11
97.2993
 21
85.4438
 31
0.0
  0
LINE
  8
0
 62
     0
 10
97.2993
 20
85.4438
 30
0.0
 11
83.6041
 21
88.3557
 31
0.0
  0
LINE
  8
0
 62
     0
 10
83.6041
 20
88.3557
 30
0.0
 11
80.6951
 21
74.6608
 31
0.0
  0
LINE
  8
0
 62
     0
 10
226.599
 20
86.2817
 30
0.0
 11
229.511
 21
72.5883
 31
0.0
  0
LINE
  8
0
 62
     0
 10
229.511
 20
72.5883
 30
0.0
 11
243.204
 21
75.5001
 31
0.0
  0
LINE
  8
0
 62
     0
 10
243.204
 20
75.5001
 30
0.0
 11
240.294
 21
89.1935
 31
0.0
  0
LINE
  8
0
 62
     0
 10
240.294
 20
89.1935
 30
0.0
 11
226.599
 21
86.2817
 31
0.0
  0
LINE
  8
0
 62
     0
 10
62.06
 20
78.6225
 30
0.0
 11
75.7548
 21
75.7107
 31
0.0
  0
LINE
  8
0
 62
     0
 10
75.7548
 20
75.7107
 30
0.0
 11
78.6652
 21
89.4059
 31
0.0
  0
LINE
  8
0
 62
     0
 10
78.6652
 20
89.4059
 30
0.0
 11
64.9718
 21
92.3163
 31
0.0
  0
LINE
  8
0
 62
     0
 10
64.9718
 20
92.3163
 30
0.0
 11
62.06
 21
78.6225
 31
0.0
  0
LINE
  8
0
 62
     0
 10
299.322
 20
91.2192
 30
0.0
 11
299.322
 21
86.5188
 31
0.0
  0
LINE
  8
0
 62
     0
 10
299.322
 20
86.5188
 30
0.0
 11
297.797
 21
86.5188
 31
0.0
  0
LINE
  8
0
 62
     0
 10
297.797
 20
86.5188
 30
0.0
 11
297.797
 21
89.7488
 31
0.0
  0
LINE
  8
0
 62
     0
 10
297.797
 20
89.7488
 30
0.0
 11
291.047
 21
89.7488
 31
0.0
  0
LINE
  8
0
 62
     0
 10
291.047
 20
89.7488
 30
0.0
 11
291.047
 21
86.5188
 31
0.0
  0
LINE
  8
0
 62
     0
 10
291.047
 20
86.5188
 30
0.0
 11
290.223
 21
86.5188
 31
0.0
  0
LINE
  8
0
 62
     0
 10
290.223
 20
86.5188
 30
0.0
 11
290.223
 21
83.7198
 31
0.0
  0
LINE
  8
0
 62
     0
 10
290.223
 20
83.7198
 30
0.0
 11
291.047
 21
83.7198
 31
0.0
  0
LINE
  8
0
 62
     0
 10
291.047
 20
83.7198
 30
0.0
 11
291.047
 21
77.4499
 31
0.0
  0
LINE
  8
0
 62
     0
 10
291.047
 20
77.4499
 30
0.0
 11
292.772
 21
77.4499
 31
0.0
  0
LINE
  8
0
 62
     0
 10
292.772
 20
77.4499
 30
0.0
 11
292.772
 21
76.2497
 31
0.0
  0
LINE
  8
0
 62
     0
 10
292.772
 20
76.2497
 30
0.0
 11
296.073
 21
76.2497
 31
0.0
  0
LINE
  8
0
 62
     0
 10
296.073
 20
76.2497
 30
0.0
 11
296.073
 21
77.4499
 31
0.0
  0
LINE
  8
0
 62
     0
 10
296.073
 20
77.4499
 30
0.0
 11
297.797
 21
77.4499
 31
0.0
  0
LINE
  8
0
 62
     0
 10
297.797
 20
77.4499
 30
0.0
 11
297.797
 21
81.9189
 31
0.0
  0
LINE
  8
0
 62
     0
 10
297.797
 20
81.9189
 30
0.0
 11
299.322
 21
81.9189
 31
0.0
  0
LINE
  8
0
 62
     0
 10
299.322
 20
81.9189
 30
0.0
 11
299.322
 21
77.2199
 31
0.0
  0
LINE
  8
0
 62
     0
 10
299.322
 20
77.2199
 30
0.0
 11
313.323
 21
77.2199
 31
0.0
  0
LINE
  8
0
 62
     0
 10
313.323
 20
77.2199
 30
0.0
 11
313.323
 21
81.9189
 31
0.0
  0
LINE
  8
0
 62
     0
 10
313.323
 20
81.9189
 30
0.0
 11
314.847
 21
81.9189
 31
0.0
  0
LINE
  8
0
 62
     0
 10
314.847
 20
81.9189
 30
0.0
 11
314.847
 21
77.4499
 31
0.0
  0
LINE
  8
0
 62
     0
 10
314.847
 20
77.4499
 30
0.0
 11
316.573
 21
77.4499
 31
0.0
  0
LINE
  8
0
 62
     0
 10
316.573
 20
77.4499
 30
0.0
 11
316.573
 21
76.2497
 31
0.0
  0
LINE
  8
0
 62
     0
 10
316.573
 20
76.2497
 30
0.0
 11
319.873
 21
76.2497
 31
0.0
  0
LINE
  8
0
 62
     0
 10
319.873
 20
76.2497
 30
0.0
 11
319.873
 21
77.4499
 31
0.0
  0
LINE
  8
0
 62
     0
 10
319.873
 20
77.4499
 30
0.0
 11
321.597
 21
77.4499
 31
0.0
  0
LINE
  8
0
 62
     0
 10
321.597
 20
77.4499
 30
0.0
 11
321.597
 21
83.7198
 31
0.0
  0
LINE
  8
0
 62
     0
 10
321.597
 20
83.7198
 30
0.0
 11
322.422
 21
83.7198
 31
0.0
  0
LINE
  8
0
 62
     0
 10
322.422
 20
83.7198
 30
0.0
 11
322.422
 21
86.5188
 31
0.0
  0
LINE
  8
0
 62
     0
 10
322.422
 20
86.5188
 30
0.0
 11
321.597
 21
86.5188
 31
0.0
  0
LINE
  8
0
 62
     0
 10
321.597
 20
86.5188
 30
0.0
 11
321.597
 21
89.7488
 31
0.0
  0
LINE
  8
0
 62
     0
 10
321.597
 20
89.7488
 30
0.0
 11
314.847
 21
89.7488
 31
0.0
  0
LINE
  8
0
 62
     0
 10
314.847
 20
89.7488
 30
0.0
 11
314.847
 21
86.5188
 31
0.0
  0
LINE
  8
0
 62
     0
 10
314.847
 20
86.5188
 30
0.0
 11
313.323
 21
86.5188
 31
0.0
  0
LINE
  8
0
 62
     0
 10
313.323
 20
86.5188
 30
0.0
 11
313.323
 21
91.2192
 31
0.0
  0
LINE
  8
0
 62
     0
 10
313.323
 20
91.2192
 30
0.0
 11
299.322
 21
91.2192
 31
0.0
  0
LINE
  8
0
 62
     0
 10
268.366
 20
91.2192
 30
0.0
 11
282.367
 21
91.2192
 31
0.0
  0
LINE
  8
0
 62
     0
 10
282.367
 20
91.2192
 30
0.0
 11
282.367
 21
77.2199
 31
0.0
  0
LINE
  8
0
 62
     0
 10
282.367
 20
77.2199
 30
0.0
 11
268.366
 21
77.2199
 31
0.0
  0
LINE
  8
0
 62
     0
 10
268.366
 20
77.2199
 30
0.0
 11
268.366
 21
91.2192
 31
0.0
  0
LINE
  8
0
 62
     0
 10
249.316
 20
91.2192
 30
0.0
 11
263.317
 21
91.2192
 31
0.0
  0
LINE
  8
0
 62
     0
 10
263.317
 20
91.2192
 30
0.0
 11
263.317
 21
77.2199
 31
0.0
  0
LINE
  8
0
 62
     0
 10
263.317
 20
77.2199
 30
0.0
 11
249.316
 21
77.2199
 31
0.0
  0
LINE
  8
0
 62
     0
 10
249.316
 20
77.2199
 30
0.0
 11
249.316
 21
91.2192
 31
0.0
  0
LINE
  8
0
 62
     0
 10
40.7197
 20
91.2192
 30
0.0
 11
54.719
 21
91.2192
 31
0.0
  0
LINE
  8
0
 62
     0
 10
54.719
 20
91.2192
 30
0.0
 11
54.719
 21
77.2199
 31
0.0
  0
LINE
  8
0
 62
     0
 10
54.719
 20
77.2199
 30
0.0
 11
40.7197
 21
77.2199
 31
0.0
  0
LINE
  8
0
 62
     0
 10
40.7197
 20
77.2199
 30
0.0
 11
40.7197
 21
91.2192
 31
0.0
  0
LINE
  8
0
 62
     0
 10
9.76203
 20
91.2192
 30
0.0
 11
23.7629
 21
91.2192
 31
0.0
  0
LINE
  8
0
 62
     0
 10
23.7629
 20
91.2192
 30
0.0
 11
23.7629
 21
77.2199
 31
0.0
  0
LINE
  8
0
 62
     0
 10
23.7629
 20
77.2199
 30
0.0
 11
9.76203
 21
77.2199
 31
0.0
  0
LINE
  8
0
 62
     0
 10
9.76203
 20
77.2199
 30
0.0
 11
9.76203
 21
91.2192
 31
0.0
  0
LINE
  8
0
 62
     0
 10
162.08
 20
92.0433
 30
0.0
 11
164.99
 21
78.3498
 31
0.0
  0
LINE
  8
0
 62
     0
 10
164.99
 20
78.3498
 30
0.0
 11
178.685
 21
81.2602
 31
0.0
  0
LINE
  8
0
 62
     0
 10
178.685
 20
81.2602
 30
0.0
 11
175.773
 21
94.9537
 31
0.0
  0
LINE
  8
0
 62
     0
 10
175.773
 20
94.9537
 30
0.0
 11
162.08
 21
92.0433
 31
0.0
  0
LINE
  8
0
 62
     0
 10
335.041
 20
95.9817
 30
0.0
 11
349.042
 21
95.9817
 31
0.0
  0
LINE
  8
0
 62
     0
 10
349.042
 20
95.9817
 30
0.0
 11
349.042
 21
81.9824
 31
0.0
  0
LINE
  8
0
 62
     0
 10
349.042
 20
81.9824
 30
0.0
 11
335.041
 21
81.9824
 31
0.0
  0
LINE
  8
0
 62
     0
 10
335.041
 20
81.9824
 30
0.0
 11
335.041
 21
95.9817
 31
0.0
  0
LINE
  8
0
 62
     0
 10
180.713
 20
96.0039
 30
0.0
 11
183.624
 21
82.3101
 31
0.0
  0
LINE
  8
0
 62
     0
 10
183.624
 20
82.3101
 30
0.0
 11
197.317
 21
85.2219
 31
0.0
  0
LINE
  8
0
 62
     0
 10
197.317
 20
85.2219
 30
0.0
 11
194.407
 21
98.9157
 31
0.0
  0
LINE
  8
0
 62
     0
 10
194.407
 20
98.9157
 30
0.0
 11
180.713
 21
96.0039
 31
0.0
  0
LINE
  8
0
 62
     0
 10
117.264
 20
86.3632
 30
0.0
 11
130.958
 21
83.4542
 31
0.0
  0
LINE
  8
0
 62
     0
 10
130.958
 20
83.4542
 30
0.0
 11
133.868
 21
97.1476
 31
0.0
  0
LINE
  8
0
 62
     0
 10
133.868
 20
97.1476
 30
0.0
 11
120.174
 21
100.058
 31
0.0
  0
LINE
  8
0
 62
     0
 10
120.174
 20
100.058
 30
0.0
 11
117.264
 21
86.3632
 31
0.0
  0
LINE
  8
0
 62
     0
 10
199.347
 20
99.967
 30
0.0
 11
202.257
 21
86.2722
 31
0.0
  0
LINE
  8
0
 62
     0
 10
202.257
 20
86.2722
 30
0.0
 11
215.951
 21
89.1812
 31
0.0
  0
LINE
  8
0
 62
     0
 10
215.951
 20
89.1812
 30
0.0
 11
213.041
 21
102.876
 31
0.0
  0
LINE
  8
0
 62
     0
 10
213.041
 20
102.876
 30
0.0
 11
199.347
 21
99.967
 31
0.0
  0
LINE
  8
0
 62
     0
 10
98.6303
 20
90.3249
 30
0.0
 11
112.324
 21
87.413
 31
0.0
  0
LINE
  8
0
 62
     0
 10
112.324
 20
87.413
 30
0.0
 11
115.234
 21
101.108
 31
0.0
  0
LINE
  8
0
 62
     0
 10
115.234
 20
101.108
 30
0.0
 11
101.541
 21
104.018
 31
0.0
  0
LINE
  8
0
 62
     0
 10
101.541
 20
104.018
 30
0.0
 11
98.6303
 21
90.3249
 31
0.0
  0
LINE
  8
0
 62
     0
 10
217.981
 20
103.925
 30
0.0
 11
220.891
 21
90.231
 31
0.0
  0
LINE
  8
0
 62
     0
 10
220.891
 20
90.231
 30
0.0
 11
234.585
 21
93.1429
 31
0.0
  0
LINE
  8
0
 62
     0
 10
234.585
 20
93.1429
 30
0.0
 11
231.674
 21
106.837
 31
0.0
  0
LINE
  8
0
 62
     0
 10
231.674
 20
106.837
 30
0.0
 11
217.981
 21
103.925
 31
0.0
  0
LINE
  8
0
 62
     0
 10
79.9966
 20
94.2855
 30
0.0
 11
93.69
 21
91.3751
 31
0.0
  0
LINE
  8
0
 62
     0
 10
93.69
 20
91.3751
 30
0.0
 11
96.6018
 21
105.069
 31
0.0
  0
LINE
  8
0
 62
     0
 10
96.6018
 20
105.069
 30
0.0
 11
82.907
 21
107.979
 31
0.0
  0
LINE
  8
0
 62
     0
 10
82.907
 20
107.979
 30
0.0
 11
79.9966
 21
94.2855
 31
0.0
  0
LINE
  8
0
 62
     0
 10
236.615
 20
107.887
 30
0.0
 11
239.525
 21
94.1931
 31
0.0
  0
LINE
  8
0
 62
     0
 10
239.525
 20
94.1931
 30
0.0
 11
253.219
 21
97.1035
 31
0.0
  0
LINE
  8
0
 62
     0
 10
253.219
 20
97.1035
 30
0.0
 11
250.308
 21
110.797
 31
0.0
  0
LINE
  8
0
 62
     0
 10
250.308
 20
110.797
 30
0.0
 11
236.615
 21
107.887
 31
0.0
  0
LINE
  8
0
 62
     0
 10
61.3625
 20
98.2458
 30
0.0
 11
75.0563
 21
95.3354
 31
0.0
  0
LINE
  8
0
 62
     0
 10
75.0563
 20
95.3354
 30
0.0
 11
77.9681
 21
109.029
 31
0.0
  0
LINE
  8
0
 62
     0
 10
77.9681
 20
109.029
 30
0.0
 11
64.2729
 21
111.941
 31
0.0
  0
LINE
  8
0
 62
     0
 10
64.2729
 20
111.941
 30
0.0
 11
61.3625
 21
98.2458
 31
0.0
  0
LINE
  8
0
 62
     0
 10
301.705
 20
110.269
 30
0.0
 11
315.704
 21
110.269
 31
0.0
  0
LINE
  8
0
 62
     0
 10
315.704
 20
110.269
 30
0.0
 11
315.704
 21
96.2699
 31
0.0
  0
LINE
  8
0
 62
     0
 10
315.704
 20
96.2699
 30
0.0
 11
301.705
 21
96.2699
 31
0.0
  0
LINE
  8
0
 62
     0
 10
301.705
 20
96.2699
 30
0.0
 11
301.705
 21
110.269
 31
0.0
  0
LINE
  8
0
 62
     0
 10
277.891
 20
110.269
 30
0.0
 11
291.892
 21
110.269
 31
0.0
  0
LINE
  8
0
 62
     0
 10
291.892
 20
110.269
 30
0.0
 11
291.892
 21
96.2699
 31
0.0
  0
LINE
  8
0
 62
     0
 10
291.892
 20
96.2699
 30
0.0
 11
277.891
 21
96.2699
 31
0.0
  0
LINE
  8
0
 62
     0
 10
277.891
 20
96.2699
 30
0.0
 11
277.891
 21
110.269
 31
0.0
  0
LINE
  8
0
 62
     0
 10
258.841
 20
110.269
 30
0.0
 11
272.842
 21
110.269
 31
0.0
  0
LINE
  8
0
 62
     0
 10
272.842
 20
110.269
 30
0.0
 11
272.842
 21
96.2699
 31
0.0
  0
LINE
  8
0
 62
     0
 10
272.842
 20
96.2699
 30
0.0
 11
258.841
 21
96.2699
 31
0.0
  0
LINE
  8
0
 62
     0
 10
258.841
 20
96.2699
 30
0.0
 11
258.841
 21
110.269
 31
0.0
  0
LINE
  8
0
 62
     0
 10
40.7197
 20
110.269
 30
0.0
 11
54.719
 21
110.269
 31
0.0
  0
LINE
  8
0
 62
     0
 10
54.719
 20
110.269
 30
0.0
 11
54.719
 21
96.2699
 31
0.0
  0
LINE
  8
0
 62
     0
 10
54.719
 20
96.2699
 30
0.0
 11
40.7197
 21
96.2699
 31
0.0
  0
LINE
  8
0
 62
     0
 10
40.7197
 20
96.2699
 30
0.0
 11
40.7197
 21
110.269
 31
0.0
  0
LINE
  8
0
 62
     0
 10
16.9072
 20
110.269
 30
0.0
 11
30.9066
 21
110.269
 31
0.0
  0
LINE
  8
0
 62
     0
 10
30.9066
 20
110.269
 30
0.0
 11
30.9066
 21
96.2699
 31
0.0
  0
LINE
  8
0
 62
     0
 10
30.9066
 20
96.2699
 30
0.0
 11
16.9072
 21
96.2699
 31
0.0
  0
LINE
  8
0
 62
     0
 10
16.9072
 20
96.2699
 30
0.0
 11
16.9072
 21
110.269
 31
0.0
  0
LINE
  8
0
 62
     0
 10
167.436
 20
112.657
 30
0.0
 11
170.346
 21
98.9637
 31
0.0
  0
LINE
  8
0
 62
     0
 10
170.346
 20
98.9637
 30
0.0
 11
184.041
 21
101.874
 31
0.0
  0
LINE
  8
0
 62
     0
 10
184.041
 20
101.874
 30
0.0
 11
181.13
 21
115.568
 31
0.0
  0
LINE
  8
0
 62
     0
 10
181.13
 20
115.568
 30
0.0
 11
167.436
 21
112.657
 31
0.0
  0
LINE
  8
0
 62
     0
 10
130.542
 20
103.018
 30
0.0
 11
144.235
 21
100.106
 31
0.0
  0
LINE
  8
0
 62
     0
 10
144.235
 20
100.106
 30
0.0
 11
147.147
 21
113.8
 31
0.0
  0
LINE
  8
0
 62
     0
 10
147.147
 20
113.8
 30
0.0
 11
133.452
 21
116.712
 31
0.0
  0
LINE
  8
0
 62
     0
 10
133.452
 20
116.712
 30
0.0
 11
130.542
 21
103.018
 31
0.0
  0
LINE
  8
0
 62
     0
 10
330.28
 20
115.032
 30
0.0
 11
344.279
 21
115.032
 31
0.0
  0
LINE
  8
0
 62
     0
 10
344.279
 20
115.032
 30
0.0
 11
344.279
 21
101.032
 31
0.0
  0
LINE
  8
0
 62
     0
 10
344.279
 20
101.032
 30
0.0
 11
330.28
 21
101.032
 31
0.0
  0
LINE
  8
0
 62
     0
 10
330.28
 20
101.032
 30
0.0
 11
330.28
 21
115.032
 31
0.0
  0
LINE
  8
0
 62
     0
 10
186.069
 20
116.618
 30
0.0
 11
188.98
 21
102.924
 31
0.0
  0
LINE
  8
0
 62
     0
 10
188.98
 20
102.924
 30
0.0
 11
202.674
 21
105.836
 31
0.0
  0
LINE
  8
0
 62
     0
 10
202.674
 20
105.836
 30
0.0
 11
199.763
 21
119.53
 31
0.0
  0
LINE
  8
0
 62
     0
 10
199.763
 20
119.53
 30
0.0
 11
186.069
 21
116.618
 31
0.0
  0
LINE
  8
0
 62
     0
 10
111.908
 20
106.977
 30
0.0
 11
125.601
 21
104.068
 31
0.0
  0
LINE
  8
0
 62
     0
 10
125.601
 20
104.068
 30
0.0
 11
128.513
 21
117.762
 31
0.0
  0
LINE
  8
0
 62
     0
 10
128.513
 20
117.762
 30
0.0
 11
114.818
 21
120.672
 31
0.0
  0
LINE
  8
0
 62
     0
 10
114.818
 20
120.672
 30
0.0
 11
111.908
 21
106.977
 31
0.0
  0
LINE
  8
0
 62
     0
 10
204.702
 20
120.58
 30
0.0
 11
207.614
 21
106.885
 31
0.0
  0
LINE
  8
0
 62
     0
 10
207.614
 20
106.885
 30
0.0
 11
221.307
 21
109.795
 31
0.0
  0
LINE
  8
0
 62
     0
 10
221.307
 20
109.795
 30
0.0
 11
218.397
 21
123.49
 31
0.0
  0
LINE
  8
0
 62
     0
 10
218.397
 20
123.49
 30
0.0
 11
204.702
 21
120.58
 31
0.0
  0
LINE
  8
0
 62
     0
 10
93.2737
 20
110.939
 30
0.0
 11
106.969
 21
108.027
 31
0.0
  0
LINE
  8
0
 62
     0
 10
106.969
 20
108.027
 30
0.0
 11
109.878
 21
121.721
 31
0.0
  0
LINE
  8
0
 62
     0
 10
109.878
 20
121.721
 30
0.0
 11
96.1842
 21
124.633
 31
0.0
  0
LINE
  8
0
 62
     0
 10
96.1842
 20
124.633
 30
0.0
 11
93.2737
 21
110.939
 31
0.0
  0
LINE
  8
0
 62
     0
 10
223.336
 20
124.539
 30
0.0
 11
226.248
 21
110.845
 31
0.0
  0
LINE
  8
0
 62
     0
 10
226.248
 20
110.845
 30
0.0
 11
239.941
 21
113.757
 31
0.0
  0
LINE
  8
0
 62
     0
 10
239.941
 20
113.757
 30
0.0
 11
237.031
 21
127.451
 31
0.0
  0
LINE
  8
0
 62
     0
 10
237.031
 20
127.451
 30
0.0
 11
223.336
 21
124.539
 31
0.0
  0
LINE
  8
0
 62
     0
 10
74.64
 20
114.899
 30
0.0
 11
88.3348
 21
111.989
 31
0.0
  0
LINE
  8
0
 62
     0
 10
88.3348
 20
111.989
 30
0.0
 11
91.2453
 21
125.683
 31
0.0
  0
LINE
  8
0
 62
     0
 10
91.2453
 20
125.683
 30
0.0
 11
77.5518
 21
128.593
 31
0.0
  0
LINE
  8
0
 62
     0
 10
77.5518
 20
128.593
 30
0.0
 11
74.64
 21
114.899
 31
0.0
  0
LINE
  8
0
 62
     0
 10
301.705
 20
129.319
 30
0.0
 11
315.704
 21
129.319
 31
0.0
  0
LINE
  8
0
 62
     0
 10
315.704
 20
129.319
 30
0.0
 11
315.704
 21
115.32
 31
0.0
  0
LINE
  8
0
 62
     0
 10
315.704
 20
115.32
 30
0.0
 11
301.705
 21
115.32
 31
0.0
  0
LINE
  8
0
 62
     0
 10
301.705
 20
115.32
 30
0.0
 11
301.705
 21
129.319
 31
0.0
  0
LINE
  8
0
 62
     0
 10
282.655
 20
129.319
 30
0.0
 11
296.654
 21
129.319
 31
0.0
  0
LINE
  8
0
 62
     0
 10
296.654
 20
129.319
 30
0.0
 11
296.654
 21
115.32
 31
0.0
  0
LINE
  8
0
 62
     0
 10
296.654
 20
115.32
 30
0.0
 11
282.655
 21
115.32
 31
0.0
  0
LINE
  8
0
 62
     0
 10
282.655
 20
115.32
 30
0.0
 11
282.655
 21
129.319
 31
0.0
  0
LINE
  8
0
 62
     0
 10
263.605
 20
129.319
 30
0.0
 11
277.604
 21
129.319
 31
0.0
  0
LINE
  8
0
 62
     0
 10
277.604
 20
129.319
 30
0.0
 11
277.604
 21
115.32
 31
0.0
  0
LINE
  8
0
 62
     0
 10
277.604
 20
115.32
 30
0.0
 11
263.605
 21
115.32
 31
0.0
  0
LINE
  8
0
 62
     0
 10
263.605
 20
115.32
 30
0.0
 11
263.605
 21
129.319
 31
0.0
  0
LINE
  8
0
 62
     0
 10
35.9572
 20
129.319
 30
0.0
 11
49.9565
 21
129.319
 31
0.0
  0
LINE
  8
0
 62
     0
 10
49.9565
 20
129.319
 30
0.0
 11
49.9565
 21
115.32
 31
0.0
  0
LINE
  8
0
 62
     0
 10
49.9565
 20
115.32
 30
0.0
 11
35.9572
 21
115.32
 31
0.0
  0
LINE
  8
0
 62
     0
 10
35.9572
 20
115.32
 30
0.0
 11
35.9572
 21
129.319
 31
0.0
  0
LINE
  8
0
 62
     0
 10
16.9072
 20
129.319
 30
0.0
 11
30.9066
 21
129.319
 31
0.0
  0
LINE
  8
0
 62
     0
 10
30.9066
 20
129.319
 30
0.0
 11
30.9066
 21
115.32
 31
0.0
  0
LINE
  8
0
 62
     0
 10
30.9066
 20
115.32
 30
0.0
 11
16.9072
 21
115.32
 31
0.0
  0
LINE
  8
0
 62
     0
 10
16.9072
 20
115.32
 30
0.0
 11
16.9072
 21
129.319
 31
0.0
  0
LINE
  8
0
 62
     0
 10
244.555
 20
132.177
 30
0.0
 11
258.554
 21
132.177
 31
0.0
  0
LINE
  8
0
 62
     0
 10
258.554
 20
132.177
 30
0.0
 11
258.554
 21
118.178
 31
0.0
  0
LINE
  8
0
 62
     0
 10
258.554
 20
118.178
 30
0.0
 11
244.555
 21
118.178
 31
0.0
  0
LINE
  8
0
 62
     0
 10
244.555
 20
118.178
 30
0.0
 11
244.555
 21
132.177
 31
0.0
  0
LINE
  8
0
 62
     0
 10
55.0072
 20
132.177
 30
0.0
 11
69.0065
 21
132.177
 31
0.0
  0
LINE
  8
0
 62
     0
 10
69.0065
 20
132.177
 30
0.0
 11
69.0065
 21
118.178
 31
0.0
  0
LINE
  8
0
 62
     0
 10
69.0065
 20
118.178
 30
0.0
 11
55.0072
 21
118.178
 31
0.0
  0
LINE
  8
0
 62
     0
 10
55.0072
 20
118.178
 30
0.0
 11
55.0072
 21
132.177
 31
0.0
  0
LINE
  8
0
 62
     0
 10
325.516
 20
134.082
 30
0.0
 11
339.517
 21
134.082
 31
0.0
  0
LINE
  8
0
 62
     0
 10
339.517
 20
134.082
 30
0.0
 11
339.517
 21
120.082
 31
0.0
  0
LINE
  8
0
 62
     0
 10
339.517
 20
120.082
 30
0.0
 11
325.516
 21
120.082
 31
0.0
  0
LINE
  8
0
 62
     0
 10
325.516
 20
120.082
 30
0.0
 11
325.516
 21
134.082
 31
0.0
  0
LINE
  8
0
 62
     0
 10
167.142
 20
136.94
 30
0.0
 11
170.054
 21
123.246
 31
0.0
  0
LINE
  8
0
 62
     0
 10
170.054
 20
123.246
 30
0.0
 11
183.747
 21
126.157
 31
0.0
  0
LINE
  8
0
 62
     0
 10
183.747
 20
126.157
 30
0.0
 11
180.836
 21
139.85
 31
0.0
  0
LINE
  8
0
 62
     0
 10
180.836
 20
139.85
 30
0.0
 11
167.142
 21
136.94
 31
0.0
  0
LINE
  8
0
 62
     0
 10
130.834
 20
127.299
 30
0.0
 11
144.527
 21
124.389
 31
0.0
  0
LINE
  8
0
 62
     0
 10
144.527
 20
124.389
 30
0.0
 11
147.439
 21
138.082
 31
0.0
  0
LINE
  8
0
 62
     0
 10
147.439
 20
138.082
 30
0.0
 11
133.744
 21
140.994
 31
0.0
  0
LINE
  8
0
 62
     0
 10
133.744
 20
140.994
 30
0.0
 11
130.834
 21
127.299
 31
0.0
  0
LINE
  8
0
 62
     0
 10
185.776
 20
140.9
 30
0.0
 11
188.688
 21
127.207
 31
0.0
  0
LINE
  8
0
 62
     0
 10
188.688
 20
127.207
 30
0.0
 11
202.382
 21
130.117
 31
0.0
  0
LINE
  8
0
 62
     0
 10
202.382
 20
130.117
 30
0.0
 11
199.471
 21
143.812
 31
0.0
  0
LINE
  8
0
 62
     0
 10
199.471
 20
143.812
 30
0.0
 11
185.776
 21
140.9
 31
0.0
  0
LINE
  8
0
 62
     0
 10
112.2
 20
131.261
 30
0.0
 11
125.895
 21
128.349
 31
0.0
  0
LINE
  8
0
 62
     0
 10
125.895
 20
128.349
 30
0.0
 11
128.805
 21
142.044
 31
0.0
  0
LINE
  8
0
 62
     0
 10
128.805
 20
142.044
 30
0.0
 11
115.11
 21
144.955
 31
0.0
  0
LINE
  8
0
 62
     0
 10
115.11
 20
144.955
 30
0.0
 11
112.2
 21
131.261
 31
0.0
  0
LINE
  8
0
 62
     0
 10
209.069
 20
145.852
 30
0.0
 11
211.98
 21
132.158
 31
0.0
  0
LINE
  8
0
 62
     0
 10
211.98
 20
132.158
 30
0.0
 11
225.673
 21
135.068
 31
0.0
  0
LINE
  8
0
 62
     0
 10
225.673
 20
135.068
 30
0.0
 11
222.763
 21
148.762
 31
0.0
  0
LINE
  8
0
 62
     0
 10
222.763
 20
148.762
 30
0.0
 11
209.069
 21
145.852
 31
0.0
  0
LINE
  8
0
 62
     0
 10
88.9081
 20
136.211
 30
0.0
 11
102.602
 21
133.3
 31
0.0
  0
LINE
  8
0
 62
     0
 10
102.602
 20
133.3
 30
0.0
 11
105.512
 21
146.994
 31
0.0
  0
LINE
  8
0
 62
     0
 10
105.512
 20
146.994
 30
0.0
 11
91.8185
 21
149.906
 31
0.0
  0
LINE
  8
0
 62
     0
 10
91.8185
 20
149.906
 30
0.0
 11
88.9081
 21
136.211
 31
0.0
  0
LINE
  8
0
 62
     0
 10
227.703
 20
149.812
 30
0.0
 11
230.613
 21
136.119
 31
0.0
  0
LINE
  8
0
 62
     0
 10
230.613
 20
136.119
 30
0.0
 11
244.307
 21
139.029
 31
0.0
  0
LINE
  8
0
 62
     0
 10
244.307
 20
139.029
 30
0.0
 11
241.396
 21
152.724
 31
0.0
  0
LINE
  8
0
 62
     0
 10
241.396
 20
152.724
 30
0.0
 11
227.703
 21
149.812
 31
0.0
  0
LINE
  8
0
 62
     0
 10
70.2744
 20
140.171
 30
0.0
 11
83.9682
 21
137.261
 31
0.0
  0
LINE
  8
0
 62
     0
 10
83.9682
 20
137.261
 30
0.0
 11
86.8796
 21
150.956
 31
0.0
  0
LINE
  8
0
 62
     0
 10
86.8796
 20
150.956
 30
0.0
 11
73.1848
 21
153.865
 31
0.0
  0
LINE
  8
0
 62
     0
 10
73.1848
 20
153.865
 30
0.0
 11
70.2744
 21
140.171
 31
0.0
  0
LINE
  8
0
 62
     0
 10
320.754
 20
153.132
 30
0.0
 11
334.753
 21
153.132
 31
0.0
  0
LINE
  8
0
 62
     0
 10
334.753
 20
153.132
 30
0.0
 11
334.753
 21
139.132
 31
0.0
  0
LINE
  8
0
 62
     0
 10
334.753
 20
139.132
 30
0.0
 11
320.754
 21
139.132
 31
0.0
  0
LINE
  8
0
 62
     0
 10
320.754
 20
139.132
 30
0.0
 11
320.754
 21
153.132
 31
0.0
  0
LINE
  8
0
 62
     0
 10
295.322
 20
153.132
 30
0.0
 11
309.323
 21
153.132
 31
0.0
  0
LINE
  8
0
 62
     0
 10
309.323
 20
153.132
 30
0.0
 11
309.323
 21
139.132
 31
0.0
  0
LINE
  8
0
 62
     0
 10
309.323
 20
139.132
 30
0.0
 11
295.322
 21
139.132
 31
0.0
  0
LINE
  8
0
 62
     0
 10
295.322
 20
139.132
 30
0.0
 11
295.322
 21
153.132
 31
0.0
  0
LINE
  8
0
 62
     0
 10
6.42994
 20
153.132
 30
0.0
 11
20.4294
 21
153.132
 31
0.0
  0
LINE
  8
0
 62
     0
 10
20.4294
 20
153.132
 30
0.0
 11
20.4294
 21
139.132
 31
0.0
  0
LINE
  8
0
 62
     0
 10
20.4294
 20
139.132
 30
0.0
 11
6.42994
 21
139.132
 31
0.0
  0
LINE
  8
0
 62
     0
 10
6.42994
 20
139.132
 30
0.0
 11
6.42994
 21
153.132
 31
0.0
  0
LINE
  8
0
 62
     0
 10
250.27
 20
154.084
 30
0.0
 11
264.269
 21
154.084
 31
0.0
  0
LINE
  8
0
 62
     0
 10
264.269
 20
154.084
 30
0.0
 11
264.269
 21
140.085
 31
0.0
  0
LINE
  8
0
 62
     0
 10
264.269
 20
140.085
 30
0.0
 11
250.27
 21
140.085
 31
0.0
  0
LINE
  8
0
 62
     0
 10
250.27
 20
140.085
 30
0.0
 11
250.27
 21
154.084
 31
0.0
  0
LINE
  8
0
 62
     0
 10
50.2447
 20
154.084
 30
0.0
 11
64.244
 21
154.084
 31
0.0
  0
LINE
  8
0
 62
     0
 10
64.244
 20
154.084
 30
0.0
 11
64.244
 21
140.085
 31
0.0
  0
LINE
  8
0
 62
     0
 10
64.244
 20
140.085
 30
0.0
 11
50.2447
 21
140.085
 31
0.0
  0
LINE
  8
0
 62
     0
 10
50.2447
 20
140.085
 30
0.0
 11
50.2447
 21
154.084
 31
0.0
  0
LINE
  8
0
 62
     0
 10
269.32
 20
154.084
 30
0.0
 11
283.319
 21
154.084
 31
0.0
  0
LINE
  8
0
 62
     0
 10
283.319
 20
154.084
 30
0.0
 11
283.319
 21
140.085
 31
0.0
  0
LINE
  8
0
 62
     0
 10
283.319
 20
140.085
 30
0.0
 11
269.32
 21
140.085
 31
0.0
  0
LINE
  8
0
 62
     0
 10
269.32
 20
140.085
 30
0.0
 11
269.32
 21
154.084
 31
0.0
  0
LINE
  8
0
 62
     0
 10
31.1947
 20
154.084
 30
0.0
 11
45.194
 21
154.084
 31
0.0
  0
LINE
  8
0
 62
     0
 10
45.194
 20
154.084
 30
0.0
 11
45.194
 21
140.085
 31
0.0
  0
LINE
  8
0
 62
     0
 10
45.194
 20
140.085
 30
0.0
 11
31.1947
 21
140.085
 31
0.0
  0
LINE
  8
0
 62
     0
 10
31.1947
 20
140.085
 30
0.0
 11
31.1947
 21
154.084
 31
0.0
  0
ENDSEC
  0
EOF
