  0
SECTION
  2
HEADER
  9
$ACADVER
  1
AC1032
  9
$ACADMAINTVER
 90
      174
  9
$DWGCODEPAGE
  3
ANSI_936
  9
$LASTSAVEDBY
  1
xuech
  9
$REQUIREDVERSIONS
160
                 0
  9
$INSBASE
 10
0.0
 20
0.0
 30
0.0
  9
$EXTMIN
 10
-7.935386074147572
 20
-7.743688540294441
 30
0.0
  9
$EXTMAX
 10
982.686025629964
 20
289.7400234633926
 30
0.0
  9
$LIMMIN
 10
0.0
 20
0.0
  9
$LIMMAX
 10
12.0
 20
9.0
  9
$ORTHOMODE
 70
     0
  9
$REGENMODE
 70
     1
  9
$FILLMODE
 70
     0
  9
$QTEXTMODE
 70
     0
  9
$MIRRTEXT
 70
     0
  9
$LTSCALE
 40
1.0
  9
$ATTMODE
 70
     1
  9
$TEXTSIZE
 40
0.2
  9
$TRACEWID
 40
0.05
  9
$TEXTSTYLE
  7
Standard
  9
$CLAYER
  8
0
  9
$CELTYPE
  6
Continuous
  9
$CECOLOR
 62
   256
  9
$CELTSCALE
 40
1.0
  9
$DISPSILH
 70
     0
  9
$DIMSCALE
 40
1.0
  9
$DIMASZ
 40
0.18
  9
$DIMEXO
 40
0.0625
  9
$DIMDLI
 40
0.38
  9
$DIMRND
 40
0.0
  9
$DIMDLE
 40
0.0
  9
$DIMEXE
 40
0.18
  9
$DIMTP
 40
0.0
  9
$DIMTM
 40
0.0
  9
$DIMTXT
 40
0.18
  9
$DIMCEN
 40
0.09
  9
$DIMTSZ
 40
0.0
  9
$DIMTOL
 70
     0
  9
$DIMLIM
 70
     0
  9
$DIMTIH
 70
     1
  9
$DIMTOH
 70
     1
  9
$DIMSE1
 70
     0
  9
$DIMSE2
 70
     0
  9
$DIMTAD
 70
     0
  9
$DIMZIN
 70
     0
  9
$DIMBLK
  1

  9
$DIMASO
 70
     1
  9
$DIMSHO
 70
     1
  9
$DIMPOST
  1

  9
$DIMAPOST
  1

  9
$DIMALT
 70
     0
  9
$DIMALTD
 70
     2
  9
$DIMALTF
 40
25.4
  9
$DIMLFAC
 40
1.0
  9
$DIMTOFL
 70
     0
  9
$DIMTVP
 40
0.0
  9
$DIMTIX
 70
     0
  9
$DIMSOXD
 70
     0
  9
$DIMSAH
 70
     0
  9
$DIMBLK1
  1

  9
$DIMBLK2
  1

  9
$DIMSTYLE
  2
Standard
  9
$DIMCLRD
 70
     0
  9
$DIMCLRE
 70
     0
  9
$DIMCLRT
 70
     0
  9
$DIMTFAC
 40
1.0
  9
$DIMGAP
 40
0.09
  9
$DIMJUST
 70
     0
  9
$DIMSD1
 70
     0
  9
$DIMSD2
 70
     0
  9
$DIMTOLJ
 70
     1
  9
$DIMTZIN
 70
     0
  9
$DIMALTZ
 70
     0
  9
$DIMALTTZ
 70
     0
  9
$DIMUPT
 70
     0
  9
$DIMDEC
 70
     4
  9
$DIMTDEC
 70
     4
  9
$DIMALTU
 70
     2
  9
$DIMALTTD
 70
     2
  9
$DIMTXSTY
  7
Standard
  9
$DIMAUNIT
 70
     0
  9
$DIMADEC
 70
     0
  9
$DIMALTRND
 40
0.0
  9
$DIMAZIN
 70
     0
  9
$DIMDSEP
 70
    46
  9
$DIMATFIT
 70
     3
  9
$DIMFRAC
 70
     0
  9
$DIMLDRBLK
  1

  9
$DIMLUNIT
 70
     2
  9
$DIMLWD
 70
    -2
  9
$DIMLWE
 70
    -2
  9
$DIMTMOVE
 70
     0
  9
$DIMFXL
 40
1.0
  9
$DIMFXLON
 70
     0
  9
$DIMJOGANG
 40
0.7853981633974483
  9
$DIMTFILL
 70
     0
  9
$DIMTFILLCLR
 70
     0
  9
$DIMARCSYM
 70
     0
  9
$DIMLTYPE
  6

  9
$DIMLTEX1
  6

  9
$DIMLTEX2
  6

  9
$DIMTXTDIRECTION
 70
     0
  9
$LUNITS
 70
     2
  9
$LUPREC
 70
     4
  9
$SKETCHINC
 40
0.1
  9
$FILLETRAD
 40
0.0
  9
$AUNITS
 70
     0
  9
$AUPREC
 70
     0
  9
$MENU
  1
.
  9
$ELEVATION
 40
0.0
  9
$PELEVATION
 40
0.0
  9
$THICKNESS
 40
0.0
  9
$LIMCHECK
 70
     0
  9
$CHAMFERA
 40
0.0
  9
$CHAMFERB
 40
0.0
  9
$CHAMFERC
 40
0.0
  9
$CHAMFERD
 40
0.0
  9
$SKPOLY
 70
     0
  9
$TDCREATE
 40
2459578.292002315
  9
$TDUCREATE
 40
2459577.958668982
  9
$TDUPDATE
 40
2459582.239722222
  9
$TDUUPDATE
 40
2459581.906388889
  9
$TDINDWG
 40
0.0739583333
  9
$TDUSRTIMER
 40
0.0739583333
  9
$USRTIMER
 70
     1
  9
$ANGBASE
 50
0.0
  9
$ANGDIR
 70
     0
  9
$PDMODE
 70
     0
  9
$PDSIZE
 40
0.0
  9
$PLINEWID
 40
0.0
  9
$SPLFRAME
 70
     1
  9
$SPLINETYPE
 70
     6
  9
$SPLINESEGS
 70
     8
  9
$HANDSEED
  5
5BF
  9
$SURFTAB1
 70
     6
  9
$SURFTAB2
 70
     6
  9
$SURFTYPE
 70
     6
  9
$SURFU
 70
     6
  9
$SURFV
 70
     6
  9
$UCSBASE
  2

  9
$UCSNAME
  2

  9
$UCSORG
 10
0.0
 20
0.0
 30
0.0
  9
$UCSXDIR
 10
1.0
 20
0.0
 30
0.0
  9
$UCSYDIR
 10
0.0
 20
1.0
 30
0.0
  9
$UCSORTHOREF
  2

  9
$UCSORTHOVIEW
 70
     0
  9
$UCSORGTOP
 10
0.0
 20
0.0
 30
0.0
  9
$UCSORGBOTTOM
 10
0.0
 20
0.0
 30
0.0
  9
$UCSORGLEFT
 10
0.0
 20
0.0
 30
0.0
  9
$UCSORGRIGHT
 10
0.0
 20
0.0
 30
0.0
  9
$UCSORGFRONT
 10
0.0
 20
0.0
 30
0.0
  9
$UCSORGBACK
 10
0.0
 20
0.0
 30
0.0
  9
$PUCSBASE
  2

  9
$PUCSNAME
  2

  9
$PUCSORG
 10
0.0
 20
0.0
 30
0.0
  9
$PUCSXDIR
 10
1.0
 20
0.0
 30
0.0
  9
$PUCSYDIR
 10
0.0
 20
1.0
 30
0.0
  9
$PUCSORTHOREF
  2

  9
$PUCSORTHOVIEW
 70
     0
  9
$PUCSORGTOP
 10
0.0
 20
0.0
 30
0.0
  9
$PUCSORGBOTTOM
 10
0.0
 20
0.0
 30
0.0
  9
$PUCSORGLEFT
 10
0.0
 20
0.0
 30
0.0
  9
$PUCSORGRIGHT
 10
0.0
 20
0.0
 30
0.0
  9
$PUCSORGFRONT
 10
0.0
 20
0.0
 30
0.0
  9
$PUCSORGBACK
 10
0.0
 20
0.0
 30
0.0
  9
$USERI1
 70
     0
  9
$USERI2
 70
     0
  9
$USERI3
 70
     0
  9
$USERI4
 70
     0
  9
$USERI5
 70
     0
  9
$USERR1
 40
0.0
  9
$USERR2
 40
0.0
  9
$USERR3
 40
0.0
  9
$USERR4
 40
0.0
  9
$USERR5
 40
0.0
  9
$WORLDVIEW
 70
     1
  9
$SHADEDGE
 70
     3
  9
$SHADEDIF
 70
    70
  9
$TILEMODE
 70
     1
  9
$MAXACTVP
 70
    64
  9
$PINSBASE
 10
0.0
 20
0.0
 30
0.0
  9
$PLIMCHECK
 70
     0
  9
$PEXTMIN
 10
1.000000000000000E+20
 20
1.000000000000000E+20
 30
1.000000000000000E+20
  9
$PEXTMAX
 10
-1.000000000000000E+20
 20
-1.000000000000000E+20
 30
-1.000000000000000E+20
  9
$PLIMMIN
 10
0.0
 20
0.0
  9
$PLIMMAX
 10
12.0
 20
9.0
  9
$UNITMODE
 70
     0
  9
$VISRETAIN
 70
     1
  9
$PLINEGEN
 70
     0
  9
$PSLTSCALE
 70
     1
  9
$TREEDEPTH
 70
  3020
  9
$CMLSTYLE
  2
Standard
  9
$CMLJUST
 70
     0
  9
$CMLSCALE
 40
1.0
  9
$PROXYGRAPHICS
 70
     1
  9
$MEASUREMENT
 70
     0
  9
$CELWEIGHT
370
    -1
  9
$ENDCAPS
280
     0
  9
$JOINSTYLE
280
     0
  9
$LWDISPLAY
290
     0
  9
$INSUNITS
 70
     0
  9
$HYPERLINKBASE
  1

  9
$STYLESHEET
  1

  9
$XEDIT
290
     1
  9
$CEPSNTYPE
380
     0
  9
$PSTYLEMODE
290
     1
  9
$FINGERPRINTGUID
  2
{AC0140F3-F9D7-6F49-95D3-D4EFF40053D3}
  9
$VERSIONGUID
  2
{00F466D7-C4C7-EE4E-A9CF-03C88E33A962}
  9
$EXTNAMES
290
     1
  9
$PSVPSCALE
 40
0.0
  9
$OLESTARTUP
290
     0
  9
$SORTENTS
280
   127
  9
$INDEXCTL
280
     0
  9
$HIDETEXT
280
     0
  9
$XCLIPFRAME
280
     2
  9
$HALOGAP
280
     0
  9
$OBSCOLOR
 70
   257
  9
$OBSLTYPE
280
     0
  9
$INTERSECTIONDISPLAY
280
     0
  9
$INTERSECTIONCOLOR
 70
   257
  9
$DIMASSOC
280
     1
  9
$PROJECTNAME
  1

  9
$CAMERADISPLAY
290
     0
  9
$LENSLENGTH
 40
50.0
  9
$CAMERAHEIGHT
 40
0.0
  9
$STEPSPERSEC
 40
2.0
  9
$STEPSIZE
 40
6.0
  9
$3DDWFPREC
 40
2.0
  9
$PSOLWIDTH
 40
0.25
  9
$PSOLHEIGHT
 40
4.0
  9
$LOFTANG1
 40
1.570796326794896
  9
$LOFTANG2
 40
1.570796326794896
  9
$LOFTMAG1
 40
0.0
  9
$LOFTMAG2
 40
0.0
  9
$LOFTPARAM
 70
     7
  9
$LOFTNORMALS
280
     1
  9
$LATITUDE
 40
37.795
  9
$LONGITUDE
 40
-122.394
  9
$NORTHDIRECTION
 40
0.0
  9
$TIMEZONE
 70
 -8000
  9
$LIGHTGLYPHDISPLAY
280
     1
  9
$TILEMODELIGHTSYNCH
280
     1
  9
$CMATERIAL
347
11
  9
$SOLIDHIST
280
     0
  9
$SHOWHIST
280
     1
  9
$DWFFRAME
280
     2
  9
$DGNFRAME
280
     0
  9
$REALWORLDSCALE
290
     1
  9
$INTERFERECOLOR
 62
     1
  9
$INTERFEREOBJVS
345
33
  9
$INTERFEREVPVS
346
30
  9
$CSHADOW
280
     0
  9
$SHADOWPLANELOCATION
 40
0.0
  0
ENDSEC
  0
SECTION
  2
CLASSES
  0
CLASS
  1
ACDBDICTIONARYWDFLT
  2
AcDbDictionaryWithDefault
  3
ObjectDBX Classes
 90
        0
 91
        1
280
     0
281
     0
  0
CLASS
  1
MATERIAL
  2
AcDbMaterial
  3
ObjectDBX Classes
 90
     1153
 91
        3
280
     0
281
     0
  0
CLASS
  1
VISUALSTYLE
  2
AcDbVisualStyle
  3
ObjectDBX Classes
 90
     4095
 91
       24
280
     0
281
     0
  0
CLASS
  1
SCALE
  2
AcDbScale
  3
ObjectDBX Classes
 90
     1153
 91
       17
280
     0
281
     0
  0
CLASS
  1
TABLESTYLE
  2
AcDbTableStyle
  3
ObjectDBX Classes
 90
     4095
 91
        1
280
     0
281
     0
  0
CLASS
  1
MLEADERSTYLE
  2
AcDbMLeaderStyle
  3
ACDB_MLEADERSTYLE_CLASS
 90
     4095
 91
        1
280
     0
281
     0
  0
CLASS
  1
ACDBSECTIONVIEWSTYLE
  2
AcDbSectionViewStyle
  3
ObjectDBX Classes
 90
     1025
 91
        1
280
     0
281
     0
  0
CLASS
  1
ACDBDETAILVIEWSTYLE
  2
AcDbDetailViewStyle
  3
ObjectDBX Classes
 90
     1025
 91
        1
280
     0
281
     0
  0
CLASS
  1
DICTIONARYVAR
  2
AcDbDictionaryVar
  3
ObjectDBX Classes
 90
        0
 91
        9
280
     0
281
     0
  0
CLASS
  1
SORTENTSTABLE
  2
AcDbSortentsTable
  3
ObjectDBX Classes
 90
        0
 91
        1
280
     0
281
     0
  0
CLASS
  1
CELLSTYLEMAP
  2
AcDbCellStyleMap
  3
ObjectDBX Classes
 90
     1152
 91
        2
280
     0
281
     0
  0
ENDSEC
  0
SECTION
  2
TABLES
  0
TABLE
  2
VPORT
  5
8
330
0
100
AcDbSymbolTable
 70
     1
  0
VPORT
  5
74
330
8
100
AcDbSymbolTableRecord
100
AcDbViewportTableRecord
  2
*Active
 70
     0
 10
0.0
 20
0.0
 11
1.0
 21
1.0
 12
74.05850824721915
 22
104.4988730850254
 13
0.0
 23
0.0
 14
1.0
 24
1.0
 15
0.0
 25
0.0
 16
0.0
 26
0.0
 36
1.0
 17
0.0
 27
0.0
 37
0.0
 40
394.5710377894824
 41
2.343883140596469
 42
50.0
 43
0.0
 44
0.0
 50
0.0
 51
0.0
 71
     0
 72
   100
 73
     1
 74
     1
 75
     0
 76
     0
 77
     0
 78
     0
281
     0
 65
     1
110
0.0
120
0.0
130
0.0
111
1.0
121
0.0
131
0.0
112
0.0
122
1.0
132
0.0
 79
     0
146
0.0
348
2F
 60
     3
 61
     5
292
     1
282
     1
141
0.0
142
0.0
 63
   250
421
  3355443
1001
ACAD_NAV_VCDISPLAY
1070
     3
  0
ENDTAB
  0
TABLE
  2
LTYPE
  5
5
330
0
100
AcDbSymbolTable
 70
     2
  0
LTYPE
  5
5A
330
5
100
AcDbSymbolTableRecord
100
AcDbLinetypeTableRecord
  2
ByBlock
 70
     0
  3

 72
    65
 73
     0
 40
0.0
  0
LTYPE
  5
5B
330
5
100
AcDbSymbolTableRecord
100
AcDbLinetypeTableRecord
  2
ByLayer
 70
     0
  3

 72
    65
 73
     0
 40
0.0
  0
LTYPE
  5
5C
330
5
100
AcDbSymbolTableRecord
100
AcDbLinetypeTableRecord
  2
Continuous
 70
     0
  3
Solid line
 72
    65
 73
     0
 40
0.0
  0
ENDTAB
  0
TABLE
  2
LAYER
  5
2
102
{ACAD_XDICTIONARY
360
268
102
}
330
0
100
AcDbSymbolTable
 70
     1
  0
LAYER
  5
54
102
{ACAD_XDICTIONARY
360
251
102
}
330
2
100
AcDbSymbolTableRecord
100
AcDbLayerTableRecord
  2
0
 70
     0
 62
     7
  6
Continuous
370
    -3
390
F
347
21
348
0
  0
ENDTAB
  0
TABLE
  2
STYLE
  5
3
330
0
100
AcDbSymbolTable
 70
     2
  0
STYLE
  5
55
330
3
100
AcDbSymbolTableRecord
100
AcDbTextStyleTableRecord
  2
Standard
 70
     0
 40
0.0
 41
1.0
 50
0.0
 71
     0
 42
0.2
  3
txt
  4

  0
STYLE
  5
59
330
3
100
AcDbSymbolTableRecord
100
AcDbTextStyleTableRecord
  2
Annotative
 70
     0
 40
0.0
 41
1.0
 50
0.0
 71
     0
 42
0.2
  3
txt
  4

1001
AcadAnnotative
1000
AnnotativeData
1002
{
1070
     1
1070
     1
1002
}
  0
ENDTAB
  0
TABLE
  2
VIEW
  5
6
330
0
100
AcDbSymbolTable
 70
     0
  0
ENDTAB
  0
TABLE
  2
UCS
  5
7
330
0
100
AcDbSymbolTable
 70
     0
  0
ENDTAB
  0
TABLE
  2
APPID
  5
9
330
0
100
AcDbSymbolTable
 70
     4
  0
APPID
  5
56
330
9
100
AcDbSymbolTableRecord
100
AcDbRegAppTableRecord
  2
ACAD
 70
     0
  0
APPID
  5
5D
330
9
100
AcDbSymbolTableRecord
100
AcDbRegAppTableRecord
  2
AcadAnnotative
 70
     0
  0
APPID
  5
249
330
9
100
AcDbSymbolTableRecord
100
AcDbRegAppTableRecord
  2
ACAD_EXEMPT_FROM_CAD_STANDARDS
 70
     0
  0
APPID
  5
25D
330
9
100
AcDbSymbolTableRecord
100
AcDbRegAppTableRecord
  2
ACAD_NAV_VCDISPLAY
 70
     0
  0
ENDTAB
  0
TABLE
  2
DIMSTYLE
  5
A
330
0
100
AcDbSymbolTable
 70
     3
100
AcDbDimStyleTable
 71
     1
340
57
  0
DIMSTYLE
105
57
330
A
100
AcDbSymbolTableRecord
100
AcDbDimStyleTableRecord
  2
Standard
 70
     0
340
55
  0
DIMSTYLE
105
58
330
A
100
AcDbSymbolTableRecord
100
AcDbDimStyleTableRecord
  2
Annotative
 70
     0
340
55
1001
AcadAnnotative
1000
AnnotativeData
1002
{
1070
     1
1070
     1
1002
}
  0
ENDTAB
  0
TABLE
  2
BLOCK_RECORD
  5
1
330
0
100
AcDbSymbolTable
 70
     3
  0
BLOCK_RECORD
  5
6F
102
{ACAD_XDICTIONARY
360
24C
102
}
330
1
100
AcDbSymbolTableRecord
100
AcDbBlockTableRecord
  2
*Model_Space
340
72
 70
     0
280
     1
281
     0
  0
BLOCK_RECORD
  5
6B
330
1
100
AcDbSymbolTableRecord
100
AcDbBlockTableRecord
  2
*Paper_Space
340
6E
 70
     0
280
     1
281
     0
  0
BLOCK_RECORD
  5
27F
330
1
100
AcDbSymbolTableRecord
100
AcDbBlockTableRecord
  2
A$Cfb544c32
340
0
 70
     0
280
     1
281
     0
  0
ENDTAB
  0
ENDSEC
  0
SECTION
  2
BLOCKS
  0
BLOCK
  5
70
330
6F
100
AcDbEntity
  8
0
100
AcDbBlockBegin
  2
*Model_Space
 70
     0
 10
0.0
 20
0.0
 30
0.0
  3
*Model_Space
  1

  0
ENDBLK
  5
71
330
6F
100
AcDbEntity
  8
0
100
AcDbBlockEnd
  0
BLOCK
  5
6C
330
6B
100
AcDbEntity
 67
     1
  8
0
100
AcDbBlockBegin
  2
*Paper_Space
 70
     0
 10
0.0
 20
0.0
 30
0.0
  3
*Paper_Space
  1

  0
ENDBLK
  5
6D
330
6B
100
AcDbEntity
 67
     1
  8
0
100
AcDbBlockEnd
  0
BLOCK
  5
468
330
27F
100
AcDbEntity
  8
0
100
AcDbBlockBegin
  2
A$Cfb544c32
 70
     0
 10
0.0
 20
0.0
 30
0.0
  3
A$Cfb544c32
  1

  0
LINE
  5
280
330
27F
100
AcDbEntity
  8
0
 62
     0
100
AcDbLine
 10
0.0
 20
160.020746
 30
0.0
 11
351.4729154
 21
160.020746
 31
0.0
  0
LINE
  5
281
330
27F
100
AcDbEntity
  8
0
 62
     0
100
AcDbLine
 10
351.4729154
 20
160.020746
 30
0.0
 11
351.4729154
 21
0.0
 31
0.0
  0
LINE
  5
282
330
27F
100
AcDbEntity
  8
0
 62
     0
100
AcDbLine
 10
351.4729154
 20
0.0
 30
0.0
 11
0.0
 21
0.0
 31
0.0
  0
LINE
  5
283
330
27F
100
AcDbEntity
  8
0
 62
     0
100
AcDbLine
 10
0.0
 20
0.0
 30
0.0
 11
0.0
 21
160.020746
 31
0.0
  0
LINE
  5
284
330
27F
100
AcDbEntity
  8
0
 62
     0
100
AcDbLine
 10
164.4499154
 20
16.526846
 30
0.0
 11
178.4489154
 21
16.526846
 31
0.0
  0
LINE
  5
285
330
27F
100
AcDbEntity
  8
0
 62
     0
100
AcDbLine
 10
178.4489154
 20
16.526846
 30
0.0
 11
178.4489154
 21
2.525945999999999
 31
0.0
  0
LINE
  5
286
330
27F
100
AcDbEntity
  8
0
 62
     0
100
AcDbLine
 10
178.4489154
 20
2.525945999999999
 30
0.0
 11
164.4499154
 21
2.525945999999999
 31
0.0
  0
LINE
  5
287
330
27F
100
AcDbEntity
  8
0
 62
     0
100
AcDbLine
 10
164.4499154
 20
2.525945999999999
 30
0.0
 11
164.4499154
 21
16.526846
 31
0.0
  0
LINE
  5
288
330
27F
100
AcDbEntity
  8
0
 62
     0
100
AcDbLine
 10
145.3999154
 20
16.526846
 30
0.0
 11
159.3989154
 21
16.526846
 31
0.0
  0
LINE
  5
289
330
27F
100
AcDbEntity
  8
0
 62
     0
100
AcDbLine
 10
159.3989154
 20
16.526846
 30
0.0
 11
159.3989154
 21
2.525945999999999
 31
0.0
  0
LINE
  5
28A
330
27F
100
AcDbEntity
  8
0
 62
     0
100
AcDbLine
 10
159.3989154
 20
2.525945999999999
 30
0.0
 11
145.3999154
 21
2.525945999999999
 31
0.0
  0
LINE
  5
28B
330
27F
100
AcDbEntity
  8
0
 62
     0
100
AcDbLine
 10
145.3999154
 20
2.525945999999999
 30
0.0
 11
145.3999154
 21
16.526846
 31
0.0
  0
LINE
  5
28C
330
27F
100
AcDbEntity
  8
0
 62
     0
100
AcDbLine
 10
126.3499154
 20
16.526846
 30
0.0
 11
140.3489154
 21
16.526846
 31
0.0
  0
LINE
  5
28D
330
27F
100
AcDbEntity
  8
0
 62
     0
100
AcDbLine
 10
140.3489154
 20
16.526846
 30
0.0
 11
140.3489154
 21
2.525945999999999
 31
0.0
  0
LINE
  5
28E
330
27F
100
AcDbEntity
  8
0
 62
     0
100
AcDbLine
 10
140.3489154
 20
2.525945999999999
 30
0.0
 11
126.3499154
 21
2.525945999999999
 31
0.0
  0
LINE
  5
28F
330
27F
100
AcDbEntity
  8
0
 62
     0
100
AcDbLine
 10
126.3499154
 20
2.525945999999999
 30
0.0
 11
126.3499154
 21
16.526846
 31
0.0
  0
LINE
  5
290
330
27F
100
AcDbEntity
  8
0
 62
     0
100
AcDbLine
 10
173.8669154
 20
35.744846
 30
0.0
 11
176.7779154
 21
22.049946
 31
0.0
  0
LINE
  5
291
330
27F
100
AcDbEntity
  8
0
 62
     0
100
AcDbLine
 10
176.7779154
 20
22.049946
 30
0.0
 11
190.4709153999999
 21
24.961746
 31
0.0
  0
LINE
  5
292
330
27F
100
AcDbEntity
  8
0
 62
     0
100
AcDbLine
 10
190.4709153999999
 20
24.961746
 30
0.0
 11
187.5609153999999
 21
38.655346
 31
0.0
  0
LINE
  5
293
330
27F
100
AcDbEntity
  8
0
 62
     0
100
AcDbLine
 10
187.5609153999999
 20
38.655346
 30
0.0
 11
173.8669154
 21
35.744846
 31
0.0
  0
LINE
  5
294
330
27F
100
AcDbEntity
  8
0
 62
     0
100
AcDbLine
 10
128.5779154
 20
25.113346
 30
0.0
 11
142.2729154
 21
22.202946
 31
0.0
  0
LINE
  5
295
330
27F
100
AcDbEntity
  8
0
 62
     0
100
AcDbLine
 10
142.2729154
 20
22.202946
 30
0.0
 11
145.1829154
 21
35.896546
 31
0.0
  0
LINE
  5
296
330
27F
100
AcDbEntity
  8
0
 62
     0
100
AcDbLine
 10
145.1829154
 20
35.896546
 30
0.0
 11
131.4899154
 21
38.807046
 31
0.0
  0
LINE
  5
297
330
27F
100
AcDbEntity
  8
0
 62
     0
100
AcDbLine
 10
131.4899154
 20
38.807046
 30
0.0
 11
128.5779154
 21
25.113346
 31
0.0
  0
LINE
  5
298
330
27F
100
AcDbEntity
  8
0
 62
     0
100
AcDbLine
 10
219.6369154
 20
43.97064599999999
 30
0.0
 11
220.3099154
 21
40.81074599999999
 31
0.0
  0
LINE
  5
299
330
27F
100
AcDbEntity
  8
0
 62
     0
100
AcDbLine
 10
220.3099154
 20
40.81074599999999
 30
0.0
 11
218.8169154
 21
40.49364599999999
 31
0.0
  0
LINE
  5
29A
330
27F
100
AcDbEntity
  8
0
 62
     0
100
AcDbLine
 10
218.8169154
 20
40.49364599999999
 30
0.0
 11
217.8409154
 21
45.090646
 31
0.0
  0
LINE
  5
29B
330
27F
100
AcDbEntity
  8
0
 62
     0
100
AcDbLine
 10
217.8409154
 20
45.090646
 30
0.0
 11
204.1469154
 21
42.18024599999999
 31
0.0
  0
LINE
  5
29C
330
27F
100
AcDbEntity
  8
0
 62
     0
100
AcDbLine
 10
204.1469154
 20
42.18024599999999
 30
0.0
 11
205.1239154
 21
37.583246
 31
0.0
  0
LINE
  5
29D
330
27F
100
AcDbEntity
  8
0
 62
     0
100
AcDbLine
 10
205.1239154
 20
37.583246
 30
0.0
 11
203.6309154
 21
37.266446
 31
0.0
  0
LINE
  5
29E
330
27F
100
AcDbEntity
  8
0
 62
     0
100
AcDbLine
 10
203.6309154
 20
37.266446
 30
0.0
 11
202.9599154
 21
40.42484599999999
 31
0.0
  0
LINE
  5
29F
330
27F
100
AcDbEntity
  8
0
 62
     0
100
AcDbLine
 10
202.9599154
 20
40.42484599999999
 30
0.0
 11
196.3579154
 21
39.021846
 31
0.0
  0
LINE
  5
2A0
330
27F
100
AcDbEntity
  8
0
 62
     0
100
AcDbLine
 10
196.3579154
 20
39.021846
 30
0.0
 11
197.0289154
 21
35.864846
 31
0.0
  0
LINE
  5
2A1
330
27F
100
AcDbEntity
  8
0
 62
     0
100
AcDbLine
 10
197.0289154
 20
35.864846
 30
0.0
 11
196.2229154
 21
35.691246
 31
0.0
  0
LINE
  5
2A2
330
27F
100
AcDbEntity
  8
0
 62
     0
100
AcDbLine
 10
196.2229154
 20
35.691246
 30
0.0
 11
196.8049154
 21
32.951646
 31
0.0
  0
LINE
  5
2A3
330
27F
100
AcDbEntity
  8
0
 62
     0
100
AcDbLine
 10
196.8049154
 20
32.951646
 30
0.0
 11
197.6119154
 21
33.123846
 31
0.0
  0
LINE
  5
2A4
330
27F
100
AcDbEntity
  8
0
 62
     0
100
AcDbLine
 10
197.6119154
 20
33.123846
 30
0.0
 11
198.9139154
 21
26.991646
 31
0.0
  0
LINE
  5
2A5
330
27F
100
AcDbEntity
  8
0
 62
     0
100
AcDbLine
 10
198.9139154
 20
26.991646
 30
0.0
 11
200.6019154
 21
27.348546
 31
0.0
  0
LINE
  5
2A6
330
27F
100
AcDbEntity
  8
0
 62
     0
100
AcDbLine
 10
200.6019154
 20
27.348546
 30
0.0
 11
200.8519154
 21
26.175846
 31
0.0
  0
LINE
  5
2A7
330
27F
100
AcDbEntity
  8
0
 62
     0
100
AcDbLine
 10
200.8519154
 20
26.175846
 30
0.0
 11
204.0789154
 21
26.862046
 31
0.0
  0
LINE
  5
2A8
330
27F
100
AcDbEntity
  8
0
 62
     0
100
AcDbLine
 10
204.0789154
 20
26.862046
 30
0.0
 11
203.8299154
 21
28.034846
 31
0.0
  0
LINE
  5
2A9
330
27F
100
AcDbEntity
  8
0
 62
     0
100
AcDbLine
 10
203.8299154
 20
28.034846
 30
0.0
 11
205.5179154
 21
28.394446
 31
0.0
  0
LINE
  5
2AA
330
27F
100
AcDbEntity
  8
0
 62
     0
100
AcDbLine
 10
205.5179154
 20
28.394446
 30
0.0
 11
204.5889154
 21
32.765646
 31
0.0
  0
LINE
  5
2AB
330
27F
100
AcDbEntity
  8
0
 62
     0
100
AcDbLine
 10
204.5889154
 20
32.765646
 30
0.0
 11
206.0789154
 21
33.082546
 31
0.0
  0
LINE
  5
2AC
330
27F
100
AcDbEntity
  8
0
 62
     0
100
AcDbLine
 10
206.0789154
 20
33.082546
 30
0.0
 11
207.0559154
 21
28.486846
 31
0.0
  0
LINE
  5
2AD
330
27F
100
AcDbEntity
  8
0
 62
     0
100
AcDbLine
 10
207.0559154
 20
28.486846
 30
0.0
 11
220.7509154
 21
31.397246
 31
0.0
  0
LINE
  5
2AE
330
27F
100
AcDbEntity
  8
0
 62
     0
100
AcDbLine
 10
220.7509154
 20
31.397246
 30
0.0
 11
219.7739154
 21
35.995746
 31
0.0
  0
LINE
  5
2AF
330
27F
100
AcDbEntity
  8
0
 62
     0
100
AcDbLine
 10
219.7739154
 20
35.995746
 30
0.0
 11
221.2659154
 21
36.311446
 31
0.0
  0
LINE
  5
2B0
330
27F
100
AcDbEntity
  8
0
 62
     0
100
AcDbLine
 10
221.2659154
 20
36.311446
 30
0.0
 11
222.1949154
 21
31.938846
 31
0.0
  0
LINE
  5
2B1
330
27F
100
AcDbEntity
  8
0
 62
     0
100
AcDbLine
 10
222.1949154
 20
31.938846
 30
0.0
 11
223.8829154
 21
32.298446
 31
0.0
  0
LINE
  5
2B2
330
27F
100
AcDbEntity
  8
0
 62
     0
100
AcDbLine
 10
223.8829154
 20
32.298446
 30
0.0
 11
224.1309154
 21
31.124346
 31
0.0
  0
LINE
  5
2B3
330
27F
100
AcDbEntity
  8
0
 62
     0
100
AcDbLine
 10
224.1309154
 20
31.124346
 30
0.0
 11
227.3599154
 21
31.810646
 31
0.0
  0
LINE
  5
2B4
330
27F
100
AcDbEntity
  8
0
 62
     0
100
AcDbLine
 10
227.3599154
 20
31.810646
 30
0.0
 11
227.1099154
 21
32.984746
 31
0.0
  0
LINE
  5
2B5
330
27F
100
AcDbEntity
  8
0
 62
     0
100
AcDbLine
 10
227.1099154
 20
32.984746
 30
0.0
 11
228.7969154
 21
33.341646
 31
0.0
  0
LINE
  5
2B6
330
27F
100
AcDbEntity
  8
0
 62
     0
100
AcDbLine
 10
228.7969154
 20
33.341646
 30
0.0
 11
227.4939154
 21
39.475146
 31
0.0
  0
LINE
  5
2B7
330
27F
100
AcDbEntity
  8
0
 62
     0
100
AcDbLine
 10
227.4939154
 20
39.475146
 30
0.0
 11
228.3009154
 21
39.647646
 31
0.0
  0
LINE
  5
2B8
330
27F
100
AcDbEntity
  8
0
 62
     0
100
AcDbLine
 10
228.3009154
 20
39.647646
 30
0.0
 11
227.7179154
 21
42.38554599999999
 31
0.0
  0
LINE
  5
2B9
330
27F
100
AcDbEntity
  8
0
 62
     0
100
AcDbLine
 10
227.7179154
 20
42.38554599999999
 30
0.0
 11
226.9119154
 21
42.214846
 31
0.0
  0
LINE
  5
2BA
330
27F
100
AcDbEntity
  8
0
 62
     0
100
AcDbLine
 10
226.9119154
 20
42.214846
 30
0.0
 11
226.2409154
 21
45.37464599999999
 31
0.0
  0
LINE
  5
2BB
330
27F
100
AcDbEntity
  8
0
 62
     0
100
AcDbLine
 10
226.2409154
 20
45.37464599999999
 30
0.0
 11
219.6369154
 21
43.97064599999999
 31
0.0
  0
LINE
  5
2BC
330
27F
100
AcDbEntity
  8
0
 62
     0
100
AcDbLine
 10
94.7552154
 20
46.38074599999999
 30
0.0
 11
93.06721539999999
 21
46.738846
 31
0.0
  0
LINE
  5
2BD
330
27F
100
AcDbEntity
  8
0
 62
     0
100
AcDbLine
 10
93.06721539999999
 20
46.738846
 30
0.0
 11
91.76511539999999
 21
40.606546
 31
0.0
  0
LINE
  5
2BE
330
27F
100
AcDbEntity
  8
0
 62
     0
100
AcDbLine
 10
91.76511539999999
 20
40.606546
 30
0.0
 11
90.9575154
 21
40.777646
 31
0.0
  0
LINE
  5
2BF
330
27F
100
AcDbEntity
  8
0
 62
     0
100
AcDbLine
 10
90.9575154
 20
40.777646
 30
0.0
 11
90.37581539999999
 21
38.039346
 31
0.0
  0
LINE
  5
2C0
330
27F
100
AcDbEntity
  8
0
 62
     0
100
AcDbLine
 10
90.37581539999999
 20
38.039346
 30
0.0
 11
91.18191539999999
 21
37.867246
 31
0.0
  0
LINE
  5
2C1
330
27F
100
AcDbEntity
  8
0
 62
     0
100
AcDbLine
 10
91.18191539999999
 20
37.867246
 30
0.0
 11
90.51091539999999
 21
34.708646
 31
0.0
  0
LINE
  5
2C2
330
27F
100
AcDbEntity
  8
0
 62
     0
100
AcDbLine
 10
90.51091539999999
 20
34.708646
 30
0.0
 11
97.1132154
 21
33.304446
 31
0.0
  0
LINE
  5
2C3
330
27F
100
AcDbEntity
  8
0
 62
     0
100
AcDbLine
 10
97.1132154
 20
33.304446
 30
0.0
 11
97.7842154
 21
36.465646
 31
0.0
  0
LINE
  5
2C4
330
27F
100
AcDbEntity
  8
0
 62
     0
100
AcDbLine
 10
97.7842154
 20
36.465646
 30
0.0
 11
99.2768154
 21
36.147446
 31
0.0
  0
LINE
  5
2C5
330
27F
100
AcDbEntity
  8
0
 62
     0
100
AcDbLine
 10
99.2768154
 20
36.147446
 30
0.0
 11
98.29961539999999
 21
31.548846
 31
0.0
  0
LINE
  5
2C6
330
27F
100
AcDbEntity
  8
0
 62
     0
100
AcDbLine
 10
98.29961539999999
 20
31.548846
 30
0.0
 11
111.9929154
 21
28.639746
 31
0.0
  0
LINE
  5
2C7
330
27F
100
AcDbEntity
  8
0
 62
     0
100
AcDbLine
 10
111.9929154
 20
28.639746
 30
0.0
 11
112.9699154
 21
33.235546
 31
0.0
  0
LINE
  5
2C8
330
27F
100
AcDbEntity
  8
0
 62
     0
100
AcDbLine
 10
112.9699154
 20
33.235546
 30
0.0
 11
114.4609154
 21
32.918546
 31
0.0
  0
LINE
  5
2C9
330
27F
100
AcDbEntity
  8
0
 62
     0
100
AcDbLine
 10
114.4609154
 20
32.918546
 30
0.0
 11
113.7899154
 21
29.760146
 31
0.0
  0
LINE
  5
2CA
330
27F
100
AcDbEntity
  8
0
 62
     0
100
AcDbLine
 10
113.7899154
 20
29.760146
 30
0.0
 11
120.3919154
 21
28.355846
 31
0.0
  0
LINE
  5
2CB
330
27F
100
AcDbEntity
  8
0
 62
     0
100
AcDbLine
 10
120.3919154
 20
28.355846
 30
0.0
 11
121.0649154
 21
31.515746
 31
0.0
  0
LINE
  5
2CC
330
27F
100
AcDbEntity
  8
0
 62
     0
100
AcDbLine
 10
121.0649154
 20
31.515746
 30
0.0
 11
121.8709154
 21
31.343446
 31
0.0
  0
LINE
  5
2CD
330
27F
100
AcDbEntity
  8
0
 62
     0
100
AcDbLine
 10
121.8709154
 20
31.343446
 30
0.0
 11
122.4539154
 21
34.084446
 31
0.0
  0
LINE
  5
2CE
330
27F
100
AcDbEntity
  8
0
 62
     0
100
AcDbLine
 10
122.4539154
 20
34.084446
 30
0.0
 11
121.6459154
 21
34.253946
 31
0.0
  0
LINE
  5
2CF
330
27F
100
AcDbEntity
  8
0
 62
     0
100
AcDbLine
 10
121.6459154
 20
34.253946
 30
0.0
 11
122.9499154
 21
40.387446
 31
0.0
  0
LINE
  5
2D0
330
27F
100
AcDbEntity
  8
0
 62
     0
100
AcDbLine
 10
122.9499154
 20
40.387446
 30
0.0
 11
121.2619154
 21
40.745846
 31
0.0
  0
LINE
  5
2D1
330
27F
100
AcDbEntity
  8
0
 62
     0
100
AcDbLine
 10
121.2619154
 20
40.745846
 30
0.0
 11
121.5129153999999
 21
41.919946
 31
0.0
  0
LINE
  5
2D2
330
27F
100
AcDbEntity
  8
0
 62
     0
100
AcDbLine
 10
121.5129153999999
 20
41.919946
 30
0.0
 11
118.2839154
 21
42.60604599999999
 31
0.0
  0
LINE
  5
2D3
330
27F
100
AcDbEntity
  8
0
 62
     0
100
AcDbLine
 10
118.2839154
 20
42.60604599999999
 30
0.0
 11
118.0359154
 21
41.43204599999999
 31
0.0
  0
LINE
  5
2D4
330
27F
100
AcDbEntity
  8
0
 62
     0
100
AcDbLine
 10
118.0359154
 20
41.43204599999999
 30
0.0
 11
116.3479154
 21
41.791846
 31
0.0
  0
LINE
  5
2D5
330
27F
100
AcDbEntity
  8
0
 62
     0
100
AcDbLine
 10
116.3479154
 20
41.791846
 30
0.0
 11
115.4189154
 21
37.417746
 31
0.0
  0
LINE
  5
2D6
330
27F
100
AcDbEntity
  8
0
 62
     0
100
AcDbLine
 10
115.4189154
 20
37.417746
 30
0.0
 11
113.9269154
 21
37.734946
 31
0.0
  0
LINE
  5
2D7
330
27F
100
AcDbEntity
  8
0
 62
     0
100
AcDbLine
 10
113.9269154
 20
37.734946
 30
0.0
 11
114.9039154
 21
42.333346
 31
0.0
  0
LINE
  5
2D8
330
27F
100
AcDbEntity
  8
0
 62
     0
100
AcDbLine
 10
114.9039154
 20
42.333346
 30
0.0
 11
101.2099154
 21
45.24374599999999
 31
0.0
  0
LINE
  5
2D9
330
27F
100
AcDbEntity
  8
0
 62
     0
100
AcDbLine
 10
101.2099154
 20
45.24374599999999
 30
0.0
 11
100.2329154
 21
40.646746
 31
0.0
  0
LINE
  5
2DA
330
27F
100
AcDbEntity
  8
0
 62
     0
100
AcDbLine
 10
100.2329154
 20
40.646746
 30
0.0
 11
98.74051539999999
 21
40.963546
 31
0.0
  0
LINE
  5
2DB
330
27F
100
AcDbEntity
  8
0
 62
     0
100
AcDbLine
 10
98.74051539999999
 20
40.963546
 30
0.0
 11
99.6708154
 21
45.33624599999999
 31
0.0
  0
LINE
  5
2DC
330
27F
100
AcDbEntity
  8
0
 62
     0
100
AcDbLine
 10
99.6708154
 20
45.33624599999999
 30
0.0
 11
97.98421539999999
 21
45.694246
 31
0.0
  0
LINE
  5
2DD
330
27F
100
AcDbEntity
  8
0
 62
     0
100
AcDbLine
 10
97.98421539999999
 20
45.694246
 30
0.0
 11
98.23221539999998
 21
46.868346
 31
0.0
  0
LINE
  5
2DE
330
27F
100
AcDbEntity
  8
0
 62
     0
100
AcDbLine
 10
98.23221539999998
 20
46.868346
 30
0.0
 11
95.00461539999999
 21
47.55484599999999
 31
0.0
  0
LINE
  5
2DF
330
27F
100
AcDbEntity
  8
0
 62
     0
100
AcDbLine
 10
95.00461539999999
 20
47.55484599999999
 30
0.0
 11
94.7552154
 21
46.38074599999999
 31
0.0
  0
LINE
  5
2E0
330
27F
100
AcDbEntity
  8
0
 62
     0
100
AcDbLine
 10
334.9459154
 20
47.95844599999999
 30
0.0
 11
348.9469154
 21
47.95844599999999
 31
0.0
  0
LINE
  5
2E1
330
27F
100
AcDbEntity
  8
0
 62
     0
100
AcDbLine
 10
348.9469154
 20
47.95844599999999
 30
0.0
 11
348.9469154
 21
33.958946
 31
0.0
  0
LINE
  5
2E2
330
27F
100
AcDbEntity
  8
0
 62
     0
100
AcDbLine
 10
348.9469154
 20
33.958946
 30
0.0
 11
334.9459154
 21
33.958946
 31
0.0
  0
LINE
  5
2E3
330
27F
100
AcDbEntity
  8
0
 62
     0
100
AcDbLine
 10
334.9459154
 20
33.958946
 30
0.0
 11
334.9459154
 21
47.95844599999999
 31
0.0
  0
LINE
  5
2E4
330
27F
100
AcDbEntity
  8
0
 62
     0
100
AcDbLine
 10
315.8959154
 20
47.95844599999999
 30
0.0
 11
329.8969153999999
 21
47.95844599999999
 31
0.0
  0
LINE
  5
2E5
330
27F
100
AcDbEntity
  8
0
 62
     0
100
AcDbLine
 10
329.8969153999999
 20
47.95844599999999
 30
0.0
 11
329.8969153999999
 21
33.958946
 31
0.0
  0
LINE
  5
2E6
330
27F
100
AcDbEntity
  8
0
 62
     0
100
AcDbLine
 10
329.8969153999999
 20
33.958946
 30
0.0
 11
315.8959154
 21
33.958946
 31
0.0
  0
LINE
  5
2E7
330
27F
100
AcDbEntity
  8
0
 62
     0
100
AcDbLine
 10
315.8959154
 20
33.958946
 30
0.0
 11
315.8959154
 21
47.95844599999999
 31
0.0
  0
LINE
  5
2E8
330
27F
100
AcDbEntity
  8
0
 62
     0
100
AcDbLine
 10
296.8459153999999
 20
47.95844599999999
 30
0.0
 11
310.8469154
 21
47.95844599999999
 31
0.0
  0
LINE
  5
2E9
330
27F
100
AcDbEntity
  8
0
 62
     0
100
AcDbLine
 10
310.8469154
 20
47.95844599999999
 30
0.0
 11
310.8469154
 21
33.958946
 31
0.0
  0
LINE
  5
2EA
330
27F
100
AcDbEntity
  8
0
 62
     0
100
AcDbLine
 10
310.8469154
 20
33.958946
 30
0.0
 11
296.8459153999999
 21
33.958946
 31
0.0
  0
LINE
  5
2EB
330
27F
100
AcDbEntity
  8
0
 62
     0
100
AcDbLine
 10
296.8459153999999
 20
33.958946
 30
0.0
 11
296.8459153999999
 21
47.95844599999999
 31
0.0
  0
LINE
  5
2EC
330
27F
100
AcDbEntity
  8
0
 62
     0
100
AcDbLine
 10
236.7549154
 20
49.11194599999999
 30
0.0
 11
239.6659154
 21
35.416846
 31
0.0
  0
LINE
  5
2ED
330
27F
100
AcDbEntity
  8
0
 62
     0
100
AcDbLine
 10
239.6659154
 20
35.416846
 30
0.0
 11
253.3589154
 21
38.328646
 31
0.0
  0
LINE
  5
2EE
330
27F
100
AcDbEntity
  8
0
 62
     0
100
AcDbLine
 10
253.3589154
 20
38.328646
 30
0.0
 11
250.4489154
 21
52.022446
 31
0.0
  0
LINE
  5
2EF
330
27F
100
AcDbEntity
  8
0
 62
     0
100
AcDbLine
 10
250.4489154
 20
52.022446
 30
0.0
 11
236.7549154
 21
49.11194599999999
 31
0.0
  0
LINE
  5
2F0
330
27F
100
AcDbEntity
  8
0
 62
     0
100
AcDbLine
 10
65.69091539999999
 20
38.481746
 30
0.0
 11
79.38471539999999
 21
35.569946
 31
0.0
  0
LINE
  5
2F1
330
27F
100
AcDbEntity
  8
0
 62
     0
100
AcDbLine
 10
79.38471539999999
 20
35.569946
 30
0.0
 11
82.29511539999998
 21
49.263346
 31
0.0
  0
LINE
  5
2F2
330
27F
100
AcDbEntity
  8
0
 62
     0
100
AcDbLine
 10
82.29511539999998
 20
49.263346
 30
0.0
 11
68.6003154
 21
52.175146
 31
0.0
  0
LINE
  5
2F3
330
27F
100
AcDbEntity
  8
0
 62
     0
100
AcDbLine
 10
68.6003154
 20
52.175146
 30
0.0
 11
65.69091539999999
 21
38.481746
 31
0.0
  0
LINE
  5
2F4
330
27F
100
AcDbEntity
  8
0
 62
     0
100
AcDbLine
 10
160.5879154
 20
52.39704599999999
 30
0.0
 11
163.4989154
 21
38.703646
 31
0.0
  0
LINE
  5
2F5
330
27F
100
AcDbEntity
  8
0
 62
     0
100
AcDbLine
 10
163.4989154
 20
38.703646
 30
0.0
 11
177.1939154
 21
41.614046
 31
0.0
  0
LINE
  5
2F6
330
27F
100
AcDbEntity
  8
0
 62
     0
100
AcDbLine
 10
177.1939154
 20
41.614046
 30
0.0
 11
174.2819154
 21
55.307446
 31
0.0
  0
LINE
  5
2F7
330
27F
100
AcDbEntity
  8
0
 62
     0
100
AcDbLine
 10
174.2819154
 20
55.307446
 30
0.0
 11
160.5879154
 21
52.39704599999999
 31
0.0
  0
LINE
  5
2F8
330
27F
100
AcDbEntity
  8
0
 62
     0
100
AcDbLine
 10
266.8419154
 20
52.72094599999999
 30
0.0
 11
280.8429154
 21
52.72094599999999
 31
0.0
  0
LINE
  5
2F9
330
27F
100
AcDbEntity
  8
0
 62
     0
100
AcDbLine
 10
280.8429154
 20
52.72094599999999
 30
0.0
 11
280.8429154
 21
38.721646
 31
0.0
  0
LINE
  5
2FA
330
27F
100
AcDbEntity
  8
0
 62
     0
100
AcDbLine
 10
280.8429154
 20
38.721646
 30
0.0
 11
266.8419154
 21
38.721646
 31
0.0
  0
LINE
  5
2FB
330
27F
100
AcDbEntity
  8
0
 62
     0
100
AcDbLine
 10
266.8419154
 20
38.721646
 30
0.0
 11
266.8419154
 21
52.72094599999999
 31
0.0
  0
LINE
  5
2FC
330
27F
100
AcDbEntity
  8
0
 62
     0
100
AcDbLine
 10
33.4808154
 20
52.72094599999999
 30
0.0
 11
47.48021539999999
 21
52.72094599999999
 31
0.0
  0
LINE
  5
2FD
330
27F
100
AcDbEntity
  8
0
 62
     0
100
AcDbLine
 10
47.48021539999999
 20
52.72094599999999
 30
0.0
 11
47.48021539999999
 21
38.721646
 31
0.0
  0
LINE
  5
2FE
330
27F
100
AcDbEntity
  8
0
 62
     0
100
AcDbLine
 10
47.48021539999999
 20
38.721646
 30
0.0
 11
33.4808154
 21
38.721646
 31
0.0
  0
LINE
  5
2FF
330
27F
100
AcDbEntity
  8
0
 62
     0
100
AcDbLine
 10
33.4808154
 20
38.721646
 30
0.0
 11
33.4808154
 21
52.72094599999999
 31
0.0
  0
LINE
  5
300
330
27F
100
AcDbEntity
  8
0
 62
     0
100
AcDbLine
 10
7.2870754
 20
52.72094599999999
 30
0.0
 11
21.2866154
 21
52.72094599999999
 31
0.0
  0
LINE
  5
301
330
27F
100
AcDbEntity
  8
0
 62
     0
100
AcDbLine
 10
21.2866154
 20
52.72094599999999
 30
0.0
 11
21.2866154
 21
38.721646
 31
0.0
  0
LINE
  5
302
330
27F
100
AcDbEntity
  8
0
 62
     0
100
AcDbLine
 10
21.2866154
 20
38.721646
 30
0.0
 11
7.2870754
 21
38.721646
 31
0.0
  0
LINE
  5
303
330
27F
100
AcDbEntity
  8
0
 62
     0
100
AcDbLine
 10
7.2870754
 20
38.721646
 30
0.0
 11
7.2870754
 21
52.72094599999999
 31
0.0
  0
LINE
  5
304
330
27F
100
AcDbEntity
  8
0
 62
     0
100
AcDbLine
 10
179.2219154
 20
56.35764599999999
 30
0.0
 11
182.1339154
 21
42.66394599999999
 31
0.0
  0
LINE
  5
305
330
27F
100
AcDbEntity
  8
0
 62
     0
100
AcDbLine
 10
182.1339154
 20
42.66394599999999
 30
0.0
 11
195.8279154
 21
45.57434599999999
 31
0.0
  0
LINE
  5
306
330
27F
100
AcDbEntity
  8
0
 62
     0
100
AcDbLine
 10
195.8279154
 20
45.57434599999999
 30
0.0
 11
192.9169154
 21
59.269546
 31
0.0
  0
LINE
  5
307
330
27F
100
AcDbEntity
  8
0
 62
     0
100
AcDbLine
 10
192.9169154
 20
59.269546
 30
0.0
 11
179.2219154
 21
56.35764599999999
 31
0.0
  0
LINE
  5
308
330
27F
100
AcDbEntity
  8
0
 62
     0
100
AcDbLine
 10
123.2229154
 20
45.727446
 30
0.0
 11
136.9159154
 21
42.817046
 31
0.0
  0
LINE
  5
309
330
27F
100
AcDbEntity
  8
0
 62
     0
100
AcDbLine
 10
136.9159154
 20
42.817046
 30
0.0
 11
139.8269154
 21
56.510446
 31
0.0
  0
LINE
  5
30A
330
27F
100
AcDbEntity
  8
0
 62
     0
100
AcDbLine
 10
139.8269154
 20
56.510446
 30
0.0
 11
126.1329154
 21
59.420846
 31
0.0
  0
LINE
  5
30B
330
27F
100
AcDbEntity
  8
0
 62
     0
100
AcDbLine
 10
126.1329154
 20
59.420846
 30
0.0
 11
123.2229154
 21
45.727446
 31
0.0
  0
LINE
  5
30C
330
27F
100
AcDbEntity
  8
0
 62
     0
100
AcDbLine
 10
197.8559154
 20
60.31934599999999
 30
0.0
 11
200.7659154
 21
46.62454599999999
 31
0.0
  0
LINE
  5
30D
330
27F
100
AcDbEntity
  8
0
 62
     0
100
AcDbLine
 10
200.7659154
 20
46.62454599999999
 30
0.0
 11
214.4609154
 21
49.536346
 31
0.0
  0
LINE
  5
30E
330
27F
100
AcDbEntity
  8
0
 62
     0
100
AcDbLine
 10
214.4609154
 20
49.536346
 30
0.0
 11
211.5509154
 21
63.229846
 31
0.0
  0
LINE
  5
30F
330
27F
100
AcDbEntity
  8
0
 62
     0
100
AcDbLine
 10
211.5509154
 20
63.229846
 30
0.0
 11
197.8559154
 21
60.31934599999999
 31
0.0
  0
LINE
  5
310
330
27F
100
AcDbEntity
  8
0
 62
     0
100
AcDbLine
 10
104.5889154
 20
49.688046
 30
0.0
 11
118.2839154
 21
46.77764599999999
 31
0.0
  0
LINE
  5
311
330
27F
100
AcDbEntity
  8
0
 62
     0
100
AcDbLine
 10
118.2839154
 20
46.77764599999999
 30
0.0
 11
121.1929154
 21
60.471046
 31
0.0
  0
LINE
  5
312
330
27F
100
AcDbEntity
  8
0
 62
     0
100
AcDbLine
 10
121.1929154
 20
60.471046
 30
0.0
 11
107.4989154
 21
63.381546
 31
0.0
  0
LINE
  5
313
330
27F
100
AcDbEntity
  8
0
 62
     0
100
AcDbLine
 10
107.4989154
 20
63.381546
 30
0.0
 11
104.5889154
 21
49.688046
 31
0.0
  0
LINE
  5
314
330
27F
100
AcDbEntity
  8
0
 62
     0
100
AcDbLine
 10
216.4899154
 20
64.280046
 30
0.0
 11
219.3999154
 21
50.58624599999999
 31
0.0
  0
LINE
  5
315
330
27F
100
AcDbEntity
  8
0
 62
     0
100
AcDbLine
 10
219.3999154
 20
50.58624599999999
 30
0.0
 11
233.0939154
 21
53.496646
 31
0.0
  0
LINE
  5
316
330
27F
100
AcDbEntity
  8
0
 62
     0
100
AcDbLine
 10
233.0939154
 20
53.496646
 30
0.0
 11
230.1839154
 21
67.19044600000001
 31
0.0
  0
LINE
  5
317
330
27F
100
AcDbEntity
  8
0
 62
     0
100
AcDbLine
 10
230.1839154
 20
67.19044600000001
 30
0.0
 11
216.4899154
 21
64.280046
 31
0.0
  0
LINE
  5
318
330
27F
100
AcDbEntity
  8
0
 62
     0
100
AcDbLine
 10
85.95521539999998
 20
53.649746
 30
0.0
 11
99.65001539999999
 21
50.737946
 31
0.0
  0
LINE
  5
319
330
27F
100
AcDbEntity
  8
0
 62
     0
100
AcDbLine
 10
99.65001539999999
 20
50.737946
 30
0.0
 11
102.5609154
 21
64.431746
 31
0.0
  0
LINE
  5
31A
330
27F
100
AcDbEntity
  8
0
 62
     0
100
AcDbLine
 10
102.5609154
 20
64.431746
 30
0.0
 11
88.8670154
 21
67.34314600000001
 31
0.0
  0
LINE
  5
31B
330
27F
100
AcDbEntity
  8
0
 62
     0
100
AcDbLine
 10
88.8670154
 20
67.34314600000001
 30
0.0
 11
85.95521539999998
 21
53.649746
 31
0.0
  0
LINE
  5
31C
330
27F
100
AcDbEntity
  8
0
 62
     0
100
AcDbLine
 10
315.8959154
 20
67.008446
 30
0.0
 11
329.8969153999999
 21
67.008446
 31
0.0
  0
LINE
  5
31D
330
27F
100
AcDbEntity
  8
0
 62
     0
100
AcDbLine
 10
329.8969153999999
 20
67.008446
 30
0.0
 11
329.8969153999999
 21
53.009146
 31
0.0
  0
LINE
  5
31E
330
27F
100
AcDbEntity
  8
0
 62
     0
100
AcDbLine
 10
329.8969153999999
 20
53.009146
 30
0.0
 11
315.8959154
 21
53.009146
 31
0.0
  0
LINE
  5
31F
330
27F
100
AcDbEntity
  8
0
 62
     0
100
AcDbLine
 10
315.8959154
 20
53.009146
 30
0.0
 11
315.8959154
 21
67.008446
 31
0.0
  0
LINE
  5
320
330
27F
100
AcDbEntity
  8
0
 62
     0
100
AcDbLine
 10
235.1239154
 20
68.240346
 30
0.0
 11
238.0339154
 21
54.545446
 31
0.0
  0
LINE
  5
321
330
27F
100
AcDbEntity
  8
0
 62
     0
100
AcDbLine
 10
238.0339154
 20
54.545446
 30
0.0
 11
251.7279154
 21
57.457346
 31
0.0
  0
LINE
  5
322
330
27F
100
AcDbEntity
  8
0
 62
     0
100
AcDbLine
 10
251.7279154
 20
57.457346
 30
0.0
 11
248.8169154
 21
71.15074599999999
 31
0.0
  0
LINE
  5
323
330
27F
100
AcDbEntity
  8
0
 62
     0
100
AcDbLine
 10
248.8169154
 20
71.15074599999999
 30
0.0
 11
235.1239154
 21
68.240346
 31
0.0
  0
LINE
  5
324
330
27F
100
AcDbEntity
  8
0
 62
     0
100
AcDbLine
 10
67.32141539999999
 20
57.61044599999999
 30
0.0
 11
81.01491539999999
 21
54.698546
 31
0.0
  0
LINE
  5
325
330
27F
100
AcDbEntity
  8
0
 62
     0
100
AcDbLine
 10
81.01491539999999
 20
54.698546
 30
0.0
 11
83.9267154
 21
68.39344600000001
 31
0.0
  0
LINE
  5
326
330
27F
100
AcDbEntity
  8
0
 62
     0
100
AcDbLine
 10
83.9267154
 20
68.39344600000001
 30
0.0
 11
70.23191539999999
 21
71.30384600000001
 31
0.0
  0
LINE
  5
327
330
27F
100
AcDbEntity
  8
0
 62
     0
100
AcDbLine
 10
70.23191539999999
 20
71.30384600000001
 30
0.0
 11
67.32141539999999
 21
57.61044599999999
 31
0.0
  0
LINE
  5
328
330
27F
100
AcDbEntity
  8
0
 62
     0
100
AcDbLine
 10
14.4308154
 20
71.77094600000001
 30
0.0
 11
14.4308154
 21
67.07054600000001
 31
0.0
  0
LINE
  5
329
330
27F
100
AcDbEntity
  8
0
 62
     0
100
AcDbLine
 10
14.4308154
 20
67.07054600000001
 30
0.0
 11
12.9053154
 21
67.07054600000001
 31
0.0
  0
LINE
  5
32A
330
27F
100
AcDbEntity
  8
0
 62
     0
100
AcDbLine
 10
12.9053154
 20
67.07054600000001
 30
0.0
 11
12.9053154
 21
70.30054600000001
 31
0.0
  0
LINE
  5
32B
330
27F
100
AcDbEntity
  8
0
 62
     0
100
AcDbLine
 10
12.9053154
 20
70.30054600000001
 30
0.0
 11
6.1557154
 21
70.30054600000001
 31
0.0
  0
LINE
  5
32C
330
27F
100
AcDbEntity
  8
0
 62
     0
100
AcDbLine
 10
6.1557154
 20
70.30054600000001
 30
0.0
 11
6.1557154
 21
67.07054600000001
 31
0.0
  0
LINE
  5
32D
330
27F
100
AcDbEntity
  8
0
 62
     0
100
AcDbLine
 10
6.1557154
 20
67.07054600000001
 30
0.0
 11
5.3302454
 21
67.07054600000001
 31
0.0
  0
LINE
  5
32E
330
27F
100
AcDbEntity
  8
0
 62
     0
100
AcDbLine
 10
5.3302454
 20
67.07054600000001
 30
0.0
 11
5.3302454
 21
64.271546
 31
0.0
  0
LINE
  5
32F
330
27F
100
AcDbEntity
  8
0
 62
     0
100
AcDbLine
 10
5.3302454
 20
64.271546
 30
0.0
 11
6.1557154
 21
64.271546
 31
0.0
  0
LINE
  5
330
330
27F
100
AcDbEntity
  8
0
 62
     0
100
AcDbLine
 10
6.1557154
 20
64.271546
 30
0.0
 11
6.1557154
 21
58.001646
 31
0.0
  0
LINE
  5
331
330
27F
100
AcDbEntity
  8
0
 62
     0
100
AcDbLine
 10
6.1557154
 20
58.001646
 30
0.0
 11
7.881005399999999
 21
58.001646
 31
0.0
  0
LINE
  5
332
330
27F
100
AcDbEntity
  8
0
 62
     0
100
AcDbLine
 10
7.881005399999999
 20
58.001646
 30
0.0
 11
7.881005399999999
 21
56.801446
 31
0.0
  0
LINE
  5
333
330
27F
100
AcDbEntity
  8
0
 62
     0
100
AcDbLine
 10
7.881005399999999
 20
56.801446
 30
0.0
 11
11.1800154
 21
56.801446
 31
0.0
  0
LINE
  5
334
330
27F
100
AcDbEntity
  8
0
 62
     0
100
AcDbLine
 10
11.1800154
 20
56.801446
 30
0.0
 11
11.1800154
 21
58.001646
 31
0.0
  0
LINE
  5
335
330
27F
100
AcDbEntity
  8
0
 62
     0
100
AcDbLine
 10
11.1800154
 20
58.001646
 30
0.0
 11
12.9053154
 21
58.001646
 31
0.0
  0
LINE
  5
336
330
27F
100
AcDbEntity
  8
0
 62
     0
100
AcDbLine
 10
12.9053154
 20
58.001646
 30
0.0
 11
12.9053154
 21
62.47064599999999
 31
0.0
  0
LINE
  5
337
330
27F
100
AcDbEntity
  8
0
 62
     0
100
AcDbLine
 10
12.9053154
 20
62.47064599999999
 30
0.0
 11
14.4308154
 21
62.47064599999999
 31
0.0
  0
LINE
  5
338
330
27F
100
AcDbEntity
  8
0
 62
     0
100
AcDbLine
 10
14.4308154
 20
62.47064599999999
 30
0.0
 11
14.4308154
 21
57.77164599999999
 31
0.0
  0
LINE
  5
339
330
27F
100
AcDbEntity
  8
0
 62
     0
100
AcDbLine
 10
14.4308154
 20
57.77164599999999
 30
0.0
 11
28.4303154
 21
57.77164599999999
 31
0.0
  0
LINE
  5
33A
330
27F
100
AcDbEntity
  8
0
 62
     0
100
AcDbLine
 10
28.4303154
 20
57.77164599999999
 30
0.0
 11
28.4303154
 21
62.47064599999999
 31
0.0
  0
LINE
  5
33B
330
27F
100
AcDbEntity
  8
0
 62
     0
100
AcDbLine
 10
28.4303154
 20
62.47064599999999
 30
0.0
 11
29.9558154
 21
62.47064599999999
 31
0.0
  0
LINE
  5
33C
330
27F
100
AcDbEntity
  8
0
 62
     0
100
AcDbLine
 10
29.9558154
 20
62.47064599999999
 30
0.0
 11
29.9558154
 21
58.001646
 31
0.0
  0
LINE
  5
33D
330
27F
100
AcDbEntity
  8
0
 62
     0
100
AcDbLine
 10
29.9558154
 20
58.001646
 30
0.0
 11
31.6797154
 21
58.001646
 31
0.0
  0
LINE
  5
33E
330
27F
100
AcDbEntity
  8
0
 62
     0
100
AcDbLine
 10
31.6797154
 20
58.001646
 30
0.0
 11
31.6797154
 21
56.801446
 31
0.0
  0
LINE
  5
33F
330
27F
100
AcDbEntity
  8
0
 62
     0
100
AcDbLine
 10
31.6797154
 20
56.801446
 30
0.0
 11
34.9801154
 21
56.801446
 31
0.0
  0
LINE
  5
340
330
27F
100
AcDbEntity
  8
0
 62
     0
100
AcDbLine
 10
34.9801154
 20
56.801446
 30
0.0
 11
34.9801154
 21
58.001646
 31
0.0
  0
LINE
  5
341
330
27F
100
AcDbEntity
  8
0
 62
     0
100
AcDbLine
 10
34.9801154
 20
58.001646
 30
0.0
 11
36.70531540000001
 21
58.001646
 31
0.0
  0
LINE
  5
342
330
27F
100
AcDbEntity
  8
0
 62
     0
100
AcDbLine
 10
36.70531540000001
 20
58.001646
 30
0.0
 11
36.70531540000001
 21
64.271546
 31
0.0
  0
LINE
  5
343
330
27F
100
AcDbEntity
  8
0
 62
     0
100
AcDbLine
 10
36.70531540000001
 20
64.271546
 30
0.0
 11
37.5308154
 21
64.271546
 31
0.0
  0
LINE
  5
344
330
27F
100
AcDbEntity
  8
0
 62
     0
100
AcDbLine
 10
37.5308154
 20
64.271546
 30
0.0
 11
37.5308154
 21
67.07054600000001
 31
0.0
  0
LINE
  5
345
330
27F
100
AcDbEntity
  8
0
 62
     0
100
AcDbLine
 10
37.5308154
 20
67.07054600000001
 30
0.0
 11
36.70531540000001
 21
67.07054600000001
 31
0.0
  0
LINE
  5
346
330
27F
100
AcDbEntity
  8
0
 62
     0
100
AcDbLine
 10
36.70531540000001
 20
67.07054600000001
 30
0.0
 11
36.70531540000001
 21
70.30054600000001
 31
0.0
  0
LINE
  5
347
330
27F
100
AcDbEntity
  8
0
 62
     0
100
AcDbLine
 10
36.70531540000001
 20
70.30054600000001
 30
0.0
 11
29.9558154
 21
70.30054600000001
 31
0.0
  0
LINE
  5
348
330
27F
100
AcDbEntity
  8
0
 62
     0
100
AcDbLine
 10
29.9558154
 20
70.30054600000001
 30
0.0
 11
29.9558154
 21
67.07054600000001
 31
0.0
  0
LINE
  5
349
330
27F
100
AcDbEntity
  8
0
 62
     0
100
AcDbLine
 10
29.9558154
 20
67.07054600000001
 30
0.0
 11
28.4303154
 21
67.07054600000001
 31
0.0
  0
LINE
  5
34A
330
27F
100
AcDbEntity
  8
0
 62
     0
100
AcDbLine
 10
28.4303154
 20
67.07054600000001
 30
0.0
 11
28.4303154
 21
71.77094600000001
 31
0.0
  0
LINE
  5
34B
330
27F
100
AcDbEntity
  8
0
 62
     0
100
AcDbLine
 10
28.4303154
 20
71.77094600000001
 30
0.0
 11
14.4308154
 21
71.77094600000001
 31
0.0
  0
LINE
  5
34C
330
27F
100
AcDbEntity
  8
0
 62
     0
100
AcDbLine
 10
284.9409154
 20
71.77094600000001
 30
0.0
 11
298.9409154
 21
71.77094600000001
 31
0.0
  0
LINE
  5
34D
330
27F
100
AcDbEntity
  8
0
 62
     0
100
AcDbLine
 10
298.9409154
 20
71.77094600000001
 30
0.0
 11
298.9409154
 21
57.77164599999999
 31
0.0
  0
LINE
  5
34E
330
27F
100
AcDbEntity
  8
0
 62
     0
100
AcDbLine
 10
298.9409154
 20
57.77164599999999
 30
0.0
 11
284.9409154
 21
57.77164599999999
 31
0.0
  0
LINE
  5
34F
330
27F
100
AcDbEntity
  8
0
 62
     0
100
AcDbLine
 10
284.9409154
 20
57.77164599999999
 30
0.0
 11
284.9409154
 21
71.77094600000001
 31
0.0
  0
LINE
  5
350
330
27F
100
AcDbEntity
  8
0
 62
     0
100
AcDbLine
 10
258.7459154
 20
71.77094600000001
 30
0.0
 11
272.7469154
 21
71.77094600000001
 31
0.0
  0
LINE
  5
351
330
27F
100
AcDbEntity
  8
0
 62
     0
100
AcDbLine
 10
272.7469154
 20
71.77094600000001
 30
0.0
 11
272.7469154
 21
57.77164599999999
 31
0.0
  0
LINE
  5
352
330
27F
100
AcDbEntity
  8
0
 62
     0
100
AcDbLine
 10
272.7469154
 20
57.77164599999999
 30
0.0
 11
258.7459154
 21
57.77164599999999
 31
0.0
  0
LINE
  5
353
330
27F
100
AcDbEntity
  8
0
 62
     0
100
AcDbLine
 10
258.7459154
 20
57.77164599999999
 30
0.0
 11
258.7459154
 21
71.77094600000001
 31
0.0
  0
LINE
  5
354
330
27F
100
AcDbEntity
  8
0
 62
     0
100
AcDbLine
 10
45.3871154
 20
71.77094600000001
 30
0.0
 11
59.38641539999999
 21
71.77094600000001
 31
0.0
  0
LINE
  5
355
330
27F
100
AcDbEntity
  8
0
 62
     0
100
AcDbLine
 10
59.38641539999999
 20
71.77094600000001
 30
0.0
 11
59.38641539999999
 21
57.77164599999999
 31
0.0
  0
LINE
  5
356
330
27F
100
AcDbEntity
  8
0
 62
     0
100
AcDbLine
 10
59.38641539999999
 20
57.77164599999999
 30
0.0
 11
45.3871154
 21
57.77164599999999
 31
0.0
  0
LINE
  5
357
330
27F
100
AcDbEntity
  8
0
 62
     0
100
AcDbLine
 10
45.3871154
 20
57.77164599999999
 30
0.0
 11
45.3871154
 21
71.77094600000001
 31
0.0
  0
LINE
  5
358
330
27F
100
AcDbEntity
  8
0
 62
     0
100
AcDbLine
 10
170.6039154
 20
74.001846
 30
0.0
 11
173.5139154
 21
60.30844599999999
 31
0.0
  0
LINE
  5
359
330
27F
100
AcDbEntity
  8
0
 62
     0
100
AcDbLine
 10
173.5139154
 20
60.30844599999999
 30
0.0
 11
187.2079154
 21
63.21744599999999
 31
0.0
  0
LINE
  5
35A
330
27F
100
AcDbEntity
  8
0
 62
     0
100
AcDbLine
 10
187.2079154
 20
63.21744599999999
 30
0.0
 11
184.2979154
 21
76.91224600000001
 31
0.0
  0
LINE
  5
35B
330
27F
100
AcDbEntity
  8
0
 62
     0
100
AcDbLine
 10
184.2979154
 20
76.91224600000001
 30
0.0
 11
170.6039154
 21
74.001846
 31
0.0
  0
LINE
  5
35C
330
27F
100
AcDbEntity
  8
0
 62
     0
100
AcDbLine
 10
117.8659154
 20
66.34164600000001
 30
0.0
 11
131.5599154
 21
63.431246
 31
0.0
  0
LINE
  5
35D
330
27F
100
AcDbEntity
  8
0
 62
     0
100
AcDbLine
 10
131.5599154
 20
63.431246
 30
0.0
 11
134.4719154
 21
77.12464600000001
 31
0.0
  0
LINE
  5
35E
330
27F
100
AcDbEntity
  8
0
 62
     0
100
AcDbLine
 10
134.4719154
 20
77.12464600000001
 30
0.0
 11
120.7769154
 21
80.03504600000001
 31
0.0
  0
LINE
  5
35F
330
27F
100
AcDbEntity
  8
0
 62
     0
100
AcDbLine
 10
120.7769154
 20
80.03504600000001
 30
0.0
 11
117.8659154
 21
66.34164600000001
 31
0.0
  0
LINE
  5
360
330
27F
100
AcDbEntity
  8
0
 62
     0
100
AcDbLine
 10
189.2379154
 20
77.96254600000001
 30
0.0
 11
192.1469154
 21
64.267646
 31
0.0
  0
LINE
  5
361
330
27F
100
AcDbEntity
  8
0
 62
     0
100
AcDbLine
 10
192.1469154
 20
64.267646
 30
0.0
 11
205.8419154
 21
67.179546
 31
0.0
  0
LINE
  5
362
330
27F
100
AcDbEntity
  8
0
 62
     0
100
AcDbLine
 10
205.8419154
 20
67.179546
 30
0.0
 11
202.9309154
 21
80.87294599999999
 31
0.0
  0
LINE
  5
363
330
27F
100
AcDbEntity
  8
0
 62
     0
100
AcDbLine
 10
202.9309154
 20
80.87294599999999
 30
0.0
 11
189.2379154
 21
77.96254600000001
 31
0.0
  0
LINE
  5
364
330
27F
100
AcDbEntity
  8
0
 62
     0
100
AcDbLine
 10
99.2327154
 20
70.301946
 30
0.0
 11
112.9259154
 21
67.391546
 31
0.0
  0
LINE
  5
365
330
27F
100
AcDbEntity
  8
0
 62
     0
100
AcDbLine
 10
112.9259154
 20
67.391546
 30
0.0
 11
115.8379154
 21
81.085346
 31
0.0
  0
LINE
  5
366
330
27F
100
AcDbEntity
  8
0
 62
     0
100
AcDbLine
 10
115.8379154
 20
81.085346
 30
0.0
 11
102.1429154
 21
83.99574599999999
 31
0.0
  0
LINE
  5
367
330
27F
100
AcDbEntity
  8
0
 62
     0
100
AcDbLine
 10
102.1429154
 20
83.99574599999999
 30
0.0
 11
99.2327154
 21
70.301946
 31
0.0
  0
LINE
  5
368
330
27F
100
AcDbEntity
  8
0
 62
     0
100
AcDbLine
 10
207.8699154
 20
81.92314600000001
 30
0.0
 11
210.7819154
 21
68.229346
 31
0.0
  0
LINE
  5
369
330
27F
100
AcDbEntity
  8
0
 62
     0
100
AcDbLine
 10
210.7819154
 20
68.229346
 30
0.0
 11
224.4759154
 21
71.139746
 31
0.0
  0
LINE
  5
36A
330
27F
100
AcDbEntity
  8
0
 62
     0
100
AcDbLine
 10
224.4759154
 20
71.139746
 30
0.0
 11
221.5639154
 21
84.83464600000001
 31
0.0
  0
LINE
  5
36B
330
27F
100
AcDbEntity
  8
0
 62
     0
100
AcDbLine
 10
221.5639154
 20
84.83464600000001
 30
0.0
 11
207.8699154
 21
81.92314600000001
 31
0.0
  0
LINE
  5
36C
330
27F
100
AcDbEntity
  8
0
 62
     0
100
AcDbLine
 10
80.6000154
 20
74.262546
 30
0.0
 11
94.29381539999999
 21
71.35214600000001
 31
0.0
  0
LINE
  5
36D
330
27F
100
AcDbEntity
  8
0
 62
     0
100
AcDbLine
 10
94.29381539999999
 20
71.35214600000001
 30
0.0
 11
97.2042154
 21
85.045546
 31
0.0
  0
LINE
  5
36E
330
27F
100
AcDbEntity
  8
0
 62
     0
100
AcDbLine
 10
97.2042154
 20
85.045546
 30
0.0
 11
83.5090154
 21
87.957446
 31
0.0
  0
LINE
  5
36F
330
27F
100
AcDbEntity
  8
0
 62
     0
100
AcDbLine
 10
83.5090154
 20
87.957446
 30
0.0
 11
80.6000154
 21
74.262546
 31
0.0
  0
LINE
  5
370
330
27F
100
AcDbEntity
  8
0
 62
     0
100
AcDbLine
 10
226.5039154
 20
85.883446
 30
0.0
 11
229.4159154
 21
72.19004600000001
 31
0.0
  0
LINE
  5
371
330
27F
100
AcDbEntity
  8
0
 62
     0
100
AcDbLine
 10
229.4159154
 20
72.19004600000001
 30
0.0
 11
243.1089154
 21
75.10184600000001
 31
0.0
  0
LINE
  5
372
330
27F
100
AcDbEntity
  8
0
 62
     0
100
AcDbLine
 10
243.1089154
 20
75.10184600000001
 30
0.0
 11
240.1989154
 21
88.79524600000001
 31
0.0
  0
LINE
  5
373
330
27F
100
AcDbEntity
  8
0
 62
     0
100
AcDbLine
 10
240.1989154
 20
88.79524600000001
 30
0.0
 11
226.5039154
 21
85.883446
 31
0.0
  0
LINE
  5
374
330
27F
100
AcDbEntity
  8
0
 62
     0
100
AcDbLine
 10
61.9649154
 20
78.22424600000001
 30
0.0
 11
75.65971539999999
 21
75.312446
 31
0.0
  0
LINE
  5
375
330
27F
100
AcDbEntity
  8
0
 62
     0
100
AcDbLine
 10
75.65971539999999
 20
75.312446
 30
0.0
 11
78.57011539999999
 21
89.007646
 31
0.0
  0
LINE
  5
376
330
27F
100
AcDbEntity
  8
0
 62
     0
100
AcDbLine
 10
78.57011539999999
 20
89.007646
 30
0.0
 11
64.8767154
 21
91.91804600000001
 31
0.0
  0
LINE
  5
377
330
27F
100
AcDbEntity
  8
0
 62
     0
100
AcDbLine
 10
64.8767154
 20
91.91804600000001
 30
0.0
 11
61.9649154
 21
78.22424600000001
 31
0.0
  0
LINE
  5
378
330
27F
100
AcDbEntity
  8
0
 62
     0
100
AcDbLine
 10
299.2269154
 20
90.82094600000001
 30
0.0
 11
299.2269154
 21
86.120546
 31
0.0
  0
LINE
  5
379
330
27F
100
AcDbEntity
  8
0
 62
     0
100
AcDbLine
 10
299.2269154
 20
86.120546
 30
0.0
 11
297.7019154
 21
86.120546
 31
0.0
  0
LINE
  5
37A
330
27F
100
AcDbEntity
  8
0
 62
     0
100
AcDbLine
 10
297.7019154
 20
86.120546
 30
0.0
 11
297.7019154
 21
89.350546
 31
0.0
  0
LINE
  5
37B
330
27F
100
AcDbEntity
  8
0
 62
     0
100
AcDbLine
 10
297.7019154
 20
89.350546
 30
0.0
 11
290.9519154
 21
89.350546
 31
0.0
  0
LINE
  5
37C
330
27F
100
AcDbEntity
  8
0
 62
     0
100
AcDbLine
 10
290.9519154
 20
89.350546
 30
0.0
 11
290.9519154
 21
86.120546
 31
0.0
  0
LINE
  5
37D
330
27F
100
AcDbEntity
  8
0
 62
     0
100
AcDbLine
 10
290.9519154
 20
86.120546
 30
0.0
 11
290.1279154
 21
86.120546
 31
0.0
  0
LINE
  5
37E
330
27F
100
AcDbEntity
  8
0
 62
     0
100
AcDbLine
 10
290.1279154
 20
86.120546
 30
0.0
 11
290.1279154
 21
83.321546
 31
0.0
  0
LINE
  5
37F
330
27F
100
AcDbEntity
  8
0
 62
     0
100
AcDbLine
 10
290.1279154
 20
83.321546
 30
0.0
 11
290.9519154
 21
83.321546
 31
0.0
  0
LINE
  5
380
330
27F
100
AcDbEntity
  8
0
 62
     0
100
AcDbLine
 10
290.9519154
 20
83.321546
 30
0.0
 11
290.9519154
 21
77.051646
 31
0.0
  0
LINE
  5
381
330
27F
100
AcDbEntity
  8
0
 62
     0
100
AcDbLine
 10
290.9519154
 20
77.051646
 30
0.0
 11
292.6769154
 21
77.051646
 31
0.0
  0
LINE
  5
382
330
27F
100
AcDbEntity
  8
0
 62
     0
100
AcDbLine
 10
292.6769154
 20
77.051646
 30
0.0
 11
292.6769154
 21
75.85144600000001
 31
0.0
  0
LINE
  5
383
330
27F
100
AcDbEntity
  8
0
 62
     0
100
AcDbLine
 10
292.6769154
 20
75.85144600000001
 30
0.0
 11
295.9779153999999
 21
75.85144600000001
 31
0.0
  0
LINE
  5
384
330
27F
100
AcDbEntity
  8
0
 62
     0
100
AcDbLine
 10
295.9779153999999
 20
75.85144600000001
 30
0.0
 11
295.9779153999999
 21
77.051646
 31
0.0
  0
LINE
  5
385
330
27F
100
AcDbEntity
  8
0
 62
     0
100
AcDbLine
 10
295.9779153999999
 20
77.051646
 30
0.0
 11
297.7019154
 21
77.051646
 31
0.0
  0
LINE
  5
386
330
27F
100
AcDbEntity
  8
0
 62
     0
100
AcDbLine
 10
297.7019154
 20
77.051646
 30
0.0
 11
297.7019154
 21
81.520646
 31
0.0
  0
LINE
  5
387
330
27F
100
AcDbEntity
  8
0
 62
     0
100
AcDbLine
 10
297.7019154
 20
81.520646
 30
0.0
 11
299.2269154
 21
81.520646
 31
0.0
  0
LINE
  5
388
330
27F
100
AcDbEntity
  8
0
 62
     0
100
AcDbLine
 10
299.2269154
 20
81.520646
 30
0.0
 11
299.2269154
 21
76.821646
 31
0.0
  0
LINE
  5
389
330
27F
100
AcDbEntity
  8
0
 62
     0
100
AcDbLine
 10
299.2269154
 20
76.821646
 30
0.0
 11
313.2279154
 21
76.821646
 31
0.0
  0
LINE
  5
38A
330
27F
100
AcDbEntity
  8
0
 62
     0
100
AcDbLine
 10
313.2279154
 20
76.821646
 30
0.0
 11
313.2279154
 21
81.520646
 31
0.0
  0
LINE
  5
38B
330
27F
100
AcDbEntity
  8
0
 62
     0
100
AcDbLine
 10
313.2279154
 20
81.520646
 30
0.0
 11
314.7519154
 21
81.520646
 31
0.0
  0
LINE
  5
38C
330
27F
100
AcDbEntity
  8
0
 62
     0
100
AcDbLine
 10
314.7519154
 20
81.520646
 30
0.0
 11
314.7519154
 21
77.051646
 31
0.0
  0
LINE
  5
38D
330
27F
100
AcDbEntity
  8
0
 62
     0
100
AcDbLine
 10
314.7519154
 20
77.051646
 30
0.0
 11
316.4779154
 21
77.051646
 31
0.0
  0
LINE
  5
38E
330
27F
100
AcDbEntity
  8
0
 62
     0
100
AcDbLine
 10
316.4779154
 20
77.051646
 30
0.0
 11
316.4779154
 21
75.85144600000001
 31
0.0
  0
LINE
  5
38F
330
27F
100
AcDbEntity
  8
0
 62
     0
100
AcDbLine
 10
316.4779154
 20
75.85144600000001
 30
0.0
 11
319.7779154
 21
75.85144600000001
 31
0.0
  0
LINE
  5
390
330
27F
100
AcDbEntity
  8
0
 62
     0
100
AcDbLine
 10
319.7779154
 20
75.85144600000001
 30
0.0
 11
319.7779154
 21
77.051646
 31
0.0
  0
LINE
  5
391
330
27F
100
AcDbEntity
  8
0
 62
     0
100
AcDbLine
 10
319.7779154
 20
77.051646
 30
0.0
 11
321.5019154
 21
77.051646
 31
0.0
  0
LINE
  5
392
330
27F
100
AcDbEntity
  8
0
 62
     0
100
AcDbLine
 10
321.5019154
 20
77.051646
 30
0.0
 11
321.5019154
 21
83.321546
 31
0.0
  0
LINE
  5
393
330
27F
100
AcDbEntity
  8
0
 62
     0
100
AcDbLine
 10
321.5019154
 20
83.321546
 30
0.0
 11
322.3269154
 21
83.321546
 31
0.0
  0
LINE
  5
394
330
27F
100
AcDbEntity
  8
0
 62
     0
100
AcDbLine
 10
322.3269154
 20
83.321546
 30
0.0
 11
322.3269154
 21
86.120546
 31
0.0
  0
LINE
  5
395
330
27F
100
AcDbEntity
  8
0
 62
     0
100
AcDbLine
 10
322.3269154
 20
86.120546
 30
0.0
 11
321.5019154
 21
86.120546
 31
0.0
  0
LINE
  5
396
330
27F
100
AcDbEntity
  8
0
 62
     0
100
AcDbLine
 10
321.5019154
 20
86.120546
 30
0.0
 11
321.5019154
 21
89.350546
 31
0.0
  0
LINE
  5
397
330
27F
100
AcDbEntity
  8
0
 62
     0
100
AcDbLine
 10
321.5019154
 20
89.350546
 30
0.0
 11
314.7519154
 21
89.350546
 31
0.0
  0
LINE
  5
398
330
27F
100
AcDbEntity
  8
0
 62
     0
100
AcDbLine
 10
314.7519154
 20
89.350546
 30
0.0
 11
314.7519154
 21
86.120546
 31
0.0
  0
LINE
  5
399
330
27F
100
AcDbEntity
  8
0
 62
     0
100
AcDbLine
 10
314.7519154
 20
86.120546
 30
0.0
 11
313.2279154
 21
86.120546
 31
0.0
  0
LINE
  5
39A
330
27F
100
AcDbEntity
  8
0
 62
     0
100
AcDbLine
 10
313.2279154
 20
86.120546
 30
0.0
 11
313.2279154
 21
90.82094600000001
 31
0.0
  0
LINE
  5
39B
330
27F
100
AcDbEntity
  8
0
 62
     0
100
AcDbLine
 10
313.2279154
 20
90.82094600000001
 30
0.0
 11
299.2269154
 21
90.82094600000001
 31
0.0
  0
LINE
  5
39C
330
27F
100
AcDbEntity
  8
0
 62
     0
100
AcDbLine
 10
268.2709154
 20
90.82094600000001
 30
0.0
 11
282.2719154
 21
90.82094600000001
 31
0.0
  0
LINE
  5
39D
330
27F
100
AcDbEntity
  8
0
 62
     0
100
AcDbLine
 10
282.2719154
 20
90.82094600000001
 30
0.0
 11
282.2719154
 21
76.821646
 31
0.0
  0
LINE
  5
39E
330
27F
100
AcDbEntity
  8
0
 62
     0
100
AcDbLine
 10
282.2719154
 20
76.821646
 30
0.0
 11
268.2709154
 21
76.821646
 31
0.0
  0
LINE
  5
39F
330
27F
100
AcDbEntity
  8
0
 62
     0
100
AcDbLine
 10
268.2709154
 20
76.821646
 30
0.0
 11
268.2709154
 21
90.82094600000001
 31
0.0
  0
LINE
  5
3A0
330
27F
100
AcDbEntity
  8
0
 62
     0
100
AcDbLine
 10
249.2209154
 20
90.82094600000001
 30
0.0
 11
263.2219154
 21
90.82094600000001
 31
0.0
  0
LINE
  5
3A1
330
27F
100
AcDbEntity
  8
0
 62
     0
100
AcDbLine
 10
263.2219154
 20
90.82094600000001
 30
0.0
 11
263.2219154
 21
76.821646
 31
0.0
  0
LINE
  5
3A2
330
27F
100
AcDbEntity
  8
0
 62
     0
100
AcDbLine
 10
263.2219154
 20
76.821646
 30
0.0
 11
249.2209154
 21
76.821646
 31
0.0
  0
LINE
  5
3A3
330
27F
100
AcDbEntity
  8
0
 62
     0
100
AcDbLine
 10
249.2209154
 20
76.821646
 30
0.0
 11
249.2209154
 21
90.82094600000001
 31
0.0
  0
LINE
  5
3A4
330
27F
100
AcDbEntity
  8
0
 62
     0
100
AcDbLine
 10
40.6246154
 20
90.82094600000001
 30
0.0
 11
54.62391539999999
 21
90.82094600000001
 31
0.0
  0
LINE
  5
3A5
330
27F
100
AcDbEntity
  8
0
 62
     0
100
AcDbLine
 10
54.62391539999999
 20
90.82094600000001
 30
0.0
 11
54.62391539999999
 21
76.821646
 31
0.0
  0
LINE
  5
3A6
330
27F
100
AcDbEntity
  8
0
 62
     0
100
AcDbLine
 10
54.62391539999999
 20
76.821646
 30
0.0
 11
40.6246154
 21
76.821646
 31
0.0
  0
LINE
  5
3A7
330
27F
100
AcDbEntity
  8
0
 62
     0
100
AcDbLine
 10
40.6246154
 20
76.821646
 30
0.0
 11
40.6246154
 21
90.82094600000001
 31
0.0
  0
LINE
  5
3A8
330
27F
100
AcDbEntity
  8
0
 62
     0
100
AcDbLine
 10
9.666945400000001
 20
90.82094600000001
 30
0.0
 11
23.6678154
 21
90.82094600000001
 31
0.0
  0
LINE
  5
3A9
330
27F
100
AcDbEntity
  8
0
 62
     0
100
AcDbLine
 10
23.6678154
 20
90.82094600000001
 30
0.0
 11
23.6678154
 21
76.821646
 31
0.0
  0
LINE
  5
3AA
330
27F
100
AcDbEntity
  8
0
 62
     0
100
AcDbLine
 10
23.6678154
 20
76.821646
 30
0.0
 11
9.666945400000001
 21
76.821646
 31
0.0
  0
LINE
  5
3AB
330
27F
100
AcDbEntity
  8
0
 62
     0
100
AcDbLine
 10
9.666945400000001
 20
76.821646
 30
0.0
 11
9.666945400000001
 21
90.82094600000001
 31
0.0
  0
LINE
  5
3AC
330
27F
100
AcDbEntity
  8
0
 62
     0
100
AcDbLine
 10
161.9849154
 20
91.645046
 30
0.0
 11
164.8949154
 21
77.951546
 31
0.0
  0
LINE
  5
3AD
330
27F
100
AcDbEntity
  8
0
 62
     0
100
AcDbLine
 10
164.8949154
 20
77.951546
 30
0.0
 11
178.5899154
 21
80.861946
 31
0.0
  0
LINE
  5
3AE
330
27F
100
AcDbEntity
  8
0
 62
     0
100
AcDbLine
 10
178.5899154
 20
80.861946
 30
0.0
 11
175.6779154
 21
94.55544600000001
 31
0.0
  0
LINE
  5
3AF
330
27F
100
AcDbEntity
  8
0
 62
     0
100
AcDbLine
 10
175.6779154
 20
94.55544600000001
 30
0.0
 11
161.9849154
 21
91.645046
 31
0.0
  0
LINE
  5
3B0
330
27F
100
AcDbEntity
  8
0
 62
     0
100
AcDbLine
 10
334.9459154
 20
95.58344600000001
 30
0.0
 11
348.9469154
 21
95.58344600000001
 31
0.0
  0
LINE
  5
3B1
330
27F
100
AcDbEntity
  8
0
 62
     0
100
AcDbLine
 10
348.9469154
 20
95.58344600000001
 30
0.0
 11
348.9469154
 21
81.584146
 31
0.0
  0
LINE
  5
3B2
330
27F
100
AcDbEntity
  8
0
 62
     0
100
AcDbLine
 10
348.9469154
 20
81.584146
 30
0.0
 11
334.9459154
 21
81.584146
 31
0.0
  0
LINE
  5
3B3
330
27F
100
AcDbEntity
  8
0
 62
     0
100
AcDbLine
 10
334.9459154
 20
81.584146
 30
0.0
 11
334.9459154
 21
95.58344600000001
 31
0.0
  0
LINE
  5
3B4
330
27F
100
AcDbEntity
  8
0
 62
     0
100
AcDbLine
 10
180.6179154
 20
95.60564600000001
 30
0.0
 11
183.5289154
 21
81.91184600000001
 31
0.0
  0
LINE
  5
3B5
330
27F
100
AcDbEntity
  8
0
 62
     0
100
AcDbLine
 10
183.5289154
 20
81.91184600000001
 30
0.0
 11
197.2219154
 21
84.82364600000002
 31
0.0
  0
LINE
  5
3B6
330
27F
100
AcDbEntity
  8
0
 62
     0
100
AcDbLine
 10
197.2219154
 20
84.82364600000002
 30
0.0
 11
194.3119154
 21
98.51744600000001
 31
0.0
  0
LINE
  5
3B7
330
27F
100
AcDbEntity
  8
0
 62
     0
100
AcDbLine
 10
194.3119154
 20
98.51744600000001
 30
0.0
 11
180.6179154
 21
95.60564600000001
 31
0.0
  0
LINE
  5
3B8
330
27F
100
AcDbEntity
  8
0
 62
     0
100
AcDbLine
 10
117.1689154
 20
85.96494600000001
 30
0.0
 11
130.8629154
 21
83.055946
 31
0.0
  0
LINE
  5
3B9
330
27F
100
AcDbEntity
  8
0
 62
     0
100
AcDbLine
 10
130.8629154
 20
83.055946
 30
0.0
 11
133.7729154
 21
96.749346
 31
0.0
  0
LINE
  5
3BA
330
27F
100
AcDbEntity
  8
0
 62
     0
100
AcDbLine
 10
133.7729154
 20
96.749346
 30
0.0
 11
120.0789154
 21
99.659746
 31
0.0
  0
LINE
  5
3BB
330
27F
100
AcDbEntity
  8
0
 62
     0
100
AcDbLine
 10
120.0789154
 20
99.659746
 30
0.0
 11
117.1689154
 21
85.96494600000001
 31
0.0
  0
LINE
  5
3BC
330
27F
100
AcDbEntity
  8
0
 62
     0
100
AcDbLine
 10
199.2519154
 20
99.56874600000002
 30
0.0
 11
202.1619154
 21
85.87394600000001
 31
0.0
  0
LINE
  5
3BD
330
27F
100
AcDbEntity
  8
0
 62
     0
100
AcDbLine
 10
202.1619154
 20
85.87394600000001
 30
0.0
 11
215.8559154
 21
88.78294600000002
 31
0.0
  0
LINE
  5
3BE
330
27F
100
AcDbEntity
  8
0
 62
     0
100
AcDbLine
 10
215.8559154
 20
88.78294600000002
 30
0.0
 11
212.9459154
 21
102.477746
 31
0.0
  0
LINE
  5
3BF
330
27F
100
AcDbEntity
  8
0
 62
     0
100
AcDbLine
 10
212.9459154
 20
102.477746
 30
0.0
 11
199.2519154
 21
99.56874600000002
 31
0.0
  0
LINE
  5
3C0
330
27F
100
AcDbEntity
  8
0
 62
     0
100
AcDbLine
 10
98.5352154
 20
89.92664600000001
 30
0.0
 11
112.2289154
 21
87.014746
 31
0.0
  0
LINE
  5
3C1
330
27F
100
AcDbEntity
  8
0
 62
     0
100
AcDbLine
 10
112.2289154
 20
87.014746
 30
0.0
 11
115.1389154
 21
100.709746
 31
0.0
  0
LINE
  5
3C2
330
27F
100
AcDbEntity
  8
0
 62
     0
100
AcDbLine
 10
115.1389154
 20
100.709746
 30
0.0
 11
101.4459154
 21
103.619746
 31
0.0
  0
LINE
  5
3C3
330
27F
100
AcDbEntity
  8
0
 62
     0
100
AcDbLine
 10
101.4459154
 20
103.619746
 30
0.0
 11
98.5352154
 21
89.92664600000001
 31
0.0
  0
LINE
  5
3C4
330
27F
100
AcDbEntity
  8
0
 62
     0
100
AcDbLine
 10
217.8859154
 20
103.526746
 30
0.0
 11
220.7959154
 21
89.83274600000001
 31
0.0
  0
LINE
  5
3C5
330
27F
100
AcDbEntity
  8
0
 62
     0
100
AcDbLine
 10
220.7959154
 20
89.83274600000001
 30
0.0
 11
234.4899154
 21
92.74464599999999
 31
0.0
  0
LINE
  5
3C6
330
27F
100
AcDbEntity
  8
0
 62
     0
100
AcDbLine
 10
234.4899154
 20
92.74464599999999
 30
0.0
 11
231.5789154
 21
106.438746
 31
0.0
  0
LINE
  5
3C7
330
27F
100
AcDbEntity
  8
0
 62
     0
100
AcDbLine
 10
231.5789154
 20
106.438746
 30
0.0
 11
217.8859154
 21
103.526746
 31
0.0
  0
LINE
  5
3C8
330
27F
100
AcDbEntity
  8
0
 62
     0
100
AcDbLine
 10
79.90151539999999
 20
93.88724600000001
 30
0.0
 11
93.59491539999998
 21
90.976846
 31
0.0
  0
LINE
  5
3C9
330
27F
100
AcDbEntity
  8
0
 62
     0
100
AcDbLine
 10
93.59491539999998
 20
90.976846
 30
0.0
 11
96.50671539999999
 21
104.670746
 31
0.0
  0
LINE
  5
3CA
330
27F
100
AcDbEntity
  8
0
 62
     0
100
AcDbLine
 10
96.50671539999999
 20
104.670746
 30
0.0
 11
82.8119154
 21
107.580746
 31
0.0
  0
LINE
  5
3CB
330
27F
100
AcDbEntity
  8
0
 62
     0
100
AcDbLine
 10
82.8119154
 20
107.580746
 30
0.0
 11
79.90151539999999
 21
93.88724600000001
 31
0.0
  0
LINE
  5
3CC
330
27F
100
AcDbEntity
  8
0
 62
     0
100
AcDbLine
 10
236.5199154
 20
107.488746
 30
0.0
 11
239.4299154
 21
93.79484600000001
 31
0.0
  0
LINE
  5
3CD
330
27F
100
AcDbEntity
  8
0
 62
     0
100
AcDbLine
 10
239.4299154
 20
93.79484600000001
 30
0.0
 11
253.1239154
 21
96.705246
 31
0.0
  0
LINE
  5
3CE
330
27F
100
AcDbEntity
  8
0
 62
     0
100
AcDbLine
 10
253.1239154
 20
96.705246
 30
0.0
 11
250.2129154
 21
110.398746
 31
0.0
  0
LINE
  5
3CF
330
27F
100
AcDbEntity
  8
0
 62
     0
100
AcDbLine
 10
250.2129154
 20
110.398746
 30
0.0
 11
236.5199154
 21
107.488746
 31
0.0
  0
LINE
  5
3D0
330
27F
100
AcDbEntity
  8
0
 62
     0
100
AcDbLine
 10
61.2674154
 20
97.84754600000001
 30
0.0
 11
74.96121539999998
 21
94.93714600000002
 31
0.0
  0
LINE
  5
3D1
330
27F
100
AcDbEntity
  8
0
 62
     0
100
AcDbLine
 10
74.96121539999998
 20
94.93714600000002
 30
0.0
 11
77.8730154
 21
108.630746
 31
0.0
  0
LINE
  5
3D2
330
27F
100
AcDbEntity
  8
0
 62
     0
100
AcDbLine
 10
77.8730154
 20
108.630746
 30
0.0
 11
64.1778154
 21
111.542746
 31
0.0
  0
LINE
  5
3D3
330
27F
100
AcDbEntity
  8
0
 62
     0
100
AcDbLine
 10
64.1778154
 20
111.542746
 30
0.0
 11
61.2674154
 21
97.84754600000001
 31
0.0
  0
LINE
  5
3D4
330
27F
100
AcDbEntity
  8
0
 62
     0
100
AcDbLine
 10
301.6099154
 20
109.870746
 30
0.0
 11
315.6089154
 21
109.870746
 31
0.0
  0
LINE
  5
3D5
330
27F
100
AcDbEntity
  8
0
 62
     0
100
AcDbLine
 10
315.6089154
 20
109.870746
 30
0.0
 11
315.6089154
 21
95.87164600000001
 31
0.0
  0
LINE
  5
3D6
330
27F
100
AcDbEntity
  8
0
 62
     0
100
AcDbLine
 10
315.6089154
 20
95.87164600000001
 30
0.0
 11
301.6099154
 21
95.87164600000001
 31
0.0
  0
LINE
  5
3D7
330
27F
100
AcDbEntity
  8
0
 62
     0
100
AcDbLine
 10
301.6099154
 20
95.87164600000001
 30
0.0
 11
301.6099154
 21
109.870746
 31
0.0
  0
LINE
  5
3D8
330
27F
100
AcDbEntity
  8
0
 62
     0
100
AcDbLine
 10
277.7959153999999
 20
109.870746
 30
0.0
 11
291.7969154
 21
109.870746
 31
0.0
  0
LINE
  5
3D9
330
27F
100
AcDbEntity
  8
0
 62
     0
100
AcDbLine
 10
291.7969154
 20
109.870746
 30
0.0
 11
291.7969154
 21
95.87164600000001
 31
0.0
  0
LINE
  5
3DA
330
27F
100
AcDbEntity
  8
0
 62
     0
100
AcDbLine
 10
291.7969154
 20
95.87164600000001
 30
0.0
 11
277.7959153999999
 21
95.87164600000001
 31
0.0
  0
LINE
  5
3DB
330
27F
100
AcDbEntity
  8
0
 62
     0
100
AcDbLine
 10
277.7959153999999
 20
95.87164600000001
 30
0.0
 11
277.7959153999999
 21
109.870746
 31
0.0
  0
LINE
  5
3DC
330
27F
100
AcDbEntity
  8
0
 62
     0
100
AcDbLine
 10
258.7459154
 20
109.870746
 30
0.0
 11
272.7469154
 21
109.870746
 31
0.0
  0
LINE
  5
3DD
330
27F
100
AcDbEntity
  8
0
 62
     0
100
AcDbLine
 10
272.7469154
 20
109.870746
 30
0.0
 11
272.7469154
 21
95.87164600000001
 31
0.0
  0
LINE
  5
3DE
330
27F
100
AcDbEntity
  8
0
 62
     0
100
AcDbLine
 10
272.7469154
 20
95.87164600000001
 30
0.0
 11
258.7459154
 21
95.87164600000001
 31
0.0
  0
LINE
  5
3DF
330
27F
100
AcDbEntity
  8
0
 62
     0
100
AcDbLine
 10
258.7459154
 20
95.87164600000001
 30
0.0
 11
258.7459154
 21
109.870746
 31
0.0
  0
LINE
  5
3E0
330
27F
100
AcDbEntity
  8
0
 62
     0
100
AcDbLine
 10
40.6246154
 20
109.870746
 30
0.0
 11
54.62391539999999
 21
109.870746
 31
0.0
  0
LINE
  5
3E1
330
27F
100
AcDbEntity
  8
0
 62
     0
100
AcDbLine
 10
54.62391539999999
 20
109.870746
 30
0.0
 11
54.62391539999999
 21
95.87164600000001
 31
0.0
  0
LINE
  5
3E2
330
27F
100
AcDbEntity
  8
0
 62
     0
100
AcDbLine
 10
54.62391539999999
 20
95.87164600000001
 30
0.0
 11
40.6246154
 21
95.87164600000001
 31
0.0
  0
LINE
  5
3E3
330
27F
100
AcDbEntity
  8
0
 62
     0
100
AcDbLine
 10
40.6246154
 20
95.87164600000001
 30
0.0
 11
40.6246154
 21
109.870746
 31
0.0
  0
LINE
  5
3E4
330
27F
100
AcDbEntity
  8
0
 62
     0
100
AcDbLine
 10
16.8121154
 20
109.870746
 30
0.0
 11
30.8115154
 21
109.870746
 31
0.0
  0
LINE
  5
3E5
330
27F
100
AcDbEntity
  8
0
 62
     0
100
AcDbLine
 10
30.8115154
 20
109.870746
 30
0.0
 11
30.8115154
 21
95.87164600000001
 31
0.0
  0
LINE
  5
3E6
330
27F
100
AcDbEntity
  8
0
 62
     0
100
AcDbLine
 10
30.8115154
 20
95.87164600000001
 30
0.0
 11
16.8121154
 21
95.87164600000001
 31
0.0
  0
LINE
  5
3E7
330
27F
100
AcDbEntity
  8
0
 62
     0
100
AcDbLine
 10
16.8121154
 20
95.87164600000001
 30
0.0
 11
16.8121154
 21
109.870746
 31
0.0
  0
LINE
  5
3E8
330
27F
100
AcDbEntity
  8
0
 62
     0
100
AcDbLine
 10
167.3409153999999
 20
112.258746
 30
0.0
 11
170.2509153999999
 21
98.56544600000001
 31
0.0
  0
LINE
  5
3E9
330
27F
100
AcDbEntity
  8
0
 62
     0
100
AcDbLine
 10
170.2509153999999
 20
98.56544600000001
 30
0.0
 11
183.9459154
 21
101.475746
 31
0.0
  0
LINE
  5
3EA
330
27F
100
AcDbEntity
  8
0
 62
     0
100
AcDbLine
 10
183.9459154
 20
101.475746
 30
0.0
 11
181.0349154
 21
115.169746
 31
0.0
  0
LINE
  5
3EB
330
27F
100
AcDbEntity
  8
0
 62
     0
100
AcDbLine
 10
181.0349154
 20
115.169746
 30
0.0
 11
167.3409153999999
 21
112.258746
 31
0.0
  0
LINE
  5
3EC
330
27F
100
AcDbEntity
  8
0
 62
     0
100
AcDbLine
 10
130.4469154
 20
102.619746
 30
0.0
 11
144.1399154
 21
99.70774600000002
 31
0.0
  0
LINE
  5
3ED
330
27F
100
AcDbEntity
  8
0
 62
     0
100
AcDbLine
 10
144.1399154
 20
99.70774600000002
 30
0.0
 11
147.0519154
 21
113.401746
 31
0.0
  0
LINE
  5
3EE
330
27F
100
AcDbEntity
  8
0
 62
     0
100
AcDbLine
 10
147.0519154
 20
113.401746
 30
0.0
 11
133.3569154
 21
116.313746
 31
0.0
  0
LINE
  5
3EF
330
27F
100
AcDbEntity
  8
0
 62
     0
100
AcDbLine
 10
133.3569154
 20
116.313746
 30
0.0
 11
130.4469154
 21
102.619746
 31
0.0
  0
LINE
  5
3F0
330
27F
100
AcDbEntity
  8
0
 62
     0
100
AcDbLine
 10
330.1849154
 20
114.633746
 30
0.0
 11
344.1839154
 21
114.633746
 31
0.0
  0
LINE
  5
3F1
330
27F
100
AcDbEntity
  8
0
 62
     0
100
AcDbLine
 10
344.1839154
 20
114.633746
 30
0.0
 11
344.1839154
 21
100.633746
 31
0.0
  0
LINE
  5
3F2
330
27F
100
AcDbEntity
  8
0
 62
     0
100
AcDbLine
 10
344.1839154
 20
100.633746
 30
0.0
 11
330.1849154
 21
100.633746
 31
0.0
  0
LINE
  5
3F3
330
27F
100
AcDbEntity
  8
0
 62
     0
100
AcDbLine
 10
330.1849154
 20
100.633746
 30
0.0
 11
330.1849154
 21
114.633746
 31
0.0
  0
LINE
  5
3F4
330
27F
100
AcDbEntity
  8
0
 62
     0
100
AcDbLine
 10
185.9739154
 20
116.219746
 30
0.0
 11
188.8849154
 21
102.525746
 31
0.0
  0
LINE
  5
3F5
330
27F
100
AcDbEntity
  8
0
 62
     0
100
AcDbLine
 10
188.8849154
 20
102.525746
 30
0.0
 11
202.5789154
 21
105.437746
 31
0.0
  0
LINE
  5
3F6
330
27F
100
AcDbEntity
  8
0
 62
     0
100
AcDbLine
 10
202.5789154
 20
105.437746
 30
0.0
 11
199.6679154
 21
119.131746
 31
0.0
  0
LINE
  5
3F7
330
27F
100
AcDbEntity
  8
0
 62
     0
100
AcDbLine
 10
199.6679154
 20
119.131746
 30
0.0
 11
185.9739154
 21
116.219746
 31
0.0
  0
LINE
  5
3F8
330
27F
100
AcDbEntity
  8
0
 62
     0
100
AcDbLine
 10
111.8129154
 20
106.578746
 30
0.0
 11
125.5059154
 21
103.669746
 31
0.0
  0
LINE
  5
3F9
330
27F
100
AcDbEntity
  8
0
 62
     0
100
AcDbLine
 10
125.5059154
 20
103.669746
 30
0.0
 11
128.4179154
 21
117.363746
 31
0.0
  0
LINE
  5
3FA
330
27F
100
AcDbEntity
  8
0
 62
     0
100
AcDbLine
 10
128.4179154
 20
117.363746
 30
0.0
 11
114.7229154
 21
120.273746
 31
0.0
  0
LINE
  5
3FB
330
27F
100
AcDbEntity
  8
0
 62
     0
100
AcDbLine
 10
114.7229154
 20
120.273746
 30
0.0
 11
111.8129154
 21
106.578746
 31
0.0
  0
LINE
  5
3FC
330
27F
100
AcDbEntity
  8
0
 62
     0
100
AcDbLine
 10
204.6069154
 20
120.181746
 30
0.0
 11
207.5189154
 21
106.486746
 31
0.0
  0
LINE
  5
3FD
330
27F
100
AcDbEntity
  8
0
 62
     0
100
AcDbLine
 10
207.5189154
 20
106.486746
 30
0.0
 11
221.2119154
 21
109.396746
 31
0.0
  0
LINE
  5
3FE
330
27F
100
AcDbEntity
  8
0
 62
     0
100
AcDbLine
 10
221.2119154
 20
109.396746
 30
0.0
 11
218.3019154
 21
123.091746
 31
0.0
  0
LINE
  5
3FF
330
27F
100
AcDbEntity
  8
0
 62
     0
100
AcDbLine
 10
218.3019154
 20
123.091746
 30
0.0
 11
204.6069154
 21
120.181746
 31
0.0
  0
LINE
  5
400
330
27F
100
AcDbEntity
  8
0
 62
     0
100
AcDbLine
 10
93.1786154
 20
110.540746
 30
0.0
 11
106.8739154
 21
107.628746
 31
0.0
  0
LINE
  5
401
330
27F
100
AcDbEntity
  8
0
 62
     0
100
AcDbLine
 10
106.8739154
 20
107.628746
 30
0.0
 11
109.7829154
 21
121.322746
 31
0.0
  0
LINE
  5
402
330
27F
100
AcDbEntity
  8
0
 62
     0
100
AcDbLine
 10
109.7829154
 20
121.322746
 30
0.0
 11
96.08911540000001
 21
124.234746
 31
0.0
  0
LINE
  5
403
330
27F
100
AcDbEntity
  8
0
 62
     0
100
AcDbLine
 10
96.08911540000001
 20
124.234746
 30
0.0
 11
93.1786154
 21
110.540746
 31
0.0
  0
LINE
  5
404
330
27F
100
AcDbEntity
  8
0
 62
     0
100
AcDbLine
 10
223.2409154
 20
124.140746
 30
0.0
 11
226.1529154
 21
110.446746
 31
0.0
  0
LINE
  5
405
330
27F
100
AcDbEntity
  8
0
 62
     0
100
AcDbLine
 10
226.1529154
 20
110.446746
 30
0.0
 11
239.8459154
 21
113.358746
 31
0.0
  0
LINE
  5
406
330
27F
100
AcDbEntity
  8
0
 62
     0
100
AcDbLine
 10
239.8459154
 20
113.358746
 30
0.0
 11
236.9359154
 21
127.052746
 31
0.0
  0
LINE
  5
407
330
27F
100
AcDbEntity
  8
0
 62
     0
100
AcDbLine
 10
236.9359154
 20
127.052746
 30
0.0
 11
223.2409154
 21
124.140746
 31
0.0
  0
LINE
  5
408
330
27F
100
AcDbEntity
  8
0
 62
     0
100
AcDbLine
 10
74.54491539999999
 20
114.500746
 30
0.0
 11
88.2397154
 21
111.590746
 31
0.0
  0
LINE
  5
409
330
27F
100
AcDbEntity
  8
0
 62
     0
100
AcDbLine
 10
88.2397154
 20
111.590746
 30
0.0
 11
91.15021539999998
 21
125.284746
 31
0.0
  0
LINE
  5
40A
330
27F
100
AcDbEntity
  8
0
 62
     0
100
AcDbLine
 10
91.15021539999998
 20
125.284746
 30
0.0
 11
77.4567154
 21
128.194746
 31
0.0
  0
LINE
  5
40B
330
27F
100
AcDbEntity
  8
0
 62
     0
100
AcDbLine
 10
77.4567154
 20
128.194746
 30
0.0
 11
74.54491539999999
 21
114.500746
 31
0.0
  0
LINE
  5
40C
330
27F
100
AcDbEntity
  8
0
 62
     0
100
AcDbLine
 10
301.6099154
 20
128.920746
 30
0.0
 11
315.6089154
 21
128.920746
 31
0.0
  0
LINE
  5
40D
330
27F
100
AcDbEntity
  8
0
 62
     0
100
AcDbLine
 10
315.6089154
 20
128.920746
 30
0.0
 11
315.6089154
 21
114.921746
 31
0.0
  0
LINE
  5
40E
330
27F
100
AcDbEntity
  8
0
 62
     0
100
AcDbLine
 10
315.6089154
 20
114.921746
 30
0.0
 11
301.6099154
 21
114.921746
 31
0.0
  0
LINE
  5
40F
330
27F
100
AcDbEntity
  8
0
 62
     0
100
AcDbLine
 10
301.6099154
 20
114.921746
 30
0.0
 11
301.6099154
 21
128.920746
 31
0.0
  0
LINE
  5
410
330
27F
100
AcDbEntity
  8
0
 62
     0
100
AcDbLine
 10
282.5599154
 20
128.920746
 30
0.0
 11
296.5589154
 21
128.920746
 31
0.0
  0
LINE
  5
411
330
27F
100
AcDbEntity
  8
0
 62
     0
100
AcDbLine
 10
296.5589154
 20
128.920746
 30
0.0
 11
296.5589154
 21
114.921746
 31
0.0
  0
LINE
  5
412
330
27F
100
AcDbEntity
  8
0
 62
     0
100
AcDbLine
 10
296.5589154
 20
114.921746
 30
0.0
 11
282.5599154
 21
114.921746
 31
0.0
  0
LINE
  5
413
330
27F
100
AcDbEntity
  8
0
 62
     0
100
AcDbLine
 10
282.5599154
 20
114.921746
 30
0.0
 11
282.5599154
 21
128.920746
 31
0.0
  0
LINE
  5
414
330
27F
100
AcDbEntity
  8
0
 62
     0
100
AcDbLine
 10
263.5099154
 20
128.920746
 30
0.0
 11
277.5089154
 21
128.920746
 31
0.0
  0
LINE
  5
415
330
27F
100
AcDbEntity
  8
0
 62
     0
100
AcDbLine
 10
277.5089154
 20
128.920746
 30
0.0
 11
277.5089154
 21
114.921746
 31
0.0
  0
LINE
  5
416
330
27F
100
AcDbEntity
  8
0
 62
     0
100
AcDbLine
 10
277.5089154
 20
114.921746
 30
0.0
 11
263.5099154
 21
114.921746
 31
0.0
  0
LINE
  5
417
330
27F
100
AcDbEntity
  8
0
 62
     0
100
AcDbLine
 10
263.5099154
 20
114.921746
 30
0.0
 11
263.5099154
 21
128.920746
 31
0.0
  0
LINE
  5
418
330
27F
100
AcDbEntity
  8
0
 62
     0
100
AcDbLine
 10
35.8621154
 20
128.920746
 30
0.0
 11
49.8614154
 21
128.920746
 31
0.0
  0
LINE
  5
419
330
27F
100
AcDbEntity
  8
0
 62
     0
100
AcDbLine
 10
49.8614154
 20
128.920746
 30
0.0
 11
49.8614154
 21
114.921746
 31
0.0
  0
LINE
  5
41A
330
27F
100
AcDbEntity
  8
0
 62
     0
100
AcDbLine
 10
49.8614154
 20
114.921746
 30
0.0
 11
35.8621154
 21
114.921746
 31
0.0
  0
LINE
  5
41B
330
27F
100
AcDbEntity
  8
0
 62
     0
100
AcDbLine
 10
35.8621154
 20
114.921746
 30
0.0
 11
35.8621154
 21
128.920746
 31
0.0
  0
LINE
  5
41C
330
27F
100
AcDbEntity
  8
0
 62
     0
100
AcDbLine
 10
16.8121154
 20
128.920746
 30
0.0
 11
30.8115154
 21
128.920746
 31
0.0
  0
LINE
  5
41D
330
27F
100
AcDbEntity
  8
0
 62
     0
100
AcDbLine
 10
30.8115154
 20
128.920746
 30
0.0
 11
30.8115154
 21
114.921746
 31
0.0
  0
LINE
  5
41E
330
27F
100
AcDbEntity
  8
0
 62
     0
100
AcDbLine
 10
30.8115154
 20
114.921746
 30
0.0
 11
16.8121154
 21
114.921746
 31
0.0
  0
LINE
  5
41F
330
27F
100
AcDbEntity
  8
0
 62
     0
100
AcDbLine
 10
16.8121154
 20
114.921746
 30
0.0
 11
16.8121154
 21
128.920746
 31
0.0
  0
LINE
  5
420
330
27F
100
AcDbEntity
  8
0
 62
     0
100
AcDbLine
 10
244.4599154
 20
131.778746
 30
0.0
 11
258.4589154
 21
131.778746
 31
0.0
  0
LINE
  5
421
330
27F
100
AcDbEntity
  8
0
 62
     0
100
AcDbLine
 10
258.4589154
 20
131.778746
 30
0.0
 11
258.4589154
 21
117.779746
 31
0.0
  0
LINE
  5
422
330
27F
100
AcDbEntity
  8
0
 62
     0
100
AcDbLine
 10
258.4589154
 20
117.779746
 30
0.0
 11
244.4599154
 21
117.779746
 31
0.0
  0
LINE
  5
423
330
27F
100
AcDbEntity
  8
0
 62
     0
100
AcDbLine
 10
244.4599154
 20
117.779746
 30
0.0
 11
244.4599154
 21
131.778746
 31
0.0
  0
LINE
  5
424
330
27F
100
AcDbEntity
  8
0
 62
     0
100
AcDbLine
 10
54.9121154
 20
131.778746
 30
0.0
 11
68.91141539999999
 21
131.778746
 31
0.0
  0
LINE
  5
425
330
27F
100
AcDbEntity
  8
0
 62
     0
100
AcDbLine
 10
68.91141539999999
 20
131.778746
 30
0.0
 11
68.91141539999999
 21
117.779746
 31
0.0
  0
LINE
  5
426
330
27F
100
AcDbEntity
  8
0
 62
     0
100
AcDbLine
 10
68.91141539999999
 20
117.779746
 30
0.0
 11
54.9121154
 21
117.779746
 31
0.0
  0
LINE
  5
427
330
27F
100
AcDbEntity
  8
0
 62
     0
100
AcDbLine
 10
54.9121154
 20
117.779746
 30
0.0
 11
54.9121154
 21
131.778746
 31
0.0
  0
LINE
  5
428
330
27F
100
AcDbEntity
  8
0
 62
     0
100
AcDbLine
 10
325.4209154
 20
133.683746
 30
0.0
 11
339.4219154
 21
133.683746
 31
0.0
  0
LINE
  5
429
330
27F
100
AcDbEntity
  8
0
 62
     0
100
AcDbLine
 10
339.4219154
 20
133.683746
 30
0.0
 11
339.4219154
 21
119.683746
 31
0.0
  0
LINE
  5
42A
330
27F
100
AcDbEntity
  8
0
 62
     0
100
AcDbLine
 10
339.4219154
 20
119.683746
 30
0.0
 11
325.4209154
 21
119.683746
 31
0.0
  0
LINE
  5
42B
330
27F
100
AcDbEntity
  8
0
 62
     0
100
AcDbLine
 10
325.4209154
 20
119.683746
 30
0.0
 11
325.4209154
 21
133.683746
 31
0.0
  0
LINE
  5
42C
330
27F
100
AcDbEntity
  8
0
 62
     0
100
AcDbLine
 10
167.0469154
 20
136.541746
 30
0.0
 11
169.9589154
 21
122.847746
 31
0.0
  0
LINE
  5
42D
330
27F
100
AcDbEntity
  8
0
 62
     0
100
AcDbLine
 10
169.9589154
 20
122.847746
 30
0.0
 11
183.6519154
 21
125.758746
 31
0.0
  0
LINE
  5
42E
330
27F
100
AcDbEntity
  8
0
 62
     0
100
AcDbLine
 10
183.6519154
 20
125.758746
 30
0.0
 11
180.7409154
 21
139.451746
 31
0.0
  0
LINE
  5
42F
330
27F
100
AcDbEntity
  8
0
 62
     0
100
AcDbLine
 10
180.7409154
 20
139.451746
 30
0.0
 11
167.0469154
 21
136.541746
 31
0.0
  0
LINE
  5
430
330
27F
100
AcDbEntity
  8
0
 62
     0
100
AcDbLine
 10
130.7389154
 20
126.900746
 30
0.0
 11
144.4319154
 21
123.990746
 31
0.0
  0
LINE
  5
431
330
27F
100
AcDbEntity
  8
0
 62
     0
100
AcDbLine
 10
144.4319154
 20
123.990746
 30
0.0
 11
147.3439154
 21
137.683746
 31
0.0
  0
LINE
  5
432
330
27F
100
AcDbEntity
  8
0
 62
     0
100
AcDbLine
 10
147.3439154
 20
137.683746
 30
0.0
 11
133.6489154
 21
140.595746
 31
0.0
  0
LINE
  5
433
330
27F
100
AcDbEntity
  8
0
 62
     0
100
AcDbLine
 10
133.6489154
 20
140.595746
 30
0.0
 11
130.7389154
 21
126.900746
 31
0.0
  0
LINE
  5
434
330
27F
100
AcDbEntity
  8
0
 62
     0
100
AcDbLine
 10
185.6809154
 20
140.501746
 30
0.0
 11
188.5929154
 21
126.808746
 31
0.0
  0
LINE
  5
435
330
27F
100
AcDbEntity
  8
0
 62
     0
100
AcDbLine
 10
188.5929154
 20
126.808746
 30
0.0
 11
202.2869154
 21
129.718746
 31
0.0
  0
LINE
  5
436
330
27F
100
AcDbEntity
  8
0
 62
     0
100
AcDbLine
 10
202.2869154
 20
129.718746
 30
0.0
 11
199.3759153999999
 21
143.413746
 31
0.0
  0
LINE
  5
437
330
27F
100
AcDbEntity
  8
0
 62
     0
100
AcDbLine
 10
199.3759153999999
 20
143.413746
 30
0.0
 11
185.6809154
 21
140.501746
 31
0.0
  0
LINE
  5
438
330
27F
100
AcDbEntity
  8
0
 62
     0
100
AcDbLine
 10
112.1049154
 20
130.862746
 30
0.0
 11
125.7999154
 21
127.950746
 31
0.0
  0
LINE
  5
439
330
27F
100
AcDbEntity
  8
0
 62
     0
100
AcDbLine
 10
125.7999154
 20
127.950746
 30
0.0
 11
128.7099154
 21
141.6457459999999
 31
0.0
  0
LINE
  5
43A
330
27F
100
AcDbEntity
  8
0
 62
     0
100
AcDbLine
 10
128.7099154
 20
141.6457459999999
 30
0.0
 11
115.0149154
 21
144.556746
 31
0.0
  0
LINE
  5
43B
330
27F
100
AcDbEntity
  8
0
 62
     0
100
AcDbLine
 10
115.0149154
 20
144.556746
 30
0.0
 11
112.1049154
 21
130.862746
 31
0.0
  0
LINE
  5
43C
330
27F
100
AcDbEntity
  8
0
 62
     0
100
AcDbLine
 10
208.9739154
 20
145.453746
 30
0.0
 11
211.8849154
 21
131.7597459999999
 31
0.0
  0
LINE
  5
43D
330
27F
100
AcDbEntity
  8
0
 62
     0
100
AcDbLine
 10
211.8849154
 20
131.7597459999999
 30
0.0
 11
225.5779154
 21
134.6697459999999
 31
0.0
  0
LINE
  5
43E
330
27F
100
AcDbEntity
  8
0
 62
     0
100
AcDbLine
 10
225.5779154
 20
134.6697459999999
 30
0.0
 11
222.6679154
 21
148.363746
 31
0.0
  0
LINE
  5
43F
330
27F
100
AcDbEntity
  8
0
 62
     0
100
AcDbLine
 10
222.6679154
 20
148.363746
 30
0.0
 11
208.9739154
 21
145.453746
 31
0.0
  0
LINE
  5
440
330
27F
100
AcDbEntity
  8
0
 62
     0
100
AcDbLine
 10
88.8130154
 20
135.812746
 30
0.0
 11
102.5069154
 21
132.901746
 31
0.0
  0
LINE
  5
441
330
27F
100
AcDbEntity
  8
0
 62
     0
100
AcDbLine
 10
102.5069154
 20
132.901746
 30
0.0
 11
105.4169154
 21
146.595746
 31
0.0
  0
LINE
  5
442
330
27F
100
AcDbEntity
  8
0
 62
     0
100
AcDbLine
 10
105.4169154
 20
146.595746
 30
0.0
 11
91.72341539999999
 21
149.507746
 31
0.0
  0
LINE
  5
443
330
27F
100
AcDbEntity
  8
0
 62
     0
100
AcDbLine
 10
91.72341539999999
 20
149.507746
 30
0.0
 11
88.8130154
 21
135.812746
 31
0.0
  0
LINE
  5
444
330
27F
100
AcDbEntity
  8
0
 62
     0
100
AcDbLine
 10
227.6079154
 20
149.413746
 30
0.0
 11
230.5179154
 21
135.720746
 31
0.0
  0
LINE
  5
445
330
27F
100
AcDbEntity
  8
0
 62
     0
100
AcDbLine
 10
230.5179154
 20
135.720746
 30
0.0
 11
244.2119154
 21
138.630746
 31
0.0
  0
LINE
  5
446
330
27F
100
AcDbEntity
  8
0
 62
     0
100
AcDbLine
 10
244.2119154
 20
138.630746
 30
0.0
 11
241.3009154
 21
152.325746
 31
0.0
  0
LINE
  5
447
330
27F
100
AcDbEntity
  8
0
 62
     0
100
AcDbLine
 10
241.3009154
 20
152.325746
 30
0.0
 11
227.6079154
 21
149.413746
 31
0.0
  0
LINE
  5
448
330
27F
100
AcDbEntity
  8
0
 62
     0
100
AcDbLine
 10
70.17931539999999
 20
139.772746
 30
0.0
 11
83.87311539999998
 21
136.862746
 31
0.0
  0
LINE
  5
449
330
27F
100
AcDbEntity
  8
0
 62
     0
100
AcDbLine
 10
83.87311539999998
 20
136.862746
 30
0.0
 11
86.78451539999999
 21
150.557746
 31
0.0
  0
LINE
  5
44A
330
27F
100
AcDbEntity
  8
0
 62
     0
100
AcDbLine
 10
86.78451539999999
 20
150.557746
 30
0.0
 11
73.08971539999999
 21
153.466746
 31
0.0
  0
LINE
  5
44B
330
27F
100
AcDbEntity
  8
0
 62
     0
100
AcDbLine
 10
73.08971539999999
 20
153.466746
 30
0.0
 11
70.17931539999999
 21
139.772746
 31
0.0
  0
LINE
  5
44C
330
27F
100
AcDbEntity
  8
0
 62
     0
100
AcDbLine
 10
320.6589154
 20
152.733746
 30
0.0
 11
334.6579154
 21
152.733746
 31
0.0
  0
LINE
  5
44D
330
27F
100
AcDbEntity
  8
0
 62
     0
100
AcDbLine
 10
334.6579154
 20
152.733746
 30
0.0
 11
334.6579154
 21
138.733746
 31
0.0
  0
LINE
  5
44E
330
27F
100
AcDbEntity
  8
0
 62
     0
100
AcDbLine
 10
334.6579154
 20
138.733746
 30
0.0
 11
320.6589154
 21
138.733746
 31
0.0
  0
LINE
  5
44F
330
27F
100
AcDbEntity
  8
0
 62
     0
100
AcDbLine
 10
320.6589154
 20
138.733746
 30
0.0
 11
320.6589154
 21
152.733746
 31
0.0
  0
LINE
  5
450
330
27F
100
AcDbEntity
  8
0
 62
     0
100
AcDbLine
 10
295.2269154
 20
152.733746
 30
0.0
 11
309.2279154
 21
152.733746
 31
0.0
  0
LINE
  5
451
330
27F
100
AcDbEntity
  8
0
 62
     0
100
AcDbLine
 10
309.2279154
 20
152.733746
 30
0.0
 11
309.2279154
 21
138.733746
 31
0.0
  0
LINE
  5
452
330
27F
100
AcDbEntity
  8
0
 62
     0
100
AcDbLine
 10
309.2279154
 20
138.733746
 30
0.0
 11
295.2269154
 21
138.733746
 31
0.0
  0
LINE
  5
453
330
27F
100
AcDbEntity
  8
0
 62
     0
100
AcDbLine
 10
295.2269154
 20
138.733746
 30
0.0
 11
295.2269154
 21
152.733746
 31
0.0
  0
LINE
  5
454
330
27F
100
AcDbEntity
  8
0
 62
     0
100
AcDbLine
 10
6.3348554
 20
152.733746
 30
0.0
 11
20.3343154
 21
152.733746
 31
0.0
  0
LINE
  5
455
330
27F
100
AcDbEntity
  8
0
 62
     0
100
AcDbLine
 10
20.3343154
 20
152.733746
 30
0.0
 11
20.3343154
 21
138.733746
 31
0.0
  0
LINE
  5
456
330
27F
100
AcDbEntity
  8
0
 62
     0
100
AcDbLine
 10
20.3343154
 20
138.733746
 30
0.0
 11
6.3348554
 21
138.733746
 31
0.0
  0
LINE
  5
457
330
27F
100
AcDbEntity
  8
0
 62
     0
100
AcDbLine
 10
6.3348554
 20
138.733746
 30
0.0
 11
6.3348554
 21
152.733746
 31
0.0
  0
LINE
  5
458
330
27F
100
AcDbEntity
  8
0
 62
     0
100
AcDbLine
 10
250.1749154
 20
153.685746
 30
0.0
 11
264.1739154
 21
153.685746
 31
0.0
  0
LINE
  5
459
330
27F
100
AcDbEntity
  8
0
 62
     0
100
AcDbLine
 10
264.1739154
 20
153.685746
 30
0.0
 11
264.1739154
 21
139.686746
 31
0.0
  0
LINE
  5
45A
330
27F
100
AcDbEntity
  8
0
 62
     0
100
AcDbLine
 10
264.1739154
 20
139.686746
 30
0.0
 11
250.1749154
 21
139.686746
 31
0.0
  0
LINE
  5
45B
330
27F
100
AcDbEntity
  8
0
 62
     0
100
AcDbLine
 10
250.1749154
 20
139.686746
 30
0.0
 11
250.1749154
 21
153.685746
 31
0.0
  0
LINE
  5
45C
330
27F
100
AcDbEntity
  8
0
 62
     0
100
AcDbLine
 10
50.1496154
 20
153.685746
 30
0.0
 11
64.14891539999999
 21
153.685746
 31
0.0
  0
LINE
  5
45D
330
27F
100
AcDbEntity
  8
0
 62
     0
100
AcDbLine
 10
64.14891539999999
 20
153.685746
 30
0.0
 11
64.14891539999999
 21
139.686746
 31
0.0
  0
LINE
  5
45E
330
27F
100
AcDbEntity
  8
0
 62
     0
100
AcDbLine
 10
64.14891539999999
 20
139.686746
 30
0.0
 11
50.1496154
 21
139.686746
 31
0.0
  0
LINE
  5
45F
330
27F
100
AcDbEntity
  8
0
 62
     0
100
AcDbLine
 10
50.1496154
 20
139.686746
 30
0.0
 11
50.1496154
 21
153.685746
 31
0.0
  0
LINE
  5
460
330
27F
100
AcDbEntity
  8
0
 62
     0
100
AcDbLine
 10
269.2249154
 20
153.685746
 30
0.0
 11
283.2239154
 21
153.685746
 31
0.0
  0
LINE
  5
461
330
27F
100
AcDbEntity
  8
0
 62
     0
100
AcDbLine
 10
283.2239154
 20
153.685746
 30
0.0
 11
283.2239154
 21
139.686746
 31
0.0
  0
LINE
  5
462
330
27F
100
AcDbEntity
  8
0
 62
     0
100
AcDbLine
 10
283.2239154
 20
139.686746
 30
0.0
 11
269.2249154
 21
139.686746
 31
0.0
  0
LINE
  5
463
330
27F
100
AcDbEntity
  8
0
 62
     0
100
AcDbLine
 10
269.2249154
 20
139.686746
 30
0.0
 11
269.2249154
 21
153.685746
 31
0.0
  0
LINE
  5
464
330
27F
100
AcDbEntity
  8
0
 62
     0
100
AcDbLine
 10
31.0996154
 20
153.685746
 30
0.0
 11
45.09891539999999
 21
153.685746
 31
0.0
  0
LINE
  5
465
330
27F
100
AcDbEntity
  8
0
 62
     0
100
AcDbLine
 10
45.09891539999999
 20
153.685746
 30
0.0
 11
45.09891539999999
 21
139.686746
 31
0.0
  0
LINE
  5
466
330
27F
100
AcDbEntity
  8
0
 62
     0
100
AcDbLine
 10
45.09891539999999
 20
139.686746
 30
0.0
 11
31.0996154
 21
139.686746
 31
0.0
  0
LINE
  5
467
330
27F
100
AcDbEntity
  8
0
 62
     0
100
AcDbLine
 10
31.0996154
 20
139.686746
 30
0.0
 11
31.0996154
 21
153.685746
 31
0.0
  0
ENDBLK
  5
469
330
27F
100
AcDbEntity
  8
0
100
AcDbBlockEnd
  0
ENDSEC
  0
SECTION
  2
ENTITIES
  0
LINE
  5
F3
330
6F
100
AcDbEntity
  8
0
 62
     0
100
AcDbLine
 10
189.071
 20
8.27373
 30
0.0
 11
131.917
 21
8.27373
 31
0.0
  0
LINE
  5
24B
330
6F
100
AcDbEntity
  8
0
 62
     0
100
AcDbLine
 10
-7.904930268337465
 20
-7.72679557704829
 30
0.0
 11
-7.935386074147572
 21
184.294
 31
0.0
  0
LINE
  5
24E
330
6F
100
AcDbEntity
  8
0
 62
     0
100
AcDbLine
 10
-7.935386074147572
 20
184.294
 30
0.0
 11
375.47371115848
 21
184.294
 31
0.0
  0
LINE
  5
24F
330
6F
100
AcDbEntity
  8
0
 62
     0
100
AcDbLine
 10
375.47371115848
 20
184.294
 30
0.0
 11
375.566
 21
-7.743688540294441
 31
0.0
  0
LINE
  5
250
330
6F
100
AcDbEntity
  8
0
 62
     0
100
AcDbLine
 10
375.566
 20
-7.743688540294441
 30
0.0
 11
-7.904930268337465
 21
-7.72679557704829
 31
0.0
  0
LINE
  5
5B5
330
6F
100
AcDbEntity
  8
0
 62
     0
100
AcDbLine
 10
-0.1101283458570506
 20
0.0728571346144746
 30
0.0
 11
-0.1013733883682884
 21
176.494
 31
0.0
  0
LINE
  5
5B6
330
6F
100
AcDbEntity
  8
0
 62
     0
100
AcDbLine
 10
7.794604600000025
 20
7.972254000000004
 30
0.0
 11
7.787335086636176
 21
168.593
 31
0.0
  0
LINE
  5
5B7
330
6F
100
AcDbEntity
  8
0
 62
     0
100
AcDbLine
 10
-0.1013733883682884
 20
176.494
 30
0.0
 11
367.7632613704607
 21
176.494
 31
0.0
  0
LINE
  5
5B8
330
6F
100
AcDbEntity
  8
0
 62
     0
100
AcDbLine
 10
7.787335086636176
 20
168.593
 30
0.0
 11
359.8705080872051
 21
168.593
 31
0.0
  0
LINE
  5
5B9
330
6F
100
AcDbEntity
  8
0
 62
     0
100
AcDbLine
 10
359.8705080872051
 20
168.593
 30
0.0
 11
359.8675200000001
 21
7.972254000000003
 31
0.0
  0
LINE
  5
5BA
330
6F
100
AcDbEntity
  8
0
 62
     0
100
AcDbLine
 10
367.7632613704607
 20
176.494
 30
0.0
 11
367.7660030102126
 21
0.0791531086487396
 31
0.0
  0
LINE
  5
5BB
330
6F
100
AcDbEntity
  8
0
 62
     0
100
AcDbLine
 10
359.8675200000001
 20
7.972254000000003
 30
0.0
 11
7.794604600000025
 21
7.972254000000004
 31
0.0
  0
LINE
  5
5BC
330
6F
100
AcDbEntity
  8
0
 62
     0
100
AcDbLine
 10
367.7660030102126
 20
0.0791531086487396
 30
0.0
 11
-0.1101283458570506
 21
0.0728571346144746
 31
0.0
  0
ENDSEC
  0
SECTION
  2
OBJECTS
  0
DICTIONARY
  5
C
330
0
100
AcDbDictionary
281
     1
  3
ACAD_CIP_PREVIOUS_PRODUCT_INFO
350
22F
  3
ACAD_COLOR
350
62
  3
ACAD_DETAILVIEWSTYLE
350
69
  3
ACAD_GROUP
350
D
  3
ACAD_LAYOUT
350
61
  3
ACAD_MATERIAL
350
10
  3
ACAD_MLEADERSTYLE
350
65
  3
ACAD_MLINESTYLE
350
5E
  3
ACAD_PLOTSETTINGS
350
60
  3
ACAD_PLOTSTYLENAME
350
E
  3
ACAD_SCALELIST
350
42
  3
ACAD_SECTIONVIEWSTYLE
350
67
  3
ACAD_TABLESTYLE
350
63
  3
ACAD_VISUALSTYLE
350
29
  3
ACDB_RECOMPOSE_DATA
350
5BE
  3
AcDbVariableDictionary
350
253
  0
DICTIONARY
  5
268
330
2
100
AcDbDictionary
280
     1
281
     1
  3
ACAD_LAYERSTATES
360
269
  0
DICTIONARY
  5
251
330
54
100
AcDbDictionary
280
     1
281
     1
  3
ADSK_XREC_LAYER_RECONCILED
360
252
  0
DICTIONARY
  5
24C
330
6F
100
AcDbDictionary
280
     1
281
     1
  3
ACAD_SORTENTS
360
24D
  0
XRECORD
  5
22F
102
{ACAD_REACTORS
330
C
102
}
330
C
100
AcDbXrecord
280
     1
300
ACD
300
2021
300

  0
DICTIONARY
  5
62
102
{ACAD_REACTORS
330
C
102
}
330
C
100
AcDbDictionary
281
     1
  0
DICTIONARY
  5
69
102
{ACAD_REACTORS
330
C
102
}
330
C
100
AcDbDictionary
281
     1
  3
Imperial24
350
6A
  0
DICTIONARY
  5
D
102
{ACAD_REACTORS
330
C
102
}
330
C
100
AcDbDictionary
281
     1
  0
DICTIONARY
  5
61
102
{ACAD_REACTORS
330
C
102
}
330
C
100
AcDbDictionary
281
     1
  3
Layout1
350
6E
  3
Model
350
72
  0
DICTIONARY
  5
10
102
{ACAD_REACTORS
330
C
102
}
330
C
100
AcDbDictionary
281
     1
  3
ByBlock
350
19
  3
ByLayer
350
11
  3
Global
350
21
  0
DICTIONARY
  5
65
102
{ACAD_REACTORS
330
C
102
}
330
C
100
AcDbDictionary
281
     1
  3
Standard
350
66
  0
DICTIONARY
  5
5E
102
{ACAD_REACTORS
330
C
102
}
330
C
100
AcDbDictionary
281
     1
  3
Standard
350
5F
  0
DICTIONARY
  5
60
102
{ACAD_REACTORS
330
C
102
}
330
C
100
AcDbDictionary
281
     1
  0
ACDBDICTIONARYWDFLT
  5
E
102
{ACAD_REACTORS
330
C
102
}
330
C
100
AcDbDictionary
281
     1
  3
Normal
350
F
100
AcDbDictionaryWithDefault
340
F
  0
DICTIONARY
  5
42
102
{ACAD_REACTORS
330
C
102
}
330
C
100
AcDbDictionary
281
     1
  3
A0
350
43
  3
A1
350
44
  3
A2
350
45
  3
A3
350
46
  3
A4
350
47
  3
A5
350
48
  3
A6
350
49
  3
A7
350
4A
  3
A8
350
4B
  3
A9
350
4C
  3
B0
350
4D
  3
B1
350
4E
  3
B2
350
4F
  3
B3
350
50
  3
B4
350
51
  3
B5
350
52
  3
B6
350
53
  0
DICTIONARY
  5
67
102
{ACAD_REACTORS
330
C
102
}
330
C
100
AcDbDictionary
281
     1
  3
Imperial24
350
68
  0
DICTIONARY
  5
63
102
{ACAD_REACTORS
330
C
102
}
330
C
100
AcDbDictionary
281
     1
  3
Standard
350
64
  0
DICTIONARY
  5
29
102
{ACAD_REACTORS
330
C
102
}
330
C
100
AcDbDictionary
281
     1
  3
2dWireframe
350
2F
  3
Basic
350
2E
  3
Brighten
350
35
  3
ColorChange
350
39
  3
Conceptual
350
32
  3
Dim
350
34
  3
EdgeColorOff
350
41
  3
Facepattern
350
38
  3
Flat
350
2A
  3
FlatWithEdges
350
2B
  3
Gouraud
350
2C
  3
GouraudWithEdges
350
2D
  3
Hidden
350
31
  3
JitterOff
350
3F
  3
Linepattern
350
37
  3
OverhangOff
350
40
  3
Realistic
350
33
  3
Shaded
350
3E
  3
Shaded with edges
350
3D
  3
Shades of Gray
350
3A
  3
Sketchy
350
3B
  3
Thicken
350
36
  3
Wireframe
350
30
  3
X-Ray
350
3C
  0
XRECORD
  5
5BE
102
{ACAD_REACTORS
330
C
102
}
330
C
100
AcDbXrecord
280
     1
 90
        1
330
64
  0
DICTIONARY
  5
253
102
{ACAD_REACTORS
330
C
102
}
330
C
100
AcDbDictionary
281
     1
  3
CANNOSCALE
350
259
  3
CMLEADERSTYLE
350
255
  3
CTABLESTYLE
350
254
  3
CVIEWDETAILSTYLE
350
256
  3
CVIEWSECTIONSTYLE
350
257
  3
LAYEREVAL
350
25B
  3
LAYERNOTIFY
350
25C
  3
LIGHTINGUNITS
350
25A
  3
MSLTSCALE
350
258
  0
DICTIONARY
  5
269
102
{ACAD_REACTORS
330
268
102
}
330
268
100
AcDbDictionary
281
     1
  0
XRECORD
  5
252
102
{ACAD_REACTORS
330
251
102
}
330
251
100
AcDbXrecord
280
     1
290
     1
  0
SORTENTSTABLE
  5
24D
102
{ACAD_REACTORS
330
24C
102
}
330
24C
100
AcDbSortentsTable
330
6F
331
F3
  5
529
331
24B
  5
524
331
24E
  5
79
331
24F
  5
7D
331
250
  5
FB
331
5B5
  5
51C
331
5B6
  5
5B9
331
5B7
  5
77
331
5B8
  5
5BB
331
5B9
  5
5B5
331
5BA
  5
7C
331
5BB
  5
5B7
331
5BC
  5
80
  0
ACDBDETAILVIEWSTYLE
  5
6A
102
{ACAD_REACTORS
330
69
102
}
330
69
100
AcDbModelDocViewStyle
 70
     0
  3
Imperial24
290
     0
300
Imperial24
 90
        0
100
AcDbDetailViewStyle
 70
     0
 71
     0
 90
        3
 71
     1
340
55
 62
   256
 40
0.24
340
0
 62
   256
 40
0.24
300

 40
0.36
280
     3
 71
     2
340
5C
 90
       25
 62
   256
 71
     3
340
55
 62
   256
 40
0.24
 90
        1
 40
0.75
 90
        1
300
%<\AcVar ViewType \f "%tc1">% %<\AcVar ViewDetailId>%\PSCALE %<\AcVar ViewScale \f "%sn">%
 71
     4
340
5C
 90
       25
 62
   256
340
5C
 90
       25
 62
   256
280
     0
  0
LAYOUT
  5
6E
102
{ACAD_REACTORS
330
61
102
}
330
61
100
AcDbPlotSettings
  1

  2
Microsoft Print to PDF
  4

  6

 40
0.0
 41
0.0
 42
0.0
 43
0.0
 44
0.0
 45
0.0
 46
0.0
 47
0.0
 48
0.0
 49
0.0
140
0.0
141
0.0
142
1.0
143
1.0
 70
   688
 72
     0
 73
     0
 74
     5
  7

 75
    16
147
1.0
 76
     0
 77
     2
 78
   300
148
0.0
149
0.0
100
AcDbLayout
  1
Layout1
 70
     1
 71
     1
 10
0.0
 20
0.0
 11
12.0
 21
9.0
 12
0.0
 22
0.0
 32
0.0
 14
1.000000000000000E+20
 24
1.000000000000000E+20
 34
1.000000000000000E+20
 15
-1.000000000000000E+20
 25
-1.000000000000000E+20
 35
-1.000000000000000E+20
146
0.0
 13
0.0
 23
0.0
 33
0.0
 16
1.0
 26
0.0
 36
0.0
 17
0.0
 27
1.0
 37
0.0
 76
     0
330
6B
  0
LAYOUT
  5
72
102
{ACAD_REACTORS
330
61
102
}
330
61
100
AcDbPlotSettings
  1

  2
Microsoft Print to PDF
  4

  6

 40
0.0
 41
0.0
 42
0.0
 43
0.0
 44
0.0
 45
0.0
 46
0.0
 47
0.0
 48
0.0
 49
0.0
140
0.0
141
0.0
142
1.0
143
1.0
 70
  1712
 72
     0
 73
     0
 74
     0
  7

 75
     0
147
1.0
 76
     0
 77
     2
 78
   300
148
0.0
149
0.0
100
AcDbLayout
  1
Model
 70
     1
 71
     0
 10
0.0
 20
0.0
 11
12.0
 21
9.0
 12
0.0
 22
0.0
 32
0.0
 14
0.0
 24
0.0
 34
0.0
 15
0.0
 25
0.0
 35
0.0
146
0.0
 13
0.0
 23
0.0
 33
0.0
 16
1.0
 26
0.0
 36
0.0
 17
0.0
 27
1.0
 37
0.0
 76
     0
330
6F
331
74
  0
MATERIAL
  5
19
102
{ACAD_XDICTIONARY
360
1A
102
}
102
{ACAD_REACTORS
330
10
102
}
330
10
100
AcDbMaterial
  1
ByBlock
 72
     0
 43
0.0208333333333333
 43
0.0
 43
0.0
 43
0.0
 43
0.0
 43
0.0208333333333333
 43
0.0
 43
0.0
 43
0.0
 43
0.0
 43
1.0
 43
0.0
 43
0.0
 43
0.0
 43
0.0
 43
1.0
 77
     0
 47
0.0208333333333333
 47
0.0
 47
0.0
 47
0.0
 47
0.0
 47
0.0208333333333333
 47
0.0
 47
0.0
 47
0.0
 47
0.0
 47
1.0
 47
0.0
 47
0.0
 47
0.0
 47
0.0
 47
1.0
171
     0
 49
0.0208333333333333
 49
0.0
 49
0.0
 49
0.0
 49
0.0
 49
0.0208333333333333
 49
0.0
 49
0.0
 49
0.0
 49
0.0
 49
1.0
 49
0.0
 49
0.0
 49
0.0
 49
0.0
 49
1.0
175
     0
142
0.0208333333333333
142
0.0
142
0.0
142
0.0
142
0.0
142
0.0208333333333333
142
0.0
142
0.0
142
0.0
142
0.0
142
1.0
142
0.0
142
0.0
142
0.0
142
0.0
142
1.0
179
     0
144
0.0208333333333333
144
0.0
144
0.0
144
0.0
144
0.0
144
0.0208333333333333
144
0.0
144
0.0
144
0.0
144
0.0
144
1.0
144
0.0
144
0.0
144
0.0
144
0.0
144
1.0
147
0.0208333333333333
147
0.0
147
0.0
147
0.0
147
0.0
147
0.0208333333333333
147
0.0
147
0.0
147
0.0
147
0.0
147
1.0
147
0.0
147
0.0
147
0.0
147
0.0
147
1.0
  0
MATERIAL
  5
11
102
{ACAD_XDICTIONARY
360
12
102
}
102
{ACAD_REACTORS
330
10
102
}
330
10
100
AcDbMaterial
  1
ByLayer
 72
     0
 43
0.0208333333333333
 43
0.0
 43
0.0
 43
0.0
 43
0.0
 43
0.0208333333333333
 43
0.0
 43
0.0
 43
0.0
 43
0.0
 43
1.0
 43
0.0
 43
0.0
 43
0.0
 43
0.0
 43
1.0
 77
     0
 47
0.0208333333333333
 47
0.0
 47
0.0
 47
0.0
 47
0.0
 47
0.0208333333333333
 47
0.0
 47
0.0
 47
0.0
 47
0.0
 47
1.0
 47
0.0
 47
0.0
 47
0.0
 47
0.0
 47
1.0
171
     0
 49
0.0208333333333333
 49
0.0
 49
0.0
 49
0.0
 49
0.0
 49
0.0208333333333333
 49
0.0
 49
0.0
 49
0.0
 49
0.0
 49
1.0
 49
0.0
 49
0.0
 49
0.0
 49
0.0
 49
1.0
175
     0
142
0.0208333333333333
142
0.0
142
0.0
142
0.0
142
0.0
142
0.0208333333333333
142
0.0
142
0.0
142
0.0
142
0.0
142
1.0
142
0.0
142
0.0
142
0.0
142
0.0
142
1.0
179
     0
144
0.0208333333333333
144
0.0
144
0.0
144
0.0
144
0.0
144
0.0208333333333333
144
0.0
144
0.0
144
0.0
144
0.0
144
1.0
144
0.0
144
0.0
144
0.0
144
0.0
144
1.0
147
0.0208333333333333
147
0.0
147
0.0
147
0.0
147
0.0
147
0.0208333333333333
147
0.0
147
0.0
147
0.0
147
0.0
147
1.0
147
0.0
147
0.0
147
0.0
147
0.0
147
1.0
  0
MATERIAL
  5
21
102
{ACAD_XDICTIONARY
360
22
102
}
102
{ACAD_REACTORS
330
10
102
}
330
10
100
AcDbMaterial
  1
Global
 72
     0
 43
0.0208333333333333
 43
0.0
 43
0.0
 43
0.0
 43
0.0
 43
0.0208333333333333
 43
0.0
 43
0.0
 43
0.0
 43
0.0
 43
1.0
 43
0.0
 43
0.0
 43
0.0
 43
0.0
 43
1.0
 77
     0
 47
0.0208333333333333
 47
0.0
 47
0.0
 47
0.0
 47
0.0
 47
0.0208333333333333
 47
0.0
 47
0.0
 47
0.0
 47
0.0
 47
1.0
 47
0.0
 47
0.0
 47
0.0
 47
0.0
 47
1.0
171
     0
 49
0.0208333333333333
 49
0.0
 49
0.0
 49
0.0
 49
0.0
 49
0.0208333333333333
 49
0.0
 49
0.0
 49
0.0
 49
0.0
 49
1.0
 49
0.0
 49
0.0
 49
0.0
 49
0.0
 49
1.0
175
     0
142
0.0208333333333333
142
0.0
142
0.0
142
0.0
142
0.0
142
0.0208333333333333
142
0.0
142
0.0
142
0.0
142
0.0
142
1.0
142
0.0
142
0.0
142
0.0
142
0.0
142
1.0
179
     0
144
0.0208333333333333
144
0.0
144
0.0
144
0.0
144
0.0
144
0.0208333333333333
144
0.0
144
0.0
144
0.0
144
0.0
144
1.0
144
0.0
144
0.0
144
0.0
144
0.0
144
1.0
147
0.0208333333333333
147
0.0
147
0.0
147
0.0
147
0.0
147
0.0208333333333333
147
0.0
147
0.0
147
0.0
147
0.0
147
1.0
147
0.0
147
0.0
147
0.0
147
0.0
147
1.0
  0
MLEADERSTYLE
  5
66
102
{ACAD_REACTORS
330
65
102
}
330
65
100
AcDbMLeaderStyle
179
     2
170
     2
171
     1
172
     0
 90
        2
 40
0.0
 41
0.0
173
     1
 91
-1056964608
340
5A
 92
       -2
290
     1
 42
0.09
291
     1
 43
0.36
  3
Standard
 44
0.18
300

342
55
174
     1
178
     6
175
     1
176
     0
 93
-1056964608
 45
0.18
292
     0
297
     0
 46
0.18
 94
-1056964608
 47
1.0
 49
1.0
140
1.0
293
     1
141
0.0
294
     1
177
     0
142
1.0
295
     0
296
     0
143
0.125
271
     0
272
     9
273
     9
298
     0
  0
MLINESTYLE
  5
5F
102
{ACAD_REACTORS
330
5E
102
}
330
5E
100
AcDbMlineStyle
  2
STANDARD
 70
     0
  3

 62
   256
 51
90.0
 52
90.0
 71
     2
 49
0.5
 62
   256
  6
BYLAYER
 49
-0.5
 62
   256
  6
BYLAYER
  0
ACDBPLACEHOLDER
  5
F
102
{ACAD_REACTORS
330
E
102
}
330
E
  0
SCALE
  5
43
102
{ACAD_REACTORS
330
42
102
}
330
42
100
AcDbScale
 70
     0
300
1:1
140
1.0
141
1.0
290
     1
  0
SCALE
  5
44
102
{ACAD_REACTORS
330
42
102
}
330
42
100
AcDbScale
 70
     0
300
1/128" = 1'-0"
140
0.0078125
141
12.0
290
     0
  0
SCALE
  5
45
102
{ACAD_REACTORS
330
42
102
}
330
42
100
AcDbScale
 70
     0
300
1/64" = 1'-0"
140
0.015625
141
12.0
290
     0
  0
SCALE
  5
46
102
{ACAD_REACTORS
330
42
102
}
330
42
100
AcDbScale
 70
     0
300
1/32" = 1'-0"
140
0.03125
141
12.0
290
     0
  0
SCALE
  5
47
102
{ACAD_REACTORS
330
42
102
}
330
42
100
AcDbScale
 70
     0
300
1/16" = 1'-0"
140
0.0625
141
12.0
290
     0
  0
SCALE
  5
48
102
{ACAD_REACTORS
330
42
102
}
330
42
100
AcDbScale
 70
     0
300
3/32" = 1'-0"
140
0.09375
141
12.0
290
     0
  0
SCALE
  5
49
102
{ACAD_REACTORS
330
42
102
}
330
42
100
AcDbScale
 70
     0
300
1/8" = 1'-0"
140
0.125
141
12.0
290
     0
  0
SCALE
  5
4A
102
{ACAD_REACTORS
330
42
102
}
330
42
100
AcDbScale
 70
     0
300
3/16" = 1'-0"
140
0.1875
141
12.0
290
     0
  0
SCALE
  5
4B
102
{ACAD_REACTORS
330
42
102
}
330
42
100
AcDbScale
 70
     0
300
1/4" = 1'-0"
140
0.25
141
12.0
290
     0
  0
SCALE
  5
4C
102
{ACAD_REACTORS
330
42
102
}
330
42
100
AcDbScale
 70
     0
300
3/8" = 1'-0"
140
0.375
141
12.0
290
     0
  0
SCALE
  5
4D
102
{ACAD_REACTORS
330
42
102
}
330
42
100
AcDbScale
 70
     0
300
1/2" = 1'-0"
140
0.5
141
12.0
290
     0
  0
SCALE
  5
4E
102
{ACAD_REACTORS
330
42
102
}
330
42
100
AcDbScale
 70
     0
300
3/4" = 1'-0"
140
0.75
141
12.0
290
     0
  0
SCALE
  5
4F
102
{ACAD_REACTORS
330
42
102
}
330
42
100
AcDbScale
 70
     0
300
1" = 1'-0"
140
1.0
141
12.0
290
     0
  0
SCALE
  5
50
102
{ACAD_REACTORS
330
42
102
}
330
42
100
AcDbScale
 70
     0
300
1-1/2" = 1'-0"
140
1.5
141
12.0
290
     0
  0
SCALE
  5
51
102
{ACAD_REACTORS
330
42
102
}
330
42
100
AcDbScale
 70
     0
300
3" = 1'-0"
140
3.0
141
12.0
290
     0
  0
SCALE
  5
52
102
{ACAD_REACTORS
330
42
102
}
330
42
100
AcDbScale
 70
     0
300
6" = 1'-0"
140
6.0
141
12.0
290
     0
  0
SCALE
  5
53
102
{ACAD_REACTORS
330
42
102
}
330
42
100
AcDbScale
 70
     0
300
1'-0" = 1'-0"
140
12.0
141
12.0
290
     0
  0
ACDBSECTIONVIEWSTYLE
  5
68
102
{ACAD_REACTORS
330
67
102
}
330
67
100
AcDbModelDocViewStyle
 70
     0
  3
Imperial24
290
     0
300
Imperial24
 90
        0
100
AcDbSectionViewStyle
 70
     0
 71
     0
 90
       78
 71
     1
340
55
 62
   256
 40
0.24
340
0
340
0
 62
   256
 40
0.24
300
I, O, Q, S, X, Z
 40
0.48
 90
        3
 40
0.18
 90
        1
 71
     2
340
5C
 90
       25
 62
   256
340
5C
 90
       50
 62
   256
 40
0.24
 40
0.0
 40
0.24
 71
     3
340
55
 62
   256
 40
0.24
 90
        1
 40
0.75
 90
        1
300
%<\AcVar ViewType \f "%tc1">% %<\AcVar ViewSectionStartId>%-%<\AcVar ViewSectionEndId>%\PSCALE %<\AcVar ViewScale \f "%sn">%
 71
     4
 62
   256
 62
   257
300
ANSI31
 40
1.0
 90
        0
290
     0
290
     0
 90
        6
 40
0.0
 40
1.570796326794896
 40
0.2617993877991494
 40
1.308996938995747
 40
-0.2617993877991494
 40
1.832595714594045
  0
TABLESTYLE
  5
64
102
{ACAD_XDICTIONARY
360
278
102
}
102
{ACAD_REACTORS
330
63
102
}
330
63
100
AcDbTableStyle
280
     0
  3
Standard
 70
     0
 71
     0
 40
0.06
 41
0.06
280
     0
281
     0
  7
Standard
140
0.18
170
     2
 62
     0
 63
     7
283
     0
 90
      512
 91
        0
  1

274
    -2
284
     1
 64
     0
275
    -2
285
     1
 65
     0
276
    -2
286
     1
 66
     0
277
    -2
287
     1
 67
     0
278
    -2
288
     1
 68
     0
279
    -2
289
     1
 69
     0
  7
Standard
140
0.25
170
     5
 62
     0
 63
     7
283
     0
 90
      512
 91
        0
  1

274
    -2
284
     1
 64
     0
275
    -2
285
     1
 65
     0
276
    -2
286
     1
 66
     0
277
    -2
287
     1
 67
     0
278
    -2
288
     1
 68
     0
279
    -2
289
     1
 69
     0
  7
Standard
140
0.18
170
     5
 62
     0
 63
     7
283
     0
 90
      512
 91
        0
  1

274
    -2
284
     1
 64
     0
275
    -2
285
     1
 65
     0
276
    -2
286
     1
 66
     0
277
    -2
287
     1
 67
     0
278
    -2
288
     1
 68
     0
279
    -2
289
     1
 69
     0
  0
VISUALSTYLE
  5
2F
102
{ACAD_REACTORS
330
29
102
}
330
29
100
AcDbVisualStyle
  2
2dWireframe
 70
     4
177
     3
291
     0
 70
    58
 90
        0
176
     1
 90
        2
176
     1
 90
        0
176
     1
 90
        0
176
     1
 40
0.6
176
     1
 40
30.0
176
     1
 62
     7
420
 16777215
176
     1
 90
        1
176
     1
 90
        4
176
     1
 62
     7
176
     1
 62
   257
176
     1
 90
        1
176
     1
 90
        1
176
     1
 40
1.0
176
     1
 90
        0
176
     1
 62
   257
176
     1
 40
1.0
176
     1
 90
        1
176
     1
 90
        6
176
     1
 90
        2
176
     1
 62
     7
176
     1
 90
        5
176
     1
 90
        0
176
     1
 90
        0
176
     1
290
     0
176
     1
 90
        1
176
     1
 40
0.0
176
     1
 90
        0
176
     1
290
     1
176
     1
290
     1
176
     1
290
     0
176
     1
290
     0
176
     1
290
     0
176
     1
290
     0
176
     1
290
     0
176
     1
290
     0
176
     1
290
     0
176
     1
 90
       50
176
     1
 40
0.0
176
     1
 40
1.0
176
     1
 90
        0
176
     1
 62
    18
176
     1
 90
       50
176
     1
 90
        3
176
     1
 62
     5
420
      255
176
     1
290
     0
176
     1
 90
       50
176
     1
 90
       50
176
     1
 90
       50
176
     1
290
     0
176
     1
 90
       50
176
     1
 62
   256
176
     0
 40
1.0
176
     0
 90
        2
176
     1
  1
strokes_ogs.tif
176
     1
290
     0
176
     1
 40
1.0
176
     1
 40
1.0
176
     1
  0
VISUALSTYLE
  5
2E
102
{ACAD_REACTORS
330
29
102
}
330
29
100
AcDbVisualStyle
  2
Basic
 70
     7
177
     3
291
     1
 70
    58
 90
        1
176
     1
 90
        0
176
     1
 90
        1
176
     1
 90
        0
176
     1
 40
0.6
176
     1
 40
30.0
176
     1
 62
     7
420
 16777215
176
     1
 90
        0
176
     1
 90
        4
176
     1
 62
     7
176
     1
 62
   257
176
     1
 90
        1
176
     1
 90
        1
176
     1
 40
1.0
176
     1
 90
        8
176
     1
 62
     7
176
     1
 40
1.0
176
     1
 90
        1
176
     1
 90
        6
176
     1
 90
        2
176
     1
 62
     7
176
     1
 90
        5
176
     1
 90
        0
176
     1
 90
        0
176
     1
290
     0
176
     1
 90
        1
176
     1
 40
0.0
176
     1
 90
        0
176
     1
290
     0
176
     1
290
     1
176
     1
290
     1
176
     1
290
     0
176
     1
290
     0
176
     1
290
     0
176
     1
290
     0
176
     1
290
     0
176
     1
290
     0
176
     1
 90
       50
176
     1
 40
0.0
176
     1
 40
1.0
176
     1
 90
        0
176
     1
 62
    18
176
     1
 90
       50
176
     1
 90
        3
176
     1
 62
     5
420
      255
176
     1
290
     0
176
     1
 90
       50
176
     1
 90
       50
176
     1
 90
       50
176
     1
290
     0
176
     1
 90
       50
176
     1
 62
   256
176
     0
 40
1.0
176
     0
 90
        2
176
     1
  1
strokes_ogs.tif
176
     1
290
     0
176
     1
 40
1.0
176
     1
 40
1.0
176
     1
  0
VISUALSTYLE
  5
35
102
{ACAD_REACTORS
330
29
102
}
330
29
100
AcDbVisualStyle
  2
Brighten
 70
    12
177
     3
291
     1
 70
    58
 90
        2
176
     1
 90
        2
176
     1
 90
        0
176
     1
 90
        0
176
     1
 40
0.6
176
     1
 40
30.0
176
     1
 62
     7
420
 16777215
176
     1
 90
        1
176
     1
 90
        4
176
     1
 62
     7
176
     1
 62
   257
176
     1
 90
        1
176
     1
 90
        1
176
     1
 40
1.0
176
     1
 90
        8
176
     1
 62
     7
176
     1
 40
1.0
176
     1
 90
        1
176
     1
 90
        6
176
     1
 90
        2
176
     1
 62
     7
176
     1
 90
        5
176
     1
 90
        0
176
     1
 90
        0
176
     1
290
     0
176
     1
 90
        1
176
     1
 40
50.0
176
     1
 90
        0
176
     1
290
     0
176
     1
290
     1
176
     1
290
     1
176
     1
290
     0
176
     1
290
     0
176
     1
290
     0
176
     1
290
     0
176
     1
290
     0
176
     1
290
     0
176
     1
 90
       50
176
     1
 40
0.0
176
     1
 40
1.0
176
     1
 90
        0
176
     1
 62
    18
176
     1
 90
       50
176
     1
 90
        3
176
     1
 62
     5
420
      255
176
     1
290
     0
176
     1
 90
       50
176
     1
 90
       50
176
     1
 90
       50
176
     1
290
     0
176
     1
 90
       50
176
     1
 62
   256
176
     0
 40
1.0
176
     0
 90
        2
176
     1
  1
strokes_ogs.tif
176
     1
290
     0
176
     1
 40
1.0
176
     1
 40
1.0
176
     1
  0
VISUALSTYLE
  5
39
102
{ACAD_REACTORS
330
29
102
}
330
29
100
AcDbVisualStyle
  2
ColorChange
 70
    16
177
     3
291
     1
 70
    58
 90
        2
176
     1
 90
        2
176
     1
 90
        3
176
     1
 90
        0
176
     1
 40
0.6
176
     1
 40
30.0
176
     1
 62
     8
420
  8421504
176
     1
 90
        1
176
     1
 90
        4
176
     1
 62
     7
176
     1
 62
   257
176
     1
 90
        1
176
     1
 90
        1
176
     1
 40
1.0
176
     1
 90
        8
176
     1
 62
     8
420
  8421504
176
     1
 40
1.0
176
     1
 90
        1
176
     1
 90
        6
176
     1
 90
        2
176
     1
 62
     7
176
     1
 90
        5
176
     1
 90
        0
176
     1
 90
        0
176
     1
290
     0
176
     1
 90
        1
176
     1
 40
0.0
176
     1
 90
        0
176
     1
290
     0
176
     1
290
     1
176
     1
290
     1
176
     1
290
     0
176
     1
290
     0
176
     1
290
     0
176
     1
290
     0
176
     1
290
     0
176
     1
290
     0
176
     1
 90
       50
176
     1
 40
0.0
176
     1
 40
1.0
176
     1
 90
        0
176
     1
 62
    18
176
     1
 90
       50
176
     1
 90
        3
176
     1
 62
     5
420
      255
176
     1
290
     0
176
     1
 90
       50
176
     1
 90
       50
176
     1
 90
       50
176
     1
290
     0
176
     1
 90
       50
176
     1
 62
   256
176
     0
 40
1.0
176
     0
 90
        2
176
     1
  1
strokes_ogs.tif
176
     1
290
     0
176
     1
 40
1.0
176
     1
 40
1.0
176
     1
  0
VISUALSTYLE
  5
32
102
{ACAD_REACTORS
330
29
102
}
330
29
100
AcDbVisualStyle
  2
Conceptual
 70
     9
177
     3
291
     0
 70
    58
 90
        3
176
     1
 90
        2
176
     1
 90
        0
176
     1
 90
        0
176
     1
 40
0.6
176
     1
 40
30.0
176
     1
 62
     7
420
 16777215
176
     1
 90
        2
176
     1
 90
        2
176
     1
 62
     7
176
     1
 62
   257
176
     1
 90
        1
176
     1
 90
        1
176
     1
 40
179.0
176
     1
 90
        8
176
     1
 62
     7
176
     1
 40
1.0
176
     1
 90
        1
176
     1
 90
        6
176
     1
 90
        2
176
     1
 62
     7
176
     1
 90
        3
176
     1
 90
        0
176
     1
 90
        0
176
     1
290
     0
176
     1
 90
        1
176
     1
 40
0.0
176
     1
 90
        0
176
     1
290
     0
176
     1
290
     1
176
     1
290
     1
176
     1
290
     0
176
     1
290
     0
176
     1
290
     0
176
     1
290
     0
176
     1
290
     0
176
     1
290
     0
176
     1
 90
       50
176
     1
 40
0.0
176
     1
 40
1.0
176
     1
 90
        0
176
     1
 62
    18
176
     1
 90
       50
176
     1
 90
        3
176
     1
 62
     5
420
      255
176
     1
290
     0
176
     1
 90
       50
176
     1
 90
       50
176
     1
 90
       50
176
     1
290
     0
176
     1
 90
       50
176
     1
 62
   256
176
     0
 40
1.0
176
     0
 90
        2
176
     1
  1
strokes_ogs.tif
176
     1
290
     0
176
     1
 40
1.0
176
     1
 40
1.0
176
     1
  0
VISUALSTYLE
  5
34
102
{ACAD_REACTORS
330
29
102
}
330
29
100
AcDbVisualStyle
  2
Dim
 70
    11
177
     3
291
     1
 70
    58
 90
        2
176
     1
 90
        2
176
     1
 90
        0
176
     1
 90
        0
176
     1
 40
0.6
176
     1
 40
30.0
176
     1
 62
     7
420
 16777215
176
     1
 90
        1
176
     1
 90
        4
176
     1
 62
     7
176
     1
 62
   257
176
     1
 90
        1
176
     1
 90
        1
176
     1
 40
1.0
176
     1
 90
        8
176
     1
 62
     7
176
     1
 40
1.0
176
     1
 90
        1
176
     1
 90
        6
176
     1
 90
        2
176
     1
 62
     7
176
     1
 90
        5
176
     1
 90
        0
176
     1
 90
        0
176
     1
290
     0
176
     1
 90
        1
176
     1
 40
-50.0
176
     1
 90
        0
176
     1
290
     0
176
     1
290
     1
176
     1
290
     1
176
     1
290
     0
176
     1
290
     0
176
     1
290
     0
176
     1
290
     0
176
     1
290
     0
176
     1
290
     0
176
     1
 90
       50
176
     1
 40
0.0
176
     1
 40
1.0
176
     1
 90
        0
176
     1
 62
    18
176
     1
 90
       50
176
     1
 90
        3
176
     1
 62
     5
420
      255
176
     1
290
     0
176
     1
 90
       50
176
     1
 90
       50
176
     1
 90
       50
176
     1
290
     0
176
     1
 90
       50
176
     1
 62
   256
176
     0
 40
1.0
176
     0
 90
        2
176
     1
  1
strokes_ogs.tif
176
     1
290
     0
176
     1
 40
1.0
176
     1
 40
1.0
176
     1
  0
VISUALSTYLE
  5
41
102
{ACAD_REACTORS
330
29
102
}
330
29
100
AcDbVisualStyle
  2
EdgeColorOff
 70
    22
177
     3
291
     1
 70
    58
 90
        2
176
     0
 90
        2
176
     0
 90
        0
176
     0
 90
        0
176
     0
 40
0.6
176
     0
 40
30.0
176
     0
 62
     7
420
 16777215
176
     0
 90
        1
176
     0
 90
        4
176
     0
 62
     7
176
     0
 62
   257
176
     0
 90
        1
176
     0
 90
        1
176
     0
 40
1.0
176
     0
 90
        8
176
     2
 62
     7
176
     0
 40
1.0
176
     0
 90
        1
176
     0
 90
        6
176
     0
 90
        2
176
     0
 62
     7
176
     0
 90
        5
176
     0
 90
        0
176
     0
 90
        0
176
     0
290
     0
176
     0
 90
        1
176
     0
 40
0.0
176
     0
 90
        0
176
     0
290
     0
176
     1
290
     1
176
     1
290
     1
176
     1
290
     0
176
     1
290
     0
176
     1
290
     0
176
     1
290
     0
176
     1
290
     0
176
     1
290
     0
176
     1
 90
       50
176
     0
 40
0.0
176
     0
 40
1.0
176
     0
 90
        0
176
     0
 62
    18
176
     0
 90
       50
176
     0
 90
        3
176
     0
 62
     5
420
      255
176
     0
290
     0
176
     1
 90
       50
176
     0
 90
       50
176
     0
 90
       50
176
     0
290
     0
176
     1
 90
       50
176
     0
 62
   256
176
     0
 40
1.0
176
     0
 90
        2
176
     0
  1
strokes_ogs.tif
176
     0
290
     0
176
     1
 40
1.0
176
     0
 40
1.0
176
     0
  0
VISUALSTYLE
  5
38
102
{ACAD_REACTORS
330
29
102
}
330
29
100
AcDbVisualStyle
  2
Facepattern
 70
    15
177
     3
291
     1
 70
    58
 90
        2
176
     1
 90
        2
176
     1
 90
        0
176
     1
 90
        0
176
     1
 40
0.6
176
     1
 40
30.0
176
     1
 62
     7
420
 16777215
176
     1
 90
        1
176
     1
 90
        4
176
     1
 62
     7
176
     1
 62
   257
176
     1
 90
        1
176
     1
 90
        1
176
     1
 40
1.0
176
     1
 90
        8
176
     1
 62
     7
176
     1
 40
1.0
176
     1
 90
        1
176
     1
 90
        6
176
     1
 90
        2
176
     1
 62
     7
176
     1
 90
        5
176
     1
 90
        0
176
     1
 90
        0
176
     1
290
     0
176
     1
 90
        1
176
     1
 40
0.0
176
     1
 90
        0
176
     1
290
     0
176
     1
290
     1
176
     1
290
     1
176
     1
290
     0
176
     1
290
     0
176
     1
290
     0
176
     1
290
     0
176
     1
290
     0
176
     1
290
     0
176
     1
 90
       50
176
     1
 40
0.0
176
     1
 40
1.0
176
     1
 90
        0
176
     1
 62
    18
176
     1
 90
       50
176
     1
 90
        3
176
     1
 62
     5
420
      255
176
     1
290
     0
176
     1
 90
       50
176
     1
 90
       50
176
     1
 90
       50
176
     1
290
     0
176
     1
 90
       50
176
     1
 62
   256
176
     0
 40
1.0
176
     0
 90
        2
176
     1
  1
strokes_ogs.tif
176
     1
290
     0
176
     1
 40
1.0
176
     1
 40
1.0
176
     1
  0
VISUALSTYLE
  5
2A
102
{ACAD_REACTORS
330
29
102
}
330
29
100
AcDbVisualStyle
  2
Flat
 70
     0
177
     3
291
     1
 70
    58
 90
        2
176
     1
 90
        1
176
     1
 90
        1
176
     1
 90
        2
176
     1
 40
0.6
176
     1
 40
30.0
176
     1
 62
     7
420
 16777215
176
     1
 90
        0
176
     1
 90
        0
176
     1
 62
     7
176
     1
 62
   257
176
     1
 90
        1
176
     1
 90
        1
176
     1
 40
1.0
176
     1
 90
        8
176
     1
 62
     7
176
     1
 40
1.0
176
     1
 90
        1
176
     1
 90
        6
176
     1
 90
        2
176
     1
 62
     7
176
     1
 90
        5
176
     1
 90
        0
176
     1
 90
        0
176
     1
290
     0
176
     1
 90
       13
176
     1
 40
0.0
176
     1
 90
        0
176
     1
290
     0
176
     1
290
     1
176
     1
290
     1
176
     1
290
     0
176
     1
290
     0
176
     1
290
     0
176
     1
290
     0
176
     1
290
     0
176
     1
290
     0
176
     1
 90
       50
176
     1
 40
0.0
176
     1
 40
1.0
176
     1
 90
        0
176
     1
 62
    18
176
     1
 90
       50
176
     1
 90
        3
176
     1
 62
     5
420
      255
176
     1
290
     0
176
     1
 90
       50
176
     1
 90
       50
176
     1
 90
       50
176
     1
290
     0
176
     1
 90
       50
176
     1
 62
   256
176
     0
 40
1.0
176
     0
 90
        2
176
     1
  1
strokes_ogs.tif
176
     1
290
     0
176
     1
 40
1.0
176
     1
 40
1.0
176
     1
  0
VISUALSTYLE
  5
2B
102
{ACAD_REACTORS
330
29
102
}
330
29
100
AcDbVisualStyle
  2
FlatWithEdges
 70
     1
177
     3
291
     1
 70
    58
 90
        2
176
     1
 90
        1
176
     1
 90
        1
176
     1
 90
        2
176
     1
 40
0.6
176
     1
 40
30.0
176
     1
 62
     7
420
 16777215
176
     1
 90
        1
176
     1
 90
        0
176
     1
 62
     7
176
     1
 62
   257
176
     1
 90
        1
176
     1
 90
        1
176
     1
 40
1.0
176
     1
 90
        0
176
     1
 62
   257
176
     1
 40
1.0
176
     1
 90
        1
176
     1
 90
        6
176
     1
 90
        2
176
     1
 62
     7
176
     1
 90
        5
176
     1
 90
        0
176
     1
 90
        0
176
     1
290
     0
176
     1
 90
       13
176
     1
 40
0.0
176
     1
 90
        0
176
     1
290
     0
176
     1
290
     1
176
     1
290
     1
176
     1
290
     0
176
     1
290
     0
176
     1
290
     0
176
     1
290
     0
176
     1
290
     0
176
     1
290
     0
176
     1
 90
       50
176
     1
 40
0.0
176
     1
 40
1.0
176
     1
 90
        0
176
     1
 62
    18
176
     1
 90
       50
176
     1
 90
        3
176
     1
 62
     5
420
      255
176
     1
290
     0
176
     1
 90
       50
176
     1
 90
       50
176
     1
 90
       50
176
     1
290
     0
176
     1
 90
       50
176
     1
 62
   256
176
     0
 40
1.0
176
     0
 90
        2
176
     1
  1
strokes_ogs.tif
176
     1
290
     0
176
     1
 40
1.0
176
     1
 40
1.0
176
     1
  0
VISUALSTYLE
  5
2C
102
{ACAD_REACTORS
330
29
102
}
330
29
100
AcDbVisualStyle
  2
Gouraud
 70
     2
177
     3
291
     1
 70
    58
 90
        2
176
     1
 90
        2
176
     1
 90
        1
176
     1
 90
        2
176
     1
 40
0.6
176
     1
 40
30.0
176
     1
 62
     7
420
 16777215
176
     1
 90
        0
176
     1
 90
        0
176
     1
 62
     7
176
     1
 62
   257
176
     1
 90
        1
176
     1
 90
        1
176
     1
 40
1.0
176
     1
 90
        0
176
     1
 62
     7
176
     1
 40
1.0
176
     1
 90
        1
176
     1
 90
        6
176
     1
 90
        2
176
     1
 62
     7
176
     1
 90
        5
176
     1
 90
        0
176
     1
 90
        0
176
     1
290
     0
176
     1
 90
       13
176
     1
 40
0.0
176
     1
 90
        0
176
     1
290
     0
176
     1
290
     1
176
     1
290
     1
176
     1
290
     0
176
     1
290
     0
176
     1
290
     0
176
     1
290
     0
176
     1
290
     0
176
     1
290
     0
176
     1
 90
       50
176
     1
 40
0.0
176
     1
 40
1.0
176
     1
 90
        0
176
     1
 62
    18
176
     1
 90
       50
176
     1
 90
        3
176
     1
 62
     5
420
      255
176
     1
290
     0
176
     1
 90
       50
176
     1
 90
       50
176
     1
 90
       50
176
     1
290
     0
176
     1
 90
       50
176
     1
 62
   256
176
     0
 40
1.0
176
     0
 90
        2
176
     1
  1
strokes_ogs.tif
176
     1
290
     0
176
     1
 40
1.0
176
     1
 40
1.0
176
     1
  0
VISUALSTYLE
  5
2D
102
{ACAD_REACTORS
330
29
102
}
330
29
100
AcDbVisualStyle
  2
GouraudWithEdges
 70
     3
177
     3
291
     1
 70
    58
 90
        2
176
     1
 90
        2
176
     1
 90
        1
176
     1
 90
        2
176
     1
 40
0.6
176
     1
 40
30.0
176
     1
 62
     7
420
 16777215
176
     1
 90
        1
176
     1
 90
        0
176
     1
 62
     7
176
     1
 62
   257
176
     1
 90
        1
176
     1
 90
        1
176
     1
 40
1.0
176
     1
 90
        0
176
     1
 62
   257
176
     1
 40
1.0
176
     1
 90
        1
176
     1
 90
        6
176
     1
 90
        2
176
     1
 62
     7
176
     1
 90
        5
176
     1
 90
        0
176
     1
 90
        0
176
     1
290
     0
176
     1
 90
       13
176
     1
 40
0.0
176
     1
 90
        0
176
     1
290
     0
176
     1
290
     1
176
     1
290
     1
176
     1
290
     0
176
     1
290
     0
176
     1
290
     0
176
     1
290
     0
176
     1
290
     0
176
     1
290
     0
176
     1
 90
       50
176
     1
 40
0.0
176
     1
 40
1.0
176
     1
 90
        0
176
     1
 62
    18
176
     1
 90
       50
176
     1
 90
        3
176
     1
 62
     5
420
      255
176
     1
290
     0
176
     1
 90
       50
176
     1
 90
       50
176
     1
 90
       50
176
     1
290
     0
176
     1
 90
       50
176
     1
 62
   256
176
     0
 40
1.0
176
     0
 90
        2
176
     1
  1
strokes_ogs.tif
176
     1
290
     0
176
     1
 40
1.0
176
     1
 40
1.0
176
     1
  0
VISUALSTYLE
  5
31
102
{ACAD_REACTORS
330
29
102
}
330
29
100
AcDbVisualStyle
  2
Hidden
 70
     6
177
     3
291
     0
 70
    58
 90
        1
176
     1
 90
        2
176
     1
 90
        2
176
     1
 90
        0
176
     1
 40
0.6
176
     1
 40
30.0
176
     1
 62
     7
420
 16777215
176
     1
 90
        2
176
     1
 90
        2
176
     1
 62
     7
176
     1
 62
   257
176
     1
 90
        2
176
     1
 90
        1
176
     1
 40
40.0
176
     1
 90
        0
176
     1
 62
   257
176
     1
 40
1.0
176
     1
 90
        1
176
     1
 90
        6
176
     1
 90
        2
176
     1
 62
     7
176
     1
 90
        3
176
     1
 90
        0
176
     1
 90
        0
176
     1
290
     0
176
     1
 90
        1
176
     1
 40
0.0
176
     1
 90
        0
176
     1
290
     0
176
     1
290
     1
176
     1
290
     1
176
     1
290
     0
176
     1
290
     0
176
     1
290
     0
176
     1
290
     0
176
     1
290
     0
176
     1
290
     0
176
     1
 90
       50
176
     1
 40
0.0
176
     1
 40
1.0
176
     1
 90
        0
176
     1
 62
    18
176
     1
 90
       50
176
     1
 90
        3
176
     1
 62
     5
420
      255
176
     1
290
     0
176
     1
 90
       50
176
     1
 90
       50
176
     1
 90
       50
176
     1
290
     0
176
     1
 90
       50
176
     1
 62
   256
176
     0
 40
1.0
176
     0
 90
        2
176
     1
  1
strokes_ogs.tif
176
     1
290
     0
176
     1
 40
1.0
176
     1
 40
1.0
176
     1
  0
VISUALSTYLE
  5
3F
102
{ACAD_REACTORS
330
29
102
}
330
29
100
AcDbVisualStyle
  2
JitterOff
 70
    20
177
     3
291
     1
 70
    58
 90
        2
176
     0
 90
        2
176
     0
 90
        0
176
     0
 90
        0
176
     0
 40
0.6
176
     0
 40
30.0
176
     0
 62
     7
420
 16777215
176
     0
 90
        1
176
     0
 90
        4
176
     0
 62
     7
176
     0
 62
   257
176
     0
 90
        1
176
     0
 90
        1
176
     0
 40
1.0
176
     0
 90
       10
176
     2
 62
     7
176
     0
 40
1.0
176
     0
 90
        1
176
     0
 90
        6
176
     0
 90
        2
176
     0
 62
     7
176
     0
 90
        5
176
     0
 90
        0
176
     0
 90
        0
176
     0
290
     0
176
     0
 90
        1
176
     0
 40
0.0
176
     0
 90
        0
176
     0
290
     0
176
     1
290
     1
176
     1
290
     1
176
     1
290
     0
176
     1
290
     0
176
     1
290
     0
176
     1
290
     0
176
     1
290
     0
176
     1
290
     0
176
     1
 90
       50
176
     0
 40
0.0
176
     0
 40
1.0
176
     0
 90
        0
176
     0
 62
    18
176
     0
 90
       50
176
     0
 90
        3
176
     0
 62
     5
420
      255
176
     0
290
     0
176
     1
 90
       50
176
     0
 90
       50
176
     0
 90
       50
176
     0
290
     0
176
     1
 90
       50
176
     0
 62
   256
176
     0
 40
1.0
176
     0
 90
        2
176
     0
  1
strokes_ogs.tif
176
     0
290
     0
176
     1
 40
1.0
176
     0
 40
1.0
176
     0
  0
VISUALSTYLE
  5
37
102
{ACAD_REACTORS
330
29
102
}
330
29
100
AcDbVisualStyle
  2
Linepattern
 70
    14
177
     3
291
     1
 70
    58
 90
        2
176
     1
 90
        2
176
     1
 90
        0
176
     1
 90
        0
176
     1
 40
0.6
176
     1
 40
30.0
176
     1
 62
     7
420
 16777215
176
     1
 90
        1
176
     1
 90
        4
176
     1
 62
     7
176
     1
 62
   257
176
     1
 90
        7
176
     1
 90
        7
176
     1
 40
1.0
176
     1
 90
        8
176
     1
 62
     7
176
     1
 40
1.0
176
     1
 90
        1
176
     1
 90
        6
176
     1
 90
        2
176
     1
 62
     7
176
     1
 90
        5
176
     1
 90
        0
176
     1
 90
        0
176
     1
290
     0
176
     1
 90
        1
176
     1
 40
0.0
176
     1
 90
        0
176
     1
290
     0
176
     1
290
     1
176
     1
290
     1
176
     1
290
     0
176
     1
290
     0
176
     1
290
     0
176
     1
290
     0
176
     1
290
     0
176
     1
290
     0
176
     1
 90
       50
176
     1
 40
0.0
176
     1
 40
1.0
176
     1
 90
        0
176
     1
 62
    18
176
     1
 90
       50
176
     1
 90
        3
176
     1
 62
     5
420
      255
176
     1
290
     0
176
     1
 90
       50
176
     1
 90
       50
176
     1
 90
       50
176
     1
290
     0
176
     1
 90
       50
176
     1
 62
   256
176
     0
 40
1.0
176
     0
 90
        2
176
     1
  1
strokes_ogs.tif
176
     1
290
     0
176
     1
 40
1.0
176
     1
 40
1.0
176
     1
  0
VISUALSTYLE
  5
40
102
{ACAD_REACTORS
330
29
102
}
330
29
100
AcDbVisualStyle
  2
OverhangOff
 70
    21
177
     3
291
     1
 70
    58
 90
        2
176
     0
 90
        2
176
     0
 90
        0
176
     0
 90
        0
176
     0
 40
0.6
176
     0
 40
30.0
176
     0
 62
     7
420
 16777215
176
     0
 90
        1
176
     0
 90
        4
176
     0
 62
     7
176
     0
 62
   257
176
     0
 90
        1
176
     0
 90
        1
176
     0
 40
1.0
176
     0
 90
        9
176
     2
 62
     7
176
     0
 40
1.0
176
     0
 90
        1
176
     0
 90
        6
176
     0
 90
        2
176
     0
 62
     7
176
     0
 90
        5
176
     0
 90
        0
176
     0
 90
        0
176
     0
290
     0
176
     0
 90
        1
176
     0
 40
0.0
176
     0
 90
        0
176
     0
290
     0
176
     1
290
     1
176
     1
290
     1
176
     1
290
     0
176
     1
290
     0
176
     1
290
     0
176
     1
290
     0
176
     1
290
     0
176
     1
290
     0
176
     1
 90
       50
176
     0
 40
0.0
176
     0
 40
1.0
176
     0
 90
        0
176
     0
 62
    18
176
     0
 90
       50
176
     0
 90
        3
176
     0
 62
     5
420
      255
176
     0
290
     0
176
     1
 90
       50
176
     0
 90
       50
176
     0
 90
       50
176
     0
290
     0
176
     1
 90
       50
176
     0
 62
   256
176
     0
 40
1.0
176
     0
 90
        2
176
     0
  1
strokes_ogs.tif
176
     0
290
     0
176
     1
 40
1.0
176
     0
 40
1.0
176
     0
  0
VISUALSTYLE
  5
33
102
{ACAD_REACTORS
330
29
102
}
330
29
100
AcDbVisualStyle
  2
Realistic
 70
     8
177
     3
291
     0
 70
    58
 90
        2
176
     1
 90
        3
176
     1
 90
        0
176
     1
 90
        2
176
     1
 40
0.6
176
     1
 40
30.0
176
     1
 62
     7
420
 16777215
176
     1
 90
        0
176
     1
 90
        0
176
     1
 62
     7
176
     1
 62
   257
176
     1
 90
        1
176
     1
 90
        1
176
     1
 40
1.0
176
     1
 90
        8
176
     1
 62
   257
176
     1
 40
1.0
176
     1
 90
        1
176
     1
 90
        6
176
     1
 90
        2
176
     1
 62
     7
176
     1
 90
        3
176
     1
 90
        0
176
     1
 90
        0
176
     1
290
     0
176
     1
 90
       13
176
     1
 40
0.0
176
     1
 90
        0
176
     1
290
     0
176
     1
290
     1
176
     1
290
     1
176
     1
290
     0
176
     1
290
     0
176
     1
290
     0
176
     1
290
     0
176
     1
290
     0
176
     1
290
     0
176
     1
 90
       50
176
     1
 40
0.0
176
     1
 40
1.0
176
     1
 90
        0
176
     1
 62
    18
176
     1
 90
       50
176
     1
 90
        3
176
     1
 62
     5
420
      255
176
     1
290
     0
176
     1
 90
       50
176
     1
 90
       50
176
     1
 90
       50
176
     1
290
     0
176
     1
 90
       50
176
     1
 62
   256
176
     0
 40
1.0
176
     0
 90
        2
176
     1
  1
strokes_ogs.tif
176
     1
290
     0
176
     1
 40
1.0
176
     1
 40
1.0
176
     1
  0
VISUALSTYLE
  5
3E
102
{ACAD_REACTORS
330
29
102
}
330
29
100
AcDbVisualStyle
  2
Shaded
 70
    27
177
     3
291
     0
 70
    58
 90
        2
176
     1
 90
        2
176
     1
 90
        1
176
     1
 90
        2
176
     1
 40
0.6
176
     1
 40
30.0
176
     1
 62
     7
420
 16777215
176
     1
 90
        0
176
     1
 90
        4
176
     1
 62
     7
176
     1
 62
   257
176
     1
 90
        1
176
     1
 90
        1
176
     1
 40
1.0
176
     1
 90
        8
176
     1
 62
   257
176
     1
 40
1.0
176
     1
 90
        1
176
     1
 90
        6
176
     1
 90
        2
176
     1
 62
     8
420
  7895160
176
     1
 90
        3
176
     1
 90
        0
176
     1
 90
        0
176
     1
290
     0
176
     1
 90
        5
176
     1
 40
0.0
176
     1
 90
        0
176
     1
290
     0
176
     1
290
     1
176
     1
290
     1
176
     1
290
     0
176
     1
290
     0
176
     1
290
     0
176
     1
290
     0
176
     1
290
     0
176
     1
290
     0
176
     1
 90
       50
176
     1
 40
0.0
176
     1
 40
1.0
176
     1
 90
        0
176
     1
 62
    18
176
     1
 90
       50
176
     1
 90
        3
176
     1
 62
     5
420
      255
176
     1
290
     0
176
     1
 90
       50
176
     1
 90
       50
176
     1
 90
       50
176
     1
290
     0
176
     1
 90
       50
176
     1
 62
   256
176
     0
 40
1.0
176
     0
 90
        2
176
     1
  1
strokes_ogs.tif
176
     1
290
     0
176
     1
 40
1.0
176
     1
 40
1.0
176
     1
  0
VISUALSTYLE
  5
3D
102
{ACAD_REACTORS
330
29
102
}
330
29
100
AcDbVisualStyle
  2
Shaded with edges
 70
    26
177
     3
291
     0
 70
    58
 90
        2
176
     1
 90
        2
176
     1
 90
        1
176
     1
 90
        2
176
     1
 40
0.6
176
     1
 40
30.0
176
     1
 62
     7
420
 16777215
176
     1
 90
        1
176
     1
 90
        2
176
     1
 62
     7
176
     1
 62
   257
176
     1
 90
        2
176
     1
 90
        1
176
     1
 40
1.0
176
     1
 90
        8
176
     1
 62
   257
176
     1
 40
1.0
176
     1
 90
        1
176
     1
 90
        6
176
     1
 90
        2
176
     1
 62
     7
176
     1
 90
        3
176
     1
 90
        0
176
     1
 90
        0
176
     1
290
     0
176
     1
 90
        5
176
     1
 40
0.0
176
     1
 90
        0
176
     1
290
     0
176
     1
290
     1
176
     1
290
     1
176
     1
290
     0
176
     1
290
     0
176
     1
290
     0
176
     1
290
     0
176
     1
290
     0
176
     1
290
     0
176
     1
 90
       50
176
     1
 40
0.0
176
     1
 40
1.0
176
     1
 90
        0
176
     1
 62
    18
176
     1
 90
       50
176
     1
 90
        3
176
     1
 62
     5
420
      255
176
     1
290
     0
176
     1
 90
       50
176
     1
 90
       50
176
     1
 90
       50
176
     1
290
     0
176
     1
 90
       50
176
     1
 62
   256
176
     0
 40
1.0
176
     0
 90
        2
176
     1
  1
strokes_ogs.tif
176
     1
290
     0
176
     1
 40
1.0
176
     1
 40
1.0
176
     1
  0
VISUALSTYLE
  5
3A
102
{ACAD_REACTORS
330
29
102
}
330
29
100
AcDbVisualStyle
  2
Shades of Gray
 70
    23
177
     3
291
     0
 70
    58
 90
        2
176
     1
 90
        2
176
     1
 90
        3
176
     1
 90
        0
176
     1
 40
0.6
176
     1
 40
30.0
176
     1
 62
     7
420
 16777215
176
     1
 90
        2
176
     1
 90
        2
176
     1
 62
     7
176
     1
 62
     7
176
     1
 90
        1
176
     1
 90
        1
176
     1
 40
40.0
176
     1
 90
        8
176
     1
 62
     7
176
     1
 40
1.0
176
     1
 90
        1
176
     1
 90
        6
176
     1
 90
        2
176
     1
 62
     7
176
     1
 90
        3
176
     1
 90
        0
176
     1
 90
        0
176
     1
290
     0
176
     1
 90
        1
176
     1
 40
0.0
176
     1
 90
        0
176
     1
290
     0
176
     1
290
     1
176
     1
290
     1
176
     1
290
     0
176
     1
290
     0
176
     1
290
     0
176
     1
290
     0
176
     1
290
     0
176
     1
290
     0
176
     1
 90
       50
176
     1
 40
0.0
176
     1
 40
1.0
176
     1
 90
        0
176
     1
 62
    18
176
     1
 90
       50
176
     1
 90
        3
176
     1
 62
     5
420
      255
176
     1
290
     0
176
     1
 90
       50
176
     1
 90
       50
176
     1
 90
       50
176
     1
290
     0
176
     1
 90
       50
176
     1
 62
   256
176
     0
 40
1.0
176
     0
 90
        2
176
     1
  1
strokes_ogs.tif
176
     1
290
     0
176
     1
 40
1.0
176
     1
 40
1.0
176
     1
  0
VISUALSTYLE
  5
3B
102
{ACAD_REACTORS
330
29
102
}
330
29
100
AcDbVisualStyle
  2
Sketchy
 70
    24
177
     3
291
     0
 70
    58
 90
        1
176
     1
 90
        2
176
     1
 90
        2
176
     1
 90
        0
176
     1
 40
0.6
176
     1
 40
30.0
176
     1
 62
     7
420
 16777215
176
     1
 90
        2
176
     1
 90
        2
176
     1
 62
     7
176
     1
 62
     7
176
     1
 90
        1
176
     1
 90
        1
176
     1
 40
40.0
176
     1
 90
       11
176
     1
 62
     7
176
     1
 40
1.0
176
     1
 90
        1
176
     1
 90
        6
176
     1
 90
        2
176
     1
 62
     7
176
     1
 90
        6
176
     1
 90
        0
176
     1
 90
        0
176
     1
290
     0
176
     1
 90
        1
176
     1
 40
0.0
176
     1
 90
        0
176
     1
290
     0
176
     1
290
     1
176
     1
290
     1
176
     1
290
     0
176
     1
290
     0
176
     1
290
     0
176
     1
290
     0
176
     1
290
     0
176
     1
290
     0
176
     1
 90
       50
176
     1
 40
0.0
176
     1
 40
1.0
176
     1
 90
        0
176
     1
 62
    18
176
     1
 90
       50
176
     1
 90
        3
176
     1
 62
     5
420
      255
176
     1
290
     0
176
     1
 90
       50
176
     1
 90
       50
176
     1
 90
       50
176
     1
290
     0
176
     1
 90
       50
176
     1
 62
   256
176
     0
 40
1.0
176
     0
 90
        2
176
     1
  1
strokes_ogs.tif
176
     1
290
     0
176
     1
 40
1.0
176
     1
 40
1.0
176
     1
  0
VISUALSTYLE
  5
36
102
{ACAD_REACTORS
330
29
102
}
330
29
100
AcDbVisualStyle
  2
Thicken
 70
    13
177
     3
291
     1
 70
    58
 90
        2
176
     1
 90
        2
176
     1
 90
        0
176
     1
 90
        0
176
     1
 40
0.6
176
     1
 40
30.0
176
     1
 62
     7
420
 16777215
176
     1
 90
        1
176
     1
 90
        4
176
     1
 62
     7
176
     1
 62
   257
176
     1
 90
        1
176
     1
 90
        1
176
     1
 40
1.0
176
     1
 90
       12
176
     1
 62
     7
176
     1
 40
1.0
176
     1
 90
        1
176
     1
 90
        6
176
     1
 90
        2
176
     1
 62
     7
176
     1
 90
        5
176
     1
 90
        0
176
     1
 90
        0
176
     1
290
     0
176
     1
 90
        1
176
     1
 40
0.0
176
     1
 90
        0
176
     1
290
     0
176
     1
290
     1
176
     1
290
     1
176
     1
290
     0
176
     1
290
     0
176
     1
290
     0
176
     1
290
     0
176
     1
290
     0
176
     1
290
     0
176
     1
 90
       50
176
     1
 40
0.0
176
     1
 40
1.0
176
     1
 90
        0
176
     1
 62
    18
176
     1
 90
       50
176
     1
 90
        3
176
     1
 62
     5
420
      255
176
     1
290
     0
176
     1
 90
       50
176
     1
 90
       50
176
     1
 90
       50
176
     1
290
     0
176
     1
 90
       50
176
     1
 62
   256
176
     0
 40
1.0
176
     0
 90
        2
176
     1
  1
strokes_ogs.tif
176
     1
290
     0
176
     1
 40
1.0
176
     1
 40
1.0
176
     1
  0
VISUALSTYLE
  5
30
102
{ACAD_REACTORS
330
29
102
}
330
29
100
AcDbVisualStyle
  2
Wireframe
 70
     5
177
     3
291
     0
 70
    58
 90
        0
176
     1
 90
        2
176
     1
 90
        0
176
     1
 90
        0
176
     1
 40
0.6
176
     1
 40
30.0
176
     1
 62
     7
420
 16777215
176
     1
 90
        1
176
     1
 90
        4
176
     1
 62
     7
176
     1
 62
   257
176
     1
 90
        1
176
     1
 90
        1
176
     1
 40
1.0
176
     1
 90
        0
176
     1
 62
   257
176
     1
 40
1.0
176
     1
 90
        1
176
     1
 90
        6
176
     1
 90
        2
176
     1
 62
     7
176
     1
 90
        3
176
     1
 90
        0
176
     1
 90
        0
176
     1
290
     0
176
     1
 90
        1
176
     1
 40
0.0
176
     1
 90
        0
176
     1
290
     0
176
     1
290
     1
176
     1
290
     1
176
     1
290
     0
176
     1
290
     0
176
     1
290
     0
176
     1
290
     0
176
     1
290
     0
176
     1
290
     0
176
     1
 90
       50
176
     1
 40
0.0
176
     1
 40
1.0
176
     1
 90
        0
176
     1
 62
    18
176
     1
 90
       50
176
     1
 90
        3
176
     1
 62
     5
420
      255
176
     1
290
     0
176
     1
 90
       50
176
     1
 90
       50
176
     1
 90
       50
176
     1
290
     0
176
     1
 90
       50
176
     1
 62
   256
176
     0
 40
1.0
176
     0
 90
        2
176
     1
  1
strokes_ogs.tif
176
     1
290
     0
176
     1
 40
1.0
176
     1
 40
1.0
176
     1
  0
VISUALSTYLE
  5
3C
102
{ACAD_REACTORS
330
29
102
}
330
29
100
AcDbVisualStyle
  2
X-Ray
 70
    25
177
     3
291
     0
 70
    58
 90
        2
176
     1
 90
        2
176
     1
 90
        1
176
     1
 90
        1
176
     1
 40
0.5
176
     1
 40
30.0
176
     1
 62
     7
420
 16777215
176
     1
 90
        1
176
     1
 90
        0
176
     1
 62
     7
176
     1
 62
   257
176
     1
 90
        1
176
     1
 90
        1
176
     1
 40
1.0
176
     1
 90
        8
176
     1
 62
     7
176
     1
 40
1.0
176
     1
 90
        1
176
     1
 90
        6
176
     1
 90
        2
176
     1
 62
     7
176
     1
 90
        3
176
     1
 90
        0
176
     1
 90
        0
176
     1
290
     0
176
     1
 90
       13
176
     1
 40
0.0
176
     1
 90
        0
176
     1
290
     0
176
     1
290
     1
176
     1
290
     1
176
     1
290
     0
176
     1
290
     0
176
     1
290
     0
176
     1
290
     0
176
     1
290
     0
176
     1
290
     0
176
     1
 90
       50
176
     1
 40
0.0
176
     1
 40
1.0
176
     1
 90
        0
176
     1
 62
    18
176
     1
 90
       50
176
     1
 90
        3
176
     1
 62
     5
420
      255
176
     1
290
     0
176
     1
 90
       50
176
     1
 90
       50
176
     1
 90
       50
176
     1
290
     0
176
     1
 90
       50
176
     1
 62
   256
176
     0
 40
1.0
176
     0
 90
        2
176
     1
  1
strokes_ogs.tif
176
     1
290
     0
176
     1
 40
1.0
176
     1
 40
1.0
176
     1
  0
DICTIONARYVAR
  5
259
102
{ACAD_REACTORS
330
253
102
}
330
253
100
DictionaryVariables
280
     0
  1
1:1
  0
DICTIONARYVAR
  5
255
102
{ACAD_REACTORS
330
253
102
}
330
253
100
DictionaryVariables
280
     0
  1
STANDARD
  0
DICTIONARYVAR
  5
254
102
{ACAD_REACTORS
330
253
102
}
330
253
100
DictionaryVariables
280
     0
  1
STANDARD
  0
DICTIONARYVAR
  5
256
102
{ACAD_REACTORS
330
253
102
}
330
253
100
DictionaryVariables
280
     0
  1
Imperial24
  0
DICTIONARYVAR
  5
257
102
{ACAD_REACTORS
330
253
102
}
330
253
100
DictionaryVariables
280
     0
  1
Imperial24
  0
DICTIONARYVAR
  5
25B
102
{ACAD_REACTORS
330
253
102
}
330
253
100
DictionaryVariables
280
     0
  1
1
  0
DICTIONARYVAR
  5
25C
102
{ACAD_REACTORS
330
253
102
}
330
253
100
DictionaryVariables
280
     0
  1
15
  0
DICTIONARYVAR
  5
25A
102
{ACAD_REACTORS
330
253
102
}
330
253
100
DictionaryVariables
280
     0
  1
0
  0
DICTIONARYVAR
  5
258
102
{ACAD_REACTORS
330
253
102
}
330
253
100
DictionaryVariables
280
     0
  1
0
  0
DICTIONARY
  5
1A
330
19
100
AcDbDictionary
280
     1
281
     1
  3
BUMPTILE
360
1C
  3
DIFFUSETILE
360
1B
  3
OPACITYTILE
360
1F
  3
REFLECTIONTILE
360
1E
  3
REFRACTIONTILE
360
20
  3
SPECULARTILE
360
1D
  0
DICTIONARY
  5
12
330
11
100
AcDbDictionary
280
     1
281
     1
  3
BUMPTILE
360
14
  3
DIFFUSETILE
360
13
  3
OPACITYTILE
360
17
  3
REFLECTIONTILE
360
16
  3
REFRACTIONTILE
360
18
  3
SPECULARTILE
360
15
  0
DICTIONARY
  5
22
330
21
100
AcDbDictionary
280
     1
281
     1
  3
BUMPTILE
360
24
  3
DIFFUSETILE
360
23
  3
OPACITYTILE
360
27
  3
REFLECTIONTILE
360
26
  3
REFRACTIONTILE
360
28
  3
SPECULARTILE
360
25
  0
DICTIONARY
  5
278
330
64
100
AcDbDictionary
280
     1
281
     1
  3
ACAD_ROUNDTRIP_2008_TABLESTYLE_CELLSTYLEMAP
360
5BD
  0
XRECORD
  5
1C
102
{ACAD_REACTORS
330
1A
102
}
330
1A
100
AcDbXrecord
280
     1
270
     1
271
     1
  0
XRECORD
  5
1B
102
{ACAD_REACTORS
330
1A
102
}
330
1A
100
AcDbXrecord
280
     1
270
     1
271
     1
  0
XRECORD
  5
1F
102
{ACAD_REACTORS
330
1A
102
}
330
1A
100
AcDbXrecord
280
     1
270
     1
271
     1
  0
XRECORD
  5
1E
102
{ACAD_REACTORS
330
1A
102
}
330
1A
100
AcDbXrecord
280
     1
270
     1
271
     1
  0
XRECORD
  5
20
102
{ACAD_REACTORS
330
1A
102
}
330
1A
100
AcDbXrecord
280
     1
270
     1
271
     1
  0
XRECORD
  5
1D
102
{ACAD_REACTORS
330
1A
102
}
330
1A
100
AcDbXrecord
280
     1
270
     1
271
     1
  0
XRECORD
  5
14
102
{ACAD_REACTORS
330
12
102
}
330
12
100
AcDbXrecord
280
     1
270
     1
271
     1
  0
XRECORD
  5
13
102
{ACAD_REACTORS
330
12
102
}
330
12
100
AcDbXrecord
280
     1
270
     1
271
     1
  0
XRECORD
  5
17
102
{ACAD_REACTORS
330
12
102
}
330
12
100
AcDbXrecord
280
     1
270
     1
271
     1
  0
XRECORD
  5
16
102
{ACAD_REACTORS
330
12
102
}
330
12
100
AcDbXrecord
280
     1
270
     1
271
     1
  0
XRECORD
  5
18
102
{ACAD_REACTORS
330
12
102
}
330
12
100
AcDbXrecord
280
     1
270
     1
271
     1
  0
XRECORD
  5
15
102
{ACAD_REACTORS
330
12
102
}
330
12
100
AcDbXrecord
280
     1
270
     1
271
     1
  0
XRECORD
  5
24
102
{ACAD_REACTORS
330
22
102
}
330
22
100
AcDbXrecord
280
     1
270
     1
271
     1
  0
XRECORD
  5
23
102
{ACAD_REACTORS
330
22
102
}
330
22
100
AcDbXrecord
280
     1
270
     1
271
     1
  0
XRECORD
  5
27
102
{ACAD_REACTORS
330
22
102
}
330
22
100
AcDbXrecord
280
     1
270
     1
271
     1
  0
XRECORD
  5
26
102
{ACAD_REACTORS
330
22
102
}
330
22
100
AcDbXrecord
280
     1
270
     1
271
     1
  0
XRECORD
  5
28
102
{ACAD_REACTORS
330
22
102
}
330
22
100
AcDbXrecord
280
     1
270
     1
271
     1
  0
XRECORD
  5
25
102
{ACAD_REACTORS
330
22
102
}
330
22
100
AcDbXrecord
280
     1
270
     1
271
     1
  0
CELLSTYLEMAP
  5
5BD
102
{ACAD_REACTORS
330
278
102
}
330
278
100
AcDbCellStyleMap
 90
        3
300
CELLSTYLE
  1
TABLEFORMAT_BEGIN
 90
        5
170
     1
 91
        0
 92
    32768
 62
   257
 93
        1
300
CONTENTFORMAT
  1
CONTENTFORMAT_BEGIN
 90
        0
 91
        0
 92
      512
 93
        0
300

 40
0.0
140
1.0
 94
        5
 62
     0
340
55
144
0.25
309
CONTENTFORMAT_END
171
     1
301
MARGIN
  1
CELLMARGIN_BEGIN
 40
0.06
 40
0.06
 40
0.06
 40
0.06
 40
0.18
 40
0.18
309
CELLMARGIN_END
 94
        6
 95
        1
302
GRIDFORMAT
  1
GRIDFORMAT_BEGIN
 90
        0
 91
        1
 62
     0
 92
       -2
340
0
 93
        0
 40
0.045
309
GRIDFORMAT_END
 95
        2
302
GRIDFORMAT
  1
GRIDFORMAT_BEGIN
 90
        0
 91
        1
 62
     0
 92
       -2
340
0
 93
        0
 40
0.045
309
GRIDFORMAT_END
 95
        4
302
GRIDFORMAT
  1
GRIDFORMAT_BEGIN
 90
        0
 91
        1
 62
     0
 92
       -2
340
0
 93
        0
 40
0.045
309
GRIDFORMAT_END
 95
        8
302
GRIDFORMAT
  1
GRIDFORMAT_BEGIN
 90
        0
 91
        1
 62
     0
 92
       -2
340
0
 93
        0
 40
0.045
309
GRIDFORMAT_END
 95
       16
302
GRIDFORMAT
  1
GRIDFORMAT_BEGIN
 90
        0
 91
        1
 62
     0
 92
       -2
340
0
 93
        0
 40
0.045
309
GRIDFORMAT_END
 95
       32
302
GRIDFORMAT
  1
GRIDFORMAT_BEGIN
 90
        0
 91
        1
 62
     0
 92
       -2
340
0
 93
        0
 40
0.045
309
GRIDFORMAT_END
309
TABLEFORMAT_END
  1
CELLSTYLE_BEGIN
 90
        1
 91
        1
300
_TITLE
309
CELLSTYLE_END
300
CELLSTYLE
  1
TABLEFORMAT_BEGIN
 90
        5
170
     1
 91
        0
 92
        0
 62
   257
 93
        1
300
CONTENTFORMAT
  1
CONTENTFORMAT_BEGIN
 90
        0
 91
        0
 92
      512
 93
        0
300

 40
0.0
140
1.0
 94
        5
 62
     0
340
55
144
0.18
309
CONTENTFORMAT_END
171
     1
301
MARGIN
  1
CELLMARGIN_BEGIN
 40
0.06
 40
0.06
 40
0.06
 40
0.06
 40
0.18
 40
0.18
309
CELLMARGIN_END
 94
        6
 95
        1
302
GRIDFORMAT
  1
GRIDFORMAT_BEGIN
 90
        0
 91
        1
 62
     0
 92
       -2
340
0
 93
        0
 40
0.045
309
GRIDFORMAT_END
 95
        2
302
GRIDFORMAT
  1
GRIDFORMAT_BEGIN
 90
        0
 91
        1
 62
     0
 92
       -2
340
0
 93
        0
 40
0.045
309
GRIDFORMAT_END
 95
        4
302
GRIDFORMAT
  1
GRIDFORMAT_BEGIN
 90
        0
 91
        1
 62
     0
 92
       -2
340
0
 93
        0
 40
0.045
309
GRIDFORMAT_END
 95
        8
302
GRIDFORMAT
  1
GRIDFORMAT_BEGIN
 90
        0
 91
        1
 62
     0
 92
       -2
340
0
 93
        0
 40
0.045
309
GRIDFORMAT_END
 95
       16
302
GRIDFORMAT
  1
GRIDFORMAT_BEGIN
 90
        0
 91
        1
 62
     0
 92
       -2
340
0
 93
        0
 40
0.045
309
GRIDFORMAT_END
 95
       32
302
GRIDFORMAT
  1
GRIDFORMAT_BEGIN
 90
        0
 91
        1
 62
     0
 92
       -2
340
0
 93
        0
 40
0.045
309
GRIDFORMAT_END
309
TABLEFORMAT_END
  1
CELLSTYLE_BEGIN
 90
        2
 91
        1
300
_HEADER
309
CELLSTYLE_END
300
CELLSTYLE
  1
TABLEFORMAT_BEGIN
 90
        5
170
     1
 91
        0
 92
        0
 62
   257
 93
        1
300
CONTENTFORMAT
  1
CONTENTFORMAT_BEGIN
 90
        0
 91
        0
 92
      512
 93
        0
300

 40
0.0
140
1.0
 94
        2
 62
     0
340
55
144
0.18
309
CONTENTFORMAT_END
171
     1
301
MARGIN
  1
CELLMARGIN_BEGIN
 40
0.06
 40
0.06
 40
0.06
 40
0.06
 40
0.18
 40
0.18
309
CELLMARGIN_END
 94
        6
 95
        1
302
GRIDFORMAT
  1
GRIDFORMAT_BEGIN
 90
        0
 91
        1
 62
     0
 92
       -2
340
0
 93
        0
 40
0.045
309
GRIDFORMAT_END
 95
        2
302
GRIDFORMAT
  1
GRIDFORMAT_BEGIN
 90
        0
 91
        1
 62
     0
 92
       -2
340
0
 93
        0
 40
0.045
309
GRIDFORMAT_END
 95
        4
302
GRIDFORMAT
  1
GRIDFORMAT_BEGIN
 90
        0
 91
        1
 62
     0
 92
       -2
340
0
 93
        0
 40
0.045
309
GRIDFORMAT_END
 95
        8
302
GRIDFORMAT
  1
GRIDFORMAT_BEGIN
 90
        0
 91
        1
 62
     0
 92
       -2
340
0
 93
        0
 40
0.045
309
GRIDFORMAT_END
 95
       16
302
GRIDFORMAT
  1
GRIDFORMAT_BEGIN
 90
        0
 91
        1
 62
     0
 92
       -2
340
0
 93
        0
 40
0.045
309
GRIDFORMAT_END
 95
       32
302
GRIDFORMAT
  1
GRIDFORMAT_BEGIN
 90
        0
 91
        1
 62
     0
 92
       -2
340
0
 93
        0
 40
0.045
309
GRIDFORMAT_END
309
TABLEFORMAT_END
  1
CELLSTYLE_BEGIN
 90
        3
 91
        2
300
_DATA
309
CELLSTYLE_END
  0
ENDSEC
  0
SECTION
  2
ACDSDATA
 70
     2
 71
     8
  0
ACDSSCHEMA
 90
        0
  1
AcDb_Thumbnail_Schema
  2
AcDbDs::ID
280
    10
 91
        8
  2
Thumbnail_Data
280
    15
 91
        0
101
ACDSRECORD
 95
        0
 90
        1
  2
AcDbDs::TreatedAsObjectData
280
     1
291
     1
101
ACDSRECORD
 95
        0
 90
        2
  2
AcDbDs::Legacy
280
     1
291
     1
101
ACDSRECORD
  1
AcDbDs::ID
 90
        3
  2
AcDs:Indexable
280
     1
291
     1
101
ACDSRECORD
  1
AcDbDs::ID
 90
        4
  2
AcDbDs::HandleAttribute
280
     7
282
     1
  0
ACDSSCHEMA
 90
        1
  1
AcDbDs::TreatedAsObjectDataSchema
  2
AcDbDs::TreatedAsObjectData
280
     1
 91
        0
  0
ACDSSCHEMA
 90
        2
  1
AcDbDs::LegacySchema
  2
AcDbDs::Legacy
280
     1
 91
        0
  0
ACDSSCHEMA
 90
        3
  1
AcDbDs::IndexedPropertySchema
  2
AcDs:Indexable
280
     1
 91
        0
  0
ACDSSCHEMA
 90
        4
  1
AcDbDs::HandleAttributeSchema
  2
AcDbDs::HandleAttribute
280
     7
 91
        1
284
     1
  0
ACDSRECORD
 90
        0
  2
AcDbDs::ID
280
    10
320
72
  2
Thumbnail_Data
280
    15
 94
     1368
310
89504E470D0A1A0A0000000D49484452000001000000006D080300000079B14F6400000300504C5445212830FFFFFF2128300000000000000000000000000000000000000000000000000000330000660000990000CC0000FF0033000033330033660033990033CC0033FF0066000066330066660066990066CC0066FF0099
310
000099330099660099990099CC0099FF00CC0000CC3300CC6600CC9900CCCC00CCFF00FF0000FF3300FF6600FF9900FFCC00FFFF3300003300333300663300993300CC3300FF3333003333333333663333993333CC3333FF3366003366333366663366993366CC3366FF3399003399333399663399993399CC3399FF33CC00
310
33CC3333CC6633CC9933CCCC33CCFF33FF0033FF3333FF6633FF9933FFCC33FFFF6600006600336600666600996600CC6600FF6633006633336633666633996633CC6633FF6666006666336666666666996666CC6666FF6699006699336699666699996699CC6699FF66CC0066CC3366CC6666CC9966CCCC66CCFF66FF0066
310
FF3366FF6666FF9966FFCC66FFFF9900009900339900669900999900CC9900FF9933009933339933669933999933CC9933FF9966009966339966669966999966CC9966FF9999009999339999669999999999CC9999FF99CC0099CC3399CC6699CC9999CCCC99CCFF99FF0099FF3399FF6699FF9999FFCC99FFFFCC0000CC00
310
33CC0066CC0099CC00CCCC00FFCC3300CC3333CC3366CC3399CC33CCCC33FFCC6600CC6633CC6666CC6699CC66CCCC66FFCC9900CC9933CC9966CC9999CC99CCCC99FFCCCC00CCCC33CCCC66CCCC99CCCCCCCCCCFFCCFF00CCFF33CCFF66CCFF99CCFFCCCCFFFFFF0000FF0033FF0066FF0099FF00CCFF00FFFF3300FF3333
310
FF3366FF3399FF33CCFF33FFFF6600FF6633FF6666FF6699FF66CCFF66FFFF9900FF9933FF9966FF9999FF99CCFF99FFFFCC00FFCC33FFCC66FFCC99FFCCCCFFCCFFFFFF00FFFF33FFFF66FFFF99FFFFCCFFFFFF0000000D0D0D1A1A1A2828283535354343435050505D5D5D6B6B6B787878868686939393A1A1A1AEAEAEBB
310
BBBBC9C9C9D6D6D6E4E4E4F1F1F1FFFFFF0000000000000000000000000000000000000000000000000000000000002E4550F1000002134944415478DAED9BD192C3200845FDFFFFE57D67679A5411A8E9CE66849CF3D24E9B347A4504B4AD010000DC83DCC7A602147C12025C6BD65D136067012CD7F087CF4C57B3B100A5
310
9EF365C30E2BFDD66B4FE63EBC641040B7F1B7D96B32BC2EEA2F94E1F7F20AD00FAEDF7BC319941040393A4305E5D98B0B308EF761F68504309C60338D7B30FB77B73D2778DE9F6919542E7C1240DD3C397C1D122411408DFD11208DC630DBFA79919D596512C0F8FCE8C37B31EFAFF4CC447B8FA4028CEB60EBC279E9863A
310
4E756A08D04F90E97D4901DCD0679C0FA6E7746FD85D80C19AC56DAEB879FDB9EA5981620601D63237090A1BD65D590588FAEF77441E22806F02D50518A381A5AADF1947EC9F0BD849AE35FEBE3CE256C2244536F8C1094A8BC6DF930501520A20D1049772024C25EB200C0C4CC0FFF9DDF705ECC0DF9F038B4E509555F616
310
6025AA6BF2690E486012D90490CB4EA0CD13A9B7814A022C2E0463D8544100799200ED7A28584700772748A244496F1B486201DAE572882E2E4D05B41202C4D5805100E3AB4C02C817D5806E7A9415E055DDAC28C0BCB5E706FC9E8B0CCF03494B7744264A07C4EABBAB460627E8AF6BAA54344709AB6769F21E929A3647FB
310
BC70FD2051EE5362E716E867575053006B52FFCF73F61560295940000440009C6042011E7F5AFCE9FF17A8F7A46BCD7AFA9FA60000000000000000000000000000000000000000000000006EE007EB7F4E532584A4710000000049454E44AE426082
  0
ENDSEC
  0
EOF
