  0
SECTION
  2
HEADER
  9
$ACADVER
  1
AC1009
  9
$EXTMIN
 10
0.0
 20
0.0
 30
0.0
  9
$EXTMAX
 10
1000.0
 20
1000.0
 30
0.0
  9
$FILLMODE
 70
 0
  9
$SPLFRAME
 70
 1
  0
ENDSEC
  0
SECTION
  2
TABLES
  0
TABLE
  2
LAYER
 70
1
  0
LAYER
  2
0
 70
     0
 62
     7
  6
CONTINUOUS
  0
ENDTAB
  0
ENDSEC
  0
SECTION
  2
ENTITIES
  0
LINE
  8
0
 62
     0
 10
351.568
 20
98.509
 30
0.0
 11
346.805
 21
98.509
 31
0.0
  0
LINE
  8
0
 62
     0
 10
346.805
 20
98.509
 30
0.0
 11
346.805
 21
117.559
 31
0.0
  0
LINE
  8
0
 62
     0
 10
346.805
 20
117.559
 30
0.0
 11
342.043
 21
117.559
 31
0.0
  0
LINE
  8
0
 62
     0
 10
342.043
 20
117.559
 30
0.0
 11
342.043
 21
136.609
 31
0.0
  0
LINE
  8
0
 62
     0
 10
342.043
 20
136.609
 30
0.0
 11
337.28
 21
136.609
 31
0.0
  0
LINE
  8
0
 62
     0
 10
337.28
 20
136.609
 30
0.0
 11
337.28
 21
155.659
 31
0.0
  0
LINE
  8
0
 62
     0
 10
337.28
 20
155.659
 30
0.0
 11
318.228
 21
155.659
 31
0.0
  0
LINE
  8
0
 62
     0
 10
318.228
 20
155.659
 30
0.0
 11
318.228
 21
136.606
 31
0.0
  0
LINE
  8
0
 62
     0
 10
318.228
 20
136.606
 30
0.0
 11
322.99
 21
136.606
 31
0.0
  0
LINE
  8
0
 62
     0
 10
322.99
 20
136.606
 30
0.0
 11
322.99
 21
117.556
 31
0.0
  0
LINE
  8
0
 62
     0
 10
322.99
 20
117.556
 30
0.0
 11
327.754
 21
117.556
 31
0.0
  0
LINE
  8
0
 62
     0
 10
327.754
 20
117.556
 30
0.0
 11
327.754
 21
98.5061
 31
0.0
  0
LINE
  8
0
 62
     0
 10
327.754
 20
98.5061
 30
0.0
 11
332.515
 21
98.5061
 31
0.0
  0
LINE
  8
0
 62
     0
 10
332.515
 20
98.5061
 30
0.0
 11
332.515
 21
79.4561
 31
0.0
  0
LINE
  8
0
 62
     0
 10
332.515
 20
79.4561
 30
0.0
 11
351.568
 21
79.4561
 31
0.0
  0
LINE
  8
0
 62
     0
 10
351.568
 20
79.4561
 30
0.0
 11
351.568
 21
50.884
 31
0.0
  0
LINE
  8
0
 62
     0
 10
351.568
 20
50.884
 30
0.0
 11
332.518
 21
50.884
 31
0.0
  0
LINE
  8
0
 62
     0
 10
332.518
 20
50.884
 30
0.0
 11
332.518
 21
69.934
 31
0.0
  0
LINE
  8
0
 62
     0
 10
332.518
 20
69.934
 30
0.0
 11
313.465
 21
69.934
 31
0.0
  0
LINE
  8
0
 62
     0
 10
313.465
 20
69.934
 30
0.0
 11
313.465
 21
50.884
 31
0.0
  0
LINE
  8
0
 62
     0
 10
313.465
 20
50.884
 30
0.0
 11
294.415
 21
50.884
 31
0.0
  0
LINE
  8
0
 62
     0
 10
294.415
 20
50.884
 30
0.0
 11
294.415
 21
31.8313
 31
0.0
  0
LINE
  8
0
 62
     0
 10
294.415
 20
31.8313
 30
0.0
 11
351.568
 21
31.8313
 31
0.0
  0
LINE
  8
0
 62
     0
 10
351.568
 20
31.8313
 30
0.0
 11
351.568
 21
0.398254
 31
0.0
  0
LINE
  8
0
 62
     0
 10
351.568
 20
0.398254
 30
0.0
 11
181.07
 21
0.398254
 31
0.0
  0
LINE
  8
0
 62
     0
 10
181.07
 20
0.398254
 30
0.0
 11
181.07
 21
19.451
 31
0.0
  0
LINE
  8
0
 62
     0
 10
181.07
 20
19.451
 30
0.0
 11
123.917
 21
19.451
 31
0.0
  0
LINE
  8
0
 62
     0
 10
123.917
 20
19.451
 30
0.0
 11
123.917
 21
0.398254
 31
0.0
  0
LINE
  8
0
 62
     0
 10
123.917
 20
0.398254
 30
0.0
 11
0.0950846
 21
0.398254
 31
0.0
  0
LINE
  8
0
 62
     0
 10
0.0950846
 20
0.398254
 30
0.0
 11
0.0950846
 21
36.5936
 31
0.0
  0
LINE
  8
0
 62
     0
 10
0.0950846
 20
36.5936
 30
0.0
 11
52.4828
 21
36.5936
 31
0.0
  0
LINE
  8
0
 62
     0
 10
52.4828
 20
36.5936
 30
0.0
 11
52.4828
 21
55.6436
 31
0.0
  0
LINE
  8
0
 62
     0
 10
52.4828
 20
55.6436
 30
0.0
 11
62.0078
 21
55.6436
 31
0.0
  0
LINE
  8
0
 62
     0
 10
62.0078
 20
55.6436
 30
0.0
 11
62.0078
 21
74.695
 31
0.0
  0
LINE
  8
0
 62
     0
 10
62.0078
 20
74.695
 30
0.0
 11
57.2453
 21
74.695
 31
0.0
  0
LINE
  8
0
 62
     0
 10
57.2453
 20
74.695
 30
0.0
 11
57.2453
 21
112.795
 31
0.0
  0
LINE
  8
0
 62
     0
 10
57.2453
 20
112.795
 30
0.0
 11
52.4828
 21
112.795
 31
0.0
  0
LINE
  8
0
 62
     0
 10
52.4828
 20
112.795
 30
0.0
 11
52.4828
 21
115.652
 31
0.0
  0
LINE
  8
0
 62
     0
 10
52.4828
 20
115.652
 30
0.0
 11
71.5328
 21
115.652
 31
0.0
  0
LINE
  8
0
 62
     0
 10
71.5328
 20
115.652
 30
0.0
 11
71.5328
 21
134.703
 31
0.0
  0
LINE
  8
0
 62
     0
 10
71.5328
 20
134.703
 30
0.0
 11
52.4799
 21
134.703
 31
0.0
  0
LINE
  8
0
 62
     0
 10
52.4799
 20
134.703
 30
0.0
 11
52.4799
 21
131.845
 31
0.0
  0
LINE
  8
0
 62
     0
 10
52.4799
 20
131.845
 30
0.0
 11
14.3798
 21
131.845
 31
0.0
  0
LINE
  8
0
 62
     0
 10
14.3798
 20
131.845
 30
0.0
 11
14.3798
 21
112.795
 31
0.0
  0
LINE
  8
0
 62
     0
 10
14.3798
 20
112.795
 30
0.0
 11
9.6187
 21
112.795
 31
0.0
  0
LINE
  8
0
 62
     0
 10
9.6187
 20
112.795
 30
0.0
 11
9.6187
 21
93.7451
 31
0.0
  0
LINE
  8
0
 62
     0
 10
9.6187
 20
93.7451
 30
0.0
 11
4.85482
 21
93.7451
 31
0.0
  0
LINE
  8
0
 62
     0
 10
4.85482
 20
93.7451
 30
0.0
 11
4.85482
 21
74.695
 31
0.0
  0
LINE
  8
0
 62
     0
 10
4.85482
 20
74.695
 30
0.0
 11
0.0950846
 21
74.695
 31
0.0
  0
LINE
  8
0
 62
     0
 10
0.0950846
 20
74.695
 30
0.0
 11
0.0950846
 21
160.419
 31
0.0
  0
LINE
  8
0
 62
     0
 10
0.0950846
 20
160.419
 30
0.0
 11
351.568
 21
160.419
 31
0.0
  0
LINE
  8
0
 62
     0
 10
351.568
 20
160.419
 30
0.0
 11
351.568
 21
98.509
 31
0.0
  0
LINE
  8
0
 62
     0
 10
242.029
 20
134.703
 30
0.0
 11
242.029
 21
116.087
 31
0.0
  0
LINE
  8
0
 62
     0
 10
242.029
 20
116.087
 30
0.0
 11
238.977
 21
130.447
 31
0.0
  0
LINE
  8
0
 62
     0
 10
238.977
 20
130.447
 30
0.0
 11
220.343
 21
126.486
 31
0.0
  0
LINE
  8
0
 62
     0
 10
220.343
 20
126.486
 30
0.0
 11
201.709
 21
122.524
 31
0.0
  0
LINE
  8
0
 62
     0
 10
201.709
 20
122.524
 30
0.0
 11
201.709
 21
122.525
 31
0.0
  0
LINE
  8
0
 62
     0
 10
201.709
 20
122.525
 30
0.0
 11
164.44
 21
114.603
 31
0.0
  0
LINE
  8
0
 62
     0
 10
164.44
 20
114.603
 30
0.0
 11
168.4
 21
95.9693
 31
0.0
  0
LINE
  8
0
 62
     0
 10
168.4
 20
95.9693
 30
0.0
 11
159.083
 21
93.9892
 31
0.0
  0
LINE
  8
0
 62
     0
 10
159.083
 20
93.9892
 30
0.0
 11
163.044
 21
75.354
 31
0.0
  0
LINE
  8
0
 62
     0
 10
163.044
 20
75.354
 30
0.0
 11
167.703
 21
76.3432
 31
0.0
  0
LINE
  8
0
 62
     0
 10
167.703
 20
76.3432
 30
0.0
 11
171.663
 21
57.7109
 31
0.0
  0
LINE
  8
0
 62
     0
 10
171.663
 20
57.7109
 30
0.0
 11
157.687
 21
54.7412
 31
0.0
  0
LINE
  8
0
 62
     0
 10
157.687
 20
54.7412
 30
0.0
 11
161.648
 21
36.1061
 31
0.0
  0
LINE
  8
0
 62
     0
 10
161.648
 20
36.1061
 30
0.0
 11
170.965
 21
38.0862
 31
0.0
  0
LINE
  8
0
 62
     0
 10
170.965
 20
38.0862
 30
0.0
 11
174.927
 21
19.4524
 31
0.0
  0
LINE
  8
0
 62
     0
 10
174.927
 20
19.4524
 30
0.0
 11
235.486
 21
32.326
 31
0.0
  0
LINE
  8
0
 62
     0
 10
235.486
 20
32.326
 30
0.0
 11
235.486
 21
32.3246
 31
0.0
  0
LINE
  8
0
 62
     0
 10
235.486
 20
32.3246
 30
0.0
 11
258.781
 21
37.2759
 31
0.0
  0
LINE
  8
0
 62
     0
 10
258.781
 20
37.2759
 30
0.0
 11
250.858
 21
74.5451
 31
0.0
  0
LINE
  8
0
 62
     0
 10
250.858
 20
74.5451
 30
0.0
 11
246.2
 21
73.5556
 31
0.0
  0
LINE
  8
0
 62
     0
 10
246.2
 20
73.5556
 30
0.0
 11
242.24
 21
92.1879
 31
0.0
  0
LINE
  8
0
 62
     0
 10
242.24
 20
92.1879
 30
0.0
 11
246.79
 21
93.1541
 31
0.0
  0
LINE
  8
0
 62
     0
 10
246.79
 20
93.1541
 30
0.0
 11
246.79
 21
74.6936
 31
0.0
  0
LINE
  8
0
 62
     0
 10
246.79
 20
74.6936
 30
0.0
 11
256.315
 21
74.6936
 31
0.0
  0
LINE
  8
0
 62
     0
 10
256.315
 20
74.6936
 30
0.0
 11
256.315
 21
55.6436
 31
0.0
  0
LINE
  8
0
 62
     0
 10
256.315
 20
55.6436
 30
0.0
 11
262.03
 21
55.6436
 31
0.0
  0
LINE
  8
0
 62
     0
 10
262.03
 20
55.6436
 30
0.0
 11
262.03
 21
36.5936
 31
0.0
  0
LINE
  8
0
 62
     0
 10
262.03
 20
36.5936
 30
0.0
 11
285.845
 21
36.5936
 31
0.0
  0
LINE
  8
0
 62
     0
 10
285.845
 20
36.5936
 30
0.0
 11
285.845
 21
55.6436
 31
0.0
  0
LINE
  8
0
 62
     0
 10
285.845
 20
55.6436
 30
0.0
 11
308.705
 21
55.6436
 31
0.0
  0
LINE
  8
0
 62
     0
 10
308.705
 20
55.6436
 30
0.0
 11
308.705
 21
74.6936
 31
0.0
  0
LINE
  8
0
 62
     0
 10
308.705
 20
74.6936
 30
0.0
 11
327.755
 21
74.6936
 31
0.0
  0
LINE
  8
0
 62
     0
 10
327.755
 20
74.6936
 30
0.0
 11
327.755
 21
93.7451
 31
0.0
  0
LINE
  8
0
 62
     0
 10
327.755
 20
93.7451
 30
0.0
 11
322.993
 21
93.7451
 31
0.0
  0
LINE
  8
0
 62
     0
 10
322.993
 20
93.7451
 30
0.0
 11
322.993
 21
112.795
 31
0.0
  0
LINE
  8
0
 62
     0
 10
322.993
 20
112.795
 30
0.0
 11
318.23
 21
112.795
 31
0.0
  0
LINE
  8
0
 62
     0
 10
318.23
 20
112.795
 30
0.0
 11
318.23
 21
131.845
 31
0.0
  0
LINE
  8
0
 62
     0
 10
318.23
 20
131.845
 30
0.0
 11
261.08
 21
131.845
 31
0.0
  0
LINE
  8
0
 62
     0
 10
261.08
 20
131.845
 30
0.0
 11
261.08
 21
134.703
 31
0.0
  0
LINE
  8
0
 62
     0
 10
261.08
 20
134.703
 30
0.0
 11
242.029
 21
134.703
 31
0.0
  0
LINE
  8
0
 62
     0
 10
71.6442
 20
112.955
 30
0.0
 11
62.3274
 21
114.937
 31
0.0
  0
LINE
  8
0
 62
     0
 10
62.3274
 20
114.937
 30
0.0
 11
58.3667
 21
96.3002
 31
0.0
  0
LINE
  8
0
 62
     0
 10
58.3667
 20
96.3002
 30
0.0
 11
63.0259
 21
95.3107
 31
0.0
  0
LINE
  8
0
 62
     0
 10
63.0259
 20
95.3107
 30
0.0
 11
59.0642
 21
76.677
 31
0.0
  0
LINE
  8
0
 62
     0
 10
59.0642
 20
76.677
 30
0.0
 11
68.381
 21
74.6965
 31
0.0
  0
LINE
  8
0
 62
     0
 10
68.381
 20
74.6965
 30
0.0
 11
64.4204
 21
56.0627
 31
0.0
  0
LINE
  8
0
 62
     0
 10
64.4204
 20
56.0627
 30
0.0
 11
64.4218
 21
56.0627
 31
0.0
  0
LINE
  8
0
 62
     0
 10
64.4218
 20
56.0627
 30
0.0
 11
60.4587
 21
37.429
 31
0.0
  0
LINE
  8
0
 62
     0
 10
60.4587
 20
37.429
 30
0.0
 11
125.68
 21
23.5658
 31
0.0
  0
LINE
  8
0
 62
     0
 10
125.68
 20
23.5658
 30
0.0
 11
144.314
 21
19.6053
 31
0.0
  0
LINE
  8
0
 62
     0
 10
144.314
 20
19.6053
 30
0.0
 11
148.274
 21
38.2404
 31
0.0
  0
LINE
  8
0
 62
     0
 10
148.274
 20
38.2404
 30
0.0
 11
138.957
 21
40.2209
 31
0.0
  0
LINE
  8
0
 62
     0
 10
138.957
 20
40.2209
 30
0.0
 11
142.919
 21
58.8546
 31
0.0
  0
LINE
  8
0
 62
     0
 10
142.919
 20
58.8546
 30
0.0
 11
133.601
 21
60.8348
 31
0.0
  0
LINE
  8
0
 62
     0
 10
133.601
 20
60.8348
 30
0.0
 11
137.563
 21
79.4688
 31
0.0
  0
LINE
  8
0
 62
     0
 10
137.563
 20
79.4688
 30
0.0
 11
132.903
 21
80.458
 31
0.0
  0
LINE
  8
0
 62
     0
 10
132.903
 20
80.458
 30
0.0
 11
136.864
 21
99.0907
 31
0.0
  0
LINE
  8
0
 62
     0
 10
136.864
 20
99.0907
 30
0.0
 11
146.181
 21
97.1102
 31
0.0
  0
LINE
  8
0
 62
     0
 10
146.181
 20
97.1102
 30
0.0
 11
150.143
 21
115.747
 31
0.0
  0
LINE
  8
0
 62
     0
 10
150.143
 20
115.747
 30
0.0
 11
131.506
 21
119.707
 31
0.0
  0
LINE
  8
0
 62
     0
 10
131.506
 20
119.707
 30
0.0
 11
131.506
 21
119.706
 31
0.0
  0
LINE
  8
0
 62
     0
 10
131.506
 20
119.706
 30
0.0
 11
75.6059
 21
131.589
 31
0.0
  0
LINE
  8
0
 62
     0
 10
75.6059
 20
131.589
 30
0.0
 11
71.6442
 21
112.955
 31
0.0
  0
LINE
  8
0
 62
     0
 10
261.079
 20
112.795
 30
0.0
 11
256.315
 21
112.795
 31
0.0
  0
LINE
  8
0
 62
     0
 10
256.315
 20
112.795
 30
0.0
 11
256.315
 21
93.7451
 31
0.0
  0
LINE
  8
0
 62
     0
 10
256.315
 20
93.7451
 30
0.0
 11
249.571
 21
93.7451
 31
0.0
  0
LINE
  8
0
 62
     0
 10
249.571
 20
93.7451
 30
0.0
 11
256.214
 21
95.1576
 31
0.0
  0
LINE
  8
0
 62
     0
 10
256.214
 20
95.1576
 30
0.0
 11
252.254
 21
113.793
 31
0.0
  0
LINE
  8
0
 62
     0
 10
252.254
 20
113.793
 30
0.0
 11
242.937
 21
111.814
 31
0.0
  0
LINE
  8
0
 62
     0
 10
242.937
 20
111.814
 30
0.0
 11
242.121
 21
115.652
 31
0.0
  0
LINE
  8
0
 62
     0
 10
242.121
 20
115.652
 30
0.0
 11
261.079
 21
115.652
 31
0.0
  0
LINE
  8
0
 62
     0
 10
261.079
 20
115.652
 30
0.0
 11
261.079
 21
112.795
 31
0.0
  0
LINE
  8
0
 62
     0
 10
164.146
 20
138.885
 30
0.0
 11
168.108
 21
120.25
 31
0.0
  0
LINE
  8
0
 62
     0
 10
168.108
 20
120.25
 30
0.0
 11
186.742
 21
124.211
 31
0.0
  0
LINE
  8
0
 62
     0
 10
186.742
 20
124.211
 30
0.0
 11
205.377
 21
128.171
 31
0.0
  0
LINE
  8
0
 62
     0
 10
205.377
 20
128.171
 30
0.0
 11
201.417
 21
146.808
 31
0.0
  0
LINE
  8
0
 62
     0
 10
201.417
 20
146.808
 30
0.0
 11
164.146
 21
138.885
 31
0.0
  0
LINE
  8
0
 62
     0
 10
109.204
 20
129.314
 30
0.0
 11
146.473
 21
121.393
 31
0.0
  0
LINE
  8
0
 62
     0
 10
146.473
 20
121.393
 30
0.0
 11
150.435
 21
140.028
 31
0.0
  0
LINE
  8
0
 62
     0
 10
150.435
 20
140.028
 30
0.0
 11
113.166
 21
147.95
 31
0.0
  0
LINE
  8
0
 62
     0
 10
113.166
 20
147.95
 30
0.0
 11
109.204
 21
129.314
 31
0.0
  0
LINE
  8
0
 62
     0
 10
206.072
 20
147.797
 30
0.0
 11
210.034
 21
129.161
 31
0.0
  0
LINE
  8
0
 62
     0
 10
210.034
 20
129.161
 30
0.0
 11
247.304
 21
137.083
 31
0.0
  0
LINE
  8
0
 62
     0
 10
247.304
 20
137.083
 30
0.0
 11
243.342
 21
155.72
 31
0.0
  0
LINE
  8
0
 62
     0
 10
243.342
 20
155.72
 30
0.0
 11
206.072
 21
147.797
 31
0.0
  0
LINE
  8
0
 62
     0
 10
67.2786
 20
138.227
 30
0.0
 11
104.547
 21
130.304
 31
0.0
  0
LINE
  8
0
 62
     0
 10
104.547
 20
130.304
 30
0.0
 11
108.508
 21
148.94
 31
0.0
  0
LINE
  8
0
 62
     0
 10
108.508
 20
148.94
 30
0.0
 11
89.873
 21
152.902
 31
0.0
  0
LINE
  8
0
 62
     0
 10
89.873
 20
152.902
 30
0.0
 11
89.873
 21
152.9
 31
0.0
  0
LINE
  8
0
 62
     0
 10
89.873
 20
152.9
 30
0.0
 11
71.2392
 21
156.862
 31
0.0
  0
LINE
  8
0
 62
     0
 10
71.2392
 20
156.862
 30
0.0
 11
67.2786
 21
138.227
 31
0.0
  0
LINE
  8
0
 62
     0
 10
292.796
 20
155.659
 30
0.0
 11
311.848
 21
155.659
 31
0.0
  0
LINE
  8
0
 62
     0
 10
311.848
 20
155.659
 30
0.0
 11
311.848
 21
136.606
 31
0.0
  0
LINE
  8
0
 62
     0
 10
311.848
 20
136.606
 30
0.0
 11
292.796
 21
136.606
 31
0.0
  0
LINE
  8
0
 62
     0
 10
292.796
 20
136.606
 30
0.0
 11
292.796
 21
155.659
 31
0.0
  0
LINE
  8
0
 62
     0
 10
3.90398
 20
155.659
 30
0.0
 11
22.9554
 21
155.659
 31
0.0
  0
LINE
  8
0
 62
     0
 10
22.9554
 20
155.659
 30
0.0
 11
22.9554
 21
136.606
 31
0.0
  0
LINE
  8
0
 62
     0
 10
22.9554
 20
136.606
 30
0.0
 11
3.90398
 21
136.606
 31
0.0
  0
LINE
  8
0
 62
     0
 10
3.90398
 20
136.606
 30
0.0
 11
3.90398
 21
155.659
 31
0.0
  0
LINE
  8
0
 62
     0
 10
247.744
 20
156.61
 30
0.0
 11
285.845
 21
156.61
 31
0.0
  0
LINE
  8
0
 62
     0
 10
285.845
 20
156.61
 30
0.0
 11
285.845
 21
137.559
 31
0.0
  0
LINE
  8
0
 62
     0
 10
285.845
 20
137.559
 30
0.0
 11
247.744
 21
137.559
 31
0.0
  0
LINE
  8
0
 62
     0
 10
247.744
 20
137.559
 30
0.0
 11
247.744
 21
156.61
 31
0.0
  0
LINE
  8
0
 62
     0
 10
28.6687
 20
156.61
 30
0.0
 11
66.7703
 21
156.61
 31
0.0
  0
LINE
  8
0
 62
     0
 10
66.7703
 20
156.61
 30
0.0
 11
66.7703
 21
137.559
 31
0.0
  0
LINE
  8
0
 62
     0
 10
66.7703
 20
137.559
 30
0.0
 11
28.6687
 21
137.559
 31
0.0
  0
LINE
  8
0
 62
     0
 10
28.6687
 20
137.559
 30
0.0
 11
28.6687
 21
156.61
 31
0.0
  0
ENDSEC
  0
EOF
