  0
SECTION
  2
HEADER
  9
$ACADVER
  1
AC1009
  9
$EXTMIN
 10
0.0
 20
0.0
 30
0.0
  9
$EXTMAX
 10
1000.0
 20
1000.0
 30
0.0
  9
$FILLMODE
 70
 0
  9
$SPLFRAME
 70
 1
  0
ENDSEC
  0
SECTION
  2
TABLES
  0
TABLE
  2
LAYER
 70
1
  0
LAYER
  2
0
 70
     0
 62
     7
  6
CONTINUOUS
  0
ENDTAB
  0
ENDSEC
  0
SECTION
  2
ENTITIES
  0
LINE
  8
0
 62
     0
 10
0.0950846
 20
176.294
 30
0.0
 11
367.566
 21
176.294
 31
0.0
  0
LINE
  8
0
 62
     0
 10
367.566
 20
176.294
 30
0.0
 11
367.566
 21
0.272852
 31
0.0
  0
LINE
  8
0
 62
     0
 10
367.566
 20
0.272852
 30
0.0
 11
0.0950846
 21
0.272852
 31
0.0
  0
LINE
  8
0
 62
     0
 10
0.0950846
 20
0.272852
 30
0.0
 11
0.0950846
 21
176.294
 31
0.0
  0
LINE
  8
0
 62
     0
 10
3.81579
 20
5.12907
 30
0.0
 11
3.565
 21
5.00228
 31
0.0
  0
LINE
  8
0
 62
     0
 10
3.565
 20
5.00228
 30
0.0
 11
3.36517
 21
4.80385
 31
0.0
  0
LINE
  8
0
 62
     0
 10
3.36517
 20
4.80385
 30
0.0
 11
3.23839
 21
4.55306
 31
0.0
  0
LINE
  8
0
 62
     0
 10
3.23839
 20
4.55306
 30
0.0
 11
3.19429
 21
4.2733
 31
0.0
  0
LINE
  8
0
 62
     0
 10
3.19429
 20
4.2733
 30
0.0
 11
3.23839
 21
3.99493
 31
0.0
  0
LINE
  8
0
 62
     0
 10
3.23839
 20
3.99493
 30
0.0
 11
3.36517
 21
3.74414
 31
0.0
  0
LINE
  8
0
 62
     0
 10
3.36517
 20
3.74414
 30
0.0
 11
3.565
 21
3.5457
 31
0.0
  0
LINE
  8
0
 62
     0
 10
3.565
 20
3.5457
 30
0.0
 11
3.81579
 21
3.41891
 31
0.0
  0
LINE
  8
0
 62
     0
 10
3.81579
 20
3.41891
 30
0.0
 11
4.09416
 21
3.37344
 31
0.0
  0
LINE
  8
0
 62
     0
 10
4.09416
 20
3.37344
 30
0.0
 11
4.3725
 21
3.41891
 31
0.0
  0
LINE
  8
0
 62
     0
 10
4.3725
 20
3.41891
 30
0.0
 11
4.62333
 21
3.5457
 31
0.0
  0
LINE
  8
0
 62
     0
 10
4.62333
 20
3.5457
 30
0.0
 11
4.82314
 21
3.74414
 31
0.0
  0
LINE
  8
0
 62
     0
 10
4.82314
 20
3.74414
 30
0.0
 11
4.94993
 21
3.99493
 31
0.0
  0
LINE
  8
0
 62
     0
 10
4.94993
 20
3.99493
 30
0.0
 11
4.99403
 21
4.2733
 31
0.0
  0
LINE
  8
0
 62
     0
 10
4.99403
 20
4.2733
 30
0.0
 11
4.94993
 21
4.55306
 31
0.0
  0
LINE
  8
0
 62
     0
 10
4.94993
 20
4.55306
 30
0.0
 11
4.82314
 21
4.80385
 31
0.0
  0
LINE
  8
0
 62
     0
 10
4.82314
 20
4.80385
 30
0.0
 11
4.62333
 21
5.00228
 31
0.0
  0
LINE
  8
0
 62
     0
 10
4.62333
 20
5.00228
 30
0.0
 11
4.3725
 21
5.12907
 31
0.0
  0
LINE
  8
0
 62
     0
 10
4.3725
 20
5.12907
 30
0.0
 11
4.09416
 21
5.17317
 31
0.0
  0
LINE
  8
0
 62
     0
 10
4.09416
 20
5.17317
 30
0.0
 11
3.81579
 21
5.12907
 31
0.0
  0
LINE
  8
0
 62
     0
 10
75.7107
 20
5.12907
 30
0.0
 11
75.4599
 21
5.00228
 31
0.0
  0
LINE
  8
0
 62
     0
 10
75.4599
 20
5.00228
 30
0.0
 11
75.2602
 21
4.80385
 31
0.0
  0
LINE
  8
0
 62
     0
 10
75.2602
 20
4.80385
 30
0.0
 11
75.1321
 21
4.55306
 31
0.0
  0
LINE
  8
0
 62
     0
 10
75.1321
 20
4.55306
 30
0.0
 11
75.088
 21
4.2733
 31
0.0
  0
LINE
  8
0
 62
     0
 10
75.088
 20
4.2733
 30
0.0
 11
75.1321
 21
3.99493
 31
0.0
  0
LINE
  8
0
 62
     0
 10
75.1321
 20
3.99493
 30
0.0
 11
75.2602
 21
3.74414
 31
0.0
  0
LINE
  8
0
 62
     0
 10
75.2602
 20
3.74414
 30
0.0
 11
75.4599
 21
3.5457
 31
0.0
  0
LINE
  8
0
 62
     0
 10
75.4599
 20
3.5457
 30
0.0
 11
75.7107
 21
3.41891
 31
0.0
  0
LINE
  8
0
 62
     0
 10
75.7107
 20
3.41891
 30
0.0
 11
75.989
 21
3.37344
 31
0.0
  0
LINE
  8
0
 62
     0
 10
75.989
 20
3.37344
 30
0.0
 11
76.2663
 21
3.41891
 31
0.0
  0
LINE
  8
0
 62
     0
 10
76.2663
 20
3.41891
 30
0.0
 11
76.5168
 21
3.5457
 31
0.0
  0
LINE
  8
0
 62
     0
 10
76.5168
 20
3.5457
 30
0.0
 11
76.7168
 21
3.74414
 31
0.0
  0
LINE
  8
0
 62
     0
 10
76.7168
 20
3.74414
 30
0.0
 11
76.8449
 21
3.99493
 31
0.0
  0
LINE
  8
0
 62
     0
 10
76.8449
 20
3.99493
 30
0.0
 11
76.889
 21
4.2733
 31
0.0
  0
LINE
  8
0
 62
     0
 10
76.889
 20
4.2733
 30
0.0
 11
76.8449
 21
4.55306
 31
0.0
  0
LINE
  8
0
 62
     0
 10
76.8449
 20
4.55306
 30
0.0
 11
76.7168
 21
4.80385
 31
0.0
  0
LINE
  8
0
 62
     0
 10
76.7168
 20
4.80385
 30
0.0
 11
76.5168
 21
5.00228
 31
0.0
  0
LINE
  8
0
 62
     0
 10
76.5168
 20
5.00228
 30
0.0
 11
76.2663
 21
5.12907
 31
0.0
  0
LINE
  8
0
 62
     0
 10
76.2663
 20
5.12907
 30
0.0
 11
75.989
 21
5.17317
 31
0.0
  0
LINE
  8
0
 62
     0
 10
75.989
 20
5.17317
 30
0.0
 11
75.7107
 21
5.12907
 31
0.0
  0
LINE
  8
0
 62
     0
 10
147.606
 20
5.12907
 30
0.0
 11
147.355
 21
5.00228
 31
0.0
  0
LINE
  8
0
 62
     0
 10
147.355
 20
5.00228
 30
0.0
 11
147.155
 21
4.80385
 31
0.0
  0
LINE
  8
0
 62
     0
 10
147.155
 20
4.80385
 30
0.0
 11
147.027
 21
4.55306
 31
0.0
  0
LINE
  8
0
 62
     0
 10
147.027
 20
4.55306
 30
0.0
 11
146.983
 21
4.2733
 31
0.0
  0
LINE
  8
0
 62
     0
 10
146.983
 20
4.2733
 30
0.0
 11
147.027
 21
3.99493
 31
0.0
  0
LINE
  8
0
 62
     0
 10
147.027
 20
3.99493
 30
0.0
 11
147.155
 21
3.74414
 31
0.0
  0
LINE
  8
0
 62
     0
 10
147.155
 20
3.74414
 30
0.0
 11
147.355
 21
3.5457
 31
0.0
  0
LINE
  8
0
 62
     0
 10
147.355
 20
3.5457
 30
0.0
 11
147.606
 21
3.41891
 31
0.0
  0
LINE
  8
0
 62
     0
 10
147.606
 20
3.41891
 30
0.0
 11
147.884
 21
3.37344
 31
0.0
  0
LINE
  8
0
 62
     0
 10
147.884
 20
3.37344
 30
0.0
 11
148.161
 21
3.41891
 31
0.0
  0
LINE
  8
0
 62
     0
 10
148.161
 20
3.41891
 30
0.0
 11
148.412
 21
3.5457
 31
0.0
  0
LINE
  8
0
 62
     0
 10
148.412
 20
3.5457
 30
0.0
 11
148.612
 21
3.74414
 31
0.0
  0
LINE
  8
0
 62
     0
 10
148.612
 20
3.74414
 30
0.0
 11
148.74
 21
3.99493
 31
0.0
  0
LINE
  8
0
 62
     0
 10
148.74
 20
3.99493
 30
0.0
 11
148.784
 21
4.2733
 31
0.0
  0
LINE
  8
0
 62
     0
 10
148.784
 20
4.2733
 30
0.0
 11
148.74
 21
4.55306
 31
0.0
  0
LINE
  8
0
 62
     0
 10
148.74
 20
4.55306
 30
0.0
 11
148.612
 21
4.80385
 31
0.0
  0
LINE
  8
0
 62
     0
 10
148.612
 20
4.80385
 30
0.0
 11
148.412
 21
5.00228
 31
0.0
  0
LINE
  8
0
 62
     0
 10
148.412
 20
5.00228
 30
0.0
 11
148.161
 21
5.12907
 31
0.0
  0
LINE
  8
0
 62
     0
 10
148.161
 20
5.12907
 30
0.0
 11
147.884
 21
5.17317
 31
0.0
  0
LINE
  8
0
 62
     0
 10
147.884
 20
5.17317
 30
0.0
 11
147.606
 21
5.12907
 31
0.0
  0
LINE
  8
0
 62
     0
 10
219.499
 20
5.12907
 30
0.0
 11
219.25
 21
5.00228
 31
0.0
  0
LINE
  8
0
 62
     0
 10
219.25
 20
5.00228
 30
0.0
 11
219.049
 21
4.80385
 31
0.0
  0
LINE
  8
0
 62
     0
 10
219.049
 20
4.80385
 30
0.0
 11
218.922
 21
4.55306
 31
0.0
  0
LINE
  8
0
 62
     0
 10
218.922
 20
4.55306
 30
0.0
 11
218.878
 21
4.2733
 31
0.0
  0
LINE
  8
0
 62
     0
 10
218.878
 20
4.2733
 30
0.0
 11
218.922
 21
3.99493
 31
0.0
  0
LINE
  8
0
 62
     0
 10
218.922
 20
3.99493
 30
0.0
 11
219.049
 21
3.74414
 31
0.0
  0
LINE
  8
0
 62
     0
 10
219.049
 20
3.74414
 30
0.0
 11
219.25
 21
3.5457
 31
0.0
  0
LINE
  8
0
 62
     0
 10
219.25
 20
3.5457
 30
0.0
 11
219.499
 21
3.41891
 31
0.0
  0
LINE
  8
0
 62
     0
 10
219.499
 20
3.41891
 30
0.0
 11
219.778
 21
3.37344
 31
0.0
  0
LINE
  8
0
 62
     0
 10
219.778
 20
3.37344
 30
0.0
 11
220.056
 21
3.41891
 31
0.0
  0
LINE
  8
0
 62
     0
 10
220.056
 20
3.41891
 30
0.0
 11
220.307
 21
3.5457
 31
0.0
  0
LINE
  8
0
 62
     0
 10
220.307
 20
3.5457
 30
0.0
 11
220.507
 21
3.74414
 31
0.0
  0
LINE
  8
0
 62
     0
 10
220.507
 20
3.74414
 30
0.0
 11
220.635
 21
3.99493
 31
0.0
  0
LINE
  8
0
 62
     0
 10
220.635
 20
3.99493
 30
0.0
 11
220.679
 21
4.2733
 31
0.0
  0
LINE
  8
0
 62
     0
 10
220.679
 20
4.2733
 30
0.0
 11
220.635
 21
4.55306
 31
0.0
  0
LINE
  8
0
 62
     0
 10
220.635
 20
4.55306
 30
0.0
 11
220.507
 21
4.80385
 31
0.0
  0
LINE
  8
0
 62
     0
 10
220.507
 20
4.80385
 30
0.0
 11
220.307
 21
5.00228
 31
0.0
  0
LINE
  8
0
 62
     0
 10
220.307
 20
5.00228
 30
0.0
 11
220.056
 21
5.12907
 31
0.0
  0
LINE
  8
0
 62
     0
 10
220.056
 20
5.12907
 30
0.0
 11
219.778
 21
5.17317
 31
0.0
  0
LINE
  8
0
 62
     0
 10
219.778
 20
5.17317
 30
0.0
 11
219.499
 21
5.12907
 31
0.0
  0
LINE
  8
0
 62
     0
 10
291.394
 20
5.12907
 30
0.0
 11
291.144
 21
5.00228
 31
0.0
  0
LINE
  8
0
 62
     0
 10
291.144
 20
5.00228
 30
0.0
 11
290.944
 21
4.80385
 31
0.0
  0
LINE
  8
0
 62
     0
 10
290.944
 20
4.80385
 30
0.0
 11
290.817
 21
4.55306
 31
0.0
  0
LINE
  8
0
 62
     0
 10
290.817
 20
4.55306
 30
0.0
 11
290.773
 21
4.2733
 31
0.0
  0
LINE
  8
0
 62
     0
 10
290.773
 20
4.2733
 30
0.0
 11
290.817
 21
3.99493
 31
0.0
  0
LINE
  8
0
 62
     0
 10
290.817
 20
3.99493
 30
0.0
 11
290.944
 21
3.74414
 31
0.0
  0
LINE
  8
0
 62
     0
 10
290.944
 20
3.74414
 30
0.0
 11
291.144
 21
3.5457
 31
0.0
  0
LINE
  8
0
 62
     0
 10
291.144
 20
3.5457
 30
0.0
 11
291.394
 21
3.41891
 31
0.0
  0
LINE
  8
0
 62
     0
 10
291.394
 20
3.41891
 30
0.0
 11
291.673
 21
3.37344
 31
0.0
  0
LINE
  8
0
 62
     0
 10
291.673
 20
3.37344
 30
0.0
 11
291.95
 21
3.41891
 31
0.0
  0
LINE
  8
0
 62
     0
 10
291.95
 20
3.41891
 30
0.0
 11
292.202
 21
3.5457
 31
0.0
  0
LINE
  8
0
 62
     0
 10
292.202
 20
3.5457
 30
0.0
 11
292.401
 21
3.74414
 31
0.0
  0
LINE
  8
0
 62
     0
 10
292.401
 20
3.74414
 30
0.0
 11
292.529
 21
3.99493
 31
0.0
  0
LINE
  8
0
 62
     0
 10
292.529
 20
3.99493
 30
0.0
 11
292.573
 21
4.2733
 31
0.0
  0
LINE
  8
0
 62
     0
 10
292.573
 20
4.2733
 30
0.0
 11
292.529
 21
4.55306
 31
0.0
  0
LINE
  8
0
 62
     0
 10
292.529
 20
4.55306
 30
0.0
 11
292.401
 21
4.80385
 31
0.0
  0
LINE
  8
0
 62
     0
 10
292.401
 20
4.80385
 30
0.0
 11
292.202
 21
5.00228
 31
0.0
  0
LINE
  8
0
 62
     0
 10
292.202
 20
5.00228
 30
0.0
 11
291.95
 21
5.12907
 31
0.0
  0
LINE
  8
0
 62
     0
 10
291.95
 20
5.12907
 30
0.0
 11
291.673
 21
5.17317
 31
0.0
  0
LINE
  8
0
 62
     0
 10
291.673
 20
5.17317
 30
0.0
 11
291.394
 21
5.12907
 31
0.0
  0
LINE
  8
0
 62
     0
 10
363.291
 20
5.12907
 30
0.0
 11
363.04
 21
5.00228
 31
0.0
  0
LINE
  8
0
 62
     0
 10
363.04
 20
5.00228
 30
0.0
 11
362.839
 21
4.80385
 31
0.0
  0
LINE
  8
0
 62
     0
 10
362.839
 20
4.80385
 30
0.0
 11
362.712
 21
4.55306
 31
0.0
  0
LINE
  8
0
 62
     0
 10
362.712
 20
4.55306
 30
0.0
 11
362.67
 21
4.2733
 31
0.0
  0
LINE
  8
0
 62
     0
 10
362.67
 20
4.2733
 30
0.0
 11
362.712
 21
3.99493
 31
0.0
  0
LINE
  8
0
 62
     0
 10
362.712
 20
3.99493
 30
0.0
 11
362.839
 21
3.74414
 31
0.0
  0
LINE
  8
0
 62
     0
 10
362.839
 20
3.74414
 30
0.0
 11
363.04
 21
3.5457
 31
0.0
  0
LINE
  8
0
 62
     0
 10
363.04
 20
3.5457
 30
0.0
 11
363.291
 21
3.41891
 31
0.0
  0
LINE
  8
0
 62
     0
 10
363.291
 20
3.41891
 30
0.0
 11
363.569
 21
3.37344
 31
0.0
  0
LINE
  8
0
 62
     0
 10
363.569
 20
3.37344
 30
0.0
 11
363.844
 21
3.41891
 31
0.0
  0
LINE
  8
0
 62
     0
 10
363.844
 20
3.41891
 30
0.0
 11
364.098
 21
3.5457
 31
0.0
  0
LINE
  8
0
 62
     0
 10
364.098
 20
3.5457
 30
0.0
 11
364.296
 21
3.74414
 31
0.0
  0
LINE
  8
0
 62
     0
 10
364.296
 20
3.74414
 30
0.0
 11
364.423
 21
3.99493
 31
0.0
  0
LINE
  8
0
 62
     0
 10
364.423
 20
3.99493
 30
0.0
 11
364.469
 21
4.2733
 31
0.0
  0
LINE
  8
0
 62
     0
 10
364.469
 20
4.2733
 30
0.0
 11
364.423
 21
4.55306
 31
0.0
  0
LINE
  8
0
 62
     0
 10
364.423
 20
4.55306
 30
0.0
 11
364.296
 21
4.80385
 31
0.0
  0
LINE
  8
0
 62
     0
 10
364.296
 20
4.80385
 30
0.0
 11
364.098
 21
5.00228
 31
0.0
  0
LINE
  8
0
 62
     0
 10
364.098
 20
5.00228
 30
0.0
 11
363.844
 21
5.12907
 31
0.0
  0
LINE
  8
0
 62
     0
 10
363.844
 20
5.12907
 30
0.0
 11
363.569
 21
5.17317
 31
0.0
  0
LINE
  8
0
 62
     0
 10
363.569
 20
5.17317
 30
0.0
 11
363.291
 21
5.12907
 31
0.0
  0
LINE
  8
0
 62
     0
 10
131.917
 20
27.3251
 30
0.0
 11
189.071
 21
27.3251
 31
0.0
  0
LINE
  8
0
 62
     0
 10
189.071
 20
27.3251
 30
0.0
 11
189.071
 21
8.27373
 31
0.0
  0
LINE
  8
0
 62
     0
 10
189.071
 20
8.27373
 30
0.0
 11
131.917
 21
8.27373
 31
0.0
  0
LINE
  8
0
 62
     0
 10
131.917
 20
8.27373
 30
0.0
 11
131.917
 21
27.3251
 31
0.0
  0
LINE
  8
0
 62
     0
 10
250.028
 20
142.579
 30
0.0
 11
250.028
 21
123.963
 31
0.0
  0
LINE
  8
0
 62
     0
 10
250.028
 20
123.963
 30
0.0
 11
246.976
 21
138.322
 31
0.0
  0
LINE
  8
0
 62
     0
 10
246.976
 20
138.322
 30
0.0
 11
228.342
 21
134.36
 31
0.0
  0
LINE
  8
0
 62
     0
 10
228.342
 20
134.36
 30
0.0
 11
228.342
 21
134.361
 31
0.0
  0
LINE
  8
0
 62
     0
 10
228.342
 20
134.361
 30
0.0
 11
209.708
 21
130.4
 31
0.0
  0
LINE
  8
0
 62
     0
 10
209.708
 20
130.4
 30
0.0
 11
209.708
 21
130.401
 31
0.0
  0
LINE
  8
0
 62
     0
 10
209.708
 20
130.401
 30
0.0
 11
172.44
 21
122.479
 31
0.0
  0
LINE
  8
0
 62
     0
 10
172.44
 20
122.479
 30
0.0
 11
176.4
 21
103.845
 31
0.0
  0
LINE
  8
0
 62
     0
 10
176.4
 20
103.845
 30
0.0
 11
167.083
 21
101.865
 31
0.0
  0
LINE
  8
0
 62
     0
 10
167.083
 20
101.865
 30
0.0
 11
171.045
 21
83.228
 31
0.0
  0
LINE
  8
0
 62
     0
 10
171.045
 20
83.228
 30
0.0
 11
175.703
 21
84.2186
 31
0.0
  0
LINE
  8
0
 62
     0
 10
175.703
 20
84.2186
 30
0.0
 11
179.663
 21
65.5863
 31
0.0
  0
LINE
  8
0
 62
     0
 10
179.663
 20
65.5863
 30
0.0
 11
165.687
 21
62.6166
 31
0.0
  0
LINE
  8
0
 62
     0
 10
165.687
 20
62.6166
 30
0.0
 11
169.649
 21
43.9801
 31
0.0
  0
LINE
  8
0
 62
     0
 10
169.649
 20
43.9801
 30
0.0
 11
178.966
 21
45.9617
 31
0.0
  0
LINE
  8
0
 62
     0
 10
178.966
 20
45.9617
 30
0.0
 11
182.926
 21
27.3279
 31
0.0
  0
LINE
  8
0
 62
     0
 10
182.926
 20
27.3279
 30
0.0
 11
243.487
 21
40.2001
 31
0.0
  0
LINE
  8
0
 62
     0
 10
243.487
 20
40.2001
 30
0.0
 11
243.487
 21
40.1987
 31
0.0
  0
LINE
  8
0
 62
     0
 10
243.487
 20
40.1987
 30
0.0
 11
266.78
 21
45.1513
 31
0.0
  0
LINE
  8
0
 62
     0
 10
266.78
 20
45.1513
 30
0.0
 11
258.859
 21
82.4205
 31
0.0
  0
LINE
  8
0
 62
     0
 10
258.859
 20
82.4205
 30
0.0
 11
254.2
 21
81.431
 31
0.0
  0
LINE
  8
0
 62
     0
 10
254.2
 20
81.431
 30
0.0
 11
250.241
 21
100.062
 31
0.0
  0
LINE
  8
0
 62
     0
 10
250.241
 20
100.062
 30
0.0
 11
254.791
 21
101.03
 31
0.0
  0
LINE
  8
0
 62
     0
 10
254.791
 20
101.03
 30
0.0
 11
254.791
 21
82.568
 31
0.0
  0
LINE
  8
0
 62
     0
 10
254.791
 20
82.568
 30
0.0
 11
264.316
 21
82.568
 31
0.0
  0
LINE
  8
0
 62
     0
 10
264.316
 20
82.568
 30
0.0
 11
264.316
 21
63.518
 31
0.0
  0
LINE
  8
0
 62
     0
 10
264.316
 20
63.518
 30
0.0
 11
270.031
 21
63.518
 31
0.0
  0
LINE
  8
0
 62
     0
 10
270.031
 20
63.518
 30
0.0
 11
270.031
 21
44.468
 31
0.0
  0
LINE
  8
0
 62
     0
 10
270.031
 20
44.468
 30
0.0
 11
293.846
 21
44.468
 31
0.0
  0
LINE
  8
0
 62
     0
 10
293.846
 20
44.468
 30
0.0
 11
293.846
 21
63.518
 31
0.0
  0
LINE
  8
0
 62
     0
 10
293.846
 20
63.518
 30
0.0
 11
316.705
 21
63.518
 31
0.0
  0
LINE
  8
0
 62
     0
 10
316.705
 20
63.518
 30
0.0
 11
316.705
 21
82.568
 31
0.0
  0
LINE
  8
0
 62
     0
 10
316.705
 20
82.568
 30
0.0
 11
335.755
 21
82.568
 31
0.0
  0
LINE
  8
0
 62
     0
 10
335.755
 20
82.568
 30
0.0
 11
335.755
 21
101.621
 31
0.0
  0
LINE
  8
0
 62
     0
 10
335.755
 20
101.621
 30
0.0
 11
330.992
 21
101.621
 31
0.0
  0
LINE
  8
0
 62
     0
 10
330.992
 20
101.621
 30
0.0
 11
330.992
 21
120.671
 31
0.0
  0
LINE
  8
0
 62
     0
 10
330.992
 20
120.671
 30
0.0
 11
326.23
 21
120.671
 31
0.0
  0
LINE
  8
0
 62
     0
 10
326.23
 20
120.671
 30
0.0
 11
326.23
 21
139.721
 31
0.0
  0
LINE
  8
0
 62
     0
 10
326.23
 20
139.721
 30
0.0
 11
269.08
 21
139.721
 31
0.0
  0
LINE
  8
0
 62
     0
 10
269.08
 20
139.721
 30
0.0
 11
269.08
 21
142.579
 31
0.0
  0
LINE
  8
0
 62
     0
 10
269.08
 20
142.579
 30
0.0
 11
250.028
 21
142.579
 31
0.0
  0
LINE
  8
0
 62
     0
 10
79.6452
 20
120.831
 30
0.0
 11
70.327
 21
122.811
 31
0.0
  0
LINE
  8
0
 62
     0
 10
70.327
 20
122.811
 30
0.0
 11
66.3663
 21
104.176
 31
0.0
  0
LINE
  8
0
 62
     0
 10
66.3663
 20
104.176
 30
0.0
 11
71.0255
 21
103.185
 31
0.0
  0
LINE
  8
0
 62
     0
 10
71.0255
 20
103.185
 30
0.0
 11
67.0648
 21
84.551
 31
0.0
  0
LINE
  8
0
 62
     0
 10
67.0648
 20
84.551
 30
0.0
 11
76.382
 21
82.5722
 31
0.0
  0
LINE
  8
0
 62
     0
 10
76.382
 20
82.5722
 30
0.0
 11
72.42
 21
63.9367
 31
0.0
  0
LINE
  8
0
 62
     0
 10
72.42
 20
63.9367
 30
0.0
 11
72.4214
 21
63.9367
 31
0.0
  0
LINE
  8
0
 62
     0
 10
72.4214
 20
63.9367
 30
0.0
 11
68.4597
 21
45.303
 31
0.0
  0
LINE
  8
0
 62
     0
 10
68.4597
 20
45.303
 30
0.0
 11
133.679
 21
31.4399
 31
0.0
  0
LINE
  8
0
 62
     0
 10
133.679
 20
31.4399
 30
0.0
 11
133.679
 21
31.4413
 31
0.0
  0
LINE
  8
0
 62
     0
 10
133.679
 20
31.4413
 30
0.0
 11
152.313
 21
27.4808
 31
0.0
  0
LINE
  8
0
 62
     0
 10
152.313
 20
27.4808
 30
0.0
 11
156.275
 21
46.1162
 31
0.0
  0
LINE
  8
0
 62
     0
 10
156.275
 20
46.1162
 30
0.0
 11
146.958
 21
48.0949
 31
0.0
  0
LINE
  8
0
 62
     0
 10
146.958
 20
48.0949
 30
0.0
 11
150.919
 21
66.7286
 31
0.0
  0
LINE
  8
0
 62
     0
 10
150.919
 20
66.7286
 30
0.0
 11
141.602
 21
68.7091
 31
0.0
  0
LINE
  8
0
 62
     0
 10
141.602
 20
68.7091
 30
0.0
 11
145.562
 21
87.3428
 31
0.0
  0
LINE
  8
0
 62
     0
 10
145.562
 20
87.3428
 30
0.0
 11
140.903
 21
88.3338
 31
0.0
  0
LINE
  8
0
 62
     0
 10
140.903
 20
88.3338
 30
0.0
 11
144.865
 21
106.966
 31
0.0
  0
LINE
  8
0
 62
     0
 10
144.865
 20
106.966
 30
0.0
 11
154.182
 21
104.986
 31
0.0
  0
LINE
  8
0
 62
     0
 10
154.182
 20
104.986
 30
0.0
 11
158.142
 21
123.621
 31
0.0
  0
LINE
  8
0
 62
     0
 10
158.142
 20
123.621
 30
0.0
 11
139.507
 21
127.583
 31
0.0
  0
LINE
  8
0
 62
     0
 10
139.507
 20
127.583
 30
0.0
 11
139.507
 21
127.581
 31
0.0
  0
LINE
  8
0
 62
     0
 10
139.507
 20
127.581
 30
0.0
 11
83.6055
 21
139.464
 31
0.0
  0
LINE
  8
0
 62
     0
 10
83.6055
 20
139.464
 30
0.0
 11
79.6452
 21
120.831
 31
0.0
  0
LINE
  8
0
 62
     0
 10
321.466
 20
77.8083
 30
0.0
 11
321.466
 21
58.7583
 31
0.0
  0
LINE
  8
0
 62
     0
 10
321.466
 20
58.7583
 30
0.0
 11
302.416
 21
58.7583
 31
0.0
  0
LINE
  8
0
 62
     0
 10
302.416
 20
58.7583
 30
0.0
 11
302.416
 21
39.7069
 31
0.0
  0
LINE
  8
0
 62
     0
 10
302.416
 20
39.7069
 30
0.0
 11
359.569
 21
39.7069
 31
0.0
  0
LINE
  8
0
 62
     0
 10
359.569
 20
39.7069
 30
0.0
 11
359.569
 21
58.7583
 31
0.0
  0
LINE
  8
0
 62
     0
 10
359.569
 20
58.7583
 30
0.0
 11
340.517
 21
58.7583
 31
0.0
  0
LINE
  8
0
 62
     0
 10
340.517
 20
58.7583
 30
0.0
 11
340.517
 21
77.8083
 31
0.0
  0
LINE
  8
0
 62
     0
 10
340.517
 20
77.8083
 30
0.0
 11
321.466
 21
77.8083
 31
0.0
  0
LINE
  8
0
 62
     0
 10
60.4795
 20
142.579
 30
0.0
 11
60.4795
 21
139.721
 31
0.0
  0
LINE
  8
0
 62
     0
 10
60.4795
 20
139.721
 30
0.0
 11
22.3807
 21
139.721
 31
0.0
  0
LINE
  8
0
 62
     0
 10
22.3807
 20
139.721
 30
0.0
 11
22.3807
 21
120.671
 31
0.0
  0
LINE
  8
0
 62
     0
 10
22.3807
 20
120.671
 30
0.0
 11
17.6182
 21
120.671
 31
0.0
  0
LINE
  8
0
 62
     0
 10
17.6182
 20
120.671
 30
0.0
 11
17.6182
 21
101.621
 31
0.0
  0
LINE
  8
0
 62
     0
 10
17.6182
 20
101.621
 30
0.0
 11
12.8557
 21
101.621
 31
0.0
  0
LINE
  8
0
 62
     0
 10
12.8557
 20
101.621
 30
0.0
 11
12.8557
 21
82.5708
 31
0.0
  0
LINE
  8
0
 62
     0
 10
12.8557
 20
82.5708
 30
0.0
 11
8.09322
 21
82.5708
 31
0.0
  0
LINE
  8
0
 62
     0
 10
8.09322
 20
82.5708
 30
0.0
 11
8.09322
 21
44.468
 31
0.0
  0
LINE
  8
0
 62
     0
 10
8.09322
 20
44.468
 30
0.0
 11
60.482
 21
44.468
 31
0.0
  0
LINE
  8
0
 62
     0
 10
60.482
 20
44.468
 30
0.0
 11
60.482
 21
63.518
 31
0.0
  0
LINE
  8
0
 62
     0
 10
60.482
 20
63.518
 30
0.0
 11
70.007
 21
63.518
 31
0.0
  0
LINE
  8
0
 62
     0
 10
70.007
 20
63.518
 30
0.0
 11
70.007
 21
82.5708
 31
0.0
  0
LINE
  8
0
 62
     0
 10
70.007
 20
82.5708
 30
0.0
 11
65.2459
 21
82.5708
 31
0.0
  0
LINE
  8
0
 62
     0
 10
65.2459
 20
82.5708
 30
0.0
 11
65.2459
 21
120.671
 31
0.0
  0
LINE
  8
0
 62
     0
 10
65.2459
 20
120.671
 30
0.0
 11
60.482
 21
120.671
 31
0.0
  0
LINE
  8
0
 62
     0
 10
60.482
 20
120.671
 30
0.0
 11
60.482
 21
123.526
 31
0.0
  0
LINE
  8
0
 62
     0
 10
60.482
 20
123.526
 30
0.0
 11
79.532
 21
123.526
 31
0.0
  0
LINE
  8
0
 62
     0
 10
79.532
 20
123.526
 30
0.0
 11
79.532
 21
142.579
 31
0.0
  0
LINE
  8
0
 62
     0
 10
79.532
 20
142.579
 30
0.0
 11
60.4795
 21
142.579
 31
0.0
  0
LINE
  8
0
 62
     0
 10
326.227
 20
163.533
 30
0.0
 11
326.227
 21
144.482
 31
0.0
  0
LINE
  8
0
 62
     0
 10
326.227
 20
144.482
 30
0.0
 11
330.991
 21
144.482
 31
0.0
  0
LINE
  8
0
 62
     0
 10
330.991
 20
144.482
 30
0.0
 11
330.991
 21
125.432
 31
0.0
  0
LINE
  8
0
 62
     0
 10
330.991
 20
125.432
 30
0.0
 11
335.753
 21
125.432
 31
0.0
  0
LINE
  8
0
 62
     0
 10
335.753
 20
125.432
 30
0.0
 11
335.753
 21
106.382
 31
0.0
  0
LINE
  8
0
 62
     0
 10
335.753
 20
106.382
 30
0.0
 11
340.516
 21
106.382
 31
0.0
  0
LINE
  8
0
 62
     0
 10
340.516
 20
106.382
 30
0.0
 11
340.516
 21
87.3319
 31
0.0
  0
LINE
  8
0
 62
     0
 10
340.516
 20
87.3319
 30
0.0
 11
359.569
 21
87.3319
 31
0.0
  0
LINE
  8
0
 62
     0
 10
359.569
 20
87.3319
 30
0.0
 11
359.569
 21
106.383
 31
0.0
  0
LINE
  8
0
 62
     0
 10
359.569
 20
106.383
 30
0.0
 11
354.806
 21
106.383
 31
0.0
  0
LINE
  8
0
 62
     0
 10
354.806
 20
106.383
 30
0.0
 11
354.806
 21
125.433
 31
0.0
  0
LINE
  8
0
 62
     0
 10
354.806
 20
125.433
 30
0.0
 11
350.042
 21
125.433
 31
0.0
  0
LINE
  8
0
 62
     0
 10
350.042
 20
125.433
 30
0.0
 11
350.042
 21
144.483
 31
0.0
  0
LINE
  8
0
 62
     0
 10
350.042
 20
144.483
 30
0.0
 11
345.28
 21
144.483
 31
0.0
  0
LINE
  8
0
 62
     0
 10
345.28
 20
144.483
 30
0.0
 11
345.28
 21
163.533
 31
0.0
  0
LINE
  8
0
 62
     0
 10
345.28
 20
163.533
 30
0.0
 11
326.227
 21
163.533
 31
0.0
  0
LINE
  8
0
 62
     0
 10
3.81579
 20
89.1399
 30
0.0
 11
3.565
 21
89.0129
 31
0.0
  0
LINE
  8
0
 62
     0
 10
3.565
 20
89.0129
 30
0.0
 11
3.36517
 21
88.8132
 31
0.0
  0
LINE
  8
0
 62
     0
 10
3.36517
 20
88.8132
 30
0.0
 11
3.23839
 21
88.5624
 31
0.0
  0
LINE
  8
0
 62
     0
 10
3.23839
 20
88.5624
 30
0.0
 11
3.19429
 21
88.284
 31
0.0
  0
LINE
  8
0
 62
     0
 10
3.19429
 20
88.284
 30
0.0
 11
3.23839
 21
88.0071
 31
0.0
  0
LINE
  8
0
 62
     0
 10
3.23839
 20
88.0071
 30
0.0
 11
3.36517
 21
87.7549
 31
0.0
  0
LINE
  8
0
 62
     0
 10
3.36517
 20
87.7549
 30
0.0
 11
3.565
 21
87.5563
 31
0.0
  0
LINE
  8
0
 62
     0
 10
3.565
 20
87.5563
 30
0.0
 11
3.81579
 21
87.4282
 31
0.0
  0
LINE
  8
0
 62
     0
 10
3.81579
 20
87.4282
 30
0.0
 11
4.09416
 21
87.3841
 31
0.0
  0
LINE
  8
0
 62
     0
 10
4.09416
 20
87.3841
 30
0.0
 11
4.3725
 21
87.4282
 31
0.0
  0
LINE
  8
0
 62
     0
 10
4.3725
 20
87.4282
 30
0.0
 11
4.62333
 21
87.5563
 31
0.0
  0
LINE
  8
0
 62
     0
 10
4.62333
 20
87.5563
 30
0.0
 11
4.82314
 21
87.7549
 31
0.0
  0
LINE
  8
0
 62
     0
 10
4.82314
 20
87.7549
 30
0.0
 11
4.94993
 21
88.0071
 31
0.0
  0
LINE
  8
0
 62
     0
 10
4.94993
 20
88.0071
 30
0.0
 11
4.99403
 21
88.284
 31
0.0
  0
LINE
  8
0
 62
     0
 10
4.99403
 20
88.284
 30
0.0
 11
4.94993
 21
88.5624
 31
0.0
  0
LINE
  8
0
 62
     0
 10
4.94993
 20
88.5624
 30
0.0
 11
4.82314
 21
88.8132
 31
0.0
  0
LINE
  8
0
 62
     0
 10
4.82314
 20
88.8132
 30
0.0
 11
4.62333
 21
89.0129
 31
0.0
  0
LINE
  8
0
 62
     0
 10
4.62333
 20
89.0129
 30
0.0
 11
4.3725
 21
89.1399
 31
0.0
  0
LINE
  8
0
 62
     0
 10
4.3725
 20
89.1399
 30
0.0
 11
4.09416
 21
89.184
 31
0.0
  0
LINE
  8
0
 62
     0
 10
4.09416
 20
89.184
 30
0.0
 11
3.81579
 21
89.1399
 31
0.0
  0
LINE
  8
0
 62
     0
 10
363.291
 20
89.1399
 30
0.0
 11
363.04
 21
89.0129
 31
0.0
  0
LINE
  8
0
 62
     0
 10
363.04
 20
89.0129
 30
0.0
 11
362.839
 21
88.8132
 31
0.0
  0
LINE
  8
0
 62
     0
 10
362.839
 20
88.8132
 30
0.0
 11
362.712
 21
88.5624
 31
0.0
  0
LINE
  8
0
 62
     0
 10
362.712
 20
88.5624
 30
0.0
 11
362.67
 21
88.284
 31
0.0
  0
LINE
  8
0
 62
     0
 10
362.67
 20
88.284
 30
0.0
 11
362.712
 21
88.0071
 31
0.0
  0
LINE
  8
0
 62
     0
 10
362.712
 20
88.0071
 30
0.0
 11
362.839
 21
87.7549
 31
0.0
  0
LINE
  8
0
 62
     0
 10
362.839
 20
87.7549
 30
0.0
 11
363.04
 21
87.5563
 31
0.0
  0
LINE
  8
0
 62
     0
 10
363.04
 20
87.5563
 30
0.0
 11
363.291
 21
87.4282
 31
0.0
  0
LINE
  8
0
 62
     0
 10
363.291
 20
87.4282
 30
0.0
 11
363.569
 21
87.3841
 31
0.0
  0
LINE
  8
0
 62
     0
 10
363.569
 20
87.3841
 30
0.0
 11
363.844
 21
87.4282
 31
0.0
  0
LINE
  8
0
 62
     0
 10
363.844
 20
87.4282
 30
0.0
 11
364.098
 21
87.5563
 31
0.0
  0
LINE
  8
0
 62
     0
 10
364.098
 20
87.5563
 30
0.0
 11
364.296
 21
87.7549
 31
0.0
  0
LINE
  8
0
 62
     0
 10
364.296
 20
87.7549
 30
0.0
 11
364.423
 21
88.0071
 31
0.0
  0
LINE
  8
0
 62
     0
 10
364.423
 20
88.0071
 30
0.0
 11
364.469
 21
88.284
 31
0.0
  0
LINE
  8
0
 62
     0
 10
364.469
 20
88.284
 30
0.0
 11
364.423
 21
88.5624
 31
0.0
  0
LINE
  8
0
 62
     0
 10
364.423
 20
88.5624
 30
0.0
 11
364.296
 21
88.8132
 31
0.0
  0
LINE
  8
0
 62
     0
 10
364.296
 20
88.8132
 30
0.0
 11
364.098
 21
89.0129
 31
0.0
  0
LINE
  8
0
 62
     0
 10
364.098
 20
89.0129
 30
0.0
 11
363.844
 21
89.1399
 31
0.0
  0
LINE
  8
0
 62
     0
 10
363.844
 20
89.1399
 30
0.0
 11
363.569
 21
89.184
 31
0.0
  0
LINE
  8
0
 62
     0
 10
363.569
 20
89.184
 30
0.0
 11
363.291
 21
89.1399
 31
0.0
  0
LINE
  8
0
 62
     0
 10
269.078
 20
120.671
 30
0.0
 11
264.316
 21
120.671
 31
0.0
  0
LINE
  8
0
 62
     0
 10
264.316
 20
120.671
 30
0.0
 11
264.316
 21
101.621
 31
0.0
  0
LINE
  8
0
 62
     0
 10
264.316
 20
101.621
 30
0.0
 11
257.572
 21
101.621
 31
0.0
  0
LINE
  8
0
 62
     0
 10
257.572
 20
101.621
 30
0.0
 11
264.214
 21
103.032
 31
0.0
  0
LINE
  8
0
 62
     0
 10
264.214
 20
103.032
 30
0.0
 11
260.254
 21
121.668
 31
0.0
  0
LINE
  8
0
 62
     0
 10
260.254
 20
121.668
 30
0.0
 11
250.938
 21
119.688
 31
0.0
  0
LINE
  8
0
 62
     0
 10
250.938
 20
119.688
 30
0.0
 11
250.121
 21
123.526
 31
0.0
  0
LINE
  8
0
 62
     0
 10
250.121
 20
123.526
 30
0.0
 11
269.078
 21
123.526
 31
0.0
  0
LINE
  8
0
 62
     0
 10
269.078
 20
123.526
 30
0.0
 11
269.078
 21
120.671
 31
0.0
  0
LINE
  8
0
 62
     0
 10
172.146
 20
146.761
 30
0.0
 11
176.109
 21
128.126
 31
0.0
  0
LINE
  8
0
 62
     0
 10
176.109
 20
128.126
 30
0.0
 11
194.741
 21
132.086
 31
0.0
  0
LINE
  8
0
 62
     0
 10
194.741
 20
132.086
 30
0.0
 11
194.741
 21
132.085
 31
0.0
  0
LINE
  8
0
 62
     0
 10
194.741
 20
132.085
 30
0.0
 11
213.377
 21
136.047
 31
0.0
  0
LINE
  8
0
 62
     0
 10
213.377
 20
136.047
 30
0.0
 11
209.416
 21
154.682
 31
0.0
  0
LINE
  8
0
 62
     0
 10
209.416
 20
154.682
 30
0.0
 11
172.146
 21
146.761
 31
0.0
  0
LINE
  8
0
 62
     0
 10
117.205
 20
137.189
 30
0.0
 11
154.474
 21
129.267
 31
0.0
  0
LINE
  8
0
 62
     0
 10
154.474
 20
129.267
 30
0.0
 11
158.434
 21
147.903
 31
0.0
  0
LINE
  8
0
 62
     0
 10
158.434
 20
147.903
 30
0.0
 11
121.165
 21
155.826
 31
0.0
  0
LINE
  8
0
 62
     0
 10
121.165
 20
155.826
 30
0.0
 11
117.205
 21
137.189
 31
0.0
  0
LINE
  8
0
 62
     0
 10
214.073
 20
155.673
 30
0.0
 11
218.033
 21
137.036
 31
0.0
  0
LINE
  8
0
 62
     0
 10
218.033
 20
137.036
 30
0.0
 11
255.304
 21
144.959
 31
0.0
  0
LINE
  8
0
 62
     0
 10
255.304
 20
144.959
 30
0.0
 11
251.343
 21
163.594
 31
0.0
  0
LINE
  8
0
 62
     0
 10
251.343
 20
163.594
 30
0.0
 11
214.073
 21
155.673
 31
0.0
  0
LINE
  8
0
 62
     0
 10
75.2782
 20
146.101
 30
0.0
 11
112.547
 21
138.18
 31
0.0
  0
LINE
  8
0
 62
     0
 10
112.547
 20
138.18
 30
0.0
 11
116.509
 21
156.815
 31
0.0
  0
LINE
  8
0
 62
     0
 10
116.509
 20
156.815
 30
0.0
 11
97.874
 21
160.776
 31
0.0
  0
LINE
  8
0
 62
     0
 10
97.874
 20
160.776
 30
0.0
 11
79.2399
 21
164.736
 31
0.0
  0
LINE
  8
0
 62
     0
 10
79.2399
 20
164.736
 30
0.0
 11
75.2782
 21
146.101
 31
0.0
  0
LINE
  8
0
 62
     0
 10
300.797
 20
163.533
 30
0.0
 11
319.848
 21
163.533
 31
0.0
  0
LINE
  8
0
 62
     0
 10
319.848
 20
163.533
 30
0.0
 11
319.848
 21
144.482
 31
0.0
  0
LINE
  8
0
 62
     0
 10
319.848
 20
144.482
 30
0.0
 11
300.797
 21
144.482
 31
0.0
  0
LINE
  8
0
 62
     0
 10
300.797
 20
144.482
 30
0.0
 11
300.797
 21
163.533
 31
0.0
  0
LINE
  8
0
 62
     0
 10
11.9035
 20
163.533
 30
0.0
 11
30.9549
 21
163.533
 31
0.0
  0
LINE
  8
0
 62
     0
 10
30.9549
 20
163.533
 30
0.0
 11
30.9549
 21
144.482
 31
0.0
  0
LINE
  8
0
 62
     0
 10
30.9549
 20
144.482
 30
0.0
 11
11.9035
 21
144.482
 31
0.0
  0
LINE
  8
0
 62
     0
 10
11.9035
 20
144.482
 30
0.0
 11
11.9035
 21
163.533
 31
0.0
  0
LINE
  8
0
 62
     0
 10
255.743
 20
164.485
 30
0.0
 11
293.846
 21
164.485
 31
0.0
  0
LINE
  8
0
 62
     0
 10
293.846
 20
164.485
 30
0.0
 11
293.846
 21
145.434
 31
0.0
  0
LINE
  8
0
 62
     0
 10
293.846
 20
145.434
 30
0.0
 11
255.743
 21
145.434
 31
0.0
  0
LINE
  8
0
 62
     0
 10
255.743
 20
145.434
 30
0.0
 11
255.743
 21
164.485
 31
0.0
  0
LINE
  8
0
 62
     0
 10
36.6681
 20
164.485
 30
0.0
 11
74.7709
 21
164.485
 31
0.0
  0
LINE
  8
0
 62
     0
 10
74.7709
 20
164.485
 30
0.0
 11
74.7709
 21
145.434
 31
0.0
  0
LINE
  8
0
 62
     0
 10
74.7709
 20
145.434
 30
0.0
 11
36.6681
 21
145.434
 31
0.0
  0
LINE
  8
0
 62
     0
 10
36.6681
 20
145.434
 30
0.0
 11
36.6681
 21
164.485
 31
0.0
  0
LINE
  8
0
 62
     0
 10
3.81579
 20
173.15
 30
0.0
 11
3.565
 21
173.024
 31
0.0
  0
LINE
  8
0
 62
     0
 10
3.565
 20
173.024
 30
0.0
 11
3.36517
 21
172.824
 31
0.0
  0
LINE
  8
0
 62
     0
 10
3.36517
 20
172.824
 30
0.0
 11
3.23839
 21
172.573
 31
0.0
  0
LINE
  8
0
 62
     0
 10
3.23839
 20
172.573
 30
0.0
 11
3.19429
 21
172.295
 31
0.0
  0
LINE
  8
0
 62
     0
 10
3.19429
 20
172.295
 30
0.0
 11
3.23839
 21
172.016
 31
0.0
  0
LINE
  8
0
 62
     0
 10
3.23839
 20
172.016
 30
0.0
 11
3.36517
 21
171.766
 31
0.0
  0
LINE
  8
0
 62
     0
 10
3.36517
 20
171.766
 30
0.0
 11
3.565
 21
171.566
 31
0.0
  0
LINE
  8
0
 62
     0
 10
3.565
 20
171.566
 30
0.0
 11
3.81579
 21
171.439
 31
0.0
  0
LINE
  8
0
 62
     0
 10
3.81579
 20
171.439
 30
0.0
 11
4.09416
 21
171.395
 31
0.0
  0
LINE
  8
0
 62
     0
 10
4.09416
 20
171.395
 30
0.0
 11
4.3725
 21
171.439
 31
0.0
  0
LINE
  8
0
 62
     0
 10
4.3725
 20
171.439
 30
0.0
 11
4.62333
 21
171.566
 31
0.0
  0
LINE
  8
0
 62
     0
 10
4.62333
 20
171.566
 30
0.0
 11
4.82314
 21
171.766
 31
0.0
  0
LINE
  8
0
 62
     0
 10
4.82314
 20
171.766
 30
0.0
 11
4.94993
 21
172.016
 31
0.0
  0
LINE
  8
0
 62
     0
 10
4.94993
 20
172.016
 30
0.0
 11
4.99403
 21
172.295
 31
0.0
  0
LINE
  8
0
 62
     0
 10
4.99403
 20
172.295
 30
0.0
 11
4.94993
 21
172.573
 31
0.0
  0
LINE
  8
0
 62
     0
 10
4.94993
 20
172.573
 30
0.0
 11
4.82314
 21
172.824
 31
0.0
  0
LINE
  8
0
 62
     0
 10
4.82314
 20
172.824
 30
0.0
 11
4.62333
 21
173.024
 31
0.0
  0
LINE
  8
0
 62
     0
 10
4.62333
 20
173.024
 30
0.0
 11
4.3725
 21
173.15
 31
0.0
  0
LINE
  8
0
 62
     0
 10
4.3725
 20
173.15
 30
0.0
 11
4.09416
 21
173.194
 31
0.0
  0
LINE
  8
0
 62
     0
 10
4.09416
 20
173.194
 30
0.0
 11
3.81579
 21
173.15
 31
0.0
  0
LINE
  8
0
 62
     0
 10
363.291
 20
173.15
 30
0.0
 11
363.04
 21
173.024
 31
0.0
  0
LINE
  8
0
 62
     0
 10
363.04
 20
173.024
 30
0.0
 11
362.839
 21
172.824
 31
0.0
  0
LINE
  8
0
 62
     0
 10
362.839
 20
172.824
 30
0.0
 11
362.712
 21
172.573
 31
0.0
  0
LINE
  8
0
 62
     0
 10
362.712
 20
172.573
 30
0.0
 11
362.67
 21
172.295
 31
0.0
  0
LINE
  8
0
 62
     0
 10
362.67
 20
172.295
 30
0.0
 11
362.712
 21
172.016
 31
0.0
  0
LINE
  8
0
 62
     0
 10
362.712
 20
172.016
 30
0.0
 11
362.839
 21
171.766
 31
0.0
  0
LINE
  8
0
 62
     0
 10
362.839
 20
171.766
 30
0.0
 11
363.04
 21
171.566
 31
0.0
  0
LINE
  8
0
 62
     0
 10
363.04
 20
171.566
 30
0.0
 11
363.291
 21
171.439
 31
0.0
  0
LINE
  8
0
 62
     0
 10
363.291
 20
171.439
 30
0.0
 11
363.569
 21
171.395
 31
0.0
  0
LINE
  8
0
 62
     0
 10
363.569
 20
171.395
 30
0.0
 11
363.844
 21
171.439
 31
0.0
  0
LINE
  8
0
 62
     0
 10
363.844
 20
171.439
 30
0.0
 11
364.098
 21
171.566
 31
0.0
  0
LINE
  8
0
 62
     0
 10
364.098
 20
171.566
 30
0.0
 11
364.296
 21
171.766
 31
0.0
  0
LINE
  8
0
 62
     0
 10
364.296
 20
171.766
 30
0.0
 11
364.423
 21
172.016
 31
0.0
  0
LINE
  8
0
 62
     0
 10
364.423
 20
172.016
 30
0.0
 11
364.469
 21
172.295
 31
0.0
  0
LINE
  8
0
 62
     0
 10
364.469
 20
172.295
 30
0.0
 11
364.423
 21
172.573
 31
0.0
  0
LINE
  8
0
 62
     0
 10
364.423
 20
172.573
 30
0.0
 11
364.296
 21
172.824
 31
0.0
  0
LINE
  8
0
 62
     0
 10
364.296
 20
172.824
 30
0.0
 11
364.098
 21
173.024
 31
0.0
  0
LINE
  8
0
 62
     0
 10
364.098
 20
173.024
 30
0.0
 11
363.844
 21
173.15
 31
0.0
  0
LINE
  8
0
 62
     0
 10
363.844
 20
173.15
 30
0.0
 11
363.569
 21
173.194
 31
0.0
  0
LINE
  8
0
 62
     0
 10
363.569
 20
173.194
 30
0.0
 11
363.291
 21
173.15
 31
0.0
  0
LINE
  8
0
 62
     0
 10
291.394
 20
173.15
 30
0.0
 11
291.144
 21
173.024
 31
0.0
  0
LINE
  8
0
 62
     0
 10
291.144
 20
173.024
 30
0.0
 11
290.944
 21
172.824
 31
0.0
  0
LINE
  8
0
 62
     0
 10
290.944
 20
172.824
 30
0.0
 11
290.817
 21
172.573
 31
0.0
  0
LINE
  8
0
 62
     0
 10
290.817
 20
172.573
 30
0.0
 11
290.773
 21
172.295
 31
0.0
  0
LINE
  8
0
 62
     0
 10
290.773
 20
172.295
 30
0.0
 11
290.817
 21
172.016
 31
0.0
  0
LINE
  8
0
 62
     0
 10
290.817
 20
172.016
 30
0.0
 11
290.944
 21
171.766
 31
0.0
  0
LINE
  8
0
 62
     0
 10
290.944
 20
171.766
 30
0.0
 11
291.144
 21
171.566
 31
0.0
  0
LINE
  8
0
 62
     0
 10
291.144
 20
171.566
 30
0.0
 11
291.394
 21
171.439
 31
0.0
  0
LINE
  8
0
 62
     0
 10
291.394
 20
171.439
 30
0.0
 11
291.673
 21
171.395
 31
0.0
  0
LINE
  8
0
 62
     0
 10
291.673
 20
171.395
 30
0.0
 11
291.95
 21
171.439
 31
0.0
  0
LINE
  8
0
 62
     0
 10
291.95
 20
171.439
 30
0.0
 11
292.202
 21
171.566
 31
0.0
  0
LINE
  8
0
 62
     0
 10
292.202
 20
171.566
 30
0.0
 11
292.401
 21
171.766
 31
0.0
  0
LINE
  8
0
 62
     0
 10
292.401
 20
171.766
 30
0.0
 11
292.529
 21
172.016
 31
0.0
  0
LINE
  8
0
 62
     0
 10
292.529
 20
172.016
 30
0.0
 11
292.573
 21
172.295
 31
0.0
  0
LINE
  8
0
 62
     0
 10
292.573
 20
172.295
 30
0.0
 11
292.529
 21
172.573
 31
0.0
  0
LINE
  8
0
 62
     0
 10
292.529
 20
172.573
 30
0.0
 11
292.401
 21
172.824
 31
0.0
  0
LINE
  8
0
 62
     0
 10
292.401
 20
172.824
 30
0.0
 11
292.202
 21
173.024
 31
0.0
  0
LINE
  8
0
 62
     0
 10
292.202
 20
173.024
 30
0.0
 11
291.95
 21
173.15
 31
0.0
  0
LINE
  8
0
 62
     0
 10
291.95
 20
173.15
 30
0.0
 11
291.673
 21
173.194
 31
0.0
  0
LINE
  8
0
 62
     0
 10
291.673
 20
173.194
 30
0.0
 11
291.394
 21
173.15
 31
0.0
  0
LINE
  8
0
 62
     0
 10
219.499
 20
173.15
 30
0.0
 11
219.25
 21
173.024
 31
0.0
  0
LINE
  8
0
 62
     0
 10
219.25
 20
173.024
 30
0.0
 11
219.049
 21
172.824
 31
0.0
  0
LINE
  8
0
 62
     0
 10
219.049
 20
172.824
 30
0.0
 11
218.922
 21
172.573
 31
0.0
  0
LINE
  8
0
 62
     0
 10
218.922
 20
172.573
 30
0.0
 11
218.878
 21
172.295
 31
0.0
  0
LINE
  8
0
 62
     0
 10
218.878
 20
172.295
 30
0.0
 11
218.922
 21
172.016
 31
0.0
  0
LINE
  8
0
 62
     0
 10
218.922
 20
172.016
 30
0.0
 11
219.049
 21
171.766
 31
0.0
  0
LINE
  8
0
 62
     0
 10
219.049
 20
171.766
 30
0.0
 11
219.25
 21
171.566
 31
0.0
  0
LINE
  8
0
 62
     0
 10
219.25
 20
171.566
 30
0.0
 11
219.499
 21
171.439
 31
0.0
  0
LINE
  8
0
 62
     0
 10
219.499
 20
171.439
 30
0.0
 11
219.778
 21
171.395
 31
0.0
  0
LINE
  8
0
 62
     0
 10
219.778
 20
171.395
 30
0.0
 11
220.056
 21
171.439
 31
0.0
  0
LINE
  8
0
 62
     0
 10
220.056
 20
171.439
 30
0.0
 11
220.307
 21
171.566
 31
0.0
  0
LINE
  8
0
 62
     0
 10
220.307
 20
171.566
 30
0.0
 11
220.507
 21
171.766
 31
0.0
  0
LINE
  8
0
 62
     0
 10
220.507
 20
171.766
 30
0.0
 11
220.635
 21
172.016
 31
0.0
  0
LINE
  8
0
 62
     0
 10
220.635
 20
172.016
 30
0.0
 11
220.679
 21
172.295
 31
0.0
  0
LINE
  8
0
 62
     0
 10
220.679
 20
172.295
 30
0.0
 11
220.635
 21
172.573
 31
0.0
  0
LINE
  8
0
 62
     0
 10
220.635
 20
172.573
 30
0.0
 11
220.507
 21
172.824
 31
0.0
  0
LINE
  8
0
 62
     0
 10
220.507
 20
172.824
 30
0.0
 11
220.307
 21
173.024
 31
0.0
  0
LINE
  8
0
 62
     0
 10
220.307
 20
173.024
 30
0.0
 11
220.056
 21
173.15
 31
0.0
  0
LINE
  8
0
 62
     0
 10
220.056
 20
173.15
 30
0.0
 11
219.778
 21
173.194
 31
0.0
  0
LINE
  8
0
 62
     0
 10
219.778
 20
173.194
 30
0.0
 11
219.499
 21
173.15
 31
0.0
  0
LINE
  8
0
 62
     0
 10
147.606
 20
173.15
 30
0.0
 11
147.355
 21
173.024
 31
0.0
  0
LINE
  8
0
 62
     0
 10
147.355
 20
173.024
 30
0.0
 11
147.155
 21
172.824
 31
0.0
  0
LINE
  8
0
 62
     0
 10
147.155
 20
172.824
 30
0.0
 11
147.027
 21
172.573
 31
0.0
  0
LINE
  8
0
 62
     0
 10
147.027
 20
172.573
 30
0.0
 11
146.983
 21
172.295
 31
0.0
  0
LINE
  8
0
 62
     0
 10
146.983
 20
172.295
 30
0.0
 11
147.027
 21
172.016
 31
0.0
  0
LINE
  8
0
 62
     0
 10
147.027
 20
172.016
 30
0.0
 11
147.155
 21
171.766
 31
0.0
  0
LINE
  8
0
 62
     0
 10
147.155
 20
171.766
 30
0.0
 11
147.355
 21
171.566
 31
0.0
  0
LINE
  8
0
 62
     0
 10
147.355
 20
171.566
 30
0.0
 11
147.606
 21
171.439
 31
0.0
  0
LINE
  8
0
 62
     0
 10
147.606
 20
171.439
 30
0.0
 11
147.884
 21
171.395
 31
0.0
  0
LINE
  8
0
 62
     0
 10
147.884
 20
171.395
 30
0.0
 11
148.161
 21
171.439
 31
0.0
  0
LINE
  8
0
 62
     0
 10
148.161
 20
171.439
 30
0.0
 11
148.412
 21
171.566
 31
0.0
  0
LINE
  8
0
 62
     0
 10
148.412
 20
171.566
 30
0.0
 11
148.612
 21
171.766
 31
0.0
  0
LINE
  8
0
 62
     0
 10
148.612
 20
171.766
 30
0.0
 11
148.74
 21
172.016
 31
0.0
  0
LINE
  8
0
 62
     0
 10
148.74
 20
172.016
 30
0.0
 11
148.784
 21
172.295
 31
0.0
  0
LINE
  8
0
 62
     0
 10
148.784
 20
172.295
 30
0.0
 11
148.74
 21
172.573
 31
0.0
  0
LINE
  8
0
 62
     0
 10
148.74
 20
172.573
 30
0.0
 11
148.612
 21
172.824
 31
0.0
  0
LINE
  8
0
 62
     0
 10
148.612
 20
172.824
 30
0.0
 11
148.412
 21
173.024
 31
0.0
  0
LINE
  8
0
 62
     0
 10
148.412
 20
173.024
 30
0.0
 11
148.161
 21
173.15
 31
0.0
  0
LINE
  8
0
 62
     0
 10
148.161
 20
173.15
 30
0.0
 11
147.884
 21
173.194
 31
0.0
  0
LINE
  8
0
 62
     0
 10
147.884
 20
173.194
 30
0.0
 11
147.606
 21
173.15
 31
0.0
  0
LINE
  8
0
 62
     0
 10
75.7107
 20
173.15
 30
0.0
 11
75.4599
 21
173.024
 31
0.0
  0
LINE
  8
0
 62
     0
 10
75.4599
 20
173.024
 30
0.0
 11
75.2602
 21
172.824
 31
0.0
  0
LINE
  8
0
 62
     0
 10
75.2602
 20
172.824
 30
0.0
 11
75.1321
 21
172.573
 31
0.0
  0
LINE
  8
0
 62
     0
 10
75.1321
 20
172.573
 30
0.0
 11
75.088
 21
172.295
 31
0.0
  0
LINE
  8
0
 62
     0
 10
75.088
 20
172.295
 30
0.0
 11
75.1321
 21
172.016
 31
0.0
  0
LINE
  8
0
 62
     0
 10
75.1321
 20
172.016
 30
0.0
 11
75.2602
 21
171.766
 31
0.0
  0
LINE
  8
0
 62
     0
 10
75.2602
 20
171.766
 30
0.0
 11
75.4599
 21
171.566
 31
0.0
  0
LINE
  8
0
 62
     0
 10
75.4599
 20
171.566
 30
0.0
 11
75.7107
 21
171.439
 31
0.0
  0
LINE
  8
0
 62
     0
 10
75.7107
 20
171.439
 30
0.0
 11
75.989
 21
171.395
 31
0.0
  0
LINE
  8
0
 62
     0
 10
75.989
 20
171.395
 30
0.0
 11
76.2663
 21
171.439
 31
0.0
  0
LINE
  8
0
 62
     0
 10
76.2663
 20
171.439
 30
0.0
 11
76.5168
 21
171.566
 31
0.0
  0
LINE
  8
0
 62
     0
 10
76.5168
 20
171.566
 30
0.0
 11
76.7168
 21
171.766
 31
0.0
  0
LINE
  8
0
 62
     0
 10
76.7168
 20
171.766
 30
0.0
 11
76.8449
 21
172.016
 31
0.0
  0
LINE
  8
0
 62
     0
 10
76.8449
 20
172.016
 30
0.0
 11
76.889
 21
172.295
 31
0.0
  0
LINE
  8
0
 62
     0
 10
76.889
 20
172.295
 30
0.0
 11
76.8449
 21
172.573
 31
0.0
  0
LINE
  8
0
 62
     0
 10
76.8449
 20
172.573
 30
0.0
 11
76.7168
 21
172.824
 31
0.0
  0
LINE
  8
0
 62
     0
 10
76.7168
 20
172.824
 30
0.0
 11
76.5168
 21
173.024
 31
0.0
  0
LINE
  8
0
 62
     0
 10
76.5168
 20
173.024
 30
0.0
 11
76.2663
 21
173.15
 31
0.0
  0
LINE
  8
0
 62
     0
 10
76.2663
 20
173.15
 30
0.0
 11
75.989
 21
173.194
 31
0.0
  0
LINE
  8
0
 62
     0
 10
75.989
 20
173.194
 30
0.0
 11
75.7107
 21
173.15
 31
0.0
  0
ENDSEC
  0
EOF
