0
SECTION
2
HEADER
9
$INSUNITS
70
4
9
$INSBASE
10
0.0
20
0.0
30
0.0
9
$EXTMIN
10
0
20
0
9
$EXTMAX
10
228.57500000000002
20
76.17500000000001
0
ENDSEC
0
SECTION
2
TABLES
0
TABLE
2
LTYPE
70
1
0
LTYPE
2
CONTINUOUS
70
64
3
Solid line
72
65
73
0
40
0.0
0
ENDTAB
0
TABLE
2
LAYER
70
1
0
LAYER
2
Layer1
70
64
62
7
6
CONTINUOUS
0
ENDTAB
0
TABLE
2
STYLE
70
0
0
ENDTAB
0
TABLE
2
VIEW
70
0
0
ENDTAB
0
ENDSEC
0
SECTION
2
BLOCKS
0
ENDSEC
0
SECTION
2
ENTITIES
0
POLYLINE
5
153f
8
Layer1
66
1
10
0.0
20
0.0
30
0.0
70
1
0
VERTEX
5
1540
8
Layer1
10
0.0000
20
0.0000
30
0.0
0
VERTEX
5
1541
8
Layer1
10
228.5750
20
0.0000
30
0.0
0
VERTEX
5
1542
8
Layer1
10
228.5750
20
76.1750
30
0.0
0
VERTEX
5
1543
8
Layer1
10
0.0000
20
76.1750
30
0.0
0
VERTEX
5
1544
8
Layer1
10
0.0000
20
0.0000
30
0.0
0
SEQEND
5
1545
8
Layer1
0
POLYLINE
5
1546
8
Layer1
66
1
10
0.0
20
0.0
30
0.0
70
1
0
VERTEX
5
1547
8
Layer1
10
16.5250
20
73.6500
30
0.0
0
VERTEX
5
1548
8
Layer1
10
2.5250
20
73.6500
30
0.0
0
VERTEX
5
1549
8
Layer1
10
2.5250
20
59.6500
30
0.0
0
VERTEX
5
154a
8
Layer1
10
16.5250
20
59.6500
30
0.0
0
VERTEX
5
154b
8
Layer1
10
16.5250
20
73.6500
30
0.0
0
SEQEND
5
154c
8
Layer1
0
POLYLINE
5
154d
8
Layer1
66
1
10
0.0
20
0.0
30
0.0
70
1
0
VERTEX
5
154e
8
Layer1
10
35.5750
20
73.6500
30
0.0
0
VERTEX
5
154f
8
Layer1
10
21.5750
20
73.6500
30
0.0
0
VERTEX
5
1550
8
Layer1
10
21.5750
20
59.6500
30
0.0
0
VERTEX
5
1551
8
Layer1
10
35.5750
20
59.6500
30
0.0
0
VERTEX
5
1552
8
Layer1
10
35.5750
20
73.6500
30
0.0
0
SEQEND
5
1553
8
Layer1
0
POLYLINE
5
1554
8
Layer1
66
1
10
0.0
20
0.0
30
0.0
70
1
0
VERTEX
5
1555
8
Layer1
10
54.6250
20
73.6500
30
0.0
0
VERTEX
5
1556
8
Layer1
10
40.6250
20
73.6500
30
0.0
0
VERTEX
5
1557
8
Layer1
10
40.6250
20
59.6500
30
0.0
0
VERTEX
5
1558
8
Layer1
10
54.6250
20
59.6500
30
0.0
0
VERTEX
5
1559
8
Layer1
10
54.6250
20
73.6500
30
0.0
0
SEQEND
5
155a
8
Layer1
0
POLYLINE
5
155b
8
Layer1
66
1
10
0.0
20
0.0
30
0.0
70
1
0
VERTEX
5
155c
8
Layer1
10
73.6750
20
73.6500
30
0.0
0
VERTEX
5
155d
8
Layer1
10
59.6750
20
73.6500
30
0.0
0
VERTEX
5
155e
8
Layer1
10
59.6750
20
59.6500
30
0.0
0
VERTEX
5
155f
8
Layer1
10
73.6750
20
59.6500
30
0.0
0
VERTEX
5
1560
8
Layer1
10
73.6750
20
73.6500
30
0.0
0
SEQEND
5
1561
8
Layer1
0
POLYLINE
5
1562
8
Layer1
66
1
10
0.0
20
0.0
30
0.0
70
1
0
VERTEX
5
1563
8
Layer1
10
92.7250
20
73.6500
30
0.0
0
VERTEX
5
1564
8
Layer1
10
78.7250
20
73.6500
30
0.0
0
VERTEX
5
1565
8
Layer1
10
78.7250
20
59.6500
30
0.0
0
VERTEX
5
1566
8
Layer1
10
92.7250
20
59.6500
30
0.0
0
VERTEX
5
1567
8
Layer1
10
92.7250
20
73.6500
30
0.0
0
SEQEND
5
1568
8
Layer1
0
POLYLINE
5
1569
8
Layer1
66
1
10
0.0
20
0.0
30
0.0
70
1
0
VERTEX
5
156a
8
Layer1
10
111.7750
20
73.6500
30
0.0
0
VERTEX
5
156b
8
Layer1
10
97.7750
20
73.6500
30
0.0
0
VERTEX
5
156c
8
Layer1
10
97.7750
20
59.6500
30
0.0
0
VERTEX
5
156d
8
Layer1
10
111.7750
20
59.6500
30
0.0
0
VERTEX
5
156e
8
Layer1
10
111.7750
20
73.6500
30
0.0
0
SEQEND
5
156f
8
Layer1
0
POLYLINE
5
1570
8
Layer1
66
1
10
0.0
20
0.0
30
0.0
70
1
0
VERTEX
5
1571
8
Layer1
10
130.8250
20
73.6500
30
0.0
0
VERTEX
5
1572
8
Layer1
10
116.8250
20
73.6500
30
0.0
0
VERTEX
5
1573
8
Layer1
10
116.8250
20
59.6500
30
0.0
0
VERTEX
5
1574
8
Layer1
10
130.8250
20
59.6500
30
0.0
0
VERTEX
5
1575
8
Layer1
10
130.8250
20
73.6500
30
0.0
0
SEQEND
5
1576
8
Layer1
0
POLYLINE
5
1577
8
Layer1
66
1
10
0.0
20
0.0
30
0.0
70
1
0
VERTEX
5
1578
8
Layer1
10
149.8750
20
73.6500
30
0.0
0
VERTEX
5
1579
8
Layer1
10
135.8750
20
73.6500
30
0.0
0
VERTEX
5
157a
8
Layer1
10
135.8750
20
59.6500
30
0.0
0
VERTEX
5
157b
8
Layer1
10
149.8750
20
59.6500
30
0.0
0
VERTEX
5
157c
8
Layer1
10
149.8750
20
73.6500
30
0.0
0
SEQEND
5
157d
8
Layer1
0
POLYLINE
5
157e
8
Layer1
66
1
10
0.0
20
0.0
30
0.0
70
1
0
VERTEX
5
157f
8
Layer1
10
168.9250
20
73.6500
30
0.0
0
VERTEX
5
1580
8
Layer1
10
154.9250
20
73.6500
30
0.0
0
VERTEX
5
1581
8
Layer1
10
154.9250
20
59.6500
30
0.0
0
VERTEX
5
1582
8
Layer1
10
168.9250
20
59.6500
30
0.0
0
VERTEX
5
1583
8
Layer1
10
168.9250
20
73.6500
30
0.0
0
SEQEND
5
1584
8
Layer1
0
POLYLINE
5
1585
8
Layer1
66
1
10
0.0
20
0.0
30
0.0
70
1
0
VERTEX
5
1586
8
Layer1
10
187.9750
20
73.6500
30
0.0
0
VERTEX
5
1587
8
Layer1
10
173.9750
20
73.6500
30
0.0
0
VERTEX
5
1588
8
Layer1
10
173.9750
20
59.6500
30
0.0
0
VERTEX
5
1589
8
Layer1
10
187.9750
20
59.6500
30
0.0
0
VERTEX
5
158a
8
Layer1
10
187.9750
20
73.6500
30
0.0
0
SEQEND
5
158b
8
Layer1
0
POLYLINE
5
158c
8
Layer1
66
1
10
0.0
20
0.0
30
0.0
70
1
0
VERTEX
5
158d
8
Layer1
10
207.0250
20
73.6500
30
0.0
0
VERTEX
5
158e
8
Layer1
10
193.0250
20
73.6500
30
0.0
0
VERTEX
5
158f
8
Layer1
10
193.0250
20
59.6500
30
0.0
0
VERTEX
5
1590
8
Layer1
10
207.0250
20
59.6500
30
0.0
0
VERTEX
5
1591
8
Layer1
10
207.0250
20
73.6500
30
0.0
0
SEQEND
5
1592
8
Layer1
0
POLYLINE
5
1593
8
Layer1
66
1
10
0.0
20
0.0
30
0.0
70
1
0
VERTEX
5
1594
8
Layer1
10
226.0750
20
73.6500
30
0.0
0
VERTEX
5
1595
8
Layer1
10
212.0750
20
73.6500
30
0.0
0
VERTEX
5
1596
8
Layer1
10
212.0750
20
59.6500
30
0.0
0
VERTEX
5
1597
8
Layer1
10
226.0750
20
59.6500
30
0.0
0
VERTEX
5
1598
8
Layer1
10
226.0750
20
73.6500
30
0.0
0
SEQEND
5
1599
8
Layer1
0
POLYLINE
5
159a
8
Layer1
66
1
10
0.0
20
0.0
30
0.0
70
1
0
VERTEX
5
159b
8
Layer1
10
18.9060
20
54.6000
30
0.0
0
VERTEX
5
159c
8
Layer1
10
4.9060
20
54.6000
30
0.0
0
VERTEX
5
159d
8
Layer1
10
4.9060
20
40.6000
30
0.0
0
VERTEX
5
159e
8
Layer1
10
18.9060
20
40.6000
30
0.0
0
VERTEX
5
159f
8
Layer1
10
18.9060
20
54.6000
30
0.0
0
SEQEND
5
15a0
8
Layer1
0
POLYLINE
5
15a1
8
Layer1
66
1
10
0.0
20
0.0
30
0.0
70
1
0
VERTEX
5
15a2
8
Layer1
10
40.3380
20
54.6000
30
0.0
0
VERTEX
5
15a3
8
Layer1
10
26.3380
20
54.6000
30
0.0
0
VERTEX
5
15a4
8
Layer1
10
26.3380
20
40.6000
30
0.0
0
VERTEX
5
15a5
8
Layer1
10
40.3380
20
40.6000
30
0.0
0
VERTEX
5
15a6
8
Layer1
10
40.3380
20
54.6000
30
0.0
0
SEQEND
5
15a7
8
Layer1
0
POLYLINE
5
15a8
8
Layer1
66
1
10
0.0
20
0.0
30
0.0
70
1
0
VERTEX
5
15a9
8
Layer1
10
59.3880
20
54.6000
30
0.0
0
VERTEX
5
15aa
8
Layer1
10
45.3880
20
54.6000
30
0.0
0
VERTEX
5
15ab
8
Layer1
10
45.3880
20
40.6000
30
0.0
0
VERTEX
5
15ac
8
Layer1
10
59.3880
20
40.6000
30
0.0
0
VERTEX
5
15ad
8
Layer1
10
59.3880
20
54.6000
30
0.0
0
SEQEND
5
15ae
8
Layer1
0
POLYLINE
5
15af
8
Layer1
66
1
10
0.0
20
0.0
30
0.0
70
1
0
VERTEX
5
15b0
8
Layer1
10
78.4380
20
54.6000
30
0.0
0
VERTEX
5
15b1
8
Layer1
10
64.4380
20
54.6000
30
0.0
0
VERTEX
5
15b2
8
Layer1
10
64.4380
20
40.6000
30
0.0
0
VERTEX
5
15b3
8
Layer1
10
78.4380
20
40.6000
30
0.0
0
VERTEX
5
15b4
8
Layer1
10
78.4380
20
54.6000
30
0.0
0
SEQEND
5
15b5
8
Layer1
0
POLYLINE
5
15b6
8
Layer1
66
1
10
0.0
20
0.0
30
0.0
70
1
0
VERTEX
5
15b7
8
Layer1
10
97.4880
20
54.6000
30
0.0
0
VERTEX
5
15b8
8
Layer1
10
83.4880
20
54.6000
30
0.0
0
VERTEX
5
15b9
8
Layer1
10
83.4880
20
40.6000
30
0.0
0
VERTEX
5
15ba
8
Layer1
10
97.4880
20
40.6000
30
0.0
0
VERTEX
5
15bb
8
Layer1
10
97.4880
20
54.6000
30
0.0
0
SEQEND
5
15bc
8
Layer1
0
POLYLINE
5
15bd
8
Layer1
66
1
10
0.0
20
0.0
30
0.0
70
1
0
VERTEX
5
15be
8
Layer1
10
116.5380
20
54.6000
30
0.0
0
VERTEX
5
15bf
8
Layer1
10
102.5380
20
54.6000
30
0.0
0
VERTEX
5
15c0
8
Layer1
10
102.5380
20
40.6000
30
0.0
0
VERTEX
5
15c1
8
Layer1
10
116.5380
20
40.6000
30
0.0
0
VERTEX
5
15c2
8
Layer1
10
116.5380
20
54.6000
30
0.0
0
SEQEND
5
15c3
8
Layer1
0
POLYLINE
5
15c4
8
Layer1
66
1
10
0.0
20
0.0
30
0.0
70
1
0
VERTEX
5
15c5
8
Layer1
10
135.5880
20
54.6000
30
0.0
0
VERTEX
5
15c6
8
Layer1
10
121.5880
20
54.6000
30
0.0
0
VERTEX
5
15c7
8
Layer1
10
121.5880
20
40.6000
30
0.0
0
VERTEX
5
15c8
8
Layer1
10
135.5880
20
40.6000
30
0.0
0
VERTEX
5
15c9
8
Layer1
10
135.5880
20
54.6000
30
0.0
0
SEQEND
5
15ca
8
Layer1
0
POLYLINE
5
15cb
8
Layer1
66
1
10
0.0
20
0.0
30
0.0
70
1
0
VERTEX
5
15cc
8
Layer1
10
154.6380
20
54.6000
30
0.0
0
VERTEX
5
15cd
8
Layer1
10
140.6380
20
54.6000
30
0.0
0
VERTEX
5
15ce
8
Layer1
10
140.6380
20
40.6000
30
0.0
0
VERTEX
5
15cf
8
Layer1
10
154.6380
20
40.6000
30
0.0
0
VERTEX
5
15d0
8
Layer1
10
154.6380
20
54.6000
30
0.0
0
SEQEND
5
15d1
8
Layer1
0
POLYLINE
5
15d2
8
Layer1
66
1
10
0.0
20
0.0
30
0.0
70
1
0
VERTEX
5
15d3
8
Layer1
10
173.6880
20
54.6000
30
0.0
0
VERTEX
5
15d4
8
Layer1
10
159.6880
20
54.6000
30
0.0
0
VERTEX
5
15d5
8
Layer1
10
159.6880
20
40.6000
30
0.0
0
VERTEX
5
15d6
8
Layer1
10
173.6880
20
40.6000
30
0.0
0
VERTEX
5
15d7
8
Layer1
10
173.6880
20
54.6000
30
0.0
0
SEQEND
5
15d8
8
Layer1
0
POLYLINE
5
15d9
8
Layer1
66
1
10
0.0
20
0.0
30
0.0
70
1
0
VERTEX
5
15da
8
Layer1
10
192.7380
20
54.6000
30
0.0
0
VERTEX
5
15db
8
Layer1
10
178.7380
20
54.6000
30
0.0
0
VERTEX
5
15dc
8
Layer1
10
178.7380
20
40.6000
30
0.0
0
VERTEX
5
15dd
8
Layer1
10
192.7380
20
40.6000
30
0.0
0
VERTEX
5
15de
8
Layer1
10
192.7380
20
54.6000
30
0.0
0
SEQEND
5
15df
8
Layer1
0
POLYLINE
5
15e0
8
Layer1
66
1
10
0.0
20
0.0
30
0.0
70
1
0
VERTEX
5
15e1
8
Layer1
10
218.9310
20
54.6000
30
0.0
0
VERTEX
5
15e2
8
Layer1
10
204.9310
20
54.6000
30
0.0
0
VERTEX
5
15e3
8
Layer1
10
204.9310
20
40.6000
30
0.0
0
VERTEX
5
15e4
8
Layer1
10
218.9310
20
40.6000
30
0.0
0
VERTEX
5
15e5
8
Layer1
10
218.9310
20
54.6000
30
0.0
0
SEQEND
5
15e6
8
Layer1
0
POLYLINE
5
15e7
8
Layer1
66
1
10
0.0
20
0.0
30
0.0
70
1
0
VERTEX
5
15e8
8
Layer1
10
23.6690
20
35.5500
30
0.0
0
VERTEX
5
15e9
8
Layer1
10
9.6690
20
35.5500
30
0.0
0
VERTEX
5
15ea
8
Layer1
10
9.6690
20
21.5500
30
0.0
0
VERTEX
5
15eb
8
Layer1
10
23.6690
20
21.5500
30
0.0
0
VERTEX
5
15ec
8
Layer1
10
23.6690
20
35.5500
30
0.0
0
SEQEND
5
15ed
8
Layer1
0
POLYLINE
5
15ee
8
Layer1
66
1
10
0.0
20
0.0
30
0.0
70
1
0
VERTEX
5
15ef
8
Layer1
10
49.8630
20
35.5500
30
0.0
0
VERTEX
5
15f0
8
Layer1
10
35.8630
20
35.5500
30
0.0
0
VERTEX
5
15f1
8
Layer1
10
35.8630
20
21.5500
30
0.0
0
VERTEX
5
15f2
8
Layer1
10
49.8630
20
21.5500
30
0.0
0
VERTEX
5
15f3
8
Layer1
10
49.8630
20
35.5500
30
0.0
0
SEQEND
5
15f4
8
Layer1
0
POLYLINE
5
15f5
8
Layer1
66
1
10
0.0
20
0.0
30
0.0
70
1
0
VERTEX
5
15f6
8
Layer1
10
68.9130
20
35.5500
30
0.0
0
VERTEX
5
15f7
8
Layer1
10
54.9130
20
35.5500
30
0.0
0
VERTEX
5
15f8
8
Layer1
10
54.9130
20
21.5500
30
0.0
0
VERTEX
5
15f9
8
Layer1
10
68.9130
20
21.5500
30
0.0
0
VERTEX
5
15fa
8
Layer1
10
68.9130
20
35.5500
30
0.0
0
SEQEND
5
15fb
8
Layer1
0
POLYLINE
5
15fc
8
Layer1
66
1
10
0.0
20
0.0
30
0.0
70
1
0
VERTEX
5
15fd
8
Layer1
10
87.9630
20
35.5500
30
0.0
0
VERTEX
5
15fe
8
Layer1
10
73.9630
20
35.5500
30
0.0
0
VERTEX
5
15ff
8
Layer1
10
73.9630
20
21.5500
30
0.0
0
VERTEX
5
1600
8
Layer1
10
87.9630
20
21.5500
30
0.0
0
VERTEX
5
1601
8
Layer1
10
87.9630
20
35.5500
30
0.0
0
SEQEND
5
1602
8
Layer1
0
POLYLINE
5
1603
8
Layer1
66
1
10
0.0
20
0.0
30
0.0
70
1
0
VERTEX
5
1604
8
Layer1
10
107.0130
20
35.5500
30
0.0
0
VERTEX
5
1605
8
Layer1
10
93.0130
20
35.5500
30
0.0
0
VERTEX
5
1606
8
Layer1
10
93.0130
20
21.5500
30
0.0
0
VERTEX
5
1607
8
Layer1
10
107.0130
20
21.5500
30
0.0
0
VERTEX
5
1608
8
Layer1
10
107.0130
20
35.5500
30
0.0
0
SEQEND
5
1609
8
Layer1
0
POLYLINE
5
160a
8
Layer1
66
1
10
0.0
20
0.0
30
0.0
70
1
0
VERTEX
5
160b
8
Layer1
10
126.0630
20
35.5500
30
0.0
0
VERTEX
5
160c
8
Layer1
10
112.0630
20
35.5500
30
0.0
0
VERTEX
5
160d
8
Layer1
10
112.0630
20
21.5500
30
0.0
0
VERTEX
5
160e
8
Layer1
10
126.0630
20
21.5500
30
0.0
0
VERTEX
5
160f
8
Layer1
10
126.0630
20
35.5500
30
0.0
0
SEQEND
5
1610
8
Layer1
0
POLYLINE
5
1611
8
Layer1
66
1
10
0.0
20
0.0
30
0.0
70
1
0
VERTEX
5
1612
8
Layer1
10
145.1130
20
35.5500
30
0.0
0
VERTEX
5
1613
8
Layer1
10
131.1130
20
35.5500
30
0.0
0
VERTEX
5
1614
8
Layer1
10
131.1130
20
21.5500
30
0.0
0
VERTEX
5
1615
8
Layer1
10
145.1130
20
21.5500
30
0.0
0
VERTEX
5
1616
8
Layer1
10
145.1130
20
35.5500
30
0.0
0
SEQEND
5
1617
8
Layer1
0
POLYLINE
5
1618
8
Layer1
66
1
10
0.0
20
0.0
30
0.0
70
1
0
VERTEX
5
1619
8
Layer1
10
164.1630
20
35.5500
30
0.0
0
VERTEX
5
161a
8
Layer1
10
150.1630
20
35.5500
30
0.0
0
VERTEX
5
161b
8
Layer1
10
150.1630
20
21.5500
30
0.0
0
VERTEX
5
161c
8
Layer1
10
164.1630
20
21.5500
30
0.0
0
VERTEX
5
161d
8
Layer1
10
164.1630
20
35.5500
30
0.0
0
SEQEND
5
161e
8
Layer1
0
POLYLINE
5
161f
8
Layer1
66
1
10
0.0
20
0.0
30
0.0
70
1
0
VERTEX
5
1620
8
Layer1
10
185.5940
20
35.5500
30
0.0
0
VERTEX
5
1621
8
Layer1
10
171.5940
20
35.5500
30
0.0
0
VERTEX
5
1622
8
Layer1
10
171.5940
20
21.5500
30
0.0
0
VERTEX
5
1623
8
Layer1
10
185.5940
20
21.5500
30
0.0
0
VERTEX
5
1624
8
Layer1
10
185.5940
20
35.5500
30
0.0
0
SEQEND
5
1625
8
Layer1
0
POLYLINE
5
1626
8
Layer1
66
1
10
0.0
20
0.0
30
0.0
70
1
0
VERTEX
5
1627
8
Layer1
10
207.0250
20
35.5500
30
0.0
0
VERTEX
5
1628
8
Layer1
10
193.0250
20
35.5500
30
0.0
0
VERTEX
5
1629
8
Layer1
10
193.0250
20
21.5500
30
0.0
0
VERTEX
5
162a
8
Layer1
10
207.0250
20
21.5500
30
0.0
0
VERTEX
5
162b
8
Layer1
10
207.0250
20
35.5500
30
0.0
0
SEQEND
5
162c
8
Layer1
0
POLYLINE
5
162d
8
Layer1
66
1
10
0.0
20
0.0
30
0.0
70
1
0
VERTEX
5
162e
8
Layer1
10
226.0750
20
35.5500
30
0.0
0
VERTEX
5
162f
8
Layer1
10
212.0750
20
35.5500
30
0.0
0
VERTEX
5
1630
8
Layer1
10
212.0750
20
21.5500
30
0.0
0
VERTEX
5
1631
8
Layer1
10
226.0750
20
21.5500
30
0.0
0
VERTEX
5
1632
8
Layer1
10
226.0750
20
35.5500
30
0.0
0
SEQEND
5
1633
8
Layer1
0
POLYLINE
5
1634
8
Layer1
66
1
10
0.0
20
0.0
30
0.0
70
1
0
VERTEX
5
1635
8
Layer1
10
21.2880
20
16.5000
30
0.0
0
VERTEX
5
1636
8
Layer1
10
7.2880
20
16.5000
30
0.0
0
VERTEX
5
1637
8
Layer1
10
7.2880
20
2.5000
30
0.0
0
VERTEX
5
1638
8
Layer1
10
21.2880
20
2.5000
30
0.0
0
VERTEX
5
1639
8
Layer1
10
21.2880
20
16.5000
30
0.0
0
SEQEND
5
163a
8
Layer1
0
POLYLINE
5
163b
8
Layer1
66
1
10
0.0
20
0.0
30
0.0
70
1
0
VERTEX
5
163c
8
Layer1
10
47.4810
20
16.5000
30
0.0
0
VERTEX
5
163d
8
Layer1
10
33.4810
20
16.5000
30
0.0
0
VERTEX
5
163e
8
Layer1
10
33.4810
20
2.5000
30
0.0
0
VERTEX
5
163f
8
Layer1
10
47.4810
20
2.5000
30
0.0
0
VERTEX
5
1640
8
Layer1
10
47.4810
20
16.5000
30
0.0
0
SEQEND
5
1641
8
Layer1
0
POLYLINE
5
1642
8
Layer1
66
1
10
0.0
20
0.0
30
0.0
70
1
0
VERTEX
5
1643
8
Layer1
10
63.4190
20
2.7300
30
0.0
0
VERTEX
5
1644
8
Layer1
10
65.2440
20
2.7300
30
0.0
0
VERTEX
5
1645
8
Layer1
10
65.2440
20
7.2000
30
0.0
0
VERTEX
5
1646
8
Layer1
10
104.9190
20
7.2000
30
0.0
0
VERTEX
5
1647
8
Layer1
10
104.9190
20
2.5000
30
0.0
0
VERTEX
5
1648
8
Layer1
10
118.9190
20
2.5000
30
0.0
0
VERTEX
5
1649
8
Layer1
10
118.9190
20
7.2000
30
0.0
0
VERTEX
5
164a
8
Layer1
10
158.5940
20
7.2000
30
0.0
0
VERTEX
5
164b
8
Layer1
10
158.5940
20
2.7300
30
0.0
0
VERTEX
5
164c
8
Layer1
10
160.4190
20
2.7300
30
0.0
0
VERTEX
5
164d
8
Layer1
10
160.4190
20
1.5300
30
0.0
0
VERTEX
5
164e
8
Layer1
10
163.4190
20
1.5300
30
0.0
0
VERTEX
5
164f
8
Layer1
10
163.4190
20
2.7300
30
0.0
0
VERTEX
5
1650
8
Layer1
10
165.2440
20
2.7300
30
0.0
0
VERTEX
5
1651
8
Layer1
10
165.2440
20
9.0000
30
0.0
0
VERTEX
5
1652
8
Layer1
10
166.1440
20
9.0000
30
0.0
0
VERTEX
5
1653
8
Layer1
10
166.1440
20
11.8000
30
0.0
0
VERTEX
5
1654
8
Layer1
10
165.2440
20
11.8000
30
0.0
0
VERTEX
5
1655
8
Layer1
10
165.2440
20
15.0300
30
0.0
0
VERTEX
5
1656
8
Layer1
10
158.5940
20
15.0300
30
0.0
0
VERTEX
5
1657
8
Layer1
10
158.5940
20
11.8000
30
0.0
0
VERTEX
5
1658
8
Layer1
10
118.9190
20
11.8000
30
0.0
0
VERTEX
5
1659
8
Layer1
10
118.9190
20
16.5000
30
0.0
0
VERTEX
5
165a
8
Layer1
10
104.9190
20
16.5000
30
0.0
0
VERTEX
5
165b
8
Layer1
10
104.9190
20
11.8000
30
0.0
0
VERTEX
5
165c
8
Layer1
10
65.2440
20
11.8000
30
0.0
0
VERTEX
5
165d
8
Layer1
10
65.2440
20
15.0300
30
0.0
0
VERTEX
5
165e
8
Layer1
10
58.5940
20
15.0300
30
0.0
0
VERTEX
5
165f
8
Layer1
10
58.5940
20
11.8000
30
0.0
0
VERTEX
5
1660
8
Layer1
10
57.6940
20
11.8000
30
0.0
0
VERTEX
5
1661
8
Layer1
10
57.6940
20
9.0000
30
0.0
0
VERTEX
5
1662
8
Layer1
10
58.5940
20
9.0000
30
0.0
0
VERTEX
5
1663
8
Layer1
10
58.5940
20
2.7300
30
0.0
0
VERTEX
5
1664
8
Layer1
10
60.4190
20
2.7300
30
0.0
0
VERTEX
5
1665
8
Layer1
10
60.4190
20
1.5300
30
0.0
0
VERTEX
5
1666
8
Layer1
10
63.4190
20
1.5300
30
0.0
0
VERTEX
5
1667
8
Layer1
10
63.4190
20
2.7300
30
0.0
0
SEQEND
5
1668
8
Layer1
0
POLYLINE
5
1669
8
Layer1
66
1
10
0.0
20
0.0
30
0.0
70
1
0
VERTEX
5
166a
8
Layer1
10
187.9750
20
16.5000
30
0.0
0
VERTEX
5
166b
8
Layer1
10
173.9750
20
16.5000
30
0.0
0
VERTEX
5
166c
8
Layer1
10
173.9750
20
2.5000
30
0.0
0
VERTEX
5
166d
8
Layer1
10
187.9750
20
2.5000
30
0.0
0
VERTEX
5
166e
8
Layer1
10
187.9750
20
16.5000
30
0.0
0
SEQEND
5
166f
8
Layer1
0
POLYLINE
5
1670
8
Layer1
66
1
10
0.0
20
0.0
30
0.0
70
1
0
VERTEX
5
1671
8
Layer1
10
207.0250
20
16.5000
30
0.0
0
VERTEX
5
1672
8
Layer1
10
193.0250
20
16.5000
30
0.0
0
VERTEX
5
1673
8
Layer1
10
193.0250
20
2.5000
30
0.0
0
VERTEX
5
1674
8
Layer1
10
207.0250
20
2.5000
30
0.0
0
VERTEX
5
1675
8
Layer1
10
207.0250
20
16.5000
30
0.0
0
SEQEND
5
1676
8
Layer1
0
POLYLINE
5
1677
8
Layer1
66
1
10
0.0
20
0.0
30
0.0
70
1
0
VERTEX
5
1678
8
Layer1
10
226.0750
20
16.5000
30
0.0
0
VERTEX
5
1679
8
Layer1
10
212.0750
20
16.5000
30
0.0
0
VERTEX
5
167a
8
Layer1
10
212.0750
20
2.5000
30
0.0
0
VERTEX
5
167b
8
Layer1
10
226.0750
20
2.5000
30
0.0
0
VERTEX
5
167c
8
Layer1
10
226.0750
20
16.5000
30
0.0
0
SEQEND
5
167d
8
Layer1
0
ENDSEC
0
EOF
