  0
SECTION
  2
HEADER
  9
$ACADVER
  1
AC1009
  9
$EXTMIN
 10
0.0
 20
0.0
 30
0.0
  9
$EXTMAX
 10
1000.0
 20
1000.0
 30
0.0
  9
$FILLMODE
 70
 0
  9
$SPLFRAME
 70
 1
  0
ENDSEC
  0
SECTION
  2
TABLES
  0
TABLE
  2
LAYER
 70
1
  0
LAYER
  2
0
 70
     0
 62
     7
  6
CONTINUOUS
  0
ENDTAB
  0
ENDSEC
  0
SECTION
  2
ENTITIES
  0
LINE
  8
0
 62
     0
 10
364.568
 20
176.294
 30
0.0
 11
364.804
 21
176.284
 31
0.0
  0
LINE
  8
0
 62
     0
 10
364.804
 20
176.284
 30
0.0
 11
365.037
 21
176.258
 31
0.0
  0
LINE
  8
0
 62
     0
 10
365.037
 20
176.258
 30
0.0
 11
365.27
 21
176.211
 31
0.0
  0
LINE
  8
0
 62
     0
 10
365.27
 20
176.211
 30
0.0
 11
365.495
 21
176.148
 31
0.0
  0
LINE
  8
0
 62
     0
 10
365.495
 20
176.148
 30
0.0
 11
365.718
 21
176.065
 31
0.0
  0
LINE
  8
0
 62
     0
 10
365.718
 20
176.065
 30
0.0
 11
365.933
 21
175.967
 31
0.0
  0
LINE
  8
0
 62
     0
 10
365.933
 20
175.967
 30
0.0
 11
366.134
 21
175.852
 31
0.0
  0
LINE
  8
0
 62
     0
 10
366.134
 20
175.852
 30
0.0
 11
366.332
 21
175.722
 31
0.0
  0
LINE
  8
0
 62
     0
 10
366.332
 20
175.722
 30
0.0
 11
366.518
 21
175.576
 31
0.0
  0
LINE
  8
0
 62
     0
 10
366.518
 20
175.576
 30
0.0
 11
366.688
 21
175.416
 31
0.0
  0
LINE
  8
0
 62
     0
 10
366.688
 20
175.416
 30
0.0
 11
366.85
 21
175.242
 31
0.0
  0
LINE
  8
0
 62
     0
 10
366.85
 20
175.242
 30
0.0
 11
366.995
 21
175.058
 31
0.0
  0
LINE
  8
0
 62
     0
 10
366.995
 20
175.058
 30
0.0
 11
367.125
 21
174.862
 31
0.0
  0
LINE
  8
0
 62
     0
 10
367.125
 20
174.862
 30
0.0
 11
367.242
 21
174.655
 31
0.0
  0
LINE
  8
0
 62
     0
 10
367.242
 20
174.655
 30
0.0
 11
367.34
 21
174.442
 31
0.0
  0
LINE
  8
0
 62
     0
 10
367.34
 20
174.442
 30
0.0
 11
367.422
 21
174.221
 31
0.0
  0
LINE
  8
0
 62
     0
 10
367.422
 20
174.221
 30
0.0
 11
367.485
 21
173.994
 31
0.0
  0
LINE
  8
0
 62
     0
 10
367.485
 20
173.994
 30
0.0
 11
367.531
 21
173.764
 31
0.0
  0
LINE
  8
0
 62
     0
 10
367.531
 20
173.764
 30
0.0
 11
367.559
 21
173.53
 31
0.0
  0
LINE
  8
0
 62
     0
 10
367.559
 20
173.53
 30
0.0
 11
367.57
 21
173.294
 31
0.0
  0
LINE
  8
0
 62
     0
 10
367.57
 20
173.294
 30
0.0
 11
367.57
 21
3.27284
 31
0.0
  0
LINE
  8
0
 62
     0
 10
367.57
 20
3.27284
 30
0.0
 11
367.559
 21
3.0372
 31
0.0
  0
LINE
  8
0
 62
     0
 10
367.559
 20
3.0372
 30
0.0
 11
367.531
 21
2.80293
 31
0.0
  0
LINE
  8
0
 62
     0
 10
367.531
 20
2.80293
 30
0.0
 11
367.485
 21
2.5728
 31
0.0
  0
LINE
  8
0
 62
     0
 10
367.485
 20
2.5728
 30
0.0
 11
367.422
 21
2.34542
 31
0.0
  0
LINE
  8
0
 62
     0
 10
367.422
 20
2.34542
 30
0.0
 11
367.34
 21
2.12494
 31
0.0
  0
LINE
  8
0
 62
     0
 10
367.34
 20
2.12494
 30
0.0
 11
367.242
 21
1.91134
 31
0.0
  0
LINE
  8
0
 62
     0
 10
367.242
 20
1.91134
 30
0.0
 11
367.125
 21
1.70601
 31
0.0
  0
LINE
  8
0
 62
     0
 10
367.125
 20
1.70601
 30
0.0
 11
366.995
 21
1.50895
 31
0.0
  0
LINE
  8
0
 62
     0
 10
366.995
 20
1.50895
 30
0.0
 11
366.85
 21
1.3243
 31
0.0
  0
LINE
  8
0
 62
     0
 10
366.85
 20
1.3243
 30
0.0
 11
366.688
 21
1.15204
 31
0.0
  0
LINE
  8
0
 62
     0
 10
366.688
 20
1.15204
 30
0.0
 11
366.518
 21
0.990808
 31
0.0
  0
LINE
  8
0
 62
     0
 10
366.518
 20
0.990808
 30
0.0
 11
366.332
 21
0.844737
 31
0.0
  0
LINE
  8
0
 62
     0
 10
366.332
 20
0.844737
 30
0.0
 11
366.134
 21
0.7152
 31
0.0
  0
LINE
  8
0
 62
     0
 10
366.134
 20
0.7152
 30
0.0
 11
365.933
 21
0.599447
 31
0.0
  0
LINE
  8
0
 62
     0
 10
365.933
 20
0.599447
 30
0.0
 11
365.718
 21
0.501608
 31
0.0
  0
LINE
  8
0
 62
     0
 10
365.718
 20
0.501608
 30
0.0
 11
365.495
 21
0.418924
 31
0.0
  0
LINE
  8
0
 62
     0
 10
365.495
 20
0.418924
 30
0.0
 11
365.27
 21
0.355533
 31
0.0
  0
LINE
  8
0
 62
     0
 10
365.27
 20
0.355533
 30
0.0
 11
365.037
 21
0.310059
 31
0.0
  0
LINE
  8
0
 62
     0
 10
365.037
 20
0.310059
 30
0.0
 11
364.804
 21
0.282498
 31
0.0
  0
LINE
  8
0
 62
     0
 10
364.804
 20
0.282498
 30
0.0
 11
364.568
 21
0.272852
 31
0.0
  0
LINE
  8
0
 62
     0
 10
364.568
 20
0.272852
 30
0.0
 11
3.09507
 21
0.272852
 31
0.0
  0
LINE
  8
0
 62
     0
 10
3.09507
 20
0.272852
 30
0.0
 11
2.85943
 21
0.282498
 31
0.0
  0
LINE
  8
0
 62
     0
 10
2.85943
 20
0.282498
 30
0.0
 11
2.62516
 21
0.310059
 31
0.0
  0
LINE
  8
0
 62
     0
 10
2.62516
 20
0.310059
 30
0.0
 11
2.39503
 21
0.355533
 31
0.0
  0
LINE
  8
0
 62
     0
 10
2.39503
 20
0.355533
 30
0.0
 11
2.16765
 21
0.418924
 31
0.0
  0
LINE
  8
0
 62
     0
 10
2.16765
 20
0.418924
 30
0.0
 11
1.94717
 21
0.501608
 31
0.0
  0
LINE
  8
0
 62
     0
 10
1.94717
 20
0.501608
 30
0.0
 11
1.73357
 21
0.599447
 31
0.0
  0
LINE
  8
0
 62
     0
 10
1.73357
 20
0.599447
 30
0.0
 11
1.52687
 21
0.7152
 31
0.0
  0
LINE
  8
0
 62
     0
 10
1.52687
 20
0.7152
 30
0.0
 11
1.33119
 21
0.844737
 31
0.0
  0
LINE
  8
0
 62
     0
 10
1.33119
 20
0.844737
 30
0.0
 11
1.14653
 21
0.990808
 31
0.0
  0
LINE
  8
0
 62
     0
 10
1.14653
 20
0.990808
 30
0.0
 11
0.972894
 21
1.15204
 31
0.0
  0
LINE
  8
0
 62
     0
 10
0.972894
 20
1.15204
 30
0.0
 11
0.813043
 21
1.3243
 31
0.0
  0
LINE
  8
0
 62
     0
 10
0.813043
 20
1.3243
 30
0.0
 11
0.666972
 21
1.50895
 31
0.0
  0
LINE
  8
0
 62
     0
 10
0.666972
 20
1.50895
 30
0.0
 11
0.537436
 21
1.70601
 31
0.0
  0
LINE
  8
0
 62
     0
 10
0.537436
 20
1.70601
 30
0.0
 11
0.421679
 21
1.91134
 31
0.0
  0
LINE
  8
0
 62
     0
 10
0.421679
 20
1.91134
 30
0.0
 11
0.323839
 21
2.12494
 31
0.0
  0
LINE
  8
0
 62
     0
 10
0.323839
 20
2.12494
 30
0.0
 11
0.241157
 21
2.34542
 31
0.0
  0
LINE
  8
0
 62
     0
 10
0.241157
 20
2.34542
 30
0.0
 11
0.177767
 21
2.5728
 31
0.0
  0
LINE
  8
0
 62
     0
 10
0.177767
 20
2.5728
 30
0.0
 11
0.130914
 21
2.80293
 31
0.0
  0
LINE
  8
0
 62
     0
 10
0.130914
 20
2.80293
 30
0.0
 11
0.104731
 21
3.0372
 31
0.0
  0
LINE
  8
0
 62
     0
 10
0.104731
 20
3.0372
 30
0.0
 11
0.0950846
 21
3.27284
 31
0.0
  0
LINE
  8
0
 62
     0
 10
0.0950846
 20
3.27284
 30
0.0
 11
0.0950846
 21
173.294
 31
0.0
  0
LINE
  8
0
 62
     0
 10
0.0950846
 20
173.294
 30
0.0
 11
0.104731
 21
173.53
 31
0.0
  0
LINE
  8
0
 62
     0
 10
0.104731
 20
173.53
 30
0.0
 11
0.130914
 21
173.764
 31
0.0
  0
LINE
  8
0
 62
     0
 10
0.130914
 20
173.764
 30
0.0
 11
0.177767
 21
173.994
 31
0.0
  0
LINE
  8
0
 62
     0
 10
0.177767
 20
173.994
 30
0.0
 11
0.241157
 21
174.221
 31
0.0
  0
LINE
  8
0
 62
     0
 10
0.241157
 20
174.221
 30
0.0
 11
0.323839
 21
174.442
 31
0.0
  0
LINE
  8
0
 62
     0
 10
0.323839
 20
174.442
 30
0.0
 11
0.421679
 21
174.655
 31
0.0
  0
LINE
  8
0
 62
     0
 10
0.421679
 20
174.655
 30
0.0
 11
0.537436
 21
174.862
 31
0.0
  0
LINE
  8
0
 62
     0
 10
0.537436
 20
174.862
 30
0.0
 11
0.666972
 21
175.058
 31
0.0
  0
LINE
  8
0
 62
     0
 10
0.666972
 20
175.058
 30
0.0
 11
0.813043
 21
175.242
 31
0.0
  0
LINE
  8
0
 62
     0
 10
0.813043
 20
175.242
 30
0.0
 11
0.972894
 21
175.416
 31
0.0
  0
LINE
  8
0
 62
     0
 10
0.972894
 20
175.416
 30
0.0
 11
1.14653
 21
175.576
 31
0.0
  0
LINE
  8
0
 62
     0
 10
1.14653
 20
175.576
 30
0.0
 11
1.33119
 21
175.722
 31
0.0
  0
LINE
  8
0
 62
     0
 10
1.33119
 20
175.722
 30
0.0
 11
1.52687
 21
175.852
 31
0.0
  0
LINE
  8
0
 62
     0
 10
1.52687
 20
175.852
 30
0.0
 11
1.73357
 21
175.967
 31
0.0
  0
LINE
  8
0
 62
     0
 10
1.73357
 20
175.967
 30
0.0
 11
1.94717
 21
176.065
 31
0.0
  0
LINE
  8
0
 62
     0
 10
1.94717
 20
176.065
 30
0.0
 11
2.16765
 21
176.148
 31
0.0
  0
LINE
  8
0
 62
     0
 10
2.16765
 20
176.148
 30
0.0
 11
2.39503
 21
176.211
 31
0.0
  0
LINE
  8
0
 62
     0
 10
2.39503
 20
176.211
 30
0.0
 11
2.62516
 21
176.258
 31
0.0
  0
LINE
  8
0
 62
     0
 10
2.62516
 20
176.258
 30
0.0
 11
2.85943
 21
176.284
 31
0.0
  0
LINE
  8
0
 62
     0
 10
2.85943
 20
176.284
 30
0.0
 11
3.09507
 21
176.294
 31
0.0
  0
LINE
  8
0
 62
     0
 10
3.09507
 20
176.294
 30
0.0
 11
364.568
 21
176.294
 31
0.0
  0
LINE
  8
0
 62
     0
 10
3.77031
 20
5.27099
 30
0.0
 11
3.47817
 21
5.12216
 31
0.0
  0
LINE
  8
0
 62
     0
 10
3.47817
 20
5.12216
 30
0.0
 11
3.24528
 21
4.89066
 31
0.0
  0
LINE
  8
0
 62
     0
 10
3.24528
 20
4.89066
 30
0.0
 11
3.09507
 21
4.59715
 31
0.0
  0
LINE
  8
0
 62
     0
 10
3.09507
 20
4.59715
 30
0.0
 11
3.04409
 21
4.27193
 31
0.0
  0
LINE
  8
0
 62
     0
 10
3.04409
 20
4.27193
 30
0.0
 11
3.09507
 21
3.94808
 31
0.0
  0
LINE
  8
0
 62
     0
 10
3.09507
 20
3.94808
 30
0.0
 11
3.24528
 21
3.65594
 31
0.0
  0
LINE
  8
0
 62
     0
 10
3.24528
 20
3.65594
 30
0.0
 11
3.47817
 21
3.42305
 31
0.0
  0
LINE
  8
0
 62
     0
 10
3.47817
 20
3.42305
 30
0.0
 11
3.77031
 21
3.27422
 31
0.0
  0
LINE
  8
0
 62
     0
 10
3.77031
 20
3.27422
 30
0.0
 11
4.09554
 21
3.22185
 31
0.0
  0
LINE
  8
0
 62
     0
 10
4.09554
 20
3.22185
 30
0.0
 11
4.41935
 21
3.27422
 31
0.0
  0
LINE
  8
0
 62
     0
 10
4.41935
 20
3.27422
 30
0.0
 11
4.7129
 21
3.42305
 31
0.0
  0
LINE
  8
0
 62
     0
 10
4.7129
 20
3.42305
 30
0.0
 11
4.94439
 21
3.65594
 31
0.0
  0
LINE
  8
0
 62
     0
 10
4.94439
 20
3.65594
 30
0.0
 11
5.09323
 21
3.94808
 31
0.0
  0
LINE
  8
0
 62
     0
 10
5.09323
 20
3.94808
 30
0.0
 11
5.14558
 21
4.27193
 31
0.0
  0
LINE
  8
0
 62
     0
 10
5.14558
 20
4.27193
 30
0.0
 11
5.09323
 21
4.59715
 31
0.0
  0
LINE
  8
0
 62
     0
 10
5.09323
 20
4.59715
 30
0.0
 11
4.94439
 21
4.89066
 31
0.0
  0
LINE
  8
0
 62
     0
 10
4.94439
 20
4.89066
 30
0.0
 11
4.7129
 21
5.12216
 31
0.0
  0
LINE
  8
0
 62
     0
 10
4.7129
 20
5.12216
 30
0.0
 11
4.41935
 21
5.27099
 31
0.0
  0
LINE
  8
0
 62
     0
 10
4.41935
 20
5.27099
 30
0.0
 11
4.09554
 21
5.32197
 31
0.0
  0
LINE
  8
0
 62
     0
 10
4.09554
 20
5.32197
 30
0.0
 11
3.77031
 21
5.27099
 31
0.0
  0
LINE
  8
0
 62
     0
 10
75.6652
 20
5.27099
 30
0.0
 11
75.3731
 21
5.12216
 31
0.0
  0
LINE
  8
0
 62
     0
 10
75.3731
 20
5.12216
 30
0.0
 11
75.1403
 21
4.89066
 31
0.0
  0
LINE
  8
0
 62
     0
 10
75.1403
 20
4.89066
 30
0.0
 11
74.9914
 21
4.59715
 31
0.0
  0
LINE
  8
0
 62
     0
 10
74.9914
 20
4.59715
 30
0.0
 11
74.9392
 21
4.27193
 31
0.0
  0
LINE
  8
0
 62
     0
 10
74.9392
 20
4.27193
 30
0.0
 11
74.9914
 21
3.94808
 31
0.0
  0
LINE
  8
0
 62
     0
 10
74.9914
 20
3.94808
 30
0.0
 11
75.1403
 21
3.65594
 31
0.0
  0
LINE
  8
0
 62
     0
 10
75.1403
 20
3.65594
 30
0.0
 11
75.3731
 21
3.42305
 31
0.0
  0
LINE
  8
0
 62
     0
 10
75.3731
 20
3.42305
 30
0.0
 11
75.6652
 21
3.27422
 31
0.0
  0
LINE
  8
0
 62
     0
 10
75.6652
 20
3.27422
 30
0.0
 11
75.989
 21
3.22185
 31
0.0
  0
LINE
  8
0
 62
     0
 10
75.989
 20
3.22185
 30
0.0
 11
76.3143
 21
3.27422
 31
0.0
  0
LINE
  8
0
 62
     0
 10
76.3143
 20
3.27422
 30
0.0
 11
76.6064
 21
3.42305
 31
0.0
  0
LINE
  8
0
 62
     0
 10
76.6064
 20
3.42305
 30
0.0
 11
76.8396
 21
3.65594
 31
0.0
  0
LINE
  8
0
 62
     0
 10
76.8396
 20
3.65594
 30
0.0
 11
76.9881
 21
3.94808
 31
0.0
  0
LINE
  8
0
 62
     0
 10
76.9881
 20
3.94808
 30
0.0
 11
77.0393
 21
4.27193
 31
0.0
  0
LINE
  8
0
 62
     0
 10
77.0393
 20
4.27193
 30
0.0
 11
76.9881
 21
4.59715
 31
0.0
  0
LINE
  8
0
 62
     0
 10
76.9881
 20
4.59715
 30
0.0
 11
76.8396
 21
4.89066
 31
0.0
  0
LINE
  8
0
 62
     0
 10
76.8396
 20
4.89066
 30
0.0
 11
76.6064
 21
5.12216
 31
0.0
  0
LINE
  8
0
 62
     0
 10
76.6064
 20
5.12216
 30
0.0
 11
76.3143
 21
5.27099
 31
0.0
  0
LINE
  8
0
 62
     0
 10
76.3143
 20
5.27099
 30
0.0
 11
75.989
 21
5.32197
 31
0.0
  0
LINE
  8
0
 62
     0
 10
75.989
 20
5.32197
 30
0.0
 11
75.6652
 21
5.27099
 31
0.0
  0
LINE
  8
0
 62
     0
 10
147.559
 20
5.27099
 30
0.0
 11
147.267
 21
5.12216
 31
0.0
  0
LINE
  8
0
 62
     0
 10
147.267
 20
5.12216
 30
0.0
 11
147.034
 21
4.89066
 31
0.0
  0
LINE
  8
0
 62
     0
 10
147.034
 20
4.89066
 30
0.0
 11
146.885
 21
4.59715
 31
0.0
  0
LINE
  8
0
 62
     0
 10
146.885
 20
4.59715
 30
0.0
 11
146.834
 21
4.27193
 31
0.0
  0
LINE
  8
0
 62
     0
 10
146.834
 20
4.27193
 30
0.0
 11
146.885
 21
3.94808
 31
0.0
  0
LINE
  8
0
 62
     0
 10
146.885
 20
3.94808
 30
0.0
 11
147.034
 21
3.65594
 31
0.0
  0
LINE
  8
0
 62
     0
 10
147.034
 20
3.65594
 30
0.0
 11
147.267
 21
3.42305
 31
0.0
  0
LINE
  8
0
 62
     0
 10
147.267
 20
3.42305
 30
0.0
 11
147.559
 21
3.27422
 31
0.0
  0
LINE
  8
0
 62
     0
 10
147.559
 20
3.27422
 30
0.0
 11
147.884
 21
3.22185
 31
0.0
  0
LINE
  8
0
 62
     0
 10
147.884
 20
3.22185
 30
0.0
 11
148.208
 21
3.27422
 31
0.0
  0
LINE
  8
0
 62
     0
 10
148.208
 20
3.27422
 30
0.0
 11
148.501
 21
3.42305
 31
0.0
  0
LINE
  8
0
 62
     0
 10
148.501
 20
3.42305
 30
0.0
 11
148.733
 21
3.65594
 31
0.0
  0
LINE
  8
0
 62
     0
 10
148.733
 20
3.65594
 30
0.0
 11
148.883
 21
3.94808
 31
0.0
  0
LINE
  8
0
 62
     0
 10
148.883
 20
3.94808
 30
0.0
 11
148.934
 21
4.27193
 31
0.0
  0
LINE
  8
0
 62
     0
 10
148.934
 20
4.27193
 30
0.0
 11
148.883
 21
4.59715
 31
0.0
  0
LINE
  8
0
 62
     0
 10
148.883
 20
4.59715
 30
0.0
 11
148.733
 21
4.89066
 31
0.0
  0
LINE
  8
0
 62
     0
 10
148.733
 20
4.89066
 30
0.0
 11
148.501
 21
5.12216
 31
0.0
  0
LINE
  8
0
 62
     0
 10
148.501
 20
5.12216
 30
0.0
 11
148.208
 21
5.27099
 31
0.0
  0
LINE
  8
0
 62
     0
 10
148.208
 20
5.27099
 30
0.0
 11
147.884
 21
5.32197
 31
0.0
  0
LINE
  8
0
 62
     0
 10
147.884
 20
5.32197
 30
0.0
 11
147.559
 21
5.27099
 31
0.0
  0
LINE
  8
0
 62
     0
 10
219.454
 20
5.27099
 30
0.0
 11
219.162
 21
5.12216
 31
0.0
  0
LINE
  8
0
 62
     0
 10
219.162
 20
5.12216
 30
0.0
 11
218.929
 21
4.89066
 31
0.0
  0
LINE
  8
0
 62
     0
 10
218.929
 20
4.89066
 30
0.0
 11
218.78
 21
4.59715
 31
0.0
  0
LINE
  8
0
 62
     0
 10
218.78
 20
4.59715
 30
0.0
 11
218.729
 21
4.27193
 31
0.0
  0
LINE
  8
0
 62
     0
 10
218.729
 20
4.27193
 30
0.0
 11
218.78
 21
3.94808
 31
0.0
  0
LINE
  8
0
 62
     0
 10
218.78
 20
3.94808
 30
0.0
 11
218.929
 21
3.65594
 31
0.0
  0
LINE
  8
0
 62
     0
 10
218.929
 20
3.65594
 30
0.0
 11
219.162
 21
3.42305
 31
0.0
  0
LINE
  8
0
 62
     0
 10
219.162
 20
3.42305
 30
0.0
 11
219.454
 21
3.27422
 31
0.0
  0
LINE
  8
0
 62
     0
 10
219.454
 20
3.27422
 30
0.0
 11
219.779
 21
3.22185
 31
0.0
  0
LINE
  8
0
 62
     0
 10
219.779
 20
3.22185
 30
0.0
 11
220.103
 21
3.27422
 31
0.0
  0
LINE
  8
0
 62
     0
 10
220.103
 20
3.27422
 30
0.0
 11
220.396
 21
3.42305
 31
0.0
  0
LINE
  8
0
 62
     0
 10
220.396
 20
3.42305
 30
0.0
 11
220.628
 21
3.65594
 31
0.0
  0
LINE
  8
0
 62
     0
 10
220.628
 20
3.65594
 30
0.0
 11
220.777
 21
3.94808
 31
0.0
  0
LINE
  8
0
 62
     0
 10
220.777
 20
3.94808
 30
0.0
 11
220.829
 21
4.27193
 31
0.0
  0
LINE
  8
0
 62
     0
 10
220.829
 20
4.27193
 30
0.0
 11
220.777
 21
4.59715
 31
0.0
  0
LINE
  8
0
 62
     0
 10
220.777
 20
4.59715
 30
0.0
 11
220.628
 21
4.89066
 31
0.0
  0
LINE
  8
0
 62
     0
 10
220.628
 20
4.89066
 30
0.0
 11
220.396
 21
5.12216
 31
0.0
  0
LINE
  8
0
 62
     0
 10
220.396
 20
5.12216
 30
0.0
 11
220.103
 21
5.27099
 31
0.0
  0
LINE
  8
0
 62
     0
 10
220.103
 20
5.27099
 30
0.0
 11
219.779
 21
5.32197
 31
0.0
  0
LINE
  8
0
 62
     0
 10
219.779
 20
5.32197
 30
0.0
 11
219.454
 21
5.27099
 31
0.0
  0
LINE
  8
0
 62
     0
 10
291.349
 20
5.27099
 30
0.0
 11
291.057
 21
5.12216
 31
0.0
  0
LINE
  8
0
 62
     0
 10
291.057
 20
5.12216
 30
0.0
 11
290.824
 21
4.89066
 31
0.0
  0
LINE
  8
0
 62
     0
 10
290.824
 20
4.89066
 30
0.0
 11
290.675
 21
4.59715
 31
0.0
  0
LINE
  8
0
 62
     0
 10
290.675
 20
4.59715
 30
0.0
 11
290.624
 21
4.27193
 31
0.0
  0
LINE
  8
0
 62
     0
 10
290.624
 20
4.27193
 30
0.0
 11
290.675
 21
3.94808
 31
0.0
  0
LINE
  8
0
 62
     0
 10
290.675
 20
3.94808
 30
0.0
 11
290.824
 21
3.65594
 31
0.0
  0
LINE
  8
0
 62
     0
 10
290.824
 20
3.65594
 30
0.0
 11
291.057
 21
3.42305
 31
0.0
  0
LINE
  8
0
 62
     0
 10
291.057
 20
3.42305
 30
0.0
 11
291.349
 21
3.27422
 31
0.0
  0
LINE
  8
0
 62
     0
 10
291.349
 20
3.27422
 30
0.0
 11
291.673
 21
3.22185
 31
0.0
  0
LINE
  8
0
 62
     0
 10
291.673
 20
3.22185
 30
0.0
 11
291.998
 21
3.27422
 31
0.0
  0
LINE
  8
0
 62
     0
 10
291.998
 20
3.27422
 30
0.0
 11
292.29
 21
3.42305
 31
0.0
  0
LINE
  8
0
 62
     0
 10
292.29
 20
3.42305
 30
0.0
 11
292.523
 21
3.65594
 31
0.0
  0
LINE
  8
0
 62
     0
 10
292.523
 20
3.65594
 30
0.0
 11
292.672
 21
3.94808
 31
0.0
  0
LINE
  8
0
 62
     0
 10
292.672
 20
3.94808
 30
0.0
 11
292.723
 21
4.27193
 31
0.0
  0
LINE
  8
0
 62
     0
 10
292.723
 20
4.27193
 30
0.0
 11
292.672
 21
4.59715
 31
0.0
  0
LINE
  8
0
 62
     0
 10
292.672
 20
4.59715
 30
0.0
 11
292.523
 21
4.89066
 31
0.0
  0
LINE
  8
0
 62
     0
 10
292.523
 20
4.89066
 30
0.0
 11
292.29
 21
5.12216
 31
0.0
  0
LINE
  8
0
 62
     0
 10
292.29
 20
5.12216
 30
0.0
 11
291.998
 21
5.27099
 31
0.0
  0
LINE
  8
0
 62
     0
 10
291.998
 20
5.27099
 30
0.0
 11
291.673
 21
5.32197
 31
0.0
  0
LINE
  8
0
 62
     0
 10
291.673
 20
5.32197
 30
0.0
 11
291.349
 21
5.27099
 31
0.0
  0
LINE
  8
0
 62
     0
 10
363.245
 20
5.27099
 30
0.0
 11
362.952
 21
5.12216
 31
0.0
  0
LINE
  8
0
 62
     0
 10
362.952
 20
5.12216
 30
0.0
 11
362.719
 21
4.89066
 31
0.0
  0
LINE
  8
0
 62
     0
 10
362.719
 20
4.89066
 30
0.0
 11
362.571
 21
4.59715
 31
0.0
  0
LINE
  8
0
 62
     0
 10
362.571
 20
4.59715
 30
0.0
 11
362.518
 21
4.27193
 31
0.0
  0
LINE
  8
0
 62
     0
 10
362.518
 20
4.27193
 30
0.0
 11
362.571
 21
3.94808
 31
0.0
  0
LINE
  8
0
 62
     0
 10
362.571
 20
3.94808
 30
0.0
 11
362.719
 21
3.65594
 31
0.0
  0
LINE
  8
0
 62
     0
 10
362.719
 20
3.65594
 30
0.0
 11
362.952
 21
3.42305
 31
0.0
  0
LINE
  8
0
 62
     0
 10
362.952
 20
3.42305
 30
0.0
 11
363.245
 21
3.27422
 31
0.0
  0
LINE
  8
0
 62
     0
 10
363.245
 20
3.27422
 30
0.0
 11
363.569
 21
3.22185
 31
0.0
  0
LINE
  8
0
 62
     0
 10
363.569
 20
3.22185
 30
0.0
 11
363.894
 21
3.27422
 31
0.0
  0
LINE
  8
0
 62
     0
 10
363.894
 20
3.27422
 30
0.0
 11
364.187
 21
3.42305
 31
0.0
  0
LINE
  8
0
 62
     0
 10
364.187
 20
3.42305
 30
0.0
 11
364.419
 21
3.65594
 31
0.0
  0
LINE
  8
0
 62
     0
 10
364.419
 20
3.65594
 30
0.0
 11
364.568
 21
3.94808
 31
0.0
  0
LINE
  8
0
 62
     0
 10
364.568
 20
3.94808
 30
0.0
 11
364.617
 21
4.27193
 31
0.0
  0
LINE
  8
0
 62
     0
 10
364.617
 20
4.27193
 30
0.0
 11
364.568
 21
4.59715
 31
0.0
  0
LINE
  8
0
 62
     0
 10
364.568
 20
4.59715
 30
0.0
 11
364.419
 21
4.89066
 31
0.0
  0
LINE
  8
0
 62
     0
 10
364.419
 20
4.89066
 30
0.0
 11
364.187
 21
5.12216
 31
0.0
  0
LINE
  8
0
 62
     0
 10
364.187
 20
5.12216
 30
0.0
 11
363.894
 21
5.27099
 31
0.0
  0
LINE
  8
0
 62
     0
 10
363.894
 20
5.27099
 30
0.0
 11
363.569
 21
5.32197
 31
0.0
  0
LINE
  8
0
 62
     0
 10
363.569
 20
5.32197
 30
0.0
 11
363.245
 21
5.27099
 31
0.0
  0
LINE
  8
0
 62
     0
 10
3.77031
 20
89.2817
 30
0.0
 11
3.47817
 21
89.1328
 31
0.0
  0
LINE
  8
0
 62
     0
 10
3.47817
 20
89.1328
 30
0.0
 11
3.24528
 21
88.9
 31
0.0
  0
LINE
  8
0
 62
     0
 10
3.24528
 20
88.9
 30
0.0
 11
3.09507
 21
88.6079
 31
0.0
  0
LINE
  8
0
 62
     0
 10
3.09507
 20
88.6079
 30
0.0
 11
3.04409
 21
88.284
 31
0.0
  0
LINE
  8
0
 62
     0
 10
3.04409
 20
88.284
 30
0.0
 11
3.09507
 21
87.9588
 31
0.0
  0
LINE
  8
0
 62
     0
 10
3.09507
 20
87.9588
 30
0.0
 11
3.24528
 21
87.6667
 31
0.0
  0
LINE
  8
0
 62
     0
 10
3.24528
 20
87.6667
 30
0.0
 11
3.47817
 21
87.4339
 31
0.0
  0
LINE
  8
0
 62
     0
 10
3.47817
 20
87.4339
 30
0.0
 11
3.77031
 21
87.285
 31
0.0
  0
LINE
  8
0
 62
     0
 10
3.77031
 20
87.285
 30
0.0
 11
4.09554
 21
87.2338
 31
0.0
  0
LINE
  8
0
 62
     0
 10
4.09554
 20
87.2338
 30
0.0
 11
4.41935
 21
87.285
 31
0.0
  0
LINE
  8
0
 62
     0
 10
4.41935
 20
87.285
 30
0.0
 11
4.7129
 21
87.4339
 31
0.0
  0
LINE
  8
0
 62
     0
 10
4.7129
 20
87.4339
 30
0.0
 11
4.94439
 21
87.6667
 31
0.0
  0
LINE
  8
0
 62
     0
 10
4.94439
 20
87.6667
 30
0.0
 11
5.09323
 21
87.9588
 31
0.0
  0
LINE
  8
0
 62
     0
 10
5.09323
 20
87.9588
 30
0.0
 11
5.14558
 21
88.284
 31
0.0
  0
LINE
  8
0
 62
     0
 10
5.14558
 20
88.284
 30
0.0
 11
5.09323
 21
88.6079
 31
0.0
  0
LINE
  8
0
 62
     0
 10
5.09323
 20
88.6079
 30
0.0
 11
4.94439
 21
88.9
 31
0.0
  0
LINE
  8
0
 62
     0
 10
4.94439
 20
88.9
 30
0.0
 11
4.7129
 21
89.1328
 31
0.0
  0
LINE
  8
0
 62
     0
 10
4.7129
 20
89.1328
 30
0.0
 11
4.41935
 21
89.2817
 31
0.0
  0
LINE
  8
0
 62
     0
 10
4.41935
 20
89.2817
 30
0.0
 11
4.09554
 21
89.3339
 31
0.0
  0
LINE
  8
0
 62
     0
 10
4.09554
 20
89.3339
 30
0.0
 11
3.77031
 21
89.2817
 31
0.0
  0
LINE
  8
0
 62
     0
 10
363.245
 20
89.2817
 30
0.0
 11
362.952
 21
89.1328
 31
0.0
  0
LINE
  8
0
 62
     0
 10
362.952
 20
89.1328
 30
0.0
 11
362.719
 21
88.9
 31
0.0
  0
LINE
  8
0
 62
     0
 10
362.719
 20
88.9
 30
0.0
 11
362.571
 21
88.6079
 31
0.0
  0
LINE
  8
0
 62
     0
 10
362.571
 20
88.6079
 30
0.0
 11
362.518
 21
88.284
 31
0.0
  0
LINE
  8
0
 62
     0
 10
362.518
 20
88.284
 30
0.0
 11
362.571
 21
87.9588
 31
0.0
  0
LINE
  8
0
 62
     0
 10
362.571
 20
87.9588
 30
0.0
 11
362.719
 21
87.6667
 31
0.0
  0
LINE
  8
0
 62
     0
 10
362.719
 20
87.6667
 30
0.0
 11
362.952
 21
87.4339
 31
0.0
  0
LINE
  8
0
 62
     0
 10
362.952
 20
87.4339
 30
0.0
 11
363.245
 21
87.285
 31
0.0
  0
LINE
  8
0
 62
     0
 10
363.245
 20
87.285
 30
0.0
 11
363.569
 21
87.2338
 31
0.0
  0
LINE
  8
0
 62
     0
 10
363.569
 20
87.2338
 30
0.0
 11
363.894
 21
87.285
 31
0.0
  0
LINE
  8
0
 62
     0
 10
363.894
 20
87.285
 30
0.0
 11
364.187
 21
87.4339
 31
0.0
  0
LINE
  8
0
 62
     0
 10
364.187
 20
87.4339
 30
0.0
 11
364.419
 21
87.6667
 31
0.0
  0
LINE
  8
0
 62
     0
 10
364.419
 20
87.6667
 30
0.0
 11
364.568
 21
87.9588
 31
0.0
  0
LINE
  8
0
 62
     0
 10
364.568
 20
87.9588
 30
0.0
 11
364.617
 21
88.284
 31
0.0
  0
LINE
  8
0
 62
     0
 10
364.617
 20
88.284
 30
0.0
 11
364.568
 21
88.6079
 31
0.0
  0
LINE
  8
0
 62
     0
 10
364.568
 20
88.6079
 30
0.0
 11
364.419
 21
88.9
 31
0.0
  0
LINE
  8
0
 62
     0
 10
364.419
 20
88.9
 30
0.0
 11
364.187
 21
89.1328
 31
0.0
  0
LINE
  8
0
 62
     0
 10
364.187
 20
89.1328
 30
0.0
 11
363.894
 21
89.2817
 31
0.0
  0
LINE
  8
0
 62
     0
 10
363.894
 20
89.2817
 30
0.0
 11
363.569
 21
89.3339
 31
0.0
  0
LINE
  8
0
 62
     0
 10
363.569
 20
89.3339
 30
0.0
 11
363.245
 21
89.2817
 31
0.0
  0
LINE
  8
0
 62
     0
 10
3.77031
 20
173.294
 30
0.0
 11
3.47817
 21
173.144
 31
0.0
  0
LINE
  8
0
 62
     0
 10
3.47817
 20
173.144
 30
0.0
 11
3.24528
 21
172.911
 31
0.0
  0
LINE
  8
0
 62
     0
 10
3.24528
 20
172.911
 30
0.0
 11
3.09507
 21
172.619
 31
0.0
  0
LINE
  8
0
 62
     0
 10
3.09507
 20
172.619
 30
0.0
 11
3.04409
 21
172.293
 31
0.0
  0
LINE
  8
0
 62
     0
 10
3.04409
 20
172.293
 30
0.0
 11
3.09507
 21
171.97
 31
0.0
  0
LINE
  8
0
 62
     0
 10
3.09507
 20
171.97
 30
0.0
 11
3.24528
 21
171.676
 31
0.0
  0
LINE
  8
0
 62
     0
 10
3.24528
 20
171.676
 30
0.0
 11
3.47817
 21
171.444
 31
0.0
  0
LINE
  8
0
 62
     0
 10
3.47817
 20
171.444
 30
0.0
 11
3.77031
 21
171.296
 31
0.0
  0
LINE
  8
0
 62
     0
 10
3.77031
 20
171.296
 30
0.0
 11
4.09554
 21
171.243
 31
0.0
  0
LINE
  8
0
 62
     0
 10
4.09554
 20
171.243
 30
0.0
 11
4.41935
 21
171.296
 31
0.0
  0
LINE
  8
0
 62
     0
 10
4.41935
 20
171.296
 30
0.0
 11
4.7129
 21
171.444
 31
0.0
  0
LINE
  8
0
 62
     0
 10
4.7129
 20
171.444
 30
0.0
 11
4.94439
 21
171.676
 31
0.0
  0
LINE
  8
0
 62
     0
 10
4.94439
 20
171.676
 30
0.0
 11
5.09323
 21
171.97
 31
0.0
  0
LINE
  8
0
 62
     0
 10
5.09323
 20
171.97
 30
0.0
 11
5.14558
 21
172.293
 31
0.0
  0
LINE
  8
0
 62
     0
 10
5.14558
 20
172.293
 30
0.0
 11
5.09323
 21
172.619
 31
0.0
  0
LINE
  8
0
 62
     0
 10
5.09323
 20
172.619
 30
0.0
 11
4.94439
 21
172.911
 31
0.0
  0
LINE
  8
0
 62
     0
 10
4.94439
 20
172.911
 30
0.0
 11
4.7129
 21
173.144
 31
0.0
  0
LINE
  8
0
 62
     0
 10
4.7129
 20
173.144
 30
0.0
 11
4.41935
 21
173.294
 31
0.0
  0
LINE
  8
0
 62
     0
 10
4.41935
 20
173.294
 30
0.0
 11
4.09554
 21
173.343
 31
0.0
  0
LINE
  8
0
 62
     0
 10
4.09554
 20
173.343
 30
0.0
 11
3.77031
 21
173.294
 31
0.0
  0
LINE
  8
0
 62
     0
 10
363.245
 20
173.294
 30
0.0
 11
362.952
 21
173.144
 31
0.0
  0
LINE
  8
0
 62
     0
 10
362.952
 20
173.144
 30
0.0
 11
362.719
 21
172.911
 31
0.0
  0
LINE
  8
0
 62
     0
 10
362.719
 20
172.911
 30
0.0
 11
362.571
 21
172.619
 31
0.0
  0
LINE
  8
0
 62
     0
 10
362.571
 20
172.619
 30
0.0
 11
362.518
 21
172.293
 31
0.0
  0
LINE
  8
0
 62
     0
 10
362.518
 20
172.293
 30
0.0
 11
362.571
 21
171.97
 31
0.0
  0
LINE
  8
0
 62
     0
 10
362.571
 20
171.97
 30
0.0
 11
362.719
 21
171.676
 31
0.0
  0
LINE
  8
0
 62
     0
 10
362.719
 20
171.676
 30
0.0
 11
362.952
 21
171.444
 31
0.0
  0
LINE
  8
0
 62
     0
 10
362.952
 20
171.444
 30
0.0
 11
363.245
 21
171.296
 31
0.0
  0
LINE
  8
0
 62
     0
 10
363.245
 20
171.296
 30
0.0
 11
363.569
 21
171.243
 31
0.0
  0
LINE
  8
0
 62
     0
 10
363.569
 20
171.243
 30
0.0
 11
363.894
 21
171.296
 31
0.0
  0
LINE
  8
0
 62
     0
 10
363.894
 20
171.296
 30
0.0
 11
364.187
 21
171.444
 31
0.0
  0
LINE
  8
0
 62
     0
 10
364.187
 20
171.444
 30
0.0
 11
364.419
 21
171.676
 31
0.0
  0
LINE
  8
0
 62
     0
 10
364.419
 20
171.676
 30
0.0
 11
364.568
 21
171.97
 31
0.0
  0
LINE
  8
0
 62
     0
 10
364.568
 20
171.97
 30
0.0
 11
364.617
 21
172.293
 31
0.0
  0
LINE
  8
0
 62
     0
 10
364.617
 20
172.293
 30
0.0
 11
364.568
 21
172.619
 31
0.0
  0
LINE
  8
0
 62
     0
 10
364.568
 20
172.619
 30
0.0
 11
364.419
 21
172.911
 31
0.0
  0
LINE
  8
0
 62
     0
 10
364.419
 20
172.911
 30
0.0
 11
364.187
 21
173.144
 31
0.0
  0
LINE
  8
0
 62
     0
 10
364.187
 20
173.144
 30
0.0
 11
363.894
 21
173.294
 31
0.0
  0
LINE
  8
0
 62
     0
 10
363.894
 20
173.294
 30
0.0
 11
363.569
 21
173.343
 31
0.0
  0
LINE
  8
0
 62
     0
 10
363.569
 20
173.343
 30
0.0
 11
363.245
 21
173.294
 31
0.0
  0
LINE
  8
0
 62
     0
 10
291.349
 20
173.294
 30
0.0
 11
291.057
 21
173.144
 31
0.0
  0
LINE
  8
0
 62
     0
 10
291.057
 20
173.144
 30
0.0
 11
290.824
 21
172.911
 31
0.0
  0
LINE
  8
0
 62
     0
 10
290.824
 20
172.911
 30
0.0
 11
290.675
 21
172.619
 31
0.0
  0
LINE
  8
0
 62
     0
 10
290.675
 20
172.619
 30
0.0
 11
290.624
 21
172.293
 31
0.0
  0
LINE
  8
0
 62
     0
 10
290.624
 20
172.293
 30
0.0
 11
290.675
 21
171.97
 31
0.0
  0
LINE
  8
0
 62
     0
 10
290.675
 20
171.97
 30
0.0
 11
290.824
 21
171.676
 31
0.0
  0
LINE
  8
0
 62
     0
 10
290.824
 20
171.676
 30
0.0
 11
291.057
 21
171.444
 31
0.0
  0
LINE
  8
0
 62
     0
 10
291.057
 20
171.444
 30
0.0
 11
291.349
 21
171.296
 31
0.0
  0
LINE
  8
0
 62
     0
 10
291.349
 20
171.296
 30
0.0
 11
291.673
 21
171.243
 31
0.0
  0
LINE
  8
0
 62
     0
 10
291.673
 20
171.243
 30
0.0
 11
291.998
 21
171.296
 31
0.0
  0
LINE
  8
0
 62
     0
 10
291.998
 20
171.296
 30
0.0
 11
292.29
 21
171.444
 31
0.0
  0
LINE
  8
0
 62
     0
 10
292.29
 20
171.444
 30
0.0
 11
292.523
 21
171.676
 31
0.0
  0
LINE
  8
0
 62
     0
 10
292.523
 20
171.676
 30
0.0
 11
292.672
 21
171.97
 31
0.0
  0
LINE
  8
0
 62
     0
 10
292.672
 20
171.97
 30
0.0
 11
292.723
 21
172.293
 31
0.0
  0
LINE
  8
0
 62
     0
 10
292.723
 20
172.293
 30
0.0
 11
292.672
 21
172.619
 31
0.0
  0
LINE
  8
0
 62
     0
 10
292.672
 20
172.619
 30
0.0
 11
292.523
 21
172.911
 31
0.0
  0
LINE
  8
0
 62
     0
 10
292.523
 20
172.911
 30
0.0
 11
292.29
 21
173.144
 31
0.0
  0
LINE
  8
0
 62
     0
 10
292.29
 20
173.144
 30
0.0
 11
291.998
 21
173.294
 31
0.0
  0
LINE
  8
0
 62
     0
 10
291.998
 20
173.294
 30
0.0
 11
291.673
 21
173.343
 31
0.0
  0
LINE
  8
0
 62
     0
 10
291.673
 20
173.343
 30
0.0
 11
291.349
 21
173.294
 31
0.0
  0
LINE
  8
0
 62
     0
 10
219.454
 20
173.294
 30
0.0
 11
219.162
 21
173.144
 31
0.0
  0
LINE
  8
0
 62
     0
 10
219.162
 20
173.144
 30
0.0
 11
218.929
 21
172.911
 31
0.0
  0
LINE
  8
0
 62
     0
 10
218.929
 20
172.911
 30
0.0
 11
218.78
 21
172.619
 31
0.0
  0
LINE
  8
0
 62
     0
 10
218.78
 20
172.619
 30
0.0
 11
218.729
 21
172.293
 31
0.0
  0
LINE
  8
0
 62
     0
 10
218.729
 20
172.293
 30
0.0
 11
218.78
 21
171.97
 31
0.0
  0
LINE
  8
0
 62
     0
 10
218.78
 20
171.97
 30
0.0
 11
218.929
 21
171.676
 31
0.0
  0
LINE
  8
0
 62
     0
 10
218.929
 20
171.676
 30
0.0
 11
219.162
 21
171.444
 31
0.0
  0
LINE
  8
0
 62
     0
 10
219.162
 20
171.444
 30
0.0
 11
219.454
 21
171.296
 31
0.0
  0
LINE
  8
0
 62
     0
 10
219.454
 20
171.296
 30
0.0
 11
219.779
 21
171.243
 31
0.0
  0
LINE
  8
0
 62
     0
 10
219.779
 20
171.243
 30
0.0
 11
220.103
 21
171.296
 31
0.0
  0
LINE
  8
0
 62
     0
 10
220.103
 20
171.296
 30
0.0
 11
220.396
 21
171.444
 31
0.0
  0
LINE
  8
0
 62
     0
 10
220.396
 20
171.444
 30
0.0
 11
220.628
 21
171.676
 31
0.0
  0
LINE
  8
0
 62
     0
 10
220.628
 20
171.676
 30
0.0
 11
220.777
 21
171.97
 31
0.0
  0
LINE
  8
0
 62
     0
 10
220.777
 20
171.97
 30
0.0
 11
220.829
 21
172.293
 31
0.0
  0
LINE
  8
0
 62
     0
 10
220.829
 20
172.293
 30
0.0
 11
220.777
 21
172.619
 31
0.0
  0
LINE
  8
0
 62
     0
 10
220.777
 20
172.619
 30
0.0
 11
220.628
 21
172.911
 31
0.0
  0
LINE
  8
0
 62
     0
 10
220.628
 20
172.911
 30
0.0
 11
220.396
 21
173.144
 31
0.0
  0
LINE
  8
0
 62
     0
 10
220.396
 20
173.144
 30
0.0
 11
220.103
 21
173.294
 31
0.0
  0
LINE
  8
0
 62
     0
 10
220.103
 20
173.294
 30
0.0
 11
219.779
 21
173.343
 31
0.0
  0
LINE
  8
0
 62
     0
 10
219.779
 20
173.343
 30
0.0
 11
219.454
 21
173.294
 31
0.0
  0
LINE
  8
0
 62
     0
 10
147.559
 20
173.294
 30
0.0
 11
147.267
 21
173.144
 31
0.0
  0
LINE
  8
0
 62
     0
 10
147.267
 20
173.144
 30
0.0
 11
147.034
 21
172.911
 31
0.0
  0
LINE
  8
0
 62
     0
 10
147.034
 20
172.911
 30
0.0
 11
146.885
 21
172.619
 31
0.0
  0
LINE
  8
0
 62
     0
 10
146.885
 20
172.619
 30
0.0
 11
146.834
 21
172.293
 31
0.0
  0
LINE
  8
0
 62
     0
 10
146.834
 20
172.293
 30
0.0
 11
146.885
 21
171.97
 31
0.0
  0
LINE
  8
0
 62
     0
 10
146.885
 20
171.97
 30
0.0
 11
147.034
 21
171.676
 31
0.0
  0
LINE
  8
0
 62
     0
 10
147.034
 20
171.676
 30
0.0
 11
147.267
 21
171.444
 31
0.0
  0
LINE
  8
0
 62
     0
 10
147.267
 20
171.444
 30
0.0
 11
147.559
 21
171.296
 31
0.0
  0
LINE
  8
0
 62
     0
 10
147.559
 20
171.296
 30
0.0
 11
147.884
 21
171.243
 31
0.0
  0
LINE
  8
0
 62
     0
 10
147.884
 20
171.243
 30
0.0
 11
148.208
 21
171.296
 31
0.0
  0
LINE
  8
0
 62
     0
 10
148.208
 20
171.296
 30
0.0
 11
148.501
 21
171.444
 31
0.0
  0
LINE
  8
0
 62
     0
 10
148.501
 20
171.444
 30
0.0
 11
148.733
 21
171.676
 31
0.0
  0
LINE
  8
0
 62
     0
 10
148.733
 20
171.676
 30
0.0
 11
148.883
 21
171.97
 31
0.0
  0
LINE
  8
0
 62
     0
 10
148.883
 20
171.97
 30
0.0
 11
148.934
 21
172.293
 31
0.0
  0
LINE
  8
0
 62
     0
 10
148.934
 20
172.293
 30
0.0
 11
148.883
 21
172.619
 31
0.0
  0
LINE
  8
0
 62
     0
 10
148.883
 20
172.619
 30
0.0
 11
148.733
 21
172.911
 31
0.0
  0
LINE
  8
0
 62
     0
 10
148.733
 20
172.911
 30
0.0
 11
148.501
 21
173.144
 31
0.0
  0
LINE
  8
0
 62
     0
 10
148.501
 20
173.144
 30
0.0
 11
148.208
 21
173.294
 31
0.0
  0
LINE
  8
0
 62
     0
 10
148.208
 20
173.294
 30
0.0
 11
147.884
 21
173.343
 31
0.0
  0
LINE
  8
0
 62
     0
 10
147.884
 20
173.343
 30
0.0
 11
147.559
 21
173.294
 31
0.0
  0
LINE
  8
0
 62
     0
 10
75.6652
 20
173.294
 30
0.0
 11
75.3731
 21
173.144
 31
0.0
  0
LINE
  8
0
 62
     0
 10
75.3731
 20
173.144
 30
0.0
 11
75.1403
 21
172.911
 31
0.0
  0
LINE
  8
0
 62
     0
 10
75.1403
 20
172.911
 30
0.0
 11
74.9914
 21
172.619
 31
0.0
  0
LINE
  8
0
 62
     0
 10
74.9914
 20
172.619
 30
0.0
 11
74.9392
 21
172.293
 31
0.0
  0
LINE
  8
0
 62
     0
 10
74.9392
 20
172.293
 30
0.0
 11
74.9914
 21
171.97
 31
0.0
  0
LINE
  8
0
 62
     0
 10
74.9914
 20
171.97
 30
0.0
 11
75.1403
 21
171.676
 31
0.0
  0
LINE
  8
0
 62
     0
 10
75.1403
 20
171.676
 30
0.0
 11
75.3731
 21
171.444
 31
0.0
  0
LINE
  8
0
 62
     0
 10
75.3731
 20
171.444
 30
0.0
 11
75.6652
 21
171.296
 31
0.0
  0
LINE
  8
0
 62
     0
 10
75.6652
 20
171.296
 30
0.0
 11
75.989
 21
171.243
 31
0.0
  0
LINE
  8
0
 62
     0
 10
75.989
 20
171.243
 30
0.0
 11
76.3143
 21
171.296
 31
0.0
  0
LINE
  8
0
 62
     0
 10
76.3143
 20
171.296
 30
0.0
 11
76.6064
 21
171.444
 31
0.0
  0
LINE
  8
0
 62
     0
 10
76.6064
 20
171.444
 30
0.0
 11
76.8396
 21
171.676
 31
0.0
  0
LINE
  8
0
 62
     0
 10
76.8396
 20
171.676
 30
0.0
 11
76.9881
 21
171.97
 31
0.0
  0
LINE
  8
0
 62
     0
 10
76.9881
 20
171.97
 30
0.0
 11
77.0393
 21
172.293
 31
0.0
  0
LINE
  8
0
 62
     0
 10
77.0393
 20
172.293
 30
0.0
 11
76.9881
 21
172.619
 31
0.0
  0
LINE
  8
0
 62
     0
 10
76.9881
 20
172.619
 30
0.0
 11
76.8396
 21
172.911
 31
0.0
  0
LINE
  8
0
 62
     0
 10
76.8396
 20
172.911
 30
0.0
 11
76.6064
 21
173.144
 31
0.0
  0
LINE
  8
0
 62
     0
 10
76.6064
 20
173.144
 30
0.0
 11
76.3143
 21
173.294
 31
0.0
  0
LINE
  8
0
 62
     0
 10
76.3143
 20
173.294
 30
0.0
 11
75.989
 21
173.343
 31
0.0
  0
LINE
  8
0
 62
     0
 10
75.989
 20
173.343
 30
0.0
 11
75.6652
 21
173.294
 31
0.0
  0
ENDSEC
  0
EOF
