  0
SECTION
  2
HEADER
  9
$ACADVER
  1
AC1009
  9
$EXTMIN
 10
0.0
 20
0.0
 30
0.0
  9
$EXTMAX
 10
1000.0
 20
1000.0
 30
0.0
  9
$FILLMODE
 70
 0
  9
$SPLFRAME
 70
 1
  0
ENDSEC
  0
SECTION
  2
TABLES
  0
TABLE
  2
LAYER
 70
1
  0
LAYER
  2
0
 70
     0
 62
     7
  6
CONTINUOUS
  0
ENDTAB
  0
ENDSEC
  0
SECTION
  2
ENTITIES
  0
LINE
  8
0
 62
     0
 10
364.568
 20
176.294
 30
0.0
 11
364.804
 21
176.284
 31
0.0
  0
LINE
  8
0
 62
     0
 10
364.804
 20
176.284
 30
0.0
 11
365.037
 21
176.258
 31
0.0
  0
LINE
  8
0
 62
     0
 10
365.037
 20
176.258
 30
0.0
 11
365.27
 21
176.211
 31
0.0
  0
LINE
  8
0
 62
     0
 10
365.27
 20
176.211
 30
0.0
 11
365.495
 21
176.148
 31
0.0
  0
LINE
  8
0
 62
     0
 10
365.495
 20
176.148
 30
0.0
 11
365.718
 21
176.065
 31
0.0
  0
LINE
  8
0
 62
     0
 10
365.718
 20
176.065
 30
0.0
 11
365.933
 21
175.967
 31
0.0
  0
LINE
  8
0
 62
     0
 10
365.933
 20
175.967
 30
0.0
 11
366.134
 21
175.852
 31
0.0
  0
LINE
  8
0
 62
     0
 10
366.134
 20
175.852
 30
0.0
 11
366.332
 21
175.722
 31
0.0
  0
LINE
  8
0
 62
     0
 10
366.332
 20
175.722
 30
0.0
 11
366.518
 21
175.576
 31
0.0
  0
LINE
  8
0
 62
     0
 10
366.518
 20
175.576
 30
0.0
 11
366.688
 21
175.416
 31
0.0
  0
LINE
  8
0
 62
     0
 10
366.688
 20
175.416
 30
0.0
 11
366.85
 21
175.242
 31
0.0
  0
LINE
  8
0
 62
     0
 10
366.85
 20
175.242
 30
0.0
 11
366.995
 21
175.058
 31
0.0
  0
LINE
  8
0
 62
     0
 10
366.995
 20
175.058
 30
0.0
 11
367.125
 21
174.862
 31
0.0
  0
LINE
  8
0
 62
     0
 10
367.125
 20
174.862
 30
0.0
 11
367.242
 21
174.655
 31
0.0
  0
LINE
  8
0
 62
     0
 10
367.242
 20
174.655
 30
0.0
 11
367.34
 21
174.442
 31
0.0
  0
LINE
  8
0
 62
     0
 10
367.34
 20
174.442
 30
0.0
 11
367.422
 21
174.221
 31
0.0
  0
LINE
  8
0
 62
     0
 10
367.422
 20
174.221
 30
0.0
 11
367.485
 21
173.994
 31
0.0
  0
LINE
  8
0
 62
     0
 10
367.485
 20
173.994
 30
0.0
 11
367.531
 21
173.764
 31
0.0
  0
LINE
  8
0
 62
     0
 10
367.531
 20
173.764
 30
0.0
 11
367.559
 21
173.53
 31
0.0
  0
LINE
  8
0
 62
     0
 10
367.559
 20
173.53
 30
0.0
 11
367.57
 21
173.294
 31
0.0
  0
LINE
  8
0
 62
     0
 10
367.57
 20
173.294
 30
0.0
 11
367.57
 21
3.27284
 31
0.0
  0
LINE
  8
0
 62
     0
 10
367.57
 20
3.27284
 30
0.0
 11
367.559
 21
3.0372
 31
0.0
  0
LINE
  8
0
 62
     0
 10
367.559
 20
3.0372
 30
0.0
 11
367.531
 21
2.80293
 31
0.0
  0
LINE
  8
0
 62
     0
 10
367.531
 20
2.80293
 30
0.0
 11
367.485
 21
2.5728
 31
0.0
  0
LINE
  8
0
 62
     0
 10
367.485
 20
2.5728
 30
0.0
 11
367.422
 21
2.34542
 31
0.0
  0
LINE
  8
0
 62
     0
 10
367.422
 20
2.34542
 30
0.0
 11
367.34
 21
2.12494
 31
0.0
  0
LINE
  8
0
 62
     0
 10
367.34
 20
2.12494
 30
0.0
 11
367.242
 21
1.91134
 31
0.0
  0
LINE
  8
0
 62
     0
 10
367.242
 20
1.91134
 30
0.0
 11
367.125
 21
1.70601
 31
0.0
  0
LINE
  8
0
 62
     0
 10
367.125
 20
1.70601
 30
0.0
 11
366.995
 21
1.50895
 31
0.0
  0
LINE
  8
0
 62
     0
 10
366.995
 20
1.50895
 30
0.0
 11
366.85
 21
1.3243
 31
0.0
  0
LINE
  8
0
 62
     0
 10
366.85
 20
1.3243
 30
0.0
 11
366.688
 21
1.15204
 31
0.0
  0
LINE
  8
0
 62
     0
 10
366.688
 20
1.15204
 30
0.0
 11
366.518
 21
0.990808
 31
0.0
  0
LINE
  8
0
 62
     0
 10
366.518
 20
0.990808
 30
0.0
 11
366.332
 21
0.844737
 31
0.0
  0
LINE
  8
0
 62
     0
 10
366.332
 20
0.844737
 30
0.0
 11
366.134
 21
0.7152
 31
0.0
  0
LINE
  8
0
 62
     0
 10
366.134
 20
0.7152
 30
0.0
 11
365.933
 21
0.599447
 31
0.0
  0
LINE
  8
0
 62
     0
 10
365.933
 20
0.599447
 30
0.0
 11
365.718
 21
0.501608
 31
0.0
  0
LINE
  8
0
 62
     0
 10
365.718
 20
0.501608
 30
0.0
 11
365.495
 21
0.418924
 31
0.0
  0
LINE
  8
0
 62
     0
 10
365.495
 20
0.418924
 30
0.0
 11
365.27
 21
0.355533
 31
0.0
  0
LINE
  8
0
 62
     0
 10
365.27
 20
0.355533
 30
0.0
 11
365.037
 21
0.310059
 31
0.0
  0
LINE
  8
0
 62
     0
 10
365.037
 20
0.310059
 30
0.0
 11
364.804
 21
0.282498
 31
0.0
  0
LINE
  8
0
 62
     0
 10
364.804
 20
0.282498
 30
0.0
 11
364.568
 21
0.272852
 31
0.0
  0
LINE
  8
0
 62
     0
 10
364.568
 20
0.272852
 30
0.0
 11
3.09507
 21
0.272852
 31
0.0
  0
LINE
  8
0
 62
     0
 10
3.09507
 20
0.272852
 30
0.0
 11
2.85943
 21
0.282498
 31
0.0
  0
LINE
  8
0
 62
     0
 10
2.85943
 20
0.282498
 30
0.0
 11
2.62516
 21
0.310059
 31
0.0
  0
LINE
  8
0
 62
     0
 10
2.62516
 20
0.310059
 30
0.0
 11
2.39503
 21
0.355533
 31
0.0
  0
LINE
  8
0
 62
     0
 10
2.39503
 20
0.355533
 30
0.0
 11
2.16765
 21
0.418924
 31
0.0
  0
LINE
  8
0
 62
     0
 10
2.16765
 20
0.418924
 30
0.0
 11
1.94717
 21
0.501608
 31
0.0
  0
LINE
  8
0
 62
     0
 10
1.94717
 20
0.501608
 30
0.0
 11
1.73357
 21
0.599447
 31
0.0
  0
LINE
  8
0
 62
     0
 10
1.73357
 20
0.599447
 30
0.0
 11
1.52687
 21
0.7152
 31
0.0
  0
LINE
  8
0
 62
     0
 10
1.52687
 20
0.7152
 30
0.0
 11
1.33119
 21
0.844737
 31
0.0
  0
LINE
  8
0
 62
     0
 10
1.33119
 20
0.844737
 30
0.0
 11
1.14653
 21
0.990808
 31
0.0
  0
LINE
  8
0
 62
     0
 10
1.14653
 20
0.990808
 30
0.0
 11
0.972894
 21
1.15204
 31
0.0
  0
LINE
  8
0
 62
     0
 10
0.972894
 20
1.15204
 30
0.0
 11
0.813043
 21
1.3243
 31
0.0
  0
LINE
  8
0
 62
     0
 10
0.813043
 20
1.3243
 30
0.0
 11
0.666972
 21
1.50895
 31
0.0
  0
LINE
  8
0
 62
     0
 10
0.666972
 20
1.50895
 30
0.0
 11
0.537436
 21
1.70601
 31
0.0
  0
LINE
  8
0
 62
     0
 10
0.537436
 20
1.70601
 30
0.0
 11
0.421679
 21
1.91134
 31
0.0
  0
LINE
  8
0
 62
     0
 10
0.421679
 20
1.91134
 30
0.0
 11
0.323839
 21
2.12494
 31
0.0
  0
LINE
  8
0
 62
     0
 10
0.323839
 20
2.12494
 30
0.0
 11
0.241157
 21
2.34542
 31
0.0
  0
LINE
  8
0
 62
     0
 10
0.241157
 20
2.34542
 30
0.0
 11
0.177767
 21
2.5728
 31
0.0
  0
LINE
  8
0
 62
     0
 10
0.177767
 20
2.5728
 30
0.0
 11
0.130914
 21
2.80293
 31
0.0
  0
LINE
  8
0
 62
     0
 10
0.130914
 20
2.80293
 30
0.0
 11
0.104731
 21
3.0372
 31
0.0
  0
LINE
  8
0
 62
     0
 10
0.104731
 20
3.0372
 30
0.0
 11
0.0950846
 21
3.27284
 31
0.0
  0
LINE
  8
0
 62
     0
 10
0.0950846
 20
3.27284
 30
0.0
 11
0.0950846
 21
173.294
 31
0.0
  0
LINE
  8
0
 62
     0
 10
0.0950846
 20
173.294
 30
0.0
 11
0.104731
 21
173.53
 31
0.0
  0
LINE
  8
0
 62
     0
 10
0.104731
 20
173.53
 30
0.0
 11
0.130914
 21
173.764
 31
0.0
  0
LINE
  8
0
 62
     0
 10
0.130914
 20
173.764
 30
0.0
 11
0.177767
 21
173.994
 31
0.0
  0
LINE
  8
0
 62
     0
 10
0.177767
 20
173.994
 30
0.0
 11
0.241157
 21
174.221
 31
0.0
  0
LINE
  8
0
 62
     0
 10
0.241157
 20
174.221
 30
0.0
 11
0.323839
 21
174.442
 31
0.0
  0
LINE
  8
0
 62
     0
 10
0.323839
 20
174.442
 30
0.0
 11
0.421679
 21
174.655
 31
0.0
  0
LINE
  8
0
 62
     0
 10
0.421679
 20
174.655
 30
0.0
 11
0.537436
 21
174.862
 31
0.0
  0
LINE
  8
0
 62
     0
 10
0.537436
 20
174.862
 30
0.0
 11
0.666972
 21
175.058
 31
0.0
  0
LINE
  8
0
 62
     0
 10
0.666972
 20
175.058
 30
0.0
 11
0.813043
 21
175.242
 31
0.0
  0
LINE
  8
0
 62
     0
 10
0.813043
 20
175.242
 30
0.0
 11
0.972894
 21
175.416
 31
0.0
  0
LINE
  8
0
 62
     0
 10
0.972894
 20
175.416
 30
0.0
 11
1.14653
 21
175.576
 31
0.0
  0
LINE
  8
0
 62
     0
 10
1.14653
 20
175.576
 30
0.0
 11
1.33119
 21
175.722
 31
0.0
  0
LINE
  8
0
 62
     0
 10
1.33119
 20
175.722
 30
0.0
 11
1.52687
 21
175.852
 31
0.0
  0
LINE
  8
0
 62
     0
 10
1.52687
 20
175.852
 30
0.0
 11
1.73357
 21
175.967
 31
0.0
  0
LINE
  8
0
 62
     0
 10
1.73357
 20
175.967
 30
0.0
 11
1.94717
 21
176.065
 31
0.0
  0
LINE
  8
0
 62
     0
 10
1.94717
 20
176.065
 30
0.0
 11
2.16765
 21
176.148
 31
0.0
  0
LINE
  8
0
 62
     0
 10
2.16765
 20
176.148
 30
0.0
 11
2.39503
 21
176.211
 31
0.0
  0
LINE
  8
0
 62
     0
 10
2.39503
 20
176.211
 30
0.0
 11
2.62516
 21
176.258
 31
0.0
  0
LINE
  8
0
 62
     0
 10
2.62516
 20
176.258
 30
0.0
 11
2.85943
 21
176.284
 31
0.0
  0
LINE
  8
0
 62
     0
 10
2.85943
 20
176.284
 30
0.0
 11
3.09507
 21
176.294
 31
0.0
  0
LINE
  8
0
 62
     0
 10
3.09507
 20
176.294
 30
0.0
 11
364.568
 21
176.294
 31
0.0
  0
LINE
  8
0
 62
     0
 10
3.6008
 20
5.79466
 30
0.0
 11
3.15295
 21
5.56729
 31
0.0
  0
LINE
  8
0
 62
     0
 10
3.15295
 20
5.56729
 30
0.0
 11
2.80017
 21
5.2131
 31
0.0
  0
LINE
  8
0
 62
     0
 10
2.80017
 20
5.2131
 30
0.0
 11
2.57418
 21
4.768
 31
0.0
  0
LINE
  8
0
 62
     0
 10
2.57418
 20
4.768
 30
0.0
 11
2.49425
 21
4.27193
 31
0.0
  0
LINE
  8
0
 62
     0
 10
2.49425
 20
4.27193
 30
0.0
 11
2.57418
 21
3.77857
 31
0.0
  0
LINE
  8
0
 62
     0
 10
2.57418
 20
3.77857
 30
0.0
 11
2.80017
 21
3.3321
 31
0.0
  0
LINE
  8
0
 62
     0
 10
2.80017
 20
3.3321
 30
0.0
 11
3.15295
 21
2.97794
 31
0.0
  0
LINE
  8
0
 62
     0
 10
3.15295
 20
2.97794
 30
0.0
 11
3.6008
 21
2.75194
 31
0.0
  0
LINE
  8
0
 62
     0
 10
3.6008
 20
2.75194
 30
0.0
 11
4.09554
 21
2.67202
 31
0.0
  0
LINE
  8
0
 62
     0
 10
4.09554
 20
2.67202
 30
0.0
 11
4.58886
 21
2.75194
 31
0.0
  0
LINE
  8
0
 62
     0
 10
4.58886
 20
2.75194
 30
0.0
 11
5.03534
 21
2.97794
 31
0.0
  0
LINE
  8
0
 62
     0
 10
5.03534
 20
2.97794
 30
0.0
 11
5.38949
 21
3.3321
 31
0.0
  0
LINE
  8
0
 62
     0
 10
5.38949
 20
3.3321
 30
0.0
 11
5.61689
 21
3.77857
 31
0.0
  0
LINE
  8
0
 62
     0
 10
5.61689
 20
3.77857
 30
0.0
 11
5.69542
 21
4.27193
 31
0.0
  0
LINE
  8
0
 62
     0
 10
5.69542
 20
4.27193
 30
0.0
 11
5.61689
 21
4.768
 31
0.0
  0
LINE
  8
0
 62
     0
 10
5.61689
 20
4.768
 30
0.0
 11
5.38949
 21
5.2131
 31
0.0
  0
LINE
  8
0
 62
     0
 10
5.38949
 20
5.2131
 30
0.0
 11
5.03534
 21
5.56729
 31
0.0
  0
LINE
  8
0
 62
     0
 10
5.03534
 20
5.56729
 30
0.0
 11
4.58886
 21
5.79466
 31
0.0
  0
LINE
  8
0
 62
     0
 10
4.58886
 20
5.79466
 30
0.0
 11
4.09554
 21
5.87181
 31
0.0
  0
LINE
  8
0
 62
     0
 10
4.09554
 20
5.87181
 30
0.0
 11
3.6008
 21
5.79466
 31
0.0
  0
LINE
  8
0
 62
     0
 10
75.4959
 20
5.79466
 30
0.0
 11
75.0492
 21
5.56729
 31
0.0
  0
LINE
  8
0
 62
     0
 10
75.0492
 20
5.56729
 30
0.0
 11
74.695
 21
5.2131
 31
0.0
  0
LINE
  8
0
 62
     0
 10
74.695
 20
5.2131
 30
0.0
 11
74.4679
 21
4.768
 31
0.0
  0
LINE
  8
0
 62
     0
 10
74.4679
 20
4.768
 30
0.0
 11
74.3892
 21
4.27193
 31
0.0
  0
LINE
  8
0
 62
     0
 10
74.3892
 20
4.27193
 30
0.0
 11
74.4679
 21
3.77857
 31
0.0
  0
LINE
  8
0
 62
     0
 10
74.4679
 20
3.77857
 30
0.0
 11
74.695
 21
3.3321
 31
0.0
  0
LINE
  8
0
 62
     0
 10
74.695
 20
3.3321
 30
0.0
 11
75.0492
 21
2.97794
 31
0.0
  0
LINE
  8
0
 62
     0
 10
75.0492
 20
2.97794
 30
0.0
 11
75.4959
 21
2.75194
 31
0.0
  0
LINE
  8
0
 62
     0
 10
75.4959
 20
2.75194
 30
0.0
 11
75.989
 21
2.67202
 31
0.0
  0
LINE
  8
0
 62
     0
 10
75.989
 20
2.67202
 30
0.0
 11
76.484
 21
2.75194
 31
0.0
  0
LINE
  8
0
 62
     0
 10
76.484
 20
2.75194
 30
0.0
 11
76.9303
 21
2.97794
 31
0.0
  0
LINE
  8
0
 62
     0
 10
76.9303
 20
2.97794
 30
0.0
 11
77.2844
 21
3.3321
 31
0.0
  0
LINE
  8
0
 62
     0
 10
77.2844
 20
3.3321
 30
0.0
 11
77.512
 21
3.77857
 31
0.0
  0
LINE
  8
0
 62
     0
 10
77.512
 20
3.77857
 30
0.0
 11
77.5892
 21
4.27193
 31
0.0
  0
LINE
  8
0
 62
     0
 10
77.5892
 20
4.27193
 30
0.0
 11
77.512
 21
4.768
 31
0.0
  0
LINE
  8
0
 62
     0
 10
77.512
 20
4.768
 30
0.0
 11
77.2844
 21
5.2131
 31
0.0
  0
LINE
  8
0
 62
     0
 10
77.2844
 20
5.2131
 30
0.0
 11
76.9303
 21
5.56729
 31
0.0
  0
LINE
  8
0
 62
     0
 10
76.9303
 20
5.56729
 30
0.0
 11
76.484
 21
5.79466
 31
0.0
  0
LINE
  8
0
 62
     0
 10
76.484
 20
5.79466
 30
0.0
 11
75.989
 21
5.87181
 31
0.0
  0
LINE
  8
0
 62
     0
 10
75.989
 20
5.87181
 30
0.0
 11
75.4959
 21
5.79466
 31
0.0
  0
LINE
  8
0
 62
     0
 10
147.389
 20
5.79466
 30
0.0
 11
146.943
 21
5.56729
 31
0.0
  0
LINE
  8
0
 62
     0
 10
146.943
 20
5.56729
 30
0.0
 11
146.589
 21
5.2131
 31
0.0
  0
LINE
  8
0
 62
     0
 10
146.589
 20
5.2131
 30
0.0
 11
146.363
 21
4.768
 31
0.0
  0
LINE
  8
0
 62
     0
 10
146.363
 20
4.768
 30
0.0
 11
146.284
 21
4.27193
 31
0.0
  0
LINE
  8
0
 62
     0
 10
146.284
 20
4.27193
 30
0.0
 11
146.363
 21
3.77857
 31
0.0
  0
LINE
  8
0
 62
     0
 10
146.363
 20
3.77857
 30
0.0
 11
146.589
 21
3.3321
 31
0.0
  0
LINE
  8
0
 62
     0
 10
146.589
 20
3.3321
 30
0.0
 11
146.943
 21
2.97794
 31
0.0
  0
LINE
  8
0
 62
     0
 10
146.943
 20
2.97794
 30
0.0
 11
147.389
 21
2.75194
 31
0.0
  0
LINE
  8
0
 62
     0
 10
147.389
 20
2.75194
 30
0.0
 11
147.884
 21
2.67202
 31
0.0
  0
LINE
  8
0
 62
     0
 10
147.884
 20
2.67202
 30
0.0
 11
148.379
 21
2.75194
 31
0.0
  0
LINE
  8
0
 62
     0
 10
148.379
 20
2.75194
 30
0.0
 11
148.824
 21
2.97794
 31
0.0
  0
LINE
  8
0
 62
     0
 10
148.824
 20
2.97794
 30
0.0
 11
149.178
 21
3.3321
 31
0.0
  0
LINE
  8
0
 62
     0
 10
149.178
 20
3.3321
 30
0.0
 11
149.407
 21
3.77857
 31
0.0
  0
LINE
  8
0
 62
     0
 10
149.407
 20
3.77857
 30
0.0
 11
149.484
 21
4.27193
 31
0.0
  0
LINE
  8
0
 62
     0
 10
149.484
 20
4.27193
 30
0.0
 11
149.407
 21
4.768
 31
0.0
  0
LINE
  8
0
 62
     0
 10
149.407
 20
4.768
 30
0.0
 11
149.178
 21
5.2131
 31
0.0
  0
LINE
  8
0
 62
     0
 10
149.178
 20
5.2131
 30
0.0
 11
148.824
 21
5.56729
 31
0.0
  0
LINE
  8
0
 62
     0
 10
148.824
 20
5.56729
 30
0.0
 11
148.379
 21
5.79466
 31
0.0
  0
LINE
  8
0
 62
     0
 10
148.379
 20
5.79466
 30
0.0
 11
147.884
 21
5.87181
 31
0.0
  0
LINE
  8
0
 62
     0
 10
147.884
 20
5.87181
 30
0.0
 11
147.389
 21
5.79466
 31
0.0
  0
LINE
  8
0
 62
     0
 10
219.285
 20
5.79466
 30
0.0
 11
218.838
 21
5.56729
 31
0.0
  0
LINE
  8
0
 62
     0
 10
218.838
 20
5.56729
 30
0.0
 11
218.484
 21
5.2131
 31
0.0
  0
LINE
  8
0
 62
     0
 10
218.484
 20
5.2131
 30
0.0
 11
218.258
 21
4.768
 31
0.0
  0
LINE
  8
0
 62
     0
 10
218.258
 20
4.768
 30
0.0
 11
218.179
 21
4.27193
 31
0.0
  0
LINE
  8
0
 62
     0
 10
218.179
 20
4.27193
 30
0.0
 11
218.258
 21
3.77857
 31
0.0
  0
LINE
  8
0
 62
     0
 10
218.258
 20
3.77857
 30
0.0
 11
218.484
 21
3.3321
 31
0.0
  0
LINE
  8
0
 62
     0
 10
218.484
 20
3.3321
 30
0.0
 11
218.838
 21
2.97794
 31
0.0
  0
LINE
  8
0
 62
     0
 10
218.838
 20
2.97794
 30
0.0
 11
219.285
 21
2.75194
 31
0.0
  0
LINE
  8
0
 62
     0
 10
219.285
 20
2.75194
 30
0.0
 11
219.779
 21
2.67202
 31
0.0
  0
LINE
  8
0
 62
     0
 10
219.779
 20
2.67202
 30
0.0
 11
220.274
 21
2.75194
 31
0.0
  0
LINE
  8
0
 62
     0
 10
220.274
 20
2.75194
 30
0.0
 11
220.719
 21
2.97794
 31
0.0
  0
LINE
  8
0
 62
     0
 10
220.719
 20
2.97794
 30
0.0
 11
221.073
 21
3.3321
 31
0.0
  0
LINE
  8
0
 62
     0
 10
221.073
 20
3.3321
 30
0.0
 11
221.301
 21
3.77857
 31
0.0
  0
LINE
  8
0
 62
     0
 10
221.301
 20
3.77857
 30
0.0
 11
221.379
 21
4.27193
 31
0.0
  0
LINE
  8
0
 62
     0
 10
221.379
 20
4.27193
 30
0.0
 11
221.301
 21
4.768
 31
0.0
  0
LINE
  8
0
 62
     0
 10
221.301
 20
4.768
 30
0.0
 11
221.073
 21
5.2131
 31
0.0
  0
LINE
  8
0
 62
     0
 10
221.073
 20
5.2131
 30
0.0
 11
220.719
 21
5.56729
 31
0.0
  0
LINE
  8
0
 62
     0
 10
220.719
 20
5.56729
 30
0.0
 11
220.274
 21
5.79466
 31
0.0
  0
LINE
  8
0
 62
     0
 10
220.274
 20
5.79466
 30
0.0
 11
219.779
 21
5.87181
 31
0.0
  0
LINE
  8
0
 62
     0
 10
219.779
 20
5.87181
 30
0.0
 11
219.285
 21
5.79466
 31
0.0
  0
LINE
  8
0
 62
     0
 10
291.18
 20
5.79466
 30
0.0
 11
290.733
 21
5.56729
 31
0.0
  0
LINE
  8
0
 62
     0
 10
290.733
 20
5.56729
 30
0.0
 11
290.379
 21
5.2131
 31
0.0
  0
LINE
  8
0
 62
     0
 10
290.379
 20
5.2131
 30
0.0
 11
290.153
 21
4.768
 31
0.0
  0
LINE
  8
0
 62
     0
 10
290.153
 20
4.768
 30
0.0
 11
290.073
 21
4.27193
 31
0.0
  0
LINE
  8
0
 62
     0
 10
290.073
 20
4.27193
 30
0.0
 11
290.153
 21
3.77857
 31
0.0
  0
LINE
  8
0
 62
     0
 10
290.153
 20
3.77857
 30
0.0
 11
290.379
 21
3.3321
 31
0.0
  0
LINE
  8
0
 62
     0
 10
290.379
 20
3.3321
 30
0.0
 11
290.733
 21
2.97794
 31
0.0
  0
LINE
  8
0
 62
     0
 10
290.733
 20
2.97794
 30
0.0
 11
291.18
 21
2.75194
 31
0.0
  0
LINE
  8
0
 62
     0
 10
291.18
 20
2.75194
 30
0.0
 11
291.673
 21
2.67202
 31
0.0
  0
LINE
  8
0
 62
     0
 10
291.673
 20
2.67202
 30
0.0
 11
292.169
 21
2.75194
 31
0.0
  0
LINE
  8
0
 62
     0
 10
292.169
 20
2.75194
 30
0.0
 11
292.614
 21
2.97794
 31
0.0
  0
LINE
  8
0
 62
     0
 10
292.614
 20
2.97794
 30
0.0
 11
292.968
 21
3.3321
 31
0.0
  0
LINE
  8
0
 62
     0
 10
292.968
 20
3.3321
 30
0.0
 11
293.195
 21
3.77857
 31
0.0
  0
LINE
  8
0
 62
     0
 10
293.195
 20
3.77857
 30
0.0
 11
293.274
 21
4.27193
 31
0.0
  0
LINE
  8
0
 62
     0
 10
293.274
 20
4.27193
 30
0.0
 11
293.195
 21
4.768
 31
0.0
  0
LINE
  8
0
 62
     0
 10
293.195
 20
4.768
 30
0.0
 11
292.968
 21
5.2131
 31
0.0
  0
LINE
  8
0
 62
     0
 10
292.968
 20
5.2131
 30
0.0
 11
292.614
 21
5.56729
 31
0.0
  0
LINE
  8
0
 62
     0
 10
292.614
 20
5.56729
 30
0.0
 11
292.169
 21
5.79466
 31
0.0
  0
LINE
  8
0
 62
     0
 10
292.169
 20
5.79466
 30
0.0
 11
291.673
 21
5.87181
 31
0.0
  0
LINE
  8
0
 62
     0
 10
291.673
 20
5.87181
 30
0.0
 11
291.18
 21
5.79466
 31
0.0
  0
LINE
  8
0
 62
     0
 10
363.075
 20
5.79466
 30
0.0
 11
362.627
 21
5.56729
 31
0.0
  0
LINE
  8
0
 62
     0
 10
362.627
 20
5.56729
 30
0.0
 11
362.275
 21
5.2131
 31
0.0
  0
LINE
  8
0
 62
     0
 10
362.275
 20
5.2131
 30
0.0
 11
362.045
 21
4.768
 31
0.0
  0
LINE
  8
0
 62
     0
 10
362.045
 20
4.768
 30
0.0
 11
361.968
 21
4.27193
 31
0.0
  0
LINE
  8
0
 62
     0
 10
361.968
 20
4.27193
 30
0.0
 11
362.045
 21
3.77857
 31
0.0
  0
LINE
  8
0
 62
     0
 10
362.045
 20
3.77857
 30
0.0
 11
362.275
 21
3.3321
 31
0.0
  0
LINE
  8
0
 62
     0
 10
362.275
 20
3.3321
 30
0.0
 11
362.627
 21
2.97794
 31
0.0
  0
LINE
  8
0
 62
     0
 10
362.627
 20
2.97794
 30
0.0
 11
363.075
 21
2.75194
 31
0.0
  0
LINE
  8
0
 62
     0
 10
363.075
 20
2.75194
 30
0.0
 11
363.569
 21
2.67202
 31
0.0
  0
LINE
  8
0
 62
     0
 10
363.569
 20
2.67202
 30
0.0
 11
364.063
 21
2.75194
 31
0.0
  0
LINE
  8
0
 62
     0
 10
364.063
 20
2.75194
 30
0.0
 11
364.508
 21
2.97794
 31
0.0
  0
LINE
  8
0
 62
     0
 10
364.508
 20
2.97794
 30
0.0
 11
364.864
 21
3.3321
 31
0.0
  0
LINE
  8
0
 62
     0
 10
364.864
 20
3.3321
 30
0.0
 11
365.09
 21
3.77857
 31
0.0
  0
LINE
  8
0
 62
     0
 10
365.09
 20
3.77857
 30
0.0
 11
365.171
 21
4.27193
 31
0.0
  0
LINE
  8
0
 62
     0
 10
365.171
 20
4.27193
 30
0.0
 11
365.09
 21
4.768
 31
0.0
  0
LINE
  8
0
 62
     0
 10
365.09
 20
4.768
 30
0.0
 11
364.864
 21
5.2131
 31
0.0
  0
LINE
  8
0
 62
     0
 10
364.864
 20
5.2131
 30
0.0
 11
364.508
 21
5.56729
 31
0.0
  0
LINE
  8
0
 62
     0
 10
364.508
 20
5.56729
 30
0.0
 11
364.063
 21
5.79466
 31
0.0
  0
LINE
  8
0
 62
     0
 10
364.063
 20
5.79466
 30
0.0
 11
363.569
 21
5.87181
 31
0.0
  0
LINE
  8
0
 62
     0
 10
363.569
 20
5.87181
 30
0.0
 11
363.075
 21
5.79466
 31
0.0
  0
LINE
  8
0
 62
     0
 10
8.09597
 20
168.293
 30
0.0
 11
359.569
 21
168.293
 31
0.0
  0
LINE
  8
0
 62
     0
 10
359.569
 20
168.293
 30
0.0
 11
359.569
 21
8.27236
 31
0.0
  0
LINE
  8
0
 62
     0
 10
359.569
 20
8.27236
 30
0.0
 11
8.09597
 21
8.27236
 31
0.0
  0
LINE
  8
0
 62
     0
 10
8.09597
 20
8.27236
 30
0.0
 11
8.09597
 21
168.293
 31
0.0
  0
LINE
  8
0
 62
     0
 10
3.6008
 20
89.8052
 30
0.0
 11
3.15295
 21
89.578
 31
0.0
  0
LINE
  8
0
 62
     0
 10
3.15295
 20
89.578
 30
0.0
 11
2.80017
 21
89.2239
 31
0.0
  0
LINE
  8
0
 62
     0
 10
2.80017
 20
89.2239
 30
0.0
 11
2.57418
 21
88.7772
 31
0.0
  0
LINE
  8
0
 62
     0
 10
2.57418
 20
88.7772
 30
0.0
 11
2.49425
 21
88.284
 31
0.0
  0
LINE
  8
0
 62
     0
 10
2.49425
 20
88.284
 30
0.0
 11
2.57418
 21
87.7895
 31
0.0
  0
LINE
  8
0
 62
     0
 10
2.57418
 20
87.7895
 30
0.0
 11
2.80017
 21
87.3428
 31
0.0
  0
LINE
  8
0
 62
     0
 10
2.80017
 20
87.3428
 30
0.0
 11
3.15295
 21
86.9901
 31
0.0
  0
LINE
  8
0
 62
     0
 10
3.15295
 20
86.9901
 30
0.0
 11
3.6008
 21
86.7615
 31
0.0
  0
LINE
  8
0
 62
     0
 10
3.6008
 20
86.7615
 30
0.0
 11
4.09554
 21
86.6828
 31
0.0
  0
LINE
  8
0
 62
     0
 10
4.09554
 20
86.6828
 30
0.0
 11
4.58886
 21
86.7615
 31
0.0
  0
LINE
  8
0
 62
     0
 10
4.58886
 20
86.7615
 30
0.0
 11
5.03534
 21
86.9901
 31
0.0
  0
LINE
  8
0
 62
     0
 10
5.03534
 20
86.9901
 30
0.0
 11
5.38949
 21
87.3428
 31
0.0
  0
LINE
  8
0
 62
     0
 10
5.38949
 20
87.3428
 30
0.0
 11
5.61689
 21
87.7895
 31
0.0
  0
LINE
  8
0
 62
     0
 10
5.61689
 20
87.7895
 30
0.0
 11
5.69542
 21
88.284
 31
0.0
  0
LINE
  8
0
 62
     0
 10
5.69542
 20
88.284
 30
0.0
 11
5.61689
 21
88.7772
 31
0.0
  0
LINE
  8
0
 62
     0
 10
5.61689
 20
88.7772
 30
0.0
 11
5.38949
 21
89.2239
 31
0.0
  0
LINE
  8
0
 62
     0
 10
5.38949
 20
89.2239
 30
0.0
 11
5.03534
 21
89.578
 31
0.0
  0
LINE
  8
0
 62
     0
 10
5.03534
 20
89.578
 30
0.0
 11
4.58886
 21
89.8052
 31
0.0
  0
LINE
  8
0
 62
     0
 10
4.58886
 20
89.8052
 30
0.0
 11
4.09554
 21
89.8839
 31
0.0
  0
LINE
  8
0
 62
     0
 10
4.09554
 20
89.8839
 30
0.0
 11
3.6008
 21
89.8052
 31
0.0
  0
LINE
  8
0
 62
     0
 10
363.075
 20
89.8052
 30
0.0
 11
362.627
 21
89.578
 31
0.0
  0
LINE
  8
0
 62
     0
 10
362.627
 20
89.578
 30
0.0
 11
362.275
 21
89.2239
 31
0.0
  0
LINE
  8
0
 62
     0
 10
362.275
 20
89.2239
 30
0.0
 11
362.045
 21
88.7772
 31
0.0
  0
LINE
  8
0
 62
     0
 10
362.045
 20
88.7772
 30
0.0
 11
361.968
 21
88.284
 31
0.0
  0
LINE
  8
0
 62
     0
 10
361.968
 20
88.284
 30
0.0
 11
362.045
 21
87.7895
 31
0.0
  0
LINE
  8
0
 62
     0
 10
362.045
 20
87.7895
 30
0.0
 11
362.275
 21
87.3428
 31
0.0
  0
LINE
  8
0
 62
     0
 10
362.275
 20
87.3428
 30
0.0
 11
362.627
 21
86.9901
 31
0.0
  0
LINE
  8
0
 62
     0
 10
362.627
 20
86.9901
 30
0.0
 11
363.075
 21
86.7615
 31
0.0
  0
LINE
  8
0
 62
     0
 10
363.075
 20
86.7615
 30
0.0
 11
363.569
 21
86.6828
 31
0.0
  0
LINE
  8
0
 62
     0
 10
363.569
 20
86.6828
 30
0.0
 11
364.063
 21
86.7615
 31
0.0
  0
LINE
  8
0
 62
     0
 10
364.063
 20
86.7615
 30
0.0
 11
364.508
 21
86.9901
 31
0.0
  0
LINE
  8
0
 62
     0
 10
364.508
 20
86.9901
 30
0.0
 11
364.864
 21
87.3428
 31
0.0
  0
LINE
  8
0
 62
     0
 10
364.864
 20
87.3428
 30
0.0
 11
365.09
 21
87.7895
 31
0.0
  0
LINE
  8
0
 62
     0
 10
365.09
 20
87.7895
 30
0.0
 11
365.171
 21
88.284
 31
0.0
  0
LINE
  8
0
 62
     0
 10
365.171
 20
88.284
 30
0.0
 11
365.09
 21
88.7772
 31
0.0
  0
LINE
  8
0
 62
     0
 10
365.09
 20
88.7772
 30
0.0
 11
364.864
 21
89.2239
 31
0.0
  0
LINE
  8
0
 62
     0
 10
364.864
 20
89.2239
 30
0.0
 11
364.508
 21
89.578
 31
0.0
  0
LINE
  8
0
 62
     0
 10
364.508
 20
89.578
 30
0.0
 11
364.063
 21
89.8052
 31
0.0
  0
LINE
  8
0
 62
     0
 10
364.063
 20
89.8052
 30
0.0
 11
363.569
 21
89.8839
 31
0.0
  0
LINE
  8
0
 62
     0
 10
363.569
 20
89.8839
 30
0.0
 11
363.075
 21
89.8052
 31
0.0
  0
LINE
  8
0
 62
     0
 10
3.6008
 20
173.815
 30
0.0
 11
3.15295
 21
173.589
 31
0.0
  0
LINE
  8
0
 62
     0
 10
3.15295
 20
173.589
 30
0.0
 11
2.80017
 21
173.236
 31
0.0
  0
LINE
  8
0
 62
     0
 10
2.80017
 20
173.236
 30
0.0
 11
2.57418
 21
172.788
 31
0.0
  0
LINE
  8
0
 62
     0
 10
2.57418
 20
172.788
 30
0.0
 11
2.49425
 21
172.293
 31
0.0
  0
LINE
  8
0
 62
     0
 10
2.49425
 20
172.293
 30
0.0
 11
2.57418
 21
171.8
 31
0.0
  0
LINE
  8
0
 62
     0
 10
2.57418
 20
171.8
 30
0.0
 11
2.80017
 21
171.354
 31
0.0
  0
LINE
  8
0
 62
     0
 10
2.80017
 20
171.354
 30
0.0
 11
3.15295
 21
171
 31
0.0
  0
LINE
  8
0
 62
     0
 10
3.15295
 20
171
 30
0.0
 11
3.6008
 21
170.772
 31
0.0
  0
LINE
  8
0
 62
     0
 10
3.6008
 20
170.772
 30
0.0
 11
4.09554
 21
170.693
 31
0.0
  0
LINE
  8
0
 62
     0
 10
4.09554
 20
170.693
 30
0.0
 11
4.58886
 21
170.772
 31
0.0
  0
LINE
  8
0
 62
     0
 10
4.58886
 20
170.772
 30
0.0
 11
5.03534
 21
171
 31
0.0
  0
LINE
  8
0
 62
     0
 10
5.03534
 20
171
 30
0.0
 11
5.38949
 21
171.354
 31
0.0
  0
LINE
  8
0
 62
     0
 10
5.38949
 20
171.354
 30
0.0
 11
5.61689
 21
171.8
 31
0.0
  0
LINE
  8
0
 62
     0
 10
5.61689
 20
171.8
 30
0.0
 11
5.69542
 21
172.293
 31
0.0
  0
LINE
  8
0
 62
     0
 10
5.69542
 20
172.293
 30
0.0
 11
5.61689
 21
172.788
 31
0.0
  0
LINE
  8
0
 62
     0
 10
5.61689
 20
172.788
 30
0.0
 11
5.38949
 21
173.236
 31
0.0
  0
LINE
  8
0
 62
     0
 10
5.38949
 20
173.236
 30
0.0
 11
5.03534
 21
173.589
 31
0.0
  0
LINE
  8
0
 62
     0
 10
5.03534
 20
173.589
 30
0.0
 11
4.58886
 21
173.815
 31
0.0
  0
LINE
  8
0
 62
     0
 10
4.58886
 20
173.815
 30
0.0
 11
4.09554
 21
173.893
 31
0.0
  0
LINE
  8
0
 62
     0
 10
4.09554
 20
173.893
 30
0.0
 11
3.6008
 21
173.815
 31
0.0
  0
LINE
  8
0
 62
     0
 10
363.075
 20
173.815
 30
0.0
 11
362.627
 21
173.589
 31
0.0
  0
LINE
  8
0
 62
     0
 10
362.627
 20
173.589
 30
0.0
 11
362.275
 21
173.236
 31
0.0
  0
LINE
  8
0
 62
     0
 10
362.275
 20
173.236
 30
0.0
 11
362.045
 21
172.788
 31
0.0
  0
LINE
  8
0
 62
     0
 10
362.045
 20
172.788
 30
0.0
 11
361.968
 21
172.293
 31
0.0
  0
LINE
  8
0
 62
     0
 10
361.968
 20
172.293
 30
0.0
 11
362.045
 21
171.8
 31
0.0
  0
LINE
  8
0
 62
     0
 10
362.045
 20
171.8
 30
0.0
 11
362.275
 21
171.354
 31
0.0
  0
LINE
  8
0
 62
     0
 10
362.275
 20
171.354
 30
0.0
 11
362.627
 21
171
 31
0.0
  0
LINE
  8
0
 62
     0
 10
362.627
 20
171
 30
0.0
 11
363.075
 21
170.772
 31
0.0
  0
LINE
  8
0
 62
     0
 10
363.075
 20
170.772
 30
0.0
 11
363.569
 21
170.693
 31
0.0
  0
LINE
  8
0
 62
     0
 10
363.569
 20
170.693
 30
0.0
 11
364.063
 21
170.772
 31
0.0
  0
LINE
  8
0
 62
     0
 10
364.063
 20
170.772
 30
0.0
 11
364.508
 21
171
 31
0.0
  0
LINE
  8
0
 62
     0
 10
364.508
 20
171
 30
0.0
 11
364.864
 21
171.354
 31
0.0
  0
LINE
  8
0
 62
     0
 10
364.864
 20
171.354
 30
0.0
 11
365.09
 21
171.8
 31
0.0
  0
LINE
  8
0
 62
     0
 10
365.09
 20
171.8
 30
0.0
 11
365.171
 21
172.293
 31
0.0
  0
LINE
  8
0
 62
     0
 10
365.171
 20
172.293
 30
0.0
 11
365.09
 21
172.788
 31
0.0
  0
LINE
  8
0
 62
     0
 10
365.09
 20
172.788
 30
0.0
 11
364.864
 21
173.236
 31
0.0
  0
LINE
  8
0
 62
     0
 10
364.864
 20
173.236
 30
0.0
 11
364.508
 21
173.589
 31
0.0
  0
LINE
  8
0
 62
     0
 10
364.508
 20
173.589
 30
0.0
 11
364.063
 21
173.815
 31
0.0
  0
LINE
  8
0
 62
     0
 10
364.063
 20
173.815
 30
0.0
 11
363.569
 21
173.893
 31
0.0
  0
LINE
  8
0
 62
     0
 10
363.569
 20
173.893
 30
0.0
 11
363.075
 21
173.815
 31
0.0
  0
LINE
  8
0
 62
     0
 10
291.18
 20
173.815
 30
0.0
 11
290.733
 21
173.589
 31
0.0
  0
LINE
  8
0
 62
     0
 10
290.733
 20
173.589
 30
0.0
 11
290.379
 21
173.236
 31
0.0
  0
LINE
  8
0
 62
     0
 10
290.379
 20
173.236
 30
0.0
 11
290.153
 21
172.788
 31
0.0
  0
LINE
  8
0
 62
     0
 10
290.153
 20
172.788
 30
0.0
 11
290.073
 21
172.293
 31
0.0
  0
LINE
  8
0
 62
     0
 10
290.073
 20
172.293
 30
0.0
 11
290.153
 21
171.8
 31
0.0
  0
LINE
  8
0
 62
     0
 10
290.153
 20
171.8
 30
0.0
 11
290.379
 21
171.354
 31
0.0
  0
LINE
  8
0
 62
     0
 10
290.379
 20
171.354
 30
0.0
 11
290.733
 21
171
 31
0.0
  0
LINE
  8
0
 62
     0
 10
290.733
 20
171
 30
0.0
 11
291.18
 21
170.772
 31
0.0
  0
LINE
  8
0
 62
     0
 10
291.18
 20
170.772
 30
0.0
 11
291.673
 21
170.693
 31
0.0
  0
LINE
  8
0
 62
     0
 10
291.673
 20
170.693
 30
0.0
 11
292.169
 21
170.772
 31
0.0
  0
LINE
  8
0
 62
     0
 10
292.169
 20
170.772
 30
0.0
 11
292.614
 21
171
 31
0.0
  0
LINE
  8
0
 62
     0
 10
292.614
 20
171
 30
0.0
 11
292.968
 21
171.354
 31
0.0
  0
LINE
  8
0
 62
     0
 10
292.968
 20
171.354
 30
0.0
 11
293.195
 21
171.8
 31
0.0
  0
LINE
  8
0
 62
     0
 10
293.195
 20
171.8
 30
0.0
 11
293.274
 21
172.293
 31
0.0
  0
LINE
  8
0
 62
     0
 10
293.274
 20
172.293
 30
0.0
 11
293.195
 21
172.788
 31
0.0
  0
LINE
  8
0
 62
     0
 10
293.195
 20
172.788
 30
0.0
 11
292.968
 21
173.236
 31
0.0
  0
LINE
  8
0
 62
     0
 10
292.968
 20
173.236
 30
0.0
 11
292.614
 21
173.589
 31
0.0
  0
LINE
  8
0
 62
     0
 10
292.614
 20
173.589
 30
0.0
 11
292.169
 21
173.815
 31
0.0
  0
LINE
  8
0
 62
     0
 10
292.169
 20
173.815
 30
0.0
 11
291.673
 21
173.893
 31
0.0
  0
LINE
  8
0
 62
     0
 10
291.673
 20
173.893
 30
0.0
 11
291.18
 21
173.815
 31
0.0
  0
LINE
  8
0
 62
     0
 10
219.285
 20
173.815
 30
0.0
 11
218.838
 21
173.589
 31
0.0
  0
LINE
  8
0
 62
     0
 10
218.838
 20
173.589
 30
0.0
 11
218.484
 21
173.236
 31
0.0
  0
LINE
  8
0
 62
     0
 10
218.484
 20
173.236
 30
0.0
 11
218.258
 21
172.788
 31
0.0
  0
LINE
  8
0
 62
     0
 10
218.258
 20
172.788
 30
0.0
 11
218.179
 21
172.293
 31
0.0
  0
LINE
  8
0
 62
     0
 10
218.179
 20
172.293
 30
0.0
 11
218.258
 21
171.8
 31
0.0
  0
LINE
  8
0
 62
     0
 10
218.258
 20
171.8
 30
0.0
 11
218.484
 21
171.354
 31
0.0
  0
LINE
  8
0
 62
     0
 10
218.484
 20
171.354
 30
0.0
 11
218.838
 21
171
 31
0.0
  0
LINE
  8
0
 62
     0
 10
218.838
 20
171
 30
0.0
 11
219.285
 21
170.772
 31
0.0
  0
LINE
  8
0
 62
     0
 10
219.285
 20
170.772
 30
0.0
 11
219.779
 21
170.693
 31
0.0
  0
LINE
  8
0
 62
     0
 10
219.779
 20
170.693
 30
0.0
 11
220.274
 21
170.772
 31
0.0
  0
LINE
  8
0
 62
     0
 10
220.274
 20
170.772
 30
0.0
 11
220.719
 21
171
 31
0.0
  0
LINE
  8
0
 62
     0
 10
220.719
 20
171
 30
0.0
 11
221.073
 21
171.354
 31
0.0
  0
LINE
  8
0
 62
     0
 10
221.073
 20
171.354
 30
0.0
 11
221.301
 21
171.8
 31
0.0
  0
LINE
  8
0
 62
     0
 10
221.301
 20
171.8
 30
0.0
 11
221.379
 21
172.293
 31
0.0
  0
LINE
  8
0
 62
     0
 10
221.379
 20
172.293
 30
0.0
 11
221.301
 21
172.788
 31
0.0
  0
LINE
  8
0
 62
     0
 10
221.301
 20
172.788
 30
0.0
 11
221.073
 21
173.236
 31
0.0
  0
LINE
  8
0
 62
     0
 10
221.073
 20
173.236
 30
0.0
 11
220.719
 21
173.589
 31
0.0
  0
LINE
  8
0
 62
     0
 10
220.719
 20
173.589
 30
0.0
 11
220.274
 21
173.815
 31
0.0
  0
LINE
  8
0
 62
     0
 10
220.274
 20
173.815
 30
0.0
 11
219.779
 21
173.893
 31
0.0
  0
LINE
  8
0
 62
     0
 10
219.779
 20
173.893
 30
0.0
 11
219.285
 21
173.815
 31
0.0
  0
LINE
  8
0
 62
     0
 10
147.389
 20
173.815
 30
0.0
 11
146.943
 21
173.589
 31
0.0
  0
LINE
  8
0
 62
     0
 10
146.943
 20
173.589
 30
0.0
 11
146.589
 21
173.236
 31
0.0
  0
LINE
  8
0
 62
     0
 10
146.589
 20
173.236
 30
0.0
 11
146.363
 21
172.788
 31
0.0
  0
LINE
  8
0
 62
     0
 10
146.363
 20
172.788
 30
0.0
 11
146.284
 21
172.293
 31
0.0
  0
LINE
  8
0
 62
     0
 10
146.284
 20
172.293
 30
0.0
 11
146.363
 21
171.8
 31
0.0
  0
LINE
  8
0
 62
     0
 10
146.363
 20
171.8
 30
0.0
 11
146.589
 21
171.354
 31
0.0
  0
LINE
  8
0
 62
     0
 10
146.589
 20
171.354
 30
0.0
 11
146.943
 21
171
 31
0.0
  0
LINE
  8
0
 62
     0
 10
146.943
 20
171
 30
0.0
 11
147.389
 21
170.772
 31
0.0
  0
LINE
  8
0
 62
     0
 10
147.389
 20
170.772
 30
0.0
 11
147.884
 21
170.693
 31
0.0
  0
LINE
  8
0
 62
     0
 10
147.884
 20
170.693
 30
0.0
 11
148.379
 21
170.772
 31
0.0
  0
LINE
  8
0
 62
     0
 10
148.379
 20
170.772
 30
0.0
 11
148.824
 21
171
 31
0.0
  0
LINE
  8
0
 62
     0
 10
148.824
 20
171
 30
0.0
 11
149.178
 21
171.354
 31
0.0
  0
LINE
  8
0
 62
     0
 10
149.178
 20
171.354
 30
0.0
 11
149.407
 21
171.8
 31
0.0
  0
LINE
  8
0
 62
     0
 10
149.407
 20
171.8
 30
0.0
 11
149.484
 21
172.293
 31
0.0
  0
LINE
  8
0
 62
     0
 10
149.484
 20
172.293
 30
0.0
 11
149.407
 21
172.788
 31
0.0
  0
LINE
  8
0
 62
     0
 10
149.407
 20
172.788
 30
0.0
 11
149.178
 21
173.236
 31
0.0
  0
LINE
  8
0
 62
     0
 10
149.178
 20
173.236
 30
0.0
 11
148.824
 21
173.589
 31
0.0
  0
LINE
  8
0
 62
     0
 10
148.824
 20
173.589
 30
0.0
 11
148.379
 21
173.815
 31
0.0
  0
LINE
  8
0
 62
     0
 10
148.379
 20
173.815
 30
0.0
 11
147.884
 21
173.893
 31
0.0
  0
LINE
  8
0
 62
     0
 10
147.884
 20
173.893
 30
0.0
 11
147.389
 21
173.815
 31
0.0
  0
LINE
  8
0
 62
     0
 10
75.4959
 20
173.815
 30
0.0
 11
75.0492
 21
173.589
 31
0.0
  0
LINE
  8
0
 62
     0
 10
75.0492
 20
173.589
 30
0.0
 11
74.695
 21
173.236
 31
0.0
  0
LINE
  8
0
 62
     0
 10
74.695
 20
173.236
 30
0.0
 11
74.4679
 21
172.788
 31
0.0
  0
LINE
  8
0
 62
     0
 10
74.4679
 20
172.788
 30
0.0
 11
74.3892
 21
172.293
 31
0.0
  0
LINE
  8
0
 62
     0
 10
74.3892
 20
172.293
 30
0.0
 11
74.4679
 21
171.8
 31
0.0
  0
LINE
  8
0
 62
     0
 10
74.4679
 20
171.8
 30
0.0
 11
74.695
 21
171.354
 31
0.0
  0
LINE
  8
0
 62
     0
 10
74.695
 20
171.354
 30
0.0
 11
75.0492
 21
171
 31
0.0
  0
LINE
  8
0
 62
     0
 10
75.0492
 20
171
 30
0.0
 11
75.4959
 21
170.772
 31
0.0
  0
LINE
  8
0
 62
     0
 10
75.4959
 20
170.772
 30
0.0
 11
75.989
 21
170.693
 31
0.0
  0
LINE
  8
0
 62
     0
 10
75.989
 20
170.693
 30
0.0
 11
76.484
 21
170.772
 31
0.0
  0
LINE
  8
0
 62
     0
 10
76.484
 20
170.772
 30
0.0
 11
76.9303
 21
171
 31
0.0
  0
LINE
  8
0
 62
     0
 10
76.9303
 20
171
 30
0.0
 11
77.2844
 21
171.354
 31
0.0
  0
LINE
  8
0
 62
     0
 10
77.2844
 20
171.354
 30
0.0
 11
77.512
 21
171.8
 31
0.0
  0
LINE
  8
0
 62
     0
 10
77.512
 20
171.8
 30
0.0
 11
77.5892
 21
172.293
 31
0.0
  0
LINE
  8
0
 62
     0
 10
77.5892
 20
172.293
 30
0.0
 11
77.512
 21
172.788
 31
0.0
  0
LINE
  8
0
 62
     0
 10
77.512
 20
172.788
 30
0.0
 11
77.2844
 21
173.236
 31
0.0
  0
LINE
  8
0
 62
     0
 10
77.2844
 20
173.236
 30
0.0
 11
76.9303
 21
173.589
 31
0.0
  0
LINE
  8
0
 62
     0
 10
76.9303
 20
173.589
 30
0.0
 11
76.484
 21
173.815
 31
0.0
  0
LINE
  8
0
 62
     0
 10
76.484
 20
173.815
 30
0.0
 11
75.989
 21
173.893
 31
0.0
  0
LINE
  8
0
 62
     0
 10
75.989
 20
173.893
 30
0.0
 11
75.4959
 21
173.815
 31
0.0
  0
ENDSEC
  0
EOF
