  0
SECTION
  2
HEADER
  9
$ACADVER
  1
AC1009
  9
$EXTMIN
 10
0.0
 20
0.0
 30
0.0
  9
$EXTMAX
 10
1000.0
 20
1000.0
 30
0.0
  9
$FILLMODE
 70
 0
  9
$SPLFRAME
 70
 1
  0
ENDSEC
  0
SECTION
  2
TABLES
  0
TABLE
  2
LAYER
 70
1
  0
LAYER
  2
0
 70
     0
 62
     7
  6
CONTINUOUS
  0
ENDTAB
  0
ENDSEC
  0
SECTION
  2
ENTITIES
  0
LINE
  8
0
 62
     0
 10
364.568
 20
176.294
 30
0.0
 11
364.804
 21
176.284
 31
0.0
  0
LINE
  8
0
 62
     0
 10
364.804
 20
176.284
 30
0.0
 11
365.037
 21
176.258
 31
0.0
  0
LINE
  8
0
 62
     0
 10
365.037
 20
176.258
 30
0.0
 11
365.27
 21
176.211
 31
0.0
  0
LINE
  8
0
 62
     0
 10
365.27
 20
176.211
 30
0.0
 11
365.495
 21
176.148
 31
0.0
  0
LINE
  8
0
 62
     0
 10
365.495
 20
176.148
 30
0.0
 11
365.718
 21
176.065
 31
0.0
  0
LINE
  8
0
 62
     0
 10
365.718
 20
176.065
 30
0.0
 11
365.933
 21
175.967
 31
0.0
  0
LINE
  8
0
 62
     0
 10
365.933
 20
175.967
 30
0.0
 11
366.134
 21
175.852
 31
0.0
  0
LINE
  8
0
 62
     0
 10
366.134
 20
175.852
 30
0.0
 11
366.332
 21
175.722
 31
0.0
  0
LINE
  8
0
 62
     0
 10
366.332
 20
175.722
 30
0.0
 11
366.518
 21
175.576
 31
0.0
  0
LINE
  8
0
 62
     0
 10
366.518
 20
175.576
 30
0.0
 11
366.688
 21
175.416
 31
0.0
  0
LINE
  8
0
 62
     0
 10
366.688
 20
175.416
 30
0.0
 11
366.85
 21
175.242
 31
0.0
  0
LINE
  8
0
 62
     0
 10
366.85
 20
175.242
 30
0.0
 11
366.995
 21
175.058
 31
0.0
  0
LINE
  8
0
 62
     0
 10
366.995
 20
175.058
 30
0.0
 11
367.125
 21
174.862
 31
0.0
  0
LINE
  8
0
 62
     0
 10
367.125
 20
174.862
 30
0.0
 11
367.242
 21
174.655
 31
0.0
  0
LINE
  8
0
 62
     0
 10
367.242
 20
174.655
 30
0.0
 11
367.34
 21
174.442
 31
0.0
  0
LINE
  8
0
 62
     0
 10
367.34
 20
174.442
 30
0.0
 11
367.422
 21
174.221
 31
0.0
  0
LINE
  8
0
 62
     0
 10
367.422
 20
174.221
 30
0.0
 11
367.485
 21
173.994
 31
0.0
  0
LINE
  8
0
 62
     0
 10
367.485
 20
173.994
 30
0.0
 11
367.531
 21
173.764
 31
0.0
  0
LINE
  8
0
 62
     0
 10
367.531
 20
173.764
 30
0.0
 11
367.559
 21
173.53
 31
0.0
  0
LINE
  8
0
 62
     0
 10
367.559
 20
173.53
 30
0.0
 11
367.57
 21
173.294
 31
0.0
  0
LINE
  8
0
 62
     0
 10
367.57
 20
173.294
 30
0.0
 11
367.57
 21
3.27284
 31
0.0
  0
LINE
  8
0
 62
     0
 10
367.57
 20
3.27284
 30
0.0
 11
367.559
 21
3.0372
 31
0.0
  0
LINE
  8
0
 62
     0
 10
367.559
 20
3.0372
 30
0.0
 11
367.531
 21
2.80293
 31
0.0
  0
LINE
  8
0
 62
     0
 10
367.531
 20
2.80293
 30
0.0
 11
367.485
 21
2.5728
 31
0.0
  0
LINE
  8
0
 62
     0
 10
367.485
 20
2.5728
 30
0.0
 11
367.422
 21
2.34542
 31
0.0
  0
LINE
  8
0
 62
     0
 10
367.422
 20
2.34542
 30
0.0
 11
367.34
 21
2.12494
 31
0.0
  0
LINE
  8
0
 62
     0
 10
367.34
 20
2.12494
 30
0.0
 11
367.242
 21
1.91134
 31
0.0
  0
LINE
  8
0
 62
     0
 10
367.242
 20
1.91134
 30
0.0
 11
367.125
 21
1.70601
 31
0.0
  0
LINE
  8
0
 62
     0
 10
367.125
 20
1.70601
 30
0.0
 11
366.995
 21
1.50895
 31
0.0
  0
LINE
  8
0
 62
     0
 10
366.995
 20
1.50895
 30
0.0
 11
366.85
 21
1.3243
 31
0.0
  0
LINE
  8
0
 62
     0
 10
366.85
 20
1.3243
 30
0.0
 11
366.688
 21
1.15204
 31
0.0
  0
LINE
  8
0
 62
     0
 10
366.688
 20
1.15204
 30
0.0
 11
366.518
 21
0.990808
 31
0.0
  0
LINE
  8
0
 62
     0
 10
366.518
 20
0.990808
 30
0.0
 11
366.332
 21
0.844737
 31
0.0
  0
LINE
  8
0
 62
     0
 10
366.332
 20
0.844737
 30
0.0
 11
366.134
 21
0.7152
 31
0.0
  0
LINE
  8
0
 62
     0
 10
366.134
 20
0.7152
 30
0.0
 11
365.933
 21
0.599447
 31
0.0
  0
LINE
  8
0
 62
     0
 10
365.933
 20
0.599447
 30
0.0
 11
365.718
 21
0.501608
 31
0.0
  0
LINE
  8
0
 62
     0
 10
365.718
 20
0.501608
 30
0.0
 11
365.495
 21
0.418924
 31
0.0
  0
LINE
  8
0
 62
     0
 10
365.495
 20
0.418924
 30
0.0
 11
365.27
 21
0.355533
 31
0.0
  0
LINE
  8
0
 62
     0
 10
365.27
 20
0.355533
 30
0.0
 11
365.037
 21
0.310059
 31
0.0
  0
LINE
  8
0
 62
     0
 10
365.037
 20
0.310059
 30
0.0
 11
364.804
 21
0.282498
 31
0.0
  0
LINE
  8
0
 62
     0
 10
364.804
 20
0.282498
 30
0.0
 11
364.568
 21
0.272852
 31
0.0
  0
LINE
  8
0
 62
     0
 10
364.568
 20
0.272852
 30
0.0
 11
3.09507
 21
0.272852
 31
0.0
  0
LINE
  8
0
 62
     0
 10
3.09507
 20
0.272852
 30
0.0
 11
2.85943
 21
0.282498
 31
0.0
  0
LINE
  8
0
 62
     0
 10
2.85943
 20
0.282498
 30
0.0
 11
2.62516
 21
0.310059
 31
0.0
  0
LINE
  8
0
 62
     0
 10
2.62516
 20
0.310059
 30
0.0
 11
2.39503
 21
0.355533
 31
0.0
  0
LINE
  8
0
 62
     0
 10
2.39503
 20
0.355533
 30
0.0
 11
2.16765
 21
0.418924
 31
0.0
  0
LINE
  8
0
 62
     0
 10
2.16765
 20
0.418924
 30
0.0
 11
1.94717
 21
0.501608
 31
0.0
  0
LINE
  8
0
 62
     0
 10
1.94717
 20
0.501608
 30
0.0
 11
1.73357
 21
0.599447
 31
0.0
  0
LINE
  8
0
 62
     0
 10
1.73357
 20
0.599447
 30
0.0
 11
1.52687
 21
0.7152
 31
0.0
  0
LINE
  8
0
 62
     0
 10
1.52687
 20
0.7152
 30
0.0
 11
1.33119
 21
0.844737
 31
0.0
  0
LINE
  8
0
 62
     0
 10
1.33119
 20
0.844737
 30
0.0
 11
1.14653
 21
0.990808
 31
0.0
  0
LINE
  8
0
 62
     0
 10
1.14653
 20
0.990808
 30
0.0
 11
0.972894
 21
1.15204
 31
0.0
  0
LINE
  8
0
 62
     0
 10
0.972894
 20
1.15204
 30
0.0
 11
0.813043
 21
1.3243
 31
0.0
  0
LINE
  8
0
 62
     0
 10
0.813043
 20
1.3243
 30
0.0
 11
0.666972
 21
1.50895
 31
0.0
  0
LINE
  8
0
 62
     0
 10
0.666972
 20
1.50895
 30
0.0
 11
0.537436
 21
1.70601
 31
0.0
  0
LINE
  8
0
 62
     0
 10
0.537436
 20
1.70601
 30
0.0
 11
0.421679
 21
1.91134
 31
0.0
  0
LINE
  8
0
 62
     0
 10
0.421679
 20
1.91134
 30
0.0
 11
0.323839
 21
2.12494
 31
0.0
  0
LINE
  8
0
 62
     0
 10
0.323839
 20
2.12494
 30
0.0
 11
0.241157
 21
2.34542
 31
0.0
  0
LINE
  8
0
 62
     0
 10
0.241157
 20
2.34542
 30
0.0
 11
0.177767
 21
2.5728
 31
0.0
  0
LINE
  8
0
 62
     0
 10
0.177767
 20
2.5728
 30
0.0
 11
0.130914
 21
2.80293
 31
0.0
  0
LINE
  8
0
 62
     0
 10
0.130914
 20
2.80293
 30
0.0
 11
0.104731
 21
3.0372
 31
0.0
  0
LINE
  8
0
 62
     0
 10
0.104731
 20
3.0372
 30
0.0
 11
0.0950846
 21
3.27284
 31
0.0
  0
LINE
  8
0
 62
     0
 10
0.0950846
 20
3.27284
 30
0.0
 11
0.0950846
 21
173.294
 31
0.0
  0
LINE
  8
0
 62
     0
 10
0.0950846
 20
173.294
 30
0.0
 11
0.104731
 21
173.53
 31
0.0
  0
LINE
  8
0
 62
     0
 10
0.104731
 20
173.53
 30
0.0
 11
0.130914
 21
173.764
 31
0.0
  0
LINE
  8
0
 62
     0
 10
0.130914
 20
173.764
 30
0.0
 11
0.177767
 21
173.994
 31
0.0
  0
LINE
  8
0
 62
     0
 10
0.177767
 20
173.994
 30
0.0
 11
0.241157
 21
174.221
 31
0.0
  0
LINE
  8
0
 62
     0
 10
0.241157
 20
174.221
 30
0.0
 11
0.323839
 21
174.442
 31
0.0
  0
LINE
  8
0
 62
     0
 10
0.323839
 20
174.442
 30
0.0
 11
0.421679
 21
174.655
 31
0.0
  0
LINE
  8
0
 62
     0
 10
0.421679
 20
174.655
 30
0.0
 11
0.537436
 21
174.862
 31
0.0
  0
LINE
  8
0
 62
     0
 10
0.537436
 20
174.862
 30
0.0
 11
0.666972
 21
175.058
 31
0.0
  0
LINE
  8
0
 62
     0
 10
0.666972
 20
175.058
 30
0.0
 11
0.813043
 21
175.242
 31
0.0
  0
LINE
  8
0
 62
     0
 10
0.813043
 20
175.242
 30
0.0
 11
0.972894
 21
175.416
 31
0.0
  0
LINE
  8
0
 62
     0
 10
0.972894
 20
175.416
 30
0.0
 11
1.14653
 21
175.576
 31
0.0
  0
LINE
  8
0
 62
     0
 10
1.14653
 20
175.576
 30
0.0
 11
1.33119
 21
175.722
 31
0.0
  0
LINE
  8
0
 62
     0
 10
1.33119
 20
175.722
 30
0.0
 11
1.52687
 21
175.852
 31
0.0
  0
LINE
  8
0
 62
     0
 10
1.52687
 20
175.852
 30
0.0
 11
1.73357
 21
175.967
 31
0.0
  0
LINE
  8
0
 62
     0
 10
1.73357
 20
175.967
 30
0.0
 11
1.94717
 21
176.065
 31
0.0
  0
LINE
  8
0
 62
     0
 10
1.94717
 20
176.065
 30
0.0
 11
2.16765
 21
176.148
 31
0.0
  0
LINE
  8
0
 62
     0
 10
2.16765
 20
176.148
 30
0.0
 11
2.39503
 21
176.211
 31
0.0
  0
LINE
  8
0
 62
     0
 10
2.39503
 20
176.211
 30
0.0
 11
2.62516
 21
176.258
 31
0.0
  0
LINE
  8
0
 62
     0
 10
2.62516
 20
176.258
 30
0.0
 11
2.85943
 21
176.284
 31
0.0
  0
LINE
  8
0
 62
     0
 10
2.85943
 20
176.284
 30
0.0
 11
3.09507
 21
176.294
 31
0.0
  0
LINE
  8
0
 62
     0
 10
3.09507
 20
176.294
 30
0.0
 11
364.568
 21
176.294
 31
0.0
  0
LINE
  8
0
 62
     0
 10
3.77031
 20
5.27099
 30
0.0
 11
3.47817
 21
5.12216
 31
0.0
  0
LINE
  8
0
 62
     0
 10
3.47817
 20
5.12216
 30
0.0
 11
3.24528
 21
4.89066
 31
0.0
  0
LINE
  8
0
 62
     0
 10
3.24528
 20
4.89066
 30
0.0
 11
3.09507
 21
4.59715
 31
0.0
  0
LINE
  8
0
 62
     0
 10
3.09507
 20
4.59715
 30
0.0
 11
3.04409
 21
4.27193
 31
0.0
  0
LINE
  8
0
 62
     0
 10
3.04409
 20
4.27193
 30
0.0
 11
3.09507
 21
3.94808
 31
0.0
  0
LINE
  8
0
 62
     0
 10
3.09507
 20
3.94808
 30
0.0
 11
3.24528
 21
3.65594
 31
0.0
  0
LINE
  8
0
 62
     0
 10
3.24528
 20
3.65594
 30
0.0
 11
3.47817
 21
3.42305
 31
0.0
  0
LINE
  8
0
 62
     0
 10
3.47817
 20
3.42305
 30
0.0
 11
3.77031
 21
3.27422
 31
0.0
  0
LINE
  8
0
 62
     0
 10
3.77031
 20
3.27422
 30
0.0
 11
4.09554
 21
3.22185
 31
0.0
  0
LINE
  8
0
 62
     0
 10
4.09554
 20
3.22185
 30
0.0
 11
4.41935
 21
3.27422
 31
0.0
  0
LINE
  8
0
 62
     0
 10
4.41935
 20
3.27422
 30
0.0
 11
4.7129
 21
3.42305
 31
0.0
  0
LINE
  8
0
 62
     0
 10
4.7129
 20
3.42305
 30
0.0
 11
4.94439
 21
3.65594
 31
0.0
  0
LINE
  8
0
 62
     0
 10
4.94439
 20
3.65594
 30
0.0
 11
5.09323
 21
3.94808
 31
0.0
  0
LINE
  8
0
 62
     0
 10
5.09323
 20
3.94808
 30
0.0
 11
5.14558
 21
4.27193
 31
0.0
  0
LINE
  8
0
 62
     0
 10
5.14558
 20
4.27193
 30
0.0
 11
5.09323
 21
4.59715
 31
0.0
  0
LINE
  8
0
 62
     0
 10
5.09323
 20
4.59715
 30
0.0
 11
4.94439
 21
4.89066
 31
0.0
  0
LINE
  8
0
 62
     0
 10
4.94439
 20
4.89066
 30
0.0
 11
4.7129
 21
5.12216
 31
0.0
  0
LINE
  8
0
 62
     0
 10
4.7129
 20
5.12216
 30
0.0
 11
4.41935
 21
5.27099
 31
0.0
  0
LINE
  8
0
 62
     0
 10
4.41935
 20
5.27099
 30
0.0
 11
4.09554
 21
5.32197
 31
0.0
  0
LINE
  8
0
 62
     0
 10
4.09554
 20
5.32197
 30
0.0
 11
3.77031
 21
5.27099
 31
0.0
  0
LINE
  8
0
 62
     0
 10
75.6652
 20
5.27099
 30
0.0
 11
75.3731
 21
5.12216
 31
0.0
  0
LINE
  8
0
 62
     0
 10
75.3731
 20
5.12216
 30
0.0
 11
75.1403
 21
4.89066
 31
0.0
  0
LINE
  8
0
 62
     0
 10
75.1403
 20
4.89066
 30
0.0
 11
74.9914
 21
4.59715
 31
0.0
  0
LINE
  8
0
 62
     0
 10
74.9914
 20
4.59715
 30
0.0
 11
74.9392
 21
4.27193
 31
0.0
  0
LINE
  8
0
 62
     0
 10
74.9392
 20
4.27193
 30
0.0
 11
74.9914
 21
3.94808
 31
0.0
  0
LINE
  8
0
 62
     0
 10
74.9914
 20
3.94808
 30
0.0
 11
75.1403
 21
3.65594
 31
0.0
  0
LINE
  8
0
 62
     0
 10
75.1403
 20
3.65594
 30
0.0
 11
75.3731
 21
3.42305
 31
0.0
  0
LINE
  8
0
 62
     0
 10
75.3731
 20
3.42305
 30
0.0
 11
75.6652
 21
3.27422
 31
0.0
  0
LINE
  8
0
 62
     0
 10
75.6652
 20
3.27422
 30
0.0
 11
75.989
 21
3.22185
 31
0.0
  0
LINE
  8
0
 62
     0
 10
75.989
 20
3.22185
 30
0.0
 11
76.3143
 21
3.27422
 31
0.0
  0
LINE
  8
0
 62
     0
 10
76.3143
 20
3.27422
 30
0.0
 11
76.6064
 21
3.42305
 31
0.0
  0
LINE
  8
0
 62
     0
 10
76.6064
 20
3.42305
 30
0.0
 11
76.8396
 21
3.65594
 31
0.0
  0
LINE
  8
0
 62
     0
 10
76.8396
 20
3.65594
 30
0.0
 11
76.9881
 21
3.94808
 31
0.0
  0
LINE
  8
0
 62
     0
 10
76.9881
 20
3.94808
 30
0.0
 11
77.0393
 21
4.27193
 31
0.0
  0
LINE
  8
0
 62
     0
 10
77.0393
 20
4.27193
 30
0.0
 11
76.9881
 21
4.59715
 31
0.0
  0
LINE
  8
0
 62
     0
 10
76.9881
 20
4.59715
 30
0.0
 11
76.8396
 21
4.89066
 31
0.0
  0
LINE
  8
0
 62
     0
 10
76.8396
 20
4.89066
 30
0.0
 11
76.6064
 21
5.12216
 31
0.0
  0
LINE
  8
0
 62
     0
 10
76.6064
 20
5.12216
 30
0.0
 11
76.3143
 21
5.27099
 31
0.0
  0
LINE
  8
0
 62
     0
 10
76.3143
 20
5.27099
 30
0.0
 11
75.989
 21
5.32197
 31
0.0
  0
LINE
  8
0
 62
     0
 10
75.989
 20
5.32197
 30
0.0
 11
75.6652
 21
5.27099
 31
0.0
  0
LINE
  8
0
 62
     0
 10
147.559
 20
5.27099
 30
0.0
 11
147.267
 21
5.12216
 31
0.0
  0
LINE
  8
0
 62
     0
 10
147.267
 20
5.12216
 30
0.0
 11
147.034
 21
4.89066
 31
0.0
  0
LINE
  8
0
 62
     0
 10
147.034
 20
4.89066
 30
0.0
 11
146.885
 21
4.59715
 31
0.0
  0
LINE
  8
0
 62
     0
 10
146.885
 20
4.59715
 30
0.0
 11
146.834
 21
4.27193
 31
0.0
  0
LINE
  8
0
 62
     0
 10
146.834
 20
4.27193
 30
0.0
 11
146.885
 21
3.94808
 31
0.0
  0
LINE
  8
0
 62
     0
 10
146.885
 20
3.94808
 30
0.0
 11
147.034
 21
3.65594
 31
0.0
  0
LINE
  8
0
 62
     0
 10
147.034
 20
3.65594
 30
0.0
 11
147.267
 21
3.42305
 31
0.0
  0
LINE
  8
0
 62
     0
 10
147.267
 20
3.42305
 30
0.0
 11
147.559
 21
3.27422
 31
0.0
  0
LINE
  8
0
 62
     0
 10
147.559
 20
3.27422
 30
0.0
 11
147.884
 21
3.22185
 31
0.0
  0
LINE
  8
0
 62
     0
 10
147.884
 20
3.22185
 30
0.0
 11
148.208
 21
3.27422
 31
0.0
  0
LINE
  8
0
 62
     0
 10
148.208
 20
3.27422
 30
0.0
 11
148.501
 21
3.42305
 31
0.0
  0
LINE
  8
0
 62
     0
 10
148.501
 20
3.42305
 30
0.0
 11
148.733
 21
3.65594
 31
0.0
  0
LINE
  8
0
 62
     0
 10
148.733
 20
3.65594
 30
0.0
 11
148.883
 21
3.94808
 31
0.0
  0
LINE
  8
0
 62
     0
 10
148.883
 20
3.94808
 30
0.0
 11
148.934
 21
4.27193
 31
0.0
  0
LINE
  8
0
 62
     0
 10
148.934
 20
4.27193
 30
0.0
 11
148.883
 21
4.59715
 31
0.0
  0
LINE
  8
0
 62
     0
 10
148.883
 20
4.59715
 30
0.0
 11
148.733
 21
4.89066
 31
0.0
  0
LINE
  8
0
 62
     0
 10
148.733
 20
4.89066
 30
0.0
 11
148.501
 21
5.12216
 31
0.0
  0
LINE
  8
0
 62
     0
 10
148.501
 20
5.12216
 30
0.0
 11
148.208
 21
5.27099
 31
0.0
  0
LINE
  8
0
 62
     0
 10
148.208
 20
5.27099
 30
0.0
 11
147.884
 21
5.32197
 31
0.0
  0
LINE
  8
0
 62
     0
 10
147.884
 20
5.32197
 30
0.0
 11
147.559
 21
5.27099
 31
0.0
  0
LINE
  8
0
 62
     0
 10
219.454
 20
5.27099
 30
0.0
 11
219.162
 21
5.12216
 31
0.0
  0
LINE
  8
0
 62
     0
 10
219.162
 20
5.12216
 30
0.0
 11
218.929
 21
4.89066
 31
0.0
  0
LINE
  8
0
 62
     0
 10
218.929
 20
4.89066
 30
0.0
 11
218.78
 21
4.59715
 31
0.0
  0
LINE
  8
0
 62
     0
 10
218.78
 20
4.59715
 30
0.0
 11
218.729
 21
4.27193
 31
0.0
  0
LINE
  8
0
 62
     0
 10
218.729
 20
4.27193
 30
0.0
 11
218.78
 21
3.94808
 31
0.0
  0
LINE
  8
0
 62
     0
 10
218.78
 20
3.94808
 30
0.0
 11
218.929
 21
3.65594
 31
0.0
  0
LINE
  8
0
 62
     0
 10
218.929
 20
3.65594
 30
0.0
 11
219.162
 21
3.42305
 31
0.0
  0
LINE
  8
0
 62
     0
 10
219.162
 20
3.42305
 30
0.0
 11
219.454
 21
3.27422
 31
0.0
  0
LINE
  8
0
 62
     0
 10
219.454
 20
3.27422
 30
0.0
 11
219.779
 21
3.22185
 31
0.0
  0
LINE
  8
0
 62
     0
 10
219.779
 20
3.22185
 30
0.0
 11
220.103
 21
3.27422
 31
0.0
  0
LINE
  8
0
 62
     0
 10
220.103
 20
3.27422
 30
0.0
 11
220.396
 21
3.42305
 31
0.0
  0
LINE
  8
0
 62
     0
 10
220.396
 20
3.42305
 30
0.0
 11
220.628
 21
3.65594
 31
0.0
  0
LINE
  8
0
 62
     0
 10
220.628
 20
3.65594
 30
0.0
 11
220.777
 21
3.94808
 31
0.0
  0
LINE
  8
0
 62
     0
 10
220.777
 20
3.94808
 30
0.0
 11
220.829
 21
4.27193
 31
0.0
  0
LINE
  8
0
 62
     0
 10
220.829
 20
4.27193
 30
0.0
 11
220.777
 21
4.59715
 31
0.0
  0
LINE
  8
0
 62
     0
 10
220.777
 20
4.59715
 30
0.0
 11
220.628
 21
4.89066
 31
0.0
  0
LINE
  8
0
 62
     0
 10
220.628
 20
4.89066
 30
0.0
 11
220.396
 21
5.12216
 31
0.0
  0
LINE
  8
0
 62
     0
 10
220.396
 20
5.12216
 30
0.0
 11
220.103
 21
5.27099
 31
0.0
  0
LINE
  8
0
 62
     0
 10
220.103
 20
5.27099
 30
0.0
 11
219.779
 21
5.32197
 31
0.0
  0
LINE
  8
0
 62
     0
 10
219.779
 20
5.32197
 30
0.0
 11
219.454
 21
5.27099
 31
0.0
  0
LINE
  8
0
 62
     0
 10
291.349
 20
5.27099
 30
0.0
 11
291.057
 21
5.12216
 31
0.0
  0
LINE
  8
0
 62
     0
 10
291.057
 20
5.12216
 30
0.0
 11
290.824
 21
4.89066
 31
0.0
  0
LINE
  8
0
 62
     0
 10
290.824
 20
4.89066
 30
0.0
 11
290.675
 21
4.59715
 31
0.0
  0
LINE
  8
0
 62
     0
 10
290.675
 20
4.59715
 30
0.0
 11
290.624
 21
4.27193
 31
0.0
  0
LINE
  8
0
 62
     0
 10
290.624
 20
4.27193
 30
0.0
 11
290.675
 21
3.94808
 31
0.0
  0
LINE
  8
0
 62
     0
 10
290.675
 20
3.94808
 30
0.0
 11
290.824
 21
3.65594
 31
0.0
  0
LINE
  8
0
 62
     0
 10
290.824
 20
3.65594
 30
0.0
 11
291.057
 21
3.42305
 31
0.0
  0
LINE
  8
0
 62
     0
 10
291.057
 20
3.42305
 30
0.0
 11
291.349
 21
3.27422
 31
0.0
  0
LINE
  8
0
 62
     0
 10
291.349
 20
3.27422
 30
0.0
 11
291.673
 21
3.22185
 31
0.0
  0
LINE
  8
0
 62
     0
 10
291.673
 20
3.22185
 30
0.0
 11
291.998
 21
3.27422
 31
0.0
  0
LINE
  8
0
 62
     0
 10
291.998
 20
3.27422
 30
0.0
 11
292.29
 21
3.42305
 31
0.0
  0
LINE
  8
0
 62
     0
 10
292.29
 20
3.42305
 30
0.0
 11
292.523
 21
3.65594
 31
0.0
  0
LINE
  8
0
 62
     0
 10
292.523
 20
3.65594
 30
0.0
 11
292.672
 21
3.94808
 31
0.0
  0
LINE
  8
0
 62
     0
 10
292.672
 20
3.94808
 30
0.0
 11
292.723
 21
4.27193
 31
0.0
  0
LINE
  8
0
 62
     0
 10
292.723
 20
4.27193
 30
0.0
 11
292.672
 21
4.59715
 31
0.0
  0
LINE
  8
0
 62
     0
 10
292.672
 20
4.59715
 30
0.0
 11
292.523
 21
4.89066
 31
0.0
  0
LINE
  8
0
 62
     0
 10
292.523
 20
4.89066
 30
0.0
 11
292.29
 21
5.12216
 31
0.0
  0
LINE
  8
0
 62
     0
 10
292.29
 20
5.12216
 30
0.0
 11
291.998
 21
5.27099
 31
0.0
  0
LINE
  8
0
 62
     0
 10
291.998
 20
5.27099
 30
0.0
 11
291.673
 21
5.32197
 31
0.0
  0
LINE
  8
0
 62
     0
 10
291.673
 20
5.32197
 30
0.0
 11
291.349
 21
5.27099
 31
0.0
  0
LINE
  8
0
 62
     0
 10
363.245
 20
5.27099
 30
0.0
 11
362.952
 21
5.12216
 31
0.0
  0
LINE
  8
0
 62
     0
 10
362.952
 20
5.12216
 30
0.0
 11
362.719
 21
4.89066
 31
0.0
  0
LINE
  8
0
 62
     0
 10
362.719
 20
4.89066
 30
0.0
 11
362.571
 21
4.59715
 31
0.0
  0
LINE
  8
0
 62
     0
 10
362.571
 20
4.59715
 30
0.0
 11
362.518
 21
4.27193
 31
0.0
  0
LINE
  8
0
 62
     0
 10
362.518
 20
4.27193
 30
0.0
 11
362.571
 21
3.94808
 31
0.0
  0
LINE
  8
0
 62
     0
 10
362.571
 20
3.94808
 30
0.0
 11
362.719
 21
3.65594
 31
0.0
  0
LINE
  8
0
 62
     0
 10
362.719
 20
3.65594
 30
0.0
 11
362.952
 21
3.42305
 31
0.0
  0
LINE
  8
0
 62
     0
 10
362.952
 20
3.42305
 30
0.0
 11
363.245
 21
3.27422
 31
0.0
  0
LINE
  8
0
 62
     0
 10
363.245
 20
3.27422
 30
0.0
 11
363.569
 21
3.22185
 31
0.0
  0
LINE
  8
0
 62
     0
 10
363.569
 20
3.22185
 30
0.0
 11
363.894
 21
3.27422
 31
0.0
  0
LINE
  8
0
 62
     0
 10
363.894
 20
3.27422
 30
0.0
 11
364.187
 21
3.42305
 31
0.0
  0
LINE
  8
0
 62
     0
 10
364.187
 20
3.42305
 30
0.0
 11
364.419
 21
3.65594
 31
0.0
  0
LINE
  8
0
 62
     0
 10
364.419
 20
3.65594
 30
0.0
 11
364.568
 21
3.94808
 31
0.0
  0
LINE
  8
0
 62
     0
 10
364.568
 20
3.94808
 30
0.0
 11
364.617
 21
4.27193
 31
0.0
  0
LINE
  8
0
 62
     0
 10
364.617
 20
4.27193
 30
0.0
 11
364.568
 21
4.59715
 31
0.0
  0
LINE
  8
0
 62
     0
 10
364.568
 20
4.59715
 30
0.0
 11
364.419
 21
4.89066
 31
0.0
  0
LINE
  8
0
 62
     0
 10
364.419
 20
4.89066
 30
0.0
 11
364.187
 21
5.12216
 31
0.0
  0
LINE
  8
0
 62
     0
 10
364.187
 20
5.12216
 30
0.0
 11
363.894
 21
5.27099
 31
0.0
  0
LINE
  8
0
 62
     0
 10
363.894
 20
5.27099
 30
0.0
 11
363.569
 21
5.32197
 31
0.0
  0
LINE
  8
0
 62
     0
 10
363.569
 20
5.32197
 30
0.0
 11
363.245
 21
5.27099
 31
0.0
  0
LINE
  8
0
 62
     0
 10
172.545
 20
24.7978
 30
0.0
 11
186.545
 21
24.7978
 31
0.0
  0
LINE
  8
0
 62
     0
 10
186.545
 20
24.7978
 30
0.0
 11
186.545
 21
10.7983
 31
0.0
  0
LINE
  8
0
 62
     0
 10
186.545
 20
10.7983
 30
0.0
 11
172.545
 21
10.7983
 31
0.0
  0
LINE
  8
0
 62
     0
 10
172.545
 20
10.7983
 30
0.0
 11
172.545
 21
24.7978
 31
0.0
  0
LINE
  8
0
 62
     0
 10
153.495
 20
24.7978
 30
0.0
 11
167.495
 21
24.7978
 31
0.0
  0
LINE
  8
0
 62
     0
 10
167.495
 20
24.7978
 30
0.0
 11
167.495
 21
10.7983
 31
0.0
  0
LINE
  8
0
 62
     0
 10
167.495
 20
10.7983
 30
0.0
 11
153.495
 21
10.7983
 31
0.0
  0
LINE
  8
0
 62
     0
 10
153.495
 20
10.7983
 30
0.0
 11
153.495
 21
24.7978
 31
0.0
  0
LINE
  8
0
 62
     0
 10
134.445
 20
24.7978
 30
0.0
 11
148.445
 21
24.7978
 31
0.0
  0
LINE
  8
0
 62
     0
 10
148.445
 20
24.7978
 30
0.0
 11
148.445
 21
10.7983
 31
0.0
  0
LINE
  8
0
 62
     0
 10
148.445
 20
10.7983
 30
0.0
 11
134.445
 21
10.7983
 31
0.0
  0
LINE
  8
0
 62
     0
 10
134.445
 20
10.7983
 30
0.0
 11
134.445
 21
24.7978
 31
0.0
  0
LINE
  8
0
 62
     0
 10
181.963
 20
44.0161
 30
0.0
 11
184.874
 21
30.3223
 31
0.0
  0
LINE
  8
0
 62
     0
 10
184.874
 20
30.3223
 30
0.0
 11
198.567
 21
33.2328
 31
0.0
  0
LINE
  8
0
 62
     0
 10
198.567
 20
33.2328
 30
0.0
 11
195.657
 21
46.9276
 31
0.0
  0
LINE
  8
0
 62
     0
 10
195.657
 20
46.9276
 30
0.0
 11
181.963
 21
44.0161
 31
0.0
  0
LINE
  8
0
 62
     0
 10
136.674
 20
33.3857
 30
0.0
 11
150.369
 21
30.4753
 31
0.0
  0
LINE
  8
0
 62
     0
 10
150.369
 20
30.4753
 30
0.0
 11
153.279
 21
44.1688
 31
0.0
  0
LINE
  8
0
 62
     0
 10
153.279
 20
44.1688
 30
0.0
 11
139.586
 21
47.0793
 31
0.0
  0
LINE
  8
0
 62
     0
 10
139.586
 20
47.0793
 30
0.0
 11
136.674
 21
33.3857
 31
0.0
  0
LINE
  8
0
 62
     0
 10
227.733
 20
52.2429
 30
0.0
 11
228.406
 21
49.083
 31
0.0
  0
LINE
  8
0
 62
     0
 10
228.406
 20
49.083
 30
0.0
 11
226.913
 21
48.7659
 31
0.0
  0
LINE
  8
0
 62
     0
 10
226.913
 20
48.7659
 30
0.0
 11
225.936
 21
53.3633
 31
0.0
  0
LINE
  8
0
 62
     0
 10
225.936
 20
53.3633
 30
0.0
 11
212.243
 21
50.4529
 31
0.0
  0
LINE
  8
0
 62
     0
 10
212.243
 20
50.4529
 30
0.0
 11
213.22
 21
45.8555
 31
0.0
  0
LINE
  8
0
 62
     0
 10
213.22
 20
45.8555
 30
0.0
 11
211.727
 21
45.5387
 31
0.0
  0
LINE
  8
0
 62
     0
 10
211.727
 20
45.5387
 30
0.0
 11
211.056
 21
48.6971
 31
0.0
  0
LINE
  8
0
 62
     0
 10
211.056
 20
48.6971
 30
0.0
 11
204.454
 21
47.2944
 31
0.0
  0
LINE
  8
0
 62
     0
 10
204.454
 20
47.2944
 30
0.0
 11
205.125
 21
44.1357
 31
0.0
  0
LINE
  8
0
 62
     0
 10
205.125
 20
44.1357
 30
0.0
 11
204.319
 21
43.9635
 31
0.0
  0
LINE
  8
0
 62
     0
 10
204.319
 20
43.9635
 30
0.0
 11
204.9
 21
41.2238
 31
0.0
  0
LINE
  8
0
 62
     0
 10
204.9
 20
41.2238
 30
0.0
 11
205.708
 21
41.3964
 31
0.0
  0
LINE
  8
0
 62
     0
 10
205.708
 20
41.3964
 30
0.0
 11
207.01
 21
35.264
 31
0.0
  0
LINE
  8
0
 62
     0
 10
207.01
 20
35.264
 30
0.0
 11
208.698
 21
35.621
 31
0.0
  0
LINE
  8
0
 62
     0
 10
208.698
 20
35.621
 30
0.0
 11
208.948
 21
34.4482
 31
0.0
  0
LINE
  8
0
 62
     0
 10
208.948
 20
34.4482
 30
0.0
 11
212.175
 21
35.1345
 31
0.0
  0
LINE
  8
0
 62
     0
 10
212.175
 20
35.1345
 30
0.0
 11
211.927
 21
36.3072
 31
0.0
  0
LINE
  8
0
 62
     0
 10
211.927
 20
36.3072
 30
0.0
 11
213.614
 21
36.667
 31
0.0
  0
LINE
  8
0
 62
     0
 10
213.614
 20
36.667
 30
0.0
 11
212.685
 21
41.0379
 31
0.0
  0
LINE
  8
0
 62
     0
 10
212.685
 20
41.0379
 30
0.0
 11
214.176
 21
41.3551
 31
0.0
  0
LINE
  8
0
 62
     0
 10
214.176
 20
41.3551
 30
0.0
 11
215.153
 21
36.7577
 31
0.0
  0
LINE
  8
0
 62
     0
 10
215.153
 20
36.7577
 30
0.0
 11
228.847
 21
39.6695
 31
0.0
  0
LINE
  8
0
 62
     0
 10
228.847
 20
39.6695
 30
0.0
 11
227.87
 21
44.2666
 31
0.0
  0
LINE
  8
0
 62
     0
 10
227.87
 20
44.2666
 30
0.0
 11
229.362
 21
44.5837
 31
0.0
  0
LINE
  8
0
 62
     0
 10
229.362
 20
44.5837
 30
0.0
 11
230.291
 21
40.211
 31
0.0
  0
LINE
  8
0
 62
     0
 10
230.291
 20
40.211
 30
0.0
 11
231.979
 21
40.5709
 31
0.0
  0
LINE
  8
0
 62
     0
 10
231.979
 20
40.5709
 30
0.0
 11
232.227
 21
39.3968
 31
0.0
  0
LINE
  8
0
 62
     0
 10
232.227
 20
39.3968
 30
0.0
 11
235.456
 21
40.083
 31
0.0
  0
LINE
  8
0
 62
     0
 10
235.456
 20
40.083
 30
0.0
 11
235.206
 21
41.257
 31
0.0
  0
LINE
  8
0
 62
     0
 10
235.206
 20
41.257
 30
0.0
 11
236.893
 21
41.614
 31
0.0
  0
LINE
  8
0
 62
     0
 10
236.893
 20
41.614
 30
0.0
 11
235.59
 21
47.7478
 31
0.0
  0
LINE
  8
0
 62
     0
 10
235.59
 20
47.7478
 30
0.0
 11
236.397
 21
47.9199
 31
0.0
  0
LINE
  8
0
 62
     0
 10
236.397
 20
47.9199
 30
0.0
 11
235.814
 21
50.6607
 31
0.0
  0
LINE
  8
0
 62
     0
 10
235.814
 20
50.6607
 30
0.0
 11
235.008
 21
50.4871
 31
0.0
  0
LINE
  8
0
 62
     0
 10
235.008
 20
50.4871
 30
0.0
 11
234.337
 21
53.6469
 31
0.0
  0
LINE
  8
0
 62
     0
 10
234.337
 20
53.6469
 30
0.0
 11
227.733
 21
52.2429
 31
0.0
  0
LINE
  8
0
 62
     0
 10
102.851
 20
54.653
 30
0.0
 11
101.163
 21
55.0115
 31
0.0
  0
LINE
  8
0
 62
     0
 10
101.163
 20
55.0115
 30
0.0
 11
99.8608
 21
48.8791
 31
0.0
  0
LINE
  8
0
 62
     0
 10
99.8608
 20
48.8791
 30
0.0
 11
99.0533
 21
49.0499
 31
0.0
  0
LINE
  8
0
 62
     0
 10
99.0533
 20
49.0499
 30
0.0
 11
98.4719
 21
46.3116
 31
0.0
  0
LINE
  8
0
 62
     0
 10
98.4719
 20
46.3116
 30
0.0
 11
99.278
 21
46.1395
 31
0.0
  0
LINE
  8
0
 62
     0
 10
99.278
 20
46.1395
 30
0.0
 11
98.607
 21
42.981
 31
0.0
  0
LINE
  8
0
 62
     0
 10
98.607
 20
42.981
 30
0.0
 11
105.209
 21
41.5766
 31
0.0
  0
LINE
  8
0
 62
     0
 10
105.209
 20
41.5766
 30
0.0
 11
105.88
 21
44.7368
 31
0.0
  0
LINE
  8
0
 62
     0
 10
105.88
 20
44.7368
 30
0.0
 11
107.373
 21
44.4197
 31
0.0
  0
LINE
  8
0
 62
     0
 10
107.373
 20
44.4197
 30
0.0
 11
106.396
 21
39.8212
 31
0.0
  0
LINE
  8
0
 62
     0
 10
106.396
 20
39.8212
 30
0.0
 11
120.089
 21
36.9108
 31
0.0
  0
LINE
  8
0
 62
     0
 10
120.089
 20
36.9108
 30
0.0
 11
121.066
 21
41.5078
 31
0.0
  0
LINE
  8
0
 62
     0
 10
121.066
 20
41.5078
 30
0.0
 11
122.557
 21
41.191
 31
0.0
  0
LINE
  8
0
 62
     0
 10
122.557
 20
41.191
 30
0.0
 11
121.886
 21
38.0326
 31
0.0
  0
LINE
  8
0
 62
     0
 10
121.886
 20
38.0326
 30
0.0
 11
128.488
 21
36.6282
 31
0.0
  0
LINE
  8
0
 62
     0
 10
128.488
 20
36.6282
 30
0.0
 11
129.161
 21
39.788
 31
0.0
  0
LINE
  8
0
 62
     0
 10
129.161
 20
39.788
 30
0.0
 11
129.967
 21
39.6159
 31
0.0
  0
LINE
  8
0
 62
     0
 10
129.967
 20
39.6159
 30
0.0
 11
130.55
 21
42.3556
 31
0.0
  0
LINE
  8
0
 62
     0
 10
130.55
 20
42.3556
 30
0.0
 11
129.742
 21
42.5263
 31
0.0
  0
LINE
  8
0
 62
     0
 10
129.742
 20
42.5263
 30
0.0
 11
131.046
 21
48.6601
 31
0.0
  0
LINE
  8
0
 62
     0
 10
131.046
 20
48.6601
 30
0.0
 11
129.358
 21
49.0181
 31
0.0
  0
LINE
  8
0
 62
     0
 10
129.358
 20
49.0181
 30
0.0
 11
129.609
 21
50.1922
 31
0.0
  0
LINE
  8
0
 62
     0
 10
129.609
 20
50.1922
 30
0.0
 11
126.38
 21
50.8801
 31
0.0
  0
LINE
  8
0
 62
     0
 10
126.38
 20
50.8801
 30
0.0
 11
126.132
 21
49.7046
 31
0.0
  0
LINE
  8
0
 62
     0
 10
126.132
 20
49.7046
 30
0.0
 11
124.444
 21
50.0627
 31
0.0
  0
LINE
  8
0
 62
     0
 10
124.444
 20
50.0627
 30
0.0
 11
123.515
 21
45.6904
 31
0.0
  0
LINE
  8
0
 62
     0
 10
123.515
 20
45.6904
 30
0.0
 11
122.023
 21
46.0072
 31
0.0
  0
LINE
  8
0
 62
     0
 10
122.023
 20
46.0072
 30
0.0
 11
123
 21
50.607
 31
0.0
  0
LINE
  8
0
 62
     0
 10
123
 20
50.607
 30
0.0
 11
109.306
 21
53.516
 31
0.0
  0
LINE
  8
0
 62
     0
 10
109.306
 20
53.516
 30
0.0
 11
108.329
 21
48.919
 31
0.0
  0
LINE
  8
0
 62
     0
 10
108.329
 20
48.919
 30
0.0
 11
106.837
 21
49.2358
 31
0.0
  0
LINE
  8
0
 62
     0
 10
106.837
 20
49.2358
 30
0.0
 11
107.767
 21
53.6085
 31
0.0
  0
LINE
  8
0
 62
     0
 10
107.767
 20
53.6085
 30
0.0
 11
106.08
 21
53.9669
 31
0.0
  0
LINE
  8
0
 62
     0
 10
106.08
 20
53.9669
 30
0.0
 11
106.328
 21
55.1409
 31
0.0
  0
LINE
  8
0
 62
     0
 10
106.328
 20
55.1409
 30
0.0
 11
103.101
 21
55.8271
 31
0.0
  0
LINE
  8
0
 62
     0
 10
103.101
 20
55.8271
 30
0.0
 11
102.851
 21
54.653
 31
0.0
  0
LINE
  8
0
 62
     0
 10
343.042
 20
56.231
 30
0.0
 11
357.043
 21
56.231
 31
0.0
  0
LINE
  8
0
 62
     0
 10
357.043
 20
56.231
 30
0.0
 11
357.043
 21
42.2314
 31
0.0
  0
LINE
  8
0
 62
     0
 10
357.043
 20
42.2314
 30
0.0
 11
343.042
 21
42.2314
 31
0.0
  0
LINE
  8
0
 62
     0
 10
343.042
 20
42.2314
 30
0.0
 11
343.042
 21
56.231
 31
0.0
  0
LINE
  8
0
 62
     0
 10
323.992
 20
56.231
 30
0.0
 11
337.993
 21
56.231
 31
0.0
  0
LINE
  8
0
 62
     0
 10
337.993
 20
56.231
 30
0.0
 11
337.993
 21
42.2314
 31
0.0
  0
LINE
  8
0
 62
     0
 10
337.993
 20
42.2314
 30
0.0
 11
323.992
 21
42.2314
 31
0.0
  0
LINE
  8
0
 62
     0
 10
323.992
 20
42.2314
 30
0.0
 11
323.992
 21
56.231
 31
0.0
  0
LINE
  8
0
 62
     0
 10
304.942
 20
56.231
 30
0.0
 11
318.943
 21
56.231
 31
0.0
  0
LINE
  8
0
 62
     0
 10
318.943
 20
56.231
 30
0.0
 11
318.943
 21
42.2314
 31
0.0
  0
LINE
  8
0
 62
     0
 10
318.943
 20
42.2314
 30
0.0
 11
304.942
 21
42.2314
 31
0.0
  0
LINE
  8
0
 62
     0
 10
304.942
 20
42.2314
 30
0.0
 11
304.942
 21
56.231
 31
0.0
  0
LINE
  8
0
 62
     0
 10
244.851
 20
57.3842
 30
0.0
 11
247.761
 21
43.6894
 31
0.0
  0
LINE
  8
0
 62
     0
 10
247.761
 20
43.6894
 30
0.0
 11
261.455
 21
46.5998
 31
0.0
  0
LINE
  8
0
 62
     0
 10
261.455
 20
46.5998
 30
0.0
 11
258.546
 21
60.2947
 31
0.0
  0
LINE
  8
0
 62
     0
 10
258.546
 20
60.2947
 30
0.0
 11
244.851
 21
57.3842
 31
0.0
  0
LINE
  8
0
 62
     0
 10
73.787
 20
46.754
 30
0.0
 11
87.4808
 21
43.8422
 31
0.0
  0
LINE
  8
0
 62
     0
 10
87.4808
 20
43.8422
 30
0.0
 11
90.3912
 21
57.5359
 31
0.0
  0
LINE
  8
0
 62
     0
 10
90.3912
 20
57.5359
 30
0.0
 11
76.696
 21
60.4478
 31
0.0
  0
LINE
  8
0
 62
     0
 10
76.696
 20
60.4478
 30
0.0
 11
73.787
 21
46.754
 31
0.0
  0
LINE
  8
0
 62
     0
 10
168.684
 20
60.6697
 30
0.0
 11
171.596
 21
46.9759
 31
0.0
  0
LINE
  8
0
 62
     0
 10
171.596
 20
46.9759
 30
0.0
 11
185.289
 21
49.8863
 31
0.0
  0
LINE
  8
0
 62
     0
 10
185.289
 20
49.8863
 30
0.0
 11
182.378
 21
63.5801
 31
0.0
  0
LINE
  8
0
 62
     0
 10
182.378
 20
63.5801
 30
0.0
 11
168.684
 21
60.6697
 31
0.0
  0
LINE
  8
0
 62
     0
 10
274.938
 20
60.9935
 30
0.0
 11
288.939
 21
60.9935
 31
0.0
  0
LINE
  8
0
 62
     0
 10
288.939
 20
60.9935
 30
0.0
 11
288.939
 21
46.9939
 31
0.0
  0
LINE
  8
0
 62
     0
 10
288.939
 20
46.9939
 30
0.0
 11
274.938
 21
46.9939
 31
0.0
  0
LINE
  8
0
 62
     0
 10
274.938
 20
46.9939
 30
0.0
 11
274.938
 21
60.9935
 31
0.0
  0
LINE
  8
0
 62
     0
 10
41.5766
 20
60.9935
 30
0.0
 11
55.5763
 21
60.9935
 31
0.0
  0
LINE
  8
0
 62
     0
 10
55.5763
 20
60.9935
 30
0.0
 11
55.5763
 21
46.9939
 31
0.0
  0
LINE
  8
0
 62
     0
 10
55.5763
 20
46.9939
 30
0.0
 11
41.5766
 21
46.9939
 31
0.0
  0
LINE
  8
0
 62
     0
 10
41.5766
 20
46.9939
 30
0.0
 11
41.5766
 21
60.9935
 31
0.0
  0
LINE
  8
0
 62
     0
 10
15.3831
 20
60.9935
 30
0.0
 11
29.3825
 21
60.9935
 31
0.0
  0
LINE
  8
0
 62
     0
 10
29.3825
 20
60.9935
 30
0.0
 11
29.3825
 21
46.9939
 31
0.0
  0
LINE
  8
0
 62
     0
 10
29.3825
 20
46.9939
 30
0.0
 11
15.3831
 21
46.9939
 31
0.0
  0
LINE
  8
0
 62
     0
 10
15.3831
 20
46.9939
 30
0.0
 11
15.3831
 21
60.9935
 31
0.0
  0
LINE
  8
0
 62
     0
 10
187.318
 20
64.6299
 30
0.0
 11
190.23
 21
50.9365
 31
0.0
  0
LINE
  8
0
 62
     0
 10
190.23
 20
50.9365
 30
0.0
 11
203.924
 21
53.8469
 31
0.0
  0
LINE
  8
0
 62
     0
 10
203.924
 20
53.8469
 30
0.0
 11
201.013
 21
67.5418
 31
0.0
  0
LINE
  8
0
 62
     0
 10
201.013
 20
67.5418
 30
0.0
 11
187.318
 21
64.6299
 31
0.0
  0
LINE
  8
0
 62
     0
 10
131.319
 20
53.9997
 30
0.0
 11
145.012
 21
51.0893
 31
0.0
  0
LINE
  8
0
 62
     0
 10
145.012
 20
51.0893
 30
0.0
 11
147.924
 21
64.7831
 31
0.0
  0
LINE
  8
0
 62
     0
 10
147.924
 20
64.7831
 30
0.0
 11
134.229
 21
67.6935
 31
0.0
  0
LINE
  8
0
 62
     0
 10
134.229
 20
67.6935
 30
0.0
 11
131.319
 21
53.9997
 31
0.0
  0
LINE
  8
0
 62
     0
 10
205.952
 20
68.592
 30
0.0
 11
208.862
 21
54.8968
 31
0.0
  0
LINE
  8
0
 62
     0
 10
208.862
 20
54.8968
 30
0.0
 11
222.557
 21
57.8086
 31
0.0
  0
LINE
  8
0
 62
     0
 10
222.557
 20
57.8086
 30
0.0
 11
219.647
 21
71.5024
 31
0.0
  0
LINE
  8
0
 62
     0
 10
219.647
 20
71.5024
 30
0.0
 11
205.952
 21
68.592
 31
0.0
  0
LINE
  8
0
 62
     0
 10
112.685
 20
57.9603
 30
0.0
 11
126.38
 21
55.0499
 31
0.0
  0
LINE
  8
0
 62
     0
 10
126.38
 20
55.0499
 30
0.0
 11
129.289
 21
68.7433
 31
0.0
  0
LINE
  8
0
 62
     0
 10
129.289
 20
68.7433
 30
0.0
 11
115.595
 21
71.6538
 31
0.0
  0
LINE
  8
0
 62
     0
 10
115.595
 20
71.6538
 30
0.0
 11
112.685
 21
57.9603
 31
0.0
  0
LINE
  8
0
 62
     0
 10
224.586
 20
72.5523
 30
0.0
 11
227.496
 21
58.8589
 31
0.0
  0
LINE
  8
0
 62
     0
 10
227.496
 20
58.8589
 30
0.0
 11
241.191
 21
61.7679
 31
0.0
  0
LINE
  8
0
 62
     0
 10
241.191
 20
61.7679
 30
0.0
 11
238.28
 21
75.4627
 31
0.0
  0
LINE
  8
0
 62
     0
 10
238.28
 20
75.4627
 30
0.0
 11
224.586
 21
72.5523
 31
0.0
  0
LINE
  8
0
 62
     0
 10
94.0513
 20
61.9206
 30
0.0
 11
107.746
 21
59.0102
 31
0.0
  0
LINE
  8
0
 62
     0
 10
107.746
 20
59.0102
 30
0.0
 11
110.657
 21
72.704
 31
0.0
  0
LINE
  8
0
 62
     0
 10
110.657
 20
72.704
 30
0.0
 11
96.9627
 21
75.6158
 31
0.0
  0
LINE
  8
0
 62
     0
 10
96.9627
 20
75.6158
 30
0.0
 11
94.0513
 21
61.9206
 31
0.0
  0
LINE
  8
0
 62
     0
 10
323.992
 20
75.281
 30
0.0
 11
337.993
 21
75.281
 31
0.0
  0
LINE
  8
0
 62
     0
 10
337.993
 20
75.281
 30
0.0
 11
337.993
 21
61.2814
 31
0.0
  0
LINE
  8
0
 62
     0
 10
337.993
 20
61.2814
 30
0.0
 11
323.992
 21
61.2814
 31
0.0
  0
LINE
  8
0
 62
     0
 10
323.992
 20
61.2814
 30
0.0
 11
323.992
 21
75.281
 31
0.0
  0
LINE
  8
0
 62
     0
 10
243.219
 20
76.5129
 30
0.0
 11
246.13
 21
62.8177
 31
0.0
  0
LINE
  8
0
 62
     0
 10
246.13
 20
62.8177
 30
0.0
 11
259.825
 21
65.7296
 31
0.0
  0
LINE
  8
0
 62
     0
 10
259.825
 20
65.7296
 30
0.0
 11
256.913
 21
79.4233
 31
0.0
  0
LINE
  8
0
 62
     0
 10
256.913
 20
79.4233
 30
0.0
 11
243.219
 21
76.5129
 31
0.0
  0
LINE
  8
0
 62
     0
 10
75.4172
 20
65.8827
 30
0.0
 11
89.111
 21
62.9708
 31
0.0
  0
LINE
  8
0
 62
     0
 10
89.111
 20
62.9708
 30
0.0
 11
92.0228
 21
76.6657
 31
0.0
  0
LINE
  8
0
 62
     0
 10
92.0228
 20
76.6657
 30
0.0
 11
78.329
 21
79.5761
 31
0.0
  0
LINE
  8
0
 62
     0
 10
78.329
 20
79.5761
 30
0.0
 11
75.4172
 21
65.8827
 31
0.0
  0
LINE
  8
0
 62
     0
 10
22.5268
 20
80.0435
 30
0.0
 11
22.5268
 21
75.3428
 31
0.0
  0
LINE
  8
0
 62
     0
 10
22.5268
 20
75.3428
 30
0.0
 11
21.0013
 21
75.3428
 31
0.0
  0
LINE
  8
0
 62
     0
 10
21.0013
 20
75.3428
 30
0.0
 11
21.0013
 21
78.5731
 31
0.0
  0
LINE
  8
0
 62
     0
 10
21.0013
 20
78.5731
 30
0.0
 11
14.2517
 21
78.5731
 31
0.0
  0
LINE
  8
0
 62
     0
 10
14.2517
 20
78.5731
 30
0.0
 11
14.2517
 21
75.3428
 31
0.0
  0
LINE
  8
0
 62
     0
 10
14.2517
 20
75.3428
 30
0.0
 11
13.4262
 21
75.3428
 31
0.0
  0
LINE
  8
0
 62
     0
 10
13.4262
 20
75.3428
 30
0.0
 11
13.4262
 21
72.5442
 31
0.0
  0
LINE
  8
0
 62
     0
 10
13.4262
 20
72.5442
 30
0.0
 11
14.2517
 21
72.5442
 31
0.0
  0
LINE
  8
0
 62
     0
 10
14.2517
 20
72.5442
 30
0.0
 11
14.2517
 21
66.2739
 31
0.0
  0
LINE
  8
0
 62
     0
 10
14.2517
 20
66.2739
 30
0.0
 11
15.977
 21
66.2739
 31
0.0
  0
LINE
  8
0
 62
     0
 10
15.977
 20
66.2739
 30
0.0
 11
15.977
 21
65.0737
 31
0.0
  0
LINE
  8
0
 62
     0
 10
15.977
 20
65.0737
 30
0.0
 11
19.276
 21
65.0737
 31
0.0
  0
LINE
  8
0
 62
     0
 10
19.276
 20
65.0737
 30
0.0
 11
19.276
 21
66.2739
 31
0.0
  0
LINE
  8
0
 62
     0
 10
19.276
 20
66.2739
 30
0.0
 11
21.0013
 21
66.2739
 31
0.0
  0
LINE
  8
0
 62
     0
 10
21.0013
 20
66.2739
 30
0.0
 11
21.0013
 21
70.7429
 31
0.0
  0
LINE
  8
0
 62
     0
 10
21.0013
 20
70.7429
 30
0.0
 11
22.5268
 21
70.7429
 31
0.0
  0
LINE
  8
0
 62
     0
 10
22.5268
 20
70.7429
 30
0.0
 11
22.5268
 21
66.0439
 31
0.0
  0
LINE
  8
0
 62
     0
 10
22.5268
 20
66.0439
 30
0.0
 11
36.5263
 21
66.0439
 31
0.0
  0
LINE
  8
0
 62
     0
 10
36.5263
 20
66.0439
 30
0.0
 11
36.5263
 21
70.7429
 31
0.0
  0
LINE
  8
0
 62
     0
 10
36.5263
 20
70.7429
 30
0.0
 11
38.0517
 21
70.7429
 31
0.0
  0
LINE
  8
0
 62
     0
 10
38.0517
 20
70.7429
 30
0.0
 11
38.0517
 21
66.2739
 31
0.0
  0
LINE
  8
0
 62
     0
 10
38.0517
 20
66.2739
 30
0.0
 11
39.7771
 21
66.2739
 31
0.0
  0
LINE
  8
0
 62
     0
 10
39.7771
 20
66.2739
 30
0.0
 11
39.7771
 21
65.0737
 31
0.0
  0
LINE
  8
0
 62
     0
 10
39.7771
 20
65.0737
 30
0.0
 11
43.0759
 21
65.0737
 31
0.0
  0
LINE
  8
0
 62
     0
 10
43.0759
 20
65.0737
 30
0.0
 11
43.0759
 21
66.2739
 31
0.0
  0
LINE
  8
0
 62
     0
 10
43.0759
 20
66.2739
 30
0.0
 11
44.8014
 21
66.2739
 31
0.0
  0
LINE
  8
0
 62
     0
 10
44.8014
 20
66.2739
 30
0.0
 11
44.8014
 21
72.5442
 31
0.0
  0
LINE
  8
0
 62
     0
 10
44.8014
 20
72.5442
 30
0.0
 11
45.6269
 21
72.5442
 31
0.0
  0
LINE
  8
0
 62
     0
 10
45.6269
 20
72.5442
 30
0.0
 11
45.6269
 21
75.3428
 31
0.0
  0
LINE
  8
0
 62
     0
 10
45.6269
 20
75.3428
 30
0.0
 11
44.8014
 21
75.3428
 31
0.0
  0
LINE
  8
0
 62
     0
 10
44.8014
 20
75.3428
 30
0.0
 11
44.8014
 21
78.5731
 31
0.0
  0
LINE
  8
0
 62
     0
 10
44.8014
 20
78.5731
 30
0.0
 11
38.0517
 21
78.5731
 31
0.0
  0
LINE
  8
0
 62
     0
 10
38.0517
 20
78.5731
 30
0.0
 11
38.0517
 21
75.3428
 31
0.0
  0
LINE
  8
0
 62
     0
 10
38.0517
 20
75.3428
 30
0.0
 11
36.5263
 21
75.3428
 31
0.0
  0
LINE
  8
0
 62
     0
 10
36.5263
 20
75.3428
 30
0.0
 11
36.5263
 21
80.0435
 31
0.0
  0
LINE
  8
0
 62
     0
 10
36.5263
 20
80.0435
 30
0.0
 11
22.5268
 21
80.0435
 31
0.0
  0
LINE
  8
0
 62
     0
 10
293.037
 20
80.0435
 30
0.0
 11
307.037
 21
80.0435
 31
0.0
  0
LINE
  8
0
 62
     0
 10
307.037
 20
80.0435
 30
0.0
 11
307.037
 21
66.0439
 31
0.0
  0
LINE
  8
0
 62
     0
 10
307.037
 20
66.0439
 30
0.0
 11
293.037
 21
66.0439
 31
0.0
  0
LINE
  8
0
 62
     0
 10
293.037
 20
66.0439
 30
0.0
 11
293.037
 21
80.0435
 31
0.0
  0
LINE
  8
0
 62
     0
 10
266.842
 20
80.0435
 30
0.0
 11
280.843
 21
80.0435
 31
0.0
  0
LINE
  8
0
 62
     0
 10
280.843
 20
80.0435
 30
0.0
 11
280.843
 21
66.0439
 31
0.0
  0
LINE
  8
0
 62
     0
 10
280.843
 20
66.0439
 30
0.0
 11
266.842
 21
66.0439
 31
0.0
  0
LINE
  8
0
 62
     0
 10
266.842
 20
66.0439
 30
0.0
 11
266.842
 21
80.0435
 31
0.0
  0
LINE
  8
0
 62
     0
 10
53.4829
 20
80.0435
 30
0.0
 11
67.4825
 21
80.0435
 31
0.0
  0
LINE
  8
0
 62
     0
 10
67.4825
 20
80.0435
 30
0.0
 11
67.4825
 21
66.0439
 31
0.0
  0
LINE
  8
0
 62
     0
 10
67.4825
 20
66.0439
 30
0.0
 11
53.4829
 21
66.0439
 31
0.0
  0
LINE
  8
0
 62
     0
 10
53.4829
 20
66.0439
 30
0.0
 11
53.4829
 21
80.0435
 31
0.0
  0
LINE
  8
0
 62
     0
 10
178.7
 20
82.2745
 30
0.0
 11
181.61
 21
68.5807
 31
0.0
  0
LINE
  8
0
 62
     0
 10
181.61
 20
68.5807
 30
0.0
 11
195.304
 21
71.4897
 31
0.0
  0
LINE
  8
0
 62
     0
 10
195.304
 20
71.4897
 30
0.0
 11
192.393
 21
85.1849
 31
0.0
  0
LINE
  8
0
 62
     0
 10
192.393
 20
85.1849
 30
0.0
 11
178.7
 21
82.2745
 31
0.0
  0
LINE
  8
0
 62
     0
 10
125.961
 20
74.6139
 30
0.0
 11
139.656
 21
71.7035
 31
0.0
  0
LINE
  8
0
 62
     0
 10
139.656
 20
71.7035
 30
0.0
 11
142.568
 21
85.3969
 31
0.0
  0
LINE
  8
0
 62
     0
 10
142.568
 20
85.3969
 30
0.0
 11
128.874
 21
88.3073
 31
0.0
  0
LINE
  8
0
 62
     0
 10
128.874
 20
88.3073
 30
0.0
 11
125.961
 21
74.6139
 31
0.0
  0
LINE
  8
0
 62
     0
 10
197.334
 20
86.2348
 30
0.0
 11
200.244
 21
72.5399
 31
0.0
  0
LINE
  8
0
 62
     0
 10
200.244
 20
72.5399
 30
0.0
 11
213.938
 21
75.4518
 31
0.0
  0
LINE
  8
0
 62
     0
 10
213.938
 20
75.4518
 30
0.0
 11
211.027
 21
89.1452
 31
0.0
  0
LINE
  8
0
 62
     0
 10
211.027
 20
89.1452
 30
0.0
 11
197.334
 21
86.2348
 31
0.0
  0
LINE
  8
0
 62
     0
 10
107.328
 20
78.5742
 30
0.0
 11
121.022
 21
75.6638
 31
0.0
  0
LINE
  8
0
 62
     0
 10
121.022
 20
75.6638
 30
0.0
 11
123.934
 21
89.3576
 31
0.0
  0
LINE
  8
0
 62
     0
 10
123.934
 20
89.3576
 30
0.0
 11
110.239
 21
92.268
 31
0.0
  0
LINE
  8
0
 62
     0
 10
110.239
 20
92.268
 30
0.0
 11
107.328
 21
78.5742
 31
0.0
  0
LINE
  8
0
 62
     0
 10
215.966
 20
90.1954
 30
0.0
 11
218.878
 21
76.5016
 31
0.0
  0
LINE
  8
0
 62
     0
 10
218.878
 20
76.5016
 30
0.0
 11
232.572
 21
79.412
 31
0.0
  0
LINE
  8
0
 62
     0
 10
232.572
 20
79.412
 30
0.0
 11
229.661
 21
93.1058
 31
0.0
  0
LINE
  8
0
 62
     0
 10
229.661
 20
93.1058
 30
0.0
 11
215.966
 21
90.1954
 31
0.0
  0
LINE
  8
0
 62
     0
 10
88.6961
 20
82.5348
 30
0.0
 11
102.39
 21
79.6244
 31
0.0
  0
LINE
  8
0
 62
     0
 10
102.39
 20
79.6244
 30
0.0
 11
105.3
 21
93.3178
 31
0.0
  0
LINE
  8
0
 62
     0
 10
105.3
 20
93.3178
 30
0.0
 11
91.6051
 21
96.2297
 31
0.0
  0
LINE
  8
0
 62
     0
 10
91.6051
 20
96.2297
 30
0.0
 11
88.6961
 21
82.5348
 31
0.0
  0
LINE
  8
0
 62
     0
 10
234.6
 20
94.1557
 30
0.0
 11
237.512
 21
80.4623
 31
0.0
  0
LINE
  8
0
 62
     0
 10
237.512
 20
80.4623
 30
0.0
 11
251.205
 21
83.3741
 31
0.0
  0
LINE
  8
0
 62
     0
 10
251.205
 20
83.3741
 30
0.0
 11
248.295
 21
97.0675
 31
0.0
  0
LINE
  8
0
 62
     0
 10
248.295
 20
97.0675
 30
0.0
 11
234.6
 21
94.1557
 31
0.0
  0
LINE
  8
0
 62
     0
 10
70.061
 20
86.4969
 30
0.0
 11
83.7558
 21
83.5851
 31
0.0
  0
LINE
  8
0
 62
     0
 10
83.7558
 20
83.5851
 30
0.0
 11
86.6662
 21
97.2799
 31
0.0
  0
LINE
  8
0
 62
     0
 10
86.6662
 20
97.2799
 30
0.0
 11
72.9728
 21
100.19
 31
0.0
  0
LINE
  8
0
 62
     0
 10
72.9728
 20
100.19
 30
0.0
 11
70.061
 21
86.4969
 31
0.0
  0
LINE
  8
0
 62
     0
 10
307.323
 20
99.0935
 30
0.0
 11
307.323
 21
94.3928
 31
0.0
  0
LINE
  8
0
 62
     0
 10
307.323
 20
94.3928
 30
0.0
 11
305.799
 21
94.3928
 31
0.0
  0
LINE
  8
0
 62
     0
 10
305.799
 20
94.3928
 30
0.0
 11
305.799
 21
97.6231
 31
0.0
  0
LINE
  8
0
 62
     0
 10
305.799
 20
97.6231
 30
0.0
 11
299.048
 21
97.6231
 31
0.0
  0
LINE
  8
0
 62
     0
 10
299.048
 20
97.6231
 30
0.0
 11
299.048
 21
94.3928
 31
0.0
  0
LINE
  8
0
 62
     0
 10
299.048
 20
94.3928
 30
0.0
 11
298.224
 21
94.3928
 31
0.0
  0
LINE
  8
0
 62
     0
 10
298.224
 20
94.3928
 30
0.0
 11
298.224
 21
91.5942
 31
0.0
  0
LINE
  8
0
 62
     0
 10
298.224
 20
91.5942
 30
0.0
 11
299.048
 21
91.5942
 31
0.0
  0
LINE
  8
0
 62
     0
 10
299.048
 20
91.5942
 30
0.0
 11
299.048
 21
85.3239
 31
0.0
  0
LINE
  8
0
 62
     0
 10
299.048
 20
85.3239
 30
0.0
 11
300.773
 21
85.3239
 31
0.0
  0
LINE
  8
0
 62
     0
 10
300.773
 20
85.3239
 30
0.0
 11
300.773
 21
84.1237
 31
0.0
  0
LINE
  8
0
 62
     0
 10
300.773
 20
84.1237
 30
0.0
 11
304.074
 21
84.1237
 31
0.0
  0
LINE
  8
0
 62
     0
 10
304.074
 20
84.1237
 30
0.0
 11
304.074
 21
85.3239
 31
0.0
  0
LINE
  8
0
 62
     0
 10
304.074
 20
85.3239
 30
0.0
 11
305.799
 21
85.3239
 31
0.0
  0
LINE
  8
0
 62
     0
 10
305.799
 20
85.3239
 30
0.0
 11
305.799
 21
89.7929
 31
0.0
  0
LINE
  8
0
 62
     0
 10
305.799
 20
89.7929
 30
0.0
 11
307.323
 21
89.7929
 31
0.0
  0
LINE
  8
0
 62
     0
 10
307.323
 20
89.7929
 30
0.0
 11
307.323
 21
85.0939
 31
0.0
  0
LINE
  8
0
 62
     0
 10
307.323
 20
85.0939
 30
0.0
 11
321.324
 21
85.0939
 31
0.0
  0
LINE
  8
0
 62
     0
 10
321.324
 20
85.0939
 30
0.0
 11
321.324
 21
89.7929
 31
0.0
  0
LINE
  8
0
 62
     0
 10
321.324
 20
89.7929
 30
0.0
 11
322.848
 21
89.7929
 31
0.0
  0
LINE
  8
0
 62
     0
 10
322.848
 20
89.7929
 30
0.0
 11
322.848
 21
85.3239
 31
0.0
  0
LINE
  8
0
 62
     0
 10
322.848
 20
85.3239
 30
0.0
 11
324.574
 21
85.3239
 31
0.0
  0
LINE
  8
0
 62
     0
 10
324.574
 20
85.3239
 30
0.0
 11
324.574
 21
84.1237
 31
0.0
  0
LINE
  8
0
 62
     0
 10
324.574
 20
84.1237
 30
0.0
 11
327.874
 21
84.1237
 31
0.0
  0
LINE
  8
0
 62
     0
 10
327.874
 20
84.1237
 30
0.0
 11
327.874
 21
85.3239
 31
0.0
  0
LINE
  8
0
 62
     0
 10
327.874
 20
85.3239
 30
0.0
 11
329.599
 21
85.3239
 31
0.0
  0
LINE
  8
0
 62
     0
 10
329.599
 20
85.3239
 30
0.0
 11
329.599
 21
91.5942
 31
0.0
  0
LINE
  8
0
 62
     0
 10
329.599
 20
91.5942
 30
0.0
 11
330.423
 21
91.5942
 31
0.0
  0
LINE
  8
0
 62
     0
 10
330.423
 20
91.5942
 30
0.0
 11
330.423
 21
94.3928
 31
0.0
  0
LINE
  8
0
 62
     0
 10
330.423
 20
94.3928
 30
0.0
 11
329.599
 21
94.3928
 31
0.0
  0
LINE
  8
0
 62
     0
 10
329.599
 20
94.3928
 30
0.0
 11
329.599
 21
97.6231
 31
0.0
  0
LINE
  8
0
 62
     0
 10
329.599
 20
97.6231
 30
0.0
 11
322.848
 21
97.6231
 31
0.0
  0
LINE
  8
0
 62
     0
 10
322.848
 20
97.6231
 30
0.0
 11
322.848
 21
94.3928
 31
0.0
  0
LINE
  8
0
 62
     0
 10
322.848
 20
94.3928
 30
0.0
 11
321.324
 21
94.3928
 31
0.0
  0
LINE
  8
0
 62
     0
 10
321.324
 20
94.3928
 30
0.0
 11
321.324
 21
99.0935
 31
0.0
  0
LINE
  8
0
 62
     0
 10
321.324
 20
99.0935
 30
0.0
 11
307.323
 21
99.0935
 31
0.0
  0
LINE
  8
0
 62
     0
 10
276.367
 20
99.0935
 30
0.0
 11
290.368
 21
99.0935
 31
0.0
  0
LINE
  8
0
 62
     0
 10
290.368
 20
99.0935
 30
0.0
 11
290.368
 21
85.0939
 31
0.0
  0
LINE
  8
0
 62
     0
 10
290.368
 20
85.0939
 30
0.0
 11
276.367
 21
85.0939
 31
0.0
  0
LINE
  8
0
 62
     0
 10
276.367
 20
85.0939
 30
0.0
 11
276.367
 21
99.0935
 31
0.0
  0
LINE
  8
0
 62
     0
 10
257.317
 20
99.0935
 30
0.0
 11
271.318
 21
99.0935
 31
0.0
  0
LINE
  8
0
 62
     0
 10
271.318
 20
99.0935
 30
0.0
 11
271.318
 21
85.0939
 31
0.0
  0
LINE
  8
0
 62
     0
 10
271.318
 20
85.0939
 30
0.0
 11
257.317
 21
85.0939
 31
0.0
  0
LINE
  8
0
 62
     0
 10
257.317
 20
85.0939
 30
0.0
 11
257.317
 21
99.0935
 31
0.0
  0
LINE
  8
0
 62
     0
 10
48.7204
 20
99.0935
 30
0.0
 11
62.72
 21
99.0935
 31
0.0
  0
LINE
  8
0
 62
     0
 10
62.72
 20
99.0935
 30
0.0
 11
62.72
 21
85.0939
 31
0.0
  0
LINE
  8
0
 62
     0
 10
62.72
 20
85.0939
 30
0.0
 11
48.7204
 21
85.0939
 31
0.0
  0
LINE
  8
0
 62
     0
 10
48.7204
 20
85.0939
 30
0.0
 11
48.7204
 21
99.0935
 31
0.0
  0
LINE
  8
0
 62
     0
 10
17.7629
 20
99.0935
 30
0.0
 11
31.7638
 21
99.0935
 31
0.0
  0
LINE
  8
0
 62
     0
 10
31.7638
 20
99.0935
 30
0.0
 11
31.7638
 21
85.0939
 31
0.0
  0
LINE
  8
0
 62
     0
 10
31.7638
 20
85.0939
 30
0.0
 11
17.7629
 21
85.0939
 31
0.0
  0
LINE
  8
0
 62
     0
 10
17.7629
 20
85.0939
 30
0.0
 11
17.7629
 21
99.0935
 31
0.0
  0
LINE
  8
0
 62
     0
 10
170.08
 20
99.9173
 30
0.0
 11
172.991
 21
86.2238
 31
0.0
  0
LINE
  8
0
 62
     0
 10
172.991
 20
86.2238
 30
0.0
 11
186.686
 21
89.1342
 31
0.0
  0
LINE
  8
0
 62
     0
 10
186.686
 20
89.1342
 30
0.0
 11
183.775
 21
102.828
 31
0.0
  0
LINE
  8
0
 62
     0
 10
183.775
 20
102.828
 30
0.0
 11
170.08
 21
99.9173
 31
0.0
  0
LINE
  8
0
 62
     0
 10
3.77031
 20
89.2817
 30
0.0
 11
3.47817
 21
89.1328
 31
0.0
  0
LINE
  8
0
 62
     0
 10
3.47817
 20
89.1328
 30
0.0
 11
3.24528
 21
88.9
 31
0.0
  0
LINE
  8
0
 62
     0
 10
3.24528
 20
88.9
 30
0.0
 11
3.09507
 21
88.6079
 31
0.0
  0
LINE
  8
0
 62
     0
 10
3.09507
 20
88.6079
 30
0.0
 11
3.04409
 21
88.284
 31
0.0
  0
LINE
  8
0
 62
     0
 10
3.04409
 20
88.284
 30
0.0
 11
3.09507
 21
87.9588
 31
0.0
  0
LINE
  8
0
 62
     0
 10
3.09507
 20
87.9588
 30
0.0
 11
3.24528
 21
87.6667
 31
0.0
  0
LINE
  8
0
 62
     0
 10
3.24528
 20
87.6667
 30
0.0
 11
3.47817
 21
87.4339
 31
0.0
  0
LINE
  8
0
 62
     0
 10
3.47817
 20
87.4339
 30
0.0
 11
3.77031
 21
87.285
 31
0.0
  0
LINE
  8
0
 62
     0
 10
3.77031
 20
87.285
 30
0.0
 11
4.09554
 21
87.2338
 31
0.0
  0
LINE
  8
0
 62
     0
 10
4.09554
 20
87.2338
 30
0.0
 11
4.41935
 21
87.285
 31
0.0
  0
LINE
  8
0
 62
     0
 10
4.41935
 20
87.285
 30
0.0
 11
4.7129
 21
87.4339
 31
0.0
  0
LINE
  8
0
 62
     0
 10
4.7129
 20
87.4339
 30
0.0
 11
4.94439
 21
87.6667
 31
0.0
  0
LINE
  8
0
 62
     0
 10
4.94439
 20
87.6667
 30
0.0
 11
5.09323
 21
87.9588
 31
0.0
  0
LINE
  8
0
 62
     0
 10
5.09323
 20
87.9588
 30
0.0
 11
5.14558
 21
88.284
 31
0.0
  0
LINE
  8
0
 62
     0
 10
5.14558
 20
88.284
 30
0.0
 11
5.09323
 21
88.6079
 31
0.0
  0
LINE
  8
0
 62
     0
 10
5.09323
 20
88.6079
 30
0.0
 11
4.94439
 21
88.9
 31
0.0
  0
LINE
  8
0
 62
     0
 10
4.94439
 20
88.9
 30
0.0
 11
4.7129
 21
89.1328
 31
0.0
  0
LINE
  8
0
 62
     0
 10
4.7129
 20
89.1328
 30
0.0
 11
4.41935
 21
89.2817
 31
0.0
  0
LINE
  8
0
 62
     0
 10
4.41935
 20
89.2817
 30
0.0
 11
4.09554
 21
89.3339
 31
0.0
  0
LINE
  8
0
 62
     0
 10
4.09554
 20
89.3339
 30
0.0
 11
3.77031
 21
89.2817
 31
0.0
  0
LINE
  8
0
 62
     0
 10
363.245
 20
89.2817
 30
0.0
 11
362.952
 21
89.1328
 31
0.0
  0
LINE
  8
0
 62
     0
 10
362.952
 20
89.1328
 30
0.0
 11
362.719
 21
88.9
 31
0.0
  0
LINE
  8
0
 62
     0
 10
362.719
 20
88.9
 30
0.0
 11
362.571
 21
88.6079
 31
0.0
  0
LINE
  8
0
 62
     0
 10
362.571
 20
88.6079
 30
0.0
 11
362.518
 21
88.284
 31
0.0
  0
LINE
  8
0
 62
     0
 10
362.518
 20
88.284
 30
0.0
 11
362.571
 21
87.9588
 31
0.0
  0
LINE
  8
0
 62
     0
 10
362.571
 20
87.9588
 30
0.0
 11
362.719
 21
87.6667
 31
0.0
  0
LINE
  8
0
 62
     0
 10
362.719
 20
87.6667
 30
0.0
 11
362.952
 21
87.4339
 31
0.0
  0
LINE
  8
0
 62
     0
 10
362.952
 20
87.4339
 30
0.0
 11
363.245
 21
87.285
 31
0.0
  0
LINE
  8
0
 62
     0
 10
363.245
 20
87.285
 30
0.0
 11
363.569
 21
87.2338
 31
0.0
  0
LINE
  8
0
 62
     0
 10
363.569
 20
87.2338
 30
0.0
 11
363.894
 21
87.285
 31
0.0
  0
LINE
  8
0
 62
     0
 10
363.894
 20
87.285
 30
0.0
 11
364.187
 21
87.4339
 31
0.0
  0
LINE
  8
0
 62
     0
 10
364.187
 20
87.4339
 30
0.0
 11
364.419
 21
87.6667
 31
0.0
  0
LINE
  8
0
 62
     0
 10
364.419
 20
87.6667
 30
0.0
 11
364.568
 21
87.9588
 31
0.0
  0
LINE
  8
0
 62
     0
 10
364.568
 20
87.9588
 30
0.0
 11
364.617
 21
88.284
 31
0.0
  0
LINE
  8
0
 62
     0
 10
364.617
 20
88.284
 30
0.0
 11
364.568
 21
88.6079
 31
0.0
  0
LINE
  8
0
 62
     0
 10
364.568
 20
88.6079
 30
0.0
 11
364.419
 21
88.9
 31
0.0
  0
LINE
  8
0
 62
     0
 10
364.419
 20
88.9
 30
0.0
 11
364.187
 21
89.1328
 31
0.0
  0
LINE
  8
0
 62
     0
 10
364.187
 20
89.1328
 30
0.0
 11
363.894
 21
89.2817
 31
0.0
  0
LINE
  8
0
 62
     0
 10
363.894
 20
89.2817
 30
0.0
 11
363.569
 21
89.3339
 31
0.0
  0
LINE
  8
0
 62
     0
 10
363.569
 20
89.3339
 30
0.0
 11
363.245
 21
89.2817
 31
0.0
  0
LINE
  8
0
 62
     0
 10
343.042
 20
103.856
 30
0.0
 11
357.043
 21
103.856
 31
0.0
  0
LINE
  8
0
 62
     0
 10
357.043
 20
103.856
 30
0.0
 11
357.043
 21
89.8564
 31
0.0
  0
LINE
  8
0
 62
     0
 10
357.043
 20
89.8564
 30
0.0
 11
343.042
 21
89.8564
 31
0.0
  0
LINE
  8
0
 62
     0
 10
343.042
 20
89.8564
 30
0.0
 11
343.042
 21
103.856
 31
0.0
  0
LINE
  8
0
 62
     0
 10
188.714
 20
103.878
 30
0.0
 11
191.625
 21
90.1845
 31
0.0
  0
LINE
  8
0
 62
     0
 10
191.625
 20
90.1845
 30
0.0
 11
205.318
 21
93.0949
 31
0.0
  0
LINE
  8
0
 62
     0
 10
205.318
 20
93.0949
 30
0.0
 11
202.408
 21
106.79
 31
0.0
  0
LINE
  8
0
 62
     0
 10
202.408
 20
106.79
 30
0.0
 11
188.714
 21
103.878
 31
0.0
  0
LINE
  8
0
 62
     0
 10
125.265
 20
94.2372
 30
0.0
 11
138.958
 21
91.3268
 31
0.0
  0
LINE
  8
0
 62
     0
 10
138.958
 20
91.3268
 30
0.0
 11
141.869
 21
105.022
 31
0.0
  0
LINE
  8
0
 62
     0
 10
141.869
 20
105.022
 30
0.0
 11
128.175
 21
107.932
 31
0.0
  0
LINE
  8
0
 62
     0
 10
128.175
 20
107.932
 30
0.0
 11
125.265
 21
94.2372
 31
0.0
  0
LINE
  8
0
 62
     0
 10
207.348
 20
107.84
 30
0.0
 11
210.258
 21
94.1447
 31
0.0
  0
LINE
  8
0
 62
     0
 10
210.258
 20
94.1447
 30
0.0
 11
223.952
 21
97.0552
 31
0.0
  0
LINE
  8
0
 62
     0
 10
223.952
 20
97.0552
 30
0.0
 11
221.041
 21
110.749
 31
0.0
  0
LINE
  8
0
 62
     0
 10
221.041
 20
110.749
 30
0.0
 11
207.348
 21
107.84
 31
0.0
  0
LINE
  8
0
 62
     0
 10
106.631
 20
98.1989
 30
0.0
 11
120.326
 21
95.287
 31
0.0
  0
LINE
  8
0
 62
     0
 10
120.326
 20
95.287
 30
0.0
 11
123.234
 21
108.981
 31
0.0
  0
LINE
  8
0
 62
     0
 10
123.234
 20
108.981
 30
0.0
 11
109.542
 21
111.893
 31
0.0
  0
LINE
  8
0
 62
     0
 10
109.542
 20
111.893
 30
0.0
 11
106.631
 21
98.1989
 31
0.0
  0
LINE
  8
0
 62
     0
 10
225.982
 20
111.799
 30
0.0
 11
228.892
 21
98.1054
 31
0.0
  0
LINE
  8
0
 62
     0
 10
228.892
 20
98.1054
 30
0.0
 11
242.587
 21
101.016
 31
0.0
  0
LINE
  8
0
 62
     0
 10
242.587
 20
101.016
 30
0.0
 11
239.675
 21
114.711
 31
0.0
  0
LINE
  8
0
 62
     0
 10
239.675
 20
114.711
 30
0.0
 11
225.982
 21
111.799
 31
0.0
  0
LINE
  8
0
 62
     0
 10
87.9972
 20
102.16
 30
0.0
 11
101.691
 21
99.2491
 31
0.0
  0
LINE
  8
0
 62
     0
 10
101.691
 20
99.2491
 30
0.0
 11
104.603
 21
112.943
 31
0.0
  0
LINE
  8
0
 62
     0
 10
104.603
 20
112.943
 30
0.0
 11
90.9077
 21
115.853
 31
0.0
  0
LINE
  8
0
 62
     0
 10
90.9077
 20
115.853
 30
0.0
 11
87.9972
 21
102.16
 31
0.0
  0
LINE
  8
0
 62
     0
 10
244.615
 20
115.761
 30
0.0
 11
247.526
 21
102.066
 31
0.0
  0
LINE
  8
0
 62
     0
 10
247.526
 20
102.066
 30
0.0
 11
261.22
 21
104.977
 31
0.0
  0
LINE
  8
0
 62
     0
 10
261.22
 20
104.977
 30
0.0
 11
258.309
 21
118.671
 31
0.0
  0
LINE
  8
0
 62
     0
 10
258.309
 20
118.671
 30
0.0
 11
244.615
 21
115.761
 31
0.0
  0
LINE
  8
0
 62
     0
 10
69.3635
 20
106.12
 30
0.0
 11
83.0573
 21
103.21
 31
0.0
  0
LINE
  8
0
 62
     0
 10
83.0573
 20
103.21
 30
0.0
 11
85.9688
 21
116.903
 31
0.0
  0
LINE
  8
0
 62
     0
 10
85.9688
 20
116.903
 30
0.0
 11
72.2739
 21
119.815
 31
0.0
  0
LINE
  8
0
 62
     0
 10
72.2739
 20
119.815
 30
0.0
 11
69.3635
 21
106.12
 31
0.0
  0
LINE
  8
0
 62
     0
 10
309.706
 20
118.144
 30
0.0
 11
323.705
 21
118.144
 31
0.0
  0
LINE
  8
0
 62
     0
 10
323.705
 20
118.144
 30
0.0
 11
323.705
 21
104.144
 31
0.0
  0
LINE
  8
0
 62
     0
 10
323.705
 20
104.144
 30
0.0
 11
309.706
 21
104.144
 31
0.0
  0
LINE
  8
0
 62
     0
 10
309.706
 20
104.144
 30
0.0
 11
309.706
 21
118.144
 31
0.0
  0
LINE
  8
0
 62
     0
 10
285.892
 20
118.144
 30
0.0
 11
299.893
 21
118.144
 31
0.0
  0
LINE
  8
0
 62
     0
 10
299.893
 20
118.144
 30
0.0
 11
299.893
 21
104.144
 31
0.0
  0
LINE
  8
0
 62
     0
 10
299.893
 20
104.144
 30
0.0
 11
285.892
 21
104.144
 31
0.0
  0
LINE
  8
0
 62
     0
 10
285.892
 20
104.144
 30
0.0
 11
285.892
 21
118.144
 31
0.0
  0
LINE
  8
0
 62
     0
 10
266.842
 20
118.144
 30
0.0
 11
280.843
 21
118.144
 31
0.0
  0
LINE
  8
0
 62
     0
 10
280.843
 20
118.144
 30
0.0
 11
280.843
 21
104.144
 31
0.0
  0
LINE
  8
0
 62
     0
 10
280.843
 20
104.144
 30
0.0
 11
266.842
 21
104.144
 31
0.0
  0
LINE
  8
0
 62
     0
 10
266.842
 20
104.144
 30
0.0
 11
266.842
 21
118.144
 31
0.0
  0
LINE
  8
0
 62
     0
 10
48.7204
 20
118.144
 30
0.0
 11
62.72
 21
118.144
 31
0.0
  0
LINE
  8
0
 62
     0
 10
62.72
 20
118.144
 30
0.0
 11
62.72
 21
104.144
 31
0.0
  0
LINE
  8
0
 62
     0
 10
62.72
 20
104.144
 30
0.0
 11
48.7204
 21
104.144
 31
0.0
  0
LINE
  8
0
 62
     0
 10
48.7204
 20
104.144
 30
0.0
 11
48.7204
 21
118.144
 31
0.0
  0
LINE
  8
0
 62
     0
 10
24.9081
 20
118.144
 30
0.0
 11
38.9075
 21
118.144
 31
0.0
  0
LINE
  8
0
 62
     0
 10
38.9075
 20
118.144
 30
0.0
 11
38.9075
 21
104.144
 31
0.0
  0
LINE
  8
0
 62
     0
 10
38.9075
 20
104.144
 30
0.0
 11
24.9081
 21
104.144
 31
0.0
  0
LINE
  8
0
 62
     0
 10
24.9081
 20
104.144
 30
0.0
 11
24.9081
 21
118.144
 31
0.0
  0
LINE
  8
0
 62
     0
 10
175.437
 20
120.531
 30
0.0
 11
178.347
 21
106.838
 31
0.0
  0
LINE
  8
0
 62
     0
 10
178.347
 20
106.838
 30
0.0
 11
192.042
 21
109.748
 31
0.0
  0
LINE
  8
0
 62
     0
 10
192.042
 20
109.748
 30
0.0
 11
189.13
 21
123.442
 31
0.0
  0
LINE
  8
0
 62
     0
 10
189.13
 20
123.442
 30
0.0
 11
175.437
 21
120.531
 31
0.0
  0
LINE
  8
0
 62
     0
 10
138.543
 20
110.891
 30
0.0
 11
152.236
 21
107.98
 31
0.0
  0
LINE
  8
0
 62
     0
 10
152.236
 20
107.98
 30
0.0
 11
155.148
 21
121.674
 31
0.0
  0
LINE
  8
0
 62
     0
 10
155.148
 20
121.674
 30
0.0
 11
141.453
 21
124.586
 31
0.0
  0
LINE
  8
0
 62
     0
 10
141.453
 20
124.586
 30
0.0
 11
138.543
 21
110.891
 31
0.0
  0
LINE
  8
0
 62
     0
 10
338.281
 20
122.906
 30
0.0
 11
352.28
 21
122.906
 31
0.0
  0
LINE
  8
0
 62
     0
 10
352.28
 20
122.906
 30
0.0
 11
352.28
 21
108.906
 31
0.0
  0
LINE
  8
0
 62
     0
 10
352.28
 20
108.906
 30
0.0
 11
338.281
 21
108.906
 31
0.0
  0
LINE
  8
0
 62
     0
 10
338.281
 20
108.906
 30
0.0
 11
338.281
 21
122.906
 31
0.0
  0
LINE
  8
0
 62
     0
 10
194.07
 20
124.492
 30
0.0
 11
196.981
 21
110.798
 31
0.0
  0
LINE
  8
0
 62
     0
 10
196.981
 20
110.798
 30
0.0
 11
210.675
 21
113.709
 31
0.0
  0
LINE
  8
0
 62
     0
 10
210.675
 20
113.709
 30
0.0
 11
207.764
 21
127.404
 31
0.0
  0
LINE
  8
0
 62
     0
 10
207.764
 20
127.404
 30
0.0
 11
194.07
 21
124.492
 31
0.0
  0
LINE
  8
0
 62
     0
 10
119.908
 20
114.851
 30
0.0
 11
133.602
 21
111.941
 31
0.0
  0
LINE
  8
0
 62
     0
 10
133.602
 20
111.941
 30
0.0
 11
136.514
 21
125.636
 31
0.0
  0
LINE
  8
0
 62
     0
 10
136.514
 20
125.636
 30
0.0
 11
122.819
 21
128.545
 31
0.0
  0
LINE
  8
0
 62
     0
 10
122.819
 20
128.545
 30
0.0
 11
119.908
 21
114.851
 31
0.0
  0
LINE
  8
0
 62
     0
 10
212.703
 20
128.454
 30
0.0
 11
215.615
 21
114.759
 31
0.0
  0
LINE
  8
0
 62
     0
 10
215.615
 20
114.759
 30
0.0
 11
229.308
 21
117.669
 31
0.0
  0
LINE
  8
0
 62
     0
 10
229.308
 20
117.669
 30
0.0
 11
226.398
 21
131.364
 31
0.0
  0
LINE
  8
0
 62
     0
 10
226.398
 20
131.364
 30
0.0
 11
212.703
 21
128.454
 31
0.0
  0
LINE
  8
0
 62
     0
 10
101.276
 20
118.813
 30
0.0
 11
114.97
 21
115.903
 31
0.0
  0
LINE
  8
0
 62
     0
 10
114.97
 20
115.903
 30
0.0
 11
117.88
 21
129.595
 31
0.0
  0
LINE
  8
0
 62
     0
 10
117.88
 20
129.595
 30
0.0
 11
104.185
 21
132.507
 31
0.0
  0
LINE
  8
0
 62
     0
 10
104.185
 20
132.507
 30
0.0
 11
101.276
 21
118.813
 31
0.0
  0
LINE
  8
0
 62
     0
 10
231.338
 20
132.413
 30
0.0
 11
234.249
 21
118.719
 31
0.0
  0
LINE
  8
0
 62
     0
 10
234.249
 20
118.719
 30
0.0
 11
247.942
 21
121.63
 31
0.0
  0
LINE
  8
0
 62
     0
 10
247.942
 20
121.63
 30
0.0
 11
245.032
 21
135.325
 31
0.0
  0
LINE
  8
0
 62
     0
 10
245.032
 20
135.325
 30
0.0
 11
231.338
 21
132.413
 31
0.0
  0
LINE
  8
0
 62
     0
 10
82.641
 20
122.774
 30
0.0
 11
96.3359
 21
119.862
 31
0.0
  0
LINE
  8
0
 62
     0
 10
96.3359
 20
119.862
 30
0.0
 11
99.2463
 21
133.557
 31
0.0
  0
LINE
  8
0
 62
     0
 10
99.2463
 20
133.557
 30
0.0
 11
85.5528
 21
136.467
 31
0.0
  0
LINE
  8
0
 62
     0
 10
85.5528
 20
136.467
 30
0.0
 11
82.641
 21
122.774
 31
0.0
  0
LINE
  8
0
 62
     0
 10
309.706
 20
137.194
 30
0.0
 11
323.705
 21
137.194
 31
0.0
  0
LINE
  8
0
 62
     0
 10
323.705
 20
137.194
 30
0.0
 11
323.705
 21
123.194
 31
0.0
  0
LINE
  8
0
 62
     0
 10
323.705
 20
123.194
 30
0.0
 11
309.706
 21
123.194
 31
0.0
  0
LINE
  8
0
 62
     0
 10
309.706
 20
123.194
 30
0.0
 11
309.706
 21
137.194
 31
0.0
  0
LINE
  8
0
 62
     0
 10
290.656
 20
137.194
 30
0.0
 11
304.655
 21
137.194
 31
0.0
  0
LINE
  8
0
 62
     0
 10
304.655
 20
137.194
 30
0.0
 11
304.655
 21
123.194
 31
0.0
  0
LINE
  8
0
 62
     0
 10
304.655
 20
123.194
 30
0.0
 11
290.656
 21
123.194
 31
0.0
  0
LINE
  8
0
 62
     0
 10
290.656
 20
123.194
 30
0.0
 11
290.656
 21
137.194
 31
0.0
  0
LINE
  8
0
 62
     0
 10
271.606
 20
137.194
 30
0.0
 11
285.605
 21
137.194
 31
0.0
  0
LINE
  8
0
 62
     0
 10
285.605
 20
137.194
 30
0.0
 11
285.605
 21
123.194
 31
0.0
  0
LINE
  8
0
 62
     0
 10
285.605
 20
123.194
 30
0.0
 11
271.606
 21
123.194
 31
0.0
  0
LINE
  8
0
 62
     0
 10
271.606
 20
123.194
 30
0.0
 11
271.606
 21
137.194
 31
0.0
  0
LINE
  8
0
 62
     0
 10
43.9579
 20
137.194
 30
0.0
 11
57.9575
 21
137.194
 31
0.0
  0
LINE
  8
0
 62
     0
 10
57.9575
 20
137.194
 30
0.0
 11
57.9575
 21
123.194
 31
0.0
  0
LINE
  8
0
 62
     0
 10
57.9575
 20
123.194
 30
0.0
 11
43.9579
 21
123.194
 31
0.0
  0
LINE
  8
0
 62
     0
 10
43.9579
 20
123.194
 30
0.0
 11
43.9579
 21
137.194
 31
0.0
  0
LINE
  8
0
 62
     0
 10
24.9081
 20
137.194
 30
0.0
 11
38.9075
 21
137.194
 31
0.0
  0
LINE
  8
0
 62
     0
 10
38.9075
 20
137.194
 30
0.0
 11
38.9075
 21
123.194
 31
0.0
  0
LINE
  8
0
 62
     0
 10
38.9075
 20
123.194
 30
0.0
 11
24.9081
 21
123.194
 31
0.0
  0
LINE
  8
0
 62
     0
 10
24.9081
 20
123.194
 30
0.0
 11
24.9081
 21
137.194
 31
0.0
  0
LINE
  8
0
 62
     0
 10
252.554
 20
140.051
 30
0.0
 11
266.555
 21
140.051
 31
0.0
  0
LINE
  8
0
 62
     0
 10
266.555
 20
140.051
 30
0.0
 11
266.555
 21
126.052
 31
0.0
  0
LINE
  8
0
 62
     0
 10
266.555
 20
126.052
 30
0.0
 11
252.554
 21
126.052
 31
0.0
  0
LINE
  8
0
 62
     0
 10
252.554
 20
126.052
 30
0.0
 11
252.554
 21
140.051
 31
0.0
  0
LINE
  8
0
 62
     0
 10
63.0079
 20
140.051
 30
0.0
 11
77.0075
 21
140.051
 31
0.0
  0
LINE
  8
0
 62
     0
 10
77.0075
 20
140.051
 30
0.0
 11
77.0075
 21
126.052
 31
0.0
  0
LINE
  8
0
 62
     0
 10
77.0075
 20
126.052
 30
0.0
 11
63.0079
 21
126.052
 31
0.0
  0
LINE
  8
0
 62
     0
 10
63.0079
 20
126.052
 30
0.0
 11
63.0079
 21
140.051
 31
0.0
  0
LINE
  8
0
 62
     0
 10
333.517
 20
141.956
 30
0.0
 11
347.518
 21
141.956
 31
0.0
  0
LINE
  8
0
 62
     0
 10
347.518
 20
141.956
 30
0.0
 11
347.518
 21
127.956
 31
0.0
  0
LINE
  8
0
 62
     0
 10
347.518
 20
127.956
 30
0.0
 11
333.517
 21
127.956
 31
0.0
  0
LINE
  8
0
 62
     0
 10
333.517
 20
127.956
 30
0.0
 11
333.517
 21
141.956
 31
0.0
  0
LINE
  8
0
 62
     0
 10
175.143
 20
144.814
 30
0.0
 11
178.055
 21
131.12
 31
0.0
  0
LINE
  8
0
 62
     0
 10
178.055
 20
131.12
 30
0.0
 11
191.748
 21
134.031
 31
0.0
  0
LINE
  8
0
 62
     0
 10
191.748
 20
134.031
 30
0.0
 11
188.838
 21
147.724
 31
0.0
  0
LINE
  8
0
 62
     0
 10
188.838
 20
147.724
 30
0.0
 11
175.143
 21
144.814
 31
0.0
  0
LINE
  8
0
 62
     0
 10
138.835
 20
135.173
 30
0.0
 11
152.528
 21
132.263
 31
0.0
  0
LINE
  8
0
 62
     0
 10
152.528
 20
132.263
 30
0.0
 11
155.44
 21
145.956
 31
0.0
  0
LINE
  8
0
 62
     0
 10
155.44
 20
145.956
 30
0.0
 11
141.745
 21
148.868
 31
0.0
  0
LINE
  8
0
 62
     0
 10
141.745
 20
148.868
 30
0.0
 11
138.835
 21
135.173
 31
0.0
  0
LINE
  8
0
 62
     0
 10
193.777
 20
148.775
 30
0.0
 11
196.689
 21
135.081
 31
0.0
  0
LINE
  8
0
 62
     0
 10
196.689
 20
135.081
 30
0.0
 11
210.382
 21
137.991
 31
0.0
  0
LINE
  8
0
 62
     0
 10
210.382
 20
137.991
 30
0.0
 11
207.472
 21
151.685
 31
0.0
  0
LINE
  8
0
 62
     0
 10
207.472
 20
151.685
 30
0.0
 11
193.777
 21
148.775
 31
0.0
  0
LINE
  8
0
 62
     0
 10
120.202
 20
139.135
 30
0.0
 11
133.896
 21
136.223
 31
0.0
  0
LINE
  8
0
 62
     0
 10
133.896
 20
136.223
 30
0.0
 11
136.806
 21
149.917
 31
0.0
  0
LINE
  8
0
 62
     0
 10
136.806
 20
149.917
 30
0.0
 11
123.11
 21
152.829
 31
0.0
  0
LINE
  8
0
 62
     0
 10
123.11
 20
152.829
 30
0.0
 11
120.202
 21
139.135
 31
0.0
  0
LINE
  8
0
 62
     0
 10
217.07
 20
153.726
 30
0.0
 11
219.98
 21
140.031
 31
0.0
  0
LINE
  8
0
 62
     0
 10
219.98
 20
140.031
 30
0.0
 11
233.674
 21
142.942
 31
0.0
  0
LINE
  8
0
 62
     0
 10
233.674
 20
142.942
 30
0.0
 11
230.764
 21
156.636
 31
0.0
  0
LINE
  8
0
 62
     0
 10
230.764
 20
156.636
 30
0.0
 11
217.07
 21
153.726
 31
0.0
  0
LINE
  8
0
 62
     0
 10
96.9091
 20
144.085
 30
0.0
 11
110.604
 21
141.175
 31
0.0
  0
LINE
  8
0
 62
     0
 10
110.604
 20
141.175
 30
0.0
 11
113.513
 21
154.868
 31
0.0
  0
LINE
  8
0
 62
     0
 10
113.513
 20
154.868
 30
0.0
 11
99.8195
 21
157.78
 31
0.0
  0
LINE
  8
0
 62
     0
 10
99.8195
 20
157.78
 30
0.0
 11
96.9091
 21
144.085
 31
0.0
  0
LINE
  8
0
 62
     0
 10
235.704
 20
157.686
 30
0.0
 11
238.614
 21
143.993
 31
0.0
  0
LINE
  8
0
 62
     0
 10
238.614
 20
143.993
 30
0.0
 11
252.309
 21
146.903
 31
0.0
  0
LINE
  8
0
 62
     0
 10
252.309
 20
146.903
 30
0.0
 11
249.397
 21
160.598
 31
0.0
  0
LINE
  8
0
 62
     0
 10
249.397
 20
160.598
 30
0.0
 11
235.704
 21
157.686
 31
0.0
  0
LINE
  8
0
 62
     0
 10
78.2754
 20
148.045
 30
0.0
 11
91.9688
 21
145.135
 31
0.0
  0
LINE
  8
0
 62
     0
 10
91.9688
 20
145.135
 30
0.0
 11
94.8806
 21
158.83
 31
0.0
  0
LINE
  8
0
 62
     0
 10
94.8806
 20
158.83
 30
0.0
 11
81.1872
 21
161.739
 31
0.0
  0
LINE
  8
0
 62
     0
 10
81.1872
 20
161.739
 30
0.0
 11
78.2754
 21
148.045
 31
0.0
  0
LINE
  8
0
 62
     0
 10
328.754
 20
161.006
 30
0.0
 11
342.754
 21
161.006
 31
0.0
  0
LINE
  8
0
 62
     0
 10
342.754
 20
161.006
 30
0.0
 11
342.754
 21
147.006
 31
0.0
  0
LINE
  8
0
 62
     0
 10
342.754
 20
147.006
 30
0.0
 11
328.754
 21
147.006
 31
0.0
  0
LINE
  8
0
 62
     0
 10
328.754
 20
147.006
 30
0.0
 11
328.754
 21
161.006
 31
0.0
  0
LINE
  8
0
 62
     0
 10
303.324
 20
161.006
 30
0.0
 11
317.324
 21
161.006
 31
0.0
  0
LINE
  8
0
 62
     0
 10
317.324
 20
161.006
 30
0.0
 11
317.324
 21
147.006
 31
0.0
  0
LINE
  8
0
 62
     0
 10
317.324
 20
147.006
 30
0.0
 11
303.324
 21
147.006
 31
0.0
  0
LINE
  8
0
 62
     0
 10
303.324
 20
147.006
 30
0.0
 11
303.324
 21
161.006
 31
0.0
  0
LINE
  8
0
 62
     0
 10
14.4308
 20
161.006
 30
0.0
 11
28.4303
 21
161.006
 31
0.0
  0
LINE
  8
0
 62
     0
 10
28.4303
 20
161.006
 30
0.0
 11
28.4303
 21
147.006
 31
0.0
  0
LINE
  8
0
 62
     0
 10
28.4303
 20
147.006
 30
0.0
 11
14.4308
 21
147.006
 31
0.0
  0
LINE
  8
0
 62
     0
 10
14.4308
 20
147.006
 30
0.0
 11
14.4308
 21
161.006
 31
0.0
  0
LINE
  8
0
 62
     0
 10
258.27
 20
161.958
 30
0.0
 11
272.27
 21
161.958
 31
0.0
  0
LINE
  8
0
 62
     0
 10
272.27
 20
161.958
 30
0.0
 11
272.27
 21
147.959
 31
0.0
  0
LINE
  8
0
 62
     0
 10
272.27
 20
147.959
 30
0.0
 11
258.27
 21
147.959
 31
0.0
  0
LINE
  8
0
 62
     0
 10
258.27
 20
147.959
 30
0.0
 11
258.27
 21
161.958
 31
0.0
  0
LINE
  8
0
 62
     0
 10
58.2454
 20
161.958
 30
0.0
 11
72.245
 21
161.958
 31
0.0
  0
LINE
  8
0
 62
     0
 10
72.245
 20
161.958
 30
0.0
 11
72.245
 21
147.959
 31
0.0
  0
LINE
  8
0
 62
     0
 10
72.245
 20
147.959
 30
0.0
 11
58.2454
 21
147.959
 31
0.0
  0
LINE
  8
0
 62
     0
 10
58.2454
 20
147.959
 30
0.0
 11
58.2454
 21
161.958
 31
0.0
  0
LINE
  8
0
 62
     0
 10
277.32
 20
161.958
 30
0.0
 11
291.32
 21
161.958
 31
0.0
  0
LINE
  8
0
 62
     0
 10
291.32
 20
161.958
 30
0.0
 11
291.32
 21
147.959
 31
0.0
  0
LINE
  8
0
 62
     0
 10
291.32
 20
147.959
 30
0.0
 11
277.32
 21
147.959
 31
0.0
  0
LINE
  8
0
 62
     0
 10
277.32
 20
147.959
 30
0.0
 11
277.32
 21
161.958
 31
0.0
  0
LINE
  8
0
 62
     0
 10
39.1954
 20
161.958
 30
0.0
 11
53.195
 21
161.958
 31
0.0
  0
LINE
  8
0
 62
     0
 10
53.195
 20
161.958
 30
0.0
 11
53.195
 21
147.959
 31
0.0
  0
LINE
  8
0
 62
     0
 10
53.195
 20
147.959
 30
0.0
 11
39.1954
 21
147.959
 31
0.0
  0
LINE
  8
0
 62
     0
 10
39.1954
 20
147.959
 30
0.0
 11
39.1954
 21
161.958
 31
0.0
  0
LINE
  8
0
 62
     0
 10
3.77031
 20
173.294
 30
0.0
 11
3.47817
 21
173.144
 31
0.0
  0
LINE
  8
0
 62
     0
 10
3.47817
 20
173.144
 30
0.0
 11
3.24528
 21
172.911
 31
0.0
  0
LINE
  8
0
 62
     0
 10
3.24528
 20
172.911
 30
0.0
 11
3.09507
 21
172.619
 31
0.0
  0
LINE
  8
0
 62
     0
 10
3.09507
 20
172.619
 30
0.0
 11
3.04409
 21
172.293
 31
0.0
  0
LINE
  8
0
 62
     0
 10
3.04409
 20
172.293
 30
0.0
 11
3.09507
 21
171.97
 31
0.0
  0
LINE
  8
0
 62
     0
 10
3.09507
 20
171.97
 30
0.0
 11
3.24528
 21
171.676
 31
0.0
  0
LINE
  8
0
 62
     0
 10
3.24528
 20
171.676
 30
0.0
 11
3.47817
 21
171.444
 31
0.0
  0
LINE
  8
0
 62
     0
 10
3.47817
 20
171.444
 30
0.0
 11
3.77031
 21
171.296
 31
0.0
  0
LINE
  8
0
 62
     0
 10
3.77031
 20
171.296
 30
0.0
 11
4.09554
 21
171.243
 31
0.0
  0
LINE
  8
0
 62
     0
 10
4.09554
 20
171.243
 30
0.0
 11
4.41935
 21
171.296
 31
0.0
  0
LINE
  8
0
 62
     0
 10
4.41935
 20
171.296
 30
0.0
 11
4.7129
 21
171.444
 31
0.0
  0
LINE
  8
0
 62
     0
 10
4.7129
 20
171.444
 30
0.0
 11
4.94439
 21
171.676
 31
0.0
  0
LINE
  8
0
 62
     0
 10
4.94439
 20
171.676
 30
0.0
 11
5.09323
 21
171.97
 31
0.0
  0
LINE
  8
0
 62
     0
 10
5.09323
 20
171.97
 30
0.0
 11
5.14558
 21
172.293
 31
0.0
  0
LINE
  8
0
 62
     0
 10
5.14558
 20
172.293
 30
0.0
 11
5.09323
 21
172.619
 31
0.0
  0
LINE
  8
0
 62
     0
 10
5.09323
 20
172.619
 30
0.0
 11
4.94439
 21
172.911
 31
0.0
  0
LINE
  8
0
 62
     0
 10
4.94439
 20
172.911
 30
0.0
 11
4.7129
 21
173.144
 31
0.0
  0
LINE
  8
0
 62
     0
 10
4.7129
 20
173.144
 30
0.0
 11
4.41935
 21
173.294
 31
0.0
  0
LINE
  8
0
 62
     0
 10
4.41935
 20
173.294
 30
0.0
 11
4.09554
 21
173.343
 31
0.0
  0
LINE
  8
0
 62
     0
 10
4.09554
 20
173.343
 30
0.0
 11
3.77031
 21
173.294
 31
0.0
  0
LINE
  8
0
 62
     0
 10
363.245
 20
173.294
 30
0.0
 11
362.952
 21
173.144
 31
0.0
  0
LINE
  8
0
 62
     0
 10
362.952
 20
173.144
 30
0.0
 11
362.719
 21
172.911
 31
0.0
  0
LINE
  8
0
 62
     0
 10
362.719
 20
172.911
 30
0.0
 11
362.571
 21
172.619
 31
0.0
  0
LINE
  8
0
 62
     0
 10
362.571
 20
172.619
 30
0.0
 11
362.518
 21
172.293
 31
0.0
  0
LINE
  8
0
 62
     0
 10
362.518
 20
172.293
 30
0.0
 11
362.571
 21
171.97
 31
0.0
  0
LINE
  8
0
 62
     0
 10
362.571
 20
171.97
 30
0.0
 11
362.719
 21
171.676
 31
0.0
  0
LINE
  8
0
 62
     0
 10
362.719
 20
171.676
 30
0.0
 11
362.952
 21
171.444
 31
0.0
  0
LINE
  8
0
 62
     0
 10
362.952
 20
171.444
 30
0.0
 11
363.245
 21
171.296
 31
0.0
  0
LINE
  8
0
 62
     0
 10
363.245
 20
171.296
 30
0.0
 11
363.569
 21
171.243
 31
0.0
  0
LINE
  8
0
 62
     0
 10
363.569
 20
171.243
 30
0.0
 11
363.894
 21
171.296
 31
0.0
  0
LINE
  8
0
 62
     0
 10
363.894
 20
171.296
 30
0.0
 11
364.187
 21
171.444
 31
0.0
  0
LINE
  8
0
 62
     0
 10
364.187
 20
171.444
 30
0.0
 11
364.419
 21
171.676
 31
0.0
  0
LINE
  8
0
 62
     0
 10
364.419
 20
171.676
 30
0.0
 11
364.568
 21
171.97
 31
0.0
  0
LINE
  8
0
 62
     0
 10
364.568
 20
171.97
 30
0.0
 11
364.617
 21
172.293
 31
0.0
  0
LINE
  8
0
 62
     0
 10
364.617
 20
172.293
 30
0.0
 11
364.568
 21
172.619
 31
0.0
  0
LINE
  8
0
 62
     0
 10
364.568
 20
172.619
 30
0.0
 11
364.419
 21
172.911
 31
0.0
  0
LINE
  8
0
 62
     0
 10
364.419
 20
172.911
 30
0.0
 11
364.187
 21
173.144
 31
0.0
  0
LINE
  8
0
 62
     0
 10
364.187
 20
173.144
 30
0.0
 11
363.894
 21
173.294
 31
0.0
  0
LINE
  8
0
 62
     0
 10
363.894
 20
173.294
 30
0.0
 11
363.569
 21
173.343
 31
0.0
  0
LINE
  8
0
 62
     0
 10
363.569
 20
173.343
 30
0.0
 11
363.245
 21
173.294
 31
0.0
  0
LINE
  8
0
 62
     0
 10
291.349
 20
173.294
 30
0.0
 11
291.057
 21
173.144
 31
0.0
  0
LINE
  8
0
 62
     0
 10
291.057
 20
173.144
 30
0.0
 11
290.824
 21
172.911
 31
0.0
  0
LINE
  8
0
 62
     0
 10
290.824
 20
172.911
 30
0.0
 11
290.675
 21
172.619
 31
0.0
  0
LINE
  8
0
 62
     0
 10
290.675
 20
172.619
 30
0.0
 11
290.624
 21
172.293
 31
0.0
  0
LINE
  8
0
 62
     0
 10
290.624
 20
172.293
 30
0.0
 11
290.675
 21
171.97
 31
0.0
  0
LINE
  8
0
 62
     0
 10
290.675
 20
171.97
 30
0.0
 11
290.824
 21
171.676
 31
0.0
  0
LINE
  8
0
 62
     0
 10
290.824
 20
171.676
 30
0.0
 11
291.057
 21
171.444
 31
0.0
  0
LINE
  8
0
 62
     0
 10
291.057
 20
171.444
 30
0.0
 11
291.349
 21
171.296
 31
0.0
  0
LINE
  8
0
 62
     0
 10
291.349
 20
171.296
 30
0.0
 11
291.673
 21
171.243
 31
0.0
  0
LINE
  8
0
 62
     0
 10
291.673
 20
171.243
 30
0.0
 11
291.998
 21
171.296
 31
0.0
  0
LINE
  8
0
 62
     0
 10
291.998
 20
171.296
 30
0.0
 11
292.29
 21
171.444
 31
0.0
  0
LINE
  8
0
 62
     0
 10
292.29
 20
171.444
 30
0.0
 11
292.523
 21
171.676
 31
0.0
  0
LINE
  8
0
 62
     0
 10
292.523
 20
171.676
 30
0.0
 11
292.672
 21
171.97
 31
0.0
  0
LINE
  8
0
 62
     0
 10
292.672
 20
171.97
 30
0.0
 11
292.723
 21
172.293
 31
0.0
  0
LINE
  8
0
 62
     0
 10
292.723
 20
172.293
 30
0.0
 11
292.672
 21
172.619
 31
0.0
  0
LINE
  8
0
 62
     0
 10
292.672
 20
172.619
 30
0.0
 11
292.523
 21
172.911
 31
0.0
  0
LINE
  8
0
 62
     0
 10
292.523
 20
172.911
 30
0.0
 11
292.29
 21
173.144
 31
0.0
  0
LINE
  8
0
 62
     0
 10
292.29
 20
173.144
 30
0.0
 11
291.998
 21
173.294
 31
0.0
  0
LINE
  8
0
 62
     0
 10
291.998
 20
173.294
 30
0.0
 11
291.673
 21
173.343
 31
0.0
  0
LINE
  8
0
 62
     0
 10
291.673
 20
173.343
 30
0.0
 11
291.349
 21
173.294
 31
0.0
  0
LINE
  8
0
 62
     0
 10
219.454
 20
173.294
 30
0.0
 11
219.162
 21
173.144
 31
0.0
  0
LINE
  8
0
 62
     0
 10
219.162
 20
173.144
 30
0.0
 11
218.929
 21
172.911
 31
0.0
  0
LINE
  8
0
 62
     0
 10
218.929
 20
172.911
 30
0.0
 11
218.78
 21
172.619
 31
0.0
  0
LINE
  8
0
 62
     0
 10
218.78
 20
172.619
 30
0.0
 11
218.729
 21
172.293
 31
0.0
  0
LINE
  8
0
 62
     0
 10
218.729
 20
172.293
 30
0.0
 11
218.78
 21
171.97
 31
0.0
  0
LINE
  8
0
 62
     0
 10
218.78
 20
171.97
 30
0.0
 11
218.929
 21
171.676
 31
0.0
  0
LINE
  8
0
 62
     0
 10
218.929
 20
171.676
 30
0.0
 11
219.162
 21
171.444
 31
0.0
  0
LINE
  8
0
 62
     0
 10
219.162
 20
171.444
 30
0.0
 11
219.454
 21
171.296
 31
0.0
  0
LINE
  8
0
 62
     0
 10
219.454
 20
171.296
 30
0.0
 11
219.779
 21
171.243
 31
0.0
  0
LINE
  8
0
 62
     0
 10
219.779
 20
171.243
 30
0.0
 11
220.103
 21
171.296
 31
0.0
  0
LINE
  8
0
 62
     0
 10
220.103
 20
171.296
 30
0.0
 11
220.396
 21
171.444
 31
0.0
  0
LINE
  8
0
 62
     0
 10
220.396
 20
171.444
 30
0.0
 11
220.628
 21
171.676
 31
0.0
  0
LINE
  8
0
 62
     0
 10
220.628
 20
171.676
 30
0.0
 11
220.777
 21
171.97
 31
0.0
  0
LINE
  8
0
 62
     0
 10
220.777
 20
171.97
 30
0.0
 11
220.829
 21
172.293
 31
0.0
  0
LINE
  8
0
 62
     0
 10
220.829
 20
172.293
 30
0.0
 11
220.777
 21
172.619
 31
0.0
  0
LINE
  8
0
 62
     0
 10
220.777
 20
172.619
 30
0.0
 11
220.628
 21
172.911
 31
0.0
  0
LINE
  8
0
 62
     0
 10
220.628
 20
172.911
 30
0.0
 11
220.396
 21
173.144
 31
0.0
  0
LINE
  8
0
 62
     0
 10
220.396
 20
173.144
 30
0.0
 11
220.103
 21
173.294
 31
0.0
  0
LINE
  8
0
 62
     0
 10
220.103
 20
173.294
 30
0.0
 11
219.779
 21
173.343
 31
0.0
  0
LINE
  8
0
 62
     0
 10
219.779
 20
173.343
 30
0.0
 11
219.454
 21
173.294
 31
0.0
  0
LINE
  8
0
 62
     0
 10
147.559
 20
173.294
 30
0.0
 11
147.267
 21
173.144
 31
0.0
  0
LINE
  8
0
 62
     0
 10
147.267
 20
173.144
 30
0.0
 11
147.034
 21
172.911
 31
0.0
  0
LINE
  8
0
 62
     0
 10
147.034
 20
172.911
 30
0.0
 11
146.885
 21
172.619
 31
0.0
  0
LINE
  8
0
 62
     0
 10
146.885
 20
172.619
 30
0.0
 11
146.834
 21
172.293
 31
0.0
  0
LINE
  8
0
 62
     0
 10
146.834
 20
172.293
 30
0.0
 11
146.885
 21
171.97
 31
0.0
  0
LINE
  8
0
 62
     0
 10
146.885
 20
171.97
 30
0.0
 11
147.034
 21
171.676
 31
0.0
  0
LINE
  8
0
 62
     0
 10
147.034
 20
171.676
 30
0.0
 11
147.267
 21
171.444
 31
0.0
  0
LINE
  8
0
 62
     0
 10
147.267
 20
171.444
 30
0.0
 11
147.559
 21
171.296
 31
0.0
  0
LINE
  8
0
 62
     0
 10
147.559
 20
171.296
 30
0.0
 11
147.884
 21
171.243
 31
0.0
  0
LINE
  8
0
 62
     0
 10
147.884
 20
171.243
 30
0.0
 11
148.208
 21
171.296
 31
0.0
  0
LINE
  8
0
 62
     0
 10
148.208
 20
171.296
 30
0.0
 11
148.501
 21
171.444
 31
0.0
  0
LINE
  8
0
 62
     0
 10
148.501
 20
171.444
 30
0.0
 11
148.733
 21
171.676
 31
0.0
  0
LINE
  8
0
 62
     0
 10
148.733
 20
171.676
 30
0.0
 11
148.883
 21
171.97
 31
0.0
  0
LINE
  8
0
 62
     0
 10
148.883
 20
171.97
 30
0.0
 11
148.934
 21
172.293
 31
0.0
  0
LINE
  8
0
 62
     0
 10
148.934
 20
172.293
 30
0.0
 11
148.883
 21
172.619
 31
0.0
  0
LINE
  8
0
 62
     0
 10
148.883
 20
172.619
 30
0.0
 11
148.733
 21
172.911
 31
0.0
  0
LINE
  8
0
 62
     0
 10
148.733
 20
172.911
 30
0.0
 11
148.501
 21
173.144
 31
0.0
  0
LINE
  8
0
 62
     0
 10
148.501
 20
173.144
 30
0.0
 11
148.208
 21
173.294
 31
0.0
  0
LINE
  8
0
 62
     0
 10
148.208
 20
173.294
 30
0.0
 11
147.884
 21
173.343
 31
0.0
  0
LINE
  8
0
 62
     0
 10
147.884
 20
173.343
 30
0.0
 11
147.559
 21
173.294
 31
0.0
  0
LINE
  8
0
 62
     0
 10
75.6652
 20
173.294
 30
0.0
 11
75.3731
 21
173.144
 31
0.0
  0
LINE
  8
0
 62
     0
 10
75.3731
 20
173.144
 30
0.0
 11
75.1403
 21
172.911
 31
0.0
  0
LINE
  8
0
 62
     0
 10
75.1403
 20
172.911
 30
0.0
 11
74.9914
 21
172.619
 31
0.0
  0
LINE
  8
0
 62
     0
 10
74.9914
 20
172.619
 30
0.0
 11
74.9392
 21
172.293
 31
0.0
  0
LINE
  8
0
 62
     0
 10
74.9392
 20
172.293
 30
0.0
 11
74.9914
 21
171.97
 31
0.0
  0
LINE
  8
0
 62
     0
 10
74.9914
 20
171.97
 30
0.0
 11
75.1403
 21
171.676
 31
0.0
  0
LINE
  8
0
 62
     0
 10
75.1403
 20
171.676
 30
0.0
 11
75.3731
 21
171.444
 31
0.0
  0
LINE
  8
0
 62
     0
 10
75.3731
 20
171.444
 30
0.0
 11
75.6652
 21
171.296
 31
0.0
  0
LINE
  8
0
 62
     0
 10
75.6652
 20
171.296
 30
0.0
 11
75.989
 21
171.243
 31
0.0
  0
LINE
  8
0
 62
     0
 10
75.989
 20
171.243
 30
0.0
 11
76.3143
 21
171.296
 31
0.0
  0
LINE
  8
0
 62
     0
 10
76.3143
 20
171.296
 30
0.0
 11
76.6064
 21
171.444
 31
0.0
  0
LINE
  8
0
 62
     0
 10
76.6064
 20
171.444
 30
0.0
 11
76.8396
 21
171.676
 31
0.0
  0
LINE
  8
0
 62
     0
 10
76.8396
 20
171.676
 30
0.0
 11
76.9881
 21
171.97
 31
0.0
  0
LINE
  8
0
 62
     0
 10
76.9881
 20
171.97
 30
0.0
 11
77.0393
 21
172.293
 31
0.0
  0
LINE
  8
0
 62
     0
 10
77.0393
 20
172.293
 30
0.0
 11
76.9881
 21
172.619
 31
0.0
  0
LINE
  8
0
 62
     0
 10
76.9881
 20
172.619
 30
0.0
 11
76.8396
 21
172.911
 31
0.0
  0
LINE
  8
0
 62
     0
 10
76.8396
 20
172.911
 30
0.0
 11
76.6064
 21
173.144
 31
0.0
  0
LINE
  8
0
 62
     0
 10
76.6064
 20
173.144
 30
0.0
 11
76.3143
 21
173.294
 31
0.0
  0
LINE
  8
0
 62
     0
 10
76.3143
 20
173.294
 30
0.0
 11
75.989
 21
173.343
 31
0.0
  0
LINE
  8
0
 62
     0
 10
75.989
 20
173.343
 30
0.0
 11
75.6652
 21
173.294
 31
0.0
  0
ENDSEC
  0
EOF
