  0
SECTION
  2
HEADER
  9
$ACADVER
  1
AC1032
  9
$ACADMAINTVER
 90
      174
  9
$DWGCODEPAGE
  3
ANSI_936
  9
$LASTSAVEDBY
  1
xuech
  9
$REQUIREDVERSIONS
160
                 0
  9
$INSBASE
 10
0.0
 20
0.0
 30
0.0
  9
$EXTMIN
 10
-7.905775400000034
 20
-7.601147999999994
 30
0.0
  9
$EXTMAX
 10
359.56914
 20
168.42
 30
0.0
  9
$LIMMIN
 10
0.0
 20
0.0
  9
$LIMMAX
 10
12.0
 20
9.0
  9
$ORTHOMODE
 70
     0
  9
$REGENMODE
 70
     1
  9
$FILLMODE
 70
     0
  9
$QTEXTMODE
 70
     0
  9
$MIRRTEXT
 70
     0
  9
$LTSCALE
 40
1.0
  9
$ATTMODE
 70
     1
  9
$TEXTSIZE
 40
0.2
  9
$TRACEWID
 40
0.05
  9
$TEXTSTYLE
  7
Standard
  9
$CLAYER
  8
0
  9
$CELTYPE
  6
Continuous
  9
$CECOLOR
 62
   256
  9
$CELTSCALE
 40
1.0
  9
$DISPSILH
 70
     0
  9
$DIMSCALE
 40
1.0
  9
$DIMASZ
 40
0.18
  9
$DIMEXO
 40
0.0625
  9
$DIMDLI
 40
0.38
  9
$DIMRND
 40
0.0
  9
$DIMDLE
 40
0.0
  9
$DIMEXE
 40
0.18
  9
$DIMTP
 40
0.0
  9
$DIMTM
 40
0.0
  9
$DIMTXT
 40
0.18
  9
$DIMCEN
 40
0.09
  9
$DIMTSZ
 40
0.0
  9
$DIMTOL
 70
     0
  9
$DIMLIM
 70
     0
  9
$DIMTIH
 70
     1
  9
$DIMTOH
 70
     1
  9
$DIMSE1
 70
     0
  9
$DIMSE2
 70
     0
  9
$DIMTAD
 70
     0
  9
$DIMZIN
 70
     0
  9
$DIMBLK
  1

  9
$DIMASO
 70
     1
  9
$DIMSHO
 70
     1
  9
$DIMPOST
  1

  9
$DIMAPOST
  1

  9
$DIMALT
 70
     0
  9
$DIMALTD
 70
     2
  9
$DIMALTF
 40
25.4
  9
$DIMLFAC
 40
1.0
  9
$DIMTOFL
 70
     0
  9
$DIMTVP
 40
0.0
  9
$DIMTIX
 70
     0
  9
$DIMSOXD
 70
     0
  9
$DIMSAH
 70
     0
  9
$DIMBLK1
  1

  9
$DIMBLK2
  1

  9
$DIMSTYLE
  2
Standard
  9
$DIMCLRD
 70
     0
  9
$DIMCLRE
 70
     0
  9
$DIMCLRT
 70
     0
  9
$DIMTFAC
 40
1.0
  9
$DIMGAP
 40
0.09
  9
$DIMJUST
 70
     0
  9
$DIMSD1
 70
     0
  9
$DIMSD2
 70
     0
  9
$DIMTOLJ
 70
     1
  9
$DIMTZIN
 70
     0
  9
$DIMALTZ
 70
     0
  9
$DIMALTTZ
 70
     0
  9
$DIMUPT
 70
     0
  9
$DIMDEC
 70
     4
  9
$DIMTDEC
 70
     4
  9
$DIMALTU
 70
     2
  9
$DIMALTTD
 70
     2
  9
$DIMTXSTY
  7
Standard
  9
$DIMAUNIT
 70
     0
  9
$DIMADEC
 70
     0
  9
$DIMALTRND
 40
0.0
  9
$DIMAZIN
 70
     0
  9
$DIMDSEP
 70
    46
  9
$DIMATFIT
 70
     3
  9
$DIMFRAC
 70
     0
  9
$DIMLDRBLK
  1

  9
$DIMLUNIT
 70
     2
  9
$DIMLWD
 70
    -2
  9
$DIMLWE
 70
    -2
  9
$DIMTMOVE
 70
     0
  9
$DIMFXL
 40
1.0
  9
$DIMFXLON
 70
     0
  9
$DIMJOGANG
 40
0.7853981633974483
  9
$DIMTFILL
 70
     0
  9
$DIMTFILLCLR
 70
     0
  9
$DIMARCSYM
 70
     0
  9
$DIMLTYPE
  6

  9
$DIMLTEX1
  6

  9
$DIMLTEX2
  6

  9
$DIMTXTDIRECTION
 70
     0
  9
$LUNITS
 70
     2
  9
$LUPREC
 70
     4
  9
$SKETCHINC
 40
0.1
  9
$FILLETRAD
 40
0.0
  9
$AUNITS
 70
     0
  9
$AUPREC
 70
     0
  9
$MENU
  1
.
  9
$ELEVATION
 40
0.0
  9
$PELEVATION
 40
0.0
  9
$THICKNESS
 40
0.0
  9
$LIMCHECK
 70
     0
  9
$CHAMFERA
 40
0.0
  9
$CHAMFERB
 40
0.0
  9
$CHAMFERC
 40
0.0
  9
$CHAMFERD
 40
0.0
  9
$SKPOLY
 70
     0
  9
$TDCREATE
 40
2459548.476284723
  9
$TDUCREATE
 40
2459548.142951389
  9
$TDUPDATE
 40
2459555.647812500
  9
$TDUUPDATE
 40
2459555.314479167
  9
$TDINDWG
 40
0.0906597222
  9
$TDUSRTIMER
 40
0.0906597222
  9
$USRTIMER
 70
     1
  9
$ANGBASE
 50
0.0
  9
$ANGDIR
 70
     0
  9
$PDMODE
 70
     0
  9
$PDSIZE
 40
0.0
  9
$PLINEWID
 40
0.0
  9
$SPLFRAME
 70
     1
  9
$SPLINETYPE
 70
     6
  9
$SPLINESEGS
 70
     8
  9
$HANDSEED
  5
A31
  9
$SURFTAB1
 70
     6
  9
$SURFTAB2
 70
     6
  9
$SURFTYPE
 70
     6
  9
$SURFU
 70
     6
  9
$SURFV
 70
     6
  9
$UCSBASE
  2

  9
$UCSNAME
  2

  9
$UCSORG
 10
0.0
 20
0.0
 30
0.0
  9
$UCSXDIR
 10
1.0
 20
0.0
 30
0.0
  9
$UCSYDIR
 10
0.0
 20
1.0
 30
0.0
  9
$UCSORTHOREF
  2

  9
$UCSORTHOVIEW
 70
     0
  9
$UCSORGTOP
 10
0.0
 20
0.0
 30
0.0
  9
$UCSORGBOTTOM
 10
0.0
 20
0.0
 30
0.0
  9
$UCSORGLEFT
 10
0.0
 20
0.0
 30
0.0
  9
$UCSORGRIGHT
 10
0.0
 20
0.0
 30
0.0
  9
$UCSORGFRONT
 10
0.0
 20
0.0
 30
0.0
  9
$UCSORGBACK
 10
0.0
 20
0.0
 30
0.0
  9
$PUCSBASE
  2

  9
$PUCSNAME
  2

  9
$PUCSORG
 10
0.0
 20
0.0
 30
0.0
  9
$PUCSXDIR
 10
1.0
 20
0.0
 30
0.0
  9
$PUCSYDIR
 10
0.0
 20
1.0
 30
0.0
  9
$PUCSORTHOREF
  2

  9
$PUCSORTHOVIEW
 70
     0
  9
$PUCSORGTOP
 10
0.0
 20
0.0
 30
0.0
  9
$PUCSORGBOTTOM
 10
0.0
 20
0.0
 30
0.0
  9
$PUCSORGLEFT
 10
0.0
 20
0.0
 30
0.0
  9
$PUCSORGRIGHT
 10
0.0
 20
0.0
 30
0.0
  9
$PUCSORGFRONT
 10
0.0
 20
0.0
 30
0.0
  9
$PUCSORGBACK
 10
0.0
 20
0.0
 30
0.0
  9
$USERI1
 70
     0
  9
$USERI2
 70
     0
  9
$USERI3
 70
     0
  9
$USERI4
 70
     0
  9
$USERI5
 70
     0
  9
$USERR1
 40
0.0
  9
$USERR2
 40
0.0
  9
$USERR3
 40
0.0
  9
$USERR4
 40
0.0
  9
$USERR5
 40
0.0
  9
$WORLDVIEW
 70
     1
  9
$SHADEDGE
 70
     3
  9
$SHADEDIF
 70
    70
  9
$TILEMODE
 70
     1
  9
$MAXACTVP
 70
    64
  9
$PINSBASE
 10
0.0
 20
0.0
 30
0.0
  9
$PLIMCHECK
 70
     0
  9
$PEXTMIN
 10
1.000000000000000E+20
 20
1.000000000000000E+20
 30
1.000000000000000E+20
  9
$PEXTMAX
 10
-1.000000000000000E+20
 20
-1.000000000000000E+20
 30
-1.000000000000000E+20
  9
$PLIMMIN
 10
0.0
 20
0.0
  9
$PLIMMAX
 10
12.0
 20
9.0
  9
$UNITMODE
 70
     0
  9
$VISRETAIN
 70
     1
  9
$PLINEGEN
 70
     0
  9
$PSLTSCALE
 70
     1
  9
$TREEDEPTH
 70
  3020
  9
$CMLSTYLE
  2
Standard
  9
$CMLJUST
 70
     0
  9
$CMLSCALE
 40
1.0
  9
$PROXYGRAPHICS
 70
     1
  9
$MEASUREMENT
 70
     0
  9
$CELWEIGHT
370
    -1
  9
$ENDCAPS
280
     0
  9
$JOINSTYLE
280
     0
  9
$LWDISPLAY
290
     0
  9
$INSUNITS
 70
     0
  9
$HYPERLINKBASE
  1

  9
$STYLESHEET
  1

  9
$XEDIT
290
     1
  9
$CEPSNTYPE
380
     0
  9
$PSTYLEMODE
290
     1
  9
$FINGERPRINTGUID
  2
{69F006C6-C7BC-AF4E-A36B-21537618740B}
  9
$VERSIONGUID
  2
{EA2472CC-A6B8-9A46-A069-8677F0E011E0}
  9
$EXTNAMES
290
     1
  9
$PSVPSCALE
 40
0.0
  9
$OLESTARTUP
290
     0
  9
$SORTENTS
280
   127
  9
$INDEXCTL
280
     0
  9
$HIDETEXT
280
     0
  9
$XCLIPFRAME
280
     2
  9
$HALOGAP
280
     0
  9
$OBSCOLOR
 70
   257
  9
$OBSLTYPE
280
     0
  9
$INTERSECTIONDISPLAY
280
     0
  9
$INTERSECTIONCOLOR
 70
   257
  9
$DIMASSOC
280
     1
  9
$PROJECTNAME
  1

  9
$CAMERADISPLAY
290
     0
  9
$LENSLENGTH
 40
50.0
  9
$CAMERAHEIGHT
 40
0.0
  9
$STEPSPERSEC
 40
2.0
  9
$STEPSIZE
 40
6.0
  9
$3DDWFPREC
 40
2.0
  9
$PSOLWIDTH
 40
0.25
  9
$PSOLHEIGHT
 40
4.0
  9
$LOFTANG1
 40
1.570796326794896
  9
$LOFTANG2
 40
1.570796326794896
  9
$LOFTMAG1
 40
0.0
  9
$LOFTMAG2
 40
0.0
  9
$LOFTPARAM
 70
     7
  9
$LOFTNORMALS
280
     1
  9
$LATITUDE
 40
37.795
  9
$LONGITUDE
 40
-122.394
  9
$NORTHDIRECTION
 40
0.0
  9
$TIMEZONE
 70
 -8000
  9
$LIGHTGLYPHDISPLAY
280
     1
  9
$TILEMODELIGHTSYNCH
280
     1
  9
$CMATERIAL
347
11
  9
$SOLIDHIST
280
     0
  9
$SHOWHIST
280
     1
  9
$DWFFRAME
280
     2
  9
$DGNFRAME
280
     0
  9
$REALWORLDSCALE
290
     1
  9
$INTERFERECOLOR
 62
     1
  9
$INTERFEREOBJVS
345
33
  9
$INTERFEREVPVS
346
30
  9
$CSHADOW
280
     0
  9
$SHADOWPLANELOCATION
 40
0.0
  0
ENDSEC
  0
SECTION
  2
CLASSES
  0
CLASS
  1
ACDBDICTIONARYWDFLT
  2
AcDbDictionaryWithDefault
  3
ObjectDBX Classes
 90
        0
 91
        1
280
     0
281
     0
  0
CLASS
  1
MATERIAL
  2
AcDbMaterial
  3
ObjectDBX Classes
 90
     1153
 91
        3
280
     0
281
     0
  0
CLASS
  1
VISUALSTYLE
  2
AcDbVisualStyle
  3
ObjectDBX Classes
 90
     4095
 91
       24
280
     0
281
     0
  0
CLASS
  1
SCALE
  2
AcDbScale
  3
ObjectDBX Classes
 90
     1153
 91
       17
280
     0
281
     0
  0
CLASS
  1
TABLESTYLE
  2
AcDbTableStyle
  3
ObjectDBX Classes
 90
     4095
 91
        1
280
     0
281
     0
  0
CLASS
  1
MLEADERSTYLE
  2
AcDbMLeaderStyle
  3
ACDB_MLEADERSTYLE_CLASS
 90
     4095
 91
        1
280
     0
281
     0
  0
CLASS
  1
ACDBSECTIONVIEWSTYLE
  2
AcDbSectionViewStyle
  3
ObjectDBX Classes
 90
     1025
 91
        1
280
     0
281
     0
  0
CLASS
  1
ACDBDETAILVIEWSTYLE
  2
AcDbDetailViewStyle
  3
ObjectDBX Classes
 90
     1025
 91
        1
280
     0
281
     0
  0
CLASS
  1
DICTIONARYVAR
  2
AcDbDictionaryVar
  3
ObjectDBX Classes
 90
        0
 91
        9
280
     0
281
     0
  0
CLASS
  1
CELLSTYLEMAP
  2
AcDbCellStyleMap
  3
ObjectDBX Classes
 90
     1152
 91
        2
280
     0
281
     0
  0
ENDSEC
  0
SECTION
  2
TABLES
  0
TABLE
  2
VPORT
  5
8
330
0
100
AcDbSymbolTable
 70
     1
  0
VPORT
  5
74
330
8
100
AcDbSymbolTableRecord
100
AcDbViewportTableRecord
  2
*Active
 70
     0
 10
0.0
 20
0.0
 11
1.0
 21
1.0
 12
129.5913160858343
 22
39.08851508624414
 13
0.0
 23
0.0
 14
1.0
 24
1.0
 15
0.0
 25
0.0
 16
0.0
 26
0.0
 36
1.0
 17
0.0
 27
0.0
 37
0.0
 40
448.1835493706815
 41
2.489334195216548
 42
50.0
 43
0.0
 44
0.0
 50
0.0
 51
0.0
 71
     0
 72
   100
 73
     1
 74
     1
 75
     0
 76
     0
 77
     0
 78
     0
281
     0
 65
     1
110
0.0
120
0.0
130
0.0
111
1.0
121
0.0
131
0.0
112
0.0
122
1.0
132
0.0
 79
     0
146
0.0
348
2F
 60
     3
 61
     5
292
     1
282
     1
141
0.0
142
0.0
 63
   250
421
  3355443
1001
ACAD_NAV_VCDISPLAY
1070
     3
  0
ENDTAB
  0
TABLE
  2
LTYPE
  5
5
330
0
100
AcDbSymbolTable
 70
     1
  0
LTYPE
  5
5A
330
5
100
AcDbSymbolTableRecord
100
AcDbLinetypeTableRecord
  2
ByBlock
 70
     0
  3

 72
    65
 73
     0
 40
0.0
  0
LTYPE
  5
5B
330
5
100
AcDbSymbolTableRecord
100
AcDbLinetypeTableRecord
  2
ByLayer
 70
     0
  3

 72
    65
 73
     0
 40
0.0
  0
LTYPE
  5
5C
330
5
100
AcDbSymbolTableRecord
100
AcDbLinetypeTableRecord
  2
Continuous
 70
     0
  3
Solid line
 72
    65
 73
     0
 40
0.0
  0
ENDTAB
  0
TABLE
  2
LAYER
  5
2
102
{ACAD_XDICTIONARY
360
2C8
102
}
330
0
100
AcDbSymbolTable
 70
     1
  0
LAYER
  5
54
102
{ACAD_XDICTIONARY
360
34F
102
}
330
2
100
AcDbSymbolTableRecord
100
AcDbLayerTableRecord
  2
0
 70
     0
 62
     7
  6
Continuous
370
    -3
390
F
347
21
348
0
  0
ENDTAB
  0
TABLE
  2
STYLE
  5
3
330
0
100
AcDbSymbolTable
 70
     2
  0
STYLE
  5
55
330
3
100
AcDbSymbolTableRecord
100
AcDbTextStyleTableRecord
  2
Standard
 70
     0
 40
0.0
 41
1.0
 50
0.0
 71
     0
 42
0.2
  3
txt
  4

  0
STYLE
  5
59
330
3
100
AcDbSymbolTableRecord
100
AcDbTextStyleTableRecord
  2
Annotative
 70
     0
 40
0.0
 41
1.0
 50
0.0
 71
     0
 42
0.2
  3
txt
  4

1001
AcadAnnotative
1000
AnnotativeData
1002
{
1070
     1
1070
     1
1002
}
  0
ENDTAB
  0
TABLE
  2
VIEW
  5
6
330
0
100
AcDbSymbolTable
 70
     0
  0
ENDTAB
  0
TABLE
  2
UCS
  5
7
330
0
100
AcDbSymbolTable
 70
     0
  0
ENDTAB
  0
TABLE
  2
APPID
  5
9
330
0
100
AcDbSymbolTable
 70
     4
  0
APPID
  5
56
330
9
100
AcDbSymbolTableRecord
100
AcDbRegAppTableRecord
  2
ACAD
 70
     0
  0
APPID
  5
5D
330
9
100
AcDbSymbolTableRecord
100
AcDbRegAppTableRecord
  2
AcadAnnotative
 70
     0
  0
APPID
  5
2B3
330
9
100
AcDbSymbolTableRecord
100
AcDbRegAppTableRecord
  2
ACAD_NAV_VCDISPLAY
 70
     0
  0
APPID
  5
2EE
330
9
100
AcDbSymbolTableRecord
100
AcDbRegAppTableRecord
  2
ACAD_EXEMPT_FROM_CAD_STANDARDS
 70
     0
  0
ENDTAB
  0
TABLE
  2
DIMSTYLE
  5
A
330
0
100
AcDbSymbolTable
 70
     2
100
AcDbDimStyleTable
 71
     0
  0
DIMSTYLE
105
57
330
A
100
AcDbSymbolTableRecord
100
AcDbDimStyleTableRecord
  2
Standard
 70
     0
340
55
  0
DIMSTYLE
105
58
330
A
100
AcDbSymbolTableRecord
100
AcDbDimStyleTableRecord
  2
Annotative
 70
     0
340
55
1001
AcadAnnotative
1000
AnnotativeData
1002
{
1070
     1
1070
     1
1002
}
  0
ENDTAB
  0
TABLE
  2
BLOCK_RECORD
  5
1
330
0
100
AcDbSymbolTable
 70
     2
  0
BLOCK_RECORD
  5
6F
330
1
100
AcDbSymbolTableRecord
100
AcDbBlockTableRecord
  2
*Model_Space
340
72
 70
     0
280
     1
281
     0
  0
BLOCK_RECORD
  5
6B
330
1
100
AcDbSymbolTableRecord
100
AcDbBlockTableRecord
  2
*Paper_Space
340
6E
 70
     0
280
     1
281
     0
  0
BLOCK_RECORD
  5
30C
330
1
100
AcDbSymbolTableRecord
100
AcDbBlockTableRecord
  2
A$Cfa97a349
340
0
 70
     0
280
     1
281
     0
  0
BLOCK_RECORD
  5
330
330
1
100
AcDbSymbolTableRecord
100
AcDbBlockTableRecord
  2
A$C52d75a84
340
0
 70
     0
280
     1
281
     0
  0
ENDTAB
  0
ENDSEC
  0
SECTION
  2
BLOCKS
  0
BLOCK
  5
70
330
6F
100
AcDbEntity
  8
0
100
AcDbBlockBegin
  2
*Model_Space
 70
     0
 10
0.0
 20
0.0
 30
0.0
  3
*Model_Space
  1

  0
ENDBLK
  5
71
330
6F
100
AcDbEntity
  8
0
100
AcDbBlockEnd
  0
BLOCK
  5
6C
330
6B
100
AcDbEntity
 67
     1
  8
0
100
AcDbBlockBegin
  2
*Paper_Space
 70
     0
 10
0.0
 20
0.0
 30
0.0
  3
*Paper_Space
  1

  0
ENDBLK
  5
6D
330
6B
100
AcDbEntity
 67
     1
  8
0
100
AcDbBlockEnd
  0
BLOCK
  5
310
330
30C
100
AcDbEntity
  8
0
100
AcDbBlockBegin
  2
A$Cfa97a349
 70
     0
 10
0.0
 20
0.0
 30
0.0
  3
A$Cfa97a349
  1

  0
CIRCLE
  5
30D
330
30C
100
AcDbEntity
  8
0
100
AcDbCircle
 10
2.031999999999996
 20
2.031999999999996
 30
0.0
 40
2.032
  0
CIRCLE
  5
30E
330
30C
100
AcDbEntity
  8
0
100
AcDbCircle
 10
11.34885589698966
 20
4.012358855039193
 30
0.0
 40
3.048
  0
CIRCLE
  5
30F
330
30C
100
AcDbEntity
  8
0
100
AcDbCircle
 10
20.6657117939789
 20
5.992717710078295
 30
0.0
 40
2.032
  0
ENDBLK
  5
311
330
30C
100
AcDbEntity
  8
0
100
AcDbBlockEnd
  0
BLOCK
  5
334
330
330
100
AcDbEntity
  8
0
100
AcDbBlockBegin
  2
A$C52d75a84
 70
     0
 10
0.0
 20
0.0
 30
0.0
  3
A$C52d75a84
  1

  0
CIRCLE
  5
331
330
330
100
AcDbEntity
  8
0
100
AcDbCircle
 10
2.031999999999996
 20
2.031999999999996
 30
0.0
 40
2.032
  0
CIRCLE
  5
332
330
330
100
AcDbEntity
  8
0
100
AcDbCircle
 10
11.34885589698966
 20
4.012358855039193
 30
0.0
 40
3.048
  0
CIRCLE
  5
333
330
330
100
AcDbEntity
  8
0
100
AcDbCircle
 10
20.6657117939789
 20
5.992717710078295
 30
0.0
 40
2.032
  0
ENDBLK
  5
335
330
330
100
AcDbEntity
  8
0
100
AcDbBlockEnd
  0
ENDSEC
  0
SECTION
  2
ENTITIES
  0
CIRCLE
  5
2E2
330
6F
100
AcDbEntity
  8
0
100
AcDbCircle
 10
151.7602123955021
 20
69.04474722132545
 30
0.0
 40
3.048
  0
LINE
  5
6C1
330
6F
100
AcDbEntity
  8
0
 62
     0
100
AcDbLine
 10
356.56714
 20
168.42
 30
0.0
 11
356.80314
 21
168.41
 31
0.0
  0
LINE
  5
6C2
330
6F
100
AcDbEntity
  8
0
 62
     0
100
AcDbLine
 10
356.80314
 20
168.41
 30
0.0
 11
357.0361399999999
 21
168.384
 31
0.0
  0
LINE
  5
6C3
330
6F
100
AcDbEntity
  8
0
 62
     0
100
AcDbLine
 10
357.0361399999999
 20
168.384
 30
0.0
 11
357.2691399999998
 21
168.337
 31
0.0
  0
LINE
  5
6C4
330
6F
100
AcDbEntity
  8
0
 62
     0
100
AcDbLine
 10
357.2691399999998
 20
168.337
 30
0.0
 11
357.49414
 21
168.274
 31
0.0
  0
LINE
  5
6C5
330
6F
100
AcDbEntity
  8
0
 62
     0
100
AcDbLine
 10
357.49414
 20
168.274
 30
0.0
 11
357.71714
 21
168.191
 31
0.0
  0
LINE
  5
6C6
330
6F
100
AcDbEntity
  8
0
 62
     0
100
AcDbLine
 10
357.71714
 20
168.191
 30
0.0
 11
357.93214
 21
168.093
 31
0.0
  0
LINE
  5
6C7
330
6F
100
AcDbEntity
  8
0
 62
     0
100
AcDbLine
 10
357.93214
 20
168.093
 30
0.0
 11
358.1331399999998
 21
167.978
 31
0.0
  0
LINE
  5
6C8
330
6F
100
AcDbEntity
  8
0
 62
     0
100
AcDbLine
 10
358.1331399999998
 20
167.978
 30
0.0
 11
358.33114
 21
167.848
 31
0.0
  0
LINE
  5
6C9
330
6F
100
AcDbEntity
  8
0
 62
     0
100
AcDbLine
 10
358.33114
 20
167.848
 30
0.0
 11
358.5171399999999
 21
167.702
 31
0.0
  0
LINE
  5
6CA
330
6F
100
AcDbEntity
  8
0
 62
     0
100
AcDbLine
 10
358.5171399999999
 20
167.702
 30
0.0
 11
358.68714
 21
167.542
 31
0.0
  0
LINE
  5
6CB
330
6F
100
AcDbEntity
  8
0
 62
     0
100
AcDbLine
 10
358.68714
 20
167.542
 30
0.0
 11
358.84914
 21
167.368
 31
0.0
  0
LINE
  5
6CC
330
6F
100
AcDbEntity
  8
0
 62
     0
100
AcDbLine
 10
358.84914
 20
167.368
 30
0.0
 11
358.99414
 21
167.184
 31
0.0
  0
LINE
  5
6CD
330
6F
100
AcDbEntity
  8
0
 62
     0
100
AcDbLine
 10
358.99414
 20
167.184
 30
0.0
 11
359.1241399999999
 21
166.988
 31
0.0
  0
LINE
  5
6CE
330
6F
100
AcDbEntity
  8
0
 62
     0
100
AcDbLine
 10
359.1241399999999
 20
166.988
 30
0.0
 11
359.2411399999999
 21
166.781
 31
0.0
  0
LINE
  5
6CF
330
6F
100
AcDbEntity
  8
0
 62
     0
100
AcDbLine
 10
359.2411399999999
 20
166.781
 30
0.0
 11
359.3391399999999
 21
166.568
 31
0.0
  0
LINE
  5
6D0
330
6F
100
AcDbEntity
  8
0
 62
     0
100
AcDbLine
 10
359.3391399999999
 20
166.568
 30
0.0
 11
359.4211399999999
 21
166.347
 31
0.0
  0
LINE
  5
6D1
330
6F
100
AcDbEntity
  8
0
 62
     0
100
AcDbLine
 10
359.4211399999999
 20
166.347
 30
0.0
 11
359.48414
 21
166.12
 31
0.0
  0
LINE
  5
6D2
330
6F
100
AcDbEntity
  8
0
 62
     0
100
AcDbLine
 10
359.48414
 20
166.12
 30
0.0
 11
359.53014
 21
165.89
 31
0.0
  0
LINE
  5
6D3
330
6F
100
AcDbEntity
  8
0
 62
     0
100
AcDbLine
 10
359.53014
 20
165.89
 30
0.0
 11
359.55814
 21
165.6559999999999
 31
0.0
  0
LINE
  5
6D4
330
6F
100
AcDbEntity
  8
0
 62
     0
100
AcDbLine
 10
359.55814
 20
165.6559999999999
 30
0.0
 11
359.56914
 21
165.42
 31
0.0
  0
LINE
  5
6D5
330
6F
100
AcDbEntity
  8
0
 62
     0
100
AcDbLine
 10
359.56914
 20
165.42
 30
0.0
 11
359.56914
 21
-4.601159999999993
 31
0.0
  0
LINE
  5
6D6
330
6F
100
AcDbEntity
  8
0
 62
     0
100
AcDbLine
 10
359.56914
 20
-4.601159999999993
 30
0.0
 11
359.55814
 21
-4.836799999999993
 31
0.0
  0
LINE
  5
6D7
330
6F
100
AcDbEntity
  8
0
 62
     0
100
AcDbLine
 10
359.55814
 20
-4.836799999999993
 30
0.0
 11
359.53014
 21
-5.071069999999995
 31
0.0
  0
LINE
  5
6D8
330
6F
100
AcDbEntity
  8
0
 62
     0
100
AcDbLine
 10
359.53014
 20
-5.071069999999995
 30
0.0
 11
359.48414
 21
-5.301199999999994
 31
0.0
  0
LINE
  5
6D9
330
6F
100
AcDbEntity
  8
0
 62
     0
100
AcDbLine
 10
359.48414
 20
-5.301199999999994
 30
0.0
 11
359.4211399999999
 21
-5.528579999999991
 31
0.0
  0
LINE
  5
6DA
330
6F
100
AcDbEntity
  8
0
 62
     0
100
AcDbLine
 10
359.4211399999999
 20
-5.528579999999991
 30
0.0
 11
359.3391399999999
 21
-5.749059999999992
 31
0.0
  0
LINE
  5
6DB
330
6F
100
AcDbEntity
  8
0
 62
     0
100
AcDbLine
 10
359.3391399999999
 20
-5.749059999999992
 30
0.0
 11
359.2411399999999
 21
-5.962659999999994
 31
0.0
  0
LINE
  5
6DC
330
6F
100
AcDbEntity
  8
0
 62
     0
100
AcDbLine
 10
359.2411399999999
 20
-5.962659999999994
 30
0.0
 11
359.1241399999999
 21
-6.167989999999995
 31
0.0
  0
LINE
  5
6DD
330
6F
100
AcDbEntity
  8
0
 62
     0
100
AcDbLine
 10
359.1241399999999
 20
-6.167989999999995
 30
0.0
 11
358.99414
 21
-6.365049999999991
 31
0.0
  0
LINE
  5
6DE
330
6F
100
AcDbEntity
  8
0
 62
     0
100
AcDbLine
 10
358.99414
 20
-6.365049999999991
 30
0.0
 11
358.84914
 21
-6.549699999999994
 31
0.0
  0
LINE
  5
6DF
330
6F
100
AcDbEntity
  8
0
 62
     0
100
AcDbLine
 10
358.84914
 20
-6.549699999999994
 30
0.0
 11
358.68714
 21
-6.721959999999991
 31
0.0
  0
LINE
  5
6E0
330
6F
100
AcDbEntity
  8
0
 62
     0
100
AcDbLine
 10
358.68714
 20
-6.721959999999991
 30
0.0
 11
358.5171399999999
 21
-6.883191999999991
 31
0.0
  0
LINE
  5
6E1
330
6F
100
AcDbEntity
  8
0
 62
     0
100
AcDbLine
 10
358.5171399999999
 20
-6.883191999999991
 30
0.0
 11
358.33114
 21
-7.029262999999994
 31
0.0
  0
LINE
  5
6E2
330
6F
100
AcDbEntity
  8
0
 62
     0
100
AcDbLine
 10
358.33114
 20
-7.029262999999994
 30
0.0
 11
358.1331399999998
 21
-7.158799999999994
 31
0.0
  0
LINE
  5
6E3
330
6F
100
AcDbEntity
  8
0
 62
     0
100
AcDbLine
 10
358.1331399999998
 20
-7.158799999999994
 30
0.0
 11
357.93214
 21
-7.274552999999992
 31
0.0
  0
LINE
  5
6E4
330
6F
100
AcDbEntity
  8
0
 62
     0
100
AcDbLine
 10
357.93214
 20
-7.274552999999992
 30
0.0
 11
357.71714
 21
-7.372391999999995
 31
0.0
  0
LINE
  5
6E5
330
6F
100
AcDbEntity
  8
0
 62
     0
100
AcDbLine
 10
357.71714
 20
-7.372391999999995
 30
0.0
 11
357.49414
 21
-7.455075999999992
 31
0.0
  0
LINE
  5
6E6
330
6F
100
AcDbEntity
  8
0
 62
     0
100
AcDbLine
 10
357.49414
 20
-7.455075999999992
 30
0.0
 11
357.2691399999998
 21
-7.518466999999994
 31
0.0
  0
LINE
  5
6E7
330
6F
100
AcDbEntity
  8
0
 62
     0
100
AcDbLine
 10
357.2691399999998
 20
-7.518466999999994
 30
0.0
 11
357.0361399999999
 21
-7.563940999999994
 31
0.0
  0
LINE
  5
6E8
330
6F
100
AcDbEntity
  8
0
 62
     0
100
AcDbLine
 10
357.0361399999999
 20
-7.563940999999994
 30
0.0
 11
356.80314
 21
-7.591501999999991
 31
0.0
  0
LINE
  5
6E9
330
6F
100
AcDbEntity
  8
0
 62
     0
100
AcDbLine
 10
356.80314
 20
-7.591501999999991
 30
0.0
 11
356.56714
 21
-7.601147999999994
 31
0.0
  0
LINE
  5
6EA
330
6F
100
AcDbEntity
  8
0
 62
     0
100
AcDbLine
 10
356.56714
 20
-7.601147999999994
 30
0.0
 11
-4.905790000000023
 21
-7.601147999999994
 31
0.0
  0
LINE
  5
6EB
330
6F
100
AcDbEntity
  8
0
 62
     0
100
AcDbLine
 10
-4.905790000000023
 20
-7.601147999999994
 30
0.0
 11
-5.141430000000012
 21
-7.591501999999991
 31
0.0
  0
LINE
  5
6EC
330
6F
100
AcDbEntity
  8
0
 62
     0
100
AcDbLine
 10
-5.141430000000012
 20
-7.591501999999991
 30
0.0
 11
-5.375700000000051
 21
-7.563940999999994
 31
0.0
  0
LINE
  5
6ED
330
6F
100
AcDbEntity
  8
0
 62
     0
100
AcDbLine
 10
-5.375700000000051
 20
-7.563940999999994
 30
0.0
 11
-5.605830000000082
 21
-7.518466999999994
 31
0.0
  0
LINE
  5
6EE
330
6F
100
AcDbEntity
  8
0
 62
     0
100
AcDbLine
 10
-5.605830000000082
 20
-7.518466999999994
 30
0.0
 11
-5.833210000000008
 21
-7.455075999999992
 31
0.0
  0
LINE
  5
6EF
330
6F
100
AcDbEntity
  8
0
 62
     0
100
AcDbLine
 10
-5.833210000000008
 20
-7.455075999999992
 30
0.0
 11
-6.053690000000074
 21
-7.372391999999995
 31
0.0
  0
LINE
  5
6F0
330
6F
100
AcDbEntity
  8
0
 62
     0
100
AcDbLine
 10
-6.053690000000074
 20
-7.372391999999995
 30
0.0
 11
-6.267290000000002
 21
-7.274552999999992
 31
0.0
  0
LINE
  5
6F1
330
6F
100
AcDbEntity
  8
0
 62
     0
100
AcDbLine
 10
-6.267290000000002
 20
-7.274552999999992
 30
0.0
 11
-6.473990000000071
 21
-7.158799999999994
 31
0.0
  0
LINE
  5
6F2
330
6F
100
AcDbEntity
  8
0
 62
     0
100
AcDbLine
 10
-6.473990000000071
 20
-7.158799999999994
 30
0.0
 11
-6.669669999999996
 21
-7.029262999999994
 31
0.0
  0
LINE
  5
6F3
330
6F
100
AcDbEntity
  8
0
 62
     0
100
AcDbLine
 10
-6.669669999999996
 20
-7.029262999999994
 30
0.0
 11
-6.854330000000002
 21
-6.883191999999991
 31
0.0
  0
LINE
  5
6F4
330
6F
100
AcDbEntity
  8
0
 62
     0
100
AcDbLine
 10
-6.854330000000002
 20
-6.883191999999991
 30
0.0
 11
-7.027965999999991
 21
-6.721959999999991
 31
0.0
  0
LINE
  5
6F5
330
6F
100
AcDbEntity
  8
0
 62
     0
100
AcDbLine
 10
-7.027965999999991
 20
-6.721959999999991
 30
0.0
 11
-7.187816999999995
 21
-6.549699999999994
 31
0.0
  0
LINE
  5
6F6
330
6F
100
AcDbEntity
  8
0
 62
     0
100
AcDbLine
 10
-7.187816999999995
 20
-6.549699999999994
 30
0.0
 11
-7.333888
 21
-6.365049999999991
 31
0.0
  0
LINE
  5
6F7
330
6F
100
AcDbEntity
  8
0
 62
     0
100
AcDbLine
 10
-7.333888
 20
-6.365049999999991
 30
0.0
 11
-7.46342400000003
 21
-6.167989999999995
 31
0.0
  0
LINE
  5
6F8
330
6F
100
AcDbEntity
  8
0
 62
     0
100
AcDbLine
 10
-7.46342400000003
 20
-6.167989999999995
 30
0.0
 11
-7.579181000000062
 21
-5.962659999999994
 31
0.0
  0
LINE
  5
6F9
330
6F
100
AcDbEntity
  8
0
 62
     0
100
AcDbLine
 10
-7.579181000000062
 20
-5.962659999999994
 30
0.0
 11
-7.677021000000077
 21
-5.749059999999992
 31
0.0
  0
LINE
  5
6FA
330
6F
100
AcDbEntity
  8
0
 62
     0
100
AcDbLine
 10
-7.677021000000077
 20
-5.749059999999992
 30
0.0
 11
-7.759703000000056
 21
-5.528579999999991
 31
0.0
  0
LINE
  5
6FB
330
6F
100
AcDbEntity
  8
0
 62
     0
100
AcDbLine
 10
-7.759703000000056
 20
-5.528579999999991
 30
0.0
 11
-7.823093000000082
 21
-5.301199999999994
 31
0.0
  0
LINE
  5
6FC
330
6F
100
AcDbEntity
  8
0
 62
     0
100
AcDbLine
 10
-7.823093000000082
 20
-5.301199999999994
 30
0.0
 11
-7.869946000000027
 21
-5.071069999999995
 31
0.0
  0
LINE
  5
6FD
330
6F
100
AcDbEntity
  8
0
 62
     0
100
AcDbLine
 10
-7.869946000000027
 20
-5.071069999999995
 30
0.0
 11
-7.896129000000088
 21
-4.836799999999993
 31
0.0
  0
LINE
  5
6FE
330
6F
100
AcDbEntity
  8
0
 62
     0
100
AcDbLine
 10
-7.896129000000088
 20
-4.836799999999993
 30
0.0
 11
-7.905775400000034
 21
-4.601159999999993
 31
0.0
  0
LINE
  5
6FF
330
6F
100
AcDbEntity
  8
0
 62
     0
100
AcDbLine
 10
-7.905775400000034
 20
-4.601159999999993
 30
0.0
 11
-7.905775400000034
 21
165.42
 31
0.0
  0
LINE
  5
700
330
6F
100
AcDbEntity
  8
0
 62
     0
100
AcDbLine
 10
-7.905775400000034
 20
165.42
 30
0.0
 11
-7.896129000000088
 21
165.6559999999999
 31
0.0
  0
LINE
  5
701
330
6F
100
AcDbEntity
  8
0
 62
     0
100
AcDbLine
 10
-7.896129000000088
 20
165.6559999999999
 30
0.0
 11
-7.869946000000027
 21
165.89
 31
0.0
  0
LINE
  5
702
330
6F
100
AcDbEntity
  8
0
 62
     0
100
AcDbLine
 10
-7.869946000000027
 20
165.89
 30
0.0
 11
-7.823093000000082
 21
166.12
 31
0.0
  0
LINE
  5
703
330
6F
100
AcDbEntity
  8
0
 62
     0
100
AcDbLine
 10
-7.823093000000082
 20
166.12
 30
0.0
 11
-7.759703000000056
 21
166.347
 31
0.0
  0
LINE
  5
704
330
6F
100
AcDbEntity
  8
0
 62
     0
100
AcDbLine
 10
-7.759703000000056
 20
166.347
 30
0.0
 11
-7.677021000000077
 21
166.568
 31
0.0
  0
LINE
  5
705
330
6F
100
AcDbEntity
  8
0
 62
     0
100
AcDbLine
 10
-7.677021000000077
 20
166.568
 30
0.0
 11
-7.579181000000062
 21
166.781
 31
0.0
  0
LINE
  5
706
330
6F
100
AcDbEntity
  8
0
 62
     0
100
AcDbLine
 10
-7.579181000000062
 20
166.781
 30
0.0
 11
-7.46342400000003
 21
166.988
 31
0.0
  0
LINE
  5
707
330
6F
100
AcDbEntity
  8
0
 62
     0
100
AcDbLine
 10
-7.46342400000003
 20
166.988
 30
0.0
 11
-7.333888
 21
167.184
 31
0.0
  0
LINE
  5
708
330
6F
100
AcDbEntity
  8
0
 62
     0
100
AcDbLine
 10
-7.333888
 20
167.184
 30
0.0
 11
-7.187816999999995
 21
167.368
 31
0.0
  0
LINE
  5
709
330
6F
100
AcDbEntity
  8
0
 62
     0
100
AcDbLine
 10
-7.187816999999995
 20
167.368
 30
0.0
 11
-7.027965999999991
 21
167.542
 31
0.0
  0
LINE
  5
70A
330
6F
100
AcDbEntity
  8
0
 62
     0
100
AcDbLine
 10
-7.027965999999991
 20
167.542
 30
0.0
 11
-6.854330000000002
 21
167.702
 31
0.0
  0
LINE
  5
70B
330
6F
100
AcDbEntity
  8
0
 62
     0
100
AcDbLine
 10
-6.854330000000002
 20
167.702
 30
0.0
 11
-6.669669999999996
 21
167.848
 31
0.0
  0
LINE
  5
70C
330
6F
100
AcDbEntity
  8
0
 62
     0
100
AcDbLine
 10
-6.669669999999996
 20
167.848
 30
0.0
 11
-6.473990000000071
 21
167.978
 31
0.0
  0
LINE
  5
70D
330
6F
100
AcDbEntity
  8
0
 62
     0
100
AcDbLine
 10
-6.473990000000071
 20
167.978
 30
0.0
 11
-6.267290000000002
 21
168.093
 31
0.0
  0
LINE
  5
70E
330
6F
100
AcDbEntity
  8
0
 62
     0
100
AcDbLine
 10
-6.267290000000002
 20
168.093
 30
0.0
 11
-6.053690000000074
 21
168.191
 31
0.0
  0
LINE
  5
70F
330
6F
100
AcDbEntity
  8
0
 62
     0
100
AcDbLine
 10
-6.053690000000074
 20
168.191
 30
0.0
 11
-5.833210000000008
 21
168.274
 31
0.0
  0
LINE
  5
710
330
6F
100
AcDbEntity
  8
0
 62
     0
100
AcDbLine
 10
-5.833210000000008
 20
168.274
 30
0.0
 11
-5.605830000000082
 21
168.337
 31
0.0
  0
LINE
  5
711
330
6F
100
AcDbEntity
  8
0
 62
     0
100
AcDbLine
 10
-5.605830000000082
 20
168.337
 30
0.0
 11
-5.375700000000051
 21
168.384
 31
0.0
  0
LINE
  5
712
330
6F
100
AcDbEntity
  8
0
 62
     0
100
AcDbLine
 10
-5.375700000000051
 20
168.384
 30
0.0
 11
-5.141430000000012
 21
168.41
 31
0.0
  0
LINE
  5
713
330
6F
100
AcDbEntity
  8
0
 62
     0
100
AcDbLine
 10
-5.141430000000012
 20
168.41
 30
0.0
 11
-4.905790000000023
 21
168.42
 31
0.0
  0
LINE
  5
714
330
6F
100
AcDbEntity
  8
0
 62
     0
100
AcDbLine
 10
-4.905790000000023
 20
168.42
 30
0.0
 11
356.56714
 21
168.42
 31
0.0
  0
LINE
  5
715
330
6F
100
AcDbEntity
  8
0
 62
     0
100
AcDbLine
 10
-4.230549999999993
 20
-2.603009999999994
 30
0.0
 11
-4.522690000000012
 21
-2.751839999999995
 31
0.0
  0
LINE
  5
716
330
6F
100
AcDbEntity
  8
0
 62
     0
100
AcDbLine
 10
-4.522690000000012
 20
-2.751839999999995
 30
0.0
 11
-4.755580000000009
 21
-2.983339999999995
 31
0.0
  0
LINE
  5
717
330
6F
100
AcDbEntity
  8
0
 62
     0
100
AcDbLine
 10
-4.755580000000009
 20
-2.983339999999995
 30
0.0
 11
-4.905790000000023
 21
-3.276849999999995
 31
0.0
  0
LINE
  5
718
330
6F
100
AcDbEntity
  8
0
 62
     0
100
AcDbLine
 10
-4.905790000000023
 20
-3.276849999999995
 30
0.0
 11
-4.956770000000005
 21
-3.602069999999993
 31
0.0
  0
LINE
  5
719
330
6F
100
AcDbEntity
  8
0
 62
     0
100
AcDbLine
 10
-4.956770000000005
 20
-3.602069999999993
 30
0.0
 11
-4.905790000000023
 21
-3.925919999999993
 31
0.0
  0
LINE
  5
71A
330
6F
100
AcDbEntity
  8
0
 62
     0
100
AcDbLine
 10
-4.905790000000023
 20
-3.925919999999993
 30
0.0
 11
-4.755580000000009
 21
-4.218059999999993
 31
0.0
  0
LINE
  5
71B
330
6F
100
AcDbEntity
  8
0
 62
     0
100
AcDbLine
 10
-4.755580000000009
 20
-4.218059999999993
 30
0.0
 11
-4.522690000000012
 21
-4.450949999999995
 31
0.0
  0
LINE
  5
71C
330
6F
100
AcDbEntity
  8
0
 62
     0
100
AcDbLine
 10
-4.522690000000012
 20
-4.450949999999995
 30
0.0
 11
-4.230549999999993
 21
-4.599779999999993
 31
0.0
  0
LINE
  5
71D
330
6F
100
AcDbEntity
  8
0
 62
     0
100
AcDbLine
 10
-4.230549999999993
 20
-4.599779999999993
 30
0.0
 11
-3.905320000000073
 21
-4.652149999999995
 31
0.0
  0
LINE
  5
71E
330
6F
100
AcDbEntity
  8
0
 62
     0
100
AcDbLine
 10
-3.905320000000073
 20
-4.652149999999995
 30
0.0
 11
-3.581510000000093
 21
-4.599779999999993
 31
0.0
  0
LINE
  5
71F
330
6F
100
AcDbEntity
  8
0
 62
     0
100
AcDbLine
 10
-3.581510000000093
 20
-4.599779999999993
 30
0.0
 11
-3.287959999999998
 21
-4.450949999999995
 31
0.0
  0
LINE
  5
720
330
6F
100
AcDbEntity
  8
0
 62
     0
100
AcDbLine
 10
-3.287959999999998
 20
-4.450949999999995
 30
0.0
 11
-3.05646999999999
 21
-4.218059999999993
 31
0.0
  0
LINE
  5
721
330
6F
100
AcDbEntity
  8
0
 62
     0
100
AcDbLine
 10
-3.05646999999999
 20
-4.218059999999993
 30
0.0
 11
-2.90763000000004
 21
-3.925919999999993
 31
0.0
  0
LINE
  5
722
330
6F
100
AcDbEntity
  8
0
 62
     0
100
AcDbLine
 10
-2.90763000000004
 20
-3.925919999999993
 30
0.0
 11
-2.855279999999993
 21
-3.602069999999993
 31
0.0
  0
LINE
  5
723
330
6F
100
AcDbEntity
  8
0
 62
     0
100
AcDbLine
 10
-2.855279999999993
 20
-3.602069999999993
 30
0.0
 11
-2.90763000000004
 21
-3.276849999999995
 31
0.0
  0
LINE
  5
724
330
6F
100
AcDbEntity
  8
0
 62
     0
100
AcDbLine
 10
-2.90763000000004
 20
-3.276849999999995
 30
0.0
 11
-3.05646999999999
 21
-2.983339999999995
 31
0.0
  0
LINE
  5
725
330
6F
100
AcDbEntity
  8
0
 62
     0
100
AcDbLine
 10
-3.05646999999999
 20
-2.983339999999995
 30
0.0
 11
-3.287959999999998
 21
-2.751839999999995
 31
0.0
  0
LINE
  5
726
330
6F
100
AcDbEntity
  8
0
 62
     0
100
AcDbLine
 10
-3.287959999999998
 20
-2.751839999999995
 30
0.0
 11
-3.581510000000093
 21
-2.603009999999994
 31
0.0
  0
LINE
  5
727
330
6F
100
AcDbEntity
  8
0
 62
     0
100
AcDbLine
 10
-3.581510000000093
 20
-2.603009999999994
 30
0.0
 11
-3.905320000000073
 21
-2.552029999999995
 31
0.0
  0
LINE
  5
728
330
6F
100
AcDbEntity
  8
0
 62
     0
100
AcDbLine
 10
-3.905320000000073
 20
-2.552029999999995
 30
0.0
 11
-4.230549999999993
 21
-2.603009999999994
 31
0.0
  0
LINE
  5
729
330
6F
100
AcDbEntity
  8
0
 62
     0
100
AcDbLine
 10
67.66433999999994
 20
-2.603009999999994
 30
0.0
 11
67.37223999999992
 21
-2.751839999999995
 31
0.0
  0
LINE
  5
72A
330
6F
100
AcDbEntity
  8
0
 62
     0
100
AcDbLine
 10
67.37223999999992
 20
-2.751839999999995
 30
0.0
 11
67.13943999999992
 21
-2.983339999999995
 31
0.0
  0
LINE
  5
72B
330
6F
100
AcDbEntity
  8
0
 62
     0
100
AcDbLine
 10
67.13943999999992
 20
-2.983339999999995
 30
0.0
 11
66.99054000000001
 21
-3.276849999999995
 31
0.0
  0
LINE
  5
72C
330
6F
100
AcDbEntity
  8
0
 62
     0
100
AcDbLine
 10
66.99054000000001
 20
-3.276849999999995
 30
0.0
 11
66.93833999999992
 21
-3.602069999999993
 31
0.0
  0
LINE
  5
72D
330
6F
100
AcDbEntity
  8
0
 62
     0
100
AcDbLine
 10
66.93833999999992
 20
-3.602069999999993
 30
0.0
 11
66.99054000000001
 21
-3.925919999999993
 31
0.0
  0
LINE
  5
72E
330
6F
100
AcDbEntity
  8
0
 62
     0
100
AcDbLine
 10
66.99054000000001
 20
-3.925919999999993
 30
0.0
 11
67.13943999999992
 21
-4.218059999999993
 31
0.0
  0
LINE
  5
72F
330
6F
100
AcDbEntity
  8
0
 62
     0
100
AcDbLine
 10
67.13943999999992
 20
-4.218059999999993
 30
0.0
 11
67.37223999999992
 21
-4.450949999999995
 31
0.0
  0
LINE
  5
730
330
6F
100
AcDbEntity
  8
0
 62
     0
100
AcDbLine
 10
67.37223999999992
 20
-4.450949999999995
 30
0.0
 11
67.66433999999994
 21
-4.599779999999993
 31
0.0
  0
LINE
  5
731
330
6F
100
AcDbEntity
  8
0
 62
     0
100
AcDbLine
 10
67.66433999999994
 20
-4.599779999999993
 30
0.0
 11
67.98813999999993
 21
-4.652149999999995
 31
0.0
  0
LINE
  5
732
330
6F
100
AcDbEntity
  8
0
 62
     0
100
AcDbLine
 10
67.98813999999993
 20
-4.652149999999995
 30
0.0
 11
68.3134399999999
 21
-4.599779999999993
 31
0.0
  0
LINE
  5
733
330
6F
100
AcDbEntity
  8
0
 62
     0
100
AcDbLine
 10
68.3134399999999
 20
-4.599779999999993
 30
0.0
 11
68.60553999999989
 21
-4.450949999999995
 31
0.0
  0
LINE
  5
734
330
6F
100
AcDbEntity
  8
0
 62
     0
100
AcDbLine
 10
68.60553999999989
 20
-4.450949999999995
 30
0.0
 11
68.8387399999999
 21
-4.218059999999993
 31
0.0
  0
LINE
  5
735
330
6F
100
AcDbEntity
  8
0
 62
     0
100
AcDbLine
 10
68.8387399999999
 20
-4.218059999999993
 30
0.0
 11
68.98723999999993
 21
-3.925919999999993
 31
0.0
  0
LINE
  5
736
330
6F
100
AcDbEntity
  8
0
 62
     0
100
AcDbLine
 10
68.98723999999993
 20
-3.925919999999993
 30
0.0
 11
69.03843999999992
 21
-3.602069999999993
 31
0.0
  0
LINE
  5
737
330
6F
100
AcDbEntity
  8
0
 62
     0
100
AcDbLine
 10
69.03843999999992
 20
-3.602069999999993
 30
0.0
 11
68.98723999999993
 21
-3.276849999999995
 31
0.0
  0
LINE
  5
738
330
6F
100
AcDbEntity
  8
0
 62
     0
100
AcDbLine
 10
68.98723999999993
 20
-3.276849999999995
 30
0.0
 11
68.8387399999999
 21
-2.983339999999995
 31
0.0
  0
LINE
  5
739
330
6F
100
AcDbEntity
  8
0
 62
     0
100
AcDbLine
 10
68.8387399999999
 20
-2.983339999999995
 30
0.0
 11
68.60553999999989
 21
-2.751839999999995
 31
0.0
  0
LINE
  5
73A
330
6F
100
AcDbEntity
  8
0
 62
     0
100
AcDbLine
 10
68.60553999999989
 20
-2.751839999999995
 30
0.0
 11
68.3134399999999
 21
-2.603009999999994
 31
0.0
  0
LINE
  5
73B
330
6F
100
AcDbEntity
  8
0
 62
     0
100
AcDbLine
 10
68.3134399999999
 20
-2.603009999999994
 30
0.0
 11
67.98813999999993
 21
-2.552029999999995
 31
0.0
  0
LINE
  5
73C
330
6F
100
AcDbEntity
  8
0
 62
     0
100
AcDbLine
 10
67.98813999999993
 20
-2.552029999999995
 30
0.0
 11
67.66433999999994
 21
-2.603009999999994
 31
0.0
  0
LINE
  5
73D
330
6F
100
AcDbEntity
  8
0
 62
     0
100
AcDbLine
 10
139.5581399999999
 20
-2.603009999999994
 30
0.0
 11
139.2661399999999
 21
-2.751839999999995
 31
0.0
  0
LINE
  5
73E
330
6F
100
AcDbEntity
  8
0
 62
     0
100
AcDbLine
 10
139.2661399999999
 20
-2.751839999999995
 30
0.0
 11
139.03314
 21
-2.983339999999995
 31
0.0
  0
LINE
  5
73F
330
6F
100
AcDbEntity
  8
0
 62
     0
100
AcDbLine
 10
139.03314
 20
-2.983339999999995
 30
0.0
 11
138.8841399999999
 21
-3.276849999999995
 31
0.0
  0
LINE
  5
740
330
6F
100
AcDbEntity
  8
0
 62
     0
100
AcDbLine
 10
138.8841399999999
 20
-3.276849999999995
 30
0.0
 11
138.8331399999999
 21
-3.602069999999993
 31
0.0
  0
LINE
  5
741
330
6F
100
AcDbEntity
  8
0
 62
     0
100
AcDbLine
 10
138.8331399999999
 20
-3.602069999999993
 30
0.0
 11
138.8841399999999
 21
-3.925919999999993
 31
0.0
  0
LINE
  5
742
330
6F
100
AcDbEntity
  8
0
 62
     0
100
AcDbLine
 10
138.8841399999999
 20
-3.925919999999993
 30
0.0
 11
139.03314
 21
-4.218059999999993
 31
0.0
  0
LINE
  5
743
330
6F
100
AcDbEntity
  8
0
 62
     0
100
AcDbLine
 10
139.03314
 20
-4.218059999999993
 30
0.0
 11
139.2661399999999
 21
-4.450949999999995
 31
0.0
  0
LINE
  5
744
330
6F
100
AcDbEntity
  8
0
 62
     0
100
AcDbLine
 10
139.2661399999999
 20
-4.450949999999995
 30
0.0
 11
139.5581399999999
 21
-4.599779999999993
 31
0.0
  0
LINE
  5
745
330
6F
100
AcDbEntity
  8
0
 62
     0
100
AcDbLine
 10
139.5581399999999
 20
-4.599779999999993
 30
0.0
 11
139.8831399999999
 21
-4.652149999999995
 31
0.0
  0
LINE
  5
746
330
6F
100
AcDbEntity
  8
0
 62
     0
100
AcDbLine
 10
139.8831399999999
 20
-4.652149999999995
 30
0.0
 11
140.20714
 21
-4.599779999999993
 31
0.0
  0
LINE
  5
747
330
6F
100
AcDbEntity
  8
0
 62
     0
100
AcDbLine
 10
140.20714
 20
-4.599779999999993
 30
0.0
 11
140.50014
 21
-4.450949999999995
 31
0.0
  0
LINE
  5
748
330
6F
100
AcDbEntity
  8
0
 62
     0
100
AcDbLine
 10
140.50014
 20
-4.450949999999995
 30
0.0
 11
140.7321399999999
 21
-4.218059999999993
 31
0.0
  0
LINE
  5
749
330
6F
100
AcDbEntity
  8
0
 62
     0
100
AcDbLine
 10
140.7321399999999
 20
-4.218059999999993
 30
0.0
 11
140.8821399999999
 21
-3.925919999999993
 31
0.0
  0
LINE
  5
74A
330
6F
100
AcDbEntity
  8
0
 62
     0
100
AcDbLine
 10
140.8821399999999
 20
-3.925919999999993
 30
0.0
 11
140.93314
 21
-3.602069999999993
 31
0.0
  0
LINE
  5
74B
330
6F
100
AcDbEntity
  8
0
 62
     0
100
AcDbLine
 10
140.93314
 20
-3.602069999999993
 30
0.0
 11
140.8821399999999
 21
-3.276849999999995
 31
0.0
  0
LINE
  5
74C
330
6F
100
AcDbEntity
  8
0
 62
     0
100
AcDbLine
 10
140.8821399999999
 20
-3.276849999999995
 30
0.0
 11
140.7321399999999
 21
-2.983339999999995
 31
0.0
  0
LINE
  5
74D
330
6F
100
AcDbEntity
  8
0
 62
     0
100
AcDbLine
 10
140.7321399999999
 20
-2.983339999999995
 30
0.0
 11
140.50014
 21
-2.751839999999995
 31
0.0
  0
LINE
  5
74E
330
6F
100
AcDbEntity
  8
0
 62
     0
100
AcDbLine
 10
140.50014
 20
-2.751839999999995
 30
0.0
 11
140.20714
 21
-2.603009999999994
 31
0.0
  0
LINE
  5
74F
330
6F
100
AcDbEntity
  8
0
 62
     0
100
AcDbLine
 10
140.20714
 20
-2.603009999999994
 30
0.0
 11
139.8831399999999
 21
-2.552029999999995
 31
0.0
  0
LINE
  5
750
330
6F
100
AcDbEntity
  8
0
 62
     0
100
AcDbLine
 10
139.8831399999999
 20
-2.552029999999995
 30
0.0
 11
139.5581399999999
 21
-2.603009999999994
 31
0.0
  0
LINE
  5
751
330
6F
100
AcDbEntity
  8
0
 62
     0
100
AcDbLine
 10
211.45314
 20
-2.603009999999994
 30
0.0
 11
211.1611399999999
 21
-2.751839999999995
 31
0.0
  0
LINE
  5
752
330
6F
100
AcDbEntity
  8
0
 62
     0
100
AcDbLine
 10
211.1611399999999
 20
-2.751839999999995
 30
0.0
 11
210.92814
 21
-2.983339999999995
 31
0.0
  0
LINE
  5
753
330
6F
100
AcDbEntity
  8
0
 62
     0
100
AcDbLine
 10
210.92814
 20
-2.983339999999995
 30
0.0
 11
210.77914
 21
-3.276849999999995
 31
0.0
  0
LINE
  5
754
330
6F
100
AcDbEntity
  8
0
 62
     0
100
AcDbLine
 10
210.77914
 20
-3.276849999999995
 30
0.0
 11
210.7281399999999
 21
-3.602069999999993
 31
0.0
  0
LINE
  5
755
330
6F
100
AcDbEntity
  8
0
 62
     0
100
AcDbLine
 10
210.7281399999999
 20
-3.602069999999993
 30
0.0
 11
210.77914
 21
-3.925919999999993
 31
0.0
  0
LINE
  5
756
330
6F
100
AcDbEntity
  8
0
 62
     0
100
AcDbLine
 10
210.77914
 20
-3.925919999999993
 30
0.0
 11
210.92814
 21
-4.218059999999993
 31
0.0
  0
LINE
  5
757
330
6F
100
AcDbEntity
  8
0
 62
     0
100
AcDbLine
 10
210.92814
 20
-4.218059999999993
 30
0.0
 11
211.1611399999999
 21
-4.450949999999995
 31
0.0
  0
LINE
  5
758
330
6F
100
AcDbEntity
  8
0
 62
     0
100
AcDbLine
 10
211.1611399999999
 20
-4.450949999999995
 30
0.0
 11
211.45314
 21
-4.599779999999993
 31
0.0
  0
LINE
  5
759
330
6F
100
AcDbEntity
  8
0
 62
     0
100
AcDbLine
 10
211.45314
 20
-4.599779999999993
 30
0.0
 11
211.77814
 21
-4.652149999999995
 31
0.0
  0
LINE
  5
75A
330
6F
100
AcDbEntity
  8
0
 62
     0
100
AcDbLine
 10
211.77814
 20
-4.652149999999995
 30
0.0
 11
212.10214
 21
-4.599779999999993
 31
0.0
  0
LINE
  5
75B
330
6F
100
AcDbEntity
  8
0
 62
     0
100
AcDbLine
 10
212.10214
 20
-4.599779999999993
 30
0.0
 11
212.39514
 21
-4.450949999999995
 31
0.0
  0
LINE
  5
75C
330
6F
100
AcDbEntity
  8
0
 62
     0
100
AcDbLine
 10
212.39514
 20
-4.450949999999995
 30
0.0
 11
212.6271399999999
 21
-4.218059999999993
 31
0.0
  0
LINE
  5
75D
330
6F
100
AcDbEntity
  8
0
 62
     0
100
AcDbLine
 10
212.6271399999999
 20
-4.218059999999993
 30
0.0
 11
212.7761399999999
 21
-3.925919999999993
 31
0.0
  0
LINE
  5
75E
330
6F
100
AcDbEntity
  8
0
 62
     0
100
AcDbLine
 10
212.7761399999999
 20
-3.925919999999993
 30
0.0
 11
212.82814
 21
-3.602069999999993
 31
0.0
  0
LINE
  5
75F
330
6F
100
AcDbEntity
  8
0
 62
     0
100
AcDbLine
 10
212.82814
 20
-3.602069999999993
 30
0.0
 11
212.7761399999999
 21
-3.276849999999995
 31
0.0
  0
LINE
  5
760
330
6F
100
AcDbEntity
  8
0
 62
     0
100
AcDbLine
 10
212.7761399999999
 20
-3.276849999999995
 30
0.0
 11
212.6271399999999
 21
-2.983339999999995
 31
0.0
  0
LINE
  5
761
330
6F
100
AcDbEntity
  8
0
 62
     0
100
AcDbLine
 10
212.6271399999999
 20
-2.983339999999995
 30
0.0
 11
212.39514
 21
-2.751839999999995
 31
0.0
  0
LINE
  5
762
330
6F
100
AcDbEntity
  8
0
 62
     0
100
AcDbLine
 10
212.39514
 20
-2.751839999999995
 30
0.0
 11
212.10214
 21
-2.603009999999994
 31
0.0
  0
LINE
  5
763
330
6F
100
AcDbEntity
  8
0
 62
     0
100
AcDbLine
 10
212.10214
 20
-2.603009999999994
 30
0.0
 11
211.77814
 21
-2.552029999999995
 31
0.0
  0
LINE
  5
764
330
6F
100
AcDbEntity
  8
0
 62
     0
100
AcDbLine
 10
211.77814
 20
-2.552029999999995
 30
0.0
 11
211.45314
 21
-2.603009999999994
 31
0.0
  0
LINE
  5
765
330
6F
100
AcDbEntity
  8
0
 62
     0
100
AcDbLine
 10
283.34814
 20
-2.603009999999994
 30
0.0
 11
283.0561399999999
 21
-2.751839999999995
 31
0.0
  0
LINE
  5
766
330
6F
100
AcDbEntity
  8
0
 62
     0
100
AcDbLine
 10
283.0561399999999
 20
-2.751839999999995
 30
0.0
 11
282.8231399999999
 21
-2.983339999999995
 31
0.0
  0
LINE
  5
767
330
6F
100
AcDbEntity
  8
0
 62
     0
100
AcDbLine
 10
282.8231399999999
 20
-2.983339999999995
 30
0.0
 11
282.6741399999999
 21
-3.276849999999995
 31
0.0
  0
LINE
  5
768
330
6F
100
AcDbEntity
  8
0
 62
     0
100
AcDbLine
 10
282.6741399999999
 20
-3.276849999999995
 30
0.0
 11
282.6231399999999
 21
-3.602069999999993
 31
0.0
  0
LINE
  5
769
330
6F
100
AcDbEntity
  8
0
 62
     0
100
AcDbLine
 10
282.6231399999999
 20
-3.602069999999993
 30
0.0
 11
282.6741399999999
 21
-3.925919999999993
 31
0.0
  0
LINE
  5
76A
330
6F
100
AcDbEntity
  8
0
 62
     0
100
AcDbLine
 10
282.6741399999999
 20
-3.925919999999993
 30
0.0
 11
282.8231399999999
 21
-4.218059999999993
 31
0.0
  0
LINE
  5
76B
330
6F
100
AcDbEntity
  8
0
 62
     0
100
AcDbLine
 10
282.8231399999999
 20
-4.218059999999993
 30
0.0
 11
283.0561399999999
 21
-4.450949999999995
 31
0.0
  0
LINE
  5
76C
330
6F
100
AcDbEntity
  8
0
 62
     0
100
AcDbLine
 10
283.0561399999999
 20
-4.450949999999995
 30
0.0
 11
283.34814
 21
-4.599779999999993
 31
0.0
  0
LINE
  5
76D
330
6F
100
AcDbEntity
  8
0
 62
     0
100
AcDbLine
 10
283.34814
 20
-4.599779999999993
 30
0.0
 11
283.6721399999999
 21
-4.652149999999995
 31
0.0
  0
LINE
  5
76E
330
6F
100
AcDbEntity
  8
0
 62
     0
100
AcDbLine
 10
283.6721399999999
 20
-4.652149999999995
 30
0.0
 11
283.9971399999999
 21
-4.599779999999993
 31
0.0
  0
LINE
  5
76F
330
6F
100
AcDbEntity
  8
0
 62
     0
100
AcDbLine
 10
283.9971399999999
 20
-4.599779999999993
 30
0.0
 11
284.28914
 21
-4.450949999999995
 31
0.0
  0
LINE
  5
770
330
6F
100
AcDbEntity
  8
0
 62
     0
100
AcDbLine
 10
284.28914
 20
-4.450949999999995
 30
0.0
 11
284.5221399999999
 21
-4.218059999999993
 31
0.0
  0
LINE
  5
771
330
6F
100
AcDbEntity
  8
0
 62
     0
100
AcDbLine
 10
284.5221399999999
 20
-4.218059999999993
 30
0.0
 11
284.6711399999999
 21
-3.925919999999993
 31
0.0
  0
LINE
  5
772
330
6F
100
AcDbEntity
  8
0
 62
     0
100
AcDbLine
 10
284.6711399999999
 20
-3.925919999999993
 30
0.0
 11
284.72214
 21
-3.602069999999993
 31
0.0
  0
LINE
  5
773
330
6F
100
AcDbEntity
  8
0
 62
     0
100
AcDbLine
 10
284.72214
 20
-3.602069999999993
 30
0.0
 11
284.6711399999999
 21
-3.276849999999995
 31
0.0
  0
LINE
  5
774
330
6F
100
AcDbEntity
  8
0
 62
     0
100
AcDbLine
 10
284.6711399999999
 20
-3.276849999999995
 30
0.0
 11
284.5221399999999
 21
-2.983339999999995
 31
0.0
  0
LINE
  5
775
330
6F
100
AcDbEntity
  8
0
 62
     0
100
AcDbLine
 10
284.5221399999999
 20
-2.983339999999995
 30
0.0
 11
284.28914
 21
-2.751839999999995
 31
0.0
  0
LINE
  5
776
330
6F
100
AcDbEntity
  8
0
 62
     0
100
AcDbLine
 10
284.28914
 20
-2.751839999999995
 30
0.0
 11
283.9971399999999
 21
-2.603009999999994
 31
0.0
  0
LINE
  5
777
330
6F
100
AcDbEntity
  8
0
 62
     0
100
AcDbLine
 10
283.9971399999999
 20
-2.603009999999994
 30
0.0
 11
283.6721399999999
 21
-2.552029999999995
 31
0.0
  0
LINE
  5
778
330
6F
100
AcDbEntity
  8
0
 62
     0
100
AcDbLine
 10
283.6721399999999
 20
-2.552029999999995
 30
0.0
 11
283.34814
 21
-2.603009999999994
 31
0.0
  0
LINE
  5
779
330
6F
100
AcDbEntity
  8
0
 62
     0
100
AcDbLine
 10
355.24414
 20
-2.603009999999994
 30
0.0
 11
354.9511399999998
 21
-2.751839999999995
 31
0.0
  0
LINE
  5
77A
330
6F
100
AcDbEntity
  8
0
 62
     0
100
AcDbLine
 10
354.9511399999998
 20
-2.751839999999995
 30
0.0
 11
354.7181399999999
 21
-2.983339999999995
 31
0.0
  0
LINE
  5
77B
330
6F
100
AcDbEntity
  8
0
 62
     0
100
AcDbLine
 10
354.7181399999999
 20
-2.983339999999995
 30
0.0
 11
354.5701399999999
 21
-3.276849999999995
 31
0.0
  0
LINE
  5
77C
330
6F
100
AcDbEntity
  8
0
 62
     0
100
AcDbLine
 10
354.5701399999999
 20
-3.276849999999995
 30
0.0
 11
354.5171399999999
 21
-3.602069999999993
 31
0.0
  0
LINE
  5
77D
330
6F
100
AcDbEntity
  8
0
 62
     0
100
AcDbLine
 10
354.5171399999999
 20
-3.602069999999993
 30
0.0
 11
354.5701399999999
 21
-3.925919999999993
 31
0.0
  0
LINE
  5
77E
330
6F
100
AcDbEntity
  8
0
 62
     0
100
AcDbLine
 10
354.5701399999999
 20
-3.925919999999993
 30
0.0
 11
354.7181399999999
 21
-4.218059999999993
 31
0.0
  0
LINE
  5
77F
330
6F
100
AcDbEntity
  8
0
 62
     0
100
AcDbLine
 10
354.7181399999999
 20
-4.218059999999993
 30
0.0
 11
354.9511399999998
 21
-4.450949999999995
 31
0.0
  0
LINE
  5
780
330
6F
100
AcDbEntity
  8
0
 62
     0
100
AcDbLine
 10
354.9511399999998
 20
-4.450949999999995
 30
0.0
 11
355.24414
 21
-4.599779999999993
 31
0.0
  0
LINE
  5
781
330
6F
100
AcDbEntity
  8
0
 62
     0
100
AcDbLine
 10
355.24414
 20
-4.599779999999993
 30
0.0
 11
355.56814
 21
-4.652149999999995
 31
0.0
  0
LINE
  5
782
330
6F
100
AcDbEntity
  8
0
 62
     0
100
AcDbLine
 10
355.56814
 20
-4.652149999999995
 30
0.0
 11
355.8931399999999
 21
-4.599779999999993
 31
0.0
  0
LINE
  5
783
330
6F
100
AcDbEntity
  8
0
 62
     0
100
AcDbLine
 10
355.8931399999999
 20
-4.599779999999993
 30
0.0
 11
356.1861399999998
 21
-4.450949999999995
 31
0.0
  0
LINE
  5
784
330
6F
100
AcDbEntity
  8
0
 62
     0
100
AcDbLine
 10
356.1861399999998
 20
-4.450949999999995
 30
0.0
 11
356.41814
 21
-4.218059999999993
 31
0.0
  0
LINE
  5
785
330
6F
100
AcDbEntity
  8
0
 62
     0
100
AcDbLine
 10
356.41814
 20
-4.218059999999993
 30
0.0
 11
356.56714
 21
-3.925919999999993
 31
0.0
  0
LINE
  5
786
330
6F
100
AcDbEntity
  8
0
 62
     0
100
AcDbLine
 10
356.56714
 20
-3.925919999999993
 30
0.0
 11
356.6161399999999
 21
-3.602069999999993
 31
0.0
  0
LINE
  5
787
330
6F
100
AcDbEntity
  8
0
 62
     0
100
AcDbLine
 10
356.6161399999999
 20
-3.602069999999993
 30
0.0
 11
356.56714
 21
-3.276849999999995
 31
0.0
  0
LINE
  5
788
330
6F
100
AcDbEntity
  8
0
 62
     0
100
AcDbLine
 10
356.56714
 20
-3.276849999999995
 30
0.0
 11
356.41814
 21
-2.983339999999995
 31
0.0
  0
LINE
  5
789
330
6F
100
AcDbEntity
  8
0
 62
     0
100
AcDbLine
 10
356.41814
 20
-2.983339999999995
 30
0.0
 11
356.1861399999998
 21
-2.751839999999995
 31
0.0
  0
LINE
  5
78A
330
6F
100
AcDbEntity
  8
0
 62
     0
100
AcDbLine
 10
356.1861399999998
 20
-2.751839999999995
 30
0.0
 11
355.8931399999999
 21
-2.603009999999994
 31
0.0
  0
LINE
  5
78B
330
6F
100
AcDbEntity
  8
0
 62
     0
100
AcDbLine
 10
355.8931399999999
 20
-2.603009999999994
 30
0.0
 11
355.56814
 21
-2.552029999999995
 31
0.0
  0
LINE
  5
78C
330
6F
100
AcDbEntity
  8
0
 62
     0
100
AcDbLine
 10
355.56814
 20
-2.552029999999995
 30
0.0
 11
355.24414
 21
-2.603009999999994
 31
0.0
  0
LINE
  5
8B9
330
6F
100
AcDbEntity
  8
0
 62
     0
100
AcDbLine
 10
-4.230549999999993
 20
81.40770000000001
 30
0.0
 11
-4.522690000000012
 21
81.2588
 31
0.0
  0
LINE
  5
8BA
330
6F
100
AcDbEntity
  8
0
 62
     0
100
AcDbLine
 10
-4.522690000000012
 20
81.2588
 30
0.0
 11
-4.755580000000009
 21
81.026
 31
0.0
  0
LINE
  5
8BB
330
6F
100
AcDbEntity
  8
0
 62
     0
100
AcDbLine
 10
-4.755580000000009
 20
81.026
 30
0.0
 11
-4.905790000000023
 21
80.73390000000001
 31
0.0
  0
LINE
  5
8BC
330
6F
100
AcDbEntity
  8
0
 62
     0
100
AcDbLine
 10
-4.905790000000023
 20
80.73390000000001
 30
0.0
 11
-4.956770000000005
 21
80.41
 31
0.0
  0
LINE
  5
8BD
330
6F
100
AcDbEntity
  8
0
 62
     0
100
AcDbLine
 10
-4.956770000000005
 20
80.41
 30
0.0
 11
-4.905790000000023
 21
80.0848
 31
0.0
  0
LINE
  5
8BE
330
6F
100
AcDbEntity
  8
0
 62
     0
100
AcDbLine
 10
-4.905790000000023
 20
80.0848
 30
0.0
 11
-4.755580000000009
 21
79.79270000000003
 31
0.0
  0
LINE
  5
8BF
330
6F
100
AcDbEntity
  8
0
 62
     0
100
AcDbLine
 10
-4.755580000000009
 20
79.79270000000003
 30
0.0
 11
-4.522690000000012
 21
79.55989999999999
 31
0.0
  0
LINE
  5
8C0
330
6F
100
AcDbEntity
  8
0
 62
     0
100
AcDbLine
 10
-4.522690000000012
 20
79.55989999999999
 30
0.0
 11
-4.230549999999993
 21
79.411
 31
0.0
  0
LINE
  5
8C1
330
6F
100
AcDbEntity
  8
0
 62
     0
100
AcDbLine
 10
-4.230549999999993
 20
79.411
 30
0.0
 11
-3.905320000000073
 21
79.3598
 31
0.0
  0
LINE
  5
8C2
330
6F
100
AcDbEntity
  8
0
 62
     0
100
AcDbLine
 10
-3.905320000000073
 20
79.3598
 30
0.0
 11
-3.581510000000093
 21
79.411
 31
0.0
  0
LINE
  5
8C3
330
6F
100
AcDbEntity
  8
0
 62
     0
100
AcDbLine
 10
-3.581510000000093
 20
79.411
 30
0.0
 11
-3.287959999999998
 21
79.55989999999999
 31
0.0
  0
LINE
  5
8C4
330
6F
100
AcDbEntity
  8
0
 62
     0
100
AcDbLine
 10
-3.287959999999998
 20
79.55989999999999
 30
0.0
 11
-3.05646999999999
 21
79.79270000000003
 31
0.0
  0
LINE
  5
8C5
330
6F
100
AcDbEntity
  8
0
 62
     0
100
AcDbLine
 10
-3.05646999999999
 20
79.79270000000003
 30
0.0
 11
-2.90763000000004
 21
80.0848
 31
0.0
  0
LINE
  5
8C6
330
6F
100
AcDbEntity
  8
0
 62
     0
100
AcDbLine
 10
-2.90763000000004
 20
80.0848
 30
0.0
 11
-2.855279999999993
 21
80.41
 31
0.0
  0
LINE
  5
8C7
330
6F
100
AcDbEntity
  8
0
 62
     0
100
AcDbLine
 10
-2.855279999999993
 20
80.41
 30
0.0
 11
-2.90763000000004
 21
80.73390000000001
 31
0.0
  0
LINE
  5
8C8
330
6F
100
AcDbEntity
  8
0
 62
     0
100
AcDbLine
 10
-2.90763000000004
 20
80.73390000000001
 30
0.0
 11
-3.05646999999999
 21
81.026
 31
0.0
  0
LINE
  5
8C9
330
6F
100
AcDbEntity
  8
0
 62
     0
100
AcDbLine
 10
-3.05646999999999
 20
81.026
 30
0.0
 11
-3.287959999999998
 21
81.2588
 31
0.0
  0
LINE
  5
8CA
330
6F
100
AcDbEntity
  8
0
 62
     0
100
AcDbLine
 10
-3.287959999999998
 20
81.2588
 30
0.0
 11
-3.581510000000093
 21
81.40770000000001
 31
0.0
  0
LINE
  5
8CB
330
6F
100
AcDbEntity
  8
0
 62
     0
100
AcDbLine
 10
-3.581510000000093
 20
81.40770000000001
 30
0.0
 11
-3.905320000000073
 21
81.45990000000002
 31
0.0
  0
LINE
  5
8CC
330
6F
100
AcDbEntity
  8
0
 62
     0
100
AcDbLine
 10
-3.905320000000073
 20
81.45990000000002
 30
0.0
 11
-4.230549999999993
 21
81.40770000000001
 31
0.0
  0
LINE
  5
8CD
330
6F
100
AcDbEntity
  8
0
 62
     0
100
AcDbLine
 10
355.24414
 20
81.40770000000001
 30
0.0
 11
354.9511399999998
 21
81.2588
 31
0.0
  0
LINE
  5
8CE
330
6F
100
AcDbEntity
  8
0
 62
     0
100
AcDbLine
 10
354.9511399999998
 20
81.2588
 30
0.0
 11
354.7181399999999
 21
81.026
 31
0.0
  0
LINE
  5
8CF
330
6F
100
AcDbEntity
  8
0
 62
     0
100
AcDbLine
 10
354.7181399999999
 20
81.026
 30
0.0
 11
354.5701399999999
 21
80.73390000000001
 31
0.0
  0
LINE
  5
8D0
330
6F
100
AcDbEntity
  8
0
 62
     0
100
AcDbLine
 10
354.5701399999999
 20
80.73390000000001
 30
0.0
 11
354.5171399999999
 21
80.41
 31
0.0
  0
LINE
  5
8D1
330
6F
100
AcDbEntity
  8
0
 62
     0
100
AcDbLine
 10
354.5171399999999
 20
80.41
 30
0.0
 11
354.5701399999999
 21
80.0848
 31
0.0
  0
LINE
  5
8D2
330
6F
100
AcDbEntity
  8
0
 62
     0
100
AcDbLine
 10
354.5701399999999
 20
80.0848
 30
0.0
 11
354.7181399999999
 21
79.79270000000003
 31
0.0
  0
LINE
  5
8D3
330
6F
100
AcDbEntity
  8
0
 62
     0
100
AcDbLine
 10
354.7181399999999
 20
79.79270000000003
 30
0.0
 11
354.9511399999998
 21
79.55989999999999
 31
0.0
  0
LINE
  5
8D4
330
6F
100
AcDbEntity
  8
0
 62
     0
100
AcDbLine
 10
354.9511399999998
 20
79.55989999999999
 30
0.0
 11
355.24414
 21
79.411
 31
0.0
  0
LINE
  5
8D5
330
6F
100
AcDbEntity
  8
0
 62
     0
100
AcDbLine
 10
355.24414
 20
79.411
 30
0.0
 11
355.56814
 21
79.3598
 31
0.0
  0
LINE
  5
8D6
330
6F
100
AcDbEntity
  8
0
 62
     0
100
AcDbLine
 10
355.56814
 20
79.3598
 30
0.0
 11
355.8931399999999
 21
79.411
 31
0.0
  0
LINE
  5
8D7
330
6F
100
AcDbEntity
  8
0
 62
     0
100
AcDbLine
 10
355.8931399999999
 20
79.411
 30
0.0
 11
356.1861399999998
 21
79.55989999999999
 31
0.0
  0
LINE
  5
8D8
330
6F
100
AcDbEntity
  8
0
 62
     0
100
AcDbLine
 10
356.1861399999998
 20
79.55989999999999
 30
0.0
 11
356.41814
 21
79.79270000000003
 31
0.0
  0
LINE
  5
8D9
330
6F
100
AcDbEntity
  8
0
 62
     0
100
AcDbLine
 10
356.41814
 20
79.79270000000003
 30
0.0
 11
356.56714
 21
80.0848
 31
0.0
  0
LINE
  5
8DA
330
6F
100
AcDbEntity
  8
0
 62
     0
100
AcDbLine
 10
356.56714
 20
80.0848
 30
0.0
 11
356.6161399999999
 21
80.41
 31
0.0
  0
LINE
  5
8DB
330
6F
100
AcDbEntity
  8
0
 62
     0
100
AcDbLine
 10
356.6161399999999
 20
80.41
 30
0.0
 11
356.56714
 21
80.73390000000001
 31
0.0
  0
LINE
  5
8DC
330
6F
100
AcDbEntity
  8
0
 62
     0
100
AcDbLine
 10
356.56714
 20
80.73390000000001
 30
0.0
 11
356.41814
 21
81.026
 31
0.0
  0
LINE
  5
8DD
330
6F
100
AcDbEntity
  8
0
 62
     0
100
AcDbLine
 10
356.41814
 20
81.026
 30
0.0
 11
356.1861399999998
 21
81.2588
 31
0.0
  0
LINE
  5
8DE
330
6F
100
AcDbEntity
  8
0
 62
     0
100
AcDbLine
 10
356.1861399999998
 20
81.2588
 30
0.0
 11
355.8931399999999
 21
81.40770000000001
 31
0.0
  0
LINE
  5
8DF
330
6F
100
AcDbEntity
  8
0
 62
     0
100
AcDbLine
 10
355.8931399999999
 20
81.40770000000001
 30
0.0
 11
355.56814
 21
81.45990000000002
 31
0.0
  0
LINE
  5
8E0
330
6F
100
AcDbEntity
  8
0
 62
     0
100
AcDbLine
 10
355.56814
 20
81.45990000000002
 30
0.0
 11
355.24414
 21
81.40770000000001
 31
0.0
  0
LINE
  5
999
330
6F
100
AcDbEntity
  8
0
 62
     0
100
AcDbLine
 10
-4.230549999999993
 20
165.42
 30
0.0
 11
-4.522690000000012
 21
165.27
 31
0.0
  0
LINE
  5
99A
330
6F
100
AcDbEntity
  8
0
 62
     0
100
AcDbLine
 10
-4.522690000000012
 20
165.27
 30
0.0
 11
-4.755580000000009
 21
165.037
 31
0.0
  0
LINE
  5
99B
330
6F
100
AcDbEntity
  8
0
 62
     0
100
AcDbLine
 10
-4.755580000000009
 20
165.037
 30
0.0
 11
-4.905790000000023
 21
164.745
 31
0.0
  0
LINE
  5
99C
330
6F
100
AcDbEntity
  8
0
 62
     0
100
AcDbLine
 10
-4.905790000000023
 20
164.745
 30
0.0
 11
-4.956770000000005
 21
164.419
 31
0.0
  0
LINE
  5
99D
330
6F
100
AcDbEntity
  8
0
 62
     0
100
AcDbLine
 10
-4.956770000000005
 20
164.419
 30
0.0
 11
-4.905790000000023
 21
164.0959999999999
 31
0.0
  0
LINE
  5
99E
330
6F
100
AcDbEntity
  8
0
 62
     0
100
AcDbLine
 10
-4.905790000000023
 20
164.0959999999999
 30
0.0
 11
-4.755580000000009
 21
163.802
 31
0.0
  0
LINE
  5
99F
330
6F
100
AcDbEntity
  8
0
 62
     0
100
AcDbLine
 10
-4.755580000000009
 20
163.802
 30
0.0
 11
-4.522690000000012
 21
163.57
 31
0.0
  0
LINE
  5
9A0
330
6F
100
AcDbEntity
  8
0
 62
     0
100
AcDbLine
 10
-4.522690000000012
 20
163.57
 30
0.0
 11
-4.230549999999993
 21
163.422
 31
0.0
  0
LINE
  5
9A1
330
6F
100
AcDbEntity
  8
0
 62
     0
100
AcDbLine
 10
-4.230549999999993
 20
163.422
 30
0.0
 11
-3.905320000000073
 21
163.369
 31
0.0
  0
LINE
  5
9A2
330
6F
100
AcDbEntity
  8
0
 62
     0
100
AcDbLine
 10
-3.905320000000073
 20
163.369
 30
0.0
 11
-3.581510000000093
 21
163.422
 31
0.0
  0
LINE
  5
9A3
330
6F
100
AcDbEntity
  8
0
 62
     0
100
AcDbLine
 10
-3.581510000000093
 20
163.422
 30
0.0
 11
-3.287959999999998
 21
163.57
 31
0.0
  0
LINE
  5
9A4
330
6F
100
AcDbEntity
  8
0
 62
     0
100
AcDbLine
 10
-3.287959999999998
 20
163.57
 30
0.0
 11
-3.05646999999999
 21
163.802
 31
0.0
  0
LINE
  5
9A5
330
6F
100
AcDbEntity
  8
0
 62
     0
100
AcDbLine
 10
-3.05646999999999
 20
163.802
 30
0.0
 11
-2.90763000000004
 21
164.0959999999999
 31
0.0
  0
LINE
  5
9A6
330
6F
100
AcDbEntity
  8
0
 62
     0
100
AcDbLine
 10
-2.90763000000004
 20
164.0959999999999
 30
0.0
 11
-2.855279999999993
 21
164.419
 31
0.0
  0
LINE
  5
9A7
330
6F
100
AcDbEntity
  8
0
 62
     0
100
AcDbLine
 10
-2.855279999999993
 20
164.419
 30
0.0
 11
-2.90763000000004
 21
164.745
 31
0.0
  0
LINE
  5
9A8
330
6F
100
AcDbEntity
  8
0
 62
     0
100
AcDbLine
 10
-2.90763000000004
 20
164.745
 30
0.0
 11
-3.05646999999999
 21
165.037
 31
0.0
  0
LINE
  5
9A9
330
6F
100
AcDbEntity
  8
0
 62
     0
100
AcDbLine
 10
-3.05646999999999
 20
165.037
 30
0.0
 11
-3.287959999999998
 21
165.27
 31
0.0
  0
LINE
  5
9AA
330
6F
100
AcDbEntity
  8
0
 62
     0
100
AcDbLine
 10
-3.287959999999998
 20
165.27
 30
0.0
 11
-3.581510000000093
 21
165.42
 31
0.0
  0
LINE
  5
9AB
330
6F
100
AcDbEntity
  8
0
 62
     0
100
AcDbLine
 10
-3.581510000000093
 20
165.42
 30
0.0
 11
-3.905320000000073
 21
165.469
 31
0.0
  0
LINE
  5
9AC
330
6F
100
AcDbEntity
  8
0
 62
     0
100
AcDbLine
 10
-3.905320000000073
 20
165.469
 30
0.0
 11
-4.230549999999993
 21
165.42
 31
0.0
  0
LINE
  5
9AD
330
6F
100
AcDbEntity
  8
0
 62
     0
100
AcDbLine
 10
355.24414
 20
165.42
 30
0.0
 11
354.9511399999998
 21
165.27
 31
0.0
  0
LINE
  5
9AE
330
6F
100
AcDbEntity
  8
0
 62
     0
100
AcDbLine
 10
354.9511399999998
 20
165.27
 30
0.0
 11
354.7181399999999
 21
165.037
 31
0.0
  0
LINE
  5
9AF
330
6F
100
AcDbEntity
  8
0
 62
     0
100
AcDbLine
 10
354.7181399999999
 20
165.037
 30
0.0
 11
354.5701399999999
 21
164.745
 31
0.0
  0
LINE
  5
9B0
330
6F
100
AcDbEntity
  8
0
 62
     0
100
AcDbLine
 10
354.5701399999999
 20
164.745
 30
0.0
 11
354.5171399999999
 21
164.419
 31
0.0
  0
LINE
  5
9B1
330
6F
100
AcDbEntity
  8
0
 62
     0
100
AcDbLine
 10
354.5171399999999
 20
164.419
 30
0.0
 11
354.5701399999999
 21
164.0959999999999
 31
0.0
  0
LINE
  5
9B2
330
6F
100
AcDbEntity
  8
0
 62
     0
100
AcDbLine
 10
354.5701399999999
 20
164.0959999999999
 30
0.0
 11
354.7181399999999
 21
163.802
 31
0.0
  0
LINE
  5
9B3
330
6F
100
AcDbEntity
  8
0
 62
     0
100
AcDbLine
 10
354.7181399999999
 20
163.802
 30
0.0
 11
354.9511399999998
 21
163.57
 31
0.0
  0
LINE
  5
9B4
330
6F
100
AcDbEntity
  8
0
 62
     0
100
AcDbLine
 10
354.9511399999998
 20
163.57
 30
0.0
 11
355.24414
 21
163.422
 31
0.0
  0
LINE
  5
9B5
330
6F
100
AcDbEntity
  8
0
 62
     0
100
AcDbLine
 10
355.24414
 20
163.422
 30
0.0
 11
355.56814
 21
163.369
 31
0.0
  0
LINE
  5
9B6
330
6F
100
AcDbEntity
  8
0
 62
     0
100
AcDbLine
 10
355.56814
 20
163.369
 30
0.0
 11
355.8931399999999
 21
163.422
 31
0.0
  0
LINE
  5
9B7
330
6F
100
AcDbEntity
  8
0
 62
     0
100
AcDbLine
 10
355.8931399999999
 20
163.422
 30
0.0
 11
356.1861399999998
 21
163.57
 31
0.0
  0
LINE
  5
9B8
330
6F
100
AcDbEntity
  8
0
 62
     0
100
AcDbLine
 10
356.1861399999998
 20
163.57
 30
0.0
 11
356.41814
 21
163.802
 31
0.0
  0
LINE
  5
9B9
330
6F
100
AcDbEntity
  8
0
 62
     0
100
AcDbLine
 10
356.41814
 20
163.802
 30
0.0
 11
356.56714
 21
164.0959999999999
 31
0.0
  0
LINE
  5
9BA
330
6F
100
AcDbEntity
  8
0
 62
     0
100
AcDbLine
 10
356.56714
 20
164.0959999999999
 30
0.0
 11
356.6161399999999
 21
164.419
 31
0.0
  0
LINE
  5
9BB
330
6F
100
AcDbEntity
  8
0
 62
     0
100
AcDbLine
 10
356.6161399999999
 20
164.419
 30
0.0
 11
356.56714
 21
164.745
 31
0.0
  0
LINE
  5
9BC
330
6F
100
AcDbEntity
  8
0
 62
     0
100
AcDbLine
 10
356.56714
 20
164.745
 30
0.0
 11
356.41814
 21
165.037
 31
0.0
  0
LINE
  5
9BD
330
6F
100
AcDbEntity
  8
0
 62
     0
100
AcDbLine
 10
356.41814
 20
165.037
 30
0.0
 11
356.1861399999998
 21
165.27
 31
0.0
  0
LINE
  5
9BE
330
6F
100
AcDbEntity
  8
0
 62
     0
100
AcDbLine
 10
356.1861399999998
 20
165.27
 30
0.0
 11
355.8931399999999
 21
165.42
 31
0.0
  0
LINE
  5
9BF
330
6F
100
AcDbEntity
  8
0
 62
     0
100
AcDbLine
 10
355.8931399999999
 20
165.42
 30
0.0
 11
355.56814
 21
165.469
 31
0.0
  0
LINE
  5
9C0
330
6F
100
AcDbEntity
  8
0
 62
     0
100
AcDbLine
 10
355.56814
 20
165.469
 30
0.0
 11
355.24414
 21
165.42
 31
0.0
  0
LINE
  5
9C1
330
6F
100
AcDbEntity
  8
0
 62
     0
100
AcDbLine
 10
283.34814
 20
165.42
 30
0.0
 11
283.0561399999999
 21
165.27
 31
0.0
  0
LINE
  5
9C2
330
6F
100
AcDbEntity
  8
0
 62
     0
100
AcDbLine
 10
283.0561399999999
 20
165.27
 30
0.0
 11
282.8231399999999
 21
165.037
 31
0.0
  0
LINE
  5
9C3
330
6F
100
AcDbEntity
  8
0
 62
     0
100
AcDbLine
 10
282.8231399999999
 20
165.037
 30
0.0
 11
282.6741399999999
 21
164.745
 31
0.0
  0
LINE
  5
9C4
330
6F
100
AcDbEntity
  8
0
 62
     0
100
AcDbLine
 10
282.6741399999999
 20
164.745
 30
0.0
 11
282.6231399999999
 21
164.419
 31
0.0
  0
LINE
  5
9C5
330
6F
100
AcDbEntity
  8
0
 62
     0
100
AcDbLine
 10
282.6231399999999
 20
164.419
 30
0.0
 11
282.6741399999999
 21
164.0959999999999
 31
0.0
  0
LINE
  5
9C6
330
6F
100
AcDbEntity
  8
0
 62
     0
100
AcDbLine
 10
282.6741399999999
 20
164.0959999999999
 30
0.0
 11
282.8231399999999
 21
163.802
 31
0.0
  0
LINE
  5
9C7
330
6F
100
AcDbEntity
  8
0
 62
     0
100
AcDbLine
 10
282.8231399999999
 20
163.802
 30
0.0
 11
283.0561399999999
 21
163.57
 31
0.0
  0
LINE
  5
9C8
330
6F
100
AcDbEntity
  8
0
 62
     0
100
AcDbLine
 10
283.0561399999999
 20
163.57
 30
0.0
 11
283.34814
 21
163.422
 31
0.0
  0
LINE
  5
9C9
330
6F
100
AcDbEntity
  8
0
 62
     0
100
AcDbLine
 10
283.34814
 20
163.422
 30
0.0
 11
283.6721399999999
 21
163.369
 31
0.0
  0
LINE
  5
9CA
330
6F
100
AcDbEntity
  8
0
 62
     0
100
AcDbLine
 10
283.6721399999999
 20
163.369
 30
0.0
 11
283.9971399999999
 21
163.422
 31
0.0
  0
LINE
  5
9CB
330
6F
100
AcDbEntity
  8
0
 62
     0
100
AcDbLine
 10
283.9971399999999
 20
163.422
 30
0.0
 11
284.28914
 21
163.57
 31
0.0
  0
LINE
  5
9CC
330
6F
100
AcDbEntity
  8
0
 62
     0
100
AcDbLine
 10
284.28914
 20
163.57
 30
0.0
 11
284.5221399999999
 21
163.802
 31
0.0
  0
LINE
  5
9CD
330
6F
100
AcDbEntity
  8
0
 62
     0
100
AcDbLine
 10
284.5221399999999
 20
163.802
 30
0.0
 11
284.6711399999999
 21
164.0959999999999
 31
0.0
  0
LINE
  5
9CE
330
6F
100
AcDbEntity
  8
0
 62
     0
100
AcDbLine
 10
284.6711399999999
 20
164.0959999999999
 30
0.0
 11
284.72214
 21
164.419
 31
0.0
  0
LINE
  5
9CF
330
6F
100
AcDbEntity
  8
0
 62
     0
100
AcDbLine
 10
284.72214
 20
164.419
 30
0.0
 11
284.6711399999999
 21
164.745
 31
0.0
  0
LINE
  5
9D0
330
6F
100
AcDbEntity
  8
0
 62
     0
100
AcDbLine
 10
284.6711399999999
 20
164.745
 30
0.0
 11
284.5221399999999
 21
165.037
 31
0.0
  0
LINE
  5
9D1
330
6F
100
AcDbEntity
  8
0
 62
     0
100
AcDbLine
 10
284.5221399999999
 20
165.037
 30
0.0
 11
284.28914
 21
165.27
 31
0.0
  0
LINE
  5
9D2
330
6F
100
AcDbEntity
  8
0
 62
     0
100
AcDbLine
 10
284.28914
 20
165.27
 30
0.0
 11
283.9971399999999
 21
165.42
 31
0.0
  0
LINE
  5
9D3
330
6F
100
AcDbEntity
  8
0
 62
     0
100
AcDbLine
 10
283.9971399999999
 20
165.42
 30
0.0
 11
283.6721399999999
 21
165.469
 31
0.0
  0
LINE
  5
9D4
330
6F
100
AcDbEntity
  8
0
 62
     0
100
AcDbLine
 10
283.6721399999999
 20
165.469
 30
0.0
 11
283.34814
 21
165.42
 31
0.0
  0
LINE
  5
9D5
330
6F
100
AcDbEntity
  8
0
 62
     0
100
AcDbLine
 10
211.45314
 20
165.42
 30
0.0
 11
211.1611399999999
 21
165.27
 31
0.0
  0
LINE
  5
9D6
330
6F
100
AcDbEntity
  8
0
 62
     0
100
AcDbLine
 10
211.1611399999999
 20
165.27
 30
0.0
 11
210.92814
 21
165.037
 31
0.0
  0
LINE
  5
9D7
330
6F
100
AcDbEntity
  8
0
 62
     0
100
AcDbLine
 10
210.92814
 20
165.037
 30
0.0
 11
210.77914
 21
164.745
 31
0.0
  0
LINE
  5
9D8
330
6F
100
AcDbEntity
  8
0
 62
     0
100
AcDbLine
 10
210.77914
 20
164.745
 30
0.0
 11
210.7281399999999
 21
164.419
 31
0.0
  0
LINE
  5
9D9
330
6F
100
AcDbEntity
  8
0
 62
     0
100
AcDbLine
 10
210.7281399999999
 20
164.419
 30
0.0
 11
210.77914
 21
164.0959999999999
 31
0.0
  0
LINE
  5
9DA
330
6F
100
AcDbEntity
  8
0
 62
     0
100
AcDbLine
 10
210.77914
 20
164.0959999999999
 30
0.0
 11
210.92814
 21
163.802
 31
0.0
  0
LINE
  5
9DB
330
6F
100
AcDbEntity
  8
0
 62
     0
100
AcDbLine
 10
210.92814
 20
163.802
 30
0.0
 11
211.1611399999999
 21
163.57
 31
0.0
  0
LINE
  5
9DC
330
6F
100
AcDbEntity
  8
0
 62
     0
100
AcDbLine
 10
211.1611399999999
 20
163.57
 30
0.0
 11
211.45314
 21
163.422
 31
0.0
  0
LINE
  5
9DD
330
6F
100
AcDbEntity
  8
0
 62
     0
100
AcDbLine
 10
211.45314
 20
163.422
 30
0.0
 11
211.77814
 21
163.369
 31
0.0
  0
LINE
  5
9DE
330
6F
100
AcDbEntity
  8
0
 62
     0
100
AcDbLine
 10
211.77814
 20
163.369
 30
0.0
 11
212.10214
 21
163.422
 31
0.0
  0
LINE
  5
9DF
330
6F
100
AcDbEntity
  8
0
 62
     0
100
AcDbLine
 10
212.10214
 20
163.422
 30
0.0
 11
212.39514
 21
163.57
 31
0.0
  0
LINE
  5
9E0
330
6F
100
AcDbEntity
  8
0
 62
     0
100
AcDbLine
 10
212.39514
 20
163.57
 30
0.0
 11
212.6271399999999
 21
163.802
 31
0.0
  0
LINE
  5
9E1
330
6F
100
AcDbEntity
  8
0
 62
     0
100
AcDbLine
 10
212.6271399999999
 20
163.802
 30
0.0
 11
212.7761399999999
 21
164.0959999999999
 31
0.0
  0
LINE
  5
9E2
330
6F
100
AcDbEntity
  8
0
 62
     0
100
AcDbLine
 10
212.7761399999999
 20
164.0959999999999
 30
0.0
 11
212.82814
 21
164.419
 31
0.0
  0
LINE
  5
9E3
330
6F
100
AcDbEntity
  8
0
 62
     0
100
AcDbLine
 10
212.82814
 20
164.419
 30
0.0
 11
212.7761399999999
 21
164.745
 31
0.0
  0
LINE
  5
9E4
330
6F
100
AcDbEntity
  8
0
 62
     0
100
AcDbLine
 10
212.7761399999999
 20
164.745
 30
0.0
 11
212.6271399999999
 21
165.037
 31
0.0
  0
LINE
  5
9E5
330
6F
100
AcDbEntity
  8
0
 62
     0
100
AcDbLine
 10
212.6271399999999
 20
165.037
 30
0.0
 11
212.39514
 21
165.27
 31
0.0
  0
LINE
  5
9E6
330
6F
100
AcDbEntity
  8
0
 62
     0
100
AcDbLine
 10
212.39514
 20
165.27
 30
0.0
 11
212.10214
 21
165.42
 31
0.0
  0
LINE
  5
9E7
330
6F
100
AcDbEntity
  8
0
 62
     0
100
AcDbLine
 10
212.10214
 20
165.42
 30
0.0
 11
211.77814
 21
165.469
 31
0.0
  0
LINE
  5
9E8
330
6F
100
AcDbEntity
  8
0
 62
     0
100
AcDbLine
 10
211.77814
 20
165.469
 30
0.0
 11
211.45314
 21
165.42
 31
0.0
  0
LINE
  5
9E9
330
6F
100
AcDbEntity
  8
0
 62
     0
100
AcDbLine
 10
139.5581399999999
 20
165.42
 30
0.0
 11
139.2661399999999
 21
165.27
 31
0.0
  0
LINE
  5
9EA
330
6F
100
AcDbEntity
  8
0
 62
     0
100
AcDbLine
 10
139.2661399999999
 20
165.27
 30
0.0
 11
139.03314
 21
165.037
 31
0.0
  0
LINE
  5
9EB
330
6F
100
AcDbEntity
  8
0
 62
     0
100
AcDbLine
 10
139.03314
 20
165.037
 30
0.0
 11
138.8841399999999
 21
164.745
 31
0.0
  0
LINE
  5
9EC
330
6F
100
AcDbEntity
  8
0
 62
     0
100
AcDbLine
 10
138.8841399999999
 20
164.745
 30
0.0
 11
138.8331399999999
 21
164.419
 31
0.0
  0
LINE
  5
9ED
330
6F
100
AcDbEntity
  8
0
 62
     0
100
AcDbLine
 10
138.8331399999999
 20
164.419
 30
0.0
 11
138.8841399999999
 21
164.0959999999999
 31
0.0
  0
LINE
  5
9EE
330
6F
100
AcDbEntity
  8
0
 62
     0
100
AcDbLine
 10
138.8841399999999
 20
164.0959999999999
 30
0.0
 11
139.03314
 21
163.802
 31
0.0
  0
LINE
  5
9EF
330
6F
100
AcDbEntity
  8
0
 62
     0
100
AcDbLine
 10
139.03314
 20
163.802
 30
0.0
 11
139.2661399999999
 21
163.57
 31
0.0
  0
LINE
  5
9F0
330
6F
100
AcDbEntity
  8
0
 62
     0
100
AcDbLine
 10
139.2661399999999
 20
163.57
 30
0.0
 11
139.5581399999999
 21
163.422
 31
0.0
  0
LINE
  5
9F1
330
6F
100
AcDbEntity
  8
0
 62
     0
100
AcDbLine
 10
139.5581399999999
 20
163.422
 30
0.0
 11
139.8831399999999
 21
163.369
 31
0.0
  0
LINE
  5
9F2
330
6F
100
AcDbEntity
  8
0
 62
     0
100
AcDbLine
 10
139.8831399999999
 20
163.369
 30
0.0
 11
140.20714
 21
163.422
 31
0.0
  0
LINE
  5
9F3
330
6F
100
AcDbEntity
  8
0
 62
     0
100
AcDbLine
 10
140.20714
 20
163.422
 30
0.0
 11
140.50014
 21
163.57
 31
0.0
  0
LINE
  5
9F4
330
6F
100
AcDbEntity
  8
0
 62
     0
100
AcDbLine
 10
140.50014
 20
163.57
 30
0.0
 11
140.7321399999999
 21
163.802
 31
0.0
  0
LINE
  5
9F5
330
6F
100
AcDbEntity
  8
0
 62
     0
100
AcDbLine
 10
140.7321399999999
 20
163.802
 30
0.0
 11
140.8821399999999
 21
164.0959999999999
 31
0.0
  0
LINE
  5
9F6
330
6F
100
AcDbEntity
  8
0
 62
     0
100
AcDbLine
 10
140.8821399999999
 20
164.0959999999999
 30
0.0
 11
140.93314
 21
164.419
 31
0.0
  0
LINE
  5
9F7
330
6F
100
AcDbEntity
  8
0
 62
     0
100
AcDbLine
 10
140.93314
 20
164.419
 30
0.0
 11
140.8821399999999
 21
164.745
 31
0.0
  0
LINE
  5
9F8
330
6F
100
AcDbEntity
  8
0
 62
     0
100
AcDbLine
 10
140.8821399999999
 20
164.745
 30
0.0
 11
140.7321399999999
 21
165.037
 31
0.0
  0
LINE
  5
9F9
330
6F
100
AcDbEntity
  8
0
 62
     0
100
AcDbLine
 10
140.7321399999999
 20
165.037
 30
0.0
 11
140.50014
 21
165.27
 31
0.0
  0
LINE
  5
9FA
330
6F
100
AcDbEntity
  8
0
 62
     0
100
AcDbLine
 10
140.50014
 20
165.27
 30
0.0
 11
140.20714
 21
165.42
 31
0.0
  0
LINE
  5
9FB
330
6F
100
AcDbEntity
  8
0
 62
     0
100
AcDbLine
 10
140.20714
 20
165.42
 30
0.0
 11
139.8831399999999
 21
165.469
 31
0.0
  0
LINE
  5
9FC
330
6F
100
AcDbEntity
  8
0
 62
     0
100
AcDbLine
 10
139.8831399999999
 20
165.469
 30
0.0
 11
139.5581399999999
 21
165.42
 31
0.0
  0
LINE
  5
9FD
330
6F
100
AcDbEntity
  8
0
 62
     0
100
AcDbLine
 10
67.66433999999994
 20
165.42
 30
0.0
 11
67.37223999999992
 21
165.27
 31
0.0
  0
LINE
  5
9FE
330
6F
100
AcDbEntity
  8
0
 62
     0
100
AcDbLine
 10
67.37223999999992
 20
165.27
 30
0.0
 11
67.13943999999992
 21
165.037
 31
0.0
  0
LINE
  5
9FF
330
6F
100
AcDbEntity
  8
0
 62
     0
100
AcDbLine
 10
67.13943999999992
 20
165.037
 30
0.0
 11
66.99054000000001
 21
164.745
 31
0.0
  0
LINE
  5
A00
330
6F
100
AcDbEntity
  8
0
 62
     0
100
AcDbLine
 10
66.99054000000001
 20
164.745
 30
0.0
 11
66.93833999999992
 21
164.419
 31
0.0
  0
LINE
  5
A01
330
6F
100
AcDbEntity
  8
0
 62
     0
100
AcDbLine
 10
66.93833999999992
 20
164.419
 30
0.0
 11
66.99054000000001
 21
164.0959999999999
 31
0.0
  0
LINE
  5
A02
330
6F
100
AcDbEntity
  8
0
 62
     0
100
AcDbLine
 10
66.99054000000001
 20
164.0959999999999
 30
0.0
 11
67.13943999999992
 21
163.802
 31
0.0
  0
LINE
  5
A03
330
6F
100
AcDbEntity
  8
0
 62
     0
100
AcDbLine
 10
67.13943999999992
 20
163.802
 30
0.0
 11
67.37223999999992
 21
163.57
 31
0.0
  0
LINE
  5
A04
330
6F
100
AcDbEntity
  8
0
 62
     0
100
AcDbLine
 10
67.37223999999992
 20
163.57
 30
0.0
 11
67.66433999999994
 21
163.422
 31
0.0
  0
LINE
  5
A05
330
6F
100
AcDbEntity
  8
0
 62
     0
100
AcDbLine
 10
67.66433999999994
 20
163.422
 30
0.0
 11
67.98813999999993
 21
163.369
 31
0.0
  0
LINE
  5
A06
330
6F
100
AcDbEntity
  8
0
 62
     0
100
AcDbLine
 10
67.98813999999993
 20
163.369
 30
0.0
 11
68.3134399999999
 21
163.422
 31
0.0
  0
LINE
  5
A07
330
6F
100
AcDbEntity
  8
0
 62
     0
100
AcDbLine
 10
68.3134399999999
 20
163.422
 30
0.0
 11
68.60553999999989
 21
163.57
 31
0.0
  0
LINE
  5
A08
330
6F
100
AcDbEntity
  8
0
 62
     0
100
AcDbLine
 10
68.60553999999989
 20
163.57
 30
0.0
 11
68.8387399999999
 21
163.802
 31
0.0
  0
LINE
  5
A09
330
6F
100
AcDbEntity
  8
0
 62
     0
100
AcDbLine
 10
68.8387399999999
 20
163.802
 30
0.0
 11
68.98723999999993
 21
164.0959999999999
 31
0.0
  0
LINE
  5
A0A
330
6F
100
AcDbEntity
  8
0
 62
     0
100
AcDbLine
 10
68.98723999999993
 20
164.0959999999999
 30
0.0
 11
69.03843999999992
 21
164.419
 31
0.0
  0
LINE
  5
A0B
330
6F
100
AcDbEntity
  8
0
 62
     0
100
AcDbLine
 10
69.03843999999992
 20
164.419
 30
0.0
 11
68.98723999999993
 21
164.745
 31
0.0
  0
LINE
  5
A0C
330
6F
100
AcDbEntity
  8
0
 62
     0
100
AcDbLine
 10
68.98723999999993
 20
164.745
 30
0.0
 11
68.8387399999999
 21
165.037
 31
0.0
  0
LINE
  5
A0D
330
6F
100
AcDbEntity
  8
0
 62
     0
100
AcDbLine
 10
68.8387399999999
 20
165.037
 30
0.0
 11
68.60553999999989
 21
165.27
 31
0.0
  0
LINE
  5
A0E
330
6F
100
AcDbEntity
  8
0
 62
     0
100
AcDbLine
 10
68.60553999999989
 20
165.27
 30
0.0
 11
68.3134399999999
 21
165.42
 31
0.0
  0
LINE
  5
A0F
330
6F
100
AcDbEntity
  8
0
 62
     0
100
AcDbLine
 10
68.3134399999999
 20
165.42
 30
0.0
 11
67.98813999999993
 21
165.469
 31
0.0
  0
LINE
  5
A10
330
6F
100
AcDbEntity
  8
0
 62
     0
100
AcDbLine
 10
67.98813999999993
 20
165.469
 30
0.0
 11
67.66433999999994
 21
165.42
 31
0.0
  0
ENDSEC
  0
SECTION
  2
OBJECTS
  0
DICTIONARY
  5
C
330
0
100
AcDbDictionary
281
     1
  3
ACAD_CIP_PREVIOUS_PRODUCT_INFO
350
2B2
  3
ACAD_COLOR
350
62
  3
ACAD_DETAILVIEWSTYLE
350
69
  3
ACAD_GROUP
350
D
  3
ACAD_LAYOUT
350
61
  3
ACAD_MATERIAL
350
10
  3
ACAD_MLEADERSTYLE
350
65
  3
ACAD_MLINESTYLE
350
5E
  3
ACAD_PLOTSETTINGS
350
60
  3
ACAD_PLOTSTYLENAME
350
E
  3
ACAD_SCALELIST
350
42
  3
ACAD_SECTIONVIEWSTYLE
350
67
  3
ACAD_TABLESTYLE
350
63
  3
ACAD_VISUALSTYLE
350
29
  3
ACDB_RECOMPOSE_DATA
350
A30
  3
AcDbVariableDictionary
350
2F8
  0
DICTIONARY
  5
2C8
330
2
100
AcDbDictionary
280
     1
281
     1
  3
ACAD_LAYERSTATES
360
2C9
  0
DICTIONARY
  5
34F
330
54
100
AcDbDictionary
280
     1
281
     1
  3
ADSK_XREC_LAYER_RECONCILED
360
350
  0
XRECORD
  5
2B2
102
{ACAD_REACTORS
330
C
102
}
330
C
100
AcDbXrecord
280
     1
300
ACD
300
2021
300

  0
DICTIONARY
  5
62
102
{ACAD_REACTORS
330
C
102
}
330
C
100
AcDbDictionary
281
     1
  0
DICTIONARY
  5
69
102
{ACAD_REACTORS
330
C
102
}
330
C
100
AcDbDictionary
281
     1
  3
Imperial24
350
6A
  0
DICTIONARY
  5
D
102
{ACAD_REACTORS
330
C
102
}
330
C
100
AcDbDictionary
281
     1
  0
DICTIONARY
  5
61
102
{ACAD_REACTORS
330
C
102
}
330
C
100
AcDbDictionary
281
     1
  3
Layout1
350
6E
  3
Model
350
72
  0
DICTIONARY
  5
10
102
{ACAD_REACTORS
330
C
102
}
330
C
100
AcDbDictionary
281
     1
  3
ByBlock
350
19
  3
ByLayer
350
11
  3
Global
350
21
  0
DICTIONARY
  5
65
102
{ACAD_REACTORS
330
C
102
}
330
C
100
AcDbDictionary
281
     1
  3
Standard
350
66
  0
DICTIONARY
  5
5E
102
{ACAD_REACTORS
330
C
102
}
330
C
100
AcDbDictionary
281
     1
  3
Standard
350
5F
  0
DICTIONARY
  5
60
102
{ACAD_REACTORS
330
C
102
}
330
C
100
AcDbDictionary
281
     1
  0
ACDBDICTIONARYWDFLT
  5
E
102
{ACAD_REACTORS
330
C
102
}
330
C
100
AcDbDictionary
281
     1
  3
Normal
350
F
100
AcDbDictionaryWithDefault
340
F
  0
DICTIONARY
  5
42
102
{ACAD_REACTORS
330
C
102
}
330
C
100
AcDbDictionary
281
     1
  3
A0
350
43
  3
A1
350
44
  3
A2
350
45
  3
A3
350
46
  3
A4
350
47
  3
A5
350
48
  3
A6
350
49
  3
A7
350
4A
  3
A8
350
4B
  3
A9
350
4C
  3
B0
350
4D
  3
B1
350
4E
  3
B2
350
4F
  3
B3
350
50
  3
B4
350
51
  3
B5
350
52
  3
B6
350
53
  0
DICTIONARY
  5
67
102
{ACAD_REACTORS
330
C
102
}
330
C
100
AcDbDictionary
281
     1
  3
Imperial24
350
68
  0
DICTIONARY
  5
63
102
{ACAD_REACTORS
330
C
102
}
330
C
100
AcDbDictionary
281
     1
  3
Standard
350
64
  0
DICTIONARY
  5
29
102
{ACAD_REACTORS
330
C
102
}
330
C
100
AcDbDictionary
281
     1
  3
2dWireframe
350
2F
  3
Basic
350
2E
  3
Brighten
350
35
  3
ColorChange
350
39
  3
Conceptual
350
32
  3
Dim
350
34
  3
EdgeColorOff
350
41
  3
Facepattern
350
38
  3
Flat
350
2A
  3
FlatWithEdges
350
2B
  3
Gouraud
350
2C
  3
GouraudWithEdges
350
2D
  3
Hidden
350
31
  3
JitterOff
350
3F
  3
Linepattern
350
37
  3
OverhangOff
350
40
  3
Realistic
350
33
  3
Shaded
350
3E
  3
Shaded with edges
350
3D
  3
Shades of Gray
350
3A
  3
Sketchy
350
3B
  3
Thicken
350
36
  3
Wireframe
350
30
  3
X-Ray
350
3C
  0
XRECORD
  5
A30
102
{ACAD_REACTORS
330
C
102
}
330
C
100
AcDbXrecord
280
     1
 90
        1
330
64
  0
DICTIONARY
  5
2F8
102
{ACAD_REACTORS
330
C
102
}
330
C
100
AcDbDictionary
281
     1
  3
CANNOSCALE
350
2FE
  3
CMLEADERSTYLE
350
2FA
  3
CTABLESTYLE
350
2F9
  3
CVIEWDETAILSTYLE
350
2FB
  3
CVIEWSECTIONSTYLE
350
2FC
  3
LAYEREVAL
350
300
  3
LAYERNOTIFY
350
301
  3
LIGHTINGUNITS
350
2FF
  3
MSLTSCALE
350
2FD
  0
DICTIONARY
  5
2C9
102
{ACAD_REACTORS
330
2C8
102
}
330
2C8
100
AcDbDictionary
281
     1
  0
XRECORD
  5
350
102
{ACAD_REACTORS
330
34F
102
}
330
34F
100
AcDbXrecord
280
     1
290
     1
  0
ACDBDETAILVIEWSTYLE
  5
6A
102
{ACAD_REACTORS
330
69
102
}
330
69
100
AcDbModelDocViewStyle
 70
     0
  3
Imperial24
290
     0
300
Imperial24
 90
        0
100
AcDbDetailViewStyle
 70
     0
 71
     0
 90
        3
 71
     1
340
55
 62
   256
 40
0.24
340
0
 62
   256
 40
0.24
300

 40
0.36
280
     3
 71
     2
340
5C
 90
       25
 62
   256
 71
     3
340
55
 62
   256
 40
0.24
 90
        1
 40
0.75
 90
        1
300
%<\AcVar ViewType \f "%tc1">% %<\AcVar ViewDetailId>%\PSCALE %<\AcVar ViewScale \f "%sn">%
 71
     4
340
5C
 90
       25
 62
   256
340
5C
 90
       25
 62
   256
280
     0
  0
LAYOUT
  5
6E
102
{ACAD_REACTORS
330
61
102
}
330
61
100
AcDbPlotSettings
  1

  2
Microsoft Print to PDF
  4

  6

 40
0.0
 41
0.0
 42
0.0
 43
0.0
 44
0.0
 45
0.0
 46
0.0
 47
0.0
 48
0.0
 49
0.0
140
0.0
141
0.0
142
1.0
143
1.0
 70
   688
 72
     0
 73
     0
 74
     5
  7

 75
    16
147
1.0
 76
     0
 77
     2
 78
   300
148
0.0
149
0.0
100
AcDbLayout
  1
Layout1
 70
     1
 71
     1
 10
0.0
 20
0.0
 11
12.0
 21
9.0
 12
0.0
 22
0.0
 32
0.0
 14
1.000000000000000E+20
 24
1.000000000000000E+20
 34
1.000000000000000E+20
 15
-1.000000000000000E+20
 25
-1.000000000000000E+20
 35
-1.000000000000000E+20
146
0.0
 13
0.0
 23
0.0
 33
0.0
 16
1.0
 26
0.0
 36
0.0
 17
0.0
 27
1.0
 37
0.0
 76
     0
330
6B
  0
LAYOUT
  5
72
102
{ACAD_REACTORS
330
61
102
}
330
61
100
AcDbPlotSettings
  1

  2
Microsoft Print to PDF
  4

  6

 40
0.0
 41
0.0
 42
0.0
 43
0.0
 44
0.0
 45
0.0
 46
0.0
 47
0.0
 48
0.0
 49
0.0
140
0.0
141
0.0
142
1.0
143
1.0
 70
  1712
 72
     0
 73
     0
 74
     0
  7

 75
     0
147
1.0
 76
     0
 77
     2
 78
   300
148
0.0
149
0.0
100
AcDbLayout
  1
Model
 70
     1
 71
     0
 10
0.0
 20
0.0
 11
12.0
 21
9.0
 12
0.0
 22
0.0
 32
0.0
 14
0.0
 24
0.0
 34
0.0
 15
0.0
 25
0.0
 35
0.0
146
0.0
 13
0.0
 23
0.0
 33
0.0
 16
1.0
 26
0.0
 36
0.0
 17
0.0
 27
1.0
 37
0.0
 76
     0
330
6F
331
74
  0
MATERIAL
  5
19
102
{ACAD_XDICTIONARY
360
1A
102
}
102
{ACAD_REACTORS
330
10
102
}
330
10
100
AcDbMaterial
  1
ByBlock
 72
     0
 43
0.0208333333333333
 43
0.0
 43
0.0
 43
0.0
 43
0.0
 43
0.0208333333333333
 43
0.0
 43
0.0
 43
0.0
 43
0.0
 43
1.0
 43
0.0
 43
0.0
 43
0.0
 43
0.0
 43
1.0
 77
     0
 47
0.0208333333333333
 47
0.0
 47
0.0
 47
0.0
 47
0.0
 47
0.0208333333333333
 47
0.0
 47
0.0
 47
0.0
 47
0.0
 47
1.0
 47
0.0
 47
0.0
 47
0.0
 47
0.0
 47
1.0
171
     0
 49
0.0208333333333333
 49
0.0
 49
0.0
 49
0.0
 49
0.0
 49
0.0208333333333333
 49
0.0
 49
0.0
 49
0.0
 49
0.0
 49
1.0
 49
0.0
 49
0.0
 49
0.0
 49
0.0
 49
1.0
175
     0
142
0.0208333333333333
142
0.0
142
0.0
142
0.0
142
0.0
142
0.0208333333333333
142
0.0
142
0.0
142
0.0
142
0.0
142
1.0
142
0.0
142
0.0
142
0.0
142
0.0
142
1.0
179
     0
144
0.0208333333333333
144
0.0
144
0.0
144
0.0
144
0.0
144
0.0208333333333333
144
0.0
144
0.0
144
0.0
144
0.0
144
1.0
144
0.0
144
0.0
144
0.0
144
0.0
144
1.0
147
0.0208333333333333
147
0.0
147
0.0
147
0.0
147
0.0
147
0.0208333333333333
147
0.0
147
0.0
147
0.0
147
0.0
147
1.0
147
0.0
147
0.0
147
0.0
147
0.0
147
1.0
  0
MATERIAL
  5
11
102
{ACAD_XDICTIONARY
360
12
102
}
102
{ACAD_REACTORS
330
10
102
}
330
10
100
AcDbMaterial
  1
ByLayer
 72
     0
 43
0.0208333333333333
 43
0.0
 43
0.0
 43
0.0
 43
0.0
 43
0.0208333333333333
 43
0.0
 43
0.0
 43
0.0
 43
0.0
 43
1.0
 43
0.0
 43
0.0
 43
0.0
 43
0.0
 43
1.0
 77
     0
 47
0.0208333333333333
 47
0.0
 47
0.0
 47
0.0
 47
0.0
 47
0.0208333333333333
 47
0.0
 47
0.0
 47
0.0
 47
0.0
 47
1.0
 47
0.0
 47
0.0
 47
0.0
 47
0.0
 47
1.0
171
     0
 49
0.0208333333333333
 49
0.0
 49
0.0
 49
0.0
 49
0.0
 49
0.0208333333333333
 49
0.0
 49
0.0
 49
0.0
 49
0.0
 49
1.0
 49
0.0
 49
0.0
 49
0.0
 49
0.0
 49
1.0
175
     0
142
0.0208333333333333
142
0.0
142
0.0
142
0.0
142
0.0
142
0.0208333333333333
142
0.0
142
0.0
142
0.0
142
0.0
142
1.0
142
0.0
142
0.0
142
0.0
142
0.0
142
1.0
179
     0
144
0.0208333333333333
144
0.0
144
0.0
144
0.0
144
0.0
144
0.0208333333333333
144
0.0
144
0.0
144
0.0
144
0.0
144
1.0
144
0.0
144
0.0
144
0.0
144
0.0
144
1.0
147
0.0208333333333333
147
0.0
147
0.0
147
0.0
147
0.0
147
0.0208333333333333
147
0.0
147
0.0
147
0.0
147
0.0
147
1.0
147
0.0
147
0.0
147
0.0
147
0.0
147
1.0
  0
MATERIAL
  5
21
102
{ACAD_XDICTIONARY
360
22
102
}
102
{ACAD_REACTORS
330
10
102
}
330
10
100
AcDbMaterial
  1
Global
 72
     0
 43
0.0208333333333333
 43
0.0
 43
0.0
 43
0.0
 43
0.0
 43
0.0208333333333333
 43
0.0
 43
0.0
 43
0.0
 43
0.0
 43
1.0
 43
0.0
 43
0.0
 43
0.0
 43
0.0
 43
1.0
 77
     0
 47
0.0208333333333333
 47
0.0
 47
0.0
 47
0.0
 47
0.0
 47
0.0208333333333333
 47
0.0
 47
0.0
 47
0.0
 47
0.0
 47
1.0
 47
0.0
 47
0.0
 47
0.0
 47
0.0
 47
1.0
171
     0
 49
0.0208333333333333
 49
0.0
 49
0.0
 49
0.0
 49
0.0
 49
0.0208333333333333
 49
0.0
 49
0.0
 49
0.0
 49
0.0
 49
1.0
 49
0.0
 49
0.0
 49
0.0
 49
0.0
 49
1.0
175
     0
142
0.0208333333333333
142
0.0
142
0.0
142
0.0
142
0.0
142
0.0208333333333333
142
0.0
142
0.0
142
0.0
142
0.0
142
1.0
142
0.0
142
0.0
142
0.0
142
0.0
142
1.0
179
     0
144
0.0208333333333333
144
0.0
144
0.0
144
0.0
144
0.0
144
0.0208333333333333
144
0.0
144
0.0
144
0.0
144
0.0
144
1.0
144
0.0
144
0.0
144
0.0
144
0.0
144
1.0
147
0.0208333333333333
147
0.0
147
0.0
147
0.0
147
0.0
147
0.0208333333333333
147
0.0
147
0.0
147
0.0
147
0.0
147
1.0
147
0.0
147
0.0
147
0.0
147
0.0
147
1.0
  0
MLEADERSTYLE
  5
66
102
{ACAD_REACTORS
330
65
102
}
330
65
100
AcDbMLeaderStyle
179
     2
170
     2
171
     1
172
     0
 90
        2
 40
0.0
 41
0.0
173
     1
 91
-1056964608
340
5A
 92
       -2
290
     1
 42
0.09
291
     1
 43
0.36
  3
Standard
 44
0.18
300

342
55
174
     1
178
     6
175
     1
176
     0
 93
-1056964608
 45
0.18
292
     0
297
     0
 46
0.18
 94
-1056964608
 47
1.0
 49
1.0
140
1.0
293
     1
141
0.0
294
     1
177
     0
142
1.0
295
     0
296
     0
143
0.125
271
     0
272
     9
273
     9
298
     0
  0
MLINESTYLE
  5
5F
102
{ACAD_REACTORS
330
5E
102
}
330
5E
100
AcDbMlineStyle
  2
STANDARD
 70
     0
  3

 62
   256
 51
90.0
 52
90.0
 71
     2
 49
0.5
 62
   256
  6
BYLAYER
 49
-0.5
 62
   256
  6
BYLAYER
  0
ACDBPLACEHOLDER
  5
F
102
{ACAD_REACTORS
330
E
102
}
330
E
  0
SCALE
  5
43
102
{ACAD_REACTORS
330
42
102
}
330
42
100
AcDbScale
 70
     0
300
1:1
140
1.0
141
1.0
290
     1
  0
SCALE
  5
44
102
{ACAD_REACTORS
330
42
102
}
330
42
100
AcDbScale
 70
     0
300
1/128" = 1'-0"
140
0.0078125
141
12.0
290
     0
  0
SCALE
  5
45
102
{ACAD_REACTORS
330
42
102
}
330
42
100
AcDbScale
 70
     0
300
1/64" = 1'-0"
140
0.015625
141
12.0
290
     0
  0
SCALE
  5
46
102
{ACAD_REACTORS
330
42
102
}
330
42
100
AcDbScale
 70
     0
300
1/32" = 1'-0"
140
0.03125
141
12.0
290
     0
  0
SCALE
  5
47
102
{ACAD_REACTORS
330
42
102
}
330
42
100
AcDbScale
 70
     0
300
1/16" = 1'-0"
140
0.0625
141
12.0
290
     0
  0
SCALE
  5
48
102
{ACAD_REACTORS
330
42
102
}
330
42
100
AcDbScale
 70
     0
300
3/32" = 1'-0"
140
0.09375
141
12.0
290
     0
  0
SCALE
  5
49
102
{ACAD_REACTORS
330
42
102
}
330
42
100
AcDbScale
 70
     0
300
1/8" = 1'-0"
140
0.125
141
12.0
290
     0
  0
SCALE
  5
4A
102
{ACAD_REACTORS
330
42
102
}
330
42
100
AcDbScale
 70
     0
300
3/16" = 1'-0"
140
0.1875
141
12.0
290
     0
  0
SCALE
  5
4B
102
{ACAD_REACTORS
330
42
102
}
330
42
100
AcDbScale
 70
     0
300
1/4" = 1'-0"
140
0.25
141
12.0
290
     0
  0
SCALE
  5
4C
102
{ACAD_REACTORS
330
42
102
}
330
42
100
AcDbScale
 70
     0
300
3/8" = 1'-0"
140
0.375
141
12.0
290
     0
  0
SCALE
  5
4D
102
{ACAD_REACTORS
330
42
102
}
330
42
100
AcDbScale
 70
     0
300
1/2" = 1'-0"
140
0.5
141
12.0
290
     0
  0
SCALE
  5
4E
102
{ACAD_REACTORS
330
42
102
}
330
42
100
AcDbScale
 70
     0
300
3/4" = 1'-0"
140
0.75
141
12.0
290
     0
  0
SCALE
  5
4F
102
{ACAD_REACTORS
330
42
102
}
330
42
100
AcDbScale
 70
     0
300
1" = 1'-0"
140
1.0
141
12.0
290
     0
  0
SCALE
  5
50
102
{ACAD_REACTORS
330
42
102
}
330
42
100
AcDbScale
 70
     0
300
1-1/2" = 1'-0"
140
1.5
141
12.0
290
     0
  0
SCALE
  5
51
102
{ACAD_REACTORS
330
42
102
}
330
42
100
AcDbScale
 70
     0
300
3" = 1'-0"
140
3.0
141
12.0
290
     0
  0
SCALE
  5
52
102
{ACAD_REACTORS
330
42
102
}
330
42
100
AcDbScale
 70
     0
300
6" = 1'-0"
140
6.0
141
12.0
290
     0
  0
SCALE
  5
53
102
{ACAD_REACTORS
330
42
102
}
330
42
100
AcDbScale
 70
     0
300
1'-0" = 1'-0"
140
12.0
141
12.0
290
     0
  0
ACDBSECTIONVIEWSTYLE
  5
68
102
{ACAD_REACTORS
330
67
102
}
330
67
100
AcDbModelDocViewStyle
 70
     0
  3
Imperial24
290
     0
300
Imperial24
 90
        0
100
AcDbSectionViewStyle
 70
     0
 71
     0
 90
       78
 71
     1
340
55
 62
   256
 40
0.24
340
0
340
0
 62
   256
 40
0.24
300
I, O, Q, S, X, Z
 40
0.48
 90
        3
 40
0.18
 90
        1
 71
     2
340
5C
 90
       25
 62
   256
340
5C
 90
       50
 62
   256
 40
0.24
 40
0.0
 40
0.24
 71
     3
340
55
 62
   256
 40
0.24
 90
        1
 40
0.75
 90
        1
300
%<\AcVar ViewType \f "%tc1">% %<\AcVar ViewSectionStartId>%-%<\AcVar ViewSectionEndId>%\PSCALE %<\AcVar ViewScale \f "%sn">%
 71
     4
 62
   256
 62
   257
300
ANSI31
 40
1.0
 90
        0
290
     0
290
     0
 90
        6
 40
0.0
 40
1.570796326794896
 40
0.2617993877991494
 40
1.308996938995747
 40
-0.2617993877991494
 40
1.832595714594044
  0
TABLESTYLE
  5
64
102
{ACAD_XDICTIONARY
360
362
102
}
102
{ACAD_REACTORS
330
63
102
}
330
63
100
AcDbTableStyle
280
     0
  3
Standard
 70
     0
 71
     0
 40
0.06
 41
0.06
280
     0
281
     0
  7
Standard
140
0.18
170
     2
 62
     0
 63
     7
283
     0
 90
      512
 91
        0
  1

274
    -2
284
     1
 64
     0
275
    -2
285
     1
 65
     0
276
    -2
286
     1
 66
     0
277
    -2
287
     1
 67
     0
278
    -2
288
     1
 68
     0
279
    -2
289
     1
 69
     0
  7
Standard
140
0.25
170
     5
 62
     0
 63
     7
283
     0
 90
      512
 91
        0
  1

274
    -2
284
     1
 64
     0
275
    -2
285
     1
 65
     0
276
    -2
286
     1
 66
     0
277
    -2
287
     1
 67
     0
278
    -2
288
     1
 68
     0
279
    -2
289
     1
 69
     0
  7
Standard
140
0.18
170
     5
 62
     0
 63
     7
283
     0
 90
      512
 91
        0
  1

274
    -2
284
     1
 64
     0
275
    -2
285
     1
 65
     0
276
    -2
286
     1
 66
     0
277
    -2
287
     1
 67
     0
278
    -2
288
     1
 68
     0
279
    -2
289
     1
 69
     0
  0
VISUALSTYLE
  5
2F
102
{ACAD_REACTORS
330
29
102
}
330
29
100
AcDbVisualStyle
  2
2dWireframe
 70
     4
177
     3
291
     0
 70
    58
 90
        0
176
     1
 90
        2
176
     1
 90
        0
176
     1
 90
        0
176
     1
 40
0.6
176
     1
 40
30.0
176
     1
 62
     7
420
 16777215
176
     1
 90
        1
176
     1
 90
        4
176
     1
 62
     7
176
     1
 62
   257
176
     1
 90
        1
176
     1
 90
        1
176
     1
 40
1.0
176
     1
 90
        0
176
     1
 62
   257
176
     1
 40
1.0
176
     1
 90
        1
176
     1
 90
        6
176
     1
 90
        2
176
     1
 62
     7
176
     1
 90
        5
176
     1
 90
        0
176
     1
 90
        0
176
     1
290
     0
176
     1
 90
        1
176
     1
 40
0.0
176
     1
 90
        0
176
     1
290
     1
176
     1
290
     1
176
     1
290
     0
176
     1
290
     0
176
     1
290
     0
176
     1
290
     0
176
     1
290
     0
176
     1
290
     0
176
     1
290
     0
176
     1
 90
       50
176
     1
 40
0.0
176
     1
 40
1.0
176
     1
 90
        0
176
     1
 62
    18
176
     1
 90
       50
176
     1
 90
        3
176
     1
 62
     5
420
      255
176
     1
290
     0
176
     1
 90
       50
176
     1
 90
       50
176
     1
 90
       50
176
     1
290
     0
176
     1
 90
       50
176
     1
 62
   256
176
     0
 40
1.0
176
     0
 90
        2
176
     1
  1
strokes_ogs.tif
176
     1
290
     0
176
     1
 40
1.0
176
     1
 40
1.0
176
     1
  0
VISUALSTYLE
  5
2E
102
{ACAD_REACTORS
330
29
102
}
330
29
100
AcDbVisualStyle
  2
Basic
 70
     7
177
     3
291
     1
 70
    58
 90
        1
176
     1
 90
        0
176
     1
 90
        1
176
     1
 90
        0
176
     1
 40
0.6
176
     1
 40
30.0
176
     1
 62
     7
420
 16777215
176
     1
 90
        0
176
     1
 90
        4
176
     1
 62
     7
176
     1
 62
   257
176
     1
 90
        1
176
     1
 90
        1
176
     1
 40
1.0
176
     1
 90
        8
176
     1
 62
     7
176
     1
 40
1.0
176
     1
 90
        1
176
     1
 90
        6
176
     1
 90
        2
176
     1
 62
     7
176
     1
 90
        5
176
     1
 90
        0
176
     1
 90
        0
176
     1
290
     0
176
     1
 90
        1
176
     1
 40
0.0
176
     1
 90
        0
176
     1
290
     0
176
     1
290
     1
176
     1
290
     1
176
     1
290
     0
176
     1
290
     0
176
     1
290
     0
176
     1
290
     0
176
     1
290
     0
176
     1
290
     0
176
     1
 90
       50
176
     1
 40
0.0
176
     1
 40
1.0
176
     1
 90
        0
176
     1
 62
    18
176
     1
 90
       50
176
     1
 90
        3
176
     1
 62
     5
420
      255
176
     1
290
     0
176
     1
 90
       50
176
     1
 90
       50
176
     1
 90
       50
176
     1
290
     0
176
     1
 90
       50
176
     1
 62
   256
176
     0
 40
1.0
176
     0
 90
        2
176
     1
  1
strokes_ogs.tif
176
     1
290
     0
176
     1
 40
1.0
176
     1
 40
1.0
176
     1
  0
VISUALSTYLE
  5
35
102
{ACAD_REACTORS
330
29
102
}
330
29
100
AcDbVisualStyle
  2
Brighten
 70
    12
177
     3
291
     1
 70
    58
 90
        2
176
     1
 90
        2
176
     1
 90
        0
176
     1
 90
        0
176
     1
 40
0.6
176
     1
 40
30.0
176
     1
 62
     7
420
 16777215
176
     1
 90
        1
176
     1
 90
        4
176
     1
 62
     7
176
     1
 62
   257
176
     1
 90
        1
176
     1
 90
        1
176
     1
 40
1.0
176
     1
 90
        8
176
     1
 62
     7
176
     1
 40
1.0
176
     1
 90
        1
176
     1
 90
        6
176
     1
 90
        2
176
     1
 62
     7
176
     1
 90
        5
176
     1
 90
        0
176
     1
 90
        0
176
     1
290
     0
176
     1
 90
        1
176
     1
 40
50.0
176
     1
 90
        0
176
     1
290
     0
176
     1
290
     1
176
     1
290
     1
176
     1
290
     0
176
     1
290
     0
176
     1
290
     0
176
     1
290
     0
176
     1
290
     0
176
     1
290
     0
176
     1
 90
       50
176
     1
 40
0.0
176
     1
 40
1.0
176
     1
 90
        0
176
     1
 62
    18
176
     1
 90
       50
176
     1
 90
        3
176
     1
 62
     5
420
      255
176
     1
290
     0
176
     1
 90
       50
176
     1
 90
       50
176
     1
 90
       50
176
     1
290
     0
176
     1
 90
       50
176
     1
 62
   256
176
     0
 40
1.0
176
     0
 90
        2
176
     1
  1
strokes_ogs.tif
176
     1
290
     0
176
     1
 40
1.0
176
     1
 40
1.0
176
     1
  0
VISUALSTYLE
  5
39
102
{ACAD_REACTORS
330
29
102
}
330
29
100
AcDbVisualStyle
  2
ColorChange
 70
    16
177
     3
291
     1
 70
    58
 90
        2
176
     1
 90
        2
176
     1
 90
        3
176
     1
 90
        0
176
     1
 40
0.6
176
     1
 40
30.0
176
     1
 62
     8
420
  8421504
176
     1
 90
        1
176
     1
 90
        4
176
     1
 62
     7
176
     1
 62
   257
176
     1
 90
        1
176
     1
 90
        1
176
     1
 40
1.0
176
     1
 90
        8
176
     1
 62
     8
420
  8421504
176
     1
 40
1.0
176
     1
 90
        1
176
     1
 90
        6
176
     1
 90
        2
176
     1
 62
     7
176
     1
 90
        5
176
     1
 90
        0
176
     1
 90
        0
176
     1
290
     0
176
     1
 90
        1
176
     1
 40
0.0
176
     1
 90
        0
176
     1
290
     0
176
     1
290
     1
176
     1
290
     1
176
     1
290
     0
176
     1
290
     0
176
     1
290
     0
176
     1
290
     0
176
     1
290
     0
176
     1
290
     0
176
     1
 90
       50
176
     1
 40
0.0
176
     1
 40
1.0
176
     1
 90
        0
176
     1
 62
    18
176
     1
 90
       50
176
     1
 90
        3
176
     1
 62
     5
420
      255
176
     1
290
     0
176
     1
 90
       50
176
     1
 90
       50
176
     1
 90
       50
176
     1
290
     0
176
     1
 90
       50
176
     1
 62
   256
176
     0
 40
1.0
176
     0
 90
        2
176
     1
  1
strokes_ogs.tif
176
     1
290
     0
176
     1
 40
1.0
176
     1
 40
1.0
176
     1
  0
VISUALSTYLE
  5
32
102
{ACAD_REACTORS
330
29
102
}
330
29
100
AcDbVisualStyle
  2
Conceptual
 70
     9
177
     3
291
     0
 70
    58
 90
        3
176
     1
 90
        2
176
     1
 90
        0
176
     1
 90
        0
176
     1
 40
0.6
176
     1
 40
30.0
176
     1
 62
     7
420
 16777215
176
     1
 90
        2
176
     1
 90
        2
176
     1
 62
     7
176
     1
 62
   257
176
     1
 90
        1
176
     1
 90
        1
176
     1
 40
179.0
176
     1
 90
        8
176
     1
 62
     7
176
     1
 40
1.0
176
     1
 90
        1
176
     1
 90
        6
176
     1
 90
        2
176
     1
 62
     7
176
     1
 90
        3
176
     1
 90
        0
176
     1
 90
        0
176
     1
290
     0
176
     1
 90
        1
176
     1
 40
0.0
176
     1
 90
        0
176
     1
290
     0
176
     1
290
     1
176
     1
290
     1
176
     1
290
     0
176
     1
290
     0
176
     1
290
     0
176
     1
290
     0
176
     1
290
     0
176
     1
290
     0
176
     1
 90
       50
176
     1
 40
0.0
176
     1
 40
1.0
176
     1
 90
        0
176
     1
 62
    18
176
     1
 90
       50
176
     1
 90
        3
176
     1
 62
     5
420
      255
176
     1
290
     0
176
     1
 90
       50
176
     1
 90
       50
176
     1
 90
       50
176
     1
290
     0
176
     1
 90
       50
176
     1
 62
   256
176
     0
 40
1.0
176
     0
 90
        2
176
     1
  1
strokes_ogs.tif
176
     1
290
     0
176
     1
 40
1.0
176
     1
 40
1.0
176
     1
  0
VISUALSTYLE
  5
34
102
{ACAD_REACTORS
330
29
102
}
330
29
100
AcDbVisualStyle
  2
Dim
 70
    11
177
     3
291
     1
 70
    58
 90
        2
176
     1
 90
        2
176
     1
 90
        0
176
     1
 90
        0
176
     1
 40
0.6
176
     1
 40
30.0
176
     1
 62
     7
420
 16777215
176
     1
 90
        1
176
     1
 90
        4
176
     1
 62
     7
176
     1
 62
   257
176
     1
 90
        1
176
     1
 90
        1
176
     1
 40
1.0
176
     1
 90
        8
176
     1
 62
     7
176
     1
 40
1.0
176
     1
 90
        1
176
     1
 90
        6
176
     1
 90
        2
176
     1
 62
     7
176
     1
 90
        5
176
     1
 90
        0
176
     1
 90
        0
176
     1
290
     0
176
     1
 90
        1
176
     1
 40
-50.0
176
     1
 90
        0
176
     1
290
     0
176
     1
290
     1
176
     1
290
     1
176
     1
290
     0
176
     1
290
     0
176
     1
290
     0
176
     1
290
     0
176
     1
290
     0
176
     1
290
     0
176
     1
 90
       50
176
     1
 40
0.0
176
     1
 40
1.0
176
     1
 90
        0
176
     1
 62
    18
176
     1
 90
       50
176
     1
 90
        3
176
     1
 62
     5
420
      255
176
     1
290
     0
176
     1
 90
       50
176
     1
 90
       50
176
     1
 90
       50
176
     1
290
     0
176
     1
 90
       50
176
     1
 62
   256
176
     0
 40
1.0
176
     0
 90
        2
176
     1
  1
strokes_ogs.tif
176
     1
290
     0
176
     1
 40
1.0
176
     1
 40
1.0
176
     1
  0
VISUALSTYLE
  5
41
102
{ACAD_REACTORS
330
29
102
}
330
29
100
AcDbVisualStyle
  2
EdgeColorOff
 70
    22
177
     3
291
     1
 70
    58
 90
        2
176
     0
 90
        2
176
     0
 90
        0
176
     0
 90
        0
176
     0
 40
0.6
176
     0
 40
30.0
176
     0
 62
     7
420
 16777215
176
     0
 90
        1
176
     0
 90
        4
176
     0
 62
     7
176
     0
 62
   257
176
     0
 90
        1
176
     0
 90
        1
176
     0
 40
1.0
176
     0
 90
        8
176
     2
 62
     7
176
     0
 40
1.0
176
     0
 90
        1
176
     0
 90
        6
176
     0
 90
        2
176
     0
 62
     7
176
     0
 90
        5
176
     0
 90
        0
176
     0
 90
        0
176
     0
290
     0
176
     0
 90
        1
176
     0
 40
0.0
176
     0
 90
        0
176
     0
290
     0
176
     1
290
     1
176
     1
290
     1
176
     1
290
     0
176
     1
290
     0
176
     1
290
     0
176
     1
290
     0
176
     1
290
     0
176
     1
290
     0
176
     1
 90
       50
176
     0
 40
0.0
176
     0
 40
1.0
176
     0
 90
        0
176
     0
 62
    18
176
     0
 90
       50
176
     0
 90
        3
176
     0
 62
     5
420
      255
176
     0
290
     0
176
     1
 90
       50
176
     0
 90
       50
176
     0
 90
       50
176
     0
290
     0
176
     1
 90
       50
176
     0
 62
   256
176
     0
 40
1.0
176
     0
 90
        2
176
     0
  1
strokes_ogs.tif
176
     0
290
     0
176
     1
 40
1.0
176
     0
 40
1.0
176
     0
  0
VISUALSTYLE
  5
38
102
{ACAD_REACTORS
330
29
102
}
330
29
100
AcDbVisualStyle
  2
Facepattern
 70
    15
177
     3
291
     1
 70
    58
 90
        2
176
     1
 90
        2
176
     1
 90
        0
176
     1
 90
        0
176
     1
 40
0.6
176
     1
 40
30.0
176
     1
 62
     7
420
 16777215
176
     1
 90
        1
176
     1
 90
        4
176
     1
 62
     7
176
     1
 62
   257
176
     1
 90
        1
176
     1
 90
        1
176
     1
 40
1.0
176
     1
 90
        8
176
     1
 62
     7
176
     1
 40
1.0
176
     1
 90
        1
176
     1
 90
        6
176
     1
 90
        2
176
     1
 62
     7
176
     1
 90
        5
176
     1
 90
        0
176
     1
 90
        0
176
     1
290
     0
176
     1
 90
        1
176
     1
 40
0.0
176
     1
 90
        0
176
     1
290
     0
176
     1
290
     1
176
     1
290
     1
176
     1
290
     0
176
     1
290
     0
176
     1
290
     0
176
     1
290
     0
176
     1
290
     0
176
     1
290
     0
176
     1
 90
       50
176
     1
 40
0.0
176
     1
 40
1.0
176
     1
 90
        0
176
     1
 62
    18
176
     1
 90
       50
176
     1
 90
        3
176
     1
 62
     5
420
      255
176
     1
290
     0
176
     1
 90
       50
176
     1
 90
       50
176
     1
 90
       50
176
     1
290
     0
176
     1
 90
       50
176
     1
 62
   256
176
     0
 40
1.0
176
     0
 90
        2
176
     1
  1
strokes_ogs.tif
176
     1
290
     0
176
     1
 40
1.0
176
     1
 40
1.0
176
     1
  0
VISUALSTYLE
  5
2A
102
{ACAD_REACTORS
330
29
102
}
330
29
100
AcDbVisualStyle
  2
Flat
 70
     0
177
     3
291
     1
 70
    58
 90
        2
176
     1
 90
        1
176
     1
 90
        1
176
     1
 90
        2
176
     1
 40
0.6
176
     1
 40
30.0
176
     1
 62
     7
420
 16777215
176
     1
 90
        0
176
     1
 90
        0
176
     1
 62
     7
176
     1
 62
   257
176
     1
 90
        1
176
     1
 90
        1
176
     1
 40
1.0
176
     1
 90
        8
176
     1
 62
     7
176
     1
 40
1.0
176
     1
 90
        1
176
     1
 90
        6
176
     1
 90
        2
176
     1
 62
     7
176
     1
 90
        5
176
     1
 90
        0
176
     1
 90
        0
176
     1
290
     0
176
     1
 90
       13
176
     1
 40
0.0
176
     1
 90
        0
176
     1
290
     0
176
     1
290
     1
176
     1
290
     1
176
     1
290
     0
176
     1
290
     0
176
     1
290
     0
176
     1
290
     0
176
     1
290
     0
176
     1
290
     0
176
     1
 90
       50
176
     1
 40
0.0
176
     1
 40
1.0
176
     1
 90
        0
176
     1
 62
    18
176
     1
 90
       50
176
     1
 90
        3
176
     1
 62
     5
420
      255
176
     1
290
     0
176
     1
 90
       50
176
     1
 90
       50
176
     1
 90
       50
176
     1
290
     0
176
     1
 90
       50
176
     1
 62
   256
176
     0
 40
1.0
176
     0
 90
        2
176
     1
  1
strokes_ogs.tif
176
     1
290
     0
176
     1
 40
1.0
176
     1
 40
1.0
176
     1
  0
VISUALSTYLE
  5
2B
102
{ACAD_REACTORS
330
29
102
}
330
29
100
AcDbVisualStyle
  2
FlatWithEdges
 70
     1
177
     3
291
     1
 70
    58
 90
        2
176
     1
 90
        1
176
     1
 90
        1
176
     1
 90
        2
176
     1
 40
0.6
176
     1
 40
30.0
176
     1
 62
     7
420
 16777215
176
     1
 90
        1
176
     1
 90
        0
176
     1
 62
     7
176
     1
 62
   257
176
     1
 90
        1
176
     1
 90
        1
176
     1
 40
1.0
176
     1
 90
        0
176
     1
 62
   257
176
     1
 40
1.0
176
     1
 90
        1
176
     1
 90
        6
176
     1
 90
        2
176
     1
 62
     7
176
     1
 90
        5
176
     1
 90
        0
176
     1
 90
        0
176
     1
290
     0
176
     1
 90
       13
176
     1
 40
0.0
176
     1
 90
        0
176
     1
290
     0
176
     1
290
     1
176
     1
290
     1
176
     1
290
     0
176
     1
290
     0
176
     1
290
     0
176
     1
290
     0
176
     1
290
     0
176
     1
290
     0
176
     1
 90
       50
176
     1
 40
0.0
176
     1
 40
1.0
176
     1
 90
        0
176
     1
 62
    18
176
     1
 90
       50
176
     1
 90
        3
176
     1
 62
     5
420
      255
176
     1
290
     0
176
     1
 90
       50
176
     1
 90
       50
176
     1
 90
       50
176
     1
290
     0
176
     1
 90
       50
176
     1
 62
   256
176
     0
 40
1.0
176
     0
 90
        2
176
     1
  1
strokes_ogs.tif
176
     1
290
     0
176
     1
 40
1.0
176
     1
 40
1.0
176
     1
  0
VISUALSTYLE
  5
2C
102
{ACAD_REACTORS
330
29
102
}
330
29
100
AcDbVisualStyle
  2
Gouraud
 70
     2
177
     3
291
     1
 70
    58
 90
        2
176
     1
 90
        2
176
     1
 90
        1
176
     1
 90
        2
176
     1
 40
0.6
176
     1
 40
30.0
176
     1
 62
     7
420
 16777215
176
     1
 90
        0
176
     1
 90
        0
176
     1
 62
     7
176
     1
 62
   257
176
     1
 90
        1
176
     1
 90
        1
176
     1
 40
1.0
176
     1
 90
        0
176
     1
 62
     7
176
     1
 40
1.0
176
     1
 90
        1
176
     1
 90
        6
176
     1
 90
        2
176
     1
 62
     7
176
     1
 90
        5
176
     1
 90
        0
176
     1
 90
        0
176
     1
290
     0
176
     1
 90
       13
176
     1
 40
0.0
176
     1
 90
        0
176
     1
290
     0
176
     1
290
     1
176
     1
290
     1
176
     1
290
     0
176
     1
290
     0
176
     1
290
     0
176
     1
290
     0
176
     1
290
     0
176
     1
290
     0
176
     1
 90
       50
176
     1
 40
0.0
176
     1
 40
1.0
176
     1
 90
        0
176
     1
 62
    18
176
     1
 90
       50
176
     1
 90
        3
176
     1
 62
     5
420
      255
176
     1
290
     0
176
     1
 90
       50
176
     1
 90
       50
176
     1
 90
       50
176
     1
290
     0
176
     1
 90
       50
176
     1
 62
   256
176
     0
 40
1.0
176
     0
 90
        2
176
     1
  1
strokes_ogs.tif
176
     1
290
     0
176
     1
 40
1.0
176
     1
 40
1.0
176
     1
  0
VISUALSTYLE
  5
2D
102
{ACAD_REACTORS
330
29
102
}
330
29
100
AcDbVisualStyle
  2
GouraudWithEdges
 70
     3
177
     3
291
     1
 70
    58
 90
        2
176
     1
 90
        2
176
     1
 90
        1
176
     1
 90
        2
176
     1
 40
0.6
176
     1
 40
30.0
176
     1
 62
     7
420
 16777215
176
     1
 90
        1
176
     1
 90
        0
176
     1
 62
     7
176
     1
 62
   257
176
     1
 90
        1
176
     1
 90
        1
176
     1
 40
1.0
176
     1
 90
        0
176
     1
 62
   257
176
     1
 40
1.0
176
     1
 90
        1
176
     1
 90
        6
176
     1
 90
        2
176
     1
 62
     7
176
     1
 90
        5
176
     1
 90
        0
176
     1
 90
        0
176
     1
290
     0
176
     1
 90
       13
176
     1
 40
0.0
176
     1
 90
        0
176
     1
290
     0
176
     1
290
     1
176
     1
290
     1
176
     1
290
     0
176
     1
290
     0
176
     1
290
     0
176
     1
290
     0
176
     1
290
     0
176
     1
290
     0
176
     1
 90
       50
176
     1
 40
0.0
176
     1
 40
1.0
176
     1
 90
        0
176
     1
 62
    18
176
     1
 90
       50
176
     1
 90
        3
176
     1
 62
     5
420
      255
176
     1
290
     0
176
     1
 90
       50
176
     1
 90
       50
176
     1
 90
       50
176
     1
290
     0
176
     1
 90
       50
176
     1
 62
   256
176
     0
 40
1.0
176
     0
 90
        2
176
     1
  1
strokes_ogs.tif
176
     1
290
     0
176
     1
 40
1.0
176
     1
 40
1.0
176
     1
  0
VISUALSTYLE
  5
31
102
{ACAD_REACTORS
330
29
102
}
330
29
100
AcDbVisualStyle
  2
Hidden
 70
     6
177
     3
291
     0
 70
    58
 90
        1
176
     1
 90
        2
176
     1
 90
        2
176
     1
 90
        0
176
     1
 40
0.6
176
     1
 40
30.0
176
     1
 62
     7
420
 16777215
176
     1
 90
        2
176
     1
 90
        2
176
     1
 62
     7
176
     1
 62
   257
176
     1
 90
        2
176
     1
 90
        1
176
     1
 40
40.0
176
     1
 90
        0
176
     1
 62
   257
176
     1
 40
1.0
176
     1
 90
        1
176
     1
 90
        6
176
     1
 90
        2
176
     1
 62
     7
176
     1
 90
        3
176
     1
 90
        0
176
     1
 90
        0
176
     1
290
     0
176
     1
 90
        1
176
     1
 40
0.0
176
     1
 90
        0
176
     1
290
     0
176
     1
290
     1
176
     1
290
     1
176
     1
290
     0
176
     1
290
     0
176
     1
290
     0
176
     1
290
     0
176
     1
290
     0
176
     1
290
     0
176
     1
 90
       50
176
     1
 40
0.0
176
     1
 40
1.0
176
     1
 90
        0
176
     1
 62
    18
176
     1
 90
       50
176
     1
 90
        3
176
     1
 62
     5
420
      255
176
     1
290
     0
176
     1
 90
       50
176
     1
 90
       50
176
     1
 90
       50
176
     1
290
     0
176
     1
 90
       50
176
     1
 62
   256
176
     0
 40
1.0
176
     0
 90
        2
176
     1
  1
strokes_ogs.tif
176
     1
290
     0
176
     1
 40
1.0
176
     1
 40
1.0
176
     1
  0
VISUALSTYLE
  5
3F
102
{ACAD_REACTORS
330
29
102
}
330
29
100
AcDbVisualStyle
  2
JitterOff
 70
    20
177
     3
291
     1
 70
    58
 90
        2
176
     0
 90
        2
176
     0
 90
        0
176
     0
 90
        0
176
     0
 40
0.6
176
     0
 40
30.0
176
     0
 62
     7
420
 16777215
176
     0
 90
        1
176
     0
 90
        4
176
     0
 62
     7
176
     0
 62
   257
176
     0
 90
        1
176
     0
 90
        1
176
     0
 40
1.0
176
     0
 90
       10
176
     2
 62
     7
176
     0
 40
1.0
176
     0
 90
        1
176
     0
 90
        6
176
     0
 90
        2
176
     0
 62
     7
176
     0
 90
        5
176
     0
 90
        0
176
     0
 90
        0
176
     0
290
     0
176
     0
 90
        1
176
     0
 40
0.0
176
     0
 90
        0
176
     0
290
     0
176
     1
290
     1
176
     1
290
     1
176
     1
290
     0
176
     1
290
     0
176
     1
290
     0
176
     1
290
     0
176
     1
290
     0
176
     1
290
     0
176
     1
 90
       50
176
     0
 40
0.0
176
     0
 40
1.0
176
     0
 90
        0
176
     0
 62
    18
176
     0
 90
       50
176
     0
 90
        3
176
     0
 62
     5
420
      255
176
     0
290
     0
176
     1
 90
       50
176
     0
 90
       50
176
     0
 90
       50
176
     0
290
     0
176
     1
 90
       50
176
     0
 62
   256
176
     0
 40
1.0
176
     0
 90
        2
176
     0
  1
strokes_ogs.tif
176
     0
290
     0
176
     1
 40
1.0
176
     0
 40
1.0
176
     0
  0
VISUALSTYLE
  5
37
102
{ACAD_REACTORS
330
29
102
}
330
29
100
AcDbVisualStyle
  2
Linepattern
 70
    14
177
     3
291
     1
 70
    58
 90
        2
176
     1
 90
        2
176
     1
 90
        0
176
     1
 90
        0
176
     1
 40
0.6
176
     1
 40
30.0
176
     1
 62
     7
420
 16777215
176
     1
 90
        1
176
     1
 90
        4
176
     1
 62
     7
176
     1
 62
   257
176
     1
 90
        7
176
     1
 90
        7
176
     1
 40
1.0
176
     1
 90
        8
176
     1
 62
     7
176
     1
 40
1.0
176
     1
 90
        1
176
     1
 90
        6
176
     1
 90
        2
176
     1
 62
     7
176
     1
 90
        5
176
     1
 90
        0
176
     1
 90
        0
176
     1
290
     0
176
     1
 90
        1
176
     1
 40
0.0
176
     1
 90
        0
176
     1
290
     0
176
     1
290
     1
176
     1
290
     1
176
     1
290
     0
176
     1
290
     0
176
     1
290
     0
176
     1
290
     0
176
     1
290
     0
176
     1
290
     0
176
     1
 90
       50
176
     1
 40
0.0
176
     1
 40
1.0
176
     1
 90
        0
176
     1
 62
    18
176
     1
 90
       50
176
     1
 90
        3
176
     1
 62
     5
420
      255
176
     1
290
     0
176
     1
 90
       50
176
     1
 90
       50
176
     1
 90
       50
176
     1
290
     0
176
     1
 90
       50
176
     1
 62
   256
176
     0
 40
1.0
176
     0
 90
        2
176
     1
  1
strokes_ogs.tif
176
     1
290
     0
176
     1
 40
1.0
176
     1
 40
1.0
176
     1
  0
VISUALSTYLE
  5
40
102
{ACAD_REACTORS
330
29
102
}
330
29
100
AcDbVisualStyle
  2
OverhangOff
 70
    21
177
     3
291
     1
 70
    58
 90
        2
176
     0
 90
        2
176
     0
 90
        0
176
     0
 90
        0
176
     0
 40
0.6
176
     0
 40
30.0
176
     0
 62
     7
420
 16777215
176
     0
 90
        1
176
     0
 90
        4
176
     0
 62
     7
176
     0
 62
   257
176
     0
 90
        1
176
     0
 90
        1
176
     0
 40
1.0
176
     0
 90
        9
176
     2
 62
     7
176
     0
 40
1.0
176
     0
 90
        1
176
     0
 90
        6
176
     0
 90
        2
176
     0
 62
     7
176
     0
 90
        5
176
     0
 90
        0
176
     0
 90
        0
176
     0
290
     0
176
     0
 90
        1
176
     0
 40
0.0
176
     0
 90
        0
176
     0
290
     0
176
     1
290
     1
176
     1
290
     1
176
     1
290
     0
176
     1
290
     0
176
     1
290
     0
176
     1
290
     0
176
     1
290
     0
176
     1
290
     0
176
     1
 90
       50
176
     0
 40
0.0
176
     0
 40
1.0
176
     0
 90
        0
176
     0
 62
    18
176
     0
 90
       50
176
     0
 90
        3
176
     0
 62
     5
420
      255
176
     0
290
     0
176
     1
 90
       50
176
     0
 90
       50
176
     0
 90
       50
176
     0
290
     0
176
     1
 90
       50
176
     0
 62
   256
176
     0
 40
1.0
176
     0
 90
        2
176
     0
  1
strokes_ogs.tif
176
     0
290
     0
176
     1
 40
1.0
176
     0
 40
1.0
176
     0
  0
VISUALSTYLE
  5
33
102
{ACAD_REACTORS
330
29
102
}
330
29
100
AcDbVisualStyle
  2
Realistic
 70
     8
177
     3
291
     0
 70
    58
 90
        2
176
     1
 90
        3
176
     1
 90
        0
176
     1
 90
        2
176
     1
 40
0.6
176
     1
 40
30.0
176
     1
 62
     7
420
 16777215
176
     1
 90
        0
176
     1
 90
        0
176
     1
 62
     7
176
     1
 62
   257
176
     1
 90
        1
176
     1
 90
        1
176
     1
 40
1.0
176
     1
 90
        8
176
     1
 62
   257
176
     1
 40
1.0
176
     1
 90
        1
176
     1
 90
        6
176
     1
 90
        2
176
     1
 62
     7
176
     1
 90
        3
176
     1
 90
        0
176
     1
 90
        0
176
     1
290
     0
176
     1
 90
       13
176
     1
 40
0.0
176
     1
 90
        0
176
     1
290
     0
176
     1
290
     1
176
     1
290
     1
176
     1
290
     0
176
     1
290
     0
176
     1
290
     0
176
     1
290
     0
176
     1
290
     0
176
     1
290
     0
176
     1
 90
       50
176
     1
 40
0.0
176
     1
 40
1.0
176
     1
 90
        0
176
     1
 62
    18
176
     1
 90
       50
176
     1
 90
        3
176
     1
 62
     5
420
      255
176
     1
290
     0
176
     1
 90
       50
176
     1
 90
       50
176
     1
 90
       50
176
     1
290
     0
176
     1
 90
       50
176
     1
 62
   256
176
     0
 40
1.0
176
     0
 90
        2
176
     1
  1
strokes_ogs.tif
176
     1
290
     0
176
     1
 40
1.0
176
     1
 40
1.0
176
     1
  0
VISUALSTYLE
  5
3E
102
{ACAD_REACTORS
330
29
102
}
330
29
100
AcDbVisualStyle
  2
Shaded
 70
    27
177
     3
291
     0
 70
    58
 90
        2
176
     1
 90
        2
176
     1
 90
        1
176
     1
 90
        2
176
     1
 40
0.6
176
     1
 40
30.0
176
     1
 62
     7
420
 16777215
176
     1
 90
        0
176
     1
 90
        4
176
     1
 62
     7
176
     1
 62
   257
176
     1
 90
        1
176
     1
 90
        1
176
     1
 40
1.0
176
     1
 90
        8
176
     1
 62
   257
176
     1
 40
1.0
176
     1
 90
        1
176
     1
 90
        6
176
     1
 90
        2
176
     1
 62
     8
420
  7895160
176
     1
 90
        3
176
     1
 90
        0
176
     1
 90
        0
176
     1
290
     0
176
     1
 90
        5
176
     1
 40
0.0
176
     1
 90
        0
176
     1
290
     0
176
     1
290
     1
176
     1
290
     1
176
     1
290
     0
176
     1
290
     0
176
     1
290
     0
176
     1
290
     0
176
     1
290
     0
176
     1
290
     0
176
     1
 90
       50
176
     1
 40
0.0
176
     1
 40
1.0
176
     1
 90
        0
176
     1
 62
    18
176
     1
 90
       50
176
     1
 90
        3
176
     1
 62
     5
420
      255
176
     1
290
     0
176
     1
 90
       50
176
     1
 90
       50
176
     1
 90
       50
176
     1
290
     0
176
     1
 90
       50
176
     1
 62
   256
176
     0
 40
1.0
176
     0
 90
        2
176
     1
  1
strokes_ogs.tif
176
     1
290
     0
176
     1
 40
1.0
176
     1
 40
1.0
176
     1
  0
VISUALSTYLE
  5
3D
102
{ACAD_REACTORS
330
29
102
}
330
29
100
AcDbVisualStyle
  2
Shaded with edges
 70
    26
177
     3
291
     0
 70
    58
 90
        2
176
     1
 90
        2
176
     1
 90
        1
176
     1
 90
        2
176
     1
 40
0.6
176
     1
 40
30.0
176
     1
 62
     7
420
 16777215
176
     1
 90
        1
176
     1
 90
        2
176
     1
 62
     7
176
     1
 62
   257
176
     1
 90
        2
176
     1
 90
        1
176
     1
 40
1.0
176
     1
 90
        8
176
     1
 62
   257
176
     1
 40
1.0
176
     1
 90
        1
176
     1
 90
        6
176
     1
 90
        2
176
     1
 62
     7
176
     1
 90
        3
176
     1
 90
        0
176
     1
 90
        0
176
     1
290
     0
176
     1
 90
        5
176
     1
 40
0.0
176
     1
 90
        0
176
     1
290
     0
176
     1
290
     1
176
     1
290
     1
176
     1
290
     0
176
     1
290
     0
176
     1
290
     0
176
     1
290
     0
176
     1
290
     0
176
     1
290
     0
176
     1
 90
       50
176
     1
 40
0.0
176
     1
 40
1.0
176
     1
 90
        0
176
     1
 62
    18
176
     1
 90
       50
176
     1
 90
        3
176
     1
 62
     5
420
      255
176
     1
290
     0
176
     1
 90
       50
176
     1
 90
       50
176
     1
 90
       50
176
     1
290
     0
176
     1
 90
       50
176
     1
 62
   256
176
     0
 40
1.0
176
     0
 90
        2
176
     1
  1
strokes_ogs.tif
176
     1
290
     0
176
     1
 40
1.0
176
     1
 40
1.0
176
     1
  0
VISUALSTYLE
  5
3A
102
{ACAD_REACTORS
330
29
102
}
330
29
100
AcDbVisualStyle
  2
Shades of Gray
 70
    23
177
     3
291
     0
 70
    58
 90
        2
176
     1
 90
        2
176
     1
 90
        3
176
     1
 90
        0
176
     1
 40
0.6
176
     1
 40
30.0
176
     1
 62
     7
420
 16777215
176
     1
 90
        2
176
     1
 90
        2
176
     1
 62
     7
176
     1
 62
     7
176
     1
 90
        1
176
     1
 90
        1
176
     1
 40
40.0
176
     1
 90
        8
176
     1
 62
     7
176
     1
 40
1.0
176
     1
 90
        1
176
     1
 90
        6
176
     1
 90
        2
176
     1
 62
     7
176
     1
 90
        3
176
     1
 90
        0
176
     1
 90
        0
176
     1
290
     0
176
     1
 90
        1
176
     1
 40
0.0
176
     1
 90
        0
176
     1
290
     0
176
     1
290
     1
176
     1
290
     1
176
     1
290
     0
176
     1
290
     0
176
     1
290
     0
176
     1
290
     0
176
     1
290
     0
176
     1
290
     0
176
     1
 90
       50
176
     1
 40
0.0
176
     1
 40
1.0
176
     1
 90
        0
176
     1
 62
    18
176
     1
 90
       50
176
     1
 90
        3
176
     1
 62
     5
420
      255
176
     1
290
     0
176
     1
 90
       50
176
     1
 90
       50
176
     1
 90
       50
176
     1
290
     0
176
     1
 90
       50
176
     1
 62
   256
176
     0
 40
1.0
176
     0
 90
        2
176
     1
  1
strokes_ogs.tif
176
     1
290
     0
176
     1
 40
1.0
176
     1
 40
1.0
176
     1
  0
VISUALSTYLE
  5
3B
102
{ACAD_REACTORS
330
29
102
}
330
29
100
AcDbVisualStyle
  2
Sketchy
 70
    24
177
     3
291
     0
 70
    58
 90
        1
176
     1
 90
        2
176
     1
 90
        2
176
     1
 90
        0
176
     1
 40
0.6
176
     1
 40
30.0
176
     1
 62
     7
420
 16777215
176
     1
 90
        2
176
     1
 90
        2
176
     1
 62
     7
176
     1
 62
     7
176
     1
 90
        1
176
     1
 90
        1
176
     1
 40
40.0
176
     1
 90
       11
176
     1
 62
     7
176
     1
 40
1.0
176
     1
 90
        1
176
     1
 90
        6
176
     1
 90
        2
176
     1
 62
     7
176
     1
 90
        6
176
     1
 90
        0
176
     1
 90
        0
176
     1
290
     0
176
     1
 90
        1
176
     1
 40
0.0
176
     1
 90
        0
176
     1
290
     0
176
     1
290
     1
176
     1
290
     1
176
     1
290
     0
176
     1
290
     0
176
     1
290
     0
176
     1
290
     0
176
     1
290
     0
176
     1
290
     0
176
     1
 90
       50
176
     1
 40
0.0
176
     1
 40
1.0
176
     1
 90
        0
176
     1
 62
    18
176
     1
 90
       50
176
     1
 90
        3
176
     1
 62
     5
420
      255
176
     1
290
     0
176
     1
 90
       50
176
     1
 90
       50
176
     1
 90
       50
176
     1
290
     0
176
     1
 90
       50
176
     1
 62
   256
176
     0
 40
1.0
176
     0
 90
        2
176
     1
  1
strokes_ogs.tif
176
     1
290
     0
176
     1
 40
1.0
176
     1
 40
1.0
176
     1
  0
VISUALSTYLE
  5
36
102
{ACAD_REACTORS
330
29
102
}
330
29
100
AcDbVisualStyle
  2
Thicken
 70
    13
177
     3
291
     1
 70
    58
 90
        2
176
     1
 90
        2
176
     1
 90
        0
176
     1
 90
        0
176
     1
 40
0.6
176
     1
 40
30.0
176
     1
 62
     7
420
 16777215
176
     1
 90
        1
176
     1
 90
        4
176
     1
 62
     7
176
     1
 62
   257
176
     1
 90
        1
176
     1
 90
        1
176
     1
 40
1.0
176
     1
 90
       12
176
     1
 62
     7
176
     1
 40
1.0
176
     1
 90
        1
176
     1
 90
        6
176
     1
 90
        2
176
     1
 62
     7
176
     1
 90
        5
176
     1
 90
        0
176
     1
 90
        0
176
     1
290
     0
176
     1
 90
        1
176
     1
 40
0.0
176
     1
 90
        0
176
     1
290
     0
176
     1
290
     1
176
     1
290
     1
176
     1
290
     0
176
     1
290
     0
176
     1
290
     0
176
     1
290
     0
176
     1
290
     0
176
     1
290
     0
176
     1
 90
       50
176
     1
 40
0.0
176
     1
 40
1.0
176
     1
 90
        0
176
     1
 62
    18
176
     1
 90
       50
176
     1
 90
        3
176
     1
 62
     5
420
      255
176
     1
290
     0
176
     1
 90
       50
176
     1
 90
       50
176
     1
 90
       50
176
     1
290
     0
176
     1
 90
       50
176
     1
 62
   256
176
     0
 40
1.0
176
     0
 90
        2
176
     1
  1
strokes_ogs.tif
176
     1
290
     0
176
     1
 40
1.0
176
     1
 40
1.0
176
     1
  0
VISUALSTYLE
  5
30
102
{ACAD_REACTORS
330
29
102
}
330
29
100
AcDbVisualStyle
  2
Wireframe
 70
     5
177
     3
291
     0
 70
    58
 90
        0
176
     1
 90
        2
176
     1
 90
        0
176
     1
 90
        0
176
     1
 40
0.6
176
     1
 40
30.0
176
     1
 62
     7
420
 16777215
176
     1
 90
        1
176
     1
 90
        4
176
     1
 62
     7
176
     1
 62
   257
176
     1
 90
        1
176
     1
 90
        1
176
     1
 40
1.0
176
     1
 90
        0
176
     1
 62
   257
176
     1
 40
1.0
176
     1
 90
        1
176
     1
 90
        6
176
     1
 90
        2
176
     1
 62
     7
176
     1
 90
        3
176
     1
 90
        0
176
     1
 90
        0
176
     1
290
     0
176
     1
 90
        1
176
     1
 40
0.0
176
     1
 90
        0
176
     1
290
     0
176
     1
290
     1
176
     1
290
     1
176
     1
290
     0
176
     1
290
     0
176
     1
290
     0
176
     1
290
     0
176
     1
290
     0
176
     1
290
     0
176
     1
 90
       50
176
     1
 40
0.0
176
     1
 40
1.0
176
     1
 90
        0
176
     1
 62
    18
176
     1
 90
       50
176
     1
 90
        3
176
     1
 62
     5
420
      255
176
     1
290
     0
176
     1
 90
       50
176
     1
 90
       50
176
     1
 90
       50
176
     1
290
     0
176
     1
 90
       50
176
     1
 62
   256
176
     0
 40
1.0
176
     0
 90
        2
176
     1
  1
strokes_ogs.tif
176
     1
290
     0
176
     1
 40
1.0
176
     1
 40
1.0
176
     1
  0
VISUALSTYLE
  5
3C
102
{ACAD_REACTORS
330
29
102
}
330
29
100
AcDbVisualStyle
  2
X-Ray
 70
    25
177
     3
291
     0
 70
    58
 90
        2
176
     1
 90
        2
176
     1
 90
        1
176
     1
 90
        1
176
     1
 40
0.5
176
     1
 40
30.0
176
     1
 62
     7
420
 16777215
176
     1
 90
        1
176
     1
 90
        0
176
     1
 62
     7
176
     1
 62
   257
176
     1
 90
        1
176
     1
 90
        1
176
     1
 40
1.0
176
     1
 90
        8
176
     1
 62
     7
176
     1
 40
1.0
176
     1
 90
        1
176
     1
 90
        6
176
     1
 90
        2
176
     1
 62
     7
176
     1
 90
        3
176
     1
 90
        0
176
     1
 90
        0
176
     1
290
     0
176
     1
 90
       13
176
     1
 40
0.0
176
     1
 90
        0
176
     1
290
     0
176
     1
290
     1
176
     1
290
     1
176
     1
290
     0
176
     1
290
     0
176
     1
290
     0
176
     1
290
     0
176
     1
290
     0
176
     1
290
     0
176
     1
 90
       50
176
     1
 40
0.0
176
     1
 40
1.0
176
     1
 90
        0
176
     1
 62
    18
176
     1
 90
       50
176
     1
 90
        3
176
     1
 62
     5
420
      255
176
     1
290
     0
176
     1
 90
       50
176
     1
 90
       50
176
     1
 90
       50
176
     1
290
     0
176
     1
 90
       50
176
     1
 62
   256
176
     0
 40
1.0
176
     0
 90
        2
176
     1
  1
strokes_ogs.tif
176
     1
290
     0
176
     1
 40
1.0
176
     1
 40
1.0
176
     1
  0
DICTIONARYVAR
  5
2FE
102
{ACAD_REACTORS
330
2F8
102
}
330
2F8
100
DictionaryVariables
280
     0
  1
1:1
  0
DICTIONARYVAR
  5
2FA
102
{ACAD_REACTORS
330
2F8
102
}
330
2F8
100
DictionaryVariables
280
     0
  1
STANDARD
  0
DICTIONARYVAR
  5
2F9
102
{ACAD_REACTORS
330
2F8
102
}
330
2F8
100
DictionaryVariables
280
     0
  1
STANDARD
  0
DICTIONARYVAR
  5
2FB
102
{ACAD_REACTORS
330
2F8
102
}
330
2F8
100
DictionaryVariables
280
     0
  1
Imperial24
  0
DICTIONARYVAR
  5
2FC
102
{ACAD_REACTORS
330
2F8
102
}
330
2F8
100
DictionaryVariables
280
     0
  1
Imperial24
  0
DICTIONARYVAR
  5
300
102
{ACAD_REACTORS
330
2F8
102
}
330
2F8
100
DictionaryVariables
280
     0
  1
1
  0
DICTIONARYVAR
  5
301
102
{ACAD_REACTORS
330
2F8
102
}
330
2F8
100
DictionaryVariables
280
     0
  1
15
  0
DICTIONARYVAR
  5
2FF
102
{ACAD_REACTORS
330
2F8
102
}
330
2F8
100
DictionaryVariables
280
     0
  1
0
  0
DICTIONARYVAR
  5
2FD
102
{ACAD_REACTORS
330
2F8
102
}
330
2F8
100
DictionaryVariables
280
     0
  1
0
  0
DICTIONARY
  5
1A
330
19
100
AcDbDictionary
280
     1
281
     1
  3
BUMPTILE
360
1C
  3
DIFFUSETILE
360
1B
  3
OPACITYTILE
360
1F
  3
REFLECTIONTILE
360
1E
  3
REFRACTIONTILE
360
20
  3
SPECULARTILE
360
1D
  0
DICTIONARY
  5
12
330
11
100
AcDbDictionary
280
     1
281
     1
  3
BUMPTILE
360
14
  3
DIFFUSETILE
360
13
  3
OPACITYTILE
360
17
  3
REFLECTIONTILE
360
16
  3
REFRACTIONTILE
360
18
  3
SPECULARTILE
360
15
  0
DICTIONARY
  5
22
330
21
100
AcDbDictionary
280
     1
281
     1
  3
BUMPTILE
360
24
  3
DIFFUSETILE
360
23
  3
OPACITYTILE
360
27
  3
REFLECTIONTILE
360
26
  3
REFRACTIONTILE
360
28
  3
SPECULARTILE
360
25
  0
DICTIONARY
  5
362
330
64
100
AcDbDictionary
280
     1
281
     1
  3
ACAD_ROUNDTRIP_2008_TABLESTYLE_CELLSTYLEMAP
360
A2F
  0
XRECORD
  5
1C
102
{ACAD_REACTORS
330
1A
102
}
330
1A
100
AcDbXrecord
280
     1
270
     1
271
     1
  0
XRECORD
  5
1B
102
{ACAD_REACTORS
330
1A
102
}
330
1A
100
AcDbXrecord
280
     1
270
     1
271
     1
  0
XRECORD
  5
1F
102
{ACAD_REACTORS
330
1A
102
}
330
1A
100
AcDbXrecord
280
     1
270
     1
271
     1
  0
XRECORD
  5
1E
102
{ACAD_REACTORS
330
1A
102
}
330
1A
100
AcDbXrecord
280
     1
270
     1
271
     1
  0
XRECORD
  5
20
102
{ACAD_REACTORS
330
1A
102
}
330
1A
100
AcDbXrecord
280
     1
270
     1
271
     1
  0
XRECORD
  5
1D
102
{ACAD_REACTORS
330
1A
102
}
330
1A
100
AcDbXrecord
280
     1
270
     1
271
     1
  0
XRECORD
  5
14
102
{ACAD_REACTORS
330
12
102
}
330
12
100
AcDbXrecord
280
     1
270
     1
271
     1
  0
XRECORD
  5
13
102
{ACAD_REACTORS
330
12
102
}
330
12
100
AcDbXrecord
280
     1
270
     1
271
     1
  0
XRECORD
  5
17
102
{ACAD_REACTORS
330
12
102
}
330
12
100
AcDbXrecord
280
     1
270
     1
271
     1
  0
XRECORD
  5
16
102
{ACAD_REACTORS
330
12
102
}
330
12
100
AcDbXrecord
280
     1
270
     1
271
     1
  0
XRECORD
  5
18
102
{ACAD_REACTORS
330
12
102
}
330
12
100
AcDbXrecord
280
     1
270
     1
271
     1
  0
XRECORD
  5
15
102
{ACAD_REACTORS
330
12
102
}
330
12
100
AcDbXrecord
280
     1
270
     1
271
     1
  0
XRECORD
  5
24
102
{ACAD_REACTORS
330
22
102
}
330
22
100
AcDbXrecord
280
     1
270
     1
271
     1
  0
XRECORD
  5
23
102
{ACAD_REACTORS
330
22
102
}
330
22
100
AcDbXrecord
280
     1
270
     1
271
     1
  0
XRECORD
  5
27
102
{ACAD_REACTORS
330
22
102
}
330
22
100
AcDbXrecord
280
     1
270
     1
271
     1
  0
XRECORD
  5
26
102
{ACAD_REACTORS
330
22
102
}
330
22
100
AcDbXrecord
280
     1
270
     1
271
     1
  0
XRECORD
  5
28
102
{ACAD_REACTORS
330
22
102
}
330
22
100
AcDbXrecord
280
     1
270
     1
271
     1
  0
XRECORD
  5
25
102
{ACAD_REACTORS
330
22
102
}
330
22
100
AcDbXrecord
280
     1
270
     1
271
     1
  0
CELLSTYLEMAP
  5
A2F
102
{ACAD_REACTORS
330
362
102
}
330
362
100
AcDbCellStyleMap
 90
        3
300
CELLSTYLE
  1
TABLEFORMAT_BEGIN
 90
        5
170
     1
 91
        0
 92
    32768
 62
   257
 93
        1
300
CONTENTFORMAT
  1
CONTENTFORMAT_BEGIN
 90
        0
 91
        0
 92
      512
 93
        0
300

 40
0.0
140
1.0
 94
        5
 62
     0
340
55
144
0.25
309
CONTENTFORMAT_END
171
     1
301
MARGIN
  1
CELLMARGIN_BEGIN
 40
0.06
 40
0.06
 40
0.06
 40
0.06
 40
0.18
 40
0.18
309
CELLMARGIN_END
 94
        6
 95
        1
302
GRIDFORMAT
  1
GRIDFORMAT_BEGIN
 90
        0
 91
        1
 62
     0
 92
       -2
340
0
 93
        0
 40
0.045
309
GRIDFORMAT_END
 95
        2
302
GRIDFORMAT
  1
GRIDFORMAT_BEGIN
 90
        0
 91
        1
 62
     0
 92
       -2
340
0
 93
        0
 40
0.045
309
GRIDFORMAT_END
 95
        4
302
GRIDFORMAT
  1
GRIDFORMAT_BEGIN
 90
        0
 91
        1
 62
     0
 92
       -2
340
0
 93
        0
 40
0.045
309
GRIDFORMAT_END
 95
        8
302
GRIDFORMAT
  1
GRIDFORMAT_BEGIN
 90
        0
 91
        1
 62
     0
 92
       -2
340
0
 93
        0
 40
0.045
309
GRIDFORMAT_END
 95
       16
302
GRIDFORMAT
  1
GRIDFORMAT_BEGIN
 90
        0
 91
        1
 62
     0
 92
       -2
340
0
 93
        0
 40
0.045
309
GRIDFORMAT_END
 95
       32
302
GRIDFORMAT
  1
GRIDFORMAT_BEGIN
 90
        0
 91
        1
 62
     0
 92
       -2
340
0
 93
        0
 40
0.045
309
GRIDFORMAT_END
309
TABLEFORMAT_END
  1
CELLSTYLE_BEGIN
 90
        1
 91
        1
300
_TITLE
309
CELLSTYLE_END
300
CELLSTYLE
  1
TABLEFORMAT_BEGIN
 90
        5
170
     1
 91
        0
 92
        0
 62
   257
 93
        1
300
CONTENTFORMAT
  1
CONTENTFORMAT_BEGIN
 90
        0
 91
        0
 92
      512
 93
        0
300

 40
0.0
140
1.0
 94
        5
 62
     0
340
55
144
0.18
309
CONTENTFORMAT_END
171
     1
301
MARGIN
  1
CELLMARGIN_BEGIN
 40
0.06
 40
0.06
 40
0.06
 40
0.06
 40
0.18
 40
0.18
309
CELLMARGIN_END
 94
        6
 95
        1
302
GRIDFORMAT
  1
GRIDFORMAT_BEGIN
 90
        0
 91
        1
 62
     0
 92
       -2
340
0
 93
        0
 40
0.045
309
GRIDFORMAT_END
 95
        2
302
GRIDFORMAT
  1
GRIDFORMAT_BEGIN
 90
        0
 91
        1
 62
     0
 92
       -2
340
0
 93
        0
 40
0.045
309
GRIDFORMAT_END
 95
        4
302
GRIDFORMAT
  1
GRIDFORMAT_BEGIN
 90
        0
 91
        1
 62
     0
 92
       -2
340
0
 93
        0
 40
0.045
309
GRIDFORMAT_END
 95
        8
302
GRIDFORMAT
  1
GRIDFORMAT_BEGIN
 90
        0
 91
        1
 62
     0
 92
       -2
340
0
 93
        0
 40
0.045
309
GRIDFORMAT_END
 95
       16
302
GRIDFORMAT
  1
GRIDFORMAT_BEGIN
 90
        0
 91
        1
 62
     0
 92
       -2
340
0
 93
        0
 40
0.045
309
GRIDFORMAT_END
 95
       32
302
GRIDFORMAT
  1
GRIDFORMAT_BEGIN
 90
        0
 91
        1
 62
     0
 92
       -2
340
0
 93
        0
 40
0.045
309
GRIDFORMAT_END
309
TABLEFORMAT_END
  1
CELLSTYLE_BEGIN
 90
        2
 91
        1
300
_HEADER
309
CELLSTYLE_END
300
CELLSTYLE
  1
TABLEFORMAT_BEGIN
 90
        5
170
     1
 91
        0
 92
        0
 62
   257
 93
        1
300
CONTENTFORMAT
  1
CONTENTFORMAT_BEGIN
 90
        0
 91
        0
 92
      512
 93
        0
300

 40
0.0
140
1.0
 94
        2
 62
     0
340
55
144
0.18
309
CONTENTFORMAT_END
171
     1
301
MARGIN
  1
CELLMARGIN_BEGIN
 40
0.06
 40
0.06
 40
0.06
 40
0.06
 40
0.18
 40
0.18
309
CELLMARGIN_END
 94
        6
 95
        1
302
GRIDFORMAT
  1
GRIDFORMAT_BEGIN
 90
        0
 91
        1
 62
     0
 92
       -2
340
0
 93
        0
 40
0.045
309
GRIDFORMAT_END
 95
        2
302
GRIDFORMAT
  1
GRIDFORMAT_BEGIN
 90
        0
 91
        1
 62
     0
 92
       -2
340
0
 93
        0
 40
0.045
309
GRIDFORMAT_END
 95
        4
302
GRIDFORMAT
  1
GRIDFORMAT_BEGIN
 90
        0
 91
        1
 62
     0
 92
       -2
340
0
 93
        0
 40
0.045
309
GRIDFORMAT_END
 95
        8
302
GRIDFORMAT
  1
GRIDFORMAT_BEGIN
 90
        0
 91
        1
 62
     0
 92
       -2
340
0
 93
        0
 40
0.045
309
GRIDFORMAT_END
 95
       16
302
GRIDFORMAT
  1
GRIDFORMAT_BEGIN
 90
        0
 91
        1
 62
     0
 92
       -2
340
0
 93
        0
 40
0.045
309
GRIDFORMAT_END
 95
       32
302
GRIDFORMAT
  1
GRIDFORMAT_BEGIN
 90
        0
 91
        1
 62
     0
 92
       -2
340
0
 93
        0
 40
0.045
309
GRIDFORMAT_END
309
TABLEFORMAT_END
  1
CELLSTYLE_BEGIN
 90
        3
 91
        2
300
_DATA
309
CELLSTYLE_END
  0
ENDSEC
  0
SECTION
  2
ACDSDATA
 70
     2
 71
     8
  0
ACDSSCHEMA
 90
        0
  1
AcDb_Thumbnail_Schema
  2
AcDbDs::ID
280
    10
 91
        8
  2
Thumbnail_Data
280
    15
 91
        0
101
ACDSRECORD
 95
        0
 90
        1
  2
AcDbDs::TreatedAsObjectData
280
     1
291
     1
101
ACDSRECORD
 95
        0
 90
        2
  2
AcDbDs::Legacy
280
     1
291
     1
101
ACDSRECORD
  1
AcDbDs::ID
 90
        3
  2
AcDs:Indexable
280
     1
291
     1
101
ACDSRECORD
  1
AcDbDs::ID
 90
        4
  2
AcDbDs::HandleAttribute
280
     7
282
     1
  0
ACDSSCHEMA
 90
        1
  1
AcDbDs::TreatedAsObjectDataSchema
  2
AcDbDs::TreatedAsObjectData
280
     1
 91
        0
  0
ACDSSCHEMA
 90
        2
  1
AcDbDs::LegacySchema
  2
AcDbDs::Legacy
280
     1
 91
        0
  0
ACDSSCHEMA
 90
        3
  1
AcDbDs::IndexedPropertySchema
  2
AcDs:Indexable
280
     1
 91
        0
  0
ACDSSCHEMA
 90
        4
  1
AcDbDs::HandleAttributeSchema
  2
AcDbDs::HandleAttribute
280
     7
 91
        1
284
     1
  0
ACDSRECORD
 90
        0
  2
AcDbDs::ID
280
    10
320
72
  2
Thumbnail_Data
280
    15
 94
     1708
310
89504E470D0A1A0A0000000D49484452000001000000006608030000001376BFA700000300504C5445212830FFFFFF2128300000000000000000000000000000000000000000000000000000330000660000990000CC0000FF0033000033330033660033990033CC0033FF0066000066330066660066990066CC0066FF0099
310
000099330099660099990099CC0099FF00CC0000CC3300CC6600CC9900CCCC00CCFF00FF0000FF3300FF6600FF9900FFCC00FFFF3300003300333300663300993300CC3300FF3333003333333333663333993333CC3333FF3366003366333366663366993366CC3366FF3399003399333399663399993399CC3399FF33CC00
310
33CC3333CC6633CC9933CCCC33CCFF33FF0033FF3333FF6633FF9933FFCC33FFFF6600006600336600666600996600CC6600FF6633006633336633666633996633CC6633FF6666006666336666666666996666CC6666FF6699006699336699666699996699CC6699FF66CC0066CC3366CC6666CC9966CCCC66CCFF66FF0066
310
FF3366FF6666FF9966FFCC66FFFF9900009900339900669900999900CC9900FF9933009933339933669933999933CC9933FF9966009966339966669966999966CC9966FF9999009999339999669999999999CC9999FF99CC0099CC3399CC6699CC9999CCCC99CCFF99FF0099FF3399FF6699FF9999FFCC99FFFFCC0000CC00
310
33CC0066CC0099CC00CCCC00FFCC3300CC3333CC3366CC3399CC33CCCC33FFCC6600CC6633CC6666CC6699CC66CCCC66FFCC9900CC9933CC9966CC9999CC99CCCC99FFCCCC00CCCC33CCCC66CCCC99CCCCCCCCCCFFCCFF00CCFF33CCFF66CCFF99CCFFCCCCFFFFFF0000FF0033FF0066FF0099FF00CCFF00FFFF3300FF3333
310
FF3366FF3399FF33CCFF33FFFF6600FF6633FF6666FF6699FF66CCFF66FFFF9900FF9933FF9966FF9999FF99CCFF99FFFFCC00FFCC33FFCC66FFCC99FFCCCCFFCCFFFFFF00FFFF33FFFF66FFFF99FFFFCCFFFFFF0000000D0D0D1A1A1A2828283535354343435050505D5D5D6B6B6B787878868686939393A1A1A1AEAEAEBB
310
BBBBC9C9C9D6D6D6E4E4E4F1F1F1FFFFFF0000000000000000000000000000000000000000000000000000000000002E4550F10000034A4944415478DAED5B4972C3300CD3FFFFCB7BA733B6448290D4249D866A8043B63A760891E022B73541100441F85DD81B5183808FBC34FF15D7B2DC8BF3D212F973597102FA8FB4EB
310
FDF5D2BECD78CEF670AE668390E6292943401B163B02ACD3F3E8B23746407A710C01F792EE88B88E8A273D9880FB53F73CE58038FD51044078F6C76EC13422DC81F791D63F0D22585903964E0DE67965F4148DB57D40334EA903BC830F4BA3CFEF82842865610258F2C6E56EC129D0FA55FAB7F850848018FED9A21111EE77
310
439EF087057589725094804902E832105DA17F15FF1E1D659956CE2000742F060DF390592E3C91001FE3EB8A7078F7C88573024A8AA081AD7435733C4005682E17C2198C2C7A5911CCF13C8B876165A8138CB5976EE5BD1CD622C03FFB52087D7BE1F5A3938662105CDF4A86C0240140656CACEF89AC9186D05211509C80E1
310
D0CE732722CF0E3A9A80CDE2A6BE27340E938EF82C0276E11D167B9F04818003447023F0E81390046947ECFB8353A6C2CC3A5703CE38DA9BE6BF5580003FA388236173358D913A9847492E2C7033A01A01590BAE82E7B6DDF788B9170497C6019985E8388800A87F51B75212B434413A980092E953FB67CD9B0D81B221A096
310
0832029235B90FBA45804AE59A8062CD101341EFAE7CF203F33D48966B112CD70D720A783F18CDDF27827966ACB42FE07A1CD7EFB17EB0278894089C83C09966C3D72A04C426302542BF7972BDB918C8DD10490458413917A9430053448BC6B9B627E84328782D77528DA7D9FA1E800248C3F80E8E552238808020D1C199A7
310
02070AB24A04793BB01A016EB30FD7779D08D763B145CE295907D01438EF07E9168885AFB104585204214EADC5963FAB5BEE85702C4643BE6C1AEC956EDEFACCF361F05F1B1D41340C0988D39182BD00129037BDC70028BA40DE12CED33F7EFF48E9107039CCF89C276D815C8553A327AC4D0011C1EEEE1688C28DA3160C6F
310
78274DDA0CA949C06A22D87C5E683911C6DB096FD268C95457037647B8450659B75D9CBC78E91A04349CE45BAA6BAC3DB3A007DE2C9DF633ACFDF8E6A87F41C0642EF84797AE41406A17DE75E977101035FC65213F908094C5458008100112C1D309F8F47F9B13044110044110044110044110044110044110044110044110
310
04411004A102BE001EBC447828EB46AF0000000049454E44AE4260822008822008C2BEF807B09A37120FC952CA0000000049454E44AE426082
  0
ENDSEC
  0
EOF
