  0
SECTION
  2
HEADER
  9
$ACADVER
  1
AC1009
  9
$EXTMIN
 10
0.0
 20
0.0
 30
0.0
  9
$EXTMAX
 10
1000.0
 20
1000.0
 30
0.0
  9
$FILLMODE
 70
 0
  9
$SPLFRAME
 70
 1
  0
ENDSEC
  0
SECTION
  2
TABLES
  0
TABLE
  2
LAYER
 70
1
  0
LAYER
  2
0
 70
     0
 62
     7
  6
CONTINUOUS
  0
ENDTAB
  0
ENDSEC
  0
SECTION
  2
ENTITIES
  0
LINE
  8
0
 62
     0
 10
364.568
 20
176.294
 30
0.0
 11
364.804
 21
176.284
 31
0.0
  0
LINE
  8
0
 62
     0
 10
364.804
 20
176.284
 30
0.0
 11
365.037
 21
176.258
 31
0.0
  0
LINE
  8
0
 62
     0
 10
365.037
 20
176.258
 30
0.0
 11
365.27
 21
176.211
 31
0.0
  0
LINE
  8
0
 62
     0
 10
365.27
 20
176.211
 30
0.0
 11
365.495
 21
176.148
 31
0.0
  0
LINE
  8
0
 62
     0
 10
365.495
 20
176.148
 30
0.0
 11
365.718
 21
176.065
 31
0.0
  0
LINE
  8
0
 62
     0
 10
365.718
 20
176.065
 30
0.0
 11
365.933
 21
175.967
 31
0.0
  0
LINE
  8
0
 62
     0
 10
365.933
 20
175.967
 30
0.0
 11
366.134
 21
175.852
 31
0.0
  0
LINE
  8
0
 62
     0
 10
366.134
 20
175.852
 30
0.0
 11
366.332
 21
175.722
 31
0.0
  0
LINE
  8
0
 62
     0
 10
366.332
 20
175.722
 30
0.0
 11
366.518
 21
175.576
 31
0.0
  0
LINE
  8
0
 62
     0
 10
366.518
 20
175.576
 30
0.0
 11
366.688
 21
175.416
 31
0.0
  0
LINE
  8
0
 62
     0
 10
366.688
 20
175.416
 30
0.0
 11
366.85
 21
175.242
 31
0.0
  0
LINE
  8
0
 62
     0
 10
366.85
 20
175.242
 30
0.0
 11
366.995
 21
175.058
 31
0.0
  0
LINE
  8
0
 62
     0
 10
366.995
 20
175.058
 30
0.0
 11
367.125
 21
174.862
 31
0.0
  0
LINE
  8
0
 62
     0
 10
367.125
 20
174.862
 30
0.0
 11
367.242
 21
174.655
 31
0.0
  0
LINE
  8
0
 62
     0
 10
367.242
 20
174.655
 30
0.0
 11
367.34
 21
174.442
 31
0.0
  0
LINE
  8
0
 62
     0
 10
367.34
 20
174.442
 30
0.0
 11
367.422
 21
174.221
 31
0.0
  0
LINE
  8
0
 62
     0
 10
367.422
 20
174.221
 30
0.0
 11
367.485
 21
173.994
 31
0.0
  0
LINE
  8
0
 62
     0
 10
367.485
 20
173.994
 30
0.0
 11
367.531
 21
173.764
 31
0.0
  0
LINE
  8
0
 62
     0
 10
367.531
 20
173.764
 30
0.0
 11
367.559
 21
173.53
 31
0.0
  0
LINE
  8
0
 62
     0
 10
367.559
 20
173.53
 30
0.0
 11
367.57
 21
173.294
 31
0.0
  0
LINE
  8
0
 62
     0
 10
367.57
 20
173.294
 30
0.0
 11
367.57
 21
3.27284
 31
0.0
  0
LINE
  8
0
 62
     0
 10
367.57
 20
3.27284
 30
0.0
 11
367.559
 21
3.0372
 31
0.0
  0
LINE
  8
0
 62
     0
 10
367.559
 20
3.0372
 30
0.0
 11
367.531
 21
2.80293
 31
0.0
  0
LINE
  8
0
 62
     0
 10
367.531
 20
2.80293
 30
0.0
 11
367.485
 21
2.5728
 31
0.0
  0
LINE
  8
0
 62
     0
 10
367.485
 20
2.5728
 30
0.0
 11
367.422
 21
2.34542
 31
0.0
  0
LINE
  8
0
 62
     0
 10
367.422
 20
2.34542
 30
0.0
 11
367.34
 21
2.12494
 31
0.0
  0
LINE
  8
0
 62
     0
 10
367.34
 20
2.12494
 30
0.0
 11
367.242
 21
1.91134
 31
0.0
  0
LINE
  8
0
 62
     0
 10
367.242
 20
1.91134
 30
0.0
 11
367.125
 21
1.70601
 31
0.0
  0
LINE
  8
0
 62
     0
 10
367.125
 20
1.70601
 30
0.0
 11
366.995
 21
1.50895
 31
0.0
  0
LINE
  8
0
 62
     0
 10
366.995
 20
1.50895
 30
0.0
 11
366.85
 21
1.3243
 31
0.0
  0
LINE
  8
0
 62
     0
 10
366.85
 20
1.3243
 30
0.0
 11
366.688
 21
1.15204
 31
0.0
  0
LINE
  8
0
 62
     0
 10
366.688
 20
1.15204
 30
0.0
 11
366.518
 21
0.990808
 31
0.0
  0
LINE
  8
0
 62
     0
 10
366.518
 20
0.990808
 30
0.0
 11
366.332
 21
0.844737
 31
0.0
  0
LINE
  8
0
 62
     0
 10
366.332
 20
0.844737
 30
0.0
 11
366.134
 21
0.7152
 31
0.0
  0
LINE
  8
0
 62
     0
 10
366.134
 20
0.7152
 30
0.0
 11
365.933
 21
0.599447
 31
0.0
  0
LINE
  8
0
 62
     0
 10
365.933
 20
0.599447
 30
0.0
 11
365.718
 21
0.501608
 31
0.0
  0
LINE
  8
0
 62
     0
 10
365.718
 20
0.501608
 30
0.0
 11
365.495
 21
0.418924
 31
0.0
  0
LINE
  8
0
 62
     0
 10
365.495
 20
0.418924
 30
0.0
 11
365.27
 21
0.355533
 31
0.0
  0
LINE
  8
0
 62
     0
 10
365.27
 20
0.355533
 30
0.0
 11
365.037
 21
0.310059
 31
0.0
  0
LINE
  8
0
 62
     0
 10
365.037
 20
0.310059
 30
0.0
 11
364.804
 21
0.282498
 31
0.0
  0
LINE
  8
0
 62
     0
 10
364.804
 20
0.282498
 30
0.0
 11
364.568
 21
0.272852
 31
0.0
  0
LINE
  8
0
 62
     0
 10
364.568
 20
0.272852
 30
0.0
 11
3.09507
 21
0.272852
 31
0.0
  0
LINE
  8
0
 62
     0
 10
3.09507
 20
0.272852
 30
0.0
 11
2.85943
 21
0.282498
 31
0.0
  0
LINE
  8
0
 62
     0
 10
2.85943
 20
0.282498
 30
0.0
 11
2.62516
 21
0.310059
 31
0.0
  0
LINE
  8
0
 62
     0
 10
2.62516
 20
0.310059
 30
0.0
 11
2.39503
 21
0.355533
 31
0.0
  0
LINE
  8
0
 62
     0
 10
2.39503
 20
0.355533
 30
0.0
 11
2.16765
 21
0.418924
 31
0.0
  0
LINE
  8
0
 62
     0
 10
2.16765
 20
0.418924
 30
0.0
 11
1.94717
 21
0.501608
 31
0.0
  0
LINE
  8
0
 62
     0
 10
1.94717
 20
0.501608
 30
0.0
 11
1.73357
 21
0.599447
 31
0.0
  0
LINE
  8
0
 62
     0
 10
1.73357
 20
0.599447
 30
0.0
 11
1.52687
 21
0.7152
 31
0.0
  0
LINE
  8
0
 62
     0
 10
1.52687
 20
0.7152
 30
0.0
 11
1.33119
 21
0.844737
 31
0.0
  0
LINE
  8
0
 62
     0
 10
1.33119
 20
0.844737
 30
0.0
 11
1.14653
 21
0.990808
 31
0.0
  0
LINE
  8
0
 62
     0
 10
1.14653
 20
0.990808
 30
0.0
 11
0.972894
 21
1.15204
 31
0.0
  0
LINE
  8
0
 62
     0
 10
0.972894
 20
1.15204
 30
0.0
 11
0.813043
 21
1.3243
 31
0.0
  0
LINE
  8
0
 62
     0
 10
0.813043
 20
1.3243
 30
0.0
 11
0.666972
 21
1.50895
 31
0.0
  0
LINE
  8
0
 62
     0
 10
0.666972
 20
1.50895
 30
0.0
 11
0.537436
 21
1.70601
 31
0.0
  0
LINE
  8
0
 62
     0
 10
0.537436
 20
1.70601
 30
0.0
 11
0.421679
 21
1.91134
 31
0.0
  0
LINE
  8
0
 62
     0
 10
0.421679
 20
1.91134
 30
0.0
 11
0.323839
 21
2.12494
 31
0.0
  0
LINE
  8
0
 62
     0
 10
0.323839
 20
2.12494
 30
0.0
 11
0.241157
 21
2.34542
 31
0.0
  0
LINE
  8
0
 62
     0
 10
0.241157
 20
2.34542
 30
0.0
 11
0.177767
 21
2.5728
 31
0.0
  0
LINE
  8
0
 62
     0
 10
0.177767
 20
2.5728
 30
0.0
 11
0.130914
 21
2.80293
 31
0.0
  0
LINE
  8
0
 62
     0
 10
0.130914
 20
2.80293
 30
0.0
 11
0.104731
 21
3.0372
 31
0.0
  0
LINE
  8
0
 62
     0
 10
0.104731
 20
3.0372
 30
0.0
 11
0.0950846
 21
3.27284
 31
0.0
  0
LINE
  8
0
 62
     0
 10
0.0950846
 20
3.27284
 30
0.0
 11
0.0950846
 21
173.294
 31
0.0
  0
LINE
  8
0
 62
     0
 10
0.0950846
 20
173.294
 30
0.0
 11
0.104731
 21
173.53
 31
0.0
  0
LINE
  8
0
 62
     0
 10
0.104731
 20
173.53
 30
0.0
 11
0.130914
 21
173.764
 31
0.0
  0
LINE
  8
0
 62
     0
 10
0.130914
 20
173.764
 30
0.0
 11
0.177767
 21
173.994
 31
0.0
  0
LINE
  8
0
 62
     0
 10
0.177767
 20
173.994
 30
0.0
 11
0.241157
 21
174.221
 31
0.0
  0
LINE
  8
0
 62
     0
 10
0.241157
 20
174.221
 30
0.0
 11
0.323839
 21
174.442
 31
0.0
  0
LINE
  8
0
 62
     0
 10
0.323839
 20
174.442
 30
0.0
 11
0.421679
 21
174.655
 31
0.0
  0
LINE
  8
0
 62
     0
 10
0.421679
 20
174.655
 30
0.0
 11
0.537436
 21
174.862
 31
0.0
  0
LINE
  8
0
 62
     0
 10
0.537436
 20
174.862
 30
0.0
 11
0.666972
 21
175.058
 31
0.0
  0
LINE
  8
0
 62
     0
 10
0.666972
 20
175.058
 30
0.0
 11
0.813043
 21
175.242
 31
0.0
  0
LINE
  8
0
 62
     0
 10
0.813043
 20
175.242
 30
0.0
 11
0.972894
 21
175.416
 31
0.0
  0
LINE
  8
0
 62
     0
 10
0.972894
 20
175.416
 30
0.0
 11
1.14653
 21
175.576
 31
0.0
  0
LINE
  8
0
 62
     0
 10
1.14653
 20
175.576
 30
0.0
 11
1.33119
 21
175.722
 31
0.0
  0
LINE
  8
0
 62
     0
 10
1.33119
 20
175.722
 30
0.0
 11
1.52687
 21
175.852
 31
0.0
  0
LINE
  8
0
 62
     0
 10
1.52687
 20
175.852
 30
0.0
 11
1.73357
 21
175.967
 31
0.0
  0
LINE
  8
0
 62
     0
 10
1.73357
 20
175.967
 30
0.0
 11
1.94717
 21
176.065
 31
0.0
  0
LINE
  8
0
 62
     0
 10
1.94717
 20
176.065
 30
0.0
 11
2.16765
 21
176.148
 31
0.0
  0
LINE
  8
0
 62
     0
 10
2.16765
 20
176.148
 30
0.0
 11
2.39503
 21
176.211
 31
0.0
  0
LINE
  8
0
 62
     0
 10
2.39503
 20
176.211
 30
0.0
 11
2.62516
 21
176.258
 31
0.0
  0
LINE
  8
0
 62
     0
 10
2.62516
 20
176.258
 30
0.0
 11
2.85943
 21
176.284
 31
0.0
  0
LINE
  8
0
 62
     0
 10
2.85943
 20
176.284
 30
0.0
 11
3.09507
 21
176.294
 31
0.0
  0
LINE
  8
0
 62
     0
 10
3.09507
 20
176.294
 30
0.0
 11
364.568
 21
176.294
 31
0.0
  0
LINE
  8
0
 62
     0
 10
3.77031
 20
5.27099
 30
0.0
 11
3.47817
 21
5.12216
 31
0.0
  0
LINE
  8
0
 62
     0
 10
3.47817
 20
5.12216
 30
0.0
 11
3.24528
 21
4.89066
 31
0.0
  0
LINE
  8
0
 62
     0
 10
3.24528
 20
4.89066
 30
0.0
 11
3.09507
 21
4.59715
 31
0.0
  0
LINE
  8
0
 62
     0
 10
3.09507
 20
4.59715
 30
0.0
 11
3.04409
 21
4.27193
 31
0.0
  0
LINE
  8
0
 62
     0
 10
3.04409
 20
4.27193
 30
0.0
 11
3.09507
 21
3.94808
 31
0.0
  0
LINE
  8
0
 62
     0
 10
3.09507
 20
3.94808
 30
0.0
 11
3.24528
 21
3.65594
 31
0.0
  0
LINE
  8
0
 62
     0
 10
3.24528
 20
3.65594
 30
0.0
 11
3.47817
 21
3.42305
 31
0.0
  0
LINE
  8
0
 62
     0
 10
3.47817
 20
3.42305
 30
0.0
 11
3.77031
 21
3.27422
 31
0.0
  0
LINE
  8
0
 62
     0
 10
3.77031
 20
3.27422
 30
0.0
 11
4.09554
 21
3.22185
 31
0.0
  0
LINE
  8
0
 62
     0
 10
4.09554
 20
3.22185
 30
0.0
 11
4.41935
 21
3.27422
 31
0.0
  0
LINE
  8
0
 62
     0
 10
4.41935
 20
3.27422
 30
0.0
 11
4.7129
 21
3.42305
 31
0.0
  0
LINE
  8
0
 62
     0
 10
4.7129
 20
3.42305
 30
0.0
 11
4.94439
 21
3.65594
 31
0.0
  0
LINE
  8
0
 62
     0
 10
4.94439
 20
3.65594
 30
0.0
 11
5.09323
 21
3.94808
 31
0.0
  0
LINE
  8
0
 62
     0
 10
5.09323
 20
3.94808
 30
0.0
 11
5.14558
 21
4.27193
 31
0.0
  0
LINE
  8
0
 62
     0
 10
5.14558
 20
4.27193
 30
0.0
 11
5.09323
 21
4.59715
 31
0.0
  0
LINE
  8
0
 62
     0
 10
5.09323
 20
4.59715
 30
0.0
 11
4.94439
 21
4.89066
 31
0.0
  0
LINE
  8
0
 62
     0
 10
4.94439
 20
4.89066
 30
0.0
 11
4.7129
 21
5.12216
 31
0.0
  0
LINE
  8
0
 62
     0
 10
4.7129
 20
5.12216
 30
0.0
 11
4.41935
 21
5.27099
 31
0.0
  0
LINE
  8
0
 62
     0
 10
4.41935
 20
5.27099
 30
0.0
 11
4.09554
 21
5.32197
 31
0.0
  0
LINE
  8
0
 62
     0
 10
4.09554
 20
5.32197
 30
0.0
 11
3.77031
 21
5.27099
 31
0.0
  0
LINE
  8
0
 62
     0
 10
75.6652
 20
5.27099
 30
0.0
 11
75.3731
 21
5.12216
 31
0.0
  0
LINE
  8
0
 62
     0
 10
75.3731
 20
5.12216
 30
0.0
 11
75.1403
 21
4.89066
 31
0.0
  0
LINE
  8
0
 62
     0
 10
75.1403
 20
4.89066
 30
0.0
 11
74.9914
 21
4.59715
 31
0.0
  0
LINE
  8
0
 62
     0
 10
74.9914
 20
4.59715
 30
0.0
 11
74.9392
 21
4.27193
 31
0.0
  0
LINE
  8
0
 62
     0
 10
74.9392
 20
4.27193
 30
0.0
 11
74.9914
 21
3.94808
 31
0.0
  0
LINE
  8
0
 62
     0
 10
74.9914
 20
3.94808
 30
0.0
 11
75.1403
 21
3.65594
 31
0.0
  0
LINE
  8
0
 62
     0
 10
75.1403
 20
3.65594
 30
0.0
 11
75.3731
 21
3.42305
 31
0.0
  0
LINE
  8
0
 62
     0
 10
75.3731
 20
3.42305
 30
0.0
 11
75.6652
 21
3.27422
 31
0.0
  0
LINE
  8
0
 62
     0
 10
75.6652
 20
3.27422
 30
0.0
 11
75.989
 21
3.22185
 31
0.0
  0
LINE
  8
0
 62
     0
 10
75.989
 20
3.22185
 30
0.0
 11
76.3143
 21
3.27422
 31
0.0
  0
LINE
  8
0
 62
     0
 10
76.3143
 20
3.27422
 30
0.0
 11
76.6064
 21
3.42305
 31
0.0
  0
LINE
  8
0
 62
     0
 10
76.6064
 20
3.42305
 30
0.0
 11
76.8396
 21
3.65594
 31
0.0
  0
LINE
  8
0
 62
     0
 10
76.8396
 20
3.65594
 30
0.0
 11
76.9881
 21
3.94808
 31
0.0
  0
LINE
  8
0
 62
     0
 10
76.9881
 20
3.94808
 30
0.0
 11
77.0393
 21
4.27193
 31
0.0
  0
LINE
  8
0
 62
     0
 10
77.0393
 20
4.27193
 30
0.0
 11
76.9881
 21
4.59715
 31
0.0
  0
LINE
  8
0
 62
     0
 10
76.9881
 20
4.59715
 30
0.0
 11
76.8396
 21
4.89066
 31
0.0
  0
LINE
  8
0
 62
     0
 10
76.8396
 20
4.89066
 30
0.0
 11
76.6064
 21
5.12216
 31
0.0
  0
LINE
  8
0
 62
     0
 10
76.6064
 20
5.12216
 30
0.0
 11
76.3143
 21
5.27099
 31
0.0
  0
LINE
  8
0
 62
     0
 10
76.3143
 20
5.27099
 30
0.0
 11
75.989
 21
5.32197
 31
0.0
  0
LINE
  8
0
 62
     0
 10
75.989
 20
5.32197
 30
0.0
 11
75.6652
 21
5.27099
 31
0.0
  0
LINE
  8
0
 62
     0
 10
147.559
 20
5.27099
 30
0.0
 11
147.267
 21
5.12216
 31
0.0
  0
LINE
  8
0
 62
     0
 10
147.267
 20
5.12216
 30
0.0
 11
147.034
 21
4.89066
 31
0.0
  0
LINE
  8
0
 62
     0
 10
147.034
 20
4.89066
 30
0.0
 11
146.885
 21
4.59715
 31
0.0
  0
LINE
  8
0
 62
     0
 10
146.885
 20
4.59715
 30
0.0
 11
146.834
 21
4.27193
 31
0.0
  0
LINE
  8
0
 62
     0
 10
146.834
 20
4.27193
 30
0.0
 11
146.885
 21
3.94808
 31
0.0
  0
LINE
  8
0
 62
     0
 10
146.885
 20
3.94808
 30
0.0
 11
147.034
 21
3.65594
 31
0.0
  0
LINE
  8
0
 62
     0
 10
147.034
 20
3.65594
 30
0.0
 11
147.267
 21
3.42305
 31
0.0
  0
LINE
  8
0
 62
     0
 10
147.267
 20
3.42305
 30
0.0
 11
147.559
 21
3.27422
 31
0.0
  0
LINE
  8
0
 62
     0
 10
147.559
 20
3.27422
 30
0.0
 11
147.884
 21
3.22185
 31
0.0
  0
LINE
  8
0
 62
     0
 10
147.884
 20
3.22185
 30
0.0
 11
148.208
 21
3.27422
 31
0.0
  0
LINE
  8
0
 62
     0
 10
148.208
 20
3.27422
 30
0.0
 11
148.501
 21
3.42305
 31
0.0
  0
LINE
  8
0
 62
     0
 10
148.501
 20
3.42305
 30
0.0
 11
148.733
 21
3.65594
 31
0.0
  0
LINE
  8
0
 62
     0
 10
148.733
 20
3.65594
 30
0.0
 11
148.883
 21
3.94808
 31
0.0
  0
LINE
  8
0
 62
     0
 10
148.883
 20
3.94808
 30
0.0
 11
148.934
 21
4.27193
 31
0.0
  0
LINE
  8
0
 62
     0
 10
148.934
 20
4.27193
 30
0.0
 11
148.883
 21
4.59715
 31
0.0
  0
LINE
  8
0
 62
     0
 10
148.883
 20
4.59715
 30
0.0
 11
148.733
 21
4.89066
 31
0.0
  0
LINE
  8
0
 62
     0
 10
148.733
 20
4.89066
 30
0.0
 11
148.501
 21
5.12216
 31
0.0
  0
LINE
  8
0
 62
     0
 10
148.501
 20
5.12216
 30
0.0
 11
148.208
 21
5.27099
 31
0.0
  0
LINE
  8
0
 62
     0
 10
148.208
 20
5.27099
 30
0.0
 11
147.884
 21
5.32197
 31
0.0
  0
LINE
  8
0
 62
     0
 10
147.884
 20
5.32197
 30
0.0
 11
147.559
 21
5.27099
 31
0.0
  0
LINE
  8
0
 62
     0
 10
219.454
 20
5.27099
 30
0.0
 11
219.162
 21
5.12216
 31
0.0
  0
LINE
  8
0
 62
     0
 10
219.162
 20
5.12216
 30
0.0
 11
218.929
 21
4.89066
 31
0.0
  0
LINE
  8
0
 62
     0
 10
218.929
 20
4.89066
 30
0.0
 11
218.78
 21
4.59715
 31
0.0
  0
LINE
  8
0
 62
     0
 10
218.78
 20
4.59715
 30
0.0
 11
218.729
 21
4.27193
 31
0.0
  0
LINE
  8
0
 62
     0
 10
218.729
 20
4.27193
 30
0.0
 11
218.78
 21
3.94808
 31
0.0
  0
LINE
  8
0
 62
     0
 10
218.78
 20
3.94808
 30
0.0
 11
218.929
 21
3.65594
 31
0.0
  0
LINE
  8
0
 62
     0
 10
218.929
 20
3.65594
 30
0.0
 11
219.162
 21
3.42305
 31
0.0
  0
LINE
  8
0
 62
     0
 10
219.162
 20
3.42305
 30
0.0
 11
219.454
 21
3.27422
 31
0.0
  0
LINE
  8
0
 62
     0
 10
219.454
 20
3.27422
 30
0.0
 11
219.779
 21
3.22185
 31
0.0
  0
LINE
  8
0
 62
     0
 10
219.779
 20
3.22185
 30
0.0
 11
220.103
 21
3.27422
 31
0.0
  0
LINE
  8
0
 62
     0
 10
220.103
 20
3.27422
 30
0.0
 11
220.396
 21
3.42305
 31
0.0
  0
LINE
  8
0
 62
     0
 10
220.396
 20
3.42305
 30
0.0
 11
220.628
 21
3.65594
 31
0.0
  0
LINE
  8
0
 62
     0
 10
220.628
 20
3.65594
 30
0.0
 11
220.777
 21
3.94808
 31
0.0
  0
LINE
  8
0
 62
     0
 10
220.777
 20
3.94808
 30
0.0
 11
220.829
 21
4.27193
 31
0.0
  0
LINE
  8
0
 62
     0
 10
220.829
 20
4.27193
 30
0.0
 11
220.777
 21
4.59715
 31
0.0
  0
LINE
  8
0
 62
     0
 10
220.777
 20
4.59715
 30
0.0
 11
220.628
 21
4.89066
 31
0.0
  0
LINE
  8
0
 62
     0
 10
220.628
 20
4.89066
 30
0.0
 11
220.396
 21
5.12216
 31
0.0
  0
LINE
  8
0
 62
     0
 10
220.396
 20
5.12216
 30
0.0
 11
220.103
 21
5.27099
 31
0.0
  0
LINE
  8
0
 62
     0
 10
220.103
 20
5.27099
 30
0.0
 11
219.779
 21
5.32197
 31
0.0
  0
LINE
  8
0
 62
     0
 10
219.779
 20
5.32197
 30
0.0
 11
219.454
 21
5.27099
 31
0.0
  0
LINE
  8
0
 62
     0
 10
291.349
 20
5.27099
 30
0.0
 11
291.057
 21
5.12216
 31
0.0
  0
LINE
  8
0
 62
     0
 10
291.057
 20
5.12216
 30
0.0
 11
290.824
 21
4.89066
 31
0.0
  0
LINE
  8
0
 62
     0
 10
290.824
 20
4.89066
 30
0.0
 11
290.675
 21
4.59715
 31
0.0
  0
LINE
  8
0
 62
     0
 10
290.675
 20
4.59715
 30
0.0
 11
290.624
 21
4.27193
 31
0.0
  0
LINE
  8
0
 62
     0
 10
290.624
 20
4.27193
 30
0.0
 11
290.675
 21
3.94808
 31
0.0
  0
LINE
  8
0
 62
     0
 10
290.675
 20
3.94808
 30
0.0
 11
290.824
 21
3.65594
 31
0.0
  0
LINE
  8
0
 62
     0
 10
290.824
 20
3.65594
 30
0.0
 11
291.057
 21
3.42305
 31
0.0
  0
LINE
  8
0
 62
     0
 10
291.057
 20
3.42305
 30
0.0
 11
291.349
 21
3.27422
 31
0.0
  0
LINE
  8
0
 62
     0
 10
291.349
 20
3.27422
 30
0.0
 11
291.673
 21
3.22185
 31
0.0
  0
LINE
  8
0
 62
     0
 10
291.673
 20
3.22185
 30
0.0
 11
291.998
 21
3.27422
 31
0.0
  0
LINE
  8
0
 62
     0
 10
291.998
 20
3.27422
 30
0.0
 11
292.29
 21
3.42305
 31
0.0
  0
LINE
  8
0
 62
     0
 10
292.29
 20
3.42305
 30
0.0
 11
292.523
 21
3.65594
 31
0.0
  0
LINE
  8
0
 62
     0
 10
292.523
 20
3.65594
 30
0.0
 11
292.672
 21
3.94808
 31
0.0
  0
LINE
  8
0
 62
     0
 10
292.672
 20
3.94808
 30
0.0
 11
292.723
 21
4.27193
 31
0.0
  0
LINE
  8
0
 62
     0
 10
292.723
 20
4.27193
 30
0.0
 11
292.672
 21
4.59715
 31
0.0
  0
LINE
  8
0
 62
     0
 10
292.672
 20
4.59715
 30
0.0
 11
292.523
 21
4.89066
 31
0.0
  0
LINE
  8
0
 62
     0
 10
292.523
 20
4.89066
 30
0.0
 11
292.29
 21
5.12216
 31
0.0
  0
LINE
  8
0
 62
     0
 10
292.29
 20
5.12216
 30
0.0
 11
291.998
 21
5.27099
 31
0.0
  0
LINE
  8
0
 62
     0
 10
291.998
 20
5.27099
 30
0.0
 11
291.673
 21
5.32197
 31
0.0
  0
LINE
  8
0
 62
     0
 10
291.673
 20
5.32197
 30
0.0
 11
291.349
 21
5.27099
 31
0.0
  0
LINE
  8
0
 62
     0
 10
363.245
 20
5.27099
 30
0.0
 11
362.952
 21
5.12216
 31
0.0
  0
LINE
  8
0
 62
     0
 10
362.952
 20
5.12216
 30
0.0
 11
362.719
 21
4.89066
 31
0.0
  0
LINE
  8
0
 62
     0
 10
362.719
 20
4.89066
 30
0.0
 11
362.571
 21
4.59715
 31
0.0
  0
LINE
  8
0
 62
     0
 10
362.571
 20
4.59715
 30
0.0
 11
362.518
 21
4.27193
 31
0.0
  0
LINE
  8
0
 62
     0
 10
362.518
 20
4.27193
 30
0.0
 11
362.571
 21
3.94808
 31
0.0
  0
LINE
  8
0
 62
     0
 10
362.571
 20
3.94808
 30
0.0
 11
362.719
 21
3.65594
 31
0.0
  0
LINE
  8
0
 62
     0
 10
362.719
 20
3.65594
 30
0.0
 11
362.952
 21
3.42305
 31
0.0
  0
LINE
  8
0
 62
     0
 10
362.952
 20
3.42305
 30
0.0
 11
363.245
 21
3.27422
 31
0.0
  0
LINE
  8
0
 62
     0
 10
363.245
 20
3.27422
 30
0.0
 11
363.569
 21
3.22185
 31
0.0
  0
LINE
  8
0
 62
     0
 10
363.569
 20
3.22185
 30
0.0
 11
363.894
 21
3.27422
 31
0.0
  0
LINE
  8
0
 62
     0
 10
363.894
 20
3.27422
 30
0.0
 11
364.187
 21
3.42305
 31
0.0
  0
LINE
  8
0
 62
     0
 10
364.187
 20
3.42305
 30
0.0
 11
364.419
 21
3.65594
 31
0.0
  0
LINE
  8
0
 62
     0
 10
364.419
 20
3.65594
 30
0.0
 11
364.568
 21
3.94808
 31
0.0
  0
LINE
  8
0
 62
     0
 10
364.568
 20
3.94808
 30
0.0
 11
364.617
 21
4.27193
 31
0.0
  0
LINE
  8
0
 62
     0
 10
364.617
 20
4.27193
 30
0.0
 11
364.568
 21
4.59715
 31
0.0
  0
LINE
  8
0
 62
     0
 10
364.568
 20
4.59715
 30
0.0
 11
364.419
 21
4.89066
 31
0.0
  0
LINE
  8
0
 62
     0
 10
364.419
 20
4.89066
 30
0.0
 11
364.187
 21
5.12216
 31
0.0
  0
LINE
  8
0
 62
     0
 10
364.187
 20
5.12216
 30
0.0
 11
363.894
 21
5.27099
 31
0.0
  0
LINE
  8
0
 62
     0
 10
363.894
 20
5.27099
 30
0.0
 11
363.569
 21
5.32197
 31
0.0
  0
LINE
  8
0
 62
     0
 10
363.569
 20
5.32197
 30
0.0
 11
363.245
 21
5.27099
 31
0.0
  0
LINE
  8
0
 62
     0
 10
131.918
 20
27.3237
 30
0.0
 11
189.071
 21
27.3237
 31
0.0
  0
LINE
  8
0
 62
     0
 10
189.071
 20
27.3237
 30
0.0
 11
189.071
 21
8.27236
 31
0.0
  0
LINE
  8
0
 62
     0
 10
189.071
 20
8.27236
 30
0.0
 11
131.918
 21
8.27236
 31
0.0
  0
LINE
  8
0
 62
     0
 10
131.918
 20
8.27236
 30
0.0
 11
131.918
 21
27.3237
 31
0.0
  0
LINE
  8
0
 62
     0
 10
250.03
 20
142.577
 30
0.0
 11
250.03
 21
123.962
 31
0.0
  0
LINE
  8
0
 62
     0
 10
250.03
 20
123.962
 30
0.0
 11
246.978
 21
138.321
 31
0.0
  0
LINE
  8
0
 62
     0
 10
246.978
 20
138.321
 30
0.0
 11
228.344
 21
134.359
 31
0.0
  0
LINE
  8
0
 62
     0
 10
228.344
 20
134.359
 30
0.0
 11
228.344
 21
134.36
 31
0.0
  0
LINE
  8
0
 62
     0
 10
228.344
 20
134.36
 30
0.0
 11
209.71
 21
130.398
 31
0.0
  0
LINE
  8
0
 62
     0
 10
209.71
 20
130.398
 30
0.0
 11
209.71
 21
130.4
 31
0.0
  0
LINE
  8
0
 62
     0
 10
209.71
 20
130.4
 30
0.0
 11
172.441
 21
122.477
 31
0.0
  0
LINE
  8
0
 62
     0
 10
172.441
 20
122.477
 30
0.0
 11
176.401
 21
103.843
 31
0.0
  0
LINE
  8
0
 62
     0
 10
176.401
 20
103.843
 30
0.0
 11
167.084
 21
101.863
 31
0.0
  0
LINE
  8
0
 62
     0
 10
167.084
 20
101.863
 30
0.0
 11
171.045
 21
83.228
 31
0.0
  0
LINE
  8
0
 62
     0
 10
171.045
 20
83.228
 30
0.0
 11
175.704
 21
84.2176
 31
0.0
  0
LINE
  8
0
 62
     0
 10
175.704
 20
84.2176
 30
0.0
 11
179.664
 21
65.5849
 31
0.0
  0
LINE
  8
0
 62
     0
 10
179.664
 20
65.5849
 30
0.0
 11
165.688
 21
62.6152
 31
0.0
  0
LINE
  8
0
 62
     0
 10
165.688
 20
62.6152
 30
0.0
 11
169.649
 21
43.9787
 31
0.0
  0
LINE
  8
0
 62
     0
 10
169.649
 20
43.9787
 30
0.0
 11
178.966
 21
45.9602
 31
0.0
  0
LINE
  8
0
 62
     0
 10
178.966
 20
45.9602
 30
0.0
 11
182.928
 21
27.3265
 31
0.0
  0
LINE
  8
0
 62
     0
 10
182.928
 20
27.3265
 30
0.0
 11
243.487
 21
40.1987
 31
0.0
  0
LINE
  8
0
 62
     0
 10
243.487
 20
40.1987
 30
0.0
 11
266.781
 21
45.1499
 31
0.0
  0
LINE
  8
0
 62
     0
 10
266.781
 20
45.1499
 30
0.0
 11
258.859
 21
82.4191
 31
0.0
  0
LINE
  8
0
 62
     0
 10
258.859
 20
82.4191
 30
0.0
 11
254.201
 21
81.4296
 31
0.0
  0
LINE
  8
0
 62
     0
 10
254.201
 20
81.4296
 30
0.0
 11
250.242
 21
100.061
 31
0.0
  0
LINE
  8
0
 62
     0
 10
250.242
 20
100.061
 30
0.0
 11
254.791
 21
101.028
 31
0.0
  0
LINE
  8
0
 62
     0
 10
254.791
 20
101.028
 30
0.0
 11
254.791
 21
82.568
 31
0.0
  0
LINE
  8
0
 62
     0
 10
254.791
 20
82.568
 30
0.0
 11
264.316
 21
82.568
 31
0.0
  0
LINE
  8
0
 62
     0
 10
264.316
 20
82.568
 30
0.0
 11
264.316
 21
63.518
 31
0.0
  0
LINE
  8
0
 62
     0
 10
264.316
 20
63.518
 30
0.0
 11
270.032
 21
63.518
 31
0.0
  0
LINE
  8
0
 62
     0
 10
270.032
 20
63.518
 30
0.0
 11
270.032
 21
44.468
 31
0.0
  0
LINE
  8
0
 62
     0
 10
270.032
 20
44.468
 30
0.0
 11
293.846
 21
44.468
 31
0.0
  0
LINE
  8
0
 62
     0
 10
293.846
 20
44.468
 30
0.0
 11
293.846
 21
63.518
 31
0.0
  0
LINE
  8
0
 62
     0
 10
293.846
 20
63.518
 30
0.0
 11
316.706
 21
63.518
 31
0.0
  0
LINE
  8
0
 62
     0
 10
316.706
 20
63.518
 30
0.0
 11
316.706
 21
82.568
 31
0.0
  0
LINE
  8
0
 62
     0
 10
316.706
 20
82.568
 30
0.0
 11
335.756
 21
82.568
 31
0.0
  0
LINE
  8
0
 62
     0
 10
335.756
 20
82.568
 30
0.0
 11
335.756
 21
101.619
 31
0.0
  0
LINE
  8
0
 62
     0
 10
335.756
 20
101.619
 30
0.0
 11
330.994
 21
101.619
 31
0.0
  0
LINE
  8
0
 62
     0
 10
330.994
 20
101.619
 30
0.0
 11
330.994
 21
120.669
 31
0.0
  0
LINE
  8
0
 62
     0
 10
330.994
 20
120.669
 30
0.0
 11
326.231
 21
120.669
 31
0.0
  0
LINE
  8
0
 62
     0
 10
326.231
 20
120.669
 30
0.0
 11
326.231
 21
139.719
 31
0.0
  0
LINE
  8
0
 62
     0
 10
326.231
 20
139.719
 30
0.0
 11
269.081
 21
139.719
 31
0.0
  0
LINE
  8
0
 62
     0
 10
269.081
 20
139.719
 30
0.0
 11
269.081
 21
142.577
 31
0.0
  0
LINE
  8
0
 62
     0
 10
269.081
 20
142.577
 30
0.0
 11
250.03
 21
142.577
 31
0.0
  0
LINE
  8
0
 62
     0
 10
79.6452
 20
120.829
 30
0.0
 11
70.328
 21
122.811
 31
0.0
  0
LINE
  8
0
 62
     0
 10
70.328
 20
122.811
 30
0.0
 11
66.3677
 21
104.174
 31
0.0
  0
LINE
  8
0
 62
     0
 10
66.3677
 20
104.174
 30
0.0
 11
71.0269
 21
103.185
 31
0.0
  0
LINE
  8
0
 62
     0
 10
71.0269
 20
103.185
 30
0.0
 11
67.0648
 21
84.551
 31
0.0
  0
LINE
  8
0
 62
     0
 10
67.0648
 20
84.551
 30
0.0
 11
76.382
 21
82.5708
 31
0.0
  0
LINE
  8
0
 62
     0
 10
76.382
 20
82.5708
 30
0.0
 11
72.4214
 21
63.9367
 31
0.0
  0
LINE
  8
0
 62
     0
 10
72.4214
 20
63.9367
 30
0.0
 11
72.4228
 21
63.9367
 31
0.0
  0
LINE
  8
0
 62
     0
 10
72.4228
 20
63.9367
 30
0.0
 11
68.4611
 21
45.303
 31
0.0
  0
LINE
  8
0
 62
     0
 10
68.4611
 20
45.303
 30
0.0
 11
133.681
 21
31.4399
 31
0.0
  0
LINE
  8
0
 62
     0
 10
133.681
 20
31.4399
 30
0.0
 11
152.315
 21
27.4794
 31
0.0
  0
LINE
  8
0
 62
     0
 10
152.315
 20
27.4794
 30
0.0
 11
156.275
 21
46.1148
 31
0.0
  0
LINE
  8
0
 62
     0
 10
156.275
 20
46.1148
 30
0.0
 11
146.958
 21
48.0949
 31
0.0
  0
LINE
  8
0
 62
     0
 10
146.958
 20
48.0949
 30
0.0
 11
150.92
 21
66.7286
 31
0.0
  0
LINE
  8
0
 62
     0
 10
150.92
 20
66.7286
 30
0.0
 11
141.603
 21
68.7091
 31
0.0
  0
LINE
  8
0
 62
     0
 10
141.603
 20
68.7091
 30
0.0
 11
145.564
 21
87.3428
 31
0.0
  0
LINE
  8
0
 62
     0
 10
145.564
 20
87.3428
 30
0.0
 11
140.904
 21
88.3324
 31
0.0
  0
LINE
  8
0
 62
     0
 10
140.904
 20
88.3324
 30
0.0
 11
144.865
 21
106.965
 31
0.0
  0
LINE
  8
0
 62
     0
 10
144.865
 20
106.965
 30
0.0
 11
154.182
 21
104.985
 31
0.0
  0
LINE
  8
0
 62
     0
 10
154.182
 20
104.985
 30
0.0
 11
158.144
 21
123.621
 31
0.0
  0
LINE
  8
0
 62
     0
 10
158.144
 20
123.621
 30
0.0
 11
139.507
 21
127.581
 31
0.0
  0
LINE
  8
0
 62
     0
 10
139.507
 20
127.581
 30
0.0
 11
139.507
 21
127.58
 31
0.0
  0
LINE
  8
0
 62
     0
 10
139.507
 20
127.58
 30
0.0
 11
83.6069
 21
139.463
 31
0.0
  0
LINE
  8
0
 62
     0
 10
83.6069
 20
139.463
 30
0.0
 11
79.6452
 21
120.829
 31
0.0
  0
LINE
  8
0
 62
     0
 10
321.466
 20
77.8069
 30
0.0
 11
321.466
 21
58.7569
 31
0.0
  0
LINE
  8
0
 62
     0
 10
321.466
 20
58.7569
 30
0.0
 11
302.416
 21
58.7569
 31
0.0
  0
LINE
  8
0
 62
     0
 10
302.416
 20
58.7569
 30
0.0
 11
302.416
 21
39.7055
 31
0.0
  0
LINE
  8
0
 62
     0
 10
302.416
 20
39.7055
 30
0.0
 11
359.569
 21
39.7055
 31
0.0
  0
LINE
  8
0
 62
     0
 10
359.569
 20
39.7055
 30
0.0
 11
359.569
 21
58.7569
 31
0.0
  0
LINE
  8
0
 62
     0
 10
359.569
 20
58.7569
 30
0.0
 11
340.519
 21
58.7569
 31
0.0
  0
LINE
  8
0
 62
     0
 10
340.519
 20
58.7569
 30
0.0
 11
340.519
 21
77.8069
 31
0.0
  0
LINE
  8
0
 62
     0
 10
340.519
 20
77.8069
 30
0.0
 11
321.466
 21
77.8069
 31
0.0
  0
LINE
  8
0
 62
     0
 10
60.4806
 20
142.577
 30
0.0
 11
60.4806
 21
139.719
 31
0.0
  0
LINE
  8
0
 62
     0
 10
60.4806
 20
139.719
 30
0.0
 11
22.3821
 21
139.719
 31
0.0
  0
LINE
  8
0
 62
     0
 10
22.3821
 20
139.719
 30
0.0
 11
22.3821
 21
120.669
 31
0.0
  0
LINE
  8
0
 62
     0
 10
22.3821
 20
120.669
 30
0.0
 11
17.6196
 21
120.669
 31
0.0
  0
LINE
  8
0
 62
     0
 10
17.6196
 20
120.669
 30
0.0
 11
17.6196
 21
101.619
 31
0.0
  0
LINE
  8
0
 62
     0
 10
17.6196
 20
101.619
 30
0.0
 11
12.8571
 21
101.619
 31
0.0
  0
LINE
  8
0
 62
     0
 10
12.8571
 20
101.619
 30
0.0
 11
12.8571
 21
82.5694
 31
0.0
  0
LINE
  8
0
 62
     0
 10
12.8571
 20
82.5694
 30
0.0
 11
8.09459
 21
82.5694
 31
0.0
  0
LINE
  8
0
 62
     0
 10
8.09459
 20
82.5694
 30
0.0
 11
8.09459
 21
44.468
 31
0.0
  0
LINE
  8
0
 62
     0
 10
8.09459
 20
44.468
 30
0.0
 11
60.4834
 21
44.468
 31
0.0
  0
LINE
  8
0
 62
     0
 10
60.4834
 20
44.468
 30
0.0
 11
60.4834
 21
63.518
 31
0.0
  0
LINE
  8
0
 62
     0
 10
60.4834
 20
63.518
 30
0.0
 11
70.0084
 21
63.518
 31
0.0
  0
LINE
  8
0
 62
     0
 10
70.0084
 20
63.518
 30
0.0
 11
70.0084
 21
82.5694
 31
0.0
  0
LINE
  8
0
 62
     0
 10
70.0084
 20
82.5694
 30
0.0
 11
65.2459
 21
82.5694
 31
0.0
  0
LINE
  8
0
 62
     0
 10
65.2459
 20
82.5694
 30
0.0
 11
65.2459
 21
120.669
 31
0.0
  0
LINE
  8
0
 62
     0
 10
65.2459
 20
120.669
 30
0.0
 11
60.4834
 21
120.669
 31
0.0
  0
LINE
  8
0
 62
     0
 10
60.4834
 20
120.669
 30
0.0
 11
60.4834
 21
123.526
 31
0.0
  0
LINE
  8
0
 62
     0
 10
60.4834
 20
123.526
 30
0.0
 11
79.5334
 21
123.526
 31
0.0
  0
LINE
  8
0
 62
     0
 10
79.5334
 20
123.526
 30
0.0
 11
79.5334
 21
142.577
 31
0.0
  0
LINE
  8
0
 62
     0
 10
79.5334
 20
142.577
 30
0.0
 11
60.4806
 21
142.577
 31
0.0
  0
LINE
  8
0
 62
     0
 10
3.77031
 20
89.2817
 30
0.0
 11
3.47817
 21
89.1328
 31
0.0
  0
LINE
  8
0
 62
     0
 10
3.47817
 20
89.1328
 30
0.0
 11
3.24528
 21
88.9
 31
0.0
  0
LINE
  8
0
 62
     0
 10
3.24528
 20
88.9
 30
0.0
 11
3.09507
 21
88.6079
 31
0.0
  0
LINE
  8
0
 62
     0
 10
3.09507
 20
88.6079
 30
0.0
 11
3.04409
 21
88.284
 31
0.0
  0
LINE
  8
0
 62
     0
 10
3.04409
 20
88.284
 30
0.0
 11
3.09507
 21
87.9588
 31
0.0
  0
LINE
  8
0
 62
     0
 10
3.09507
 20
87.9588
 30
0.0
 11
3.24528
 21
87.6667
 31
0.0
  0
LINE
  8
0
 62
     0
 10
3.24528
 20
87.6667
 30
0.0
 11
3.47817
 21
87.4339
 31
0.0
  0
LINE
  8
0
 62
     0
 10
3.47817
 20
87.4339
 30
0.0
 11
3.77031
 21
87.285
 31
0.0
  0
LINE
  8
0
 62
     0
 10
3.77031
 20
87.285
 30
0.0
 11
4.09554
 21
87.2338
 31
0.0
  0
LINE
  8
0
 62
     0
 10
4.09554
 20
87.2338
 30
0.0
 11
4.41935
 21
87.285
 31
0.0
  0
LINE
  8
0
 62
     0
 10
4.41935
 20
87.285
 30
0.0
 11
4.7129
 21
87.4339
 31
0.0
  0
LINE
  8
0
 62
     0
 10
4.7129
 20
87.4339
 30
0.0
 11
4.94439
 21
87.6667
 31
0.0
  0
LINE
  8
0
 62
     0
 10
4.94439
 20
87.6667
 30
0.0
 11
5.09323
 21
87.9588
 31
0.0
  0
LINE
  8
0
 62
     0
 10
5.09323
 20
87.9588
 30
0.0
 11
5.14558
 21
88.284
 31
0.0
  0
LINE
  8
0
 62
     0
 10
5.14558
 20
88.284
 30
0.0
 11
5.09323
 21
88.6079
 31
0.0
  0
LINE
  8
0
 62
     0
 10
5.09323
 20
88.6079
 30
0.0
 11
4.94439
 21
88.9
 31
0.0
  0
LINE
  8
0
 62
     0
 10
4.94439
 20
88.9
 30
0.0
 11
4.7129
 21
89.1328
 31
0.0
  0
LINE
  8
0
 62
     0
 10
4.7129
 20
89.1328
 30
0.0
 11
4.41935
 21
89.2817
 31
0.0
  0
LINE
  8
0
 62
     0
 10
4.41935
 20
89.2817
 30
0.0
 11
4.09554
 21
89.3339
 31
0.0
  0
LINE
  8
0
 62
     0
 10
4.09554
 20
89.3339
 30
0.0
 11
3.77031
 21
89.2817
 31
0.0
  0
LINE
  8
0
 62
     0
 10
363.245
 20
89.2817
 30
0.0
 11
362.952
 21
89.1328
 31
0.0
  0
LINE
  8
0
 62
     0
 10
362.952
 20
89.1328
 30
0.0
 11
362.719
 21
88.9
 31
0.0
  0
LINE
  8
0
 62
     0
 10
362.719
 20
88.9
 30
0.0
 11
362.571
 21
88.6079
 31
0.0
  0
LINE
  8
0
 62
     0
 10
362.571
 20
88.6079
 30
0.0
 11
362.518
 21
88.284
 31
0.0
  0
LINE
  8
0
 62
     0
 10
362.518
 20
88.284
 30
0.0
 11
362.571
 21
87.9588
 31
0.0
  0
LINE
  8
0
 62
     0
 10
362.571
 20
87.9588
 30
0.0
 11
362.719
 21
87.6667
 31
0.0
  0
LINE
  8
0
 62
     0
 10
362.719
 20
87.6667
 30
0.0
 11
362.952
 21
87.4339
 31
0.0
  0
LINE
  8
0
 62
     0
 10
362.952
 20
87.4339
 30
0.0
 11
363.245
 21
87.285
 31
0.0
  0
LINE
  8
0
 62
     0
 10
363.245
 20
87.285
 30
0.0
 11
363.569
 21
87.2338
 31
0.0
  0
LINE
  8
0
 62
     0
 10
363.569
 20
87.2338
 30
0.0
 11
363.894
 21
87.285
 31
0.0
  0
LINE
  8
0
 62
     0
 10
363.894
 20
87.285
 30
0.0
 11
364.187
 21
87.4339
 31
0.0
  0
LINE
  8
0
 62
     0
 10
364.187
 20
87.4339
 30
0.0
 11
364.419
 21
87.6667
 31
0.0
  0
LINE
  8
0
 62
     0
 10
364.419
 20
87.6667
 30
0.0
 11
364.568
 21
87.9588
 31
0.0
  0
LINE
  8
0
 62
     0
 10
364.568
 20
87.9588
 30
0.0
 11
364.617
 21
88.284
 31
0.0
  0
LINE
  8
0
 62
     0
 10
364.617
 20
88.284
 30
0.0
 11
364.568
 21
88.6079
 31
0.0
  0
LINE
  8
0
 62
     0
 10
364.568
 20
88.6079
 30
0.0
 11
364.419
 21
88.9
 31
0.0
  0
LINE
  8
0
 62
     0
 10
364.419
 20
88.9
 30
0.0
 11
364.187
 21
89.1328
 31
0.0
  0
LINE
  8
0
 62
     0
 10
364.187
 20
89.1328
 30
0.0
 11
363.894
 21
89.2817
 31
0.0
  0
LINE
  8
0
 62
     0
 10
363.894
 20
89.2817
 30
0.0
 11
363.569
 21
89.3339
 31
0.0
  0
LINE
  8
0
 62
     0
 10
363.569
 20
89.3339
 30
0.0
 11
363.245
 21
89.2817
 31
0.0
  0
LINE
  8
0
 62
     0
 10
326.228
 20
163.532
 30
0.0
 11
326.228
 21
144.48
 31
0.0
  0
LINE
  8
0
 62
     0
 10
326.228
 20
144.48
 30
0.0
 11
330.991
 21
144.48
 31
0.0
  0
LINE
  8
0
 62
     0
 10
330.991
 20
144.48
 30
0.0
 11
330.991
 21
125.43
 31
0.0
  0
LINE
  8
0
 62
     0
 10
330.991
 20
125.43
 30
0.0
 11
335.755
 21
125.43
 31
0.0
  0
LINE
  8
0
 62
     0
 10
335.755
 20
125.43
 30
0.0
 11
335.755
 21
106.38
 31
0.0
  0
LINE
  8
0
 62
     0
 10
335.755
 20
106.38
 30
0.0
 11
340.516
 21
106.38
 31
0.0
  0
LINE
  8
0
 62
     0
 10
340.516
 20
106.38
 30
0.0
 11
340.516
 21
87.3305
 31
0.0
  0
LINE
  8
0
 62
     0
 10
340.516
 20
87.3305
 30
0.0
 11
359.569
 21
87.3305
 31
0.0
  0
LINE
  8
0
 62
     0
 10
359.569
 20
87.3305
 30
0.0
 11
359.569
 21
106.382
 31
0.0
  0
LINE
  8
0
 62
     0
 10
359.569
 20
106.382
 30
0.0
 11
354.806
 21
106.382
 31
0.0
  0
LINE
  8
0
 62
     0
 10
354.806
 20
106.382
 30
0.0
 11
354.806
 21
125.432
 31
0.0
  0
LINE
  8
0
 62
     0
 10
354.806
 20
125.432
 30
0.0
 11
350.044
 21
125.432
 31
0.0
  0
LINE
  8
0
 62
     0
 10
350.044
 20
125.432
 30
0.0
 11
350.044
 21
144.482
 31
0.0
  0
LINE
  8
0
 62
     0
 10
350.044
 20
144.482
 30
0.0
 11
345.281
 21
144.482
 31
0.0
  0
LINE
  8
0
 62
     0
 10
345.281
 20
144.482
 30
0.0
 11
345.281
 21
163.532
 31
0.0
  0
LINE
  8
0
 62
     0
 10
345.281
 20
163.532
 30
0.0
 11
326.228
 21
163.532
 31
0.0
  0
LINE
  8
0
 62
     0
 10
269.08
 20
120.669
 30
0.0
 11
264.316
 21
120.669
 31
0.0
  0
LINE
  8
0
 62
     0
 10
264.316
 20
120.669
 30
0.0
 11
264.316
 21
101.619
 31
0.0
  0
LINE
  8
0
 62
     0
 10
264.316
 20
101.619
 30
0.0
 11
257.572
 21
101.619
 31
0.0
  0
LINE
  8
0
 62
     0
 10
257.572
 20
101.619
 30
0.0
 11
264.215
 21
103.032
 31
0.0
  0
LINE
  8
0
 62
     0
 10
264.215
 20
103.032
 30
0.0
 11
260.255
 21
121.667
 31
0.0
  0
LINE
  8
0
 62
     0
 10
260.255
 20
121.667
 30
0.0
 11
250.938
 21
119.687
 31
0.0
  0
LINE
  8
0
 62
     0
 10
250.938
 20
119.687
 30
0.0
 11
250.122
 21
123.526
 31
0.0
  0
LINE
  8
0
 62
     0
 10
250.122
 20
123.526
 30
0.0
 11
269.08
 21
123.526
 31
0.0
  0
LINE
  8
0
 62
     0
 10
269.08
 20
123.526
 30
0.0
 11
269.08
 21
120.669
 31
0.0
  0
LINE
  8
0
 62
     0
 10
172.147
 20
146.76
 30
0.0
 11
176.109
 21
128.125
 31
0.0
  0
LINE
  8
0
 62
     0
 10
176.109
 20
128.125
 30
0.0
 11
194.743
 21
132.085
 31
0.0
  0
LINE
  8
0
 62
     0
 10
194.743
 20
132.085
 30
0.0
 11
213.378
 21
136.046
 31
0.0
  0
LINE
  8
0
 62
     0
 10
213.378
 20
136.046
 30
0.0
 11
209.418
 21
154.682
 31
0.0
  0
LINE
  8
0
 62
     0
 10
209.418
 20
154.682
 30
0.0
 11
172.147
 21
146.76
 31
0.0
  0
LINE
  8
0
 62
     0
 10
117.205
 20
137.188
 30
0.0
 11
154.474
 21
129.267
 31
0.0
  0
LINE
  8
0
 62
     0
 10
154.474
 20
129.267
 30
0.0
 11
158.436
 21
147.902
 31
0.0
  0
LINE
  8
0
 62
     0
 10
158.436
 20
147.902
 30
0.0
 11
121.167
 21
155.824
 31
0.0
  0
LINE
  8
0
 62
     0
 10
121.167
 20
155.824
 30
0.0
 11
117.205
 21
137.188
 31
0.0
  0
LINE
  8
0
 62
     0
 10
214.074
 20
155.671
 30
0.0
 11
218.035
 21
137.035
 31
0.0
  0
LINE
  8
0
 62
     0
 10
218.035
 20
137.035
 30
0.0
 11
255.305
 21
144.957
 31
0.0
  0
LINE
  8
0
 62
     0
 10
255.305
 20
144.957
 30
0.0
 11
251.343
 21
163.594
 31
0.0
  0
LINE
  8
0
 62
     0
 10
251.343
 20
163.594
 30
0.0
 11
214.074
 21
155.671
 31
0.0
  0
LINE
  8
0
 62
     0
 10
75.2796
 20
146.101
 30
0.0
 11
112.548
 21
138.179
 31
0.0
  0
LINE
  8
0
 62
     0
 10
112.548
 20
138.179
 30
0.0
 11
116.509
 21
156.814
 31
0.0
  0
LINE
  8
0
 62
     0
 10
116.509
 20
156.814
 30
0.0
 11
97.875
 21
160.776
 31
0.0
  0
LINE
  8
0
 62
     0
 10
97.875
 20
160.776
 30
0.0
 11
97.875
 21
160.774
 31
0.0
  0
LINE
  8
0
 62
     0
 10
97.875
 20
160.774
 30
0.0
 11
79.2399
 21
164.735
 31
0.0
  0
LINE
  8
0
 62
     0
 10
79.2399
 20
164.735
 30
0.0
 11
75.2796
 21
146.101
 31
0.0
  0
LINE
  8
0
 62
     0
 10
300.798
 20
163.532
 30
0.0
 11
319.849
 21
163.532
 31
0.0
  0
LINE
  8
0
 62
     0
 10
319.849
 20
163.532
 30
0.0
 11
319.849
 21
144.48
 31
0.0
  0
LINE
  8
0
 62
     0
 10
319.849
 20
144.48
 30
0.0
 11
300.798
 21
144.48
 31
0.0
  0
LINE
  8
0
 62
     0
 10
300.798
 20
144.48
 30
0.0
 11
300.798
 21
163.532
 31
0.0
  0
LINE
  8
0
 62
     0
 10
11.9049
 20
163.532
 30
0.0
 11
30.9563
 21
163.532
 31
0.0
  0
LINE
  8
0
 62
     0
 10
30.9563
 20
163.532
 30
0.0
 11
30.9563
 21
144.48
 31
0.0
  0
LINE
  8
0
 62
     0
 10
30.9563
 20
144.48
 30
0.0
 11
11.9049
 21
144.48
 31
0.0
  0
LINE
  8
0
 62
     0
 10
11.9049
 20
144.48
 30
0.0
 11
11.9049
 21
163.532
 31
0.0
  0
LINE
  8
0
 62
     0
 10
255.744
 20
164.484
 30
0.0
 11
293.846
 21
164.484
 31
0.0
  0
LINE
  8
0
 62
     0
 10
293.846
 20
164.484
 30
0.0
 11
293.846
 21
145.433
 31
0.0
  0
LINE
  8
0
 62
     0
 10
293.846
 20
145.433
 30
0.0
 11
255.744
 21
145.433
 31
0.0
  0
LINE
  8
0
 62
     0
 10
255.744
 20
145.433
 30
0.0
 11
255.744
 21
164.484
 31
0.0
  0
LINE
  8
0
 62
     0
 10
36.6695
 20
164.484
 30
0.0
 11
74.7709
 21
164.484
 31
0.0
  0
LINE
  8
0
 62
     0
 10
74.7709
 20
164.484
 30
0.0
 11
74.7709
 21
145.433
 31
0.0
  0
LINE
  8
0
 62
     0
 10
74.7709
 20
145.433
 30
0.0
 11
36.6695
 21
145.433
 31
0.0
  0
LINE
  8
0
 62
     0
 10
36.6695
 20
145.433
 30
0.0
 11
36.6695
 21
164.484
 31
0.0
  0
LINE
  8
0
 62
     0
 10
3.77031
 20
173.294
 30
0.0
 11
3.47817
 21
173.144
 31
0.0
  0
LINE
  8
0
 62
     0
 10
3.47817
 20
173.144
 30
0.0
 11
3.24528
 21
172.911
 31
0.0
  0
LINE
  8
0
 62
     0
 10
3.24528
 20
172.911
 30
0.0
 11
3.09507
 21
172.619
 31
0.0
  0
LINE
  8
0
 62
     0
 10
3.09507
 20
172.619
 30
0.0
 11
3.04409
 21
172.293
 31
0.0
  0
LINE
  8
0
 62
     0
 10
3.04409
 20
172.293
 30
0.0
 11
3.09507
 21
171.97
 31
0.0
  0
LINE
  8
0
 62
     0
 10
3.09507
 20
171.97
 30
0.0
 11
3.24528
 21
171.676
 31
0.0
  0
LINE
  8
0
 62
     0
 10
3.24528
 20
171.676
 30
0.0
 11
3.47817
 21
171.444
 31
0.0
  0
LINE
  8
0
 62
     0
 10
3.47817
 20
171.444
 30
0.0
 11
3.77031
 21
171.296
 31
0.0
  0
LINE
  8
0
 62
     0
 10
3.77031
 20
171.296
 30
0.0
 11
4.09554
 21
171.243
 31
0.0
  0
LINE
  8
0
 62
     0
 10
4.09554
 20
171.243
 30
0.0
 11
4.41935
 21
171.296
 31
0.0
  0
LINE
  8
0
 62
     0
 10
4.41935
 20
171.296
 30
0.0
 11
4.7129
 21
171.444
 31
0.0
  0
LINE
  8
0
 62
     0
 10
4.7129
 20
171.444
 30
0.0
 11
4.94439
 21
171.676
 31
0.0
  0
LINE
  8
0
 62
     0
 10
4.94439
 20
171.676
 30
0.0
 11
5.09323
 21
171.97
 31
0.0
  0
LINE
  8
0
 62
     0
 10
5.09323
 20
171.97
 30
0.0
 11
5.14558
 21
172.293
 31
0.0
  0
LINE
  8
0
 62
     0
 10
5.14558
 20
172.293
 30
0.0
 11
5.09323
 21
172.619
 31
0.0
  0
LINE
  8
0
 62
     0
 10
5.09323
 20
172.619
 30
0.0
 11
4.94439
 21
172.911
 31
0.0
  0
LINE
  8
0
 62
     0
 10
4.94439
 20
172.911
 30
0.0
 11
4.7129
 21
173.144
 31
0.0
  0
LINE
  8
0
 62
     0
 10
4.7129
 20
173.144
 30
0.0
 11
4.41935
 21
173.294
 31
0.0
  0
LINE
  8
0
 62
     0
 10
4.41935
 20
173.294
 30
0.0
 11
4.09554
 21
173.343
 31
0.0
  0
LINE
  8
0
 62
     0
 10
4.09554
 20
173.343
 30
0.0
 11
3.77031
 21
173.294
 31
0.0
  0
LINE
  8
0
 62
     0
 10
363.245
 20
173.294
 30
0.0
 11
362.952
 21
173.144
 31
0.0
  0
LINE
  8
0
 62
     0
 10
362.952
 20
173.144
 30
0.0
 11
362.719
 21
172.911
 31
0.0
  0
LINE
  8
0
 62
     0
 10
362.719
 20
172.911
 30
0.0
 11
362.571
 21
172.619
 31
0.0
  0
LINE
  8
0
 62
     0
 10
362.571
 20
172.619
 30
0.0
 11
362.518
 21
172.293
 31
0.0
  0
LINE
  8
0
 62
     0
 10
362.518
 20
172.293
 30
0.0
 11
362.571
 21
171.97
 31
0.0
  0
LINE
  8
0
 62
     0
 10
362.571
 20
171.97
 30
0.0
 11
362.719
 21
171.676
 31
0.0
  0
LINE
  8
0
 62
     0
 10
362.719
 20
171.676
 30
0.0
 11
362.952
 21
171.444
 31
0.0
  0
LINE
  8
0
 62
     0
 10
362.952
 20
171.444
 30
0.0
 11
363.245
 21
171.296
 31
0.0
  0
LINE
  8
0
 62
     0
 10
363.245
 20
171.296
 30
0.0
 11
363.569
 21
171.243
 31
0.0
  0
LINE
  8
0
 62
     0
 10
363.569
 20
171.243
 30
0.0
 11
363.894
 21
171.296
 31
0.0
  0
LINE
  8
0
 62
     0
 10
363.894
 20
171.296
 30
0.0
 11
364.187
 21
171.444
 31
0.0
  0
LINE
  8
0
 62
     0
 10
364.187
 20
171.444
 30
0.0
 11
364.419
 21
171.676
 31
0.0
  0
LINE
  8
0
 62
     0
 10
364.419
 20
171.676
 30
0.0
 11
364.568
 21
171.97
 31
0.0
  0
LINE
  8
0
 62
     0
 10
364.568
 20
171.97
 30
0.0
 11
364.617
 21
172.293
 31
0.0
  0
LINE
  8
0
 62
     0
 10
364.617
 20
172.293
 30
0.0
 11
364.568
 21
172.619
 31
0.0
  0
LINE
  8
0
 62
     0
 10
364.568
 20
172.619
 30
0.0
 11
364.419
 21
172.911
 31
0.0
  0
LINE
  8
0
 62
     0
 10
364.419
 20
172.911
 30
0.0
 11
364.187
 21
173.144
 31
0.0
  0
LINE
  8
0
 62
     0
 10
364.187
 20
173.144
 30
0.0
 11
363.894
 21
173.294
 31
0.0
  0
LINE
  8
0
 62
     0
 10
363.894
 20
173.294
 30
0.0
 11
363.569
 21
173.343
 31
0.0
  0
LINE
  8
0
 62
     0
 10
363.569
 20
173.343
 30
0.0
 11
363.245
 21
173.294
 31
0.0
  0
LINE
  8
0
 62
     0
 10
291.349
 20
173.294
 30
0.0
 11
291.057
 21
173.144
 31
0.0
  0
LINE
  8
0
 62
     0
 10
291.057
 20
173.144
 30
0.0
 11
290.824
 21
172.911
 31
0.0
  0
LINE
  8
0
 62
     0
 10
290.824
 20
172.911
 30
0.0
 11
290.675
 21
172.619
 31
0.0
  0
LINE
  8
0
 62
     0
 10
290.675
 20
172.619
 30
0.0
 11
290.624
 21
172.293
 31
0.0
  0
LINE
  8
0
 62
     0
 10
290.624
 20
172.293
 30
0.0
 11
290.675
 21
171.97
 31
0.0
  0
LINE
  8
0
 62
     0
 10
290.675
 20
171.97
 30
0.0
 11
290.824
 21
171.676
 31
0.0
  0
LINE
  8
0
 62
     0
 10
290.824
 20
171.676
 30
0.0
 11
291.057
 21
171.444
 31
0.0
  0
LINE
  8
0
 62
     0
 10
291.057
 20
171.444
 30
0.0
 11
291.349
 21
171.296
 31
0.0
  0
LINE
  8
0
 62
     0
 10
291.349
 20
171.296
 30
0.0
 11
291.673
 21
171.243
 31
0.0
  0
LINE
  8
0
 62
     0
 10
291.673
 20
171.243
 30
0.0
 11
291.998
 21
171.296
 31
0.0
  0
LINE
  8
0
 62
     0
 10
291.998
 20
171.296
 30
0.0
 11
292.29
 21
171.444
 31
0.0
  0
LINE
  8
0
 62
     0
 10
292.29
 20
171.444
 30
0.0
 11
292.523
 21
171.676
 31
0.0
  0
LINE
  8
0
 62
     0
 10
292.523
 20
171.676
 30
0.0
 11
292.672
 21
171.97
 31
0.0
  0
LINE
  8
0
 62
     0
 10
292.672
 20
171.97
 30
0.0
 11
292.723
 21
172.293
 31
0.0
  0
LINE
  8
0
 62
     0
 10
292.723
 20
172.293
 30
0.0
 11
292.672
 21
172.619
 31
0.0
  0
LINE
  8
0
 62
     0
 10
292.672
 20
172.619
 30
0.0
 11
292.523
 21
172.911
 31
0.0
  0
LINE
  8
0
 62
     0
 10
292.523
 20
172.911
 30
0.0
 11
292.29
 21
173.144
 31
0.0
  0
LINE
  8
0
 62
     0
 10
292.29
 20
173.144
 30
0.0
 11
291.998
 21
173.294
 31
0.0
  0
LINE
  8
0
 62
     0
 10
291.998
 20
173.294
 30
0.0
 11
291.673
 21
173.343
 31
0.0
  0
LINE
  8
0
 62
     0
 10
291.673
 20
173.343
 30
0.0
 11
291.349
 21
173.294
 31
0.0
  0
LINE
  8
0
 62
     0
 10
219.454
 20
173.294
 30
0.0
 11
219.162
 21
173.144
 31
0.0
  0
LINE
  8
0
 62
     0
 10
219.162
 20
173.144
 30
0.0
 11
218.929
 21
172.911
 31
0.0
  0
LINE
  8
0
 62
     0
 10
218.929
 20
172.911
 30
0.0
 11
218.78
 21
172.619
 31
0.0
  0
LINE
  8
0
 62
     0
 10
218.78
 20
172.619
 30
0.0
 11
218.729
 21
172.293
 31
0.0
  0
LINE
  8
0
 62
     0
 10
218.729
 20
172.293
 30
0.0
 11
218.78
 21
171.97
 31
0.0
  0
LINE
  8
0
 62
     0
 10
218.78
 20
171.97
 30
0.0
 11
218.929
 21
171.676
 31
0.0
  0
LINE
  8
0
 62
     0
 10
218.929
 20
171.676
 30
0.0
 11
219.162
 21
171.444
 31
0.0
  0
LINE
  8
0
 62
     0
 10
219.162
 20
171.444
 30
0.0
 11
219.454
 21
171.296
 31
0.0
  0
LINE
  8
0
 62
     0
 10
219.454
 20
171.296
 30
0.0
 11
219.779
 21
171.243
 31
0.0
  0
LINE
  8
0
 62
     0
 10
219.779
 20
171.243
 30
0.0
 11
220.103
 21
171.296
 31
0.0
  0
LINE
  8
0
 62
     0
 10
220.103
 20
171.296
 30
0.0
 11
220.396
 21
171.444
 31
0.0
  0
LINE
  8
0
 62
     0
 10
220.396
 20
171.444
 30
0.0
 11
220.628
 21
171.676
 31
0.0
  0
LINE
  8
0
 62
     0
 10
220.628
 20
171.676
 30
0.0
 11
220.777
 21
171.97
 31
0.0
  0
LINE
  8
0
 62
     0
 10
220.777
 20
171.97
 30
0.0
 11
220.829
 21
172.293
 31
0.0
  0
LINE
  8
0
 62
     0
 10
220.829
 20
172.293
 30
0.0
 11
220.777
 21
172.619
 31
0.0
  0
LINE
  8
0
 62
     0
 10
220.777
 20
172.619
 30
0.0
 11
220.628
 21
172.911
 31
0.0
  0
LINE
  8
0
 62
     0
 10
220.628
 20
172.911
 30
0.0
 11
220.396
 21
173.144
 31
0.0
  0
LINE
  8
0
 62
     0
 10
220.396
 20
173.144
 30
0.0
 11
220.103
 21
173.294
 31
0.0
  0
LINE
  8
0
 62
     0
 10
220.103
 20
173.294
 30
0.0
 11
219.779
 21
173.343
 31
0.0
  0
LINE
  8
0
 62
     0
 10
219.779
 20
173.343
 30
0.0
 11
219.454
 21
173.294
 31
0.0
  0
LINE
  8
0
 62
     0
 10
147.559
 20
173.294
 30
0.0
 11
147.267
 21
173.144
 31
0.0
  0
LINE
  8
0
 62
     0
 10
147.267
 20
173.144
 30
0.0
 11
147.034
 21
172.911
 31
0.0
  0
LINE
  8
0
 62
     0
 10
147.034
 20
172.911
 30
0.0
 11
146.885
 21
172.619
 31
0.0
  0
LINE
  8
0
 62
     0
 10
146.885
 20
172.619
 30
0.0
 11
146.834
 21
172.293
 31
0.0
  0
LINE
  8
0
 62
     0
 10
146.834
 20
172.293
 30
0.0
 11
146.885
 21
171.97
 31
0.0
  0
LINE
  8
0
 62
     0
 10
146.885
 20
171.97
 30
0.0
 11
147.034
 21
171.676
 31
0.0
  0
LINE
  8
0
 62
     0
 10
147.034
 20
171.676
 30
0.0
 11
147.267
 21
171.444
 31
0.0
  0
LINE
  8
0
 62
     0
 10
147.267
 20
171.444
 30
0.0
 11
147.559
 21
171.296
 31
0.0
  0
LINE
  8
0
 62
     0
 10
147.559
 20
171.296
 30
0.0
 11
147.884
 21
171.243
 31
0.0
  0
LINE
  8
0
 62
     0
 10
147.884
 20
171.243
 30
0.0
 11
148.208
 21
171.296
 31
0.0
  0
LINE
  8
0
 62
     0
 10
148.208
 20
171.296
 30
0.0
 11
148.501
 21
171.444
 31
0.0
  0
LINE
  8
0
 62
     0
 10
148.501
 20
171.444
 30
0.0
 11
148.733
 21
171.676
 31
0.0
  0
LINE
  8
0
 62
     0
 10
148.733
 20
171.676
 30
0.0
 11
148.883
 21
171.97
 31
0.0
  0
LINE
  8
0
 62
     0
 10
148.883
 20
171.97
 30
0.0
 11
148.934
 21
172.293
 31
0.0
  0
LINE
  8
0
 62
     0
 10
148.934
 20
172.293
 30
0.0
 11
148.883
 21
172.619
 31
0.0
  0
LINE
  8
0
 62
     0
 10
148.883
 20
172.619
 30
0.0
 11
148.733
 21
172.911
 31
0.0
  0
LINE
  8
0
 62
     0
 10
148.733
 20
172.911
 30
0.0
 11
148.501
 21
173.144
 31
0.0
  0
LINE
  8
0
 62
     0
 10
148.501
 20
173.144
 30
0.0
 11
148.208
 21
173.294
 31
0.0
  0
LINE
  8
0
 62
     0
 10
148.208
 20
173.294
 30
0.0
 11
147.884
 21
173.343
 31
0.0
  0
LINE
  8
0
 62
     0
 10
147.884
 20
173.343
 30
0.0
 11
147.559
 21
173.294
 31
0.0
  0
LINE
  8
0
 62
     0
 10
75.6652
 20
173.294
 30
0.0
 11
75.3731
 21
173.144
 31
0.0
  0
LINE
  8
0
 62
     0
 10
75.3731
 20
173.144
 30
0.0
 11
75.1403
 21
172.911
 31
0.0
  0
LINE
  8
0
 62
     0
 10
75.1403
 20
172.911
 30
0.0
 11
74.9914
 21
172.619
 31
0.0
  0
LINE
  8
0
 62
     0
 10
74.9914
 20
172.619
 30
0.0
 11
74.9392
 21
172.293
 31
0.0
  0
LINE
  8
0
 62
     0
 10
74.9392
 20
172.293
 30
0.0
 11
74.9914
 21
171.97
 31
0.0
  0
LINE
  8
0
 62
     0
 10
74.9914
 20
171.97
 30
0.0
 11
75.1403
 21
171.676
 31
0.0
  0
LINE
  8
0
 62
     0
 10
75.1403
 20
171.676
 30
0.0
 11
75.3731
 21
171.444
 31
0.0
  0
LINE
  8
0
 62
     0
 10
75.3731
 20
171.444
 30
0.0
 11
75.6652
 21
171.296
 31
0.0
  0
LINE
  8
0
 62
     0
 10
75.6652
 20
171.296
 30
0.0
 11
75.989
 21
171.243
 31
0.0
  0
LINE
  8
0
 62
     0
 10
75.989
 20
171.243
 30
0.0
 11
76.3143
 21
171.296
 31
0.0
  0
LINE
  8
0
 62
     0
 10
76.3143
 20
171.296
 30
0.0
 11
76.6064
 21
171.444
 31
0.0
  0
LINE
  8
0
 62
     0
 10
76.6064
 20
171.444
 30
0.0
 11
76.8396
 21
171.676
 31
0.0
  0
LINE
  8
0
 62
     0
 10
76.8396
 20
171.676
 30
0.0
 11
76.9881
 21
171.97
 31
0.0
  0
LINE
  8
0
 62
     0
 10
76.9881
 20
171.97
 30
0.0
 11
77.0393
 21
172.293
 31
0.0
  0
LINE
  8
0
 62
     0
 10
77.0393
 20
172.293
 30
0.0
 11
76.9881
 21
172.619
 31
0.0
  0
LINE
  8
0
 62
     0
 10
76.9881
 20
172.619
 30
0.0
 11
76.8396
 21
172.911
 31
0.0
  0
LINE
  8
0
 62
     0
 10
76.8396
 20
172.911
 30
0.0
 11
76.6064
 21
173.144
 31
0.0
  0
LINE
  8
0
 62
     0
 10
76.6064
 20
173.144
 30
0.0
 11
76.3143
 21
173.294
 31
0.0
  0
LINE
  8
0
 62
     0
 10
76.3143
 20
173.294
 30
0.0
 11
75.989
 21
173.343
 31
0.0
  0
LINE
  8
0
 62
     0
 10
75.989
 20
173.343
 30
0.0
 11
75.6652
 21
173.294
 31
0.0
  0
ENDSEC
  0
EOF
