  0
SECTION
  2
HEADER
  9
$ACADVER
  1
AC1009
  9
$EXTMIN
 10
0.0
 20
0.0
 30
0.0
  9
$EXTMAX
 10
1000.0
 20
1000.0
 30
0.0
  9
$FILLMODE
 70
 0
  9
$SPLFRAME
 70
 1
  0
ENDSEC
  0
SECTION
  2
TABLES
  0
TABLE
  2
LAYER
 70
1
  0
LAYER
  2
0
 70
     0
 62
     7
  6
CONTINUOUS
  0
ENDTAB
  0
ENDSEC
  0
SECTION
  2
ENTITIES
  0
LINE
  8
0
 62
     0
 10
0.0950846
 20
228.858
 30
0.0
 11
228.695
 21
228.858
 31
0.0
  0
LINE
  8
0
 62
     0
 10
228.695
 20
228.858
 30
0.0
 11
228.695
 21
0.257693
 31
0.0
  0
LINE
  8
0
 62
     0
 10
228.695
 20
0.257693
 30
0.0
 11
0.0950846
 21
0.257693
 31
0.0
  0
LINE
  8
0
 62
     0
 10
0.0950846
 20
0.257693
 30
0.0
 11
0.0950846
 21
228.858
 31
0.0
  0
LINE
  8
0
 62
     0
 10
2.61965
 20
16.7831
 30
0.0
 11
16.6192
 21
16.7831
 31
0.0
  0
LINE
  8
0
 62
     0
 10
16.6192
 20
16.7831
 30
0.0
 11
16.6192
 21
2.78364
 31
0.0
  0
LINE
  8
0
 62
     0
 10
16.6192
 20
2.78364
 30
0.0
 11
2.61965
 21
2.78364
 31
0.0
  0
LINE
  8
0
 62
     0
 10
2.61965
 20
2.78364
 30
0.0
 11
2.61965
 21
16.7831
 31
0.0
  0
LINE
  8
0
 62
     0
 10
212.17
 20
92.9831
 30
0.0
 11
226.169
 21
92.9831
 31
0.0
  0
LINE
  8
0
 62
     0
 10
226.169
 20
92.9831
 30
0.0
 11
226.169
 21
78.9838
 31
0.0
  0
LINE
  8
0
 62
     0
 10
226.169
 20
78.9838
 30
0.0
 11
212.17
 21
78.9838
 31
0.0
  0
LINE
  8
0
 62
     0
 10
212.17
 20
78.9838
 30
0.0
 11
212.17
 21
92.9831
 31
0.0
  0
LINE
  8
0
 62
     0
 10
193.12
 20
92.9831
 30
0.0
 11
207.119
 21
92.9831
 31
0.0
  0
LINE
  8
0
 62
     0
 10
207.119
 20
92.9831
 30
0.0
 11
207.119
 21
78.9838
 31
0.0
  0
LINE
  8
0
 62
     0
 10
207.119
 20
78.9838
 30
0.0
 11
193.12
 21
78.9838
 31
0.0
  0
LINE
  8
0
 62
     0
 10
193.12
 20
78.9838
 30
0.0
 11
193.12
 21
92.9831
 31
0.0
  0
LINE
  8
0
 62
     0
 10
174.07
 20
92.9831
 30
0.0
 11
188.069
 21
92.9831
 31
0.0
  0
LINE
  8
0
 62
     0
 10
188.069
 20
92.9831
 30
0.0
 11
188.069
 21
78.9838
 31
0.0
  0
LINE
  8
0
 62
     0
 10
188.069
 20
78.9838
 30
0.0
 11
174.07
 21
78.9838
 31
0.0
  0
LINE
  8
0
 62
     0
 10
174.07
 20
78.9838
 30
0.0
 11
174.07
 21
92.9831
 31
0.0
  0
LINE
  8
0
 62
     0
 10
126.445
 20
92.9831
 30
0.0
 11
140.444
 21
92.9831
 31
0.0
  0
LINE
  8
0
 62
     0
 10
140.444
 20
92.9831
 30
0.0
 11
140.444
 21
78.9838
 31
0.0
  0
LINE
  8
0
 62
     0
 10
140.444
 20
78.9838
 30
0.0
 11
126.445
 21
78.9838
 31
0.0
  0
LINE
  8
0
 62
     0
 10
126.445
 20
78.9838
 30
0.0
 11
126.445
 21
92.9831
 31
0.0
  0
LINE
  8
0
 62
     0
 10
107.395
 20
92.9831
 30
0.0
 11
121.394
 21
92.9831
 31
0.0
  0
LINE
  8
0
 62
     0
 10
121.394
 20
92.9831
 30
0.0
 11
121.394
 21
78.9838
 31
0.0
  0
LINE
  8
0
 62
     0
 10
121.394
 20
78.9838
 30
0.0
 11
107.395
 21
78.9838
 31
0.0
  0
LINE
  8
0
 62
     0
 10
107.395
 20
78.9838
 30
0.0
 11
107.395
 21
92.9831
 31
0.0
  0
LINE
  8
0
 62
     0
 10
88.3447
 20
92.9831
 30
0.0
 11
102.344
 21
92.9831
 31
0.0
  0
LINE
  8
0
 62
     0
 10
102.344
 20
92.9831
 30
0.0
 11
102.344
 21
78.9838
 31
0.0
  0
LINE
  8
0
 62
     0
 10
102.344
 20
78.9838
 30
0.0
 11
88.3447
 21
78.9838
 31
0.0
  0
LINE
  8
0
 62
     0
 10
88.3447
 20
78.9838
 30
0.0
 11
88.3447
 21
92.9831
 31
0.0
  0
LINE
  8
0
 62
     0
 10
212.17
 20
112.034
 30
0.0
 11
226.169
 21
112.034
 31
0.0
  0
LINE
  8
0
 62
     0
 10
226.169
 20
112.034
 30
0.0
 11
226.169
 21
98.0338
 31
0.0
  0
LINE
  8
0
 62
     0
 10
226.169
 20
98.0338
 30
0.0
 11
212.17
 21
98.0338
 31
0.0
  0
LINE
  8
0
 62
     0
 10
212.17
 20
98.0338
 30
0.0
 11
212.17
 21
112.034
 31
0.0
  0
LINE
  8
0
 62
     0
 10
193.12
 20
112.034
 30
0.0
 11
207.119
 21
112.034
 31
0.0
  0
LINE
  8
0
 62
     0
 10
207.119
 20
112.034
 30
0.0
 11
207.119
 21
98.0338
 31
0.0
  0
LINE
  8
0
 62
     0
 10
207.119
 20
98.0338
 30
0.0
 11
193.12
 21
98.0338
 31
0.0
  0
LINE
  8
0
 62
     0
 10
193.12
 20
98.0338
 30
0.0
 11
193.12
 21
112.034
 31
0.0
  0
LINE
  8
0
 62
     0
 10
174.07
 20
112.034
 30
0.0
 11
188.069
 21
112.034
 31
0.0
  0
LINE
  8
0
 62
     0
 10
188.069
 20
112.034
 30
0.0
 11
188.069
 21
98.0338
 31
0.0
  0
LINE
  8
0
 62
     0
 10
188.069
 20
98.0338
 30
0.0
 11
174.07
 21
98.0338
 31
0.0
  0
LINE
  8
0
 62
     0
 10
174.07
 20
98.0338
 30
0.0
 11
174.07
 21
112.034
 31
0.0
  0
LINE
  8
0
 62
     0
 10
155.02
 20
112.034
 30
0.0
 11
169.019
 21
112.034
 31
0.0
  0
LINE
  8
0
 62
     0
 10
169.019
 20
112.034
 30
0.0
 11
169.019
 21
98.0338
 31
0.0
  0
LINE
  8
0
 62
     0
 10
169.019
 20
98.0338
 30
0.0
 11
155.02
 21
98.0338
 31
0.0
  0
LINE
  8
0
 62
     0
 10
155.02
 20
98.0338
 30
0.0
 11
155.02
 21
112.034
 31
0.0
  0
LINE
  8
0
 62
     0
 10
135.97
 20
112.034
 30
0.0
 11
149.969
 21
112.034
 31
0.0
  0
LINE
  8
0
 62
     0
 10
149.969
 20
112.034
 30
0.0
 11
149.969
 21
98.0338
 31
0.0
  0
LINE
  8
0
 62
     0
 10
149.969
 20
98.0338
 30
0.0
 11
135.97
 21
98.0338
 31
0.0
  0
LINE
  8
0
 62
     0
 10
135.97
 20
98.0338
 30
0.0
 11
135.97
 21
112.034
 31
0.0
  0
LINE
  8
0
 62
     0
 10
116.918
 20
112.034
 30
0.0
 11
130.919
 21
112.034
 31
0.0
  0
LINE
  8
0
 62
     0
 10
130.919
 20
112.034
 30
0.0
 11
130.919
 21
98.0338
 31
0.0
  0
LINE
  8
0
 62
     0
 10
130.919
 20
98.0338
 30
0.0
 11
116.918
 21
98.0338
 31
0.0
  0
LINE
  8
0
 62
     0
 10
116.918
 20
98.0338
 30
0.0
 11
116.918
 21
112.034
 31
0.0
  0
LINE
  8
0
 62
     0
 10
97.8683
 20
112.034
 30
0.0
 11
111.869
 21
112.034
 31
0.0
  0
LINE
  8
0
 62
     0
 10
111.869
 20
112.034
 30
0.0
 11
111.869
 21
98.0338
 31
0.0
  0
LINE
  8
0
 62
     0
 10
111.869
 20
98.0338
 30
0.0
 11
97.8683
 21
98.0338
 31
0.0
  0
LINE
  8
0
 62
     0
 10
97.8683
 20
98.0338
 30
0.0
 11
97.8683
 21
112.034
 31
0.0
  0
LINE
  8
0
 62
     0
 10
78.8197
 20
112.034
 30
0.0
 11
92.819
 21
112.034
 31
0.0
  0
LINE
  8
0
 62
     0
 10
92.819
 20
112.034
 30
0.0
 11
92.819
 21
98.0338
 31
0.0
  0
LINE
  8
0
 62
     0
 10
92.819
 20
98.0338
 30
0.0
 11
78.8197
 21
98.0338
 31
0.0
  0
LINE
  8
0
 62
     0
 10
78.8197
 20
98.0338
 30
0.0
 11
78.8197
 21
112.034
 31
0.0
  0
LINE
  8
0
 62
     0
 10
59.7697
 20
112.034
 30
0.0
 11
73.769
 21
112.034
 31
0.0
  0
LINE
  8
0
 62
     0
 10
73.769
 20
112.034
 30
0.0
 11
73.769
 21
98.0338
 31
0.0
  0
LINE
  8
0
 62
     0
 10
73.769
 20
98.0338
 30
0.0
 11
59.7697
 21
98.0338
 31
0.0
  0
LINE
  8
0
 62
     0
 10
59.7697
 20
98.0338
 30
0.0
 11
59.7697
 21
112.034
 31
0.0
  0
LINE
  8
0
 62
     0
 10
40.7197
 20
112.034
 30
0.0
 11
54.719
 21
112.034
 31
0.0
  0
LINE
  8
0
 62
     0
 10
54.719
 20
112.034
 30
0.0
 11
54.719
 21
98.0338
 31
0.0
  0
LINE
  8
0
 62
     0
 10
54.719
 20
98.0338
 30
0.0
 11
40.7197
 21
98.0338
 31
0.0
  0
LINE
  8
0
 62
     0
 10
40.7197
 20
98.0338
 30
0.0
 11
40.7197
 21
112.034
 31
0.0
  0
LINE
  8
0
 62
     0
 10
21.6697
 20
112.034
 30
0.0
 11
35.669
 21
112.034
 31
0.0
  0
LINE
  8
0
 62
     0
 10
35.669
 20
112.034
 30
0.0
 11
35.669
 21
98.0338
 31
0.0
  0
LINE
  8
0
 62
     0
 10
35.669
 20
98.0338
 30
0.0
 11
21.6697
 21
98.0338
 31
0.0
  0
LINE
  8
0
 62
     0
 10
21.6697
 20
98.0338
 30
0.0
 11
21.6697
 21
112.034
 31
0.0
  0
LINE
  8
0
 62
     0
 10
2.61965
 20
112.034
 30
0.0
 11
16.6192
 21
112.034
 31
0.0
  0
LINE
  8
0
 62
     0
 10
16.6192
 20
112.034
 30
0.0
 11
16.6192
 21
98.0338
 31
0.0
  0
LINE
  8
0
 62
     0
 10
16.6192
 20
98.0338
 30
0.0
 11
2.61965
 21
98.0338
 31
0.0
  0
LINE
  8
0
 62
     0
 10
2.61965
 20
98.0338
 30
0.0
 11
2.61965
 21
112.034
 31
0.0
  0
LINE
  8
0
 62
     0
 10
212.17
 20
131.084
 30
0.0
 11
226.169
 21
131.084
 31
0.0
  0
LINE
  8
0
 62
     0
 10
226.169
 20
131.084
 30
0.0
 11
226.169
 21
117.084
 31
0.0
  0
LINE
  8
0
 62
     0
 10
226.169
 20
117.084
 30
0.0
 11
212.17
 21
117.084
 31
0.0
  0
LINE
  8
0
 62
     0
 10
212.17
 20
117.084
 30
0.0
 11
212.17
 21
131.084
 31
0.0
  0
LINE
  8
0
 62
     0
 10
193.12
 20
131.084
 30
0.0
 11
207.119
 21
131.084
 31
0.0
  0
LINE
  8
0
 62
     0
 10
207.119
 20
131.084
 30
0.0
 11
207.119
 21
117.084
 31
0.0
  0
LINE
  8
0
 62
     0
 10
207.119
 20
117.084
 30
0.0
 11
193.12
 21
117.084
 31
0.0
  0
LINE
  8
0
 62
     0
 10
193.12
 20
117.084
 30
0.0
 11
193.12
 21
131.084
 31
0.0
  0
LINE
  8
0
 62
     0
 10
174.07
 20
131.084
 30
0.0
 11
188.069
 21
131.084
 31
0.0
  0
LINE
  8
0
 62
     0
 10
188.069
 20
131.084
 30
0.0
 11
188.069
 21
117.084
 31
0.0
  0
LINE
  8
0
 62
     0
 10
188.069
 20
117.084
 30
0.0
 11
174.07
 21
117.084
 31
0.0
  0
LINE
  8
0
 62
     0
 10
174.07
 20
117.084
 30
0.0
 11
174.07
 21
131.084
 31
0.0
  0
LINE
  8
0
 62
     0
 10
155.02
 20
131.084
 30
0.0
 11
169.019
 21
131.084
 31
0.0
  0
LINE
  8
0
 62
     0
 10
169.019
 20
131.084
 30
0.0
 11
169.019
 21
117.084
 31
0.0
  0
LINE
  8
0
 62
     0
 10
169.019
 20
117.084
 30
0.0
 11
155.02
 21
117.084
 31
0.0
  0
LINE
  8
0
 62
     0
 10
155.02
 20
117.084
 30
0.0
 11
155.02
 21
131.084
 31
0.0
  0
LINE
  8
0
 62
     0
 10
135.97
 20
131.084
 30
0.0
 11
149.969
 21
131.084
 31
0.0
  0
LINE
  8
0
 62
     0
 10
149.969
 20
131.084
 30
0.0
 11
149.969
 21
117.084
 31
0.0
  0
LINE
  8
0
 62
     0
 10
149.969
 20
117.084
 30
0.0
 11
135.97
 21
117.084
 31
0.0
  0
LINE
  8
0
 62
     0
 10
135.97
 20
117.084
 30
0.0
 11
135.97
 21
131.084
 31
0.0
  0
LINE
  8
0
 62
     0
 10
116.918
 20
131.084
 30
0.0
 11
130.919
 21
131.084
 31
0.0
  0
LINE
  8
0
 62
     0
 10
130.919
 20
131.084
 30
0.0
 11
130.919
 21
117.084
 31
0.0
  0
LINE
  8
0
 62
     0
 10
130.919
 20
117.084
 30
0.0
 11
116.918
 21
117.084
 31
0.0
  0
LINE
  8
0
 62
     0
 10
116.918
 20
117.084
 30
0.0
 11
116.918
 21
131.084
 31
0.0
  0
LINE
  8
0
 62
     0
 10
97.8683
 20
131.084
 30
0.0
 11
111.869
 21
131.084
 31
0.0
  0
LINE
  8
0
 62
     0
 10
111.869
 20
131.084
 30
0.0
 11
111.869
 21
117.084
 31
0.0
  0
LINE
  8
0
 62
     0
 10
111.869
 20
117.084
 30
0.0
 11
97.8683
 21
117.084
 31
0.0
  0
LINE
  8
0
 62
     0
 10
97.8683
 20
117.084
 30
0.0
 11
97.8683
 21
131.084
 31
0.0
  0
LINE
  8
0
 62
     0
 10
78.8197
 20
131.084
 30
0.0
 11
92.819
 21
131.084
 31
0.0
  0
LINE
  8
0
 62
     0
 10
92.819
 20
131.084
 30
0.0
 11
92.819
 21
117.084
 31
0.0
  0
LINE
  8
0
 62
     0
 10
92.819
 20
117.084
 30
0.0
 11
78.8197
 21
117.084
 31
0.0
  0
LINE
  8
0
 62
     0
 10
78.8197
 20
117.084
 30
0.0
 11
78.8197
 21
131.084
 31
0.0
  0
LINE
  8
0
 62
     0
 10
59.7697
 20
131.084
 30
0.0
 11
73.769
 21
131.084
 31
0.0
  0
LINE
  8
0
 62
     0
 10
73.769
 20
131.084
 30
0.0
 11
73.769
 21
117.084
 31
0.0
  0
LINE
  8
0
 62
     0
 10
73.769
 20
117.084
 30
0.0
 11
59.7697
 21
117.084
 31
0.0
  0
LINE
  8
0
 62
     0
 10
59.7697
 20
117.084
 30
0.0
 11
59.7697
 21
131.084
 31
0.0
  0
LINE
  8
0
 62
     0
 10
40.7197
 20
131.084
 30
0.0
 11
54.719
 21
131.084
 31
0.0
  0
LINE
  8
0
 62
     0
 10
54.719
 20
131.084
 30
0.0
 11
54.719
 21
117.084
 31
0.0
  0
LINE
  8
0
 62
     0
 10
54.719
 20
117.084
 30
0.0
 11
40.7197
 21
117.084
 31
0.0
  0
LINE
  8
0
 62
     0
 10
40.7197
 20
117.084
 30
0.0
 11
40.7197
 21
131.084
 31
0.0
  0
LINE
  8
0
 62
     0
 10
21.6697
 20
131.084
 30
0.0
 11
35.669
 21
131.084
 31
0.0
  0
LINE
  8
0
 62
     0
 10
35.669
 20
131.084
 30
0.0
 11
35.669
 21
117.084
 31
0.0
  0
LINE
  8
0
 62
     0
 10
35.669
 20
117.084
 30
0.0
 11
21.6697
 21
117.084
 31
0.0
  0
LINE
  8
0
 62
     0
 10
21.6697
 20
117.084
 30
0.0
 11
21.6697
 21
131.084
 31
0.0
  0
LINE
  8
0
 62
     0
 10
2.61965
 20
131.084
 30
0.0
 11
16.6192
 21
131.084
 31
0.0
  0
LINE
  8
0
 62
     0
 10
16.6192
 20
131.084
 30
0.0
 11
16.6192
 21
117.084
 31
0.0
  0
LINE
  8
0
 62
     0
 10
16.6192
 20
117.084
 30
0.0
 11
2.61965
 21
117.084
 31
0.0
  0
LINE
  8
0
 62
     0
 10
2.61965
 20
117.084
 30
0.0
 11
2.61965
 21
131.084
 31
0.0
  0
LINE
  8
0
 62
     0
 10
212.17
 20
150.133
 30
0.0
 11
226.169
 21
150.133
 31
0.0
  0
LINE
  8
0
 62
     0
 10
226.169
 20
150.133
 30
0.0
 11
226.169
 21
136.134
 31
0.0
  0
LINE
  8
0
 62
     0
 10
226.169
 20
136.134
 30
0.0
 11
212.17
 21
136.134
 31
0.0
  0
LINE
  8
0
 62
     0
 10
212.17
 20
136.134
 30
0.0
 11
212.17
 21
150.133
 31
0.0
  0
LINE
  8
0
 62
     0
 10
193.12
 20
150.133
 30
0.0
 11
207.119
 21
150.133
 31
0.0
  0
LINE
  8
0
 62
     0
 10
207.119
 20
150.133
 30
0.0
 11
207.119
 21
136.134
 31
0.0
  0
LINE
  8
0
 62
     0
 10
207.119
 20
136.134
 30
0.0
 11
193.12
 21
136.134
 31
0.0
  0
LINE
  8
0
 62
     0
 10
193.12
 20
136.134
 30
0.0
 11
193.12
 21
150.133
 31
0.0
  0
LINE
  8
0
 62
     0
 10
174.07
 20
150.133
 30
0.0
 11
188.069
 21
150.133
 31
0.0
  0
LINE
  8
0
 62
     0
 10
188.069
 20
150.133
 30
0.0
 11
188.069
 21
136.134
 31
0.0
  0
LINE
  8
0
 62
     0
 10
188.069
 20
136.134
 30
0.0
 11
174.07
 21
136.134
 31
0.0
  0
LINE
  8
0
 62
     0
 10
174.07
 20
136.134
 30
0.0
 11
174.07
 21
150.133
 31
0.0
  0
LINE
  8
0
 62
     0
 10
155.02
 20
150.133
 30
0.0
 11
169.019
 21
150.133
 31
0.0
  0
LINE
  8
0
 62
     0
 10
169.019
 20
150.133
 30
0.0
 11
169.019
 21
136.134
 31
0.0
  0
LINE
  8
0
 62
     0
 10
169.019
 20
136.134
 30
0.0
 11
155.02
 21
136.134
 31
0.0
  0
LINE
  8
0
 62
     0
 10
155.02
 20
136.134
 30
0.0
 11
155.02
 21
150.133
 31
0.0
  0
LINE
  8
0
 62
     0
 10
135.97
 20
150.133
 30
0.0
 11
149.969
 21
150.133
 31
0.0
  0
LINE
  8
0
 62
     0
 10
149.969
 20
150.133
 30
0.0
 11
149.969
 21
136.134
 31
0.0
  0
LINE
  8
0
 62
     0
 10
149.969
 20
136.134
 30
0.0
 11
135.97
 21
136.134
 31
0.0
  0
LINE
  8
0
 62
     0
 10
135.97
 20
136.134
 30
0.0
 11
135.97
 21
150.133
 31
0.0
  0
LINE
  8
0
 62
     0
 10
116.918
 20
150.133
 30
0.0
 11
130.919
 21
150.133
 31
0.0
  0
LINE
  8
0
 62
     0
 10
130.919
 20
150.133
 30
0.0
 11
130.919
 21
136.134
 31
0.0
  0
LINE
  8
0
 62
     0
 10
130.919
 20
136.134
 30
0.0
 11
116.918
 21
136.134
 31
0.0
  0
LINE
  8
0
 62
     0
 10
116.918
 20
136.134
 30
0.0
 11
116.918
 21
150.133
 31
0.0
  0
LINE
  8
0
 62
     0
 10
97.8683
 20
150.133
 30
0.0
 11
111.869
 21
150.133
 31
0.0
  0
LINE
  8
0
 62
     0
 10
111.869
 20
150.133
 30
0.0
 11
111.869
 21
136.134
 31
0.0
  0
LINE
  8
0
 62
     0
 10
111.869
 20
136.134
 30
0.0
 11
97.8683
 21
136.134
 31
0.0
  0
LINE
  8
0
 62
     0
 10
97.8683
 20
136.134
 30
0.0
 11
97.8683
 21
150.133
 31
0.0
  0
LINE
  8
0
 62
     0
 10
78.8197
 20
150.133
 30
0.0
 11
92.819
 21
150.133
 31
0.0
  0
LINE
  8
0
 62
     0
 10
92.819
 20
150.133
 30
0.0
 11
92.819
 21
136.134
 31
0.0
  0
LINE
  8
0
 62
     0
 10
92.819
 20
136.134
 30
0.0
 11
78.8197
 21
136.134
 31
0.0
  0
LINE
  8
0
 62
     0
 10
78.8197
 20
136.134
 30
0.0
 11
78.8197
 21
150.133
 31
0.0
  0
LINE
  8
0
 62
     0
 10
59.7697
 20
150.133
 30
0.0
 11
73.769
 21
150.133
 31
0.0
  0
LINE
  8
0
 62
     0
 10
73.769
 20
150.133
 30
0.0
 11
73.769
 21
136.134
 31
0.0
  0
LINE
  8
0
 62
     0
 10
73.769
 20
136.134
 30
0.0
 11
59.7697
 21
136.134
 31
0.0
  0
LINE
  8
0
 62
     0
 10
59.7697
 20
136.134
 30
0.0
 11
59.7697
 21
150.133
 31
0.0
  0
LINE
  8
0
 62
     0
 10
40.7197
 20
150.133
 30
0.0
 11
54.719
 21
150.133
 31
0.0
  0
LINE
  8
0
 62
     0
 10
54.719
 20
150.133
 30
0.0
 11
54.719
 21
136.134
 31
0.0
  0
LINE
  8
0
 62
     0
 10
54.719
 20
136.134
 30
0.0
 11
40.7197
 21
136.134
 31
0.0
  0
LINE
  8
0
 62
     0
 10
40.7197
 20
136.134
 30
0.0
 11
40.7197
 21
150.133
 31
0.0
  0
LINE
  8
0
 62
     0
 10
21.6697
 20
150.133
 30
0.0
 11
35.669
 21
150.133
 31
0.0
  0
LINE
  8
0
 62
     0
 10
35.669
 20
150.133
 30
0.0
 11
35.669
 21
136.134
 31
0.0
  0
LINE
  8
0
 62
     0
 10
35.669
 20
136.134
 30
0.0
 11
21.6697
 21
136.134
 31
0.0
  0
LINE
  8
0
 62
     0
 10
21.6697
 20
136.134
 30
0.0
 11
21.6697
 21
150.133
 31
0.0
  0
LINE
  8
0
 62
     0
 10
2.61965
 20
150.133
 30
0.0
 11
16.6192
 21
150.133
 31
0.0
  0
LINE
  8
0
 62
     0
 10
16.6192
 20
150.133
 30
0.0
 11
16.6192
 21
136.134
 31
0.0
  0
LINE
  8
0
 62
     0
 10
16.6192
 20
136.134
 30
0.0
 11
2.61965
 21
136.134
 31
0.0
  0
LINE
  8
0
 62
     0
 10
2.61965
 20
136.134
 30
0.0
 11
2.61965
 21
150.133
 31
0.0
  0
LINE
  8
0
 62
     0
 10
212.17
 20
169.183
 30
0.0
 11
226.169
 21
169.183
 31
0.0
  0
LINE
  8
0
 62
     0
 10
226.169
 20
169.183
 30
0.0
 11
226.169
 21
155.184
 31
0.0
  0
LINE
  8
0
 62
     0
 10
226.169
 20
155.184
 30
0.0
 11
212.17
 21
155.184
 31
0.0
  0
LINE
  8
0
 62
     0
 10
212.17
 20
155.184
 30
0.0
 11
212.17
 21
169.183
 31
0.0
  0
LINE
  8
0
 62
     0
 10
193.12
 20
169.183
 30
0.0
 11
207.119
 21
169.183
 31
0.0
  0
LINE
  8
0
 62
     0
 10
207.119
 20
169.183
 30
0.0
 11
207.119
 21
155.184
 31
0.0
  0
LINE
  8
0
 62
     0
 10
207.119
 20
155.184
 30
0.0
 11
193.12
 21
155.184
 31
0.0
  0
LINE
  8
0
 62
     0
 10
193.12
 20
155.184
 30
0.0
 11
193.12
 21
169.183
 31
0.0
  0
LINE
  8
0
 62
     0
 10
174.07
 20
169.183
 30
0.0
 11
188.069
 21
169.183
 31
0.0
  0
LINE
  8
0
 62
     0
 10
188.069
 20
169.183
 30
0.0
 11
188.069
 21
155.184
 31
0.0
  0
LINE
  8
0
 62
     0
 10
188.069
 20
155.184
 30
0.0
 11
174.07
 21
155.184
 31
0.0
  0
LINE
  8
0
 62
     0
 10
174.07
 20
155.184
 30
0.0
 11
174.07
 21
169.183
 31
0.0
  0
LINE
  8
0
 62
     0
 10
155.02
 20
169.183
 30
0.0
 11
169.019
 21
169.183
 31
0.0
  0
LINE
  8
0
 62
     0
 10
169.019
 20
169.183
 30
0.0
 11
169.019
 21
155.184
 31
0.0
  0
LINE
  8
0
 62
     0
 10
169.019
 20
155.184
 30
0.0
 11
155.02
 21
155.184
 31
0.0
  0
LINE
  8
0
 62
     0
 10
155.02
 20
155.184
 30
0.0
 11
155.02
 21
169.183
 31
0.0
  0
LINE
  8
0
 62
     0
 10
135.97
 20
169.183
 30
0.0
 11
149.969
 21
169.183
 31
0.0
  0
LINE
  8
0
 62
     0
 10
149.969
 20
169.183
 30
0.0
 11
149.969
 21
155.184
 31
0.0
  0
LINE
  8
0
 62
     0
 10
149.969
 20
155.184
 30
0.0
 11
135.97
 21
155.184
 31
0.0
  0
LINE
  8
0
 62
     0
 10
135.97
 20
155.184
 30
0.0
 11
135.97
 21
169.183
 31
0.0
  0
LINE
  8
0
 62
     0
 10
116.918
 20
169.183
 30
0.0
 11
130.919
 21
169.183
 31
0.0
  0
LINE
  8
0
 62
     0
 10
130.919
 20
169.183
 30
0.0
 11
130.919
 21
155.184
 31
0.0
  0
LINE
  8
0
 62
     0
 10
130.919
 20
155.184
 30
0.0
 11
116.918
 21
155.184
 31
0.0
  0
LINE
  8
0
 62
     0
 10
116.918
 20
155.184
 30
0.0
 11
116.918
 21
169.183
 31
0.0
  0
LINE
  8
0
 62
     0
 10
97.8683
 20
169.183
 30
0.0
 11
111.869
 21
169.183
 31
0.0
  0
LINE
  8
0
 62
     0
 10
111.869
 20
169.183
 30
0.0
 11
111.869
 21
155.184
 31
0.0
  0
LINE
  8
0
 62
     0
 10
111.869
 20
155.184
 30
0.0
 11
97.8683
 21
155.184
 31
0.0
  0
LINE
  8
0
 62
     0
 10
97.8683
 20
155.184
 30
0.0
 11
97.8683
 21
169.183
 31
0.0
  0
LINE
  8
0
 62
     0
 10
78.8197
 20
169.183
 30
0.0
 11
92.819
 21
169.183
 31
0.0
  0
LINE
  8
0
 62
     0
 10
92.819
 20
169.183
 30
0.0
 11
92.819
 21
155.184
 31
0.0
  0
LINE
  8
0
 62
     0
 10
92.819
 20
155.184
 30
0.0
 11
78.8197
 21
155.184
 31
0.0
  0
LINE
  8
0
 62
     0
 10
78.8197
 20
155.184
 30
0.0
 11
78.8197
 21
169.183
 31
0.0
  0
LINE
  8
0
 62
     0
 10
59.7697
 20
169.183
 30
0.0
 11
73.769
 21
169.183
 31
0.0
  0
LINE
  8
0
 62
     0
 10
73.769
 20
169.183
 30
0.0
 11
73.769
 21
155.184
 31
0.0
  0
LINE
  8
0
 62
     0
 10
73.769
 20
155.184
 30
0.0
 11
59.7697
 21
155.184
 31
0.0
  0
LINE
  8
0
 62
     0
 10
59.7697
 20
155.184
 30
0.0
 11
59.7697
 21
169.183
 31
0.0
  0
LINE
  8
0
 62
     0
 10
40.7197
 20
169.183
 30
0.0
 11
54.719
 21
169.183
 31
0.0
  0
LINE
  8
0
 62
     0
 10
54.719
 20
169.183
 30
0.0
 11
54.719
 21
155.184
 31
0.0
  0
LINE
  8
0
 62
     0
 10
54.719
 20
155.184
 30
0.0
 11
40.7197
 21
155.184
 31
0.0
  0
LINE
  8
0
 62
     0
 10
40.7197
 20
155.184
 30
0.0
 11
40.7197
 21
169.183
 31
0.0
  0
LINE
  8
0
 62
     0
 10
21.6697
 20
169.183
 30
0.0
 11
35.669
 21
169.183
 31
0.0
  0
LINE
  8
0
 62
     0
 10
35.669
 20
169.183
 30
0.0
 11
35.669
 21
155.184
 31
0.0
  0
LINE
  8
0
 62
     0
 10
35.669
 20
155.184
 30
0.0
 11
21.6697
 21
155.184
 31
0.0
  0
LINE
  8
0
 62
     0
 10
21.6697
 20
155.184
 30
0.0
 11
21.6697
 21
169.183
 31
0.0
  0
LINE
  8
0
 62
     0
 10
2.61965
 20
169.183
 30
0.0
 11
16.6192
 21
169.183
 31
0.0
  0
LINE
  8
0
 62
     0
 10
16.6192
 20
169.183
 30
0.0
 11
16.6192
 21
155.184
 31
0.0
  0
LINE
  8
0
 62
     0
 10
16.6192
 20
155.184
 30
0.0
 11
2.61965
 21
155.184
 31
0.0
  0
LINE
  8
0
 62
     0
 10
2.61965
 20
155.184
 30
0.0
 11
2.61965
 21
169.183
 31
0.0
  0
LINE
  8
0
 62
     0
 10
212.17
 20
188.233
 30
0.0
 11
226.169
 21
188.233
 31
0.0
  0
LINE
  8
0
 62
     0
 10
226.169
 20
188.233
 30
0.0
 11
226.169
 21
174.234
 31
0.0
  0
LINE
  8
0
 62
     0
 10
226.169
 20
174.234
 30
0.0
 11
212.17
 21
174.234
 31
0.0
  0
LINE
  8
0
 62
     0
 10
212.17
 20
174.234
 30
0.0
 11
212.17
 21
188.233
 31
0.0
  0
LINE
  8
0
 62
     0
 10
193.12
 20
188.233
 30
0.0
 11
207.119
 21
188.233
 31
0.0
  0
LINE
  8
0
 62
     0
 10
207.119
 20
188.233
 30
0.0
 11
207.119
 21
174.234
 31
0.0
  0
LINE
  8
0
 62
     0
 10
207.119
 20
174.234
 30
0.0
 11
193.12
 21
174.234
 31
0.0
  0
LINE
  8
0
 62
     0
 10
193.12
 20
174.234
 30
0.0
 11
193.12
 21
188.233
 31
0.0
  0
LINE
  8
0
 62
     0
 10
174.07
 20
188.233
 30
0.0
 11
188.069
 21
188.233
 31
0.0
  0
LINE
  8
0
 62
     0
 10
188.069
 20
188.233
 30
0.0
 11
188.069
 21
174.234
 31
0.0
  0
LINE
  8
0
 62
     0
 10
188.069
 20
174.234
 30
0.0
 11
174.07
 21
174.234
 31
0.0
  0
LINE
  8
0
 62
     0
 10
174.07
 20
174.234
 30
0.0
 11
174.07
 21
188.233
 31
0.0
  0
LINE
  8
0
 62
     0
 10
155.02
 20
188.233
 30
0.0
 11
169.019
 21
188.233
 31
0.0
  0
LINE
  8
0
 62
     0
 10
169.019
 20
188.233
 30
0.0
 11
169.019
 21
174.234
 31
0.0
  0
LINE
  8
0
 62
     0
 10
169.019
 20
174.234
 30
0.0
 11
155.02
 21
174.234
 31
0.0
  0
LINE
  8
0
 62
     0
 10
155.02
 20
174.234
 30
0.0
 11
155.02
 21
188.233
 31
0.0
  0
LINE
  8
0
 62
     0
 10
135.97
 20
188.233
 30
0.0
 11
149.969
 21
188.233
 31
0.0
  0
LINE
  8
0
 62
     0
 10
149.969
 20
188.233
 30
0.0
 11
149.969
 21
174.234
 31
0.0
  0
LINE
  8
0
 62
     0
 10
149.969
 20
174.234
 30
0.0
 11
135.97
 21
174.234
 31
0.0
  0
LINE
  8
0
 62
     0
 10
135.97
 20
174.234
 30
0.0
 11
135.97
 21
188.233
 31
0.0
  0
LINE
  8
0
 62
     0
 10
116.918
 20
188.233
 30
0.0
 11
130.919
 21
188.233
 31
0.0
  0
LINE
  8
0
 62
     0
 10
130.919
 20
188.233
 30
0.0
 11
130.919
 21
174.234
 31
0.0
  0
LINE
  8
0
 62
     0
 10
130.919
 20
174.234
 30
0.0
 11
116.918
 21
174.234
 31
0.0
  0
LINE
  8
0
 62
     0
 10
116.918
 20
174.234
 30
0.0
 11
116.918
 21
188.233
 31
0.0
  0
LINE
  8
0
 62
     0
 10
97.8683
 20
188.233
 30
0.0
 11
111.869
 21
188.233
 31
0.0
  0
LINE
  8
0
 62
     0
 10
111.869
 20
188.233
 30
0.0
 11
111.869
 21
174.234
 31
0.0
  0
LINE
  8
0
 62
     0
 10
111.869
 20
174.234
 30
0.0
 11
97.8683
 21
174.234
 31
0.0
  0
LINE
  8
0
 62
     0
 10
97.8683
 20
174.234
 30
0.0
 11
97.8683
 21
188.233
 31
0.0
  0
LINE
  8
0
 62
     0
 10
78.8197
 20
188.233
 30
0.0
 11
92.819
 21
188.233
 31
0.0
  0
LINE
  8
0
 62
     0
 10
92.819
 20
188.233
 30
0.0
 11
92.819
 21
174.234
 31
0.0
  0
LINE
  8
0
 62
     0
 10
92.819
 20
174.234
 30
0.0
 11
78.8197
 21
174.234
 31
0.0
  0
LINE
  8
0
 62
     0
 10
78.8197
 20
174.234
 30
0.0
 11
78.8197
 21
188.233
 31
0.0
  0
LINE
  8
0
 62
     0
 10
59.7697
 20
188.233
 30
0.0
 11
73.769
 21
188.233
 31
0.0
  0
LINE
  8
0
 62
     0
 10
73.769
 20
188.233
 30
0.0
 11
73.769
 21
174.234
 31
0.0
  0
LINE
  8
0
 62
     0
 10
73.769
 20
174.234
 30
0.0
 11
59.7697
 21
174.234
 31
0.0
  0
LINE
  8
0
 62
     0
 10
59.7697
 20
174.234
 30
0.0
 11
59.7697
 21
188.233
 31
0.0
  0
LINE
  8
0
 62
     0
 10
40.7197
 20
188.233
 30
0.0
 11
54.719
 21
188.233
 31
0.0
  0
LINE
  8
0
 62
     0
 10
54.719
 20
188.233
 30
0.0
 11
54.719
 21
174.234
 31
0.0
  0
LINE
  8
0
 62
     0
 10
54.719
 20
174.234
 30
0.0
 11
40.7197
 21
174.234
 31
0.0
  0
LINE
  8
0
 62
     0
 10
40.7197
 20
174.234
 30
0.0
 11
40.7197
 21
188.233
 31
0.0
  0
LINE
  8
0
 62
     0
 10
21.6697
 20
188.233
 30
0.0
 11
35.669
 21
188.233
 31
0.0
  0
LINE
  8
0
 62
     0
 10
35.669
 20
188.233
 30
0.0
 11
35.669
 21
174.234
 31
0.0
  0
LINE
  8
0
 62
     0
 10
35.669
 20
174.234
 30
0.0
 11
21.6697
 21
174.234
 31
0.0
  0
LINE
  8
0
 62
     0
 10
21.6697
 20
174.234
 30
0.0
 11
21.6697
 21
188.233
 31
0.0
  0
LINE
  8
0
 62
     0
 10
2.61965
 20
188.233
 30
0.0
 11
16.6192
 21
188.233
 31
0.0
  0
LINE
  8
0
 62
     0
 10
16.6192
 20
188.233
 30
0.0
 11
16.6192
 21
174.234
 31
0.0
  0
LINE
  8
0
 62
     0
 10
16.6192
 20
174.234
 30
0.0
 11
2.61965
 21
174.234
 31
0.0
  0
LINE
  8
0
 62
     0
 10
2.61965
 20
174.234
 30
0.0
 11
2.61965
 21
188.233
 31
0.0
  0
LINE
  8
0
 62
     0
 10
212.17
 20
207.283
 30
0.0
 11
226.169
 21
207.283
 31
0.0
  0
LINE
  8
0
 62
     0
 10
226.169
 20
207.283
 30
0.0
 11
226.169
 21
193.284
 31
0.0
  0
LINE
  8
0
 62
     0
 10
226.169
 20
193.284
 30
0.0
 11
212.17
 21
193.284
 31
0.0
  0
LINE
  8
0
 62
     0
 10
212.17
 20
193.284
 30
0.0
 11
212.17
 21
207.283
 31
0.0
  0
LINE
  8
0
 62
     0
 10
193.12
 20
207.283
 30
0.0
 11
207.119
 21
207.283
 31
0.0
  0
LINE
  8
0
 62
     0
 10
207.119
 20
207.283
 30
0.0
 11
207.119
 21
193.284
 31
0.0
  0
LINE
  8
0
 62
     0
 10
207.119
 20
193.284
 30
0.0
 11
193.12
 21
193.284
 31
0.0
  0
LINE
  8
0
 62
     0
 10
193.12
 20
193.284
 30
0.0
 11
193.12
 21
207.283
 31
0.0
  0
LINE
  8
0
 62
     0
 10
174.07
 20
207.283
 30
0.0
 11
188.069
 21
207.283
 31
0.0
  0
LINE
  8
0
 62
     0
 10
188.069
 20
207.283
 30
0.0
 11
188.069
 21
193.284
 31
0.0
  0
LINE
  8
0
 62
     0
 10
188.069
 20
193.284
 30
0.0
 11
174.07
 21
193.284
 31
0.0
  0
LINE
  8
0
 62
     0
 10
174.07
 20
193.284
 30
0.0
 11
174.07
 21
207.283
 31
0.0
  0
LINE
  8
0
 62
     0
 10
155.02
 20
207.283
 30
0.0
 11
169.019
 21
207.283
 31
0.0
  0
LINE
  8
0
 62
     0
 10
169.019
 20
207.283
 30
0.0
 11
169.019
 21
193.284
 31
0.0
  0
LINE
  8
0
 62
     0
 10
169.019
 20
193.284
 30
0.0
 11
155.02
 21
193.284
 31
0.0
  0
LINE
  8
0
 62
     0
 10
155.02
 20
193.284
 30
0.0
 11
155.02
 21
207.283
 31
0.0
  0
LINE
  8
0
 62
     0
 10
135.97
 20
207.283
 30
0.0
 11
149.969
 21
207.283
 31
0.0
  0
LINE
  8
0
 62
     0
 10
149.969
 20
207.283
 30
0.0
 11
149.969
 21
193.284
 31
0.0
  0
LINE
  8
0
 62
     0
 10
149.969
 20
193.284
 30
0.0
 11
135.97
 21
193.284
 31
0.0
  0
LINE
  8
0
 62
     0
 10
135.97
 20
193.284
 30
0.0
 11
135.97
 21
207.283
 31
0.0
  0
LINE
  8
0
 62
     0
 10
116.918
 20
207.283
 30
0.0
 11
130.919
 21
207.283
 31
0.0
  0
LINE
  8
0
 62
     0
 10
130.919
 20
207.283
 30
0.0
 11
130.919
 21
193.284
 31
0.0
  0
LINE
  8
0
 62
     0
 10
130.919
 20
193.284
 30
0.0
 11
116.918
 21
193.284
 31
0.0
  0
LINE
  8
0
 62
     0
 10
116.918
 20
193.284
 30
0.0
 11
116.918
 21
207.283
 31
0.0
  0
LINE
  8
0
 62
     0
 10
97.8683
 20
207.283
 30
0.0
 11
111.869
 21
207.283
 31
0.0
  0
LINE
  8
0
 62
     0
 10
111.869
 20
207.283
 30
0.0
 11
111.869
 21
193.284
 31
0.0
  0
LINE
  8
0
 62
     0
 10
111.869
 20
193.284
 30
0.0
 11
97.8683
 21
193.284
 31
0.0
  0
LINE
  8
0
 62
     0
 10
97.8683
 20
193.284
 30
0.0
 11
97.8683
 21
207.283
 31
0.0
  0
LINE
  8
0
 62
     0
 10
78.8197
 20
207.283
 30
0.0
 11
92.819
 21
207.283
 31
0.0
  0
LINE
  8
0
 62
     0
 10
92.819
 20
207.283
 30
0.0
 11
92.819
 21
193.284
 31
0.0
  0
LINE
  8
0
 62
     0
 10
92.819
 20
193.284
 30
0.0
 11
78.8197
 21
193.284
 31
0.0
  0
LINE
  8
0
 62
     0
 10
78.8197
 20
193.284
 30
0.0
 11
78.8197
 21
207.283
 31
0.0
  0
LINE
  8
0
 62
     0
 10
59.7697
 20
207.283
 30
0.0
 11
73.769
 21
207.283
 31
0.0
  0
LINE
  8
0
 62
     0
 10
73.769
 20
207.283
 30
0.0
 11
73.769
 21
193.284
 31
0.0
  0
LINE
  8
0
 62
     0
 10
73.769
 20
193.284
 30
0.0
 11
59.7697
 21
193.284
 31
0.0
  0
LINE
  8
0
 62
     0
 10
59.7697
 20
193.284
 30
0.0
 11
59.7697
 21
207.283
 31
0.0
  0
LINE
  8
0
 62
     0
 10
40.7197
 20
207.283
 30
0.0
 11
54.719
 21
207.283
 31
0.0
  0
LINE
  8
0
 62
     0
 10
54.719
 20
207.283
 30
0.0
 11
54.719
 21
193.284
 31
0.0
  0
LINE
  8
0
 62
     0
 10
54.719
 20
193.284
 30
0.0
 11
40.7197
 21
193.284
 31
0.0
  0
LINE
  8
0
 62
     0
 10
40.7197
 20
193.284
 30
0.0
 11
40.7197
 21
207.283
 31
0.0
  0
LINE
  8
0
 62
     0
 10
21.6697
 20
207.283
 30
0.0
 11
35.669
 21
207.283
 31
0.0
  0
LINE
  8
0
 62
     0
 10
35.669
 20
207.283
 30
0.0
 11
35.669
 21
193.284
 31
0.0
  0
LINE
  8
0
 62
     0
 10
35.669
 20
193.284
 30
0.0
 11
21.6697
 21
193.284
 31
0.0
  0
LINE
  8
0
 62
     0
 10
21.6697
 20
193.284
 30
0.0
 11
21.6697
 21
207.283
 31
0.0
  0
LINE
  8
0
 62
     0
 10
2.61965
 20
207.283
 30
0.0
 11
16.6192
 21
207.283
 31
0.0
  0
LINE
  8
0
 62
     0
 10
16.6192
 20
207.283
 30
0.0
 11
16.6192
 21
193.284
 31
0.0
  0
LINE
  8
0
 62
     0
 10
16.6192
 20
193.284
 30
0.0
 11
2.61965
 21
193.284
 31
0.0
  0
LINE
  8
0
 62
     0
 10
2.61965
 20
193.284
 30
0.0
 11
2.61965
 21
207.283
 31
0.0
  0
LINE
  8
0
 62
     0
 10
212.17
 20
226.333
 30
0.0
 11
226.169
 21
226.333
 31
0.0
  0
LINE
  8
0
 62
     0
 10
226.169
 20
226.333
 30
0.0
 11
226.169
 21
212.334
 31
0.0
  0
LINE
  8
0
 62
     0
 10
226.169
 20
212.334
 30
0.0
 11
212.17
 21
212.334
 31
0.0
  0
LINE
  8
0
 62
     0
 10
212.17
 20
212.334
 30
0.0
 11
212.17
 21
226.333
 31
0.0
  0
LINE
  8
0
 62
     0
 10
193.12
 20
226.333
 30
0.0
 11
207.119
 21
226.333
 31
0.0
  0
LINE
  8
0
 62
     0
 10
207.119
 20
226.333
 30
0.0
 11
207.119
 21
212.334
 31
0.0
  0
LINE
  8
0
 62
     0
 10
207.119
 20
212.334
 30
0.0
 11
193.12
 21
212.334
 31
0.0
  0
LINE
  8
0
 62
     0
 10
193.12
 20
212.334
 30
0.0
 11
193.12
 21
226.333
 31
0.0
  0
LINE
  8
0
 62
     0
 10
174.07
 20
226.333
 30
0.0
 11
188.069
 21
226.333
 31
0.0
  0
LINE
  8
0
 62
     0
 10
188.069
 20
226.333
 30
0.0
 11
188.069
 21
212.334
 31
0.0
  0
LINE
  8
0
 62
     0
 10
188.069
 20
212.334
 30
0.0
 11
174.07
 21
212.334
 31
0.0
  0
LINE
  8
0
 62
     0
 10
174.07
 20
212.334
 30
0.0
 11
174.07
 21
226.333
 31
0.0
  0
LINE
  8
0
 62
     0
 10
155.02
 20
226.333
 30
0.0
 11
169.019
 21
226.333
 31
0.0
  0
LINE
  8
0
 62
     0
 10
169.019
 20
226.333
 30
0.0
 11
169.019
 21
212.334
 31
0.0
  0
LINE
  8
0
 62
     0
 10
169.019
 20
212.334
 30
0.0
 11
155.02
 21
212.334
 31
0.0
  0
LINE
  8
0
 62
     0
 10
155.02
 20
212.334
 30
0.0
 11
155.02
 21
226.333
 31
0.0
  0
LINE
  8
0
 62
     0
 10
135.97
 20
226.333
 30
0.0
 11
149.969
 21
226.333
 31
0.0
  0
LINE
  8
0
 62
     0
 10
149.969
 20
226.333
 30
0.0
 11
149.969
 21
212.334
 31
0.0
  0
LINE
  8
0
 62
     0
 10
149.969
 20
212.334
 30
0.0
 11
135.97
 21
212.334
 31
0.0
  0
LINE
  8
0
 62
     0
 10
135.97
 20
212.334
 30
0.0
 11
135.97
 21
226.333
 31
0.0
  0
LINE
  8
0
 62
     0
 10
116.918
 20
226.333
 30
0.0
 11
130.919
 21
226.333
 31
0.0
  0
LINE
  8
0
 62
     0
 10
130.919
 20
226.333
 30
0.0
 11
130.919
 21
212.334
 31
0.0
  0
LINE
  8
0
 62
     0
 10
130.919
 20
212.334
 30
0.0
 11
116.918
 21
212.334
 31
0.0
  0
LINE
  8
0
 62
     0
 10
116.918
 20
212.334
 30
0.0
 11
116.918
 21
226.333
 31
0.0
  0
LINE
  8
0
 62
     0
 10
97.8683
 20
226.333
 30
0.0
 11
111.869
 21
226.333
 31
0.0
  0
LINE
  8
0
 62
     0
 10
111.869
 20
226.333
 30
0.0
 11
111.869
 21
212.334
 31
0.0
  0
LINE
  8
0
 62
     0
 10
111.869
 20
212.334
 30
0.0
 11
97.8683
 21
212.334
 31
0.0
  0
LINE
  8
0
 62
     0
 10
97.8683
 20
212.334
 30
0.0
 11
97.8683
 21
226.333
 31
0.0
  0
LINE
  8
0
 62
     0
 10
78.8197
 20
226.333
 30
0.0
 11
92.819
 21
226.333
 31
0.0
  0
LINE
  8
0
 62
     0
 10
92.819
 20
226.333
 30
0.0
 11
92.819
 21
212.334
 31
0.0
  0
LINE
  8
0
 62
     0
 10
92.819
 20
212.334
 30
0.0
 11
78.8197
 21
212.334
 31
0.0
  0
LINE
  8
0
 62
     0
 10
78.8197
 20
212.334
 30
0.0
 11
78.8197
 21
226.333
 31
0.0
  0
LINE
  8
0
 62
     0
 10
59.7697
 20
226.333
 30
0.0
 11
73.769
 21
226.333
 31
0.0
  0
LINE
  8
0
 62
     0
 10
73.769
 20
226.333
 30
0.0
 11
73.769
 21
212.334
 31
0.0
  0
LINE
  8
0
 62
     0
 10
73.769
 20
212.334
 30
0.0
 11
59.7697
 21
212.334
 31
0.0
  0
LINE
  8
0
 62
     0
 10
59.7697
 20
212.334
 30
0.0
 11
59.7697
 21
226.333
 31
0.0
  0
LINE
  8
0
 62
     0
 10
40.7197
 20
226.333
 30
0.0
 11
54.719
 21
226.333
 31
0.0
  0
LINE
  8
0
 62
     0
 10
54.719
 20
226.333
 30
0.0
 11
54.719
 21
212.334
 31
0.0
  0
LINE
  8
0
 62
     0
 10
54.719
 20
212.334
 30
0.0
 11
40.7197
 21
212.334
 31
0.0
  0
LINE
  8
0
 62
     0
 10
40.7197
 20
212.334
 30
0.0
 11
40.7197
 21
226.333
 31
0.0
  0
LINE
  8
0
 62
     0
 10
21.6697
 20
226.333
 30
0.0
 11
35.669
 21
226.333
 31
0.0
  0
LINE
  8
0
 62
     0
 10
35.669
 20
226.333
 30
0.0
 11
35.669
 21
212.334
 31
0.0
  0
LINE
  8
0
 62
     0
 10
35.669
 20
212.334
 30
0.0
 11
21.6697
 21
212.334
 31
0.0
  0
LINE
  8
0
 62
     0
 10
21.6697
 20
212.334
 30
0.0
 11
21.6697
 21
226.333
 31
0.0
  0
LINE
  8
0
 62
     0
 10
2.61965
 20
226.333
 30
0.0
 11
16.6192
 21
226.333
 31
0.0
  0
LINE
  8
0
 62
     0
 10
16.6192
 20
226.333
 30
0.0
 11
16.6192
 21
212.334
 31
0.0
  0
LINE
  8
0
 62
     0
 10
16.6192
 20
212.334
 30
0.0
 11
2.61965
 21
212.334
 31
0.0
  0
LINE
  8
0
 62
     0
 10
2.61965
 20
212.334
 30
0.0
 11
2.61965
 21
226.333
 31
0.0
  0
ENDSEC
  0
EOF
