  0
SECTION
  2
HEADER
  9
$ACADVER
  1
AC1009
  9
$EXTMIN
 10
0.0
 20
0.0
 30
0.0
  9
$EXTMAX
 10
1000.0
 20
1000.0
 30
0.0
  9
$FILLMODE
 70
 0
  9
$SPLFRAME
 70
 1
  0
ENDSEC
  0
SECTION
  2
TABLES
  0
TABLE
  2
LAYER
 70
1
  0
LAYER
  2
0
 70
     0
 62
     7
  6
CONTINUOUS
  0
ENDTAB
  0
ENDSEC
  0
SECTION
  2
ENTITIES
  0
LINE
  8
0
 62
     0
 10
225.697
 20
228.858
 30
0.0
 11
225.932
 21
228.848
 31
0.0
  0
LINE
  8
0
 62
     0
 10
225.932
 20
228.848
 30
0.0
 11
226.165
 21
228.822
 31
0.0
  0
LINE
  8
0
 62
     0
 10
226.165
 20
228.822
 30
0.0
 11
226.397
 21
228.775
 31
0.0
  0
LINE
  8
0
 62
     0
 10
226.397
 20
228.775
 30
0.0
 11
226.624
 21
228.711
 31
0.0
  0
LINE
  8
0
 62
     0
 10
226.624
 20
228.711
 30
0.0
 11
226.844
 21
228.629
 31
0.0
  0
LINE
  8
0
 62
     0
 10
226.844
 20
228.629
 30
0.0
 11
227.058
 21
228.531
 31
0.0
  0
LINE
  8
0
 62
     0
 10
227.058
 20
228.531
 30
0.0
 11
227.263
 21
228.415
 31
0.0
  0
LINE
  8
0
 62
     0
 10
227.263
 20
228.415
 30
0.0
 11
227.459
 21
228.286
 31
0.0
  0
LINE
  8
0
 62
     0
 10
227.459
 20
228.286
 30
0.0
 11
227.645
 21
228.14
 31
0.0
  0
LINE
  8
0
 62
     0
 10
227.645
 20
228.14
 30
0.0
 11
227.817
 21
227.98
 31
0.0
  0
LINE
  8
0
 62
     0
 10
227.817
 20
227.98
 30
0.0
 11
227.977
 21
227.806
 31
0.0
  0
LINE
  8
0
 62
     0
 10
227.977
 20
227.806
 30
0.0
 11
228.123
 21
227.622
 31
0.0
  0
LINE
  8
0
 62
     0
 10
228.123
 20
227.622
 30
0.0
 11
228.254
 21
227.426
 31
0.0
  0
LINE
  8
0
 62
     0
 10
228.254
 20
227.426
 30
0.0
 11
228.37
 21
227.219
 31
0.0
  0
LINE
  8
0
 62
     0
 10
228.37
 20
227.219
 30
0.0
 11
228.468
 21
227.005
 31
0.0
  0
LINE
  8
0
 62
     0
 10
228.468
 20
227.005
 30
0.0
 11
228.549
 21
226.785
 31
0.0
  0
LINE
  8
0
 62
     0
 10
228.549
 20
226.785
 30
0.0
 11
228.614
 21
226.558
 31
0.0
  0
LINE
  8
0
 62
     0
 10
228.614
 20
226.558
 30
0.0
 11
228.659
 21
226.328
 31
0.0
  0
LINE
  8
0
 62
     0
 10
228.659
 20
226.328
 30
0.0
 11
228.687
 21
226.094
 31
0.0
  0
LINE
  8
0
 62
     0
 10
228.687
 20
226.094
 30
0.0
 11
228.696
 21
225.858
 31
0.0
  0
LINE
  8
0
 62
     0
 10
228.696
 20
225.858
 30
0.0
 11
228.696
 21
3.2563
 31
0.0
  0
LINE
  8
0
 62
     0
 10
228.696
 20
3.2563
 30
0.0
 11
228.687
 21
3.02066
 31
0.0
  0
LINE
  8
0
 62
     0
 10
228.687
 20
3.02066
 30
0.0
 11
228.659
 21
2.78777
 31
0.0
  0
LINE
  8
0
 62
     0
 10
228.659
 20
2.78777
 30
0.0
 11
228.614
 21
2.55626
 31
0.0
  0
LINE
  8
0
 62
     0
 10
228.614
 20
2.55626
 30
0.0
 11
228.549
 21
2.32888
 31
0.0
  0
LINE
  8
0
 62
     0
 10
228.549
 20
2.32888
 30
0.0
 11
228.468
 21
2.1084
 31
0.0
  0
LINE
  8
0
 62
     0
 10
228.468
 20
2.1084
 30
0.0
 11
228.37
 21
1.8948
 31
0.0
  0
LINE
  8
0
 62
     0
 10
228.37
 20
1.8948
 30
0.0
 11
228.254
 21
1.68947
 31
0.0
  0
LINE
  8
0
 62
     0
 10
228.254
 20
1.68947
 30
0.0
 11
228.123
 21
1.4938
 31
0.0
  0
LINE
  8
0
 62
     0
 10
228.123
 20
1.4938
 30
0.0
 11
227.977
 21
1.30776
 31
0.0
  0
LINE
  8
0
 62
     0
 10
227.977
 20
1.30776
 30
0.0
 11
227.817
 21
1.1355
 31
0.0
  0
LINE
  8
0
 62
     0
 10
227.817
 20
1.1355
 30
0.0
 11
227.645
 21
0.975653
 31
0.0
  0
LINE
  8
0
 62
     0
 10
227.645
 20
0.975653
 30
0.0
 11
227.459
 21
0.829578
 31
0.0
  0
LINE
  8
0
 62
     0
 10
227.459
 20
0.829578
 30
0.0
 11
227.263
 21
0.698666
 31
0.0
  0
LINE
  8
0
 62
     0
 10
227.263
 20
0.698666
 30
0.0
 11
227.058
 21
0.582909
 31
0.0
  0
LINE
  8
0
 62
     0
 10
227.058
 20
0.582909
 30
0.0
 11
226.844
 21
0.485069
 31
0.0
  0
LINE
  8
0
 62
     0
 10
226.844
 20
0.485069
 30
0.0
 11
226.624
 21
0.403765
 31
0.0
  0
LINE
  8
0
 62
     0
 10
226.624
 20
0.403765
 30
0.0
 11
226.397
 21
0.338998
 31
0.0
  0
LINE
  8
0
 62
     0
 10
226.397
 20
0.338998
 30
0.0
 11
226.165
 21
0.293522
 31
0.0
  0
LINE
  8
0
 62
     0
 10
226.165
 20
0.293522
 30
0.0
 11
225.932
 21
0.265961
 31
0.0
  0
LINE
  8
0
 62
     0
 10
225.932
 20
0.265961
 30
0.0
 11
225.697
 21
0.256315
 31
0.0
  0
LINE
  8
0
 62
     0
 10
225.697
 20
0.256315
 30
0.0
 11
3.09507
 21
0.256315
 31
0.0
  0
LINE
  8
0
 62
     0
 10
3.09507
 20
0.256315
 30
0.0
 11
2.85943
 21
0.265961
 31
0.0
  0
LINE
  8
0
 62
     0
 10
2.85943
 20
0.265961
 30
0.0
 11
2.62516
 21
0.293522
 31
0.0
  0
LINE
  8
0
 62
     0
 10
2.62516
 20
0.293522
 30
0.0
 11
2.39503
 21
0.338998
 31
0.0
  0
LINE
  8
0
 62
     0
 10
2.39503
 20
0.338998
 30
0.0
 11
2.16765
 21
0.403765
 31
0.0
  0
LINE
  8
0
 62
     0
 10
2.16765
 20
0.403765
 30
0.0
 11
1.94717
 21
0.485069
 31
0.0
  0
LINE
  8
0
 62
     0
 10
1.94717
 20
0.485069
 30
0.0
 11
1.73357
 21
0.582909
 31
0.0
  0
LINE
  8
0
 62
     0
 10
1.73357
 20
0.582909
 30
0.0
 11
1.52687
 21
0.698666
 31
0.0
  0
LINE
  8
0
 62
     0
 10
1.52687
 20
0.698666
 30
0.0
 11
1.33119
 21
0.829578
 31
0.0
  0
LINE
  8
0
 62
     0
 10
1.33119
 20
0.829578
 30
0.0
 11
1.14653
 21
0.975653
 31
0.0
  0
LINE
  8
0
 62
     0
 10
1.14653
 20
0.975653
 30
0.0
 11
0.972894
 21
1.1355
 31
0.0
  0
LINE
  8
0
 62
     0
 10
0.972894
 20
1.1355
 30
0.0
 11
0.813043
 21
1.30776
 31
0.0
  0
LINE
  8
0
 62
     0
 10
0.813043
 20
1.30776
 30
0.0
 11
0.666972
 21
1.4938
 31
0.0
  0
LINE
  8
0
 62
     0
 10
0.666972
 20
1.4938
 30
0.0
 11
0.537436
 21
1.68947
 31
0.0
  0
LINE
  8
0
 62
     0
 10
0.537436
 20
1.68947
 30
0.0
 11
0.421679
 21
1.8948
 31
0.0
  0
LINE
  8
0
 62
     0
 10
0.421679
 20
1.8948
 30
0.0
 11
0.323839
 21
2.1084
 31
0.0
  0
LINE
  8
0
 62
     0
 10
0.323839
 20
2.1084
 30
0.0
 11
0.241157
 21
2.32888
 31
0.0
  0
LINE
  8
0
 62
     0
 10
0.241157
 20
2.32888
 30
0.0
 11
0.177767
 21
2.55626
 31
0.0
  0
LINE
  8
0
 62
     0
 10
0.177767
 20
2.55626
 30
0.0
 11
0.130914
 21
2.78777
 31
0.0
  0
LINE
  8
0
 62
     0
 10
0.130914
 20
2.78777
 30
0.0
 11
0.104731
 21
3.02066
 31
0.0
  0
LINE
  8
0
 62
     0
 10
0.104731
 20
3.02066
 30
0.0
 11
0.0950846
 21
3.25768
 31
0.0
  0
LINE
  8
0
 62
     0
 10
0.0950846
 20
3.25768
 30
0.0
 11
0.0950846
 21
225.858
 31
0.0
  0
LINE
  8
0
 62
     0
 10
0.0950846
 20
225.858
 30
0.0
 11
0.104731
 21
226.094
 31
0.0
  0
LINE
  8
0
 62
     0
 10
0.104731
 20
226.094
 30
0.0
 11
0.130914
 21
226.328
 31
0.0
  0
LINE
  8
0
 62
     0
 10
0.130914
 20
226.328
 30
0.0
 11
0.177767
 21
226.558
 31
0.0
  0
LINE
  8
0
 62
     0
 10
0.177767
 20
226.558
 30
0.0
 11
0.241157
 21
226.785
 31
0.0
  0
LINE
  8
0
 62
     0
 10
0.241157
 20
226.785
 30
0.0
 11
0.323839
 21
227.005
 31
0.0
  0
LINE
  8
0
 62
     0
 10
0.323839
 20
227.005
 30
0.0
 11
0.421679
 21
227.219
 31
0.0
  0
LINE
  8
0
 62
     0
 10
0.421679
 20
227.219
 30
0.0
 11
0.537436
 21
227.426
 31
0.0
  0
LINE
  8
0
 62
     0
 10
0.537436
 20
227.426
 30
0.0
 11
0.666972
 21
227.622
 31
0.0
  0
LINE
  8
0
 62
     0
 10
0.666972
 20
227.622
 30
0.0
 11
0.813043
 21
227.806
 31
0.0
  0
LINE
  8
0
 62
     0
 10
0.813043
 20
227.806
 30
0.0
 11
0.972894
 21
227.98
 31
0.0
  0
LINE
  8
0
 62
     0
 10
0.972894
 20
227.98
 30
0.0
 11
1.14653
 21
228.14
 31
0.0
  0
LINE
  8
0
 62
     0
 10
1.14653
 20
228.14
 30
0.0
 11
1.33119
 21
228.286
 31
0.0
  0
LINE
  8
0
 62
     0
 10
1.33119
 20
228.286
 30
0.0
 11
1.52687
 21
228.415
 31
0.0
  0
LINE
  8
0
 62
     0
 10
1.52687
 20
228.415
 30
0.0
 11
1.73357
 21
228.531
 31
0.0
  0
LINE
  8
0
 62
     0
 10
1.73357
 20
228.531
 30
0.0
 11
1.94717
 21
228.629
 31
0.0
  0
LINE
  8
0
 62
     0
 10
1.94717
 20
228.629
 30
0.0
 11
2.16765
 21
228.711
 31
0.0
  0
LINE
  8
0
 62
     0
 10
2.16765
 20
228.711
 30
0.0
 11
2.39503
 21
228.775
 31
0.0
  0
LINE
  8
0
 62
     0
 10
2.39503
 20
228.775
 30
0.0
 11
2.62516
 21
228.822
 31
0.0
  0
LINE
  8
0
 62
     0
 10
2.62516
 20
228.822
 30
0.0
 11
2.85943
 21
228.848
 31
0.0
  0
LINE
  8
0
 62
     0
 10
2.85943
 20
228.848
 30
0.0
 11
3.09507
 21
228.858
 31
0.0
  0
LINE
  8
0
 62
     0
 10
3.09507
 20
228.858
 30
0.0
 11
225.697
 21
228.858
 31
0.0
  0
LINE
  8
0
 62
     0
 10
2.62103
 20
16.7817
 30
0.0
 11
16.6205
 21
16.7817
 31
0.0
  0
LINE
  8
0
 62
     0
 10
16.6205
 20
16.7817
 30
0.0
 11
16.6205
 21
2.78226
 31
0.0
  0
LINE
  8
0
 62
     0
 10
16.6205
 20
2.78226
 30
0.0
 11
2.62103
 21
2.78226
 31
0.0
  0
LINE
  8
0
 62
     0
 10
2.62103
 20
2.78226
 30
0.0
 11
2.62103
 21
16.7817
 31
0.0
  0
LINE
  8
0
 62
     0
 10
212.171
 20
92.9816
 30
0.0
 11
226.17
 21
92.9816
 31
0.0
  0
LINE
  8
0
 62
     0
 10
226.17
 20
92.9816
 30
0.0
 11
226.17
 21
78.9824
 31
0.0
  0
LINE
  8
0
 62
     0
 10
226.17
 20
78.9824
 30
0.0
 11
212.171
 21
78.9824
 31
0.0
  0
LINE
  8
0
 62
     0
 10
212.171
 20
78.9824
 30
0.0
 11
212.171
 21
92.9816
 31
0.0
  0
LINE
  8
0
 62
     0
 10
193.121
 20
92.9816
 30
0.0
 11
207.12
 21
92.9816
 31
0.0
  0
LINE
  8
0
 62
     0
 10
207.12
 20
92.9816
 30
0.0
 11
207.12
 21
78.9824
 31
0.0
  0
LINE
  8
0
 62
     0
 10
207.12
 20
78.9824
 30
0.0
 11
193.121
 21
78.9824
 31
0.0
  0
LINE
  8
0
 62
     0
 10
193.121
 20
78.9824
 30
0.0
 11
193.121
 21
92.9816
 31
0.0
  0
LINE
  8
0
 62
     0
 10
174.071
 20
92.9816
 30
0.0
 11
188.07
 21
92.9816
 31
0.0
  0
LINE
  8
0
 62
     0
 10
188.07
 20
92.9816
 30
0.0
 11
188.07
 21
78.9824
 31
0.0
  0
LINE
  8
0
 62
     0
 10
188.07
 20
78.9824
 30
0.0
 11
174.071
 21
78.9824
 31
0.0
  0
LINE
  8
0
 62
     0
 10
174.071
 20
78.9824
 30
0.0
 11
174.071
 21
92.9816
 31
0.0
  0
LINE
  8
0
 62
     0
 10
126.446
 20
92.9816
 30
0.0
 11
140.445
 21
92.9816
 31
0.0
  0
LINE
  8
0
 62
     0
 10
140.445
 20
92.9816
 30
0.0
 11
140.445
 21
78.9824
 31
0.0
  0
LINE
  8
0
 62
     0
 10
140.445
 20
78.9824
 30
0.0
 11
126.446
 21
78.9824
 31
0.0
  0
LINE
  8
0
 62
     0
 10
126.446
 20
78.9824
 30
0.0
 11
126.446
 21
92.9816
 31
0.0
  0
LINE
  8
0
 62
     0
 10
107.396
 20
92.9816
 30
0.0
 11
121.395
 21
92.9816
 31
0.0
  0
LINE
  8
0
 62
     0
 10
121.395
 20
92.9816
 30
0.0
 11
121.395
 21
78.9824
 31
0.0
  0
LINE
  8
0
 62
     0
 10
121.395
 20
78.9824
 30
0.0
 11
107.396
 21
78.9824
 31
0.0
  0
LINE
  8
0
 62
     0
 10
107.396
 20
78.9824
 30
0.0
 11
107.396
 21
92.9816
 31
0.0
  0
LINE
  8
0
 62
     0
 10
88.3461
 20
92.9816
 30
0.0
 11
102.345
 21
92.9816
 31
0.0
  0
LINE
  8
0
 62
     0
 10
102.345
 20
92.9816
 30
0.0
 11
102.345
 21
78.9824
 31
0.0
  0
LINE
  8
0
 62
     0
 10
102.345
 20
78.9824
 30
0.0
 11
88.3461
 21
78.9824
 31
0.0
  0
LINE
  8
0
 62
     0
 10
88.3461
 20
78.9824
 30
0.0
 11
88.3461
 21
92.9816
 31
0.0
  0
LINE
  8
0
 62
     0
 10
212.171
 20
112.033
 30
0.0
 11
226.17
 21
112.033
 31
0.0
  0
LINE
  8
0
 62
     0
 10
226.17
 20
112.033
 30
0.0
 11
226.17
 21
98.0324
 31
0.0
  0
LINE
  8
0
 62
     0
 10
226.17
 20
98.0324
 30
0.0
 11
212.171
 21
98.0324
 31
0.0
  0
LINE
  8
0
 62
     0
 10
212.171
 20
98.0324
 30
0.0
 11
212.171
 21
112.033
 31
0.0
  0
LINE
  8
0
 62
     0
 10
193.121
 20
112.033
 30
0.0
 11
207.12
 21
112.033
 31
0.0
  0
LINE
  8
0
 62
     0
 10
207.12
 20
112.033
 30
0.0
 11
207.12
 21
98.0324
 31
0.0
  0
LINE
  8
0
 62
     0
 10
207.12
 20
98.0324
 30
0.0
 11
193.121
 21
98.0324
 31
0.0
  0
LINE
  8
0
 62
     0
 10
193.121
 20
98.0324
 30
0.0
 11
193.121
 21
112.033
 31
0.0
  0
LINE
  8
0
 62
     0
 10
174.071
 20
112.033
 30
0.0
 11
188.07
 21
112.033
 31
0.0
  0
LINE
  8
0
 62
     0
 10
188.07
 20
112.033
 30
0.0
 11
188.07
 21
98.0324
 31
0.0
  0
LINE
  8
0
 62
     0
 10
188.07
 20
98.0324
 30
0.0
 11
174.071
 21
98.0324
 31
0.0
  0
LINE
  8
0
 62
     0
 10
174.071
 20
98.0324
 30
0.0
 11
174.071
 21
112.033
 31
0.0
  0
LINE
  8
0
 62
     0
 10
155.021
 20
112.033
 30
0.0
 11
169.02
 21
112.033
 31
0.0
  0
LINE
  8
0
 62
     0
 10
169.02
 20
112.033
 30
0.0
 11
169.02
 21
98.0324
 31
0.0
  0
LINE
  8
0
 62
     0
 10
169.02
 20
98.0324
 30
0.0
 11
155.021
 21
98.0324
 31
0.0
  0
LINE
  8
0
 62
     0
 10
155.021
 20
98.0324
 30
0.0
 11
155.021
 21
112.033
 31
0.0
  0
LINE
  8
0
 62
     0
 10
135.971
 20
112.033
 30
0.0
 11
149.97
 21
112.033
 31
0.0
  0
LINE
  8
0
 62
     0
 10
149.97
 20
112.033
 30
0.0
 11
149.97
 21
98.0324
 31
0.0
  0
LINE
  8
0
 62
     0
 10
149.97
 20
98.0324
 30
0.0
 11
135.971
 21
98.0324
 31
0.0
  0
LINE
  8
0
 62
     0
 10
135.971
 20
98.0324
 30
0.0
 11
135.971
 21
112.033
 31
0.0
  0
LINE
  8
0
 62
     0
 10
116.92
 20
112.033
 30
0.0
 11
130.92
 21
112.033
 31
0.0
  0
LINE
  8
0
 62
     0
 10
130.92
 20
112.033
 30
0.0
 11
130.92
 21
98.0324
 31
0.0
  0
LINE
  8
0
 62
     0
 10
130.92
 20
98.0324
 30
0.0
 11
116.92
 21
98.0324
 31
0.0
  0
LINE
  8
0
 62
     0
 10
116.92
 20
98.0324
 30
0.0
 11
116.92
 21
112.033
 31
0.0
  0
LINE
  8
0
 62
     0
 10
97.8697
 20
112.033
 30
0.0
 11
111.869
 21
112.033
 31
0.0
  0
LINE
  8
0
 62
     0
 10
111.869
 20
112.033
 30
0.0
 11
111.869
 21
98.0324
 31
0.0
  0
LINE
  8
0
 62
     0
 10
111.869
 20
98.0324
 30
0.0
 11
97.8697
 21
98.0324
 31
0.0
  0
LINE
  8
0
 62
     0
 10
97.8697
 20
98.0324
 30
0.0
 11
97.8697
 21
112.033
 31
0.0
  0
LINE
  8
0
 62
     0
 10
78.8211
 20
112.033
 30
0.0
 11
92.8204
 21
112.033
 31
0.0
  0
LINE
  8
0
 62
     0
 10
92.8204
 20
112.033
 30
0.0
 11
92.8204
 21
98.0324
 31
0.0
  0
LINE
  8
0
 62
     0
 10
92.8204
 20
98.0324
 30
0.0
 11
78.8211
 21
98.0324
 31
0.0
  0
LINE
  8
0
 62
     0
 10
78.8211
 20
98.0324
 30
0.0
 11
78.8211
 21
112.033
 31
0.0
  0
LINE
  8
0
 62
     0
 10
59.7711
 20
112.033
 30
0.0
 11
73.7704
 21
112.033
 31
0.0
  0
LINE
  8
0
 62
     0
 10
73.7704
 20
112.033
 30
0.0
 11
73.7704
 21
98.0324
 31
0.0
  0
LINE
  8
0
 62
     0
 10
73.7704
 20
98.0324
 30
0.0
 11
59.7711
 21
98.0324
 31
0.0
  0
LINE
  8
0
 62
     0
 10
59.7711
 20
98.0324
 30
0.0
 11
59.7711
 21
112.033
 31
0.0
  0
LINE
  8
0
 62
     0
 10
40.7211
 20
112.033
 30
0.0
 11
54.7204
 21
112.033
 31
0.0
  0
LINE
  8
0
 62
     0
 10
54.7204
 20
112.033
 30
0.0
 11
54.7204
 21
98.0324
 31
0.0
  0
LINE
  8
0
 62
     0
 10
54.7204
 20
98.0324
 30
0.0
 11
40.7211
 21
98.0324
 31
0.0
  0
LINE
  8
0
 62
     0
 10
40.7211
 20
98.0324
 30
0.0
 11
40.7211
 21
112.033
 31
0.0
  0
LINE
  8
0
 62
     0
 10
21.671
 20
112.033
 30
0.0
 11
35.6704
 21
112.033
 31
0.0
  0
LINE
  8
0
 62
     0
 10
35.6704
 20
112.033
 30
0.0
 11
35.6704
 21
98.0324
 31
0.0
  0
LINE
  8
0
 62
     0
 10
35.6704
 20
98.0324
 30
0.0
 11
21.671
 21
98.0324
 31
0.0
  0
LINE
  8
0
 62
     0
 10
21.671
 20
98.0324
 30
0.0
 11
21.671
 21
112.033
 31
0.0
  0
LINE
  8
0
 62
     0
 10
2.62103
 20
112.033
 30
0.0
 11
16.6205
 21
112.033
 31
0.0
  0
LINE
  8
0
 62
     0
 10
16.6205
 20
112.033
 30
0.0
 11
16.6205
 21
98.0324
 31
0.0
  0
LINE
  8
0
 62
     0
 10
16.6205
 20
98.0324
 30
0.0
 11
2.62103
 21
98.0324
 31
0.0
  0
LINE
  8
0
 62
     0
 10
2.62103
 20
98.0324
 30
0.0
 11
2.62103
 21
112.033
 31
0.0
  0
LINE
  8
0
 62
     0
 10
212.171
 20
131.083
 30
0.0
 11
226.17
 21
131.083
 31
0.0
  0
LINE
  8
0
 62
     0
 10
226.17
 20
131.083
 30
0.0
 11
226.17
 21
117.084
 31
0.0
  0
LINE
  8
0
 62
     0
 10
226.17
 20
117.084
 30
0.0
 11
212.171
 21
117.084
 31
0.0
  0
LINE
  8
0
 62
     0
 10
212.171
 20
117.084
 30
0.0
 11
212.171
 21
131.083
 31
0.0
  0
LINE
  8
0
 62
     0
 10
193.121
 20
131.083
 30
0.0
 11
207.12
 21
131.083
 31
0.0
  0
LINE
  8
0
 62
     0
 10
207.12
 20
131.083
 30
0.0
 11
207.12
 21
117.084
 31
0.0
  0
LINE
  8
0
 62
     0
 10
207.12
 20
117.084
 30
0.0
 11
193.121
 21
117.084
 31
0.0
  0
LINE
  8
0
 62
     0
 10
193.121
 20
117.084
 30
0.0
 11
193.121
 21
131.083
 31
0.0
  0
LINE
  8
0
 62
     0
 10
174.071
 20
131.083
 30
0.0
 11
188.07
 21
131.083
 31
0.0
  0
LINE
  8
0
 62
     0
 10
188.07
 20
131.083
 30
0.0
 11
188.07
 21
117.084
 31
0.0
  0
LINE
  8
0
 62
     0
 10
188.07
 20
117.084
 30
0.0
 11
174.071
 21
117.084
 31
0.0
  0
LINE
  8
0
 62
     0
 10
174.071
 20
117.084
 30
0.0
 11
174.071
 21
131.083
 31
0.0
  0
LINE
  8
0
 62
     0
 10
155.021
 20
131.083
 30
0.0
 11
169.02
 21
131.083
 31
0.0
  0
LINE
  8
0
 62
     0
 10
169.02
 20
131.083
 30
0.0
 11
169.02
 21
117.084
 31
0.0
  0
LINE
  8
0
 62
     0
 10
169.02
 20
117.084
 30
0.0
 11
155.021
 21
117.084
 31
0.0
  0
LINE
  8
0
 62
     0
 10
155.021
 20
117.084
 30
0.0
 11
155.021
 21
131.083
 31
0.0
  0
LINE
  8
0
 62
     0
 10
135.971
 20
131.083
 30
0.0
 11
149.97
 21
131.083
 31
0.0
  0
LINE
  8
0
 62
     0
 10
149.97
 20
131.083
 30
0.0
 11
149.97
 21
117.084
 31
0.0
  0
LINE
  8
0
 62
     0
 10
149.97
 20
117.084
 30
0.0
 11
135.971
 21
117.084
 31
0.0
  0
LINE
  8
0
 62
     0
 10
135.971
 20
117.084
 30
0.0
 11
135.971
 21
131.083
 31
0.0
  0
LINE
  8
0
 62
     0
 10
116.92
 20
131.083
 30
0.0
 11
130.92
 21
131.083
 31
0.0
  0
LINE
  8
0
 62
     0
 10
130.92
 20
131.083
 30
0.0
 11
130.92
 21
117.084
 31
0.0
  0
LINE
  8
0
 62
     0
 10
130.92
 20
117.084
 30
0.0
 11
116.92
 21
117.084
 31
0.0
  0
LINE
  8
0
 62
     0
 10
116.92
 20
117.084
 30
0.0
 11
116.92
 21
131.083
 31
0.0
  0
LINE
  8
0
 62
     0
 10
97.8697
 20
131.083
 30
0.0
 11
111.869
 21
131.083
 31
0.0
  0
LINE
  8
0
 62
     0
 10
111.869
 20
131.083
 30
0.0
 11
111.869
 21
117.084
 31
0.0
  0
LINE
  8
0
 62
     0
 10
111.869
 20
117.084
 30
0.0
 11
97.8697
 21
117.084
 31
0.0
  0
LINE
  8
0
 62
     0
 10
97.8697
 20
117.084
 30
0.0
 11
97.8697
 21
131.083
 31
0.0
  0
LINE
  8
0
 62
     0
 10
78.8211
 20
131.083
 30
0.0
 11
92.8204
 21
131.083
 31
0.0
  0
LINE
  8
0
 62
     0
 10
92.8204
 20
131.083
 30
0.0
 11
92.8204
 21
117.084
 31
0.0
  0
LINE
  8
0
 62
     0
 10
92.8204
 20
117.084
 30
0.0
 11
78.8211
 21
117.084
 31
0.0
  0
LINE
  8
0
 62
     0
 10
78.8211
 20
117.084
 30
0.0
 11
78.8211
 21
131.083
 31
0.0
  0
LINE
  8
0
 62
     0
 10
59.7711
 20
131.083
 30
0.0
 11
73.7704
 21
131.083
 31
0.0
  0
LINE
  8
0
 62
     0
 10
73.7704
 20
131.083
 30
0.0
 11
73.7704
 21
117.084
 31
0.0
  0
LINE
  8
0
 62
     0
 10
73.7704
 20
117.084
 30
0.0
 11
59.7711
 21
117.084
 31
0.0
  0
LINE
  8
0
 62
     0
 10
59.7711
 20
117.084
 30
0.0
 11
59.7711
 21
131.083
 31
0.0
  0
LINE
  8
0
 62
     0
 10
40.7211
 20
131.083
 30
0.0
 11
54.7204
 21
131.083
 31
0.0
  0
LINE
  8
0
 62
     0
 10
54.7204
 20
131.083
 30
0.0
 11
54.7204
 21
117.084
 31
0.0
  0
LINE
  8
0
 62
     0
 10
54.7204
 20
117.084
 30
0.0
 11
40.7211
 21
117.084
 31
0.0
  0
LINE
  8
0
 62
     0
 10
40.7211
 20
117.084
 30
0.0
 11
40.7211
 21
131.083
 31
0.0
  0
LINE
  8
0
 62
     0
 10
21.671
 20
131.083
 30
0.0
 11
35.6704
 21
131.083
 31
0.0
  0
LINE
  8
0
 62
     0
 10
35.6704
 20
131.083
 30
0.0
 11
35.6704
 21
117.084
 31
0.0
  0
LINE
  8
0
 62
     0
 10
35.6704
 20
117.084
 30
0.0
 11
21.671
 21
117.084
 31
0.0
  0
LINE
  8
0
 62
     0
 10
21.671
 20
117.084
 30
0.0
 11
21.671
 21
131.083
 31
0.0
  0
LINE
  8
0
 62
     0
 10
2.62103
 20
131.083
 30
0.0
 11
16.6205
 21
131.083
 31
0.0
  0
LINE
  8
0
 62
     0
 10
16.6205
 20
131.083
 30
0.0
 11
16.6205
 21
117.084
 31
0.0
  0
LINE
  8
0
 62
     0
 10
16.6205
 20
117.084
 30
0.0
 11
2.62103
 21
117.084
 31
0.0
  0
LINE
  8
0
 62
     0
 10
2.62103
 20
117.084
 30
0.0
 11
2.62103
 21
131.083
 31
0.0
  0
LINE
  8
0
 62
     0
 10
212.171
 20
150.132
 30
0.0
 11
226.17
 21
150.132
 31
0.0
  0
LINE
  8
0
 62
     0
 10
226.17
 20
150.132
 30
0.0
 11
226.17
 21
136.132
 31
0.0
  0
LINE
  8
0
 62
     0
 10
226.17
 20
136.132
 30
0.0
 11
212.171
 21
136.132
 31
0.0
  0
LINE
  8
0
 62
     0
 10
212.171
 20
136.132
 30
0.0
 11
212.171
 21
150.132
 31
0.0
  0
LINE
  8
0
 62
     0
 10
193.121
 20
150.132
 30
0.0
 11
207.12
 21
150.132
 31
0.0
  0
LINE
  8
0
 62
     0
 10
207.12
 20
150.132
 30
0.0
 11
207.12
 21
136.132
 31
0.0
  0
LINE
  8
0
 62
     0
 10
207.12
 20
136.132
 30
0.0
 11
193.121
 21
136.132
 31
0.0
  0
LINE
  8
0
 62
     0
 10
193.121
 20
136.132
 30
0.0
 11
193.121
 21
150.132
 31
0.0
  0
LINE
  8
0
 62
     0
 10
174.071
 20
150.132
 30
0.0
 11
188.07
 21
150.132
 31
0.0
  0
LINE
  8
0
 62
     0
 10
188.07
 20
150.132
 30
0.0
 11
188.07
 21
136.132
 31
0.0
  0
LINE
  8
0
 62
     0
 10
188.07
 20
136.132
 30
0.0
 11
174.071
 21
136.132
 31
0.0
  0
LINE
  8
0
 62
     0
 10
174.071
 20
136.132
 30
0.0
 11
174.071
 21
150.132
 31
0.0
  0
LINE
  8
0
 62
     0
 10
155.021
 20
150.132
 30
0.0
 11
169.02
 21
150.132
 31
0.0
  0
LINE
  8
0
 62
     0
 10
169.02
 20
150.132
 30
0.0
 11
169.02
 21
136.132
 31
0.0
  0
LINE
  8
0
 62
     0
 10
169.02
 20
136.132
 30
0.0
 11
155.021
 21
136.132
 31
0.0
  0
LINE
  8
0
 62
     0
 10
155.021
 20
136.132
 30
0.0
 11
155.021
 21
150.132
 31
0.0
  0
LINE
  8
0
 62
     0
 10
135.971
 20
150.132
 30
0.0
 11
149.97
 21
150.132
 31
0.0
  0
LINE
  8
0
 62
     0
 10
149.97
 20
150.132
 30
0.0
 11
149.97
 21
136.132
 31
0.0
  0
LINE
  8
0
 62
     0
 10
149.97
 20
136.132
 30
0.0
 11
135.971
 21
136.132
 31
0.0
  0
LINE
  8
0
 62
     0
 10
135.971
 20
136.132
 30
0.0
 11
135.971
 21
150.132
 31
0.0
  0
LINE
  8
0
 62
     0
 10
116.92
 20
150.132
 30
0.0
 11
130.92
 21
150.132
 31
0.0
  0
LINE
  8
0
 62
     0
 10
130.92
 20
150.132
 30
0.0
 11
130.92
 21
136.132
 31
0.0
  0
LINE
  8
0
 62
     0
 10
130.92
 20
136.132
 30
0.0
 11
116.92
 21
136.132
 31
0.0
  0
LINE
  8
0
 62
     0
 10
116.92
 20
136.132
 30
0.0
 11
116.92
 21
150.132
 31
0.0
  0
LINE
  8
0
 62
     0
 10
97.8697
 20
150.132
 30
0.0
 11
111.869
 21
150.132
 31
0.0
  0
LINE
  8
0
 62
     0
 10
111.869
 20
150.132
 30
0.0
 11
111.869
 21
136.132
 31
0.0
  0
LINE
  8
0
 62
     0
 10
111.869
 20
136.132
 30
0.0
 11
97.8697
 21
136.132
 31
0.0
  0
LINE
  8
0
 62
     0
 10
97.8697
 20
136.132
 30
0.0
 11
97.8697
 21
150.132
 31
0.0
  0
LINE
  8
0
 62
     0
 10
78.8211
 20
150.132
 30
0.0
 11
92.8204
 21
150.132
 31
0.0
  0
LINE
  8
0
 62
     0
 10
92.8204
 20
150.132
 30
0.0
 11
92.8204
 21
136.132
 31
0.0
  0
LINE
  8
0
 62
     0
 10
92.8204
 20
136.132
 30
0.0
 11
78.8211
 21
136.132
 31
0.0
  0
LINE
  8
0
 62
     0
 10
78.8211
 20
136.132
 30
0.0
 11
78.8211
 21
150.132
 31
0.0
  0
LINE
  8
0
 62
     0
 10
59.7711
 20
150.132
 30
0.0
 11
73.7704
 21
150.132
 31
0.0
  0
LINE
  8
0
 62
     0
 10
73.7704
 20
150.132
 30
0.0
 11
73.7704
 21
136.132
 31
0.0
  0
LINE
  8
0
 62
     0
 10
73.7704
 20
136.132
 30
0.0
 11
59.7711
 21
136.132
 31
0.0
  0
LINE
  8
0
 62
     0
 10
59.7711
 20
136.132
 30
0.0
 11
59.7711
 21
150.132
 31
0.0
  0
LINE
  8
0
 62
     0
 10
40.7211
 20
150.132
 30
0.0
 11
54.7204
 21
150.132
 31
0.0
  0
LINE
  8
0
 62
     0
 10
54.7204
 20
150.132
 30
0.0
 11
54.7204
 21
136.132
 31
0.0
  0
LINE
  8
0
 62
     0
 10
54.7204
 20
136.132
 30
0.0
 11
40.7211
 21
136.132
 31
0.0
  0
LINE
  8
0
 62
     0
 10
40.7211
 20
136.132
 30
0.0
 11
40.7211
 21
150.132
 31
0.0
  0
LINE
  8
0
 62
     0
 10
21.671
 20
150.132
 30
0.0
 11
35.6704
 21
150.132
 31
0.0
  0
LINE
  8
0
 62
     0
 10
35.6704
 20
150.132
 30
0.0
 11
35.6704
 21
136.132
 31
0.0
  0
LINE
  8
0
 62
     0
 10
35.6704
 20
136.132
 30
0.0
 11
21.671
 21
136.132
 31
0.0
  0
LINE
  8
0
 62
     0
 10
21.671
 20
136.132
 30
0.0
 11
21.671
 21
150.132
 31
0.0
  0
LINE
  8
0
 62
     0
 10
2.62103
 20
150.132
 30
0.0
 11
16.6205
 21
150.132
 31
0.0
  0
LINE
  8
0
 62
     0
 10
16.6205
 20
150.132
 30
0.0
 11
16.6205
 21
136.132
 31
0.0
  0
LINE
  8
0
 62
     0
 10
16.6205
 20
136.132
 30
0.0
 11
2.62103
 21
136.132
 31
0.0
  0
LINE
  8
0
 62
     0
 10
2.62103
 20
136.132
 30
0.0
 11
2.62103
 21
150.132
 31
0.0
  0
LINE
  8
0
 62
     0
 10
212.171
 20
169.182
 30
0.0
 11
226.17
 21
169.182
 31
0.0
  0
LINE
  8
0
 62
     0
 10
226.17
 20
169.182
 30
0.0
 11
226.17
 21
155.182
 31
0.0
  0
LINE
  8
0
 62
     0
 10
226.17
 20
155.182
 30
0.0
 11
212.171
 21
155.182
 31
0.0
  0
LINE
  8
0
 62
     0
 10
212.171
 20
155.182
 30
0.0
 11
212.171
 21
169.182
 31
0.0
  0
LINE
  8
0
 62
     0
 10
193.121
 20
169.182
 30
0.0
 11
207.12
 21
169.182
 31
0.0
  0
LINE
  8
0
 62
     0
 10
207.12
 20
169.182
 30
0.0
 11
207.12
 21
155.182
 31
0.0
  0
LINE
  8
0
 62
     0
 10
207.12
 20
155.182
 30
0.0
 11
193.121
 21
155.182
 31
0.0
  0
LINE
  8
0
 62
     0
 10
193.121
 20
155.182
 30
0.0
 11
193.121
 21
169.182
 31
0.0
  0
LINE
  8
0
 62
     0
 10
174.071
 20
169.182
 30
0.0
 11
188.07
 21
169.182
 31
0.0
  0
LINE
  8
0
 62
     0
 10
188.07
 20
169.182
 30
0.0
 11
188.07
 21
155.182
 31
0.0
  0
LINE
  8
0
 62
     0
 10
188.07
 20
155.182
 30
0.0
 11
174.071
 21
155.182
 31
0.0
  0
LINE
  8
0
 62
     0
 10
174.071
 20
155.182
 30
0.0
 11
174.071
 21
169.182
 31
0.0
  0
LINE
  8
0
 62
     0
 10
155.021
 20
169.182
 30
0.0
 11
169.02
 21
169.182
 31
0.0
  0
LINE
  8
0
 62
     0
 10
169.02
 20
169.182
 30
0.0
 11
169.02
 21
155.182
 31
0.0
  0
LINE
  8
0
 62
     0
 10
169.02
 20
155.182
 30
0.0
 11
155.021
 21
155.182
 31
0.0
  0
LINE
  8
0
 62
     0
 10
155.021
 20
155.182
 30
0.0
 11
155.021
 21
169.182
 31
0.0
  0
LINE
  8
0
 62
     0
 10
135.971
 20
169.182
 30
0.0
 11
149.97
 21
169.182
 31
0.0
  0
LINE
  8
0
 62
     0
 10
149.97
 20
169.182
 30
0.0
 11
149.97
 21
155.182
 31
0.0
  0
LINE
  8
0
 62
     0
 10
149.97
 20
155.182
 30
0.0
 11
135.971
 21
155.182
 31
0.0
  0
LINE
  8
0
 62
     0
 10
135.971
 20
155.182
 30
0.0
 11
135.971
 21
169.182
 31
0.0
  0
LINE
  8
0
 62
     0
 10
116.92
 20
169.182
 30
0.0
 11
130.92
 21
169.182
 31
0.0
  0
LINE
  8
0
 62
     0
 10
130.92
 20
169.182
 30
0.0
 11
130.92
 21
155.182
 31
0.0
  0
LINE
  8
0
 62
     0
 10
130.92
 20
155.182
 30
0.0
 11
116.92
 21
155.182
 31
0.0
  0
LINE
  8
0
 62
     0
 10
116.92
 20
155.182
 30
0.0
 11
116.92
 21
169.182
 31
0.0
  0
LINE
  8
0
 62
     0
 10
97.8697
 20
169.182
 30
0.0
 11
111.869
 21
169.182
 31
0.0
  0
LINE
  8
0
 62
     0
 10
111.869
 20
169.182
 30
0.0
 11
111.869
 21
155.182
 31
0.0
  0
LINE
  8
0
 62
     0
 10
111.869
 20
155.182
 30
0.0
 11
97.8697
 21
155.182
 31
0.0
  0
LINE
  8
0
 62
     0
 10
97.8697
 20
155.182
 30
0.0
 11
97.8697
 21
169.182
 31
0.0
  0
LINE
  8
0
 62
     0
 10
78.8211
 20
169.182
 30
0.0
 11
92.8204
 21
169.182
 31
0.0
  0
LINE
  8
0
 62
     0
 10
92.8204
 20
169.182
 30
0.0
 11
92.8204
 21
155.182
 31
0.0
  0
LINE
  8
0
 62
     0
 10
92.8204
 20
155.182
 30
0.0
 11
78.8211
 21
155.182
 31
0.0
  0
LINE
  8
0
 62
     0
 10
78.8211
 20
155.182
 30
0.0
 11
78.8211
 21
169.182
 31
0.0
  0
LINE
  8
0
 62
     0
 10
59.7711
 20
169.182
 30
0.0
 11
73.7704
 21
169.182
 31
0.0
  0
LINE
  8
0
 62
     0
 10
73.7704
 20
169.182
 30
0.0
 11
73.7704
 21
155.182
 31
0.0
  0
LINE
  8
0
 62
     0
 10
73.7704
 20
155.182
 30
0.0
 11
59.7711
 21
155.182
 31
0.0
  0
LINE
  8
0
 62
     0
 10
59.7711
 20
155.182
 30
0.0
 11
59.7711
 21
169.182
 31
0.0
  0
LINE
  8
0
 62
     0
 10
40.7211
 20
169.182
 30
0.0
 11
54.7204
 21
169.182
 31
0.0
  0
LINE
  8
0
 62
     0
 10
54.7204
 20
169.182
 30
0.0
 11
54.7204
 21
155.182
 31
0.0
  0
LINE
  8
0
 62
     0
 10
54.7204
 20
155.182
 30
0.0
 11
40.7211
 21
155.182
 31
0.0
  0
LINE
  8
0
 62
     0
 10
40.7211
 20
155.182
 30
0.0
 11
40.7211
 21
169.182
 31
0.0
  0
LINE
  8
0
 62
     0
 10
21.671
 20
169.182
 30
0.0
 11
35.6704
 21
169.182
 31
0.0
  0
LINE
  8
0
 62
     0
 10
35.6704
 20
169.182
 30
0.0
 11
35.6704
 21
155.182
 31
0.0
  0
LINE
  8
0
 62
     0
 10
35.6704
 20
155.182
 30
0.0
 11
21.671
 21
155.182
 31
0.0
  0
LINE
  8
0
 62
     0
 10
21.671
 20
155.182
 30
0.0
 11
21.671
 21
169.182
 31
0.0
  0
LINE
  8
0
 62
     0
 10
2.62103
 20
169.182
 30
0.0
 11
16.6205
 21
169.182
 31
0.0
  0
LINE
  8
0
 62
     0
 10
16.6205
 20
169.182
 30
0.0
 11
16.6205
 21
155.182
 31
0.0
  0
LINE
  8
0
 62
     0
 10
16.6205
 20
155.182
 30
0.0
 11
2.62103
 21
155.182
 31
0.0
  0
LINE
  8
0
 62
     0
 10
2.62103
 20
155.182
 30
0.0
 11
2.62103
 21
169.182
 31
0.0
  0
LINE
  8
0
 62
     0
 10
212.171
 20
188.232
 30
0.0
 11
226.17
 21
188.232
 31
0.0
  0
LINE
  8
0
 62
     0
 10
226.17
 20
188.232
 30
0.0
 11
226.17
 21
174.232
 31
0.0
  0
LINE
  8
0
 62
     0
 10
226.17
 20
174.232
 30
0.0
 11
212.171
 21
174.232
 31
0.0
  0
LINE
  8
0
 62
     0
 10
212.171
 20
174.232
 30
0.0
 11
212.171
 21
188.232
 31
0.0
  0
LINE
  8
0
 62
     0
 10
193.121
 20
188.232
 30
0.0
 11
207.12
 21
188.232
 31
0.0
  0
LINE
  8
0
 62
     0
 10
207.12
 20
188.232
 30
0.0
 11
207.12
 21
174.232
 31
0.0
  0
LINE
  8
0
 62
     0
 10
207.12
 20
174.232
 30
0.0
 11
193.121
 21
174.232
 31
0.0
  0
LINE
  8
0
 62
     0
 10
193.121
 20
174.232
 30
0.0
 11
193.121
 21
188.232
 31
0.0
  0
LINE
  8
0
 62
     0
 10
174.071
 20
188.232
 30
0.0
 11
188.07
 21
188.232
 31
0.0
  0
LINE
  8
0
 62
     0
 10
188.07
 20
188.232
 30
0.0
 11
188.07
 21
174.232
 31
0.0
  0
LINE
  8
0
 62
     0
 10
188.07
 20
174.232
 30
0.0
 11
174.071
 21
174.232
 31
0.0
  0
LINE
  8
0
 62
     0
 10
174.071
 20
174.232
 30
0.0
 11
174.071
 21
188.232
 31
0.0
  0
LINE
  8
0
 62
     0
 10
155.021
 20
188.232
 30
0.0
 11
169.02
 21
188.232
 31
0.0
  0
LINE
  8
0
 62
     0
 10
169.02
 20
188.232
 30
0.0
 11
169.02
 21
174.232
 31
0.0
  0
LINE
  8
0
 62
     0
 10
169.02
 20
174.232
 30
0.0
 11
155.021
 21
174.232
 31
0.0
  0
LINE
  8
0
 62
     0
 10
155.021
 20
174.232
 30
0.0
 11
155.021
 21
188.232
 31
0.0
  0
LINE
  8
0
 62
     0
 10
135.971
 20
188.232
 30
0.0
 11
149.97
 21
188.232
 31
0.0
  0
LINE
  8
0
 62
     0
 10
149.97
 20
188.232
 30
0.0
 11
149.97
 21
174.232
 31
0.0
  0
LINE
  8
0
 62
     0
 10
149.97
 20
174.232
 30
0.0
 11
135.971
 21
174.232
 31
0.0
  0
LINE
  8
0
 62
     0
 10
135.971
 20
174.232
 30
0.0
 11
135.971
 21
188.232
 31
0.0
  0
LINE
  8
0
 62
     0
 10
116.92
 20
188.232
 30
0.0
 11
130.92
 21
188.232
 31
0.0
  0
LINE
  8
0
 62
     0
 10
130.92
 20
188.232
 30
0.0
 11
130.92
 21
174.232
 31
0.0
  0
LINE
  8
0
 62
     0
 10
130.92
 20
174.232
 30
0.0
 11
116.92
 21
174.232
 31
0.0
  0
LINE
  8
0
 62
     0
 10
116.92
 20
174.232
 30
0.0
 11
116.92
 21
188.232
 31
0.0
  0
LINE
  8
0
 62
     0
 10
97.8697
 20
188.232
 30
0.0
 11
111.869
 21
188.232
 31
0.0
  0
LINE
  8
0
 62
     0
 10
111.869
 20
188.232
 30
0.0
 11
111.869
 21
174.232
 31
0.0
  0
LINE
  8
0
 62
     0
 10
111.869
 20
174.232
 30
0.0
 11
97.8697
 21
174.232
 31
0.0
  0
LINE
  8
0
 62
     0
 10
97.8697
 20
174.232
 30
0.0
 11
97.8697
 21
188.232
 31
0.0
  0
LINE
  8
0
 62
     0
 10
78.8211
 20
188.232
 30
0.0
 11
92.8204
 21
188.232
 31
0.0
  0
LINE
  8
0
 62
     0
 10
92.8204
 20
188.232
 30
0.0
 11
92.8204
 21
174.232
 31
0.0
  0
LINE
  8
0
 62
     0
 10
92.8204
 20
174.232
 30
0.0
 11
78.8211
 21
174.232
 31
0.0
  0
LINE
  8
0
 62
     0
 10
78.8211
 20
174.232
 30
0.0
 11
78.8211
 21
188.232
 31
0.0
  0
LINE
  8
0
 62
     0
 10
59.7711
 20
188.232
 30
0.0
 11
73.7704
 21
188.232
 31
0.0
  0
LINE
  8
0
 62
     0
 10
73.7704
 20
188.232
 30
0.0
 11
73.7704
 21
174.232
 31
0.0
  0
LINE
  8
0
 62
     0
 10
73.7704
 20
174.232
 30
0.0
 11
59.7711
 21
174.232
 31
0.0
  0
LINE
  8
0
 62
     0
 10
59.7711
 20
174.232
 30
0.0
 11
59.7711
 21
188.232
 31
0.0
  0
LINE
  8
0
 62
     0
 10
40.7211
 20
188.232
 30
0.0
 11
54.7204
 21
188.232
 31
0.0
  0
LINE
  8
0
 62
     0
 10
54.7204
 20
188.232
 30
0.0
 11
54.7204
 21
174.232
 31
0.0
  0
LINE
  8
0
 62
     0
 10
54.7204
 20
174.232
 30
0.0
 11
40.7211
 21
174.232
 31
0.0
  0
LINE
  8
0
 62
     0
 10
40.7211
 20
174.232
 30
0.0
 11
40.7211
 21
188.232
 31
0.0
  0
LINE
  8
0
 62
     0
 10
21.671
 20
188.232
 30
0.0
 11
35.6704
 21
188.232
 31
0.0
  0
LINE
  8
0
 62
     0
 10
35.6704
 20
188.232
 30
0.0
 11
35.6704
 21
174.232
 31
0.0
  0
LINE
  8
0
 62
     0
 10
35.6704
 20
174.232
 30
0.0
 11
21.671
 21
174.232
 31
0.0
  0
LINE
  8
0
 62
     0
 10
21.671
 20
174.232
 30
0.0
 11
21.671
 21
188.232
 31
0.0
  0
LINE
  8
0
 62
     0
 10
2.62103
 20
188.232
 30
0.0
 11
16.6205
 21
188.232
 31
0.0
  0
LINE
  8
0
 62
     0
 10
16.6205
 20
188.232
 30
0.0
 11
16.6205
 21
174.232
 31
0.0
  0
LINE
  8
0
 62
     0
 10
16.6205
 20
174.232
 30
0.0
 11
2.62103
 21
174.232
 31
0.0
  0
LINE
  8
0
 62
     0
 10
2.62103
 20
174.232
 30
0.0
 11
2.62103
 21
188.232
 31
0.0
  0
LINE
  8
0
 62
     0
 10
212.171
 20
207.282
 30
0.0
 11
226.17
 21
207.282
 31
0.0
  0
LINE
  8
0
 62
     0
 10
226.17
 20
207.282
 30
0.0
 11
226.17
 21
193.282
 31
0.0
  0
LINE
  8
0
 62
     0
 10
226.17
 20
193.282
 30
0.0
 11
212.171
 21
193.282
 31
0.0
  0
LINE
  8
0
 62
     0
 10
212.171
 20
193.282
 30
0.0
 11
212.171
 21
207.282
 31
0.0
  0
LINE
  8
0
 62
     0
 10
193.121
 20
207.282
 30
0.0
 11
207.12
 21
207.282
 31
0.0
  0
LINE
  8
0
 62
     0
 10
207.12
 20
207.282
 30
0.0
 11
207.12
 21
193.282
 31
0.0
  0
LINE
  8
0
 62
     0
 10
207.12
 20
193.282
 30
0.0
 11
193.121
 21
193.282
 31
0.0
  0
LINE
  8
0
 62
     0
 10
193.121
 20
193.282
 30
0.0
 11
193.121
 21
207.282
 31
0.0
  0
LINE
  8
0
 62
     0
 10
174.071
 20
207.282
 30
0.0
 11
188.07
 21
207.282
 31
0.0
  0
LINE
  8
0
 62
     0
 10
188.07
 20
207.282
 30
0.0
 11
188.07
 21
193.282
 31
0.0
  0
LINE
  8
0
 62
     0
 10
188.07
 20
193.282
 30
0.0
 11
174.071
 21
193.282
 31
0.0
  0
LINE
  8
0
 62
     0
 10
174.071
 20
193.282
 30
0.0
 11
174.071
 21
207.282
 31
0.0
  0
LINE
  8
0
 62
     0
 10
155.021
 20
207.282
 30
0.0
 11
169.02
 21
207.282
 31
0.0
  0
LINE
  8
0
 62
     0
 10
169.02
 20
207.282
 30
0.0
 11
169.02
 21
193.282
 31
0.0
  0
LINE
  8
0
 62
     0
 10
169.02
 20
193.282
 30
0.0
 11
155.021
 21
193.282
 31
0.0
  0
LINE
  8
0
 62
     0
 10
155.021
 20
193.282
 30
0.0
 11
155.021
 21
207.282
 31
0.0
  0
LINE
  8
0
 62
     0
 10
135.971
 20
207.282
 30
0.0
 11
149.97
 21
207.282
 31
0.0
  0
LINE
  8
0
 62
     0
 10
149.97
 20
207.282
 30
0.0
 11
149.97
 21
193.282
 31
0.0
  0
LINE
  8
0
 62
     0
 10
149.97
 20
193.282
 30
0.0
 11
135.971
 21
193.282
 31
0.0
  0
LINE
  8
0
 62
     0
 10
135.971
 20
193.282
 30
0.0
 11
135.971
 21
207.282
 31
0.0
  0
LINE
  8
0
 62
     0
 10
116.92
 20
207.282
 30
0.0
 11
130.92
 21
207.282
 31
0.0
  0
LINE
  8
0
 62
     0
 10
130.92
 20
207.282
 30
0.0
 11
130.92
 21
193.282
 31
0.0
  0
LINE
  8
0
 62
     0
 10
130.92
 20
193.282
 30
0.0
 11
116.92
 21
193.282
 31
0.0
  0
LINE
  8
0
 62
     0
 10
116.92
 20
193.282
 30
0.0
 11
116.92
 21
207.282
 31
0.0
  0
LINE
  8
0
 62
     0
 10
97.8697
 20
207.282
 30
0.0
 11
111.869
 21
207.282
 31
0.0
  0
LINE
  8
0
 62
     0
 10
111.869
 20
207.282
 30
0.0
 11
111.869
 21
193.282
 31
0.0
  0
LINE
  8
0
 62
     0
 10
111.869
 20
193.282
 30
0.0
 11
97.8697
 21
193.282
 31
0.0
  0
LINE
  8
0
 62
     0
 10
97.8697
 20
193.282
 30
0.0
 11
97.8697
 21
207.282
 31
0.0
  0
LINE
  8
0
 62
     0
 10
78.8211
 20
207.282
 30
0.0
 11
92.8204
 21
207.282
 31
0.0
  0
LINE
  8
0
 62
     0
 10
92.8204
 20
207.282
 30
0.0
 11
92.8204
 21
193.282
 31
0.0
  0
LINE
  8
0
 62
     0
 10
92.8204
 20
193.282
 30
0.0
 11
78.8211
 21
193.282
 31
0.0
  0
LINE
  8
0
 62
     0
 10
78.8211
 20
193.282
 30
0.0
 11
78.8211
 21
207.282
 31
0.0
  0
LINE
  8
0
 62
     0
 10
59.7711
 20
207.282
 30
0.0
 11
73.7704
 21
207.282
 31
0.0
  0
LINE
  8
0
 62
     0
 10
73.7704
 20
207.282
 30
0.0
 11
73.7704
 21
193.282
 31
0.0
  0
LINE
  8
0
 62
     0
 10
73.7704
 20
193.282
 30
0.0
 11
59.7711
 21
193.282
 31
0.0
  0
LINE
  8
0
 62
     0
 10
59.7711
 20
193.282
 30
0.0
 11
59.7711
 21
207.282
 31
0.0
  0
LINE
  8
0
 62
     0
 10
40.7211
 20
207.282
 30
0.0
 11
54.7204
 21
207.282
 31
0.0
  0
LINE
  8
0
 62
     0
 10
54.7204
 20
207.282
 30
0.0
 11
54.7204
 21
193.282
 31
0.0
  0
LINE
  8
0
 62
     0
 10
54.7204
 20
193.282
 30
0.0
 11
40.7211
 21
193.282
 31
0.0
  0
LINE
  8
0
 62
     0
 10
40.7211
 20
193.282
 30
0.0
 11
40.7211
 21
207.282
 31
0.0
  0
LINE
  8
0
 62
     0
 10
21.671
 20
207.282
 30
0.0
 11
35.6704
 21
207.282
 31
0.0
  0
LINE
  8
0
 62
     0
 10
35.6704
 20
207.282
 30
0.0
 11
35.6704
 21
193.282
 31
0.0
  0
LINE
  8
0
 62
     0
 10
35.6704
 20
193.282
 30
0.0
 11
21.671
 21
193.282
 31
0.0
  0
LINE
  8
0
 62
     0
 10
21.671
 20
193.282
 30
0.0
 11
21.671
 21
207.282
 31
0.0
  0
LINE
  8
0
 62
     0
 10
2.62103
 20
207.282
 30
0.0
 11
16.6205
 21
207.282
 31
0.0
  0
LINE
  8
0
 62
     0
 10
16.6205
 20
207.282
 30
0.0
 11
16.6205
 21
193.282
 31
0.0
  0
LINE
  8
0
 62
     0
 10
16.6205
 20
193.282
 30
0.0
 11
2.62103
 21
193.282
 31
0.0
  0
LINE
  8
0
 62
     0
 10
2.62103
 20
193.282
 30
0.0
 11
2.62103
 21
207.282
 31
0.0
  0
LINE
  8
0
 62
     0
 10
212.171
 20
226.332
 30
0.0
 11
226.17
 21
226.332
 31
0.0
  0
LINE
  8
0
 62
     0
 10
226.17
 20
226.332
 30
0.0
 11
226.17
 21
212.332
 31
0.0
  0
LINE
  8
0
 62
     0
 10
226.17
 20
212.332
 30
0.0
 11
212.171
 21
212.332
 31
0.0
  0
LINE
  8
0
 62
     0
 10
212.171
 20
212.332
 30
0.0
 11
212.171
 21
226.332
 31
0.0
  0
LINE
  8
0
 62
     0
 10
193.121
 20
226.332
 30
0.0
 11
207.12
 21
226.332
 31
0.0
  0
LINE
  8
0
 62
     0
 10
207.12
 20
226.332
 30
0.0
 11
207.12
 21
212.332
 31
0.0
  0
LINE
  8
0
 62
     0
 10
207.12
 20
212.332
 30
0.0
 11
193.121
 21
212.332
 31
0.0
  0
LINE
  8
0
 62
     0
 10
193.121
 20
212.332
 30
0.0
 11
193.121
 21
226.332
 31
0.0
  0
LINE
  8
0
 62
     0
 10
174.071
 20
226.332
 30
0.0
 11
188.07
 21
226.332
 31
0.0
  0
LINE
  8
0
 62
     0
 10
188.07
 20
226.332
 30
0.0
 11
188.07
 21
212.332
 31
0.0
  0
LINE
  8
0
 62
     0
 10
188.07
 20
212.332
 30
0.0
 11
174.071
 21
212.332
 31
0.0
  0
LINE
  8
0
 62
     0
 10
174.071
 20
212.332
 30
0.0
 11
174.071
 21
226.332
 31
0.0
  0
LINE
  8
0
 62
     0
 10
155.021
 20
226.332
 30
0.0
 11
169.02
 21
226.332
 31
0.0
  0
LINE
  8
0
 62
     0
 10
169.02
 20
226.332
 30
0.0
 11
169.02
 21
212.332
 31
0.0
  0
LINE
  8
0
 62
     0
 10
169.02
 20
212.332
 30
0.0
 11
155.021
 21
212.332
 31
0.0
  0
LINE
  8
0
 62
     0
 10
155.021
 20
212.332
 30
0.0
 11
155.021
 21
226.332
 31
0.0
  0
LINE
  8
0
 62
     0
 10
135.971
 20
226.332
 30
0.0
 11
149.97
 21
226.332
 31
0.0
  0
LINE
  8
0
 62
     0
 10
149.97
 20
226.332
 30
0.0
 11
149.97
 21
212.332
 31
0.0
  0
LINE
  8
0
 62
     0
 10
149.97
 20
212.332
 30
0.0
 11
135.971
 21
212.332
 31
0.0
  0
LINE
  8
0
 62
     0
 10
135.971
 20
212.332
 30
0.0
 11
135.971
 21
226.332
 31
0.0
  0
LINE
  8
0
 62
     0
 10
116.92
 20
226.332
 30
0.0
 11
130.92
 21
226.332
 31
0.0
  0
LINE
  8
0
 62
     0
 10
130.92
 20
226.332
 30
0.0
 11
130.92
 21
212.332
 31
0.0
  0
LINE
  8
0
 62
     0
 10
130.92
 20
212.332
 30
0.0
 11
116.92
 21
212.332
 31
0.0
  0
LINE
  8
0
 62
     0
 10
116.92
 20
212.332
 30
0.0
 11
116.92
 21
226.332
 31
0.0
  0
LINE
  8
0
 62
     0
 10
97.8697
 20
226.332
 30
0.0
 11
111.869
 21
226.332
 31
0.0
  0
LINE
  8
0
 62
     0
 10
111.869
 20
226.332
 30
0.0
 11
111.869
 21
212.332
 31
0.0
  0
LINE
  8
0
 62
     0
 10
111.869
 20
212.332
 30
0.0
 11
97.8697
 21
212.332
 31
0.0
  0
LINE
  8
0
 62
     0
 10
97.8697
 20
212.332
 30
0.0
 11
97.8697
 21
226.332
 31
0.0
  0
LINE
  8
0
 62
     0
 10
78.8211
 20
226.332
 30
0.0
 11
92.8204
 21
226.332
 31
0.0
  0
LINE
  8
0
 62
     0
 10
92.8204
 20
226.332
 30
0.0
 11
92.8204
 21
212.332
 31
0.0
  0
LINE
  8
0
 62
     0
 10
92.8204
 20
212.332
 30
0.0
 11
78.8211
 21
212.332
 31
0.0
  0
LINE
  8
0
 62
     0
 10
78.8211
 20
212.332
 30
0.0
 11
78.8211
 21
226.332
 31
0.0
  0
LINE
  8
0
 62
     0
 10
59.7711
 20
226.332
 30
0.0
 11
73.7704
 21
226.332
 31
0.0
  0
LINE
  8
0
 62
     0
 10
73.7704
 20
226.332
 30
0.0
 11
73.7704
 21
212.332
 31
0.0
  0
LINE
  8
0
 62
     0
 10
73.7704
 20
212.332
 30
0.0
 11
59.7711
 21
212.332
 31
0.0
  0
LINE
  8
0
 62
     0
 10
59.7711
 20
212.332
 30
0.0
 11
59.7711
 21
226.332
 31
0.0
  0
LINE
  8
0
 62
     0
 10
40.7211
 20
226.332
 30
0.0
 11
54.7204
 21
226.332
 31
0.0
  0
LINE
  8
0
 62
     0
 10
54.7204
 20
226.332
 30
0.0
 11
54.7204
 21
212.332
 31
0.0
  0
LINE
  8
0
 62
     0
 10
54.7204
 20
212.332
 30
0.0
 11
40.7211
 21
212.332
 31
0.0
  0
LINE
  8
0
 62
     0
 10
40.7211
 20
212.332
 30
0.0
 11
40.7211
 21
226.332
 31
0.0
  0
LINE
  8
0
 62
     0
 10
21.671
 20
226.332
 30
0.0
 11
35.6704
 21
226.332
 31
0.0
  0
LINE
  8
0
 62
     0
 10
35.6704
 20
226.332
 30
0.0
 11
35.6704
 21
212.332
 31
0.0
  0
LINE
  8
0
 62
     0
 10
35.6704
 20
212.332
 30
0.0
 11
21.671
 21
212.332
 31
0.0
  0
LINE
  8
0
 62
     0
 10
21.671
 20
212.332
 30
0.0
 11
21.671
 21
226.332
 31
0.0
  0
LINE
  8
0
 62
     0
 10
2.62103
 20
226.332
 30
0.0
 11
16.6205
 21
226.332
 31
0.0
  0
LINE
  8
0
 62
     0
 10
16.6205
 20
226.332
 30
0.0
 11
16.6205
 21
212.332
 31
0.0
  0
LINE
  8
0
 62
     0
 10
16.6205
 20
212.332
 30
0.0
 11
2.62103
 21
212.332
 31
0.0
  0
LINE
  8
0
 62
     0
 10
2.62103
 20
212.332
 30
0.0
 11
2.62103
 21
226.332
 31
0.0
  0
ENDSEC
  0
EOF
