  0
SECTION
  2
HEADER
  9
$ACADVER
  1
AC1009
  9
$EXTMIN
 10
0.0
 20
0.0
 30
0.0
  9
$EXTMAX
 10
1000.0
 20
1000.0
 30
0.0
  9
$FILLMODE
 70
 0
  9
$SPLFRAME
 70
 1
  0
ENDSEC
  0
SECTION
  2
TABLES
  0
TABLE
  2
LAYER
 70
1
  0
LAYER
  2
0
 70
     0
 62
     7
  6
CONTINUOUS
  0
ENDTAB
  0
ENDSEC
  0
SECTION
  2
ENTITIES
  0
LINE
  8
0
 62
     0
 10
225.697
 20
152.658
 30
0.0
 11
225.932
 21
152.648
 31
0.0
  0
LINE
  8
0
 62
     0
 10
225.932
 20
152.648
 30
0.0
 11
226.165
 21
152.622
 31
0.0
  0
LINE
  8
0
 62
     0
 10
226.165
 20
152.622
 30
0.0
 11
226.397
 21
152.575
 31
0.0
  0
LINE
  8
0
 62
     0
 10
226.397
 20
152.575
 30
0.0
 11
226.624
 21
152.511
 31
0.0
  0
LINE
  8
0
 62
     0
 10
226.624
 20
152.511
 30
0.0
 11
226.844
 21
152.429
 31
0.0
  0
LINE
  8
0
 62
     0
 10
226.844
 20
152.429
 30
0.0
 11
227.058
 21
152.331
 31
0.0
  0
LINE
  8
0
 62
     0
 10
227.058
 20
152.331
 30
0.0
 11
227.263
 21
152.215
 31
0.0
  0
LINE
  8
0
 62
     0
 10
227.263
 20
152.215
 30
0.0
 11
227.459
 21
152.086
 31
0.0
  0
LINE
  8
0
 62
     0
 10
227.459
 20
152.086
 30
0.0
 11
227.645
 21
151.94
 31
0.0
  0
LINE
  8
0
 62
     0
 10
227.645
 20
151.94
 30
0.0
 11
227.817
 21
151.78
 31
0.0
  0
LINE
  8
0
 62
     0
 10
227.817
 20
151.78
 30
0.0
 11
227.977
 21
151.606
 31
0.0
  0
LINE
  8
0
 62
     0
 10
227.977
 20
151.606
 30
0.0
 11
228.123
 21
151.422
 31
0.0
  0
LINE
  8
0
 62
     0
 10
228.123
 20
151.422
 30
0.0
 11
228.254
 21
151.226
 31
0.0
  0
LINE
  8
0
 62
     0
 10
228.254
 20
151.226
 30
0.0
 11
228.37
 21
151.019
 31
0.0
  0
LINE
  8
0
 62
     0
 10
228.37
 20
151.019
 30
0.0
 11
228.468
 21
150.805
 31
0.0
  0
LINE
  8
0
 62
     0
 10
228.468
 20
150.805
 30
0.0
 11
228.549
 21
150.585
 31
0.0
  0
LINE
  8
0
 62
     0
 10
228.549
 20
150.585
 30
0.0
 11
228.614
 21
150.358
 31
0.0
  0
LINE
  8
0
 62
     0
 10
228.614
 20
150.358
 30
0.0
 11
228.659
 21
150.128
 31
0.0
  0
LINE
  8
0
 62
     0
 10
228.659
 20
150.128
 30
0.0
 11
228.687
 21
149.894
 31
0.0
  0
LINE
  8
0
 62
     0
 10
228.687
 20
149.894
 30
0.0
 11
228.696
 21
149.658
 31
0.0
  0
LINE
  8
0
 62
     0
 10
228.696
 20
149.658
 30
0.0
 11
228.696
 21
3.2563
 31
0.0
  0
LINE
  8
0
 62
     0
 10
228.696
 20
3.2563
 30
0.0
 11
228.687
 21
3.02066
 31
0.0
  0
LINE
  8
0
 62
     0
 10
228.687
 20
3.02066
 30
0.0
 11
228.659
 21
2.78777
 31
0.0
  0
LINE
  8
0
 62
     0
 10
228.659
 20
2.78777
 30
0.0
 11
228.614
 21
2.55626
 31
0.0
  0
LINE
  8
0
 62
     0
 10
228.614
 20
2.55626
 30
0.0
 11
228.549
 21
2.32888
 31
0.0
  0
LINE
  8
0
 62
     0
 10
228.549
 20
2.32888
 30
0.0
 11
228.468
 21
2.1084
 31
0.0
  0
LINE
  8
0
 62
     0
 10
228.468
 20
2.1084
 30
0.0
 11
228.37
 21
1.8948
 31
0.0
  0
LINE
  8
0
 62
     0
 10
228.37
 20
1.8948
 30
0.0
 11
228.254
 21
1.68947
 31
0.0
  0
LINE
  8
0
 62
     0
 10
228.254
 20
1.68947
 30
0.0
 11
228.123
 21
1.4938
 31
0.0
  0
LINE
  8
0
 62
     0
 10
228.123
 20
1.4938
 30
0.0
 11
227.977
 21
1.30776
 31
0.0
  0
LINE
  8
0
 62
     0
 10
227.977
 20
1.30776
 30
0.0
 11
227.817
 21
1.1355
 31
0.0
  0
LINE
  8
0
 62
     0
 10
227.817
 20
1.1355
 30
0.0
 11
227.645
 21
0.975653
 31
0.0
  0
LINE
  8
0
 62
     0
 10
227.645
 20
0.975653
 30
0.0
 11
227.459
 21
0.829578
 31
0.0
  0
LINE
  8
0
 62
     0
 10
227.459
 20
0.829578
 30
0.0
 11
227.263
 21
0.698666
 31
0.0
  0
LINE
  8
0
 62
     0
 10
227.263
 20
0.698666
 30
0.0
 11
227.058
 21
0.582909
 31
0.0
  0
LINE
  8
0
 62
     0
 10
227.058
 20
0.582909
 30
0.0
 11
226.844
 21
0.485069
 31
0.0
  0
LINE
  8
0
 62
     0
 10
226.844
 20
0.485069
 30
0.0
 11
226.624
 21
0.403765
 31
0.0
  0
LINE
  8
0
 62
     0
 10
226.624
 20
0.403765
 30
0.0
 11
226.397
 21
0.338998
 31
0.0
  0
LINE
  8
0
 62
     0
 10
226.397
 20
0.338998
 30
0.0
 11
226.165
 21
0.293522
 31
0.0
  0
LINE
  8
0
 62
     0
 10
226.165
 20
0.293522
 30
0.0
 11
225.932
 21
0.265961
 31
0.0
  0
LINE
  8
0
 62
     0
 10
225.932
 20
0.265961
 30
0.0
 11
225.697
 21
0.256315
 31
0.0
  0
LINE
  8
0
 62
     0
 10
225.697
 20
0.256315
 30
0.0
 11
3.09507
 21
0.256315
 31
0.0
  0
LINE
  8
0
 62
     0
 10
3.09507
 20
0.256315
 30
0.0
 11
2.85943
 21
0.265961
 31
0.0
  0
LINE
  8
0
 62
     0
 10
2.85943
 20
0.265961
 30
0.0
 11
2.62516
 21
0.293522
 31
0.0
  0
LINE
  8
0
 62
     0
 10
2.62516
 20
0.293522
 30
0.0
 11
2.39503
 21
0.338998
 31
0.0
  0
LINE
  8
0
 62
     0
 10
2.39503
 20
0.338998
 30
0.0
 11
2.16765
 21
0.403765
 31
0.0
  0
LINE
  8
0
 62
     0
 10
2.16765
 20
0.403765
 30
0.0
 11
1.94717
 21
0.485069
 31
0.0
  0
LINE
  8
0
 62
     0
 10
1.94717
 20
0.485069
 30
0.0
 11
1.73357
 21
0.582909
 31
0.0
  0
LINE
  8
0
 62
     0
 10
1.73357
 20
0.582909
 30
0.0
 11
1.52687
 21
0.698666
 31
0.0
  0
LINE
  8
0
 62
     0
 10
1.52687
 20
0.698666
 30
0.0
 11
1.33119
 21
0.829578
 31
0.0
  0
LINE
  8
0
 62
     0
 10
1.33119
 20
0.829578
 30
0.0
 11
1.14653
 21
0.975653
 31
0.0
  0
LINE
  8
0
 62
     0
 10
1.14653
 20
0.975653
 30
0.0
 11
0.972894
 21
1.1355
 31
0.0
  0
LINE
  8
0
 62
     0
 10
0.972894
 20
1.1355
 30
0.0
 11
0.813043
 21
1.30776
 31
0.0
  0
LINE
  8
0
 62
     0
 10
0.813043
 20
1.30776
 30
0.0
 11
0.666972
 21
1.4938
 31
0.0
  0
LINE
  8
0
 62
     0
 10
0.666972
 20
1.4938
 30
0.0
 11
0.537436
 21
1.68947
 31
0.0
  0
LINE
  8
0
 62
     0
 10
0.537436
 20
1.68947
 30
0.0
 11
0.421679
 21
1.8948
 31
0.0
  0
LINE
  8
0
 62
     0
 10
0.421679
 20
1.8948
 30
0.0
 11
0.323839
 21
2.1084
 31
0.0
  0
LINE
  8
0
 62
     0
 10
0.323839
 20
2.1084
 30
0.0
 11
0.241157
 21
2.32888
 31
0.0
  0
LINE
  8
0
 62
     0
 10
0.241157
 20
2.32888
 30
0.0
 11
0.177767
 21
2.55626
 31
0.0
  0
LINE
  8
0
 62
     0
 10
0.177767
 20
2.55626
 30
0.0
 11
0.130914
 21
2.78777
 31
0.0
  0
LINE
  8
0
 62
     0
 10
0.130914
 20
2.78777
 30
0.0
 11
0.104731
 21
3.02066
 31
0.0
  0
LINE
  8
0
 62
     0
 10
0.104731
 20
3.02066
 30
0.0
 11
0.0950846
 21
3.25768
 31
0.0
  0
LINE
  8
0
 62
     0
 10
0.0950846
 20
3.25768
 30
0.0
 11
0.0950846
 21
149.658
 31
0.0
  0
LINE
  8
0
 62
     0
 10
0.0950846
 20
149.658
 30
0.0
 11
0.104731
 21
149.894
 31
0.0
  0
LINE
  8
0
 62
     0
 10
0.104731
 20
149.894
 30
0.0
 11
0.130914
 21
150.128
 31
0.0
  0
LINE
  8
0
 62
     0
 10
0.130914
 20
150.128
 30
0.0
 11
0.177767
 21
150.358
 31
0.0
  0
LINE
  8
0
 62
     0
 10
0.177767
 20
150.358
 30
0.0
 11
0.241157
 21
150.585
 31
0.0
  0
LINE
  8
0
 62
     0
 10
0.241157
 20
150.585
 30
0.0
 11
0.323839
 21
150.805
 31
0.0
  0
LINE
  8
0
 62
     0
 10
0.323839
 20
150.805
 30
0.0
 11
0.421679
 21
151.019
 31
0.0
  0
LINE
  8
0
 62
     0
 10
0.421679
 20
151.019
 30
0.0
 11
0.537436
 21
151.226
 31
0.0
  0
LINE
  8
0
 62
     0
 10
0.537436
 20
151.226
 30
0.0
 11
0.666972
 21
151.422
 31
0.0
  0
LINE
  8
0
 62
     0
 10
0.666972
 20
151.422
 30
0.0
 11
0.813043
 21
151.606
 31
0.0
  0
LINE
  8
0
 62
     0
 10
0.813043
 20
151.606
 30
0.0
 11
0.972894
 21
151.78
 31
0.0
  0
LINE
  8
0
 62
     0
 10
0.972894
 20
151.78
 30
0.0
 11
1.14653
 21
151.94
 31
0.0
  0
LINE
  8
0
 62
     0
 10
1.14653
 20
151.94
 30
0.0
 11
1.33119
 21
152.086
 31
0.0
  0
LINE
  8
0
 62
     0
 10
1.33119
 20
152.086
 30
0.0
 11
1.52687
 21
152.215
 31
0.0
  0
LINE
  8
0
 62
     0
 10
1.52687
 20
152.215
 30
0.0
 11
1.73357
 21
152.331
 31
0.0
  0
LINE
  8
0
 62
     0
 10
1.73357
 20
152.331
 30
0.0
 11
1.94717
 21
152.429
 31
0.0
  0
LINE
  8
0
 62
     0
 10
1.94717
 20
152.429
 30
0.0
 11
2.16765
 21
152.511
 31
0.0
  0
LINE
  8
0
 62
     0
 10
2.16765
 20
152.511
 30
0.0
 11
2.39503
 21
152.575
 31
0.0
  0
LINE
  8
0
 62
     0
 10
2.39503
 20
152.575
 30
0.0
 11
2.62516
 21
152.622
 31
0.0
  0
LINE
  8
0
 62
     0
 10
2.62516
 20
152.622
 30
0.0
 11
2.85943
 21
152.648
 31
0.0
  0
LINE
  8
0
 62
     0
 10
2.85943
 20
152.648
 30
0.0
 11
3.09507
 21
152.658
 31
0.0
  0
LINE
  8
0
 62
     0
 10
3.09507
 20
152.658
 30
0.0
 11
225.697
 21
152.658
 31
0.0
  0
LINE
  8
0
 62
     0
 10
212.171
 20
16.7817
 30
0.0
 11
226.17
 21
16.7817
 31
0.0
  0
LINE
  8
0
 62
     0
 10
226.17
 20
16.7817
 30
0.0
 11
226.17
 21
2.78226
 31
0.0
  0
LINE
  8
0
 62
     0
 10
226.17
 20
2.78226
 30
0.0
 11
212.171
 21
2.78226
 31
0.0
  0
LINE
  8
0
 62
     0
 10
212.171
 20
2.78226
 30
0.0
 11
212.171
 21
16.7817
 31
0.0
  0
LINE
  8
0
 62
     0
 10
193.121
 20
16.7817
 30
0.0
 11
207.12
 21
16.7817
 31
0.0
  0
LINE
  8
0
 62
     0
 10
207.12
 20
16.7817
 30
0.0
 11
207.12
 21
2.78226
 31
0.0
  0
LINE
  8
0
 62
     0
 10
207.12
 20
2.78226
 30
0.0
 11
193.121
 21
2.78226
 31
0.0
  0
LINE
  8
0
 62
     0
 10
193.121
 20
2.78226
 30
0.0
 11
193.121
 21
16.7817
 31
0.0
  0
LINE
  8
0
 62
     0
 10
174.071
 20
16.7817
 30
0.0
 11
188.07
 21
16.7817
 31
0.0
  0
LINE
  8
0
 62
     0
 10
188.07
 20
16.7817
 30
0.0
 11
188.07
 21
2.78226
 31
0.0
  0
LINE
  8
0
 62
     0
 10
188.07
 20
2.78226
 30
0.0
 11
174.071
 21
2.78226
 31
0.0
  0
LINE
  8
0
 62
     0
 10
174.071
 20
2.78226
 30
0.0
 11
174.071
 21
16.7817
 31
0.0
  0
LINE
  8
0
 62
     0
 10
126.446
 20
16.7817
 30
0.0
 11
140.445
 21
16.7817
 31
0.0
  0
LINE
  8
0
 62
     0
 10
140.445
 20
16.7817
 30
0.0
 11
140.445
 21
2.78226
 31
0.0
  0
LINE
  8
0
 62
     0
 10
140.445
 20
2.78226
 30
0.0
 11
126.446
 21
2.78226
 31
0.0
  0
LINE
  8
0
 62
     0
 10
126.446
 20
2.78226
 30
0.0
 11
126.446
 21
16.7817
 31
0.0
  0
LINE
  8
0
 62
     0
 10
107.396
 20
16.7817
 30
0.0
 11
121.395
 21
16.7817
 31
0.0
  0
LINE
  8
0
 62
     0
 10
121.395
 20
16.7817
 30
0.0
 11
121.395
 21
2.78226
 31
0.0
  0
LINE
  8
0
 62
     0
 10
121.395
 20
2.78226
 30
0.0
 11
107.396
 21
2.78226
 31
0.0
  0
LINE
  8
0
 62
     0
 10
107.396
 20
2.78226
 30
0.0
 11
107.396
 21
16.7817
 31
0.0
  0
LINE
  8
0
 62
     0
 10
88.3461
 20
16.7817
 30
0.0
 11
102.345
 21
16.7817
 31
0.0
  0
LINE
  8
0
 62
     0
 10
102.345
 20
16.7817
 30
0.0
 11
102.345
 21
2.78226
 31
0.0
  0
LINE
  8
0
 62
     0
 10
102.345
 20
2.78226
 30
0.0
 11
88.3461
 21
2.78226
 31
0.0
  0
LINE
  8
0
 62
     0
 10
88.3461
 20
2.78226
 30
0.0
 11
88.3461
 21
16.7817
 31
0.0
  0
LINE
  8
0
 62
     0
 10
212.171
 20
35.833
 30
0.0
 11
226.17
 21
35.833
 31
0.0
  0
LINE
  8
0
 62
     0
 10
226.17
 20
35.833
 30
0.0
 11
226.17
 21
21.8323
 31
0.0
  0
LINE
  8
0
 62
     0
 10
226.17
 20
21.8323
 30
0.0
 11
212.171
 21
21.8323
 31
0.0
  0
LINE
  8
0
 62
     0
 10
212.171
 20
21.8323
 30
0.0
 11
212.171
 21
35.833
 31
0.0
  0
LINE
  8
0
 62
     0
 10
193.121
 20
35.833
 30
0.0
 11
207.12
 21
35.833
 31
0.0
  0
LINE
  8
0
 62
     0
 10
207.12
 20
35.833
 30
0.0
 11
207.12
 21
21.8323
 31
0.0
  0
LINE
  8
0
 62
     0
 10
207.12
 20
21.8323
 30
0.0
 11
193.121
 21
21.8323
 31
0.0
  0
LINE
  8
0
 62
     0
 10
193.121
 20
21.8323
 30
0.0
 11
193.121
 21
35.833
 31
0.0
  0
LINE
  8
0
 62
     0
 10
174.071
 20
35.833
 30
0.0
 11
188.07
 21
35.833
 31
0.0
  0
LINE
  8
0
 62
     0
 10
188.07
 20
35.833
 30
0.0
 11
188.07
 21
21.8323
 31
0.0
  0
LINE
  8
0
 62
     0
 10
188.07
 20
21.8323
 30
0.0
 11
174.071
 21
21.8323
 31
0.0
  0
LINE
  8
0
 62
     0
 10
174.071
 20
21.8323
 30
0.0
 11
174.071
 21
35.833
 31
0.0
  0
LINE
  8
0
 62
     0
 10
155.021
 20
35.833
 30
0.0
 11
169.02
 21
35.833
 31
0.0
  0
LINE
  8
0
 62
     0
 10
169.02
 20
35.833
 30
0.0
 11
169.02
 21
21.8323
 31
0.0
  0
LINE
  8
0
 62
     0
 10
169.02
 20
21.8323
 30
0.0
 11
155.021
 21
21.8323
 31
0.0
  0
LINE
  8
0
 62
     0
 10
155.021
 20
21.8323
 30
0.0
 11
155.021
 21
35.833
 31
0.0
  0
LINE
  8
0
 62
     0
 10
135.971
 20
35.833
 30
0.0
 11
149.97
 21
35.833
 31
0.0
  0
LINE
  8
0
 62
     0
 10
149.97
 20
35.833
 30
0.0
 11
149.97
 21
21.8323
 31
0.0
  0
LINE
  8
0
 62
     0
 10
149.97
 20
21.8323
 30
0.0
 11
135.971
 21
21.8323
 31
0.0
  0
LINE
  8
0
 62
     0
 10
135.971
 20
21.8323
 30
0.0
 11
135.971
 21
35.833
 31
0.0
  0
LINE
  8
0
 62
     0
 10
116.92
 20
35.833
 30
0.0
 11
130.92
 21
35.833
 31
0.0
  0
LINE
  8
0
 62
     0
 10
130.92
 20
35.833
 30
0.0
 11
130.92
 21
21.8323
 31
0.0
  0
LINE
  8
0
 62
     0
 10
130.92
 20
21.8323
 30
0.0
 11
116.92
 21
21.8323
 31
0.0
  0
LINE
  8
0
 62
     0
 10
116.92
 20
21.8323
 30
0.0
 11
116.92
 21
35.833
 31
0.0
  0
LINE
  8
0
 62
     0
 10
97.8697
 20
35.833
 30
0.0
 11
111.869
 21
35.833
 31
0.0
  0
LINE
  8
0
 62
     0
 10
111.869
 20
35.833
 30
0.0
 11
111.869
 21
21.8323
 31
0.0
  0
LINE
  8
0
 62
     0
 10
111.869
 20
21.8323
 30
0.0
 11
97.8697
 21
21.8323
 31
0.0
  0
LINE
  8
0
 62
     0
 10
97.8697
 20
21.8323
 30
0.0
 11
97.8697
 21
35.833
 31
0.0
  0
LINE
  8
0
 62
     0
 10
78.8211
 20
35.833
 30
0.0
 11
92.8204
 21
35.833
 31
0.0
  0
LINE
  8
0
 62
     0
 10
92.8204
 20
35.833
 30
0.0
 11
92.8204
 21
21.8323
 31
0.0
  0
LINE
  8
0
 62
     0
 10
92.8204
 20
21.8323
 30
0.0
 11
78.8211
 21
21.8323
 31
0.0
  0
LINE
  8
0
 62
     0
 10
78.8211
 20
21.8323
 30
0.0
 11
78.8211
 21
35.833
 31
0.0
  0
LINE
  8
0
 62
     0
 10
59.7711
 20
35.833
 30
0.0
 11
73.7704
 21
35.833
 31
0.0
  0
LINE
  8
0
 62
     0
 10
73.7704
 20
35.833
 30
0.0
 11
73.7704
 21
21.8323
 31
0.0
  0
LINE
  8
0
 62
     0
 10
73.7704
 20
21.8323
 30
0.0
 11
59.7711
 21
21.8323
 31
0.0
  0
LINE
  8
0
 62
     0
 10
59.7711
 20
21.8323
 30
0.0
 11
59.7711
 21
35.833
 31
0.0
  0
LINE
  8
0
 62
     0
 10
40.7211
 20
35.833
 30
0.0
 11
54.7204
 21
35.833
 31
0.0
  0
LINE
  8
0
 62
     0
 10
54.7204
 20
35.833
 30
0.0
 11
54.7204
 21
21.8323
 31
0.0
  0
LINE
  8
0
 62
     0
 10
54.7204
 20
21.8323
 30
0.0
 11
40.7211
 21
21.8323
 31
0.0
  0
LINE
  8
0
 62
     0
 10
40.7211
 20
21.8323
 30
0.0
 11
40.7211
 21
35.833
 31
0.0
  0
LINE
  8
0
 62
     0
 10
21.671
 20
35.833
 30
0.0
 11
35.6704
 21
35.833
 31
0.0
  0
LINE
  8
0
 62
     0
 10
35.6704
 20
35.833
 30
0.0
 11
35.6704
 21
21.8323
 31
0.0
  0
LINE
  8
0
 62
     0
 10
35.6704
 20
21.8323
 30
0.0
 11
21.671
 21
21.8323
 31
0.0
  0
LINE
  8
0
 62
     0
 10
21.671
 20
21.8323
 30
0.0
 11
21.671
 21
35.833
 31
0.0
  0
LINE
  8
0
 62
     0
 10
2.62103
 20
35.833
 30
0.0
 11
16.6205
 21
35.833
 31
0.0
  0
LINE
  8
0
 62
     0
 10
16.6205
 20
35.833
 30
0.0
 11
16.6205
 21
21.8323
 31
0.0
  0
LINE
  8
0
 62
     0
 10
16.6205
 20
21.8323
 30
0.0
 11
2.62103
 21
21.8323
 31
0.0
  0
LINE
  8
0
 62
     0
 10
2.62103
 20
21.8323
 30
0.0
 11
2.62103
 21
35.833
 31
0.0
  0
LINE
  8
0
 62
     0
 10
212.171
 20
54.8831
 30
0.0
 11
226.17
 21
54.8831
 31
0.0
  0
LINE
  8
0
 62
     0
 10
226.17
 20
54.8831
 30
0.0
 11
226.17
 21
40.8838
 31
0.0
  0
LINE
  8
0
 62
     0
 10
226.17
 20
40.8838
 30
0.0
 11
212.171
 21
40.8838
 31
0.0
  0
LINE
  8
0
 62
     0
 10
212.171
 20
40.8838
 30
0.0
 11
212.171
 21
54.8831
 31
0.0
  0
LINE
  8
0
 62
     0
 10
193.121
 20
54.8831
 30
0.0
 11
207.12
 21
54.8831
 31
0.0
  0
LINE
  8
0
 62
     0
 10
207.12
 20
54.8831
 30
0.0
 11
207.12
 21
40.8838
 31
0.0
  0
LINE
  8
0
 62
     0
 10
207.12
 20
40.8838
 30
0.0
 11
193.121
 21
40.8838
 31
0.0
  0
LINE
  8
0
 62
     0
 10
193.121
 20
40.8838
 30
0.0
 11
193.121
 21
54.8831
 31
0.0
  0
LINE
  8
0
 62
     0
 10
174.071
 20
54.8831
 30
0.0
 11
188.07
 21
54.8831
 31
0.0
  0
LINE
  8
0
 62
     0
 10
188.07
 20
54.8831
 30
0.0
 11
188.07
 21
40.8838
 31
0.0
  0
LINE
  8
0
 62
     0
 10
188.07
 20
40.8838
 30
0.0
 11
174.071
 21
40.8838
 31
0.0
  0
LINE
  8
0
 62
     0
 10
174.071
 20
40.8838
 30
0.0
 11
174.071
 21
54.8831
 31
0.0
  0
LINE
  8
0
 62
     0
 10
155.021
 20
54.8831
 30
0.0
 11
169.02
 21
54.8831
 31
0.0
  0
LINE
  8
0
 62
     0
 10
169.02
 20
54.8831
 30
0.0
 11
169.02
 21
40.8838
 31
0.0
  0
LINE
  8
0
 62
     0
 10
169.02
 20
40.8838
 30
0.0
 11
155.021
 21
40.8838
 31
0.0
  0
LINE
  8
0
 62
     0
 10
155.021
 20
40.8838
 30
0.0
 11
155.021
 21
54.8831
 31
0.0
  0
LINE
  8
0
 62
     0
 10
135.971
 20
54.8831
 30
0.0
 11
149.97
 21
54.8831
 31
0.0
  0
LINE
  8
0
 62
     0
 10
149.97
 20
54.8831
 30
0.0
 11
149.97
 21
40.8838
 31
0.0
  0
LINE
  8
0
 62
     0
 10
149.97
 20
40.8838
 30
0.0
 11
135.971
 21
40.8838
 31
0.0
  0
LINE
  8
0
 62
     0
 10
135.971
 20
40.8838
 30
0.0
 11
135.971
 21
54.8831
 31
0.0
  0
LINE
  8
0
 62
     0
 10
116.92
 20
54.8831
 30
0.0
 11
130.92
 21
54.8831
 31
0.0
  0
LINE
  8
0
 62
     0
 10
130.92
 20
54.8831
 30
0.0
 11
130.92
 21
40.8838
 31
0.0
  0
LINE
  8
0
 62
     0
 10
130.92
 20
40.8838
 30
0.0
 11
116.92
 21
40.8838
 31
0.0
  0
LINE
  8
0
 62
     0
 10
116.92
 20
40.8838
 30
0.0
 11
116.92
 21
54.8831
 31
0.0
  0
LINE
  8
0
 62
     0
 10
97.8697
 20
54.8831
 30
0.0
 11
111.869
 21
54.8831
 31
0.0
  0
LINE
  8
0
 62
     0
 10
111.869
 20
54.8831
 30
0.0
 11
111.869
 21
40.8838
 31
0.0
  0
LINE
  8
0
 62
     0
 10
111.869
 20
40.8838
 30
0.0
 11
97.8697
 21
40.8838
 31
0.0
  0
LINE
  8
0
 62
     0
 10
97.8697
 20
40.8838
 30
0.0
 11
97.8697
 21
54.8831
 31
0.0
  0
LINE
  8
0
 62
     0
 10
78.8211
 20
54.8831
 30
0.0
 11
92.8204
 21
54.8831
 31
0.0
  0
LINE
  8
0
 62
     0
 10
92.8204
 20
54.8831
 30
0.0
 11
92.8204
 21
40.8838
 31
0.0
  0
LINE
  8
0
 62
     0
 10
92.8204
 20
40.8838
 30
0.0
 11
78.8211
 21
40.8838
 31
0.0
  0
LINE
  8
0
 62
     0
 10
78.8211
 20
40.8838
 30
0.0
 11
78.8211
 21
54.8831
 31
0.0
  0
LINE
  8
0
 62
     0
 10
59.7711
 20
54.8831
 30
0.0
 11
73.7704
 21
54.8831
 31
0.0
  0
LINE
  8
0
 62
     0
 10
73.7704
 20
54.8831
 30
0.0
 11
73.7704
 21
40.8838
 31
0.0
  0
LINE
  8
0
 62
     0
 10
73.7704
 20
40.8838
 30
0.0
 11
59.7711
 21
40.8838
 31
0.0
  0
LINE
  8
0
 62
     0
 10
59.7711
 20
40.8838
 30
0.0
 11
59.7711
 21
54.8831
 31
0.0
  0
LINE
  8
0
 62
     0
 10
40.7211
 20
54.8831
 30
0.0
 11
54.7204
 21
54.8831
 31
0.0
  0
LINE
  8
0
 62
     0
 10
54.7204
 20
54.8831
 30
0.0
 11
54.7204
 21
40.8838
 31
0.0
  0
LINE
  8
0
 62
     0
 10
54.7204
 20
40.8838
 30
0.0
 11
40.7211
 21
40.8838
 31
0.0
  0
LINE
  8
0
 62
     0
 10
40.7211
 20
40.8838
 30
0.0
 11
40.7211
 21
54.8831
 31
0.0
  0
LINE
  8
0
 62
     0
 10
21.671
 20
54.8831
 30
0.0
 11
35.6704
 21
54.8831
 31
0.0
  0
LINE
  8
0
 62
     0
 10
35.6704
 20
54.8831
 30
0.0
 11
35.6704
 21
40.8838
 31
0.0
  0
LINE
  8
0
 62
     0
 10
35.6704
 20
40.8838
 30
0.0
 11
21.671
 21
40.8838
 31
0.0
  0
LINE
  8
0
 62
     0
 10
21.671
 20
40.8838
 30
0.0
 11
21.671
 21
54.8831
 31
0.0
  0
LINE
  8
0
 62
     0
 10
2.62103
 20
54.8831
 30
0.0
 11
16.6205
 21
54.8831
 31
0.0
  0
LINE
  8
0
 62
     0
 10
16.6205
 20
54.8831
 30
0.0
 11
16.6205
 21
40.8838
 31
0.0
  0
LINE
  8
0
 62
     0
 10
16.6205
 20
40.8838
 30
0.0
 11
2.62103
 21
40.8838
 31
0.0
  0
LINE
  8
0
 62
     0
 10
2.62103
 20
40.8838
 30
0.0
 11
2.62103
 21
54.8831
 31
0.0
  0
LINE
  8
0
 62
     0
 10
212.171
 20
73.9316
 30
0.0
 11
226.17
 21
73.9316
 31
0.0
  0
LINE
  8
0
 62
     0
 10
226.17
 20
73.9316
 30
0.0
 11
226.17
 21
59.9324
 31
0.0
  0
LINE
  8
0
 62
     0
 10
226.17
 20
59.9324
 30
0.0
 11
212.171
 21
59.9324
 31
0.0
  0
LINE
  8
0
 62
     0
 10
212.171
 20
59.9324
 30
0.0
 11
212.171
 21
73.9316
 31
0.0
  0
LINE
  8
0
 62
     0
 10
193.121
 20
73.9316
 30
0.0
 11
207.12
 21
73.9316
 31
0.0
  0
LINE
  8
0
 62
     0
 10
207.12
 20
73.9316
 30
0.0
 11
207.12
 21
59.9324
 31
0.0
  0
LINE
  8
0
 62
     0
 10
207.12
 20
59.9324
 30
0.0
 11
193.121
 21
59.9324
 31
0.0
  0
LINE
  8
0
 62
     0
 10
193.121
 20
59.9324
 30
0.0
 11
193.121
 21
73.9316
 31
0.0
  0
LINE
  8
0
 62
     0
 10
174.071
 20
73.9316
 30
0.0
 11
188.07
 21
73.9316
 31
0.0
  0
LINE
  8
0
 62
     0
 10
188.07
 20
73.9316
 30
0.0
 11
188.07
 21
59.9324
 31
0.0
  0
LINE
  8
0
 62
     0
 10
188.07
 20
59.9324
 30
0.0
 11
174.071
 21
59.9324
 31
0.0
  0
LINE
  8
0
 62
     0
 10
174.071
 20
59.9324
 30
0.0
 11
174.071
 21
73.9316
 31
0.0
  0
LINE
  8
0
 62
     0
 10
155.021
 20
73.9316
 30
0.0
 11
169.02
 21
73.9316
 31
0.0
  0
LINE
  8
0
 62
     0
 10
169.02
 20
73.9316
 30
0.0
 11
169.02
 21
59.9324
 31
0.0
  0
LINE
  8
0
 62
     0
 10
169.02
 20
59.9324
 30
0.0
 11
155.021
 21
59.9324
 31
0.0
  0
LINE
  8
0
 62
     0
 10
155.021
 20
59.9324
 30
0.0
 11
155.021
 21
73.9316
 31
0.0
  0
LINE
  8
0
 62
     0
 10
135.971
 20
73.9316
 30
0.0
 11
149.97
 21
73.9316
 31
0.0
  0
LINE
  8
0
 62
     0
 10
149.97
 20
73.9316
 30
0.0
 11
149.97
 21
59.9324
 31
0.0
  0
LINE
  8
0
 62
     0
 10
149.97
 20
59.9324
 30
0.0
 11
135.971
 21
59.9324
 31
0.0
  0
LINE
  8
0
 62
     0
 10
135.971
 20
59.9324
 30
0.0
 11
135.971
 21
73.9316
 31
0.0
  0
LINE
  8
0
 62
     0
 10
116.92
 20
73.9316
 30
0.0
 11
130.92
 21
73.9316
 31
0.0
  0
LINE
  8
0
 62
     0
 10
130.92
 20
73.9316
 30
0.0
 11
130.92
 21
59.9324
 31
0.0
  0
LINE
  8
0
 62
     0
 10
130.92
 20
59.9324
 30
0.0
 11
116.92
 21
59.9324
 31
0.0
  0
LINE
  8
0
 62
     0
 10
116.92
 20
59.9324
 30
0.0
 11
116.92
 21
73.9316
 31
0.0
  0
LINE
  8
0
 62
     0
 10
97.8697
 20
73.9316
 30
0.0
 11
111.869
 21
73.9316
 31
0.0
  0
LINE
  8
0
 62
     0
 10
111.869
 20
73.9316
 30
0.0
 11
111.869
 21
59.9324
 31
0.0
  0
LINE
  8
0
 62
     0
 10
111.869
 20
59.9324
 30
0.0
 11
97.8697
 21
59.9324
 31
0.0
  0
LINE
  8
0
 62
     0
 10
97.8697
 20
59.9324
 30
0.0
 11
97.8697
 21
73.9316
 31
0.0
  0
LINE
  8
0
 62
     0
 10
78.8211
 20
73.9316
 30
0.0
 11
92.8204
 21
73.9316
 31
0.0
  0
LINE
  8
0
 62
     0
 10
92.8204
 20
73.9316
 30
0.0
 11
92.8204
 21
59.9324
 31
0.0
  0
LINE
  8
0
 62
     0
 10
92.8204
 20
59.9324
 30
0.0
 11
78.8211
 21
59.9324
 31
0.0
  0
LINE
  8
0
 62
     0
 10
78.8211
 20
59.9324
 30
0.0
 11
78.8211
 21
73.9316
 31
0.0
  0
LINE
  8
0
 62
     0
 10
59.7711
 20
73.9316
 30
0.0
 11
73.7704
 21
73.9316
 31
0.0
  0
LINE
  8
0
 62
     0
 10
73.7704
 20
73.9316
 30
0.0
 11
73.7704
 21
59.9324
 31
0.0
  0
LINE
  8
0
 62
     0
 10
73.7704
 20
59.9324
 30
0.0
 11
59.7711
 21
59.9324
 31
0.0
  0
LINE
  8
0
 62
     0
 10
59.7711
 20
59.9324
 30
0.0
 11
59.7711
 21
73.9316
 31
0.0
  0
LINE
  8
0
 62
     0
 10
40.7211
 20
73.9316
 30
0.0
 11
54.7204
 21
73.9316
 31
0.0
  0
LINE
  8
0
 62
     0
 10
54.7204
 20
73.9316
 30
0.0
 11
54.7204
 21
59.9324
 31
0.0
  0
LINE
  8
0
 62
     0
 10
54.7204
 20
59.9324
 30
0.0
 11
40.7211
 21
59.9324
 31
0.0
  0
LINE
  8
0
 62
     0
 10
40.7211
 20
59.9324
 30
0.0
 11
40.7211
 21
73.9316
 31
0.0
  0
LINE
  8
0
 62
     0
 10
21.671
 20
73.9316
 30
0.0
 11
35.6704
 21
73.9316
 31
0.0
  0
LINE
  8
0
 62
     0
 10
35.6704
 20
73.9316
 30
0.0
 11
35.6704
 21
59.9324
 31
0.0
  0
LINE
  8
0
 62
     0
 10
35.6704
 20
59.9324
 30
0.0
 11
21.671
 21
59.9324
 31
0.0
  0
LINE
  8
0
 62
     0
 10
21.671
 20
59.9324
 30
0.0
 11
21.671
 21
73.9316
 31
0.0
  0
LINE
  8
0
 62
     0
 10
2.62103
 20
73.9316
 30
0.0
 11
16.6205
 21
73.9316
 31
0.0
  0
LINE
  8
0
 62
     0
 10
16.6205
 20
73.9316
 30
0.0
 11
16.6205
 21
59.9324
 31
0.0
  0
LINE
  8
0
 62
     0
 10
16.6205
 20
59.9324
 30
0.0
 11
2.62103
 21
59.9324
 31
0.0
  0
LINE
  8
0
 62
     0
 10
2.62103
 20
59.9324
 30
0.0
 11
2.62103
 21
73.9316
 31
0.0
  0
LINE
  8
0
 62
     0
 10
212.171
 20
92.9816
 30
0.0
 11
226.17
 21
92.9816
 31
0.0
  0
LINE
  8
0
 62
     0
 10
226.17
 20
92.9816
 30
0.0
 11
226.17
 21
78.9824
 31
0.0
  0
LINE
  8
0
 62
     0
 10
226.17
 20
78.9824
 30
0.0
 11
212.171
 21
78.9824
 31
0.0
  0
LINE
  8
0
 62
     0
 10
212.171
 20
78.9824
 30
0.0
 11
212.171
 21
92.9816
 31
0.0
  0
LINE
  8
0
 62
     0
 10
193.121
 20
92.9816
 30
0.0
 11
207.12
 21
92.9816
 31
0.0
  0
LINE
  8
0
 62
     0
 10
207.12
 20
92.9816
 30
0.0
 11
207.12
 21
78.9824
 31
0.0
  0
LINE
  8
0
 62
     0
 10
207.12
 20
78.9824
 30
0.0
 11
193.121
 21
78.9824
 31
0.0
  0
LINE
  8
0
 62
     0
 10
193.121
 20
78.9824
 30
0.0
 11
193.121
 21
92.9816
 31
0.0
  0
LINE
  8
0
 62
     0
 10
174.071
 20
92.9816
 30
0.0
 11
188.07
 21
92.9816
 31
0.0
  0
LINE
  8
0
 62
     0
 10
188.07
 20
92.9816
 30
0.0
 11
188.07
 21
78.9824
 31
0.0
  0
LINE
  8
0
 62
     0
 10
188.07
 20
78.9824
 30
0.0
 11
174.071
 21
78.9824
 31
0.0
  0
LINE
  8
0
 62
     0
 10
174.071
 20
78.9824
 30
0.0
 11
174.071
 21
92.9816
 31
0.0
  0
LINE
  8
0
 62
     0
 10
155.021
 20
92.9816
 30
0.0
 11
169.02
 21
92.9816
 31
0.0
  0
LINE
  8
0
 62
     0
 10
169.02
 20
92.9816
 30
0.0
 11
169.02
 21
78.9824
 31
0.0
  0
LINE
  8
0
 62
     0
 10
169.02
 20
78.9824
 30
0.0
 11
155.021
 21
78.9824
 31
0.0
  0
LINE
  8
0
 62
     0
 10
155.021
 20
78.9824
 30
0.0
 11
155.021
 21
92.9816
 31
0.0
  0
LINE
  8
0
 62
     0
 10
135.971
 20
92.9816
 30
0.0
 11
149.97
 21
92.9816
 31
0.0
  0
LINE
  8
0
 62
     0
 10
149.97
 20
92.9816
 30
0.0
 11
149.97
 21
78.9824
 31
0.0
  0
LINE
  8
0
 62
     0
 10
149.97
 20
78.9824
 30
0.0
 11
135.971
 21
78.9824
 31
0.0
  0
LINE
  8
0
 62
     0
 10
135.971
 20
78.9824
 30
0.0
 11
135.971
 21
92.9816
 31
0.0
  0
LINE
  8
0
 62
     0
 10
116.92
 20
92.9816
 30
0.0
 11
130.92
 21
92.9816
 31
0.0
  0
LINE
  8
0
 62
     0
 10
130.92
 20
92.9816
 30
0.0
 11
130.92
 21
78.9824
 31
0.0
  0
LINE
  8
0
 62
     0
 10
130.92
 20
78.9824
 30
0.0
 11
116.92
 21
78.9824
 31
0.0
  0
LINE
  8
0
 62
     0
 10
116.92
 20
78.9824
 30
0.0
 11
116.92
 21
92.9816
 31
0.0
  0
LINE
  8
0
 62
     0
 10
97.8697
 20
92.9816
 30
0.0
 11
111.869
 21
92.9816
 31
0.0
  0
LINE
  8
0
 62
     0
 10
111.869
 20
92.9816
 30
0.0
 11
111.869
 21
78.9824
 31
0.0
  0
LINE
  8
0
 62
     0
 10
111.869
 20
78.9824
 30
0.0
 11
97.8697
 21
78.9824
 31
0.0
  0
LINE
  8
0
 62
     0
 10
97.8697
 20
78.9824
 30
0.0
 11
97.8697
 21
92.9816
 31
0.0
  0
LINE
  8
0
 62
     0
 10
78.8211
 20
92.9816
 30
0.0
 11
92.8204
 21
92.9816
 31
0.0
  0
LINE
  8
0
 62
     0
 10
92.8204
 20
92.9816
 30
0.0
 11
92.8204
 21
78.9824
 31
0.0
  0
LINE
  8
0
 62
     0
 10
92.8204
 20
78.9824
 30
0.0
 11
78.8211
 21
78.9824
 31
0.0
  0
LINE
  8
0
 62
     0
 10
78.8211
 20
78.9824
 30
0.0
 11
78.8211
 21
92.9816
 31
0.0
  0
LINE
  8
0
 62
     0
 10
59.7711
 20
92.9816
 30
0.0
 11
73.7704
 21
92.9816
 31
0.0
  0
LINE
  8
0
 62
     0
 10
73.7704
 20
92.9816
 30
0.0
 11
73.7704
 21
78.9824
 31
0.0
  0
LINE
  8
0
 62
     0
 10
73.7704
 20
78.9824
 30
0.0
 11
59.7711
 21
78.9824
 31
0.0
  0
LINE
  8
0
 62
     0
 10
59.7711
 20
78.9824
 30
0.0
 11
59.7711
 21
92.9816
 31
0.0
  0
LINE
  8
0
 62
     0
 10
40.7211
 20
92.9816
 30
0.0
 11
54.7204
 21
92.9816
 31
0.0
  0
LINE
  8
0
 62
     0
 10
54.7204
 20
92.9816
 30
0.0
 11
54.7204
 21
78.9824
 31
0.0
  0
LINE
  8
0
 62
     0
 10
54.7204
 20
78.9824
 30
0.0
 11
40.7211
 21
78.9824
 31
0.0
  0
LINE
  8
0
 62
     0
 10
40.7211
 20
78.9824
 30
0.0
 11
40.7211
 21
92.9816
 31
0.0
  0
LINE
  8
0
 62
     0
 10
21.671
 20
92.9816
 30
0.0
 11
35.6704
 21
92.9816
 31
0.0
  0
LINE
  8
0
 62
     0
 10
35.6704
 20
92.9816
 30
0.0
 11
35.6704
 21
78.9824
 31
0.0
  0
LINE
  8
0
 62
     0
 10
35.6704
 20
78.9824
 30
0.0
 11
21.671
 21
78.9824
 31
0.0
  0
LINE
  8
0
 62
     0
 10
21.671
 20
78.9824
 30
0.0
 11
21.671
 21
92.9816
 31
0.0
  0
LINE
  8
0
 62
     0
 10
2.62103
 20
92.9816
 30
0.0
 11
16.6205
 21
92.9816
 31
0.0
  0
LINE
  8
0
 62
     0
 10
16.6205
 20
92.9816
 30
0.0
 11
16.6205
 21
78.9824
 31
0.0
  0
LINE
  8
0
 62
     0
 10
16.6205
 20
78.9824
 30
0.0
 11
2.62103
 21
78.9824
 31
0.0
  0
LINE
  8
0
 62
     0
 10
2.62103
 20
78.9824
 30
0.0
 11
2.62103
 21
92.9816
 31
0.0
  0
LINE
  8
0
 62
     0
 10
212.171
 20
112.032
 30
0.0
 11
226.17
 21
112.032
 31
0.0
  0
LINE
  8
0
 62
     0
 10
226.17
 20
112.032
 30
0.0
 11
226.17
 21
98.0324
 31
0.0
  0
LINE
  8
0
 62
     0
 10
226.17
 20
98.0324
 30
0.0
 11
212.171
 21
98.0324
 31
0.0
  0
LINE
  8
0
 62
     0
 10
212.171
 20
98.0324
 30
0.0
 11
212.171
 21
112.032
 31
0.0
  0
LINE
  8
0
 62
     0
 10
193.121
 20
112.032
 30
0.0
 11
207.12
 21
112.032
 31
0.0
  0
LINE
  8
0
 62
     0
 10
207.12
 20
112.032
 30
0.0
 11
207.12
 21
98.0324
 31
0.0
  0
LINE
  8
0
 62
     0
 10
207.12
 20
98.0324
 30
0.0
 11
193.121
 21
98.0324
 31
0.0
  0
LINE
  8
0
 62
     0
 10
193.121
 20
98.0324
 30
0.0
 11
193.121
 21
112.032
 31
0.0
  0
LINE
  8
0
 62
     0
 10
174.071
 20
112.032
 30
0.0
 11
188.07
 21
112.032
 31
0.0
  0
LINE
  8
0
 62
     0
 10
188.07
 20
112.032
 30
0.0
 11
188.07
 21
98.0324
 31
0.0
  0
LINE
  8
0
 62
     0
 10
188.07
 20
98.0324
 30
0.0
 11
174.071
 21
98.0324
 31
0.0
  0
LINE
  8
0
 62
     0
 10
174.071
 20
98.0324
 30
0.0
 11
174.071
 21
112.032
 31
0.0
  0
LINE
  8
0
 62
     0
 10
155.021
 20
112.032
 30
0.0
 11
169.02
 21
112.032
 31
0.0
  0
LINE
  8
0
 62
     0
 10
169.02
 20
112.032
 30
0.0
 11
169.02
 21
98.0324
 31
0.0
  0
LINE
  8
0
 62
     0
 10
169.02
 20
98.0324
 30
0.0
 11
155.021
 21
98.0324
 31
0.0
  0
LINE
  8
0
 62
     0
 10
155.021
 20
98.0324
 30
0.0
 11
155.021
 21
112.032
 31
0.0
  0
LINE
  8
0
 62
     0
 10
135.971
 20
112.032
 30
0.0
 11
149.97
 21
112.032
 31
0.0
  0
LINE
  8
0
 62
     0
 10
149.97
 20
112.032
 30
0.0
 11
149.97
 21
98.0324
 31
0.0
  0
LINE
  8
0
 62
     0
 10
149.97
 20
98.0324
 30
0.0
 11
135.971
 21
98.0324
 31
0.0
  0
LINE
  8
0
 62
     0
 10
135.971
 20
98.0324
 30
0.0
 11
135.971
 21
112.032
 31
0.0
  0
LINE
  8
0
 62
     0
 10
116.92
 20
112.032
 30
0.0
 11
130.92
 21
112.032
 31
0.0
  0
LINE
  8
0
 62
     0
 10
130.92
 20
112.032
 30
0.0
 11
130.92
 21
98.0324
 31
0.0
  0
LINE
  8
0
 62
     0
 10
130.92
 20
98.0324
 30
0.0
 11
116.92
 21
98.0324
 31
0.0
  0
LINE
  8
0
 62
     0
 10
116.92
 20
98.0324
 30
0.0
 11
116.92
 21
112.032
 31
0.0
  0
LINE
  8
0
 62
     0
 10
97.8697
 20
112.032
 30
0.0
 11
111.869
 21
112.032
 31
0.0
  0
LINE
  8
0
 62
     0
 10
111.869
 20
112.032
 30
0.0
 11
111.869
 21
98.0324
 31
0.0
  0
LINE
  8
0
 62
     0
 10
111.869
 20
98.0324
 30
0.0
 11
97.8697
 21
98.0324
 31
0.0
  0
LINE
  8
0
 62
     0
 10
97.8697
 20
98.0324
 30
0.0
 11
97.8697
 21
112.032
 31
0.0
  0
LINE
  8
0
 62
     0
 10
78.8211
 20
112.032
 30
0.0
 11
92.8204
 21
112.032
 31
0.0
  0
LINE
  8
0
 62
     0
 10
92.8204
 20
112.032
 30
0.0
 11
92.8204
 21
98.0324
 31
0.0
  0
LINE
  8
0
 62
     0
 10
92.8204
 20
98.0324
 30
0.0
 11
78.8211
 21
98.0324
 31
0.0
  0
LINE
  8
0
 62
     0
 10
78.8211
 20
98.0324
 30
0.0
 11
78.8211
 21
112.032
 31
0.0
  0
LINE
  8
0
 62
     0
 10
59.7711
 20
112.032
 30
0.0
 11
73.7704
 21
112.032
 31
0.0
  0
LINE
  8
0
 62
     0
 10
73.7704
 20
112.032
 30
0.0
 11
73.7704
 21
98.0324
 31
0.0
  0
LINE
  8
0
 62
     0
 10
73.7704
 20
98.0324
 30
0.0
 11
59.7711
 21
98.0324
 31
0.0
  0
LINE
  8
0
 62
     0
 10
59.7711
 20
98.0324
 30
0.0
 11
59.7711
 21
112.032
 31
0.0
  0
LINE
  8
0
 62
     0
 10
40.7211
 20
112.032
 30
0.0
 11
54.7204
 21
112.032
 31
0.0
  0
LINE
  8
0
 62
     0
 10
54.7204
 20
112.032
 30
0.0
 11
54.7204
 21
98.0324
 31
0.0
  0
LINE
  8
0
 62
     0
 10
54.7204
 20
98.0324
 30
0.0
 11
40.7211
 21
98.0324
 31
0.0
  0
LINE
  8
0
 62
     0
 10
40.7211
 20
98.0324
 30
0.0
 11
40.7211
 21
112.032
 31
0.0
  0
LINE
  8
0
 62
     0
 10
21.671
 20
112.032
 30
0.0
 11
35.6704
 21
112.032
 31
0.0
  0
LINE
  8
0
 62
     0
 10
35.6704
 20
112.032
 30
0.0
 11
35.6704
 21
98.0324
 31
0.0
  0
LINE
  8
0
 62
     0
 10
35.6704
 20
98.0324
 30
0.0
 11
21.671
 21
98.0324
 31
0.0
  0
LINE
  8
0
 62
     0
 10
21.671
 20
98.0324
 30
0.0
 11
21.671
 21
112.032
 31
0.0
  0
LINE
  8
0
 62
     0
 10
2.62103
 20
112.032
 30
0.0
 11
16.6205
 21
112.032
 31
0.0
  0
LINE
  8
0
 62
     0
 10
16.6205
 20
112.032
 30
0.0
 11
16.6205
 21
98.0324
 31
0.0
  0
LINE
  8
0
 62
     0
 10
16.6205
 20
98.0324
 30
0.0
 11
2.62103
 21
98.0324
 31
0.0
  0
LINE
  8
0
 62
     0
 10
2.62103
 20
98.0324
 30
0.0
 11
2.62103
 21
112.032
 31
0.0
  0
LINE
  8
0
 62
     0
 10
212.171
 20
131.082
 30
0.0
 11
226.17
 21
131.082
 31
0.0
  0
LINE
  8
0
 62
     0
 10
226.17
 20
131.082
 30
0.0
 11
226.17
 21
117.082
 31
0.0
  0
LINE
  8
0
 62
     0
 10
226.17
 20
117.082
 30
0.0
 11
212.171
 21
117.082
 31
0.0
  0
LINE
  8
0
 62
     0
 10
212.171
 20
117.082
 30
0.0
 11
212.171
 21
131.082
 31
0.0
  0
LINE
  8
0
 62
     0
 10
193.121
 20
131.082
 30
0.0
 11
207.12
 21
131.082
 31
0.0
  0
LINE
  8
0
 62
     0
 10
207.12
 20
131.082
 30
0.0
 11
207.12
 21
117.082
 31
0.0
  0
LINE
  8
0
 62
     0
 10
207.12
 20
117.082
 30
0.0
 11
193.121
 21
117.082
 31
0.0
  0
LINE
  8
0
 62
     0
 10
193.121
 20
117.082
 30
0.0
 11
193.121
 21
131.082
 31
0.0
  0
LINE
  8
0
 62
     0
 10
174.071
 20
131.082
 30
0.0
 11
188.07
 21
131.082
 31
0.0
  0
LINE
  8
0
 62
     0
 10
188.07
 20
131.082
 30
0.0
 11
188.07
 21
117.082
 31
0.0
  0
LINE
  8
0
 62
     0
 10
188.07
 20
117.082
 30
0.0
 11
174.071
 21
117.082
 31
0.0
  0
LINE
  8
0
 62
     0
 10
174.071
 20
117.082
 30
0.0
 11
174.071
 21
131.082
 31
0.0
  0
LINE
  8
0
 62
     0
 10
155.021
 20
131.082
 30
0.0
 11
169.02
 21
131.082
 31
0.0
  0
LINE
  8
0
 62
     0
 10
169.02
 20
131.082
 30
0.0
 11
169.02
 21
117.082
 31
0.0
  0
LINE
  8
0
 62
     0
 10
169.02
 20
117.082
 30
0.0
 11
155.021
 21
117.082
 31
0.0
  0
LINE
  8
0
 62
     0
 10
155.021
 20
117.082
 30
0.0
 11
155.021
 21
131.082
 31
0.0
  0
LINE
  8
0
 62
     0
 10
135.971
 20
131.082
 30
0.0
 11
149.97
 21
131.082
 31
0.0
  0
LINE
  8
0
 62
     0
 10
149.97
 20
131.082
 30
0.0
 11
149.97
 21
117.082
 31
0.0
  0
LINE
  8
0
 62
     0
 10
149.97
 20
117.082
 30
0.0
 11
135.971
 21
117.082
 31
0.0
  0
LINE
  8
0
 62
     0
 10
135.971
 20
117.082
 30
0.0
 11
135.971
 21
131.082
 31
0.0
  0
LINE
  8
0
 62
     0
 10
116.92
 20
131.082
 30
0.0
 11
130.92
 21
131.082
 31
0.0
  0
LINE
  8
0
 62
     0
 10
130.92
 20
131.082
 30
0.0
 11
130.92
 21
117.082
 31
0.0
  0
LINE
  8
0
 62
     0
 10
130.92
 20
117.082
 30
0.0
 11
116.92
 21
117.082
 31
0.0
  0
LINE
  8
0
 62
     0
 10
116.92
 20
117.082
 30
0.0
 11
116.92
 21
131.082
 31
0.0
  0
LINE
  8
0
 62
     0
 10
97.8697
 20
131.082
 30
0.0
 11
111.869
 21
131.082
 31
0.0
  0
LINE
  8
0
 62
     0
 10
111.869
 20
131.082
 30
0.0
 11
111.869
 21
117.082
 31
0.0
  0
LINE
  8
0
 62
     0
 10
111.869
 20
117.082
 30
0.0
 11
97.8697
 21
117.082
 31
0.0
  0
LINE
  8
0
 62
     0
 10
97.8697
 20
117.082
 30
0.0
 11
97.8697
 21
131.082
 31
0.0
  0
LINE
  8
0
 62
     0
 10
78.8211
 20
131.082
 30
0.0
 11
92.8204
 21
131.082
 31
0.0
  0
LINE
  8
0
 62
     0
 10
92.8204
 20
131.082
 30
0.0
 11
92.8204
 21
117.082
 31
0.0
  0
LINE
  8
0
 62
     0
 10
92.8204
 20
117.082
 30
0.0
 11
78.8211
 21
117.082
 31
0.0
  0
LINE
  8
0
 62
     0
 10
78.8211
 20
117.082
 30
0.0
 11
78.8211
 21
131.082
 31
0.0
  0
LINE
  8
0
 62
     0
 10
59.7711
 20
131.082
 30
0.0
 11
73.7704
 21
131.082
 31
0.0
  0
LINE
  8
0
 62
     0
 10
73.7704
 20
131.082
 30
0.0
 11
73.7704
 21
117.082
 31
0.0
  0
LINE
  8
0
 62
     0
 10
73.7704
 20
117.082
 30
0.0
 11
59.7711
 21
117.082
 31
0.0
  0
LINE
  8
0
 62
     0
 10
59.7711
 20
117.082
 30
0.0
 11
59.7711
 21
131.082
 31
0.0
  0
LINE
  8
0
 62
     0
 10
40.7211
 20
131.082
 30
0.0
 11
54.7204
 21
131.082
 31
0.0
  0
LINE
  8
0
 62
     0
 10
54.7204
 20
131.082
 30
0.0
 11
54.7204
 21
117.082
 31
0.0
  0
LINE
  8
0
 62
     0
 10
54.7204
 20
117.082
 30
0.0
 11
40.7211
 21
117.082
 31
0.0
  0
LINE
  8
0
 62
     0
 10
40.7211
 20
117.082
 30
0.0
 11
40.7211
 21
131.082
 31
0.0
  0
LINE
  8
0
 62
     0
 10
21.671
 20
131.082
 30
0.0
 11
35.6704
 21
131.082
 31
0.0
  0
LINE
  8
0
 62
     0
 10
35.6704
 20
131.082
 30
0.0
 11
35.6704
 21
117.082
 31
0.0
  0
LINE
  8
0
 62
     0
 10
35.6704
 20
117.082
 30
0.0
 11
21.671
 21
117.082
 31
0.0
  0
LINE
  8
0
 62
     0
 10
21.671
 20
117.082
 30
0.0
 11
21.671
 21
131.082
 31
0.0
  0
LINE
  8
0
 62
     0
 10
2.62103
 20
131.082
 30
0.0
 11
16.6205
 21
131.082
 31
0.0
  0
LINE
  8
0
 62
     0
 10
16.6205
 20
131.082
 30
0.0
 11
16.6205
 21
117.082
 31
0.0
  0
LINE
  8
0
 62
     0
 10
16.6205
 20
117.082
 30
0.0
 11
2.62103
 21
117.082
 31
0.0
  0
LINE
  8
0
 62
     0
 10
2.62103
 20
117.082
 30
0.0
 11
2.62103
 21
131.082
 31
0.0
  0
LINE
  8
0
 62
     0
 10
212.171
 20
150.132
 30
0.0
 11
226.17
 21
150.132
 31
0.0
  0
LINE
  8
0
 62
     0
 10
226.17
 20
150.132
 30
0.0
 11
226.17
 21
136.132
 31
0.0
  0
LINE
  8
0
 62
     0
 10
226.17
 20
136.132
 30
0.0
 11
212.171
 21
136.132
 31
0.0
  0
LINE
  8
0
 62
     0
 10
212.171
 20
136.132
 30
0.0
 11
212.171
 21
150.132
 31
0.0
  0
LINE
  8
0
 62
     0
 10
193.121
 20
150.132
 30
0.0
 11
207.12
 21
150.132
 31
0.0
  0
LINE
  8
0
 62
     0
 10
207.12
 20
150.132
 30
0.0
 11
207.12
 21
136.132
 31
0.0
  0
LINE
  8
0
 62
     0
 10
207.12
 20
136.132
 30
0.0
 11
193.121
 21
136.132
 31
0.0
  0
LINE
  8
0
 62
     0
 10
193.121
 20
136.132
 30
0.0
 11
193.121
 21
150.132
 31
0.0
  0
LINE
  8
0
 62
     0
 10
174.071
 20
150.132
 30
0.0
 11
188.07
 21
150.132
 31
0.0
  0
LINE
  8
0
 62
     0
 10
188.07
 20
150.132
 30
0.0
 11
188.07
 21
136.132
 31
0.0
  0
LINE
  8
0
 62
     0
 10
188.07
 20
136.132
 30
0.0
 11
174.071
 21
136.132
 31
0.0
  0
LINE
  8
0
 62
     0
 10
174.071
 20
136.132
 30
0.0
 11
174.071
 21
150.132
 31
0.0
  0
LINE
  8
0
 62
     0
 10
155.021
 20
150.132
 30
0.0
 11
169.02
 21
150.132
 31
0.0
  0
LINE
  8
0
 62
     0
 10
169.02
 20
150.132
 30
0.0
 11
169.02
 21
136.132
 31
0.0
  0
LINE
  8
0
 62
     0
 10
169.02
 20
136.132
 30
0.0
 11
155.021
 21
136.132
 31
0.0
  0
LINE
  8
0
 62
     0
 10
155.021
 20
136.132
 30
0.0
 11
155.021
 21
150.132
 31
0.0
  0
LINE
  8
0
 62
     0
 10
135.971
 20
150.132
 30
0.0
 11
149.97
 21
150.132
 31
0.0
  0
LINE
  8
0
 62
     0
 10
149.97
 20
150.132
 30
0.0
 11
149.97
 21
136.132
 31
0.0
  0
LINE
  8
0
 62
     0
 10
149.97
 20
136.132
 30
0.0
 11
135.971
 21
136.132
 31
0.0
  0
LINE
  8
0
 62
     0
 10
135.971
 20
136.132
 30
0.0
 11
135.971
 21
150.132
 31
0.0
  0
LINE
  8
0
 62
     0
 10
116.92
 20
150.132
 30
0.0
 11
130.92
 21
150.132
 31
0.0
  0
LINE
  8
0
 62
     0
 10
130.92
 20
150.132
 30
0.0
 11
130.92
 21
136.132
 31
0.0
  0
LINE
  8
0
 62
     0
 10
130.92
 20
136.132
 30
0.0
 11
116.92
 21
136.132
 31
0.0
  0
LINE
  8
0
 62
     0
 10
116.92
 20
136.132
 30
0.0
 11
116.92
 21
150.132
 31
0.0
  0
LINE
  8
0
 62
     0
 10
97.8697
 20
150.132
 30
0.0
 11
111.869
 21
150.132
 31
0.0
  0
LINE
  8
0
 62
     0
 10
111.869
 20
150.132
 30
0.0
 11
111.869
 21
136.132
 31
0.0
  0
LINE
  8
0
 62
     0
 10
111.869
 20
136.132
 30
0.0
 11
97.8697
 21
136.132
 31
0.0
  0
LINE
  8
0
 62
     0
 10
97.8697
 20
136.132
 30
0.0
 11
97.8697
 21
150.132
 31
0.0
  0
LINE
  8
0
 62
     0
 10
78.8211
 20
150.132
 30
0.0
 11
92.8204
 21
150.132
 31
0.0
  0
LINE
  8
0
 62
     0
 10
92.8204
 20
150.132
 30
0.0
 11
92.8204
 21
136.132
 31
0.0
  0
LINE
  8
0
 62
     0
 10
92.8204
 20
136.132
 30
0.0
 11
78.8211
 21
136.132
 31
0.0
  0
LINE
  8
0
 62
     0
 10
78.8211
 20
136.132
 30
0.0
 11
78.8211
 21
150.132
 31
0.0
  0
LINE
  8
0
 62
     0
 10
59.7711
 20
150.132
 30
0.0
 11
73.7704
 21
150.132
 31
0.0
  0
LINE
  8
0
 62
     0
 10
73.7704
 20
150.132
 30
0.0
 11
73.7704
 21
136.132
 31
0.0
  0
LINE
  8
0
 62
     0
 10
73.7704
 20
136.132
 30
0.0
 11
59.7711
 21
136.132
 31
0.0
  0
LINE
  8
0
 62
     0
 10
59.7711
 20
136.132
 30
0.0
 11
59.7711
 21
150.132
 31
0.0
  0
LINE
  8
0
 62
     0
 10
40.7211
 20
150.132
 30
0.0
 11
54.7204
 21
150.132
 31
0.0
  0
LINE
  8
0
 62
     0
 10
54.7204
 20
150.132
 30
0.0
 11
54.7204
 21
136.132
 31
0.0
  0
LINE
  8
0
 62
     0
 10
54.7204
 20
136.132
 30
0.0
 11
40.7211
 21
136.132
 31
0.0
  0
LINE
  8
0
 62
     0
 10
40.7211
 20
136.132
 30
0.0
 11
40.7211
 21
150.132
 31
0.0
  0
LINE
  8
0
 62
     0
 10
21.671
 20
150.132
 30
0.0
 11
35.6704
 21
150.132
 31
0.0
  0
LINE
  8
0
 62
     0
 10
35.6704
 20
150.132
 30
0.0
 11
35.6704
 21
136.132
 31
0.0
  0
LINE
  8
0
 62
     0
 10
35.6704
 20
136.132
 30
0.0
 11
21.671
 21
136.132
 31
0.0
  0
LINE
  8
0
 62
     0
 10
21.671
 20
136.132
 30
0.0
 11
21.671
 21
150.132
 31
0.0
  0
LINE
  8
0
 62
     0
 10
2.62103
 20
150.132
 30
0.0
 11
16.6205
 21
150.132
 31
0.0
  0
LINE
  8
0
 62
     0
 10
16.6205
 20
150.132
 30
0.0
 11
16.6205
 21
136.132
 31
0.0
  0
LINE
  8
0
 62
     0
 10
16.6205
 20
136.132
 30
0.0
 11
2.62103
 21
136.132
 31
0.0
  0
LINE
  8
0
 62
     0
 10
2.62103
 20
136.132
 30
0.0
 11
2.62103
 21
150.132
 31
0.0
  0
ENDSEC
  0
EOF
