  0
SECTION
  2
HEADER
  9
$ACADVER
  1
AC1009
  9
$EXTMIN
 10
0.0
 20
0.0
 30
0.0
  9
$EXTMAX
 10
1000.0
 20
1000.0
 30
0.0
  9
$FILLMODE
 70
 0
  9
$SPLFRAME
 70
 1
  0
ENDSEC
  0
SECTION
  2
TABLES
  0
TABLE
  2
LAYER
 70
1
  0
LAYER
  2
0
 70
     0
 62
     7
  6
CONTINUOUS
  0
ENDTAB
  0
ENDSEC
  0
SECTION
  2
ENTITIES
  0
LINE
  8
0
 62
     0
 10
241.697
 20
244.733
 30
0.0
 11
241.931
 21
244.723
 31
0.0
  0
LINE
  8
0
 62
     0
 10
241.931
 20
244.723
 30
0.0
 11
242.165
 21
244.697
 31
0.0
  0
LINE
  8
0
 62
     0
 10
242.165
 20
244.697
 30
0.0
 11
242.397
 21
244.65
 31
0.0
  0
LINE
  8
0
 62
     0
 10
242.397
 20
244.65
 30
0.0
 11
242.623
 21
244.586
 31
0.0
  0
LINE
  8
0
 62
     0
 10
242.623
 20
244.586
 30
0.0
 11
242.845
 21
244.504
 31
0.0
  0
LINE
  8
0
 62
     0
 10
242.845
 20
244.504
 30
0.0
 11
243.057
 21
244.406
 31
0.0
  0
LINE
  8
0
 62
     0
 10
243.057
 20
244.406
 30
0.0
 11
243.264
 21
244.29
 31
0.0
  0
LINE
  8
0
 62
     0
 10
243.264
 20
244.29
 30
0.0
 11
243.459
 21
244.161
 31
0.0
  0
LINE
  8
0
 62
     0
 10
243.459
 20
244.161
 30
0.0
 11
243.644
 21
244.015
 31
0.0
  0
LINE
  8
0
 62
     0
 10
243.644
 20
244.015
 30
0.0
 11
243.818
 21
243.855
 31
0.0
  0
LINE
  8
0
 62
     0
 10
243.818
 20
243.855
 30
0.0
 11
243.978
 21
243.681
 31
0.0
  0
LINE
  8
0
 62
     0
 10
243.978
 20
243.681
 30
0.0
 11
244.124
 21
243.497
 31
0.0
  0
LINE
  8
0
 62
     0
 10
244.124
 20
243.497
 30
0.0
 11
244.253
 21
243.301
 31
0.0
  0
LINE
  8
0
 62
     0
 10
244.253
 20
243.301
 30
0.0
 11
244.369
 21
243.094
 31
0.0
  0
LINE
  8
0
 62
     0
 10
244.369
 20
243.094
 30
0.0
 11
244.468
 21
242.88
 31
0.0
  0
LINE
  8
0
 62
     0
 10
244.468
 20
242.88
 30
0.0
 11
244.549
 21
242.66
 31
0.0
  0
LINE
  8
0
 62
     0
 10
244.549
 20
242.66
 30
0.0
 11
244.613
 21
242.433
 31
0.0
  0
LINE
  8
0
 62
     0
 10
244.613
 20
242.433
 30
0.0
 11
244.66
 21
242.203
 31
0.0
  0
LINE
  8
0
 62
     0
 10
244.66
 20
242.203
 30
0.0
 11
244.686
 21
241.969
 31
0.0
  0
LINE
  8
0
 62
     0
 10
244.686
 20
241.969
 30
0.0
 11
244.697
 21
241.733
 31
0.0
  0
LINE
  8
0
 62
     0
 10
244.697
 20
241.733
 30
0.0
 11
244.697
 21
3.1309
 31
0.0
  0
LINE
  8
0
 62
     0
 10
244.697
 20
3.1309
 30
0.0
 11
244.686
 21
2.89664
 31
0.0
  0
LINE
  8
0
 62
     0
 10
244.686
 20
2.89664
 30
0.0
 11
244.66
 21
2.66237
 31
0.0
  0
LINE
  8
0
 62
     0
 10
244.66
 20
2.66237
 30
0.0
 11
244.613
 21
2.43086
 31
0.0
  0
LINE
  8
0
 62
     0
 10
244.613
 20
2.43086
 30
0.0
 11
244.549
 21
2.20486
 31
0.0
  0
LINE
  8
0
 62
     0
 10
244.549
 20
2.20486
 30
0.0
 11
244.468
 21
1.983
 31
0.0
  0
LINE
  8
0
 62
     0
 10
244.468
 20
1.983
 30
0.0
 11
244.369
 21
1.77078
 31
0.0
  0
LINE
  8
0
 62
     0
 10
244.369
 20
1.77078
 30
0.0
 11
244.253
 21
1.56407
 31
0.0
  0
LINE
  8
0
 62
     0
 10
244.253
 20
1.56407
 30
0.0
 11
244.124
 21
1.36839
 31
0.0
  0
LINE
  8
0
 62
     0
 10
244.124
 20
1.36839
 30
0.0
 11
243.978
 21
1.18374
 31
0.0
  0
LINE
  8
0
 62
     0
 10
243.978
 20
1.18374
 30
0.0
 11
243.818
 21
1.0101
 31
0.0
  0
LINE
  8
0
 62
     0
 10
243.818
 20
1.0101
 30
0.0
 11
243.644
 21
0.850251
 31
0.0
  0
LINE
  8
0
 62
     0
 10
243.644
 20
0.850251
 30
0.0
 11
243.459
 21
0.704176
 31
0.0
  0
LINE
  8
0
 62
     0
 10
243.459
 20
0.704176
 30
0.0
 11
243.264
 21
0.574643
 31
0.0
  0
LINE
  8
0
 62
     0
 10
243.264
 20
0.574643
 30
0.0
 11
243.057
 21
0.458886
 31
0.0
  0
LINE
  8
0
 62
     0
 10
243.057
 20
0.458886
 30
0.0
 11
242.845
 21
0.359668
 31
0.0
  0
LINE
  8
0
 62
     0
 10
242.845
 20
0.359668
 30
0.0
 11
242.623
 21
0.278364
 31
0.0
  0
LINE
  8
0
 62
     0
 10
242.623
 20
0.278364
 30
0.0
 11
242.397
 21
0.214974
 31
0.0
  0
LINE
  8
0
 62
     0
 10
242.397
 20
0.214974
 30
0.0
 11
242.165
 21
0.168121
 31
0.0
  0
LINE
  8
0
 62
     0
 10
242.165
 20
0.168121
 30
0.0
 11
241.931
 21
0.141938
 31
0.0
  0
LINE
  8
0
 62
     0
 10
241.931
 20
0.141938
 30
0.0
 11
241.697
 21
0.130914
 31
0.0
  0
LINE
  8
0
 62
     0
 10
241.697
 20
0.130914
 30
0.0
 11
3.09507
 21
0.130914
 31
0.0
  0
LINE
  8
0
 62
     0
 10
3.09507
 20
0.130914
 30
0.0
 11
2.85943
 21
0.141938
 31
0.0
  0
LINE
  8
0
 62
     0
 10
2.85943
 20
0.141938
 30
0.0
 11
2.62516
 21
0.168121
 31
0.0
  0
LINE
  8
0
 62
     0
 10
2.62516
 20
0.168121
 30
0.0
 11
2.39503
 21
0.214974
 31
0.0
  0
LINE
  8
0
 62
     0
 10
2.39503
 20
0.214974
 30
0.0
 11
2.16765
 21
0.278364
 31
0.0
  0
LINE
  8
0
 62
     0
 10
2.16765
 20
0.278364
 30
0.0
 11
1.94717
 21
0.359668
 31
0.0
  0
LINE
  8
0
 62
     0
 10
1.94717
 20
0.359668
 30
0.0
 11
1.73357
 21
0.458886
 31
0.0
  0
LINE
  8
0
 62
     0
 10
1.73357
 20
0.458886
 30
0.0
 11
1.52687
 21
0.574643
 31
0.0
  0
LINE
  8
0
 62
     0
 10
1.52687
 20
0.574643
 30
0.0
 11
1.33119
 21
0.704176
 31
0.0
  0
LINE
  8
0
 62
     0
 10
1.33119
 20
0.704176
 30
0.0
 11
1.14653
 21
0.850251
 31
0.0
  0
LINE
  8
0
 62
     0
 10
1.14653
 20
0.850251
 30
0.0
 11
0.972894
 21
1.0101
 31
0.0
  0
LINE
  8
0
 62
     0
 10
0.972894
 20
1.0101
 30
0.0
 11
0.813043
 21
1.18374
 31
0.0
  0
LINE
  8
0
 62
     0
 10
0.813043
 20
1.18374
 30
0.0
 11
0.666972
 21
1.36839
 31
0.0
  0
LINE
  8
0
 62
     0
 10
0.666972
 20
1.36839
 30
0.0
 11
0.537436
 21
1.56407
 31
0.0
  0
LINE
  8
0
 62
     0
 10
0.537436
 20
1.56407
 30
0.0
 11
0.421679
 21
1.77078
 31
0.0
  0
LINE
  8
0
 62
     0
 10
0.421679
 20
1.77078
 30
0.0
 11
0.323839
 21
1.983
 31
0.0
  0
LINE
  8
0
 62
     0
 10
0.323839
 20
1.983
 30
0.0
 11
0.241157
 21
2.20486
 31
0.0
  0
LINE
  8
0
 62
     0
 10
0.241157
 20
2.20486
 30
0.0
 11
0.177767
 21
2.43086
 31
0.0
  0
LINE
  8
0
 62
     0
 10
0.177767
 20
2.43086
 30
0.0
 11
0.130914
 21
2.66237
 31
0.0
  0
LINE
  8
0
 62
     0
 10
0.130914
 20
2.66237
 30
0.0
 11
0.104731
 21
2.89664
 31
0.0
  0
LINE
  8
0
 62
     0
 10
0.104731
 20
2.89664
 30
0.0
 11
0.0950846
 21
3.13228
 31
0.0
  0
LINE
  8
0
 62
     0
 10
0.0950846
 20
3.13228
 30
0.0
 11
0.0950846
 21
241.733
 31
0.0
  0
LINE
  8
0
 62
     0
 10
0.0950846
 20
241.733
 30
0.0
 11
0.104731
 21
241.969
 31
0.0
  0
LINE
  8
0
 62
     0
 10
0.104731
 20
241.969
 30
0.0
 11
0.130914
 21
242.203
 31
0.0
  0
LINE
  8
0
 62
     0
 10
0.130914
 20
242.203
 30
0.0
 11
0.177767
 21
242.433
 31
0.0
  0
LINE
  8
0
 62
     0
 10
0.177767
 20
242.433
 30
0.0
 11
0.241157
 21
242.66
 31
0.0
  0
LINE
  8
0
 62
     0
 10
0.241157
 20
242.66
 30
0.0
 11
0.323839
 21
242.88
 31
0.0
  0
LINE
  8
0
 62
     0
 10
0.323839
 20
242.88
 30
0.0
 11
0.421679
 21
243.094
 31
0.0
  0
LINE
  8
0
 62
     0
 10
0.421679
 20
243.094
 30
0.0
 11
0.537436
 21
243.301
 31
0.0
  0
LINE
  8
0
 62
     0
 10
0.537436
 20
243.301
 30
0.0
 11
0.666972
 21
243.497
 31
0.0
  0
LINE
  8
0
 62
     0
 10
0.666972
 20
243.497
 30
0.0
 11
0.813043
 21
243.681
 31
0.0
  0
LINE
  8
0
 62
     0
 10
0.813043
 20
243.681
 30
0.0
 11
0.972894
 21
243.855
 31
0.0
  0
LINE
  8
0
 62
     0
 10
0.972894
 20
243.855
 30
0.0
 11
1.14653
 21
244.015
 31
0.0
  0
LINE
  8
0
 62
     0
 10
1.14653
 20
244.015
 30
0.0
 11
1.33119
 21
244.161
 31
0.0
  0
LINE
  8
0
 62
     0
 10
1.33119
 20
244.161
 30
0.0
 11
1.52687
 21
244.29
 31
0.0
  0
LINE
  8
0
 62
     0
 10
1.52687
 20
244.29
 30
0.0
 11
1.73357
 21
244.406
 31
0.0
  0
LINE
  8
0
 62
     0
 10
1.73357
 20
244.406
 30
0.0
 11
1.94717
 21
244.504
 31
0.0
  0
LINE
  8
0
 62
     0
 10
1.94717
 20
244.504
 30
0.0
 11
2.16765
 21
244.586
 31
0.0
  0
LINE
  8
0
 62
     0
 10
2.16765
 20
244.586
 30
0.0
 11
2.39503
 21
244.65
 31
0.0
  0
LINE
  8
0
 62
     0
 10
2.39503
 20
244.65
 30
0.0
 11
2.62516
 21
244.697
 31
0.0
  0
LINE
  8
0
 62
     0
 10
2.62516
 20
244.697
 30
0.0
 11
2.85943
 21
244.723
 31
0.0
  0
LINE
  8
0
 62
     0
 10
2.85943
 20
244.723
 30
0.0
 11
3.09507
 21
244.733
 31
0.0
  0
LINE
  8
0
 62
     0
 10
3.09507
 20
244.733
 30
0.0
 11
241.697
 21
244.733
 31
0.0
  0
LINE
  8
0
 62
     0
 10
3.77031
 20
5.13045
 30
0.0
 11
3.47817
 21
4.98161
 31
0.0
  0
LINE
  8
0
 62
     0
 10
3.47817
 20
4.98161
 30
0.0
 11
3.24528
 21
4.74871
 31
0.0
  0
LINE
  8
0
 62
     0
 10
3.24528
 20
4.74871
 30
0.0
 11
3.09507
 21
4.45657
 31
0.0
  0
LINE
  8
0
 62
     0
 10
3.09507
 20
4.45657
 30
0.0
 11
3.04409
 21
4.13135
 31
0.0
  0
LINE
  8
0
 62
     0
 10
3.04409
 20
4.13135
 30
0.0
 11
3.09507
 21
3.80753
 31
0.0
  0
LINE
  8
0
 62
     0
 10
3.09507
 20
3.80753
 30
0.0
 11
3.24528
 21
3.514
 31
0.0
  0
LINE
  8
0
 62
     0
 10
3.24528
 20
3.514
 30
0.0
 11
3.47817
 21
3.28249
 31
0.0
  0
LINE
  8
0
 62
     0
 10
3.47817
 20
3.28249
 30
0.0
 11
3.77031
 21
3.13366
 31
0.0
  0
LINE
  8
0
 62
     0
 10
3.77031
 20
3.13366
 30
0.0
 11
4.09554
 21
3.0813
 31
0.0
  0
LINE
  8
0
 62
     0
 10
4.09554
 20
3.0813
 30
0.0
 11
4.41935
 21
3.13366
 31
0.0
  0
LINE
  8
0
 62
     0
 10
4.41935
 20
3.13366
 30
0.0
 11
4.7129
 21
3.28249
 31
0.0
  0
LINE
  8
0
 62
     0
 10
4.7129
 20
3.28249
 30
0.0
 11
4.94439
 21
3.514
 31
0.0
  0
LINE
  8
0
 62
     0
 10
4.94439
 20
3.514
 30
0.0
 11
5.09323
 21
3.80753
 31
0.0
  0
LINE
  8
0
 62
     0
 10
5.09323
 20
3.80753
 30
0.0
 11
5.14558
 21
4.13135
 31
0.0
  0
LINE
  8
0
 62
     0
 10
5.14558
 20
4.13135
 30
0.0
 11
5.09323
 21
4.45657
 31
0.0
  0
LINE
  8
0
 62
     0
 10
5.09323
 20
4.45657
 30
0.0
 11
4.94439
 21
4.74871
 31
0.0
  0
LINE
  8
0
 62
     0
 10
4.94439
 20
4.74871
 30
0.0
 11
4.7129
 21
4.98161
 31
0.0
  0
LINE
  8
0
 62
     0
 10
4.7129
 20
4.98161
 30
0.0
 11
4.41935
 21
5.13045
 31
0.0
  0
LINE
  8
0
 62
     0
 10
4.41935
 20
5.13045
 30
0.0
 11
4.09554
 21
5.18142
 31
0.0
  0
LINE
  8
0
 62
     0
 10
4.09554
 20
5.18142
 30
0.0
 11
3.77031
 21
5.13045
 31
0.0
  0
LINE
  8
0
 62
     0
 10
82.6368
 20
5.13045
 30
0.0
 11
82.3447
 21
4.98161
 31
0.0
  0
LINE
  8
0
 62
     0
 10
82.3447
 20
4.98161
 30
0.0
 11
82.1133
 21
4.74871
 31
0.0
  0
LINE
  8
0
 62
     0
 10
82.1133
 20
4.74871
 30
0.0
 11
81.963
 21
4.45657
 31
0.0
  0
LINE
  8
0
 62
     0
 10
81.963
 20
4.45657
 30
0.0
 11
81.9118
 21
4.13135
 31
0.0
  0
LINE
  8
0
 62
     0
 10
81.9118
 20
4.13135
 30
0.0
 11
81.963
 21
3.80753
 31
0.0
  0
LINE
  8
0
 62
     0
 10
81.963
 20
3.80753
 30
0.0
 11
82.1133
 21
3.514
 31
0.0
  0
LINE
  8
0
 62
     0
 10
82.1133
 20
3.514
 30
0.0
 11
82.3447
 21
3.28249
 31
0.0
  0
LINE
  8
0
 62
     0
 10
82.3447
 20
3.28249
 30
0.0
 11
82.6368
 21
3.13366
 31
0.0
  0
LINE
  8
0
 62
     0
 10
82.6368
 20
3.13366
 30
0.0
 11
82.962
 21
3.0813
 31
0.0
  0
LINE
  8
0
 62
     0
 10
82.962
 20
3.0813
 30
0.0
 11
83.2859
 21
3.13366
 31
0.0
  0
LINE
  8
0
 62
     0
 10
83.2859
 20
3.13366
 30
0.0
 11
83.5794
 21
3.28249
 31
0.0
  0
LINE
  8
0
 62
     0
 10
83.5794
 20
3.28249
 30
0.0
 11
83.8108
 21
3.514
 31
0.0
  0
LINE
  8
0
 62
     0
 10
83.8108
 20
3.514
 30
0.0
 11
83.9611
 21
3.80753
 31
0.0
  0
LINE
  8
0
 62
     0
 10
83.9611
 20
3.80753
 30
0.0
 11
84.0123
 21
4.13135
 31
0.0
  0
LINE
  8
0
 62
     0
 10
84.0123
 20
4.13135
 30
0.0
 11
83.9611
 21
4.45657
 31
0.0
  0
LINE
  8
0
 62
     0
 10
83.9611
 20
4.45657
 30
0.0
 11
83.8108
 21
4.74871
 31
0.0
  0
LINE
  8
0
 62
     0
 10
83.8108
 20
4.74871
 30
0.0
 11
83.5794
 21
4.98161
 31
0.0
  0
LINE
  8
0
 62
     0
 10
83.5794
 20
4.98161
 30
0.0
 11
83.2859
 21
5.13045
 31
0.0
  0
LINE
  8
0
 62
     0
 10
83.2859
 20
5.13045
 30
0.0
 11
82.962
 21
5.18142
 31
0.0
  0
LINE
  8
0
 62
     0
 10
82.962
 20
5.18142
 30
0.0
 11
82.6368
 21
5.13045
 31
0.0
  0
LINE
  8
0
 62
     0
 10
161.505
 20
5.13045
 30
0.0
 11
161.211
 21
4.98161
 31
0.0
  0
LINE
  8
0
 62
     0
 10
161.211
 20
4.98161
 30
0.0
 11
160.98
 21
4.74871
 31
0.0
  0
LINE
  8
0
 62
     0
 10
160.98
 20
4.74871
 30
0.0
 11
160.831
 21
4.45657
 31
0.0
  0
LINE
  8
0
 62
     0
 10
160.831
 20
4.45657
 30
0.0
 11
160.78
 21
4.13135
 31
0.0
  0
LINE
  8
0
 62
     0
 10
160.78
 20
4.13135
 30
0.0
 11
160.831
 21
3.80753
 31
0.0
  0
LINE
  8
0
 62
     0
 10
160.831
 20
3.80753
 30
0.0
 11
160.98
 21
3.514
 31
0.0
  0
LINE
  8
0
 62
     0
 10
160.98
 20
3.514
 30
0.0
 11
161.211
 21
3.28249
 31
0.0
  0
LINE
  8
0
 62
     0
 10
161.211
 20
3.28249
 30
0.0
 11
161.505
 21
3.13366
 31
0.0
  0
LINE
  8
0
 62
     0
 10
161.505
 20
3.13366
 30
0.0
 11
161.83
 21
3.0813
 31
0.0
  0
LINE
  8
0
 62
     0
 10
161.83
 20
3.0813
 30
0.0
 11
162.154
 21
3.13366
 31
0.0
  0
LINE
  8
0
 62
     0
 10
162.154
 20
3.13366
 30
0.0
 11
162.446
 21
3.28249
 31
0.0
  0
LINE
  8
0
 62
     0
 10
162.446
 20
3.28249
 30
0.0
 11
162.679
 21
3.514
 31
0.0
  0
LINE
  8
0
 62
     0
 10
162.679
 20
3.514
 30
0.0
 11
162.828
 21
3.80753
 31
0.0
  0
LINE
  8
0
 62
     0
 10
162.828
 20
3.80753
 30
0.0
 11
162.88
 21
4.13135
 31
0.0
  0
LINE
  8
0
 62
     0
 10
162.88
 20
4.13135
 30
0.0
 11
162.828
 21
4.45657
 31
0.0
  0
LINE
  8
0
 62
     0
 10
162.828
 20
4.45657
 30
0.0
 11
162.679
 21
4.74871
 31
0.0
  0
LINE
  8
0
 62
     0
 10
162.679
 20
4.74871
 30
0.0
 11
162.446
 21
4.98161
 31
0.0
  0
LINE
  8
0
 62
     0
 10
162.446
 20
4.98161
 30
0.0
 11
162.154
 21
5.13045
 31
0.0
  0
LINE
  8
0
 62
     0
 10
162.154
 20
5.13045
 30
0.0
 11
161.83
 21
5.18142
 31
0.0
  0
LINE
  8
0
 62
     0
 10
161.83
 20
5.18142
 30
0.0
 11
161.505
 21
5.13045
 31
0.0
  0
LINE
  8
0
 62
     0
 10
240.371
 20
5.13045
 30
0.0
 11
240.079
 21
4.98161
 31
0.0
  0
LINE
  8
0
 62
     0
 10
240.079
 20
4.98161
 30
0.0
 11
239.846
 21
4.74871
 31
0.0
  0
LINE
  8
0
 62
     0
 10
239.846
 20
4.74871
 30
0.0
 11
239.697
 21
4.45657
 31
0.0
  0
LINE
  8
0
 62
     0
 10
239.697
 20
4.45657
 30
0.0
 11
239.647
 21
4.13135
 31
0.0
  0
LINE
  8
0
 62
     0
 10
239.647
 20
4.13135
 30
0.0
 11
239.697
 21
3.80753
 31
0.0
  0
LINE
  8
0
 62
     0
 10
239.697
 20
3.80753
 30
0.0
 11
239.846
 21
3.514
 31
0.0
  0
LINE
  8
0
 62
     0
 10
239.846
 20
3.514
 30
0.0
 11
240.079
 21
3.28249
 31
0.0
  0
LINE
  8
0
 62
     0
 10
240.079
 20
3.28249
 30
0.0
 11
240.371
 21
3.13366
 31
0.0
  0
LINE
  8
0
 62
     0
 10
240.371
 20
3.13366
 30
0.0
 11
240.696
 21
3.0813
 31
0.0
  0
LINE
  8
0
 62
     0
 10
240.696
 20
3.0813
 30
0.0
 11
241.02
 21
3.13366
 31
0.0
  0
LINE
  8
0
 62
     0
 10
241.02
 20
3.13366
 30
0.0
 11
241.314
 21
3.28249
 31
0.0
  0
LINE
  8
0
 62
     0
 10
241.314
 20
3.28249
 30
0.0
 11
241.545
 21
3.514
 31
0.0
  0
LINE
  8
0
 62
     0
 10
241.545
 20
3.514
 30
0.0
 11
241.694
 21
3.80753
 31
0.0
  0
LINE
  8
0
 62
     0
 10
241.694
 20
3.80753
 30
0.0
 11
241.747
 21
4.13135
 31
0.0
  0
LINE
  8
0
 62
     0
 10
241.747
 20
4.13135
 30
0.0
 11
241.694
 21
4.45657
 31
0.0
  0
LINE
  8
0
 62
     0
 10
241.694
 20
4.45657
 30
0.0
 11
241.545
 21
4.74871
 31
0.0
  0
LINE
  8
0
 62
     0
 10
241.545
 20
4.74871
 30
0.0
 11
241.314
 21
4.98161
 31
0.0
  0
LINE
  8
0
 62
     0
 10
241.314
 20
4.98161
 30
0.0
 11
241.02
 21
5.13045
 31
0.0
  0
LINE
  8
0
 62
     0
 10
241.02
 20
5.13045
 30
0.0
 11
240.696
 21
5.18142
 31
0.0
  0
LINE
  8
0
 62
     0
 10
240.696
 20
5.18142
 30
0.0
 11
240.371
 21
5.13045
 31
0.0
  0
LINE
  8
0
 62
     0
 10
3.77031
 20
83.9971
 30
0.0
 11
3.47817
 21
83.8482
 31
0.0
  0
LINE
  8
0
 62
     0
 10
3.47817
 20
83.8482
 30
0.0
 11
3.24528
 21
83.6164
 31
0.0
  0
LINE
  8
0
 62
     0
 10
3.24528
 20
83.6164
 30
0.0
 11
3.09507
 21
83.3229
 31
0.0
  0
LINE
  8
0
 62
     0
 10
3.09507
 20
83.3229
 30
0.0
 11
3.04409
 21
82.9991
 31
0.0
  0
LINE
  8
0
 62
     0
 10
3.04409
 20
82.9991
 30
0.0
 11
3.09507
 21
82.6742
 31
0.0
  0
LINE
  8
0
 62
     0
 10
3.09507
 20
82.6742
 30
0.0
 11
3.24528
 21
82.3817
 31
0.0
  0
LINE
  8
0
 62
     0
 10
3.24528
 20
82.3817
 30
0.0
 11
3.47817
 21
82.1489
 31
0.0
  0
LINE
  8
0
 62
     0
 10
3.47817
 20
82.1489
 30
0.0
 11
3.77031
 21
82
 31
0.0
  0
LINE
  8
0
 62
     0
 10
3.77031
 20
82
 30
0.0
 11
4.09554
 21
81.9478
 31
0.0
  0
LINE
  8
0
 62
     0
 10
4.09554
 20
81.9478
 30
0.0
 11
4.41935
 21
82
 31
0.0
  0
LINE
  8
0
 62
     0
 10
4.41935
 20
82
 30
0.0
 11
4.7129
 21
82.1489
 31
0.0
  0
LINE
  8
0
 62
     0
 10
4.7129
 20
82.1489
 30
0.0
 11
4.94439
 21
82.3817
 31
0.0
  0
LINE
  8
0
 62
     0
 10
4.94439
 20
82.3817
 30
0.0
 11
5.09323
 21
82.6742
 31
0.0
  0
LINE
  8
0
 62
     0
 10
5.09323
 20
82.6742
 30
0.0
 11
5.14558
 21
82.9991
 31
0.0
  0
LINE
  8
0
 62
     0
 10
5.14558
 20
82.9991
 30
0.0
 11
5.09323
 21
83.3229
 31
0.0
  0
LINE
  8
0
 62
     0
 10
5.09323
 20
83.3229
 30
0.0
 11
4.94439
 21
83.6164
 31
0.0
  0
LINE
  8
0
 62
     0
 10
4.94439
 20
83.6164
 30
0.0
 11
4.7129
 21
83.8482
 31
0.0
  0
LINE
  8
0
 62
     0
 10
4.7129
 20
83.8482
 30
0.0
 11
4.41935
 21
83.9971
 31
0.0
  0
LINE
  8
0
 62
     0
 10
4.41935
 20
83.9971
 30
0.0
 11
4.09554
 21
84.0493
 31
0.0
  0
LINE
  8
0
 62
     0
 10
4.09554
 20
84.0493
 30
0.0
 11
3.77031
 21
83.9971
 31
0.0
  0
LINE
  8
0
 62
     0
 10
240.371
 20
83.9971
 30
0.0
 11
240.079
 21
83.8482
 31
0.0
  0
LINE
  8
0
 62
     0
 10
240.079
 20
83.8482
 30
0.0
 11
239.846
 21
83.6164
 31
0.0
  0
LINE
  8
0
 62
     0
 10
239.846
 20
83.6164
 30
0.0
 11
239.697
 21
83.3229
 31
0.0
  0
LINE
  8
0
 62
     0
 10
239.697
 20
83.3229
 30
0.0
 11
239.647
 21
82.998
 31
0.0
  0
LINE
  8
0
 62
     0
 10
239.647
 20
82.998
 30
0.0
 11
239.697
 21
82.6742
 31
0.0
  0
LINE
  8
0
 62
     0
 10
239.697
 20
82.6742
 30
0.0
 11
239.846
 21
82.3817
 31
0.0
  0
LINE
  8
0
 62
     0
 10
239.846
 20
82.3817
 30
0.0
 11
240.079
 21
82.1489
 31
0.0
  0
LINE
  8
0
 62
     0
 10
240.079
 20
82.1489
 30
0.0
 11
240.371
 21
82
 31
0.0
  0
LINE
  8
0
 62
     0
 10
240.371
 20
82
 30
0.0
 11
240.696
 21
81.9478
 31
0.0
  0
LINE
  8
0
 62
     0
 10
240.696
 20
81.9478
 30
0.0
 11
241.02
 21
82
 31
0.0
  0
LINE
  8
0
 62
     0
 10
241.02
 20
82
 30
0.0
 11
241.314
 21
82.1489
 31
0.0
  0
LINE
  8
0
 62
     0
 10
241.314
 20
82.1489
 30
0.0
 11
241.545
 21
82.3817
 31
0.0
  0
LINE
  8
0
 62
     0
 10
241.545
 20
82.3817
 30
0.0
 11
241.694
 21
82.6742
 31
0.0
  0
LINE
  8
0
 62
     0
 10
241.694
 20
82.6742
 30
0.0
 11
241.747
 21
82.998
 31
0.0
  0
LINE
  8
0
 62
     0
 10
241.747
 20
82.998
 30
0.0
 11
241.694
 21
83.3229
 31
0.0
  0
LINE
  8
0
 62
     0
 10
241.694
 20
83.3229
 30
0.0
 11
241.545
 21
83.6164
 31
0.0
  0
LINE
  8
0
 62
     0
 10
241.545
 20
83.6164
 30
0.0
 11
241.314
 21
83.8482
 31
0.0
  0
LINE
  8
0
 62
     0
 10
241.314
 20
83.8482
 30
0.0
 11
241.02
 21
83.9971
 31
0.0
  0
LINE
  8
0
 62
     0
 10
241.02
 20
83.9971
 30
0.0
 11
240.696
 21
84.0479
 31
0.0
  0
LINE
  8
0
 62
     0
 10
240.696
 20
84.0479
 30
0.0
 11
240.371
 21
83.9971
 31
0.0
  0
LINE
  8
0
 62
     0
 10
3.77031
 20
162.865
 30
0.0
 11
3.47817
 21
162.715
 31
0.0
  0
LINE
  8
0
 62
     0
 10
3.47817
 20
162.715
 30
0.0
 11
3.24528
 21
162.483
 31
0.0
  0
LINE
  8
0
 62
     0
 10
3.24528
 20
162.483
 30
0.0
 11
3.09507
 21
162.191
 31
0.0
  0
LINE
  8
0
 62
     0
 10
3.09507
 20
162.191
 30
0.0
 11
3.04409
 21
161.866
 31
0.0
  0
LINE
  8
0
 62
     0
 10
3.04409
 20
161.866
 30
0.0
 11
3.09507
 21
161.542
 31
0.0
  0
LINE
  8
0
 62
     0
 10
3.09507
 20
161.542
 30
0.0
 11
3.24528
 21
161.248
 31
0.0
  0
LINE
  8
0
 62
     0
 10
3.24528
 20
161.248
 30
0.0
 11
3.47817
 21
161.017
 31
0.0
  0
LINE
  8
0
 62
     0
 10
3.47817
 20
161.017
 30
0.0
 11
3.77031
 21
160.867
 31
0.0
  0
LINE
  8
0
 62
     0
 10
3.77031
 20
160.867
 30
0.0
 11
4.09554
 21
160.816
 31
0.0
  0
LINE
  8
0
 62
     0
 10
4.09554
 20
160.816
 30
0.0
 11
4.41935
 21
160.867
 31
0.0
  0
LINE
  8
0
 62
     0
 10
4.41935
 20
160.867
 30
0.0
 11
4.7129
 21
161.017
 31
0.0
  0
LINE
  8
0
 62
     0
 10
4.7129
 20
161.017
 30
0.0
 11
4.94439
 21
161.248
 31
0.0
  0
LINE
  8
0
 62
     0
 10
4.94439
 20
161.248
 30
0.0
 11
5.09323
 21
161.542
 31
0.0
  0
LINE
  8
0
 62
     0
 10
5.09323
 20
161.542
 30
0.0
 11
5.14558
 21
161.866
 31
0.0
  0
LINE
  8
0
 62
     0
 10
5.14558
 20
161.866
 30
0.0
 11
5.09323
 21
162.191
 31
0.0
  0
LINE
  8
0
 62
     0
 10
5.09323
 20
162.191
 30
0.0
 11
4.94439
 21
162.483
 31
0.0
  0
LINE
  8
0
 62
     0
 10
4.94439
 20
162.483
 30
0.0
 11
4.7129
 21
162.715
 31
0.0
  0
LINE
  8
0
 62
     0
 10
4.7129
 20
162.715
 30
0.0
 11
4.41935
 21
162.865
 31
0.0
  0
LINE
  8
0
 62
     0
 10
4.41935
 20
162.865
 30
0.0
 11
4.09554
 21
162.916
 31
0.0
  0
LINE
  8
0
 62
     0
 10
4.09554
 20
162.916
 30
0.0
 11
3.77031
 21
162.865
 31
0.0
  0
LINE
  8
0
 62
     0
 10
240.371
 20
162.865
 30
0.0
 11
240.079
 21
162.715
 31
0.0
  0
LINE
  8
0
 62
     0
 10
240.079
 20
162.715
 30
0.0
 11
239.846
 21
162.483
 31
0.0
  0
LINE
  8
0
 62
     0
 10
239.846
 20
162.483
 30
0.0
 11
239.697
 21
162.191
 31
0.0
  0
LINE
  8
0
 62
     0
 10
239.697
 20
162.191
 30
0.0
 11
239.647
 21
161.866
 31
0.0
  0
LINE
  8
0
 62
     0
 10
239.647
 20
161.866
 30
0.0
 11
239.697
 21
161.542
 31
0.0
  0
LINE
  8
0
 62
     0
 10
239.697
 20
161.542
 30
0.0
 11
239.846
 21
161.248
 31
0.0
  0
LINE
  8
0
 62
     0
 10
239.846
 20
161.248
 30
0.0
 11
240.079
 21
161.017
 31
0.0
  0
LINE
  8
0
 62
     0
 10
240.079
 20
161.017
 30
0.0
 11
240.371
 21
160.867
 31
0.0
  0
LINE
  8
0
 62
     0
 10
240.371
 20
160.867
 30
0.0
 11
240.696
 21
160.816
 31
0.0
  0
LINE
  8
0
 62
     0
 10
240.696
 20
160.816
 30
0.0
 11
241.02
 21
160.867
 31
0.0
  0
LINE
  8
0
 62
     0
 10
241.02
 20
160.867
 30
0.0
 11
241.314
 21
161.017
 31
0.0
  0
LINE
  8
0
 62
     0
 10
241.314
 20
161.017
 30
0.0
 11
241.545
 21
161.248
 31
0.0
  0
LINE
  8
0
 62
     0
 10
241.545
 20
161.248
 30
0.0
 11
241.694
 21
161.542
 31
0.0
  0
LINE
  8
0
 62
     0
 10
241.694
 20
161.542
 30
0.0
 11
241.747
 21
161.866
 31
0.0
  0
LINE
  8
0
 62
     0
 10
241.747
 20
161.866
 30
0.0
 11
241.694
 21
162.191
 31
0.0
  0
LINE
  8
0
 62
     0
 10
241.694
 20
162.191
 30
0.0
 11
241.545
 21
162.483
 31
0.0
  0
LINE
  8
0
 62
     0
 10
241.545
 20
162.483
 30
0.0
 11
241.314
 21
162.715
 31
0.0
  0
LINE
  8
0
 62
     0
 10
241.314
 20
162.715
 30
0.0
 11
241.02
 21
162.865
 31
0.0
  0
LINE
  8
0
 62
     0
 10
241.02
 20
162.865
 30
0.0
 11
240.696
 21
162.916
 31
0.0
  0
LINE
  8
0
 62
     0
 10
240.696
 20
162.916
 30
0.0
 11
240.371
 21
162.865
 31
0.0
  0
LINE
  8
0
 62
     0
 10
240.371
 20
241.733
 30
0.0
 11
240.079
 21
241.583
 31
0.0
  0
LINE
  8
0
 62
     0
 10
240.079
 20
241.583
 30
0.0
 11
239.846
 21
241.35
 31
0.0
  0
LINE
  8
0
 62
     0
 10
239.846
 20
241.35
 30
0.0
 11
239.697
 21
241.058
 31
0.0
  0
LINE
  8
0
 62
     0
 10
239.697
 20
241.058
 30
0.0
 11
239.647
 21
240.732
 31
0.0
  0
LINE
  8
0
 62
     0
 10
239.647
 20
240.732
 30
0.0
 11
239.697
 21
240.409
 31
0.0
  0
LINE
  8
0
 62
     0
 10
239.697
 20
240.409
 30
0.0
 11
239.846
 21
240.115
 31
0.0
  0
LINE
  8
0
 62
     0
 10
239.846
 20
240.115
 30
0.0
 11
240.079
 21
239.883
 31
0.0
  0
LINE
  8
0
 62
     0
 10
240.079
 20
239.883
 30
0.0
 11
240.371
 21
239.735
 31
0.0
  0
LINE
  8
0
 62
     0
 10
240.371
 20
239.735
 30
0.0
 11
240.696
 21
239.682
 31
0.0
  0
LINE
  8
0
 62
     0
 10
240.696
 20
239.682
 30
0.0
 11
241.02
 21
239.735
 31
0.0
  0
LINE
  8
0
 62
     0
 10
241.02
 20
239.735
 30
0.0
 11
241.314
 21
239.883
 31
0.0
  0
LINE
  8
0
 62
     0
 10
241.314
 20
239.883
 30
0.0
 11
241.545
 21
240.115
 31
0.0
  0
LINE
  8
0
 62
     0
 10
241.545
 20
240.115
 30
0.0
 11
241.694
 21
240.409
 31
0.0
  0
LINE
  8
0
 62
     0
 10
241.694
 20
240.409
 30
0.0
 11
241.747
 21
240.732
 31
0.0
  0
LINE
  8
0
 62
     0
 10
241.747
 20
240.732
 30
0.0
 11
241.694
 21
241.058
 31
0.0
  0
LINE
  8
0
 62
     0
 10
241.694
 20
241.058
 30
0.0
 11
241.545
 21
241.35
 31
0.0
  0
LINE
  8
0
 62
     0
 10
241.545
 20
241.35
 30
0.0
 11
241.314
 21
241.583
 31
0.0
  0
LINE
  8
0
 62
     0
 10
241.314
 20
241.583
 30
0.0
 11
241.02
 21
241.733
 31
0.0
  0
LINE
  8
0
 62
     0
 10
241.02
 20
241.733
 30
0.0
 11
240.696
 21
241.782
 31
0.0
  0
LINE
  8
0
 62
     0
 10
240.696
 20
241.782
 30
0.0
 11
240.371
 21
241.733
 31
0.0
  0
LINE
  8
0
 62
     0
 10
161.505
 20
241.733
 30
0.0
 11
161.211
 21
241.583
 31
0.0
  0
LINE
  8
0
 62
     0
 10
161.211
 20
241.583
 30
0.0
 11
160.98
 21
241.35
 31
0.0
  0
LINE
  8
0
 62
     0
 10
160.98
 20
241.35
 30
0.0
 11
160.831
 21
241.058
 31
0.0
  0
LINE
  8
0
 62
     0
 10
160.831
 20
241.058
 30
0.0
 11
160.78
 21
240.732
 31
0.0
  0
LINE
  8
0
 62
     0
 10
160.78
 20
240.732
 30
0.0
 11
160.831
 21
240.409
 31
0.0
  0
LINE
  8
0
 62
     0
 10
160.831
 20
240.409
 30
0.0
 11
160.98
 21
240.115
 31
0.0
  0
LINE
  8
0
 62
     0
 10
160.98
 20
240.115
 30
0.0
 11
161.211
 21
239.883
 31
0.0
  0
LINE
  8
0
 62
     0
 10
161.211
 20
239.883
 30
0.0
 11
161.505
 21
239.735
 31
0.0
  0
LINE
  8
0
 62
     0
 10
161.505
 20
239.735
 30
0.0
 11
161.83
 21
239.682
 31
0.0
  0
LINE
  8
0
 62
     0
 10
161.83
 20
239.682
 30
0.0
 11
162.154
 21
239.735
 31
0.0
  0
LINE
  8
0
 62
     0
 10
162.154
 20
239.735
 30
0.0
 11
162.446
 21
239.883
 31
0.0
  0
LINE
  8
0
 62
     0
 10
162.446
 20
239.883
 30
0.0
 11
162.679
 21
240.115
 31
0.0
  0
LINE
  8
0
 62
     0
 10
162.679
 20
240.115
 30
0.0
 11
162.828
 21
240.409
 31
0.0
  0
LINE
  8
0
 62
     0
 10
162.828
 20
240.409
 30
0.0
 11
162.88
 21
240.732
 31
0.0
  0
LINE
  8
0
 62
     0
 10
162.88
 20
240.732
 30
0.0
 11
162.828
 21
241.058
 31
0.0
  0
LINE
  8
0
 62
     0
 10
162.828
 20
241.058
 30
0.0
 11
162.679
 21
241.35
 31
0.0
  0
LINE
  8
0
 62
     0
 10
162.679
 20
241.35
 30
0.0
 11
162.446
 21
241.583
 31
0.0
  0
LINE
  8
0
 62
     0
 10
162.446
 20
241.583
 30
0.0
 11
162.154
 21
241.733
 31
0.0
  0
LINE
  8
0
 62
     0
 10
162.154
 20
241.733
 30
0.0
 11
161.83
 21
241.782
 31
0.0
  0
LINE
  8
0
 62
     0
 10
161.83
 20
241.782
 30
0.0
 11
161.505
 21
241.733
 31
0.0
  0
LINE
  8
0
 62
     0
 10
82.6368
 20
241.733
 30
0.0
 11
82.3447
 21
241.583
 31
0.0
  0
LINE
  8
0
 62
     0
 10
82.3447
 20
241.583
 30
0.0
 11
82.1133
 21
241.35
 31
0.0
  0
LINE
  8
0
 62
     0
 10
82.1133
 20
241.35
 30
0.0
 11
81.963
 21
241.058
 31
0.0
  0
LINE
  8
0
 62
     0
 10
81.963
 20
241.058
 30
0.0
 11
81.9118
 21
240.732
 31
0.0
  0
LINE
  8
0
 62
     0
 10
81.9118
 20
240.732
 30
0.0
 11
81.963
 21
240.409
 31
0.0
  0
LINE
  8
0
 62
     0
 10
81.963
 20
240.409
 30
0.0
 11
82.1133
 21
240.115
 31
0.0
  0
LINE
  8
0
 62
     0
 10
82.1133
 20
240.115
 30
0.0
 11
82.3447
 21
239.883
 31
0.0
  0
LINE
  8
0
 62
     0
 10
82.3447
 20
239.883
 30
0.0
 11
82.6368
 21
239.735
 31
0.0
  0
LINE
  8
0
 62
     0
 10
82.6368
 20
239.735
 30
0.0
 11
82.962
 21
239.682
 31
0.0
  0
LINE
  8
0
 62
     0
 10
82.962
 20
239.682
 30
0.0
 11
83.2859
 21
239.735
 31
0.0
  0
LINE
  8
0
 62
     0
 10
83.2859
 20
239.735
 30
0.0
 11
83.5794
 21
239.883
 31
0.0
  0
LINE
  8
0
 62
     0
 10
83.5794
 20
239.883
 30
0.0
 11
83.8108
 21
240.115
 31
0.0
  0
LINE
  8
0
 62
     0
 10
83.8108
 20
240.115
 30
0.0
 11
83.9611
 21
240.409
 31
0.0
  0
LINE
  8
0
 62
     0
 10
83.9611
 20
240.409
 30
0.0
 11
84.0123
 21
240.732
 31
0.0
  0
LINE
  8
0
 62
     0
 10
84.0123
 20
240.732
 30
0.0
 11
83.9611
 21
241.058
 31
0.0
  0
LINE
  8
0
 62
     0
 10
83.9611
 20
241.058
 30
0.0
 11
83.8108
 21
241.35
 31
0.0
  0
LINE
  8
0
 62
     0
 10
83.8108
 20
241.35
 30
0.0
 11
83.5794
 21
241.583
 31
0.0
  0
LINE
  8
0
 62
     0
 10
83.5794
 20
241.583
 30
0.0
 11
83.2859
 21
241.733
 31
0.0
  0
LINE
  8
0
 62
     0
 10
83.2859
 20
241.733
 30
0.0
 11
82.962
 21
241.782
 31
0.0
  0
LINE
  8
0
 62
     0
 10
82.962
 20
241.782
 30
0.0
 11
82.6368
 21
241.733
 31
0.0
  0
LINE
  8
0
 62
     0
 10
3.77031
 20
241.733
 30
0.0
 11
3.47817
 21
241.583
 31
0.0
  0
LINE
  8
0
 62
     0
 10
3.47817
 20
241.583
 30
0.0
 11
3.24528
 21
241.35
 31
0.0
  0
LINE
  8
0
 62
     0
 10
3.24528
 20
241.35
 30
0.0
 11
3.09507
 21
241.058
 31
0.0
  0
LINE
  8
0
 62
     0
 10
3.09507
 20
241.058
 30
0.0
 11
3.04409
 21
240.734
 31
0.0
  0
LINE
  8
0
 62
     0
 10
3.04409
 20
240.734
 30
0.0
 11
3.09507
 21
240.409
 31
0.0
  0
LINE
  8
0
 62
     0
 10
3.09507
 20
240.409
 30
0.0
 11
3.24528
 21
240.115
 31
0.0
  0
LINE
  8
0
 62
     0
 10
3.24528
 20
240.115
 30
0.0
 11
3.47817
 21
239.883
 31
0.0
  0
LINE
  8
0
 62
     0
 10
3.47817
 20
239.883
 30
0.0
 11
3.77031
 21
239.735
 31
0.0
  0
LINE
  8
0
 62
     0
 10
3.77031
 20
239.735
 30
0.0
 11
4.09554
 21
239.684
 31
0.0
  0
LINE
  8
0
 62
     0
 10
4.09554
 20
239.684
 30
0.0
 11
4.41935
 21
239.735
 31
0.0
  0
LINE
  8
0
 62
     0
 10
4.41935
 20
239.735
 30
0.0
 11
4.7129
 21
239.883
 31
0.0
  0
LINE
  8
0
 62
     0
 10
4.7129
 20
239.883
 30
0.0
 11
4.94439
 21
240.115
 31
0.0
  0
LINE
  8
0
 62
     0
 10
4.94439
 20
240.115
 30
0.0
 11
5.09323
 21
240.409
 31
0.0
  0
LINE
  8
0
 62
     0
 10
5.09323
 20
240.409
 30
0.0
 11
5.14558
 21
240.734
 31
0.0
  0
LINE
  8
0
 62
     0
 10
5.14558
 20
240.734
 30
0.0
 11
5.09323
 21
241.058
 31
0.0
  0
LINE
  8
0
 62
     0
 10
5.09323
 20
241.058
 30
0.0
 11
4.94439
 21
241.35
 31
0.0
  0
LINE
  8
0
 62
     0
 10
4.94439
 20
241.35
 30
0.0
 11
4.7129
 21
241.583
 31
0.0
  0
LINE
  8
0
 62
     0
 10
4.7129
 20
241.583
 30
0.0
 11
4.41935
 21
241.733
 31
0.0
  0
LINE
  8
0
 62
     0
 10
4.41935
 20
241.733
 30
0.0
 11
4.09554
 21
241.784
 31
0.0
  0
LINE
  8
0
 62
     0
 10
4.09554
 20
241.784
 30
0.0
 11
3.77031
 21
241.733
 31
0.0
  0
ENDSEC
  0
EOF
