  0
SECTION
  2
HEADER
  9
$ACADVER
  1
AC1009
  9
$EXTMIN
 10
0.0
 20
0.0
 30
0.0
  9
$EXTMAX
 10
1000.0
 20
1000.0
 30
0.0
  9
$FILLMODE
 70
 0
  9
$SPLFRAME
 70
 1
  0
ENDSEC
  0
SECTION
  2
TABLES
  0
TABLE
  2
LAYER
 70
1
  0
LAYER
  2
0
 70
     0
 62
     7
  6
CONTINUOUS
  0
ENDTAB
  0
ENDSEC
  0
SECTION
  2
ENTITIES
  0
LINE
  8
0
 62
     0
 10
117.395
 20
236.732
 30
0.0
 11
8.09597
 21
236.732
 31
0.0
  0
LINE
  8
0
 62
     0
 10
8.09597
 20
236.732
 30
0.0
 11
8.09597
 21
8.13181
 31
0.0
  0
LINE
  8
0
 62
     0
 10
8.09597
 20
8.13181
 30
0.0
 11
236.696
 21
8.13181
 31
0.0
  0
LINE
  8
0
 62
     0
 10
236.696
 20
8.13181
 30
0.0
 11
236.696
 21
236.732
 31
0.0
  0
LINE
  8
0
 62
     0
 10
236.696
 20
236.732
 30
0.0
 11
127.395
 21
236.732
 31
0.0
  0
LINE
  8
0
 62
     0
 10
127.395
 20
236.732
 30
0.0
 11
127.395
 21
244.733
 31
0.0
  0
LINE
  8
0
 62
     0
 10
127.395
 20
244.733
 30
0.0
 11
241.697
 21
244.733
 31
0.0
  0
LINE
  8
0
 62
     0
 10
241.697
 20
244.733
 30
0.0
 11
241.931
 21
244.723
 31
0.0
  0
LINE
  8
0
 62
     0
 10
241.931
 20
244.723
 30
0.0
 11
242.165
 21
244.697
 31
0.0
  0
LINE
  8
0
 62
     0
 10
242.165
 20
244.697
 30
0.0
 11
242.397
 21
244.65
 31
0.0
  0
LINE
  8
0
 62
     0
 10
242.397
 20
244.65
 30
0.0
 11
242.623
 21
244.586
 31
0.0
  0
LINE
  8
0
 62
     0
 10
242.623
 20
244.586
 30
0.0
 11
242.845
 21
244.504
 31
0.0
  0
LINE
  8
0
 62
     0
 10
242.845
 20
244.504
 30
0.0
 11
243.057
 21
244.406
 31
0.0
  0
LINE
  8
0
 62
     0
 10
243.057
 20
244.406
 30
0.0
 11
243.264
 21
244.29
 31
0.0
  0
LINE
  8
0
 62
     0
 10
243.264
 20
244.29
 30
0.0
 11
243.459
 21
244.161
 31
0.0
  0
LINE
  8
0
 62
     0
 10
243.459
 20
244.161
 30
0.0
 11
243.644
 21
244.015
 31
0.0
  0
LINE
  8
0
 62
     0
 10
243.644
 20
244.015
 30
0.0
 11
243.818
 21
243.855
 31
0.0
  0
LINE
  8
0
 62
     0
 10
243.818
 20
243.855
 30
0.0
 11
243.978
 21
243.681
 31
0.0
  0
LINE
  8
0
 62
     0
 10
243.978
 20
243.681
 30
0.0
 11
244.124
 21
243.497
 31
0.0
  0
LINE
  8
0
 62
     0
 10
244.124
 20
243.497
 30
0.0
 11
244.253
 21
243.301
 31
0.0
  0
LINE
  8
0
 62
     0
 10
244.253
 20
243.301
 30
0.0
 11
244.369
 21
243.094
 31
0.0
  0
LINE
  8
0
 62
     0
 10
244.369
 20
243.094
 30
0.0
 11
244.468
 21
242.88
 31
0.0
  0
LINE
  8
0
 62
     0
 10
244.468
 20
242.88
 30
0.0
 11
244.549
 21
242.66
 31
0.0
  0
LINE
  8
0
 62
     0
 10
244.549
 20
242.66
 30
0.0
 11
244.613
 21
242.433
 31
0.0
  0
LINE
  8
0
 62
     0
 10
244.613
 20
242.433
 30
0.0
 11
244.66
 21
242.203
 31
0.0
  0
LINE
  8
0
 62
     0
 10
244.66
 20
242.203
 30
0.0
 11
244.686
 21
241.969
 31
0.0
  0
LINE
  8
0
 62
     0
 10
244.686
 20
241.969
 30
0.0
 11
244.697
 21
241.733
 31
0.0
  0
LINE
  8
0
 62
     0
 10
244.697
 20
241.733
 30
0.0
 11
244.697
 21
3.1309
 31
0.0
  0
LINE
  8
0
 62
     0
 10
244.697
 20
3.1309
 30
0.0
 11
244.686
 21
2.89664
 31
0.0
  0
LINE
  8
0
 62
     0
 10
244.686
 20
2.89664
 30
0.0
 11
244.66
 21
2.66237
 31
0.0
  0
LINE
  8
0
 62
     0
 10
244.66
 20
2.66237
 30
0.0
 11
244.613
 21
2.43086
 31
0.0
  0
LINE
  8
0
 62
     0
 10
244.613
 20
2.43086
 30
0.0
 11
244.549
 21
2.20486
 31
0.0
  0
LINE
  8
0
 62
     0
 10
244.549
 20
2.20486
 30
0.0
 11
244.468
 21
1.983
 31
0.0
  0
LINE
  8
0
 62
     0
 10
244.468
 20
1.983
 30
0.0
 11
244.369
 21
1.77078
 31
0.0
  0
LINE
  8
0
 62
     0
 10
244.369
 20
1.77078
 30
0.0
 11
244.253
 21
1.56407
 31
0.0
  0
LINE
  8
0
 62
     0
 10
244.253
 20
1.56407
 30
0.0
 11
244.124
 21
1.36839
 31
0.0
  0
LINE
  8
0
 62
     0
 10
244.124
 20
1.36839
 30
0.0
 11
243.978
 21
1.18374
 31
0.0
  0
LINE
  8
0
 62
     0
 10
243.978
 20
1.18374
 30
0.0
 11
243.818
 21
1.0101
 31
0.0
  0
LINE
  8
0
 62
     0
 10
243.818
 20
1.0101
 30
0.0
 11
243.644
 21
0.850251
 31
0.0
  0
LINE
  8
0
 62
     0
 10
243.644
 20
0.850251
 30
0.0
 11
243.459
 21
0.704176
 31
0.0
  0
LINE
  8
0
 62
     0
 10
243.459
 20
0.704176
 30
0.0
 11
243.264
 21
0.574643
 31
0.0
  0
LINE
  8
0
 62
     0
 10
243.264
 20
0.574643
 30
0.0
 11
243.057
 21
0.458886
 31
0.0
  0
LINE
  8
0
 62
     0
 10
243.057
 20
0.458886
 30
0.0
 11
242.845
 21
0.359668
 31
0.0
  0
LINE
  8
0
 62
     0
 10
242.845
 20
0.359668
 30
0.0
 11
242.623
 21
0.278364
 31
0.0
  0
LINE
  8
0
 62
     0
 10
242.623
 20
0.278364
 30
0.0
 11
242.397
 21
0.214974
 31
0.0
  0
LINE
  8
0
 62
     0
 10
242.397
 20
0.214974
 30
0.0
 11
242.165
 21
0.168121
 31
0.0
  0
LINE
  8
0
 62
     0
 10
242.165
 20
0.168121
 30
0.0
 11
241.931
 21
0.141938
 31
0.0
  0
LINE
  8
0
 62
     0
 10
241.931
 20
0.141938
 30
0.0
 11
241.697
 21
0.130914
 31
0.0
  0
LINE
  8
0
 62
     0
 10
241.697
 20
0.130914
 30
0.0
 11
3.09507
 21
0.130914
 31
0.0
  0
LINE
  8
0
 62
     0
 10
3.09507
 20
0.130914
 30
0.0
 11
2.85943
 21
0.141938
 31
0.0
  0
LINE
  8
0
 62
     0
 10
2.85943
 20
0.141938
 30
0.0
 11
2.62516
 21
0.168121
 31
0.0
  0
LINE
  8
0
 62
     0
 10
2.62516
 20
0.168121
 30
0.0
 11
2.39503
 21
0.214974
 31
0.0
  0
LINE
  8
0
 62
     0
 10
2.39503
 20
0.214974
 30
0.0
 11
2.16765
 21
0.278364
 31
0.0
  0
LINE
  8
0
 62
     0
 10
2.16765
 20
0.278364
 30
0.0
 11
1.94717
 21
0.359668
 31
0.0
  0
LINE
  8
0
 62
     0
 10
1.94717
 20
0.359668
 30
0.0
 11
1.73357
 21
0.458886
 31
0.0
  0
LINE
  8
0
 62
     0
 10
1.73357
 20
0.458886
 30
0.0
 11
1.52687
 21
0.574643
 31
0.0
  0
LINE
  8
0
 62
     0
 10
1.52687
 20
0.574643
 30
0.0
 11
1.33119
 21
0.704176
 31
0.0
  0
LINE
  8
0
 62
     0
 10
1.33119
 20
0.704176
 30
0.0
 11
1.14653
 21
0.850251
 31
0.0
  0
LINE
  8
0
 62
     0
 10
1.14653
 20
0.850251
 30
0.0
 11
0.972894
 21
1.0101
 31
0.0
  0
LINE
  8
0
 62
     0
 10
0.972894
 20
1.0101
 30
0.0
 11
0.813043
 21
1.18374
 31
0.0
  0
LINE
  8
0
 62
     0
 10
0.813043
 20
1.18374
 30
0.0
 11
0.666972
 21
1.36839
 31
0.0
  0
LINE
  8
0
 62
     0
 10
0.666972
 20
1.36839
 30
0.0
 11
0.537436
 21
1.56407
 31
0.0
  0
LINE
  8
0
 62
     0
 10
0.537436
 20
1.56407
 30
0.0
 11
0.421679
 21
1.77078
 31
0.0
  0
LINE
  8
0
 62
     0
 10
0.421679
 20
1.77078
 30
0.0
 11
0.323839
 21
1.983
 31
0.0
  0
LINE
  8
0
 62
     0
 10
0.323839
 20
1.983
 30
0.0
 11
0.241157
 21
2.20486
 31
0.0
  0
LINE
  8
0
 62
     0
 10
0.241157
 20
2.20486
 30
0.0
 11
0.177767
 21
2.43086
 31
0.0
  0
LINE
  8
0
 62
     0
 10
0.177767
 20
2.43086
 30
0.0
 11
0.130914
 21
2.66237
 31
0.0
  0
LINE
  8
0
 62
     0
 10
0.130914
 20
2.66237
 30
0.0
 11
0.104731
 21
2.89664
 31
0.0
  0
LINE
  8
0
 62
     0
 10
0.104731
 20
2.89664
 30
0.0
 11
0.0950846
 21
3.13228
 31
0.0
  0
LINE
  8
0
 62
     0
 10
0.0950846
 20
3.13228
 30
0.0
 11
0.0950846
 21
241.733
 31
0.0
  0
LINE
  8
0
 62
     0
 10
0.0950846
 20
241.733
 30
0.0
 11
0.104731
 21
241.969
 31
0.0
  0
LINE
  8
0
 62
     0
 10
0.104731
 20
241.969
 30
0.0
 11
0.130914
 21
242.203
 31
0.0
  0
LINE
  8
0
 62
     0
 10
0.130914
 20
242.203
 30
0.0
 11
0.177767
 21
242.433
 31
0.0
  0
LINE
  8
0
 62
     0
 10
0.177767
 20
242.433
 30
0.0
 11
0.241157
 21
242.66
 31
0.0
  0
LINE
  8
0
 62
     0
 10
0.241157
 20
242.66
 30
0.0
 11
0.323839
 21
242.88
 31
0.0
  0
LINE
  8
0
 62
     0
 10
0.323839
 20
242.88
 30
0.0
 11
0.421679
 21
243.094
 31
0.0
  0
LINE
  8
0
 62
     0
 10
0.421679
 20
243.094
 30
0.0
 11
0.537436
 21
243.301
 31
0.0
  0
LINE
  8
0
 62
     0
 10
0.537436
 20
243.301
 30
0.0
 11
0.666972
 21
243.497
 31
0.0
  0
LINE
  8
0
 62
     0
 10
0.666972
 20
243.497
 30
0.0
 11
0.813043
 21
243.681
 31
0.0
  0
LINE
  8
0
 62
     0
 10
0.813043
 20
243.681
 30
0.0
 11
0.972894
 21
243.855
 31
0.0
  0
LINE
  8
0
 62
     0
 10
0.972894
 20
243.855
 30
0.0
 11
1.14653
 21
244.015
 31
0.0
  0
LINE
  8
0
 62
     0
 10
1.14653
 20
244.015
 30
0.0
 11
1.33119
 21
244.161
 31
0.0
  0
LINE
  8
0
 62
     0
 10
1.33119
 20
244.161
 30
0.0
 11
1.52687
 21
244.29
 31
0.0
  0
LINE
  8
0
 62
     0
 10
1.52687
 20
244.29
 30
0.0
 11
1.73357
 21
244.406
 31
0.0
  0
LINE
  8
0
 62
     0
 10
1.73357
 20
244.406
 30
0.0
 11
1.94717
 21
244.504
 31
0.0
  0
LINE
  8
0
 62
     0
 10
1.94717
 20
244.504
 30
0.0
 11
2.16765
 21
244.586
 31
0.0
  0
LINE
  8
0
 62
     0
 10
2.16765
 20
244.586
 30
0.0
 11
2.39503
 21
244.65
 31
0.0
  0
LINE
  8
0
 62
     0
 10
2.39503
 20
244.65
 30
0.0
 11
2.62516
 21
244.697
 31
0.0
  0
LINE
  8
0
 62
     0
 10
2.62516
 20
244.697
 30
0.0
 11
2.85943
 21
244.723
 31
0.0
  0
LINE
  8
0
 62
     0
 10
2.85943
 20
244.723
 30
0.0
 11
3.09507
 21
244.733
 31
0.0
  0
LINE
  8
0
 62
     0
 10
3.09507
 20
244.733
 30
0.0
 11
117.395
 21
244.733
 31
0.0
  0
LINE
  8
0
 62
     0
 10
117.395
 20
244.733
 30
0.0
 11
117.395
 21
236.732
 31
0.0
  0
LINE
  8
0
 62
     0
 10
3.61597
 20
5.60585
 30
0.0
 11
3.18189
 21
5.38536
 31
0.0
  0
LINE
  8
0
 62
     0
 10
3.18189
 20
5.38536
 30
0.0
 11
2.84152
 21
5.04363
 31
0.0
  0
LINE
  8
0
 62
     0
 10
2.84152
 20
5.04363
 30
0.0
 11
2.62103
 21
4.61091
 31
0.0
  0
LINE
  8
0
 62
     0
 10
2.62103
 20
4.61091
 30
0.0
 11
2.54524
 21
4.13135
 31
0.0
  0
LINE
  8
0
 62
     0
 10
2.54524
 20
4.13135
 30
0.0
 11
2.62103
 21
3.65319
 31
0.0
  0
LINE
  8
0
 62
     0
 10
2.62103
 20
3.65319
 30
0.0
 11
2.84152
 21
3.22048
 31
0.0
  0
LINE
  8
0
 62
     0
 10
2.84152
 20
3.22048
 30
0.0
 11
3.18189
 21
2.87872
 31
0.0
  0
LINE
  8
0
 62
     0
 10
3.18189
 20
2.87872
 30
0.0
 11
3.61597
 21
2.65686
 31
0.0
  0
LINE
  8
0
 62
     0
 10
3.61597
 20
2.65686
 30
0.0
 11
4.09554
 21
2.58107
 31
0.0
  0
LINE
  8
0
 62
     0
 10
4.09554
 20
2.58107
 30
0.0
 11
4.57369
 21
2.65686
 31
0.0
  0
LINE
  8
0
 62
     0
 10
4.57369
 20
2.65686
 30
0.0
 11
5.00641
 21
2.87872
 31
0.0
  0
LINE
  8
0
 62
     0
 10
5.00641
 20
2.87872
 30
0.0
 11
5.34818
 21
3.22048
 31
0.0
  0
LINE
  8
0
 62
     0
 10
5.34818
 20
3.22048
 30
0.0
 11
5.57004
 21
3.65319
 31
0.0
  0
LINE
  8
0
 62
     0
 10
5.57004
 20
3.65319
 30
0.0
 11
5.64582
 21
4.13135
 31
0.0
  0
LINE
  8
0
 62
     0
 10
5.64582
 20
4.13135
 30
0.0
 11
5.57004
 21
4.61091
 31
0.0
  0
LINE
  8
0
 62
     0
 10
5.57004
 20
4.61091
 30
0.0
 11
5.34818
 21
5.04363
 31
0.0
  0
LINE
  8
0
 62
     0
 10
5.34818
 20
5.04363
 30
0.0
 11
5.00641
 21
5.38536
 31
0.0
  0
LINE
  8
0
 62
     0
 10
5.00641
 20
5.38536
 30
0.0
 11
4.57369
 21
5.60585
 31
0.0
  0
LINE
  8
0
 62
     0
 10
4.57369
 20
5.60585
 30
0.0
 11
4.09554
 21
5.68166
 31
0.0
  0
LINE
  8
0
 62
     0
 10
4.09554
 20
5.68166
 30
0.0
 11
3.61597
 21
5.60585
 31
0.0
  0
LINE
  8
0
 62
     0
 10
82.484
 20
5.60585
 30
0.0
 11
82.0512
 21
5.38536
 31
0.0
  0
LINE
  8
0
 62
     0
 10
82.0512
 20
5.38536
 30
0.0
 11
81.7079
 21
5.04363
 31
0.0
  0
LINE
  8
0
 62
     0
 10
81.7079
 20
5.04363
 30
0.0
 11
81.4874
 21
4.61091
 31
0.0
  0
LINE
  8
0
 62
     0
 10
81.4874
 20
4.61091
 30
0.0
 11
81.413
 21
4.13135
 31
0.0
  0
LINE
  8
0
 62
     0
 10
81.413
 20
4.13135
 30
0.0
 11
81.4874
 21
3.65319
 31
0.0
  0
LINE
  8
0
 62
     0
 10
81.4874
 20
3.65319
 30
0.0
 11
81.7079
 21
3.22048
 31
0.0
  0
LINE
  8
0
 62
     0
 10
81.7079
 20
3.22048
 30
0.0
 11
82.0512
 21
2.87872
 31
0.0
  0
LINE
  8
0
 62
     0
 10
82.0512
 20
2.87872
 30
0.0
 11
82.484
 21
2.65686
 31
0.0
  0
LINE
  8
0
 62
     0
 10
82.484
 20
2.65686
 30
0.0
 11
82.962
 21
2.58107
 31
0.0
  0
LINE
  8
0
 62
     0
 10
82.962
 20
2.58107
 30
0.0
 11
83.4401
 21
2.65686
 31
0.0
  0
LINE
  8
0
 62
     0
 10
83.4401
 20
2.65686
 30
0.0
 11
83.8729
 21
2.87872
 31
0.0
  0
LINE
  8
0
 62
     0
 10
83.8729
 20
2.87872
 30
0.0
 11
84.2162
 21
3.22048
 31
0.0
  0
LINE
  8
0
 62
     0
 10
84.2162
 20
3.22048
 30
0.0
 11
84.4367
 21
3.65319
 31
0.0
  0
LINE
  8
0
 62
     0
 10
84.4367
 20
3.65319
 30
0.0
 11
84.5125
 21
4.13135
 31
0.0
  0
LINE
  8
0
 62
     0
 10
84.5125
 20
4.13135
 30
0.0
 11
84.4367
 21
4.61091
 31
0.0
  0
LINE
  8
0
 62
     0
 10
84.4367
 20
4.61091
 30
0.0
 11
84.2162
 21
5.04363
 31
0.0
  0
LINE
  8
0
 62
     0
 10
84.2162
 20
5.04363
 30
0.0
 11
83.8729
 21
5.38536
 31
0.0
  0
LINE
  8
0
 62
     0
 10
83.8729
 20
5.38536
 30
0.0
 11
83.4401
 21
5.60585
 31
0.0
  0
LINE
  8
0
 62
     0
 10
83.4401
 20
5.60585
 30
0.0
 11
82.962
 21
5.68166
 31
0.0
  0
LINE
  8
0
 62
     0
 10
82.962
 20
5.68166
 30
0.0
 11
82.484
 21
5.60585
 31
0.0
  0
LINE
  8
0
 62
     0
 10
161.35
 20
5.60585
 30
0.0
 11
160.918
 21
5.38536
 31
0.0
  0
LINE
  8
0
 62
     0
 10
160.918
 20
5.38536
 30
0.0
 11
160.576
 21
5.04363
 31
0.0
  0
LINE
  8
0
 62
     0
 10
160.576
 20
5.04363
 30
0.0
 11
160.354
 21
4.61091
 31
0.0
  0
LINE
  8
0
 62
     0
 10
160.354
 20
4.61091
 30
0.0
 11
160.28
 21
4.13135
 31
0.0
  0
LINE
  8
0
 62
     0
 10
160.28
 20
4.13135
 30
0.0
 11
160.354
 21
3.65319
 31
0.0
  0
LINE
  8
0
 62
     0
 10
160.354
 20
3.65319
 30
0.0
 11
160.576
 21
3.22048
 31
0.0
  0
LINE
  8
0
 62
     0
 10
160.576
 20
3.22048
 30
0.0
 11
160.918
 21
2.87872
 31
0.0
  0
LINE
  8
0
 62
     0
 10
160.918
 20
2.87872
 30
0.0
 11
161.35
 21
2.65686
 31
0.0
  0
LINE
  8
0
 62
     0
 10
161.35
 20
2.65686
 30
0.0
 11
161.83
 21
2.58107
 31
0.0
  0
LINE
  8
0
 62
     0
 10
161.83
 20
2.58107
 30
0.0
 11
162.308
 21
2.65686
 31
0.0
  0
LINE
  8
0
 62
     0
 10
162.308
 20
2.65686
 30
0.0
 11
162.741
 21
2.87872
 31
0.0
  0
LINE
  8
0
 62
     0
 10
162.741
 20
2.87872
 30
0.0
 11
163.082
 21
3.22048
 31
0.0
  0
LINE
  8
0
 62
     0
 10
163.082
 20
3.22048
 30
0.0
 11
163.303
 21
3.65319
 31
0.0
  0
LINE
  8
0
 62
     0
 10
163.303
 20
3.65319
 30
0.0
 11
163.379
 21
4.13135
 31
0.0
  0
LINE
  8
0
 62
     0
 10
163.379
 20
4.13135
 30
0.0
 11
163.303
 21
4.61091
 31
0.0
  0
LINE
  8
0
 62
     0
 10
163.303
 20
4.61091
 30
0.0
 11
163.082
 21
5.04363
 31
0.0
  0
LINE
  8
0
 62
     0
 10
163.082
 20
5.04363
 30
0.0
 11
162.741
 21
5.38536
 31
0.0
  0
LINE
  8
0
 62
     0
 10
162.741
 20
5.38536
 30
0.0
 11
162.308
 21
5.60585
 31
0.0
  0
LINE
  8
0
 62
     0
 10
162.308
 20
5.60585
 30
0.0
 11
161.83
 21
5.68166
 31
0.0
  0
LINE
  8
0
 62
     0
 10
161.83
 20
5.68166
 30
0.0
 11
161.35
 21
5.60585
 31
0.0
  0
LINE
  8
0
 62
     0
 10
240.217
 20
5.60585
 30
0.0
 11
239.784
 21
5.38536
 31
0.0
  0
LINE
  8
0
 62
     0
 10
239.784
 20
5.38536
 30
0.0
 11
239.442
 21
5.04363
 31
0.0
  0
LINE
  8
0
 62
     0
 10
239.442
 20
5.04363
 30
0.0
 11
239.222
 21
4.61091
 31
0.0
  0
LINE
  8
0
 62
     0
 10
239.222
 20
4.61091
 30
0.0
 11
239.146
 21
4.13135
 31
0.0
  0
LINE
  8
0
 62
     0
 10
239.146
 20
4.13135
 30
0.0
 11
239.222
 21
3.65319
 31
0.0
  0
LINE
  8
0
 62
     0
 10
239.222
 20
3.65319
 30
0.0
 11
239.442
 21
3.22048
 31
0.0
  0
LINE
  8
0
 62
     0
 10
239.442
 20
3.22048
 30
0.0
 11
239.784
 21
2.87872
 31
0.0
  0
LINE
  8
0
 62
     0
 10
239.784
 20
2.87872
 30
0.0
 11
240.217
 21
2.65686
 31
0.0
  0
LINE
  8
0
 62
     0
 10
240.217
 20
2.65686
 30
0.0
 11
240.696
 21
2.58107
 31
0.0
  0
LINE
  8
0
 62
     0
 10
240.696
 20
2.58107
 30
0.0
 11
241.175
 21
2.65686
 31
0.0
  0
LINE
  8
0
 62
     0
 10
241.175
 20
2.65686
 30
0.0
 11
241.607
 21
2.87872
 31
0.0
  0
LINE
  8
0
 62
     0
 10
241.607
 20
2.87872
 30
0.0
 11
241.949
 21
3.22048
 31
0.0
  0
LINE
  8
0
 62
     0
 10
241.949
 20
3.22048
 30
0.0
 11
242.171
 21
3.65319
 31
0.0
  0
LINE
  8
0
 62
     0
 10
242.171
 20
3.65319
 30
0.0
 11
242.247
 21
4.13135
 31
0.0
  0
LINE
  8
0
 62
     0
 10
242.247
 20
4.13135
 30
0.0
 11
242.171
 21
4.61091
 31
0.0
  0
LINE
  8
0
 62
     0
 10
242.171
 20
4.61091
 30
0.0
 11
241.949
 21
5.04363
 31
0.0
  0
LINE
  8
0
 62
     0
 10
241.949
 20
5.04363
 30
0.0
 11
241.607
 21
5.38536
 31
0.0
  0
LINE
  8
0
 62
     0
 10
241.607
 20
5.38536
 30
0.0
 11
241.175
 21
5.60585
 31
0.0
  0
LINE
  8
0
 62
     0
 10
241.175
 20
5.60585
 30
0.0
 11
240.696
 21
5.68166
 31
0.0
  0
LINE
  8
0
 62
     0
 10
240.696
 20
5.68166
 30
0.0
 11
240.217
 21
5.60585
 31
0.0
  0
LINE
  8
0
 62
     0
 10
3.61597
 20
84.4737
 30
0.0
 11
3.18189
 21
84.2518
 31
0.0
  0
LINE
  8
0
 62
     0
 10
3.18189
 20
84.2518
 30
0.0
 11
2.84152
 21
83.91
 31
0.0
  0
LINE
  8
0
 62
     0
 10
2.84152
 20
83.91
 30
0.0
 11
2.62103
 21
83.4775
 31
0.0
  0
LINE
  8
0
 62
     0
 10
2.62103
 20
83.4775
 30
0.0
 11
2.54524
 21
82.9991
 31
0.0
  0
LINE
  8
0
 62
     0
 10
2.54524
 20
82.9991
 30
0.0
 11
2.62103
 21
82.5197
 31
0.0
  0
LINE
  8
0
 62
     0
 10
2.62103
 20
82.5197
 30
0.0
 11
2.84152
 21
82.0872
 31
0.0
  0
LINE
  8
0
 62
     0
 10
2.84152
 20
82.0872
 30
0.0
 11
3.18189
 21
81.7453
 31
0.0
  0
LINE
  8
0
 62
     0
 10
3.18189
 20
81.7453
 30
0.0
 11
3.61597
 21
81.5248
 31
0.0
  0
LINE
  8
0
 62
     0
 10
3.61597
 20
81.5248
 30
0.0
 11
4.09554
 21
81.449
 31
0.0
  0
LINE
  8
0
 62
     0
 10
4.09554
 20
81.449
 30
0.0
 11
4.57369
 21
81.5248
 31
0.0
  0
LINE
  8
0
 62
     0
 10
4.57369
 20
81.5248
 30
0.0
 11
5.00641
 21
81.7453
 31
0.0
  0
LINE
  8
0
 62
     0
 10
5.00641
 20
81.7453
 30
0.0
 11
5.34818
 21
82.0872
 31
0.0
  0
LINE
  8
0
 62
     0
 10
5.34818
 20
82.0872
 30
0.0
 11
5.57004
 21
82.5197
 31
0.0
  0
LINE
  8
0
 62
     0
 10
5.57004
 20
82.5197
 30
0.0
 11
5.64582
 21
82.9991
 31
0.0
  0
LINE
  8
0
 62
     0
 10
5.64582
 20
82.9991
 30
0.0
 11
5.57004
 21
83.4775
 31
0.0
  0
LINE
  8
0
 62
     0
 10
5.57004
 20
83.4775
 30
0.0
 11
5.34818
 21
83.91
 31
0.0
  0
LINE
  8
0
 62
     0
 10
5.34818
 20
83.91
 30
0.0
 11
5.00641
 21
84.2518
 31
0.0
  0
LINE
  8
0
 62
     0
 10
5.00641
 20
84.2518
 30
0.0
 11
4.57369
 21
84.4737
 31
0.0
  0
LINE
  8
0
 62
     0
 10
4.57369
 20
84.4737
 30
0.0
 11
4.09554
 21
84.5495
 31
0.0
  0
LINE
  8
0
 62
     0
 10
4.09554
 20
84.5495
 30
0.0
 11
3.61597
 21
84.4737
 31
0.0
  0
LINE
  8
0
 62
     0
 10
240.217
 20
84.4737
 30
0.0
 11
239.784
 21
84.2518
 31
0.0
  0
LINE
  8
0
 62
     0
 10
239.784
 20
84.2518
 30
0.0
 11
239.442
 21
83.91
 31
0.0
  0
LINE
  8
0
 62
     0
 10
239.442
 20
83.91
 30
0.0
 11
239.222
 21
83.4775
 31
0.0
  0
LINE
  8
0
 62
     0
 10
239.222
 20
83.4775
 30
0.0
 11
239.146
 21
82.998
 31
0.0
  0
LINE
  8
0
 62
     0
 10
239.146
 20
82.998
 30
0.0
 11
239.222
 21
82.5197
 31
0.0
  0
LINE
  8
0
 62
     0
 10
239.222
 20
82.5197
 30
0.0
 11
239.442
 21
82.0872
 31
0.0
  0
LINE
  8
0
 62
     0
 10
239.442
 20
82.0872
 30
0.0
 11
239.784
 21
81.7453
 31
0.0
  0
LINE
  8
0
 62
     0
 10
239.784
 20
81.7453
 30
0.0
 11
240.217
 21
81.5248
 31
0.0
  0
LINE
  8
0
 62
     0
 10
240.217
 20
81.5248
 30
0.0
 11
240.696
 21
81.449
 31
0.0
  0
LINE
  8
0
 62
     0
 10
240.696
 20
81.449
 30
0.0
 11
241.175
 21
81.5248
 31
0.0
  0
LINE
  8
0
 62
     0
 10
241.175
 20
81.5248
 30
0.0
 11
241.607
 21
81.7453
 31
0.0
  0
LINE
  8
0
 62
     0
 10
241.607
 20
81.7453
 30
0.0
 11
241.949
 21
82.0872
 31
0.0
  0
LINE
  8
0
 62
     0
 10
241.949
 20
82.0872
 30
0.0
 11
242.171
 21
82.5197
 31
0.0
  0
LINE
  8
0
 62
     0
 10
242.171
 20
82.5197
 30
0.0
 11
242.247
 21
82.998
 31
0.0
  0
LINE
  8
0
 62
     0
 10
242.247
 20
82.998
 30
0.0
 11
242.171
 21
83.4775
 31
0.0
  0
LINE
  8
0
 62
     0
 10
242.171
 20
83.4775
 30
0.0
 11
241.949
 21
83.91
 31
0.0
  0
LINE
  8
0
 62
     0
 10
241.949
 20
83.91
 30
0.0
 11
241.607
 21
84.2518
 31
0.0
  0
LINE
  8
0
 62
     0
 10
241.607
 20
84.2518
 30
0.0
 11
241.175
 21
84.4737
 31
0.0
  0
LINE
  8
0
 62
     0
 10
241.175
 20
84.4737
 30
0.0
 11
240.696
 21
84.5481
 31
0.0
  0
LINE
  8
0
 62
     0
 10
240.696
 20
84.5481
 30
0.0
 11
240.217
 21
84.4737
 31
0.0
  0
LINE
  8
0
 62
     0
 10
3.61597
 20
163.34
 30
0.0
 11
3.18189
 21
163.12
 31
0.0
  0
LINE
  8
0
 62
     0
 10
3.18189
 20
163.12
 30
0.0
 11
2.84152
 21
162.777
 31
0.0
  0
LINE
  8
0
 62
     0
 10
2.84152
 20
162.777
 30
0.0
 11
2.62103
 21
162.344
 31
0.0
  0
LINE
  8
0
 62
     0
 10
2.62103
 20
162.344
 30
0.0
 11
2.54524
 21
161.866
 31
0.0
  0
LINE
  8
0
 62
     0
 10
2.54524
 20
161.866
 30
0.0
 11
2.62103
 21
161.388
 31
0.0
  0
LINE
  8
0
 62
     0
 10
2.62103
 20
161.388
 30
0.0
 11
2.84152
 21
160.955
 31
0.0
  0
LINE
  8
0
 62
     0
 10
2.84152
 20
160.955
 30
0.0
 11
3.18189
 21
160.612
 31
0.0
  0
LINE
  8
0
 62
     0
 10
3.18189
 20
160.612
 30
0.0
 11
3.61597
 21
160.391
 31
0.0
  0
LINE
  8
0
 62
     0
 10
3.61597
 20
160.391
 30
0.0
 11
4.09554
 21
160.316
 31
0.0
  0
LINE
  8
0
 62
     0
 10
4.09554
 20
160.316
 30
0.0
 11
4.57369
 21
160.391
 31
0.0
  0
LINE
  8
0
 62
     0
 10
4.57369
 20
160.391
 30
0.0
 11
5.00641
 21
160.612
 31
0.0
  0
LINE
  8
0
 62
     0
 10
5.00641
 20
160.612
 30
0.0
 11
5.34818
 21
160.955
 31
0.0
  0
LINE
  8
0
 62
     0
 10
5.34818
 20
160.955
 30
0.0
 11
5.57004
 21
161.388
 31
0.0
  0
LINE
  8
0
 62
     0
 10
5.57004
 20
161.388
 30
0.0
 11
5.64582
 21
161.866
 31
0.0
  0
LINE
  8
0
 62
     0
 10
5.64582
 20
161.866
 30
0.0
 11
5.57004
 21
162.344
 31
0.0
  0
LINE
  8
0
 62
     0
 10
5.57004
 20
162.344
 30
0.0
 11
5.34818
 21
162.777
 31
0.0
  0
LINE
  8
0
 62
     0
 10
5.34818
 20
162.777
 30
0.0
 11
5.00641
 21
163.12
 31
0.0
  0
LINE
  8
0
 62
     0
 10
5.00641
 20
163.12
 30
0.0
 11
4.57369
 21
163.34
 31
0.0
  0
LINE
  8
0
 62
     0
 10
4.57369
 20
163.34
 30
0.0
 11
4.09554
 21
163.416
 31
0.0
  0
LINE
  8
0
 62
     0
 10
4.09554
 20
163.416
 30
0.0
 11
3.61597
 21
163.34
 31
0.0
  0
LINE
  8
0
 62
     0
 10
240.217
 20
163.34
 30
0.0
 11
239.784
 21
163.12
 31
0.0
  0
LINE
  8
0
 62
     0
 10
239.784
 20
163.12
 30
0.0
 11
239.442
 21
162.777
 31
0.0
  0
LINE
  8
0
 62
     0
 10
239.442
 20
162.777
 30
0.0
 11
239.222
 21
162.344
 31
0.0
  0
LINE
  8
0
 62
     0
 10
239.222
 20
162.344
 30
0.0
 11
239.146
 21
161.866
 31
0.0
  0
LINE
  8
0
 62
     0
 10
239.146
 20
161.866
 30
0.0
 11
239.222
 21
161.388
 31
0.0
  0
LINE
  8
0
 62
     0
 10
239.222
 20
161.388
 30
0.0
 11
239.442
 21
160.955
 31
0.0
  0
LINE
  8
0
 62
     0
 10
239.442
 20
160.955
 30
0.0
 11
239.784
 21
160.612
 31
0.0
  0
LINE
  8
0
 62
     0
 10
239.784
 20
160.612
 30
0.0
 11
240.217
 21
160.391
 31
0.0
  0
LINE
  8
0
 62
     0
 10
240.217
 20
160.391
 30
0.0
 11
240.696
 21
160.316
 31
0.0
  0
LINE
  8
0
 62
     0
 10
240.696
 20
160.316
 30
0.0
 11
241.175
 21
160.391
 31
0.0
  0
LINE
  8
0
 62
     0
 10
241.175
 20
160.391
 30
0.0
 11
241.607
 21
160.612
 31
0.0
  0
LINE
  8
0
 62
     0
 10
241.607
 20
160.612
 30
0.0
 11
241.949
 21
160.955
 31
0.0
  0
LINE
  8
0
 62
     0
 10
241.949
 20
160.955
 30
0.0
 11
242.171
 21
161.388
 31
0.0
  0
LINE
  8
0
 62
     0
 10
242.171
 20
161.388
 30
0.0
 11
242.247
 21
161.866
 31
0.0
  0
LINE
  8
0
 62
     0
 10
242.247
 20
161.866
 30
0.0
 11
242.171
 21
162.344
 31
0.0
  0
LINE
  8
0
 62
     0
 10
242.171
 20
162.344
 30
0.0
 11
241.949
 21
162.777
 31
0.0
  0
LINE
  8
0
 62
     0
 10
241.949
 20
162.777
 30
0.0
 11
241.607
 21
163.12
 31
0.0
  0
LINE
  8
0
 62
     0
 10
241.607
 20
163.12
 30
0.0
 11
241.175
 21
163.34
 31
0.0
  0
LINE
  8
0
 62
     0
 10
241.175
 20
163.34
 30
0.0
 11
240.696
 21
163.415
 31
0.0
  0
LINE
  8
0
 62
     0
 10
240.696
 20
163.415
 30
0.0
 11
240.217
 21
163.34
 31
0.0
  0
LINE
  8
0
 62
     0
 10
240.217
 20
242.207
 30
0.0
 11
239.784
 21
241.986
 31
0.0
  0
LINE
  8
0
 62
     0
 10
239.784
 20
241.986
 30
0.0
 11
239.442
 21
241.646
 31
0.0
  0
LINE
  8
0
 62
     0
 10
239.442
 20
241.646
 30
0.0
 11
239.222
 21
241.212
 31
0.0
  0
LINE
  8
0
 62
     0
 10
239.222
 20
241.212
 30
0.0
 11
239.146
 21
240.732
 31
0.0
  0
LINE
  8
0
 62
     0
 10
239.146
 20
240.732
 30
0.0
 11
239.222
 21
240.254
 31
0.0
  0
LINE
  8
0
 62
     0
 10
239.222
 20
240.254
 30
0.0
 11
239.442
 21
239.822
 31
0.0
  0
LINE
  8
0
 62
     0
 10
239.442
 20
239.822
 30
0.0
 11
239.784
 21
239.48
 31
0.0
  0
LINE
  8
0
 62
     0
 10
239.784
 20
239.48
 30
0.0
 11
240.217
 21
239.258
 31
0.0
  0
LINE
  8
0
 62
     0
 10
240.217
 20
239.258
 30
0.0
 11
240.696
 21
239.182
 31
0.0
  0
LINE
  8
0
 62
     0
 10
240.696
 20
239.182
 30
0.0
 11
241.175
 21
239.258
 31
0.0
  0
LINE
  8
0
 62
     0
 10
241.175
 20
239.258
 30
0.0
 11
241.607
 21
239.48
 31
0.0
  0
LINE
  8
0
 62
     0
 10
241.607
 20
239.48
 30
0.0
 11
241.949
 21
239.822
 31
0.0
  0
LINE
  8
0
 62
     0
 10
241.949
 20
239.822
 30
0.0
 11
242.171
 21
240.254
 31
0.0
  0
LINE
  8
0
 62
     0
 10
242.171
 20
240.254
 30
0.0
 11
242.247
 21
240.732
 31
0.0
  0
LINE
  8
0
 62
     0
 10
242.247
 20
240.732
 30
0.0
 11
242.171
 21
241.212
 31
0.0
  0
LINE
  8
0
 62
     0
 10
242.171
 20
241.212
 30
0.0
 11
241.949
 21
241.646
 31
0.0
  0
LINE
  8
0
 62
     0
 10
241.949
 20
241.646
 30
0.0
 11
241.607
 21
241.986
 31
0.0
  0
LINE
  8
0
 62
     0
 10
241.607
 20
241.986
 30
0.0
 11
241.175
 21
242.207
 31
0.0
  0
LINE
  8
0
 62
     0
 10
241.175
 20
242.207
 30
0.0
 11
240.696
 21
242.282
 31
0.0
  0
LINE
  8
0
 62
     0
 10
240.696
 20
242.282
 30
0.0
 11
240.217
 21
242.207
 31
0.0
  0
LINE
  8
0
 62
     0
 10
161.35
 20
242.207
 30
0.0
 11
160.918
 21
241.986
 31
0.0
  0
LINE
  8
0
 62
     0
 10
160.918
 20
241.986
 30
0.0
 11
160.576
 21
241.646
 31
0.0
  0
LINE
  8
0
 62
     0
 10
160.576
 20
241.646
 30
0.0
 11
160.354
 21
241.212
 31
0.0
  0
LINE
  8
0
 62
     0
 10
160.354
 20
241.212
 30
0.0
 11
160.28
 21
240.732
 31
0.0
  0
LINE
  8
0
 62
     0
 10
160.28
 20
240.732
 30
0.0
 11
160.354
 21
240.254
 31
0.0
  0
LINE
  8
0
 62
     0
 10
160.354
 20
240.254
 30
0.0
 11
160.576
 21
239.822
 31
0.0
  0
LINE
  8
0
 62
     0
 10
160.576
 20
239.822
 30
0.0
 11
160.918
 21
239.48
 31
0.0
  0
LINE
  8
0
 62
     0
 10
160.918
 20
239.48
 30
0.0
 11
161.35
 21
239.258
 31
0.0
  0
LINE
  8
0
 62
     0
 10
161.35
 20
239.258
 30
0.0
 11
161.83
 21
239.182
 31
0.0
  0
LINE
  8
0
 62
     0
 10
161.83
 20
239.182
 30
0.0
 11
162.308
 21
239.258
 31
0.0
  0
LINE
  8
0
 62
     0
 10
162.308
 20
239.258
 30
0.0
 11
162.741
 21
239.48
 31
0.0
  0
LINE
  8
0
 62
     0
 10
162.741
 20
239.48
 30
0.0
 11
163.082
 21
239.822
 31
0.0
  0
LINE
  8
0
 62
     0
 10
163.082
 20
239.822
 30
0.0
 11
163.303
 21
240.254
 31
0.0
  0
LINE
  8
0
 62
     0
 10
163.303
 20
240.254
 30
0.0
 11
163.379
 21
240.732
 31
0.0
  0
LINE
  8
0
 62
     0
 10
163.379
 20
240.732
 30
0.0
 11
163.303
 21
241.212
 31
0.0
  0
LINE
  8
0
 62
     0
 10
163.303
 20
241.212
 30
0.0
 11
163.082
 21
241.646
 31
0.0
  0
LINE
  8
0
 62
     0
 10
163.082
 20
241.646
 30
0.0
 11
162.741
 21
241.986
 31
0.0
  0
LINE
  8
0
 62
     0
 10
162.741
 20
241.986
 30
0.0
 11
162.308
 21
242.207
 31
0.0
  0
LINE
  8
0
 62
     0
 10
162.308
 20
242.207
 30
0.0
 11
161.83
 21
242.282
 31
0.0
  0
LINE
  8
0
 62
     0
 10
161.83
 20
242.282
 30
0.0
 11
161.35
 21
242.207
 31
0.0
  0
LINE
  8
0
 62
     0
 10
82.484
 20
242.207
 30
0.0
 11
82.0512
 21
241.986
 31
0.0
  0
LINE
  8
0
 62
     0
 10
82.0512
 20
241.986
 30
0.0
 11
81.7079
 21
241.646
 31
0.0
  0
LINE
  8
0
 62
     0
 10
81.7079
 20
241.646
 30
0.0
 11
81.4874
 21
241.212
 31
0.0
  0
LINE
  8
0
 62
     0
 10
81.4874
 20
241.212
 30
0.0
 11
81.413
 21
240.732
 31
0.0
  0
LINE
  8
0
 62
     0
 10
81.413
 20
240.732
 30
0.0
 11
81.4874
 21
240.254
 31
0.0
  0
LINE
  8
0
 62
     0
 10
81.4874
 20
240.254
 30
0.0
 11
81.7079
 21
239.822
 31
0.0
  0
LINE
  8
0
 62
     0
 10
81.7079
 20
239.822
 30
0.0
 11
82.0512
 21
239.48
 31
0.0
  0
LINE
  8
0
 62
     0
 10
82.0512
 20
239.48
 30
0.0
 11
82.484
 21
239.258
 31
0.0
  0
LINE
  8
0
 62
     0
 10
82.484
 20
239.258
 30
0.0
 11
82.962
 21
239.182
 31
0.0
  0
LINE
  8
0
 62
     0
 10
82.962
 20
239.182
 30
0.0
 11
83.4401
 21
239.258
 31
0.0
  0
LINE
  8
0
 62
     0
 10
83.4401
 20
239.258
 30
0.0
 11
83.8729
 21
239.48
 31
0.0
  0
LINE
  8
0
 62
     0
 10
83.8729
 20
239.48
 30
0.0
 11
84.2162
 21
239.822
 31
0.0
  0
LINE
  8
0
 62
     0
 10
84.2162
 20
239.822
 30
0.0
 11
84.4367
 21
240.254
 31
0.0
  0
LINE
  8
0
 62
     0
 10
84.4367
 20
240.254
 30
0.0
 11
84.5125
 21
240.732
 31
0.0
  0
LINE
  8
0
 62
     0
 10
84.5125
 20
240.732
 30
0.0
 11
84.4367
 21
241.212
 31
0.0
  0
LINE
  8
0
 62
     0
 10
84.4367
 20
241.212
 30
0.0
 11
84.2162
 21
241.646
 31
0.0
  0
LINE
  8
0
 62
     0
 10
84.2162
 20
241.646
 30
0.0
 11
83.8729
 21
241.986
 31
0.0
  0
LINE
  8
0
 62
     0
 10
83.8729
 20
241.986
 30
0.0
 11
83.4401
 21
242.207
 31
0.0
  0
LINE
  8
0
 62
     0
 10
83.4401
 20
242.207
 30
0.0
 11
82.962
 21
242.282
 31
0.0
  0
LINE
  8
0
 62
     0
 10
82.962
 20
242.282
 30
0.0
 11
82.484
 21
242.207
 31
0.0
  0
LINE
  8
0
 62
     0
 10
3.61597
 20
242.207
 30
0.0
 11
3.18189
 21
241.986
 31
0.0
  0
LINE
  8
0
 62
     0
 10
3.18189
 20
241.986
 30
0.0
 11
2.84152
 21
241.646
 31
0.0
  0
LINE
  8
0
 62
     0
 10
2.84152
 20
241.646
 30
0.0
 11
2.62103
 21
241.212
 31
0.0
  0
LINE
  8
0
 62
     0
 10
2.62103
 20
241.212
 30
0.0
 11
2.54524
 21
240.734
 31
0.0
  0
LINE
  8
0
 62
     0
 10
2.54524
 20
240.734
 30
0.0
 11
2.62103
 21
240.254
 31
0.0
  0
LINE
  8
0
 62
     0
 10
2.62103
 20
240.254
 30
0.0
 11
2.84152
 21
239.822
 31
0.0
  0
LINE
  8
0
 62
     0
 10
2.84152
 20
239.822
 30
0.0
 11
3.18189
 21
239.48
 31
0.0
  0
LINE
  8
0
 62
     0
 10
3.18189
 20
239.48
 30
0.0
 11
3.61597
 21
239.258
 31
0.0
  0
LINE
  8
0
 62
     0
 10
3.61597
 20
239.258
 30
0.0
 11
4.09554
 21
239.183
 31
0.0
  0
LINE
  8
0
 62
     0
 10
4.09554
 20
239.183
 30
0.0
 11
4.57369
 21
239.258
 31
0.0
  0
LINE
  8
0
 62
     0
 10
4.57369
 20
239.258
 30
0.0
 11
5.00641
 21
239.48
 31
0.0
  0
LINE
  8
0
 62
     0
 10
5.00641
 20
239.48
 30
0.0
 11
5.34818
 21
239.822
 31
0.0
  0
LINE
  8
0
 62
     0
 10
5.34818
 20
239.822
 30
0.0
 11
5.57004
 21
240.254
 31
0.0
  0
LINE
  8
0
 62
     0
 10
5.57004
 20
240.254
 30
0.0
 11
5.64582
 21
240.734
 31
0.0
  0
LINE
  8
0
 62
     0
 10
5.64582
 20
240.734
 30
0.0
 11
5.57004
 21
241.212
 31
0.0
  0
LINE
  8
0
 62
     0
 10
5.57004
 20
241.212
 30
0.0
 11
5.34818
 21
241.646
 31
0.0
  0
LINE
  8
0
 62
     0
 10
5.34818
 20
241.646
 30
0.0
 11
5.00641
 21
241.986
 31
0.0
  0
LINE
  8
0
 62
     0
 10
5.00641
 20
241.986
 30
0.0
 11
4.57369
 21
242.207
 31
0.0
  0
LINE
  8
0
 62
     0
 10
4.57369
 20
242.207
 30
0.0
 11
4.09554
 21
242.284
 31
0.0
  0
LINE
  8
0
 62
     0
 10
4.09554
 20
242.284
 30
0.0
 11
3.61597
 21
242.207
 31
0.0
  0
ENDSEC
  0
EOF
