  0
SECTION
  2
HEADER
  9
$ACADVER
  1
AC1032
  9
$ACADMAINTVER
 90
      174
  9
$DWGCODEPAGE
  3
ANSI_936
  9
$LASTSAVEDBY
  1
xuech
  9
$REQUIREDVERSIONS
160
                 0
  9
$INSBASE
 10
0.0
 20
0.0
 30
0.0
  9
$EXTMIN
 10
-467.0416358111265
 20
-49.56182306591585
 30
0.0
  9
$EXTMAX
 10
244.697
 20
244.733
 30
0.0
  9
$LIMMIN
 10
0.0
 20
0.0
  9
$LIMMAX
 10
12.0
 20
9.0
  9
$ORTHOMODE
 70
     0
  9
$REGENMODE
 70
     1
  9
$FILLMODE
 70
     0
  9
$QTEXTMODE
 70
     0
  9
$MIRRTEXT
 70
     0
  9
$LTSCALE
 40
1.0
  9
$ATTMODE
 70
     1
  9
$TEXTSIZE
 40
0.2
  9
$TRACEWID
 40
0.05
  9
$TEXTSTYLE
  7
Standard
  9
$CLAYER
  8
0
  9
$CELTYPE
  6
Continuous
  9
$CECOLOR
 62
   256
  9
$CELTSCALE
 40
1.0
  9
$DISPSILH
 70
     0
  9
$DIMSCALE
 40
1.0
  9
$DIMASZ
 40
0.18
  9
$DIMEXO
 40
0.0625
  9
$DIMDLI
 40
0.38
  9
$DIMRND
 40
0.0
  9
$DIMDLE
 40
0.0
  9
$DIMEXE
 40
0.18
  9
$DIMTP
 40
0.0
  9
$DIMTM
 40
0.0
  9
$DIMTXT
 40
0.18
  9
$DIMCEN
 40
0.09
  9
$DIMTSZ
 40
0.0
  9
$DIMTOL
 70
     0
  9
$DIMLIM
 70
     0
  9
$DIMTIH
 70
     1
  9
$DIMTOH
 70
     1
  9
$DIMSE1
 70
     0
  9
$DIMSE2
 70
     0
  9
$DIMTAD
 70
     0
  9
$DIMZIN
 70
     0
  9
$DIMBLK
  1

  9
$DIMASO
 70
     1
  9
$DIMSHO
 70
     1
  9
$DIMPOST
  1

  9
$DIMAPOST
  1

  9
$DIMALT
 70
     0
  9
$DIMALTD
 70
     2
  9
$DIMALTF
 40
25.4
  9
$DIMLFAC
 40
1.0
  9
$DIMTOFL
 70
     0
  9
$DIMTVP
 40
0.0
  9
$DIMTIX
 70
     0
  9
$DIMSOXD
 70
     0
  9
$DIMSAH
 70
     0
  9
$DIMBLK1
  1

  9
$DIMBLK2
  1

  9
$DIMSTYLE
  2
Standard
  9
$DIMCLRD
 70
     0
  9
$DIMCLRE
 70
     0
  9
$DIMCLRT
 70
     0
  9
$DIMTFAC
 40
1.0
  9
$DIMGAP
 40
0.09
  9
$DIMJUST
 70
     0
  9
$DIMSD1
 70
     0
  9
$DIMSD2
 70
     0
  9
$DIMTOLJ
 70
     1
  9
$DIMTZIN
 70
     0
  9
$DIMALTZ
 70
     0
  9
$DIMALTTZ
 70
     0
  9
$DIMUPT
 70
     0
  9
$DIMDEC
 70
     4
  9
$DIMTDEC
 70
     4
  9
$DIMALTU
 70
     2
  9
$DIMALTTD
 70
     2
  9
$DIMTXSTY
  7
Standard
  9
$DIMAUNIT
 70
     0
  9
$DIMADEC
 70
     0
  9
$DIMALTRND
 40
0.0
  9
$DIMAZIN
 70
     0
  9
$DIMDSEP
 70
    46
  9
$DIMATFIT
 70
     3
  9
$DIMFRAC
 70
     0
  9
$DIMLDRBLK
  1

  9
$DIMLUNIT
 70
     2
  9
$DIMLWD
 70
    -2
  9
$DIMLWE
 70
    -2
  9
$DIMTMOVE
 70
     0
  9
$DIMFXL
 40
1.0
  9
$DIMFXLON
 70
     0
  9
$DIMJOGANG
 40
0.7853981633974483
  9
$DIMTFILL
 70
     0
  9
$DIMTFILLCLR
 70
     0
  9
$DIMARCSYM
 70
     0
  9
$DIMLTYPE
  6

  9
$DIMLTEX1
  6

  9
$DIMLTEX2
  6

  9
$DIMTXTDIRECTION
 70
     0
  9
$LUNITS
 70
     2
  9
$LUPREC
 70
     4
  9
$SKETCHINC
 40
0.1
  9
$FILLETRAD
 40
0.0
  9
$AUNITS
 70
     0
  9
$AUPREC
 70
     0
  9
$MENU
  1
.
  9
$ELEVATION
 40
0.0
  9
$PELEVATION
 40
0.0
  9
$THICKNESS
 40
0.0
  9
$LIMCHECK
 70
     0
  9
$CHAMFERA
 40
0.0
  9
$CHAMFERB
 40
0.0
  9
$CHAMFERC
 40
0.0
  9
$CHAMFERD
 40
0.0
  9
$SKPOLY
 70
     0
  9
$TDCREATE
 40
2459642.556770833
  9
$TDUCREATE
 40
2459642.223437501
  9
$TDUPDATE
 40
2459642.559317130
  9
$TDUUPDATE
 40
2459642.225983796
  9
$TDINDWG
 40
0.0025462963
  9
$TDUSRTIMER
 40
0.0025462963
  9
$USRTIMER
 70
     1
  9
$ANGBASE
 50
0.0
  9
$ANGDIR
 70
     0
  9
$PDMODE
 70
     0
  9
$PDSIZE
 40
0.0
  9
$PLINEWID
 40
0.0
  9
$SPLFRAME
 70
     1
  9
$SPLINETYPE
 70
     6
  9
$SPLINESEGS
 70
     8
  9
$HANDSEED
  5
5E8
  9
$SURFTAB1
 70
     6
  9
$SURFTAB2
 70
     6
  9
$SURFTYPE
 70
     6
  9
$SURFU
 70
     6
  9
$SURFV
 70
     6
  9
$UCSBASE
  2

  9
$UCSNAME
  2

  9
$UCSORG
 10
0.0
 20
0.0
 30
0.0
  9
$UCSXDIR
 10
1.0
 20
0.0
 30
0.0
  9
$UCSYDIR
 10
0.0
 20
1.0
 30
0.0
  9
$UCSORTHOREF
  2

  9
$UCSORTHOVIEW
 70
     0
  9
$UCSORGTOP
 10
0.0
 20
0.0
 30
0.0
  9
$UCSORGBOTTOM
 10
0.0
 20
0.0
 30
0.0
  9
$UCSORGLEFT
 10
0.0
 20
0.0
 30
0.0
  9
$UCSORGRIGHT
 10
0.0
 20
0.0
 30
0.0
  9
$UCSORGFRONT
 10
0.0
 20
0.0
 30
0.0
  9
$UCSORGBACK
 10
0.0
 20
0.0
 30
0.0
  9
$PUCSBASE
  2

  9
$PUCSNAME
  2

  9
$PUCSORG
 10
0.0
 20
0.0
 30
0.0
  9
$PUCSXDIR
 10
1.0
 20
0.0
 30
0.0
  9
$PUCSYDIR
 10
0.0
 20
1.0
 30
0.0
  9
$PUCSORTHOREF
  2

  9
$PUCSORTHOVIEW
 70
     0
  9
$PUCSORGTOP
 10
0.0
 20
0.0
 30
0.0
  9
$PUCSORGBOTTOM
 10
0.0
 20
0.0
 30
0.0
  9
$PUCSORGLEFT
 10
0.0
 20
0.0
 30
0.0
  9
$PUCSORGRIGHT
 10
0.0
 20
0.0
 30
0.0
  9
$PUCSORGFRONT
 10
0.0
 20
0.0
 30
0.0
  9
$PUCSORGBACK
 10
0.0
 20
0.0
 30
0.0
  9
$USERI1
 70
     0
  9
$USERI2
 70
     0
  9
$USERI3
 70
     0
  9
$USERI4
 70
     0
  9
$USERI5
 70
     0
  9
$USERR1
 40
0.0
  9
$USERR2
 40
0.0
  9
$USERR3
 40
0.0
  9
$USERR4
 40
0.0
  9
$USERR5
 40
0.0
  9
$WORLDVIEW
 70
     1
  9
$SHADEDGE
 70
     3
  9
$SHADEDIF
 70
    70
  9
$TILEMODE
 70
     1
  9
$MAXACTVP
 70
    64
  9
$PINSBASE
 10
0.0
 20
0.0
 30
0.0
  9
$PLIMCHECK
 70
     0
  9
$PEXTMIN
 10
1.000000000000000E+20
 20
1.000000000000000E+20
 30
1.000000000000000E+20
  9
$PEXTMAX
 10
-1.000000000000000E+20
 20
-1.000000000000000E+20
 30
-1.000000000000000E+20
  9
$PLIMMIN
 10
0.0
 20
0.0
  9
$PLIMMAX
 10
12.0
 20
9.0
  9
$UNITMODE
 70
     0
  9
$VISRETAIN
 70
     1
  9
$PLINEGEN
 70
     0
  9
$PSLTSCALE
 70
     1
  9
$TREEDEPTH
 70
  3020
  9
$CMLSTYLE
  2
Standard
  9
$CMLJUST
 70
     0
  9
$CMLSCALE
 40
1.0
  9
$PROXYGRAPHICS
 70
     1
  9
$MEASUREMENT
 70
     0
  9
$CELWEIGHT
370
    -1
  9
$ENDCAPS
280
     0
  9
$JOINSTYLE
280
     0
  9
$LWDISPLAY
290
     0
  9
$INSUNITS
 70
     0
  9
$HYPERLINKBASE
  1

  9
$STYLESHEET
  1

  9
$XEDIT
290
     1
  9
$CEPSNTYPE
380
     0
  9
$PSTYLEMODE
290
     1
  9
$FINGERPRINTGUID
  2
{251199B8-9CF0-1D42-AF60-42236F55AF1A}
  9
$VERSIONGUID
  2
{41BCB9BC-2700-274C-BBD2-AF0FA309E637}
  9
$EXTNAMES
290
     1
  9
$PSVPSCALE
 40
0.0
  9
$OLESTARTUP
290
     0
  9
$SORTENTS
280
   127
  9
$INDEXCTL
280
     0
  9
$HIDETEXT
280
     0
  9
$XCLIPFRAME
280
     2
  9
$HALOGAP
280
     0
  9
$OBSCOLOR
 70
   257
  9
$OBSLTYPE
280
     0
  9
$INTERSECTIONDISPLAY
280
     0
  9
$INTERSECTIONCOLOR
 70
   257
  9
$DIMASSOC
280
     1
  9
$PROJECTNAME
  1

  9
$CAMERADISPLAY
290
     0
  9
$LENSLENGTH
 40
50.0
  9
$CAMERAHEIGHT
 40
0.0
  9
$STEPSPERSEC
 40
2.0
  9
$STEPSIZE
 40
6.0
  9
$3DDWFPREC
 40
2.0
  9
$PSOLWIDTH
 40
0.25
  9
$PSOLHEIGHT
 40
4.0
  9
$LOFTANG1
 40
1.570796326794896
  9
$LOFTANG2
 40
1.570796326794896
  9
$LOFTMAG1
 40
0.0
  9
$LOFTMAG2
 40
0.0
  9
$LOFTPARAM
 70
     7
  9
$LOFTNORMALS
280
     1
  9
$LATITUDE
 40
37.795
  9
$LONGITUDE
 40
-122.394
  9
$NORTHDIRECTION
 40
0.0
  9
$TIMEZONE
 70
 -8000
  9
$LIGHTGLYPHDISPLAY
280
     1
  9
$TILEMODELIGHTSYNCH
280
     1
  9
$CMATERIAL
347
11
  9
$SOLIDHIST
280
     0
  9
$SHOWHIST
280
     1
  9
$DWFFRAME
280
     2
  9
$DGNFRAME
280
     0
  9
$REALWORLDSCALE
290
     1
  9
$INTERFERECOLOR
 62
     1
  9
$INTERFEREOBJVS
345
33
  9
$INTERFEREVPVS
346
30
  9
$CSHADOW
280
     0
  9
$SHADOWPLANELOCATION
 40
0.0
  0
ENDSEC
  0
SECTION
  2
CLASSES
  0
CLASS
  1
ACDBDICTIONARYWDFLT
  2
AcDbDictionaryWithDefault
  3
ObjectDBX Classes
 90
        0
 91
        1
280
     0
281
     0
  0
CLASS
  1
MATERIAL
  2
AcDbMaterial
  3
ObjectDBX Classes
 90
     1153
 91
        3
280
     0
281
     0
  0
CLASS
  1
VISUALSTYLE
  2
AcDbVisualStyle
  3
ObjectDBX Classes
 90
     4095
 91
       24
280
     0
281
     0
  0
CLASS
  1
SCALE
  2
AcDbScale
  3
ObjectDBX Classes
 90
     1153
 91
       17
280
     0
281
     0
  0
CLASS
  1
TABLESTYLE
  2
AcDbTableStyle
  3
ObjectDBX Classes
 90
     4095
 91
        1
280
     0
281
     0
  0
CLASS
  1
MLEADERSTYLE
  2
AcDbMLeaderStyle
  3
ACDB_MLEADERSTYLE_CLASS
 90
     4095
 91
        1
280
     0
281
     0
  0
CLASS
  1
ACDBSECTIONVIEWSTYLE
  2
AcDbSectionViewStyle
  3
ObjectDBX Classes
 90
     1025
 91
        1
280
     0
281
     0
  0
CLASS
  1
ACDBDETAILVIEWSTYLE
  2
AcDbDetailViewStyle
  3
ObjectDBX Classes
 90
     1025
 91
        1
280
     0
281
     0
  0
CLASS
  1
DICTIONARYVAR
  2
AcDbDictionaryVar
  3
ObjectDBX Classes
 90
        0
 91
        9
280
     0
281
     0
  0
CLASS
  1
CELLSTYLEMAP
  2
AcDbCellStyleMap
  3
ObjectDBX Classes
 90
     1152
 91
        1
280
     0
281
     0
  0
ENDSEC
  0
SECTION
  2
TABLES
  0
TABLE
  2
VPORT
  5
8
330
0
100
AcDbSymbolTable
 70
     1
  0
VPORT
  5
74
330
8
100
AcDbSymbolTableRecord
100
AcDbViewportTableRecord
  2
*Active
 70
     0
 10
0.0
 20
0.0
 11
1.0
 21
1.0
 12
8.851142058324739
 22
151.8291980036925
 13
0.0
 23
0.0
 14
1.0
 24
1.0
 15
0.0
 25
0.0
 16
0.0
 26
0.0
 36
1.0
 17
0.0
 27
0.0
 37
0.0
 40
1349.509838547311
 41
1.737049697607152
 42
50.0
 43
0.0
 44
0.0
 50
0.0
 51
0.0
 71
     0
 72
   100
 73
     1
 74
     1
 75
     0
 76
     0
 77
     0
 78
     0
281
     0
 65
     1
110
0.0
120
0.0
130
0.0
111
1.0
121
0.0
131
0.0
112
0.0
122
1.0
132
0.0
 79
     0
146
0.0
348
2F
 60
     3
 61
     5
292
     1
282
     1
141
0.0
142
0.0
 63
   250
421
  3355443
1001
ACAD_NAV_VCDISPLAY
1070
     3
  0
ENDTAB
  0
TABLE
  2
LTYPE
  5
5
330
0
100
AcDbSymbolTable
 70
     1
  0
LTYPE
  5
5A
330
5
100
AcDbSymbolTableRecord
100
AcDbLinetypeTableRecord
  2
ByBlock
 70
     0
  3

 72
    65
 73
     0
 40
0.0
  0
LTYPE
  5
5B
330
5
100
AcDbSymbolTableRecord
100
AcDbLinetypeTableRecord
  2
ByLayer
 70
     0
  3

 72
    65
 73
     0
 40
0.0
  0
LTYPE
  5
5C
330
5
100
AcDbSymbolTableRecord
100
AcDbLinetypeTableRecord
  2
Continuous
 70
     0
  3
Solid line
 72
    65
 73
     0
 40
0.0
  0
ENDTAB
  0
TABLE
  2
LAYER
  5
2
102
{ACAD_XDICTIONARY
360
5D5
102
}
330
0
100
AcDbSymbolTable
 70
     2
  0
LAYER
  5
54
102
{ACAD_XDICTIONARY
360
5E1
102
}
330
2
100
AcDbSymbolTableRecord
100
AcDbLayerTableRecord
  2
0
 70
     0
 62
     7
  6
Continuous
370
    -3
390
F
347
21
348
0
  0
LAYER
  5
5D2
102
{ACAD_XDICTIONARY
360
5E3
102
}
330
2
100
AcDbSymbolTableRecord
100
AcDbLayerTableRecord
  2
图层1
 70
     0
 62
    10
  6
Continuous
370
    -3
390
F
347
21
348
0
1001
AcAecLayerStandard
1000

1000

1001
AcCmTransparency
1071
        0
  0
ENDTAB
  0
TABLE
  2
STYLE
  5
3
330
0
100
AcDbSymbolTable
 70
     2
  0
STYLE
  5
55
330
3
100
AcDbSymbolTableRecord
100
AcDbTextStyleTableRecord
  2
Standard
 70
     0
 40
0.0
 41
1.0
 50
0.0
 71
     0
 42
0.2
  3
txt
  4

  0
STYLE
  5
59
330
3
100
AcDbSymbolTableRecord
100
AcDbTextStyleTableRecord
  2
Annotative
 70
     0
 40
0.0
 41
1.0
 50
0.0
 71
     0
 42
0.2
  3
txt
  4

1001
AcadAnnotative
1000
AnnotativeData
1002
{
1070
     1
1070
     1
1002
}
  0
ENDTAB
  0
TABLE
  2
VIEW
  5
6
330
0
100
AcDbSymbolTable
 70
     0
  0
ENDTAB
  0
TABLE
  2
UCS
  5
7
330
0
100
AcDbSymbolTable
 70
     0
  0
ENDTAB
  0
TABLE
  2
APPID
  5
9
330
0
100
AcDbSymbolTable
 70
     5
  0
APPID
  5
56
330
9
100
AcDbSymbolTableRecord
100
AcDbRegAppTableRecord
  2
ACAD
 70
     0
  0
APPID
  5
5D
330
9
100
AcDbSymbolTableRecord
100
AcDbRegAppTableRecord
  2
AcadAnnotative
 70
     0
  0
APPID
  5
327
330
9
100
AcDbSymbolTableRecord
100
AcDbRegAppTableRecord
  2
ACAD_NAV_VCDISPLAY
 70
     0
  0
APPID
  5
5D3
330
9
100
AcDbSymbolTableRecord
100
AcDbRegAppTableRecord
  2
AcAecLayerStandard
 70
     0
  0
APPID
  5
5D4
330
9
100
AcDbSymbolTableRecord
100
AcDbRegAppTableRecord
  2
AcCmTransparency
 70
     0
  0
ENDTAB
  0
TABLE
  2
DIMSTYLE
  5
A
330
0
100
AcDbSymbolTable
 70
     2
100
AcDbDimStyleTable
 71
     0
  0
DIMSTYLE
105
57
330
A
100
AcDbSymbolTableRecord
100
AcDbDimStyleTableRecord
  2
Standard
 70
     0
340
55
  0
DIMSTYLE
105
58
330
A
100
AcDbSymbolTableRecord
100
AcDbDimStyleTableRecord
  2
Annotative
 70
     0
340
55
1001
AcadAnnotative
1000
AnnotativeData
1002
{
1070
     1
1070
     1
1002
}
  0
ENDTAB
  0
TABLE
  2
BLOCK_RECORD
  5
1
330
0
100
AcDbSymbolTable
 70
     1
  0
BLOCK_RECORD
  5
6F
330
1
100
AcDbSymbolTableRecord
100
AcDbBlockTableRecord
  2
*Model_Space
340
72
 70
     0
280
     1
281
     0
  0
BLOCK_RECORD
  5
6B
330
1
100
AcDbSymbolTableRecord
100
AcDbBlockTableRecord
  2
*Paper_Space
340
6E
 70
     0
280
     1
281
     0
  0
ENDTAB
  0
ENDSEC
  0
SECTION
  2
BLOCKS
  0
BLOCK
  5
70
330
6F
100
AcDbEntity
  8
0
100
AcDbBlockBegin
  2
*Model_Space
 70
     0
 10
0.0
 20
0.0
 30
0.0
  3
*Model_Space
  1

  0
ENDBLK
  5
71
330
6F
100
AcDbEntity
  8
0
100
AcDbBlockEnd
  0
BLOCK
  5
6C
330
6B
100
AcDbEntity
 67
     1
  8
0
100
AcDbBlockBegin
  2
*Paper_Space
 70
     0
 10
0.0
 20
0.0
 30
0.0
  3
*Paper_Space
  1

  0
ENDBLK
  5
6D
330
6B
100
AcDbEntity
 67
     1
  8
0
100
AcDbBlockEnd
  0
ENDSEC
  0
SECTION
  2
ENTITIES
  0
LINE
  5
75
330
6F
100
AcDbEntity
  8
0
 62
     0
100
AcDbLine
 10
241.697
 20
244.733
 30
0.0
 11
241.931
 21
244.723
 31
0.0
  0
LINE
  5
76
330
6F
100
AcDbEntity
  8
0
 62
     0
100
AcDbLine
 10
241.931
 20
244.723
 30
0.0
 11
242.165
 21
244.697
 31
0.0
  0
LINE
  5
77
330
6F
100
AcDbEntity
  8
0
 62
     0
100
AcDbLine
 10
242.165
 20
244.697
 30
0.0
 11
242.397
 21
244.65
 31
0.0
  0
LINE
  5
78
330
6F
100
AcDbEntity
  8
0
 62
     0
100
AcDbLine
 10
242.397
 20
244.65
 30
0.0
 11
242.623
 21
244.586
 31
0.0
  0
LINE
  5
79
330
6F
100
AcDbEntity
  8
0
 62
     0
100
AcDbLine
 10
242.623
 20
244.586
 30
0.0
 11
242.845
 21
244.504
 31
0.0
  0
LINE
  5
7A
330
6F
100
AcDbEntity
  8
0
 62
     0
100
AcDbLine
 10
242.845
 20
244.504
 30
0.0
 11
243.057
 21
244.406
 31
0.0
  0
LINE
  5
7B
330
6F
100
AcDbEntity
  8
0
 62
     0
100
AcDbLine
 10
243.057
 20
244.406
 30
0.0
 11
243.264
 21
244.29
 31
0.0
  0
LINE
  5
7C
330
6F
100
AcDbEntity
  8
0
 62
     0
100
AcDbLine
 10
243.264
 20
244.29
 30
0.0
 11
243.459
 21
244.161
 31
0.0
  0
LINE
  5
7D
330
6F
100
AcDbEntity
  8
0
 62
     0
100
AcDbLine
 10
243.459
 20
244.161
 30
0.0
 11
243.644
 21
244.015
 31
0.0
  0
LINE
  5
7E
330
6F
100
AcDbEntity
  8
0
 62
     0
100
AcDbLine
 10
243.644
 20
244.015
 30
0.0
 11
243.818
 21
243.855
 31
0.0
  0
LINE
  5
7F
330
6F
100
AcDbEntity
  8
0
 62
     0
100
AcDbLine
 10
243.818
 20
243.855
 30
0.0
 11
243.978
 21
243.681
 31
0.0
  0
LINE
  5
80
330
6F
100
AcDbEntity
  8
0
 62
     0
100
AcDbLine
 10
243.978
 20
243.681
 30
0.0
 11
244.124
 21
243.497
 31
0.0
  0
LINE
  5
81
330
6F
100
AcDbEntity
  8
0
 62
     0
100
AcDbLine
 10
244.124
 20
243.497
 30
0.0
 11
244.253
 21
243.301
 31
0.0
  0
LINE
  5
82
330
6F
100
AcDbEntity
  8
0
 62
     0
100
AcDbLine
 10
244.253
 20
243.301
 30
0.0
 11
244.369
 21
243.094
 31
0.0
  0
LINE
  5
83
330
6F
100
AcDbEntity
  8
0
 62
     0
100
AcDbLine
 10
244.369
 20
243.094
 30
0.0
 11
244.468
 21
242.88
 31
0.0
  0
LINE
  5
84
330
6F
100
AcDbEntity
  8
0
 62
     0
100
AcDbLine
 10
244.468
 20
242.88
 30
0.0
 11
244.549
 21
242.66
 31
0.0
  0
LINE
  5
85
330
6F
100
AcDbEntity
  8
0
 62
     0
100
AcDbLine
 10
244.549
 20
242.66
 30
0.0
 11
244.613
 21
242.433
 31
0.0
  0
LINE
  5
86
330
6F
100
AcDbEntity
  8
0
 62
     0
100
AcDbLine
 10
244.613
 20
242.433
 30
0.0
 11
244.66
 21
242.203
 31
0.0
  0
LINE
  5
87
330
6F
100
AcDbEntity
  8
0
 62
     0
100
AcDbLine
 10
244.66
 20
242.203
 30
0.0
 11
244.686
 21
241.969
 31
0.0
  0
LINE
  5
88
330
6F
100
AcDbEntity
  8
0
 62
     0
100
AcDbLine
 10
244.686
 20
241.969
 30
0.0
 11
244.697
 21
241.733
 31
0.0
  0
LINE
  5
89
330
6F
100
AcDbEntity
  8
0
 62
     0
100
AcDbLine
 10
244.697
 20
241.733
 30
0.0
 11
244.697
 21
3.1309
 31
0.0
  0
LINE
  5
8A
330
6F
100
AcDbEntity
  8
0
 62
     0
100
AcDbLine
 10
244.697
 20
3.1309
 30
0.0
 11
244.686
 21
2.89664
 31
0.0
  0
LINE
  5
8B
330
6F
100
AcDbEntity
  8
0
 62
     0
100
AcDbLine
 10
244.686
 20
2.89664
 30
0.0
 11
244.66
 21
2.66237
 31
0.0
  0
LINE
  5
8C
330
6F
100
AcDbEntity
  8
0
 62
     0
100
AcDbLine
 10
244.66
 20
2.66237
 30
0.0
 11
244.613
 21
2.43086
 31
0.0
  0
LINE
  5
8D
330
6F
100
AcDbEntity
  8
0
 62
     0
100
AcDbLine
 10
244.613
 20
2.43086
 30
0.0
 11
244.549
 21
2.20486
 31
0.0
  0
LINE
  5
8E
330
6F
100
AcDbEntity
  8
0
 62
     0
100
AcDbLine
 10
244.549
 20
2.20486
 30
0.0
 11
244.468
 21
1.983
 31
0.0
  0
LINE
  5
8F
330
6F
100
AcDbEntity
  8
0
 62
     0
100
AcDbLine
 10
244.468
 20
1.983
 30
0.0
 11
244.369
 21
1.77078
 31
0.0
  0
LINE
  5
90
330
6F
100
AcDbEntity
  8
0
 62
     0
100
AcDbLine
 10
244.369
 20
1.77078
 30
0.0
 11
244.253
 21
1.56407
 31
0.0
  0
LINE
  5
91
330
6F
100
AcDbEntity
  8
0
 62
     0
100
AcDbLine
 10
244.253
 20
1.56407
 30
0.0
 11
244.124
 21
1.368389999999999
 31
0.0
  0
LINE
  5
92
330
6F
100
AcDbEntity
  8
0
 62
     0
100
AcDbLine
 10
244.124
 20
1.368389999999999
 30
0.0
 11
243.978
 21
1.18374
 31
0.0
  0
LINE
  5
93
330
6F
100
AcDbEntity
  8
0
 62
     0
100
AcDbLine
 10
243.978
 20
1.18374
 30
0.0
 11
243.818
 21
1.010099999999999
 31
0.0
  0
LINE
  5
94
330
6F
100
AcDbEntity
  8
0
 62
     0
100
AcDbLine
 10
243.818
 20
1.010099999999999
 30
0.0
 11
243.644
 21
0.8502509999999999
 31
0.0
  0
LINE
  5
95
330
6F
100
AcDbEntity
  8
0
 62
     0
100
AcDbLine
 10
243.644
 20
0.8502509999999999
 30
0.0
 11
243.459
 21
0.704176
 31
0.0
  0
LINE
  5
96
330
6F
100
AcDbEntity
  8
0
 62
     0
100
AcDbLine
 10
243.459
 20
0.704176
 30
0.0
 11
243.264
 21
0.5746430000000001
 31
0.0
  0
LINE
  5
97
330
6F
100
AcDbEntity
  8
0
 62
     0
100
AcDbLine
 10
243.264
 20
0.5746430000000001
 30
0.0
 11
243.057
 21
0.458886
 31
0.0
  0
LINE
  5
98
330
6F
100
AcDbEntity
  8
0
 62
     0
100
AcDbLine
 10
243.057
 20
0.458886
 30
0.0
 11
242.845
 21
0.359668
 31
0.0
  0
LINE
  5
99
330
6F
100
AcDbEntity
  8
0
 62
     0
100
AcDbLine
 10
242.845
 20
0.359668
 30
0.0
 11
242.623
 21
0.278364
 31
0.0
  0
LINE
  5
9A
330
6F
100
AcDbEntity
  8
0
 62
     0
100
AcDbLine
 10
242.623
 20
0.278364
 30
0.0
 11
242.397
 21
0.2149739999999999
 31
0.0
  0
LINE
  5
9B
330
6F
100
AcDbEntity
  8
0
 62
     0
100
AcDbLine
 10
242.397
 20
0.2149739999999999
 30
0.0
 11
242.165
 21
0.168121
 31
0.0
  0
LINE
  5
9C
330
6F
100
AcDbEntity
  8
0
 62
     0
100
AcDbLine
 10
242.165
 20
0.168121
 30
0.0
 11
241.931
 21
0.141938
 31
0.0
  0
LINE
  5
9D
330
6F
100
AcDbEntity
  8
0
 62
     0
100
AcDbLine
 10
241.931
 20
0.141938
 30
0.0
 11
241.697
 21
0.130914
 31
0.0
  0
LINE
  5
9E
330
6F
100
AcDbEntity
  8
0
 62
     0
100
AcDbLine
 10
241.697
 20
0.130914
 30
0.0
 11
3.09507
 21
0.130914
 31
0.0
  0
LINE
  5
9F
330
6F
100
AcDbEntity
  8
0
 62
     0
100
AcDbLine
 10
3.09507
 20
0.130914
 30
0.0
 11
2.85943
 21
0.141938
 31
0.0
  0
LINE
  5
A0
330
6F
100
AcDbEntity
  8
0
 62
     0
100
AcDbLine
 10
2.85943
 20
0.141938
 30
0.0
 11
2.625159999999999
 21
0.168121
 31
0.0
  0
LINE
  5
A1
330
6F
100
AcDbEntity
  8
0
 62
     0
100
AcDbLine
 10
2.625159999999999
 20
0.168121
 30
0.0
 11
2.395029999999999
 21
0.2149739999999999
 31
0.0
  0
LINE
  5
A2
330
6F
100
AcDbEntity
  8
0
 62
     0
100
AcDbLine
 10
2.395029999999999
 20
0.2149739999999999
 30
0.0
 11
2.16765
 21
0.278364
 31
0.0
  0
LINE
  5
A3
330
6F
100
AcDbEntity
  8
0
 62
     0
100
AcDbLine
 10
2.16765
 20
0.278364
 30
0.0
 11
1.94717
 21
0.359668
 31
0.0
  0
LINE
  5
A4
330
6F
100
AcDbEntity
  8
0
 62
     0
100
AcDbLine
 10
1.94717
 20
0.359668
 30
0.0
 11
1.73357
 21
0.458886
 31
0.0
  0
LINE
  5
A5
330
6F
100
AcDbEntity
  8
0
 62
     0
100
AcDbLine
 10
1.73357
 20
0.458886
 30
0.0
 11
1.52687
 21
0.5746430000000001
 31
0.0
  0
LINE
  5
A6
330
6F
100
AcDbEntity
  8
0
 62
     0
100
AcDbLine
 10
1.52687
 20
0.5746430000000001
 30
0.0
 11
1.331189999999999
 21
0.704176
 31
0.0
  0
LINE
  5
A7
330
6F
100
AcDbEntity
  8
0
 62
     0
100
AcDbLine
 10
1.331189999999999
 20
0.704176
 30
0.0
 11
1.146529999999999
 21
0.8502509999999999
 31
0.0
  0
LINE
  5
A8
330
6F
100
AcDbEntity
  8
0
 62
     0
100
AcDbLine
 10
1.146529999999999
 20
0.8502509999999999
 30
0.0
 11
0.9728939999999999
 21
1.010099999999999
 31
0.0
  0
LINE
  5
A9
330
6F
100
AcDbEntity
  8
0
 62
     0
100
AcDbLine
 10
0.9728939999999999
 20
1.010099999999999
 30
0.0
 11
0.813043
 21
1.18374
 31
0.0
  0
LINE
  5
AA
330
6F
100
AcDbEntity
  8
0
 62
     0
100
AcDbLine
 10
0.813043
 20
1.18374
 30
0.0
 11
0.666972
 21
1.368389999999999
 31
0.0
  0
LINE
  5
AB
330
6F
100
AcDbEntity
  8
0
 62
     0
100
AcDbLine
 10
0.666972
 20
1.368389999999999
 30
0.0
 11
0.537436
 21
1.56407
 31
0.0
  0
LINE
  5
AC
330
6F
100
AcDbEntity
  8
0
 62
     0
100
AcDbLine
 10
0.537436
 20
1.56407
 30
0.0
 11
0.421679
 21
1.77078
 31
0.0
  0
LINE
  5
AD
330
6F
100
AcDbEntity
  8
0
 62
     0
100
AcDbLine
 10
0.421679
 20
1.77078
 30
0.0
 11
0.323839
 21
1.983
 31
0.0
  0
LINE
  5
AE
330
6F
100
AcDbEntity
  8
0
 62
     0
100
AcDbLine
 10
0.323839
 20
1.983
 30
0.0
 11
0.241157
 21
2.20486
 31
0.0
  0
LINE
  5
AF
330
6F
100
AcDbEntity
  8
0
 62
     0
100
AcDbLine
 10
0.241157
 20
2.20486
 30
0.0
 11
0.177767
 21
2.43086
 31
0.0
  0
LINE
  5
B0
330
6F
100
AcDbEntity
  8
0
 62
     0
100
AcDbLine
 10
0.177767
 20
2.43086
 30
0.0
 11
0.130914
 21
2.66237
 31
0.0
  0
LINE
  5
B1
330
6F
100
AcDbEntity
  8
0
 62
     0
100
AcDbLine
 10
0.130914
 20
2.66237
 30
0.0
 11
0.104731
 21
2.89664
 31
0.0
  0
LINE
  5
B2
330
6F
100
AcDbEntity
  8
0
 62
     0
100
AcDbLine
 10
0.104731
 20
2.89664
 30
0.0
 11
0.0950846
 21
3.132279999999999
 31
0.0
  0
LINE
  5
B3
330
6F
100
AcDbEntity
  8
0
 62
     0
100
AcDbLine
 10
0.0950846
 20
3.132279999999999
 30
0.0
 11
0.0950846
 21
241.733
 31
0.0
  0
LINE
  5
B4
330
6F
100
AcDbEntity
  8
0
 62
     0
100
AcDbLine
 10
0.0950846
 20
241.733
 30
0.0
 11
0.104731
 21
241.969
 31
0.0
  0
LINE
  5
B5
330
6F
100
AcDbEntity
  8
0
 62
     0
100
AcDbLine
 10
0.104731
 20
241.969
 30
0.0
 11
0.130914
 21
242.203
 31
0.0
  0
LINE
  5
B6
330
6F
100
AcDbEntity
  8
0
 62
     0
100
AcDbLine
 10
0.130914
 20
242.203
 30
0.0
 11
0.177767
 21
242.433
 31
0.0
  0
LINE
  5
B7
330
6F
100
AcDbEntity
  8
0
 62
     0
100
AcDbLine
 10
0.177767
 20
242.433
 30
0.0
 11
0.241157
 21
242.66
 31
0.0
  0
LINE
  5
B8
330
6F
100
AcDbEntity
  8
0
 62
     0
100
AcDbLine
 10
0.241157
 20
242.66
 30
0.0
 11
0.323839
 21
242.88
 31
0.0
  0
LINE
  5
B9
330
6F
100
AcDbEntity
  8
0
 62
     0
100
AcDbLine
 10
0.323839
 20
242.88
 30
0.0
 11
0.421679
 21
243.094
 31
0.0
  0
LINE
  5
BA
330
6F
100
AcDbEntity
  8
0
 62
     0
100
AcDbLine
 10
0.421679
 20
243.094
 30
0.0
 11
0.537436
 21
243.301
 31
0.0
  0
LINE
  5
BB
330
6F
100
AcDbEntity
  8
0
 62
     0
100
AcDbLine
 10
0.537436
 20
243.301
 30
0.0
 11
0.666972
 21
243.497
 31
0.0
  0
LINE
  5
BC
330
6F
100
AcDbEntity
  8
0
 62
     0
100
AcDbLine
 10
0.666972
 20
243.497
 30
0.0
 11
0.813043
 21
243.681
 31
0.0
  0
LINE
  5
BD
330
6F
100
AcDbEntity
  8
0
 62
     0
100
AcDbLine
 10
0.813043
 20
243.681
 30
0.0
 11
0.9728939999999999
 21
243.855
 31
0.0
  0
LINE
  5
BE
330
6F
100
AcDbEntity
  8
0
 62
     0
100
AcDbLine
 10
0.9728939999999999
 20
243.855
 30
0.0
 11
1.146529999999999
 21
244.015
 31
0.0
  0
LINE
  5
BF
330
6F
100
AcDbEntity
  8
0
 62
     0
100
AcDbLine
 10
1.146529999999999
 20
244.015
 30
0.0
 11
1.331189999999999
 21
244.161
 31
0.0
  0
LINE
  5
C0
330
6F
100
AcDbEntity
  8
0
 62
     0
100
AcDbLine
 10
1.331189999999999
 20
244.161
 30
0.0
 11
1.52687
 21
244.29
 31
0.0
  0
LINE
  5
C1
330
6F
100
AcDbEntity
  8
0
 62
     0
100
AcDbLine
 10
1.52687
 20
244.29
 30
0.0
 11
1.73357
 21
244.406
 31
0.0
  0
LINE
  5
C2
330
6F
100
AcDbEntity
  8
0
 62
     0
100
AcDbLine
 10
1.73357
 20
244.406
 30
0.0
 11
1.94717
 21
244.504
 31
0.0
  0
LINE
  5
C3
330
6F
100
AcDbEntity
  8
0
 62
     0
100
AcDbLine
 10
1.94717
 20
244.504
 30
0.0
 11
2.16765
 21
244.586
 31
0.0
  0
LINE
  5
C4
330
6F
100
AcDbEntity
  8
0
 62
     0
100
AcDbLine
 10
2.16765
 20
244.586
 30
0.0
 11
2.395029999999999
 21
244.65
 31
0.0
  0
LINE
  5
C5
330
6F
100
AcDbEntity
  8
0
 62
     0
100
AcDbLine
 10
2.395029999999999
 20
244.65
 30
0.0
 11
2.625159999999999
 21
244.697
 31
0.0
  0
LINE
  5
C6
330
6F
100
AcDbEntity
  8
0
 62
     0
100
AcDbLine
 10
2.625159999999999
 20
244.697
 30
0.0
 11
2.85943
 21
244.723
 31
0.0
  0
LINE
  5
C7
330
6F
100
AcDbEntity
  8
0
 62
     0
100
AcDbLine
 10
2.85943
 20
244.723
 30
0.0
 11
3.09507
 21
244.733
 31
0.0
  0
LINE
  5
C8
330
6F
100
AcDbEntity
  8
0
 62
     0
100
AcDbLine
 10
3.09507
 20
244.733
 30
0.0
 11
241.697
 21
244.733
 31
0.0
  0
LINE
  5
C9
330
6F
100
AcDbEntity
  8
0
 62
     0
100
AcDbLine
 10
3.770309999999999
 20
5.130449999999999
 30
0.0
 11
3.478169999999999
 21
4.981609999999999
 31
0.0
  0
LINE
  5
CA
330
6F
100
AcDbEntity
  8
0
 62
     0
100
AcDbLine
 10
3.478169999999999
 20
4.981609999999999
 30
0.0
 11
3.245279999999999
 21
4.748709999999999
 31
0.0
  0
LINE
  5
CB
330
6F
100
AcDbEntity
  8
0
 62
     0
100
AcDbLine
 10
3.245279999999999
 20
4.748709999999999
 30
0.0
 11
3.09507
 21
4.45657
 31
0.0
  0
LINE
  5
CC
330
6F
100
AcDbEntity
  8
0
 62
     0
100
AcDbLine
 10
3.09507
 20
4.45657
 30
0.0
 11
3.04409
 21
4.13135
 31
0.0
  0
LINE
  5
CD
330
6F
100
AcDbEntity
  8
0
 62
     0
100
AcDbLine
 10
3.04409
 20
4.13135
 30
0.0
 11
3.09507
 21
3.80753
 31
0.0
  0
LINE
  5
CE
330
6F
100
AcDbEntity
  8
0
 62
     0
100
AcDbLine
 10
3.09507
 20
3.80753
 30
0.0
 11
3.245279999999999
 21
3.513999999999999
 31
0.0
  0
LINE
  5
CF
330
6F
100
AcDbEntity
  8
0
 62
     0
100
AcDbLine
 10
3.245279999999999
 20
3.513999999999999
 30
0.0
 11
3.478169999999999
 21
3.28249
 31
0.0
  0
LINE
  5
D0
330
6F
100
AcDbEntity
  8
0
 62
     0
100
AcDbLine
 10
3.478169999999999
 20
3.28249
 30
0.0
 11
3.770309999999999
 21
3.133659999999999
 31
0.0
  0
LINE
  5
D1
330
6F
100
AcDbEntity
  8
0
 62
     0
100
AcDbLine
 10
3.770309999999999
 20
3.133659999999999
 30
0.0
 11
4.095539999999999
 21
3.0813
 31
0.0
  0
LINE
  5
D2
330
6F
100
AcDbEntity
  8
0
 62
     0
100
AcDbLine
 10
4.095539999999999
 20
3.0813
 30
0.0
 11
4.419349999999999
 21
3.133659999999999
 31
0.0
  0
LINE
  5
D3
330
6F
100
AcDbEntity
  8
0
 62
     0
100
AcDbLine
 10
4.419349999999999
 20
3.133659999999999
 30
0.0
 11
4.7129
 21
3.28249
 31
0.0
  0
LINE
  5
D4
330
6F
100
AcDbEntity
  8
0
 62
     0
100
AcDbLine
 10
4.7129
 20
3.28249
 30
0.0
 11
4.94439
 21
3.513999999999999
 31
0.0
  0
LINE
  5
D5
330
6F
100
AcDbEntity
  8
0
 62
     0
100
AcDbLine
 10
4.94439
 20
3.513999999999999
 30
0.0
 11
5.09323
 21
3.80753
 31
0.0
  0
LINE
  5
D6
330
6F
100
AcDbEntity
  8
0
 62
     0
100
AcDbLine
 10
5.09323
 20
3.80753
 30
0.0
 11
5.14558
 21
4.13135
 31
0.0
  0
LINE
  5
D7
330
6F
100
AcDbEntity
  8
0
 62
     0
100
AcDbLine
 10
5.14558
 20
4.13135
 30
0.0
 11
5.09323
 21
4.45657
 31
0.0
  0
LINE
  5
D8
330
6F
100
AcDbEntity
  8
0
 62
     0
100
AcDbLine
 10
5.09323
 20
4.45657
 30
0.0
 11
4.94439
 21
4.748709999999999
 31
0.0
  0
LINE
  5
D9
330
6F
100
AcDbEntity
  8
0
 62
     0
100
AcDbLine
 10
4.94439
 20
4.748709999999999
 30
0.0
 11
4.7129
 21
4.981609999999999
 31
0.0
  0
LINE
  5
DA
330
6F
100
AcDbEntity
  8
0
 62
     0
100
AcDbLine
 10
4.7129
 20
4.981609999999999
 30
0.0
 11
4.419349999999999
 21
5.130449999999999
 31
0.0
  0
LINE
  5
DB
330
6F
100
AcDbEntity
  8
0
 62
     0
100
AcDbLine
 10
4.419349999999999
 20
5.130449999999999
 30
0.0
 11
4.095539999999999
 21
5.18142
 31
0.0
  0
LINE
  5
DC
330
6F
100
AcDbEntity
  8
0
 62
     0
100
AcDbLine
 10
4.095539999999999
 20
5.18142
 30
0.0
 11
3.770309999999999
 21
5.130449999999999
 31
0.0
  0
LINE
  5
DD
330
6F
100
AcDbEntity
  8
0
 62
     0
100
AcDbLine
 10
82.63679999999999
 20
5.130449999999999
 30
0.0
 11
82.34469999999999
 21
4.981609999999999
 31
0.0
  0
LINE
  5
DE
330
6F
100
AcDbEntity
  8
0
 62
     0
100
AcDbLine
 10
82.34469999999999
 20
4.981609999999999
 30
0.0
 11
82.1133
 21
4.748709999999999
 31
0.0
  0
LINE
  5
DF
330
6F
100
AcDbEntity
  8
0
 62
     0
100
AcDbLine
 10
82.1133
 20
4.748709999999999
 30
0.0
 11
81.96299999999999
 21
4.45657
 31
0.0
  0
LINE
  5
E0
330
6F
100
AcDbEntity
  8
0
 62
     0
100
AcDbLine
 10
81.96299999999999
 20
4.45657
 30
0.0
 11
81.91180000000001
 21
4.13135
 31
0.0
  0
LINE
  5
E1
330
6F
100
AcDbEntity
  8
0
 62
     0
100
AcDbLine
 10
81.91180000000001
 20
4.13135
 30
0.0
 11
81.96299999999999
 21
3.80753
 31
0.0
  0
LINE
  5
E2
330
6F
100
AcDbEntity
  8
0
 62
     0
100
AcDbLine
 10
81.96299999999999
 20
3.80753
 30
0.0
 11
82.1133
 21
3.513999999999999
 31
0.0
  0
LINE
  5
E3
330
6F
100
AcDbEntity
  8
0
 62
     0
100
AcDbLine
 10
82.1133
 20
3.513999999999999
 30
0.0
 11
82.34469999999999
 21
3.28249
 31
0.0
  0
LINE
  5
E4
330
6F
100
AcDbEntity
  8
0
 62
     0
100
AcDbLine
 10
82.34469999999999
 20
3.28249
 30
0.0
 11
82.63679999999999
 21
3.133659999999999
 31
0.0
  0
LINE
  5
E5
330
6F
100
AcDbEntity
  8
0
 62
     0
100
AcDbLine
 10
82.63679999999999
 20
3.133659999999999
 30
0.0
 11
82.962
 21
3.0813
 31
0.0
  0
LINE
  5
E6
330
6F
100
AcDbEntity
  8
0
 62
     0
100
AcDbLine
 10
82.962
 20
3.0813
 30
0.0
 11
83.2859
 21
3.133659999999999
 31
0.0
  0
LINE
  5
E7
330
6F
100
AcDbEntity
  8
0
 62
     0
100
AcDbLine
 10
83.2859
 20
3.133659999999999
 30
0.0
 11
83.57940000000001
 21
3.28249
 31
0.0
  0
LINE
  5
E8
330
6F
100
AcDbEntity
  8
0
 62
     0
100
AcDbLine
 10
83.57940000000001
 20
3.28249
 30
0.0
 11
83.8108
 21
3.513999999999999
 31
0.0
  0
LINE
  5
E9
330
6F
100
AcDbEntity
  8
0
 62
     0
100
AcDbLine
 10
83.8108
 20
3.513999999999999
 30
0.0
 11
83.9611
 21
3.80753
 31
0.0
  0
LINE
  5
EA
330
6F
100
AcDbEntity
  8
0
 62
     0
100
AcDbLine
 10
83.9611
 20
3.80753
 30
0.0
 11
84.01229999999999
 21
4.13135
 31
0.0
  0
LINE
  5
EB
330
6F
100
AcDbEntity
  8
0
 62
     0
100
AcDbLine
 10
84.01229999999999
 20
4.13135
 30
0.0
 11
83.9611
 21
4.45657
 31
0.0
  0
LINE
  5
EC
330
6F
100
AcDbEntity
  8
0
 62
     0
100
AcDbLine
 10
83.9611
 20
4.45657
 30
0.0
 11
83.8108
 21
4.748709999999999
 31
0.0
  0
LINE
  5
ED
330
6F
100
AcDbEntity
  8
0
 62
     0
100
AcDbLine
 10
83.8108
 20
4.748709999999999
 30
0.0
 11
83.57940000000001
 21
4.981609999999999
 31
0.0
  0
LINE
  5
EE
330
6F
100
AcDbEntity
  8
0
 62
     0
100
AcDbLine
 10
83.57940000000001
 20
4.981609999999999
 30
0.0
 11
83.2859
 21
5.130449999999999
 31
0.0
  0
LINE
  5
EF
330
6F
100
AcDbEntity
  8
0
 62
     0
100
AcDbLine
 10
83.2859
 20
5.130449999999999
 30
0.0
 11
82.962
 21
5.18142
 31
0.0
  0
LINE
  5
F0
330
6F
100
AcDbEntity
  8
0
 62
     0
100
AcDbLine
 10
82.962
 20
5.18142
 30
0.0
 11
82.63679999999999
 21
5.130449999999999
 31
0.0
  0
LINE
  5
F1
330
6F
100
AcDbEntity
  8
0
 62
     0
100
AcDbLine
 10
161.505
 20
5.130449999999999
 30
0.0
 11
161.211
 21
4.981609999999999
 31
0.0
  0
LINE
  5
F2
330
6F
100
AcDbEntity
  8
0
 62
     0
100
AcDbLine
 10
161.211
 20
4.981609999999999
 30
0.0
 11
160.98
 21
4.748709999999999
 31
0.0
  0
LINE
  5
F3
330
6F
100
AcDbEntity
  8
0
 62
     0
100
AcDbLine
 10
160.98
 20
4.748709999999999
 30
0.0
 11
160.831
 21
4.45657
 31
0.0
  0
LINE
  5
F4
330
6F
100
AcDbEntity
  8
0
 62
     0
100
AcDbLine
 10
160.831
 20
4.45657
 30
0.0
 11
160.78
 21
4.13135
 31
0.0
  0
LINE
  5
F5
330
6F
100
AcDbEntity
  8
0
 62
     0
100
AcDbLine
 10
160.78
 20
4.13135
 30
0.0
 11
160.831
 21
3.80753
 31
0.0
  0
LINE
  5
F6
330
6F
100
AcDbEntity
  8
0
 62
     0
100
AcDbLine
 10
160.831
 20
3.80753
 30
0.0
 11
160.98
 21
3.513999999999999
 31
0.0
  0
LINE
  5
F7
330
6F
100
AcDbEntity
  8
0
 62
     0
100
AcDbLine
 10
160.98
 20
3.513999999999999
 30
0.0
 11
161.211
 21
3.28249
 31
0.0
  0
LINE
  5
F8
330
6F
100
AcDbEntity
  8
0
 62
     0
100
AcDbLine
 10
161.211
 20
3.28249
 30
0.0
 11
161.505
 21
3.133659999999999
 31
0.0
  0
LINE
  5
F9
330
6F
100
AcDbEntity
  8
0
 62
     0
100
AcDbLine
 10
161.505
 20
3.133659999999999
 30
0.0
 11
161.83
 21
3.0813
 31
0.0
  0
LINE
  5
FA
330
6F
100
AcDbEntity
  8
0
 62
     0
100
AcDbLine
 10
161.83
 20
3.0813
 30
0.0
 11
162.154
 21
3.133659999999999
 31
0.0
  0
LINE
  5
FB
330
6F
100
AcDbEntity
  8
0
 62
     0
100
AcDbLine
 10
162.154
 20
3.133659999999999
 30
0.0
 11
162.446
 21
3.28249
 31
0.0
  0
LINE
  5
FC
330
6F
100
AcDbEntity
  8
0
 62
     0
100
AcDbLine
 10
162.446
 20
3.28249
 30
0.0
 11
162.679
 21
3.513999999999999
 31
0.0
  0
LINE
  5
FD
330
6F
100
AcDbEntity
  8
0
 62
     0
100
AcDbLine
 10
162.679
 20
3.513999999999999
 30
0.0
 11
162.828
 21
3.80753
 31
0.0
  0
LINE
  5
FE
330
6F
100
AcDbEntity
  8
0
 62
     0
100
AcDbLine
 10
162.828
 20
3.80753
 30
0.0
 11
162.88
 21
4.13135
 31
0.0
  0
LINE
  5
FF
330
6F
100
AcDbEntity
  8
0
 62
     0
100
AcDbLine
 10
162.88
 20
4.13135
 30
0.0
 11
162.828
 21
4.45657
 31
0.0
  0
LINE
  5
100
330
6F
100
AcDbEntity
  8
0
 62
     0
100
AcDbLine
 10
162.828
 20
4.45657
 30
0.0
 11
162.679
 21
4.748709999999999
 31
0.0
  0
LINE
  5
101
330
6F
100
AcDbEntity
  8
0
 62
     0
100
AcDbLine
 10
162.679
 20
4.748709999999999
 30
0.0
 11
162.446
 21
4.981609999999999
 31
0.0
  0
LINE
  5
102
330
6F
100
AcDbEntity
  8
0
 62
     0
100
AcDbLine
 10
162.446
 20
4.981609999999999
 30
0.0
 11
162.154
 21
5.130449999999999
 31
0.0
  0
LINE
  5
103
330
6F
100
AcDbEntity
  8
0
 62
     0
100
AcDbLine
 10
162.154
 20
5.130449999999999
 30
0.0
 11
161.83
 21
5.18142
 31
0.0
  0
LINE
  5
104
330
6F
100
AcDbEntity
  8
0
 62
     0
100
AcDbLine
 10
161.83
 20
5.18142
 30
0.0
 11
161.505
 21
5.130449999999999
 31
0.0
  0
LINE
  5
105
330
6F
100
AcDbEntity
  8
0
 62
     0
100
AcDbLine
 10
240.371
 20
5.130449999999999
 30
0.0
 11
240.079
 21
4.981609999999999
 31
0.0
  0
LINE
  5
106
330
6F
100
AcDbEntity
  8
0
 62
     0
100
AcDbLine
 10
240.079
 20
4.981609999999999
 30
0.0
 11
239.846
 21
4.748709999999999
 31
0.0
  0
LINE
  5
107
330
6F
100
AcDbEntity
  8
0
 62
     0
100
AcDbLine
 10
239.846
 20
4.748709999999999
 30
0.0
 11
239.697
 21
4.45657
 31
0.0
  0
LINE
  5
108
330
6F
100
AcDbEntity
  8
0
 62
     0
100
AcDbLine
 10
239.697
 20
4.45657
 30
0.0
 11
239.647
 21
4.13135
 31
0.0
  0
LINE
  5
109
330
6F
100
AcDbEntity
  8
0
 62
     0
100
AcDbLine
 10
239.647
 20
4.13135
 30
0.0
 11
239.697
 21
3.80753
 31
0.0
  0
LINE
  5
10A
330
6F
100
AcDbEntity
  8
0
 62
     0
100
AcDbLine
 10
239.697
 20
3.80753
 30
0.0
 11
239.846
 21
3.513999999999999
 31
0.0
  0
LINE
  5
10B
330
6F
100
AcDbEntity
  8
0
 62
     0
100
AcDbLine
 10
239.846
 20
3.513999999999999
 30
0.0
 11
240.079
 21
3.28249
 31
0.0
  0
LINE
  5
10C
330
6F
100
AcDbEntity
  8
0
 62
     0
100
AcDbLine
 10
240.079
 20
3.28249
 30
0.0
 11
240.371
 21
3.133659999999999
 31
0.0
  0
LINE
  5
10D
330
6F
100
AcDbEntity
  8
0
 62
     0
100
AcDbLine
 10
240.371
 20
3.133659999999999
 30
0.0
 11
240.696
 21
3.0813
 31
0.0
  0
LINE
  5
10E
330
6F
100
AcDbEntity
  8
0
 62
     0
100
AcDbLine
 10
240.696
 20
3.0813
 30
0.0
 11
241.02
 21
3.133659999999999
 31
0.0
  0
LINE
  5
10F
330
6F
100
AcDbEntity
  8
0
 62
     0
100
AcDbLine
 10
241.02
 20
3.133659999999999
 30
0.0
 11
241.314
 21
3.28249
 31
0.0
  0
LINE
  5
110
330
6F
100
AcDbEntity
  8
0
 62
     0
100
AcDbLine
 10
241.314
 20
3.28249
 30
0.0
 11
241.545
 21
3.513999999999999
 31
0.0
  0
LINE
  5
111
330
6F
100
AcDbEntity
  8
0
 62
     0
100
AcDbLine
 10
241.545
 20
3.513999999999999
 30
0.0
 11
241.694
 21
3.80753
 31
0.0
  0
LINE
  5
112
330
6F
100
AcDbEntity
  8
0
 62
     0
100
AcDbLine
 10
241.694
 20
3.80753
 30
0.0
 11
241.747
 21
4.13135
 31
0.0
  0
LINE
  5
113
330
6F
100
AcDbEntity
  8
0
 62
     0
100
AcDbLine
 10
241.747
 20
4.13135
 30
0.0
 11
241.694
 21
4.45657
 31
0.0
  0
LINE
  5
114
330
6F
100
AcDbEntity
  8
0
 62
     0
100
AcDbLine
 10
241.694
 20
4.45657
 30
0.0
 11
241.545
 21
4.748709999999999
 31
0.0
  0
LINE
  5
115
330
6F
100
AcDbEntity
  8
0
 62
     0
100
AcDbLine
 10
241.545
 20
4.748709999999999
 30
0.0
 11
241.314
 21
4.981609999999999
 31
0.0
  0
LINE
  5
116
330
6F
100
AcDbEntity
  8
0
 62
     0
100
AcDbLine
 10
241.314
 20
4.981609999999999
 30
0.0
 11
241.02
 21
5.130449999999999
 31
0.0
  0
LINE
  5
117
330
6F
100
AcDbEntity
  8
0
 62
     0
100
AcDbLine
 10
241.02
 20
5.130449999999999
 30
0.0
 11
240.696
 21
5.18142
 31
0.0
  0
LINE
  5
118
330
6F
100
AcDbEntity
  8
0
 62
     0
100
AcDbLine
 10
240.696
 20
5.18142
 30
0.0
 11
240.371
 21
5.130449999999999
 31
0.0
  0
LINE
  5
11D
330
6F
100
AcDbEntity
  8
0
 62
     0
100
AcDbLine
 10
3.770309999999999
 20
83.9971
 30
0.0
 11
3.478169999999999
 21
83.84820000000001
 31
0.0
  0
LINE
  5
11E
330
6F
100
AcDbEntity
  8
0
 62
     0
100
AcDbLine
 10
3.478169999999999
 20
83.84820000000001
 30
0.0
 11
3.245279999999999
 21
83.61639999999999
 31
0.0
  0
LINE
  5
11F
330
6F
100
AcDbEntity
  8
0
 62
     0
100
AcDbLine
 10
3.245279999999999
 20
83.61639999999999
 30
0.0
 11
3.09507
 21
83.3229
 31
0.0
  0
LINE
  5
120
330
6F
100
AcDbEntity
  8
0
 62
     0
100
AcDbLine
 10
3.09507
 20
83.3229
 30
0.0
 11
3.04409
 21
82.9991
 31
0.0
  0
LINE
  5
121
330
6F
100
AcDbEntity
  8
0
 62
     0
100
AcDbLine
 10
3.04409
 20
82.9991
 30
0.0
 11
3.09507
 21
82.67419999999999
 31
0.0
  0
LINE
  5
122
330
6F
100
AcDbEntity
  8
0
 62
     0
100
AcDbLine
 10
3.09507
 20
82.67419999999999
 30
0.0
 11
3.245279999999999
 21
82.3817
 31
0.0
  0
LINE
  5
123
330
6F
100
AcDbEntity
  8
0
 62
     0
100
AcDbLine
 10
3.245279999999999
 20
82.3817
 30
0.0
 11
3.478169999999999
 21
82.1489
 31
0.0
  0
LINE
  5
124
330
6F
100
AcDbEntity
  8
0
 62
     0
100
AcDbLine
 10
3.478169999999999
 20
82.1489
 30
0.0
 11
3.770309999999999
 21
82.0
 31
0.0
  0
LINE
  5
125
330
6F
100
AcDbEntity
  8
0
 62
     0
100
AcDbLine
 10
3.770309999999999
 20
82.0
 30
0.0
 11
4.095539999999999
 21
81.94779999999999
 31
0.0
  0
LINE
  5
126
330
6F
100
AcDbEntity
  8
0
 62
     0
100
AcDbLine
 10
4.095539999999999
 20
81.94779999999999
 30
0.0
 11
4.419349999999999
 21
82.0
 31
0.0
  0
LINE
  5
127
330
6F
100
AcDbEntity
  8
0
 62
     0
100
AcDbLine
 10
4.419349999999999
 20
82.0
 30
0.0
 11
4.7129
 21
82.1489
 31
0.0
  0
LINE
  5
128
330
6F
100
AcDbEntity
  8
0
 62
     0
100
AcDbLine
 10
4.7129
 20
82.1489
 30
0.0
 11
4.94439
 21
82.3817
 31
0.0
  0
LINE
  5
129
330
6F
100
AcDbEntity
  8
0
 62
     0
100
AcDbLine
 10
4.94439
 20
82.3817
 30
0.0
 11
5.09323
 21
82.67419999999999
 31
0.0
  0
LINE
  5
12A
330
6F
100
AcDbEntity
  8
0
 62
     0
100
AcDbLine
 10
5.09323
 20
82.67419999999999
 30
0.0
 11
5.14558
 21
82.9991
 31
0.0
  0
LINE
  5
12B
330
6F
100
AcDbEntity
  8
0
 62
     0
100
AcDbLine
 10
5.14558
 20
82.9991
 30
0.0
 11
5.09323
 21
83.3229
 31
0.0
  0
LINE
  5
12C
330
6F
100
AcDbEntity
  8
0
 62
     0
100
AcDbLine
 10
5.09323
 20
83.3229
 30
0.0
 11
4.94439
 21
83.61639999999999
 31
0.0
  0
LINE
  5
12D
330
6F
100
AcDbEntity
  8
0
 62
     0
100
AcDbLine
 10
4.94439
 20
83.61639999999999
 30
0.0
 11
4.7129
 21
83.84820000000001
 31
0.0
  0
LINE
  5
12E
330
6F
100
AcDbEntity
  8
0
 62
     0
100
AcDbLine
 10
4.7129
 20
83.84820000000001
 30
0.0
 11
4.419349999999999
 21
83.9971
 31
0.0
  0
LINE
  5
12F
330
6F
100
AcDbEntity
  8
0
 62
     0
100
AcDbLine
 10
4.419349999999999
 20
83.9971
 30
0.0
 11
4.095539999999999
 21
84.0493
 31
0.0
  0
LINE
  5
130
330
6F
100
AcDbEntity
  8
0
 62
     0
100
AcDbLine
 10
4.095539999999999
 20
84.0493
 30
0.0
 11
3.770309999999999
 21
83.9971
 31
0.0
  0
LINE
  5
131
330
6F
100
AcDbEntity
  8
0
 62
     0
100
AcDbLine
 10
240.371
 20
83.9971
 30
0.0
 11
240.079
 21
83.84820000000001
 31
0.0
  0
LINE
  5
132
330
6F
100
AcDbEntity
  8
0
 62
     0
100
AcDbLine
 10
240.079
 20
83.84820000000001
 30
0.0
 11
239.846
 21
83.61639999999999
 31
0.0
  0
LINE
  5
133
330
6F
100
AcDbEntity
  8
0
 62
     0
100
AcDbLine
 10
239.846
 20
83.61639999999999
 30
0.0
 11
239.697
 21
83.3229
 31
0.0
  0
LINE
  5
134
330
6F
100
AcDbEntity
  8
0
 62
     0
100
AcDbLine
 10
239.697
 20
83.3229
 30
0.0
 11
239.647
 21
82.99799999999999
 31
0.0
  0
LINE
  5
135
330
6F
100
AcDbEntity
  8
0
 62
     0
100
AcDbLine
 10
239.647
 20
82.99799999999999
 30
0.0
 11
239.697
 21
82.67419999999999
 31
0.0
  0
LINE
  5
136
330
6F
100
AcDbEntity
  8
0
 62
     0
100
AcDbLine
 10
239.697
 20
82.67419999999999
 30
0.0
 11
239.846
 21
82.3817
 31
0.0
  0
LINE
  5
137
330
6F
100
AcDbEntity
  8
0
 62
     0
100
AcDbLine
 10
239.846
 20
82.3817
 30
0.0
 11
240.079
 21
82.1489
 31
0.0
  0
LINE
  5
138
330
6F
100
AcDbEntity
  8
0
 62
     0
100
AcDbLine
 10
240.079
 20
82.1489
 30
0.0
 11
240.371
 21
82.0
 31
0.0
  0
LINE
  5
139
330
6F
100
AcDbEntity
  8
0
 62
     0
100
AcDbLine
 10
240.371
 20
82.0
 30
0.0
 11
240.696
 21
81.94779999999999
 31
0.0
  0
LINE
  5
13A
330
6F
100
AcDbEntity
  8
0
 62
     0
100
AcDbLine
 10
240.696
 20
81.94779999999999
 30
0.0
 11
241.02
 21
82.0
 31
0.0
  0
LINE
  5
13B
330
6F
100
AcDbEntity
  8
0
 62
     0
100
AcDbLine
 10
241.02
 20
82.0
 30
0.0
 11
241.314
 21
82.1489
 31
0.0
  0
LINE
  5
13C
330
6F
100
AcDbEntity
  8
0
 62
     0
100
AcDbLine
 10
241.314
 20
82.1489
 30
0.0
 11
241.545
 21
82.3817
 31
0.0
  0
LINE
  5
13D
330
6F
100
AcDbEntity
  8
0
 62
     0
100
AcDbLine
 10
241.545
 20
82.3817
 30
0.0
 11
241.694
 21
82.67419999999999
 31
0.0
  0
LINE
  5
13E
330
6F
100
AcDbEntity
  8
0
 62
     0
100
AcDbLine
 10
241.694
 20
82.67419999999999
 30
0.0
 11
241.747
 21
82.99799999999999
 31
0.0
  0
LINE
  5
13F
330
6F
100
AcDbEntity
  8
0
 62
     0
100
AcDbLine
 10
241.747
 20
82.99799999999999
 30
0.0
 11
241.694
 21
83.3229
 31
0.0
  0
LINE
  5
140
330
6F
100
AcDbEntity
  8
0
 62
     0
100
AcDbLine
 10
241.694
 20
83.3229
 30
0.0
 11
241.545
 21
83.61639999999999
 31
0.0
  0
LINE
  5
141
330
6F
100
AcDbEntity
  8
0
 62
     0
100
AcDbLine
 10
241.545
 20
83.61639999999999
 30
0.0
 11
241.314
 21
83.84820000000001
 31
0.0
  0
LINE
  5
142
330
6F
100
AcDbEntity
  8
0
 62
     0
100
AcDbLine
 10
241.314
 20
83.84820000000001
 30
0.0
 11
241.02
 21
83.9971
 31
0.0
  0
LINE
  5
143
330
6F
100
AcDbEntity
  8
0
 62
     0
100
AcDbLine
 10
241.02
 20
83.9971
 30
0.0
 11
240.696
 21
84.0479
 31
0.0
  0
LINE
  5
144
330
6F
100
AcDbEntity
  8
0
 62
     0
100
AcDbLine
 10
240.696
 20
84.0479
 30
0.0
 11
240.371
 21
83.9971
 31
0.0
  0
LINE
  5
145
330
6F
100
AcDbEntity
  8
0
 62
     0
100
AcDbLine
 10
220.17
 20
100.857
 30
0.0
 11
234.17
 21
100.857
 31
0.0
  0
LINE
  5
146
330
6F
100
AcDbEntity
  8
0
 62
     0
100
AcDbLine
 10
234.17
 20
100.857
 30
0.0
 11
234.17
 21
86.85779999999999
 31
0.0
  0
LINE
  5
147
330
6F
100
AcDbEntity
  8
0
 62
     0
100
AcDbLine
 10
234.17
 20
86.85779999999999
 30
0.0
 11
220.17
 21
86.85779999999999
 31
0.0
  0
LINE
  5
148
330
6F
100
AcDbEntity
  8
0
 62
     0
100
AcDbLine
 10
220.17
 20
86.85779999999999
 30
0.0
 11
220.17
 21
100.857
 31
0.0
  0
LINE
  5
149
330
6F
100
AcDbEntity
  8
0
 62
     0
100
AcDbLine
 10
201.12
 20
100.857
 30
0.0
 11
215.12
 21
100.857
 31
0.0
  0
LINE
  5
14A
330
6F
100
AcDbEntity
  8
0
 62
     0
100
AcDbLine
 10
215.12
 20
100.857
 30
0.0
 11
215.12
 21
86.85779999999999
 31
0.0
  0
LINE
  5
14B
330
6F
100
AcDbEntity
  8
0
 62
     0
100
AcDbLine
 10
215.12
 20
86.85779999999999
 30
0.0
 11
201.12
 21
86.85779999999999
 31
0.0
  0
LINE
  5
14C
330
6F
100
AcDbEntity
  8
0
 62
     0
100
AcDbLine
 10
201.12
 20
86.85779999999999
 30
0.0
 11
201.12
 21
100.857
 31
0.0
  0
LINE
  5
14D
330
6F
100
AcDbEntity
  8
0
 62
     0
100
AcDbLine
 10
182.07
 20
100.857
 30
0.0
 11
196.07
 21
100.857
 31
0.0
  0
LINE
  5
14E
330
6F
100
AcDbEntity
  8
0
 62
     0
100
AcDbLine
 10
196.07
 20
100.857
 30
0.0
 11
196.07
 21
86.85779999999999
 31
0.0
  0
LINE
  5
14F
330
6F
100
AcDbEntity
  8
0
 62
     0
100
AcDbLine
 10
196.07
 20
86.85779999999999
 30
0.0
 11
182.07
 21
86.85779999999999
 31
0.0
  0
LINE
  5
150
330
6F
100
AcDbEntity
  8
0
 62
     0
100
AcDbLine
 10
182.07
 20
86.85779999999999
 30
0.0
 11
182.07
 21
100.857
 31
0.0
  0
LINE
  5
151
330
6F
100
AcDbEntity
  8
0
 62
     0
100
AcDbLine
 10
134.445
 20
100.857
 30
0.0
 11
148.445
 21
100.857
 31
0.0
  0
LINE
  5
152
330
6F
100
AcDbEntity
  8
0
 62
     0
100
AcDbLine
 10
148.445
 20
100.857
 30
0.0
 11
148.445
 21
86.85779999999999
 31
0.0
  0
LINE
  5
153
330
6F
100
AcDbEntity
  8
0
 62
     0
100
AcDbLine
 10
148.445
 20
86.85779999999999
 30
0.0
 11
134.445
 21
86.85779999999999
 31
0.0
  0
LINE
  5
154
330
6F
100
AcDbEntity
  8
0
 62
     0
100
AcDbLine
 10
134.445
 20
86.85779999999999
 30
0.0
 11
134.445
 21
100.857
 31
0.0
  0
LINE
  5
155
330
6F
100
AcDbEntity
  8
0
 62
     0
100
AcDbLine
 10
115.395
 20
100.857
 30
0.0
 11
129.395
 21
100.857
 31
0.0
  0
LINE
  5
156
330
6F
100
AcDbEntity
  8
0
 62
     0
100
AcDbLine
 10
129.395
 20
100.857
 30
0.0
 11
129.395
 21
86.85779999999999
 31
0.0
  0
LINE
  5
157
330
6F
100
AcDbEntity
  8
0
 62
     0
100
AcDbLine
 10
129.395
 20
86.85779999999999
 30
0.0
 11
115.395
 21
86.85779999999999
 31
0.0
  0
LINE
  5
158
330
6F
100
AcDbEntity
  8
0
 62
     0
100
AcDbLine
 10
115.395
 20
86.85779999999999
 30
0.0
 11
115.395
 21
100.857
 31
0.0
  0
LINE
  5
159
330
6F
100
AcDbEntity
  8
0
 62
     0
100
AcDbLine
 10
96.34540000000001
 20
100.857
 30
0.0
 11
110.345
 21
100.857
 31
0.0
  0
LINE
  5
15A
330
6F
100
AcDbEntity
  8
0
 62
     0
100
AcDbLine
 10
110.345
 20
100.857
 30
0.0
 11
110.345
 21
86.85779999999999
 31
0.0
  0
LINE
  5
15B
330
6F
100
AcDbEntity
  8
0
 62
     0
100
AcDbLine
 10
110.345
 20
86.85779999999999
 30
0.0
 11
96.34540000000001
 21
86.85779999999999
 31
0.0
  0
LINE
  5
15C
330
6F
100
AcDbEntity
  8
0
 62
     0
100
AcDbLine
 10
96.34540000000001
 20
86.85779999999999
 30
0.0
 11
96.34540000000001
 21
100.857
 31
0.0
  0
LINE
  5
15D
330
6F
100
AcDbEntity
  8
0
 62
     0
100
AcDbLine
 10
220.17
 20
119.908
 30
0.0
 11
234.17
 21
119.908
 31
0.0
  0
LINE
  5
15E
330
6F
100
AcDbEntity
  8
0
 62
     0
100
AcDbLine
 10
234.17
 20
119.908
 30
0.0
 11
234.17
 21
105.908
 31
0.0
  0
LINE
  5
15F
330
6F
100
AcDbEntity
  8
0
 62
     0
100
AcDbLine
 10
234.17
 20
105.908
 30
0.0
 11
220.17
 21
105.908
 31
0.0
  0
LINE
  5
160
330
6F
100
AcDbEntity
  8
0
 62
     0
100
AcDbLine
 10
220.17
 20
105.908
 30
0.0
 11
220.17
 21
119.908
 31
0.0
  0
LINE
  5
161
330
6F
100
AcDbEntity
  8
0
 62
     0
100
AcDbLine
 10
201.12
 20
119.908
 30
0.0
 11
215.12
 21
119.908
 31
0.0
  0
LINE
  5
162
330
6F
100
AcDbEntity
  8
0
 62
     0
100
AcDbLine
 10
215.12
 20
119.908
 30
0.0
 11
215.12
 21
105.908
 31
0.0
  0
LINE
  5
163
330
6F
100
AcDbEntity
  8
0
 62
     0
100
AcDbLine
 10
215.12
 20
105.908
 30
0.0
 11
201.12
 21
105.908
 31
0.0
  0
LINE
  5
164
330
6F
100
AcDbEntity
  8
0
 62
     0
100
AcDbLine
 10
201.12
 20
105.908
 30
0.0
 11
201.12
 21
119.908
 31
0.0
  0
LINE
  5
165
330
6F
100
AcDbEntity
  8
0
 62
     0
100
AcDbLine
 10
182.07
 20
119.908
 30
0.0
 11
196.07
 21
119.908
 31
0.0
  0
LINE
  5
166
330
6F
100
AcDbEntity
  8
0
 62
     0
100
AcDbLine
 10
196.07
 20
119.908
 30
0.0
 11
196.07
 21
105.908
 31
0.0
  0
LINE
  5
167
330
6F
100
AcDbEntity
  8
0
 62
     0
100
AcDbLine
 10
196.07
 20
105.908
 30
0.0
 11
182.07
 21
105.908
 31
0.0
  0
LINE
  5
168
330
6F
100
AcDbEntity
  8
0
 62
     0
100
AcDbLine
 10
182.07
 20
105.908
 30
0.0
 11
182.07
 21
119.908
 31
0.0
  0
LINE
  5
169
330
6F
100
AcDbEntity
  8
0
 62
     0
100
AcDbLine
 10
163.02
 20
119.908
 30
0.0
 11
177.02
 21
119.908
 31
0.0
  0
LINE
  5
16A
330
6F
100
AcDbEntity
  8
0
 62
     0
100
AcDbLine
 10
177.02
 20
119.908
 30
0.0
 11
177.02
 21
105.908
 31
0.0
  0
LINE
  5
16B
330
6F
100
AcDbEntity
  8
0
 62
     0
100
AcDbLine
 10
177.02
 20
105.908
 30
0.0
 11
163.02
 21
105.908
 31
0.0
  0
LINE
  5
16C
330
6F
100
AcDbEntity
  8
0
 62
     0
100
AcDbLine
 10
163.02
 20
105.908
 30
0.0
 11
163.02
 21
119.908
 31
0.0
  0
LINE
  5
16D
330
6F
100
AcDbEntity
  8
0
 62
     0
100
AcDbLine
 10
143.97
 20
119.908
 30
0.0
 11
157.97
 21
119.908
 31
0.0
  0
LINE
  5
16E
330
6F
100
AcDbEntity
  8
0
 62
     0
100
AcDbLine
 10
157.97
 20
119.908
 30
0.0
 11
157.97
 21
105.908
 31
0.0
  0
LINE
  5
16F
330
6F
100
AcDbEntity
  8
0
 62
     0
100
AcDbLine
 10
157.97
 20
105.908
 30
0.0
 11
143.97
 21
105.908
 31
0.0
  0
LINE
  5
170
330
6F
100
AcDbEntity
  8
0
 62
     0
100
AcDbLine
 10
143.97
 20
105.908
 30
0.0
 11
143.97
 21
119.908
 31
0.0
  0
LINE
  5
171
330
6F
100
AcDbEntity
  8
0
 62
     0
100
AcDbLine
 10
124.919
 20
119.908
 30
0.0
 11
138.92
 21
119.908
 31
0.0
  0
LINE
  5
172
330
6F
100
AcDbEntity
  8
0
 62
     0
100
AcDbLine
 10
138.92
 20
119.908
 30
0.0
 11
138.92
 21
105.908
 31
0.0
  0
LINE
  5
173
330
6F
100
AcDbEntity
  8
0
 62
     0
100
AcDbLine
 10
138.92
 20
105.908
 30
0.0
 11
124.919
 21
105.908
 31
0.0
  0
LINE
  5
174
330
6F
100
AcDbEntity
  8
0
 62
     0
100
AcDbLine
 10
124.919
 20
105.908
 30
0.0
 11
124.919
 21
119.908
 31
0.0
  0
LINE
  5
175
330
6F
100
AcDbEntity
  8
0
 62
     0
100
AcDbLine
 10
105.869
 20
119.908
 30
0.0
 11
119.87
 21
119.908
 31
0.0
  0
LINE
  5
176
330
6F
100
AcDbEntity
  8
0
 62
     0
100
AcDbLine
 10
119.87
 20
119.908
 30
0.0
 11
119.87
 21
105.908
 31
0.0
  0
LINE
  5
177
330
6F
100
AcDbEntity
  8
0
 62
     0
100
AcDbLine
 10
119.87
 20
105.908
 30
0.0
 11
105.869
 21
105.908
 31
0.0
  0
LINE
  5
178
330
6F
100
AcDbEntity
  8
0
 62
     0
100
AcDbLine
 10
105.869
 20
105.908
 30
0.0
 11
105.869
 21
119.908
 31
0.0
  0
LINE
  5
179
330
6F
100
AcDbEntity
  8
0
 62
     0
100
AcDbLine
 10
86.8204
 20
119.908
 30
0.0
 11
100.82
 21
119.908
 31
0.0
  0
LINE
  5
17A
330
6F
100
AcDbEntity
  8
0
 62
     0
100
AcDbLine
 10
100.82
 20
119.908
 30
0.0
 11
100.82
 21
105.908
 31
0.0
  0
LINE
  5
17B
330
6F
100
AcDbEntity
  8
0
 62
     0
100
AcDbLine
 10
100.82
 20
105.908
 30
0.0
 11
86.8204
 21
105.908
 31
0.0
  0
LINE
  5
17C
330
6F
100
AcDbEntity
  8
0
 62
     0
100
AcDbLine
 10
86.8204
 20
105.908
 30
0.0
 11
86.8204
 21
119.908
 31
0.0
  0
LINE
  5
17D
330
6F
100
AcDbEntity
  8
0
 62
     0
100
AcDbLine
 10
67.77039999999999
 20
119.908
 30
0.0
 11
81.76999999999999
 21
119.908
 31
0.0
  0
LINE
  5
17E
330
6F
100
AcDbEntity
  8
0
 62
     0
100
AcDbLine
 10
81.76999999999999
 20
119.908
 30
0.0
 11
81.76999999999999
 21
105.908
 31
0.0
  0
LINE
  5
17F
330
6F
100
AcDbEntity
  8
0
 62
     0
100
AcDbLine
 10
81.76999999999999
 20
105.908
 30
0.0
 11
67.77039999999999
 21
105.908
 31
0.0
  0
LINE
  5
180
330
6F
100
AcDbEntity
  8
0
 62
     0
100
AcDbLine
 10
67.77039999999999
 20
105.908
 30
0.0
 11
67.77039999999999
 21
119.908
 31
0.0
  0
LINE
  5
181
330
6F
100
AcDbEntity
  8
0
 62
     0
100
AcDbLine
 10
48.7204
 20
119.908
 30
0.0
 11
62.72
 21
119.908
 31
0.0
  0
LINE
  5
182
330
6F
100
AcDbEntity
  8
0
 62
     0
100
AcDbLine
 10
62.72
 20
119.908
 30
0.0
 11
62.72
 21
105.908
 31
0.0
  0
LINE
  5
183
330
6F
100
AcDbEntity
  8
0
 62
     0
100
AcDbLine
 10
62.72
 20
105.908
 30
0.0
 11
48.7204
 21
105.908
 31
0.0
  0
LINE
  5
184
330
6F
100
AcDbEntity
  8
0
 62
     0
100
AcDbLine
 10
48.7204
 20
105.908
 30
0.0
 11
48.7204
 21
119.908
 31
0.0
  0
LINE
  5
185
330
6F
100
AcDbEntity
  8
0
 62
     0
100
AcDbLine
 10
29.6706
 20
119.908
 30
0.0
 11
43.66999999999999
 21
119.908
 31
0.0
  0
LINE
  5
186
330
6F
100
AcDbEntity
  8
0
 62
     0
100
AcDbLine
 10
43.66999999999999
 20
119.908
 30
0.0
 11
43.66999999999999
 21
105.908
 31
0.0
  0
LINE
  5
187
330
6F
100
AcDbEntity
  8
0
 62
     0
100
AcDbLine
 10
43.66999999999999
 20
105.908
 30
0.0
 11
29.6706
 21
105.908
 31
0.0
  0
LINE
  5
188
330
6F
100
AcDbEntity
  8
0
 62
     0
100
AcDbLine
 10
29.6706
 20
105.908
 30
0.0
 11
29.6706
 21
119.908
 31
0.0
  0
LINE
  5
189
330
6F
100
AcDbEntity
  8
0
 62
     0
100
AcDbLine
 10
10.6192
 20
119.908
 30
0.0
 11
24.62
 21
119.908
 31
0.0
  0
LINE
  5
18A
330
6F
100
AcDbEntity
  8
0
 62
     0
100
AcDbLine
 10
24.62
 20
119.908
 30
0.0
 11
24.62
 21
105.908
 31
0.0
  0
LINE
  5
18B
330
6F
100
AcDbEntity
  8
0
 62
     0
100
AcDbLine
 10
24.62
 20
105.908
 30
0.0
 11
10.6192
 21
105.908
 31
0.0
  0
LINE
  5
18C
330
6F
100
AcDbEntity
  8
0
 62
     0
100
AcDbLine
 10
10.6192
 20
105.908
 30
0.0
 11
10.6192
 21
119.908
 31
0.0
  0
LINE
  5
18D
330
6F
100
AcDbEntity
  8
0
 62
     0
100
AcDbLine
 10
220.17
 20
138.958
 30
0.0
 11
234.17
 21
138.958
 31
0.0
  0
LINE
  5
18E
330
6F
100
AcDbEntity
  8
0
 62
     0
100
AcDbLine
 10
234.17
 20
138.958
 30
0.0
 11
234.17
 21
124.958
 31
0.0
  0
LINE
  5
18F
330
6F
100
AcDbEntity
  8
0
 62
     0
100
AcDbLine
 10
234.17
 20
124.958
 30
0.0
 11
220.17
 21
124.958
 31
0.0
  0
LINE
  5
190
330
6F
100
AcDbEntity
  8
0
 62
     0
100
AcDbLine
 10
220.17
 20
124.958
 30
0.0
 11
220.17
 21
138.958
 31
0.0
  0
LINE
  5
191
330
6F
100
AcDbEntity
  8
0
 62
     0
100
AcDbLine
 10
201.12
 20
138.958
 30
0.0
 11
215.12
 21
138.958
 31
0.0
  0
LINE
  5
192
330
6F
100
AcDbEntity
  8
0
 62
     0
100
AcDbLine
 10
215.12
 20
138.958
 30
0.0
 11
215.12
 21
124.958
 31
0.0
  0
LINE
  5
193
330
6F
100
AcDbEntity
  8
0
 62
     0
100
AcDbLine
 10
215.12
 20
124.958
 30
0.0
 11
201.12
 21
124.958
 31
0.0
  0
LINE
  5
194
330
6F
100
AcDbEntity
  8
0
 62
     0
100
AcDbLine
 10
201.12
 20
124.958
 30
0.0
 11
201.12
 21
138.958
 31
0.0
  0
LINE
  5
195
330
6F
100
AcDbEntity
  8
0
 62
     0
100
AcDbLine
 10
182.07
 20
138.958
 30
0.0
 11
196.07
 21
138.958
 31
0.0
  0
LINE
  5
196
330
6F
100
AcDbEntity
  8
0
 62
     0
100
AcDbLine
 10
196.07
 20
138.958
 30
0.0
 11
196.07
 21
124.958
 31
0.0
  0
LINE
  5
197
330
6F
100
AcDbEntity
  8
0
 62
     0
100
AcDbLine
 10
196.07
 20
124.958
 30
0.0
 11
182.07
 21
124.958
 31
0.0
  0
LINE
  5
198
330
6F
100
AcDbEntity
  8
0
 62
     0
100
AcDbLine
 10
182.07
 20
124.958
 30
0.0
 11
182.07
 21
138.958
 31
0.0
  0
LINE
  5
199
330
6F
100
AcDbEntity
  8
0
 62
     0
100
AcDbLine
 10
163.02
 20
138.958
 30
0.0
 11
177.02
 21
138.958
 31
0.0
  0
LINE
  5
19A
330
6F
100
AcDbEntity
  8
0
 62
     0
100
AcDbLine
 10
177.02
 20
138.958
 30
0.0
 11
177.02
 21
124.958
 31
0.0
  0
LINE
  5
19B
330
6F
100
AcDbEntity
  8
0
 62
     0
100
AcDbLine
 10
177.02
 20
124.958
 30
0.0
 11
163.02
 21
124.958
 31
0.0
  0
LINE
  5
19C
330
6F
100
AcDbEntity
  8
0
 62
     0
100
AcDbLine
 10
163.02
 20
124.958
 30
0.0
 11
163.02
 21
138.958
 31
0.0
  0
LINE
  5
19D
330
6F
100
AcDbEntity
  8
0
 62
     0
100
AcDbLine
 10
143.97
 20
138.958
 30
0.0
 11
157.97
 21
138.958
 31
0.0
  0
LINE
  5
19E
330
6F
100
AcDbEntity
  8
0
 62
     0
100
AcDbLine
 10
157.97
 20
138.958
 30
0.0
 11
157.97
 21
124.958
 31
0.0
  0
LINE
  5
19F
330
6F
100
AcDbEntity
  8
0
 62
     0
100
AcDbLine
 10
157.97
 20
124.958
 30
0.0
 11
143.97
 21
124.958
 31
0.0
  0
LINE
  5
1A0
330
6F
100
AcDbEntity
  8
0
 62
     0
100
AcDbLine
 10
143.97
 20
124.958
 30
0.0
 11
143.97
 21
138.958
 31
0.0
  0
LINE
  5
1A1
330
6F
100
AcDbEntity
  8
0
 62
     0
100
AcDbLine
 10
124.919
 20
138.958
 30
0.0
 11
138.92
 21
138.958
 31
0.0
  0
LINE
  5
1A2
330
6F
100
AcDbEntity
  8
0
 62
     0
100
AcDbLine
 10
138.92
 20
138.958
 30
0.0
 11
138.92
 21
124.958
 31
0.0
  0
LINE
  5
1A3
330
6F
100
AcDbEntity
  8
0
 62
     0
100
AcDbLine
 10
138.92
 20
124.958
 30
0.0
 11
124.919
 21
124.958
 31
0.0
  0
LINE
  5
1A4
330
6F
100
AcDbEntity
  8
0
 62
     0
100
AcDbLine
 10
124.919
 20
124.958
 30
0.0
 11
124.919
 21
138.958
 31
0.0
  0
LINE
  5
1A5
330
6F
100
AcDbEntity
  8
0
 62
     0
100
AcDbLine
 10
105.869
 20
138.958
 30
0.0
 11
119.87
 21
138.958
 31
0.0
  0
LINE
  5
1A6
330
6F
100
AcDbEntity
  8
0
 62
     0
100
AcDbLine
 10
119.87
 20
138.958
 30
0.0
 11
119.87
 21
124.958
 31
0.0
  0
LINE
  5
1A7
330
6F
100
AcDbEntity
  8
0
 62
     0
100
AcDbLine
 10
119.87
 20
124.958
 30
0.0
 11
105.869
 21
124.958
 31
0.0
  0
LINE
  5
1A8
330
6F
100
AcDbEntity
  8
0
 62
     0
100
AcDbLine
 10
105.869
 20
124.958
 30
0.0
 11
105.869
 21
138.958
 31
0.0
  0
LINE
  5
1A9
330
6F
100
AcDbEntity
  8
0
 62
     0
100
AcDbLine
 10
86.8204
 20
138.958
 30
0.0
 11
100.82
 21
138.958
 31
0.0
  0
LINE
  5
1AA
330
6F
100
AcDbEntity
  8
0
 62
     0
100
AcDbLine
 10
100.82
 20
138.958
 30
0.0
 11
100.82
 21
124.958
 31
0.0
  0
LINE
  5
1AB
330
6F
100
AcDbEntity
  8
0
 62
     0
100
AcDbLine
 10
100.82
 20
124.958
 30
0.0
 11
86.8204
 21
124.958
 31
0.0
  0
LINE
  5
1AC
330
6F
100
AcDbEntity
  8
0
 62
     0
100
AcDbLine
 10
86.8204
 20
124.958
 30
0.0
 11
86.8204
 21
138.958
 31
0.0
  0
LINE
  5
1AD
330
6F
100
AcDbEntity
  8
0
 62
     0
100
AcDbLine
 10
67.77039999999999
 20
138.958
 30
0.0
 11
81.76999999999999
 21
138.958
 31
0.0
  0
LINE
  5
1AE
330
6F
100
AcDbEntity
  8
0
 62
     0
100
AcDbLine
 10
81.76999999999999
 20
138.958
 30
0.0
 11
81.76999999999999
 21
124.958
 31
0.0
  0
LINE
  5
1AF
330
6F
100
AcDbEntity
  8
0
 62
     0
100
AcDbLine
 10
81.76999999999999
 20
124.958
 30
0.0
 11
67.77039999999999
 21
124.958
 31
0.0
  0
LINE
  5
1B0
330
6F
100
AcDbEntity
  8
0
 62
     0
100
AcDbLine
 10
67.77039999999999
 20
124.958
 30
0.0
 11
67.77039999999999
 21
138.958
 31
0.0
  0
LINE
  5
1B1
330
6F
100
AcDbEntity
  8
0
 62
     0
100
AcDbLine
 10
48.7204
 20
138.958
 30
0.0
 11
62.72
 21
138.958
 31
0.0
  0
LINE
  5
1B2
330
6F
100
AcDbEntity
  8
0
 62
     0
100
AcDbLine
 10
62.72
 20
138.958
 30
0.0
 11
62.72
 21
124.958
 31
0.0
  0
LINE
  5
1B3
330
6F
100
AcDbEntity
  8
0
 62
     0
100
AcDbLine
 10
62.72
 20
124.958
 30
0.0
 11
48.7204
 21
124.958
 31
0.0
  0
LINE
  5
1B4
330
6F
100
AcDbEntity
  8
0
 62
     0
100
AcDbLine
 10
48.7204
 20
124.958
 30
0.0
 11
48.7204
 21
138.958
 31
0.0
  0
LINE
  5
1B5
330
6F
100
AcDbEntity
  8
0
 62
     0
100
AcDbLine
 10
29.6706
 20
138.958
 30
0.0
 11
43.66999999999999
 21
138.958
 31
0.0
  0
LINE
  5
1B6
330
6F
100
AcDbEntity
  8
0
 62
     0
100
AcDbLine
 10
43.66999999999999
 20
138.958
 30
0.0
 11
43.66999999999999
 21
124.958
 31
0.0
  0
LINE
  5
1B7
330
6F
100
AcDbEntity
  8
0
 62
     0
100
AcDbLine
 10
43.66999999999999
 20
124.958
 30
0.0
 11
29.6706
 21
124.958
 31
0.0
  0
LINE
  5
1B8
330
6F
100
AcDbEntity
  8
0
 62
     0
100
AcDbLine
 10
29.6706
 20
124.958
 30
0.0
 11
29.6706
 21
138.958
 31
0.0
  0
LINE
  5
1B9
330
6F
100
AcDbEntity
  8
0
 62
     0
100
AcDbLine
 10
10.6192
 20
138.958
 30
0.0
 11
24.62
 21
138.958
 31
0.0
  0
LINE
  5
1BA
330
6F
100
AcDbEntity
  8
0
 62
     0
100
AcDbLine
 10
24.62
 20
138.958
 30
0.0
 11
24.62
 21
124.958
 31
0.0
  0
LINE
  5
1BB
330
6F
100
AcDbEntity
  8
0
 62
     0
100
AcDbLine
 10
24.62
 20
124.958
 30
0.0
 11
10.6192
 21
124.958
 31
0.0
  0
LINE
  5
1BC
330
6F
100
AcDbEntity
  8
0
 62
     0
100
AcDbLine
 10
10.6192
 20
124.958
 30
0.0
 11
10.6192
 21
138.958
 31
0.0
  0
LINE
  5
1BD
330
6F
100
AcDbEntity
  8
0
 62
     0
100
AcDbLine
 10
220.17
 20
158.007
 30
0.0
 11
234.17
 21
158.007
 31
0.0
  0
LINE
  5
1BE
330
6F
100
AcDbEntity
  8
0
 62
     0
100
AcDbLine
 10
234.17
 20
158.007
 30
0.0
 11
234.17
 21
144.008
 31
0.0
  0
LINE
  5
1BF
330
6F
100
AcDbEntity
  8
0
 62
     0
100
AcDbLine
 10
234.17
 20
144.008
 30
0.0
 11
220.17
 21
144.008
 31
0.0
  0
LINE
  5
1C0
330
6F
100
AcDbEntity
  8
0
 62
     0
100
AcDbLine
 10
220.17
 20
144.008
 30
0.0
 11
220.17
 21
158.007
 31
0.0
  0
LINE
  5
1C1
330
6F
100
AcDbEntity
  8
0
 62
     0
100
AcDbLine
 10
201.12
 20
158.007
 30
0.0
 11
215.12
 21
158.007
 31
0.0
  0
LINE
  5
1C2
330
6F
100
AcDbEntity
  8
0
 62
     0
100
AcDbLine
 10
215.12
 20
158.007
 30
0.0
 11
215.12
 21
144.008
 31
0.0
  0
LINE
  5
1C3
330
6F
100
AcDbEntity
  8
0
 62
     0
100
AcDbLine
 10
215.12
 20
144.008
 30
0.0
 11
201.12
 21
144.008
 31
0.0
  0
LINE
  5
1C4
330
6F
100
AcDbEntity
  8
0
 62
     0
100
AcDbLine
 10
201.12
 20
144.008
 30
0.0
 11
201.12
 21
158.007
 31
0.0
  0
LINE
  5
1C5
330
6F
100
AcDbEntity
  8
0
 62
     0
100
AcDbLine
 10
182.07
 20
158.007
 30
0.0
 11
196.07
 21
158.007
 31
0.0
  0
LINE
  5
1C6
330
6F
100
AcDbEntity
  8
0
 62
     0
100
AcDbLine
 10
196.07
 20
158.007
 30
0.0
 11
196.07
 21
144.008
 31
0.0
  0
LINE
  5
1C7
330
6F
100
AcDbEntity
  8
0
 62
     0
100
AcDbLine
 10
196.07
 20
144.008
 30
0.0
 11
182.07
 21
144.008
 31
0.0
  0
LINE
  5
1C8
330
6F
100
AcDbEntity
  8
0
 62
     0
100
AcDbLine
 10
182.07
 20
144.008
 30
0.0
 11
182.07
 21
158.007
 31
0.0
  0
LINE
  5
1C9
330
6F
100
AcDbEntity
  8
0
 62
     0
100
AcDbLine
 10
163.02
 20
158.007
 30
0.0
 11
177.02
 21
158.007
 31
0.0
  0
LINE
  5
1CA
330
6F
100
AcDbEntity
  8
0
 62
     0
100
AcDbLine
 10
177.02
 20
158.007
 30
0.0
 11
177.02
 21
144.008
 31
0.0
  0
LINE
  5
1CB
330
6F
100
AcDbEntity
  8
0
 62
     0
100
AcDbLine
 10
177.02
 20
144.008
 30
0.0
 11
163.02
 21
144.008
 31
0.0
  0
LINE
  5
1CC
330
6F
100
AcDbEntity
  8
0
 62
     0
100
AcDbLine
 10
163.02
 20
144.008
 30
0.0
 11
163.02
 21
158.007
 31
0.0
  0
LINE
  5
1CD
330
6F
100
AcDbEntity
  8
0
 62
     0
100
AcDbLine
 10
143.97
 20
158.007
 30
0.0
 11
157.97
 21
158.007
 31
0.0
  0
LINE
  5
1CE
330
6F
100
AcDbEntity
  8
0
 62
     0
100
AcDbLine
 10
157.97
 20
158.007
 30
0.0
 11
157.97
 21
144.008
 31
0.0
  0
LINE
  5
1CF
330
6F
100
AcDbEntity
  8
0
 62
     0
100
AcDbLine
 10
157.97
 20
144.008
 30
0.0
 11
143.97
 21
144.008
 31
0.0
  0
LINE
  5
1D0
330
6F
100
AcDbEntity
  8
0
 62
     0
100
AcDbLine
 10
143.97
 20
144.008
 30
0.0
 11
143.97
 21
158.007
 31
0.0
  0
LINE
  5
1D1
330
6F
100
AcDbEntity
  8
0
 62
     0
100
AcDbLine
 10
124.919
 20
158.007
 30
0.0
 11
138.92
 21
158.007
 31
0.0
  0
LINE
  5
1D2
330
6F
100
AcDbEntity
  8
0
 62
     0
100
AcDbLine
 10
138.92
 20
158.007
 30
0.0
 11
138.92
 21
144.008
 31
0.0
  0
LINE
  5
1D3
330
6F
100
AcDbEntity
  8
0
 62
     0
100
AcDbLine
 10
138.92
 20
144.008
 30
0.0
 11
124.919
 21
144.008
 31
0.0
  0
LINE
  5
1D4
330
6F
100
AcDbEntity
  8
0
 62
     0
100
AcDbLine
 10
124.919
 20
144.008
 30
0.0
 11
124.919
 21
158.007
 31
0.0
  0
LINE
  5
1D5
330
6F
100
AcDbEntity
  8
0
 62
     0
100
AcDbLine
 10
105.869
 20
158.007
 30
0.0
 11
119.87
 21
158.007
 31
0.0
  0
LINE
  5
1D6
330
6F
100
AcDbEntity
  8
0
 62
     0
100
AcDbLine
 10
119.87
 20
158.007
 30
0.0
 11
119.87
 21
144.008
 31
0.0
  0
LINE
  5
1D7
330
6F
100
AcDbEntity
  8
0
 62
     0
100
AcDbLine
 10
119.87
 20
144.008
 30
0.0
 11
105.869
 21
144.008
 31
0.0
  0
LINE
  5
1D8
330
6F
100
AcDbEntity
  8
0
 62
     0
100
AcDbLine
 10
105.869
 20
144.008
 30
0.0
 11
105.869
 21
158.007
 31
0.0
  0
LINE
  5
1D9
330
6F
100
AcDbEntity
  8
0
 62
     0
100
AcDbLine
 10
86.8204
 20
158.007
 30
0.0
 11
100.82
 21
158.007
 31
0.0
  0
LINE
  5
1DA
330
6F
100
AcDbEntity
  8
0
 62
     0
100
AcDbLine
 10
100.82
 20
158.007
 30
0.0
 11
100.82
 21
144.008
 31
0.0
  0
LINE
  5
1DB
330
6F
100
AcDbEntity
  8
0
 62
     0
100
AcDbLine
 10
100.82
 20
144.008
 30
0.0
 11
86.8204
 21
144.008
 31
0.0
  0
LINE
  5
1DC
330
6F
100
AcDbEntity
  8
0
 62
     0
100
AcDbLine
 10
86.8204
 20
144.008
 30
0.0
 11
86.8204
 21
158.007
 31
0.0
  0
LINE
  5
1DD
330
6F
100
AcDbEntity
  8
0
 62
     0
100
AcDbLine
 10
67.77039999999999
 20
158.007
 30
0.0
 11
81.76999999999999
 21
158.007
 31
0.0
  0
LINE
  5
1DE
330
6F
100
AcDbEntity
  8
0
 62
     0
100
AcDbLine
 10
81.76999999999999
 20
158.007
 30
0.0
 11
81.76999999999999
 21
144.008
 31
0.0
  0
LINE
  5
1DF
330
6F
100
AcDbEntity
  8
0
 62
     0
100
AcDbLine
 10
81.76999999999999
 20
144.008
 30
0.0
 11
67.77039999999999
 21
144.008
 31
0.0
  0
LINE
  5
1E0
330
6F
100
AcDbEntity
  8
0
 62
     0
100
AcDbLine
 10
67.77039999999999
 20
144.008
 30
0.0
 11
67.77039999999999
 21
158.007
 31
0.0
  0
LINE
  5
1E1
330
6F
100
AcDbEntity
  8
0
 62
     0
100
AcDbLine
 10
48.7204
 20
158.007
 30
0.0
 11
62.72
 21
158.007
 31
0.0
  0
LINE
  5
1E2
330
6F
100
AcDbEntity
  8
0
 62
     0
100
AcDbLine
 10
62.72
 20
158.007
 30
0.0
 11
62.72
 21
144.008
 31
0.0
  0
LINE
  5
1E3
330
6F
100
AcDbEntity
  8
0
 62
     0
100
AcDbLine
 10
62.72
 20
144.008
 30
0.0
 11
48.7204
 21
144.008
 31
0.0
  0
LINE
  5
1E4
330
6F
100
AcDbEntity
  8
0
 62
     0
100
AcDbLine
 10
48.7204
 20
144.008
 30
0.0
 11
48.7204
 21
158.007
 31
0.0
  0
LINE
  5
1E5
330
6F
100
AcDbEntity
  8
0
 62
     0
100
AcDbLine
 10
29.6706
 20
158.007
 30
0.0
 11
43.66999999999999
 21
158.007
 31
0.0
  0
LINE
  5
1E6
330
6F
100
AcDbEntity
  8
0
 62
     0
100
AcDbLine
 10
43.66999999999999
 20
158.007
 30
0.0
 11
43.66999999999999
 21
144.008
 31
0.0
  0
LINE
  5
1E7
330
6F
100
AcDbEntity
  8
0
 62
     0
100
AcDbLine
 10
43.66999999999999
 20
144.008
 30
0.0
 11
29.6706
 21
144.008
 31
0.0
  0
LINE
  5
1E8
330
6F
100
AcDbEntity
  8
0
 62
     0
100
AcDbLine
 10
29.6706
 20
144.008
 30
0.0
 11
29.6706
 21
158.007
 31
0.0
  0
LINE
  5
1E9
330
6F
100
AcDbEntity
  8
0
 62
     0
100
AcDbLine
 10
10.6192
 20
158.007
 30
0.0
 11
24.62
 21
158.007
 31
0.0
  0
LINE
  5
1EA
330
6F
100
AcDbEntity
  8
0
 62
     0
100
AcDbLine
 10
24.62
 20
158.007
 30
0.0
 11
24.62
 21
144.008
 31
0.0
  0
LINE
  5
1EB
330
6F
100
AcDbEntity
  8
0
 62
     0
100
AcDbLine
 10
24.62
 20
144.008
 30
0.0
 11
10.6192
 21
144.008
 31
0.0
  0
LINE
  5
1EC
330
6F
100
AcDbEntity
  8
0
 62
     0
100
AcDbLine
 10
10.6192
 20
144.008
 30
0.0
 11
10.6192
 21
158.007
 31
0.0
  0
LINE
  5
1ED
330
6F
100
AcDbEntity
  8
0
 62
     0
100
AcDbLine
 10
3.770309999999999
 20
162.865
 30
0.0
 11
3.478169999999999
 21
162.715
 31
0.0
  0
LINE
  5
1EE
330
6F
100
AcDbEntity
  8
0
 62
     0
100
AcDbLine
 10
3.478169999999999
 20
162.715
 30
0.0
 11
3.245279999999999
 21
162.483
 31
0.0
  0
LINE
  5
1EF
330
6F
100
AcDbEntity
  8
0
 62
     0
100
AcDbLine
 10
3.245279999999999
 20
162.483
 30
0.0
 11
3.09507
 21
162.191
 31
0.0
  0
LINE
  5
1F0
330
6F
100
AcDbEntity
  8
0
 62
     0
100
AcDbLine
 10
3.09507
 20
162.191
 30
0.0
 11
3.04409
 21
161.866
 31
0.0
  0
LINE
  5
1F1
330
6F
100
AcDbEntity
  8
0
 62
     0
100
AcDbLine
 10
3.04409
 20
161.866
 30
0.0
 11
3.09507
 21
161.542
 31
0.0
  0
LINE
  5
1F2
330
6F
100
AcDbEntity
  8
0
 62
     0
100
AcDbLine
 10
3.09507
 20
161.542
 30
0.0
 11
3.245279999999999
 21
161.248
 31
0.0
  0
LINE
  5
1F3
330
6F
100
AcDbEntity
  8
0
 62
     0
100
AcDbLine
 10
3.245279999999999
 20
161.248
 30
0.0
 11
3.478169999999999
 21
161.017
 31
0.0
  0
LINE
  5
1F4
330
6F
100
AcDbEntity
  8
0
 62
     0
100
AcDbLine
 10
3.478169999999999
 20
161.017
 30
0.0
 11
3.770309999999999
 21
160.867
 31
0.0
  0
LINE
  5
1F5
330
6F
100
AcDbEntity
  8
0
 62
     0
100
AcDbLine
 10
3.770309999999999
 20
160.867
 30
0.0
 11
4.095539999999999
 21
160.816
 31
0.0
  0
LINE
  5
1F6
330
6F
100
AcDbEntity
  8
0
 62
     0
100
AcDbLine
 10
4.095539999999999
 20
160.816
 30
0.0
 11
4.419349999999999
 21
160.867
 31
0.0
  0
LINE
  5
1F7
330
6F
100
AcDbEntity
  8
0
 62
     0
100
AcDbLine
 10
4.419349999999999
 20
160.867
 30
0.0
 11
4.7129
 21
161.017
 31
0.0
  0
LINE
  5
1F8
330
6F
100
AcDbEntity
  8
0
 62
     0
100
AcDbLine
 10
4.7129
 20
161.017
 30
0.0
 11
4.94439
 21
161.248
 31
0.0
  0
LINE
  5
1F9
330
6F
100
AcDbEntity
  8
0
 62
     0
100
AcDbLine
 10
4.94439
 20
161.248
 30
0.0
 11
5.09323
 21
161.542
 31
0.0
  0
LINE
  5
1FA
330
6F
100
AcDbEntity
  8
0
 62
     0
100
AcDbLine
 10
5.09323
 20
161.542
 30
0.0
 11
5.14558
 21
161.866
 31
0.0
  0
LINE
  5
1FB
330
6F
100
AcDbEntity
  8
0
 62
     0
100
AcDbLine
 10
5.14558
 20
161.866
 30
0.0
 11
5.09323
 21
162.191
 31
0.0
  0
LINE
  5
1FC
330
6F
100
AcDbEntity
  8
0
 62
     0
100
AcDbLine
 10
5.09323
 20
162.191
 30
0.0
 11
4.94439
 21
162.483
 31
0.0
  0
LINE
  5
1FD
330
6F
100
AcDbEntity
  8
0
 62
     0
100
AcDbLine
 10
4.94439
 20
162.483
 30
0.0
 11
4.7129
 21
162.715
 31
0.0
  0
LINE
  5
1FE
330
6F
100
AcDbEntity
  8
0
 62
     0
100
AcDbLine
 10
4.7129
 20
162.715
 30
0.0
 11
4.419349999999999
 21
162.865
 31
0.0
  0
LINE
  5
1FF
330
6F
100
AcDbEntity
  8
0
 62
     0
100
AcDbLine
 10
4.419349999999999
 20
162.865
 30
0.0
 11
4.095539999999999
 21
162.916
 31
0.0
  0
LINE
  5
200
330
6F
100
AcDbEntity
  8
0
 62
     0
100
AcDbLine
 10
4.095539999999999
 20
162.916
 30
0.0
 11
3.770309999999999
 21
162.865
 31
0.0
  0
LINE
  5
201
330
6F
100
AcDbEntity
  8
0
 62
     0
100
AcDbLine
 10
240.371
 20
162.865
 30
0.0
 11
240.079
 21
162.715
 31
0.0
  0
LINE
  5
202
330
6F
100
AcDbEntity
  8
0
 62
     0
100
AcDbLine
 10
240.079
 20
162.715
 30
0.0
 11
239.846
 21
162.483
 31
0.0
  0
LINE
  5
203
330
6F
100
AcDbEntity
  8
0
 62
     0
100
AcDbLine
 10
239.846
 20
162.483
 30
0.0
 11
239.697
 21
162.191
 31
0.0
  0
LINE
  5
204
330
6F
100
AcDbEntity
  8
0
 62
     0
100
AcDbLine
 10
239.697
 20
162.191
 30
0.0
 11
239.647
 21
161.866
 31
0.0
  0
LINE
  5
205
330
6F
100
AcDbEntity
  8
0
 62
     0
100
AcDbLine
 10
239.647
 20
161.866
 30
0.0
 11
239.697
 21
161.542
 31
0.0
  0
LINE
  5
206
330
6F
100
AcDbEntity
  8
0
 62
     0
100
AcDbLine
 10
239.697
 20
161.542
 30
0.0
 11
239.846
 21
161.248
 31
0.0
  0
LINE
  5
207
330
6F
100
AcDbEntity
  8
0
 62
     0
100
AcDbLine
 10
239.846
 20
161.248
 30
0.0
 11
240.079
 21
161.017
 31
0.0
  0
LINE
  5
208
330
6F
100
AcDbEntity
  8
0
 62
     0
100
AcDbLine
 10
240.079
 20
161.017
 30
0.0
 11
240.371
 21
160.867
 31
0.0
  0
LINE
  5
209
330
6F
100
AcDbEntity
  8
0
 62
     0
100
AcDbLine
 10
240.371
 20
160.867
 30
0.0
 11
240.696
 21
160.816
 31
0.0
  0
LINE
  5
20A
330
6F
100
AcDbEntity
  8
0
 62
     0
100
AcDbLine
 10
240.696
 20
160.816
 30
0.0
 11
241.02
 21
160.867
 31
0.0
  0
LINE
  5
20B
330
6F
100
AcDbEntity
  8
0
 62
     0
100
AcDbLine
 10
241.02
 20
160.867
 30
0.0
 11
241.314
 21
161.017
 31
0.0
  0
LINE
  5
20C
330
6F
100
AcDbEntity
  8
0
 62
     0
100
AcDbLine
 10
241.314
 20
161.017
 30
0.0
 11
241.545
 21
161.248
 31
0.0
  0
LINE
  5
20D
330
6F
100
AcDbEntity
  8
0
 62
     0
100
AcDbLine
 10
241.545
 20
161.248
 30
0.0
 11
241.694
 21
161.542
 31
0.0
  0
LINE
  5
20E
330
6F
100
AcDbEntity
  8
0
 62
     0
100
AcDbLine
 10
241.694
 20
161.542
 30
0.0
 11
241.747
 21
161.866
 31
0.0
  0
LINE
  5
20F
330
6F
100
AcDbEntity
  8
0
 62
     0
100
AcDbLine
 10
241.747
 20
161.866
 30
0.0
 11
241.694
 21
162.191
 31
0.0
  0
LINE
  5
210
330
6F
100
AcDbEntity
  8
0
 62
     0
100
AcDbLine
 10
241.694
 20
162.191
 30
0.0
 11
241.545
 21
162.483
 31
0.0
  0
LINE
  5
211
330
6F
100
AcDbEntity
  8
0
 62
     0
100
AcDbLine
 10
241.545
 20
162.483
 30
0.0
 11
241.314
 21
162.715
 31
0.0
  0
LINE
  5
212
330
6F
100
AcDbEntity
  8
0
 62
     0
100
AcDbLine
 10
241.314
 20
162.715
 30
0.0
 11
241.02
 21
162.865
 31
0.0
  0
LINE
  5
213
330
6F
100
AcDbEntity
  8
0
 62
     0
100
AcDbLine
 10
241.02
 20
162.865
 30
0.0
 11
240.696
 21
162.916
 31
0.0
  0
LINE
  5
214
330
6F
100
AcDbEntity
  8
0
 62
     0
100
AcDbLine
 10
240.696
 20
162.916
 30
0.0
 11
240.371
 21
162.865
 31
0.0
  0
LINE
  5
215
330
6F
100
AcDbEntity
  8
0
 62
     0
100
AcDbLine
 10
220.17
 20
177.057
 30
0.0
 11
234.17
 21
177.057
 31
0.0
  0
LINE
  5
216
330
6F
100
AcDbEntity
  8
0
 62
     0
100
AcDbLine
 10
234.17
 20
177.057
 30
0.0
 11
234.17
 21
163.058
 31
0.0
  0
LINE
  5
217
330
6F
100
AcDbEntity
  8
0
 62
     0
100
AcDbLine
 10
234.17
 20
163.058
 30
0.0
 11
220.17
 21
163.058
 31
0.0
  0
LINE
  5
218
330
6F
100
AcDbEntity
  8
0
 62
     0
100
AcDbLine
 10
220.17
 20
163.058
 30
0.0
 11
220.17
 21
177.057
 31
0.0
  0
LINE
  5
219
330
6F
100
AcDbEntity
  8
0
 62
     0
100
AcDbLine
 10
201.12
 20
177.057
 30
0.0
 11
215.12
 21
177.057
 31
0.0
  0
LINE
  5
21A
330
6F
100
AcDbEntity
  8
0
 62
     0
100
AcDbLine
 10
215.12
 20
177.057
 30
0.0
 11
215.12
 21
163.058
 31
0.0
  0
LINE
  5
21B
330
6F
100
AcDbEntity
  8
0
 62
     0
100
AcDbLine
 10
215.12
 20
163.058
 30
0.0
 11
201.12
 21
163.058
 31
0.0
  0
LINE
  5
21C
330
6F
100
AcDbEntity
  8
0
 62
     0
100
AcDbLine
 10
201.12
 20
163.058
 30
0.0
 11
201.12
 21
177.057
 31
0.0
  0
LINE
  5
21D
330
6F
100
AcDbEntity
  8
0
 62
     0
100
AcDbLine
 10
182.07
 20
177.057
 30
0.0
 11
196.07
 21
177.057
 31
0.0
  0
LINE
  5
21E
330
6F
100
AcDbEntity
  8
0
 62
     0
100
AcDbLine
 10
196.07
 20
177.057
 30
0.0
 11
196.07
 21
163.058
 31
0.0
  0
LINE
  5
21F
330
6F
100
AcDbEntity
  8
0
 62
     0
100
AcDbLine
 10
196.07
 20
163.058
 30
0.0
 11
182.07
 21
163.058
 31
0.0
  0
LINE
  5
220
330
6F
100
AcDbEntity
  8
0
 62
     0
100
AcDbLine
 10
182.07
 20
163.058
 30
0.0
 11
182.07
 21
177.057
 31
0.0
  0
LINE
  5
221
330
6F
100
AcDbEntity
  8
0
 62
     0
100
AcDbLine
 10
163.02
 20
177.057
 30
0.0
 11
177.02
 21
177.057
 31
0.0
  0
LINE
  5
222
330
6F
100
AcDbEntity
  8
0
 62
     0
100
AcDbLine
 10
177.02
 20
177.057
 30
0.0
 11
177.02
 21
163.058
 31
0.0
  0
LINE
  5
223
330
6F
100
AcDbEntity
  8
0
 62
     0
100
AcDbLine
 10
177.02
 20
163.058
 30
0.0
 11
163.02
 21
163.058
 31
0.0
  0
LINE
  5
224
330
6F
100
AcDbEntity
  8
0
 62
     0
100
AcDbLine
 10
163.02
 20
163.058
 30
0.0
 11
163.02
 21
177.057
 31
0.0
  0
LINE
  5
225
330
6F
100
AcDbEntity
  8
0
 62
     0
100
AcDbLine
 10
143.97
 20
177.057
 30
0.0
 11
157.97
 21
177.057
 31
0.0
  0
LINE
  5
226
330
6F
100
AcDbEntity
  8
0
 62
     0
100
AcDbLine
 10
157.97
 20
177.057
 30
0.0
 11
157.97
 21
163.058
 31
0.0
  0
LINE
  5
227
330
6F
100
AcDbEntity
  8
0
 62
     0
100
AcDbLine
 10
157.97
 20
163.058
 30
0.0
 11
143.97
 21
163.058
 31
0.0
  0
LINE
  5
228
330
6F
100
AcDbEntity
  8
0
 62
     0
100
AcDbLine
 10
143.97
 20
163.058
 30
0.0
 11
143.97
 21
177.057
 31
0.0
  0
LINE
  5
229
330
6F
100
AcDbEntity
  8
0
 62
     0
100
AcDbLine
 10
124.919
 20
177.057
 30
0.0
 11
138.92
 21
177.057
 31
0.0
  0
LINE
  5
22A
330
6F
100
AcDbEntity
  8
0
 62
     0
100
AcDbLine
 10
138.92
 20
177.057
 30
0.0
 11
138.92
 21
163.058
 31
0.0
  0
LINE
  5
22B
330
6F
100
AcDbEntity
  8
0
 62
     0
100
AcDbLine
 10
138.92
 20
163.058
 30
0.0
 11
124.919
 21
163.058
 31
0.0
  0
LINE
  5
22C
330
6F
100
AcDbEntity
  8
0
 62
     0
100
AcDbLine
 10
124.919
 20
163.058
 30
0.0
 11
124.919
 21
177.057
 31
0.0
  0
LINE
  5
22D
330
6F
100
AcDbEntity
  8
0
 62
     0
100
AcDbLine
 10
105.869
 20
177.057
 30
0.0
 11
119.87
 21
177.057
 31
0.0
  0
LINE
  5
22E
330
6F
100
AcDbEntity
  8
0
 62
     0
100
AcDbLine
 10
119.87
 20
177.057
 30
0.0
 11
119.87
 21
163.058
 31
0.0
  0
LINE
  5
22F
330
6F
100
AcDbEntity
  8
0
 62
     0
100
AcDbLine
 10
119.87
 20
163.058
 30
0.0
 11
105.869
 21
163.058
 31
0.0
  0
LINE
  5
230
330
6F
100
AcDbEntity
  8
0
 62
     0
100
AcDbLine
 10
105.869
 20
163.058
 30
0.0
 11
105.869
 21
177.057
 31
0.0
  0
LINE
  5
231
330
6F
100
AcDbEntity
  8
0
 62
     0
100
AcDbLine
 10
86.8204
 20
177.057
 30
0.0
 11
100.82
 21
177.057
 31
0.0
  0
LINE
  5
232
330
6F
100
AcDbEntity
  8
0
 62
     0
100
AcDbLine
 10
100.82
 20
177.057
 30
0.0
 11
100.82
 21
163.058
 31
0.0
  0
LINE
  5
233
330
6F
100
AcDbEntity
  8
0
 62
     0
100
AcDbLine
 10
100.82
 20
163.058
 30
0.0
 11
86.8204
 21
163.058
 31
0.0
  0
LINE
  5
234
330
6F
100
AcDbEntity
  8
0
 62
     0
100
AcDbLine
 10
86.8204
 20
163.058
 30
0.0
 11
86.8204
 21
177.057
 31
0.0
  0
LINE
  5
235
330
6F
100
AcDbEntity
  8
0
 62
     0
100
AcDbLine
 10
67.77039999999999
 20
177.057
 30
0.0
 11
81.76999999999999
 21
177.057
 31
0.0
  0
LINE
  5
236
330
6F
100
AcDbEntity
  8
0
 62
     0
100
AcDbLine
 10
81.76999999999999
 20
177.057
 30
0.0
 11
81.76999999999999
 21
163.058
 31
0.0
  0
LINE
  5
237
330
6F
100
AcDbEntity
  8
0
 62
     0
100
AcDbLine
 10
81.76999999999999
 20
163.058
 30
0.0
 11
67.77039999999999
 21
163.058
 31
0.0
  0
LINE
  5
238
330
6F
100
AcDbEntity
  8
0
 62
     0
100
AcDbLine
 10
67.77039999999999
 20
163.058
 30
0.0
 11
67.77039999999999
 21
177.057
 31
0.0
  0
LINE
  5
239
330
6F
100
AcDbEntity
  8
0
 62
     0
100
AcDbLine
 10
48.7204
 20
177.057
 30
0.0
 11
62.72
 21
177.057
 31
0.0
  0
LINE
  5
23A
330
6F
100
AcDbEntity
  8
0
 62
     0
100
AcDbLine
 10
62.72
 20
177.057
 30
0.0
 11
62.72
 21
163.058
 31
0.0
  0
LINE
  5
23B
330
6F
100
AcDbEntity
  8
0
 62
     0
100
AcDbLine
 10
62.72
 20
163.058
 30
0.0
 11
48.7204
 21
163.058
 31
0.0
  0
LINE
  5
23C
330
6F
100
AcDbEntity
  8
0
 62
     0
100
AcDbLine
 10
48.7204
 20
163.058
 30
0.0
 11
48.7204
 21
177.057
 31
0.0
  0
LINE
  5
23D
330
6F
100
AcDbEntity
  8
0
 62
     0
100
AcDbLine
 10
29.6706
 20
177.057
 30
0.0
 11
43.66999999999999
 21
177.057
 31
0.0
  0
LINE
  5
23E
330
6F
100
AcDbEntity
  8
0
 62
     0
100
AcDbLine
 10
43.66999999999999
 20
177.057
 30
0.0
 11
43.66999999999999
 21
163.058
 31
0.0
  0
LINE
  5
23F
330
6F
100
AcDbEntity
  8
0
 62
     0
100
AcDbLine
 10
43.66999999999999
 20
163.058
 30
0.0
 11
29.6706
 21
163.058
 31
0.0
  0
LINE
  5
240
330
6F
100
AcDbEntity
  8
0
 62
     0
100
AcDbLine
 10
29.6706
 20
163.058
 30
0.0
 11
29.6706
 21
177.057
 31
0.0
  0
LINE
  5
241
330
6F
100
AcDbEntity
  8
0
 62
     0
100
AcDbLine
 10
10.6192
 20
177.057
 30
0.0
 11
24.62
 21
177.057
 31
0.0
  0
LINE
  5
242
330
6F
100
AcDbEntity
  8
0
 62
     0
100
AcDbLine
 10
24.62
 20
177.057
 30
0.0
 11
24.62
 21
163.058
 31
0.0
  0
LINE
  5
243
330
6F
100
AcDbEntity
  8
0
 62
     0
100
AcDbLine
 10
24.62
 20
163.058
 30
0.0
 11
10.6192
 21
163.058
 31
0.0
  0
LINE
  5
244
330
6F
100
AcDbEntity
  8
0
 62
     0
100
AcDbLine
 10
10.6192
 20
163.058
 30
0.0
 11
10.6192
 21
177.057
 31
0.0
  0
LINE
  5
245
330
6F
100
AcDbEntity
  8
0
 62
     0
100
AcDbLine
 10
220.17
 20
196.107
 30
0.0
 11
234.17
 21
196.107
 31
0.0
  0
LINE
  5
246
330
6F
100
AcDbEntity
  8
0
 62
     0
100
AcDbLine
 10
234.17
 20
196.107
 30
0.0
 11
234.17
 21
182.108
 31
0.0
  0
LINE
  5
247
330
6F
100
AcDbEntity
  8
0
 62
     0
100
AcDbLine
 10
234.17
 20
182.108
 30
0.0
 11
220.17
 21
182.108
 31
0.0
  0
LINE
  5
248
330
6F
100
AcDbEntity
  8
0
 62
     0
100
AcDbLine
 10
220.17
 20
182.108
 30
0.0
 11
220.17
 21
196.107
 31
0.0
  0
LINE
  5
249
330
6F
100
AcDbEntity
  8
0
 62
     0
100
AcDbLine
 10
201.12
 20
196.107
 30
0.0
 11
215.12
 21
196.107
 31
0.0
  0
LINE
  5
24A
330
6F
100
AcDbEntity
  8
0
 62
     0
100
AcDbLine
 10
215.12
 20
196.107
 30
0.0
 11
215.12
 21
182.108
 31
0.0
  0
LINE
  5
24B
330
6F
100
AcDbEntity
  8
0
 62
     0
100
AcDbLine
 10
215.12
 20
182.108
 30
0.0
 11
201.12
 21
182.108
 31
0.0
  0
LINE
  5
24C
330
6F
100
AcDbEntity
  8
0
 62
     0
100
AcDbLine
 10
201.12
 20
182.108
 30
0.0
 11
201.12
 21
196.107
 31
0.0
  0
LINE
  5
24D
330
6F
100
AcDbEntity
  8
0
 62
     0
100
AcDbLine
 10
182.07
 20
196.107
 30
0.0
 11
196.07
 21
196.107
 31
0.0
  0
LINE
  5
24E
330
6F
100
AcDbEntity
  8
0
 62
     0
100
AcDbLine
 10
196.07
 20
196.107
 30
0.0
 11
196.07
 21
182.108
 31
0.0
  0
LINE
  5
24F
330
6F
100
AcDbEntity
  8
0
 62
     0
100
AcDbLine
 10
196.07
 20
182.108
 30
0.0
 11
182.07
 21
182.108
 31
0.0
  0
LINE
  5
250
330
6F
100
AcDbEntity
  8
0
 62
     0
100
AcDbLine
 10
182.07
 20
182.108
 30
0.0
 11
182.07
 21
196.107
 31
0.0
  0
LINE
  5
251
330
6F
100
AcDbEntity
  8
0
 62
     0
100
AcDbLine
 10
163.02
 20
196.107
 30
0.0
 11
177.02
 21
196.107
 31
0.0
  0
LINE
  5
252
330
6F
100
AcDbEntity
  8
0
 62
     0
100
AcDbLine
 10
177.02
 20
196.107
 30
0.0
 11
177.02
 21
182.108
 31
0.0
  0
LINE
  5
253
330
6F
100
AcDbEntity
  8
0
 62
     0
100
AcDbLine
 10
177.02
 20
182.108
 30
0.0
 11
163.02
 21
182.108
 31
0.0
  0
LINE
  5
254
330
6F
100
AcDbEntity
  8
0
 62
     0
100
AcDbLine
 10
163.02
 20
182.108
 30
0.0
 11
163.02
 21
196.107
 31
0.0
  0
LINE
  5
255
330
6F
100
AcDbEntity
  8
0
 62
     0
100
AcDbLine
 10
143.97
 20
196.107
 30
0.0
 11
157.97
 21
196.107
 31
0.0
  0
LINE
  5
256
330
6F
100
AcDbEntity
  8
0
 62
     0
100
AcDbLine
 10
157.97
 20
196.107
 30
0.0
 11
157.97
 21
182.108
 31
0.0
  0
LINE
  5
257
330
6F
100
AcDbEntity
  8
0
 62
     0
100
AcDbLine
 10
157.97
 20
182.108
 30
0.0
 11
143.97
 21
182.108
 31
0.0
  0
LINE
  5
258
330
6F
100
AcDbEntity
  8
0
 62
     0
100
AcDbLine
 10
143.97
 20
182.108
 30
0.0
 11
143.97
 21
196.107
 31
0.0
  0
LINE
  5
259
330
6F
100
AcDbEntity
  8
0
 62
     0
100
AcDbLine
 10
124.919
 20
196.107
 30
0.0
 11
138.92
 21
196.107
 31
0.0
  0
LINE
  5
25A
330
6F
100
AcDbEntity
  8
0
 62
     0
100
AcDbLine
 10
138.92
 20
196.107
 30
0.0
 11
138.92
 21
182.108
 31
0.0
  0
LINE
  5
25B
330
6F
100
AcDbEntity
  8
0
 62
     0
100
AcDbLine
 10
138.92
 20
182.108
 30
0.0
 11
124.919
 21
182.108
 31
0.0
  0
LINE
  5
25C
330
6F
100
AcDbEntity
  8
0
 62
     0
100
AcDbLine
 10
124.919
 20
182.108
 30
0.0
 11
124.919
 21
196.107
 31
0.0
  0
LINE
  5
25D
330
6F
100
AcDbEntity
  8
0
 62
     0
100
AcDbLine
 10
105.869
 20
196.107
 30
0.0
 11
119.87
 21
196.107
 31
0.0
  0
LINE
  5
25E
330
6F
100
AcDbEntity
  8
0
 62
     0
100
AcDbLine
 10
119.87
 20
196.107
 30
0.0
 11
119.87
 21
182.108
 31
0.0
  0
LINE
  5
25F
330
6F
100
AcDbEntity
  8
0
 62
     0
100
AcDbLine
 10
119.87
 20
182.108
 30
0.0
 11
105.869
 21
182.108
 31
0.0
  0
LINE
  5
260
330
6F
100
AcDbEntity
  8
0
 62
     0
100
AcDbLine
 10
105.869
 20
182.108
 30
0.0
 11
105.869
 21
196.107
 31
0.0
  0
LINE
  5
261
330
6F
100
AcDbEntity
  8
0
 62
     0
100
AcDbLine
 10
86.8204
 20
196.107
 30
0.0
 11
100.82
 21
196.107
 31
0.0
  0
LINE
  5
262
330
6F
100
AcDbEntity
  8
0
 62
     0
100
AcDbLine
 10
100.82
 20
196.107
 30
0.0
 11
100.82
 21
182.108
 31
0.0
  0
LINE
  5
263
330
6F
100
AcDbEntity
  8
0
 62
     0
100
AcDbLine
 10
100.82
 20
182.108
 30
0.0
 11
86.8204
 21
182.108
 31
0.0
  0
LINE
  5
264
330
6F
100
AcDbEntity
  8
0
 62
     0
100
AcDbLine
 10
86.8204
 20
182.108
 30
0.0
 11
86.8204
 21
196.107
 31
0.0
  0
LINE
  5
265
330
6F
100
AcDbEntity
  8
0
 62
     0
100
AcDbLine
 10
67.77039999999999
 20
196.107
 30
0.0
 11
81.76999999999999
 21
196.107
 31
0.0
  0
LINE
  5
266
330
6F
100
AcDbEntity
  8
0
 62
     0
100
AcDbLine
 10
81.76999999999999
 20
196.107
 30
0.0
 11
81.76999999999999
 21
182.108
 31
0.0
  0
LINE
  5
267
330
6F
100
AcDbEntity
  8
0
 62
     0
100
AcDbLine
 10
81.76999999999999
 20
182.108
 30
0.0
 11
67.77039999999999
 21
182.108
 31
0.0
  0
LINE
  5
268
330
6F
100
AcDbEntity
  8
0
 62
     0
100
AcDbLine
 10
67.77039999999999
 20
182.108
 30
0.0
 11
67.77039999999999
 21
196.107
 31
0.0
  0
LINE
  5
269
330
6F
100
AcDbEntity
  8
0
 62
     0
100
AcDbLine
 10
48.7204
 20
196.107
 30
0.0
 11
62.72
 21
196.107
 31
0.0
  0
LINE
  5
26A
330
6F
100
AcDbEntity
  8
0
 62
     0
100
AcDbLine
 10
62.72
 20
196.107
 30
0.0
 11
62.72
 21
182.108
 31
0.0
  0
LINE
  5
26B
330
6F
100
AcDbEntity
  8
0
 62
     0
100
AcDbLine
 10
62.72
 20
182.108
 30
0.0
 11
48.7204
 21
182.108
 31
0.0
  0
LINE
  5
26C
330
6F
100
AcDbEntity
  8
0
 62
     0
100
AcDbLine
 10
48.7204
 20
182.108
 30
0.0
 11
48.7204
 21
196.107
 31
0.0
  0
LINE
  5
26D
330
6F
100
AcDbEntity
  8
0
 62
     0
100
AcDbLine
 10
29.6706
 20
196.107
 30
0.0
 11
43.66999999999999
 21
196.107
 31
0.0
  0
LINE
  5
26E
330
6F
100
AcDbEntity
  8
0
 62
     0
100
AcDbLine
 10
43.66999999999999
 20
196.107
 30
0.0
 11
43.66999999999999
 21
182.108
 31
0.0
  0
LINE
  5
26F
330
6F
100
AcDbEntity
  8
0
 62
     0
100
AcDbLine
 10
43.66999999999999
 20
182.108
 30
0.0
 11
29.6706
 21
182.108
 31
0.0
  0
LINE
  5
270
330
6F
100
AcDbEntity
  8
0
 62
     0
100
AcDbLine
 10
29.6706
 20
182.108
 30
0.0
 11
29.6706
 21
196.107
 31
0.0
  0
LINE
  5
271
330
6F
100
AcDbEntity
  8
0
 62
     0
100
AcDbLine
 10
10.6192
 20
196.107
 30
0.0
 11
24.62
 21
196.107
 31
0.0
  0
LINE
  5
272
330
6F
100
AcDbEntity
  8
0
 62
     0
100
AcDbLine
 10
24.62
 20
196.107
 30
0.0
 11
24.62
 21
182.108
 31
0.0
  0
LINE
  5
273
330
6F
100
AcDbEntity
  8
0
 62
     0
100
AcDbLine
 10
24.62
 20
182.108
 30
0.0
 11
10.6192
 21
182.108
 31
0.0
  0
LINE
  5
274
330
6F
100
AcDbEntity
  8
0
 62
     0
100
AcDbLine
 10
10.6192
 20
182.108
 30
0.0
 11
10.6192
 21
196.107
 31
0.0
  0
LINE
  5
275
330
6F
100
AcDbEntity
  8
0
 62
     0
100
AcDbLine
 10
220.17
 20
215.157
 30
0.0
 11
234.17
 21
215.157
 31
0.0
  0
LINE
  5
276
330
6F
100
AcDbEntity
  8
0
 62
     0
100
AcDbLine
 10
234.17
 20
215.157
 30
0.0
 11
234.17
 21
201.158
 31
0.0
  0
LINE
  5
277
330
6F
100
AcDbEntity
  8
0
 62
     0
100
AcDbLine
 10
234.17
 20
201.158
 30
0.0
 11
220.17
 21
201.158
 31
0.0
  0
LINE
  5
278
330
6F
100
AcDbEntity
  8
0
 62
     0
100
AcDbLine
 10
220.17
 20
201.158
 30
0.0
 11
220.17
 21
215.157
 31
0.0
  0
LINE
  5
279
330
6F
100
AcDbEntity
  8
0
 62
     0
100
AcDbLine
 10
201.12
 20
215.157
 30
0.0
 11
215.12
 21
215.157
 31
0.0
  0
LINE
  5
27A
330
6F
100
AcDbEntity
  8
0
 62
     0
100
AcDbLine
 10
215.12
 20
215.157
 30
0.0
 11
215.12
 21
201.158
 31
0.0
  0
LINE
  5
27B
330
6F
100
AcDbEntity
  8
0
 62
     0
100
AcDbLine
 10
215.12
 20
201.158
 30
0.0
 11
201.12
 21
201.158
 31
0.0
  0
LINE
  5
27C
330
6F
100
AcDbEntity
  8
0
 62
     0
100
AcDbLine
 10
201.12
 20
201.158
 30
0.0
 11
201.12
 21
215.157
 31
0.0
  0
LINE
  5
27D
330
6F
100
AcDbEntity
  8
0
 62
     0
100
AcDbLine
 10
182.07
 20
215.157
 30
0.0
 11
196.07
 21
215.157
 31
0.0
  0
LINE
  5
27E
330
6F
100
AcDbEntity
  8
0
 62
     0
100
AcDbLine
 10
196.07
 20
215.157
 30
0.0
 11
196.07
 21
201.158
 31
0.0
  0
LINE
  5
27F
330
6F
100
AcDbEntity
  8
0
 62
     0
100
AcDbLine
 10
196.07
 20
201.158
 30
0.0
 11
182.07
 21
201.158
 31
0.0
  0
LINE
  5
280
330
6F
100
AcDbEntity
  8
0
 62
     0
100
AcDbLine
 10
182.07
 20
201.158
 30
0.0
 11
182.07
 21
215.157
 31
0.0
  0
LINE
  5
281
330
6F
100
AcDbEntity
  8
0
 62
     0
100
AcDbLine
 10
163.02
 20
215.157
 30
0.0
 11
177.02
 21
215.157
 31
0.0
  0
LINE
  5
282
330
6F
100
AcDbEntity
  8
0
 62
     0
100
AcDbLine
 10
177.02
 20
215.157
 30
0.0
 11
177.02
 21
201.158
 31
0.0
  0
LINE
  5
283
330
6F
100
AcDbEntity
  8
0
 62
     0
100
AcDbLine
 10
177.02
 20
201.158
 30
0.0
 11
163.02
 21
201.158
 31
0.0
  0
LINE
  5
284
330
6F
100
AcDbEntity
  8
0
 62
     0
100
AcDbLine
 10
163.02
 20
201.158
 30
0.0
 11
163.02
 21
215.157
 31
0.0
  0
LINE
  5
285
330
6F
100
AcDbEntity
  8
0
 62
     0
100
AcDbLine
 10
143.97
 20
215.157
 30
0.0
 11
157.97
 21
215.157
 31
0.0
  0
LINE
  5
286
330
6F
100
AcDbEntity
  8
0
 62
     0
100
AcDbLine
 10
157.97
 20
215.157
 30
0.0
 11
157.97
 21
201.158
 31
0.0
  0
LINE
  5
287
330
6F
100
AcDbEntity
  8
0
 62
     0
100
AcDbLine
 10
157.97
 20
201.158
 30
0.0
 11
143.97
 21
201.158
 31
0.0
  0
LINE
  5
288
330
6F
100
AcDbEntity
  8
0
 62
     0
100
AcDbLine
 10
143.97
 20
201.158
 30
0.0
 11
143.97
 21
215.157
 31
0.0
  0
LINE
  5
289
330
6F
100
AcDbEntity
  8
0
 62
     0
100
AcDbLine
 10
124.919
 20
215.157
 30
0.0
 11
138.92
 21
215.157
 31
0.0
  0
LINE
  5
28A
330
6F
100
AcDbEntity
  8
0
 62
     0
100
AcDbLine
 10
138.92
 20
215.157
 30
0.0
 11
138.92
 21
201.158
 31
0.0
  0
LINE
  5
28B
330
6F
100
AcDbEntity
  8
0
 62
     0
100
AcDbLine
 10
138.92
 20
201.158
 30
0.0
 11
124.919
 21
201.158
 31
0.0
  0
LINE
  5
28C
330
6F
100
AcDbEntity
  8
0
 62
     0
100
AcDbLine
 10
124.919
 20
201.158
 30
0.0
 11
124.919
 21
215.157
 31
0.0
  0
LINE
  5
28D
330
6F
100
AcDbEntity
  8
0
 62
     0
100
AcDbLine
 10
105.869
 20
215.157
 30
0.0
 11
119.87
 21
215.157
 31
0.0
  0
LINE
  5
28E
330
6F
100
AcDbEntity
  8
0
 62
     0
100
AcDbLine
 10
119.87
 20
215.157
 30
0.0
 11
119.87
 21
201.158
 31
0.0
  0
LINE
  5
28F
330
6F
100
AcDbEntity
  8
0
 62
     0
100
AcDbLine
 10
119.87
 20
201.158
 30
0.0
 11
105.869
 21
201.158
 31
0.0
  0
LINE
  5
290
330
6F
100
AcDbEntity
  8
0
 62
     0
100
AcDbLine
 10
105.869
 20
201.158
 30
0.0
 11
105.869
 21
215.157
 31
0.0
  0
LINE
  5
291
330
6F
100
AcDbEntity
  8
0
 62
     0
100
AcDbLine
 10
86.8204
 20
215.157
 30
0.0
 11
100.82
 21
215.157
 31
0.0
  0
LINE
  5
292
330
6F
100
AcDbEntity
  8
0
 62
     0
100
AcDbLine
 10
100.82
 20
215.157
 30
0.0
 11
100.82
 21
201.158
 31
0.0
  0
LINE
  5
293
330
6F
100
AcDbEntity
  8
0
 62
     0
100
AcDbLine
 10
100.82
 20
201.158
 30
0.0
 11
86.8204
 21
201.158
 31
0.0
  0
LINE
  5
294
330
6F
100
AcDbEntity
  8
0
 62
     0
100
AcDbLine
 10
86.8204
 20
201.158
 30
0.0
 11
86.8204
 21
215.157
 31
0.0
  0
LINE
  5
295
330
6F
100
AcDbEntity
  8
0
 62
     0
100
AcDbLine
 10
67.77039999999999
 20
215.157
 30
0.0
 11
81.76999999999999
 21
215.157
 31
0.0
  0
LINE
  5
296
330
6F
100
AcDbEntity
  8
0
 62
     0
100
AcDbLine
 10
81.76999999999999
 20
215.157
 30
0.0
 11
81.76999999999999
 21
201.158
 31
0.0
  0
LINE
  5
297
330
6F
100
AcDbEntity
  8
0
 62
     0
100
AcDbLine
 10
81.76999999999999
 20
201.158
 30
0.0
 11
67.77039999999999
 21
201.158
 31
0.0
  0
LINE
  5
298
330
6F
100
AcDbEntity
  8
0
 62
     0
100
AcDbLine
 10
67.77039999999999
 20
201.158
 30
0.0
 11
67.77039999999999
 21
215.157
 31
0.0
  0
LINE
  5
299
330
6F
100
AcDbEntity
  8
0
 62
     0
100
AcDbLine
 10
48.7204
 20
215.157
 30
0.0
 11
62.72
 21
215.157
 31
0.0
  0
LINE
  5
29A
330
6F
100
AcDbEntity
  8
0
 62
     0
100
AcDbLine
 10
62.72
 20
215.157
 30
0.0
 11
62.72
 21
201.158
 31
0.0
  0
LINE
  5
29B
330
6F
100
AcDbEntity
  8
0
 62
     0
100
AcDbLine
 10
62.72
 20
201.158
 30
0.0
 11
48.7204
 21
201.158
 31
0.0
  0
LINE
  5
29C
330
6F
100
AcDbEntity
  8
0
 62
     0
100
AcDbLine
 10
48.7204
 20
201.158
 30
0.0
 11
48.7204
 21
215.157
 31
0.0
  0
LINE
  5
29D
330
6F
100
AcDbEntity
  8
0
 62
     0
100
AcDbLine
 10
29.6706
 20
215.157
 30
0.0
 11
43.66999999999999
 21
215.157
 31
0.0
  0
LINE
  5
29E
330
6F
100
AcDbEntity
  8
0
 62
     0
100
AcDbLine
 10
43.66999999999999
 20
215.157
 30
0.0
 11
43.66999999999999
 21
201.158
 31
0.0
  0
LINE
  5
29F
330
6F
100
AcDbEntity
  8
0
 62
     0
100
AcDbLine
 10
43.66999999999999
 20
201.158
 30
0.0
 11
29.6706
 21
201.158
 31
0.0
  0
LINE
  5
2A0
330
6F
100
AcDbEntity
  8
0
 62
     0
100
AcDbLine
 10
29.6706
 20
201.158
 30
0.0
 11
29.6706
 21
215.157
 31
0.0
  0
LINE
  5
2A1
330
6F
100
AcDbEntity
  8
0
 62
     0
100
AcDbLine
 10
10.6192
 20
215.157
 30
0.0
 11
24.62
 21
215.157
 31
0.0
  0
LINE
  5
2A2
330
6F
100
AcDbEntity
  8
0
 62
     0
100
AcDbLine
 10
24.62
 20
215.157
 30
0.0
 11
24.62
 21
201.158
 31
0.0
  0
LINE
  5
2A3
330
6F
100
AcDbEntity
  8
0
 62
     0
100
AcDbLine
 10
24.62
 20
201.158
 30
0.0
 11
10.6192
 21
201.158
 31
0.0
  0
LINE
  5
2A4
330
6F
100
AcDbEntity
  8
0
 62
     0
100
AcDbLine
 10
10.6192
 20
201.158
 30
0.0
 11
10.6192
 21
215.157
 31
0.0
  0
LINE
  5
2A5
330
6F
100
AcDbEntity
  8
0
 62
     0
100
AcDbLine
 10
220.17
 20
234.208
 30
0.0
 11
234.17
 21
234.208
 31
0.0
  0
LINE
  5
2A6
330
6F
100
AcDbEntity
  8
0
 62
     0
100
AcDbLine
 10
234.17
 20
234.208
 30
0.0
 11
234.17
 21
220.208
 31
0.0
  0
LINE
  5
2A7
330
6F
100
AcDbEntity
  8
0
 62
     0
100
AcDbLine
 10
234.17
 20
220.208
 30
0.0
 11
220.17
 21
220.208
 31
0.0
  0
LINE
  5
2A8
330
6F
100
AcDbEntity
  8
0
 62
     0
100
AcDbLine
 10
220.17
 20
220.208
 30
0.0
 11
220.17
 21
234.208
 31
0.0
  0
LINE
  5
2A9
330
6F
100
AcDbEntity
  8
0
 62
     0
100
AcDbLine
 10
201.12
 20
234.208
 30
0.0
 11
215.12
 21
234.208
 31
0.0
  0
LINE
  5
2AA
330
6F
100
AcDbEntity
  8
0
 62
     0
100
AcDbLine
 10
215.12
 20
234.208
 30
0.0
 11
215.12
 21
220.208
 31
0.0
  0
LINE
  5
2AB
330
6F
100
AcDbEntity
  8
0
 62
     0
100
AcDbLine
 10
215.12
 20
220.208
 30
0.0
 11
201.12
 21
220.208
 31
0.0
  0
LINE
  5
2AC
330
6F
100
AcDbEntity
  8
0
 62
     0
100
AcDbLine
 10
201.12
 20
220.208
 30
0.0
 11
201.12
 21
234.208
 31
0.0
  0
LINE
  5
2AD
330
6F
100
AcDbEntity
  8
0
 62
     0
100
AcDbLine
 10
182.07
 20
234.208
 30
0.0
 11
196.07
 21
234.208
 31
0.0
  0
LINE
  5
2AE
330
6F
100
AcDbEntity
  8
0
 62
     0
100
AcDbLine
 10
196.07
 20
234.208
 30
0.0
 11
196.07
 21
220.208
 31
0.0
  0
LINE
  5
2AF
330
6F
100
AcDbEntity
  8
0
 62
     0
100
AcDbLine
 10
196.07
 20
220.208
 30
0.0
 11
182.07
 21
220.208
 31
0.0
  0
LINE
  5
2B0
330
6F
100
AcDbEntity
  8
0
 62
     0
100
AcDbLine
 10
182.07
 20
220.208
 30
0.0
 11
182.07
 21
234.208
 31
0.0
  0
LINE
  5
2B1
330
6F
100
AcDbEntity
  8
0
 62
     0
100
AcDbLine
 10
163.02
 20
234.208
 30
0.0
 11
177.02
 21
234.208
 31
0.0
  0
LINE
  5
2B2
330
6F
100
AcDbEntity
  8
0
 62
     0
100
AcDbLine
 10
177.02
 20
234.208
 30
0.0
 11
177.02
 21
220.208
 31
0.0
  0
LINE
  5
2B3
330
6F
100
AcDbEntity
  8
0
 62
     0
100
AcDbLine
 10
177.02
 20
220.208
 30
0.0
 11
163.02
 21
220.208
 31
0.0
  0
LINE
  5
2B4
330
6F
100
AcDbEntity
  8
0
 62
     0
100
AcDbLine
 10
163.02
 20
220.208
 30
0.0
 11
163.02
 21
234.208
 31
0.0
  0
LINE
  5
2B5
330
6F
100
AcDbEntity
  8
0
 62
     0
100
AcDbLine
 10
143.97
 20
234.208
 30
0.0
 11
157.97
 21
234.208
 31
0.0
  0
LINE
  5
2B6
330
6F
100
AcDbEntity
  8
0
 62
     0
100
AcDbLine
 10
157.97
 20
234.208
 30
0.0
 11
157.97
 21
220.208
 31
0.0
  0
LINE
  5
2B7
330
6F
100
AcDbEntity
  8
0
 62
     0
100
AcDbLine
 10
157.97
 20
220.208
 30
0.0
 11
143.97
 21
220.208
 31
0.0
  0
LINE
  5
2B8
330
6F
100
AcDbEntity
  8
0
 62
     0
100
AcDbLine
 10
143.97
 20
220.208
 30
0.0
 11
143.97
 21
234.208
 31
0.0
  0
LINE
  5
2B9
330
6F
100
AcDbEntity
  8
0
 62
     0
100
AcDbLine
 10
124.919
 20
234.208
 30
0.0
 11
138.92
 21
234.208
 31
0.0
  0
LINE
  5
2BA
330
6F
100
AcDbEntity
  8
0
 62
     0
100
AcDbLine
 10
138.92
 20
234.208
 30
0.0
 11
138.92
 21
220.208
 31
0.0
  0
LINE
  5
2BB
330
6F
100
AcDbEntity
  8
0
 62
     0
100
AcDbLine
 10
138.92
 20
220.208
 30
0.0
 11
124.919
 21
220.208
 31
0.0
  0
LINE
  5
2BC
330
6F
100
AcDbEntity
  8
0
 62
     0
100
AcDbLine
 10
124.919
 20
220.208
 30
0.0
 11
124.919
 21
234.208
 31
0.0
  0
LINE
  5
2BD
330
6F
100
AcDbEntity
  8
0
 62
     0
100
AcDbLine
 10
105.869
 20
234.208
 30
0.0
 11
119.87
 21
234.208
 31
0.0
  0
LINE
  5
2BE
330
6F
100
AcDbEntity
  8
0
 62
     0
100
AcDbLine
 10
119.87
 20
234.208
 30
0.0
 11
119.87
 21
220.208
 31
0.0
  0
LINE
  5
2BF
330
6F
100
AcDbEntity
  8
0
 62
     0
100
AcDbLine
 10
119.87
 20
220.208
 30
0.0
 11
105.869
 21
220.208
 31
0.0
  0
LINE
  5
2C0
330
6F
100
AcDbEntity
  8
0
 62
     0
100
AcDbLine
 10
105.869
 20
220.208
 30
0.0
 11
105.869
 21
234.208
 31
0.0
  0
LINE
  5
2C1
330
6F
100
AcDbEntity
  8
0
 62
     0
100
AcDbLine
 10
86.8204
 20
234.208
 30
0.0
 11
100.82
 21
234.208
 31
0.0
  0
LINE
  5
2C2
330
6F
100
AcDbEntity
  8
0
 62
     0
100
AcDbLine
 10
100.82
 20
234.208
 30
0.0
 11
100.82
 21
220.208
 31
0.0
  0
LINE
  5
2C3
330
6F
100
AcDbEntity
  8
0
 62
     0
100
AcDbLine
 10
100.82
 20
220.208
 30
0.0
 11
86.8204
 21
220.208
 31
0.0
  0
LINE
  5
2C4
330
6F
100
AcDbEntity
  8
0
 62
     0
100
AcDbLine
 10
86.8204
 20
220.208
 30
0.0
 11
86.8204
 21
234.208
 31
0.0
  0
LINE
  5
2C5
330
6F
100
AcDbEntity
  8
0
 62
     0
100
AcDbLine
 10
67.77039999999999
 20
234.208
 30
0.0
 11
81.76999999999999
 21
234.208
 31
0.0
  0
LINE
  5
2C6
330
6F
100
AcDbEntity
  8
0
 62
     0
100
AcDbLine
 10
81.76999999999999
 20
234.208
 30
0.0
 11
81.76999999999999
 21
220.208
 31
0.0
  0
LINE
  5
2C7
330
6F
100
AcDbEntity
  8
0
 62
     0
100
AcDbLine
 10
81.76999999999999
 20
220.208
 30
0.0
 11
67.77039999999999
 21
220.208
 31
0.0
  0
LINE
  5
2C8
330
6F
100
AcDbEntity
  8
0
 62
     0
100
AcDbLine
 10
67.77039999999999
 20
220.208
 30
0.0
 11
67.77039999999999
 21
234.208
 31
0.0
  0
LINE
  5
2C9
330
6F
100
AcDbEntity
  8
0
 62
     0
100
AcDbLine
 10
48.7204
 20
234.208
 30
0.0
 11
62.72
 21
234.208
 31
0.0
  0
LINE
  5
2CA
330
6F
100
AcDbEntity
  8
0
 62
     0
100
AcDbLine
 10
62.72
 20
234.208
 30
0.0
 11
62.72
 21
220.208
 31
0.0
  0
LINE
  5
2CB
330
6F
100
AcDbEntity
  8
0
 62
     0
100
AcDbLine
 10
62.72
 20
220.208
 30
0.0
 11
48.7204
 21
220.208
 31
0.0
  0
LINE
  5
2CC
330
6F
100
AcDbEntity
  8
0
 62
     0
100
AcDbLine
 10
48.7204
 20
220.208
 30
0.0
 11
48.7204
 21
234.208
 31
0.0
  0
LINE
  5
2CD
330
6F
100
AcDbEntity
  8
0
 62
     0
100
AcDbLine
 10
29.6706
 20
234.208
 30
0.0
 11
43.66999999999999
 21
234.208
 31
0.0
  0
LINE
  5
2CE
330
6F
100
AcDbEntity
  8
0
 62
     0
100
AcDbLine
 10
43.66999999999999
 20
234.208
 30
0.0
 11
43.66999999999999
 21
220.208
 31
0.0
  0
LINE
  5
2CF
330
6F
100
AcDbEntity
  8
0
 62
     0
100
AcDbLine
 10
43.66999999999999
 20
220.208
 30
0.0
 11
29.6706
 21
220.208
 31
0.0
  0
LINE
  5
2D0
330
6F
100
AcDbEntity
  8
0
 62
     0
100
AcDbLine
 10
29.6706
 20
220.208
 30
0.0
 11
29.6706
 21
234.208
 31
0.0
  0
LINE
  5
2D1
330
6F
100
AcDbEntity
  8
0
 62
     0
100
AcDbLine
 10
10.6192
 20
234.208
 30
0.0
 11
24.62
 21
234.208
 31
0.0
  0
LINE
  5
2D2
330
6F
100
AcDbEntity
  8
0
 62
     0
100
AcDbLine
 10
24.62
 20
234.208
 30
0.0
 11
24.62
 21
220.208
 31
0.0
  0
LINE
  5
2D3
330
6F
100
AcDbEntity
  8
0
 62
     0
100
AcDbLine
 10
24.62
 20
220.208
 30
0.0
 11
10.6192
 21
220.208
 31
0.0
  0
LINE
  5
2D4
330
6F
100
AcDbEntity
  8
0
 62
     0
100
AcDbLine
 10
10.6192
 20
220.208
 30
0.0
 11
10.6192
 21
234.208
 31
0.0
  0
LINE
  5
2D5
330
6F
100
AcDbEntity
  8
0
 62
     0
100
AcDbLine
 10
240.371
 20
241.733
 30
0.0
 11
240.079
 21
241.583
 31
0.0
  0
LINE
  5
2D6
330
6F
100
AcDbEntity
  8
0
 62
     0
100
AcDbLine
 10
240.079
 20
241.583
 30
0.0
 11
239.846
 21
241.35
 31
0.0
  0
LINE
  5
2D7
330
6F
100
AcDbEntity
  8
0
 62
     0
100
AcDbLine
 10
239.846
 20
241.35
 30
0.0
 11
239.697
 21
241.058
 31
0.0
  0
LINE
  5
2D8
330
6F
100
AcDbEntity
  8
0
 62
     0
100
AcDbLine
 10
239.697
 20
241.058
 30
0.0
 11
239.647
 21
240.732
 31
0.0
  0
LINE
  5
2D9
330
6F
100
AcDbEntity
  8
0
 62
     0
100
AcDbLine
 10
239.647
 20
240.732
 30
0.0
 11
239.697
 21
240.409
 31
0.0
  0
LINE
  5
2DA
330
6F
100
AcDbEntity
  8
0
 62
     0
100
AcDbLine
 10
239.697
 20
240.409
 30
0.0
 11
239.846
 21
240.115
 31
0.0
  0
LINE
  5
2DB
330
6F
100
AcDbEntity
  8
0
 62
     0
100
AcDbLine
 10
239.846
 20
240.115
 30
0.0
 11
240.079
 21
239.883
 31
0.0
  0
LINE
  5
2DC
330
6F
100
AcDbEntity
  8
0
 62
     0
100
AcDbLine
 10
240.079
 20
239.883
 30
0.0
 11
240.371
 21
239.735
 31
0.0
  0
LINE
  5
2DD
330
6F
100
AcDbEntity
  8
0
 62
     0
100
AcDbLine
 10
240.371
 20
239.735
 30
0.0
 11
240.696
 21
239.682
 31
0.0
  0
LINE
  5
2DE
330
6F
100
AcDbEntity
  8
0
 62
     0
100
AcDbLine
 10
240.696
 20
239.682
 30
0.0
 11
241.02
 21
239.735
 31
0.0
  0
LINE
  5
2DF
330
6F
100
AcDbEntity
  8
0
 62
     0
100
AcDbLine
 10
241.02
 20
239.735
 30
0.0
 11
241.314
 21
239.883
 31
0.0
  0
LINE
  5
2E0
330
6F
100
AcDbEntity
  8
0
 62
     0
100
AcDbLine
 10
241.314
 20
239.883
 30
0.0
 11
241.545
 21
240.115
 31
0.0
  0
LINE
  5
2E1
330
6F
100
AcDbEntity
  8
0
 62
     0
100
AcDbLine
 10
241.545
 20
240.115
 30
0.0
 11
241.694
 21
240.409
 31
0.0
  0
LINE
  5
2E2
330
6F
100
AcDbEntity
  8
0
 62
     0
100
AcDbLine
 10
241.694
 20
240.409
 30
0.0
 11
241.747
 21
240.732
 31
0.0
  0
LINE
  5
2E3
330
6F
100
AcDbEntity
  8
0
 62
     0
100
AcDbLine
 10
241.747
 20
240.732
 30
0.0
 11
241.694
 21
241.058
 31
0.0
  0
LINE
  5
2E4
330
6F
100
AcDbEntity
  8
0
 62
     0
100
AcDbLine
 10
241.694
 20
241.058
 30
0.0
 11
241.545
 21
241.35
 31
0.0
  0
LINE
  5
2E5
330
6F
100
AcDbEntity
  8
0
 62
     0
100
AcDbLine
 10
241.545
 20
241.35
 30
0.0
 11
241.314
 21
241.583
 31
0.0
  0
LINE
  5
2E6
330
6F
100
AcDbEntity
  8
0
 62
     0
100
AcDbLine
 10
241.314
 20
241.583
 30
0.0
 11
241.02
 21
241.733
 31
0.0
  0
LINE
  5
2E7
330
6F
100
AcDbEntity
  8
0
 62
     0
100
AcDbLine
 10
241.02
 20
241.733
 30
0.0
 11
240.696
 21
241.782
 31
0.0
  0
LINE
  5
2E8
330
6F
100
AcDbEntity
  8
0
 62
     0
100
AcDbLine
 10
240.696
 20
241.782
 30
0.0
 11
240.371
 21
241.733
 31
0.0
  0
LINE
  5
2E9
330
6F
100
AcDbEntity
  8
0
 62
     0
100
AcDbLine
 10
161.505
 20
241.733
 30
0.0
 11
161.211
 21
241.583
 31
0.0
  0
LINE
  5
2EA
330
6F
100
AcDbEntity
  8
0
 62
     0
100
AcDbLine
 10
161.211
 20
241.583
 30
0.0
 11
160.98
 21
241.35
 31
0.0
  0
LINE
  5
2EB
330
6F
100
AcDbEntity
  8
0
 62
     0
100
AcDbLine
 10
160.98
 20
241.35
 30
0.0
 11
160.831
 21
241.058
 31
0.0
  0
LINE
  5
2EC
330
6F
100
AcDbEntity
  8
0
 62
     0
100
AcDbLine
 10
160.831
 20
241.058
 30
0.0
 11
160.78
 21
240.732
 31
0.0
  0
LINE
  5
2ED
330
6F
100
AcDbEntity
  8
0
 62
     0
100
AcDbLine
 10
160.78
 20
240.732
 30
0.0
 11
160.831
 21
240.409
 31
0.0
  0
LINE
  5
2EE
330
6F
100
AcDbEntity
  8
0
 62
     0
100
AcDbLine
 10
160.831
 20
240.409
 30
0.0
 11
160.98
 21
240.115
 31
0.0
  0
LINE
  5
2EF
330
6F
100
AcDbEntity
  8
0
 62
     0
100
AcDbLine
 10
160.98
 20
240.115
 30
0.0
 11
161.211
 21
239.883
 31
0.0
  0
LINE
  5
2F0
330
6F
100
AcDbEntity
  8
0
 62
     0
100
AcDbLine
 10
161.211
 20
239.883
 30
0.0
 11
161.505
 21
239.735
 31
0.0
  0
LINE
  5
2F1
330
6F
100
AcDbEntity
  8
0
 62
     0
100
AcDbLine
 10
161.505
 20
239.735
 30
0.0
 11
161.83
 21
239.682
 31
0.0
  0
LINE
  5
2F2
330
6F
100
AcDbEntity
  8
0
 62
     0
100
AcDbLine
 10
161.83
 20
239.682
 30
0.0
 11
162.154
 21
239.735
 31
0.0
  0
LINE
  5
2F3
330
6F
100
AcDbEntity
  8
0
 62
     0
100
AcDbLine
 10
162.154
 20
239.735
 30
0.0
 11
162.446
 21
239.883
 31
0.0
  0
LINE
  5
2F4
330
6F
100
AcDbEntity
  8
0
 62
     0
100
AcDbLine
 10
162.446
 20
239.883
 30
0.0
 11
162.679
 21
240.115
 31
0.0
  0
LINE
  5
2F5
330
6F
100
AcDbEntity
  8
0
 62
     0
100
AcDbLine
 10
162.679
 20
240.115
 30
0.0
 11
162.828
 21
240.409
 31
0.0
  0
LINE
  5
2F6
330
6F
100
AcDbEntity
  8
0
 62
     0
100
AcDbLine
 10
162.828
 20
240.409
 30
0.0
 11
162.88
 21
240.732
 31
0.0
  0
LINE
  5
2F7
330
6F
100
AcDbEntity
  8
0
 62
     0
100
AcDbLine
 10
162.88
 20
240.732
 30
0.0
 11
162.828
 21
241.058
 31
0.0
  0
LINE
  5
2F8
330
6F
100
AcDbEntity
  8
0
 62
     0
100
AcDbLine
 10
162.828
 20
241.058
 30
0.0
 11
162.679
 21
241.35
 31
0.0
  0
LINE
  5
2F9
330
6F
100
AcDbEntity
  8
0
 62
     0
100
AcDbLine
 10
162.679
 20
241.35
 30
0.0
 11
162.446
 21
241.583
 31
0.0
  0
LINE
  5
2FA
330
6F
100
AcDbEntity
  8
0
 62
     0
100
AcDbLine
 10
162.446
 20
241.583
 30
0.0
 11
162.154
 21
241.733
 31
0.0
  0
LINE
  5
2FB
330
6F
100
AcDbEntity
  8
0
 62
     0
100
AcDbLine
 10
162.154
 20
241.733
 30
0.0
 11
161.83
 21
241.782
 31
0.0
  0
LINE
  5
2FC
330
6F
100
AcDbEntity
  8
0
 62
     0
100
AcDbLine
 10
161.83
 20
241.782
 30
0.0
 11
161.505
 21
241.733
 31
0.0
  0
LINE
  5
2FD
330
6F
100
AcDbEntity
  8
0
 62
     0
100
AcDbLine
 10
82.63679999999999
 20
241.733
 30
0.0
 11
82.34469999999999
 21
241.583
 31
0.0
  0
LINE
  5
2FE
330
6F
100
AcDbEntity
  8
0
 62
     0
100
AcDbLine
 10
82.34469999999999
 20
241.583
 30
0.0
 11
82.1133
 21
241.35
 31
0.0
  0
LINE
  5
2FF
330
6F
100
AcDbEntity
  8
0
 62
     0
100
AcDbLine
 10
82.1133
 20
241.35
 30
0.0
 11
81.96299999999999
 21
241.058
 31
0.0
  0
LINE
  5
300
330
6F
100
AcDbEntity
  8
0
 62
     0
100
AcDbLine
 10
81.96299999999999
 20
241.058
 30
0.0
 11
81.91180000000001
 21
240.732
 31
0.0
  0
LINE
  5
301
330
6F
100
AcDbEntity
  8
0
 62
     0
100
AcDbLine
 10
81.91180000000001
 20
240.732
 30
0.0
 11
81.96299999999999
 21
240.409
 31
0.0
  0
LINE
  5
302
330
6F
100
AcDbEntity
  8
0
 62
     0
100
AcDbLine
 10
81.96299999999999
 20
240.409
 30
0.0
 11
82.1133
 21
240.115
 31
0.0
  0
LINE
  5
303
330
6F
100
AcDbEntity
  8
0
 62
     0
100
AcDbLine
 10
82.1133
 20
240.115
 30
0.0
 11
82.34469999999999
 21
239.883
 31
0.0
  0
LINE
  5
304
330
6F
100
AcDbEntity
  8
0
 62
     0
100
AcDbLine
 10
82.34469999999999
 20
239.883
 30
0.0
 11
82.63679999999999
 21
239.735
 31
0.0
  0
LINE
  5
305
330
6F
100
AcDbEntity
  8
0
 62
     0
100
AcDbLine
 10
82.63679999999999
 20
239.735
 30
0.0
 11
82.962
 21
239.682
 31
0.0
  0
LINE
  5
306
330
6F
100
AcDbEntity
  8
0
 62
     0
100
AcDbLine
 10
82.962
 20
239.682
 30
0.0
 11
83.2859
 21
239.735
 31
0.0
  0
LINE
  5
307
330
6F
100
AcDbEntity
  8
0
 62
     0
100
AcDbLine
 10
83.2859
 20
239.735
 30
0.0
 11
83.57940000000001
 21
239.883
 31
0.0
  0
LINE
  5
308
330
6F
100
AcDbEntity
  8
0
 62
     0
100
AcDbLine
 10
83.57940000000001
 20
239.883
 30
0.0
 11
83.8108
 21
240.115
 31
0.0
  0
LINE
  5
309
330
6F
100
AcDbEntity
  8
0
 62
     0
100
AcDbLine
 10
83.8108
 20
240.115
 30
0.0
 11
83.9611
 21
240.409
 31
0.0
  0
LINE
  5
30A
330
6F
100
AcDbEntity
  8
0
 62
     0
100
AcDbLine
 10
83.9611
 20
240.409
 30
0.0
 11
84.01229999999999
 21
240.732
 31
0.0
  0
LINE
  5
30B
330
6F
100
AcDbEntity
  8
0
 62
     0
100
AcDbLine
 10
84.01229999999999
 20
240.732
 30
0.0
 11
83.9611
 21
241.058
 31
0.0
  0
LINE
  5
30C
330
6F
100
AcDbEntity
  8
0
 62
     0
100
AcDbLine
 10
83.9611
 20
241.058
 30
0.0
 11
83.8108
 21
241.35
 31
0.0
  0
LINE
  5
30D
330
6F
100
AcDbEntity
  8
0
 62
     0
100
AcDbLine
 10
83.8108
 20
241.35
 30
0.0
 11
83.57940000000001
 21
241.583
 31
0.0
  0
LINE
  5
30E
330
6F
100
AcDbEntity
  8
0
 62
     0
100
AcDbLine
 10
83.57940000000001
 20
241.583
 30
0.0
 11
83.2859
 21
241.733
 31
0.0
  0
LINE
  5
30F
330
6F
100
AcDbEntity
  8
0
 62
     0
100
AcDbLine
 10
83.2859
 20
241.733
 30
0.0
 11
82.962
 21
241.782
 31
0.0
  0
LINE
  5
310
330
6F
100
AcDbEntity
  8
0
 62
     0
100
AcDbLine
 10
82.962
 20
241.782
 30
0.0
 11
82.63679999999999
 21
241.733
 31
0.0
  0
LINE
  5
311
330
6F
100
AcDbEntity
  8
0
 62
     0
100
AcDbLine
 10
3.770309999999999
 20
241.733
 30
0.0
 11
3.478169999999999
 21
241.583
 31
0.0
  0
LINE
  5
312
330
6F
100
AcDbEntity
  8
0
 62
     0
100
AcDbLine
 10
3.478169999999999
 20
241.583
 30
0.0
 11
3.245279999999999
 21
241.35
 31
0.0
  0
LINE
  5
313
330
6F
100
AcDbEntity
  8
0
 62
     0
100
AcDbLine
 10
3.245279999999999
 20
241.35
 30
0.0
 11
3.09507
 21
241.058
 31
0.0
  0
LINE
  5
314
330
6F
100
AcDbEntity
  8
0
 62
     0
100
AcDbLine
 10
3.09507
 20
241.058
 30
0.0
 11
3.04409
 21
240.734
 31
0.0
  0
LINE
  5
315
330
6F
100
AcDbEntity
  8
0
 62
     0
100
AcDbLine
 10
3.04409
 20
240.734
 30
0.0
 11
3.09507
 21
240.409
 31
0.0
  0
LINE
  5
316
330
6F
100
AcDbEntity
  8
0
 62
     0
100
AcDbLine
 10
3.09507
 20
240.409
 30
0.0
 11
3.245279999999999
 21
240.115
 31
0.0
  0
LINE
  5
317
330
6F
100
AcDbEntity
  8
0
 62
     0
100
AcDbLine
 10
3.245279999999999
 20
240.115
 30
0.0
 11
3.478169999999999
 21
239.883
 31
0.0
  0
LINE
  5
318
330
6F
100
AcDbEntity
  8
0
 62
     0
100
AcDbLine
 10
3.478169999999999
 20
239.883
 30
0.0
 11
3.770309999999999
 21
239.735
 31
0.0
  0
LINE
  5
319
330
6F
100
AcDbEntity
  8
0
 62
     0
100
AcDbLine
 10
3.770309999999999
 20
239.735
 30
0.0
 11
4.095539999999999
 21
239.684
 31
0.0
  0
LINE
  5
31A
330
6F
100
AcDbEntity
  8
0
 62
     0
100
AcDbLine
 10
4.095539999999999
 20
239.684
 30
0.0
 11
4.419349999999999
 21
239.735
 31
0.0
  0
LINE
  5
31B
330
6F
100
AcDbEntity
  8
0
 62
     0
100
AcDbLine
 10
4.419349999999999
 20
239.735
 30
0.0
 11
4.7129
 21
239.883
 31
0.0
  0
LINE
  5
31C
330
6F
100
AcDbEntity
  8
0
 62
     0
100
AcDbLine
 10
4.7129
 20
239.883
 30
0.0
 11
4.94439
 21
240.115
 31
0.0
  0
LINE
  5
31D
330
6F
100
AcDbEntity
  8
0
 62
     0
100
AcDbLine
 10
4.94439
 20
240.115
 30
0.0
 11
5.09323
 21
240.409
 31
0.0
  0
LINE
  5
31E
330
6F
100
AcDbEntity
  8
0
 62
     0
100
AcDbLine
 10
5.09323
 20
240.409
 30
0.0
 11
5.14558
 21
240.734
 31
0.0
  0
LINE
  5
31F
330
6F
100
AcDbEntity
  8
0
 62
     0
100
AcDbLine
 10
5.14558
 20
240.734
 30
0.0
 11
5.09323
 21
241.058
 31
0.0
  0
LINE
  5
320
330
6F
100
AcDbEntity
  8
0
 62
     0
100
AcDbLine
 10
5.09323
 20
241.058
 30
0.0
 11
4.94439
 21
241.35
 31
0.0
  0
LINE
  5
321
330
6F
100
AcDbEntity
  8
0
 62
     0
100
AcDbLine
 10
4.94439
 20
241.35
 30
0.0
 11
4.7129
 21
241.583
 31
0.0
  0
LINE
  5
322
330
6F
100
AcDbEntity
  8
0
 62
     0
100
AcDbLine
 10
4.7129
 20
241.583
 30
0.0
 11
4.419349999999999
 21
241.733
 31
0.0
  0
LINE
  5
323
330
6F
100
AcDbEntity
  8
0
 62
     0
100
AcDbLine
 10
4.419349999999999
 20
241.733
 30
0.0
 11
4.095539999999999
 21
241.784
 31
0.0
  0
LINE
  5
324
330
6F
100
AcDbEntity
  8
0
 62
     0
100
AcDbLine
 10
4.095539999999999
 20
241.784
 30
0.0
 11
3.770309999999999
 21
241.733
 31
0.0
  0
CIRCLE
  5
5DE
330
6F
100
AcDbEntity
  8
0
100
AcDbCircle
 10
112.8694999999999
 20
141.483
 30
0.0
 40
2.032
  0
CIRCLE
  5
5DF
330
6F
100
AcDbEntity
  8
0
100
AcDbCircle
 10
122.3945
 20
141.483
 30
0.0
 40
3.048
  0
CIRCLE
  5
5E0
330
6F
100
AcDbEntity
  8
0
100
AcDbCircle
 10
131.9194999999997
 20
141.483
 30
0.0
 40
2.032
  0
ENDSEC
  0
SECTION
  2
OBJECTS
  0
DICTIONARY
  5
C
330
0
100
AcDbDictionary
281
     1
  3
ACAD_CIP_PREVIOUS_PRODUCT_INFO
350
326
  3
ACAD_COLOR
350
62
  3
ACAD_DETAILVIEWSTYLE
350
69
  3
ACAD_GROUP
350
D
  3
ACAD_LAYOUT
350
61
  3
ACAD_MATERIAL
350
10
  3
ACAD_MLEADERSTYLE
350
65
  3
ACAD_MLINESTYLE
350
5E
  3
ACAD_PLOTSETTINGS
350
60
  3
ACAD_PLOTSTYLENAME
350
E
  3
ACAD_SCALELIST
350
42
  3
ACAD_SECTIONVIEWSTYLE
350
67
  3
ACAD_TABLESTYLE
350
63
  3
ACAD_VISUALSTYLE
350
29
  3
ACDB_RECOMPOSE_DATA
350
5E7
  3
AcDbVariableDictionary
350
328
  0
DICTIONARY
  5
5D5
330
2
100
AcDbDictionary
280
     1
281
     1
  3
ACAD_LAYERSTATES
360
5D6
  0
DICTIONARY
  5
5E1
330
54
100
AcDbDictionary
280
     1
281
     1
  3
ADSK_XREC_LAYER_RECONCILED
360
5E2
  0
DICTIONARY
  5
5E3
330
5D2
100
AcDbDictionary
280
     1
281
     1
  3
ADSK_XREC_LAYER_RECONCILED
360
5E4
  0
XRECORD
  5
326
102
{ACAD_REACTORS
330
C
102
}
330
C
100
AcDbXrecord
280
     1
300
ACD
300
2021
300

  0
DICTIONARY
  5
62
102
{ACAD_REACTORS
330
C
102
}
330
C
100
AcDbDictionary
281
     1
  0
DICTIONARY
  5
69
102
{ACAD_REACTORS
330
C
102
}
330
C
100
AcDbDictionary
281
     1
  3
Imperial24
350
6A
  0
DICTIONARY
  5
D
102
{ACAD_REACTORS
330
C
102
}
330
C
100
AcDbDictionary
281
     1
  0
DICTIONARY
  5
61
102
{ACAD_REACTORS
330
C
102
}
330
C
100
AcDbDictionary
281
     1
  3
Layout1
350
6E
  3
Model
350
72
  0
DICTIONARY
  5
10
102
{ACAD_REACTORS
330
C
102
}
330
C
100
AcDbDictionary
281
     1
  3
ByBlock
350
19
  3
ByLayer
350
11
  3
Global
350
21
  0
DICTIONARY
  5
65
102
{ACAD_REACTORS
330
C
102
}
330
C
100
AcDbDictionary
281
     1
  3
Standard
350
66
  0
DICTIONARY
  5
5E
102
{ACAD_REACTORS
330
C
102
}
330
C
100
AcDbDictionary
281
     1
  3
Standard
350
5F
  0
DICTIONARY
  5
60
102
{ACAD_REACTORS
330
C
102
}
330
C
100
AcDbDictionary
281
     1
  0
ACDBDICTIONARYWDFLT
  5
E
102
{ACAD_REACTORS
330
C
102
}
330
C
100
AcDbDictionary
281
     1
  3
Normal
350
F
100
AcDbDictionaryWithDefault
340
F
  0
DICTIONARY
  5
42
102
{ACAD_REACTORS
330
C
102
}
330
C
100
AcDbDictionary
281
     1
  3
A0
350
43
  3
A1
350
44
  3
A2
350
45
  3
A3
350
46
  3
A4
350
47
  3
A5
350
48
  3
A6
350
49
  3
A7
350
4A
  3
A8
350
4B
  3
A9
350
4C
  3
B0
350
4D
  3
B1
350
4E
  3
B2
350
4F
  3
B3
350
50
  3
B4
350
51
  3
B5
350
52
  3
B6
350
53
  0
DICTIONARY
  5
67
102
{ACAD_REACTORS
330
C
102
}
330
C
100
AcDbDictionary
281
     1
  3
Imperial24
350
68
  0
DICTIONARY
  5
63
102
{ACAD_REACTORS
330
C
102
}
330
C
100
AcDbDictionary
281
     1
  3
Standard
350
64
  0
DICTIONARY
  5
29
102
{ACAD_REACTORS
330
C
102
}
330
C
100
AcDbDictionary
281
     1
  3
2dWireframe
350
2F
  3
Basic
350
2E
  3
Brighten
350
35
  3
ColorChange
350
39
  3
Conceptual
350
32
  3
Dim
350
34
  3
EdgeColorOff
350
41
  3
Facepattern
350
38
  3
Flat
350
2A
  3
FlatWithEdges
350
2B
  3
Gouraud
350
2C
  3
GouraudWithEdges
350
2D
  3
Hidden
350
31
  3
JitterOff
350
3F
  3
Linepattern
350
37
  3
OverhangOff
350
40
  3
Realistic
350
33
  3
Shaded
350
3E
  3
Shaded with edges
350
3D
  3
Shades of Gray
350
3A
  3
Sketchy
350
3B
  3
Thicken
350
36
  3
Wireframe
350
30
  3
X-Ray
350
3C
  0
XRECORD
  5
5E7
102
{ACAD_REACTORS
330
C
102
}
330
C
100
AcDbXrecord
280
     1
 90
        1
330
64
  0
DICTIONARY
  5
328
102
{ACAD_REACTORS
330
C
102
}
330
C
100
AcDbDictionary
281
     1
  3
CANNOSCALE
350
32E
  3
CMLEADERSTYLE
350
32A
  3
CTABLESTYLE
350
329
  3
CVIEWDETAILSTYLE
350
32B
  3
CVIEWSECTIONSTYLE
350
32C
  3
LAYEREVAL
350
330
  3
LAYERNOTIFY
350
331
  3
LIGHTINGUNITS
350
32F
  3
MSLTSCALE
350
32D
  0
DICTIONARY
  5
5D6
102
{ACAD_REACTORS
330
5D5
102
}
330
5D5
100
AcDbDictionary
281
     1
  0
XRECORD
  5
5E2
102
{ACAD_REACTORS
330
5E1
102
}
330
5E1
100
AcDbXrecord
280
     1
290
     1
  0
XRECORD
  5
5E4
102
{ACAD_REACTORS
330
5E3
102
}
330
5E3
100
AcDbXrecord
280
     1
290
     1
  0
ACDBDETAILVIEWSTYLE
  5
6A
102
{ACAD_REACTORS
330
69
102
}
330
69
100
AcDbModelDocViewStyle
 70
     0
  3
Imperial24
290
     0
300
Imperial24
 90
        0
100
AcDbDetailViewStyle
 70
     0
 71
     0
 90
        3
 71
     1
340
55
 62
   256
 40
0.24
340
0
 62
   256
 40
0.24
300

 40
0.36
280
     3
 71
     2
340
5C
 90
       25
 62
   256
 71
     3
340
55
 62
   256
 40
0.24
 90
        1
 40
0.75
 90
        1
300
%<\AcVar ViewType \f "%tc1">% %<\AcVar ViewDetailId>%\PSCALE %<\AcVar ViewScale \f "%sn">%
 71
     4
340
5C
 90
       25
 62
   256
340
5C
 90
       25
 62
   256
280
     0
  0
LAYOUT
  5
6E
102
{ACAD_REACTORS
330
61
102
}
330
61
100
AcDbPlotSettings
  1

  2
Microsoft Print to PDF
  4

  6

 40
0.0
 41
0.0
 42
0.0
 43
0.0
 44
0.0
 45
0.0
 46
0.0
 47
0.0
 48
0.0
 49
0.0
140
0.0
141
0.0
142
1.0
143
1.0
 70
   688
 72
     0
 73
     0
 74
     5
  7

 75
    16
147
1.0
 76
     0
 77
     2
 78
   300
148
0.0
149
0.0
100
AcDbLayout
  1
Layout1
 70
     1
 71
     1
 10
0.0
 20
0.0
 11
12.0
 21
9.0
 12
0.0
 22
0.0
 32
0.0
 14
1.000000000000000E+20
 24
1.000000000000000E+20
 34
1.000000000000000E+20
 15
-1.000000000000000E+20
 25
-1.000000000000000E+20
 35
-1.000000000000000E+20
146
0.0
 13
0.0
 23
0.0
 33
0.0
 16
1.0
 26
0.0
 36
0.0
 17
0.0
 27
1.0
 37
0.0
 76
     0
330
6B
  0
LAYOUT
  5
72
102
{ACAD_REACTORS
330
61
102
}
330
61
100
AcDbPlotSettings
  1

  2
Microsoft Print to PDF
  4

  6

 40
0.0
 41
0.0
 42
0.0
 43
0.0
 44
0.0
 45
0.0
 46
0.0
 47
0.0
 48
0.0
 49
0.0
140
0.0
141
0.0
142
1.0
143
1.0
 70
  1712
 72
     0
 73
     0
 74
     0
  7

 75
     0
147
1.0
 76
     0
 77
     2
 78
   300
148
0.0
149
0.0
100
AcDbLayout
  1
Model
 70
     1
 71
     0
 10
0.0
 20
0.0
 11
12.0
 21
9.0
 12
0.0
 22
0.0
 32
0.0
 14
0.0
 24
0.0
 34
0.0
 15
0.0
 25
0.0
 35
0.0
146
0.0
 13
0.0
 23
0.0
 33
0.0
 16
1.0
 26
0.0
 36
0.0
 17
0.0
 27
1.0
 37
0.0
 76
     0
330
6F
331
74
  0
MATERIAL
  5
19
102
{ACAD_XDICTIONARY
360
1A
102
}
102
{ACAD_REACTORS
330
10
102
}
330
10
100
AcDbMaterial
  1
ByBlock
 72
     0
 43
0.0208333333333333
 43
0.0
 43
0.0
 43
0.0
 43
0.0
 43
0.0208333333333333
 43
0.0
 43
0.0
 43
0.0
 43
0.0
 43
1.0
 43
0.0
 43
0.0
 43
0.0
 43
0.0
 43
1.0
 77
     0
 47
0.0208333333333333
 47
0.0
 47
0.0
 47
0.0
 47
0.0
 47
0.0208333333333333
 47
0.0
 47
0.0
 47
0.0
 47
0.0
 47
1.0
 47
0.0
 47
0.0
 47
0.0
 47
0.0
 47
1.0
171
     0
 49
0.0208333333333333
 49
0.0
 49
0.0
 49
0.0
 49
0.0
 49
0.0208333333333333
 49
0.0
 49
0.0
 49
0.0
 49
0.0
 49
1.0
 49
0.0
 49
0.0
 49
0.0
 49
0.0
 49
1.0
175
     0
142
0.0208333333333333
142
0.0
142
0.0
142
0.0
142
0.0
142
0.0208333333333333
142
0.0
142
0.0
142
0.0
142
0.0
142
1.0
142
0.0
142
0.0
142
0.0
142
0.0
142
1.0
179
     0
144
0.0208333333333333
144
0.0
144
0.0
144
0.0
144
0.0
144
0.0208333333333333
144
0.0
144
0.0
144
0.0
144
0.0
144
1.0
144
0.0
144
0.0
144
0.0
144
0.0
144
1.0
147
0.0208333333333333
147
0.0
147
0.0
147
0.0
147
0.0
147
0.0208333333333333
147
0.0
147
0.0
147
0.0
147
0.0
147
1.0
147
0.0
147
0.0
147
0.0
147
0.0
147
1.0
  0
MATERIAL
  5
11
102
{ACAD_XDICTIONARY
360
12
102
}
102
{ACAD_REACTORS
330
10
102
}
330
10
100
AcDbMaterial
  1
ByLayer
 72
     0
 43
0.0208333333333333
 43
0.0
 43
0.0
 43
0.0
 43
0.0
 43
0.0208333333333333
 43
0.0
 43
0.0
 43
0.0
 43
0.0
 43
1.0
 43
0.0
 43
0.0
 43
0.0
 43
0.0
 43
1.0
 77
     0
 47
0.0208333333333333
 47
0.0
 47
0.0
 47
0.0
 47
0.0
 47
0.0208333333333333
 47
0.0
 47
0.0
 47
0.0
 47
0.0
 47
1.0
 47
0.0
 47
0.0
 47
0.0
 47
0.0
 47
1.0
171
     0
 49
0.0208333333333333
 49
0.0
 49
0.0
 49
0.0
 49
0.0
 49
0.0208333333333333
 49
0.0
 49
0.0
 49
0.0
 49
0.0
 49
1.0
 49
0.0
 49
0.0
 49
0.0
 49
0.0
 49
1.0
175
     0
142
0.0208333333333333
142
0.0
142
0.0
142
0.0
142
0.0
142
0.0208333333333333
142
0.0
142
0.0
142
0.0
142
0.0
142
1.0
142
0.0
142
0.0
142
0.0
142
0.0
142
1.0
179
     0
144
0.0208333333333333
144
0.0
144
0.0
144
0.0
144
0.0
144
0.0208333333333333
144
0.0
144
0.0
144
0.0
144
0.0
144
1.0
144
0.0
144
0.0
144
0.0
144
0.0
144
1.0
147
0.0208333333333333
147
0.0
147
0.0
147
0.0
147
0.0
147
0.0208333333333333
147
0.0
147
0.0
147
0.0
147
0.0
147
1.0
147
0.0
147
0.0
147
0.0
147
0.0
147
1.0
  0
MATERIAL
  5
21
102
{ACAD_XDICTIONARY
360
22
102
}
102
{ACAD_REACTORS
330
10
102
}
330
10
100
AcDbMaterial
  1
Global
 72
     0
 43
0.0208333333333333
 43
0.0
 43
0.0
 43
0.0
 43
0.0
 43
0.0208333333333333
 43
0.0
 43
0.0
 43
0.0
 43
0.0
 43
1.0
 43
0.0
 43
0.0
 43
0.0
 43
0.0
 43
1.0
 77
     0
 47
0.0208333333333333
 47
0.0
 47
0.0
 47
0.0
 47
0.0
 47
0.0208333333333333
 47
0.0
 47
0.0
 47
0.0
 47
0.0
 47
1.0
 47
0.0
 47
0.0
 47
0.0
 47
0.0
 47
1.0
171
     0
 49
0.0208333333333333
 49
0.0
 49
0.0
 49
0.0
 49
0.0
 49
0.0208333333333333
 49
0.0
 49
0.0
 49
0.0
 49
0.0
 49
1.0
 49
0.0
 49
0.0
 49
0.0
 49
0.0
 49
1.0
175
     0
142
0.0208333333333333
142
0.0
142
0.0
142
0.0
142
0.0
142
0.0208333333333333
142
0.0
142
0.0
142
0.0
142
0.0
142
1.0
142
0.0
142
0.0
142
0.0
142
0.0
142
1.0
179
     0
144
0.0208333333333333
144
0.0
144
0.0
144
0.0
144
0.0
144
0.0208333333333333
144
0.0
144
0.0
144
0.0
144
0.0
144
1.0
144
0.0
144
0.0
144
0.0
144
0.0
144
1.0
147
0.0208333333333333
147
0.0
147
0.0
147
0.0
147
0.0
147
0.0208333333333333
147
0.0
147
0.0
147
0.0
147
0.0
147
1.0
147
0.0
147
0.0
147
0.0
147
0.0
147
1.0
  0
MLEADERSTYLE
  5
66
102
{ACAD_REACTORS
330
65
102
}
330
65
100
AcDbMLeaderStyle
179
     2
170
     2
171
     1
172
     0
 90
        2
 40
0.0
 41
0.0
173
     1
 91
-1056964608
340
5A
 92
       -2
290
     1
 42
0.09
291
     1
 43
0.36
  3
Standard
 44
0.18
300

342
55
174
     1
178
     6
175
     1
176
     0
 93
-1056964608
 45
0.18
292
     0
297
     0
 46
0.18
 94
-1056964608
 47
1.0
 49
1.0
140
1.0
293
     1
141
0.0
294
     1
177
     0
142
1.0
295
     0
296
     0
143
0.125
271
     0
272
     9
273
     9
298
     0
  0
MLINESTYLE
  5
5F
102
{ACAD_REACTORS
330
5E
102
}
330
5E
100
AcDbMlineStyle
  2
STANDARD
 70
     0
  3

 62
   256
 51
90.0
 52
90.0
 71
     2
 49
0.5
 62
   256
  6
BYLAYER
 49
-0.5
 62
   256
  6
BYLAYER
  0
ACDBPLACEHOLDER
  5
F
102
{ACAD_REACTORS
330
E
102
}
330
E
  0
SCALE
  5
43
102
{ACAD_REACTORS
330
42
102
}
330
42
100
AcDbScale
 70
     0
300
1:1
140
1.0
141
1.0
290
     1
  0
SCALE
  5
44
102
{ACAD_REACTORS
330
42
102
}
330
42
100
AcDbScale
 70
     0
300
1/128" = 1'-0"
140
0.0078125
141
12.0
290
     0
  0
SCALE
  5
45
102
{ACAD_REACTORS
330
42
102
}
330
42
100
AcDbScale
 70
     0
300
1/64" = 1'-0"
140
0.015625
141
12.0
290
     0
  0
SCALE
  5
46
102
{ACAD_REACTORS
330
42
102
}
330
42
100
AcDbScale
 70
     0
300
1/32" = 1'-0"
140
0.03125
141
12.0
290
     0
  0
SCALE
  5
47
102
{ACAD_REACTORS
330
42
102
}
330
42
100
AcDbScale
 70
     0
300
1/16" = 1'-0"
140
0.0625
141
12.0
290
     0
  0
SCALE
  5
48
102
{ACAD_REACTORS
330
42
102
}
330
42
100
AcDbScale
 70
     0
300
3/32" = 1'-0"
140
0.09375
141
12.0
290
     0
  0
SCALE
  5
49
102
{ACAD_REACTORS
330
42
102
}
330
42
100
AcDbScale
 70
     0
300
1/8" = 1'-0"
140
0.125
141
12.0
290
     0
  0
SCALE
  5
4A
102
{ACAD_REACTORS
330
42
102
}
330
42
100
AcDbScale
 70
     0
300
3/16" = 1'-0"
140
0.1875
141
12.0
290
     0
  0
SCALE
  5
4B
102
{ACAD_REACTORS
330
42
102
}
330
42
100
AcDbScale
 70
     0
300
1/4" = 1'-0"
140
0.25
141
12.0
290
     0
  0
SCALE
  5
4C
102
{ACAD_REACTORS
330
42
102
}
330
42
100
AcDbScale
 70
     0
300
3/8" = 1'-0"
140
0.375
141
12.0
290
     0
  0
SCALE
  5
4D
102
{ACAD_REACTORS
330
42
102
}
330
42
100
AcDbScale
 70
     0
300
1/2" = 1'-0"
140
0.5
141
12.0
290
     0
  0
SCALE
  5
4E
102
{ACAD_REACTORS
330
42
102
}
330
42
100
AcDbScale
 70
     0
300
3/4" = 1'-0"
140
0.75
141
12.0
290
     0
  0
SCALE
  5
4F
102
{ACAD_REACTORS
330
42
102
}
330
42
100
AcDbScale
 70
     0
300
1" = 1'-0"
140
1.0
141
12.0
290
     0
  0
SCALE
  5
50
102
{ACAD_REACTORS
330
42
102
}
330
42
100
AcDbScale
 70
     0
300
1-1/2" = 1'-0"
140
1.5
141
12.0
290
     0
  0
SCALE
  5
51
102
{ACAD_REACTORS
330
42
102
}
330
42
100
AcDbScale
 70
     0
300
3" = 1'-0"
140
3.0
141
12.0
290
     0
  0
SCALE
  5
52
102
{ACAD_REACTORS
330
42
102
}
330
42
100
AcDbScale
 70
     0
300
6" = 1'-0"
140
6.0
141
12.0
290
     0
  0
SCALE
  5
53
102
{ACAD_REACTORS
330
42
102
}
330
42
100
AcDbScale
 70
     0
300
1'-0" = 1'-0"
140
12.0
141
12.0
290
     0
  0
ACDBSECTIONVIEWSTYLE
  5
68
102
{ACAD_REACTORS
330
67
102
}
330
67
100
AcDbModelDocViewStyle
 70
     0
  3
Imperial24
290
     0
300
Imperial24
 90
        0
100
AcDbSectionViewStyle
 70
     0
 71
     0
 90
       78
 71
     1
340
55
 62
   256
 40
0.24
340
0
340
0
 62
   256
 40
0.24
300
I, O, Q, S, X, Z
 40
0.48
 90
        3
 40
0.18
 90
        1
 71
     2
340
5C
 90
       25
 62
   256
340
5C
 90
       50
 62
   256
 40
0.24
 40
0.0
 40
0.24
 71
     3
340
55
 62
   256
 40
0.24
 90
        1
 40
0.75
 90
        1
300
%<\AcVar ViewType \f "%tc1">% %<\AcVar ViewSectionStartId>%-%<\AcVar ViewSectionEndId>%\PSCALE %<\AcVar ViewScale \f "%sn">%
 71
     4
 62
   256
 62
   257
300
ANSI31
 40
1.0
 90
        0
290
     0
290
     0
 90
        6
 40
0.0
 40
1.570796326794896
 40
0.2617993877991494
 40
1.308996938995747
 40
-0.2617993877991494
 40
1.832595714594046
  0
TABLESTYLE
  5
64
102
{ACAD_XDICTIONARY
360
5E5
102
}
102
{ACAD_REACTORS
330
63
102
}
330
63
100
AcDbTableStyle
280
     0
  3
Standard
 70
     0
 71
     0
 40
0.06
 41
0.06
280
     0
281
     0
  7
Standard
140
0.18
170
     2
 62
     0
 63
     7
283
     0
 90
      512
 91
        0
  1

274
    -2
284
     1
 64
     0
275
    -2
285
     1
 65
     0
276
    -2
286
     1
 66
     0
277
    -2
287
     1
 67
     0
278
    -2
288
     1
 68
     0
279
    -2
289
     1
 69
     0
  7
Standard
140
0.25
170
     5
 62
     0
 63
     7
283
     0
 90
      512
 91
        0
  1

274
    -2
284
     1
 64
     0
275
    -2
285
     1
 65
     0
276
    -2
286
     1
 66
     0
277
    -2
287
     1
 67
     0
278
    -2
288
     1
 68
     0
279
    -2
289
     1
 69
     0
  7
Standard
140
0.18
170
     5
 62
     0
 63
     7
283
     0
 90
      512
 91
        0
  1

274
    -2
284
     1
 64
     0
275
    -2
285
     1
 65
     0
276
    -2
286
     1
 66
     0
277
    -2
287
     1
 67
     0
278
    -2
288
     1
 68
     0
279
    -2
289
     1
 69
     0
  0
VISUALSTYLE
  5
2F
102
{ACAD_REACTORS
330
29
102
}
330
29
100
AcDbVisualStyle
  2
2dWireframe
 70
     4
177
     3
291
     0
 70
    58
 90
        0
176
     1
 90
        2
176
     1
 90
        0
176
     1
 90
        0
176
     1
 40
0.6
176
     1
 40
30.0
176
     1
 62
     7
420
 16777215
176
     1
 90
        1
176
     1
 90
        4
176
     1
 62
     7
176
     1
 62
   257
176
     1
 90
        1
176
     1
 90
        1
176
     1
 40
1.0
176
     1
 90
        0
176
     1
 62
   257
176
     1
 40
1.0
176
     1
 90
        1
176
     1
 90
        6
176
     1
 90
        2
176
     1
 62
     7
176
     1
 90
        5
176
     1
 90
        0
176
     1
 90
        0
176
     1
290
     0
176
     1
 90
        1
176
     1
 40
0.0
176
     1
 90
        0
176
     1
290
     1
176
     1
290
     1
176
     1
290
     0
176
     1
290
     0
176
     1
290
     0
176
     1
290
     0
176
     1
290
     0
176
     1
290
     0
176
     1
290
     0
176
     1
 90
       50
176
     1
 40
0.0
176
     1
 40
1.0
176
     1
 90
        0
176
     1
 62
    18
420
        0
176
     1
 90
       50
176
     1
 90
        3
176
     1
 62
     5
420
      255
176
     1
290
     0
176
     1
 90
       50
176
     1
 90
       50
176
     1
 90
       50
176
     1
290
     0
176
     1
 90
       50
176
     1
 62
   256
176
     0
 40
1.0
176
     0
 90
        2
176
     1
  1
strokes_ogs.tif
176
     1
290
     0
176
     1
 40
1.0
176
     1
 40
1.0
176
     1
  0
VISUALSTYLE
  5
2E
102
{ACAD_REACTORS
330
29
102
}
330
29
100
AcDbVisualStyle
  2
Basic
 70
     7
177
     3
291
     1
 70
    58
 90
        1
176
     1
 90
        0
176
     1
 90
        1
176
     1
 90
        0
176
     1
 40
0.6
176
     1
 40
30.0
176
     1
 62
     7
420
 16777215
176
     1
 90
        0
176
     1
 90
        4
176
     1
 62
     7
176
     1
 62
   257
176
     1
 90
        1
176
     1
 90
        1
176
     1
 40
1.0
176
     1
 90
        8
176
     1
 62
     7
176
     1
 40
1.0
176
     1
 90
        1
176
     1
 90
        6
176
     1
 90
        2
176
     1
 62
     7
176
     1
 90
        5
176
     1
 90
        0
176
     1
 90
        0
176
     1
290
     0
176
     1
 90
        1
176
     1
 40
0.0
176
     1
 90
        0
176
     1
290
     0
176
     1
290
     1
176
     1
290
     1
176
     1
290
     0
176
     1
290
     0
176
     1
290
     0
176
     1
290
     0
176
     1
290
     0
176
     1
290
     0
176
     1
 90
       50
176
     1
 40
0.0
176
     1
 40
1.0
176
     1
 90
        0
176
     1
 62
    18
420
        0
176
     1
 90
       50
176
     1
 90
        3
176
     1
 62
     5
420
      255
176
     1
290
     0
176
     1
 90
       50
176
     1
 90
       50
176
     1
 90
       50
176
     1
290
     0
176
     1
 90
       50
176
     1
 62
   256
176
     0
 40
1.0
176
     0
 90
        2
176
     1
  1
strokes_ogs.tif
176
     1
290
     0
176
     1
 40
1.0
176
     1
 40
1.0
176
     1
  0
VISUALSTYLE
  5
35
102
{ACAD_REACTORS
330
29
102
}
330
29
100
AcDbVisualStyle
  2
Brighten
 70
    12
177
     3
291
     1
 70
    58
 90
        2
176
     1
 90
        2
176
     1
 90
        0
176
     1
 90
        0
176
     1
 40
0.6
176
     1
 40
30.0
176
     1
 62
     7
420
 16777215
176
     1
 90
        1
176
     1
 90
        4
176
     1
 62
     7
176
     1
 62
   257
176
     1
 90
        1
176
     1
 90
        1
176
     1
 40
1.0
176
     1
 90
        8
176
     1
 62
     7
176
     1
 40
1.0
176
     1
 90
        1
176
     1
 90
        6
176
     1
 90
        2
176
     1
 62
     7
176
     1
 90
        5
176
     1
 90
        0
176
     1
 90
        0
176
     1
290
     0
176
     1
 90
        1
176
     1
 40
50.0
176
     1
 90
        0
176
     1
290
     0
176
     1
290
     1
176
     1
290
     1
176
     1
290
     0
176
     1
290
     0
176
     1
290
     0
176
     1
290
     0
176
     1
290
     0
176
     1
290
     0
176
     1
 90
       50
176
     1
 40
0.0
176
     1
 40
1.0
176
     1
 90
        0
176
     1
 62
    18
420
        0
176
     1
 90
       50
176
     1
 90
        3
176
     1
 62
     5
420
      255
176
     1
290
     0
176
     1
 90
       50
176
     1
 90
       50
176
     1
 90
       50
176
     1
290
     0
176
     1
 90
       50
176
     1
 62
   256
176
     0
 40
1.0
176
     0
 90
        2
176
     1
  1
strokes_ogs.tif
176
     1
290
     0
176
     1
 40
1.0
176
     1
 40
1.0
176
     1
  0
VISUALSTYLE
  5
39
102
{ACAD_REACTORS
330
29
102
}
330
29
100
AcDbVisualStyle
  2
ColorChange
 70
    16
177
     3
291
     1
 70
    58
 90
        2
176
     1
 90
        2
176
     1
 90
        3
176
     1
 90
        0
176
     1
 40
0.6
176
     1
 40
30.0
176
     1
 62
     8
420
  8421504
176
     1
 90
        1
176
     1
 90
        4
176
     1
 62
     7
176
     1
 62
   257
176
     1
 90
        1
176
     1
 90
        1
176
     1
 40
1.0
176
     1
 90
        8
176
     1
 62
     8
420
  8421504
176
     1
 40
1.0
176
     1
 90
        1
176
     1
 90
        6
176
     1
 90
        2
176
     1
 62
     7
176
     1
 90
        5
176
     1
 90
        0
176
     1
 90
        0
176
     1
290
     0
176
     1
 90
        1
176
     1
 40
0.0
176
     1
 90
        0
176
     1
290
     0
176
     1
290
     1
176
     1
290
     1
176
     1
290
     0
176
     1
290
     0
176
     1
290
     0
176
     1
290
     0
176
     1
290
     0
176
     1
290
     0
176
     1
 90
       50
176
     1
 40
0.0
176
     1
 40
1.0
176
     1
 90
        0
176
     1
 62
    18
420
        0
176
     1
 90
       50
176
     1
 90
        3
176
     1
 62
     5
420
      255
176
     1
290
     0
176
     1
 90
       50
176
     1
 90
       50
176
     1
 90
       50
176
     1
290
     0
176
     1
 90
       50
176
     1
 62
   256
176
     0
 40
1.0
176
     0
 90
        2
176
     1
  1
strokes_ogs.tif
176
     1
290
     0
176
     1
 40
1.0
176
     1
 40
1.0
176
     1
  0
VISUALSTYLE
  5
32
102
{ACAD_REACTORS
330
29
102
}
330
29
100
AcDbVisualStyle
  2
Conceptual
 70
     9
177
     3
291
     0
 70
    58
 90
        3
176
     1
 90
        2
176
     1
 90
        0
176
     1
 90
        0
176
     1
 40
0.6
176
     1
 40
30.0
176
     1
 62
     7
420
 16777215
176
     1
 90
        2
176
     1
 90
        2
176
     1
 62
     7
176
     1
 62
   257
176
     1
 90
        1
176
     1
 90
        1
176
     1
 40
179.0
176
     1
 90
        8
176
     1
 62
     7
176
     1
 40
1.0
176
     1
 90
        1
176
     1
 90
        6
176
     1
 90
        2
176
     1
 62
     7
176
     1
 90
        3
176
     1
 90
        0
176
     1
 90
        0
176
     1
290
     0
176
     1
 90
        1
176
     1
 40
0.0
176
     1
 90
        0
176
     1
290
     0
176
     1
290
     1
176
     1
290
     1
176
     1
290
     0
176
     1
290
     0
176
     1
290
     0
176
     1
290
     0
176
     1
290
     0
176
     1
290
     0
176
     1
 90
       50
176
     1
 40
0.0
176
     1
 40
1.0
176
     1
 90
        0
176
     1
 62
    18
420
        0
176
     1
 90
       50
176
     1
 90
        3
176
     1
 62
     5
420
      255
176
     1
290
     0
176
     1
 90
       50
176
     1
 90
       50
176
     1
 90
       50
176
     1
290
     0
176
     1
 90
       50
176
     1
 62
   256
176
     0
 40
1.0
176
     0
 90
        2
176
     1
  1
strokes_ogs.tif
176
     1
290
     0
176
     1
 40
1.0
176
     1
 40
1.0
176
     1
  0
VISUALSTYLE
  5
34
102
{ACAD_REACTORS
330
29
102
}
330
29
100
AcDbVisualStyle
  2
Dim
 70
    11
177
     3
291
     1
 70
    58
 90
        2
176
     1
 90
        2
176
     1
 90
        0
176
     1
 90
        0
176
     1
 40
0.6
176
     1
 40
30.0
176
     1
 62
     7
420
 16777215
176
     1
 90
        1
176
     1
 90
        4
176
     1
 62
     7
176
     1
 62
   257
176
     1
 90
        1
176
     1
 90
        1
176
     1
 40
1.0
176
     1
 90
        8
176
     1
 62
     7
176
     1
 40
1.0
176
     1
 90
        1
176
     1
 90
        6
176
     1
 90
        2
176
     1
 62
     7
176
     1
 90
        5
176
     1
 90
        0
176
     1
 90
        0
176
     1
290
     0
176
     1
 90
        1
176
     1
 40
-50.0
176
     1
 90
        0
176
     1
290
     0
176
     1
290
     1
176
     1
290
     1
176
     1
290
     0
176
     1
290
     0
176
     1
290
     0
176
     1
290
     0
176
     1
290
     0
176
     1
290
     0
176
     1
 90
       50
176
     1
 40
0.0
176
     1
 40
1.0
176
     1
 90
        0
176
     1
 62
    18
420
        0
176
     1
 90
       50
176
     1
 90
        3
176
     1
 62
     5
420
      255
176
     1
290
     0
176
     1
 90
       50
176
     1
 90
       50
176
     1
 90
       50
176
     1
290
     0
176
     1
 90
       50
176
     1
 62
   256
176
     0
 40
1.0
176
     0
 90
        2
176
     1
  1
strokes_ogs.tif
176
     1
290
     0
176
     1
 40
1.0
176
     1
 40
1.0
176
     1
  0
VISUALSTYLE
  5
41
102
{ACAD_REACTORS
330
29
102
}
330
29
100
AcDbVisualStyle
  2
EdgeColorOff
 70
    22
177
     3
291
     1
 70
    58
 90
        2
176
     0
 90
        2
176
     0
 90
        0
176
     0
 90
        0
176
     0
 40
0.6
176
     0
 40
30.0
176
     0
 62
     7
420
 16777215
176
     0
 90
        1
176
     0
 90
        4
176
     0
 62
     7
176
     0
 62
   257
176
     0
 90
        1
176
     0
 90
        1
176
     0
 40
1.0
176
     0
 90
        8
176
     2
 62
     7
176
     0
 40
1.0
176
     0
 90
        1
176
     0
 90
        6
176
     0
 90
        2
176
     0
 62
     7
176
     0
 90
        5
176
     0
 90
        0
176
     0
 90
        0
176
     0
290
     0
176
     0
 90
        1
176
     0
 40
0.0
176
     0
 90
        0
176
     0
290
     0
176
     1
290
     1
176
     1
290
     1
176
     1
290
     0
176
     1
290
     0
176
     1
290
     0
176
     1
290
     0
176
     1
290
     0
176
     1
290
     0
176
     1
 90
       50
176
     0
 40
0.0
176
     0
 40
1.0
176
     0
 90
        0
176
     0
 62
    18
420
        0
176
     0
 90
       50
176
     0
 90
        3
176
     0
 62
     5
420
      255
176
     0
290
     0
176
     1
 90
       50
176
     0
 90
       50
176
     0
 90
       50
176
     0
290
     0
176
     1
 90
       50
176
     0
 62
   256
176
     0
 40
1.0
176
     0
 90
        2
176
     0
  1
strokes_ogs.tif
176
     0
290
     0
176
     1
 40
1.0
176
     0
 40
1.0
176
     0
  0
VISUALSTYLE
  5
38
102
{ACAD_REACTORS
330
29
102
}
330
29
100
AcDbVisualStyle
  2
Facepattern
 70
    15
177
     3
291
     1
 70
    58
 90
        2
176
     1
 90
        2
176
     1
 90
        0
176
     1
 90
        0
176
     1
 40
0.6
176
     1
 40
30.0
176
     1
 62
     7
420
 16777215
176
     1
 90
        1
176
     1
 90
        4
176
     1
 62
     7
176
     1
 62
   257
176
     1
 90
        1
176
     1
 90
        1
176
     1
 40
1.0
176
     1
 90
        8
176
     1
 62
     7
176
     1
 40
1.0
176
     1
 90
        1
176
     1
 90
        6
176
     1
 90
        2
176
     1
 62
     7
176
     1
 90
        5
176
     1
 90
        0
176
     1
 90
        0
176
     1
290
     0
176
     1
 90
        1
176
     1
 40
0.0
176
     1
 90
        0
176
     1
290
     0
176
     1
290
     1
176
     1
290
     1
176
     1
290
     0
176
     1
290
     0
176
     1
290
     0
176
     1
290
     0
176
     1
290
     0
176
     1
290
     0
176
     1
 90
       50
176
     1
 40
0.0
176
     1
 40
1.0
176
     1
 90
        0
176
     1
 62
    18
420
        0
176
     1
 90
       50
176
     1
 90
        3
176
     1
 62
     5
420
      255
176
     1
290
     0
176
     1
 90
       50
176
     1
 90
       50
176
     1
 90
       50
176
     1
290
     0
176
     1
 90
       50
176
     1
 62
   256
176
     0
 40
1.0
176
     0
 90
        2
176
     1
  1
strokes_ogs.tif
176
     1
290
     0
176
     1
 40
1.0
176
     1
 40
1.0
176
     1
  0
VISUALSTYLE
  5
2A
102
{ACAD_REACTORS
330
29
102
}
330
29
100
AcDbVisualStyle
  2
Flat
 70
     0
177
     3
291
     1
 70
    58
 90
        2
176
     1
 90
        1
176
     1
 90
        1
176
     1
 90
        2
176
     1
 40
0.6
176
     1
 40
30.0
176
     1
 62
     7
420
 16777215
176
     1
 90
        0
176
     1
 90
        0
176
     1
 62
     7
176
     1
 62
   257
176
     1
 90
        1
176
     1
 90
        1
176
     1
 40
1.0
176
     1
 90
        8
176
     1
 62
     7
176
     1
 40
1.0
176
     1
 90
        1
176
     1
 90
        6
176
     1
 90
        2
176
     1
 62
     7
176
     1
 90
        5
176
     1
 90
        0
176
     1
 90
        0
176
     1
290
     0
176
     1
 90
       13
176
     1
 40
0.0
176
     1
 90
        0
176
     1
290
     0
176
     1
290
     1
176
     1
290
     1
176
     1
290
     0
176
     1
290
     0
176
     1
290
     0
176
     1
290
     0
176
     1
290
     0
176
     1
290
     0
176
     1
 90
       50
176
     1
 40
0.0
176
     1
 40
1.0
176
     1
 90
        0
176
     1
 62
    18
420
        0
176
     1
 90
       50
176
     1
 90
        3
176
     1
 62
     5
420
      255
176
     1
290
     0
176
     1
 90
       50
176
     1
 90
       50
176
     1
 90
       50
176
     1
290
     0
176
     1
 90
       50
176
     1
 62
   256
176
     0
 40
1.0
176
     0
 90
        2
176
     1
  1
strokes_ogs.tif
176
     1
290
     0
176
     1
 40
1.0
176
     1
 40
1.0
176
     1
  0
VISUALSTYLE
  5
2B
102
{ACAD_REACTORS
330
29
102
}
330
29
100
AcDbVisualStyle
  2
FlatWithEdges
 70
     1
177
     3
291
     1
 70
    58
 90
        2
176
     1
 90
        1
176
     1
 90
        1
176
     1
 90
        2
176
     1
 40
0.6
176
     1
 40
30.0
176
     1
 62
     7
420
 16777215
176
     1
 90
        1
176
     1
 90
        0
176
     1
 62
     7
176
     1
 62
   257
176
     1
 90
        1
176
     1
 90
        1
176
     1
 40
1.0
176
     1
 90
        0
176
     1
 62
   257
176
     1
 40
1.0
176
     1
 90
        1
176
     1
 90
        6
176
     1
 90
        2
176
     1
 62
     7
176
     1
 90
        5
176
     1
 90
        0
176
     1
 90
        0
176
     1
290
     0
176
     1
 90
       13
176
     1
 40
0.0
176
     1
 90
        0
176
     1
290
     0
176
     1
290
     1
176
     1
290
     1
176
     1
290
     0
176
     1
290
     0
176
     1
290
     0
176
     1
290
     0
176
     1
290
     0
176
     1
290
     0
176
     1
 90
       50
176
     1
 40
0.0
176
     1
 40
1.0
176
     1
 90
        0
176
     1
 62
    18
420
        0
176
     1
 90
       50
176
     1
 90
        3
176
     1
 62
     5
420
      255
176
     1
290
     0
176
     1
 90
       50
176
     1
 90
       50
176
     1
 90
       50
176
     1
290
     0
176
     1
 90
       50
176
     1
 62
   256
176
     0
 40
1.0
176
     0
 90
        2
176
     1
  1
strokes_ogs.tif
176
     1
290
     0
176
     1
 40
1.0
176
     1
 40
1.0
176
     1
  0
VISUALSTYLE
  5
2C
102
{ACAD_REACTORS
330
29
102
}
330
29
100
AcDbVisualStyle
  2
Gouraud
 70
     2
177
     3
291
     1
 70
    58
 90
        2
176
     1
 90
        2
176
     1
 90
        1
176
     1
 90
        2
176
     1
 40
0.6
176
     1
 40
30.0
176
     1
 62
     7
420
 16777215
176
     1
 90
        0
176
     1
 90
        0
176
     1
 62
     7
176
     1
 62
   257
176
     1
 90
        1
176
     1
 90
        1
176
     1
 40
1.0
176
     1
 90
        0
176
     1
 62
     7
176
     1
 40
1.0
176
     1
 90
        1
176
     1
 90
        6
176
     1
 90
        2
176
     1
 62
     7
176
     1
 90
        5
176
     1
 90
        0
176
     1
 90
        0
176
     1
290
     0
176
     1
 90
       13
176
     1
 40
0.0
176
     1
 90
        0
176
     1
290
     0
176
     1
290
     1
176
     1
290
     1
176
     1
290
     0
176
     1
290
     0
176
     1
290
     0
176
     1
290
     0
176
     1
290
     0
176
     1
290
     0
176
     1
 90
       50
176
     1
 40
0.0
176
     1
 40
1.0
176
     1
 90
        0
176
     1
 62
    18
420
        0
176
     1
 90
       50
176
     1
 90
        3
176
     1
 62
     5
420
      255
176
     1
290
     0
176
     1
 90
       50
176
     1
 90
       50
176
     1
 90
       50
176
     1
290
     0
176
     1
 90
       50
176
     1
 62
   256
176
     0
 40
1.0
176
     0
 90
        2
176
     1
  1
strokes_ogs.tif
176
     1
290
     0
176
     1
 40
1.0
176
     1
 40
1.0
176
     1
  0
VISUALSTYLE
  5
2D
102
{ACAD_REACTORS
330
29
102
}
330
29
100
AcDbVisualStyle
  2
GouraudWithEdges
 70
     3
177
     3
291
     1
 70
    58
 90
        2
176
     1
 90
        2
176
     1
 90
        1
176
     1
 90
        2
176
     1
 40
0.6
176
     1
 40
30.0
176
     1
 62
     7
420
 16777215
176
     1
 90
        1
176
     1
 90
        0
176
     1
 62
     7
176
     1
 62
   257
176
     1
 90
        1
176
     1
 90
        1
176
     1
 40
1.0
176
     1
 90
        0
176
     1
 62
   257
176
     1
 40
1.0
176
     1
 90
        1
176
     1
 90
        6
176
     1
 90
        2
176
     1
 62
     7
176
     1
 90
        5
176
     1
 90
        0
176
     1
 90
        0
176
     1
290
     0
176
     1
 90
       13
176
     1
 40
0.0
176
     1
 90
        0
176
     1
290
     0
176
     1
290
     1
176
     1
290
     1
176
     1
290
     0
176
     1
290
     0
176
     1
290
     0
176
     1
290
     0
176
     1
290
     0
176
     1
290
     0
176
     1
 90
       50
176
     1
 40
0.0
176
     1
 40
1.0
176
     1
 90
        0
176
     1
 62
    18
420
        0
176
     1
 90
       50
176
     1
 90
        3
176
     1
 62
     5
420
      255
176
     1
290
     0
176
     1
 90
       50
176
     1
 90
       50
176
     1
 90
       50
176
     1
290
     0
176
     1
 90
       50
176
     1
 62
   256
176
     0
 40
1.0
176
     0
 90
        2
176
     1
  1
strokes_ogs.tif
176
     1
290
     0
176
     1
 40
1.0
176
     1
 40
1.0
176
     1
  0
VISUALSTYLE
  5
31
102
{ACAD_REACTORS
330
29
102
}
330
29
100
AcDbVisualStyle
  2
Hidden
 70
     6
177
     3
291
     0
 70
    58
 90
        1
176
     1
 90
        2
176
     1
 90
        2
176
     1
 90
        0
176
     1
 40
0.6
176
     1
 40
30.0
176
     1
 62
     7
420
 16777215
176
     1
 90
        2
176
     1
 90
        2
176
     1
 62
     7
176
     1
 62
   257
176
     1
 90
        2
176
     1
 90
        1
176
     1
 40
40.0
176
     1
 90
        0
176
     1
 62
   257
176
     1
 40
1.0
176
     1
 90
        1
176
     1
 90
        6
176
     1
 90
        2
176
     1
 62
     7
176
     1
 90
        3
176
     1
 90
        0
176
     1
 90
        0
176
     1
290
     0
176
     1
 90
        1
176
     1
 40
0.0
176
     1
 90
        0
176
     1
290
     0
176
     1
290
     1
176
     1
290
     1
176
     1
290
     0
176
     1
290
     0
176
     1
290
     0
176
     1
290
     0
176
     1
290
     0
176
     1
290
     0
176
     1
 90
       50
176
     1
 40
0.0
176
     1
 40
1.0
176
     1
 90
        0
176
     1
 62
    18
420
        0
176
     1
 90
       50
176
     1
 90
        3
176
     1
 62
     5
420
      255
176
     1
290
     0
176
     1
 90
       50
176
     1
 90
       50
176
     1
 90
       50
176
     1
290
     0
176
     1
 90
       50
176
     1
 62
   256
176
     0
 40
1.0
176
     0
 90
        2
176
     1
  1
strokes_ogs.tif
176
     1
290
     0
176
     1
 40
1.0
176
     1
 40
1.0
176
     1
  0
VISUALSTYLE
  5
3F
102
{ACAD_REACTORS
330
29
102
}
330
29
100
AcDbVisualStyle
  2
JitterOff
 70
    20
177
     3
291
     1
 70
    58
 90
        2
176
     0
 90
        2
176
     0
 90
        0
176
     0
 90
        0
176
     0
 40
0.6
176
     0
 40
30.0
176
     0
 62
     7
420
 16777215
176
     0
 90
        1
176
     0
 90
        4
176
     0
 62
     7
176
     0
 62
   257
176
     0
 90
        1
176
     0
 90
        1
176
     0
 40
1.0
176
     0
 90
       10
176
     2
 62
     7
176
     0
 40
1.0
176
     0
 90
        1
176
     0
 90
        6
176
     0
 90
        2
176
     0
 62
     7
176
     0
 90
        5
176
     0
 90
        0
176
     0
 90
        0
176
     0
290
     0
176
     0
 90
        1
176
     0
 40
0.0
176
     0
 90
        0
176
     0
290
     0
176
     1
290
     1
176
     1
290
     1
176
     1
290
     0
176
     1
290
     0
176
     1
290
     0
176
     1
290
     0
176
     1
290
     0
176
     1
290
     0
176
     1
 90
       50
176
     0
 40
0.0
176
     0
 40
1.0
176
     0
 90
        0
176
     0
 62
    18
420
        0
176
     0
 90
       50
176
     0
 90
        3
176
     0
 62
     5
420
      255
176
     0
290
     0
176
     1
 90
       50
176
     0
 90
       50
176
     0
 90
       50
176
     0
290
     0
176
     1
 90
       50
176
     0
 62
   256
176
     0
 40
1.0
176
     0
 90
        2
176
     0
  1
strokes_ogs.tif
176
     0
290
     0
176
     1
 40
1.0
176
     0
 40
1.0
176
     0
  0
VISUALSTYLE
  5
37
102
{ACAD_REACTORS
330
29
102
}
330
29
100
AcDbVisualStyle
  2
Linepattern
 70
    14
177
     3
291
     1
 70
    58
 90
        2
176
     1
 90
        2
176
     1
 90
        0
176
     1
 90
        0
176
     1
 40
0.6
176
     1
 40
30.0
176
     1
 62
     7
420
 16777215
176
     1
 90
        1
176
     1
 90
        4
176
     1
 62
     7
176
     1
 62
   257
176
     1
 90
        7
176
     1
 90
        7
176
     1
 40
1.0
176
     1
 90
        8
176
     1
 62
     7
176
     1
 40
1.0
176
     1
 90
        1
176
     1
 90
        6
176
     1
 90
        2
176
     1
 62
     7
176
     1
 90
        5
176
     1
 90
        0
176
     1
 90
        0
176
     1
290
     0
176
     1
 90
        1
176
     1
 40
0.0
176
     1
 90
        0
176
     1
290
     0
176
     1
290
     1
176
     1
290
     1
176
     1
290
     0
176
     1
290
     0
176
     1
290
     0
176
     1
290
     0
176
     1
290
     0
176
     1
290
     0
176
     1
 90
       50
176
     1
 40
0.0
176
     1
 40
1.0
176
     1
 90
        0
176
     1
 62
    18
420
        0
176
     1
 90
       50
176
     1
 90
        3
176
     1
 62
     5
420
      255
176
     1
290
     0
176
     1
 90
       50
176
     1
 90
       50
176
     1
 90
       50
176
     1
290
     0
176
     1
 90
       50
176
     1
 62
   256
176
     0
 40
1.0
176
     0
 90
        2
176
     1
  1
strokes_ogs.tif
176
     1
290
     0
176
     1
 40
1.0
176
     1
 40
1.0
176
     1
  0
VISUALSTYLE
  5
40
102
{ACAD_REACTORS
330
29
102
}
330
29
100
AcDbVisualStyle
  2
OverhangOff
 70
    21
177
     3
291
     1
 70
    58
 90
        2
176
     0
 90
        2
176
     0
 90
        0
176
     0
 90
        0
176
     0
 40
0.6
176
     0
 40
30.0
176
     0
 62
     7
420
 16777215
176
     0
 90
        1
176
     0
 90
        4
176
     0
 62
     7
176
     0
 62
   257
176
     0
 90
        1
176
     0
 90
        1
176
     0
 40
1.0
176
     0
 90
        9
176
     2
 62
     7
176
     0
 40
1.0
176
     0
 90
        1
176
     0
 90
        6
176
     0
 90
        2
176
     0
 62
     7
176
     0
 90
        5
176
     0
 90
        0
176
     0
 90
        0
176
     0
290
     0
176
     0
 90
        1
176
     0
 40
0.0
176
     0
 90
        0
176
     0
290
     0
176
     1
290
     1
176
     1
290
     1
176
     1
290
     0
176
     1
290
     0
176
     1
290
     0
176
     1
290
     0
176
     1
290
     0
176
     1
290
     0
176
     1
 90
       50
176
     0
 40
0.0
176
     0
 40
1.0
176
     0
 90
        0
176
     0
 62
    18
420
        0
176
     0
 90
       50
176
     0
 90
        3
176
     0
 62
     5
420
      255
176
     0
290
     0
176
     1
 90
       50
176
     0
 90
       50
176
     0
 90
       50
176
     0
290
     0
176
     1
 90
       50
176
     0
 62
   256
176
     0
 40
1.0
176
     0
 90
        2
176
     0
  1
strokes_ogs.tif
176
     0
290
     0
176
     1
 40
1.0
176
     0
 40
1.0
176
     0
  0
VISUALSTYLE
  5
33
102
{ACAD_REACTORS
330
29
102
}
330
29
100
AcDbVisualStyle
  2
Realistic
 70
     8
177
     3
291
     0
 70
    58
 90
        2
176
     1
 90
        3
176
     1
 90
        0
176
     1
 90
        2
176
     1
 40
0.6
176
     1
 40
30.0
176
     1
 62
     7
420
 16777215
176
     1
 90
        0
176
     1
 90
        0
176
     1
 62
     7
176
     1
 62
   257
176
     1
 90
        1
176
     1
 90
        1
176
     1
 40
1.0
176
     1
 90
        8
176
     1
 62
   257
176
     1
 40
1.0
176
     1
 90
        1
176
     1
 90
        6
176
     1
 90
        2
176
     1
 62
     7
176
     1
 90
        3
176
     1
 90
        0
176
     1
 90
        0
176
     1
290
     0
176
     1
 90
       13
176
     1
 40
0.0
176
     1
 90
        0
176
     1
290
     0
176
     1
290
     1
176
     1
290
     1
176
     1
290
     0
176
     1
290
     0
176
     1
290
     0
176
     1
290
     0
176
     1
290
     0
176
     1
290
     0
176
     1
 90
       50
176
     1
 40
0.0
176
     1
 40
1.0
176
     1
 90
        0
176
     1
 62
    18
420
        0
176
     1
 90
       50
176
     1
 90
        3
176
     1
 62
     5
420
      255
176
     1
290
     0
176
     1
 90
       50
176
     1
 90
       50
176
     1
 90
       50
176
     1
290
     0
176
     1
 90
       50
176
     1
 62
   256
176
     0
 40
1.0
176
     0
 90
        2
176
     1
  1
strokes_ogs.tif
176
     1
290
     0
176
     1
 40
1.0
176
     1
 40
1.0
176
     1
  0
VISUALSTYLE
  5
3E
102
{ACAD_REACTORS
330
29
102
}
330
29
100
AcDbVisualStyle
  2
Shaded
 70
    27
177
     3
291
     0
 70
    58
 90
        2
176
     1
 90
        2
176
     1
 90
        1
176
     1
 90
        2
176
     1
 40
0.6
176
     1
 40
30.0
176
     1
 62
     7
420
 16777215
176
     1
 90
        0
176
     1
 90
        4
176
     1
 62
     7
176
     1
 62
   257
176
     1
 90
        1
176
     1
 90
        1
176
     1
 40
1.0
176
     1
 90
        8
176
     1
 62
   257
176
     1
 40
1.0
176
     1
 90
        1
176
     1
 90
        6
176
     1
 90
        2
176
     1
 62
     8
420
  7895160
176
     1
 90
        3
176
     1
 90
        0
176
     1
 90
        0
176
     1
290
     0
176
     1
 90
        5
176
     1
 40
0.0
176
     1
 90
        0
176
     1
290
     0
176
     1
290
     1
176
     1
290
     1
176
     1
290
     0
176
     1
290
     0
176
     1
290
     0
176
     1
290
     0
176
     1
290
     0
176
     1
290
     0
176
     1
 90
       50
176
     1
 40
0.0
176
     1
 40
1.0
176
     1
 90
        0
176
     1
 62
    18
420
        0
176
     1
 90
       50
176
     1
 90
        3
176
     1
 62
     5
420
      255
176
     1
290
     0
176
     1
 90
       50
176
     1
 90
       50
176
     1
 90
       50
176
     1
290
     0
176
     1
 90
       50
176
     1
 62
   256
176
     0
 40
1.0
176
     0
 90
        2
176
     1
  1
strokes_ogs.tif
176
     1
290
     0
176
     1
 40
1.0
176
     1
 40
1.0
176
     1
  0
VISUALSTYLE
  5
3D
102
{ACAD_REACTORS
330
29
102
}
330
29
100
AcDbVisualStyle
  2
Shaded with edges
 70
    26
177
     3
291
     0
 70
    58
 90
        2
176
     1
 90
        2
176
     1
 90
        1
176
     1
 90
        2
176
     1
 40
0.6
176
     1
 40
30.0
176
     1
 62
     7
420
 16777215
176
     1
 90
        1
176
     1
 90
        2
176
     1
 62
     7
176
     1
 62
   257
176
     1
 90
        2
176
     1
 90
        1
176
     1
 40
1.0
176
     1
 90
        8
176
     1
 62
   257
176
     1
 40
1.0
176
     1
 90
        1
176
     1
 90
        6
176
     1
 90
        2
176
     1
 62
     7
176
     1
 90
        3
176
     1
 90
        0
176
     1
 90
        0
176
     1
290
     0
176
     1
 90
        5
176
     1
 40
0.0
176
     1
 90
        0
176
     1
290
     0
176
     1
290
     1
176
     1
290
     1
176
     1
290
     0
176
     1
290
     0
176
     1
290
     0
176
     1
290
     0
176
     1
290
     0
176
     1
290
     0
176
     1
 90
       50
176
     1
 40
0.0
176
     1
 40
1.0
176
     1
 90
        0
176
     1
 62
    18
420
        0
176
     1
 90
       50
176
     1
 90
        3
176
     1
 62
     5
420
      255
176
     1
290
     0
176
     1
 90
       50
176
     1
 90
       50
176
     1
 90
       50
176
     1
290
     0
176
     1
 90
       50
176
     1
 62
   256
176
     0
 40
1.0
176
     0
 90
        2
176
     1
  1
strokes_ogs.tif
176
     1
290
     0
176
     1
 40
1.0
176
     1
 40
1.0
176
     1
  0
VISUALSTYLE
  5
3A
102
{ACAD_REACTORS
330
29
102
}
330
29
100
AcDbVisualStyle
  2
Shades of Gray
 70
    23
177
     3
291
     0
 70
    58
 90
        2
176
     1
 90
        2
176
     1
 90
        3
176
     1
 90
        0
176
     1
 40
0.6
176
     1
 40
30.0
176
     1
 62
     7
420
 16777215
176
     1
 90
        2
176
     1
 90
        2
176
     1
 62
     7
176
     1
 62
     7
176
     1
 90
        1
176
     1
 90
        1
176
     1
 40
40.0
176
     1
 90
        8
176
     1
 62
     7
176
     1
 40
1.0
176
     1
 90
        1
176
     1
 90
        6
176
     1
 90
        2
176
     1
 62
     7
176
     1
 90
        3
176
     1
 90
        0
176
     1
 90
        0
176
     1
290
     0
176
     1
 90
        1
176
     1
 40
0.0
176
     1
 90
        0
176
     1
290
     0
176
     1
290
     1
176
     1
290
     1
176
     1
290
     0
176
     1
290
     0
176
     1
290
     0
176
     1
290
     0
176
     1
290
     0
176
     1
290
     0
176
     1
 90
       50
176
     1
 40
0.0
176
     1
 40
1.0
176
     1
 90
        0
176
     1
 62
    18
420
        0
176
     1
 90
       50
176
     1
 90
        3
176
     1
 62
     5
420
      255
176
     1
290
     0
176
     1
 90
       50
176
     1
 90
       50
176
     1
 90
       50
176
     1
290
     0
176
     1
 90
       50
176
     1
 62
   256
176
     0
 40
1.0
176
     0
 90
        2
176
     1
  1
strokes_ogs.tif
176
     1
290
     0
176
     1
 40
1.0
176
     1
 40
1.0
176
     1
  0
VISUALSTYLE
  5
3B
102
{ACAD_REACTORS
330
29
102
}
330
29
100
AcDbVisualStyle
  2
Sketchy
 70
    24
177
     3
291
     0
 70
    58
 90
        1
176
     1
 90
        2
176
     1
 90
        2
176
     1
 90
        0
176
     1
 40
0.6
176
     1
 40
30.0
176
     1
 62
     7
420
 16777215
176
     1
 90
        2
176
     1
 90
        2
176
     1
 62
     7
176
     1
 62
     7
176
     1
 90
        1
176
     1
 90
        1
176
     1
 40
40.0
176
     1
 90
       11
176
     1
 62
     7
176
     1
 40
1.0
176
     1
 90
        1
176
     1
 90
        6
176
     1
 90
        2
176
     1
 62
     7
176
     1
 90
        6
176
     1
 90
        0
176
     1
 90
        0
176
     1
290
     0
176
     1
 90
        1
176
     1
 40
0.0
176
     1
 90
        0
176
     1
290
     0
176
     1
290
     1
176
     1
290
     1
176
     1
290
     0
176
     1
290
     0
176
     1
290
     0
176
     1
290
     0
176
     1
290
     0
176
     1
290
     0
176
     1
 90
       50
176
     1
 40
0.0
176
     1
 40
1.0
176
     1
 90
        0
176
     1
 62
    18
420
        0
176
     1
 90
       50
176
     1
 90
        3
176
     1
 62
     5
420
      255
176
     1
290
     0
176
     1
 90
       50
176
     1
 90
       50
176
     1
 90
       50
176
     1
290
     0
176
     1
 90
       50
176
     1
 62
   256
176
     0
 40
1.0
176
     0
 90
        2
176
     1
  1
strokes_ogs.tif
176
     1
290
     0
176
     1
 40
1.0
176
     1
 40
1.0
176
     1
  0
VISUALSTYLE
  5
36
102
{ACAD_REACTORS
330
29
102
}
330
29
100
AcDbVisualStyle
  2
Thicken
 70
    13
177
     3
291
     1
 70
    58
 90
        2
176
     1
 90
        2
176
     1
 90
        0
176
     1
 90
        0
176
     1
 40
0.6
176
     1
 40
30.0
176
     1
 62
     7
420
 16777215
176
     1
 90
        1
176
     1
 90
        4
176
     1
 62
     7
176
     1
 62
   257
176
     1
 90
        1
176
     1
 90
        1
176
     1
 40
1.0
176
     1
 90
       12
176
     1
 62
     7
176
     1
 40
1.0
176
     1
 90
        1
176
     1
 90
        6
176
     1
 90
        2
176
     1
 62
     7
176
     1
 90
        5
176
     1
 90
        0
176
     1
 90
        0
176
     1
290
     0
176
     1
 90
        1
176
     1
 40
0.0
176
     1
 90
        0
176
     1
290
     0
176
     1
290
     1
176
     1
290
     1
176
     1
290
     0
176
     1
290
     0
176
     1
290
     0
176
     1
290
     0
176
     1
290
     0
176
     1
290
     0
176
     1
 90
       50
176
     1
 40
0.0
176
     1
 40
1.0
176
     1
 90
        0
176
     1
 62
    18
420
        0
176
     1
 90
       50
176
     1
 90
        3
176
     1
 62
     5
420
      255
176
     1
290
     0
176
     1
 90
       50
176
     1
 90
       50
176
     1
 90
       50
176
     1
290
     0
176
     1
 90
       50
176
     1
 62
   256
176
     0
 40
1.0
176
     0
 90
        2
176
     1
  1
strokes_ogs.tif
176
     1
290
     0
176
     1
 40
1.0
176
     1
 40
1.0
176
     1
  0
VISUALSTYLE
  5
30
102
{ACAD_REACTORS
330
29
102
}
330
29
100
AcDbVisualStyle
  2
Wireframe
 70
     5
177
     3
291
     0
 70
    58
 90
        0
176
     1
 90
        2
176
     1
 90
        0
176
     1
 90
        0
176
     1
 40
0.6
176
     1
 40
30.0
176
     1
 62
     7
420
 16777215
176
     1
 90
        1
176
     1
 90
        4
176
     1
 62
     7
176
     1
 62
   257
176
     1
 90
        1
176
     1
 90
        1
176
     1
 40
1.0
176
     1
 90
        0
176
     1
 62
   257
176
     1
 40
1.0
176
     1
 90
        1
176
     1
 90
        6
176
     1
 90
        2
176
     1
 62
     7
176
     1
 90
        3
176
     1
 90
        0
176
     1
 90
        0
176
     1
290
     0
176
     1
 90
        1
176
     1
 40
0.0
176
     1
 90
        0
176
     1
290
     0
176
     1
290
     1
176
     1
290
     1
176
     1
290
     0
176
     1
290
     0
176
     1
290
     0
176
     1
290
     0
176
     1
290
     0
176
     1
290
     0
176
     1
 90
       50
176
     1
 40
0.0
176
     1
 40
1.0
176
     1
 90
        0
176
     1
 62
    18
420
        0
176
     1
 90
       50
176
     1
 90
        3
176
     1
 62
     5
420
      255
176
     1
290
     0
176
     1
 90
       50
176
     1
 90
       50
176
     1
 90
       50
176
     1
290
     0
176
     1
 90
       50
176
     1
 62
   256
176
     0
 40
1.0
176
     0
 90
        2
176
     1
  1
strokes_ogs.tif
176
     1
290
     0
176
     1
 40
1.0
176
     1
 40
1.0
176
     1
  0
VISUALSTYLE
  5
3C
102
{ACAD_REACTORS
330
29
102
}
330
29
100
AcDbVisualStyle
  2
X-Ray
 70
    25
177
     3
291
     0
 70
    58
 90
        2
176
     1
 90
        2
176
     1
 90
        1
176
     1
 90
        1
176
     1
 40
0.5
176
     1
 40
30.0
176
     1
 62
     7
420
 16777215
176
     1
 90
        1
176
     1
 90
        0
176
     1
 62
     7
176
     1
 62
   257
176
     1
 90
        1
176
     1
 90
        1
176
     1
 40
1.0
176
     1
 90
        8
176
     1
 62
     7
176
     1
 40
1.0
176
     1
 90
        1
176
     1
 90
        6
176
     1
 90
        2
176
     1
 62
     7
176
     1
 90
        3
176
     1
 90
        0
176
     1
 90
        0
176
     1
290
     0
176
     1
 90
       13
176
     1
 40
0.0
176
     1
 90
        0
176
     1
290
     0
176
     1
290
     1
176
     1
290
     1
176
     1
290
     0
176
     1
290
     0
176
     1
290
     0
176
     1
290
     0
176
     1
290
     0
176
     1
290
     0
176
     1
 90
       50
176
     1
 40
0.0
176
     1
 40
1.0
176
     1
 90
        0
176
     1
 62
    18
420
        0
176
     1
 90
       50
176
     1
 90
        3
176
     1
 62
     5
420
      255
176
     1
290
     0
176
     1
 90
       50
176
     1
 90
       50
176
     1
 90
       50
176
     1
290
     0
176
     1
 90
       50
176
     1
 62
   256
176
     0
 40
1.0
176
     0
 90
        2
176
     1
  1
strokes_ogs.tif
176
     1
290
     0
176
     1
 40
1.0
176
     1
 40
1.0
176
     1
  0
DICTIONARYVAR
  5
32E
102
{ACAD_REACTORS
330
328
102
}
330
328
100
DictionaryVariables
280
     0
  1
1:1
  0
DICTIONARYVAR
  5
32A
102
{ACAD_REACTORS
330
328
102
}
330
328
100
DictionaryVariables
280
     0
  1
STANDARD
  0
DICTIONARYVAR
  5
329
102
{ACAD_REACTORS
330
328
102
}
330
328
100
DictionaryVariables
280
     0
  1
STANDARD
  0
DICTIONARYVAR
  5
32B
102
{ACAD_REACTORS
330
328
102
}
330
328
100
DictionaryVariables
280
     0
  1
Imperial24
  0
DICTIONARYVAR
  5
32C
102
{ACAD_REACTORS
330
328
102
}
330
328
100
DictionaryVariables
280
     0
  1
Imperial24
  0
DICTIONARYVAR
  5
330
102
{ACAD_REACTORS
330
328
102
}
330
328
100
DictionaryVariables
280
     0
  1
1
  0
DICTIONARYVAR
  5
331
102
{ACAD_REACTORS
330
328
102
}
330
328
100
DictionaryVariables
280
     0
  1
15
  0
DICTIONARYVAR
  5
32F
102
{ACAD_REACTORS
330
328
102
}
330
328
100
DictionaryVariables
280
     0
  1
0
  0
DICTIONARYVAR
  5
32D
102
{ACAD_REACTORS
330
328
102
}
330
328
100
DictionaryVariables
280
     0
  1
0
  0
DICTIONARY
  5
1A
330
19
100
AcDbDictionary
280
     1
281
     1
  3
BUMPTILE
360
1C
  3
DIFFUSETILE
360
1B
  3
OPACITYTILE
360
1F
  3
REFLECTIONTILE
360
1E
  3
REFRACTIONTILE
360
20
  3
SPECULARTILE
360
1D
  0
DICTIONARY
  5
12
330
11
100
AcDbDictionary
280
     1
281
     1
  3
BUMPTILE
360
14
  3
DIFFUSETILE
360
13
  3
OPACITYTILE
360
17
  3
REFLECTIONTILE
360
16
  3
REFRACTIONTILE
360
18
  3
SPECULARTILE
360
15
  0
DICTIONARY
  5
22
330
21
100
AcDbDictionary
280
     1
281
     1
  3
BUMPTILE
360
24
  3
DIFFUSETILE
360
23
  3
OPACITYTILE
360
27
  3
REFLECTIONTILE
360
26
  3
REFRACTIONTILE
360
28
  3
SPECULARTILE
360
25
  0
DICTIONARY
  5
5E5
330
64
100
AcDbDictionary
280
     1
281
     1
  3
ACAD_ROUNDTRIP_2008_TABLESTYLE_CELLSTYLEMAP
360
5E6
  0
XRECORD
  5
1C
102
{ACAD_REACTORS
330
1A
102
}
330
1A
100
AcDbXrecord
280
     1
270
     1
271
     1
  0
XRECORD
  5
1B
102
{ACAD_REACTORS
330
1A
102
}
330
1A
100
AcDbXrecord
280
     1
270
     1
271
     1
  0
XRECORD
  5
1F
102
{ACAD_REACTORS
330
1A
102
}
330
1A
100
AcDbXrecord
280
     1
270
     1
271
     1
  0
XRECORD
  5
1E
102
{ACAD_REACTORS
330
1A
102
}
330
1A
100
AcDbXrecord
280
     1
270
     1
271
     1
  0
XRECORD
  5
20
102
{ACAD_REACTORS
330
1A
102
}
330
1A
100
AcDbXrecord
280
     1
270
     1
271
     1
  0
XRECORD
  5
1D
102
{ACAD_REACTORS
330
1A
102
}
330
1A
100
AcDbXrecord
280
     1
270
     1
271
     1
  0
XRECORD
  5
14
102
{ACAD_REACTORS
330
12
102
}
330
12
100
AcDbXrecord
280
     1
270
     1
271
     1
  0
XRECORD
  5
13
102
{ACAD_REACTORS
330
12
102
}
330
12
100
AcDbXrecord
280
     1
270
     1
271
     1
  0
XRECORD
  5
17
102
{ACAD_REACTORS
330
12
102
}
330
12
100
AcDbXrecord
280
     1
270
     1
271
     1
  0
XRECORD
  5
16
102
{ACAD_REACTORS
330
12
102
}
330
12
100
AcDbXrecord
280
     1
270
     1
271
     1
  0
XRECORD
  5
18
102
{ACAD_REACTORS
330
12
102
}
330
12
100
AcDbXrecord
280
     1
270
     1
271
     1
  0
XRECORD
  5
15
102
{ACAD_REACTORS
330
12
102
}
330
12
100
AcDbXrecord
280
     1
270
     1
271
     1
  0
XRECORD
  5
24
102
{ACAD_REACTORS
330
22
102
}
330
22
100
AcDbXrecord
280
     1
270
     1
271
     1
  0
XRECORD
  5
23
102
{ACAD_REACTORS
330
22
102
}
330
22
100
AcDbXrecord
280
     1
270
     1
271
     1
  0
XRECORD
  5
27
102
{ACAD_REACTORS
330
22
102
}
330
22
100
AcDbXrecord
280
     1
270
     1
271
     1
  0
XRECORD
  5
26
102
{ACAD_REACTORS
330
22
102
}
330
22
100
AcDbXrecord
280
     1
270
     1
271
     1
  0
XRECORD
  5
28
102
{ACAD_REACTORS
330
22
102
}
330
22
100
AcDbXrecord
280
     1
270
     1
271
     1
  0
XRECORD
  5
25
102
{ACAD_REACTORS
330
22
102
}
330
22
100
AcDbXrecord
280
     1
270
     1
271
     1
  0
CELLSTYLEMAP
  5
5E6
102
{ACAD_REACTORS
330
5E5
102
}
330
5E5
100
AcDbCellStyleMap
 90
        3
300
CELLSTYLE
  1
TABLEFORMAT_BEGIN
 90
        5
170
     1
 91
        0
 92
    32768
 62
   257
 93
        1
300
CONTENTFORMAT
  1
CONTENTFORMAT_BEGIN
 90
        0
 91
        0
 92
      512
 93
        0
300

 40
0.0
140
1.0
 94
        5
 62
     0
340
55
144
0.25
309
CONTENTFORMAT_END
171
     0
 94
        0
309
TABLEFORMAT_END
  1
CELLSTYLE_BEGIN
 90
        1
 91
        1
300
_TITLE
309
CELLSTYLE_END
300
CELLSTYLE
  1
TABLEFORMAT_BEGIN
 90
        5
170
     1
 91
        0
 92
        0
 62
   257
 93
        1
300
CONTENTFORMAT
  1
CONTENTFORMAT_BEGIN
 90
        0
 91
        0
 92
      512
 93
        0
300

 40
0.0
140
1.0
 94
        5
 62
     0
340
55
144
0.18
309
CONTENTFORMAT_END
171
     0
 94
        0
309
TABLEFORMAT_END
  1
CELLSTYLE_BEGIN
 90
        2
 91
        1
300
_HEADER
309
CELLSTYLE_END
300
CELLSTYLE
  1
TABLEFORMAT_BEGIN
 90
        5
170
     1
 91
        0
 92
        0
 62
   257
 93
        1
300
CONTENTFORMAT
  1
CONTENTFORMAT_BEGIN
 90
        0
 91
        0
 92
      512
 93
        0
300

 40
0.0
140
1.0
 94
        2
 62
     0
340
55
144
0.18
309
CONTENTFORMAT_END
171
     0
 94
        0
309
TABLEFORMAT_END
  1
CELLSTYLE_BEGIN
 90
        3
 91
        2
300
_DATA
309
CELLSTYLE_END
  0
ENDSEC
  0
EOF
