  0
SECTION
  2
HEADER
  9
$ACADVER
  1
AC1009
  9
$EXTMIN
 10
0.0
 20
0.0
 30
0.0
  9
$EXTMAX
 10
1000.0
 20
1000.0
 30
0.0
  9
$FILLMODE
 70
 0
  9
$SPLFRAME
 70
 1
  0
ENDSEC
  0
SECTION
  2
TABLES
  0
TABLE
  2
LAYER
 70
1
  0
LAYER
  2
0
 70
     0
 62
     7
  6
CONTINUOUS
  0
ENDTAB
  0
ENDSEC
  0
SECTION
  2
ENTITIES
  0
LINE
  8
0
 62
     0
 10
328.421
 20
130.433
 30
0.0
 11
328.578
 21
130.426
 31
0.0
  0
LINE
  8
0
 62
     0
 10
328.578
 20
130.426
 30
0.0
 11
328.734
 21
130.408
 31
0.0
  0
LINE
  8
0
 62
     0
 10
328.734
 20
130.408
 30
0.0
 11
328.888
 21
130.377
 31
0.0
  0
LINE
  8
0
 62
     0
 10
328.888
 20
130.377
 30
0.0
 11
329.04
 21
130.335
 31
0.0
  0
LINE
  8
0
 62
     0
 10
329.04
 20
130.335
 30
0.0
 11
329.187
 21
130.28
 31
0.0
  0
LINE
  8
0
 62
     0
 10
329.187
 20
130.28
 30
0.0
 11
329.329
 21
130.215
 31
0.0
  0
LINE
  8
0
 62
     0
 10
329.329
 20
130.215
 30
0.0
 11
329.466
 21
130.138
 31
0.0
  0
LINE
  8
0
 62
     0
 10
329.466
 20
130.138
 30
0.0
 11
329.596
 21
130.051
 31
0.0
  0
LINE
  8
0
 62
     0
 10
329.596
 20
130.051
 30
0.0
 11
329.719
 21
129.953
 31
0.0
  0
LINE
  8
0
 62
     0
 10
329.719
 20
129.953
 30
0.0
 11
329.835
 21
129.847
 31
0.0
  0
LINE
  8
0
 62
     0
 10
329.835
 20
129.847
 30
0.0
 11
329.941
 21
129.731
 31
0.0
  0
LINE
  8
0
 62
     0
 10
329.941
 20
129.731
 30
0.0
 11
330.04
 21
129.609
 31
0.0
  0
LINE
  8
0
 62
     0
 10
330.04
 20
129.609
 30
0.0
 11
330.127
 21
129.478
 31
0.0
  0
LINE
  8
0
 62
     0
 10
330.127
 20
129.478
 30
0.0
 11
330.204
 21
129.34
 31
0.0
  0
LINE
  8
0
 62
     0
 10
330.204
 20
129.34
 30
0.0
 11
330.269
 21
129.198
 31
0.0
  0
LINE
  8
0
 62
     0
 10
330.269
 20
129.198
 30
0.0
 11
330.324
 21
129.052
 31
0.0
  0
LINE
  8
0
 62
     0
 10
330.324
 20
129.052
 30
0.0
 11
330.365
 21
128.899
 31
0.0
  0
LINE
  8
0
 62
     0
 10
330.365
 20
128.899
 30
0.0
 11
330.397
 21
128.746
 31
0.0
  0
LINE
  8
0
 62
     0
 10
330.397
 20
128.746
 30
0.0
 11
330.415
 21
128.589
 31
0.0
  0
LINE
  8
0
 62
     0
 10
330.415
 20
128.589
 30
0.0
 11
330.422
 21
128.432
 31
0.0
  0
LINE
  8
0
 62
     0
 10
330.422
 20
128.432
 30
0.0
 11
330.422
 21
2.13183
 31
0.0
  0
LINE
  8
0
 62
     0
 10
330.422
 20
2.13183
 30
0.0
 11
330.415
 21
1.97473
 31
0.0
  0
LINE
  8
0
 62
     0
 10
330.415
 20
1.97473
 30
0.0
 11
330.397
 21
1.81901
 31
0.0
  0
LINE
  8
0
 62
     0
 10
330.397
 20
1.81901
 30
0.0
 11
330.365
 21
1.66467
 31
0.0
  0
LINE
  8
0
 62
     0
 10
330.365
 20
1.66467
 30
0.0
 11
330.324
 21
1.51309
 31
0.0
  0
LINE
  8
0
 62
     0
 10
330.324
 20
1.51309
 30
0.0
 11
330.269
 21
1.36563
 31
0.0
  0
LINE
  8
0
 62
     0
 10
330.269
 20
1.36563
 30
0.0
 11
330.204
 21
1.2237
 31
0.0
  0
LINE
  8
0
 62
     0
 10
330.204
 20
1.2237
 30
0.0
 11
330.127
 21
1.08727
 31
0.0
  0
LINE
  8
0
 62
     0
 10
330.127
 20
1.08727
 30
0.0
 11
330.04
 21
0.956359
 31
0.0
  0
LINE
  8
0
 62
     0
 10
330.04
 20
0.956359
 30
0.0
 11
329.941
 21
0.833713
 31
0.0
  0
LINE
  8
0
 62
     0
 10
329.941
 20
0.833713
 30
0.0
 11
329.835
 21
0.717959
 31
0.0
  0
LINE
  8
0
 62
     0
 10
329.835
 20
0.717959
 30
0.0
 11
329.719
 21
0.611851
 31
0.0
  0
LINE
  8
0
 62
     0
 10
329.719
 20
0.611851
 30
0.0
 11
329.596
 21
0.512632
 31
0.0
  0
LINE
  8
0
 62
     0
 10
329.596
 20
0.512632
 30
0.0
 11
329.466
 21
0.425813
 31
0.0
  0
LINE
  8
0
 62
     0
 10
329.466
 20
0.425813
 30
0.0
 11
329.329
 21
0.348644
 31
0.0
  0
LINE
  8
0
 62
     0
 10
329.329
 20
0.348644
 30
0.0
 11
329.187
 21
0.283876
 31
0.0
  0
LINE
  8
0
 62
     0
 10
329.187
 20
0.283876
 30
0.0
 11
329.04
 21
0.228755
 31
0.0
  0
LINE
  8
0
 62
     0
 10
329.04
 20
0.228755
 30
0.0
 11
328.888
 21
0.187413
 31
0.0
  0
LINE
  8
0
 62
     0
 10
328.888
 20
0.187413
 30
0.0
 11
328.734
 21
0.155718
 31
0.0
  0
LINE
  8
0
 62
     0
 10
328.734
 20
0.155718
 30
0.0
 11
328.578
 21
0.137804
 31
0.0
  0
LINE
  8
0
 62
     0
 10
328.578
 20
0.137804
 30
0.0
 11
328.421
 21
0.130914
 31
0.0
  0
LINE
  8
0
 62
     0
 10
328.421
 20
0.130914
 30
0.0
 11
2.096
 21
0.130914
 31
0.0
  0
LINE
  8
0
 62
     0
 10
2.096
 20
0.130914
 30
0.0
 11
1.9389
 21
0.137804
 31
0.0
  0
LINE
  8
0
 62
     0
 10
1.9389
 20
0.137804
 30
0.0
 11
1.7818
 21
0.155718
 31
0.0
  0
LINE
  8
0
 62
     0
 10
1.7818
 20
0.155718
 30
0.0
 11
1.62884
 21
0.187413
 31
0.0
  0
LINE
  8
0
 62
     0
 10
1.62884
 20
0.187413
 30
0.0
 11
1.47588
 21
0.228755
 31
0.0
  0
LINE
  8
0
 62
     0
 10
1.47588
 20
0.228755
 30
0.0
 11
1.32981
 21
0.283876
 31
0.0
  0
LINE
  8
0
 62
     0
 10
1.32981
 20
0.283876
 30
0.0
 11
1.18787
 21
0.348644
 31
0.0
  0
LINE
  8
0
 62
     0
 10
1.18787
 20
0.348644
 30
0.0
 11
1.05006
 21
0.425813
 31
0.0
  0
LINE
  8
0
 62
     0
 10
1.05006
 20
0.425813
 30
0.0
 11
0.919152
 21
0.512632
 31
0.0
  0
LINE
  8
0
 62
     0
 10
0.919152
 20
0.512632
 30
0.0
 11
0.796505
 21
0.611851
 31
0.0
  0
LINE
  8
0
 62
     0
 10
0.796505
 20
0.611851
 30
0.0
 11
0.680752
 21
0.717959
 31
0.0
  0
LINE
  8
0
 62
     0
 10
0.680752
 20
0.717959
 30
0.0
 11
0.574643
 21
0.833713
 31
0.0
  0
LINE
  8
0
 62
     0
 10
0.574643
 20
0.833713
 30
0.0
 11
0.4768
 21
0.956359
 31
0.0
  0
LINE
  8
0
 62
     0
 10
0.4768
 20
0.956359
 30
0.0
 11
0.389985
 21
1.08727
 31
0.0
  0
LINE
  8
0
 62
     0
 10
0.389985
 20
1.08727
 30
0.0
 11
0.312815
 21
1.2237
 31
0.0
  0
LINE
  8
0
 62
     0
 10
0.312815
 20
1.2237
 30
0.0
 11
0.248047
 21
1.36563
 31
0.0
  0
LINE
  8
0
 62
     0
 10
0.248047
 20
1.36563
 30
0.0
 11
0.192925
 21
1.51309
 31
0.0
  0
LINE
  8
0
 62
     0
 10
0.192925
 20
1.51309
 30
0.0
 11
0.150206
 21
1.66467
 31
0.0
  0
LINE
  8
0
 62
     0
 10
0.150206
 20
1.66467
 30
0.0
 11
0.119889
 21
1.81901
 31
0.0
  0
LINE
  8
0
 62
     0
 10
0.119889
 20
1.81901
 30
0.0
 11
0.101975
 21
1.97473
 31
0.0
  0
LINE
  8
0
 62
     0
 10
0.101975
 20
1.97473
 30
0.0
 11
0.0950846
 21
2.13183
 31
0.0
  0
LINE
  8
0
 62
     0
 10
0.0950846
 20
2.13183
 30
0.0
 11
0.0950846
 21
128.432
 31
0.0
  0
LINE
  8
0
 62
     0
 10
0.0950846
 20
128.432
 30
0.0
 11
0.101975
 21
128.589
 31
0.0
  0
LINE
  8
0
 62
     0
 10
0.101975
 20
128.589
 30
0.0
 11
0.119889
 21
128.746
 31
0.0
  0
LINE
  8
0
 62
     0
 10
0.119889
 20
128.746
 30
0.0
 11
0.150206
 21
128.899
 31
0.0
  0
LINE
  8
0
 62
     0
 10
0.150206
 20
128.899
 30
0.0
 11
0.192925
 21
129.052
 31
0.0
  0
LINE
  8
0
 62
     0
 10
0.192925
 20
129.052
 30
0.0
 11
0.248047
 21
129.198
 31
0.0
  0
LINE
  8
0
 62
     0
 10
0.248047
 20
129.198
 30
0.0
 11
0.312815
 21
129.34
 31
0.0
  0
LINE
  8
0
 62
     0
 10
0.312815
 20
129.34
 30
0.0
 11
0.389985
 21
129.478
 31
0.0
  0
LINE
  8
0
 62
     0
 10
0.389985
 20
129.478
 30
0.0
 11
0.4768
 21
129.609
 31
0.0
  0
LINE
  8
0
 62
     0
 10
0.4768
 20
129.609
 30
0.0
 11
0.574643
 21
129.731
 31
0.0
  0
LINE
  8
0
 62
     0
 10
0.574643
 20
129.731
 30
0.0
 11
0.680752
 21
129.847
 31
0.0
  0
LINE
  8
0
 62
     0
 10
0.680752
 20
129.847
 30
0.0
 11
0.796505
 21
129.953
 31
0.0
  0
LINE
  8
0
 62
     0
 10
0.796505
 20
129.953
 30
0.0
 11
0.919152
 21
130.051
 31
0.0
  0
LINE
  8
0
 62
     0
 10
0.919152
 20
130.051
 30
0.0
 11
1.05006
 21
130.138
 31
0.0
  0
LINE
  8
0
 62
     0
 10
1.05006
 20
130.138
 30
0.0
 11
1.18787
 21
130.215
 31
0.0
  0
LINE
  8
0
 62
     0
 10
1.18787
 20
130.215
 30
0.0
 11
1.32981
 21
130.28
 31
0.0
  0
LINE
  8
0
 62
     0
 10
1.32981
 20
130.28
 30
0.0
 11
1.47588
 21
130.335
 31
0.0
  0
LINE
  8
0
 62
     0
 10
1.47588
 20
130.335
 30
0.0
 11
1.62884
 21
130.377
 31
0.0
  0
LINE
  8
0
 62
     0
 10
1.62884
 20
130.377
 30
0.0
 11
1.7818
 21
130.408
 31
0.0
  0
LINE
  8
0
 62
     0
 10
1.7818
 20
130.408
 30
0.0
 11
1.9389
 21
130.426
 31
0.0
  0
LINE
  8
0
 62
     0
 10
1.9389
 20
130.426
 30
0.0
 11
2.096
 21
130.433
 31
0.0
  0
LINE
  8
0
 62
     0
 10
2.096
 20
130.433
 30
0.0
 11
328.421
 21
130.433
 31
0.0
  0
LINE
  8
0
 62
     0
 10
3.75514
 20
5.18005
 30
0.0
 11
3.44785
 21
5.02158
 31
0.0
  0
LINE
  8
0
 62
     0
 10
3.44785
 20
5.02158
 30
0.0
 11
3.20394
 21
4.77767
 31
0.0
  0
LINE
  8
0
 62
     0
 10
3.20394
 20
4.77767
 30
0.0
 11
3.04822
 21
4.47174
 31
0.0
  0
LINE
  8
0
 62
     0
 10
3.04822
 20
4.47174
 30
0.0
 11
2.99586
 21
4.13135
 31
0.0
  0
LINE
  8
0
 62
     0
 10
2.99586
 20
4.13135
 30
0.0
 11
3.04822
 21
3.79236
 31
0.0
  0
LINE
  8
0
 62
     0
 10
3.04822
 20
3.79236
 30
0.0
 11
3.20394
 21
3.48506
 31
0.0
  0
LINE
  8
0
 62
     0
 10
3.20394
 20
3.48506
 30
0.0
 11
3.44785
 21
3.24253
 31
0.0
  0
LINE
  8
0
 62
     0
 10
3.44785
 20
3.24253
 30
0.0
 11
3.75514
 21
3.08543
 31
0.0
  0
LINE
  8
0
 62
     0
 10
3.75514
 20
3.08543
 30
0.0
 11
4.09554
 21
3.03168
 31
0.0
  0
LINE
  8
0
 62
     0
 10
4.09554
 20
3.03168
 30
0.0
 11
4.43452
 21
3.08543
 31
0.0
  0
LINE
  8
0
 62
     0
 10
4.43452
 20
3.08543
 30
0.0
 11
4.74183
 21
3.24253
 31
0.0
  0
LINE
  8
0
 62
     0
 10
4.74183
 20
3.24253
 30
0.0
 11
4.98436
 21
3.48506
 31
0.0
  0
LINE
  8
0
 62
     0
 10
4.98436
 20
3.48506
 30
0.0
 11
5.14145
 21
3.79236
 31
0.0
  0
LINE
  8
0
 62
     0
 10
5.14145
 20
3.79236
 30
0.0
 11
5.19522
 21
4.13135
 31
0.0
  0
LINE
  8
0
 62
     0
 10
5.19522
 20
4.13135
 30
0.0
 11
5.14145
 21
4.47174
 31
0.0
  0
LINE
  8
0
 62
     0
 10
5.14145
 20
4.47174
 30
0.0
 11
4.98436
 21
4.77767
 31
0.0
  0
LINE
  8
0
 62
     0
 10
4.98436
 20
4.77767
 30
0.0
 11
4.74183
 21
5.02158
 31
0.0
  0
LINE
  8
0
 62
     0
 10
4.74183
 20
5.02158
 30
0.0
 11
4.43452
 21
5.18005
 31
0.0
  0
LINE
  8
0
 62
     0
 10
4.43452
 20
5.18005
 30
0.0
 11
4.09554
 21
5.23102
 31
0.0
  0
LINE
  8
0
 62
     0
 10
4.09554
 20
5.23102
 30
0.0
 11
3.75514
 21
5.18005
 31
0.0
  0
LINE
  8
0
 62
     0
 10
84.3361
 20
5.18005
 30
0.0
 11
84.0299
 21
5.02158
 31
0.0
  0
LINE
  8
0
 62
     0
 10
84.0299
 20
5.02158
 30
0.0
 11
83.7861
 21
4.77767
 31
0.0
  0
LINE
  8
0
 62
     0
 10
83.7861
 20
4.77767
 30
0.0
 11
83.6306
 21
4.47174
 31
0.0
  0
LINE
  8
0
 62
     0
 10
83.6306
 20
4.47174
 30
0.0
 11
83.5766
 21
4.13135
 31
0.0
  0
LINE
  8
0
 62
     0
 10
83.5766
 20
4.13135
 30
0.0
 11
83.6306
 21
3.79236
 31
0.0
  0
LINE
  8
0
 62
     0
 10
83.6306
 20
3.79236
 30
0.0
 11
83.7861
 21
3.48506
 31
0.0
  0
LINE
  8
0
 62
     0
 10
83.7861
 20
3.48506
 30
0.0
 11
84.0299
 21
3.24253
 31
0.0
  0
LINE
  8
0
 62
     0
 10
84.0299
 20
3.24253
 30
0.0
 11
84.3361
 21
3.08543
 31
0.0
  0
LINE
  8
0
 62
     0
 10
84.3361
 20
3.08543
 30
0.0
 11
84.6762
 21
3.03168
 31
0.0
  0
LINE
  8
0
 62
     0
 10
84.6762
 20
3.03168
 30
0.0
 11
85.0166
 21
3.08543
 31
0.0
  0
LINE
  8
0
 62
     0
 10
85.0166
 20
3.08543
 30
0.0
 11
85.3239
 21
3.24253
 31
0.0
  0
LINE
  8
0
 62
     0
 10
85.3239
 20
3.24253
 30
0.0
 11
85.5666
 21
3.48506
 31
0.0
  0
LINE
  8
0
 62
     0
 10
85.5666
 20
3.48506
 30
0.0
 11
85.7222
 21
3.79236
 31
0.0
  0
LINE
  8
0
 62
     0
 10
85.7222
 20
3.79236
 30
0.0
 11
85.7762
 21
4.13135
 31
0.0
  0
LINE
  8
0
 62
     0
 10
85.7762
 20
4.13135
 30
0.0
 11
85.7222
 21
4.47174
 31
0.0
  0
LINE
  8
0
 62
     0
 10
85.7222
 20
4.47174
 30
0.0
 11
85.5666
 21
4.77767
 31
0.0
  0
LINE
  8
0
 62
     0
 10
85.5666
 20
4.77767
 30
0.0
 11
85.3239
 21
5.02158
 31
0.0
  0
LINE
  8
0
 62
     0
 10
85.3239
 20
5.02158
 30
0.0
 11
85.0166
 21
5.18005
 31
0.0
  0
LINE
  8
0
 62
     0
 10
85.0166
 20
5.18005
 30
0.0
 11
84.6762
 21
5.23102
 31
0.0
  0
LINE
  8
0
 62
     0
 10
84.6762
 20
5.23102
 30
0.0
 11
84.3361
 21
5.18005
 31
0.0
  0
LINE
  8
0
 62
     0
 10
164.918
 20
5.18005
 30
0.0
 11
164.612
 21
5.02158
 31
0.0
  0
LINE
  8
0
 62
     0
 10
164.612
 20
5.02158
 30
0.0
 11
164.368
 21
4.77767
 31
0.0
  0
LINE
  8
0
 62
     0
 10
164.368
 20
4.77767
 30
0.0
 11
164.211
 21
4.47174
 31
0.0
  0
LINE
  8
0
 62
     0
 10
164.211
 20
4.47174
 30
0.0
 11
164.159
 21
4.13135
 31
0.0
  0
LINE
  8
0
 62
     0
 10
164.159
 20
4.13135
 30
0.0
 11
164.211
 21
3.79236
 31
0.0
  0
LINE
  8
0
 62
     0
 10
164.211
 20
3.79236
 30
0.0
 11
164.368
 21
3.48506
 31
0.0
  0
LINE
  8
0
 62
     0
 10
164.368
 20
3.48506
 30
0.0
 11
164.612
 21
3.24253
 31
0.0
  0
LINE
  8
0
 62
     0
 10
164.612
 20
3.24253
 30
0.0
 11
164.918
 21
3.08543
 31
0.0
  0
LINE
  8
0
 62
     0
 10
164.918
 20
3.08543
 30
0.0
 11
165.258
 21
3.03168
 31
0.0
  0
LINE
  8
0
 62
     0
 10
165.258
 20
3.03168
 30
0.0
 11
165.597
 21
3.08543
 31
0.0
  0
LINE
  8
0
 62
     0
 10
165.597
 20
3.08543
 30
0.0
 11
165.905
 21
3.24253
 31
0.0
  0
LINE
  8
0
 62
     0
 10
165.905
 20
3.24253
 30
0.0
 11
166.147
 21
3.48506
 31
0.0
  0
LINE
  8
0
 62
     0
 10
166.147
 20
3.48506
 30
0.0
 11
166.304
 21
3.79236
 31
0.0
  0
LINE
  8
0
 62
     0
 10
166.304
 20
3.79236
 30
0.0
 11
166.358
 21
4.13135
 31
0.0
  0
LINE
  8
0
 62
     0
 10
166.358
 20
4.13135
 30
0.0
 11
166.304
 21
4.47174
 31
0.0
  0
LINE
  8
0
 62
     0
 10
166.304
 20
4.47174
 30
0.0
 11
166.147
 21
4.77767
 31
0.0
  0
LINE
  8
0
 62
     0
 10
166.147
 20
4.77767
 30
0.0
 11
165.905
 21
5.02158
 31
0.0
  0
LINE
  8
0
 62
     0
 10
165.905
 20
5.02158
 30
0.0
 11
165.597
 21
5.18005
 31
0.0
  0
LINE
  8
0
 62
     0
 10
165.597
 20
5.18005
 30
0.0
 11
165.258
 21
5.23102
 31
0.0
  0
LINE
  8
0
 62
     0
 10
165.258
 20
5.23102
 30
0.0
 11
164.918
 21
5.18005
 31
0.0
  0
LINE
  8
0
 62
     0
 10
245.499
 20
5.18005
 30
0.0
 11
245.193
 21
5.02158
 31
0.0
  0
LINE
  8
0
 62
     0
 10
245.193
 20
5.02158
 30
0.0
 11
244.949
 21
4.77767
 31
0.0
  0
LINE
  8
0
 62
     0
 10
244.949
 20
4.77767
 30
0.0
 11
244.793
 21
4.47174
 31
0.0
  0
LINE
  8
0
 62
     0
 10
244.793
 20
4.47174
 30
0.0
 11
244.74
 21
4.13135
 31
0.0
  0
LINE
  8
0
 62
     0
 10
244.74
 20
4.13135
 30
0.0
 11
244.793
 21
3.79236
 31
0.0
  0
LINE
  8
0
 62
     0
 10
244.793
 20
3.79236
 30
0.0
 11
244.949
 21
3.48506
 31
0.0
  0
LINE
  8
0
 62
     0
 10
244.949
 20
3.48506
 30
0.0
 11
245.193
 21
3.24253
 31
0.0
  0
LINE
  8
0
 62
     0
 10
245.193
 20
3.24253
 30
0.0
 11
245.499
 21
3.08543
 31
0.0
  0
LINE
  8
0
 62
     0
 10
245.499
 20
3.08543
 30
0.0
 11
245.839
 21
3.03168
 31
0.0
  0
LINE
  8
0
 62
     0
 10
245.839
 20
3.03168
 30
0.0
 11
246.18
 21
3.08543
 31
0.0
  0
LINE
  8
0
 62
     0
 10
246.18
 20
3.08543
 30
0.0
 11
246.487
 21
3.24253
 31
0.0
  0
LINE
  8
0
 62
     0
 10
246.487
 20
3.24253
 30
0.0
 11
246.73
 21
3.48506
 31
0.0
  0
LINE
  8
0
 62
     0
 10
246.73
 20
3.48506
 30
0.0
 11
246.885
 21
3.79236
 31
0.0
  0
LINE
  8
0
 62
     0
 10
246.885
 20
3.79236
 30
0.0
 11
246.939
 21
4.13135
 31
0.0
  0
LINE
  8
0
 62
     0
 10
246.939
 20
4.13135
 30
0.0
 11
246.885
 21
4.47174
 31
0.0
  0
LINE
  8
0
 62
     0
 10
246.885
 20
4.47174
 30
0.0
 11
246.73
 21
4.77767
 31
0.0
  0
LINE
  8
0
 62
     0
 10
246.73
 20
4.77767
 30
0.0
 11
246.487
 21
5.02158
 31
0.0
  0
LINE
  8
0
 62
     0
 10
246.487
 20
5.02158
 30
0.0
 11
246.18
 21
5.18005
 31
0.0
  0
LINE
  8
0
 62
     0
 10
246.18
 20
5.18005
 30
0.0
 11
245.839
 21
5.23102
 31
0.0
  0
LINE
  8
0
 62
     0
 10
245.839
 20
5.23102
 30
0.0
 11
245.499
 21
5.18005
 31
0.0
  0
LINE
  8
0
 62
     0
 10
326.081
 20
5.18005
 30
0.0
 11
325.775
 21
5.02158
 31
0.0
  0
LINE
  8
0
 62
     0
 10
325.775
 20
5.02158
 30
0.0
 11
325.531
 21
4.77767
 31
0.0
  0
LINE
  8
0
 62
     0
 10
325.531
 20
4.77767
 30
0.0
 11
325.374
 21
4.47174
 31
0.0
  0
LINE
  8
0
 62
     0
 10
325.374
 20
4.47174
 30
0.0
 11
325.322
 21
4.13135
 31
0.0
  0
LINE
  8
0
 62
     0
 10
325.322
 20
4.13135
 30
0.0
 11
325.374
 21
3.79236
 31
0.0
  0
LINE
  8
0
 62
     0
 10
325.374
 20
3.79236
 30
0.0
 11
325.531
 21
3.48506
 31
0.0
  0
LINE
  8
0
 62
     0
 10
325.531
 20
3.48506
 30
0.0
 11
325.775
 21
3.24253
 31
0.0
  0
LINE
  8
0
 62
     0
 10
325.775
 20
3.24253
 30
0.0
 11
326.081
 21
3.08543
 31
0.0
  0
LINE
  8
0
 62
     0
 10
326.081
 20
3.08543
 30
0.0
 11
326.421
 21
3.03168
 31
0.0
  0
LINE
  8
0
 62
     0
 10
326.421
 20
3.03168
 30
0.0
 11
326.76
 21
3.08543
 31
0.0
  0
LINE
  8
0
 62
     0
 10
326.76
 20
3.08543
 30
0.0
 11
327.068
 21
3.24253
 31
0.0
  0
LINE
  8
0
 62
     0
 10
327.068
 20
3.24253
 30
0.0
 11
327.31
 21
3.48506
 31
0.0
  0
LINE
  8
0
 62
     0
 10
327.31
 20
3.48506
 30
0.0
 11
327.467
 21
3.79236
 31
0.0
  0
LINE
  8
0
 62
     0
 10
327.467
 20
3.79236
 30
0.0
 11
327.521
 21
4.13135
 31
0.0
  0
LINE
  8
0
 62
     0
 10
327.521
 20
4.13135
 30
0.0
 11
327.467
 21
4.47174
 31
0.0
  0
LINE
  8
0
 62
     0
 10
327.467
 20
4.47174
 30
0.0
 11
327.31
 21
4.77767
 31
0.0
  0
LINE
  8
0
 62
     0
 10
327.31
 20
4.77767
 30
0.0
 11
327.068
 21
5.02158
 31
0.0
  0
LINE
  8
0
 62
     0
 10
327.068
 20
5.02158
 30
0.0
 11
326.76
 21
5.18005
 31
0.0
  0
LINE
  8
0
 62
     0
 10
326.76
 20
5.18005
 30
0.0
 11
326.421
 21
5.23102
 31
0.0
  0
LINE
  8
0
 62
     0
 10
326.421
 20
5.23102
 30
0.0
 11
326.081
 21
5.18005
 31
0.0
  0
LINE
  8
0
 62
     0
 10
3.75514
 20
66.3279
 30
0.0
 11
3.44785
 21
66.1719
 31
0.0
  0
LINE
  8
0
 62
     0
 10
3.44785
 20
66.1719
 30
0.0
 11
3.20394
 21
65.9296
 31
0.0
  0
LINE
  8
0
 62
     0
 10
3.20394
 20
65.9296
 30
0.0
 11
3.04822
 21
65.6223
 31
0.0
  0
LINE
  8
0
 62
     0
 10
3.04822
 20
65.6223
 30
0.0
 11
2.99586
 21
65.2819
 31
0.0
  0
LINE
  8
0
 62
     0
 10
2.99586
 20
65.2819
 30
0.0
 11
3.04822
 21
64.9429
 31
0.0
  0
LINE
  8
0
 62
     0
 10
3.04822
 20
64.9429
 30
0.0
 11
3.20394
 21
64.6356
 31
0.0
  0
LINE
  8
0
 62
     0
 10
3.20394
 20
64.6356
 30
0.0
 11
3.44785
 21
64.3929
 31
0.0
  0
LINE
  8
0
 62
     0
 10
3.44785
 20
64.3929
 30
0.0
 11
3.75514
 21
64.2359
 31
0.0
  0
LINE
  8
0
 62
     0
 10
3.75514
 20
64.2359
 30
0.0
 11
4.09554
 21
64.1823
 31
0.0
  0
LINE
  8
0
 62
     0
 10
4.09554
 20
64.1823
 30
0.0
 11
4.43452
 21
64.2359
 31
0.0
  0
LINE
  8
0
 62
     0
 10
4.43452
 20
64.2359
 30
0.0
 11
4.74183
 21
64.3929
 31
0.0
  0
LINE
  8
0
 62
     0
 10
4.74183
 20
64.3929
 30
0.0
 11
4.98436
 21
64.6356
 31
0.0
  0
LINE
  8
0
 62
     0
 10
4.98436
 20
64.6356
 30
0.0
 11
5.14145
 21
64.9429
 31
0.0
  0
LINE
  8
0
 62
     0
 10
5.14145
 20
64.9429
 30
0.0
 11
5.19522
 21
65.2819
 31
0.0
  0
LINE
  8
0
 62
     0
 10
5.19522
 20
65.2819
 30
0.0
 11
5.14145
 21
65.6223
 31
0.0
  0
LINE
  8
0
 62
     0
 10
5.14145
 20
65.6223
 30
0.0
 11
4.98436
 21
65.9296
 31
0.0
  0
LINE
  8
0
 62
     0
 10
4.98436
 20
65.9296
 30
0.0
 11
4.74183
 21
66.1719
 31
0.0
  0
LINE
  8
0
 62
     0
 10
4.74183
 20
66.1719
 30
0.0
 11
4.43452
 21
66.3279
 31
0.0
  0
LINE
  8
0
 62
     0
 10
4.43452
 20
66.3279
 30
0.0
 11
4.09554
 21
66.3829
 31
0.0
  0
LINE
  8
0
 62
     0
 10
4.09554
 20
66.3829
 30
0.0
 11
3.75514
 21
66.3279
 31
0.0
  0
LINE
  8
0
 62
     0
 10
326.081
 20
66.3279
 30
0.0
 11
325.775
 21
66.1719
 31
0.0
  0
LINE
  8
0
 62
     0
 10
325.775
 20
66.1719
 30
0.0
 11
325.531
 21
65.9296
 31
0.0
  0
LINE
  8
0
 62
     0
 10
325.531
 20
65.9296
 30
0.0
 11
325.374
 21
65.6223
 31
0.0
  0
LINE
  8
0
 62
     0
 10
325.374
 20
65.6223
 30
0.0
 11
325.322
 21
65.2819
 31
0.0
  0
LINE
  8
0
 62
     0
 10
325.322
 20
65.2819
 30
0.0
 11
325.374
 21
64.9429
 31
0.0
  0
LINE
  8
0
 62
     0
 10
325.374
 20
64.9429
 30
0.0
 11
325.531
 21
64.6356
 31
0.0
  0
LINE
  8
0
 62
     0
 10
325.531
 20
64.6356
 30
0.0
 11
325.775
 21
64.3929
 31
0.0
  0
LINE
  8
0
 62
     0
 10
325.775
 20
64.3929
 30
0.0
 11
326.081
 21
64.2359
 31
0.0
  0
LINE
  8
0
 62
     0
 10
326.081
 20
64.2359
 30
0.0
 11
326.421
 21
64.1823
 31
0.0
  0
LINE
  8
0
 62
     0
 10
326.421
 20
64.1823
 30
0.0
 11
326.76
 21
64.2359
 31
0.0
  0
LINE
  8
0
 62
     0
 10
326.76
 20
64.2359
 30
0.0
 11
327.068
 21
64.3929
 31
0.0
  0
LINE
  8
0
 62
     0
 10
327.068
 20
64.3929
 30
0.0
 11
327.31
 21
64.6356
 31
0.0
  0
LINE
  8
0
 62
     0
 10
327.31
 20
64.6356
 30
0.0
 11
327.467
 21
64.9429
 31
0.0
  0
LINE
  8
0
 62
     0
 10
327.467
 20
64.9429
 30
0.0
 11
327.521
 21
65.2819
 31
0.0
  0
LINE
  8
0
 62
     0
 10
327.521
 20
65.2819
 30
0.0
 11
327.467
 21
65.6223
 31
0.0
  0
LINE
  8
0
 62
     0
 10
327.467
 20
65.6223
 30
0.0
 11
327.31
 21
65.9296
 31
0.0
  0
LINE
  8
0
 62
     0
 10
327.31
 20
65.9296
 30
0.0
 11
327.068
 21
66.1719
 31
0.0
  0
LINE
  8
0
 62
     0
 10
327.068
 20
66.1719
 30
0.0
 11
326.76
 21
66.3279
 31
0.0
  0
LINE
  8
0
 62
     0
 10
326.76
 20
66.3279
 30
0.0
 11
326.421
 21
66.3829
 31
0.0
  0
LINE
  8
0
 62
     0
 10
326.421
 20
66.3829
 30
0.0
 11
326.081
 21
66.3279
 31
0.0
  0
LINE
  8
0
 62
     0
 10
3.75514
 20
127.479
 30
0.0
 11
3.44785
 21
127.324
 31
0.0
  0
LINE
  8
0
 62
     0
 10
3.44785
 20
127.324
 30
0.0
 11
3.20394
 21
127.08
 31
0.0
  0
LINE
  8
0
 62
     0
 10
3.20394
 20
127.08
 30
0.0
 11
3.04822
 21
126.772
 31
0.0
  0
LINE
  8
0
 62
     0
 10
3.04822
 20
126.772
 30
0.0
 11
2.99586
 21
126.432
 31
0.0
  0
LINE
  8
0
 62
     0
 10
2.99586
 20
126.432
 30
0.0
 11
3.04822
 21
126.093
 31
0.0
  0
LINE
  8
0
 62
     0
 10
3.04822
 20
126.093
 30
0.0
 11
3.20394
 21
125.786
 31
0.0
  0
LINE
  8
0
 62
     0
 10
3.20394
 20
125.786
 30
0.0
 11
3.44785
 21
125.543
 31
0.0
  0
LINE
  8
0
 62
     0
 10
3.44785
 20
125.543
 30
0.0
 11
3.75514
 21
125.386
 31
0.0
  0
LINE
  8
0
 62
     0
 10
3.75514
 20
125.386
 30
0.0
 11
4.09554
 21
125.332
 31
0.0
  0
LINE
  8
0
 62
     0
 10
4.09554
 20
125.332
 30
0.0
 11
4.43452
 21
125.386
 31
0.0
  0
LINE
  8
0
 62
     0
 10
4.43452
 20
125.386
 30
0.0
 11
4.74183
 21
125.543
 31
0.0
  0
LINE
  8
0
 62
     0
 10
4.74183
 20
125.543
 30
0.0
 11
4.98436
 21
125.786
 31
0.0
  0
LINE
  8
0
 62
     0
 10
4.98436
 20
125.786
 30
0.0
 11
5.14145
 21
126.093
 31
0.0
  0
LINE
  8
0
 62
     0
 10
5.14145
 20
126.093
 30
0.0
 11
5.19522
 21
126.432
 31
0.0
  0
LINE
  8
0
 62
     0
 10
5.19522
 20
126.432
 30
0.0
 11
5.14145
 21
126.772
 31
0.0
  0
LINE
  8
0
 62
     0
 10
5.14145
 20
126.772
 30
0.0
 11
4.98436
 21
127.08
 31
0.0
  0
LINE
  8
0
 62
     0
 10
4.98436
 20
127.08
 30
0.0
 11
4.74183
 21
127.324
 31
0.0
  0
LINE
  8
0
 62
     0
 10
4.74183
 20
127.324
 30
0.0
 11
4.43452
 21
127.479
 31
0.0
  0
LINE
  8
0
 62
     0
 10
4.43452
 20
127.479
 30
0.0
 11
4.09554
 21
127.532
 31
0.0
  0
LINE
  8
0
 62
     0
 10
4.09554
 20
127.532
 30
0.0
 11
3.75514
 21
127.479
 31
0.0
  0
LINE
  8
0
 62
     0
 10
326.081
 20
127.479
 30
0.0
 11
325.775
 21
127.324
 31
0.0
  0
LINE
  8
0
 62
     0
 10
325.775
 20
127.324
 30
0.0
 11
325.531
 21
127.08
 31
0.0
  0
LINE
  8
0
 62
     0
 10
325.531
 20
127.08
 30
0.0
 11
325.374
 21
126.772
 31
0.0
  0
LINE
  8
0
 62
     0
 10
325.374
 20
126.772
 30
0.0
 11
325.322
 21
126.432
 31
0.0
  0
LINE
  8
0
 62
     0
 10
325.322
 20
126.432
 30
0.0
 11
325.374
 21
126.093
 31
0.0
  0
LINE
  8
0
 62
     0
 10
325.374
 20
126.093
 30
0.0
 11
325.531
 21
125.786
 31
0.0
  0
LINE
  8
0
 62
     0
 10
325.531
 20
125.786
 30
0.0
 11
325.775
 21
125.543
 31
0.0
  0
LINE
  8
0
 62
     0
 10
325.775
 20
125.543
 30
0.0
 11
326.081
 21
125.386
 31
0.0
  0
LINE
  8
0
 62
     0
 10
326.081
 20
125.386
 30
0.0
 11
326.421
 21
125.332
 31
0.0
  0
LINE
  8
0
 62
     0
 10
326.421
 20
125.332
 30
0.0
 11
326.76
 21
125.386
 31
0.0
  0
LINE
  8
0
 62
     0
 10
326.76
 20
125.386
 30
0.0
 11
327.068
 21
125.543
 31
0.0
  0
LINE
  8
0
 62
     0
 10
327.068
 20
125.543
 30
0.0
 11
327.31
 21
125.786
 31
0.0
  0
LINE
  8
0
 62
     0
 10
327.31
 20
125.786
 30
0.0
 11
327.467
 21
126.093
 31
0.0
  0
LINE
  8
0
 62
     0
 10
327.467
 20
126.093
 30
0.0
 11
327.521
 21
126.432
 31
0.0
  0
LINE
  8
0
 62
     0
 10
327.521
 20
126.432
 30
0.0
 11
327.467
 21
126.772
 31
0.0
  0
LINE
  8
0
 62
     0
 10
327.467
 20
126.772
 30
0.0
 11
327.31
 21
127.08
 31
0.0
  0
LINE
  8
0
 62
     0
 10
327.31
 20
127.08
 30
0.0
 11
327.068
 21
127.324
 31
0.0
  0
LINE
  8
0
 62
     0
 10
327.068
 20
127.324
 30
0.0
 11
326.76
 21
127.479
 31
0.0
  0
LINE
  8
0
 62
     0
 10
326.76
 20
127.479
 30
0.0
 11
326.421
 21
127.532
 31
0.0
  0
LINE
  8
0
 62
     0
 10
326.421
 20
127.532
 30
0.0
 11
326.081
 21
127.479
 31
0.0
  0
LINE
  8
0
 62
     0
 10
245.499
 20
127.479
 30
0.0
 11
245.193
 21
127.324
 31
0.0
  0
LINE
  8
0
 62
     0
 10
245.193
 20
127.324
 30
0.0
 11
244.949
 21
127.08
 31
0.0
  0
LINE
  8
0
 62
     0
 10
244.949
 20
127.08
 30
0.0
 11
244.793
 21
126.772
 31
0.0
  0
LINE
  8
0
 62
     0
 10
244.793
 20
126.772
 30
0.0
 11
244.74
 21
126.432
 31
0.0
  0
LINE
  8
0
 62
     0
 10
244.74
 20
126.432
 30
0.0
 11
244.793
 21
126.093
 31
0.0
  0
LINE
  8
0
 62
     0
 10
244.793
 20
126.093
 30
0.0
 11
244.949
 21
125.786
 31
0.0
  0
LINE
  8
0
 62
     0
 10
244.949
 20
125.786
 30
0.0
 11
245.193
 21
125.543
 31
0.0
  0
LINE
  8
0
 62
     0
 10
245.193
 20
125.543
 30
0.0
 11
245.499
 21
125.386
 31
0.0
  0
LINE
  8
0
 62
     0
 10
245.499
 20
125.386
 30
0.0
 11
245.839
 21
125.332
 31
0.0
  0
LINE
  8
0
 62
     0
 10
245.839
 20
125.332
 30
0.0
 11
246.18
 21
125.386
 31
0.0
  0
LINE
  8
0
 62
     0
 10
246.18
 20
125.386
 30
0.0
 11
246.487
 21
125.543
 31
0.0
  0
LINE
  8
0
 62
     0
 10
246.487
 20
125.543
 30
0.0
 11
246.73
 21
125.786
 31
0.0
  0
LINE
  8
0
 62
     0
 10
246.73
 20
125.786
 30
0.0
 11
246.885
 21
126.093
 31
0.0
  0
LINE
  8
0
 62
     0
 10
246.885
 20
126.093
 30
0.0
 11
246.939
 21
126.432
 31
0.0
  0
LINE
  8
0
 62
     0
 10
246.939
 20
126.432
 30
0.0
 11
246.885
 21
126.772
 31
0.0
  0
LINE
  8
0
 62
     0
 10
246.885
 20
126.772
 30
0.0
 11
246.73
 21
127.08
 31
0.0
  0
LINE
  8
0
 62
     0
 10
246.73
 20
127.08
 30
0.0
 11
246.487
 21
127.324
 31
0.0
  0
LINE
  8
0
 62
     0
 10
246.487
 20
127.324
 30
0.0
 11
246.18
 21
127.479
 31
0.0
  0
LINE
  8
0
 62
     0
 10
246.18
 20
127.479
 30
0.0
 11
245.839
 21
127.532
 31
0.0
  0
LINE
  8
0
 62
     0
 10
245.839
 20
127.532
 30
0.0
 11
245.499
 21
127.479
 31
0.0
  0
LINE
  8
0
 62
     0
 10
164.918
 20
127.479
 30
0.0
 11
164.612
 21
127.324
 31
0.0
  0
LINE
  8
0
 62
     0
 10
164.612
 20
127.324
 30
0.0
 11
164.368
 21
127.08
 31
0.0
  0
LINE
  8
0
 62
     0
 10
164.368
 20
127.08
 30
0.0
 11
164.211
 21
126.772
 31
0.0
  0
LINE
  8
0
 62
     0
 10
164.211
 20
126.772
 30
0.0
 11
164.159
 21
126.432
 31
0.0
  0
LINE
  8
0
 62
     0
 10
164.159
 20
126.432
 30
0.0
 11
164.211
 21
126.093
 31
0.0
  0
LINE
  8
0
 62
     0
 10
164.211
 20
126.093
 30
0.0
 11
164.368
 21
125.786
 31
0.0
  0
LINE
  8
0
 62
     0
 10
164.368
 20
125.786
 30
0.0
 11
164.612
 21
125.543
 31
0.0
  0
LINE
  8
0
 62
     0
 10
164.612
 20
125.543
 30
0.0
 11
164.918
 21
125.386
 31
0.0
  0
LINE
  8
0
 62
     0
 10
164.918
 20
125.386
 30
0.0
 11
165.258
 21
125.332
 31
0.0
  0
LINE
  8
0
 62
     0
 10
165.258
 20
125.332
 30
0.0
 11
165.597
 21
125.386
 31
0.0
  0
LINE
  8
0
 62
     0
 10
165.597
 20
125.386
 30
0.0
 11
165.905
 21
125.543
 31
0.0
  0
LINE
  8
0
 62
     0
 10
165.905
 20
125.543
 30
0.0
 11
166.147
 21
125.786
 31
0.0
  0
LINE
  8
0
 62
     0
 10
166.147
 20
125.786
 30
0.0
 11
166.304
 21
126.093
 31
0.0
  0
LINE
  8
0
 62
     0
 10
166.304
 20
126.093
 30
0.0
 11
166.358
 21
126.432
 31
0.0
  0
LINE
  8
0
 62
     0
 10
166.358
 20
126.432
 30
0.0
 11
166.304
 21
126.772
 31
0.0
  0
LINE
  8
0
 62
     0
 10
166.304
 20
126.772
 30
0.0
 11
166.147
 21
127.08
 31
0.0
  0
LINE
  8
0
 62
     0
 10
166.147
 20
127.08
 30
0.0
 11
165.905
 21
127.324
 31
0.0
  0
LINE
  8
0
 62
     0
 10
165.905
 20
127.324
 30
0.0
 11
165.597
 21
127.479
 31
0.0
  0
LINE
  8
0
 62
     0
 10
165.597
 20
127.479
 30
0.0
 11
165.258
 21
127.532
 31
0.0
  0
LINE
  8
0
 62
     0
 10
165.258
 20
127.532
 30
0.0
 11
164.918
 21
127.479
 31
0.0
  0
LINE
  8
0
 62
     0
 10
84.3361
 20
127.479
 30
0.0
 11
84.0299
 21
127.324
 31
0.0
  0
LINE
  8
0
 62
     0
 10
84.0299
 20
127.324
 30
0.0
 11
83.7861
 21
127.08
 31
0.0
  0
LINE
  8
0
 62
     0
 10
83.7861
 20
127.08
 30
0.0
 11
83.6306
 21
126.772
 31
0.0
  0
LINE
  8
0
 62
     0
 10
83.6306
 20
126.772
 30
0.0
 11
83.5766
 21
126.432
 31
0.0
  0
LINE
  8
0
 62
     0
 10
83.5766
 20
126.432
 30
0.0
 11
83.6306
 21
126.093
 31
0.0
  0
LINE
  8
0
 62
     0
 10
83.6306
 20
126.093
 30
0.0
 11
83.7861
 21
125.786
 31
0.0
  0
LINE
  8
0
 62
     0
 10
83.7861
 20
125.786
 30
0.0
 11
84.0299
 21
125.543
 31
0.0
  0
LINE
  8
0
 62
     0
 10
84.0299
 20
125.543
 30
0.0
 11
84.3361
 21
125.386
 31
0.0
  0
LINE
  8
0
 62
     0
 10
84.3361
 20
125.386
 30
0.0
 11
84.6762
 21
125.332
 31
0.0
  0
LINE
  8
0
 62
     0
 10
84.6762
 20
125.332
 30
0.0
 11
85.0166
 21
125.386
 31
0.0
  0
LINE
  8
0
 62
     0
 10
85.0166
 20
125.386
 30
0.0
 11
85.3239
 21
125.543
 31
0.0
  0
LINE
  8
0
 62
     0
 10
85.3239
 20
125.543
 30
0.0
 11
85.5666
 21
125.786
 31
0.0
  0
LINE
  8
0
 62
     0
 10
85.5666
 20
125.786
 30
0.0
 11
85.7222
 21
126.093
 31
0.0
  0
LINE
  8
0
 62
     0
 10
85.7222
 20
126.093
 30
0.0
 11
85.7762
 21
126.432
 31
0.0
  0
LINE
  8
0
 62
     0
 10
85.7762
 20
126.432
 30
0.0
 11
85.7222
 21
126.772
 31
0.0
  0
LINE
  8
0
 62
     0
 10
85.7222
 20
126.772
 30
0.0
 11
85.5666
 21
127.08
 31
0.0
  0
LINE
  8
0
 62
     0
 10
85.5666
 20
127.08
 30
0.0
 11
85.3239
 21
127.324
 31
0.0
  0
LINE
  8
0
 62
     0
 10
85.3239
 20
127.324
 30
0.0
 11
85.0166
 21
127.479
 31
0.0
  0
LINE
  8
0
 62
     0
 10
85.0166
 20
127.479
 30
0.0
 11
84.6762
 21
127.532
 31
0.0
  0
LINE
  8
0
 62
     0
 10
84.6762
 20
127.532
 30
0.0
 11
84.3361
 21
127.479
 31
0.0
  0
ENDSEC
  0
EOF
