  0
SECTION
  2
HEADER
  9
$ACADVER
  1
AC1009
  9
$EXTMIN
 10
0.0
 20
0.0
 30
0.0
  9
$EXTMAX
 10
1000.0
 20
1000.0
 30
0.0
  9
$FILLMODE
 70
 0
  9
$SPLFRAME
 70
 1
  0
ENDSEC
  0
SECTION
  2
TABLES
  0
TABLE
  2
LAYER
 70
1
  0
LAYER
  2
0
 70
     0
 62
     7
  6
CONTINUOUS
  0
ENDTAB
  0
ENDSEC
  0
SECTION
  2
ENTITIES
  0
LINE
  8
0
 62
     0
 10
20.2572
 20
122.432
 30
0.0
 11
8.09597
 21
122.432
 31
0.0
  0
LINE
  8
0
 62
     0
 10
8.09597
 20
122.432
 30
0.0
 11
8.09597
 21
8.13181
 31
0.0
  0
LINE
  8
0
 62
     0
 10
8.09597
 20
8.13181
 30
0.0
 11
322.421
 21
8.13181
 31
0.0
  0
LINE
  8
0
 62
     0
 10
322.421
 20
8.13181
 30
0.0
 11
322.421
 21
122.432
 31
0.0
  0
LINE
  8
0
 62
     0
 10
322.421
 20
122.432
 30
0.0
 11
34.258
 21
122.432
 31
0.0
  0
LINE
  8
0
 62
     0
 10
34.258
 20
122.432
 30
0.0
 11
34.258
 21
130.433
 31
0.0
  0
LINE
  8
0
 62
     0
 10
34.258
 20
130.433
 30
0.0
 11
328.421
 21
130.433
 31
0.0
  0
LINE
  8
0
 62
     0
 10
328.421
 20
130.433
 30
0.0
 11
328.578
 21
130.426
 31
0.0
  0
LINE
  8
0
 62
     0
 10
328.578
 20
130.426
 30
0.0
 11
328.734
 21
130.408
 31
0.0
  0
LINE
  8
0
 62
     0
 10
328.734
 20
130.408
 30
0.0
 11
328.888
 21
130.377
 31
0.0
  0
LINE
  8
0
 62
     0
 10
328.888
 20
130.377
 30
0.0
 11
329.04
 21
130.335
 31
0.0
  0
LINE
  8
0
 62
     0
 10
329.04
 20
130.335
 30
0.0
 11
329.187
 21
130.28
 31
0.0
  0
LINE
  8
0
 62
     0
 10
329.187
 20
130.28
 30
0.0
 11
329.329
 21
130.215
 31
0.0
  0
LINE
  8
0
 62
     0
 10
329.329
 20
130.215
 30
0.0
 11
329.466
 21
130.138
 31
0.0
  0
LINE
  8
0
 62
     0
 10
329.466
 20
130.138
 30
0.0
 11
329.596
 21
130.051
 31
0.0
  0
LINE
  8
0
 62
     0
 10
329.596
 20
130.051
 30
0.0
 11
329.719
 21
129.953
 31
0.0
  0
LINE
  8
0
 62
     0
 10
329.719
 20
129.953
 30
0.0
 11
329.835
 21
129.847
 31
0.0
  0
LINE
  8
0
 62
     0
 10
329.835
 20
129.847
 30
0.0
 11
329.941
 21
129.731
 31
0.0
  0
LINE
  8
0
 62
     0
 10
329.941
 20
129.731
 30
0.0
 11
330.04
 21
129.609
 31
0.0
  0
LINE
  8
0
 62
     0
 10
330.04
 20
129.609
 30
0.0
 11
330.127
 21
129.478
 31
0.0
  0
LINE
  8
0
 62
     0
 10
330.127
 20
129.478
 30
0.0
 11
330.204
 21
129.34
 31
0.0
  0
LINE
  8
0
 62
     0
 10
330.204
 20
129.34
 30
0.0
 11
330.269
 21
129.198
 31
0.0
  0
LINE
  8
0
 62
     0
 10
330.269
 20
129.198
 30
0.0
 11
330.324
 21
129.052
 31
0.0
  0
LINE
  8
0
 62
     0
 10
330.324
 20
129.052
 30
0.0
 11
330.365
 21
128.899
 31
0.0
  0
LINE
  8
0
 62
     0
 10
330.365
 20
128.899
 30
0.0
 11
330.397
 21
128.746
 31
0.0
  0
LINE
  8
0
 62
     0
 10
330.397
 20
128.746
 30
0.0
 11
330.415
 21
128.589
 31
0.0
  0
LINE
  8
0
 62
     0
 10
330.415
 20
128.589
 30
0.0
 11
330.422
 21
128.432
 31
0.0
  0
LINE
  8
0
 62
     0
 10
330.422
 20
128.432
 30
0.0
 11
330.422
 21
2.13183
 31
0.0
  0
LINE
  8
0
 62
     0
 10
330.422
 20
2.13183
 30
0.0
 11
330.415
 21
1.97473
 31
0.0
  0
LINE
  8
0
 62
     0
 10
330.415
 20
1.97473
 30
0.0
 11
330.397
 21
1.81901
 31
0.0
  0
LINE
  8
0
 62
     0
 10
330.397
 20
1.81901
 30
0.0
 11
330.365
 21
1.66467
 31
0.0
  0
LINE
  8
0
 62
     0
 10
330.365
 20
1.66467
 30
0.0
 11
330.324
 21
1.51309
 31
0.0
  0
LINE
  8
0
 62
     0
 10
330.324
 20
1.51309
 30
0.0
 11
330.269
 21
1.36563
 31
0.0
  0
LINE
  8
0
 62
     0
 10
330.269
 20
1.36563
 30
0.0
 11
330.204
 21
1.2237
 31
0.0
  0
LINE
  8
0
 62
     0
 10
330.204
 20
1.2237
 30
0.0
 11
330.127
 21
1.08727
 31
0.0
  0
LINE
  8
0
 62
     0
 10
330.127
 20
1.08727
 30
0.0
 11
330.04
 21
0.956359
 31
0.0
  0
LINE
  8
0
 62
     0
 10
330.04
 20
0.956359
 30
0.0
 11
329.941
 21
0.833713
 31
0.0
  0
LINE
  8
0
 62
     0
 10
329.941
 20
0.833713
 30
0.0
 11
329.835
 21
0.717959
 31
0.0
  0
LINE
  8
0
 62
     0
 10
329.835
 20
0.717959
 30
0.0
 11
329.719
 21
0.611851
 31
0.0
  0
LINE
  8
0
 62
     0
 10
329.719
 20
0.611851
 30
0.0
 11
329.596
 21
0.512632
 31
0.0
  0
LINE
  8
0
 62
     0
 10
329.596
 20
0.512632
 30
0.0
 11
329.466
 21
0.425813
 31
0.0
  0
LINE
  8
0
 62
     0
 10
329.466
 20
0.425813
 30
0.0
 11
329.329
 21
0.348644
 31
0.0
  0
LINE
  8
0
 62
     0
 10
329.329
 20
0.348644
 30
0.0
 11
329.187
 21
0.283876
 31
0.0
  0
LINE
  8
0
 62
     0
 10
329.187
 20
0.283876
 30
0.0
 11
329.04
 21
0.228755
 31
0.0
  0
LINE
  8
0
 62
     0
 10
329.04
 20
0.228755
 30
0.0
 11
328.888
 21
0.187413
 31
0.0
  0
LINE
  8
0
 62
     0
 10
328.888
 20
0.187413
 30
0.0
 11
328.734
 21
0.155718
 31
0.0
  0
LINE
  8
0
 62
     0
 10
328.734
 20
0.155718
 30
0.0
 11
328.578
 21
0.137804
 31
0.0
  0
LINE
  8
0
 62
     0
 10
328.578
 20
0.137804
 30
0.0
 11
328.421
 21
0.130914
 31
0.0
  0
LINE
  8
0
 62
     0
 10
328.421
 20
0.130914
 30
0.0
 11
2.096
 21
0.130914
 31
0.0
  0
LINE
  8
0
 62
     0
 10
2.096
 20
0.130914
 30
0.0
 11
1.9389
 21
0.137804
 31
0.0
  0
LINE
  8
0
 62
     0
 10
1.9389
 20
0.137804
 30
0.0
 11
1.7818
 21
0.155718
 31
0.0
  0
LINE
  8
0
 62
     0
 10
1.7818
 20
0.155718
 30
0.0
 11
1.62884
 21
0.187413
 31
0.0
  0
LINE
  8
0
 62
     0
 10
1.62884
 20
0.187413
 30
0.0
 11
1.47588
 21
0.228755
 31
0.0
  0
LINE
  8
0
 62
     0
 10
1.47588
 20
0.228755
 30
0.0
 11
1.32981
 21
0.283876
 31
0.0
  0
LINE
  8
0
 62
     0
 10
1.32981
 20
0.283876
 30
0.0
 11
1.18787
 21
0.348644
 31
0.0
  0
LINE
  8
0
 62
     0
 10
1.18787
 20
0.348644
 30
0.0
 11
1.05006
 21
0.425813
 31
0.0
  0
LINE
  8
0
 62
     0
 10
1.05006
 20
0.425813
 30
0.0
 11
0.919152
 21
0.512632
 31
0.0
  0
LINE
  8
0
 62
     0
 10
0.919152
 20
0.512632
 30
0.0
 11
0.796505
 21
0.611851
 31
0.0
  0
LINE
  8
0
 62
     0
 10
0.796505
 20
0.611851
 30
0.0
 11
0.680752
 21
0.717959
 31
0.0
  0
LINE
  8
0
 62
     0
 10
0.680752
 20
0.717959
 30
0.0
 11
0.574643
 21
0.833713
 31
0.0
  0
LINE
  8
0
 62
     0
 10
0.574643
 20
0.833713
 30
0.0
 11
0.4768
 21
0.956359
 31
0.0
  0
LINE
  8
0
 62
     0
 10
0.4768
 20
0.956359
 30
0.0
 11
0.389985
 21
1.08727
 31
0.0
  0
LINE
  8
0
 62
     0
 10
0.389985
 20
1.08727
 30
0.0
 11
0.312815
 21
1.2237
 31
0.0
  0
LINE
  8
0
 62
     0
 10
0.312815
 20
1.2237
 30
0.0
 11
0.248047
 21
1.36563
 31
0.0
  0
LINE
  8
0
 62
     0
 10
0.248047
 20
1.36563
 30
0.0
 11
0.192925
 21
1.51309
 31
0.0
  0
LINE
  8
0
 62
     0
 10
0.192925
 20
1.51309
 30
0.0
 11
0.150206
 21
1.66467
 31
0.0
  0
LINE
  8
0
 62
     0
 10
0.150206
 20
1.66467
 30
0.0
 11
0.119889
 21
1.81901
 31
0.0
  0
LINE
  8
0
 62
     0
 10
0.119889
 20
1.81901
 30
0.0
 11
0.101975
 21
1.97473
 31
0.0
  0
LINE
  8
0
 62
     0
 10
0.101975
 20
1.97473
 30
0.0
 11
0.0950846
 21
2.13183
 31
0.0
  0
LINE
  8
0
 62
     0
 10
0.0950846
 20
2.13183
 30
0.0
 11
0.0950846
 21
128.432
 31
0.0
  0
LINE
  8
0
 62
     0
 10
0.0950846
 20
128.432
 30
0.0
 11
0.101975
 21
128.589
 31
0.0
  0
LINE
  8
0
 62
     0
 10
0.101975
 20
128.589
 30
0.0
 11
0.119889
 21
128.746
 31
0.0
  0
LINE
  8
0
 62
     0
 10
0.119889
 20
128.746
 30
0.0
 11
0.150206
 21
128.899
 31
0.0
  0
LINE
  8
0
 62
     0
 10
0.150206
 20
128.899
 30
0.0
 11
0.192925
 21
129.052
 31
0.0
  0
LINE
  8
0
 62
     0
 10
0.192925
 20
129.052
 30
0.0
 11
0.248047
 21
129.198
 31
0.0
  0
LINE
  8
0
 62
     0
 10
0.248047
 20
129.198
 30
0.0
 11
0.312815
 21
129.34
 31
0.0
  0
LINE
  8
0
 62
     0
 10
0.312815
 20
129.34
 30
0.0
 11
0.389985
 21
129.478
 31
0.0
  0
LINE
  8
0
 62
     0
 10
0.389985
 20
129.478
 30
0.0
 11
0.4768
 21
129.609
 31
0.0
  0
LINE
  8
0
 62
     0
 10
0.4768
 20
129.609
 30
0.0
 11
0.574643
 21
129.731
 31
0.0
  0
LINE
  8
0
 62
     0
 10
0.574643
 20
129.731
 30
0.0
 11
0.680752
 21
129.847
 31
0.0
  0
LINE
  8
0
 62
     0
 10
0.680752
 20
129.847
 30
0.0
 11
0.796505
 21
129.953
 31
0.0
  0
LINE
  8
0
 62
     0
 10
0.796505
 20
129.953
 30
0.0
 11
0.919152
 21
130.051
 31
0.0
  0
LINE
  8
0
 62
     0
 10
0.919152
 20
130.051
 30
0.0
 11
1.05006
 21
130.138
 31
0.0
  0
LINE
  8
0
 62
     0
 10
1.05006
 20
130.138
 30
0.0
 11
1.18787
 21
130.215
 31
0.0
  0
LINE
  8
0
 62
     0
 10
1.18787
 20
130.215
 30
0.0
 11
1.32981
 21
130.28
 31
0.0
  0
LINE
  8
0
 62
     0
 10
1.32981
 20
130.28
 30
0.0
 11
1.47588
 21
130.335
 31
0.0
  0
LINE
  8
0
 62
     0
 10
1.47588
 20
130.335
 30
0.0
 11
1.62884
 21
130.377
 31
0.0
  0
LINE
  8
0
 62
     0
 10
1.62884
 20
130.377
 30
0.0
 11
1.7818
 21
130.408
 31
0.0
  0
LINE
  8
0
 62
     0
 10
1.7818
 20
130.408
 30
0.0
 11
1.9389
 21
130.426
 31
0.0
  0
LINE
  8
0
 62
     0
 10
1.9389
 20
130.426
 30
0.0
 11
2.096
 21
130.433
 31
0.0
  0
LINE
  8
0
 62
     0
 10
2.096
 20
130.433
 30
0.0
 11
20.2572
 21
130.433
 31
0.0
  0
LINE
  8
0
 62
     0
 10
20.2572
 20
130.433
 30
0.0
 11
20.2572
 21
122.432
 31
0.0
  0
LINE
  8
0
 62
     0
 10
3.63114
 20
5.55763
 30
0.0
 11
3.21359
 21
5.34681
 31
0.0
  0
LINE
  8
0
 62
     0
 10
3.21359
 20
5.34681
 30
0.0
 11
2.88148
 21
5.01329
 31
0.0
  0
LINE
  8
0
 62
     0
 10
2.88148
 20
5.01329
 30
0.0
 11
2.66788
 21
4.59574
 31
0.0
  0
LINE
  8
0
 62
     0
 10
2.66788
 20
4.59574
 30
0.0
 11
2.59485
 21
4.13135
 31
0.0
  0
LINE
  8
0
 62
     0
 10
2.59485
 20
4.13135
 30
0.0
 11
2.66788
 21
3.66832
 31
0.0
  0
LINE
  8
0
 62
     0
 10
2.66788
 20
3.66832
 30
0.0
 11
2.88148
 21
3.25079
 31
0.0
  0
LINE
  8
0
 62
     0
 10
2.88148
 20
3.25079
 30
0.0
 11
3.21359
 21
2.91869
 31
0.0
  0
LINE
  8
0
 62
     0
 10
3.21359
 20
2.91869
 30
0.0
 11
3.63114
 21
2.70509
 31
0.0
  0
LINE
  8
0
 62
     0
 10
3.63114
 20
2.70509
 30
0.0
 11
4.09554
 21
2.63067
 31
0.0
  0
LINE
  8
0
 62
     0
 10
4.09554
 20
2.63067
 30
0.0
 11
4.55856
 21
2.70509
 31
0.0
  0
LINE
  8
0
 62
     0
 10
4.55856
 20
2.70509
 30
0.0
 11
4.97611
 21
2.91869
 31
0.0
  0
LINE
  8
0
 62
     0
 10
4.97611
 20
2.91869
 30
0.0
 11
5.30821
 21
3.25079
 31
0.0
  0
LINE
  8
0
 62
     0
 10
5.30821
 20
3.25079
 30
0.0
 11
5.52178
 21
3.66832
 31
0.0
  0
LINE
  8
0
 62
     0
 10
5.52178
 20
3.66832
 30
0.0
 11
5.59484
 21
4.13135
 31
0.0
  0
LINE
  8
0
 62
     0
 10
5.59484
 20
4.13135
 30
0.0
 11
5.52178
 21
4.59574
 31
0.0
  0
LINE
  8
0
 62
     0
 10
5.52178
 20
4.59574
 30
0.0
 11
5.30821
 21
5.01329
 31
0.0
  0
LINE
  8
0
 62
     0
 10
5.30821
 20
5.01329
 30
0.0
 11
4.97611
 21
5.34681
 31
0.0
  0
LINE
  8
0
 62
     0
 10
4.97611
 20
5.34681
 30
0.0
 11
4.55856
 21
5.55763
 31
0.0
  0
LINE
  8
0
 62
     0
 10
4.55856
 20
5.55763
 30
0.0
 11
4.09554
 21
5.63203
 31
0.0
  0
LINE
  8
0
 62
     0
 10
4.09554
 20
5.63203
 30
0.0
 11
3.63114
 21
5.55763
 31
0.0
  0
LINE
  8
0
 62
     0
 10
84.2119
 20
5.55763
 30
0.0
 11
83.7942
 21
5.34681
 31
0.0
  0
LINE
  8
0
 62
     0
 10
83.7942
 20
5.34681
 30
0.0
 11
83.4623
 21
5.01329
 31
0.0
  0
LINE
  8
0
 62
     0
 10
83.4623
 20
5.01329
 30
0.0
 11
83.2499
 21
4.59574
 31
0.0
  0
LINE
  8
0
 62
     0
 10
83.2499
 20
4.59574
 30
0.0
 11
83.1769
 21
4.13135
 31
0.0
  0
LINE
  8
0
 62
     0
 10
83.1769
 20
4.13135
 30
0.0
 11
83.2499
 21
3.66832
 31
0.0
  0
LINE
  8
0
 62
     0
 10
83.2499
 20
3.66832
 30
0.0
 11
83.4623
 21
3.25079
 31
0.0
  0
LINE
  8
0
 62
     0
 10
83.4623
 20
3.25079
 30
0.0
 11
83.7942
 21
2.91869
 31
0.0
  0
LINE
  8
0
 62
     0
 10
83.7942
 20
2.91869
 30
0.0
 11
84.2119
 21
2.70509
 31
0.0
  0
LINE
  8
0
 62
     0
 10
84.2119
 20
2.70509
 30
0.0
 11
84.6762
 21
2.63067
 31
0.0
  0
LINE
  8
0
 62
     0
 10
84.6762
 20
2.63067
 30
0.0
 11
85.1408
 21
2.70509
 31
0.0
  0
LINE
  8
0
 62
     0
 10
85.1408
 20
2.70509
 30
0.0
 11
85.5581
 21
2.91869
 31
0.0
  0
LINE
  8
0
 62
     0
 10
85.5581
 20
2.91869
 30
0.0
 11
85.8905
 21
3.25079
 31
0.0
  0
LINE
  8
0
 62
     0
 10
85.8905
 20
3.25079
 30
0.0
 11
86.1039
 21
3.66832
 31
0.0
  0
LINE
  8
0
 62
     0
 10
86.1039
 20
3.66832
 30
0.0
 11
86.1769
 21
4.13135
 31
0.0
  0
LINE
  8
0
 62
     0
 10
86.1769
 20
4.13135
 30
0.0
 11
86.1039
 21
4.59574
 31
0.0
  0
LINE
  8
0
 62
     0
 10
86.1039
 20
4.59574
 30
0.0
 11
85.8905
 21
5.01329
 31
0.0
  0
LINE
  8
0
 62
     0
 10
85.8905
 20
5.01329
 30
0.0
 11
85.5581
 21
5.34681
 31
0.0
  0
LINE
  8
0
 62
     0
 10
85.5581
 20
5.34681
 30
0.0
 11
85.1408
 21
5.55763
 31
0.0
  0
LINE
  8
0
 62
     0
 10
85.1408
 20
5.55763
 30
0.0
 11
84.6762
 21
5.63203
 31
0.0
  0
LINE
  8
0
 62
     0
 10
84.6762
 20
5.63203
 30
0.0
 11
84.2119
 21
5.55763
 31
0.0
  0
LINE
  8
0
 62
     0
 10
164.794
 20
5.55763
 30
0.0
 11
164.376
 21
5.34681
 31
0.0
  0
LINE
  8
0
 62
     0
 10
164.376
 20
5.34681
 30
0.0
 11
164.044
 21
5.01329
 31
0.0
  0
LINE
  8
0
 62
     0
 10
164.044
 20
5.01329
 30
0.0
 11
163.831
 21
4.59574
 31
0.0
  0
LINE
  8
0
 62
     0
 10
163.831
 20
4.59574
 30
0.0
 11
163.759
 21
4.13135
 31
0.0
  0
LINE
  8
0
 62
     0
 10
163.759
 20
4.13135
 30
0.0
 11
163.831
 21
3.66832
 31
0.0
  0
LINE
  8
0
 62
     0
 10
163.831
 20
3.66832
 30
0.0
 11
164.044
 21
3.25079
 31
0.0
  0
LINE
  8
0
 62
     0
 10
164.044
 20
3.25079
 30
0.0
 11
164.376
 21
2.91869
 31
0.0
  0
LINE
  8
0
 62
     0
 10
164.376
 20
2.91869
 30
0.0
 11
164.794
 21
2.70509
 31
0.0
  0
LINE
  8
0
 62
     0
 10
164.794
 20
2.70509
 30
0.0
 11
165.258
 21
2.63067
 31
0.0
  0
LINE
  8
0
 62
     0
 10
165.258
 20
2.63067
 30
0.0
 11
165.722
 21
2.70509
 31
0.0
  0
LINE
  8
0
 62
     0
 10
165.722
 20
2.70509
 30
0.0
 11
166.139
 21
2.91869
 31
0.0
  0
LINE
  8
0
 62
     0
 10
166.139
 20
2.91869
 30
0.0
 11
166.471
 21
3.25079
 31
0.0
  0
LINE
  8
0
 62
     0
 10
166.471
 20
3.25079
 30
0.0
 11
166.685
 21
3.66832
 31
0.0
  0
LINE
  8
0
 62
     0
 10
166.685
 20
3.66832
 30
0.0
 11
166.759
 21
4.13135
 31
0.0
  0
LINE
  8
0
 62
     0
 10
166.759
 20
4.13135
 30
0.0
 11
166.685
 21
4.59574
 31
0.0
  0
LINE
  8
0
 62
     0
 10
166.685
 20
4.59574
 30
0.0
 11
166.471
 21
5.01329
 31
0.0
  0
LINE
  8
0
 62
     0
 10
166.471
 20
5.01329
 30
0.0
 11
166.139
 21
5.34681
 31
0.0
  0
LINE
  8
0
 62
     0
 10
166.139
 20
5.34681
 30
0.0
 11
165.722
 21
5.55763
 31
0.0
  0
LINE
  8
0
 62
     0
 10
165.722
 20
5.55763
 30
0.0
 11
165.258
 21
5.63203
 31
0.0
  0
LINE
  8
0
 62
     0
 10
165.258
 20
5.63203
 30
0.0
 11
164.794
 21
5.55763
 31
0.0
  0
LINE
  8
0
 62
     0
 10
245.375
 20
5.55763
 30
0.0
 11
244.957
 21
5.34681
 31
0.0
  0
LINE
  8
0
 62
     0
 10
244.957
 20
5.34681
 30
0.0
 11
244.625
 21
5.01329
 31
0.0
  0
LINE
  8
0
 62
     0
 10
244.625
 20
5.01329
 30
0.0
 11
244.413
 21
4.59574
 31
0.0
  0
LINE
  8
0
 62
     0
 10
244.413
 20
4.59574
 30
0.0
 11
244.34
 21
4.13135
 31
0.0
  0
LINE
  8
0
 62
     0
 10
244.34
 20
4.13135
 30
0.0
 11
244.413
 21
3.66832
 31
0.0
  0
LINE
  8
0
 62
     0
 10
244.413
 20
3.66832
 30
0.0
 11
244.625
 21
3.25079
 31
0.0
  0
LINE
  8
0
 62
     0
 10
244.625
 20
3.25079
 30
0.0
 11
244.957
 21
2.91869
 31
0.0
  0
LINE
  8
0
 62
     0
 10
244.957
 20
2.91869
 30
0.0
 11
245.375
 21
2.70509
 31
0.0
  0
LINE
  8
0
 62
     0
 10
245.375
 20
2.70509
 30
0.0
 11
245.839
 21
2.63067
 31
0.0
  0
LINE
  8
0
 62
     0
 10
245.839
 20
2.63067
 30
0.0
 11
246.304
 21
2.70509
 31
0.0
  0
LINE
  8
0
 62
     0
 10
246.304
 20
2.70509
 30
0.0
 11
246.721
 21
2.91869
 31
0.0
  0
LINE
  8
0
 62
     0
 10
246.721
 20
2.91869
 30
0.0
 11
247.053
 21
3.25079
 31
0.0
  0
LINE
  8
0
 62
     0
 10
247.053
 20
3.25079
 30
0.0
 11
247.267
 21
3.66832
 31
0.0
  0
LINE
  8
0
 62
     0
 10
247.267
 20
3.66832
 30
0.0
 11
247.34
 21
4.13135
 31
0.0
  0
LINE
  8
0
 62
     0
 10
247.34
 20
4.13135
 30
0.0
 11
247.267
 21
4.59574
 31
0.0
  0
LINE
  8
0
 62
     0
 10
247.267
 20
4.59574
 30
0.0
 11
247.053
 21
5.01329
 31
0.0
  0
LINE
  8
0
 62
     0
 10
247.053
 20
5.01329
 30
0.0
 11
246.721
 21
5.34681
 31
0.0
  0
LINE
  8
0
 62
     0
 10
246.721
 20
5.34681
 30
0.0
 11
246.304
 21
5.55763
 31
0.0
  0
LINE
  8
0
 62
     0
 10
246.304
 20
5.55763
 30
0.0
 11
245.839
 21
5.63203
 31
0.0
  0
LINE
  8
0
 62
     0
 10
245.839
 20
5.63203
 30
0.0
 11
245.375
 21
5.55763
 31
0.0
  0
LINE
  8
0
 62
     0
 10
325.957
 20
5.55763
 30
0.0
 11
325.539
 21
5.34681
 31
0.0
  0
LINE
  8
0
 62
     0
 10
325.539
 20
5.34681
 30
0.0
 11
325.207
 21
5.01329
 31
0.0
  0
LINE
  8
0
 62
     0
 10
325.207
 20
5.01329
 30
0.0
 11
324.995
 21
4.59574
 31
0.0
  0
LINE
  8
0
 62
     0
 10
324.995
 20
4.59574
 30
0.0
 11
324.922
 21
4.13135
 31
0.0
  0
LINE
  8
0
 62
     0
 10
324.922
 20
4.13135
 30
0.0
 11
324.995
 21
3.66832
 31
0.0
  0
LINE
  8
0
 62
     0
 10
324.995
 20
3.66832
 30
0.0
 11
325.207
 21
3.25079
 31
0.0
  0
LINE
  8
0
 62
     0
 10
325.207
 20
3.25079
 30
0.0
 11
325.539
 21
2.91869
 31
0.0
  0
LINE
  8
0
 62
     0
 10
325.539
 20
2.91869
 30
0.0
 11
325.957
 21
2.70509
 31
0.0
  0
LINE
  8
0
 62
     0
 10
325.957
 20
2.70509
 30
0.0
 11
326.421
 21
2.63067
 31
0.0
  0
LINE
  8
0
 62
     0
 10
326.421
 20
2.63067
 30
0.0
 11
326.885
 21
2.70509
 31
0.0
  0
LINE
  8
0
 62
     0
 10
326.885
 20
2.70509
 30
0.0
 11
327.302
 21
2.91869
 31
0.0
  0
LINE
  8
0
 62
     0
 10
327.302
 20
2.91869
 30
0.0
 11
327.634
 21
3.25079
 31
0.0
  0
LINE
  8
0
 62
     0
 10
327.634
 20
3.25079
 30
0.0
 11
327.848
 21
3.66832
 31
0.0
  0
LINE
  8
0
 62
     0
 10
327.848
 20
3.66832
 30
0.0
 11
327.922
 21
4.13135
 31
0.0
  0
LINE
  8
0
 62
     0
 10
327.922
 20
4.13135
 30
0.0
 11
327.848
 21
4.59574
 31
0.0
  0
LINE
  8
0
 62
     0
 10
327.848
 20
4.59574
 30
0.0
 11
327.634
 21
5.01329
 31
0.0
  0
LINE
  8
0
 62
     0
 10
327.634
 20
5.01329
 30
0.0
 11
327.302
 21
5.34681
 31
0.0
  0
LINE
  8
0
 62
     0
 10
327.302
 20
5.34681
 30
0.0
 11
326.885
 21
5.55763
 31
0.0
  0
LINE
  8
0
 62
     0
 10
326.885
 20
5.55763
 30
0.0
 11
326.421
 21
5.63203
 31
0.0
  0
LINE
  8
0
 62
     0
 10
326.421
 20
5.63203
 30
0.0
 11
325.957
 21
5.55763
 31
0.0
  0
LINE
  8
0
 62
     0
 10
3.63114
 20
66.7096
 30
0.0
 11
3.21359
 21
66.4958
 31
0.0
  0
LINE
  8
0
 62
     0
 10
3.21359
 20
66.4958
 30
0.0
 11
2.88148
 21
66.1638
 31
0.0
  0
LINE
  8
0
 62
     0
 10
2.88148
 20
66.1638
 30
0.0
 11
2.66788
 21
65.7461
 31
0.0
  0
LINE
  8
0
 62
     0
 10
2.66788
 20
65.7461
 30
0.0
 11
2.59485
 21
65.2819
 31
0.0
  0
LINE
  8
0
 62
     0
 10
2.59485
 20
65.2819
 30
0.0
 11
2.66788
 21
64.8187
 31
0.0
  0
LINE
  8
0
 62
     0
 10
2.66788
 20
64.8187
 30
0.0
 11
2.88148
 21
64.3999
 31
0.0
  0
LINE
  8
0
 62
     0
 10
2.88148
 20
64.3999
 30
0.0
 11
3.21359
 21
64.0676
 31
0.0
  0
LINE
  8
0
 62
     0
 10
3.21359
 20
64.0676
 30
0.0
 11
3.63114
 21
63.8556
 31
0.0
  0
LINE
  8
0
 62
     0
 10
3.63114
 20
63.8556
 30
0.0
 11
4.09554
 21
63.7826
 31
0.0
  0
LINE
  8
0
 62
     0
 10
4.09554
 20
63.7826
 30
0.0
 11
4.55856
 21
63.8556
 31
0.0
  0
LINE
  8
0
 62
     0
 10
4.55856
 20
63.8556
 30
0.0
 11
4.97611
 21
64.0676
 31
0.0
  0
LINE
  8
0
 62
     0
 10
4.97611
 20
64.0676
 30
0.0
 11
5.30821
 21
64.3999
 31
0.0
  0
LINE
  8
0
 62
     0
 10
5.30821
 20
64.3999
 30
0.0
 11
5.52178
 21
64.8187
 31
0.0
  0
LINE
  8
0
 62
     0
 10
5.52178
 20
64.8187
 30
0.0
 11
5.59484
 21
65.2819
 31
0.0
  0
LINE
  8
0
 62
     0
 10
5.59484
 20
65.2819
 30
0.0
 11
5.52178
 21
65.7461
 31
0.0
  0
LINE
  8
0
 62
     0
 10
5.52178
 20
65.7461
 30
0.0
 11
5.30821
 21
66.1638
 31
0.0
  0
LINE
  8
0
 62
     0
 10
5.30821
 20
66.1638
 30
0.0
 11
4.97611
 21
66.4958
 31
0.0
  0
LINE
  8
0
 62
     0
 10
4.97611
 20
66.4958
 30
0.0
 11
4.55856
 21
66.7096
 31
0.0
  0
LINE
  8
0
 62
     0
 10
4.55856
 20
66.7096
 30
0.0
 11
4.09554
 21
66.7826
 31
0.0
  0
LINE
  8
0
 62
     0
 10
4.09554
 20
66.7826
 30
0.0
 11
3.63114
 21
66.7096
 31
0.0
  0
LINE
  8
0
 62
     0
 10
325.957
 20
66.7096
 30
0.0
 11
325.539
 21
66.4958
 31
0.0
  0
LINE
  8
0
 62
     0
 10
325.539
 20
66.4958
 30
0.0
 11
325.207
 21
66.1638
 31
0.0
  0
LINE
  8
0
 62
     0
 10
325.207
 20
66.1638
 30
0.0
 11
324.995
 21
65.7461
 31
0.0
  0
LINE
  8
0
 62
     0
 10
324.995
 20
65.7461
 30
0.0
 11
324.922
 21
65.2819
 31
0.0
  0
LINE
  8
0
 62
     0
 10
324.922
 20
65.2819
 30
0.0
 11
324.995
 21
64.8187
 31
0.0
  0
LINE
  8
0
 62
     0
 10
324.995
 20
64.8187
 30
0.0
 11
325.207
 21
64.3999
 31
0.0
  0
LINE
  8
0
 62
     0
 10
325.207
 20
64.3999
 30
0.0
 11
325.539
 21
64.0676
 31
0.0
  0
LINE
  8
0
 62
     0
 10
325.539
 20
64.0676
 30
0.0
 11
325.957
 21
63.8556
 31
0.0
  0
LINE
  8
0
 62
     0
 10
325.957
 20
63.8556
 30
0.0
 11
326.421
 21
63.7826
 31
0.0
  0
LINE
  8
0
 62
     0
 10
326.421
 20
63.7826
 30
0.0
 11
326.885
 21
63.8556
 31
0.0
  0
LINE
  8
0
 62
     0
 10
326.885
 20
63.8556
 30
0.0
 11
327.302
 21
64.0676
 31
0.0
  0
LINE
  8
0
 62
     0
 10
327.302
 20
64.0676
 30
0.0
 11
327.634
 21
64.3999
 31
0.0
  0
LINE
  8
0
 62
     0
 10
327.634
 20
64.3999
 30
0.0
 11
327.848
 21
64.8187
 31
0.0
  0
LINE
  8
0
 62
     0
 10
327.848
 20
64.8187
 30
0.0
 11
327.922
 21
65.2819
 31
0.0
  0
LINE
  8
0
 62
     0
 10
327.922
 20
65.2819
 30
0.0
 11
327.848
 21
65.7461
 31
0.0
  0
LINE
  8
0
 62
     0
 10
327.848
 20
65.7461
 30
0.0
 11
327.634
 21
66.1638
 31
0.0
  0
LINE
  8
0
 62
     0
 10
327.634
 20
66.1638
 30
0.0
 11
327.302
 21
66.4958
 31
0.0
  0
LINE
  8
0
 62
     0
 10
327.302
 20
66.4958
 30
0.0
 11
326.885
 21
66.7096
 31
0.0
  0
LINE
  8
0
 62
     0
 10
326.885
 20
66.7096
 30
0.0
 11
326.421
 21
66.7826
 31
0.0
  0
LINE
  8
0
 62
     0
 10
326.421
 20
66.7826
 30
0.0
 11
325.957
 21
66.7096
 31
0.0
  0
LINE
  8
0
 62
     0
 10
3.63114
 20
127.86
 30
0.0
 11
3.21359
 21
127.646
 31
0.0
  0
LINE
  8
0
 62
     0
 10
3.21359
 20
127.646
 30
0.0
 11
2.88148
 21
127.314
 31
0.0
  0
LINE
  8
0
 62
     0
 10
2.88148
 20
127.314
 30
0.0
 11
2.66788
 21
126.897
 31
0.0
  0
LINE
  8
0
 62
     0
 10
2.66788
 20
126.897
 30
0.0
 11
2.59485
 21
126.432
 31
0.0
  0
LINE
  8
0
 62
     0
 10
2.59485
 20
126.432
 30
0.0
 11
2.66788
 21
125.969
 31
0.0
  0
LINE
  8
0
 62
     0
 10
2.66788
 20
125.969
 30
0.0
 11
2.88148
 21
125.552
 31
0.0
  0
LINE
  8
0
 62
     0
 10
2.88148
 20
125.552
 30
0.0
 11
3.21359
 21
125.22
 31
0.0
  0
LINE
  8
0
 62
     0
 10
3.21359
 20
125.22
 30
0.0
 11
3.63114
 21
125.006
 31
0.0
  0
LINE
  8
0
 62
     0
 10
3.63114
 20
125.006
 30
0.0
 11
4.09554
 21
124.933
 31
0.0
  0
LINE
  8
0
 62
     0
 10
4.09554
 20
124.933
 30
0.0
 11
4.55856
 21
125.006
 31
0.0
  0
LINE
  8
0
 62
     0
 10
4.55856
 20
125.006
 30
0.0
 11
4.97611
 21
125.22
 31
0.0
  0
LINE
  8
0
 62
     0
 10
4.97611
 20
125.22
 30
0.0
 11
5.30821
 21
125.552
 31
0.0
  0
LINE
  8
0
 62
     0
 10
5.30821
 20
125.552
 30
0.0
 11
5.52178
 21
125.969
 31
0.0
  0
LINE
  8
0
 62
     0
 10
5.52178
 20
125.969
 30
0.0
 11
5.59484
 21
126.432
 31
0.0
  0
LINE
  8
0
 62
     0
 10
5.59484
 20
126.432
 30
0.0
 11
5.52178
 21
126.897
 31
0.0
  0
LINE
  8
0
 62
     0
 10
5.52178
 20
126.897
 30
0.0
 11
5.30821
 21
127.314
 31
0.0
  0
LINE
  8
0
 62
     0
 10
5.30821
 20
127.314
 30
0.0
 11
4.97611
 21
127.646
 31
0.0
  0
LINE
  8
0
 62
     0
 10
4.97611
 20
127.646
 30
0.0
 11
4.55856
 21
127.86
 31
0.0
  0
LINE
  8
0
 62
     0
 10
4.55856
 20
127.86
 30
0.0
 11
4.09554
 21
127.933
 31
0.0
  0
LINE
  8
0
 62
     0
 10
4.09554
 20
127.933
 30
0.0
 11
3.63114
 21
127.86
 31
0.0
  0
LINE
  8
0
 62
     0
 10
325.957
 20
127.86
 30
0.0
 11
325.539
 21
127.646
 31
0.0
  0
LINE
  8
0
 62
     0
 10
325.539
 20
127.646
 30
0.0
 11
325.207
 21
127.314
 31
0.0
  0
LINE
  8
0
 62
     0
 10
325.207
 20
127.314
 30
0.0
 11
324.995
 21
126.897
 31
0.0
  0
LINE
  8
0
 62
     0
 10
324.995
 20
126.897
 30
0.0
 11
324.922
 21
126.432
 31
0.0
  0
LINE
  8
0
 62
     0
 10
324.922
 20
126.432
 30
0.0
 11
324.995
 21
125.969
 31
0.0
  0
LINE
  8
0
 62
     0
 10
324.995
 20
125.969
 30
0.0
 11
325.207
 21
125.552
 31
0.0
  0
LINE
  8
0
 62
     0
 10
325.207
 20
125.552
 30
0.0
 11
325.539
 21
125.22
 31
0.0
  0
LINE
  8
0
 62
     0
 10
325.539
 20
125.22
 30
0.0
 11
325.957
 21
125.006
 31
0.0
  0
LINE
  8
0
 62
     0
 10
325.957
 20
125.006
 30
0.0
 11
326.421
 21
124.933
 31
0.0
  0
LINE
  8
0
 62
     0
 10
326.421
 20
124.933
 30
0.0
 11
326.885
 21
125.006
 31
0.0
  0
LINE
  8
0
 62
     0
 10
326.885
 20
125.006
 30
0.0
 11
327.302
 21
125.22
 31
0.0
  0
LINE
  8
0
 62
     0
 10
327.302
 20
125.22
 30
0.0
 11
327.634
 21
125.552
 31
0.0
  0
LINE
  8
0
 62
     0
 10
327.634
 20
125.552
 30
0.0
 11
327.848
 21
125.969
 31
0.0
  0
LINE
  8
0
 62
     0
 10
327.848
 20
125.969
 30
0.0
 11
327.922
 21
126.432
 31
0.0
  0
LINE
  8
0
 62
     0
 10
327.922
 20
126.432
 30
0.0
 11
327.848
 21
126.897
 31
0.0
  0
LINE
  8
0
 62
     0
 10
327.848
 20
126.897
 30
0.0
 11
327.634
 21
127.314
 31
0.0
  0
LINE
  8
0
 62
     0
 10
327.634
 20
127.314
 30
0.0
 11
327.302
 21
127.646
 31
0.0
  0
LINE
  8
0
 62
     0
 10
327.302
 20
127.646
 30
0.0
 11
326.885
 21
127.86
 31
0.0
  0
LINE
  8
0
 62
     0
 10
326.885
 20
127.86
 30
0.0
 11
326.421
 21
127.933
 31
0.0
  0
LINE
  8
0
 62
     0
 10
326.421
 20
127.933
 30
0.0
 11
325.957
 21
127.86
 31
0.0
  0
LINE
  8
0
 62
     0
 10
245.375
 20
127.86
 30
0.0
 11
244.957
 21
127.646
 31
0.0
  0
LINE
  8
0
 62
     0
 10
244.957
 20
127.646
 30
0.0
 11
244.625
 21
127.314
 31
0.0
  0
LINE
  8
0
 62
     0
 10
244.625
 20
127.314
 30
0.0
 11
244.413
 21
126.897
 31
0.0
  0
LINE
  8
0
 62
     0
 10
244.413
 20
126.897
 30
0.0
 11
244.34
 21
126.432
 31
0.0
  0
LINE
  8
0
 62
     0
 10
244.34
 20
126.432
 30
0.0
 11
244.413
 21
125.969
 31
0.0
  0
LINE
  8
0
 62
     0
 10
244.413
 20
125.969
 30
0.0
 11
244.625
 21
125.552
 31
0.0
  0
LINE
  8
0
 62
     0
 10
244.625
 20
125.552
 30
0.0
 11
244.957
 21
125.22
 31
0.0
  0
LINE
  8
0
 62
     0
 10
244.957
 20
125.22
 30
0.0
 11
245.375
 21
125.006
 31
0.0
  0
LINE
  8
0
 62
     0
 10
245.375
 20
125.006
 30
0.0
 11
245.839
 21
124.933
 31
0.0
  0
LINE
  8
0
 62
     0
 10
245.839
 20
124.933
 30
0.0
 11
246.304
 21
125.006
 31
0.0
  0
LINE
  8
0
 62
     0
 10
246.304
 20
125.006
 30
0.0
 11
246.721
 21
125.22
 31
0.0
  0
LINE
  8
0
 62
     0
 10
246.721
 20
125.22
 30
0.0
 11
247.053
 21
125.552
 31
0.0
  0
LINE
  8
0
 62
     0
 10
247.053
 20
125.552
 30
0.0
 11
247.267
 21
125.969
 31
0.0
  0
LINE
  8
0
 62
     0
 10
247.267
 20
125.969
 30
0.0
 11
247.34
 21
126.432
 31
0.0
  0
LINE
  8
0
 62
     0
 10
247.34
 20
126.432
 30
0.0
 11
247.267
 21
126.897
 31
0.0
  0
LINE
  8
0
 62
     0
 10
247.267
 20
126.897
 30
0.0
 11
247.053
 21
127.314
 31
0.0
  0
LINE
  8
0
 62
     0
 10
247.053
 20
127.314
 30
0.0
 11
246.721
 21
127.646
 31
0.0
  0
LINE
  8
0
 62
     0
 10
246.721
 20
127.646
 30
0.0
 11
246.304
 21
127.86
 31
0.0
  0
LINE
  8
0
 62
     0
 10
246.304
 20
127.86
 30
0.0
 11
245.839
 21
127.933
 31
0.0
  0
LINE
  8
0
 62
     0
 10
245.839
 20
127.933
 30
0.0
 11
245.375
 21
127.86
 31
0.0
  0
LINE
  8
0
 62
     0
 10
164.794
 20
127.86
 30
0.0
 11
164.376
 21
127.646
 31
0.0
  0
LINE
  8
0
 62
     0
 10
164.376
 20
127.646
 30
0.0
 11
164.044
 21
127.314
 31
0.0
  0
LINE
  8
0
 62
     0
 10
164.044
 20
127.314
 30
0.0
 11
163.831
 21
126.897
 31
0.0
  0
LINE
  8
0
 62
     0
 10
163.831
 20
126.897
 30
0.0
 11
163.759
 21
126.432
 31
0.0
  0
LINE
  8
0
 62
     0
 10
163.759
 20
126.432
 30
0.0
 11
163.831
 21
125.969
 31
0.0
  0
LINE
  8
0
 62
     0
 10
163.831
 20
125.969
 30
0.0
 11
164.044
 21
125.552
 31
0.0
  0
LINE
  8
0
 62
     0
 10
164.044
 20
125.552
 30
0.0
 11
164.376
 21
125.22
 31
0.0
  0
LINE
  8
0
 62
     0
 10
164.376
 20
125.22
 30
0.0
 11
164.794
 21
125.006
 31
0.0
  0
LINE
  8
0
 62
     0
 10
164.794
 20
125.006
 30
0.0
 11
165.258
 21
124.933
 31
0.0
  0
LINE
  8
0
 62
     0
 10
165.258
 20
124.933
 30
0.0
 11
165.722
 21
125.006
 31
0.0
  0
LINE
  8
0
 62
     0
 10
165.722
 20
125.006
 30
0.0
 11
166.139
 21
125.22
 31
0.0
  0
LINE
  8
0
 62
     0
 10
166.139
 20
125.22
 30
0.0
 11
166.471
 21
125.552
 31
0.0
  0
LINE
  8
0
 62
     0
 10
166.471
 20
125.552
 30
0.0
 11
166.685
 21
125.969
 31
0.0
  0
LINE
  8
0
 62
     0
 10
166.685
 20
125.969
 30
0.0
 11
166.759
 21
126.432
 31
0.0
  0
LINE
  8
0
 62
     0
 10
166.759
 20
126.432
 30
0.0
 11
166.685
 21
126.897
 31
0.0
  0
LINE
  8
0
 62
     0
 10
166.685
 20
126.897
 30
0.0
 11
166.471
 21
127.314
 31
0.0
  0
LINE
  8
0
 62
     0
 10
166.471
 20
127.314
 30
0.0
 11
166.139
 21
127.646
 31
0.0
  0
LINE
  8
0
 62
     0
 10
166.139
 20
127.646
 30
0.0
 11
165.722
 21
127.86
 31
0.0
  0
LINE
  8
0
 62
     0
 10
165.722
 20
127.86
 30
0.0
 11
165.258
 21
127.933
 31
0.0
  0
LINE
  8
0
 62
     0
 10
165.258
 20
127.933
 30
0.0
 11
164.794
 21
127.86
 31
0.0
  0
LINE
  8
0
 62
     0
 10
84.2119
 20
127.86
 30
0.0
 11
83.7942
 21
127.646
 31
0.0
  0
LINE
  8
0
 62
     0
 10
83.7942
 20
127.646
 30
0.0
 11
83.4623
 21
127.314
 31
0.0
  0
LINE
  8
0
 62
     0
 10
83.4623
 20
127.314
 30
0.0
 11
83.2499
 21
126.897
 31
0.0
  0
LINE
  8
0
 62
     0
 10
83.2499
 20
126.897
 30
0.0
 11
83.1769
 21
126.432
 31
0.0
  0
LINE
  8
0
 62
     0
 10
83.1769
 20
126.432
 30
0.0
 11
83.2499
 21
125.969
 31
0.0
  0
LINE
  8
0
 62
     0
 10
83.2499
 20
125.969
 30
0.0
 11
83.4623
 21
125.552
 31
0.0
  0
LINE
  8
0
 62
     0
 10
83.4623
 20
125.552
 30
0.0
 11
83.7942
 21
125.22
 31
0.0
  0
LINE
  8
0
 62
     0
 10
83.7942
 20
125.22
 30
0.0
 11
84.2119
 21
125.006
 31
0.0
  0
LINE
  8
0
 62
     0
 10
84.2119
 20
125.006
 30
0.0
 11
84.6762
 21
124.933
 31
0.0
  0
LINE
  8
0
 62
     0
 10
84.6762
 20
124.933
 30
0.0
 11
85.1408
 21
125.006
 31
0.0
  0
LINE
  8
0
 62
     0
 10
85.1408
 20
125.006
 30
0.0
 11
85.5581
 21
125.22
 31
0.0
  0
LINE
  8
0
 62
     0
 10
85.5581
 20
125.22
 30
0.0
 11
85.8905
 21
125.552
 31
0.0
  0
LINE
  8
0
 62
     0
 10
85.8905
 20
125.552
 30
0.0
 11
86.1039
 21
125.969
 31
0.0
  0
LINE
  8
0
 62
     0
 10
86.1039
 20
125.969
 30
0.0
 11
86.1769
 21
126.432
 31
0.0
  0
LINE
  8
0
 62
     0
 10
86.1769
 20
126.432
 30
0.0
 11
86.1039
 21
126.897
 31
0.0
  0
LINE
  8
0
 62
     0
 10
86.1039
 20
126.897
 30
0.0
 11
85.8905
 21
127.314
 31
0.0
  0
LINE
  8
0
 62
     0
 10
85.8905
 20
127.314
 30
0.0
 11
85.5581
 21
127.646
 31
0.0
  0
LINE
  8
0
 62
     0
 10
85.5581
 20
127.646
 30
0.0
 11
85.1408
 21
127.86
 31
0.0
  0
LINE
  8
0
 62
     0
 10
85.1408
 20
127.86
 30
0.0
 11
84.6762
 21
127.933
 31
0.0
  0
LINE
  8
0
 62
     0
 10
84.6762
 20
127.933
 30
0.0
 11
84.2119
 21
127.86
 31
0.0
  0
ENDSEC
  0
EOF
