  0
SECTION
  2
HEADER
  9
$ACADVER
  1
AC1009
  9
$EXTMIN
 10
0.0
 20
0.0
 30
0.0
  9
$EXTMAX
 10
1000.0
 20
1000.0
 30
0.0
  9
$FILLMODE
 70
 0
  9
$SPLFRAME
 70
 1
  0
ENDSEC
  0
SECTION
  2
TABLES
  0
TABLE
  2
LAYER
 70
1
  0
LAYER
  2
0
 70
     0
 62
     7
  6
CONTINUOUS
  0
ENDTAB
  0
ENDSEC
  0
SECTION
  2
ENTITIES
  0
LINE
  8
0
 62
     0
 10
328.421
 20
130.433
 30
0.0
 11
328.578
 21
130.426
 31
0.0
  0
LINE
  8
0
 62
     0
 10
328.578
 20
130.426
 30
0.0
 11
328.734
 21
130.408
 31
0.0
  0
LINE
  8
0
 62
     0
 10
328.734
 20
130.408
 30
0.0
 11
328.888
 21
130.377
 31
0.0
  0
LINE
  8
0
 62
     0
 10
328.888
 20
130.377
 30
0.0
 11
329.04
 21
130.335
 31
0.0
  0
LINE
  8
0
 62
     0
 10
329.04
 20
130.335
 30
0.0
 11
329.187
 21
130.28
 31
0.0
  0
LINE
  8
0
 62
     0
 10
329.187
 20
130.28
 30
0.0
 11
329.329
 21
130.215
 31
0.0
  0
LINE
  8
0
 62
     0
 10
329.329
 20
130.215
 30
0.0
 11
329.466
 21
130.138
 31
0.0
  0
LINE
  8
0
 62
     0
 10
329.466
 20
130.138
 30
0.0
 11
329.596
 21
130.051
 31
0.0
  0
LINE
  8
0
 62
     0
 10
329.596
 20
130.051
 30
0.0
 11
329.719
 21
129.953
 31
0.0
  0
LINE
  8
0
 62
     0
 10
329.719
 20
129.953
 30
0.0
 11
329.835
 21
129.847
 31
0.0
  0
LINE
  8
0
 62
     0
 10
329.835
 20
129.847
 30
0.0
 11
329.941
 21
129.731
 31
0.0
  0
LINE
  8
0
 62
     0
 10
329.941
 20
129.731
 30
0.0
 11
330.04
 21
129.609
 31
0.0
  0
LINE
  8
0
 62
     0
 10
330.04
 20
129.609
 30
0.0
 11
330.127
 21
129.478
 31
0.0
  0
LINE
  8
0
 62
     0
 10
330.127
 20
129.478
 30
0.0
 11
330.204
 21
129.34
 31
0.0
  0
LINE
  8
0
 62
     0
 10
330.204
 20
129.34
 30
0.0
 11
330.269
 21
129.198
 31
0.0
  0
LINE
  8
0
 62
     0
 10
330.269
 20
129.198
 30
0.0
 11
330.324
 21
129.052
 31
0.0
  0
LINE
  8
0
 62
     0
 10
330.324
 20
129.052
 30
0.0
 11
330.365
 21
128.899
 31
0.0
  0
LINE
  8
0
 62
     0
 10
330.365
 20
128.899
 30
0.0
 11
330.397
 21
128.746
 31
0.0
  0
LINE
  8
0
 62
     0
 10
330.397
 20
128.746
 30
0.0
 11
330.415
 21
128.589
 31
0.0
  0
LINE
  8
0
 62
     0
 10
330.415
 20
128.589
 30
0.0
 11
330.422
 21
128.432
 31
0.0
  0
LINE
  8
0
 62
     0
 10
330.422
 20
128.432
 30
0.0
 11
330.422
 21
2.13183
 31
0.0
  0
LINE
  8
0
 62
     0
 10
330.422
 20
2.13183
 30
0.0
 11
330.415
 21
1.97473
 31
0.0
  0
LINE
  8
0
 62
     0
 10
330.415
 20
1.97473
 30
0.0
 11
330.397
 21
1.81901
 31
0.0
  0
LINE
  8
0
 62
     0
 10
330.397
 20
1.81901
 30
0.0
 11
330.365
 21
1.66467
 31
0.0
  0
LINE
  8
0
 62
     0
 10
330.365
 20
1.66467
 30
0.0
 11
330.324
 21
1.51309
 31
0.0
  0
LINE
  8
0
 62
     0
 10
330.324
 20
1.51309
 30
0.0
 11
330.269
 21
1.36563
 31
0.0
  0
LINE
  8
0
 62
     0
 10
330.269
 20
1.36563
 30
0.0
 11
330.204
 21
1.2237
 31
0.0
  0
LINE
  8
0
 62
     0
 10
330.204
 20
1.2237
 30
0.0
 11
330.127
 21
1.08727
 31
0.0
  0
LINE
  8
0
 62
     0
 10
330.127
 20
1.08727
 30
0.0
 11
330.04
 21
0.956359
 31
0.0
  0
LINE
  8
0
 62
     0
 10
330.04
 20
0.956359
 30
0.0
 11
329.941
 21
0.833713
 31
0.0
  0
LINE
  8
0
 62
     0
 10
329.941
 20
0.833713
 30
0.0
 11
329.835
 21
0.717959
 31
0.0
  0
LINE
  8
0
 62
     0
 10
329.835
 20
0.717959
 30
0.0
 11
329.719
 21
0.611851
 31
0.0
  0
LINE
  8
0
 62
     0
 10
329.719
 20
0.611851
 30
0.0
 11
329.596
 21
0.512632
 31
0.0
  0
LINE
  8
0
 62
     0
 10
329.596
 20
0.512632
 30
0.0
 11
329.466
 21
0.425813
 31
0.0
  0
LINE
  8
0
 62
     0
 10
329.466
 20
0.425813
 30
0.0
 11
329.329
 21
0.348644
 31
0.0
  0
LINE
  8
0
 62
     0
 10
329.329
 20
0.348644
 30
0.0
 11
329.187
 21
0.283876
 31
0.0
  0
LINE
  8
0
 62
     0
 10
329.187
 20
0.283876
 30
0.0
 11
329.04
 21
0.228755
 31
0.0
  0
LINE
  8
0
 62
     0
 10
329.04
 20
0.228755
 30
0.0
 11
328.888
 21
0.187413
 31
0.0
  0
LINE
  8
0
 62
     0
 10
328.888
 20
0.187413
 30
0.0
 11
328.734
 21
0.155718
 31
0.0
  0
LINE
  8
0
 62
     0
 10
328.734
 20
0.155718
 30
0.0
 11
328.578
 21
0.137804
 31
0.0
  0
LINE
  8
0
 62
     0
 10
328.578
 20
0.137804
 30
0.0
 11
328.421
 21
0.130914
 31
0.0
  0
LINE
  8
0
 62
     0
 10
328.421
 20
0.130914
 30
0.0
 11
2.096
 21
0.130914
 31
0.0
  0
LINE
  8
0
 62
     0
 10
2.096
 20
0.130914
 30
0.0
 11
1.9389
 21
0.137804
 31
0.0
  0
LINE
  8
0
 62
     0
 10
1.9389
 20
0.137804
 30
0.0
 11
1.7818
 21
0.155718
 31
0.0
  0
LINE
  8
0
 62
     0
 10
1.7818
 20
0.155718
 30
0.0
 11
1.62884
 21
0.187413
 31
0.0
  0
LINE
  8
0
 62
     0
 10
1.62884
 20
0.187413
 30
0.0
 11
1.47588
 21
0.228755
 31
0.0
  0
LINE
  8
0
 62
     0
 10
1.47588
 20
0.228755
 30
0.0
 11
1.32981
 21
0.283876
 31
0.0
  0
LINE
  8
0
 62
     0
 10
1.32981
 20
0.283876
 30
0.0
 11
1.18787
 21
0.348644
 31
0.0
  0
LINE
  8
0
 62
     0
 10
1.18787
 20
0.348644
 30
0.0
 11
1.05006
 21
0.425813
 31
0.0
  0
LINE
  8
0
 62
     0
 10
1.05006
 20
0.425813
 30
0.0
 11
0.919152
 21
0.512632
 31
0.0
  0
LINE
  8
0
 62
     0
 10
0.919152
 20
0.512632
 30
0.0
 11
0.796505
 21
0.611851
 31
0.0
  0
LINE
  8
0
 62
     0
 10
0.796505
 20
0.611851
 30
0.0
 11
0.680752
 21
0.717959
 31
0.0
  0
LINE
  8
0
 62
     0
 10
0.680752
 20
0.717959
 30
0.0
 11
0.574643
 21
0.833713
 31
0.0
  0
LINE
  8
0
 62
     0
 10
0.574643
 20
0.833713
 30
0.0
 11
0.4768
 21
0.956359
 31
0.0
  0
LINE
  8
0
 62
     0
 10
0.4768
 20
0.956359
 30
0.0
 11
0.389985
 21
1.08727
 31
0.0
  0
LINE
  8
0
 62
     0
 10
0.389985
 20
1.08727
 30
0.0
 11
0.312815
 21
1.2237
 31
0.0
  0
LINE
  8
0
 62
     0
 10
0.312815
 20
1.2237
 30
0.0
 11
0.248047
 21
1.36563
 31
0.0
  0
LINE
  8
0
 62
     0
 10
0.248047
 20
1.36563
 30
0.0
 11
0.192925
 21
1.51309
 31
0.0
  0
LINE
  8
0
 62
     0
 10
0.192925
 20
1.51309
 30
0.0
 11
0.150206
 21
1.66467
 31
0.0
  0
LINE
  8
0
 62
     0
 10
0.150206
 20
1.66467
 30
0.0
 11
0.119889
 21
1.81901
 31
0.0
  0
LINE
  8
0
 62
     0
 10
0.119889
 20
1.81901
 30
0.0
 11
0.101975
 21
1.97473
 31
0.0
  0
LINE
  8
0
 62
     0
 10
0.101975
 20
1.97473
 30
0.0
 11
0.0950846
 21
2.13183
 31
0.0
  0
LINE
  8
0
 62
     0
 10
0.0950846
 20
2.13183
 30
0.0
 11
0.0950846
 21
128.432
 31
0.0
  0
LINE
  8
0
 62
     0
 10
0.0950846
 20
128.432
 30
0.0
 11
0.101975
 21
128.589
 31
0.0
  0
LINE
  8
0
 62
     0
 10
0.101975
 20
128.589
 30
0.0
 11
0.119889
 21
128.746
 31
0.0
  0
LINE
  8
0
 62
     0
 10
0.119889
 20
128.746
 30
0.0
 11
0.150206
 21
128.899
 31
0.0
  0
LINE
  8
0
 62
     0
 10
0.150206
 20
128.899
 30
0.0
 11
0.192925
 21
129.052
 31
0.0
  0
LINE
  8
0
 62
     0
 10
0.192925
 20
129.052
 30
0.0
 11
0.248047
 21
129.198
 31
0.0
  0
LINE
  8
0
 62
     0
 10
0.248047
 20
129.198
 30
0.0
 11
0.312815
 21
129.34
 31
0.0
  0
LINE
  8
0
 62
     0
 10
0.312815
 20
129.34
 30
0.0
 11
0.389985
 21
129.478
 31
0.0
  0
LINE
  8
0
 62
     0
 10
0.389985
 20
129.478
 30
0.0
 11
0.4768
 21
129.609
 31
0.0
  0
LINE
  8
0
 62
     0
 10
0.4768
 20
129.609
 30
0.0
 11
0.574643
 21
129.731
 31
0.0
  0
LINE
  8
0
 62
     0
 10
0.574643
 20
129.731
 30
0.0
 11
0.680752
 21
129.847
 31
0.0
  0
LINE
  8
0
 62
     0
 10
0.680752
 20
129.847
 30
0.0
 11
0.796505
 21
129.953
 31
0.0
  0
LINE
  8
0
 62
     0
 10
0.796505
 20
129.953
 30
0.0
 11
0.919152
 21
130.051
 31
0.0
  0
LINE
  8
0
 62
     0
 10
0.919152
 20
130.051
 30
0.0
 11
1.05006
 21
130.138
 31
0.0
  0
LINE
  8
0
 62
     0
 10
1.05006
 20
130.138
 30
0.0
 11
1.18787
 21
130.215
 31
0.0
  0
LINE
  8
0
 62
     0
 10
1.18787
 20
130.215
 30
0.0
 11
1.32981
 21
130.28
 31
0.0
  0
LINE
  8
0
 62
     0
 10
1.32981
 20
130.28
 30
0.0
 11
1.47588
 21
130.335
 31
0.0
  0
LINE
  8
0
 62
     0
 10
1.47588
 20
130.335
 30
0.0
 11
1.62884
 21
130.377
 31
0.0
  0
LINE
  8
0
 62
     0
 10
1.62884
 20
130.377
 30
0.0
 11
1.7818
 21
130.408
 31
0.0
  0
LINE
  8
0
 62
     0
 10
1.7818
 20
130.408
 30
0.0
 11
1.9389
 21
130.426
 31
0.0
  0
LINE
  8
0
 62
     0
 10
1.9389
 20
130.426
 30
0.0
 11
2.096
 21
130.433
 31
0.0
  0
LINE
  8
0
 62
     0
 10
2.096
 20
130.433
 30
0.0
 11
328.421
 21
130.433
 31
0.0
  0
LINE
  8
0
 62
     0
 10
3.75514
 20
5.18005
 30
0.0
 11
3.44785
 21
5.02158
 31
0.0
  0
LINE
  8
0
 62
     0
 10
3.44785
 20
5.02158
 30
0.0
 11
3.20394
 21
4.77767
 31
0.0
  0
LINE
  8
0
 62
     0
 10
3.20394
 20
4.77767
 30
0.0
 11
3.04822
 21
4.47174
 31
0.0
  0
LINE
  8
0
 62
     0
 10
3.04822
 20
4.47174
 30
0.0
 11
2.99586
 21
4.13135
 31
0.0
  0
LINE
  8
0
 62
     0
 10
2.99586
 20
4.13135
 30
0.0
 11
3.04822
 21
3.79236
 31
0.0
  0
LINE
  8
0
 62
     0
 10
3.04822
 20
3.79236
 30
0.0
 11
3.20394
 21
3.48506
 31
0.0
  0
LINE
  8
0
 62
     0
 10
3.20394
 20
3.48506
 30
0.0
 11
3.44785
 21
3.24253
 31
0.0
  0
LINE
  8
0
 62
     0
 10
3.44785
 20
3.24253
 30
0.0
 11
3.75514
 21
3.08543
 31
0.0
  0
LINE
  8
0
 62
     0
 10
3.75514
 20
3.08543
 30
0.0
 11
4.09554
 21
3.03168
 31
0.0
  0
LINE
  8
0
 62
     0
 10
4.09554
 20
3.03168
 30
0.0
 11
4.43452
 21
3.08543
 31
0.0
  0
LINE
  8
0
 62
     0
 10
4.43452
 20
3.08543
 30
0.0
 11
4.74183
 21
3.24253
 31
0.0
  0
LINE
  8
0
 62
     0
 10
4.74183
 20
3.24253
 30
0.0
 11
4.98436
 21
3.48506
 31
0.0
  0
LINE
  8
0
 62
     0
 10
4.98436
 20
3.48506
 30
0.0
 11
5.14145
 21
3.79236
 31
0.0
  0
LINE
  8
0
 62
     0
 10
5.14145
 20
3.79236
 30
0.0
 11
5.19522
 21
4.13135
 31
0.0
  0
LINE
  8
0
 62
     0
 10
5.19522
 20
4.13135
 30
0.0
 11
5.14145
 21
4.47174
 31
0.0
  0
LINE
  8
0
 62
     0
 10
5.14145
 20
4.47174
 30
0.0
 11
4.98436
 21
4.77767
 31
0.0
  0
LINE
  8
0
 62
     0
 10
4.98436
 20
4.77767
 30
0.0
 11
4.74183
 21
5.02158
 31
0.0
  0
LINE
  8
0
 62
     0
 10
4.74183
 20
5.02158
 30
0.0
 11
4.43452
 21
5.18005
 31
0.0
  0
LINE
  8
0
 62
     0
 10
4.43452
 20
5.18005
 30
0.0
 11
4.09554
 21
5.23102
 31
0.0
  0
LINE
  8
0
 62
     0
 10
4.09554
 20
5.23102
 30
0.0
 11
3.75514
 21
5.18005
 31
0.0
  0
LINE
  8
0
 62
     0
 10
84.3361
 20
5.18005
 30
0.0
 11
84.0299
 21
5.02158
 31
0.0
  0
LINE
  8
0
 62
     0
 10
84.0299
 20
5.02158
 30
0.0
 11
83.7861
 21
4.77767
 31
0.0
  0
LINE
  8
0
 62
     0
 10
83.7861
 20
4.77767
 30
0.0
 11
83.6306
 21
4.47174
 31
0.0
  0
LINE
  8
0
 62
     0
 10
83.6306
 20
4.47174
 30
0.0
 11
83.5766
 21
4.13135
 31
0.0
  0
LINE
  8
0
 62
     0
 10
83.5766
 20
4.13135
 30
0.0
 11
83.6306
 21
3.79236
 31
0.0
  0
LINE
  8
0
 62
     0
 10
83.6306
 20
3.79236
 30
0.0
 11
83.7861
 21
3.48506
 31
0.0
  0
LINE
  8
0
 62
     0
 10
83.7861
 20
3.48506
 30
0.0
 11
84.0299
 21
3.24253
 31
0.0
  0
LINE
  8
0
 62
     0
 10
84.0299
 20
3.24253
 30
0.0
 11
84.3361
 21
3.08543
 31
0.0
  0
LINE
  8
0
 62
     0
 10
84.3361
 20
3.08543
 30
0.0
 11
84.6762
 21
3.03168
 31
0.0
  0
LINE
  8
0
 62
     0
 10
84.6762
 20
3.03168
 30
0.0
 11
85.0166
 21
3.08543
 31
0.0
  0
LINE
  8
0
 62
     0
 10
85.0166
 20
3.08543
 30
0.0
 11
85.3239
 21
3.24253
 31
0.0
  0
LINE
  8
0
 62
     0
 10
85.3239
 20
3.24253
 30
0.0
 11
85.5666
 21
3.48506
 31
0.0
  0
LINE
  8
0
 62
     0
 10
85.5666
 20
3.48506
 30
0.0
 11
85.7222
 21
3.79236
 31
0.0
  0
LINE
  8
0
 62
     0
 10
85.7222
 20
3.79236
 30
0.0
 11
85.7762
 21
4.13135
 31
0.0
  0
LINE
  8
0
 62
     0
 10
85.7762
 20
4.13135
 30
0.0
 11
85.7222
 21
4.47174
 31
0.0
  0
LINE
  8
0
 62
     0
 10
85.7222
 20
4.47174
 30
0.0
 11
85.5666
 21
4.77767
 31
0.0
  0
LINE
  8
0
 62
     0
 10
85.5666
 20
4.77767
 30
0.0
 11
85.3239
 21
5.02158
 31
0.0
  0
LINE
  8
0
 62
     0
 10
85.3239
 20
5.02158
 30
0.0
 11
85.0166
 21
5.18005
 31
0.0
  0
LINE
  8
0
 62
     0
 10
85.0166
 20
5.18005
 30
0.0
 11
84.6762
 21
5.23102
 31
0.0
  0
LINE
  8
0
 62
     0
 10
84.6762
 20
5.23102
 30
0.0
 11
84.3361
 21
5.18005
 31
0.0
  0
LINE
  8
0
 62
     0
 10
164.918
 20
5.18005
 30
0.0
 11
164.612
 21
5.02158
 31
0.0
  0
LINE
  8
0
 62
     0
 10
164.612
 20
5.02158
 30
0.0
 11
164.368
 21
4.77767
 31
0.0
  0
LINE
  8
0
 62
     0
 10
164.368
 20
4.77767
 30
0.0
 11
164.211
 21
4.47174
 31
0.0
  0
LINE
  8
0
 62
     0
 10
164.211
 20
4.47174
 30
0.0
 11
164.159
 21
4.13135
 31
0.0
  0
LINE
  8
0
 62
     0
 10
164.159
 20
4.13135
 30
0.0
 11
164.211
 21
3.79236
 31
0.0
  0
LINE
  8
0
 62
     0
 10
164.211
 20
3.79236
 30
0.0
 11
164.368
 21
3.48506
 31
0.0
  0
LINE
  8
0
 62
     0
 10
164.368
 20
3.48506
 30
0.0
 11
164.612
 21
3.24253
 31
0.0
  0
LINE
  8
0
 62
     0
 10
164.612
 20
3.24253
 30
0.0
 11
164.918
 21
3.08543
 31
0.0
  0
LINE
  8
0
 62
     0
 10
164.918
 20
3.08543
 30
0.0
 11
165.258
 21
3.03168
 31
0.0
  0
LINE
  8
0
 62
     0
 10
165.258
 20
3.03168
 30
0.0
 11
165.597
 21
3.08543
 31
0.0
  0
LINE
  8
0
 62
     0
 10
165.597
 20
3.08543
 30
0.0
 11
165.905
 21
3.24253
 31
0.0
  0
LINE
  8
0
 62
     0
 10
165.905
 20
3.24253
 30
0.0
 11
166.147
 21
3.48506
 31
0.0
  0
LINE
  8
0
 62
     0
 10
166.147
 20
3.48506
 30
0.0
 11
166.304
 21
3.79236
 31
0.0
  0
LINE
  8
0
 62
     0
 10
166.304
 20
3.79236
 30
0.0
 11
166.358
 21
4.13135
 31
0.0
  0
LINE
  8
0
 62
     0
 10
166.358
 20
4.13135
 30
0.0
 11
166.304
 21
4.47174
 31
0.0
  0
LINE
  8
0
 62
     0
 10
166.304
 20
4.47174
 30
0.0
 11
166.147
 21
4.77767
 31
0.0
  0
LINE
  8
0
 62
     0
 10
166.147
 20
4.77767
 30
0.0
 11
165.905
 21
5.02158
 31
0.0
  0
LINE
  8
0
 62
     0
 10
165.905
 20
5.02158
 30
0.0
 11
165.597
 21
5.18005
 31
0.0
  0
LINE
  8
0
 62
     0
 10
165.597
 20
5.18005
 30
0.0
 11
165.258
 21
5.23102
 31
0.0
  0
LINE
  8
0
 62
     0
 10
165.258
 20
5.23102
 30
0.0
 11
164.918
 21
5.18005
 31
0.0
  0
LINE
  8
0
 62
     0
 10
245.499
 20
5.18005
 30
0.0
 11
245.193
 21
5.02158
 31
0.0
  0
LINE
  8
0
 62
     0
 10
245.193
 20
5.02158
 30
0.0
 11
244.949
 21
4.77767
 31
0.0
  0
LINE
  8
0
 62
     0
 10
244.949
 20
4.77767
 30
0.0
 11
244.793
 21
4.47174
 31
0.0
  0
LINE
  8
0
 62
     0
 10
244.793
 20
4.47174
 30
0.0
 11
244.74
 21
4.13135
 31
0.0
  0
LINE
  8
0
 62
     0
 10
244.74
 20
4.13135
 30
0.0
 11
244.793
 21
3.79236
 31
0.0
  0
LINE
  8
0
 62
     0
 10
244.793
 20
3.79236
 30
0.0
 11
244.949
 21
3.48506
 31
0.0
  0
LINE
  8
0
 62
     0
 10
244.949
 20
3.48506
 30
0.0
 11
245.193
 21
3.24253
 31
0.0
  0
LINE
  8
0
 62
     0
 10
245.193
 20
3.24253
 30
0.0
 11
245.499
 21
3.08543
 31
0.0
  0
LINE
  8
0
 62
     0
 10
245.499
 20
3.08543
 30
0.0
 11
245.839
 21
3.03168
 31
0.0
  0
LINE
  8
0
 62
     0
 10
245.839
 20
3.03168
 30
0.0
 11
246.18
 21
3.08543
 31
0.0
  0
LINE
  8
0
 62
     0
 10
246.18
 20
3.08543
 30
0.0
 11
246.487
 21
3.24253
 31
0.0
  0
LINE
  8
0
 62
     0
 10
246.487
 20
3.24253
 30
0.0
 11
246.73
 21
3.48506
 31
0.0
  0
LINE
  8
0
 62
     0
 10
246.73
 20
3.48506
 30
0.0
 11
246.885
 21
3.79236
 31
0.0
  0
LINE
  8
0
 62
     0
 10
246.885
 20
3.79236
 30
0.0
 11
246.939
 21
4.13135
 31
0.0
  0
LINE
  8
0
 62
     0
 10
246.939
 20
4.13135
 30
0.0
 11
246.885
 21
4.47174
 31
0.0
  0
LINE
  8
0
 62
     0
 10
246.885
 20
4.47174
 30
0.0
 11
246.73
 21
4.77767
 31
0.0
  0
LINE
  8
0
 62
     0
 10
246.73
 20
4.77767
 30
0.0
 11
246.487
 21
5.02158
 31
0.0
  0
LINE
  8
0
 62
     0
 10
246.487
 20
5.02158
 30
0.0
 11
246.18
 21
5.18005
 31
0.0
  0
LINE
  8
0
 62
     0
 10
246.18
 20
5.18005
 30
0.0
 11
245.839
 21
5.23102
 31
0.0
  0
LINE
  8
0
 62
     0
 10
245.839
 20
5.23102
 30
0.0
 11
245.499
 21
5.18005
 31
0.0
  0
LINE
  8
0
 62
     0
 10
326.081
 20
5.18005
 30
0.0
 11
325.775
 21
5.02158
 31
0.0
  0
LINE
  8
0
 62
     0
 10
325.775
 20
5.02158
 30
0.0
 11
325.531
 21
4.77767
 31
0.0
  0
LINE
  8
0
 62
     0
 10
325.531
 20
4.77767
 30
0.0
 11
325.374
 21
4.47174
 31
0.0
  0
LINE
  8
0
 62
     0
 10
325.374
 20
4.47174
 30
0.0
 11
325.322
 21
4.13135
 31
0.0
  0
LINE
  8
0
 62
     0
 10
325.322
 20
4.13135
 30
0.0
 11
325.374
 21
3.79236
 31
0.0
  0
LINE
  8
0
 62
     0
 10
325.374
 20
3.79236
 30
0.0
 11
325.531
 21
3.48506
 31
0.0
  0
LINE
  8
0
 62
     0
 10
325.531
 20
3.48506
 30
0.0
 11
325.775
 21
3.24253
 31
0.0
  0
LINE
  8
0
 62
     0
 10
325.775
 20
3.24253
 30
0.0
 11
326.081
 21
3.08543
 31
0.0
  0
LINE
  8
0
 62
     0
 10
326.081
 20
3.08543
 30
0.0
 11
326.421
 21
3.03168
 31
0.0
  0
LINE
  8
0
 62
     0
 10
326.421
 20
3.03168
 30
0.0
 11
326.76
 21
3.08543
 31
0.0
  0
LINE
  8
0
 62
     0
 10
326.76
 20
3.08543
 30
0.0
 11
327.068
 21
3.24253
 31
0.0
  0
LINE
  8
0
 62
     0
 10
327.068
 20
3.24253
 30
0.0
 11
327.31
 21
3.48506
 31
0.0
  0
LINE
  8
0
 62
     0
 10
327.31
 20
3.48506
 30
0.0
 11
327.467
 21
3.79236
 31
0.0
  0
LINE
  8
0
 62
     0
 10
327.467
 20
3.79236
 30
0.0
 11
327.521
 21
4.13135
 31
0.0
  0
LINE
  8
0
 62
     0
 10
327.521
 20
4.13135
 30
0.0
 11
327.467
 21
4.47174
 31
0.0
  0
LINE
  8
0
 62
     0
 10
327.467
 20
4.47174
 30
0.0
 11
327.31
 21
4.77767
 31
0.0
  0
LINE
  8
0
 62
     0
 10
327.31
 20
4.77767
 30
0.0
 11
327.068
 21
5.02158
 31
0.0
  0
LINE
  8
0
 62
     0
 10
327.068
 20
5.02158
 30
0.0
 11
326.76
 21
5.18005
 31
0.0
  0
LINE
  8
0
 62
     0
 10
326.76
 20
5.18005
 30
0.0
 11
326.421
 21
5.23102
 31
0.0
  0
LINE
  8
0
 62
     0
 10
326.421
 20
5.23102
 30
0.0
 11
326.081
 21
5.18005
 31
0.0
  0
LINE
  8
0
 62
     0
 10
148.733
 20
24.6586
 30
0.0
 11
162.733
 21
24.6586
 31
0.0
  0
LINE
  8
0
 62
     0
 10
162.733
 20
24.6586
 30
0.0
 11
162.733
 21
10.6577
 31
0.0
  0
LINE
  8
0
 62
     0
 10
162.733
 20
10.6577
 30
0.0
 11
148.733
 21
10.6577
 31
0.0
  0
LINE
  8
0
 62
     0
 10
148.733
 20
10.6577
 30
0.0
 11
148.733
 21
24.6586
 31
0.0
  0
LINE
  8
0
 62
     0
 10
129.683
 20
24.6586
 30
0.0
 11
143.683
 21
24.6586
 31
0.0
  0
LINE
  8
0
 62
     0
 10
143.683
 20
24.6586
 30
0.0
 11
143.683
 21
10.6577
 31
0.0
  0
LINE
  8
0
 62
     0
 10
143.683
 20
10.6577
 30
0.0
 11
129.683
 21
10.6577
 31
0.0
  0
LINE
  8
0
 62
     0
 10
129.683
 20
10.6577
 30
0.0
 11
129.683
 21
24.6586
 31
0.0
  0
LINE
  8
0
 62
     0
 10
110.633
 20
24.6586
 30
0.0
 11
124.633
 21
24.6586
 31
0.0
  0
LINE
  8
0
 62
     0
 10
124.633
 20
24.6586
 30
0.0
 11
124.633
 21
10.6577
 31
0.0
  0
LINE
  8
0
 62
     0
 10
124.633
 20
10.6577
 30
0.0
 11
110.633
 21
10.6577
 31
0.0
  0
LINE
  8
0
 62
     0
 10
110.633
 20
10.6577
 30
0.0
 11
110.633
 21
24.6586
 31
0.0
  0
LINE
  8
0
 62
     0
 10
127.302
 20
43.7074
 30
0.0
 11
127.302
 21
39.0066
 31
0.0
  0
LINE
  8
0
 62
     0
 10
127.302
 20
39.0066
 30
0.0
 11
87.6762
 21
39.0066
 31
0.0
  0
LINE
  8
0
 62
     0
 10
87.6762
 20
39.0066
 30
0.0
 11
87.6762
 21
42.237
 31
0.0
  0
LINE
  8
0
 62
     0
 10
87.6762
 20
42.237
 30
0.0
 11
85.9511
 21
42.237
 31
0.0
  0
LINE
  8
0
 62
     0
 10
85.9511
 20
42.237
 30
0.0
 11
85.9511
 21
43.1588
 31
0.0
  0
LINE
  8
0
 62
     0
 10
85.9511
 20
43.1588
 30
0.0
 11
82.652
 21
43.1588
 31
0.0
  0
LINE
  8
0
 62
     0
 10
82.652
 20
43.1588
 30
0.0
 11
82.652
 21
42.237
 31
0.0
  0
LINE
  8
0
 62
     0
 10
82.652
 20
42.237
 30
0.0
 11
80.9265
 21
42.237
 31
0.0
  0
LINE
  8
0
 62
     0
 10
80.9265
 20
42.237
 30
0.0
 11
80.9265
 21
39.0066
 31
0.0
  0
LINE
  8
0
 62
     0
 10
80.9265
 20
39.0066
 30
0.0
 11
80.1014
 21
39.0066
 31
0.0
  0
LINE
  8
0
 62
     0
 10
80.1014
 20
39.0066
 30
0.0
 11
80.1014
 21
36.2081
 31
0.0
  0
LINE
  8
0
 62
     0
 10
80.1014
 20
36.2081
 30
0.0
 11
80.9265
 21
36.2081
 31
0.0
  0
LINE
  8
0
 62
     0
 10
80.9265
 20
36.2081
 30
0.0
 11
80.9265
 21
29.9379
 31
0.0
  0
LINE
  8
0
 62
     0
 10
80.9265
 20
29.9379
 30
0.0
 11
82.652
 21
29.9379
 31
0.0
  0
LINE
  8
0
 62
     0
 10
82.652
 20
29.9379
 30
0.0
 11
82.652
 21
28.9567
 31
0.0
  0
LINE
  8
0
 62
     0
 10
82.652
 20
28.9567
 30
0.0
 11
85.9511
 21
28.9567
 31
0.0
  0
LINE
  8
0
 62
     0
 10
85.9511
 20
28.9567
 30
0.0
 11
85.9511
 21
29.9379
 31
0.0
  0
LINE
  8
0
 62
     0
 10
85.9511
 20
29.9379
 30
0.0
 11
87.6762
 21
29.9379
 31
0.0
  0
LINE
  8
0
 62
     0
 10
87.6762
 20
29.9379
 30
0.0
 11
87.6762
 21
34.4083
 31
0.0
  0
LINE
  8
0
 62
     0
 10
87.6762
 20
34.4083
 30
0.0
 11
127.302
 21
34.4083
 31
0.0
  0
LINE
  8
0
 62
     0
 10
127.302
 20
34.4083
 30
0.0
 11
127.302
 21
29.7077
 31
0.0
  0
LINE
  8
0
 62
     0
 10
127.302
 20
29.7077
 30
0.0
 11
141.301
 21
29.7077
 31
0.0
  0
LINE
  8
0
 62
     0
 10
141.301
 20
29.7077
 30
0.0
 11
141.301
 21
34.4083
 31
0.0
  0
LINE
  8
0
 62
     0
 10
141.301
 20
34.4083
 30
0.0
 11
180.927
 21
34.4083
 31
0.0
  0
LINE
  8
0
 62
     0
 10
180.927
 20
34.4083
 30
0.0
 11
180.927
 21
29.9379
 31
0.0
  0
LINE
  8
0
 62
     0
 10
180.927
 20
29.9379
 30
0.0
 11
182.652
 21
29.9379
 31
0.0
  0
LINE
  8
0
 62
     0
 10
182.652
 20
29.9379
 30
0.0
 11
182.652
 21
28.9567
 31
0.0
  0
LINE
  8
0
 62
     0
 10
182.652
 20
28.9567
 30
0.0
 11
185.951
 21
28.9567
 31
0.0
  0
LINE
  8
0
 62
     0
 10
185.951
 20
28.9567
 30
0.0
 11
185.951
 21
29.9379
 31
0.0
  0
LINE
  8
0
 62
     0
 10
185.951
 20
29.9379
 30
0.0
 11
187.676
 21
29.9379
 31
0.0
  0
LINE
  8
0
 62
     0
 10
187.676
 20
29.9379
 30
0.0
 11
187.676
 21
36.2081
 31
0.0
  0
LINE
  8
0
 62
     0
 10
187.676
 20
36.2081
 30
0.0
 11
188.502
 21
36.2081
 31
0.0
  0
LINE
  8
0
 62
     0
 10
188.502
 20
36.2081
 30
0.0
 11
188.502
 21
39.0066
 31
0.0
  0
LINE
  8
0
 62
     0
 10
188.502
 20
39.0066
 30
0.0
 11
187.676
 21
39.0066
 31
0.0
  0
LINE
  8
0
 62
     0
 10
187.676
 20
39.0066
 30
0.0
 11
187.676
 21
42.237
 31
0.0
  0
LINE
  8
0
 62
     0
 10
187.676
 20
42.237
 30
0.0
 11
185.951
 21
42.237
 31
0.0
  0
LINE
  8
0
 62
     0
 10
185.951
 20
42.237
 30
0.0
 11
185.951
 21
43.1588
 31
0.0
  0
LINE
  8
0
 62
     0
 10
185.951
 20
43.1588
 30
0.0
 11
182.652
 21
43.1588
 31
0.0
  0
LINE
  8
0
 62
     0
 10
182.652
 20
43.1588
 30
0.0
 11
182.652
 21
42.237
 31
0.0
  0
LINE
  8
0
 62
     0
 10
182.652
 20
42.237
 30
0.0
 11
180.927
 21
42.237
 31
0.0
  0
LINE
  8
0
 62
     0
 10
180.927
 20
42.237
 30
0.0
 11
180.927
 21
39.0066
 31
0.0
  0
LINE
  8
0
 62
     0
 10
180.927
 20
39.0066
 30
0.0
 11
141.301
 21
39.0066
 31
0.0
  0
LINE
  8
0
 62
     0
 10
141.301
 20
39.0066
 30
0.0
 11
141.301
 21
43.7074
 31
0.0
  0
LINE
  8
0
 62
     0
 10
141.301
 20
43.7074
 30
0.0
 11
127.302
 21
43.7074
 31
0.0
  0
LINE
  8
0
 62
     0
 10
305.895
 20
43.7074
 30
0.0
 11
319.895
 21
43.7074
 31
0.0
  0
LINE
  8
0
 62
     0
 10
319.895
 20
43.7074
 30
0.0
 11
319.895
 21
29.7077
 31
0.0
  0
LINE
  8
0
 62
     0
 10
319.895
 20
29.7077
 30
0.0
 11
305.895
 21
29.7077
 31
0.0
  0
LINE
  8
0
 62
     0
 10
305.895
 20
29.7077
 30
0.0
 11
305.895
 21
43.7074
 31
0.0
  0
LINE
  8
0
 62
     0
 10
286.845
 20
43.7074
 30
0.0
 11
300.845
 21
43.7074
 31
0.0
  0
LINE
  8
0
 62
     0
 10
300.845
 20
43.7074
 30
0.0
 11
300.845
 21
29.7077
 31
0.0
  0
LINE
  8
0
 62
     0
 10
300.845
 20
29.7077
 30
0.0
 11
286.845
 21
29.7077
 31
0.0
  0
LINE
  8
0
 62
     0
 10
286.845
 20
29.7077
 30
0.0
 11
286.845
 21
43.7074
 31
0.0
  0
LINE
  8
0
 62
     0
 10
267.795
 20
43.7074
 30
0.0
 11
281.795
 21
43.7074
 31
0.0
  0
LINE
  8
0
 62
     0
 10
281.795
 20
43.7074
 30
0.0
 11
281.795
 21
29.7077
 31
0.0
  0
LINE
  8
0
 62
     0
 10
281.795
 20
29.7077
 30
0.0
 11
267.795
 21
29.7077
 31
0.0
  0
LINE
  8
0
 62
     0
 10
267.795
 20
29.7077
 30
0.0
 11
267.795
 21
43.7074
 31
0.0
  0
LINE
  8
0
 62
     0
 10
246.363
 20
43.7074
 30
0.0
 11
260.364
 21
43.7074
 31
0.0
  0
LINE
  8
0
 62
     0
 10
260.364
 20
43.7074
 30
0.0
 11
260.364
 21
29.7077
 31
0.0
  0
LINE
  8
0
 62
     0
 10
260.364
 20
29.7077
 30
0.0
 11
246.363
 21
29.7077
 31
0.0
  0
LINE
  8
0
 62
     0
 10
246.363
 20
29.7077
 30
0.0
 11
246.363
 21
43.7074
 31
0.0
  0
LINE
  8
0
 62
     0
 10
222.552
 20
43.7074
 30
0.0
 11
236.551
 21
43.7074
 31
0.0
  0
LINE
  8
0
 62
     0
 10
236.551
 20
43.7074
 30
0.0
 11
236.551
 21
29.7077
 31
0.0
  0
LINE
  8
0
 62
     0
 10
236.551
 20
29.7077
 30
0.0
 11
222.552
 21
29.7077
 31
0.0
  0
LINE
  8
0
 62
     0
 10
222.552
 20
29.7077
 30
0.0
 11
222.552
 21
43.7074
 31
0.0
  0
LINE
  8
0
 62
     0
 10
198.738
 20
43.7074
 30
0.0
 11
212.739
 21
43.7074
 31
0.0
  0
LINE
  8
0
 62
     0
 10
212.739
 20
43.7074
 30
0.0
 11
212.739
 21
29.7077
 31
0.0
  0
LINE
  8
0
 62
     0
 10
212.739
 20
29.7077
 30
0.0
 11
198.738
 21
29.7077
 31
0.0
  0
LINE
  8
0
 62
     0
 10
198.738
 20
29.7077
 30
0.0
 11
198.738
 21
43.7074
 31
0.0
  0
LINE
  8
0
 62
     0
 10
55.8631
 20
43.7074
 30
0.0
 11
69.8638
 21
43.7074
 31
0.0
  0
LINE
  8
0
 62
     0
 10
69.8638
 20
43.7074
 30
0.0
 11
69.8638
 21
29.7077
 31
0.0
  0
LINE
  8
0
 62
     0
 10
69.8638
 20
29.7077
 30
0.0
 11
55.8631
 21
29.7077
 31
0.0
  0
LINE
  8
0
 62
     0
 10
55.8631
 20
29.7077
 30
0.0
 11
55.8631
 21
43.7074
 31
0.0
  0
LINE
  8
0
 62
     0
 10
34.4331
 20
43.7074
 30
0.0
 11
48.4325
 21
43.7074
 31
0.0
  0
LINE
  8
0
 62
     0
 10
48.4325
 20
43.7074
 30
0.0
 11
48.4325
 21
29.7077
 31
0.0
  0
LINE
  8
0
 62
     0
 10
48.4325
 20
29.7077
 30
0.0
 11
34.4331
 21
29.7077
 31
0.0
  0
LINE
  8
0
 62
     0
 10
34.4331
 20
29.7077
 30
0.0
 11
34.4331
 21
43.7074
 31
0.0
  0
LINE
  8
0
 62
     0
 10
13.0018
 20
43.7074
 30
0.0
 11
27.0013
 21
43.7074
 31
0.0
  0
LINE
  8
0
 62
     0
 10
27.0013
 20
43.7074
 30
0.0
 11
27.0013
 21
29.7077
 31
0.0
  0
LINE
  8
0
 62
     0
 10
27.0013
 20
29.7077
 30
0.0
 11
13.0018
 21
29.7077
 31
0.0
  0
LINE
  8
0
 62
     0
 10
13.0018
 20
29.7077
 30
0.0
 11
13.0018
 21
43.7074
 31
0.0
  0
LINE
  8
0
 62
     0
 10
255.888
 20
62.7574
 30
0.0
 11
255.888
 21
58.0566
 31
0.0
  0
LINE
  8
0
 62
     0
 10
255.888
 20
58.0566
 30
0.0
 11
254.362
 21
58.0566
 31
0.0
  0
LINE
  8
0
 62
     0
 10
254.362
 20
58.0566
 30
0.0
 11
254.362
 21
61.287
 31
0.0
  0
LINE
  8
0
 62
     0
 10
254.362
 20
61.287
 30
0.0
 11
252.639
 21
61.287
 31
0.0
  0
LINE
  8
0
 62
     0
 10
252.639
 20
61.287
 30
0.0
 11
252.639
 21
62.2074
 31
0.0
  0
LINE
  8
0
 62
     0
 10
252.639
 20
62.2074
 30
0.0
 11
249.338
 21
62.2074
 31
0.0
  0
LINE
  8
0
 62
     0
 10
249.338
 20
62.2074
 30
0.0
 11
249.338
 21
61.287
 31
0.0
  0
LINE
  8
0
 62
     0
 10
249.338
 20
61.287
 30
0.0
 11
247.614
 21
61.287
 31
0.0
  0
LINE
  8
0
 62
     0
 10
247.614
 20
61.287
 30
0.0
 11
247.614
 21
58.0566
 31
0.0
  0
LINE
  8
0
 62
     0
 10
247.614
 20
58.0566
 30
0.0
 11
246.789
 21
58.0566
 31
0.0
  0
LINE
  8
0
 62
     0
 10
246.789
 20
58.0566
 30
0.0
 11
246.789
 21
55.2581
 31
0.0
  0
LINE
  8
0
 62
     0
 10
246.789
 20
55.2581
 30
0.0
 11
247.614
 21
55.2581
 31
0.0
  0
LINE
  8
0
 62
     0
 10
247.614
 20
55.2581
 30
0.0
 11
247.614
 21
48.9878
 31
0.0
  0
LINE
  8
0
 62
     0
 10
247.614
 20
48.9878
 30
0.0
 11
249.338
 21
48.9878
 31
0.0
  0
LINE
  8
0
 62
     0
 10
249.338
 20
48.9878
 30
0.0
 11
249.338
 21
48.0067
 31
0.0
  0
LINE
  8
0
 62
     0
 10
249.338
 20
48.0067
 30
0.0
 11
252.639
 21
48.0067
 31
0.0
  0
LINE
  8
0
 62
     0
 10
252.639
 20
48.0067
 30
0.0
 11
252.639
 21
48.9878
 31
0.0
  0
LINE
  8
0
 62
     0
 10
252.639
 20
48.9878
 30
0.0
 11
254.362
 21
48.9878
 31
0.0
  0
LINE
  8
0
 62
     0
 10
254.362
 20
48.9878
 30
0.0
 11
254.362
 21
53.4568
 31
0.0
  0
LINE
  8
0
 62
     0
 10
254.362
 20
53.4568
 30
0.0
 11
255.888
 21
53.4568
 31
0.0
  0
LINE
  8
0
 62
     0
 10
255.888
 20
53.4568
 30
0.0
 11
255.888
 21
48.7578
 31
0.0
  0
LINE
  8
0
 62
     0
 10
255.888
 20
48.7578
 30
0.0
 11
269.889
 21
48.7578
 31
0.0
  0
LINE
  8
0
 62
     0
 10
269.889
 20
48.7578
 30
0.0
 11
269.889
 21
53.4568
 31
0.0
  0
LINE
  8
0
 62
     0
 10
269.889
 20
53.4568
 30
0.0
 11
271.413
 21
53.4568
 31
0.0
  0
LINE
  8
0
 62
     0
 10
271.413
 20
53.4568
 30
0.0
 11
271.413
 21
48.9878
 31
0.0
  0
LINE
  8
0
 62
     0
 10
271.413
 20
48.9878
 30
0.0
 11
273.138
 21
48.9878
 31
0.0
  0
LINE
  8
0
 62
     0
 10
273.138
 20
48.9878
 30
0.0
 11
273.138
 21
48.0067
 31
0.0
  0
LINE
  8
0
 62
     0
 10
273.138
 20
48.0067
 30
0.0
 11
276.438
 21
48.0067
 31
0.0
  0
LINE
  8
0
 62
     0
 10
276.438
 20
48.0067
 30
0.0
 11
276.438
 21
48.9878
 31
0.0
  0
LINE
  8
0
 62
     0
 10
276.438
 20
48.9878
 30
0.0
 11
278.164
 21
48.9878
 31
0.0
  0
LINE
  8
0
 62
     0
 10
278.164
 20
48.9878
 30
0.0
 11
278.164
 21
55.2581
 31
0.0
  0
LINE
  8
0
 62
     0
 10
278.164
 20
55.2581
 30
0.0
 11
278.988
 21
55.2581
 31
0.0
  0
LINE
  8
0
 62
     0
 10
278.988
 20
55.2581
 30
0.0
 11
278.988
 21
58.0566
 31
0.0
  0
LINE
  8
0
 62
     0
 10
278.988
 20
58.0566
 30
0.0
 11
278.164
 21
58.0566
 31
0.0
  0
LINE
  8
0
 62
     0
 10
278.164
 20
58.0566
 30
0.0
 11
278.164
 21
61.287
 31
0.0
  0
LINE
  8
0
 62
     0
 10
278.164
 20
61.287
 30
0.0
 11
276.438
 21
61.287
 31
0.0
  0
LINE
  8
0
 62
     0
 10
276.438
 20
61.287
 30
0.0
 11
276.438
 21
62.2074
 31
0.0
  0
LINE
  8
0
 62
     0
 10
276.438
 20
62.2074
 30
0.0
 11
273.138
 21
62.2074
 31
0.0
  0
LINE
  8
0
 62
     0
 10
273.138
 20
62.2074
 30
0.0
 11
273.138
 21
61.287
 31
0.0
  0
LINE
  8
0
 62
     0
 10
273.138
 20
61.287
 30
0.0
 11
271.413
 21
61.287
 31
0.0
  0
LINE
  8
0
 62
     0
 10
271.413
 20
61.287
 30
0.0
 11
271.413
 21
58.0566
 31
0.0
  0
LINE
  8
0
 62
     0
 10
271.413
 20
58.0566
 30
0.0
 11
269.889
 21
58.0566
 31
0.0
  0
LINE
  8
0
 62
     0
 10
269.889
 20
58.0566
 30
0.0
 11
269.889
 21
62.7574
 31
0.0
  0
LINE
  8
0
 62
     0
 10
269.889
 20
62.7574
 30
0.0
 11
255.888
 21
62.7574
 31
0.0
  0
LINE
  8
0
 62
     0
 10
22.5268
 20
62.7574
 30
0.0
 11
22.5268
 21
58.0566
 31
0.0
  0
LINE
  8
0
 62
     0
 10
22.5268
 20
58.0566
 30
0.0
 11
21.0013
 21
58.0566
 31
0.0
  0
LINE
  8
0
 62
     0
 10
21.0013
 20
58.0566
 30
0.0
 11
21.0013
 21
61.287
 31
0.0
  0
LINE
  8
0
 62
     0
 10
21.0013
 20
61.287
 30
0.0
 11
19.276
 21
61.287
 31
0.0
  0
LINE
  8
0
 62
     0
 10
19.276
 20
61.287
 30
0.0
 11
19.276
 21
62.2074
 31
0.0
  0
LINE
  8
0
 62
     0
 10
19.276
 20
62.2074
 30
0.0
 11
15.977
 21
62.2074
 31
0.0
  0
LINE
  8
0
 62
     0
 10
15.977
 20
62.2074
 30
0.0
 11
15.977
 21
61.287
 31
0.0
  0
LINE
  8
0
 62
     0
 10
15.977
 20
61.287
 30
0.0
 11
14.2517
 21
61.287
 31
0.0
  0
LINE
  8
0
 62
     0
 10
14.2517
 20
61.287
 30
0.0
 11
14.2517
 21
58.0566
 31
0.0
  0
LINE
  8
0
 62
     0
 10
14.2517
 20
58.0566
 30
0.0
 11
13.4262
 21
58.0566
 31
0.0
  0
LINE
  8
0
 62
     0
 10
13.4262
 20
58.0566
 30
0.0
 11
13.4262
 21
55.2581
 31
0.0
  0
LINE
  8
0
 62
     0
 10
13.4262
 20
55.2581
 30
0.0
 11
14.2517
 21
55.2581
 31
0.0
  0
LINE
  8
0
 62
     0
 10
14.2517
 20
55.2581
 30
0.0
 11
14.2517
 21
48.9878
 31
0.0
  0
LINE
  8
0
 62
     0
 10
14.2517
 20
48.9878
 30
0.0
 11
15.977
 21
48.9878
 31
0.0
  0
LINE
  8
0
 62
     0
 10
15.977
 20
48.9878
 30
0.0
 11
15.977
 21
48.0067
 31
0.0
  0
LINE
  8
0
 62
     0
 10
15.977
 20
48.0067
 30
0.0
 11
19.276
 21
48.0067
 31
0.0
  0
LINE
  8
0
 62
     0
 10
19.276
 20
48.0067
 30
0.0
 11
19.276
 21
48.9878
 31
0.0
  0
LINE
  8
0
 62
     0
 10
19.276
 20
48.9878
 30
0.0
 11
21.0013
 21
48.9878
 31
0.0
  0
LINE
  8
0
 62
     0
 10
21.0013
 20
48.9878
 30
0.0
 11
21.0013
 21
53.4568
 31
0.0
  0
LINE
  8
0
 62
     0
 10
21.0013
 20
53.4568
 30
0.0
 11
22.5268
 21
53.4568
 31
0.0
  0
LINE
  8
0
 62
     0
 10
22.5268
 20
53.4568
 30
0.0
 11
22.5268
 21
48.7578
 31
0.0
  0
LINE
  8
0
 62
     0
 10
22.5268
 20
48.7578
 30
0.0
 11
36.5263
 21
48.7578
 31
0.0
  0
LINE
  8
0
 62
     0
 10
36.5263
 20
48.7578
 30
0.0
 11
36.5263
 21
53.4568
 31
0.0
  0
LINE
  8
0
 62
     0
 10
36.5263
 20
53.4568
 30
0.0
 11
38.0517
 21
53.4568
 31
0.0
  0
LINE
  8
0
 62
     0
 10
38.0517
 20
53.4568
 30
0.0
 11
38.0517
 21
48.9878
 31
0.0
  0
LINE
  8
0
 62
     0
 10
38.0517
 20
48.9878
 30
0.0
 11
39.7771
 21
48.9878
 31
0.0
  0
LINE
  8
0
 62
     0
 10
39.7771
 20
48.9878
 30
0.0
 11
39.7771
 21
48.0067
 31
0.0
  0
LINE
  8
0
 62
     0
 10
39.7771
 20
48.0067
 30
0.0
 11
43.0759
 21
48.0067
 31
0.0
  0
LINE
  8
0
 62
     0
 10
43.0759
 20
48.0067
 30
0.0
 11
43.0759
 21
48.9878
 31
0.0
  0
LINE
  8
0
 62
     0
 10
43.0759
 20
48.9878
 30
0.0
 11
44.8014
 21
48.9878
 31
0.0
  0
LINE
  8
0
 62
     0
 10
44.8014
 20
48.9878
 30
0.0
 11
44.8014
 21
55.2581
 31
0.0
  0
LINE
  8
0
 62
     0
 10
44.8014
 20
55.2581
 30
0.0
 11
45.6269
 21
55.2581
 31
0.0
  0
LINE
  8
0
 62
     0
 10
45.6269
 20
55.2581
 30
0.0
 11
45.6269
 21
58.0566
 31
0.0
  0
LINE
  8
0
 62
     0
 10
45.6269
 20
58.0566
 30
0.0
 11
44.8014
 21
58.0566
 31
0.0
  0
LINE
  8
0
 62
     0
 10
44.8014
 20
58.0566
 30
0.0
 11
44.8014
 21
61.287
 31
0.0
  0
LINE
  8
0
 62
     0
 10
44.8014
 20
61.287
 30
0.0
 11
43.0759
 21
61.287
 31
0.0
  0
LINE
  8
0
 62
     0
 10
43.0759
 20
61.287
 30
0.0
 11
43.0759
 21
62.2074
 31
0.0
  0
LINE
  8
0
 62
     0
 10
43.0759
 20
62.2074
 30
0.0
 11
39.7771
 21
62.2074
 31
0.0
  0
LINE
  8
0
 62
     0
 10
39.7771
 20
62.2074
 30
0.0
 11
39.7771
 21
61.287
 31
0.0
  0
LINE
  8
0
 62
     0
 10
39.7771
 20
61.287
 30
0.0
 11
38.0517
 21
61.287
 31
0.0
  0
LINE
  8
0
 62
     0
 10
38.0517
 20
61.287
 30
0.0
 11
38.0517
 21
58.0566
 31
0.0
  0
LINE
  8
0
 62
     0
 10
38.0517
 20
58.0566
 30
0.0
 11
36.5263
 21
58.0566
 31
0.0
  0
LINE
  8
0
 62
     0
 10
36.5263
 20
58.0566
 30
0.0
 11
36.5263
 21
62.7574
 31
0.0
  0
LINE
  8
0
 62
     0
 10
36.5263
 20
62.7574
 30
0.0
 11
22.5268
 21
62.7574
 31
0.0
  0
LINE
  8
0
 62
     0
 10
286.845
 20
62.7574
 30
0.0
 11
300.845
 21
62.7574
 31
0.0
  0
LINE
  8
0
 62
     0
 10
300.845
 20
62.7574
 30
0.0
 11
300.845
 21
48.7578
 31
0.0
  0
LINE
  8
0
 62
     0
 10
300.845
 20
48.7578
 30
0.0
 11
286.845
 21
48.7578
 31
0.0
  0
LINE
  8
0
 62
     0
 10
286.845
 20
48.7578
 30
0.0
 11
286.845
 21
62.7574
 31
0.0
  0
LINE
  8
0
 62
     0
 10
224.933
 20
62.7574
 30
0.0
 11
238.933
 21
62.7574
 31
0.0
  0
LINE
  8
0
 62
     0
 10
238.933
 20
62.7574
 30
0.0
 11
238.933
 21
48.7578
 31
0.0
  0
LINE
  8
0
 62
     0
 10
238.933
 20
48.7578
 30
0.0
 11
224.933
 21
48.7578
 31
0.0
  0
LINE
  8
0
 62
     0
 10
224.933
 20
48.7578
 30
0.0
 11
224.933
 21
62.7574
 31
0.0
  0
LINE
  8
0
 62
     0
 10
205.883
 20
62.7574
 30
0.0
 11
219.883
 21
62.7574
 31
0.0
  0
LINE
  8
0
 62
     0
 10
219.883
 20
62.7574
 30
0.0
 11
219.883
 21
48.7578
 31
0.0
  0
LINE
  8
0
 62
     0
 10
219.883
 20
48.7578
 30
0.0
 11
205.883
 21
48.7578
 31
0.0
  0
LINE
  8
0
 62
     0
 10
205.883
 20
48.7578
 30
0.0
 11
205.883
 21
62.7574
 31
0.0
  0
LINE
  8
0
 62
     0
 10
186.833
 20
62.7574
 30
0.0
 11
200.833
 21
62.7574
 31
0.0
  0
LINE
  8
0
 62
     0
 10
200.833
 20
62.7574
 30
0.0
 11
200.833
 21
48.7578
 31
0.0
  0
LINE
  8
0
 62
     0
 10
200.833
 20
48.7578
 30
0.0
 11
186.833
 21
48.7578
 31
0.0
  0
LINE
  8
0
 62
     0
 10
186.833
 20
48.7578
 30
0.0
 11
186.833
 21
62.7574
 31
0.0
  0
LINE
  8
0
 62
     0
 10
167.783
 20
62.7574
 30
0.0
 11
181.783
 21
62.7574
 31
0.0
  0
LINE
  8
0
 62
     0
 10
181.783
 20
62.7574
 30
0.0
 11
181.783
 21
48.7578
 31
0.0
  0
LINE
  8
0
 62
     0
 10
181.783
 20
48.7578
 30
0.0
 11
167.783
 21
48.7578
 31
0.0
  0
LINE
  8
0
 62
     0
 10
167.783
 20
48.7578
 30
0.0
 11
167.783
 21
62.7574
 31
0.0
  0
LINE
  8
0
 62
     0
 10
148.733
 20
62.7574
 30
0.0
 11
162.733
 21
62.7574
 31
0.0
  0
LINE
  8
0
 62
     0
 10
162.733
 20
62.7574
 30
0.0
 11
162.733
 21
48.7578
 31
0.0
  0
LINE
  8
0
 62
     0
 10
162.733
 20
48.7578
 30
0.0
 11
148.733
 21
48.7578
 31
0.0
  0
LINE
  8
0
 62
     0
 10
148.733
 20
48.7578
 30
0.0
 11
148.733
 21
62.7574
 31
0.0
  0
LINE
  8
0
 62
     0
 10
129.683
 20
62.7574
 30
0.0
 11
143.683
 21
62.7574
 31
0.0
  0
LINE
  8
0
 62
     0
 10
143.683
 20
62.7574
 30
0.0
 11
143.683
 21
48.7578
 31
0.0
  0
LINE
  8
0
 62
     0
 10
143.683
 20
48.7578
 30
0.0
 11
129.683
 21
48.7578
 31
0.0
  0
LINE
  8
0
 62
     0
 10
129.683
 20
48.7578
 30
0.0
 11
129.683
 21
62.7574
 31
0.0
  0
LINE
  8
0
 62
     0
 10
110.633
 20
62.7574
 30
0.0
 11
124.633
 21
62.7574
 31
0.0
  0
LINE
  8
0
 62
     0
 10
124.633
 20
62.7574
 30
0.0
 11
124.633
 21
48.7578
 31
0.0
  0
LINE
  8
0
 62
     0
 10
124.633
 20
48.7578
 30
0.0
 11
110.633
 21
48.7578
 31
0.0
  0
LINE
  8
0
 62
     0
 10
110.633
 20
48.7578
 30
0.0
 11
110.633
 21
62.7574
 31
0.0
  0
LINE
  8
0
 62
     0
 10
91.5829
 20
62.7574
 30
0.0
 11
105.583
 21
62.7574
 31
0.0
  0
LINE
  8
0
 62
     0
 10
105.583
 20
62.7574
 30
0.0
 11
105.583
 21
48.7578
 31
0.0
  0
LINE
  8
0
 62
     0
 10
105.583
 20
48.7578
 30
0.0
 11
91.5829
 21
48.7578
 31
0.0
  0
LINE
  8
0
 62
     0
 10
91.5829
 20
48.7578
 30
0.0
 11
91.5829
 21
62.7574
 31
0.0
  0
LINE
  8
0
 62
     0
 10
72.5329
 20
62.7574
 30
0.0
 11
86.5325
 21
62.7574
 31
0.0
  0
LINE
  8
0
 62
     0
 10
86.5325
 20
62.7574
 30
0.0
 11
86.5325
 21
48.7578
 31
0.0
  0
LINE
  8
0
 62
     0
 10
86.5325
 20
48.7578
 30
0.0
 11
72.5329
 21
48.7578
 31
0.0
  0
LINE
  8
0
 62
     0
 10
72.5329
 20
48.7578
 30
0.0
 11
72.5329
 21
62.7574
 31
0.0
  0
LINE
  8
0
 62
     0
 10
53.4829
 20
62.7574
 30
0.0
 11
67.4825
 21
62.7574
 31
0.0
  0
LINE
  8
0
 62
     0
 10
67.4825
 20
62.7574
 30
0.0
 11
67.4825
 21
48.7578
 31
0.0
  0
LINE
  8
0
 62
     0
 10
67.4825
 20
48.7578
 30
0.0
 11
53.4829
 21
48.7578
 31
0.0
  0
LINE
  8
0
 62
     0
 10
53.4829
 20
48.7578
 30
0.0
 11
53.4829
 21
62.7574
 31
0.0
  0
LINE
  8
0
 62
     0
 10
3.75514
 20
66.3279
 30
0.0
 11
3.44785
 21
66.1719
 31
0.0
  0
LINE
  8
0
 62
     0
 10
3.44785
 20
66.1719
 30
0.0
 11
3.20394
 21
65.9296
 31
0.0
  0
LINE
  8
0
 62
     0
 10
3.20394
 20
65.9296
 30
0.0
 11
3.04822
 21
65.6223
 31
0.0
  0
LINE
  8
0
 62
     0
 10
3.04822
 20
65.6223
 30
0.0
 11
2.99586
 21
65.2819
 31
0.0
  0
LINE
  8
0
 62
     0
 10
2.99586
 20
65.2819
 30
0.0
 11
3.04822
 21
64.9429
 31
0.0
  0
LINE
  8
0
 62
     0
 10
3.04822
 20
64.9429
 30
0.0
 11
3.20394
 21
64.6356
 31
0.0
  0
LINE
  8
0
 62
     0
 10
3.20394
 20
64.6356
 30
0.0
 11
3.44785
 21
64.3929
 31
0.0
  0
LINE
  8
0
 62
     0
 10
3.44785
 20
64.3929
 30
0.0
 11
3.75514
 21
64.2359
 31
0.0
  0
LINE
  8
0
 62
     0
 10
3.75514
 20
64.2359
 30
0.0
 11
4.09554
 21
64.1823
 31
0.0
  0
LINE
  8
0
 62
     0
 10
4.09554
 20
64.1823
 30
0.0
 11
4.43452
 21
64.2359
 31
0.0
  0
LINE
  8
0
 62
     0
 10
4.43452
 20
64.2359
 30
0.0
 11
4.74183
 21
64.3929
 31
0.0
  0
LINE
  8
0
 62
     0
 10
4.74183
 20
64.3929
 30
0.0
 11
4.98436
 21
64.6356
 31
0.0
  0
LINE
  8
0
 62
     0
 10
4.98436
 20
64.6356
 30
0.0
 11
5.14145
 21
64.9429
 31
0.0
  0
LINE
  8
0
 62
     0
 10
5.14145
 20
64.9429
 30
0.0
 11
5.19522
 21
65.2819
 31
0.0
  0
LINE
  8
0
 62
     0
 10
5.19522
 20
65.2819
 30
0.0
 11
5.14145
 21
65.6223
 31
0.0
  0
LINE
  8
0
 62
     0
 10
5.14145
 20
65.6223
 30
0.0
 11
4.98436
 21
65.9296
 31
0.0
  0
LINE
  8
0
 62
     0
 10
4.98436
 20
65.9296
 30
0.0
 11
4.74183
 21
66.1719
 31
0.0
  0
LINE
  8
0
 62
     0
 10
4.74183
 20
66.1719
 30
0.0
 11
4.43452
 21
66.3279
 31
0.0
  0
LINE
  8
0
 62
     0
 10
4.43452
 20
66.3279
 30
0.0
 11
4.09554
 21
66.3829
 31
0.0
  0
LINE
  8
0
 62
     0
 10
4.09554
 20
66.3829
 30
0.0
 11
3.75514
 21
66.3279
 31
0.0
  0
LINE
  8
0
 62
     0
 10
326.081
 20
66.3279
 30
0.0
 11
325.775
 21
66.1719
 31
0.0
  0
LINE
  8
0
 62
     0
 10
325.775
 20
66.1719
 30
0.0
 11
325.531
 21
65.9296
 31
0.0
  0
LINE
  8
0
 62
     0
 10
325.531
 20
65.9296
 30
0.0
 11
325.374
 21
65.6223
 31
0.0
  0
LINE
  8
0
 62
     0
 10
325.374
 20
65.6223
 30
0.0
 11
325.322
 21
65.2819
 31
0.0
  0
LINE
  8
0
 62
     0
 10
325.322
 20
65.2819
 30
0.0
 11
325.374
 21
64.9429
 31
0.0
  0
LINE
  8
0
 62
     0
 10
325.374
 20
64.9429
 30
0.0
 11
325.531
 21
64.6356
 31
0.0
  0
LINE
  8
0
 62
     0
 10
325.531
 20
64.6356
 30
0.0
 11
325.775
 21
64.3929
 31
0.0
  0
LINE
  8
0
 62
     0
 10
325.775
 20
64.3929
 30
0.0
 11
326.081
 21
64.2359
 31
0.0
  0
LINE
  8
0
 62
     0
 10
326.081
 20
64.2359
 30
0.0
 11
326.421
 21
64.1823
 31
0.0
  0
LINE
  8
0
 62
     0
 10
326.421
 20
64.1823
 30
0.0
 11
326.76
 21
64.2359
 31
0.0
  0
LINE
  8
0
 62
     0
 10
326.76
 20
64.2359
 30
0.0
 11
327.068
 21
64.3929
 31
0.0
  0
LINE
  8
0
 62
     0
 10
327.068
 20
64.3929
 30
0.0
 11
327.31
 21
64.6356
 31
0.0
  0
LINE
  8
0
 62
     0
 10
327.31
 20
64.6356
 30
0.0
 11
327.467
 21
64.9429
 31
0.0
  0
LINE
  8
0
 62
     0
 10
327.467
 20
64.9429
 30
0.0
 11
327.521
 21
65.2819
 31
0.0
  0
LINE
  8
0
 62
     0
 10
327.521
 20
65.2819
 30
0.0
 11
327.467
 21
65.6223
 31
0.0
  0
LINE
  8
0
 62
     0
 10
327.467
 20
65.6223
 30
0.0
 11
327.31
 21
65.9296
 31
0.0
  0
LINE
  8
0
 62
     0
 10
327.31
 20
65.9296
 30
0.0
 11
327.068
 21
66.1719
 31
0.0
  0
LINE
  8
0
 62
     0
 10
327.068
 20
66.1719
 30
0.0
 11
326.76
 21
66.3279
 31
0.0
  0
LINE
  8
0
 62
     0
 10
326.76
 20
66.3279
 30
0.0
 11
326.421
 21
66.3829
 31
0.0
  0
LINE
  8
0
 62
     0
 10
326.421
 20
66.3829
 30
0.0
 11
326.081
 21
66.3279
 31
0.0
  0
LINE
  8
0
 62
     0
 10
265.413
 20
81.8074
 30
0.0
 11
265.413
 21
77.1066
 31
0.0
  0
LINE
  8
0
 62
     0
 10
265.413
 20
77.1066
 30
0.0
 11
263.889
 21
77.1066
 31
0.0
  0
LINE
  8
0
 62
     0
 10
263.889
 20
77.1066
 30
0.0
 11
263.889
 21
80.337
 31
0.0
  0
LINE
  8
0
 62
     0
 10
263.889
 20
80.337
 30
0.0
 11
262.164
 21
80.337
 31
0.0
  0
LINE
  8
0
 62
     0
 10
262.164
 20
80.337
 30
0.0
 11
262.164
 21
81.2574
 31
0.0
  0
LINE
  8
0
 62
     0
 10
262.164
 20
81.2574
 30
0.0
 11
258.863
 21
81.2574
 31
0.0
  0
LINE
  8
0
 62
     0
 10
258.863
 20
81.2574
 30
0.0
 11
258.863
 21
80.337
 31
0.0
  0
LINE
  8
0
 62
     0
 10
258.863
 20
80.337
 30
0.0
 11
257.139
 21
80.337
 31
0.0
  0
LINE
  8
0
 62
     0
 10
257.139
 20
80.337
 30
0.0
 11
257.139
 21
77.1066
 31
0.0
  0
LINE
  8
0
 62
     0
 10
257.139
 20
77.1066
 30
0.0
 11
256.314
 21
77.1066
 31
0.0
  0
LINE
  8
0
 62
     0
 10
256.314
 20
77.1066
 30
0.0
 11
256.314
 21
74.3081
 31
0.0
  0
LINE
  8
0
 62
     0
 10
256.314
 20
74.3081
 30
0.0
 11
257.139
 21
74.3081
 31
0.0
  0
LINE
  8
0
 62
     0
 10
257.139
 20
74.3081
 30
0.0
 11
257.139
 21
68.0378
 31
0.0
  0
LINE
  8
0
 62
     0
 10
257.139
 20
68.0378
 30
0.0
 11
258.863
 21
68.0378
 31
0.0
  0
LINE
  8
0
 62
     0
 10
258.863
 20
68.0378
 30
0.0
 11
258.863
 21
67.0567
 31
0.0
  0
LINE
  8
0
 62
     0
 10
258.863
 20
67.0567
 30
0.0
 11
262.164
 21
67.0567
 31
0.0
  0
LINE
  8
0
 62
     0
 10
262.164
 20
67.0567
 30
0.0
 11
262.164
 21
68.0378
 31
0.0
  0
LINE
  8
0
 62
     0
 10
262.164
 20
68.0378
 30
0.0
 11
263.889
 21
68.0378
 31
0.0
  0
LINE
  8
0
 62
     0
 10
263.889
 20
68.0378
 30
0.0
 11
263.889
 21
72.5068
 31
0.0
  0
LINE
  8
0
 62
     0
 10
263.889
 20
72.5068
 30
0.0
 11
265.413
 21
72.5068
 31
0.0
  0
LINE
  8
0
 62
     0
 10
265.413
 20
72.5068
 30
0.0
 11
265.413
 21
67.8078
 31
0.0
  0
LINE
  8
0
 62
     0
 10
265.413
 20
67.8078
 30
0.0
 11
279.414
 21
67.8078
 31
0.0
  0
LINE
  8
0
 62
     0
 10
279.414
 20
67.8078
 30
0.0
 11
279.414
 21
72.5068
 31
0.0
  0
LINE
  8
0
 62
     0
 10
279.414
 20
72.5068
 30
0.0
 11
280.938
 21
72.5068
 31
0.0
  0
LINE
  8
0
 62
     0
 10
280.938
 20
72.5068
 30
0.0
 11
280.938
 21
68.0378
 31
0.0
  0
LINE
  8
0
 62
     0
 10
280.938
 20
68.0378
 30
0.0
 11
282.663
 21
68.0378
 31
0.0
  0
LINE
  8
0
 62
     0
 10
282.663
 20
68.0378
 30
0.0
 11
282.663
 21
67.0567
 31
0.0
  0
LINE
  8
0
 62
     0
 10
282.663
 20
67.0567
 30
0.0
 11
285.963
 21
67.0567
 31
0.0
  0
LINE
  8
0
 62
     0
 10
285.963
 20
67.0567
 30
0.0
 11
285.963
 21
68.0378
 31
0.0
  0
LINE
  8
0
 62
     0
 10
285.963
 20
68.0378
 30
0.0
 11
287.689
 21
68.0378
 31
0.0
  0
LINE
  8
0
 62
     0
 10
287.689
 20
68.0378
 30
0.0
 11
287.689
 21
74.3081
 31
0.0
  0
LINE
  8
0
 62
     0
 10
287.689
 20
74.3081
 30
0.0
 11
288.513
 21
74.3081
 31
0.0
  0
LINE
  8
0
 62
     0
 10
288.513
 20
74.3081
 30
0.0
 11
288.513
 21
77.1066
 31
0.0
  0
LINE
  8
0
 62
     0
 10
288.513
 20
77.1066
 30
0.0
 11
287.689
 21
77.1066
 31
0.0
  0
LINE
  8
0
 62
     0
 10
287.689
 20
77.1066
 30
0.0
 11
287.689
 21
80.337
 31
0.0
  0
LINE
  8
0
 62
     0
 10
287.689
 20
80.337
 30
0.0
 11
285.963
 21
80.337
 31
0.0
  0
LINE
  8
0
 62
     0
 10
285.963
 20
80.337
 30
0.0
 11
285.963
 21
81.2574
 31
0.0
  0
LINE
  8
0
 62
     0
 10
285.963
 20
81.2574
 30
0.0
 11
282.663
 21
81.2574
 31
0.0
  0
LINE
  8
0
 62
     0
 10
282.663
 20
81.2574
 30
0.0
 11
282.663
 21
80.337
 31
0.0
  0
LINE
  8
0
 62
     0
 10
282.663
 20
80.337
 30
0.0
 11
280.938
 21
80.337
 31
0.0
  0
LINE
  8
0
 62
     0
 10
280.938
 20
80.337
 30
0.0
 11
280.938
 21
77.1066
 31
0.0
  0
LINE
  8
0
 62
     0
 10
280.938
 20
77.1066
 30
0.0
 11
279.414
 21
77.1066
 31
0.0
  0
LINE
  8
0
 62
     0
 10
279.414
 20
77.1066
 30
0.0
 11
279.414
 21
81.8074
 31
0.0
  0
LINE
  8
0
 62
     0
 10
279.414
 20
81.8074
 30
0.0
 11
265.413
 21
81.8074
 31
0.0
  0
LINE
  8
0
 62
     0
 10
234.458
 20
81.8074
 30
0.0
 11
248.458
 21
81.8074
 31
0.0
  0
LINE
  8
0
 62
     0
 10
248.458
 20
81.8074
 30
0.0
 11
248.458
 21
67.8078
 31
0.0
  0
LINE
  8
0
 62
     0
 10
248.458
 20
67.8078
 30
0.0
 11
234.458
 21
67.8078
 31
0.0
  0
LINE
  8
0
 62
     0
 10
234.458
 20
67.8078
 30
0.0
 11
234.458
 21
81.8074
 31
0.0
  0
LINE
  8
0
 62
     0
 10
215.408
 20
81.8074
 30
0.0
 11
229.408
 21
81.8074
 31
0.0
  0
LINE
  8
0
 62
     0
 10
229.408
 20
81.8074
 30
0.0
 11
229.408
 21
67.8078
 31
0.0
  0
LINE
  8
0
 62
     0
 10
229.408
 20
67.8078
 30
0.0
 11
215.408
 21
67.8078
 31
0.0
  0
LINE
  8
0
 62
     0
 10
215.408
 20
67.8078
 30
0.0
 11
215.408
 21
81.8074
 31
0.0
  0
LINE
  8
0
 62
     0
 10
196.358
 20
81.8074
 30
0.0
 11
210.358
 21
81.8074
 31
0.0
  0
LINE
  8
0
 62
     0
 10
210.358
 20
81.8074
 30
0.0
 11
210.358
 21
67.8078
 31
0.0
  0
LINE
  8
0
 62
     0
 10
210.358
 20
67.8078
 30
0.0
 11
196.358
 21
67.8078
 31
0.0
  0
LINE
  8
0
 62
     0
 10
196.358
 20
67.8078
 30
0.0
 11
196.358
 21
81.8074
 31
0.0
  0
LINE
  8
0
 62
     0
 10
177.308
 20
81.8074
 30
0.0
 11
191.308
 21
81.8074
 31
0.0
  0
LINE
  8
0
 62
     0
 10
191.308
 20
81.8074
 30
0.0
 11
191.308
 21
67.8078
 31
0.0
  0
LINE
  8
0
 62
     0
 10
191.308
 20
67.8078
 30
0.0
 11
177.308
 21
67.8078
 31
0.0
  0
LINE
  8
0
 62
     0
 10
177.308
 20
67.8078
 30
0.0
 11
177.308
 21
81.8074
 31
0.0
  0
LINE
  8
0
 62
     0
 10
158.258
 20
81.8074
 30
0.0
 11
172.258
 21
81.8074
 31
0.0
  0
LINE
  8
0
 62
     0
 10
172.258
 20
81.8074
 30
0.0
 11
172.258
 21
67.8078
 31
0.0
  0
LINE
  8
0
 62
     0
 10
172.258
 20
67.8078
 30
0.0
 11
158.258
 21
67.8078
 31
0.0
  0
LINE
  8
0
 62
     0
 10
158.258
 20
67.8078
 30
0.0
 11
158.258
 21
81.8074
 31
0.0
  0
LINE
  8
0
 62
     0
 10
139.208
 20
81.8074
 30
0.0
 11
153.208
 21
81.8074
 31
0.0
  0
LINE
  8
0
 62
     0
 10
153.208
 20
81.8074
 30
0.0
 11
153.208
 21
67.8078
 31
0.0
  0
LINE
  8
0
 62
     0
 10
153.208
 20
67.8078
 30
0.0
 11
139.208
 21
67.8078
 31
0.0
  0
LINE
  8
0
 62
     0
 10
139.208
 20
67.8078
 30
0.0
 11
139.208
 21
81.8074
 31
0.0
  0
LINE
  8
0
 62
     0
 10
120.158
 20
81.8074
 30
0.0
 11
134.158
 21
81.8074
 31
0.0
  0
LINE
  8
0
 62
     0
 10
134.158
 20
81.8074
 30
0.0
 11
134.158
 21
67.8078
 31
0.0
  0
LINE
  8
0
 62
     0
 10
134.158
 20
67.8078
 30
0.0
 11
120.158
 21
67.8078
 31
0.0
  0
LINE
  8
0
 62
     0
 10
120.158
 20
67.8078
 30
0.0
 11
120.158
 21
81.8074
 31
0.0
  0
LINE
  8
0
 62
     0
 10
101.108
 20
81.8074
 30
0.0
 11
115.108
 21
81.8074
 31
0.0
  0
LINE
  8
0
 62
     0
 10
115.108
 20
81.8074
 30
0.0
 11
115.108
 21
67.8078
 31
0.0
  0
LINE
  8
0
 62
     0
 10
115.108
 20
67.8078
 30
0.0
 11
101.108
 21
67.8078
 31
0.0
  0
LINE
  8
0
 62
     0
 10
101.108
 20
67.8078
 30
0.0
 11
101.108
 21
81.8074
 31
0.0
  0
LINE
  8
0
 62
     0
 10
82.0579
 20
81.8074
 30
0.0
 11
96.0575
 21
81.8074
 31
0.0
  0
LINE
  8
0
 62
     0
 10
96.0575
 20
81.8074
 30
0.0
 11
96.0575
 21
67.8078
 31
0.0
  0
LINE
  8
0
 62
     0
 10
96.0575
 20
67.8078
 30
0.0
 11
82.0579
 21
67.8078
 31
0.0
  0
LINE
  8
0
 62
     0
 10
82.0579
 20
67.8078
 30
0.0
 11
82.0579
 21
81.8074
 31
0.0
  0
LINE
  8
0
 62
     0
 10
63.0079
 20
81.8074
 30
0.0
 11
77.0075
 21
81.8074
 31
0.0
  0
LINE
  8
0
 62
     0
 10
77.0075
 20
81.8074
 30
0.0
 11
77.0075
 21
67.8078
 31
0.0
  0
LINE
  8
0
 62
     0
 10
77.0075
 20
67.8078
 30
0.0
 11
63.0079
 21
67.8078
 31
0.0
  0
LINE
  8
0
 62
     0
 10
63.0079
 20
67.8078
 30
0.0
 11
63.0079
 21
81.8074
 31
0.0
  0
LINE
  8
0
 62
     0
 10
43.9579
 20
81.8074
 30
0.0
 11
57.9575
 21
81.8074
 31
0.0
  0
LINE
  8
0
 62
     0
 10
57.9575
 20
81.8074
 30
0.0
 11
57.9575
 21
67.8078
 31
0.0
  0
LINE
  8
0
 62
     0
 10
57.9575
 20
67.8078
 30
0.0
 11
43.9579
 21
67.8078
 31
0.0
  0
LINE
  8
0
 62
     0
 10
43.9579
 20
67.8078
 30
0.0
 11
43.9579
 21
81.8074
 31
0.0
  0
LINE
  8
0
 62
     0
 10
17.7629
 20
81.8074
 30
0.0
 11
31.7638
 21
81.8074
 31
0.0
  0
LINE
  8
0
 62
     0
 10
31.7638
 20
81.8074
 30
0.0
 11
31.7638
 21
67.8078
 31
0.0
  0
LINE
  8
0
 62
     0
 10
31.7638
 20
67.8078
 30
0.0
 11
17.7629
 21
67.8078
 31
0.0
  0
LINE
  8
0
 62
     0
 10
17.7629
 20
67.8078
 30
0.0
 11
17.7629
 21
81.8074
 31
0.0
  0
LINE
  8
0
 62
     0
 10
305.895
 20
100.857
 30
0.0
 11
319.895
 21
100.857
 31
0.0
  0
LINE
  8
0
 62
     0
 10
319.895
 20
100.857
 30
0.0
 11
319.895
 21
86.8578
 31
0.0
  0
LINE
  8
0
 62
     0
 10
319.895
 20
86.8578
 30
0.0
 11
305.895
 21
86.8578
 31
0.0
  0
LINE
  8
0
 62
     0
 10
305.895
 20
86.8578
 30
0.0
 11
305.895
 21
100.857
 31
0.0
  0
LINE
  8
0
 62
     0
 10
272.558
 20
100.857
 30
0.0
 11
286.558
 21
100.857
 31
0.0
  0
LINE
  8
0
 62
     0
 10
286.558
 20
100.857
 30
0.0
 11
286.558
 21
86.8578
 31
0.0
  0
LINE
  8
0
 62
     0
 10
286.558
 20
86.8578
 30
0.0
 11
272.558
 21
86.8578
 31
0.0
  0
LINE
  8
0
 62
     0
 10
272.558
 20
86.8578
 30
0.0
 11
272.558
 21
100.857
 31
0.0
  0
LINE
  8
0
 62
     0
 10
248.745
 20
100.857
 30
0.0
 11
262.745
 21
100.857
 31
0.0
  0
LINE
  8
0
 62
     0
 10
262.745
 20
100.857
 30
0.0
 11
262.745
 21
86.8578
 31
0.0
  0
LINE
  8
0
 62
     0
 10
262.745
 20
86.8578
 30
0.0
 11
248.745
 21
86.8578
 31
0.0
  0
LINE
  8
0
 62
     0
 10
248.745
 20
86.8578
 30
0.0
 11
248.745
 21
100.857
 31
0.0
  0
LINE
  8
0
 62
     0
 10
229.695
 20
100.857
 30
0.0
 11
243.695
 21
100.857
 31
0.0
  0
LINE
  8
0
 62
     0
 10
243.695
 20
100.857
 30
0.0
 11
243.695
 21
86.8578
 31
0.0
  0
LINE
  8
0
 62
     0
 10
243.695
 20
86.8578
 30
0.0
 11
229.695
 21
86.8578
 31
0.0
  0
LINE
  8
0
 62
     0
 10
229.695
 20
86.8578
 30
0.0
 11
229.695
 21
100.857
 31
0.0
  0
LINE
  8
0
 62
     0
 10
210.645
 20
100.857
 30
0.0
 11
224.645
 21
100.857
 31
0.0
  0
LINE
  8
0
 62
     0
 10
224.645
 20
100.857
 30
0.0
 11
224.645
 21
86.8578
 31
0.0
  0
LINE
  8
0
 62
     0
 10
224.645
 20
86.8578
 30
0.0
 11
210.645
 21
86.8578
 31
0.0
  0
LINE
  8
0
 62
     0
 10
210.645
 20
86.8578
 30
0.0
 11
210.645
 21
100.857
 31
0.0
  0
LINE
  8
0
 62
     0
 10
191.595
 20
100.857
 30
0.0
 11
205.595
 21
100.857
 31
0.0
  0
LINE
  8
0
 62
     0
 10
205.595
 20
100.857
 30
0.0
 11
205.595
 21
86.8578
 31
0.0
  0
LINE
  8
0
 62
     0
 10
205.595
 20
86.8578
 30
0.0
 11
191.595
 21
86.8578
 31
0.0
  0
LINE
  8
0
 62
     0
 10
191.595
 20
86.8578
 30
0.0
 11
191.595
 21
100.857
 31
0.0
  0
LINE
  8
0
 62
     0
 10
172.545
 20
100.857
 30
0.0
 11
186.545
 21
100.857
 31
0.0
  0
LINE
  8
0
 62
     0
 10
186.545
 20
100.857
 30
0.0
 11
186.545
 21
86.8578
 31
0.0
  0
LINE
  8
0
 62
     0
 10
186.545
 20
86.8578
 30
0.0
 11
172.545
 21
86.8578
 31
0.0
  0
LINE
  8
0
 62
     0
 10
172.545
 20
86.8578
 30
0.0
 11
172.545
 21
100.857
 31
0.0
  0
LINE
  8
0
 62
     0
 10
153.495
 20
100.857
 30
0.0
 11
167.495
 21
100.857
 31
0.0
  0
LINE
  8
0
 62
     0
 10
167.495
 20
100.857
 30
0.0
 11
167.495
 21
86.8578
 31
0.0
  0
LINE
  8
0
 62
     0
 10
167.495
 20
86.8578
 30
0.0
 11
153.495
 21
86.8578
 31
0.0
  0
LINE
  8
0
 62
     0
 10
153.495
 20
86.8578
 30
0.0
 11
153.495
 21
100.857
 31
0.0
  0
LINE
  8
0
 62
     0
 10
134.445
 20
100.857
 30
0.0
 11
148.445
 21
100.857
 31
0.0
  0
LINE
  8
0
 62
     0
 10
148.445
 20
100.857
 30
0.0
 11
148.445
 21
86.8578
 31
0.0
  0
LINE
  8
0
 62
     0
 10
148.445
 20
86.8578
 30
0.0
 11
134.445
 21
86.8578
 31
0.0
  0
LINE
  8
0
 62
     0
 10
134.445
 20
86.8578
 30
0.0
 11
134.445
 21
100.857
 31
0.0
  0
LINE
  8
0
 62
     0
 10
115.395
 20
100.857
 30
0.0
 11
129.395
 21
100.857
 31
0.0
  0
LINE
  8
0
 62
     0
 10
129.395
 20
100.857
 30
0.0
 11
129.395
 21
86.8578
 31
0.0
  0
LINE
  8
0
 62
     0
 10
129.395
 20
86.8578
 30
0.0
 11
115.395
 21
86.8578
 31
0.0
  0
LINE
  8
0
 62
     0
 10
115.395
 20
86.8578
 30
0.0
 11
115.395
 21
100.857
 31
0.0
  0
LINE
  8
0
 62
     0
 10
96.3454
 20
100.857
 30
0.0
 11
110.345
 21
100.857
 31
0.0
  0
LINE
  8
0
 62
     0
 10
110.345
 20
100.857
 30
0.0
 11
110.345
 21
86.8578
 31
0.0
  0
LINE
  8
0
 62
     0
 10
110.345
 20
86.8578
 30
0.0
 11
96.3454
 21
86.8578
 31
0.0
  0
LINE
  8
0
 62
     0
 10
96.3454
 20
86.8578
 30
0.0
 11
96.3454
 21
100.857
 31
0.0
  0
LINE
  8
0
 62
     0
 10
77.2954
 20
100.857
 30
0.0
 11
91.295
 21
100.857
 31
0.0
  0
LINE
  8
0
 62
     0
 10
91.295
 20
100.857
 30
0.0
 11
91.295
 21
86.8578
 31
0.0
  0
LINE
  8
0
 62
     0
 10
91.295
 20
86.8578
 30
0.0
 11
77.2954
 21
86.8578
 31
0.0
  0
LINE
  8
0
 62
     0
 10
77.2954
 20
86.8578
 30
0.0
 11
77.2954
 21
100.857
 31
0.0
  0
LINE
  8
0
 62
     0
 10
58.2454
 20
100.857
 30
0.0
 11
72.245
 21
100.857
 31
0.0
  0
LINE
  8
0
 62
     0
 10
72.245
 20
100.857
 30
0.0
 11
72.245
 21
86.8578
 31
0.0
  0
LINE
  8
0
 62
     0
 10
72.245
 20
86.8578
 30
0.0
 11
58.2454
 21
86.8578
 31
0.0
  0
LINE
  8
0
 62
     0
 10
58.2454
 20
86.8578
 30
0.0
 11
58.2454
 21
100.857
 31
0.0
  0
LINE
  8
0
 62
     0
 10
39.1954
 20
100.857
 30
0.0
 11
53.195
 21
100.857
 31
0.0
  0
LINE
  8
0
 62
     0
 10
53.195
 20
100.857
 30
0.0
 11
53.195
 21
86.8578
 31
0.0
  0
LINE
  8
0
 62
     0
 10
53.195
 20
86.8578
 30
0.0
 11
39.1954
 21
86.8578
 31
0.0
  0
LINE
  8
0
 62
     0
 10
39.1954
 20
86.8578
 30
0.0
 11
39.1954
 21
100.857
 31
0.0
  0
LINE
  8
0
 62
     0
 10
15.3831
 20
100.857
 30
0.0
 11
29.3825
 21
100.857
 31
0.0
  0
LINE
  8
0
 62
     0
 10
29.3825
 20
100.857
 30
0.0
 11
29.3825
 21
86.8578
 31
0.0
  0
LINE
  8
0
 62
     0
 10
29.3825
 20
86.8578
 30
0.0
 11
15.3831
 21
86.8578
 31
0.0
  0
LINE
  8
0
 62
     0
 10
15.3831
 20
86.8578
 30
0.0
 11
15.3831
 21
100.857
 31
0.0
  0
LINE
  8
0
 62
     0
 10
267.795
 20
119.908
 30
0.0
 11
267.795
 21
115.208
 31
0.0
  0
LINE
  8
0
 62
     0
 10
267.795
 20
115.208
 30
0.0
 11
266.27
 21
115.208
 31
0.0
  0
LINE
  8
0
 62
     0
 10
266.27
 20
115.208
 30
0.0
 11
266.27
 21
118.438
 31
0.0
  0
LINE
  8
0
 62
     0
 10
266.27
 20
118.438
 30
0.0
 11
264.546
 21
118.438
 31
0.0
  0
LINE
  8
0
 62
     0
 10
264.546
 20
118.438
 30
0.0
 11
264.546
 21
119.357
 31
0.0
  0
LINE
  8
0
 62
     0
 10
264.546
 20
119.357
 30
0.0
 11
261.246
 21
119.357
 31
0.0
  0
LINE
  8
0
 62
     0
 10
261.246
 20
119.357
 30
0.0
 11
261.246
 21
118.438
 31
0.0
  0
LINE
  8
0
 62
     0
 10
261.246
 20
118.438
 30
0.0
 11
259.52
 21
118.438
 31
0.0
  0
LINE
  8
0
 62
     0
 10
259.52
 20
118.438
 30
0.0
 11
259.52
 21
115.208
 31
0.0
  0
LINE
  8
0
 62
     0
 10
259.52
 20
115.208
 30
0.0
 11
258.695
 21
115.208
 31
0.0
  0
LINE
  8
0
 62
     0
 10
258.695
 20
115.208
 30
0.0
 11
258.695
 21
112.408
 31
0.0
  0
LINE
  8
0
 62
     0
 10
258.695
 20
112.408
 30
0.0
 11
259.52
 21
112.408
 31
0.0
  0
LINE
  8
0
 62
     0
 10
259.52
 20
112.408
 30
0.0
 11
259.52
 21
106.138
 31
0.0
  0
LINE
  8
0
 62
     0
 10
259.52
 20
106.138
 30
0.0
 11
261.246
 21
106.138
 31
0.0
  0
LINE
  8
0
 62
     0
 10
261.246
 20
106.138
 30
0.0
 11
261.246
 21
105.157
 31
0.0
  0
LINE
  8
0
 62
     0
 10
261.246
 20
105.157
 30
0.0
 11
264.546
 21
105.157
 31
0.0
  0
LINE
  8
0
 62
     0
 10
264.546
 20
105.157
 30
0.0
 11
264.546
 21
106.138
 31
0.0
  0
LINE
  8
0
 62
     0
 10
264.546
 20
106.138
 30
0.0
 11
266.27
 21
106.138
 31
0.0
  0
LINE
  8
0
 62
     0
 10
266.27
 20
106.138
 30
0.0
 11
266.27
 21
110.607
 31
0.0
  0
LINE
  8
0
 62
     0
 10
266.27
 20
110.607
 30
0.0
 11
267.795
 21
110.607
 31
0.0
  0
LINE
  8
0
 62
     0
 10
267.795
 20
110.607
 30
0.0
 11
267.795
 21
105.908
 31
0.0
  0
LINE
  8
0
 62
     0
 10
267.795
 20
105.908
 30
0.0
 11
281.795
 21
105.908
 31
0.0
  0
LINE
  8
0
 62
     0
 10
281.795
 20
105.908
 30
0.0
 11
281.795
 21
110.607
 31
0.0
  0
LINE
  8
0
 62
     0
 10
281.795
 20
110.607
 30
0.0
 11
283.32
 21
110.607
 31
0.0
  0
LINE
  8
0
 62
     0
 10
283.32
 20
110.607
 30
0.0
 11
283.32
 21
106.138
 31
0.0
  0
LINE
  8
0
 62
     0
 10
283.32
 20
106.138
 30
0.0
 11
285.046
 21
106.138
 31
0.0
  0
LINE
  8
0
 62
     0
 10
285.046
 20
106.138
 30
0.0
 11
285.046
 21
105.157
 31
0.0
  0
LINE
  8
0
 62
     0
 10
285.046
 20
105.157
 30
0.0
 11
288.345
 21
105.157
 31
0.0
  0
LINE
  8
0
 62
     0
 10
288.345
 20
105.157
 30
0.0
 11
288.345
 21
106.138
 31
0.0
  0
LINE
  8
0
 62
     0
 10
288.345
 20
106.138
 30
0.0
 11
290.07
 21
106.138
 31
0.0
  0
LINE
  8
0
 62
     0
 10
290.07
 20
106.138
 30
0.0
 11
290.07
 21
112.408
 31
0.0
  0
LINE
  8
0
 62
     0
 10
290.07
 20
112.408
 30
0.0
 11
290.896
 21
112.408
 31
0.0
  0
LINE
  8
0
 62
     0
 10
290.896
 20
112.408
 30
0.0
 11
290.896
 21
115.208
 31
0.0
  0
LINE
  8
0
 62
     0
 10
290.896
 20
115.208
 30
0.0
 11
290.07
 21
115.208
 31
0.0
  0
LINE
  8
0
 62
     0
 10
290.07
 20
115.208
 30
0.0
 11
290.07
 21
118.438
 31
0.0
  0
LINE
  8
0
 62
     0
 10
290.07
 20
118.438
 30
0.0
 11
288.345
 21
118.438
 31
0.0
  0
LINE
  8
0
 62
     0
 10
288.345
 20
118.438
 30
0.0
 11
288.345
 21
119.357
 31
0.0
  0
LINE
  8
0
 62
     0
 10
288.345
 20
119.357
 30
0.0
 11
285.046
 21
119.357
 31
0.0
  0
LINE
  8
0
 62
     0
 10
285.046
 20
119.357
 30
0.0
 11
285.046
 21
118.438
 31
0.0
  0
LINE
  8
0
 62
     0
 10
285.046
 20
118.438
 30
0.0
 11
283.32
 21
118.438
 31
0.0
  0
LINE
  8
0
 62
     0
 10
283.32
 20
118.438
 30
0.0
 11
283.32
 21
115.208
 31
0.0
  0
LINE
  8
0
 62
     0
 10
283.32
 20
115.208
 30
0.0
 11
281.795
 21
115.208
 31
0.0
  0
LINE
  8
0
 62
     0
 10
281.795
 20
115.208
 30
0.0
 11
281.795
 21
119.908
 31
0.0
  0
LINE
  8
0
 62
     0
 10
281.795
 20
119.908
 30
0.0
 11
267.795
 21
119.908
 31
0.0
  0
LINE
  8
0
 62
     0
 10
305.895
 20
119.908
 30
0.0
 11
319.895
 21
119.908
 31
0.0
  0
LINE
  8
0
 62
     0
 10
319.895
 20
119.908
 30
0.0
 11
319.895
 21
105.908
 31
0.0
  0
LINE
  8
0
 62
     0
 10
319.895
 20
105.908
 30
0.0
 11
305.895
 21
105.908
 31
0.0
  0
LINE
  8
0
 62
     0
 10
305.895
 20
105.908
 30
0.0
 11
305.895
 21
119.908
 31
0.0
  0
LINE
  8
0
 62
     0
 10
239.22
 20
119.908
 30
0.0
 11
253.22
 21
119.908
 31
0.0
  0
LINE
  8
0
 62
     0
 10
253.22
 20
119.908
 30
0.0
 11
253.22
 21
105.908
 31
0.0
  0
LINE
  8
0
 62
     0
 10
253.22
 20
105.908
 30
0.0
 11
239.22
 21
105.908
 31
0.0
  0
LINE
  8
0
 62
     0
 10
239.22
 20
105.908
 30
0.0
 11
239.22
 21
119.908
 31
0.0
  0
LINE
  8
0
 62
     0
 10
220.17
 20
119.908
 30
0.0
 11
234.17
 21
119.908
 31
0.0
  0
LINE
  8
0
 62
     0
 10
234.17
 20
119.908
 30
0.0
 11
234.17
 21
105.908
 31
0.0
  0
LINE
  8
0
 62
     0
 10
234.17
 20
105.908
 30
0.0
 11
220.17
 21
105.908
 31
0.0
  0
LINE
  8
0
 62
     0
 10
220.17
 20
105.908
 30
0.0
 11
220.17
 21
119.908
 31
0.0
  0
LINE
  8
0
 62
     0
 10
201.12
 20
119.908
 30
0.0
 11
215.12
 21
119.908
 31
0.0
  0
LINE
  8
0
 62
     0
 10
215.12
 20
119.908
 30
0.0
 11
215.12
 21
105.908
 31
0.0
  0
LINE
  8
0
 62
     0
 10
215.12
 20
105.908
 30
0.0
 11
201.12
 21
105.908
 31
0.0
  0
LINE
  8
0
 62
     0
 10
201.12
 20
105.908
 30
0.0
 11
201.12
 21
119.908
 31
0.0
  0
LINE
  8
0
 62
     0
 10
182.07
 20
119.908
 30
0.0
 11
196.07
 21
119.908
 31
0.0
  0
LINE
  8
0
 62
     0
 10
196.07
 20
119.908
 30
0.0
 11
196.07
 21
105.908
 31
0.0
  0
LINE
  8
0
 62
     0
 10
196.07
 20
105.908
 30
0.0
 11
182.07
 21
105.908
 31
0.0
  0
LINE
  8
0
 62
     0
 10
182.07
 20
105.908
 30
0.0
 11
182.07
 21
119.908
 31
0.0
  0
LINE
  8
0
 62
     0
 10
163.02
 20
119.908
 30
0.0
 11
177.02
 21
119.908
 31
0.0
  0
LINE
  8
0
 62
     0
 10
177.02
 20
119.908
 30
0.0
 11
177.02
 21
105.908
 31
0.0
  0
LINE
  8
0
 62
     0
 10
177.02
 20
105.908
 30
0.0
 11
163.02
 21
105.908
 31
0.0
  0
LINE
  8
0
 62
     0
 10
163.02
 20
105.908
 30
0.0
 11
163.02
 21
119.908
 31
0.0
  0
LINE
  8
0
 62
     0
 10
143.97
 20
119.908
 30
0.0
 11
157.97
 21
119.908
 31
0.0
  0
LINE
  8
0
 62
     0
 10
157.97
 20
119.908
 30
0.0
 11
157.97
 21
105.908
 31
0.0
  0
LINE
  8
0
 62
     0
 10
157.97
 20
105.908
 30
0.0
 11
143.97
 21
105.908
 31
0.0
  0
LINE
  8
0
 62
     0
 10
143.97
 20
105.908
 30
0.0
 11
143.97
 21
119.908
 31
0.0
  0
LINE
  8
0
 62
     0
 10
124.919
 20
119.908
 30
0.0
 11
138.92
 21
119.908
 31
0.0
  0
LINE
  8
0
 62
     0
 10
138.92
 20
119.908
 30
0.0
 11
138.92
 21
105.908
 31
0.0
  0
LINE
  8
0
 62
     0
 10
138.92
 20
105.908
 30
0.0
 11
124.919
 21
105.908
 31
0.0
  0
LINE
  8
0
 62
     0
 10
124.919
 20
105.908
 30
0.0
 11
124.919
 21
119.908
 31
0.0
  0
LINE
  8
0
 62
     0
 10
105.869
 20
119.908
 30
0.0
 11
119.87
 21
119.908
 31
0.0
  0
LINE
  8
0
 62
     0
 10
119.87
 20
119.908
 30
0.0
 11
119.87
 21
105.908
 31
0.0
  0
LINE
  8
0
 62
     0
 10
119.87
 20
105.908
 30
0.0
 11
105.869
 21
105.908
 31
0.0
  0
LINE
  8
0
 62
     0
 10
105.869
 20
105.908
 30
0.0
 11
105.869
 21
119.908
 31
0.0
  0
LINE
  8
0
 62
     0
 10
86.8204
 20
119.908
 30
0.0
 11
100.82
 21
119.908
 31
0.0
  0
LINE
  8
0
 62
     0
 10
100.82
 20
119.908
 30
0.0
 11
100.82
 21
105.908
 31
0.0
  0
LINE
  8
0
 62
     0
 10
100.82
 20
105.908
 30
0.0
 11
86.8204
 21
105.908
 31
0.0
  0
LINE
  8
0
 62
     0
 10
86.8204
 20
105.908
 30
0.0
 11
86.8204
 21
119.908
 31
0.0
  0
LINE
  8
0
 62
     0
 10
67.7704
 20
119.908
 30
0.0
 11
81.77
 21
119.908
 31
0.0
  0
LINE
  8
0
 62
     0
 10
81.77
 20
119.908
 30
0.0
 11
81.77
 21
105.908
 31
0.0
  0
LINE
  8
0
 62
     0
 10
81.77
 20
105.908
 30
0.0
 11
67.7704
 21
105.908
 31
0.0
  0
LINE
  8
0
 62
     0
 10
67.7704
 20
105.908
 30
0.0
 11
67.7704
 21
119.908
 31
0.0
  0
LINE
  8
0
 62
     0
 10
48.7204
 20
119.908
 30
0.0
 11
62.72
 21
119.908
 31
0.0
  0
LINE
  8
0
 62
     0
 10
62.72
 20
119.908
 30
0.0
 11
62.72
 21
105.908
 31
0.0
  0
LINE
  8
0
 62
     0
 10
62.72
 20
105.908
 30
0.0
 11
48.7204
 21
105.908
 31
0.0
  0
LINE
  8
0
 62
     0
 10
48.7204
 20
105.908
 30
0.0
 11
48.7204
 21
119.908
 31
0.0
  0
LINE
  8
0
 62
     0
 10
29.6706
 20
119.908
 30
0.0
 11
43.67
 21
119.908
 31
0.0
  0
LINE
  8
0
 62
     0
 10
43.67
 20
119.908
 30
0.0
 11
43.67
 21
105.908
 31
0.0
  0
LINE
  8
0
 62
     0
 10
43.67
 20
105.908
 30
0.0
 11
29.6706
 21
105.908
 31
0.0
  0
LINE
  8
0
 62
     0
 10
29.6706
 20
105.908
 30
0.0
 11
29.6706
 21
119.908
 31
0.0
  0
LINE
  8
0
 62
     0
 10
10.6192
 20
119.908
 30
0.0
 11
24.62
 21
119.908
 31
0.0
  0
LINE
  8
0
 62
     0
 10
24.62
 20
119.908
 30
0.0
 11
24.62
 21
105.908
 31
0.0
  0
LINE
  8
0
 62
     0
 10
24.62
 20
105.908
 30
0.0
 11
10.6192
 21
105.908
 31
0.0
  0
LINE
  8
0
 62
     0
 10
10.6192
 20
105.908
 30
0.0
 11
10.6192
 21
119.908
 31
0.0
  0
LINE
  8
0
 62
     0
 10
3.75514
 20
127.479
 30
0.0
 11
3.44785
 21
127.324
 31
0.0
  0
LINE
  8
0
 62
     0
 10
3.44785
 20
127.324
 30
0.0
 11
3.20394
 21
127.08
 31
0.0
  0
LINE
  8
0
 62
     0
 10
3.20394
 20
127.08
 30
0.0
 11
3.04822
 21
126.772
 31
0.0
  0
LINE
  8
0
 62
     0
 10
3.04822
 20
126.772
 30
0.0
 11
2.99586
 21
126.432
 31
0.0
  0
LINE
  8
0
 62
     0
 10
2.99586
 20
126.432
 30
0.0
 11
3.04822
 21
126.093
 31
0.0
  0
LINE
  8
0
 62
     0
 10
3.04822
 20
126.093
 30
0.0
 11
3.20394
 21
125.786
 31
0.0
  0
LINE
  8
0
 62
     0
 10
3.20394
 20
125.786
 30
0.0
 11
3.44785
 21
125.543
 31
0.0
  0
LINE
  8
0
 62
     0
 10
3.44785
 20
125.543
 30
0.0
 11
3.75514
 21
125.386
 31
0.0
  0
LINE
  8
0
 62
     0
 10
3.75514
 20
125.386
 30
0.0
 11
4.09554
 21
125.332
 31
0.0
  0
LINE
  8
0
 62
     0
 10
4.09554
 20
125.332
 30
0.0
 11
4.43452
 21
125.386
 31
0.0
  0
LINE
  8
0
 62
     0
 10
4.43452
 20
125.386
 30
0.0
 11
4.74183
 21
125.543
 31
0.0
  0
LINE
  8
0
 62
     0
 10
4.74183
 20
125.543
 30
0.0
 11
4.98436
 21
125.786
 31
0.0
  0
LINE
  8
0
 62
     0
 10
4.98436
 20
125.786
 30
0.0
 11
5.14145
 21
126.093
 31
0.0
  0
LINE
  8
0
 62
     0
 10
5.14145
 20
126.093
 30
0.0
 11
5.19522
 21
126.432
 31
0.0
  0
LINE
  8
0
 62
     0
 10
5.19522
 20
126.432
 30
0.0
 11
5.14145
 21
126.772
 31
0.0
  0
LINE
  8
0
 62
     0
 10
5.14145
 20
126.772
 30
0.0
 11
4.98436
 21
127.08
 31
0.0
  0
LINE
  8
0
 62
     0
 10
4.98436
 20
127.08
 30
0.0
 11
4.74183
 21
127.324
 31
0.0
  0
LINE
  8
0
 62
     0
 10
4.74183
 20
127.324
 30
0.0
 11
4.43452
 21
127.479
 31
0.0
  0
LINE
  8
0
 62
     0
 10
4.43452
 20
127.479
 30
0.0
 11
4.09554
 21
127.532
 31
0.0
  0
LINE
  8
0
 62
     0
 10
4.09554
 20
127.532
 30
0.0
 11
3.75514
 21
127.479
 31
0.0
  0
LINE
  8
0
 62
     0
 10
326.081
 20
127.479
 30
0.0
 11
325.775
 21
127.324
 31
0.0
  0
LINE
  8
0
 62
     0
 10
325.775
 20
127.324
 30
0.0
 11
325.531
 21
127.08
 31
0.0
  0
LINE
  8
0
 62
     0
 10
325.531
 20
127.08
 30
0.0
 11
325.374
 21
126.772
 31
0.0
  0
LINE
  8
0
 62
     0
 10
325.374
 20
126.772
 30
0.0
 11
325.322
 21
126.432
 31
0.0
  0
LINE
  8
0
 62
     0
 10
325.322
 20
126.432
 30
0.0
 11
325.374
 21
126.093
 31
0.0
  0
LINE
  8
0
 62
     0
 10
325.374
 20
126.093
 30
0.0
 11
325.531
 21
125.786
 31
0.0
  0
LINE
  8
0
 62
     0
 10
325.531
 20
125.786
 30
0.0
 11
325.775
 21
125.543
 31
0.0
  0
LINE
  8
0
 62
     0
 10
325.775
 20
125.543
 30
0.0
 11
326.081
 21
125.386
 31
0.0
  0
LINE
  8
0
 62
     0
 10
326.081
 20
125.386
 30
0.0
 11
326.421
 21
125.332
 31
0.0
  0
LINE
  8
0
 62
     0
 10
326.421
 20
125.332
 30
0.0
 11
326.76
 21
125.386
 31
0.0
  0
LINE
  8
0
 62
     0
 10
326.76
 20
125.386
 30
0.0
 11
327.068
 21
125.543
 31
0.0
  0
LINE
  8
0
 62
     0
 10
327.068
 20
125.543
 30
0.0
 11
327.31
 21
125.786
 31
0.0
  0
LINE
  8
0
 62
     0
 10
327.31
 20
125.786
 30
0.0
 11
327.467
 21
126.093
 31
0.0
  0
LINE
  8
0
 62
     0
 10
327.467
 20
126.093
 30
0.0
 11
327.521
 21
126.432
 31
0.0
  0
LINE
  8
0
 62
     0
 10
327.521
 20
126.432
 30
0.0
 11
327.467
 21
126.772
 31
0.0
  0
LINE
  8
0
 62
     0
 10
327.467
 20
126.772
 30
0.0
 11
327.31
 21
127.08
 31
0.0
  0
LINE
  8
0
 62
     0
 10
327.31
 20
127.08
 30
0.0
 11
327.068
 21
127.324
 31
0.0
  0
LINE
  8
0
 62
     0
 10
327.068
 20
127.324
 30
0.0
 11
326.76
 21
127.479
 31
0.0
  0
LINE
  8
0
 62
     0
 10
326.76
 20
127.479
 30
0.0
 11
326.421
 21
127.532
 31
0.0
  0
LINE
  8
0
 62
     0
 10
326.421
 20
127.532
 30
0.0
 11
326.081
 21
127.479
 31
0.0
  0
LINE
  8
0
 62
     0
 10
245.499
 20
127.479
 30
0.0
 11
245.193
 21
127.324
 31
0.0
  0
LINE
  8
0
 62
     0
 10
245.193
 20
127.324
 30
0.0
 11
244.949
 21
127.08
 31
0.0
  0
LINE
  8
0
 62
     0
 10
244.949
 20
127.08
 30
0.0
 11
244.793
 21
126.772
 31
0.0
  0
LINE
  8
0
 62
     0
 10
244.793
 20
126.772
 30
0.0
 11
244.74
 21
126.432
 31
0.0
  0
LINE
  8
0
 62
     0
 10
244.74
 20
126.432
 30
0.0
 11
244.793
 21
126.093
 31
0.0
  0
LINE
  8
0
 62
     0
 10
244.793
 20
126.093
 30
0.0
 11
244.949
 21
125.786
 31
0.0
  0
LINE
  8
0
 62
     0
 10
244.949
 20
125.786
 30
0.0
 11
245.193
 21
125.543
 31
0.0
  0
LINE
  8
0
 62
     0
 10
245.193
 20
125.543
 30
0.0
 11
245.499
 21
125.386
 31
0.0
  0
LINE
  8
0
 62
     0
 10
245.499
 20
125.386
 30
0.0
 11
245.839
 21
125.332
 31
0.0
  0
LINE
  8
0
 62
     0
 10
245.839
 20
125.332
 30
0.0
 11
246.18
 21
125.386
 31
0.0
  0
LINE
  8
0
 62
     0
 10
246.18
 20
125.386
 30
0.0
 11
246.487
 21
125.543
 31
0.0
  0
LINE
  8
0
 62
     0
 10
246.487
 20
125.543
 30
0.0
 11
246.73
 21
125.786
 31
0.0
  0
LINE
  8
0
 62
     0
 10
246.73
 20
125.786
 30
0.0
 11
246.885
 21
126.093
 31
0.0
  0
LINE
  8
0
 62
     0
 10
246.885
 20
126.093
 30
0.0
 11
246.939
 21
126.432
 31
0.0
  0
LINE
  8
0
 62
     0
 10
246.939
 20
126.432
 30
0.0
 11
246.885
 21
126.772
 31
0.0
  0
LINE
  8
0
 62
     0
 10
246.885
 20
126.772
 30
0.0
 11
246.73
 21
127.08
 31
0.0
  0
LINE
  8
0
 62
     0
 10
246.73
 20
127.08
 30
0.0
 11
246.487
 21
127.324
 31
0.0
  0
LINE
  8
0
 62
     0
 10
246.487
 20
127.324
 30
0.0
 11
246.18
 21
127.479
 31
0.0
  0
LINE
  8
0
 62
     0
 10
246.18
 20
127.479
 30
0.0
 11
245.839
 21
127.532
 31
0.0
  0
LINE
  8
0
 62
     0
 10
245.839
 20
127.532
 30
0.0
 11
245.499
 21
127.479
 31
0.0
  0
LINE
  8
0
 62
     0
 10
164.918
 20
127.479
 30
0.0
 11
164.612
 21
127.324
 31
0.0
  0
LINE
  8
0
 62
     0
 10
164.612
 20
127.324
 30
0.0
 11
164.368
 21
127.08
 31
0.0
  0
LINE
  8
0
 62
     0
 10
164.368
 20
127.08
 30
0.0
 11
164.211
 21
126.772
 31
0.0
  0
LINE
  8
0
 62
     0
 10
164.211
 20
126.772
 30
0.0
 11
164.159
 21
126.432
 31
0.0
  0
LINE
  8
0
 62
     0
 10
164.159
 20
126.432
 30
0.0
 11
164.211
 21
126.093
 31
0.0
  0
LINE
  8
0
 62
     0
 10
164.211
 20
126.093
 30
0.0
 11
164.368
 21
125.786
 31
0.0
  0
LINE
  8
0
 62
     0
 10
164.368
 20
125.786
 30
0.0
 11
164.612
 21
125.543
 31
0.0
  0
LINE
  8
0
 62
     0
 10
164.612
 20
125.543
 30
0.0
 11
164.918
 21
125.386
 31
0.0
  0
LINE
  8
0
 62
     0
 10
164.918
 20
125.386
 30
0.0
 11
165.258
 21
125.332
 31
0.0
  0
LINE
  8
0
 62
     0
 10
165.258
 20
125.332
 30
0.0
 11
165.597
 21
125.386
 31
0.0
  0
LINE
  8
0
 62
     0
 10
165.597
 20
125.386
 30
0.0
 11
165.905
 21
125.543
 31
0.0
  0
LINE
  8
0
 62
     0
 10
165.905
 20
125.543
 30
0.0
 11
166.147
 21
125.786
 31
0.0
  0
LINE
  8
0
 62
     0
 10
166.147
 20
125.786
 30
0.0
 11
166.304
 21
126.093
 31
0.0
  0
LINE
  8
0
 62
     0
 10
166.304
 20
126.093
 30
0.0
 11
166.358
 21
126.432
 31
0.0
  0
LINE
  8
0
 62
     0
 10
166.358
 20
126.432
 30
0.0
 11
166.304
 21
126.772
 31
0.0
  0
LINE
  8
0
 62
     0
 10
166.304
 20
126.772
 30
0.0
 11
166.147
 21
127.08
 31
0.0
  0
LINE
  8
0
 62
     0
 10
166.147
 20
127.08
 30
0.0
 11
165.905
 21
127.324
 31
0.0
  0
LINE
  8
0
 62
     0
 10
165.905
 20
127.324
 30
0.0
 11
165.597
 21
127.479
 31
0.0
  0
LINE
  8
0
 62
     0
 10
165.597
 20
127.479
 30
0.0
 11
165.258
 21
127.532
 31
0.0
  0
LINE
  8
0
 62
     0
 10
165.258
 20
127.532
 30
0.0
 11
164.918
 21
127.479
 31
0.0
  0
LINE
  8
0
 62
     0
 10
84.3361
 20
127.479
 30
0.0
 11
84.0299
 21
127.324
 31
0.0
  0
LINE
  8
0
 62
     0
 10
84.0299
 20
127.324
 30
0.0
 11
83.7861
 21
127.08
 31
0.0
  0
LINE
  8
0
 62
     0
 10
83.7861
 20
127.08
 30
0.0
 11
83.6306
 21
126.772
 31
0.0
  0
LINE
  8
0
 62
     0
 10
83.6306
 20
126.772
 30
0.0
 11
83.5766
 21
126.432
 31
0.0
  0
LINE
  8
0
 62
     0
 10
83.5766
 20
126.432
 30
0.0
 11
83.6306
 21
126.093
 31
0.0
  0
LINE
  8
0
 62
     0
 10
83.6306
 20
126.093
 30
0.0
 11
83.7861
 21
125.786
 31
0.0
  0
LINE
  8
0
 62
     0
 10
83.7861
 20
125.786
 30
0.0
 11
84.0299
 21
125.543
 31
0.0
  0
LINE
  8
0
 62
     0
 10
84.0299
 20
125.543
 30
0.0
 11
84.3361
 21
125.386
 31
0.0
  0
LINE
  8
0
 62
     0
 10
84.3361
 20
125.386
 30
0.0
 11
84.6762
 21
125.332
 31
0.0
  0
LINE
  8
0
 62
     0
 10
84.6762
 20
125.332
 30
0.0
 11
85.0166
 21
125.386
 31
0.0
  0
LINE
  8
0
 62
     0
 10
85.0166
 20
125.386
 30
0.0
 11
85.3239
 21
125.543
 31
0.0
  0
LINE
  8
0
 62
     0
 10
85.3239
 20
125.543
 30
0.0
 11
85.5666
 21
125.786
 31
0.0
  0
LINE
  8
0
 62
     0
 10
85.5666
 20
125.786
 30
0.0
 11
85.7222
 21
126.093
 31
0.0
  0
LINE
  8
0
 62
     0
 10
85.7222
 20
126.093
 30
0.0
 11
85.7762
 21
126.432
 31
0.0
  0
LINE
  8
0
 62
     0
 10
85.7762
 20
126.432
 30
0.0
 11
85.7222
 21
126.772
 31
0.0
  0
LINE
  8
0
 62
     0
 10
85.7222
 20
126.772
 30
0.0
 11
85.5666
 21
127.08
 31
0.0
  0
LINE
  8
0
 62
     0
 10
85.5666
 20
127.08
 30
0.0
 11
85.3239
 21
127.324
 31
0.0
  0
LINE
  8
0
 62
     0
 10
85.3239
 20
127.324
 30
0.0
 11
85.0166
 21
127.479
 31
0.0
  0
LINE
  8
0
 62
     0
 10
85.0166
 20
127.479
 30
0.0
 11
84.6762
 21
127.532
 31
0.0
  0
LINE
  8
0
 62
     0
 10
84.6762
 20
127.532
 30
0.0
 11
84.3361
 21
127.479
 31
0.0
  0
ENDSEC
  0
EOF
