  0
SECTION
  2
HEADER
  9
$ACADVER
  1
AC1032
  9
$ACADMAINTVER
 90
      174
  9
$DWGCODEPAGE
  3
ANSI_936
  9
$LASTSAVEDBY
  1
xuech
  9
$REQUIREDVERSIONS
160
                 0
  9
$INSBASE
 10
0.0
 20
0.0
 30
0.0
  9
$EXTMIN
 10
0.0950846
 20
0.130914
 30
0.0
  9
$EXTMAX
 10
330.422
 20
130.433
 30
0.0
  9
$LIMMIN
 10
0.0
 20
0.0
  9
$LIMMAX
 10
12.0
 20
9.0
  9
$ORTHOMODE
 70
     0
  9
$REGENMODE
 70
     1
  9
$FILLMODE
 70
     0
  9
$QTEXTMODE
 70
     0
  9
$MIRRTEXT
 70
     0
  9
$LTSCALE
 40
1.0
  9
$ATTMODE
 70
     1
  9
$TEXTSIZE
 40
0.2
  9
$TRACEWID
 40
0.05
  9
$TEXTSTYLE
  7
Standard
  9
$CLAYER
  8
0
  9
$CELTYPE
  6
Continuous
  9
$CECOLOR
 62
   256
  9
$CELTSCALE
 40
1.0
  9
$DISPSILH
 70
     0
  9
$DIMSCALE
 40
1.0
  9
$DIMASZ
 40
0.18
  9
$DIMEXO
 40
0.0625
  9
$DIMDLI
 40
0.38
  9
$DIMRND
 40
0.0
  9
$DIMDLE
 40
0.0
  9
$DIMEXE
 40
0.18
  9
$DIMTP
 40
0.0
  9
$DIMTM
 40
0.0
  9
$DIMTXT
 40
0.18
  9
$DIMCEN
 40
0.09
  9
$DIMTSZ
 40
0.0
  9
$DIMTOL
 70
     0
  9
$DIMLIM
 70
     0
  9
$DIMTIH
 70
     1
  9
$DIMTOH
 70
     1
  9
$DIMSE1
 70
     0
  9
$DIMSE2
 70
     0
  9
$DIMTAD
 70
     0
  9
$DIMZIN
 70
     0
  9
$DIMBLK
  1

  9
$DIMASO
 70
     1
  9
$DIMSHO
 70
     1
  9
$DIMPOST
  1

  9
$DIMAPOST
  1

  9
$DIMALT
 70
     0
  9
$DIMALTD
 70
     2
  9
$DIMALTF
 40
25.4
  9
$DIMLFAC
 40
1.0
  9
$DIMTOFL
 70
     0
  9
$DIMTVP
 40
0.0
  9
$DIMTIX
 70
     0
  9
$DIMSOXD
 70
     0
  9
$DIMSAH
 70
     0
  9
$DIMBLK1
  1

  9
$DIMBLK2
  1

  9
$DIMSTYLE
  2
Standard
  9
$DIMCLRD
 70
     0
  9
$DIMCLRE
 70
     0
  9
$DIMCLRT
 70
     0
  9
$DIMTFAC
 40
1.0
  9
$DIMGAP
 40
0.09
  9
$DIMJUST
 70
     0
  9
$DIMSD1
 70
     0
  9
$DIMSD2
 70
     0
  9
$DIMTOLJ
 70
     1
  9
$DIMTZIN
 70
     0
  9
$DIMALTZ
 70
     0
  9
$DIMALTTZ
 70
     0
  9
$DIMUPT
 70
     0
  9
$DIMDEC
 70
     4
  9
$DIMTDEC
 70
     4
  9
$DIMALTU
 70
     2
  9
$DIMALTTD
 70
     2
  9
$DIMTXSTY
  7
Standard
  9
$DIMAUNIT
 70
     0
  9
$DIMADEC
 70
     0
  9
$DIMALTRND
 40
0.0
  9
$DIMAZIN
 70
     0
  9
$DIMDSEP
 70
    46
  9
$DIMATFIT
 70
     3
  9
$DIMFRAC
 70
     0
  9
$DIMLDRBLK
  1

  9
$DIMLUNIT
 70
     2
  9
$DIMLWD
 70
    -2
  9
$DIMLWE
 70
    -2
  9
$DIMTMOVE
 70
     0
  9
$DIMFXL
 40
1.0
  9
$DIMFXLON
 70
     0
  9
$DIMJOGANG
 40
0.7853981633974483
  9
$DIMTFILL
 70
     0
  9
$DIMTFILLCLR
 70
     0
  9
$DIMARCSYM
 70
     0
  9
$DIMLTYPE
  6

  9
$DIMLTEX1
  6

  9
$DIMLTEX2
  6

  9
$DIMTXTDIRECTION
 70
     0
  9
$LUNITS
 70
     2
  9
$LUPREC
 70
     4
  9
$SKETCHINC
 40
0.1
  9
$FILLETRAD
 40
0.0
  9
$AUNITS
 70
     0
  9
$AUPREC
 70
     0
  9
$MENU
  1
.
  9
$ELEVATION
 40
0.0
  9
$PELEVATION
 40
0.0
  9
$THICKNESS
 40
0.0
  9
$LIMCHECK
 70
     0
  9
$CHAMFERA
 40
0.0
  9
$CHAMFERB
 40
0.0
  9
$CHAMFERC
 40
0.0
  9
$CHAMFERD
 40
0.0
  9
$SKPOLY
 70
     0
  9
$TDCREATE
 40
2459501.864259260
  9
$TDUCREATE
 40
2459501.530925926
  9
$TDUPDATE
 40
2459501.871759259
  9
$TDUUPDATE
 40
2459501.538425926
  9
$TDINDWG
 40
0.0075000000
  9
$TDUSRTIMER
 40
0.0075000000
  9
$USRTIMER
 70
     1
  9
$ANGBASE
 50
0.0
  9
$ANGDIR
 70
     0
  9
$PDMODE
 70
     0
  9
$PDSIZE
 40
0.0
  9
$PLINEWID
 40
0.0
  9
$SPLFRAME
 70
     1
  9
$SPLINETYPE
 70
     6
  9
$SPLINESEGS
 70
     8
  9
$HANDSEED
  5
3B8
  9
$SURFTAB1
 70
     6
  9
$SURFTAB2
 70
     6
  9
$SURFTYPE
 70
     6
  9
$SURFU
 70
     6
  9
$SURFV
 70
     6
  9
$UCSBASE
  2

  9
$UCSNAME
  2

  9
$UCSORG
 10
0.0
 20
0.0
 30
0.0
  9
$UCSXDIR
 10
1.0
 20
0.0
 30
0.0
  9
$UCSYDIR
 10
0.0
 20
1.0
 30
0.0
  9
$UCSORTHOREF
  2

  9
$UCSORTHOVIEW
 70
     0
  9
$UCSORGTOP
 10
0.0
 20
0.0
 30
0.0
  9
$UCSORGBOTTOM
 10
0.0
 20
0.0
 30
0.0
  9
$UCSORGLEFT
 10
0.0
 20
0.0
 30
0.0
  9
$UCSORGRIGHT
 10
0.0
 20
0.0
 30
0.0
  9
$UCSORGFRONT
 10
0.0
 20
0.0
 30
0.0
  9
$UCSORGBACK
 10
0.0
 20
0.0
 30
0.0
  9
$PUCSBASE
  2

  9
$PUCSNAME
  2

  9
$PUCSORG
 10
0.0
 20
0.0
 30
0.0
  9
$PUCSXDIR
 10
1.0
 20
0.0
 30
0.0
  9
$PUCSYDIR
 10
0.0
 20
1.0
 30
0.0
  9
$PUCSORTHOREF
  2

  9
$PUCSORTHOVIEW
 70
     0
  9
$PUCSORGTOP
 10
0.0
 20
0.0
 30
0.0
  9
$PUCSORGBOTTOM
 10
0.0
 20
0.0
 30
0.0
  9
$PUCSORGLEFT
 10
0.0
 20
0.0
 30
0.0
  9
$PUCSORGRIGHT
 10
0.0
 20
0.0
 30
0.0
  9
$PUCSORGFRONT
 10
0.0
 20
0.0
 30
0.0
  9
$PUCSORGBACK
 10
0.0
 20
0.0
 30
0.0
  9
$USERI1
 70
     0
  9
$USERI2
 70
     0
  9
$USERI3
 70
     0
  9
$USERI4
 70
     0
  9
$USERI5
 70
     0
  9
$USERR1
 40
0.0
  9
$USERR2
 40
0.0
  9
$USERR3
 40
0.0
  9
$USERR4
 40
0.0
  9
$USERR5
 40
0.0
  9
$WORLDVIEW
 70
     1
  9
$SHADEDGE
 70
     3
  9
$SHADEDIF
 70
    70
  9
$TILEMODE
 70
     1
  9
$MAXACTVP
 70
    64
  9
$PINSBASE
 10
0.0
 20
0.0
 30
0.0
  9
$PLIMCHECK
 70
     0
  9
$PEXTMIN
 10
1.000000000000000E+20
 20
1.000000000000000E+20
 30
1.000000000000000E+20
  9
$PEXTMAX
 10
-1.000000000000000E+20
 20
-1.000000000000000E+20
 30
-1.000000000000000E+20
  9
$PLIMMIN
 10
0.0
 20
0.0
  9
$PLIMMAX
 10
12.0
 20
9.0
  9
$UNITMODE
 70
     0
  9
$VISRETAIN
 70
     1
  9
$PLINEGEN
 70
     0
  9
$PSLTSCALE
 70
     1
  9
$TREEDEPTH
 70
  3020
  9
$CMLSTYLE
  2
Standard
  9
$CMLJUST
 70
     0
  9
$CMLSCALE
 40
1.0
  9
$PROXYGRAPHICS
 70
     1
  9
$MEASUREMENT
 70
     0
  9
$CELWEIGHT
370
    -1
  9
$ENDCAPS
280
     0
  9
$JOINSTYLE
280
     0
  9
$LWDISPLAY
290
     0
  9
$INSUNITS
 70
     0
  9
$HYPERLINKBASE
  1

  9
$STYLESHEET
  1

  9
$XEDIT
290
     1
  9
$CEPSNTYPE
380
     0
  9
$PSTYLEMODE
290
     1
  9
$FINGERPRINTGUID
  2
{D93761CC-5169-D540-8073-6E1FFB3FB8B4}
  9
$VERSIONGUID
  2
{30ACA6D5-5F0B-254F-92E7-184C4D3BBCCB}
  9
$EXTNAMES
290
     1
  9
$PSVPSCALE
 40
0.0
  9
$OLESTARTUP
290
     0
  9
$SORTENTS
280
   127
  9
$INDEXCTL
280
     0
  9
$HIDETEXT
280
     0
  9
$XCLIPFRAME
280
     2
  9
$HALOGAP
280
     0
  9
$OBSCOLOR
 70
   257
  9
$OBSLTYPE
280
     0
  9
$INTERSECTIONDISPLAY
280
     0
  9
$INTERSECTIONCOLOR
 70
   257
  9
$DIMASSOC
280
     1
  9
$PROJECTNAME
  1

  9
$CAMERADISPLAY
290
     0
  9
$LENSLENGTH
 40
50.0
  9
$CAMERAHEIGHT
 40
0.0
  9
$STEPSPERSEC
 40
2.0
  9
$STEPSIZE
 40
6.0
  9
$3DDWFPREC
 40
2.0
  9
$PSOLWIDTH
 40
0.25
  9
$PSOLHEIGHT
 40
4.0
  9
$LOFTANG1
 40
1.570796326794896
  9
$LOFTANG2
 40
1.570796326794896
  9
$LOFTMAG1
 40
0.0
  9
$LOFTMAG2
 40
0.0
  9
$LOFTPARAM
 70
     7
  9
$LOFTNORMALS
280
     1
  9
$LATITUDE
 40
37.795
  9
$LONGITUDE
 40
-122.394
  9
$NORTHDIRECTION
 40
0.0
  9
$TIMEZONE
 70
 -8000
  9
$LIGHTGLYPHDISPLAY
280
     1
  9
$TILEMODELIGHTSYNCH
280
     1
  9
$CMATERIAL
347
11
  9
$SOLIDHIST
280
     0
  9
$SHOWHIST
280
     1
  9
$DWFFRAME
280
     2
  9
$DGNFRAME
280
     0
  9
$REALWORLDSCALE
290
     1
  9
$INTERFERECOLOR
 62
     1
  9
$INTERFEREOBJVS
345
33
  9
$INTERFEREVPVS
346
30
  9
$CSHADOW
280
     0
  9
$SHADOWPLANELOCATION
 40
0.0
  0
ENDSEC
  0
SECTION
  2
CLASSES
  0
CLASS
  1
ACDBDICTIONARYWDFLT
  2
AcDbDictionaryWithDefault
  3
ObjectDBX Classes
 90
        0
 91
        1
280
     0
281
     0
  0
CLASS
  1
MATERIAL
  2
AcDbMaterial
  3
ObjectDBX Classes
 90
     1153
 91
        3
280
     0
281
     0
  0
CLASS
  1
VISUALSTYLE
  2
AcDbVisualStyle
  3
ObjectDBX Classes
 90
     4095
 91
       24
280
     0
281
     0
  0
CLASS
  1
SCALE
  2
AcDbScale
  3
ObjectDBX Classes
 90
     1153
 91
       17
280
     0
281
     0
  0
CLASS
  1
TABLESTYLE
  2
AcDbTableStyle
  3
ObjectDBX Classes
 90
     4095
 91
        1
280
     0
281
     0
  0
CLASS
  1
MLEADERSTYLE
  2
AcDbMLeaderStyle
  3
ACDB_MLEADERSTYLE_CLASS
 90
     4095
 91
        1
280
     0
281
     0
  0
CLASS
  1
ACDBSECTIONVIEWSTYLE
  2
AcDbSectionViewStyle
  3
ObjectDBX Classes
 90
     1025
 91
        1
280
     0
281
     0
  0
CLASS
  1
ACDBDETAILVIEWSTYLE
  2
AcDbDetailViewStyle
  3
ObjectDBX Classes
 90
     1025
 91
        1
280
     0
281
     0
  0
CLASS
  1
DICTIONARYVAR
  2
AcDbDictionaryVar
  3
ObjectDBX Classes
 90
        0
 91
        9
280
     0
281
     0
  0
CLASS
  1
CELLSTYLEMAP
  2
AcDbCellStyleMap
  3
ObjectDBX Classes
 90
     1152
 91
        1
280
     0
281
     0
  0
ENDSEC
  0
SECTION
  2
TABLES
  0
TABLE
  2
VPORT
  5
8
330
0
100
AcDbSymbolTable
 70
     1
  0
VPORT
  5
74
330
8
100
AcDbSymbolTableRecord
100
AcDbViewportTableRecord
  2
*Active
 70
     0
 10
0.0
 20
0.0
 11
1.0
 21
1.0
 12
106.8941907862572
 22
76.65114624113883
 13
0.0
 23
0.0
 14
1.0
 24
1.0
 15
0.0
 25
0.0
 16
0.0
 26
0.0
 36
1.0
 17
0.0
 27
0.0
 37
0.0
 40
100.7143059752084
 41
2.542635658914728
 42
50.0
 43
0.0
 44
0.0
 50
0.0
 51
0.0
 71
     0
 72
   100
 73
     1
 74
     1
 75
     0
 76
     0
 77
     0
 78
     0
281
     0
 65
     1
110
0.0
120
0.0
130
0.0
111
1.0
121
0.0
131
0.0
112
0.0
122
1.0
132
0.0
 79
     0
146
0.0
348
2F
 60
     3
 61
     5
292
     1
282
     1
141
0.0
142
0.0
 63
   250
421
  3355443
1001
ACAD_NAV_VCDISPLAY
1070
     3
  0
ENDTAB
  0
TABLE
  2
LTYPE
  5
5
330
0
100
AcDbSymbolTable
 70
     3
  0
LTYPE
  5
5A
330
5
100
AcDbSymbolTableRecord
100
AcDbLinetypeTableRecord
  2
ByBlock
 70
     0
  3

 72
    65
 73
     0
 40
0.0
  0
LTYPE
  5
5B
330
5
100
AcDbSymbolTableRecord
100
AcDbLinetypeTableRecord
  2
ByLayer
 70
     0
  3

 72
    65
 73
     0
 40
0.0
  0
LTYPE
  5
5C
330
5
100
AcDbSymbolTableRecord
100
AcDbLinetypeTableRecord
  2
Continuous
 70
     0
  3
Solid line
 72
    65
 73
     0
 40
0.0
  0
ENDTAB
  0
TABLE
  2
LAYER
  5
2
102
{ACAD_XDICTIONARY
360
373
102
}
330
0
100
AcDbSymbolTable
 70
     1
  0
LAYER
  5
54
102
{ACAD_XDICTIONARY
360
3B3
102
}
330
2
100
AcDbSymbolTableRecord
100
AcDbLayerTableRecord
  2
0
 70
     0
 62
     7
  6
Continuous
370
    -3
390
F
347
21
348
0
  0
ENDTAB
  0
TABLE
  2
STYLE
  5
3
330
0
100
AcDbSymbolTable
 70
     2
  0
STYLE
  5
55
330
3
100
AcDbSymbolTableRecord
100
AcDbTextStyleTableRecord
  2
Standard
 70
     0
 40
0.0
 41
1.0
 50
0.0
 71
     0
 42
0.2
  3
txt
  4

  0
STYLE
  5
59
330
3
100
AcDbSymbolTableRecord
100
AcDbTextStyleTableRecord
  2
Annotative
 70
     0
 40
0.0
 41
1.0
 50
0.0
 71
     0
 42
0.2
  3
txt
  4

1001
AcadAnnotative
1000
AnnotativeData
1002
{
1070
     1
1070
     1
1002
}
  0
ENDTAB
  0
TABLE
  2
VIEW
  5
6
330
0
100
AcDbSymbolTable
 70
     0
  0
ENDTAB
  0
TABLE
  2
UCS
  5
7
330
0
100
AcDbSymbolTable
 70
     0
  0
ENDTAB
  0
TABLE
  2
APPID
  5
9
330
0
100
AcDbSymbolTable
 70
     6
  0
APPID
  5
56
330
9
100
AcDbSymbolTableRecord
100
AcDbRegAppTableRecord
  2
ACAD
 70
     0
  0
APPID
  5
5D
330
9
100
AcDbSymbolTableRecord
100
AcDbRegAppTableRecord
  2
AcadAnnotative
 70
     0
  0
APPID
  5
371
330
9
100
AcDbSymbolTableRecord
100
AcDbRegAppTableRecord
  2
ACAD_NAV_VCDISPLAY
 70
     0
  0
APPID
  5
372
330
9
100
AcDbSymbolTableRecord
100
AcDbRegAppTableRecord
  2
ACAD_PSEXT
 70
     0
  0
APPID
  5
385
330
9
100
AcDbSymbolTableRecord
100
AcDbRegAppTableRecord
  2
ACAD_EXEMPT_FROM_CAD_STANDARDS
 70
     0
  0
APPID
  5
3A8
330
9
100
AcDbSymbolTableRecord
100
AcDbRegAppTableRecord
  2
ACAD_DSTYLE_DIMRADIAL_EXTENSION
 70
     0
  0
ENDTAB
  0
TABLE
  2
DIMSTYLE
  5
A
330
0
100
AcDbSymbolTable
 70
     4
100
AcDbDimStyleTable
 71
     1
340
57
  0
DIMSTYLE
105
57
330
A
100
AcDbSymbolTableRecord
100
AcDbDimStyleTableRecord
  2
Standard
 70
     0
340
55
  0
DIMSTYLE
105
58
330
A
100
AcDbSymbolTableRecord
100
AcDbDimStyleTableRecord
  2
Annotative
 70
     0
340
55
1001
AcadAnnotative
1000
AnnotativeData
1002
{
1070
     1
1070
     1
1002
}
  0
ENDTAB
  0
TABLE
  2
BLOCK_RECORD
  5
1
330
0
100
AcDbSymbolTable
 70
     5
  0
BLOCK_RECORD
  5
6F
330
1
100
AcDbSymbolTableRecord
100
AcDbBlockTableRecord
  2
*Model_Space
340
72
 70
     0
280
     1
281
     0
  0
BLOCK_RECORD
  5
6B
330
1
100
AcDbSymbolTableRecord
100
AcDbBlockTableRecord
  2
*Paper_Space
340
6E
 70
     0
280
     1
281
     0
  0
BLOCK_RECORD
  5
39C
330
1
100
AcDbSymbolTableRecord
100
AcDbBlockTableRecord
  2
A$C0147b6a0
340
0
 70
     0
280
     1
281
     0
  0
ENDTAB
  0
ENDSEC
  0
SECTION
  2
BLOCKS
  0
BLOCK
  5
70
330
6F
100
AcDbEntity
  8
0
100
AcDbBlockBegin
  2
*Model_Space
 70
     0
 10
0.0
 20
0.0
 30
0.0
  3
*Model_Space
  1

  0
ENDBLK
  5
71
330
6F
100
AcDbEntity
  8
0
100
AcDbBlockEnd
  0
BLOCK
  5
6C
330
6B
100
AcDbEntity
 67
     1
  8
0
100
AcDbBlockBegin
  2
*Paper_Space
 70
     0
 10
0.0
 20
0.0
 30
0.0
  3
*Paper_Space
  1

  0
ENDBLK
  5
6D
330
6B
100
AcDbEntity
 67
     1
  8
0
100
AcDbBlockEnd
  0
BLOCK
  5
3A0
330
39C
100
AcDbEntity
  8
0
100
AcDbBlockBegin
  2
A$C0147b6a0
 70
     0
 10
0.0
 20
0.0
 30
0.0
  3
A$C0147b6a0
  1

  0
CIRCLE
  5
39D
330
39C
100
AcDbEntity
  8
0
100
AcDbCircle
 10
2.031999999999996
 20
3.048000000000001
 30
0.0
 40
2.032
  0
CIRCLE
  5
39E
330
39C
100
AcDbEntity
  8
0
100
AcDbCircle
 10
11.55700000000011
 20
3.048000000000001
 30
0.0
 40
3.048
  0
CIRCLE
  5
39F
330
39C
100
AcDbEntity
  8
0
100
AcDbCircle
 10
21.08199999999992
 20
3.048000000000001
 30
0.0
 40
2.032
  0
ENDBLK
  5
3A1
330
39C
100
AcDbEntity
  8
0
100
AcDbBlockEnd
  0
ENDSEC
  0
SECTION
  2
ENTITIES
  0
LINE
  5
75
330
6F
100
AcDbEntity
  8
0
 62
     0
100
AcDbLine
 10
328.421
 20
130.433
 30
0.0
 11
328.578
 21
130.426
 31
0.0
  0
LINE
  5
76
330
6F
100
AcDbEntity
  8
0
 62
     0
100
AcDbLine
 10
328.578
 20
130.426
 30
0.0
 11
328.734
 21
130.408
 31
0.0
  0
LINE
  5
77
330
6F
100
AcDbEntity
  8
0
 62
     0
100
AcDbLine
 10
328.734
 20
130.408
 30
0.0
 11
328.888
 21
130.377
 31
0.0
  0
LINE
  5
78
330
6F
100
AcDbEntity
  8
0
 62
     0
100
AcDbLine
 10
328.888
 20
130.377
 30
0.0
 11
329.04
 21
130.335
 31
0.0
  0
LINE
  5
79
330
6F
100
AcDbEntity
  8
0
 62
     0
100
AcDbLine
 10
329.04
 20
130.335
 30
0.0
 11
329.1869999999999
 21
130.28
 31
0.0
  0
LINE
  5
7A
330
6F
100
AcDbEntity
  8
0
 62
     0
100
AcDbLine
 10
329.1869999999999
 20
130.28
 30
0.0
 11
329.329
 21
130.215
 31
0.0
  0
LINE
  5
7B
330
6F
100
AcDbEntity
  8
0
 62
     0
100
AcDbLine
 10
329.329
 20
130.215
 30
0.0
 11
329.466
 21
130.138
 31
0.0
  0
LINE
  5
7C
330
6F
100
AcDbEntity
  8
0
 62
     0
100
AcDbLine
 10
329.466
 20
130.138
 30
0.0
 11
329.596
 21
130.051
 31
0.0
  0
LINE
  5
7D
330
6F
100
AcDbEntity
  8
0
 62
     0
100
AcDbLine
 10
329.596
 20
130.051
 30
0.0
 11
329.719
 21
129.953
 31
0.0
  0
LINE
  5
7E
330
6F
100
AcDbEntity
  8
0
 62
     0
100
AcDbLine
 10
329.719
 20
129.953
 30
0.0
 11
329.835
 21
129.847
 31
0.0
  0
LINE
  5
7F
330
6F
100
AcDbEntity
  8
0
 62
     0
100
AcDbLine
 10
329.835
 20
129.847
 30
0.0
 11
329.941
 21
129.731
 31
0.0
  0
LINE
  5
80
330
6F
100
AcDbEntity
  8
0
 62
     0
100
AcDbLine
 10
329.941
 20
129.731
 30
0.0
 11
330.04
 21
129.609
 31
0.0
  0
LINE
  5
81
330
6F
100
AcDbEntity
  8
0
 62
     0
100
AcDbLine
 10
330.04
 20
129.609
 30
0.0
 11
330.127
 21
129.478
 31
0.0
  0
LINE
  5
82
330
6F
100
AcDbEntity
  8
0
 62
     0
100
AcDbLine
 10
330.127
 20
129.478
 30
0.0
 11
330.204
 21
129.34
 31
0.0
  0
LINE
  5
83
330
6F
100
AcDbEntity
  8
0
 62
     0
100
AcDbLine
 10
330.204
 20
129.34
 30
0.0
 11
330.269
 21
129.198
 31
0.0
  0
LINE
  5
84
330
6F
100
AcDbEntity
  8
0
 62
     0
100
AcDbLine
 10
330.269
 20
129.198
 30
0.0
 11
330.324
 21
129.052
 31
0.0
  0
LINE
  5
85
330
6F
100
AcDbEntity
  8
0
 62
     0
100
AcDbLine
 10
330.324
 20
129.052
 30
0.0
 11
330.365
 21
128.899
 31
0.0
  0
LINE
  5
86
330
6F
100
AcDbEntity
  8
0
 62
     0
100
AcDbLine
 10
330.365
 20
128.899
 30
0.0
 11
330.397
 21
128.746
 31
0.0
  0
LINE
  5
87
330
6F
100
AcDbEntity
  8
0
 62
     0
100
AcDbLine
 10
330.397
 20
128.746
 30
0.0
 11
330.415
 21
128.589
 31
0.0
  0
LINE
  5
88
330
6F
100
AcDbEntity
  8
0
 62
     0
100
AcDbLine
 10
330.415
 20
128.589
 30
0.0
 11
330.422
 21
128.432
 31
0.0
  0
LINE
  5
89
330
6F
100
AcDbEntity
  8
0
 62
     0
100
AcDbLine
 10
330.422
 20
128.432
 30
0.0
 11
330.422
 21
2.131829999999999
 31
0.0
  0
LINE
  5
8A
330
6F
100
AcDbEntity
  8
0
 62
     0
100
AcDbLine
 10
330.422
 20
2.131829999999999
 30
0.0
 11
330.415
 21
1.974729999999999
 31
0.0
  0
LINE
  5
8B
330
6F
100
AcDbEntity
  8
0
 62
     0
100
AcDbLine
 10
330.415
 20
1.974729999999999
 30
0.0
 11
330.397
 21
1.819009999999999
 31
0.0
  0
LINE
  5
8C
330
6F
100
AcDbEntity
  8
0
 62
     0
100
AcDbLine
 10
330.397
 20
1.819009999999999
 30
0.0
 11
330.365
 21
1.66467
 31
0.0
  0
LINE
  5
8D
330
6F
100
AcDbEntity
  8
0
 62
     0
100
AcDbLine
 10
330.365
 20
1.66467
 30
0.0
 11
330.324
 21
1.51309
 31
0.0
  0
LINE
  5
8E
330
6F
100
AcDbEntity
  8
0
 62
     0
100
AcDbLine
 10
330.324
 20
1.51309
 30
0.0
 11
330.269
 21
1.365629999999999
 31
0.0
  0
LINE
  5
8F
330
6F
100
AcDbEntity
  8
0
 62
     0
100
AcDbLine
 10
330.269
 20
1.365629999999999
 30
0.0
 11
330.204
 21
1.2237
 31
0.0
  0
LINE
  5
90
330
6F
100
AcDbEntity
  8
0
 62
     0
100
AcDbLine
 10
330.204
 20
1.2237
 30
0.0
 11
330.127
 21
1.08727
 31
0.0
  0
LINE
  5
91
330
6F
100
AcDbEntity
  8
0
 62
     0
100
AcDbLine
 10
330.127
 20
1.08727
 30
0.0
 11
330.04
 21
0.9563589999999999
 31
0.0
  0
LINE
  5
92
330
6F
100
AcDbEntity
  8
0
 62
     0
100
AcDbLine
 10
330.04
 20
0.9563589999999999
 30
0.0
 11
329.941
 21
0.8337129999999998
 31
0.0
  0
LINE
  5
93
330
6F
100
AcDbEntity
  8
0
 62
     0
100
AcDbLine
 10
329.941
 20
0.8337129999999998
 30
0.0
 11
329.835
 21
0.7179590000000001
 31
0.0
  0
LINE
  5
94
330
6F
100
AcDbEntity
  8
0
 62
     0
100
AcDbLine
 10
329.835
 20
0.7179590000000001
 30
0.0
 11
329.719
 21
0.6118510000000001
 31
0.0
  0
LINE
  5
95
330
6F
100
AcDbEntity
  8
0
 62
     0
100
AcDbLine
 10
329.719
 20
0.6118510000000001
 30
0.0
 11
329.596
 21
0.512632
 31
0.0
  0
LINE
  5
96
330
6F
100
AcDbEntity
  8
0
 62
     0
100
AcDbLine
 10
329.596
 20
0.512632
 30
0.0
 11
329.466
 21
0.425813
 31
0.0
  0
LINE
  5
97
330
6F
100
AcDbEntity
  8
0
 62
     0
100
AcDbLine
 10
329.466
 20
0.425813
 30
0.0
 11
329.329
 21
0.348644
 31
0.0
  0
LINE
  5
98
330
6F
100
AcDbEntity
  8
0
 62
     0
100
AcDbLine
 10
329.329
 20
0.348644
 30
0.0
 11
329.1869999999999
 21
0.283876
 31
0.0
  0
LINE
  5
99
330
6F
100
AcDbEntity
  8
0
 62
     0
100
AcDbLine
 10
329.1869999999999
 20
0.283876
 30
0.0
 11
329.04
 21
0.228755
 31
0.0
  0
LINE
  5
9A
330
6F
100
AcDbEntity
  8
0
 62
     0
100
AcDbLine
 10
329.04
 20
0.228755
 30
0.0
 11
328.888
 21
0.187413
 31
0.0
  0
LINE
  5
9B
330
6F
100
AcDbEntity
  8
0
 62
     0
100
AcDbLine
 10
328.888
 20
0.187413
 30
0.0
 11
328.734
 21
0.155718
 31
0.0
  0
LINE
  5
9C
330
6F
100
AcDbEntity
  8
0
 62
     0
100
AcDbLine
 10
328.734
 20
0.155718
 30
0.0
 11
328.578
 21
0.137804
 31
0.0
  0
LINE
  5
9D
330
6F
100
AcDbEntity
  8
0
 62
     0
100
AcDbLine
 10
328.578
 20
0.137804
 30
0.0
 11
328.421
 21
0.130914
 31
0.0
  0
LINE
  5
9E
330
6F
100
AcDbEntity
  8
0
 62
     0
100
AcDbLine
 10
328.421
 20
0.130914
 30
0.0
 11
2.096
 21
0.130914
 31
0.0
  0
LINE
  5
9F
330
6F
100
AcDbEntity
  8
0
 62
     0
100
AcDbLine
 10
2.096
 20
0.130914
 30
0.0
 11
1.9389
 21
0.137804
 31
0.0
  0
LINE
  5
A0
330
6F
100
AcDbEntity
  8
0
 62
     0
100
AcDbLine
 10
1.9389
 20
0.137804
 30
0.0
 11
1.7818
 21
0.155718
 31
0.0
  0
LINE
  5
A1
330
6F
100
AcDbEntity
  8
0
 62
     0
100
AcDbLine
 10
1.7818
 20
0.155718
 30
0.0
 11
1.62884
 21
0.187413
 31
0.0
  0
LINE
  5
A2
330
6F
100
AcDbEntity
  8
0
 62
     0
100
AcDbLine
 10
1.62884
 20
0.187413
 30
0.0
 11
1.475879999999999
 21
0.228755
 31
0.0
  0
LINE
  5
A3
330
6F
100
AcDbEntity
  8
0
 62
     0
100
AcDbLine
 10
1.475879999999999
 20
0.228755
 30
0.0
 11
1.329809999999999
 21
0.283876
 31
0.0
  0
LINE
  5
A4
330
6F
100
AcDbEntity
  8
0
 62
     0
100
AcDbLine
 10
1.329809999999999
 20
0.283876
 30
0.0
 11
1.187869999999999
 21
0.348644
 31
0.0
  0
LINE
  5
A5
330
6F
100
AcDbEntity
  8
0
 62
     0
100
AcDbLine
 10
1.187869999999999
 20
0.348644
 30
0.0
 11
1.050059999999999
 21
0.425813
 31
0.0
  0
LINE
  5
A6
330
6F
100
AcDbEntity
  8
0
 62
     0
100
AcDbLine
 10
1.050059999999999
 20
0.425813
 30
0.0
 11
0.919152
 21
0.512632
 31
0.0
  0
LINE
  5
A7
330
6F
100
AcDbEntity
  8
0
 62
     0
100
AcDbLine
 10
0.919152
 20
0.512632
 30
0.0
 11
0.796505
 21
0.6118510000000001
 31
0.0
  0
LINE
  5
A8
330
6F
100
AcDbEntity
  8
0
 62
     0
100
AcDbLine
 10
0.796505
 20
0.6118510000000001
 30
0.0
 11
0.6807520000000001
 21
0.7179590000000001
 31
0.0
  0
LINE
  5
A9
330
6F
100
AcDbEntity
  8
0
 62
     0
100
AcDbLine
 10
0.6807520000000001
 20
0.7179590000000001
 30
0.0
 11
0.5746430000000001
 21
0.8337129999999998
 31
0.0
  0
LINE
  5
AA
330
6F
100
AcDbEntity
  8
0
 62
     0
100
AcDbLine
 10
0.5746430000000001
 20
0.8337129999999998
 30
0.0
 11
0.4768
 21
0.9563589999999999
 31
0.0
  0
LINE
  5
AB
330
6F
100
AcDbEntity
  8
0
 62
     0
100
AcDbLine
 10
0.4768
 20
0.9563589999999999
 30
0.0
 11
0.389985
 21
1.08727
 31
0.0
  0
LINE
  5
AC
330
6F
100
AcDbEntity
  8
0
 62
     0
100
AcDbLine
 10
0.389985
 20
1.08727
 30
0.0
 11
0.312815
 21
1.2237
 31
0.0
  0
LINE
  5
AD
330
6F
100
AcDbEntity
  8
0
 62
     0
100
AcDbLine
 10
0.312815
 20
1.2237
 30
0.0
 11
0.248047
 21
1.365629999999999
 31
0.0
  0
LINE
  5
AE
330
6F
100
AcDbEntity
  8
0
 62
     0
100
AcDbLine
 10
0.248047
 20
1.365629999999999
 30
0.0
 11
0.192925
 21
1.51309
 31
0.0
  0
LINE
  5
AF
330
6F
100
AcDbEntity
  8
0
 62
     0
100
AcDbLine
 10
0.192925
 20
1.51309
 30
0.0
 11
0.150206
 21
1.66467
 31
0.0
  0
LINE
  5
B0
330
6F
100
AcDbEntity
  8
0
 62
     0
100
AcDbLine
 10
0.150206
 20
1.66467
 30
0.0
 11
0.119889
 21
1.819009999999999
 31
0.0
  0
LINE
  5
B1
330
6F
100
AcDbEntity
  8
0
 62
     0
100
AcDbLine
 10
0.119889
 20
1.819009999999999
 30
0.0
 11
0.101975
 21
1.974729999999999
 31
0.0
  0
LINE
  5
B2
330
6F
100
AcDbEntity
  8
0
 62
     0
100
AcDbLine
 10
0.101975
 20
1.974729999999999
 30
0.0
 11
0.0950846
 21
2.131829999999999
 31
0.0
  0
LINE
  5
B3
330
6F
100
AcDbEntity
  8
0
 62
     0
100
AcDbLine
 10
0.0950846
 20
2.131829999999999
 30
0.0
 11
0.0950846
 21
128.432
 31
0.0
  0
LINE
  5
B4
330
6F
100
AcDbEntity
  8
0
 62
     0
100
AcDbLine
 10
0.0950846
 20
128.432
 30
0.0
 11
0.101975
 21
128.589
 31
0.0
  0
LINE
  5
B5
330
6F
100
AcDbEntity
  8
0
 62
     0
100
AcDbLine
 10
0.101975
 20
128.589
 30
0.0
 11
0.119889
 21
128.746
 31
0.0
  0
LINE
  5
B6
330
6F
100
AcDbEntity
  8
0
 62
     0
100
AcDbLine
 10
0.119889
 20
128.746
 30
0.0
 11
0.150206
 21
128.899
 31
0.0
  0
LINE
  5
B7
330
6F
100
AcDbEntity
  8
0
 62
     0
100
AcDbLine
 10
0.150206
 20
128.899
 30
0.0
 11
0.192925
 21
129.052
 31
0.0
  0
LINE
  5
B8
330
6F
100
AcDbEntity
  8
0
 62
     0
100
AcDbLine
 10
0.192925
 20
129.052
 30
0.0
 11
0.248047
 21
129.198
 31
0.0
  0
LINE
  5
B9
330
6F
100
AcDbEntity
  8
0
 62
     0
100
AcDbLine
 10
0.248047
 20
129.198
 30
0.0
 11
0.312815
 21
129.34
 31
0.0
  0
LINE
  5
BA
330
6F
100
AcDbEntity
  8
0
 62
     0
100
AcDbLine
 10
0.312815
 20
129.34
 30
0.0
 11
0.389985
 21
129.478
 31
0.0
  0
LINE
  5
BB
330
6F
100
AcDbEntity
  8
0
 62
     0
100
AcDbLine
 10
0.389985
 20
129.478
 30
0.0
 11
0.4768
 21
129.609
 31
0.0
  0
LINE
  5
BC
330
6F
100
AcDbEntity
  8
0
 62
     0
100
AcDbLine
 10
0.4768
 20
129.609
 30
0.0
 11
0.5746430000000001
 21
129.731
 31
0.0
  0
LINE
  5
BD
330
6F
100
AcDbEntity
  8
0
 62
     0
100
AcDbLine
 10
0.5746430000000001
 20
129.731
 30
0.0
 11
0.6807520000000001
 21
129.847
 31
0.0
  0
LINE
  5
BE
330
6F
100
AcDbEntity
  8
0
 62
     0
100
AcDbLine
 10
0.6807520000000001
 20
129.847
 30
0.0
 11
0.796505
 21
129.953
 31
0.0
  0
LINE
  5
BF
330
6F
100
AcDbEntity
  8
0
 62
     0
100
AcDbLine
 10
0.796505
 20
129.953
 30
0.0
 11
0.919152
 21
130.051
 31
0.0
  0
LINE
  5
C0
330
6F
100
AcDbEntity
  8
0
 62
     0
100
AcDbLine
 10
0.919152
 20
130.051
 30
0.0
 11
1.050059999999999
 21
130.138
 31
0.0
  0
LINE
  5
C1
330
6F
100
AcDbEntity
  8
0
 62
     0
100
AcDbLine
 10
1.050059999999999
 20
130.138
 30
0.0
 11
1.187869999999999
 21
130.215
 31
0.0
  0
LINE
  5
C2
330
6F
100
AcDbEntity
  8
0
 62
     0
100
AcDbLine
 10
1.187869999999999
 20
130.215
 30
0.0
 11
1.329809999999999
 21
130.28
 31
0.0
  0
LINE
  5
C3
330
6F
100
AcDbEntity
  8
0
 62
     0
100
AcDbLine
 10
1.329809999999999
 20
130.28
 30
0.0
 11
1.475879999999999
 21
130.335
 31
0.0
  0
LINE
  5
C4
330
6F
100
AcDbEntity
  8
0
 62
     0
100
AcDbLine
 10
1.475879999999999
 20
130.335
 30
0.0
 11
1.62884
 21
130.377
 31
0.0
  0
LINE
  5
C5
330
6F
100
AcDbEntity
  8
0
 62
     0
100
AcDbLine
 10
1.62884
 20
130.377
 30
0.0
 11
1.7818
 21
130.408
 31
0.0
  0
LINE
  5
C6
330
6F
100
AcDbEntity
  8
0
 62
     0
100
AcDbLine
 10
1.7818
 20
130.408
 30
0.0
 11
1.9389
 21
130.426
 31
0.0
  0
LINE
  5
C7
330
6F
100
AcDbEntity
  8
0
 62
     0
100
AcDbLine
 10
1.9389
 20
130.426
 30
0.0
 11
2.096
 21
130.433
 31
0.0
  0
LINE
  5
C8
330
6F
100
AcDbEntity
  8
0
 62
     0
100
AcDbLine
 10
2.096
 20
130.433
 30
0.0
 11
328.421
 21
130.433
 31
0.0
  0
LINE
  5
C9
330
6F
100
AcDbEntity
  8
0
 62
     0
100
AcDbLine
 10
3.75514
 20
5.180049999999999
 30
0.0
 11
3.447849999999999
 21
5.02158
 31
0.0
  0
LINE
  5
CA
330
6F
100
AcDbEntity
  8
0
 62
     0
100
AcDbLine
 10
3.447849999999999
 20
5.02158
 30
0.0
 11
3.20394
 21
4.777669999999999
 31
0.0
  0
LINE
  5
CB
330
6F
100
AcDbEntity
  8
0
 62
     0
100
AcDbLine
 10
3.20394
 20
4.777669999999999
 30
0.0
 11
3.04822
 21
4.47174
 31
0.0
  0
LINE
  5
CC
330
6F
100
AcDbEntity
  8
0
 62
     0
100
AcDbLine
 10
3.04822
 20
4.47174
 30
0.0
 11
2.99586
 21
4.13135
 31
0.0
  0
LINE
  5
CD
330
6F
100
AcDbEntity
  8
0
 62
     0
100
AcDbLine
 10
2.99586
 20
4.13135
 30
0.0
 11
3.04822
 21
3.792359999999999
 31
0.0
  0
LINE
  5
CE
330
6F
100
AcDbEntity
  8
0
 62
     0
100
AcDbLine
 10
3.04822
 20
3.792359999999999
 30
0.0
 11
3.20394
 21
3.485059999999999
 31
0.0
  0
LINE
  5
CF
330
6F
100
AcDbEntity
  8
0
 62
     0
100
AcDbLine
 10
3.20394
 20
3.485059999999999
 30
0.0
 11
3.447849999999999
 21
3.242529999999999
 31
0.0
  0
LINE
  5
D0
330
6F
100
AcDbEntity
  8
0
 62
     0
100
AcDbLine
 10
3.447849999999999
 20
3.242529999999999
 30
0.0
 11
3.75514
 21
3.08543
 31
0.0
  0
LINE
  5
D1
330
6F
100
AcDbEntity
  8
0
 62
     0
100
AcDbLine
 10
3.75514
 20
3.08543
 30
0.0
 11
4.095539999999999
 21
3.031679999999999
 31
0.0
  0
LINE
  5
D2
330
6F
100
AcDbEntity
  8
0
 62
     0
100
AcDbLine
 10
4.095539999999999
 20
3.031679999999999
 30
0.0
 11
4.43452
 21
3.08543
 31
0.0
  0
LINE
  5
D3
330
6F
100
AcDbEntity
  8
0
 62
     0
100
AcDbLine
 10
4.43452
 20
3.08543
 30
0.0
 11
4.74183
 21
3.242529999999999
 31
0.0
  0
LINE
  5
D4
330
6F
100
AcDbEntity
  8
0
 62
     0
100
AcDbLine
 10
4.74183
 20
3.242529999999999
 30
0.0
 11
4.984359999999999
 21
3.485059999999999
 31
0.0
  0
LINE
  5
D5
330
6F
100
AcDbEntity
  8
0
 62
     0
100
AcDbLine
 10
4.984359999999999
 20
3.485059999999999
 30
0.0
 11
5.141449999999999
 21
3.792359999999999
 31
0.0
  0
LINE
  5
D6
330
6F
100
AcDbEntity
  8
0
 62
     0
100
AcDbLine
 10
5.141449999999999
 20
3.792359999999999
 30
0.0
 11
5.195219999999999
 21
4.13135
 31
0.0
  0
LINE
  5
D7
330
6F
100
AcDbEntity
  8
0
 62
     0
100
AcDbLine
 10
5.195219999999999
 20
4.13135
 30
0.0
 11
5.141449999999999
 21
4.47174
 31
0.0
  0
LINE
  5
D8
330
6F
100
AcDbEntity
  8
0
 62
     0
100
AcDbLine
 10
5.141449999999999
 20
4.47174
 30
0.0
 11
4.984359999999999
 21
4.777669999999999
 31
0.0
  0
LINE
  5
D9
330
6F
100
AcDbEntity
  8
0
 62
     0
100
AcDbLine
 10
4.984359999999999
 20
4.777669999999999
 30
0.0
 11
4.74183
 21
5.02158
 31
0.0
  0
LINE
  5
DA
330
6F
100
AcDbEntity
  8
0
 62
     0
100
AcDbLine
 10
4.74183
 20
5.02158
 30
0.0
 11
4.43452
 21
5.180049999999999
 31
0.0
  0
LINE
  5
DB
330
6F
100
AcDbEntity
  8
0
 62
     0
100
AcDbLine
 10
4.43452
 20
5.180049999999999
 30
0.0
 11
4.095539999999999
 21
5.23102
 31
0.0
  0
LINE
  5
DC
330
6F
100
AcDbEntity
  8
0
 62
     0
100
AcDbLine
 10
4.095539999999999
 20
5.23102
 30
0.0
 11
3.75514
 21
5.180049999999999
 31
0.0
  0
LINE
  5
DD
330
6F
100
AcDbEntity
  8
0
 62
     0
100
AcDbLine
 10
84.33609999999999
 20
5.180049999999999
 30
0.0
 11
84.0299
 21
5.02158
 31
0.0
  0
LINE
  5
DE
330
6F
100
AcDbEntity
  8
0
 62
     0
100
AcDbLine
 10
84.0299
 20
5.02158
 30
0.0
 11
83.7861
 21
4.777669999999999
 31
0.0
  0
LINE
  5
DF
330
6F
100
AcDbEntity
  8
0
 62
     0
100
AcDbLine
 10
83.7861
 20
4.777669999999999
 30
0.0
 11
83.6306
 21
4.47174
 31
0.0
  0
LINE
  5
E0
330
6F
100
AcDbEntity
  8
0
 62
     0
100
AcDbLine
 10
83.6306
 20
4.47174
 30
0.0
 11
83.5766
 21
4.13135
 31
0.0
  0
LINE
  5
E1
330
6F
100
AcDbEntity
  8
0
 62
     0
100
AcDbLine
 10
83.5766
 20
4.13135
 30
0.0
 11
83.6306
 21
3.792359999999999
 31
0.0
  0
LINE
  5
E2
330
6F
100
AcDbEntity
  8
0
 62
     0
100
AcDbLine
 10
83.6306
 20
3.792359999999999
 30
0.0
 11
83.7861
 21
3.485059999999999
 31
0.0
  0
LINE
  5
E3
330
6F
100
AcDbEntity
  8
0
 62
     0
100
AcDbLine
 10
83.7861
 20
3.485059999999999
 30
0.0
 11
84.0299
 21
3.242529999999999
 31
0.0
  0
LINE
  5
E4
330
6F
100
AcDbEntity
  8
0
 62
     0
100
AcDbLine
 10
84.0299
 20
3.242529999999999
 30
0.0
 11
84.33609999999999
 21
3.08543
 31
0.0
  0
LINE
  5
E5
330
6F
100
AcDbEntity
  8
0
 62
     0
100
AcDbLine
 10
84.33609999999999
 20
3.08543
 30
0.0
 11
84.6762
 21
3.031679999999999
 31
0.0
  0
LINE
  5
E6
330
6F
100
AcDbEntity
  8
0
 62
     0
100
AcDbLine
 10
84.6762
 20
3.031679999999999
 30
0.0
 11
85.01659999999999
 21
3.08543
 31
0.0
  0
LINE
  5
E7
330
6F
100
AcDbEntity
  8
0
 62
     0
100
AcDbLine
 10
85.01659999999999
 20
3.08543
 30
0.0
 11
85.32389999999999
 21
3.242529999999999
 31
0.0
  0
LINE
  5
E8
330
6F
100
AcDbEntity
  8
0
 62
     0
100
AcDbLine
 10
85.32389999999999
 20
3.242529999999999
 30
0.0
 11
85.56659999999999
 21
3.485059999999999
 31
0.0
  0
LINE
  5
E9
330
6F
100
AcDbEntity
  8
0
 62
     0
100
AcDbLine
 10
85.56659999999999
 20
3.485059999999999
 30
0.0
 11
85.72219999999999
 21
3.792359999999999
 31
0.0
  0
LINE
  5
EA
330
6F
100
AcDbEntity
  8
0
 62
     0
100
AcDbLine
 10
85.72219999999999
 20
3.792359999999999
 30
0.0
 11
85.77620000000001
 21
4.13135
 31
0.0
  0
LINE
  5
EB
330
6F
100
AcDbEntity
  8
0
 62
     0
100
AcDbLine
 10
85.77620000000001
 20
4.13135
 30
0.0
 11
85.72219999999999
 21
4.47174
 31
0.0
  0
LINE
  5
EC
330
6F
100
AcDbEntity
  8
0
 62
     0
100
AcDbLine
 10
85.72219999999999
 20
4.47174
 30
0.0
 11
85.56659999999999
 21
4.777669999999999
 31
0.0
  0
LINE
  5
ED
330
6F
100
AcDbEntity
  8
0
 62
     0
100
AcDbLine
 10
85.56659999999999
 20
4.777669999999999
 30
0.0
 11
85.32389999999999
 21
5.02158
 31
0.0
  0
LINE
  5
EE
330
6F
100
AcDbEntity
  8
0
 62
     0
100
AcDbLine
 10
85.32389999999999
 20
5.02158
 30
0.0
 11
85.01659999999999
 21
5.180049999999999
 31
0.0
  0
LINE
  5
EF
330
6F
100
AcDbEntity
  8
0
 62
     0
100
AcDbLine
 10
85.01659999999999
 20
5.180049999999999
 30
0.0
 11
84.6762
 21
5.23102
 31
0.0
  0
LINE
  5
F0
330
6F
100
AcDbEntity
  8
0
 62
     0
100
AcDbLine
 10
84.6762
 20
5.23102
 30
0.0
 11
84.33609999999999
 21
5.180049999999999
 31
0.0
  0
LINE
  5
F1
330
6F
100
AcDbEntity
  8
0
 62
     0
100
AcDbLine
 10
164.918
 20
5.180049999999999
 30
0.0
 11
164.612
 21
5.02158
 31
0.0
  0
LINE
  5
F2
330
6F
100
AcDbEntity
  8
0
 62
     0
100
AcDbLine
 10
164.612
 20
5.02158
 30
0.0
 11
164.368
 21
4.777669999999999
 31
0.0
  0
LINE
  5
F3
330
6F
100
AcDbEntity
  8
0
 62
     0
100
AcDbLine
 10
164.368
 20
4.777669999999999
 30
0.0
 11
164.211
 21
4.47174
 31
0.0
  0
LINE
  5
F4
330
6F
100
AcDbEntity
  8
0
 62
     0
100
AcDbLine
 10
164.211
 20
4.47174
 30
0.0
 11
164.159
 21
4.13135
 31
0.0
  0
LINE
  5
F5
330
6F
100
AcDbEntity
  8
0
 62
     0
100
AcDbLine
 10
164.159
 20
4.13135
 30
0.0
 11
164.211
 21
3.792359999999999
 31
0.0
  0
LINE
  5
F6
330
6F
100
AcDbEntity
  8
0
 62
     0
100
AcDbLine
 10
164.211
 20
3.792359999999999
 30
0.0
 11
164.368
 21
3.485059999999999
 31
0.0
  0
LINE
  5
F7
330
6F
100
AcDbEntity
  8
0
 62
     0
100
AcDbLine
 10
164.368
 20
3.485059999999999
 30
0.0
 11
164.612
 21
3.242529999999999
 31
0.0
  0
LINE
  5
F8
330
6F
100
AcDbEntity
  8
0
 62
     0
100
AcDbLine
 10
164.612
 20
3.242529999999999
 30
0.0
 11
164.918
 21
3.08543
 31
0.0
  0
LINE
  5
F9
330
6F
100
AcDbEntity
  8
0
 62
     0
100
AcDbLine
 10
164.918
 20
3.08543
 30
0.0
 11
165.258
 21
3.031679999999999
 31
0.0
  0
LINE
  5
FA
330
6F
100
AcDbEntity
  8
0
 62
     0
100
AcDbLine
 10
165.258
 20
3.031679999999999
 30
0.0
 11
165.597
 21
3.08543
 31
0.0
  0
LINE
  5
FB
330
6F
100
AcDbEntity
  8
0
 62
     0
100
AcDbLine
 10
165.597
 20
3.08543
 30
0.0
 11
165.905
 21
3.242529999999999
 31
0.0
  0
LINE
  5
FC
330
6F
100
AcDbEntity
  8
0
 62
     0
100
AcDbLine
 10
165.905
 20
3.242529999999999
 30
0.0
 11
166.147
 21
3.485059999999999
 31
0.0
  0
LINE
  5
FD
330
6F
100
AcDbEntity
  8
0
 62
     0
100
AcDbLine
 10
166.147
 20
3.485059999999999
 30
0.0
 11
166.304
 21
3.792359999999999
 31
0.0
  0
LINE
  5
FE
330
6F
100
AcDbEntity
  8
0
 62
     0
100
AcDbLine
 10
166.304
 20
3.792359999999999
 30
0.0
 11
166.358
 21
4.13135
 31
0.0
  0
LINE
  5
FF
330
6F
100
AcDbEntity
  8
0
 62
     0
100
AcDbLine
 10
166.358
 20
4.13135
 30
0.0
 11
166.304
 21
4.47174
 31
0.0
  0
LINE
  5
100
330
6F
100
AcDbEntity
  8
0
 62
     0
100
AcDbLine
 10
166.304
 20
4.47174
 30
0.0
 11
166.147
 21
4.777669999999999
 31
0.0
  0
LINE
  5
101
330
6F
100
AcDbEntity
  8
0
 62
     0
100
AcDbLine
 10
166.147
 20
4.777669999999999
 30
0.0
 11
165.905
 21
5.02158
 31
0.0
  0
LINE
  5
102
330
6F
100
AcDbEntity
  8
0
 62
     0
100
AcDbLine
 10
165.905
 20
5.02158
 30
0.0
 11
165.597
 21
5.180049999999999
 31
0.0
  0
LINE
  5
103
330
6F
100
AcDbEntity
  8
0
 62
     0
100
AcDbLine
 10
165.597
 20
5.180049999999999
 30
0.0
 11
165.258
 21
5.23102
 31
0.0
  0
LINE
  5
104
330
6F
100
AcDbEntity
  8
0
 62
     0
100
AcDbLine
 10
165.258
 20
5.23102
 30
0.0
 11
164.918
 21
5.180049999999999
 31
0.0
  0
LINE
  5
105
330
6F
100
AcDbEntity
  8
0
 62
     0
100
AcDbLine
 10
245.499
 20
5.180049999999999
 30
0.0
 11
245.193
 21
5.02158
 31
0.0
  0
LINE
  5
106
330
6F
100
AcDbEntity
  8
0
 62
     0
100
AcDbLine
 10
245.193
 20
5.02158
 30
0.0
 11
244.949
 21
4.777669999999999
 31
0.0
  0
LINE
  5
107
330
6F
100
AcDbEntity
  8
0
 62
     0
100
AcDbLine
 10
244.949
 20
4.777669999999999
 30
0.0
 11
244.793
 21
4.47174
 31
0.0
  0
LINE
  5
108
330
6F
100
AcDbEntity
  8
0
 62
     0
100
AcDbLine
 10
244.793
 20
4.47174
 30
0.0
 11
244.74
 21
4.13135
 31
0.0
  0
LINE
  5
109
330
6F
100
AcDbEntity
  8
0
 62
     0
100
AcDbLine
 10
244.74
 20
4.13135
 30
0.0
 11
244.793
 21
3.792359999999999
 31
0.0
  0
LINE
  5
10A
330
6F
100
AcDbEntity
  8
0
 62
     0
100
AcDbLine
 10
244.793
 20
3.792359999999999
 30
0.0
 11
244.949
 21
3.485059999999999
 31
0.0
  0
LINE
  5
10B
330
6F
100
AcDbEntity
  8
0
 62
     0
100
AcDbLine
 10
244.949
 20
3.485059999999999
 30
0.0
 11
245.193
 21
3.242529999999999
 31
0.0
  0
LINE
  5
10C
330
6F
100
AcDbEntity
  8
0
 62
     0
100
AcDbLine
 10
245.193
 20
3.242529999999999
 30
0.0
 11
245.499
 21
3.08543
 31
0.0
  0
LINE
  5
10D
330
6F
100
AcDbEntity
  8
0
 62
     0
100
AcDbLine
 10
245.499
 20
3.08543
 30
0.0
 11
245.839
 21
3.031679999999999
 31
0.0
  0
LINE
  5
10E
330
6F
100
AcDbEntity
  8
0
 62
     0
100
AcDbLine
 10
245.839
 20
3.031679999999999
 30
0.0
 11
246.18
 21
3.08543
 31
0.0
  0
LINE
  5
10F
330
6F
100
AcDbEntity
  8
0
 62
     0
100
AcDbLine
 10
246.18
 20
3.08543
 30
0.0
 11
246.487
 21
3.242529999999999
 31
0.0
  0
LINE
  5
110
330
6F
100
AcDbEntity
  8
0
 62
     0
100
AcDbLine
 10
246.487
 20
3.242529999999999
 30
0.0
 11
246.73
 21
3.485059999999999
 31
0.0
  0
LINE
  5
111
330
6F
100
AcDbEntity
  8
0
 62
     0
100
AcDbLine
 10
246.73
 20
3.485059999999999
 30
0.0
 11
246.885
 21
3.792359999999999
 31
0.0
  0
LINE
  5
112
330
6F
100
AcDbEntity
  8
0
 62
     0
100
AcDbLine
 10
246.885
 20
3.792359999999999
 30
0.0
 11
246.939
 21
4.13135
 31
0.0
  0
LINE
  5
113
330
6F
100
AcDbEntity
  8
0
 62
     0
100
AcDbLine
 10
246.939
 20
4.13135
 30
0.0
 11
246.885
 21
4.47174
 31
0.0
  0
LINE
  5
114
330
6F
100
AcDbEntity
  8
0
 62
     0
100
AcDbLine
 10
246.885
 20
4.47174
 30
0.0
 11
246.73
 21
4.777669999999999
 31
0.0
  0
LINE
  5
115
330
6F
100
AcDbEntity
  8
0
 62
     0
100
AcDbLine
 10
246.73
 20
4.777669999999999
 30
0.0
 11
246.487
 21
5.02158
 31
0.0
  0
LINE
  5
116
330
6F
100
AcDbEntity
  8
0
 62
     0
100
AcDbLine
 10
246.487
 20
5.02158
 30
0.0
 11
246.18
 21
5.180049999999999
 31
0.0
  0
LINE
  5
117
330
6F
100
AcDbEntity
  8
0
 62
     0
100
AcDbLine
 10
246.18
 20
5.180049999999999
 30
0.0
 11
245.839
 21
5.23102
 31
0.0
  0
LINE
  5
118
330
6F
100
AcDbEntity
  8
0
 62
     0
100
AcDbLine
 10
245.839
 20
5.23102
 30
0.0
 11
245.499
 21
5.180049999999999
 31
0.0
  0
LINE
  5
119
330
6F
100
AcDbEntity
  8
0
 62
     0
100
AcDbLine
 10
326.081
 20
5.180049999999999
 30
0.0
 11
325.775
 21
5.02158
 31
0.0
  0
LINE
  5
11A
330
6F
100
AcDbEntity
  8
0
 62
     0
100
AcDbLine
 10
325.775
 20
5.02158
 30
0.0
 11
325.531
 21
4.777669999999999
 31
0.0
  0
LINE
  5
11B
330
6F
100
AcDbEntity
  8
0
 62
     0
100
AcDbLine
 10
325.531
 20
4.777669999999999
 30
0.0
 11
325.374
 21
4.47174
 31
0.0
  0
LINE
  5
11C
330
6F
100
AcDbEntity
  8
0
 62
     0
100
AcDbLine
 10
325.374
 20
4.47174
 30
0.0
 11
325.322
 21
4.13135
 31
0.0
  0
LINE
  5
11D
330
6F
100
AcDbEntity
  8
0
 62
     0
100
AcDbLine
 10
325.322
 20
4.13135
 30
0.0
 11
325.374
 21
3.792359999999999
 31
0.0
  0
LINE
  5
11E
330
6F
100
AcDbEntity
  8
0
 62
     0
100
AcDbLine
 10
325.374
 20
3.792359999999999
 30
0.0
 11
325.531
 21
3.485059999999999
 31
0.0
  0
LINE
  5
11F
330
6F
100
AcDbEntity
  8
0
 62
     0
100
AcDbLine
 10
325.531
 20
3.485059999999999
 30
0.0
 11
325.775
 21
3.242529999999999
 31
0.0
  0
LINE
  5
120
330
6F
100
AcDbEntity
  8
0
 62
     0
100
AcDbLine
 10
325.775
 20
3.242529999999999
 30
0.0
 11
326.081
 21
3.08543
 31
0.0
  0
LINE
  5
121
330
6F
100
AcDbEntity
  8
0
 62
     0
100
AcDbLine
 10
326.081
 20
3.08543
 30
0.0
 11
326.421
 21
3.031679999999999
 31
0.0
  0
LINE
  5
122
330
6F
100
AcDbEntity
  8
0
 62
     0
100
AcDbLine
 10
326.421
 20
3.031679999999999
 30
0.0
 11
326.76
 21
3.08543
 31
0.0
  0
LINE
  5
123
330
6F
100
AcDbEntity
  8
0
 62
     0
100
AcDbLine
 10
326.76
 20
3.08543
 30
0.0
 11
327.068
 21
3.242529999999999
 31
0.0
  0
LINE
  5
124
330
6F
100
AcDbEntity
  8
0
 62
     0
100
AcDbLine
 10
327.068
 20
3.242529999999999
 30
0.0
 11
327.31
 21
3.485059999999999
 31
0.0
  0
LINE
  5
125
330
6F
100
AcDbEntity
  8
0
 62
     0
100
AcDbLine
 10
327.31
 20
3.485059999999999
 30
0.0
 11
327.467
 21
3.792359999999999
 31
0.0
  0
LINE
  5
126
330
6F
100
AcDbEntity
  8
0
 62
     0
100
AcDbLine
 10
327.467
 20
3.792359999999999
 30
0.0
 11
327.5209999999999
 21
4.13135
 31
0.0
  0
LINE
  5
127
330
6F
100
AcDbEntity
  8
0
 62
     0
100
AcDbLine
 10
327.5209999999999
 20
4.13135
 30
0.0
 11
327.467
 21
4.47174
 31
0.0
  0
LINE
  5
128
330
6F
100
AcDbEntity
  8
0
 62
     0
100
AcDbLine
 10
327.467
 20
4.47174
 30
0.0
 11
327.31
 21
4.777669999999999
 31
0.0
  0
LINE
  5
129
330
6F
100
AcDbEntity
  8
0
 62
     0
100
AcDbLine
 10
327.31
 20
4.777669999999999
 30
0.0
 11
327.068
 21
5.02158
 31
0.0
  0
LINE
  5
12A
330
6F
100
AcDbEntity
  8
0
 62
     0
100
AcDbLine
 10
327.068
 20
5.02158
 30
0.0
 11
326.76
 21
5.180049999999999
 31
0.0
  0
LINE
  5
12B
330
6F
100
AcDbEntity
  8
0
 62
     0
100
AcDbLine
 10
326.76
 20
5.180049999999999
 30
0.0
 11
326.421
 21
5.23102
 31
0.0
  0
LINE
  5
12C
330
6F
100
AcDbEntity
  8
0
 62
     0
100
AcDbLine
 10
326.421
 20
5.23102
 30
0.0
 11
326.081
 21
5.180049999999999
 31
0.0
  0
LINE
  5
12D
330
6F
100
AcDbEntity
  8
0
 62
     0
100
AcDbLine
 10
148.733
 20
24.6586
 30
0.0
 11
162.733
 21
24.6586
 31
0.0
  0
LINE
  5
12E
330
6F
100
AcDbEntity
  8
0
 62
     0
100
AcDbLine
 10
162.733
 20
24.6586
 30
0.0
 11
162.733
 21
10.6577
 31
0.0
  0
LINE
  5
12F
330
6F
100
AcDbEntity
  8
0
 62
     0
100
AcDbLine
 10
162.733
 20
10.6577
 30
0.0
 11
148.733
 21
10.6577
 31
0.0
  0
LINE
  5
130
330
6F
100
AcDbEntity
  8
0
 62
     0
100
AcDbLine
 10
148.733
 20
10.6577
 30
0.0
 11
148.733
 21
24.6586
 31
0.0
  0
LINE
  5
131
330
6F
100
AcDbEntity
  8
0
 62
     0
100
AcDbLine
 10
129.683
 20
24.6586
 30
0.0
 11
143.683
 21
24.6586
 31
0.0
  0
LINE
  5
132
330
6F
100
AcDbEntity
  8
0
 62
     0
100
AcDbLine
 10
143.683
 20
24.6586
 30
0.0
 11
143.683
 21
10.6577
 31
0.0
  0
LINE
  5
133
330
6F
100
AcDbEntity
  8
0
 62
     0
100
AcDbLine
 10
143.683
 20
10.6577
 30
0.0
 11
129.683
 21
10.6577
 31
0.0
  0
LINE
  5
134
330
6F
100
AcDbEntity
  8
0
 62
     0
100
AcDbLine
 10
129.683
 20
10.6577
 30
0.0
 11
129.683
 21
24.6586
 31
0.0
  0
LINE
  5
135
330
6F
100
AcDbEntity
  8
0
 62
     0
100
AcDbLine
 10
110.633
 20
24.6586
 30
0.0
 11
124.633
 21
24.6586
 31
0.0
  0
LINE
  5
136
330
6F
100
AcDbEntity
  8
0
 62
     0
100
AcDbLine
 10
124.633
 20
24.6586
 30
0.0
 11
124.633
 21
10.6577
 31
0.0
  0
LINE
  5
137
330
6F
100
AcDbEntity
  8
0
 62
     0
100
AcDbLine
 10
124.633
 20
10.6577
 30
0.0
 11
110.633
 21
10.6577
 31
0.0
  0
LINE
  5
138
330
6F
100
AcDbEntity
  8
0
 62
     0
100
AcDbLine
 10
110.633
 20
10.6577
 30
0.0
 11
110.633
 21
24.6586
 31
0.0
  0
LINE
  5
139
330
6F
100
AcDbEntity
  8
0
 62
     0
100
AcDbLine
 10
127.302
 20
43.7074
 30
0.0
 11
127.302
 21
39.0066
 31
0.0
  0
LINE
  5
13A
330
6F
100
AcDbEntity
  8
0
 62
     0
100
AcDbLine
 10
127.302
 20
39.0066
 30
0.0
 11
87.67619999999999
 21
39.0066
 31
0.0
  0
LINE
  5
13B
330
6F
100
AcDbEntity
  8
0
 62
     0
100
AcDbLine
 10
87.67619999999999
 20
39.0066
 30
0.0
 11
87.67619999999999
 21
42.237
 31
0.0
  0
LINE
  5
13C
330
6F
100
AcDbEntity
  8
0
 62
     0
100
AcDbLine
 10
87.67619999999999
 20
42.237
 30
0.0
 11
80.9265
 21
42.237
 31
0.0
  0
LINE
  5
13D
330
6F
100
AcDbEntity
  8
0
 62
     0
100
AcDbLine
 10
80.9265
 20
42.237
 30
0.0
 11
80.9265
 21
39.0066
 31
0.0
  0
LINE
  5
13E
330
6F
100
AcDbEntity
  8
0
 62
     0
100
AcDbLine
 10
80.9265
 20
39.0066
 30
0.0
 11
80.10139999999999
 21
39.0066
 31
0.0
  0
LINE
  5
13F
330
6F
100
AcDbEntity
  8
0
 62
     0
100
AcDbLine
 10
80.10139999999999
 20
39.0066
 30
0.0
 11
80.10139999999999
 21
36.2081
 31
0.0
  0
LINE
  5
140
330
6F
100
AcDbEntity
  8
0
 62
     0
100
AcDbLine
 10
80.10139999999999
 20
36.2081
 30
0.0
 11
80.9265
 21
36.2081
 31
0.0
  0
LINE
  5
141
330
6F
100
AcDbEntity
  8
0
 62
     0
100
AcDbLine
 10
80.9265
 20
36.2081
 30
0.0
 11
80.9265
 21
29.9379
 31
0.0
  0
LINE
  5
142
330
6F
100
AcDbEntity
  8
0
 62
     0
100
AcDbLine
 10
80.9265
 20
29.9379
 30
0.0
 11
82.652
 21
29.9379
 31
0.0
  0
LINE
  5
143
330
6F
100
AcDbEntity
  8
0
 62
     0
100
AcDbLine
 10
82.652
 20
29.9379
 30
0.0
 11
82.652
 21
28.7376
 31
0.0
  0
LINE
  5
144
330
6F
100
AcDbEntity
  8
0
 62
     0
100
AcDbLine
 10
82.652
 20
28.7376
 30
0.0
 11
85.9511
 21
28.7376
 31
0.0
  0
LINE
  5
145
330
6F
100
AcDbEntity
  8
0
 62
     0
100
AcDbLine
 10
85.9511
 20
28.7376
 30
0.0
 11
85.9511
 21
29.9379
 31
0.0
  0
LINE
  5
146
330
6F
100
AcDbEntity
  8
0
 62
     0
100
AcDbLine
 10
85.9511
 20
29.9379
 30
0.0
 11
87.67619999999999
 21
29.9379
 31
0.0
  0
LINE
  5
147
330
6F
100
AcDbEntity
  8
0
 62
     0
100
AcDbLine
 10
87.67619999999999
 20
29.9379
 30
0.0
 11
87.67619999999999
 21
34.4083
 31
0.0
  0
LINE
  5
148
330
6F
100
AcDbEntity
  8
0
 62
     0
100
AcDbLine
 10
87.67619999999999
 20
34.4083
 30
0.0
 11
127.302
 21
34.4083
 31
0.0
  0
LINE
  5
149
330
6F
100
AcDbEntity
  8
0
 62
     0
100
AcDbLine
 10
127.302
 20
34.4083
 30
0.0
 11
127.302
 21
29.7077
 31
0.0
  0
LINE
  5
14A
330
6F
100
AcDbEntity
  8
0
 62
     0
100
AcDbLine
 10
127.302
 20
29.7077
 30
0.0
 11
141.301
 21
29.7077
 31
0.0
  0
LINE
  5
14B
330
6F
100
AcDbEntity
  8
0
 62
     0
100
AcDbLine
 10
141.301
 20
29.7077
 30
0.0
 11
141.301
 21
34.4083
 31
0.0
  0
LINE
  5
14C
330
6F
100
AcDbEntity
  8
0
 62
     0
100
AcDbLine
 10
141.301
 20
34.4083
 30
0.0
 11
180.927
 21
34.4083
 31
0.0
  0
LINE
  5
14D
330
6F
100
AcDbEntity
  8
0
 62
     0
100
AcDbLine
 10
180.927
 20
34.4083
 30
0.0
 11
180.927
 21
29.9379
 31
0.0
  0
LINE
  5
14E
330
6F
100
AcDbEntity
  8
0
 62
     0
100
AcDbLine
 10
180.927
 20
29.9379
 30
0.0
 11
182.652
 21
29.9379
 31
0.0
  0
LINE
  5
14F
330
6F
100
AcDbEntity
  8
0
 62
     0
100
AcDbLine
 10
182.652
 20
29.9379
 30
0.0
 11
182.652
 21
28.7376
 31
0.0
  0
LINE
  5
150
330
6F
100
AcDbEntity
  8
0
 62
     0
100
AcDbLine
 10
182.652
 20
28.7376
 30
0.0
 11
185.951
 21
28.7376
 31
0.0
  0
LINE
  5
151
330
6F
100
AcDbEntity
  8
0
 62
     0
100
AcDbLine
 10
185.951
 20
28.7376
 30
0.0
 11
185.951
 21
29.9379
 31
0.0
  0
LINE
  5
152
330
6F
100
AcDbEntity
  8
0
 62
     0
100
AcDbLine
 10
185.951
 20
29.9379
 30
0.0
 11
187.676
 21
29.9379
 31
0.0
  0
LINE
  5
153
330
6F
100
AcDbEntity
  8
0
 62
     0
100
AcDbLine
 10
187.676
 20
29.9379
 30
0.0
 11
187.676
 21
36.2081
 31
0.0
  0
LINE
  5
154
330
6F
100
AcDbEntity
  8
0
 62
     0
100
AcDbLine
 10
187.676
 20
36.2081
 30
0.0
 11
188.502
 21
36.2081
 31
0.0
  0
LINE
  5
155
330
6F
100
AcDbEntity
  8
0
 62
     0
100
AcDbLine
 10
188.502
 20
36.2081
 30
0.0
 11
188.502
 21
39.0066
 31
0.0
  0
LINE
  5
156
330
6F
100
AcDbEntity
  8
0
 62
     0
100
AcDbLine
 10
188.502
 20
39.0066
 30
0.0
 11
187.676
 21
39.0066
 31
0.0
  0
LINE
  5
157
330
6F
100
AcDbEntity
  8
0
 62
     0
100
AcDbLine
 10
187.676
 20
39.0066
 30
0.0
 11
187.676
 21
42.237
 31
0.0
  0
LINE
  5
158
330
6F
100
AcDbEntity
  8
0
 62
     0
100
AcDbLine
 10
187.676
 20
42.237
 30
0.0
 11
180.927
 21
42.237
 31
0.0
  0
LINE
  5
159
330
6F
100
AcDbEntity
  8
0
 62
     0
100
AcDbLine
 10
180.927
 20
42.237
 30
0.0
 11
180.927
 21
39.0066
 31
0.0
  0
LINE
  5
15A
330
6F
100
AcDbEntity
  8
0
 62
     0
100
AcDbLine
 10
180.927
 20
39.0066
 30
0.0
 11
141.301
 21
39.0066
 31
0.0
  0
LINE
  5
15B
330
6F
100
AcDbEntity
  8
0
 62
     0
100
AcDbLine
 10
141.301
 20
39.0066
 30
0.0
 11
141.301
 21
43.7074
 31
0.0
  0
LINE
  5
15C
330
6F
100
AcDbEntity
  8
0
 62
     0
100
AcDbLine
 10
141.301
 20
43.7074
 30
0.0
 11
127.302
 21
43.7074
 31
0.0
  0
LINE
  5
15D
330
6F
100
AcDbEntity
  8
0
 62
     0
100
AcDbLine
 10
305.895
 20
43.7074
 30
0.0
 11
319.895
 21
43.7074
 31
0.0
  0
LINE
  5
15E
330
6F
100
AcDbEntity
  8
0
 62
     0
100
AcDbLine
 10
319.895
 20
43.7074
 30
0.0
 11
319.895
 21
29.7077
 31
0.0
  0
LINE
  5
15F
330
6F
100
AcDbEntity
  8
0
 62
     0
100
AcDbLine
 10
319.895
 20
29.7077
 30
0.0
 11
305.895
 21
29.7077
 31
0.0
  0
LINE
  5
160
330
6F
100
AcDbEntity
  8
0
 62
     0
100
AcDbLine
 10
305.895
 20
29.7077
 30
0.0
 11
305.895
 21
43.7074
 31
0.0
  0
LINE
  5
161
330
6F
100
AcDbEntity
  8
0
 62
     0
100
AcDbLine
 10
286.845
 20
43.7074
 30
0.0
 11
300.845
 21
43.7074
 31
0.0
  0
LINE
  5
162
330
6F
100
AcDbEntity
  8
0
 62
     0
100
AcDbLine
 10
300.845
 20
43.7074
 30
0.0
 11
300.845
 21
29.7077
 31
0.0
  0
LINE
  5
163
330
6F
100
AcDbEntity
  8
0
 62
     0
100
AcDbLine
 10
300.845
 20
29.7077
 30
0.0
 11
286.845
 21
29.7077
 31
0.0
  0
LINE
  5
164
330
6F
100
AcDbEntity
  8
0
 62
     0
100
AcDbLine
 10
286.845
 20
29.7077
 30
0.0
 11
286.845
 21
43.7074
 31
0.0
  0
LINE
  5
165
330
6F
100
AcDbEntity
  8
0
 62
     0
100
AcDbLine
 10
267.795
 20
43.7074
 30
0.0
 11
281.795
 21
43.7074
 31
0.0
  0
LINE
  5
166
330
6F
100
AcDbEntity
  8
0
 62
     0
100
AcDbLine
 10
281.795
 20
43.7074
 30
0.0
 11
281.795
 21
29.7077
 31
0.0
  0
LINE
  5
167
330
6F
100
AcDbEntity
  8
0
 62
     0
100
AcDbLine
 10
281.795
 20
29.7077
 30
0.0
 11
267.795
 21
29.7077
 31
0.0
  0
LINE
  5
168
330
6F
100
AcDbEntity
  8
0
 62
     0
100
AcDbLine
 10
267.795
 20
29.7077
 30
0.0
 11
267.795
 21
43.7074
 31
0.0
  0
LINE
  5
169
330
6F
100
AcDbEntity
  8
0
 62
     0
100
AcDbLine
 10
246.363
 20
43.7074
 30
0.0
 11
260.364
 21
43.7074
 31
0.0
  0
LINE
  5
16A
330
6F
100
AcDbEntity
  8
0
 62
     0
100
AcDbLine
 10
260.364
 20
43.7074
 30
0.0
 11
260.364
 21
29.7077
 31
0.0
  0
LINE
  5
16B
330
6F
100
AcDbEntity
  8
0
 62
     0
100
AcDbLine
 10
260.364
 20
29.7077
 30
0.0
 11
246.363
 21
29.7077
 31
0.0
  0
LINE
  5
16C
330
6F
100
AcDbEntity
  8
0
 62
     0
100
AcDbLine
 10
246.363
 20
29.7077
 30
0.0
 11
246.363
 21
43.7074
 31
0.0
  0
LINE
  5
16D
330
6F
100
AcDbEntity
  8
0
 62
     0
100
AcDbLine
 10
222.552
 20
43.7074
 30
0.0
 11
236.551
 21
43.7074
 31
0.0
  0
LINE
  5
16E
330
6F
100
AcDbEntity
  8
0
 62
     0
100
AcDbLine
 10
236.551
 20
43.7074
 30
0.0
 11
236.551
 21
29.7077
 31
0.0
  0
LINE
  5
16F
330
6F
100
AcDbEntity
  8
0
 62
     0
100
AcDbLine
 10
236.551
 20
29.7077
 30
0.0
 11
222.552
 21
29.7077
 31
0.0
  0
LINE
  5
170
330
6F
100
AcDbEntity
  8
0
 62
     0
100
AcDbLine
 10
222.552
 20
29.7077
 30
0.0
 11
222.552
 21
43.7074
 31
0.0
  0
LINE
  5
171
330
6F
100
AcDbEntity
  8
0
 62
     0
100
AcDbLine
 10
198.738
 20
43.7074
 30
0.0
 11
212.739
 21
43.7074
 31
0.0
  0
LINE
  5
172
330
6F
100
AcDbEntity
  8
0
 62
     0
100
AcDbLine
 10
212.739
 20
43.7074
 30
0.0
 11
212.739
 21
29.7077
 31
0.0
  0
LINE
  5
173
330
6F
100
AcDbEntity
  8
0
 62
     0
100
AcDbLine
 10
212.739
 20
29.7077
 30
0.0
 11
198.738
 21
29.7077
 31
0.0
  0
LINE
  5
174
330
6F
100
AcDbEntity
  8
0
 62
     0
100
AcDbLine
 10
198.738
 20
29.7077
 30
0.0
 11
198.738
 21
43.7074
 31
0.0
  0
LINE
  5
175
330
6F
100
AcDbEntity
  8
0
 62
     0
100
AcDbLine
 10
55.8631
 20
43.7074
 30
0.0
 11
69.8638
 21
43.7074
 31
0.0
  0
LINE
  5
176
330
6F
100
AcDbEntity
  8
0
 62
     0
100
AcDbLine
 10
69.8638
 20
43.7074
 30
0.0
 11
69.8638
 21
29.7077
 31
0.0
  0
LINE
  5
177
330
6F
100
AcDbEntity
  8
0
 62
     0
100
AcDbLine
 10
69.8638
 20
29.7077
 30
0.0
 11
55.8631
 21
29.7077
 31
0.0
  0
LINE
  5
178
330
6F
100
AcDbEntity
  8
0
 62
     0
100
AcDbLine
 10
55.8631
 20
29.7077
 30
0.0
 11
55.8631
 21
43.7074
 31
0.0
  0
LINE
  5
179
330
6F
100
AcDbEntity
  8
0
 62
     0
100
AcDbLine
 10
34.4331
 20
43.7074
 30
0.0
 11
48.4325
 21
43.7074
 31
0.0
  0
LINE
  5
17A
330
6F
100
AcDbEntity
  8
0
 62
     0
100
AcDbLine
 10
48.4325
 20
43.7074
 30
0.0
 11
48.4325
 21
29.7077
 31
0.0
  0
LINE
  5
17B
330
6F
100
AcDbEntity
  8
0
 62
     0
100
AcDbLine
 10
48.4325
 20
29.7077
 30
0.0
 11
34.4331
 21
29.7077
 31
0.0
  0
LINE
  5
17C
330
6F
100
AcDbEntity
  8
0
 62
     0
100
AcDbLine
 10
34.4331
 20
29.7077
 30
0.0
 11
34.4331
 21
43.7074
 31
0.0
  0
LINE
  5
17D
330
6F
100
AcDbEntity
  8
0
 62
     0
100
AcDbLine
 10
13.0018
 20
43.7074
 30
0.0
 11
27.0013
 21
43.7074
 31
0.0
  0
LINE
  5
17E
330
6F
100
AcDbEntity
  8
0
 62
     0
100
AcDbLine
 10
27.0013
 20
43.7074
 30
0.0
 11
27.0013
 21
29.7077
 31
0.0
  0
LINE
  5
17F
330
6F
100
AcDbEntity
  8
0
 62
     0
100
AcDbLine
 10
27.0013
 20
29.7077
 30
0.0
 11
13.0018
 21
29.7077
 31
0.0
  0
LINE
  5
180
330
6F
100
AcDbEntity
  8
0
 62
     0
100
AcDbLine
 10
13.0018
 20
29.7077
 30
0.0
 11
13.0018
 21
43.7074
 31
0.0
  0
LINE
  5
181
330
6F
100
AcDbEntity
  8
0
 62
     0
100
AcDbLine
 10
255.888
 20
62.75739999999999
 30
0.0
 11
255.888
 21
58.0566
 31
0.0
  0
LINE
  5
182
330
6F
100
AcDbEntity
  8
0
 62
     0
100
AcDbLine
 10
255.888
 20
58.0566
 30
0.0
 11
254.362
 21
58.0566
 31
0.0
  0
LINE
  5
183
330
6F
100
AcDbEntity
  8
0
 62
     0
100
AcDbLine
 10
254.362
 20
58.0566
 30
0.0
 11
254.362
 21
61.287
 31
0.0
  0
LINE
  5
184
330
6F
100
AcDbEntity
  8
0
 62
     0
100
AcDbLine
 10
254.362
 20
61.287
 30
0.0
 11
247.614
 21
61.287
 31
0.0
  0
LINE
  5
185
330
6F
100
AcDbEntity
  8
0
 62
     0
100
AcDbLine
 10
247.614
 20
61.287
 30
0.0
 11
247.614
 21
58.0566
 31
0.0
  0
LINE
  5
186
330
6F
100
AcDbEntity
  8
0
 62
     0
100
AcDbLine
 10
247.614
 20
58.0566
 30
0.0
 11
246.789
 21
58.0566
 31
0.0
  0
LINE
  5
187
330
6F
100
AcDbEntity
  8
0
 62
     0
100
AcDbLine
 10
246.789
 20
58.0566
 30
0.0
 11
246.789
 21
55.25809999999999
 31
0.0
  0
LINE
  5
188
330
6F
100
AcDbEntity
  8
0
 62
     0
100
AcDbLine
 10
246.789
 20
55.25809999999999
 30
0.0
 11
247.614
 21
55.25809999999999
 31
0.0
  0
LINE
  5
189
330
6F
100
AcDbEntity
  8
0
 62
     0
100
AcDbLine
 10
247.614
 20
55.25809999999999
 30
0.0
 11
247.614
 21
48.9878
 31
0.0
  0
LINE
  5
18A
330
6F
100
AcDbEntity
  8
0
 62
     0
100
AcDbLine
 10
247.614
 20
48.9878
 30
0.0
 11
249.338
 21
48.9878
 31
0.0
  0
LINE
  5
18B
330
6F
100
AcDbEntity
  8
0
 62
     0
100
AcDbLine
 10
249.338
 20
48.9878
 30
0.0
 11
249.338
 21
47.7876
 31
0.0
  0
LINE
  5
18C
330
6F
100
AcDbEntity
  8
0
 62
     0
100
AcDbLine
 10
249.338
 20
47.7876
 30
0.0
 11
252.639
 21
47.7876
 31
0.0
  0
LINE
  5
18D
330
6F
100
AcDbEntity
  8
0
 62
     0
100
AcDbLine
 10
252.639
 20
47.7876
 30
0.0
 11
252.639
 21
48.9878
 31
0.0
  0
LINE
  5
18E
330
6F
100
AcDbEntity
  8
0
 62
     0
100
AcDbLine
 10
252.639
 20
48.9878
 30
0.0
 11
254.362
 21
48.9878
 31
0.0
  0
LINE
  5
18F
330
6F
100
AcDbEntity
  8
0
 62
     0
100
AcDbLine
 10
254.362
 20
48.9878
 30
0.0
 11
254.362
 21
53.4568
 31
0.0
  0
LINE
  5
190
330
6F
100
AcDbEntity
  8
0
 62
     0
100
AcDbLine
 10
254.362
 20
53.4568
 30
0.0
 11
255.888
 21
53.4568
 31
0.0
  0
LINE
  5
191
330
6F
100
AcDbEntity
  8
0
 62
     0
100
AcDbLine
 10
255.888
 20
53.4568
 30
0.0
 11
255.888
 21
48.7578
 31
0.0
  0
LINE
  5
192
330
6F
100
AcDbEntity
  8
0
 62
     0
100
AcDbLine
 10
255.888
 20
48.7578
 30
0.0
 11
269.889
 21
48.7578
 31
0.0
  0
LINE
  5
193
330
6F
100
AcDbEntity
  8
0
 62
     0
100
AcDbLine
 10
269.889
 20
48.7578
 30
0.0
 11
269.889
 21
53.4568
 31
0.0
  0
LINE
  5
194
330
6F
100
AcDbEntity
  8
0
 62
     0
100
AcDbLine
 10
269.889
 20
53.4568
 30
0.0
 11
271.413
 21
53.4568
 31
0.0
  0
LINE
  5
195
330
6F
100
AcDbEntity
  8
0
 62
     0
100
AcDbLine
 10
271.413
 20
53.4568
 30
0.0
 11
271.413
 21
48.9878
 31
0.0
  0
LINE
  5
196
330
6F
100
AcDbEntity
  8
0
 62
     0
100
AcDbLine
 10
271.413
 20
48.9878
 30
0.0
 11
273.138
 21
48.9878
 31
0.0
  0
LINE
  5
197
330
6F
100
AcDbEntity
  8
0
 62
     0
100
AcDbLine
 10
273.138
 20
48.9878
 30
0.0
 11
273.138
 21
47.7876
 31
0.0
  0
LINE
  5
198
330
6F
100
AcDbEntity
  8
0
 62
     0
100
AcDbLine
 10
273.138
 20
47.7876
 30
0.0
 11
276.438
 21
47.7876
 31
0.0
  0
LINE
  5
199
330
6F
100
AcDbEntity
  8
0
 62
     0
100
AcDbLine
 10
276.438
 20
47.7876
 30
0.0
 11
276.438
 21
48.9878
 31
0.0
  0
LINE
  5
19A
330
6F
100
AcDbEntity
  8
0
 62
     0
100
AcDbLine
 10
276.438
 20
48.9878
 30
0.0
 11
278.164
 21
48.9878
 31
0.0
  0
LINE
  5
19B
330
6F
100
AcDbEntity
  8
0
 62
     0
100
AcDbLine
 10
278.164
 20
48.9878
 30
0.0
 11
278.164
 21
55.25809999999999
 31
0.0
  0
LINE
  5
19C
330
6F
100
AcDbEntity
  8
0
 62
     0
100
AcDbLine
 10
278.164
 20
55.25809999999999
 30
0.0
 11
278.988
 21
55.25809999999999
 31
0.0
  0
LINE
  5
19D
330
6F
100
AcDbEntity
  8
0
 62
     0
100
AcDbLine
 10
278.988
 20
55.25809999999999
 30
0.0
 11
278.988
 21
58.0566
 31
0.0
  0
LINE
  5
19E
330
6F
100
AcDbEntity
  8
0
 62
     0
100
AcDbLine
 10
278.988
 20
58.0566
 30
0.0
 11
278.164
 21
58.0566
 31
0.0
  0
LINE
  5
19F
330
6F
100
AcDbEntity
  8
0
 62
     0
100
AcDbLine
 10
278.164
 20
58.0566
 30
0.0
 11
278.164
 21
61.287
 31
0.0
  0
LINE
  5
1A0
330
6F
100
AcDbEntity
  8
0
 62
     0
100
AcDbLine
 10
278.164
 20
61.287
 30
0.0
 11
271.413
 21
61.287
 31
0.0
  0
LINE
  5
1A1
330
6F
100
AcDbEntity
  8
0
 62
     0
100
AcDbLine
 10
271.413
 20
61.287
 30
0.0
 11
271.413
 21
58.0566
 31
0.0
  0
LINE
  5
1A2
330
6F
100
AcDbEntity
  8
0
 62
     0
100
AcDbLine
 10
271.413
 20
58.0566
 30
0.0
 11
269.889
 21
58.0566
 31
0.0
  0
LINE
  5
1A3
330
6F
100
AcDbEntity
  8
0
 62
     0
100
AcDbLine
 10
269.889
 20
58.0566
 30
0.0
 11
269.889
 21
62.75739999999999
 31
0.0
  0
LINE
  5
1A4
330
6F
100
AcDbEntity
  8
0
 62
     0
100
AcDbLine
 10
269.889
 20
62.75739999999999
 30
0.0
 11
255.888
 21
62.75739999999999
 31
0.0
  0
LINE
  5
1A5
330
6F
100
AcDbEntity
  8
0
 62
     0
100
AcDbLine
 10
22.5268
 20
62.75739999999999
 30
0.0
 11
22.5268
 21
58.0566
 31
0.0
  0
LINE
  5
1A6
330
6F
100
AcDbEntity
  8
0
 62
     0
100
AcDbLine
 10
22.5268
 20
58.0566
 30
0.0
 11
21.0013
 21
58.0566
 31
0.0
  0
LINE
  5
1A7
330
6F
100
AcDbEntity
  8
0
 62
     0
100
AcDbLine
 10
21.0013
 20
58.0566
 30
0.0
 11
21.0013
 21
61.287
 31
0.0
  0
LINE
  5
1A8
330
6F
100
AcDbEntity
  8
0
 62
     0
100
AcDbLine
 10
21.0013
 20
61.287
 30
0.0
 11
14.2517
 21
61.287
 31
0.0
  0
LINE
  5
1A9
330
6F
100
AcDbEntity
  8
0
 62
     0
100
AcDbLine
 10
14.2517
 20
61.287
 30
0.0
 11
14.2517
 21
58.0566
 31
0.0
  0
LINE
  5
1AA
330
6F
100
AcDbEntity
  8
0
 62
     0
100
AcDbLine
 10
14.2517
 20
58.0566
 30
0.0
 11
13.4262
 21
58.0566
 31
0.0
  0
LINE
  5
1AB
330
6F
100
AcDbEntity
  8
0
 62
     0
100
AcDbLine
 10
13.4262
 20
58.0566
 30
0.0
 11
13.4262
 21
55.25809999999999
 31
0.0
  0
LINE
  5
1AC
330
6F
100
AcDbEntity
  8
0
 62
     0
100
AcDbLine
 10
13.4262
 20
55.25809999999999
 30
0.0
 11
14.2517
 21
55.25809999999999
 31
0.0
  0
LINE
  5
1AD
330
6F
100
AcDbEntity
  8
0
 62
     0
100
AcDbLine
 10
14.2517
 20
55.25809999999999
 30
0.0
 11
14.2517
 21
48.9878
 31
0.0
  0
LINE
  5
1AE
330
6F
100
AcDbEntity
  8
0
 62
     0
100
AcDbLine
 10
14.2517
 20
48.9878
 30
0.0
 11
15.977
 21
48.9878
 31
0.0
  0
LINE
  5
1AF
330
6F
100
AcDbEntity
  8
0
 62
     0
100
AcDbLine
 10
15.977
 20
48.9878
 30
0.0
 11
15.977
 21
47.7876
 31
0.0
  0
LINE
  5
1B0
330
6F
100
AcDbEntity
  8
0
 62
     0
100
AcDbLine
 10
15.977
 20
47.7876
 30
0.0
 11
19.276
 21
47.7876
 31
0.0
  0
LINE
  5
1B1
330
6F
100
AcDbEntity
  8
0
 62
     0
100
AcDbLine
 10
19.276
 20
47.7876
 30
0.0
 11
19.276
 21
48.9878
 31
0.0
  0
LINE
  5
1B2
330
6F
100
AcDbEntity
  8
0
 62
     0
100
AcDbLine
 10
19.276
 20
48.9878
 30
0.0
 11
21.0013
 21
48.9878
 31
0.0
  0
LINE
  5
1B3
330
6F
100
AcDbEntity
  8
0
 62
     0
100
AcDbLine
 10
21.0013
 20
48.9878
 30
0.0
 11
21.0013
 21
53.4568
 31
0.0
  0
LINE
  5
1B4
330
6F
100
AcDbEntity
  8
0
 62
     0
100
AcDbLine
 10
21.0013
 20
53.4568
 30
0.0
 11
22.5268
 21
53.4568
 31
0.0
  0
LINE
  5
1B5
330
6F
100
AcDbEntity
  8
0
 62
     0
100
AcDbLine
 10
22.5268
 20
53.4568
 30
0.0
 11
22.5268
 21
48.7578
 31
0.0
  0
LINE
  5
1B6
330
6F
100
AcDbEntity
  8
0
 62
     0
100
AcDbLine
 10
22.5268
 20
48.7578
 30
0.0
 11
36.5263
 21
48.7578
 31
0.0
  0
LINE
  5
1B7
330
6F
100
AcDbEntity
  8
0
 62
     0
100
AcDbLine
 10
36.5263
 20
48.7578
 30
0.0
 11
36.5263
 21
53.4568
 31
0.0
  0
LINE
  5
1B8
330
6F
100
AcDbEntity
  8
0
 62
     0
100
AcDbLine
 10
36.5263
 20
53.4568
 30
0.0
 11
38.0517
 21
53.4568
 31
0.0
  0
LINE
  5
1B9
330
6F
100
AcDbEntity
  8
0
 62
     0
100
AcDbLine
 10
38.0517
 20
53.4568
 30
0.0
 11
38.0517
 21
48.9878
 31
0.0
  0
LINE
  5
1BA
330
6F
100
AcDbEntity
  8
0
 62
     0
100
AcDbLine
 10
38.0517
 20
48.9878
 30
0.0
 11
39.7771
 21
48.9878
 31
0.0
  0
LINE
  5
1BB
330
6F
100
AcDbEntity
  8
0
 62
     0
100
AcDbLine
 10
39.7771
 20
48.9878
 30
0.0
 11
39.7771
 21
47.7876
 31
0.0
  0
LINE
  5
1BC
330
6F
100
AcDbEntity
  8
0
 62
     0
100
AcDbLine
 10
39.7771
 20
47.7876
 30
0.0
 11
43.0759
 21
47.7876
 31
0.0
  0
LINE
  5
1BD
330
6F
100
AcDbEntity
  8
0
 62
     0
100
AcDbLine
 10
43.0759
 20
47.7876
 30
0.0
 11
43.0759
 21
48.9878
 31
0.0
  0
LINE
  5
1BE
330
6F
100
AcDbEntity
  8
0
 62
     0
100
AcDbLine
 10
43.0759
 20
48.9878
 30
0.0
 11
44.8014
 21
48.9878
 31
0.0
  0
LINE
  5
1BF
330
6F
100
AcDbEntity
  8
0
 62
     0
100
AcDbLine
 10
44.8014
 20
48.9878
 30
0.0
 11
44.8014
 21
55.25809999999999
 31
0.0
  0
LINE
  5
1C0
330
6F
100
AcDbEntity
  8
0
 62
     0
100
AcDbLine
 10
44.8014
 20
55.25809999999999
 30
0.0
 11
45.62689999999999
 21
55.25809999999999
 31
0.0
  0
LINE
  5
1C1
330
6F
100
AcDbEntity
  8
0
 62
     0
100
AcDbLine
 10
45.62689999999999
 20
55.25809999999999
 30
0.0
 11
45.62689999999999
 21
58.0566
 31
0.0
  0
LINE
  5
1C2
330
6F
100
AcDbEntity
  8
0
 62
     0
100
AcDbLine
 10
45.62689999999999
 20
58.0566
 30
0.0
 11
44.8014
 21
58.0566
 31
0.0
  0
LINE
  5
1C3
330
6F
100
AcDbEntity
  8
0
 62
     0
100
AcDbLine
 10
44.8014
 20
58.0566
 30
0.0
 11
44.8014
 21
61.287
 31
0.0
  0
LINE
  5
1C4
330
6F
100
AcDbEntity
  8
0
 62
     0
100
AcDbLine
 10
44.8014
 20
61.287
 30
0.0
 11
38.0517
 21
61.287
 31
0.0
  0
LINE
  5
1C5
330
6F
100
AcDbEntity
  8
0
 62
     0
100
AcDbLine
 10
38.0517
 20
61.287
 30
0.0
 11
38.0517
 21
58.0566
 31
0.0
  0
LINE
  5
1C6
330
6F
100
AcDbEntity
  8
0
 62
     0
100
AcDbLine
 10
38.0517
 20
58.0566
 30
0.0
 11
36.5263
 21
58.0566
 31
0.0
  0
LINE
  5
1C7
330
6F
100
AcDbEntity
  8
0
 62
     0
100
AcDbLine
 10
36.5263
 20
58.0566
 30
0.0
 11
36.5263
 21
62.75739999999999
 31
0.0
  0
LINE
  5
1C8
330
6F
100
AcDbEntity
  8
0
 62
     0
100
AcDbLine
 10
36.5263
 20
62.75739999999999
 30
0.0
 11
22.5268
 21
62.75739999999999
 31
0.0
  0
LINE
  5
1C9
330
6F
100
AcDbEntity
  8
0
 62
     0
100
AcDbLine
 10
286.845
 20
62.75739999999999
 30
0.0
 11
300.845
 21
62.75739999999999
 31
0.0
  0
LINE
  5
1CA
330
6F
100
AcDbEntity
  8
0
 62
     0
100
AcDbLine
 10
300.845
 20
62.75739999999999
 30
0.0
 11
300.845
 21
48.7578
 31
0.0
  0
LINE
  5
1CB
330
6F
100
AcDbEntity
  8
0
 62
     0
100
AcDbLine
 10
300.845
 20
48.7578
 30
0.0
 11
286.845
 21
48.7578
 31
0.0
  0
LINE
  5
1CC
330
6F
100
AcDbEntity
  8
0
 62
     0
100
AcDbLine
 10
286.845
 20
48.7578
 30
0.0
 11
286.845
 21
62.75739999999999
 31
0.0
  0
LINE
  5
1CD
330
6F
100
AcDbEntity
  8
0
 62
     0
100
AcDbLine
 10
224.933
 20
62.75739999999999
 30
0.0
 11
238.933
 21
62.75739999999999
 31
0.0
  0
LINE
  5
1CE
330
6F
100
AcDbEntity
  8
0
 62
     0
100
AcDbLine
 10
238.933
 20
62.75739999999999
 30
0.0
 11
238.933
 21
48.7578
 31
0.0
  0
LINE
  5
1CF
330
6F
100
AcDbEntity
  8
0
 62
     0
100
AcDbLine
 10
238.933
 20
48.7578
 30
0.0
 11
224.933
 21
48.7578
 31
0.0
  0
LINE
  5
1D0
330
6F
100
AcDbEntity
  8
0
 62
     0
100
AcDbLine
 10
224.933
 20
48.7578
 30
0.0
 11
224.933
 21
62.75739999999999
 31
0.0
  0
LINE
  5
1D1
330
6F
100
AcDbEntity
  8
0
 62
     0
100
AcDbLine
 10
205.883
 20
62.75739999999999
 30
0.0
 11
219.883
 21
62.75739999999999
 31
0.0
  0
LINE
  5
1D2
330
6F
100
AcDbEntity
  8
0
 62
     0
100
AcDbLine
 10
219.883
 20
62.75739999999999
 30
0.0
 11
219.883
 21
48.7578
 31
0.0
  0
LINE
  5
1D3
330
6F
100
AcDbEntity
  8
0
 62
     0
100
AcDbLine
 10
219.883
 20
48.7578
 30
0.0
 11
205.883
 21
48.7578
 31
0.0
  0
LINE
  5
1D4
330
6F
100
AcDbEntity
  8
0
 62
     0
100
AcDbLine
 10
205.883
 20
48.7578
 30
0.0
 11
205.883
 21
62.75739999999999
 31
0.0
  0
LINE
  5
1D5
330
6F
100
AcDbEntity
  8
0
 62
     0
100
AcDbLine
 10
186.833
 20
62.75739999999999
 30
0.0
 11
200.833
 21
62.75739999999999
 31
0.0
  0
LINE
  5
1D6
330
6F
100
AcDbEntity
  8
0
 62
     0
100
AcDbLine
 10
200.833
 20
62.75739999999999
 30
0.0
 11
200.833
 21
48.7578
 31
0.0
  0
LINE
  5
1D7
330
6F
100
AcDbEntity
  8
0
 62
     0
100
AcDbLine
 10
200.833
 20
48.7578
 30
0.0
 11
186.833
 21
48.7578
 31
0.0
  0
LINE
  5
1D8
330
6F
100
AcDbEntity
  8
0
 62
     0
100
AcDbLine
 10
186.833
 20
48.7578
 30
0.0
 11
186.833
 21
62.75739999999999
 31
0.0
  0
LINE
  5
1D9
330
6F
100
AcDbEntity
  8
0
 62
     0
100
AcDbLine
 10
167.783
 20
62.75739999999999
 30
0.0
 11
181.783
 21
62.75739999999999
 31
0.0
  0
LINE
  5
1DA
330
6F
100
AcDbEntity
  8
0
 62
     0
100
AcDbLine
 10
181.783
 20
62.75739999999999
 30
0.0
 11
181.783
 21
48.7578
 31
0.0
  0
LINE
  5
1DB
330
6F
100
AcDbEntity
  8
0
 62
     0
100
AcDbLine
 10
181.783
 20
48.7578
 30
0.0
 11
167.783
 21
48.7578
 31
0.0
  0
LINE
  5
1DC
330
6F
100
AcDbEntity
  8
0
 62
     0
100
AcDbLine
 10
167.783
 20
48.7578
 30
0.0
 11
167.783
 21
62.75739999999999
 31
0.0
  0
LINE
  5
1DD
330
6F
100
AcDbEntity
  8
0
 62
     0
100
AcDbLine
 10
148.733
 20
62.75739999999999
 30
0.0
 11
162.733
 21
62.75739999999999
 31
0.0
  0
LINE
  5
1DE
330
6F
100
AcDbEntity
  8
0
 62
     0
100
AcDbLine
 10
162.733
 20
62.75739999999999
 30
0.0
 11
162.733
 21
48.7578
 31
0.0
  0
LINE
  5
1DF
330
6F
100
AcDbEntity
  8
0
 62
     0
100
AcDbLine
 10
162.733
 20
48.7578
 30
0.0
 11
148.733
 21
48.7578
 31
0.0
  0
LINE
  5
1E0
330
6F
100
AcDbEntity
  8
0
 62
     0
100
AcDbLine
 10
148.733
 20
48.7578
 30
0.0
 11
148.733
 21
62.75739999999999
 31
0.0
  0
LINE
  5
1E1
330
6F
100
AcDbEntity
  8
0
 62
     0
100
AcDbLine
 10
129.683
 20
62.75739999999999
 30
0.0
 11
143.683
 21
62.75739999999999
 31
0.0
  0
LINE
  5
1E2
330
6F
100
AcDbEntity
  8
0
 62
     0
100
AcDbLine
 10
143.683
 20
62.75739999999999
 30
0.0
 11
143.683
 21
48.7578
 31
0.0
  0
LINE
  5
1E3
330
6F
100
AcDbEntity
  8
0
 62
     0
100
AcDbLine
 10
143.683
 20
48.7578
 30
0.0
 11
129.683
 21
48.7578
 31
0.0
  0
LINE
  5
1E4
330
6F
100
AcDbEntity
  8
0
 62
     0
100
AcDbLine
 10
129.683
 20
48.7578
 30
0.0
 11
129.683
 21
62.75739999999999
 31
0.0
  0
LINE
  5
1E5
330
6F
100
AcDbEntity
  8
0
 62
     0
100
AcDbLine
 10
110.633
 20
62.75739999999999
 30
0.0
 11
124.633
 21
62.75739999999999
 31
0.0
  0
LINE
  5
1E6
330
6F
100
AcDbEntity
  8
0
 62
     0
100
AcDbLine
 10
124.633
 20
62.75739999999999
 30
0.0
 11
124.633
 21
48.7578
 31
0.0
  0
LINE
  5
1E7
330
6F
100
AcDbEntity
  8
0
 62
     0
100
AcDbLine
 10
124.633
 20
48.7578
 30
0.0
 11
110.633
 21
48.7578
 31
0.0
  0
LINE
  5
1E8
330
6F
100
AcDbEntity
  8
0
 62
     0
100
AcDbLine
 10
110.633
 20
48.7578
 30
0.0
 11
110.633
 21
62.75739999999999
 31
0.0
  0
LINE
  5
1E9
330
6F
100
AcDbEntity
  8
0
 62
     0
100
AcDbLine
 10
91.58289999999999
 20
62.75739999999999
 30
0.0
 11
105.583
 21
62.75739999999999
 31
0.0
  0
LINE
  5
1EA
330
6F
100
AcDbEntity
  8
0
 62
     0
100
AcDbLine
 10
105.583
 20
62.75739999999999
 30
0.0
 11
105.583
 21
48.7578
 31
0.0
  0
LINE
  5
1EB
330
6F
100
AcDbEntity
  8
0
 62
     0
100
AcDbLine
 10
105.583
 20
48.7578
 30
0.0
 11
91.58289999999999
 21
48.7578
 31
0.0
  0
LINE
  5
1EC
330
6F
100
AcDbEntity
  8
0
 62
     0
100
AcDbLine
 10
91.58289999999999
 20
48.7578
 30
0.0
 11
91.58289999999999
 21
62.75739999999999
 31
0.0
  0
LINE
  5
1ED
330
6F
100
AcDbEntity
  8
0
 62
     0
100
AcDbLine
 10
72.53289999999999
 20
62.75739999999999
 30
0.0
 11
86.53249999999999
 21
62.75739999999999
 31
0.0
  0
LINE
  5
1EE
330
6F
100
AcDbEntity
  8
0
 62
     0
100
AcDbLine
 10
86.53249999999999
 20
62.75739999999999
 30
0.0
 11
86.53249999999999
 21
48.7578
 31
0.0
  0
LINE
  5
1EF
330
6F
100
AcDbEntity
  8
0
 62
     0
100
AcDbLine
 10
86.53249999999999
 20
48.7578
 30
0.0
 11
72.53289999999999
 21
48.7578
 31
0.0
  0
LINE
  5
1F0
330
6F
100
AcDbEntity
  8
0
 62
     0
100
AcDbLine
 10
72.53289999999999
 20
48.7578
 30
0.0
 11
72.53289999999999
 21
62.75739999999999
 31
0.0
  0
LINE
  5
1F1
330
6F
100
AcDbEntity
  8
0
 62
     0
100
AcDbLine
 10
53.4829
 20
62.75739999999999
 30
0.0
 11
67.4825
 21
62.75739999999999
 31
0.0
  0
LINE
  5
1F2
330
6F
100
AcDbEntity
  8
0
 62
     0
100
AcDbLine
 10
67.4825
 20
62.75739999999999
 30
0.0
 11
67.4825
 21
48.7578
 31
0.0
  0
LINE
  5
1F3
330
6F
100
AcDbEntity
  8
0
 62
     0
100
AcDbLine
 10
67.4825
 20
48.7578
 30
0.0
 11
53.4829
 21
48.7578
 31
0.0
  0
LINE
  5
1F4
330
6F
100
AcDbEntity
  8
0
 62
     0
100
AcDbLine
 10
53.4829
 20
48.7578
 30
0.0
 11
53.4829
 21
62.75739999999999
 31
0.0
  0
LINE
  5
1F5
330
6F
100
AcDbEntity
  8
0
 62
     0
100
AcDbLine
 10
3.75514
 20
66.32789999999999
 30
0.0
 11
3.447849999999999
 21
66.17189999999999
 31
0.0
  0
LINE
  5
1F6
330
6F
100
AcDbEntity
  8
0
 62
     0
100
AcDbLine
 10
3.447849999999999
 20
66.17189999999999
 30
0.0
 11
3.20394
 21
65.92959999999999
 31
0.0
  0
LINE
  5
1F7
330
6F
100
AcDbEntity
  8
0
 62
     0
100
AcDbLine
 10
3.20394
 20
65.92959999999999
 30
0.0
 11
3.04822
 21
65.62229999999999
 31
0.0
  0
LINE
  5
1F8
330
6F
100
AcDbEntity
  8
0
 62
     0
100
AcDbLine
 10
3.04822
 20
65.62229999999999
 30
0.0
 11
2.99586
 21
65.28189999999999
 31
0.0
  0
LINE
  5
1F9
330
6F
100
AcDbEntity
  8
0
 62
     0
100
AcDbLine
 10
2.99586
 20
65.28189999999999
 30
0.0
 11
3.04822
 21
64.94289999999999
 31
0.0
  0
LINE
  5
1FA
330
6F
100
AcDbEntity
  8
0
 62
     0
100
AcDbLine
 10
3.04822
 20
64.94289999999999
 30
0.0
 11
3.20394
 21
64.6356
 31
0.0
  0
LINE
  5
1FB
330
6F
100
AcDbEntity
  8
0
 62
     0
100
AcDbLine
 10
3.20394
 20
64.6356
 30
0.0
 11
3.447849999999999
 21
64.39289999999999
 31
0.0
  0
LINE
  5
1FC
330
6F
100
AcDbEntity
  8
0
 62
     0
100
AcDbLine
 10
3.447849999999999
 20
64.39289999999999
 30
0.0
 11
3.75514
 21
64.2359
 31
0.0
  0
LINE
  5
1FD
330
6F
100
AcDbEntity
  8
0
 62
     0
100
AcDbLine
 10
3.75514
 20
64.2359
 30
0.0
 11
4.095539999999999
 21
64.1823
 31
0.0
  0
LINE
  5
1FE
330
6F
100
AcDbEntity
  8
0
 62
     0
100
AcDbLine
 10
4.095539999999999
 20
64.1823
 30
0.0
 11
4.43452
 21
64.2359
 31
0.0
  0
LINE
  5
1FF
330
6F
100
AcDbEntity
  8
0
 62
     0
100
AcDbLine
 10
4.43452
 20
64.2359
 30
0.0
 11
4.74183
 21
64.39289999999999
 31
0.0
  0
LINE
  5
200
330
6F
100
AcDbEntity
  8
0
 62
     0
100
AcDbLine
 10
4.74183
 20
64.39289999999999
 30
0.0
 11
4.984359999999999
 21
64.6356
 31
0.0
  0
LINE
  5
201
330
6F
100
AcDbEntity
  8
0
 62
     0
100
AcDbLine
 10
4.984359999999999
 20
64.6356
 30
0.0
 11
5.141449999999999
 21
64.94289999999999
 31
0.0
  0
LINE
  5
202
330
6F
100
AcDbEntity
  8
0
 62
     0
100
AcDbLine
 10
5.141449999999999
 20
64.94289999999999
 30
0.0
 11
5.195219999999999
 21
65.28189999999999
 31
0.0
  0
LINE
  5
203
330
6F
100
AcDbEntity
  8
0
 62
     0
100
AcDbLine
 10
5.195219999999999
 20
65.28189999999999
 30
0.0
 11
5.141449999999999
 21
65.62229999999999
 31
0.0
  0
LINE
  5
204
330
6F
100
AcDbEntity
  8
0
 62
     0
100
AcDbLine
 10
5.141449999999999
 20
65.62229999999999
 30
0.0
 11
4.984359999999999
 21
65.92959999999999
 31
0.0
  0
LINE
  5
205
330
6F
100
AcDbEntity
  8
0
 62
     0
100
AcDbLine
 10
4.984359999999999
 20
65.92959999999999
 30
0.0
 11
4.74183
 21
66.17189999999999
 31
0.0
  0
LINE
  5
206
330
6F
100
AcDbEntity
  8
0
 62
     0
100
AcDbLine
 10
4.74183
 20
66.17189999999999
 30
0.0
 11
4.43452
 21
66.32789999999999
 31
0.0
  0
LINE
  5
207
330
6F
100
AcDbEntity
  8
0
 62
     0
100
AcDbLine
 10
4.43452
 20
66.32789999999999
 30
0.0
 11
4.095539999999999
 21
66.38290000000001
 31
0.0
  0
LINE
  5
208
330
6F
100
AcDbEntity
  8
0
 62
     0
100
AcDbLine
 10
4.095539999999999
 20
66.38290000000001
 30
0.0
 11
3.75514
 21
66.32789999999999
 31
0.0
  0
LINE
  5
209
330
6F
100
AcDbEntity
  8
0
 62
     0
100
AcDbLine
 10
326.081
 20
66.32789999999999
 30
0.0
 11
325.775
 21
66.17189999999999
 31
0.0
  0
LINE
  5
20A
330
6F
100
AcDbEntity
  8
0
 62
     0
100
AcDbLine
 10
325.775
 20
66.17189999999999
 30
0.0
 11
325.531
 21
65.92959999999999
 31
0.0
  0
LINE
  5
20B
330
6F
100
AcDbEntity
  8
0
 62
     0
100
AcDbLine
 10
325.531
 20
65.92959999999999
 30
0.0
 11
325.374
 21
65.62229999999999
 31
0.0
  0
LINE
  5
20C
330
6F
100
AcDbEntity
  8
0
 62
     0
100
AcDbLine
 10
325.374
 20
65.62229999999999
 30
0.0
 11
325.322
 21
65.28189999999999
 31
0.0
  0
LINE
  5
20D
330
6F
100
AcDbEntity
  8
0
 62
     0
100
AcDbLine
 10
325.322
 20
65.28189999999999
 30
0.0
 11
325.374
 21
64.94289999999999
 31
0.0
  0
LINE
  5
20E
330
6F
100
AcDbEntity
  8
0
 62
     0
100
AcDbLine
 10
325.374
 20
64.94289999999999
 30
0.0
 11
325.531
 21
64.6356
 31
0.0
  0
LINE
  5
20F
330
6F
100
AcDbEntity
  8
0
 62
     0
100
AcDbLine
 10
325.531
 20
64.6356
 30
0.0
 11
325.775
 21
64.39289999999999
 31
0.0
  0
LINE
  5
210
330
6F
100
AcDbEntity
  8
0
 62
     0
100
AcDbLine
 10
325.775
 20
64.39289999999999
 30
0.0
 11
326.081
 21
64.2359
 31
0.0
  0
LINE
  5
211
330
6F
100
AcDbEntity
  8
0
 62
     0
100
AcDbLine
 10
326.081
 20
64.2359
 30
0.0
 11
326.421
 21
64.1823
 31
0.0
  0
LINE
  5
212
330
6F
100
AcDbEntity
  8
0
 62
     0
100
AcDbLine
 10
326.421
 20
64.1823
 30
0.0
 11
326.76
 21
64.2359
 31
0.0
  0
LINE
  5
213
330
6F
100
AcDbEntity
  8
0
 62
     0
100
AcDbLine
 10
326.76
 20
64.2359
 30
0.0
 11
327.068
 21
64.39289999999999
 31
0.0
  0
LINE
  5
214
330
6F
100
AcDbEntity
  8
0
 62
     0
100
AcDbLine
 10
327.068
 20
64.39289999999999
 30
0.0
 11
327.31
 21
64.6356
 31
0.0
  0
LINE
  5
215
330
6F
100
AcDbEntity
  8
0
 62
     0
100
AcDbLine
 10
327.31
 20
64.6356
 30
0.0
 11
327.467
 21
64.94289999999999
 31
0.0
  0
LINE
  5
216
330
6F
100
AcDbEntity
  8
0
 62
     0
100
AcDbLine
 10
327.467
 20
64.94289999999999
 30
0.0
 11
327.5209999999999
 21
65.28189999999999
 31
0.0
  0
LINE
  5
217
330
6F
100
AcDbEntity
  8
0
 62
     0
100
AcDbLine
 10
327.5209999999999
 20
65.28189999999999
 30
0.0
 11
327.467
 21
65.62229999999999
 31
0.0
  0
LINE
  5
218
330
6F
100
AcDbEntity
  8
0
 62
     0
100
AcDbLine
 10
327.467
 20
65.62229999999999
 30
0.0
 11
327.31
 21
65.92959999999999
 31
0.0
  0
LINE
  5
219
330
6F
100
AcDbEntity
  8
0
 62
     0
100
AcDbLine
 10
327.31
 20
65.92959999999999
 30
0.0
 11
327.068
 21
66.17189999999999
 31
0.0
  0
LINE
  5
21A
330
6F
100
AcDbEntity
  8
0
 62
     0
100
AcDbLine
 10
327.068
 20
66.17189999999999
 30
0.0
 11
326.76
 21
66.32789999999999
 31
0.0
  0
LINE
  5
21B
330
6F
100
AcDbEntity
  8
0
 62
     0
100
AcDbLine
 10
326.76
 20
66.32789999999999
 30
0.0
 11
326.421
 21
66.38290000000001
 31
0.0
  0
LINE
  5
21C
330
6F
100
AcDbEntity
  8
0
 62
     0
100
AcDbLine
 10
326.421
 20
66.38290000000001
 30
0.0
 11
326.081
 21
66.32789999999999
 31
0.0
  0
LINE
  5
21D
330
6F
100
AcDbEntity
  8
0
 62
     0
100
AcDbLine
 10
265.413
 20
81.8074
 30
0.0
 11
265.413
 21
77.1066
 31
0.0
  0
LINE
  5
21E
330
6F
100
AcDbEntity
  8
0
 62
     0
100
AcDbLine
 10
265.413
 20
77.1066
 30
0.0
 11
263.889
 21
77.1066
 31
0.0
  0
LINE
  5
21F
330
6F
100
AcDbEntity
  8
0
 62
     0
100
AcDbLine
 10
263.889
 20
77.1066
 30
0.0
 11
263.889
 21
80.33700000000001
 31
0.0
  0
LINE
  5
220
330
6F
100
AcDbEntity
  8
0
 62
     0
100
AcDbLine
 10
263.889
 20
80.33700000000001
 30
0.0
 11
257.139
 21
80.33700000000001
 31
0.0
  0
LINE
  5
221
330
6F
100
AcDbEntity
  8
0
 62
     0
100
AcDbLine
 10
257.139
 20
80.33700000000001
 30
0.0
 11
257.139
 21
77.1066
 31
0.0
  0
LINE
  5
222
330
6F
100
AcDbEntity
  8
0
 62
     0
100
AcDbLine
 10
257.139
 20
77.1066
 30
0.0
 11
256.314
 21
77.1066
 31
0.0
  0
LINE
  5
223
330
6F
100
AcDbEntity
  8
0
 62
     0
100
AcDbLine
 10
256.314
 20
77.1066
 30
0.0
 11
256.314
 21
74.3081
 31
0.0
  0
LINE
  5
224
330
6F
100
AcDbEntity
  8
0
 62
     0
100
AcDbLine
 10
256.314
 20
74.3081
 30
0.0
 11
257.139
 21
74.3081
 31
0.0
  0
LINE
  5
225
330
6F
100
AcDbEntity
  8
0
 62
     0
100
AcDbLine
 10
257.139
 20
74.3081
 30
0.0
 11
257.139
 21
68.0378
 31
0.0
  0
LINE
  5
226
330
6F
100
AcDbEntity
  8
0
 62
     0
100
AcDbLine
 10
257.139
 20
68.0378
 30
0.0
 11
258.863
 21
68.0378
 31
0.0
  0
LINE
  5
227
330
6F
100
AcDbEntity
  8
0
 62
     0
100
AcDbLine
 10
258.863
 20
68.0378
 30
0.0
 11
258.863
 21
66.83759999999999
 31
0.0
  0
LINE
  5
228
330
6F
100
AcDbEntity
  8
0
 62
     0
100
AcDbLine
 10
258.863
 20
66.83759999999999
 30
0.0
 11
262.164
 21
66.83759999999999
 31
0.0
  0
LINE
  5
229
330
6F
100
AcDbEntity
  8
0
 62
     0
100
AcDbLine
 10
262.164
 20
66.83759999999999
 30
0.0
 11
262.164
 21
68.0378
 31
0.0
  0
LINE
  5
22A
330
6F
100
AcDbEntity
  8
0
 62
     0
100
AcDbLine
 10
262.164
 20
68.0378
 30
0.0
 11
263.889
 21
68.0378
 31
0.0
  0
LINE
  5
22B
330
6F
100
AcDbEntity
  8
0
 62
     0
100
AcDbLine
 10
263.889
 20
68.0378
 30
0.0
 11
263.889
 21
72.5068
 31
0.0
  0
LINE
  5
22C
330
6F
100
AcDbEntity
  8
0
 62
     0
100
AcDbLine
 10
263.889
 20
72.5068
 30
0.0
 11
265.413
 21
72.5068
 31
0.0
  0
LINE
  5
22D
330
6F
100
AcDbEntity
  8
0
 62
     0
100
AcDbLine
 10
265.413
 20
72.5068
 30
0.0
 11
265.413
 21
67.8078
 31
0.0
  0
LINE
  5
22E
330
6F
100
AcDbEntity
  8
0
 62
     0
100
AcDbLine
 10
265.413
 20
67.8078
 30
0.0
 11
279.414
 21
67.8078
 31
0.0
  0
LINE
  5
22F
330
6F
100
AcDbEntity
  8
0
 62
     0
100
AcDbLine
 10
279.414
 20
67.8078
 30
0.0
 11
279.414
 21
72.5068
 31
0.0
  0
LINE
  5
230
330
6F
100
AcDbEntity
  8
0
 62
     0
100
AcDbLine
 10
279.414
 20
72.5068
 30
0.0
 11
280.938
 21
72.5068
 31
0.0
  0
LINE
  5
231
330
6F
100
AcDbEntity
  8
0
 62
     0
100
AcDbLine
 10
280.938
 20
72.5068
 30
0.0
 11
280.938
 21
68.0378
 31
0.0
  0
LINE
  5
232
330
6F
100
AcDbEntity
  8
0
 62
     0
100
AcDbLine
 10
280.938
 20
68.0378
 30
0.0
 11
282.663
 21
68.0378
 31
0.0
  0
LINE
  5
233
330
6F
100
AcDbEntity
  8
0
 62
     0
100
AcDbLine
 10
282.663
 20
68.0378
 30
0.0
 11
282.663
 21
66.83759999999999
 31
0.0
  0
LINE
  5
234
330
6F
100
AcDbEntity
  8
0
 62
     0
100
AcDbLine
 10
282.663
 20
66.83759999999999
 30
0.0
 11
285.963
 21
66.83759999999999
 31
0.0
  0
LINE
  5
235
330
6F
100
AcDbEntity
  8
0
 62
     0
100
AcDbLine
 10
285.963
 20
66.83759999999999
 30
0.0
 11
285.963
 21
68.0378
 31
0.0
  0
LINE
  5
236
330
6F
100
AcDbEntity
  8
0
 62
     0
100
AcDbLine
 10
285.963
 20
68.0378
 30
0.0
 11
287.689
 21
68.0378
 31
0.0
  0
LINE
  5
237
330
6F
100
AcDbEntity
  8
0
 62
     0
100
AcDbLine
 10
287.689
 20
68.0378
 30
0.0
 11
287.689
 21
74.3081
 31
0.0
  0
LINE
  5
238
330
6F
100
AcDbEntity
  8
0
 62
     0
100
AcDbLine
 10
287.689
 20
74.3081
 30
0.0
 11
288.513
 21
74.3081
 31
0.0
  0
LINE
  5
239
330
6F
100
AcDbEntity
  8
0
 62
     0
100
AcDbLine
 10
288.513
 20
74.3081
 30
0.0
 11
288.513
 21
77.1066
 31
0.0
  0
LINE
  5
23A
330
6F
100
AcDbEntity
  8
0
 62
     0
100
AcDbLine
 10
288.513
 20
77.1066
 30
0.0
 11
287.689
 21
77.1066
 31
0.0
  0
LINE
  5
23B
330
6F
100
AcDbEntity
  8
0
 62
     0
100
AcDbLine
 10
287.689
 20
77.1066
 30
0.0
 11
287.689
 21
80.33700000000001
 31
0.0
  0
LINE
  5
23C
330
6F
100
AcDbEntity
  8
0
 62
     0
100
AcDbLine
 10
287.689
 20
80.33700000000001
 30
0.0
 11
280.938
 21
80.33700000000001
 31
0.0
  0
LINE
  5
23D
330
6F
100
AcDbEntity
  8
0
 62
     0
100
AcDbLine
 10
280.938
 20
80.33700000000001
 30
0.0
 11
280.938
 21
77.1066
 31
0.0
  0
LINE
  5
23E
330
6F
100
AcDbEntity
  8
0
 62
     0
100
AcDbLine
 10
280.938
 20
77.1066
 30
0.0
 11
279.414
 21
77.1066
 31
0.0
  0
LINE
  5
23F
330
6F
100
AcDbEntity
  8
0
 62
     0
100
AcDbLine
 10
279.414
 20
77.1066
 30
0.0
 11
279.414
 21
81.8074
 31
0.0
  0
LINE
  5
240
330
6F
100
AcDbEntity
  8
0
 62
     0
100
AcDbLine
 10
279.414
 20
81.8074
 30
0.0
 11
265.413
 21
81.8074
 31
0.0
  0
LINE
  5
241
330
6F
100
AcDbEntity
  8
0
 62
     0
100
AcDbLine
 10
234.458
 20
81.8074
 30
0.0
 11
248.458
 21
81.8074
 31
0.0
  0
LINE
  5
242
330
6F
100
AcDbEntity
  8
0
 62
     0
100
AcDbLine
 10
248.458
 20
81.8074
 30
0.0
 11
248.458
 21
67.8078
 31
0.0
  0
LINE
  5
243
330
6F
100
AcDbEntity
  8
0
 62
     0
100
AcDbLine
 10
248.458
 20
67.8078
 30
0.0
 11
234.458
 21
67.8078
 31
0.0
  0
LINE
  5
244
330
6F
100
AcDbEntity
  8
0
 62
     0
100
AcDbLine
 10
234.458
 20
67.8078
 30
0.0
 11
234.458
 21
81.8074
 31
0.0
  0
LINE
  5
245
330
6F
100
AcDbEntity
  8
0
 62
     0
100
AcDbLine
 10
215.408
 20
81.8074
 30
0.0
 11
229.408
 21
81.8074
 31
0.0
  0
LINE
  5
246
330
6F
100
AcDbEntity
  8
0
 62
     0
100
AcDbLine
 10
229.408
 20
81.8074
 30
0.0
 11
229.408
 21
67.8078
 31
0.0
  0
LINE
  5
247
330
6F
100
AcDbEntity
  8
0
 62
     0
100
AcDbLine
 10
229.408
 20
67.8078
 30
0.0
 11
215.408
 21
67.8078
 31
0.0
  0
LINE
  5
248
330
6F
100
AcDbEntity
  8
0
 62
     0
100
AcDbLine
 10
215.408
 20
67.8078
 30
0.0
 11
215.408
 21
81.8074
 31
0.0
  0
LINE
  5
249
330
6F
100
AcDbEntity
  8
0
 62
     0
100
AcDbLine
 10
196.358
 20
81.8074
 30
0.0
 11
210.358
 21
81.8074
 31
0.0
  0
LINE
  5
24A
330
6F
100
AcDbEntity
  8
0
 62
     0
100
AcDbLine
 10
210.358
 20
81.8074
 30
0.0
 11
210.358
 21
67.8078
 31
0.0
  0
LINE
  5
24B
330
6F
100
AcDbEntity
  8
0
 62
     0
100
AcDbLine
 10
210.358
 20
67.8078
 30
0.0
 11
196.358
 21
67.8078
 31
0.0
  0
LINE
  5
24C
330
6F
100
AcDbEntity
  8
0
 62
     0
100
AcDbLine
 10
196.358
 20
67.8078
 30
0.0
 11
196.358
 21
81.8074
 31
0.0
  0
LINE
  5
24D
330
6F
100
AcDbEntity
  8
0
 62
     0
100
AcDbLine
 10
177.308
 20
81.8074
 30
0.0
 11
191.308
 21
81.8074
 31
0.0
  0
LINE
  5
24E
330
6F
100
AcDbEntity
  8
0
 62
     0
100
AcDbLine
 10
191.308
 20
81.8074
 30
0.0
 11
191.308
 21
67.8078
 31
0.0
  0
LINE
  5
24F
330
6F
100
AcDbEntity
  8
0
 62
     0
100
AcDbLine
 10
191.308
 20
67.8078
 30
0.0
 11
177.308
 21
67.8078
 31
0.0
  0
LINE
  5
250
330
6F
100
AcDbEntity
  8
0
 62
     0
100
AcDbLine
 10
177.308
 20
67.8078
 30
0.0
 11
177.308
 21
81.8074
 31
0.0
  0
LINE
  5
251
330
6F
100
AcDbEntity
  8
0
 62
     0
100
AcDbLine
 10
158.258
 20
81.8074
 30
0.0
 11
172.2579999999999
 21
81.8074
 31
0.0
  0
LINE
  5
252
330
6F
100
AcDbEntity
  8
0
 62
     0
100
AcDbLine
 10
172.2579999999999
 20
81.8074
 30
0.0
 11
172.2579999999999
 21
67.8078
 31
0.0
  0
LINE
  5
253
330
6F
100
AcDbEntity
  8
0
 62
     0
100
AcDbLine
 10
172.2579999999999
 20
67.8078
 30
0.0
 11
158.258
 21
67.8078
 31
0.0
  0
LINE
  5
254
330
6F
100
AcDbEntity
  8
0
 62
     0
100
AcDbLine
 10
158.258
 20
67.8078
 30
0.0
 11
158.258
 21
81.8074
 31
0.0
  0
LINE
  5
255
330
6F
100
AcDbEntity
  8
0
 62
     0
100
AcDbLine
 10
139.208
 20
81.8074
 30
0.0
 11
153.208
 21
81.8074
 31
0.0
  0
LINE
  5
256
330
6F
100
AcDbEntity
  8
0
 62
     0
100
AcDbLine
 10
153.208
 20
81.8074
 30
0.0
 11
153.208
 21
67.8078
 31
0.0
  0
LINE
  5
257
330
6F
100
AcDbEntity
  8
0
 62
     0
100
AcDbLine
 10
153.208
 20
67.8078
 30
0.0
 11
139.208
 21
67.8078
 31
0.0
  0
LINE
  5
258
330
6F
100
AcDbEntity
  8
0
 62
     0
100
AcDbLine
 10
139.208
 20
67.8078
 30
0.0
 11
139.208
 21
81.8074
 31
0.0
  0
LINE
  5
259
330
6F
100
AcDbEntity
  8
0
 62
     0
100
AcDbLine
 10
120.158
 20
81.8074
 30
0.0
 11
134.158
 21
81.8074
 31
0.0
  0
LINE
  5
25A
330
6F
100
AcDbEntity
  8
0
 62
     0
100
AcDbLine
 10
134.158
 20
81.8074
 30
0.0
 11
134.158
 21
67.8078
 31
0.0
  0
LINE
  5
25B
330
6F
100
AcDbEntity
  8
0
 62
     0
100
AcDbLine
 10
134.158
 20
67.8078
 30
0.0
 11
120.158
 21
67.8078
 31
0.0
  0
LINE
  5
25C
330
6F
100
AcDbEntity
  8
0
 62
     0
100
AcDbLine
 10
120.158
 20
67.8078
 30
0.0
 11
120.158
 21
81.8074
 31
0.0
  0
LINE
  5
25D
330
6F
100
AcDbEntity
  8
0
 62
     0
100
AcDbLine
 10
101.108
 20
81.8074
 30
0.0
 11
115.108
 21
81.8074
 31
0.0
  0
LINE
  5
25E
330
6F
100
AcDbEntity
  8
0
 62
     0
100
AcDbLine
 10
115.108
 20
81.8074
 30
0.0
 11
115.108
 21
67.8078
 31
0.0
  0
LINE
  5
25F
330
6F
100
AcDbEntity
  8
0
 62
     0
100
AcDbLine
 10
115.108
 20
67.8078
 30
0.0
 11
101.108
 21
67.8078
 31
0.0
  0
LINE
  5
260
330
6F
100
AcDbEntity
  8
0
 62
     0
100
AcDbLine
 10
101.108
 20
67.8078
 30
0.0
 11
101.108
 21
81.8074
 31
0.0
  0
LINE
  5
261
330
6F
100
AcDbEntity
  8
0
 62
     0
100
AcDbLine
 10
82.0579
 20
81.8074
 30
0.0
 11
96.0575
 21
81.8074
 31
0.0
  0
LINE
  5
262
330
6F
100
AcDbEntity
  8
0
 62
     0
100
AcDbLine
 10
96.0575
 20
81.8074
 30
0.0
 11
96.0575
 21
67.8078
 31
0.0
  0
LINE
  5
263
330
6F
100
AcDbEntity
  8
0
 62
     0
100
AcDbLine
 10
96.0575
 20
67.8078
 30
0.0
 11
82.0579
 21
67.8078
 31
0.0
  0
LINE
  5
264
330
6F
100
AcDbEntity
  8
0
 62
     0
100
AcDbLine
 10
82.0579
 20
67.8078
 30
0.0
 11
82.0579
 21
81.8074
 31
0.0
  0
LINE
  5
265
330
6F
100
AcDbEntity
  8
0
 62
     0
100
AcDbLine
 10
63.0079
 20
81.8074
 30
0.0
 11
77.00749999999999
 21
81.8074
 31
0.0
  0
LINE
  5
266
330
6F
100
AcDbEntity
  8
0
 62
     0
100
AcDbLine
 10
77.00749999999999
 20
81.8074
 30
0.0
 11
77.00749999999999
 21
67.8078
 31
0.0
  0
LINE
  5
267
330
6F
100
AcDbEntity
  8
0
 62
     0
100
AcDbLine
 10
77.00749999999999
 20
67.8078
 30
0.0
 11
63.0079
 21
67.8078
 31
0.0
  0
LINE
  5
268
330
6F
100
AcDbEntity
  8
0
 62
     0
100
AcDbLine
 10
63.0079
 20
67.8078
 30
0.0
 11
63.0079
 21
81.8074
 31
0.0
  0
LINE
  5
269
330
6F
100
AcDbEntity
  8
0
 62
     0
100
AcDbLine
 10
43.9579
 20
81.8074
 30
0.0
 11
57.9575
 21
81.8074
 31
0.0
  0
LINE
  5
26A
330
6F
100
AcDbEntity
  8
0
 62
     0
100
AcDbLine
 10
57.9575
 20
81.8074
 30
0.0
 11
57.9575
 21
67.8078
 31
0.0
  0
LINE
  5
26B
330
6F
100
AcDbEntity
  8
0
 62
     0
100
AcDbLine
 10
57.9575
 20
67.8078
 30
0.0
 11
43.9579
 21
67.8078
 31
0.0
  0
LINE
  5
26C
330
6F
100
AcDbEntity
  8
0
 62
     0
100
AcDbLine
 10
43.9579
 20
67.8078
 30
0.0
 11
43.9579
 21
81.8074
 31
0.0
  0
LINE
  5
26D
330
6F
100
AcDbEntity
  8
0
 62
     0
100
AcDbLine
 10
17.7629
 20
81.8074
 30
0.0
 11
31.7638
 21
81.8074
 31
0.0
  0
LINE
  5
26E
330
6F
100
AcDbEntity
  8
0
 62
     0
100
AcDbLine
 10
31.7638
 20
81.8074
 30
0.0
 11
31.7638
 21
67.8078
 31
0.0
  0
LINE
  5
26F
330
6F
100
AcDbEntity
  8
0
 62
     0
100
AcDbLine
 10
31.7638
 20
67.8078
 30
0.0
 11
17.7629
 21
67.8078
 31
0.0
  0
LINE
  5
270
330
6F
100
AcDbEntity
  8
0
 62
     0
100
AcDbLine
 10
17.7629
 20
67.8078
 30
0.0
 11
17.7629
 21
81.8074
 31
0.0
  0
LINE
  5
271
330
6F
100
AcDbEntity
  8
0
 62
     0
100
AcDbLine
 10
305.895
 20
100.857
 30
0.0
 11
319.895
 21
100.857
 31
0.0
  0
LINE
  5
272
330
6F
100
AcDbEntity
  8
0
 62
     0
100
AcDbLine
 10
319.895
 20
100.857
 30
0.0
 11
319.895
 21
86.85779999999999
 31
0.0
  0
LINE
  5
273
330
6F
100
AcDbEntity
  8
0
 62
     0
100
AcDbLine
 10
319.895
 20
86.85779999999999
 30
0.0
 11
305.895
 21
86.85779999999999
 31
0.0
  0
LINE
  5
274
330
6F
100
AcDbEntity
  8
0
 62
     0
100
AcDbLine
 10
305.895
 20
86.85779999999999
 30
0.0
 11
305.895
 21
100.857
 31
0.0
  0
LINE
  5
275
330
6F
100
AcDbEntity
  8
0
 62
     0
100
AcDbLine
 10
272.558
 20
100.857
 30
0.0
 11
286.558
 21
100.857
 31
0.0
  0
LINE
  5
276
330
6F
100
AcDbEntity
  8
0
 62
     0
100
AcDbLine
 10
286.558
 20
100.857
 30
0.0
 11
286.558
 21
86.85779999999999
 31
0.0
  0
LINE
  5
277
330
6F
100
AcDbEntity
  8
0
 62
     0
100
AcDbLine
 10
286.558
 20
86.85779999999999
 30
0.0
 11
272.558
 21
86.85779999999999
 31
0.0
  0
LINE
  5
278
330
6F
100
AcDbEntity
  8
0
 62
     0
100
AcDbLine
 10
272.558
 20
86.85779999999999
 30
0.0
 11
272.558
 21
100.857
 31
0.0
  0
LINE
  5
279
330
6F
100
AcDbEntity
  8
0
 62
     0
100
AcDbLine
 10
248.745
 20
100.857
 30
0.0
 11
262.745
 21
100.857
 31
0.0
  0
LINE
  5
27A
330
6F
100
AcDbEntity
  8
0
 62
     0
100
AcDbLine
 10
262.745
 20
100.857
 30
0.0
 11
262.745
 21
86.85779999999999
 31
0.0
  0
LINE
  5
27B
330
6F
100
AcDbEntity
  8
0
 62
     0
100
AcDbLine
 10
262.745
 20
86.85779999999999
 30
0.0
 11
248.745
 21
86.85779999999999
 31
0.0
  0
LINE
  5
27C
330
6F
100
AcDbEntity
  8
0
 62
     0
100
AcDbLine
 10
248.745
 20
86.85779999999999
 30
0.0
 11
248.745
 21
100.857
 31
0.0
  0
LINE
  5
27D
330
6F
100
AcDbEntity
  8
0
 62
     0
100
AcDbLine
 10
229.695
 20
100.857
 30
0.0
 11
243.695
 21
100.857
 31
0.0
  0
LINE
  5
27E
330
6F
100
AcDbEntity
  8
0
 62
     0
100
AcDbLine
 10
243.695
 20
100.857
 30
0.0
 11
243.695
 21
86.85779999999999
 31
0.0
  0
LINE
  5
27F
330
6F
100
AcDbEntity
  8
0
 62
     0
100
AcDbLine
 10
243.695
 20
86.85779999999999
 30
0.0
 11
229.695
 21
86.85779999999999
 31
0.0
  0
LINE
  5
280
330
6F
100
AcDbEntity
  8
0
 62
     0
100
AcDbLine
 10
229.695
 20
86.85779999999999
 30
0.0
 11
229.695
 21
100.857
 31
0.0
  0
LINE
  5
281
330
6F
100
AcDbEntity
  8
0
 62
     0
100
AcDbLine
 10
210.645
 20
100.857
 30
0.0
 11
224.645
 21
100.857
 31
0.0
  0
LINE
  5
282
330
6F
100
AcDbEntity
  8
0
 62
     0
100
AcDbLine
 10
224.645
 20
100.857
 30
0.0
 11
224.645
 21
86.85779999999999
 31
0.0
  0
LINE
  5
283
330
6F
100
AcDbEntity
  8
0
 62
     0
100
AcDbLine
 10
224.645
 20
86.85779999999999
 30
0.0
 11
210.645
 21
86.85779999999999
 31
0.0
  0
LINE
  5
284
330
6F
100
AcDbEntity
  8
0
 62
     0
100
AcDbLine
 10
210.645
 20
86.85779999999999
 30
0.0
 11
210.645
 21
100.857
 31
0.0
  0
LINE
  5
285
330
6F
100
AcDbEntity
  8
0
 62
     0
100
AcDbLine
 10
191.595
 20
100.857
 30
0.0
 11
205.595
 21
100.857
 31
0.0
  0
LINE
  5
286
330
6F
100
AcDbEntity
  8
0
 62
     0
100
AcDbLine
 10
205.595
 20
100.857
 30
0.0
 11
205.595
 21
86.85779999999999
 31
0.0
  0
LINE
  5
287
330
6F
100
AcDbEntity
  8
0
 62
     0
100
AcDbLine
 10
205.595
 20
86.85779999999999
 30
0.0
 11
191.595
 21
86.85779999999999
 31
0.0
  0
LINE
  5
288
330
6F
100
AcDbEntity
  8
0
 62
     0
100
AcDbLine
 10
191.595
 20
86.85779999999999
 30
0.0
 11
191.595
 21
100.857
 31
0.0
  0
LINE
  5
289
330
6F
100
AcDbEntity
  8
0
 62
     0
100
AcDbLine
 10
172.545
 20
100.857
 30
0.0
 11
186.545
 21
100.857
 31
0.0
  0
LINE
  5
28A
330
6F
100
AcDbEntity
  8
0
 62
     0
100
AcDbLine
 10
186.545
 20
100.857
 30
0.0
 11
186.545
 21
86.85779999999999
 31
0.0
  0
LINE
  5
28B
330
6F
100
AcDbEntity
  8
0
 62
     0
100
AcDbLine
 10
186.545
 20
86.85779999999999
 30
0.0
 11
172.545
 21
86.85779999999999
 31
0.0
  0
LINE
  5
28C
330
6F
100
AcDbEntity
  8
0
 62
     0
100
AcDbLine
 10
172.545
 20
86.85779999999999
 30
0.0
 11
172.545
 21
100.857
 31
0.0
  0
LINE
  5
28D
330
6F
100
AcDbEntity
  8
0
 62
     0
100
AcDbLine
 10
153.495
 20
100.857
 30
0.0
 11
167.495
 21
100.857
 31
0.0
  0
LINE
  5
28E
330
6F
100
AcDbEntity
  8
0
 62
     0
100
AcDbLine
 10
167.495
 20
100.857
 30
0.0
 11
167.495
 21
86.85779999999999
 31
0.0
  0
LINE
  5
28F
330
6F
100
AcDbEntity
  8
0
 62
     0
100
AcDbLine
 10
167.495
 20
86.85779999999999
 30
0.0
 11
153.495
 21
86.85779999999999
 31
0.0
  0
LINE
  5
290
330
6F
100
AcDbEntity
  8
0
 62
     0
100
AcDbLine
 10
153.495
 20
86.85779999999999
 30
0.0
 11
153.495
 21
100.857
 31
0.0
  0
LINE
  5
291
330
6F
100
AcDbEntity
  8
0
 62
     0
100
AcDbLine
 10
134.445
 20
100.857
 30
0.0
 11
148.445
 21
100.857
 31
0.0
  0
LINE
  5
292
330
6F
100
AcDbEntity
  8
0
 62
     0
100
AcDbLine
 10
148.445
 20
100.857
 30
0.0
 11
148.445
 21
86.85779999999999
 31
0.0
  0
LINE
  5
293
330
6F
100
AcDbEntity
  8
0
 62
     0
100
AcDbLine
 10
148.445
 20
86.85779999999999
 30
0.0
 11
134.445
 21
86.85779999999999
 31
0.0
  0
LINE
  5
294
330
6F
100
AcDbEntity
  8
0
 62
     0
100
AcDbLine
 10
134.445
 20
86.85779999999999
 30
0.0
 11
134.445
 21
100.857
 31
0.0
  0
LINE
  5
295
330
6F
100
AcDbEntity
  8
0
 62
     0
100
AcDbLine
 10
115.395
 20
100.857
 30
0.0
 11
129.395
 21
100.857
 31
0.0
  0
LINE
  5
296
330
6F
100
AcDbEntity
  8
0
 62
     0
100
AcDbLine
 10
129.395
 20
100.857
 30
0.0
 11
129.395
 21
86.85779999999999
 31
0.0
  0
LINE
  5
297
330
6F
100
AcDbEntity
  8
0
 62
     0
100
AcDbLine
 10
129.395
 20
86.85779999999999
 30
0.0
 11
115.395
 21
86.85779999999999
 31
0.0
  0
LINE
  5
298
330
6F
100
AcDbEntity
  8
0
 62
     0
100
AcDbLine
 10
115.395
 20
86.85779999999999
 30
0.0
 11
115.395
 21
100.857
 31
0.0
  0
LINE
  5
299
330
6F
100
AcDbEntity
  8
0
 62
     0
100
AcDbLine
 10
96.34540000000001
 20
100.857
 30
0.0
 11
110.345
 21
100.857
 31
0.0
  0
LINE
  5
29A
330
6F
100
AcDbEntity
  8
0
 62
     0
100
AcDbLine
 10
110.345
 20
100.857
 30
0.0
 11
110.345
 21
86.85779999999999
 31
0.0
  0
LINE
  5
29B
330
6F
100
AcDbEntity
  8
0
 62
     0
100
AcDbLine
 10
110.345
 20
86.85779999999999
 30
0.0
 11
96.34540000000001
 21
86.85779999999999
 31
0.0
  0
LINE
  5
29C
330
6F
100
AcDbEntity
  8
0
 62
     0
100
AcDbLine
 10
96.34540000000001
 20
86.85779999999999
 30
0.0
 11
96.34540000000001
 21
100.857
 31
0.0
  0
LINE
  5
29D
330
6F
100
AcDbEntity
  8
0
 62
     0
100
AcDbLine
 10
77.2954
 20
100.857
 30
0.0
 11
91.295
 21
100.857
 31
0.0
  0
LINE
  5
29E
330
6F
100
AcDbEntity
  8
0
 62
     0
100
AcDbLine
 10
91.295
 20
100.857
 30
0.0
 11
91.295
 21
86.85779999999999
 31
0.0
  0
LINE
  5
29F
330
6F
100
AcDbEntity
  8
0
 62
     0
100
AcDbLine
 10
91.295
 20
86.85779999999999
 30
0.0
 11
77.2954
 21
86.85779999999999
 31
0.0
  0
LINE
  5
2A0
330
6F
100
AcDbEntity
  8
0
 62
     0
100
AcDbLine
 10
77.2954
 20
86.85779999999999
 30
0.0
 11
77.2954
 21
100.857
 31
0.0
  0
LINE
  5
2A1
330
6F
100
AcDbEntity
  8
0
 62
     0
100
AcDbLine
 10
58.24539999999999
 20
100.857
 30
0.0
 11
72.245
 21
100.857
 31
0.0
  0
LINE
  5
2A2
330
6F
100
AcDbEntity
  8
0
 62
     0
100
AcDbLine
 10
72.245
 20
100.857
 30
0.0
 11
72.245
 21
86.85779999999999
 31
0.0
  0
LINE
  5
2A3
330
6F
100
AcDbEntity
  8
0
 62
     0
100
AcDbLine
 10
72.245
 20
86.85779999999999
 30
0.0
 11
58.24539999999999
 21
86.85779999999999
 31
0.0
  0
LINE
  5
2A4
330
6F
100
AcDbEntity
  8
0
 62
     0
100
AcDbLine
 10
58.24539999999999
 20
86.85779999999999
 30
0.0
 11
58.24539999999999
 21
100.857
 31
0.0
  0
LINE
  5
2A5
330
6F
100
AcDbEntity
  8
0
 62
     0
100
AcDbLine
 10
39.1954
 20
100.857
 30
0.0
 11
53.195
 21
100.857
 31
0.0
  0
LINE
  5
2A6
330
6F
100
AcDbEntity
  8
0
 62
     0
100
AcDbLine
 10
53.195
 20
100.857
 30
0.0
 11
53.195
 21
86.85779999999999
 31
0.0
  0
LINE
  5
2A7
330
6F
100
AcDbEntity
  8
0
 62
     0
100
AcDbLine
 10
53.195
 20
86.85779999999999
 30
0.0
 11
39.1954
 21
86.85779999999999
 31
0.0
  0
LINE
  5
2A8
330
6F
100
AcDbEntity
  8
0
 62
     0
100
AcDbLine
 10
39.1954
 20
86.85779999999999
 30
0.0
 11
39.1954
 21
100.857
 31
0.0
  0
LINE
  5
2A9
330
6F
100
AcDbEntity
  8
0
 62
     0
100
AcDbLine
 10
15.3831
 20
100.857
 30
0.0
 11
29.3825
 21
100.857
 31
0.0
  0
LINE
  5
2AA
330
6F
100
AcDbEntity
  8
0
 62
     0
100
AcDbLine
 10
29.3825
 20
100.857
 30
0.0
 11
29.3825
 21
86.85779999999999
 31
0.0
  0
LINE
  5
2AB
330
6F
100
AcDbEntity
  8
0
 62
     0
100
AcDbLine
 10
29.3825
 20
86.85779999999999
 30
0.0
 11
15.3831
 21
86.85779999999999
 31
0.0
  0
LINE
  5
2AC
330
6F
100
AcDbEntity
  8
0
 62
     0
100
AcDbLine
 10
15.3831
 20
86.85779999999999
 30
0.0
 11
15.3831
 21
100.857
 31
0.0
  0
LINE
  5
2AD
330
6F
100
AcDbEntity
  8
0
 62
     0
100
AcDbLine
 10
267.795
 20
119.908
 30
0.0
 11
267.795
 21
115.208
 31
0.0
  0
LINE
  5
2AE
330
6F
100
AcDbEntity
  8
0
 62
     0
100
AcDbLine
 10
267.795
 20
115.208
 30
0.0
 11
266.27
 21
115.208
 31
0.0
  0
LINE
  5
2AF
330
6F
100
AcDbEntity
  8
0
 62
     0
100
AcDbLine
 10
266.27
 20
115.208
 30
0.0
 11
266.27
 21
118.438
 31
0.0
  0
LINE
  5
2B0
330
6F
100
AcDbEntity
  8
0
 62
     0
100
AcDbLine
 10
266.27
 20
118.438
 30
0.0
 11
259.52
 21
118.438
 31
0.0
  0
LINE
  5
2B1
330
6F
100
AcDbEntity
  8
0
 62
     0
100
AcDbLine
 10
259.52
 20
118.438
 30
0.0
 11
259.52
 21
115.208
 31
0.0
  0
LINE
  5
2B2
330
6F
100
AcDbEntity
  8
0
 62
     0
100
AcDbLine
 10
259.52
 20
115.208
 30
0.0
 11
258.695
 21
115.208
 31
0.0
  0
LINE
  5
2B3
330
6F
100
AcDbEntity
  8
0
 62
     0
100
AcDbLine
 10
258.695
 20
115.208
 30
0.0
 11
258.695
 21
112.408
 31
0.0
  0
LINE
  5
2B4
330
6F
100
AcDbEntity
  8
0
 62
     0
100
AcDbLine
 10
258.695
 20
112.408
 30
0.0
 11
259.52
 21
112.408
 31
0.0
  0
LINE
  5
2B5
330
6F
100
AcDbEntity
  8
0
 62
     0
100
AcDbLine
 10
259.52
 20
112.408
 30
0.0
 11
259.52
 21
106.138
 31
0.0
  0
LINE
  5
2B6
330
6F
100
AcDbEntity
  8
0
 62
     0
100
AcDbLine
 10
259.52
 20
106.138
 30
0.0
 11
261.246
 21
106.138
 31
0.0
  0
LINE
  5
2B7
330
6F
100
AcDbEntity
  8
0
 62
     0
100
AcDbLine
 10
261.246
 20
106.138
 30
0.0
 11
261.246
 21
104.938
 31
0.0
  0
LINE
  5
2B8
330
6F
100
AcDbEntity
  8
0
 62
     0
100
AcDbLine
 10
261.246
 20
104.938
 30
0.0
 11
264.546
 21
104.938
 31
0.0
  0
LINE
  5
2B9
330
6F
100
AcDbEntity
  8
0
 62
     0
100
AcDbLine
 10
264.546
 20
104.938
 30
0.0
 11
264.546
 21
106.138
 31
0.0
  0
LINE
  5
2BA
330
6F
100
AcDbEntity
  8
0
 62
     0
100
AcDbLine
 10
264.546
 20
106.138
 30
0.0
 11
266.27
 21
106.138
 31
0.0
  0
LINE
  5
2BB
330
6F
100
AcDbEntity
  8
0
 62
     0
100
AcDbLine
 10
266.27
 20
106.138
 30
0.0
 11
266.27
 21
110.607
 31
0.0
  0
LINE
  5
2BC
330
6F
100
AcDbEntity
  8
0
 62
     0
100
AcDbLine
 10
266.27
 20
110.607
 30
0.0
 11
267.795
 21
110.607
 31
0.0
  0
LINE
  5
2BD
330
6F
100
AcDbEntity
  8
0
 62
     0
100
AcDbLine
 10
267.795
 20
110.607
 30
0.0
 11
267.795
 21
105.908
 31
0.0
  0
LINE
  5
2BE
330
6F
100
AcDbEntity
  8
0
 62
     0
100
AcDbLine
 10
267.795
 20
105.908
 30
0.0
 11
281.795
 21
105.908
 31
0.0
  0
LINE
  5
2BF
330
6F
100
AcDbEntity
  8
0
 62
     0
100
AcDbLine
 10
281.795
 20
105.908
 30
0.0
 11
281.795
 21
110.607
 31
0.0
  0
LINE
  5
2C0
330
6F
100
AcDbEntity
  8
0
 62
     0
100
AcDbLine
 10
281.795
 20
110.607
 30
0.0
 11
283.32
 21
110.607
 31
0.0
  0
LINE
  5
2C1
330
6F
100
AcDbEntity
  8
0
 62
     0
100
AcDbLine
 10
283.32
 20
110.607
 30
0.0
 11
283.32
 21
106.138
 31
0.0
  0
LINE
  5
2C2
330
6F
100
AcDbEntity
  8
0
 62
     0
100
AcDbLine
 10
283.32
 20
106.138
 30
0.0
 11
285.046
 21
106.138
 31
0.0
  0
LINE
  5
2C3
330
6F
100
AcDbEntity
  8
0
 62
     0
100
AcDbLine
 10
285.046
 20
106.138
 30
0.0
 11
285.046
 21
104.938
 31
0.0
  0
LINE
  5
2C4
330
6F
100
AcDbEntity
  8
0
 62
     0
100
AcDbLine
 10
285.046
 20
104.938
 30
0.0
 11
288.345
 21
104.938
 31
0.0
  0
LINE
  5
2C5
330
6F
100
AcDbEntity
  8
0
 62
     0
100
AcDbLine
 10
288.345
 20
104.938
 30
0.0
 11
288.345
 21
106.138
 31
0.0
  0
LINE
  5
2C6
330
6F
100
AcDbEntity
  8
0
 62
     0
100
AcDbLine
 10
288.345
 20
106.138
 30
0.0
 11
290.07
 21
106.138
 31
0.0
  0
LINE
  5
2C7
330
6F
100
AcDbEntity
  8
0
 62
     0
100
AcDbLine
 10
290.07
 20
106.138
 30
0.0
 11
290.07
 21
112.408
 31
0.0
  0
LINE
  5
2C8
330
6F
100
AcDbEntity
  8
0
 62
     0
100
AcDbLine
 10
290.07
 20
112.408
 30
0.0
 11
290.896
 21
112.408
 31
0.0
  0
LINE
  5
2C9
330
6F
100
AcDbEntity
  8
0
 62
     0
100
AcDbLine
 10
290.896
 20
112.408
 30
0.0
 11
290.896
 21
115.208
 31
0.0
  0
LINE
  5
2CA
330
6F
100
AcDbEntity
  8
0
 62
     0
100
AcDbLine
 10
290.896
 20
115.208
 30
0.0
 11
290.07
 21
115.208
 31
0.0
  0
LINE
  5
2CB
330
6F
100
AcDbEntity
  8
0
 62
     0
100
AcDbLine
 10
290.07
 20
115.208
 30
0.0
 11
290.07
 21
118.438
 31
0.0
  0
LINE
  5
2CC
330
6F
100
AcDbEntity
  8
0
 62
     0
100
AcDbLine
 10
290.07
 20
118.438
 30
0.0
 11
283.32
 21
118.438
 31
0.0
  0
LINE
  5
2CD
330
6F
100
AcDbEntity
  8
0
 62
     0
100
AcDbLine
 10
283.32
 20
118.438
 30
0.0
 11
283.32
 21
115.208
 31
0.0
  0
LINE
  5
2CE
330
6F
100
AcDbEntity
  8
0
 62
     0
100
AcDbLine
 10
283.32
 20
115.208
 30
0.0
 11
281.795
 21
115.208
 31
0.0
  0
LINE
  5
2CF
330
6F
100
AcDbEntity
  8
0
 62
     0
100
AcDbLine
 10
281.795
 20
115.208
 30
0.0
 11
281.795
 21
119.908
 31
0.0
  0
LINE
  5
2D0
330
6F
100
AcDbEntity
  8
0
 62
     0
100
AcDbLine
 10
281.795
 20
119.908
 30
0.0
 11
267.795
 21
119.908
 31
0.0
  0
LINE
  5
2D1
330
6F
100
AcDbEntity
  8
0
 62
     0
100
AcDbLine
 10
305.895
 20
119.908
 30
0.0
 11
319.895
 21
119.908
 31
0.0
  0
LINE
  5
2D2
330
6F
100
AcDbEntity
  8
0
 62
     0
100
AcDbLine
 10
319.895
 20
119.908
 30
0.0
 11
319.895
 21
105.908
 31
0.0
  0
LINE
  5
2D3
330
6F
100
AcDbEntity
  8
0
 62
     0
100
AcDbLine
 10
319.895
 20
105.908
 30
0.0
 11
305.895
 21
105.908
 31
0.0
  0
LINE
  5
2D4
330
6F
100
AcDbEntity
  8
0
 62
     0
100
AcDbLine
 10
305.895
 20
105.908
 30
0.0
 11
305.895
 21
119.908
 31
0.0
  0
LINE
  5
2D5
330
6F
100
AcDbEntity
  8
0
 62
     0
100
AcDbLine
 10
239.22
 20
119.908
 30
0.0
 11
253.22
 21
119.908
 31
0.0
  0
LINE
  5
2D6
330
6F
100
AcDbEntity
  8
0
 62
     0
100
AcDbLine
 10
253.22
 20
119.908
 30
0.0
 11
253.22
 21
105.908
 31
0.0
  0
LINE
  5
2D7
330
6F
100
AcDbEntity
  8
0
 62
     0
100
AcDbLine
 10
253.22
 20
105.908
 30
0.0
 11
239.22
 21
105.908
 31
0.0
  0
LINE
  5
2D8
330
6F
100
AcDbEntity
  8
0
 62
     0
100
AcDbLine
 10
239.22
 20
105.908
 30
0.0
 11
239.22
 21
119.908
 31
0.0
  0
LINE
  5
2D9
330
6F
100
AcDbEntity
  8
0
 62
     0
100
AcDbLine
 10
220.17
 20
119.908
 30
0.0
 11
234.17
 21
119.908
 31
0.0
  0
LINE
  5
2DA
330
6F
100
AcDbEntity
  8
0
 62
     0
100
AcDbLine
 10
234.17
 20
119.908
 30
0.0
 11
234.17
 21
105.908
 31
0.0
  0
LINE
  5
2DB
330
6F
100
AcDbEntity
  8
0
 62
     0
100
AcDbLine
 10
234.17
 20
105.908
 30
0.0
 11
220.17
 21
105.908
 31
0.0
  0
LINE
  5
2DC
330
6F
100
AcDbEntity
  8
0
 62
     0
100
AcDbLine
 10
220.17
 20
105.908
 30
0.0
 11
220.17
 21
119.908
 31
0.0
  0
LINE
  5
2DD
330
6F
100
AcDbEntity
  8
0
 62
     0
100
AcDbLine
 10
201.12
 20
119.908
 30
0.0
 11
215.12
 21
119.908
 31
0.0
  0
LINE
  5
2DE
330
6F
100
AcDbEntity
  8
0
 62
     0
100
AcDbLine
 10
215.12
 20
119.908
 30
0.0
 11
215.12
 21
105.908
 31
0.0
  0
LINE
  5
2DF
330
6F
100
AcDbEntity
  8
0
 62
     0
100
AcDbLine
 10
215.12
 20
105.908
 30
0.0
 11
201.12
 21
105.908
 31
0.0
  0
LINE
  5
2E0
330
6F
100
AcDbEntity
  8
0
 62
     0
100
AcDbLine
 10
201.12
 20
105.908
 30
0.0
 11
201.12
 21
119.908
 31
0.0
  0
LINE
  5
2E1
330
6F
100
AcDbEntity
  8
0
 62
     0
100
AcDbLine
 10
182.07
 20
119.908
 30
0.0
 11
196.07
 21
119.908
 31
0.0
  0
LINE
  5
2E2
330
6F
100
AcDbEntity
  8
0
 62
     0
100
AcDbLine
 10
196.07
 20
119.908
 30
0.0
 11
196.07
 21
105.908
 31
0.0
  0
LINE
  5
2E3
330
6F
100
AcDbEntity
  8
0
 62
     0
100
AcDbLine
 10
196.07
 20
105.908
 30
0.0
 11
182.07
 21
105.908
 31
0.0
  0
LINE
  5
2E4
330
6F
100
AcDbEntity
  8
0
 62
     0
100
AcDbLine
 10
182.07
 20
105.908
 30
0.0
 11
182.07
 21
119.908
 31
0.0
  0
LINE
  5
2E5
330
6F
100
AcDbEntity
  8
0
 62
     0
100
AcDbLine
 10
163.02
 20
119.908
 30
0.0
 11
177.02
 21
119.908
 31
0.0
  0
LINE
  5
2E6
330
6F
100
AcDbEntity
  8
0
 62
     0
100
AcDbLine
 10
177.02
 20
119.908
 30
0.0
 11
177.02
 21
105.908
 31
0.0
  0
LINE
  5
2E7
330
6F
100
AcDbEntity
  8
0
 62
     0
100
AcDbLine
 10
177.02
 20
105.908
 30
0.0
 11
163.02
 21
105.908
 31
0.0
  0
LINE
  5
2E8
330
6F
100
AcDbEntity
  8
0
 62
     0
100
AcDbLine
 10
163.02
 20
105.908
 30
0.0
 11
163.02
 21
119.908
 31
0.0
  0
LINE
  5
2E9
330
6F
100
AcDbEntity
  8
0
 62
     0
100
AcDbLine
 10
143.97
 20
119.908
 30
0.0
 11
157.97
 21
119.908
 31
0.0
  0
LINE
  5
2EA
330
6F
100
AcDbEntity
  8
0
 62
     0
100
AcDbLine
 10
157.97
 20
119.908
 30
0.0
 11
157.97
 21
105.908
 31
0.0
  0
LINE
  5
2EB
330
6F
100
AcDbEntity
  8
0
 62
     0
100
AcDbLine
 10
157.97
 20
105.908
 30
0.0
 11
143.97
 21
105.908
 31
0.0
  0
LINE
  5
2EC
330
6F
100
AcDbEntity
  8
0
 62
     0
100
AcDbLine
 10
143.97
 20
105.908
 30
0.0
 11
143.97
 21
119.908
 31
0.0
  0
LINE
  5
2ED
330
6F
100
AcDbEntity
  8
0
 62
     0
100
AcDbLine
 10
124.919
 20
119.908
 30
0.0
 11
138.92
 21
119.908
 31
0.0
  0
LINE
  5
2EE
330
6F
100
AcDbEntity
  8
0
 62
     0
100
AcDbLine
 10
138.92
 20
119.908
 30
0.0
 11
138.92
 21
105.908
 31
0.0
  0
LINE
  5
2EF
330
6F
100
AcDbEntity
  8
0
 62
     0
100
AcDbLine
 10
138.92
 20
105.908
 30
0.0
 11
124.919
 21
105.908
 31
0.0
  0
LINE
  5
2F0
330
6F
100
AcDbEntity
  8
0
 62
     0
100
AcDbLine
 10
124.919
 20
105.908
 30
0.0
 11
124.919
 21
119.908
 31
0.0
  0
LINE
  5
2F1
330
6F
100
AcDbEntity
  8
0
 62
     0
100
AcDbLine
 10
105.869
 20
119.908
 30
0.0
 11
119.87
 21
119.908
 31
0.0
  0
LINE
  5
2F2
330
6F
100
AcDbEntity
  8
0
 62
     0
100
AcDbLine
 10
119.87
 20
119.908
 30
0.0
 11
119.87
 21
105.908
 31
0.0
  0
LINE
  5
2F3
330
6F
100
AcDbEntity
  8
0
 62
     0
100
AcDbLine
 10
119.87
 20
105.908
 30
0.0
 11
105.869
 21
105.908
 31
0.0
  0
LINE
  5
2F4
330
6F
100
AcDbEntity
  8
0
 62
     0
100
AcDbLine
 10
105.869
 20
105.908
 30
0.0
 11
105.869
 21
119.908
 31
0.0
  0
LINE
  5
2F5
330
6F
100
AcDbEntity
  8
0
 62
     0
100
AcDbLine
 10
86.8204
 20
119.908
 30
0.0
 11
100.82
 21
119.908
 31
0.0
  0
LINE
  5
2F6
330
6F
100
AcDbEntity
  8
0
 62
     0
100
AcDbLine
 10
100.82
 20
119.908
 30
0.0
 11
100.82
 21
105.908
 31
0.0
  0
LINE
  5
2F7
330
6F
100
AcDbEntity
  8
0
 62
     0
100
AcDbLine
 10
100.82
 20
105.908
 30
0.0
 11
86.8204
 21
105.908
 31
0.0
  0
LINE
  5
2F8
330
6F
100
AcDbEntity
  8
0
 62
     0
100
AcDbLine
 10
86.8204
 20
105.908
 30
0.0
 11
86.8204
 21
119.908
 31
0.0
  0
LINE
  5
2F9
330
6F
100
AcDbEntity
  8
0
 62
     0
100
AcDbLine
 10
67.77039999999999
 20
119.908
 30
0.0
 11
81.76999999999999
 21
119.908
 31
0.0
  0
LINE
  5
2FA
330
6F
100
AcDbEntity
  8
0
 62
     0
100
AcDbLine
 10
81.76999999999999
 20
119.908
 30
0.0
 11
81.76999999999999
 21
105.908
 31
0.0
  0
LINE
  5
2FB
330
6F
100
AcDbEntity
  8
0
 62
     0
100
AcDbLine
 10
81.76999999999999
 20
105.908
 30
0.0
 11
67.77039999999999
 21
105.908
 31
0.0
  0
LINE
  5
2FC
330
6F
100
AcDbEntity
  8
0
 62
     0
100
AcDbLine
 10
67.77039999999999
 20
105.908
 30
0.0
 11
67.77039999999999
 21
119.908
 31
0.0
  0
LINE
  5
2FD
330
6F
100
AcDbEntity
  8
0
 62
     0
100
AcDbLine
 10
48.7204
 20
119.908
 30
0.0
 11
62.72
 21
119.908
 31
0.0
  0
LINE
  5
2FE
330
6F
100
AcDbEntity
  8
0
 62
     0
100
AcDbLine
 10
62.72
 20
119.908
 30
0.0
 11
62.72
 21
105.908
 31
0.0
  0
LINE
  5
2FF
330
6F
100
AcDbEntity
  8
0
 62
     0
100
AcDbLine
 10
62.72
 20
105.908
 30
0.0
 11
48.7204
 21
105.908
 31
0.0
  0
LINE
  5
300
330
6F
100
AcDbEntity
  8
0
 62
     0
100
AcDbLine
 10
48.7204
 20
105.908
 30
0.0
 11
48.7204
 21
119.908
 31
0.0
  0
LINE
  5
301
330
6F
100
AcDbEntity
  8
0
 62
     0
100
AcDbLine
 10
29.6706
 20
119.908
 30
0.0
 11
43.66999999999999
 21
119.908
 31
0.0
  0
LINE
  5
302
330
6F
100
AcDbEntity
  8
0
 62
     0
100
AcDbLine
 10
43.66999999999999
 20
119.908
 30
0.0
 11
43.66999999999999
 21
105.908
 31
0.0
  0
LINE
  5
303
330
6F
100
AcDbEntity
  8
0
 62
     0
100
AcDbLine
 10
43.66999999999999
 20
105.908
 30
0.0
 11
29.6706
 21
105.908
 31
0.0
  0
LINE
  5
304
330
6F
100
AcDbEntity
  8
0
 62
     0
100
AcDbLine
 10
29.6706
 20
105.908
 30
0.0
 11
29.6706
 21
119.908
 31
0.0
  0
LINE
  5
305
330
6F
100
AcDbEntity
  8
0
 62
     0
100
AcDbLine
 10
10.6192
 20
119.908
 30
0.0
 11
24.62
 21
119.908
 31
0.0
  0
LINE
  5
306
330
6F
100
AcDbEntity
  8
0
 62
     0
100
AcDbLine
 10
24.62
 20
119.908
 30
0.0
 11
24.62
 21
105.908
 31
0.0
  0
LINE
  5
307
330
6F
100
AcDbEntity
  8
0
 62
     0
100
AcDbLine
 10
24.62
 20
105.908
 30
0.0
 11
10.6192
 21
105.908
 31
0.0
  0
LINE
  5
308
330
6F
100
AcDbEntity
  8
0
 62
     0
100
AcDbLine
 10
10.6192
 20
105.908
 30
0.0
 11
10.6192
 21
119.908
 31
0.0
  0
LINE
  5
309
330
6F
100
AcDbEntity
  8
0
 62
     0
100
AcDbLine
 10
3.75514
 20
127.479
 30
0.0
 11
3.447849999999999
 21
127.324
 31
0.0
  0
LINE
  5
30A
330
6F
100
AcDbEntity
  8
0
 62
     0
100
AcDbLine
 10
3.447849999999999
 20
127.324
 30
0.0
 11
3.20394
 21
127.08
 31
0.0
  0
LINE
  5
30B
330
6F
100
AcDbEntity
  8
0
 62
     0
100
AcDbLine
 10
3.20394
 20
127.08
 30
0.0
 11
3.04822
 21
126.772
 31
0.0
  0
LINE
  5
30C
330
6F
100
AcDbEntity
  8
0
 62
     0
100
AcDbLine
 10
3.04822
 20
126.772
 30
0.0
 11
2.99586
 21
126.432
 31
0.0
  0
LINE
  5
30D
330
6F
100
AcDbEntity
  8
0
 62
     0
100
AcDbLine
 10
2.99586
 20
126.432
 30
0.0
 11
3.04822
 21
126.093
 31
0.0
  0
LINE
  5
30E
330
6F
100
AcDbEntity
  8
0
 62
     0
100
AcDbLine
 10
3.04822
 20
126.093
 30
0.0
 11
3.20394
 21
125.786
 31
0.0
  0
LINE
  5
30F
330
6F
100
AcDbEntity
  8
0
 62
     0
100
AcDbLine
 10
3.20394
 20
125.786
 30
0.0
 11
3.447849999999999
 21
125.543
 31
0.0
  0
LINE
  5
310
330
6F
100
AcDbEntity
  8
0
 62
     0
100
AcDbLine
 10
3.447849999999999
 20
125.543
 30
0.0
 11
3.75514
 21
125.386
 31
0.0
  0
LINE
  5
311
330
6F
100
AcDbEntity
  8
0
 62
     0
100
AcDbLine
 10
3.75514
 20
125.386
 30
0.0
 11
4.095539999999999
 21
125.332
 31
0.0
  0
LINE
  5
312
330
6F
100
AcDbEntity
  8
0
 62
     0
100
AcDbLine
 10
4.095539999999999
 20
125.332
 30
0.0
 11
4.43452
 21
125.386
 31
0.0
  0
LINE
  5
313
330
6F
100
AcDbEntity
  8
0
 62
     0
100
AcDbLine
 10
4.43452
 20
125.386
 30
0.0
 11
4.74183
 21
125.543
 31
0.0
  0
LINE
  5
314
330
6F
100
AcDbEntity
  8
0
 62
     0
100
AcDbLine
 10
4.74183
 20
125.543
 30
0.0
 11
4.984359999999999
 21
125.786
 31
0.0
  0
LINE
  5
315
330
6F
100
AcDbEntity
  8
0
 62
     0
100
AcDbLine
 10
4.984359999999999
 20
125.786
 30
0.0
 11
5.141449999999999
 21
126.093
 31
0.0
  0
LINE
  5
316
330
6F
100
AcDbEntity
  8
0
 62
     0
100
AcDbLine
 10
5.141449999999999
 20
126.093
 30
0.0
 11
5.195219999999999
 21
126.432
 31
0.0
  0
LINE
  5
317
330
6F
100
AcDbEntity
  8
0
 62
     0
100
AcDbLine
 10
5.195219999999999
 20
126.432
 30
0.0
 11
5.141449999999999
 21
126.772
 31
0.0
  0
LINE
  5
318
330
6F
100
AcDbEntity
  8
0
 62
     0
100
AcDbLine
 10
5.141449999999999
 20
126.772
 30
0.0
 11
4.984359999999999
 21
127.08
 31
0.0
  0
LINE
  5
319
330
6F
100
AcDbEntity
  8
0
 62
     0
100
AcDbLine
 10
4.984359999999999
 20
127.08
 30
0.0
 11
4.74183
 21
127.324
 31
0.0
  0
LINE
  5
31A
330
6F
100
AcDbEntity
  8
0
 62
     0
100
AcDbLine
 10
4.74183
 20
127.324
 30
0.0
 11
4.43452
 21
127.479
 31
0.0
  0
LINE
  5
31B
330
6F
100
AcDbEntity
  8
0
 62
     0
100
AcDbLine
 10
4.43452
 20
127.479
 30
0.0
 11
4.095539999999999
 21
127.532
 31
0.0
  0
LINE
  5
31C
330
6F
100
AcDbEntity
  8
0
 62
     0
100
AcDbLine
 10
4.095539999999999
 20
127.532
 30
0.0
 11
3.75514
 21
127.479
 31
0.0
  0
LINE
  5
31D
330
6F
100
AcDbEntity
  8
0
 62
     0
100
AcDbLine
 10
326.081
 20
127.479
 30
0.0
 11
325.775
 21
127.324
 31
0.0
  0
LINE
  5
31E
330
6F
100
AcDbEntity
  8
0
 62
     0
100
AcDbLine
 10
325.775
 20
127.324
 30
0.0
 11
325.531
 21
127.08
 31
0.0
  0
LINE
  5
31F
330
6F
100
AcDbEntity
  8
0
 62
     0
100
AcDbLine
 10
325.531
 20
127.08
 30
0.0
 11
325.374
 21
126.772
 31
0.0
  0
LINE
  5
320
330
6F
100
AcDbEntity
  8
0
 62
     0
100
AcDbLine
 10
325.374
 20
126.772
 30
0.0
 11
325.322
 21
126.432
 31
0.0
  0
LINE
  5
321
330
6F
100
AcDbEntity
  8
0
 62
     0
100
AcDbLine
 10
325.322
 20
126.432
 30
0.0
 11
325.374
 21
126.093
 31
0.0
  0
LINE
  5
322
330
6F
100
AcDbEntity
  8
0
 62
     0
100
AcDbLine
 10
325.374
 20
126.093
 30
0.0
 11
325.531
 21
125.786
 31
0.0
  0
LINE
  5
323
330
6F
100
AcDbEntity
  8
0
 62
     0
100
AcDbLine
 10
325.531
 20
125.786
 30
0.0
 11
325.775
 21
125.543
 31
0.0
  0
LINE
  5
324
330
6F
100
AcDbEntity
  8
0
 62
     0
100
AcDbLine
 10
325.775
 20
125.543
 30
0.0
 11
326.081
 21
125.386
 31
0.0
  0
LINE
  5
325
330
6F
100
AcDbEntity
  8
0
 62
     0
100
AcDbLine
 10
326.081
 20
125.386
 30
0.0
 11
326.421
 21
125.332
 31
0.0
  0
LINE
  5
326
330
6F
100
AcDbEntity
  8
0
 62
     0
100
AcDbLine
 10
326.421
 20
125.332
 30
0.0
 11
326.76
 21
125.386
 31
0.0
  0
LINE
  5
327
330
6F
100
AcDbEntity
  8
0
 62
     0
100
AcDbLine
 10
326.76
 20
125.386
 30
0.0
 11
327.068
 21
125.543
 31
0.0
  0
LINE
  5
328
330
6F
100
AcDbEntity
  8
0
 62
     0
100
AcDbLine
 10
327.068
 20
125.543
 30
0.0
 11
327.31
 21
125.786
 31
0.0
  0
LINE
  5
329
330
6F
100
AcDbEntity
  8
0
 62
     0
100
AcDbLine
 10
327.31
 20
125.786
 30
0.0
 11
327.467
 21
126.093
 31
0.0
  0
LINE
  5
32A
330
6F
100
AcDbEntity
  8
0
 62
     0
100
AcDbLine
 10
327.467
 20
126.093
 30
0.0
 11
327.5209999999999
 21
126.432
 31
0.0
  0
LINE
  5
32B
330
6F
100
AcDbEntity
  8
0
 62
     0
100
AcDbLine
 10
327.5209999999999
 20
126.432
 30
0.0
 11
327.467
 21
126.772
 31
0.0
  0
LINE
  5
32C
330
6F
100
AcDbEntity
  8
0
 62
     0
100
AcDbLine
 10
327.467
 20
126.772
 30
0.0
 11
327.31
 21
127.08
 31
0.0
  0
LINE
  5
32D
330
6F
100
AcDbEntity
  8
0
 62
     0
100
AcDbLine
 10
327.31
 20
127.08
 30
0.0
 11
327.068
 21
127.324
 31
0.0
  0
LINE
  5
32E
330
6F
100
AcDbEntity
  8
0
 62
     0
100
AcDbLine
 10
327.068
 20
127.324
 30
0.0
 11
326.76
 21
127.479
 31
0.0
  0
LINE
  5
32F
330
6F
100
AcDbEntity
  8
0
 62
     0
100
AcDbLine
 10
326.76
 20
127.479
 30
0.0
 11
326.421
 21
127.532
 31
0.0
  0
LINE
  5
330
330
6F
100
AcDbEntity
  8
0
 62
     0
100
AcDbLine
 10
326.421
 20
127.532
 30
0.0
 11
326.081
 21
127.479
 31
0.0
  0
LINE
  5
331
330
6F
100
AcDbEntity
  8
0
 62
     0
100
AcDbLine
 10
245.499
 20
127.479
 30
0.0
 11
245.193
 21
127.324
 31
0.0
  0
LINE
  5
332
330
6F
100
AcDbEntity
  8
0
 62
     0
100
AcDbLine
 10
245.193
 20
127.324
 30
0.0
 11
244.949
 21
127.08
 31
0.0
  0
LINE
  5
333
330
6F
100
AcDbEntity
  8
0
 62
     0
100
AcDbLine
 10
244.949
 20
127.08
 30
0.0
 11
244.793
 21
126.772
 31
0.0
  0
LINE
  5
334
330
6F
100
AcDbEntity
  8
0
 62
     0
100
AcDbLine
 10
244.793
 20
126.772
 30
0.0
 11
244.74
 21
126.432
 31
0.0
  0
LINE
  5
335
330
6F
100
AcDbEntity
  8
0
 62
     0
100
AcDbLine
 10
244.74
 20
126.432
 30
0.0
 11
244.793
 21
126.093
 31
0.0
  0
LINE
  5
336
330
6F
100
AcDbEntity
  8
0
 62
     0
100
AcDbLine
 10
244.793
 20
126.093
 30
0.0
 11
244.949
 21
125.786
 31
0.0
  0
LINE
  5
337
330
6F
100
AcDbEntity
  8
0
 62
     0
100
AcDbLine
 10
244.949
 20
125.786
 30
0.0
 11
245.193
 21
125.543
 31
0.0
  0
LINE
  5
338
330
6F
100
AcDbEntity
  8
0
 62
     0
100
AcDbLine
 10
245.193
 20
125.543
 30
0.0
 11
245.499
 21
125.386
 31
0.0
  0
LINE
  5
339
330
6F
100
AcDbEntity
  8
0
 62
     0
100
AcDbLine
 10
245.499
 20
125.386
 30
0.0
 11
245.839
 21
125.332
 31
0.0
  0
LINE
  5
33A
330
6F
100
AcDbEntity
  8
0
 62
     0
100
AcDbLine
 10
245.839
 20
125.332
 30
0.0
 11
246.18
 21
125.386
 31
0.0
  0
LINE
  5
33B
330
6F
100
AcDbEntity
  8
0
 62
     0
100
AcDbLine
 10
246.18
 20
125.386
 30
0.0
 11
246.487
 21
125.543
 31
0.0
  0
LINE
  5
33C
330
6F
100
AcDbEntity
  8
0
 62
     0
100
AcDbLine
 10
246.487
 20
125.543
 30
0.0
 11
246.73
 21
125.786
 31
0.0
  0
LINE
  5
33D
330
6F
100
AcDbEntity
  8
0
 62
     0
100
AcDbLine
 10
246.73
 20
125.786
 30
0.0
 11
246.885
 21
126.093
 31
0.0
  0
LINE
  5
33E
330
6F
100
AcDbEntity
  8
0
 62
     0
100
AcDbLine
 10
246.885
 20
126.093
 30
0.0
 11
246.939
 21
126.432
 31
0.0
  0
LINE
  5
33F
330
6F
100
AcDbEntity
  8
0
 62
     0
100
AcDbLine
 10
246.939
 20
126.432
 30
0.0
 11
246.885
 21
126.772
 31
0.0
  0
LINE
  5
340
330
6F
100
AcDbEntity
  8
0
 62
     0
100
AcDbLine
 10
246.885
 20
126.772
 30
0.0
 11
246.73
 21
127.08
 31
0.0
  0
LINE
  5
341
330
6F
100
AcDbEntity
  8
0
 62
     0
100
AcDbLine
 10
246.73
 20
127.08
 30
0.0
 11
246.487
 21
127.324
 31
0.0
  0
LINE
  5
342
330
6F
100
AcDbEntity
  8
0
 62
     0
100
AcDbLine
 10
246.487
 20
127.324
 30
0.0
 11
246.18
 21
127.479
 31
0.0
  0
LINE
  5
343
330
6F
100
AcDbEntity
  8
0
 62
     0
100
AcDbLine
 10
246.18
 20
127.479
 30
0.0
 11
245.839
 21
127.532
 31
0.0
  0
LINE
  5
344
330
6F
100
AcDbEntity
  8
0
 62
     0
100
AcDbLine
 10
245.839
 20
127.532
 30
0.0
 11
245.499
 21
127.479
 31
0.0
  0
LINE
  5
345
330
6F
100
AcDbEntity
  8
0
 62
     0
100
AcDbLine
 10
164.918
 20
127.479
 30
0.0
 11
164.612
 21
127.324
 31
0.0
  0
LINE
  5
346
330
6F
100
AcDbEntity
  8
0
 62
     0
100
AcDbLine
 10
164.612
 20
127.324
 30
0.0
 11
164.368
 21
127.08
 31
0.0
  0
LINE
  5
347
330
6F
100
AcDbEntity
  8
0
 62
     0
100
AcDbLine
 10
164.368
 20
127.08
 30
0.0
 11
164.211
 21
126.772
 31
0.0
  0
LINE
  5
348
330
6F
100
AcDbEntity
  8
0
 62
     0
100
AcDbLine
 10
164.211
 20
126.772
 30
0.0
 11
164.159
 21
126.432
 31
0.0
  0
LINE
  5
349
330
6F
100
AcDbEntity
  8
0
 62
     0
100
AcDbLine
 10
164.159
 20
126.432
 30
0.0
 11
164.211
 21
126.093
 31
0.0
  0
LINE
  5
34A
330
6F
100
AcDbEntity
  8
0
 62
     0
100
AcDbLine
 10
164.211
 20
126.093
 30
0.0
 11
164.368
 21
125.786
 31
0.0
  0
LINE
  5
34B
330
6F
100
AcDbEntity
  8
0
 62
     0
100
AcDbLine
 10
164.368
 20
125.786
 30
0.0
 11
164.612
 21
125.543
 31
0.0
  0
LINE
  5
34C
330
6F
100
AcDbEntity
  8
0
 62
     0
100
AcDbLine
 10
164.612
 20
125.543
 30
0.0
 11
164.918
 21
125.386
 31
0.0
  0
LINE
  5
34D
330
6F
100
AcDbEntity
  8
0
 62
     0
100
AcDbLine
 10
164.918
 20
125.386
 30
0.0
 11
165.258
 21
125.332
 31
0.0
  0
LINE
  5
34E
330
6F
100
AcDbEntity
  8
0
 62
     0
100
AcDbLine
 10
165.258
 20
125.332
 30
0.0
 11
165.597
 21
125.386
 31
0.0
  0
LINE
  5
34F
330
6F
100
AcDbEntity
  8
0
 62
     0
100
AcDbLine
 10
165.597
 20
125.386
 30
0.0
 11
165.905
 21
125.543
 31
0.0
  0
LINE
  5
350
330
6F
100
AcDbEntity
  8
0
 62
     0
100
AcDbLine
 10
165.905
 20
125.543
 30
0.0
 11
166.147
 21
125.786
 31
0.0
  0
LINE
  5
351
330
6F
100
AcDbEntity
  8
0
 62
     0
100
AcDbLine
 10
166.147
 20
125.786
 30
0.0
 11
166.304
 21
126.093
 31
0.0
  0
LINE
  5
352
330
6F
100
AcDbEntity
  8
0
 62
     0
100
AcDbLine
 10
166.304
 20
126.093
 30
0.0
 11
166.358
 21
126.432
 31
0.0
  0
LINE
  5
353
330
6F
100
AcDbEntity
  8
0
 62
     0
100
AcDbLine
 10
166.358
 20
126.432
 30
0.0
 11
166.304
 21
126.772
 31
0.0
  0
LINE
  5
354
330
6F
100
AcDbEntity
  8
0
 62
     0
100
AcDbLine
 10
166.304
 20
126.772
 30
0.0
 11
166.147
 21
127.08
 31
0.0
  0
LINE
  5
355
330
6F
100
AcDbEntity
  8
0
 62
     0
100
AcDbLine
 10
166.147
 20
127.08
 30
0.0
 11
165.905
 21
127.324
 31
0.0
  0
LINE
  5
356
330
6F
100
AcDbEntity
  8
0
 62
     0
100
AcDbLine
 10
165.905
 20
127.324
 30
0.0
 11
165.597
 21
127.479
 31
0.0
  0
LINE
  5
357
330
6F
100
AcDbEntity
  8
0
 62
     0
100
AcDbLine
 10
165.597
 20
127.479
 30
0.0
 11
165.258
 21
127.532
 31
0.0
  0
LINE
  5
358
330
6F
100
AcDbEntity
  8
0
 62
     0
100
AcDbLine
 10
165.258
 20
127.532
 30
0.0
 11
164.918
 21
127.479
 31
0.0
  0
LINE
  5
359
330
6F
100
AcDbEntity
  8
0
 62
     0
100
AcDbLine
 10
84.33609999999999
 20
127.479
 30
0.0
 11
84.0299
 21
127.324
 31
0.0
  0
LINE
  5
35A
330
6F
100
AcDbEntity
  8
0
 62
     0
100
AcDbLine
 10
84.0299
 20
127.324
 30
0.0
 11
83.7861
 21
127.08
 31
0.0
  0
LINE
  5
35B
330
6F
100
AcDbEntity
  8
0
 62
     0
100
AcDbLine
 10
83.7861
 20
127.08
 30
0.0
 11
83.6306
 21
126.772
 31
0.0
  0
LINE
  5
35C
330
6F
100
AcDbEntity
  8
0
 62
     0
100
AcDbLine
 10
83.6306
 20
126.772
 30
0.0
 11
83.5766
 21
126.432
 31
0.0
  0
LINE
  5
35D
330
6F
100
AcDbEntity
  8
0
 62
     0
100
AcDbLine
 10
83.5766
 20
126.432
 30
0.0
 11
83.6306
 21
126.093
 31
0.0
  0
LINE
  5
35E
330
6F
100
AcDbEntity
  8
0
 62
     0
100
AcDbLine
 10
83.6306
 20
126.093
 30
0.0
 11
83.7861
 21
125.786
 31
0.0
  0
LINE
  5
35F
330
6F
100
AcDbEntity
  8
0
 62
     0
100
AcDbLine
 10
83.7861
 20
125.786
 30
0.0
 11
84.0299
 21
125.543
 31
0.0
  0
LINE
  5
360
330
6F
100
AcDbEntity
  8
0
 62
     0
100
AcDbLine
 10
84.0299
 20
125.543
 30
0.0
 11
84.33609999999999
 21
125.386
 31
0.0
  0
LINE
  5
361
330
6F
100
AcDbEntity
  8
0
 62
     0
100
AcDbLine
 10
84.33609999999999
 20
125.386
 30
0.0
 11
84.6762
 21
125.332
 31
0.0
  0
LINE
  5
362
330
6F
100
AcDbEntity
  8
0
 62
     0
100
AcDbLine
 10
84.6762
 20
125.332
 30
0.0
 11
85.01659999999999
 21
125.386
 31
0.0
  0
LINE
  5
363
330
6F
100
AcDbEntity
  8
0
 62
     0
100
AcDbLine
 10
85.01659999999999
 20
125.386
 30
0.0
 11
85.32389999999999
 21
125.543
 31
0.0
  0
LINE
  5
364
330
6F
100
AcDbEntity
  8
0
 62
     0
100
AcDbLine
 10
85.32389999999999
 20
125.543
 30
0.0
 11
85.56659999999999
 21
125.786
 31
0.0
  0
LINE
  5
365
330
6F
100
AcDbEntity
  8
0
 62
     0
100
AcDbLine
 10
85.56659999999999
 20
125.786
 30
0.0
 11
85.72219999999999
 21
126.093
 31
0.0
  0
LINE
  5
366
330
6F
100
AcDbEntity
  8
0
 62
     0
100
AcDbLine
 10
85.72219999999999
 20
126.093
 30
0.0
 11
85.77620000000001
 21
126.432
 31
0.0
  0
LINE
  5
367
330
6F
100
AcDbEntity
  8
0
 62
     0
100
AcDbLine
 10
85.77620000000001
 20
126.432
 30
0.0
 11
85.72219999999999
 21
126.772
 31
0.0
  0
LINE
  5
368
330
6F
100
AcDbEntity
  8
0
 62
     0
100
AcDbLine
 10
85.72219999999999
 20
126.772
 30
0.0
 11
85.56659999999999
 21
127.08
 31
0.0
  0
LINE
  5
369
330
6F
100
AcDbEntity
  8
0
 62
     0
100
AcDbLine
 10
85.56659999999999
 20
127.08
 30
0.0
 11
85.32389999999999
 21
127.324
 31
0.0
  0
LINE
  5
36A
330
6F
100
AcDbEntity
  8
0
 62
     0
100
AcDbLine
 10
85.32389999999999
 20
127.324
 30
0.0
 11
85.01659999999999
 21
127.479
 31
0.0
  0
LINE
  5
36B
330
6F
100
AcDbEntity
  8
0
 62
     0
100
AcDbLine
 10
85.01659999999999
 20
127.479
 30
0.0
 11
84.6762
 21
127.532
 31
0.0
  0
LINE
  5
36C
330
6F
100
AcDbEntity
  8
0
 62
     0
100
AcDbLine
 10
84.6762
 20
127.532
 30
0.0
 11
84.33609999999999
 21
127.479
 31
0.0
  0
LWPOLYLINE
  5
37A
330
6F
100
AcDbEntity
  8
0
100
AcDbPolyline
 90
        5
 70
     1
 43
0.0
 10
50.9348500149672
 20
38.90310992625649
 10
53.47485001496717
 20
38.90310992625649
 10
53.47485001496717
 20
35.34710992625651
 10
50.9348500149672
 20
35.34710992625651
 10
50.9348500149672
 20
38.90310992625649
  0
CIRCLE
  5
3B0
330
6F
100
AcDbEntity
  8
0
100
AcDbCircle
 10
127.158
 20
65.88549382601422
 30
0.0
 40
2.032
  0
CIRCLE
  5
3B1
330
6F
100
AcDbEntity
  8
0
100
AcDbCircle
 10
136.6830000000001
 20
65.88549382601422
 30
0.0
 40
3.048
  0
CIRCLE
  5
3B2
330
6F
100
AcDbEntity
  8
0
100
AcDbCircle
 10
146.2079999999999
 20
65.88549382601422
 30
0.0
 40
2.032
  0
ENDSEC
  0
SECTION
  2
OBJECTS
  0
DICTIONARY
  5
C
330
0
100
AcDbDictionary
281
     1
  3
ACAD_CIP_PREVIOUS_PRODUCT_INFO
350
36E
  3
ACAD_COLOR
350
62
  3
ACAD_DETAILVIEWSTYLE
350
69
  3
ACAD_GROUP
350
D
  3
ACAD_LAYOUT
350
61
  3
ACAD_MATERIAL
350
10
  3
ACAD_MLEADERSTYLE
350
65
  3
ACAD_MLINESTYLE
350
5E
  3
ACAD_PLOTSETTINGS
350
60
  3
ACAD_PLOTSTYLENAME
350
E
  3
ACAD_SCALELIST
350
42
  3
ACAD_SECTIONVIEWSTYLE
350
67
  3
ACAD_TABLESTYLE
350
63
  3
ACAD_VISUALSTYLE
350
29
  3
ACDB_RECOMPOSE_DATA
350
3B7
  3
AcDbVariableDictionary
350
38C
  0
DICTIONARY
  5
373
330
2
100
AcDbDictionary
280
     1
281
     1
  3
ACAD_LAYERSTATES
360
374
  0
DICTIONARY
  5
3B3
330
54
100
AcDbDictionary
280
     1
281
     1
  3
ADSK_XREC_LAYER_RECONCILED
360
3B4
  0
XRECORD
  5
36E
102
{ACAD_REACTORS
330
C
102
}
330
C
100
AcDbXrecord
280
     1
300
ACD
300
2021
300

  0
DICTIONARY
  5
62
102
{ACAD_REACTORS
330
C
102
}
330
C
100
AcDbDictionary
281
     1
  0
DICTIONARY
  5
69
102
{ACAD_REACTORS
330
C
102
}
330
C
100
AcDbDictionary
281
     1
  3
Imperial24
350
6A
  0
DICTIONARY
  5
D
102
{ACAD_REACTORS
330
C
102
}
330
C
100
AcDbDictionary
281
     1
  0
DICTIONARY
  5
61
102
{ACAD_REACTORS
330
C
102
}
330
C
100
AcDbDictionary
281
     1
  3
Layout1
350
6E
  3
Model
350
72
  0
DICTIONARY
  5
10
102
{ACAD_REACTORS
330
C
102
}
330
C
100
AcDbDictionary
281
     1
  3
ByBlock
350
19
  3
ByLayer
350
11
  3
Global
350
21
  0
DICTIONARY
  5
65
102
{ACAD_REACTORS
330
C
102
}
330
C
100
AcDbDictionary
281
     1
  3
Standard
350
66
  0
DICTIONARY
  5
5E
102
{ACAD_REACTORS
330
C
102
}
330
C
100
AcDbDictionary
281
     1
  3
Standard
350
5F
  0
DICTIONARY
  5
60
102
{ACAD_REACTORS
330
C
102
}
330
C
100
AcDbDictionary
281
     1
  0
ACDBDICTIONARYWDFLT
  5
E
102
{ACAD_REACTORS
330
C
102
}
330
C
100
AcDbDictionary
281
     1
  3
Normal
350
F
100
AcDbDictionaryWithDefault
340
F
  0
DICTIONARY
  5
42
102
{ACAD_REACTORS
330
C
102
}
330
C
100
AcDbDictionary
281
     1
  3
A0
350
43
  3
A1
350
44
  3
A2
350
45
  3
A3
350
46
  3
A4
350
47
  3
A5
350
48
  3
A6
350
49
  3
A7
350
4A
  3
A8
350
4B
  3
A9
350
4C
  3
B0
350
4D
  3
B1
350
4E
  3
B2
350
4F
  3
B3
350
50
  3
B4
350
51
  3
B5
350
52
  3
B6
350
53
  0
DICTIONARY
  5
67
102
{ACAD_REACTORS
330
C
102
}
330
C
100
AcDbDictionary
281
     1
  3
Imperial24
350
68
  0
DICTIONARY
  5
63
102
{ACAD_REACTORS
330
C
102
}
330
C
100
AcDbDictionary
281
     1
  3
Standard
350
64
  0
DICTIONARY
  5
29
102
{ACAD_REACTORS
330
C
102
}
330
C
100
AcDbDictionary
281
     1
  3
2dWireframe
350
2F
  3
Basic
350
2E
  3
Brighten
350
35
  3
ColorChange
350
39
  3
Conceptual
350
32
  3
Dim
350
34
  3
EdgeColorOff
350
41
  3
Facepattern
350
38
  3
Flat
350
2A
  3
FlatWithEdges
350
2B
  3
Gouraud
350
2C
  3
GouraudWithEdges
350
2D
  3
Hidden
350
31
  3
JitterOff
350
3F
  3
Linepattern
350
37
  3
OverhangOff
350
40
  3
Realistic
350
33
  3
Shaded
350
3E
  3
Shaded with edges
350
3D
  3
Shades of Gray
350
3A
  3
Sketchy
350
3B
  3
Thicken
350
36
  3
Wireframe
350
30
  3
X-Ray
350
3C
  0
XRECORD
  5
3B7
102
{ACAD_REACTORS
330
C
102
}
330
C
100
AcDbXrecord
280
     1
 90
        1
330
64
  0
DICTIONARY
  5
38C
102
{ACAD_REACTORS
330
C
102
}
330
C
100
AcDbDictionary
281
     1
  3
CANNOSCALE
350
392
  3
CMLEADERSTYLE
350
38E
  3
CTABLESTYLE
350
38D
  3
CVIEWDETAILSTYLE
350
38F
  3
CVIEWSECTIONSTYLE
350
390
  3
LAYEREVAL
350
394
  3
LAYERNOTIFY
350
395
  3
LIGHTINGUNITS
350
393
  3
MSLTSCALE
350
391
  0
DICTIONARY
  5
374
102
{ACAD_REACTORS
330
373
102
}
330
373
100
AcDbDictionary
281
     1
  0
XRECORD
  5
3B4
102
{ACAD_REACTORS
330
3B3
102
}
330
3B3
100
AcDbXrecord
280
     1
290
     1
  0
ACDBDETAILVIEWSTYLE
  5
6A
102
{ACAD_REACTORS
330
69
102
}
330
69
100
AcDbModelDocViewStyle
 70
     0
  3
Imperial24
290
     0
300
Imperial24
 90
        0
100
AcDbDetailViewStyle
 70
     0
 71
     0
 90
        3
 71
     1
340
55
 62
   256
 40
0.24
340
0
 62
   256
 40
0.24
300

 40
0.36
280
     3
 71
     2
340
5C
 90
       25
 62
   256
 71
     3
340
55
 62
   256
 40
0.24
 90
        1
 40
0.75
 90
        1
300
%<\AcVar ViewType \f "%tc1">% %<\AcVar ViewDetailId>%\PSCALE %<\AcVar ViewScale \f "%sn">%
 71
     4
340
5C
 90
       25
 62
   256
340
5C
 90
       25
 62
   256
280
     0
  0
LAYOUT
  5
6E
102
{ACAD_REACTORS
330
61
102
}
330
61
100
AcDbPlotSettings
  1

  2
Microsoft Print to PDF
  4

  6

 40
0.0
 41
0.0
 42
0.0
 43
0.0
 44
0.0
 45
0.0
 46
0.0
 47
0.0
 48
0.0
 49
0.0
140
0.0
141
0.0
142
1.0
143
1.0
 70
   688
 72
     0
 73
     0
 74
     5
  7

 75
    16
147
1.0
 76
     0
 77
     2
 78
   300
148
0.0
149
0.0
100
AcDbLayout
  1
Layout1
 70
     1
 71
     1
 10
0.0
 20
0.0
 11
12.0
 21
9.0
 12
0.0
 22
0.0
 32
0.0
 14
1.000000000000000E+20
 24
1.000000000000000E+20
 34
1.000000000000000E+20
 15
-1.000000000000000E+20
 25
-1.000000000000000E+20
 35
-1.000000000000000E+20
146
0.0
 13
0.0
 23
0.0
 33
0.0
 16
1.0
 26
0.0
 36
0.0
 17
0.0
 27
1.0
 37
0.0
 76
     0
330
6B
  0
LAYOUT
  5
72
102
{ACAD_REACTORS
330
61
102
}
330
61
100
AcDbPlotSettings
  1

  2
Microsoft Print to PDF
  4

  6

 40
0.0
 41
0.0
 42
0.0
 43
0.0
 44
0.0
 45
0.0
 46
0.0
 47
0.0
 48
0.0
 49
0.0
140
0.0
141
0.0
142
1.0
143
1.0
 70
  1712
 72
     0
 73
     0
 74
     0
  7

 75
     0
147
1.0
 76
     0
 77
     2
 78
   300
148
0.0
149
0.0
100
AcDbLayout
  1
Model
 70
     1
 71
     0
 10
0.0
 20
0.0
 11
12.0
 21
9.0
 12
0.0
 22
0.0
 32
0.0
 14
0.0
 24
0.0
 34
0.0
 15
0.0
 25
0.0
 35
0.0
146
0.0
 13
0.0
 23
0.0
 33
0.0
 16
1.0
 26
0.0
 36
0.0
 17
0.0
 27
1.0
 37
0.0
 76
     0
330
6F
331
74
  0
MATERIAL
  5
19
102
{ACAD_XDICTIONARY
360
1A
102
}
102
{ACAD_REACTORS
330
10
102
}
330
10
100
AcDbMaterial
  1
ByBlock
 72
     0
 43
0.0208333333333333
 43
0.0
 43
0.0
 43
0.0
 43
0.0
 43
0.0208333333333333
 43
0.0
 43
0.0
 43
0.0
 43
0.0
 43
1.0
 43
0.0
 43
0.0
 43
0.0
 43
0.0
 43
1.0
 77
     0
 47
0.0208333333333333
 47
0.0
 47
0.0
 47
0.0
 47
0.0
 47
0.0208333333333333
 47
0.0
 47
0.0
 47
0.0
 47
0.0
 47
1.0
 47
0.0
 47
0.0
 47
0.0
 47
0.0
 47
1.0
171
     0
 49
0.0208333333333333
 49
0.0
 49
0.0
 49
0.0
 49
0.0
 49
0.0208333333333333
 49
0.0
 49
0.0
 49
0.0
 49
0.0
 49
1.0
 49
0.0
 49
0.0
 49
0.0
 49
0.0
 49
1.0
175
     0
142
0.0208333333333333
142
0.0
142
0.0
142
0.0
142
0.0
142
0.0208333333333333
142
0.0
142
0.0
142
0.0
142
0.0
142
1.0
142
0.0
142
0.0
142
0.0
142
0.0
142
1.0
179
     0
144
0.0208333333333333
144
0.0
144
0.0
144
0.0
144
0.0
144
0.0208333333333333
144
0.0
144
0.0
144
0.0
144
0.0
144
1.0
144
0.0
144
0.0
144
0.0
144
0.0
144
1.0
147
0.0208333333333333
147
0.0
147
0.0
147
0.0
147
0.0
147
0.0208333333333333
147
0.0
147
0.0
147
0.0
147
0.0
147
1.0
147
0.0
147
0.0
147
0.0
147
0.0
147
1.0
  0
MATERIAL
  5
11
102
{ACAD_XDICTIONARY
360
12
102
}
102
{ACAD_REACTORS
330
10
102
}
330
10
100
AcDbMaterial
  1
ByLayer
 72
     0
 43
0.0208333333333333
 43
0.0
 43
0.0
 43
0.0
 43
0.0
 43
0.0208333333333333
 43
0.0
 43
0.0
 43
0.0
 43
0.0
 43
1.0
 43
0.0
 43
0.0
 43
0.0
 43
0.0
 43
1.0
 77
     0
 47
0.0208333333333333
 47
0.0
 47
0.0
 47
0.0
 47
0.0
 47
0.0208333333333333
 47
0.0
 47
0.0
 47
0.0
 47
0.0
 47
1.0
 47
0.0
 47
0.0
 47
0.0
 47
0.0
 47
1.0
171
     0
 49
0.0208333333333333
 49
0.0
 49
0.0
 49
0.0
 49
0.0
 49
0.0208333333333333
 49
0.0
 49
0.0
 49
0.0
 49
0.0
 49
1.0
 49
0.0
 49
0.0
 49
0.0
 49
0.0
 49
1.0
175
     0
142
0.0208333333333333
142
0.0
142
0.0
142
0.0
142
0.0
142
0.0208333333333333
142
0.0
142
0.0
142
0.0
142
0.0
142
1.0
142
0.0
142
0.0
142
0.0
142
0.0
142
1.0
179
     0
144
0.0208333333333333
144
0.0
144
0.0
144
0.0
144
0.0
144
0.0208333333333333
144
0.0
144
0.0
144
0.0
144
0.0
144
1.0
144
0.0
144
0.0
144
0.0
144
0.0
144
1.0
147
0.0208333333333333
147
0.0
147
0.0
147
0.0
147
0.0
147
0.0208333333333333
147
0.0
147
0.0
147
0.0
147
0.0
147
1.0
147
0.0
147
0.0
147
0.0
147
0.0
147
1.0
  0
MATERIAL
  5
21
102
{ACAD_XDICTIONARY
360
22
102
}
102
{ACAD_REACTORS
330
10
102
}
330
10
100
AcDbMaterial
  1
Global
 72
     0
 43
0.0208333333333333
 43
0.0
 43
0.0
 43
0.0
 43
0.0
 43
0.0208333333333333
 43
0.0
 43
0.0
 43
0.0
 43
0.0
 43
1.0
 43
0.0
 43
0.0
 43
0.0
 43
0.0
 43
1.0
 77
     0
 47
0.0208333333333333
 47
0.0
 47
0.0
 47
0.0
 47
0.0
 47
0.0208333333333333
 47
0.0
 47
0.0
 47
0.0
 47
0.0
 47
1.0
 47
0.0
 47
0.0
 47
0.0
 47
0.0
 47
1.0
171
     0
 49
0.0208333333333333
 49
0.0
 49
0.0
 49
0.0
 49
0.0
 49
0.0208333333333333
 49
0.0
 49
0.0
 49
0.0
 49
0.0
 49
1.0
 49
0.0
 49
0.0
 49
0.0
 49
0.0
 49
1.0
175
     0
142
0.0208333333333333
142
0.0
142
0.0
142
0.0
142
0.0
142
0.0208333333333333
142
0.0
142
0.0
142
0.0
142
0.0
142
1.0
142
0.0
142
0.0
142
0.0
142
0.0
142
1.0
179
     0
144
0.0208333333333333
144
0.0
144
0.0
144
0.0
144
0.0
144
0.0208333333333333
144
0.0
144
0.0
144
0.0
144
0.0
144
1.0
144
0.0
144
0.0
144
0.0
144
0.0
144
1.0
147
0.0208333333333333
147
0.0
147
0.0
147
0.0
147
0.0
147
0.0208333333333333
147
0.0
147
0.0
147
0.0
147
0.0
147
1.0
147
0.0
147
0.0
147
0.0
147
0.0
147
1.0
  0
MLEADERSTYLE
  5
66
102
{ACAD_REACTORS
330
65
102
}
330
65
100
AcDbMLeaderStyle
179
     2
170
     2
171
     1
172
     0
 90
        2
 40
0.0
 41
0.0
173
     1
 91
-1056964608
340
5A
 92
       -2
290
     1
 42
0.09
291
     1
 43
0.36
  3
Standard
 44
0.18
300

342
55
174
     1
178
     6
175
     1
176
     0
 93
-1056964608
 45
0.18
292
     0
297
     0
 46
0.18
 94
-1056964608
 47
1.0
 49
1.0
140
1.0
293
     1
141
0.0
294
     1
177
     0
142
1.0
295
     0
296
     0
143
0.125
271
     0
272
     9
273
     9
298
     0
  0
MLINESTYLE
  5
5F
102
{ACAD_REACTORS
330
5E
102
}
330
5E
100
AcDbMlineStyle
  2
STANDARD
 70
     0
  3

 62
   256
 51
90.0
 52
90.0
 71
     2
 49
0.5
 62
   256
  6
BYLAYER
 49
-0.5
 62
   256
  6
BYLAYER
  0
ACDBPLACEHOLDER
  5
F
102
{ACAD_REACTORS
330
E
102
}
330
E
  0
SCALE
  5
43
102
{ACAD_REACTORS
330
42
102
}
330
42
100
AcDbScale
 70
     0
300
1:1
140
1.0
141
1.0
290
     1
  0
SCALE
  5
44
102
{ACAD_REACTORS
330
42
102
}
330
42
100
AcDbScale
 70
     0
300
1/128" = 1'-0"
140
0.0078125
141
12.0
290
     0
  0
SCALE
  5
45
102
{ACAD_REACTORS
330
42
102
}
330
42
100
AcDbScale
 70
     0
300
1/64" = 1'-0"
140
0.015625
141
12.0
290
     0
  0
SCALE
  5
46
102
{ACAD_REACTORS
330
42
102
}
330
42
100
AcDbScale
 70
     0
300
1/32" = 1'-0"
140
0.03125
141
12.0
290
     0
  0
SCALE
  5
47
102
{ACAD_REACTORS
330
42
102
}
330
42
100
AcDbScale
 70
     0
300
1/16" = 1'-0"
140
0.0625
141
12.0
290
     0
  0
SCALE
  5
48
102
{ACAD_REACTORS
330
42
102
}
330
42
100
AcDbScale
 70
     0
300
3/32" = 1'-0"
140
0.09375
141
12.0
290
     0
  0
SCALE
  5
49
102
{ACAD_REACTORS
330
42
102
}
330
42
100
AcDbScale
 70
     0
300
1/8" = 1'-0"
140
0.125
141
12.0
290
     0
  0
SCALE
  5
4A
102
{ACAD_REACTORS
330
42
102
}
330
42
100
AcDbScale
 70
     0
300
3/16" = 1'-0"
140
0.1875
141
12.0
290
     0
  0
SCALE
  5
4B
102
{ACAD_REACTORS
330
42
102
}
330
42
100
AcDbScale
 70
     0
300
1/4" = 1'-0"
140
0.25
141
12.0
290
     0
  0
SCALE
  5
4C
102
{ACAD_REACTORS
330
42
102
}
330
42
100
AcDbScale
 70
     0
300
3/8" = 1'-0"
140
0.375
141
12.0
290
     0
  0
SCALE
  5
4D
102
{ACAD_REACTORS
330
42
102
}
330
42
100
AcDbScale
 70
     0
300
1/2" = 1'-0"
140
0.5
141
12.0
290
     0
  0
SCALE
  5
4E
102
{ACAD_REACTORS
330
42
102
}
330
42
100
AcDbScale
 70
     0
300
3/4" = 1'-0"
140
0.75
141
12.0
290
     0
  0
SCALE
  5
4F
102
{ACAD_REACTORS
330
42
102
}
330
42
100
AcDbScale
 70
     0
300
1" = 1'-0"
140
1.0
141
12.0
290
     0
  0
SCALE
  5
50
102
{ACAD_REACTORS
330
42
102
}
330
42
100
AcDbScale
 70
     0
300
1-1/2" = 1'-0"
140
1.5
141
12.0
290
     0
  0
SCALE
  5
51
102
{ACAD_REACTORS
330
42
102
}
330
42
100
AcDbScale
 70
     0
300
3" = 1'-0"
140
3.0
141
12.0
290
     0
  0
SCALE
  5
52
102
{ACAD_REACTORS
330
42
102
}
330
42
100
AcDbScale
 70
     0
300
6" = 1'-0"
140
6.0
141
12.0
290
     0
  0
SCALE
  5
53
102
{ACAD_REACTORS
330
42
102
}
330
42
100
AcDbScale
 70
     0
300
1'-0" = 1'-0"
140
12.0
141
12.0
290
     0
  0
ACDBSECTIONVIEWSTYLE
  5
68
102
{ACAD_REACTORS
330
67
102
}
330
67
100
AcDbModelDocViewStyle
 70
     0
  3
Imperial24
290
     0
300
Imperial24
 90
        0
100
AcDbSectionViewStyle
 70
     0
 71
     0
 90
       78
 71
     1
340
55
 62
   256
 40
0.24
340
0
340
0
 62
   256
 40
0.24
300
I, O, Q, S, X, Z
 40
0.48
 90
        3
 40
0.18
 90
        1
 71
     2
340
5C
 90
       25
 62
   256
340
5C
 90
       50
 62
   256
 40
0.24
 40
0.0
 40
0.24
 71
     3
340
55
 62
   256
 40
0.24
 90
        1
 40
0.75
 90
        1
300
%<\AcVar ViewType \f "%tc1">% %<\AcVar ViewSectionStartId>%-%<\AcVar ViewSectionEndId>%\PSCALE %<\AcVar ViewScale \f "%sn">%
 71
     4
 62
   256
 62
   257
300
ANSI31
 40
1.0
 90
        0
290
     0
290
     0
 90
        6
 40
0.0
 40
1.570796326794896
 40
0.2617993877991494
 40
1.308996938995747
 40
-0.2617993877991494
 40
1.832595714594046
  0
TABLESTYLE
  5
64
102
{ACAD_XDICTIONARY
360
3B5
102
}
102
{ACAD_REACTORS
330
63
102
}
330
63
100
AcDbTableStyle
280
     0
  3
Standard
 70
     0
 71
     0
 40
0.06
 41
0.06
280
     0
281
     0
  7
Standard
140
0.18
170
     2
 62
     0
 63
     7
283
     0
 90
      512
 91
        0
  1

274
    -2
284
     1
 64
     0
275
    -2
285
     1
 65
     0
276
    -2
286
     1
 66
     0
277
    -2
287
     1
 67
     0
278
    -2
288
     1
 68
     0
279
    -2
289
     1
 69
     0
  7
Standard
140
0.25
170
     5
 62
     0
 63
     7
283
     0
 90
      512
 91
        0
  1

274
    -2
284
     1
 64
     0
275
    -2
285
     1
 65
     0
276
    -2
286
     1
 66
     0
277
    -2
287
     1
 67
     0
278
    -2
288
     1
 68
     0
279
    -2
289
     1
 69
     0
  7
Standard
140
0.18
170
     5
 62
     0
 63
     7
283
     0
 90
      512
 91
        0
  1

274
    -2
284
     1
 64
     0
275
    -2
285
     1
 65
     0
276
    -2
286
     1
 66
     0
277
    -2
287
     1
 67
     0
278
    -2
288
     1
 68
     0
279
    -2
289
     1
 69
     0
  0
VISUALSTYLE
  5
2F
102
{ACAD_REACTORS
330
29
102
}
330
29
100
AcDbVisualStyle
  2
2dWireframe
 70
     4
177
     3
291
     0
 70
    58
 90
        0
176
     1
 90
        2
176
     1
 90
        0
176
     1
 90
        0
176
     1
 40
0.6
176
     1
 40
30.0
176
     1
 62
     7
420
 16777215
176
     1
 90
        1
176
     1
 90
        4
176
     1
 62
     7
176
     1
 62
   257
176
     1
 90
        1
176
     1
 90
        1
176
     1
 40
1.0
176
     1
 90
        0
176
     1
 62
   257
176
     1
 40
1.0
176
     1
 90
        1
176
     1
 90
        6
176
     1
 90
        2
176
     1
 62
     7
176
     1
 90
        5
176
     1
 90
        0
176
     1
 90
        0
176
     1
290
     0
176
     1
 90
        1
176
     1
 40
0.0
176
     1
 90
        0
176
     1
290
     1
176
     1
290
     1
176
     1
290
     0
176
     1
290
     0
176
     1
290
     0
176
     1
290
     0
176
     1
290
     0
176
     1
290
     0
176
     1
290
     0
176
     1
 90
       50
176
     1
 40
0.0
176
     1
 40
1.0
176
     1
 90
        0
176
     1
 62
    18
420
        0
176
     1
 90
       50
176
     1
 90
        3
176
     1
 62
     5
420
      255
176
     1
290
     0
176
     1
 90
       50
176
     1
 90
       50
176
     1
 90
       50
176
     1
290
     0
176
     1
 90
       50
176
     1
 62
   256
176
     0
 40
1.0
176
     0
 90
        2
176
     1
  1
strokes_ogs.tif
176
     1
290
     0
176
     1
 40
1.0
176
     1
 40
1.0
176
     1
  0
VISUALSTYLE
  5
2E
102
{ACAD_REACTORS
330
29
102
}
330
29
100
AcDbVisualStyle
  2
Basic
 70
     7
177
     3
291
     1
 70
    58
 90
        1
176
     1
 90
        0
176
     1
 90
        1
176
     1
 90
        0
176
     1
 40
0.6
176
     1
 40
30.0
176
     1
 62
     7
420
 16777215
176
     1
 90
        0
176
     1
 90
        4
176
     1
 62
     7
176
     1
 62
   257
176
     1
 90
        1
176
     1
 90
        1
176
     1
 40
1.0
176
     1
 90
        8
176
     1
 62
     7
176
     1
 40
1.0
176
     1
 90
        1
176
     1
 90
        6
176
     1
 90
        2
176
     1
 62
     7
176
     1
 90
        5
176
     1
 90
        0
176
     1
 90
        0
176
     1
290
     0
176
     1
 90
        1
176
     1
 40
0.0
176
     1
 90
        0
176
     1
290
     0
176
     1
290
     1
176
     1
290
     1
176
     1
290
     0
176
     1
290
     0
176
     1
290
     0
176
     1
290
     0
176
     1
290
     0
176
     1
290
     0
176
     1
 90
       50
176
     1
 40
0.0
176
     1
 40
1.0
176
     1
 90
        0
176
     1
 62
    18
420
        0
176
     1
 90
       50
176
     1
 90
        3
176
     1
 62
     5
420
      255
176
     1
290
     0
176
     1
 90
       50
176
     1
 90
       50
176
     1
 90
       50
176
     1
290
     0
176
     1
 90
       50
176
     1
 62
   256
176
     0
 40
1.0
176
     0
 90
        2
176
     1
  1
strokes_ogs.tif
176
     1
290
     0
176
     1
 40
1.0
176
     1
 40
1.0
176
     1
  0
VISUALSTYLE
  5
35
102
{ACAD_REACTORS
330
29
102
}
330
29
100
AcDbVisualStyle
  2
Brighten
 70
    12
177
     3
291
     1
 70
    58
 90
        2
176
     1
 90
        2
176
     1
 90
        0
176
     1
 90
        0
176
     1
 40
0.6
176
     1
 40
30.0
176
     1
 62
     7
420
 16777215
176
     1
 90
        1
176
     1
 90
        4
176
     1
 62
     7
176
     1
 62
   257
176
     1
 90
        1
176
     1
 90
        1
176
     1
 40
1.0
176
     1
 90
        8
176
     1
 62
     7
176
     1
 40
1.0
176
     1
 90
        1
176
     1
 90
        6
176
     1
 90
        2
176
     1
 62
     7
176
     1
 90
        5
176
     1
 90
        0
176
     1
 90
        0
176
     1
290
     0
176
     1
 90
        1
176
     1
 40
50.0
176
     1
 90
        0
176
     1
290
     0
176
     1
290
     1
176
     1
290
     1
176
     1
290
     0
176
     1
290
     0
176
     1
290
     0
176
     1
290
     0
176
     1
290
     0
176
     1
290
     0
176
     1
 90
       50
176
     1
 40
0.0
176
     1
 40
1.0
176
     1
 90
        0
176
     1
 62
    18
420
        0
176
     1
 90
       50
176
     1
 90
        3
176
     1
 62
     5
420
      255
176
     1
290
     0
176
     1
 90
       50
176
     1
 90
       50
176
     1
 90
       50
176
     1
290
     0
176
     1
 90
       50
176
     1
 62
   256
176
     0
 40
1.0
176
     0
 90
        2
176
     1
  1
strokes_ogs.tif
176
     1
290
     0
176
     1
 40
1.0
176
     1
 40
1.0
176
     1
  0
VISUALSTYLE
  5
39
102
{ACAD_REACTORS
330
29
102
}
330
29
100
AcDbVisualStyle
  2
ColorChange
 70
    16
177
     3
291
     1
 70
    58
 90
        2
176
     1
 90
        2
176
     1
 90
        3
176
     1
 90
        0
176
     1
 40
0.6
176
     1
 40
30.0
176
     1
 62
     8
420
  8421504
176
     1
 90
        1
176
     1
 90
        4
176
     1
 62
     7
176
     1
 62
   257
176
     1
 90
        1
176
     1
 90
        1
176
     1
 40
1.0
176
     1
 90
        8
176
     1
 62
     8
420
  8421504
176
     1
 40
1.0
176
     1
 90
        1
176
     1
 90
        6
176
     1
 90
        2
176
     1
 62
     7
176
     1
 90
        5
176
     1
 90
        0
176
     1
 90
        0
176
     1
290
     0
176
     1
 90
        1
176
     1
 40
0.0
176
     1
 90
        0
176
     1
290
     0
176
     1
290
     1
176
     1
290
     1
176
     1
290
     0
176
     1
290
     0
176
     1
290
     0
176
     1
290
     0
176
     1
290
     0
176
     1
290
     0
176
     1
 90
       50
176
     1
 40
0.0
176
     1
 40
1.0
176
     1
 90
        0
176
     1
 62
    18
420
        0
176
     1
 90
       50
176
     1
 90
        3
176
     1
 62
     5
420
      255
176
     1
290
     0
176
     1
 90
       50
176
     1
 90
       50
176
     1
 90
       50
176
     1
290
     0
176
     1
 90
       50
176
     1
 62
   256
176
     0
 40
1.0
176
     0
 90
        2
176
     1
  1
strokes_ogs.tif
176
     1
290
     0
176
     1
 40
1.0
176
     1
 40
1.0
176
     1
  0
VISUALSTYLE
  5
32
102
{ACAD_REACTORS
330
29
102
}
330
29
100
AcDbVisualStyle
  2
Conceptual
 70
     9
177
     3
291
     0
 70
    58
 90
        3
176
     1
 90
        2
176
     1
 90
        0
176
     1
 90
        0
176
     1
 40
0.6
176
     1
 40
30.0
176
     1
 62
     7
420
 16777215
176
     1
 90
        2
176
     1
 90
        2
176
     1
 62
     7
176
     1
 62
   257
176
     1
 90
        1
176
     1
 90
        1
176
     1
 40
179.0
176
     1
 90
        8
176
     1
 62
     7
176
     1
 40
1.0
176
     1
 90
        1
176
     1
 90
        6
176
     1
 90
        2
176
     1
 62
     7
176
     1
 90
        3
176
     1
 90
        0
176
     1
 90
        0
176
     1
290
     0
176
     1
 90
        1
176
     1
 40
0.0
176
     1
 90
        0
176
     1
290
     0
176
     1
290
     1
176
     1
290
     1
176
     1
290
     0
176
     1
290
     0
176
     1
290
     0
176
     1
290
     0
176
     1
290
     0
176
     1
290
     0
176
     1
 90
       50
176
     1
 40
0.0
176
     1
 40
1.0
176
     1
 90
        0
176
     1
 62
    18
420
        0
176
     1
 90
       50
176
     1
 90
        3
176
     1
 62
     5
420
      255
176
     1
290
     0
176
     1
 90
       50
176
     1
 90
       50
176
     1
 90
       50
176
     1
290
     0
176
     1
 90
       50
176
     1
 62
   256
176
     0
 40
1.0
176
     0
 90
        2
176
     1
  1
strokes_ogs.tif
176
     1
290
     0
176
     1
 40
1.0
176
     1
 40
1.0
176
     1
  0
VISUALSTYLE
  5
34
102
{ACAD_REACTORS
330
29
102
}
330
29
100
AcDbVisualStyle
  2
Dim
 70
    11
177
     3
291
     1
 70
    58
 90
        2
176
     1
 90
        2
176
     1
 90
        0
176
     1
 90
        0
176
     1
 40
0.6
176
     1
 40
30.0
176
     1
 62
     7
420
 16777215
176
     1
 90
        1
176
     1
 90
        4
176
     1
 62
     7
176
     1
 62
   257
176
     1
 90
        1
176
     1
 90
        1
176
     1
 40
1.0
176
     1
 90
        8
176
     1
 62
     7
176
     1
 40
1.0
176
     1
 90
        1
176
     1
 90
        6
176
     1
 90
        2
176
     1
 62
     7
176
     1
 90
        5
176
     1
 90
        0
176
     1
 90
        0
176
     1
290
     0
176
     1
 90
        1
176
     1
 40
-50.0
176
     1
 90
        0
176
     1
290
     0
176
     1
290
     1
176
     1
290
     1
176
     1
290
     0
176
     1
290
     0
176
     1
290
     0
176
     1
290
     0
176
     1
290
     0
176
     1
290
     0
176
     1
 90
       50
176
     1
 40
0.0
176
     1
 40
1.0
176
     1
 90
        0
176
     1
 62
    18
420
        0
176
     1
 90
       50
176
     1
 90
        3
176
     1
 62
     5
420
      255
176
     1
290
     0
176
     1
 90
       50
176
     1
 90
       50
176
     1
 90
       50
176
     1
290
     0
176
     1
 90
       50
176
     1
 62
   256
176
     0
 40
1.0
176
     0
 90
        2
176
     1
  1
strokes_ogs.tif
176
     1
290
     0
176
     1
 40
1.0
176
     1
 40
1.0
176
     1
  0
VISUALSTYLE
  5
41
102
{ACAD_REACTORS
330
29
102
}
330
29
100
AcDbVisualStyle
  2
EdgeColorOff
 70
    22
177
     3
291
     1
 70
    58
 90
        2
176
     0
 90
        2
176
     0
 90
        0
176
     0
 90
        0
176
     0
 40
0.6
176
     0
 40
30.0
176
     0
 62
     7
420
 16777215
176
     0
 90
        1
176
     0
 90
        4
176
     0
 62
     7
176
     0
 62
   257
176
     0
 90
        1
176
     0
 90
        1
176
     0
 40
1.0
176
     0
 90
        8
176
     2
 62
     7
176
     0
 40
1.0
176
     0
 90
        1
176
     0
 90
        6
176
     0
 90
        2
176
     0
 62
     7
176
     0
 90
        5
176
     0
 90
        0
176
     0
 90
        0
176
     0
290
     0
176
     0
 90
        1
176
     0
 40
0.0
176
     0
 90
        0
176
     0
290
     0
176
     1
290
     1
176
     1
290
     1
176
     1
290
     0
176
     1
290
     0
176
     1
290
     0
176
     1
290
     0
176
     1
290
     0
176
     1
290
     0
176
     1
 90
       50
176
     0
 40
0.0
176
     0
 40
1.0
176
     0
 90
        0
176
     0
 62
    18
420
        0
176
     0
 90
       50
176
     0
 90
        3
176
     0
 62
     5
420
      255
176
     0
290
     0
176
     1
 90
       50
176
     0
 90
       50
176
     0
 90
       50
176
     0
290
     0
176
     1
 90
       50
176
     0
 62
   256
176
     0
 40
1.0
176
     0
 90
        2
176
     0
  1
strokes_ogs.tif
176
     0
290
     0
176
     1
 40
1.0
176
     0
 40
1.0
176
     0
  0
VISUALSTYLE
  5
38
102
{ACAD_REACTORS
330
29
102
}
330
29
100
AcDbVisualStyle
  2
Facepattern
 70
    15
177
     3
291
     1
 70
    58
 90
        2
176
     1
 90
        2
176
     1
 90
        0
176
     1
 90
        0
176
     1
 40
0.6
176
     1
 40
30.0
176
     1
 62
     7
420
 16777215
176
     1
 90
        1
176
     1
 90
        4
176
     1
 62
     7
176
     1
 62
   257
176
     1
 90
        1
176
     1
 90
        1
176
     1
 40
1.0
176
     1
 90
        8
176
     1
 62
     7
176
     1
 40
1.0
176
     1
 90
        1
176
     1
 90
        6
176
     1
 90
        2
176
     1
 62
     7
176
     1
 90
        5
176
     1
 90
        0
176
     1
 90
        0
176
     1
290
     0
176
     1
 90
        1
176
     1
 40
0.0
176
     1
 90
        0
176
     1
290
     0
176
     1
290
     1
176
     1
290
     1
176
     1
290
     0
176
     1
290
     0
176
     1
290
     0
176
     1
290
     0
176
     1
290
     0
176
     1
290
     0
176
     1
 90
       50
176
     1
 40
0.0
176
     1
 40
1.0
176
     1
 90
        0
176
     1
 62
    18
420
        0
176
     1
 90
       50
176
     1
 90
        3
176
     1
 62
     5
420
      255
176
     1
290
     0
176
     1
 90
       50
176
     1
 90
       50
176
     1
 90
       50
176
     1
290
     0
176
     1
 90
       50
176
     1
 62
   256
176
     0
 40
1.0
176
     0
 90
        2
176
     1
  1
strokes_ogs.tif
176
     1
290
     0
176
     1
 40
1.0
176
     1
 40
1.0
176
     1
  0
VISUALSTYLE
  5
2A
102
{ACAD_REACTORS
330
29
102
}
330
29
100
AcDbVisualStyle
  2
Flat
 70
     0
177
     3
291
     1
 70
    58
 90
        2
176
     1
 90
        1
176
     1
 90
        1
176
     1
 90
        2
176
     1
 40
0.6
176
     1
 40
30.0
176
     1
 62
     7
420
 16777215
176
     1
 90
        0
176
     1
 90
        0
176
     1
 62
     7
176
     1
 62
   257
176
     1
 90
        1
176
     1
 90
        1
176
     1
 40
1.0
176
     1
 90
        8
176
     1
 62
     7
176
     1
 40
1.0
176
     1
 90
        1
176
     1
 90
        6
176
     1
 90
        2
176
     1
 62
     7
176
     1
 90
        5
176
     1
 90
        0
176
     1
 90
        0
176
     1
290
     0
176
     1
 90
       13
176
     1
 40
0.0
176
     1
 90
        0
176
     1
290
     0
176
     1
290
     1
176
     1
290
     1
176
     1
290
     0
176
     1
290
     0
176
     1
290
     0
176
     1
290
     0
176
     1
290
     0
176
     1
290
     0
176
     1
 90
       50
176
     1
 40
0.0
176
     1
 40
1.0
176
     1
 90
        0
176
     1
 62
    18
420
        0
176
     1
 90
       50
176
     1
 90
        3
176
     1
 62
     5
420
      255
176
     1
290
     0
176
     1
 90
       50
176
     1
 90
       50
176
     1
 90
       50
176
     1
290
     0
176
     1
 90
       50
176
     1
 62
   256
176
     0
 40
1.0
176
     0
 90
        2
176
     1
  1
strokes_ogs.tif
176
     1
290
     0
176
     1
 40
1.0
176
     1
 40
1.0
176
     1
  0
VISUALSTYLE
  5
2B
102
{ACAD_REACTORS
330
29
102
}
330
29
100
AcDbVisualStyle
  2
FlatWithEdges
 70
     1
177
     3
291
     1
 70
    58
 90
        2
176
     1
 90
        1
176
     1
 90
        1
176
     1
 90
        2
176
     1
 40
0.6
176
     1
 40
30.0
176
     1
 62
     7
420
 16777215
176
     1
 90
        1
176
     1
 90
        0
176
     1
 62
     7
176
     1
 62
   257
176
     1
 90
        1
176
     1
 90
        1
176
     1
 40
1.0
176
     1
 90
        0
176
     1
 62
   257
176
     1
 40
1.0
176
     1
 90
        1
176
     1
 90
        6
176
     1
 90
        2
176
     1
 62
     7
176
     1
 90
        5
176
     1
 90
        0
176
     1
 90
        0
176
     1
290
     0
176
     1
 90
       13
176
     1
 40
0.0
176
     1
 90
        0
176
     1
290
     0
176
     1
290
     1
176
     1
290
     1
176
     1
290
     0
176
     1
290
     0
176
     1
290
     0
176
     1
290
     0
176
     1
290
     0
176
     1
290
     0
176
     1
 90
       50
176
     1
 40
0.0
176
     1
 40
1.0
176
     1
 90
        0
176
     1
 62
    18
420
        0
176
     1
 90
       50
176
     1
 90
        3
176
     1
 62
     5
420
      255
176
     1
290
     0
176
     1
 90
       50
176
     1
 90
       50
176
     1
 90
       50
176
     1
290
     0
176
     1
 90
       50
176
     1
 62
   256
176
     0
 40
1.0
176
     0
 90
        2
176
     1
  1
strokes_ogs.tif
176
     1
290
     0
176
     1
 40
1.0
176
     1
 40
1.0
176
     1
  0
VISUALSTYLE
  5
2C
102
{ACAD_REACTORS
330
29
102
}
330
29
100
AcDbVisualStyle
  2
Gouraud
 70
     2
177
     3
291
     1
 70
    58
 90
        2
176
     1
 90
        2
176
     1
 90
        1
176
     1
 90
        2
176
     1
 40
0.6
176
     1
 40
30.0
176
     1
 62
     7
420
 16777215
176
     1
 90
        0
176
     1
 90
        0
176
     1
 62
     7
176
     1
 62
   257
176
     1
 90
        1
176
     1
 90
        1
176
     1
 40
1.0
176
     1
 90
        0
176
     1
 62
     7
176
     1
 40
1.0
176
     1
 90
        1
176
     1
 90
        6
176
     1
 90
        2
176
     1
 62
     7
176
     1
 90
        5
176
     1
 90
        0
176
     1
 90
        0
176
     1
290
     0
176
     1
 90
       13
176
     1
 40
0.0
176
     1
 90
        0
176
     1
290
     0
176
     1
290
     1
176
     1
290
     1
176
     1
290
     0
176
     1
290
     0
176
     1
290
     0
176
     1
290
     0
176
     1
290
     0
176
     1
290
     0
176
     1
 90
       50
176
     1
 40
0.0
176
     1
 40
1.0
176
     1
 90
        0
176
     1
 62
    18
420
        0
176
     1
 90
       50
176
     1
 90
        3
176
     1
 62
     5
420
      255
176
     1
290
     0
176
     1
 90
       50
176
     1
 90
       50
176
     1
 90
       50
176
     1
290
     0
176
     1
 90
       50
176
     1
 62
   256
176
     0
 40
1.0
176
     0
 90
        2
176
     1
  1
strokes_ogs.tif
176
     1
290
     0
176
     1
 40
1.0
176
     1
 40
1.0
176
     1
  0
VISUALSTYLE
  5
2D
102
{ACAD_REACTORS
330
29
102
}
330
29
100
AcDbVisualStyle
  2
GouraudWithEdges
 70
     3
177
     3
291
     1
 70
    58
 90
        2
176
     1
 90
        2
176
     1
 90
        1
176
     1
 90
        2
176
     1
 40
0.6
176
     1
 40
30.0
176
     1
 62
     7
420
 16777215
176
     1
 90
        1
176
     1
 90
        0
176
     1
 62
     7
176
     1
 62
   257
176
     1
 90
        1
176
     1
 90
        1
176
     1
 40
1.0
176
     1
 90
        0
176
     1
 62
   257
176
     1
 40
1.0
176
     1
 90
        1
176
     1
 90
        6
176
     1
 90
        2
176
     1
 62
     7
176
     1
 90
        5
176
     1
 90
        0
176
     1
 90
        0
176
     1
290
     0
176
     1
 90
       13
176
     1
 40
0.0
176
     1
 90
        0
176
     1
290
     0
176
     1
290
     1
176
     1
290
     1
176
     1
290
     0
176
     1
290
     0
176
     1
290
     0
176
     1
290
     0
176
     1
290
     0
176
     1
290
     0
176
     1
 90
       50
176
     1
 40
0.0
176
     1
 40
1.0
176
     1
 90
        0
176
     1
 62
    18
420
        0
176
     1
 90
       50
176
     1
 90
        3
176
     1
 62
     5
420
      255
176
     1
290
     0
176
     1
 90
       50
176
     1
 90
       50
176
     1
 90
       50
176
     1
290
     0
176
     1
 90
       50
176
     1
 62
   256
176
     0
 40
1.0
176
     0
 90
        2
176
     1
  1
strokes_ogs.tif
176
     1
290
     0
176
     1
 40
1.0
176
     1
 40
1.0
176
     1
  0
VISUALSTYLE
  5
31
102
{ACAD_REACTORS
330
29
102
}
330
29
100
AcDbVisualStyle
  2
Hidden
 70
     6
177
     3
291
     0
 70
    58
 90
        1
176
     1
 90
        2
176
     1
 90
        2
176
     1
 90
        0
176
     1
 40
0.6
176
     1
 40
30.0
176
     1
 62
     7
420
 16777215
176
     1
 90
        2
176
     1
 90
        2
176
     1
 62
     7
176
     1
 62
   257
176
     1
 90
        2
176
     1
 90
        1
176
     1
 40
40.0
176
     1
 90
        0
176
     1
 62
   257
176
     1
 40
1.0
176
     1
 90
        1
176
     1
 90
        6
176
     1
 90
        2
176
     1
 62
     7
176
     1
 90
        3
176
     1
 90
        0
176
     1
 90
        0
176
     1
290
     0
176
     1
 90
        1
176
     1
 40
0.0
176
     1
 90
        0
176
     1
290
     0
176
     1
290
     1
176
     1
290
     1
176
     1
290
     0
176
     1
290
     0
176
     1
290
     0
176
     1
290
     0
176
     1
290
     0
176
     1
290
     0
176
     1
 90
       50
176
     1
 40
0.0
176
     1
 40
1.0
176
     1
 90
        0
176
     1
 62
    18
420
        0
176
     1
 90
       50
176
     1
 90
        3
176
     1
 62
     5
420
      255
176
     1
290
     0
176
     1
 90
       50
176
     1
 90
       50
176
     1
 90
       50
176
     1
290
     0
176
     1
 90
       50
176
     1
 62
   256
176
     0
 40
1.0
176
     0
 90
        2
176
     1
  1
strokes_ogs.tif
176
     1
290
     0
176
     1
 40
1.0
176
     1
 40
1.0
176
     1
  0
VISUALSTYLE
  5
3F
102
{ACAD_REACTORS
330
29
102
}
330
29
100
AcDbVisualStyle
  2
JitterOff
 70
    20
177
     3
291
     1
 70
    58
 90
        2
176
     0
 90
        2
176
     0
 90
        0
176
     0
 90
        0
176
     0
 40
0.6
176
     0
 40
30.0
176
     0
 62
     7
420
 16777215
176
     0
 90
        1
176
     0
 90
        4
176
     0
 62
     7
176
     0
 62
   257
176
     0
 90
        1
176
     0
 90
        1
176
     0
 40
1.0
176
     0
 90
       10
176
     2
 62
     7
176
     0
 40
1.0
176
     0
 90
        1
176
     0
 90
        6
176
     0
 90
        2
176
     0
 62
     7
176
     0
 90
        5
176
     0
 90
        0
176
     0
 90
        0
176
     0
290
     0
176
     0
 90
        1
176
     0
 40
0.0
176
     0
 90
        0
176
     0
290
     0
176
     1
290
     1
176
     1
290
     1
176
     1
290
     0
176
     1
290
     0
176
     1
290
     0
176
     1
290
     0
176
     1
290
     0
176
     1
290
     0
176
     1
 90
       50
176
     0
 40
0.0
176
     0
 40
1.0
176
     0
 90
        0
176
     0
 62
    18
420
        0
176
     0
 90
       50
176
     0
 90
        3
176
     0
 62
     5
420
      255
176
     0
290
     0
176
     1
 90
       50
176
     0
 90
       50
176
     0
 90
       50
176
     0
290
     0
176
     1
 90
       50
176
     0
 62
   256
176
     0
 40
1.0
176
     0
 90
        2
176
     0
  1
strokes_ogs.tif
176
     0
290
     0
176
     1
 40
1.0
176
     0
 40
1.0
176
     0
  0
VISUALSTYLE
  5
37
102
{ACAD_REACTORS
330
29
102
}
330
29
100
AcDbVisualStyle
  2
Linepattern
 70
    14
177
     3
291
     1
 70
    58
 90
        2
176
     1
 90
        2
176
     1
 90
        0
176
     1
 90
        0
176
     1
 40
0.6
176
     1
 40
30.0
176
     1
 62
     7
420
 16777215
176
     1
 90
        1
176
     1
 90
        4
176
     1
 62
     7
176
     1
 62
   257
176
     1
 90
        7
176
     1
 90
        7
176
     1
 40
1.0
176
     1
 90
        8
176
     1
 62
     7
176
     1
 40
1.0
176
     1
 90
        1
176
     1
 90
        6
176
     1
 90
        2
176
     1
 62
     7
176
     1
 90
        5
176
     1
 90
        0
176
     1
 90
        0
176
     1
290
     0
176
     1
 90
        1
176
     1
 40
0.0
176
     1
 90
        0
176
     1
290
     0
176
     1
290
     1
176
     1
290
     1
176
     1
290
     0
176
     1
290
     0
176
     1
290
     0
176
     1
290
     0
176
     1
290
     0
176
     1
290
     0
176
     1
 90
       50
176
     1
 40
0.0
176
     1
 40
1.0
176
     1
 90
        0
176
     1
 62
    18
420
        0
176
     1
 90
       50
176
     1
 90
        3
176
     1
 62
     5
420
      255
176
     1
290
     0
176
     1
 90
       50
176
     1
 90
       50
176
     1
 90
       50
176
     1
290
     0
176
     1
 90
       50
176
     1
 62
   256
176
     0
 40
1.0
176
     0
 90
        2
176
     1
  1
strokes_ogs.tif
176
     1
290
     0
176
     1
 40
1.0
176
     1
 40
1.0
176
     1
  0
VISUALSTYLE
  5
40
102
{ACAD_REACTORS
330
29
102
}
330
29
100
AcDbVisualStyle
  2
OverhangOff
 70
    21
177
     3
291
     1
 70
    58
 90
        2
176
     0
 90
        2
176
     0
 90
        0
176
     0
 90
        0
176
     0
 40
0.6
176
     0
 40
30.0
176
     0
 62
     7
420
 16777215
176
     0
 90
        1
176
     0
 90
        4
176
     0
 62
     7
176
     0
 62
   257
176
     0
 90
        1
176
     0
 90
        1
176
     0
 40
1.0
176
     0
 90
        9
176
     2
 62
     7
176
     0
 40
1.0
176
     0
 90
        1
176
     0
 90
        6
176
     0
 90
        2
176
     0
 62
     7
176
     0
 90
        5
176
     0
 90
        0
176
     0
 90
        0
176
     0
290
     0
176
     0
 90
        1
176
     0
 40
0.0
176
     0
 90
        0
176
     0
290
     0
176
     1
290
     1
176
     1
290
     1
176
     1
290
     0
176
     1
290
     0
176
     1
290
     0
176
     1
290
     0
176
     1
290
     0
176
     1
290
     0
176
     1
 90
       50
176
     0
 40
0.0
176
     0
 40
1.0
176
     0
 90
        0
176
     0
 62
    18
420
        0
176
     0
 90
       50
176
     0
 90
        3
176
     0
 62
     5
420
      255
176
     0
290
     0
176
     1
 90
       50
176
     0
 90
       50
176
     0
 90
       50
176
     0
290
     0
176
     1
 90
       50
176
     0
 62
   256
176
     0
 40
1.0
176
     0
 90
        2
176
     0
  1
strokes_ogs.tif
176
     0
290
     0
176
     1
 40
1.0
176
     0
 40
1.0
176
     0
  0
VISUALSTYLE
  5
33
102
{ACAD_REACTORS
330
29
102
}
330
29
100
AcDbVisualStyle
  2
Realistic
 70
     8
177
     3
291
     0
 70
    58
 90
        2
176
     1
 90
        3
176
     1
 90
        0
176
     1
 90
        2
176
     1
 40
0.6
176
     1
 40
30.0
176
     1
 62
     7
420
 16777215
176
     1
 90
        0
176
     1
 90
        0
176
     1
 62
     7
176
     1
 62
   257
176
     1
 90
        1
176
     1
 90
        1
176
     1
 40
1.0
176
     1
 90
        8
176
     1
 62
   257
176
     1
 40
1.0
176
     1
 90
        1
176
     1
 90
        6
176
     1
 90
        2
176
     1
 62
     7
176
     1
 90
        3
176
     1
 90
        0
176
     1
 90
        0
176
     1
290
     0
176
     1
 90
       13
176
     1
 40
0.0
176
     1
 90
        0
176
     1
290
     0
176
     1
290
     1
176
     1
290
     1
176
     1
290
     0
176
     1
290
     0
176
     1
290
     0
176
     1
290
     0
176
     1
290
     0
176
     1
290
     0
176
     1
 90
       50
176
     1
 40
0.0
176
     1
 40
1.0
176
     1
 90
        0
176
     1
 62
    18
420
        0
176
     1
 90
       50
176
     1
 90
        3
176
     1
 62
     5
420
      255
176
     1
290
     0
176
     1
 90
       50
176
     1
 90
       50
176
     1
 90
       50
176
     1
290
     0
176
     1
 90
       50
176
     1
 62
   256
176
     0
 40
1.0
176
     0
 90
        2
176
     1
  1
strokes_ogs.tif
176
     1
290
     0
176
     1
 40
1.0
176
     1
 40
1.0
176
     1
  0
VISUALSTYLE
  5
3E
102
{ACAD_REACTORS
330
29
102
}
330
29
100
AcDbVisualStyle
  2
Shaded
 70
    27
177
     3
291
     0
 70
    58
 90
        2
176
     1
 90
        2
176
     1
 90
        1
176
     1
 90
        2
176
     1
 40
0.6
176
     1
 40
30.0
176
     1
 62
     7
420
 16777215
176
     1
 90
        0
176
     1
 90
        4
176
     1
 62
     7
176
     1
 62
   257
176
     1
 90
        1
176
     1
 90
        1
176
     1
 40
1.0
176
     1
 90
        8
176
     1
 62
   257
176
     1
 40
1.0
176
     1
 90
        1
176
     1
 90
        6
176
     1
 90
        2
176
     1
 62
     8
420
  7895160
176
     1
 90
        3
176
     1
 90
        0
176
     1
 90
        0
176
     1
290
     0
176
     1
 90
        5
176
     1
 40
0.0
176
     1
 90
        0
176
     1
290
     0
176
     1
290
     1
176
     1
290
     1
176
     1
290
     0
176
     1
290
     0
176
     1
290
     0
176
     1
290
     0
176
     1
290
     0
176
     1
290
     0
176
     1
 90
       50
176
     1
 40
0.0
176
     1
 40
1.0
176
     1
 90
        0
176
     1
 62
    18
420
        0
176
     1
 90
       50
176
     1
 90
        3
176
     1
 62
     5
420
      255
176
     1
290
     0
176
     1
 90
       50
176
     1
 90
       50
176
     1
 90
       50
176
     1
290
     0
176
     1
 90
       50
176
     1
 62
   256
176
     0
 40
1.0
176
     0
 90
        2
176
     1
  1
strokes_ogs.tif
176
     1
290
     0
176
     1
 40
1.0
176
     1
 40
1.0
176
     1
  0
VISUALSTYLE
  5
3D
102
{ACAD_REACTORS
330
29
102
}
330
29
100
AcDbVisualStyle
  2
Shaded with edges
 70
    26
177
     3
291
     0
 70
    58
 90
        2
176
     1
 90
        2
176
     1
 90
        1
176
     1
 90
        2
176
     1
 40
0.6
176
     1
 40
30.0
176
     1
 62
     7
420
 16777215
176
     1
 90
        1
176
     1
 90
        2
176
     1
 62
     7
176
     1
 62
   257
176
     1
 90
        2
176
     1
 90
        1
176
     1
 40
1.0
176
     1
 90
        8
176
     1
 62
   257
176
     1
 40
1.0
176
     1
 90
        1
176
     1
 90
        6
176
     1
 90
        2
176
     1
 62
     7
176
     1
 90
        3
176
     1
 90
        0
176
     1
 90
        0
176
     1
290
     0
176
     1
 90
        5
176
     1
 40
0.0
176
     1
 90
        0
176
     1
290
     0
176
     1
290
     1
176
     1
290
     1
176
     1
290
     0
176
     1
290
     0
176
     1
290
     0
176
     1
290
     0
176
     1
290
     0
176
     1
290
     0
176
     1
 90
       50
176
     1
 40
0.0
176
     1
 40
1.0
176
     1
 90
        0
176
     1
 62
    18
420
        0
176
     1
 90
       50
176
     1
 90
        3
176
     1
 62
     5
420
      255
176
     1
290
     0
176
     1
 90
       50
176
     1
 90
       50
176
     1
 90
       50
176
     1
290
     0
176
     1
 90
       50
176
     1
 62
   256
176
     0
 40
1.0
176
     0
 90
        2
176
     1
  1
strokes_ogs.tif
176
     1
290
     0
176
     1
 40
1.0
176
     1
 40
1.0
176
     1
  0
VISUALSTYLE
  5
3A
102
{ACAD_REACTORS
330
29
102
}
330
29
100
AcDbVisualStyle
  2
Shades of Gray
 70
    23
177
     3
291
     0
 70
    58
 90
        2
176
     1
 90
        2
176
     1
 90
        3
176
     1
 90
        0
176
     1
 40
0.6
176
     1
 40
30.0
176
     1
 62
     7
420
 16777215
176
     1
 90
        2
176
     1
 90
        2
176
     1
 62
     7
176
     1
 62
     7
176
     1
 90
        1
176
     1
 90
        1
176
     1
 40
40.0
176
     1
 90
        8
176
     1
 62
     7
176
     1
 40
1.0
176
     1
 90
        1
176
     1
 90
        6
176
     1
 90
        2
176
     1
 62
     7
176
     1
 90
        3
176
     1
 90
        0
176
     1
 90
        0
176
     1
290
     0
176
     1
 90
        1
176
     1
 40
0.0
176
     1
 90
        0
176
     1
290
     0
176
     1
290
     1
176
     1
290
     1
176
     1
290
     0
176
     1
290
     0
176
     1
290
     0
176
     1
290
     0
176
     1
290
     0
176
     1
290
     0
176
     1
 90
       50
176
     1
 40
0.0
176
     1
 40
1.0
176
     1
 90
        0
176
     1
 62
    18
420
        0
176
     1
 90
       50
176
     1
 90
        3
176
     1
 62
     5
420
      255
176
     1
290
     0
176
     1
 90
       50
176
     1
 90
       50
176
     1
 90
       50
176
     1
290
     0
176
     1
 90
       50
176
     1
 62
   256
176
     0
 40
1.0
176
     0
 90
        2
176
     1
  1
strokes_ogs.tif
176
     1
290
     0
176
     1
 40
1.0
176
     1
 40
1.0
176
     1
  0
VISUALSTYLE
  5
3B
102
{ACAD_REACTORS
330
29
102
}
330
29
100
AcDbVisualStyle
  2
Sketchy
 70
    24
177
     3
291
     0
 70
    58
 90
        1
176
     1
 90
        2
176
     1
 90
        2
176
     1
 90
        0
176
     1
 40
0.6
176
     1
 40
30.0
176
     1
 62
     7
420
 16777215
176
     1
 90
        2
176
     1
 90
        2
176
     1
 62
     7
176
     1
 62
     7
176
     1
 90
        1
176
     1
 90
        1
176
     1
 40
40.0
176
     1
 90
       11
176
     1
 62
     7
176
     1
 40
1.0
176
     1
 90
        1
176
     1
 90
        6
176
     1
 90
        2
176
     1
 62
     7
176
     1
 90
        6
176
     1
 90
        0
176
     1
 90
        0
176
     1
290
     0
176
     1
 90
        1
176
     1
 40
0.0
176
     1
 90
        0
176
     1
290
     0
176
     1
290
     1
176
     1
290
     1
176
     1
290
     0
176
     1
290
     0
176
     1
290
     0
176
     1
290
     0
176
     1
290
     0
176
     1
290
     0
176
     1
 90
       50
176
     1
 40
0.0
176
     1
 40
1.0
176
     1
 90
        0
176
     1
 62
    18
420
        0
176
     1
 90
       50
176
     1
 90
        3
176
     1
 62
     5
420
      255
176
     1
290
     0
176
     1
 90
       50
176
     1
 90
       50
176
     1
 90
       50
176
     1
290
     0
176
     1
 90
       50
176
     1
 62
   256
176
     0
 40
1.0
176
     0
 90
        2
176
     1
  1
strokes_ogs.tif
176
     1
290
     0
176
     1
 40
1.0
176
     1
 40
1.0
176
     1
  0
VISUALSTYLE
  5
36
102
{ACAD_REACTORS
330
29
102
}
330
29
100
AcDbVisualStyle
  2
Thicken
 70
    13
177
     3
291
     1
 70
    58
 90
        2
176
     1
 90
        2
176
     1
 90
        0
176
     1
 90
        0
176
     1
 40
0.6
176
     1
 40
30.0
176
     1
 62
     7
420
 16777215
176
     1
 90
        1
176
     1
 90
        4
176
     1
 62
     7
176
     1
 62
   257
176
     1
 90
        1
176
     1
 90
        1
176
     1
 40
1.0
176
     1
 90
       12
176
     1
 62
     7
176
     1
 40
1.0
176
     1
 90
        1
176
     1
 90
        6
176
     1
 90
        2
176
     1
 62
     7
176
     1
 90
        5
176
     1
 90
        0
176
     1
 90
        0
176
     1
290
     0
176
     1
 90
        1
176
     1
 40
0.0
176
     1
 90
        0
176
     1
290
     0
176
     1
290
     1
176
     1
290
     1
176
     1
290
     0
176
     1
290
     0
176
     1
290
     0
176
     1
290
     0
176
     1
290
     0
176
     1
290
     0
176
     1
 90
       50
176
     1
 40
0.0
176
     1
 40
1.0
176
     1
 90
        0
176
     1
 62
    18
420
        0
176
     1
 90
       50
176
     1
 90
        3
176
     1
 62
     5
420
      255
176
     1
290
     0
176
     1
 90
       50
176
     1
 90
       50
176
     1
 90
       50
176
     1
290
     0
176
     1
 90
       50
176
     1
 62
   256
176
     0
 40
1.0
176
     0
 90
        2
176
     1
  1
strokes_ogs.tif
176
     1
290
     0
176
     1
 40
1.0
176
     1
 40
1.0
176
     1
  0
VISUALSTYLE
  5
30
102
{ACAD_REACTORS
330
29
102
}
330
29
100
AcDbVisualStyle
  2
Wireframe
 70
     5
177
     3
291
     0
 70
    58
 90
        0
176
     1
 90
        2
176
     1
 90
        0
176
     1
 90
        0
176
     1
 40
0.6
176
     1
 40
30.0
176
     1
 62
     7
420
 16777215
176
     1
 90
        1
176
     1
 90
        4
176
     1
 62
     7
176
     1
 62
   257
176
     1
 90
        1
176
     1
 90
        1
176
     1
 40
1.0
176
     1
 90
        0
176
     1
 62
   257
176
     1
 40
1.0
176
     1
 90
        1
176
     1
 90
        6
176
     1
 90
        2
176
     1
 62
     7
176
     1
 90
        3
176
     1
 90
        0
176
     1
 90
        0
176
     1
290
     0
176
     1
 90
        1
176
     1
 40
0.0
176
     1
 90
        0
176
     1
290
     0
176
     1
290
     1
176
     1
290
     1
176
     1
290
     0
176
     1
290
     0
176
     1
290
     0
176
     1
290
     0
176
     1
290
     0
176
     1
290
     0
176
     1
 90
       50
176
     1
 40
0.0
176
     1
 40
1.0
176
     1
 90
        0
176
     1
 62
    18
420
        0
176
     1
 90
       50
176
     1
 90
        3
176
     1
 62
     5
420
      255
176
     1
290
     0
176
     1
 90
       50
176
     1
 90
       50
176
     1
 90
       50
176
     1
290
     0
176
     1
 90
       50
176
     1
 62
   256
176
     0
 40
1.0
176
     0
 90
        2
176
     1
  1
strokes_ogs.tif
176
     1
290
     0
176
     1
 40
1.0
176
     1
 40
1.0
176
     1
  0
VISUALSTYLE
  5
3C
102
{ACAD_REACTORS
330
29
102
}
330
29
100
AcDbVisualStyle
  2
X-Ray
 70
    25
177
     3
291
     0
 70
    58
 90
        2
176
     1
 90
        2
176
     1
 90
        1
176
     1
 90
        1
176
     1
 40
0.5
176
     1
 40
30.0
176
     1
 62
     7
420
 16777215
176
     1
 90
        1
176
     1
 90
        0
176
     1
 62
     7
176
     1
 62
   257
176
     1
 90
        1
176
     1
 90
        1
176
     1
 40
1.0
176
     1
 90
        8
176
     1
 62
     7
176
     1
 40
1.0
176
     1
 90
        1
176
     1
 90
        6
176
     1
 90
        2
176
     1
 62
     7
176
     1
 90
        3
176
     1
 90
        0
176
     1
 90
        0
176
     1
290
     0
176
     1
 90
       13
176
     1
 40
0.0
176
     1
 90
        0
176
     1
290
     0
176
     1
290
     1
176
     1
290
     1
176
     1
290
     0
176
     1
290
     0
176
     1
290
     0
176
     1
290
     0
176
     1
290
     0
176
     1
290
     0
176
     1
 90
       50
176
     1
 40
0.0
176
     1
 40
1.0
176
     1
 90
        0
176
     1
 62
    18
420
        0
176
     1
 90
       50
176
     1
 90
        3
176
     1
 62
     5
420
      255
176
     1
290
     0
176
     1
 90
       50
176
     1
 90
       50
176
     1
 90
       50
176
     1
290
     0
176
     1
 90
       50
176
     1
 62
   256
176
     0
 40
1.0
176
     0
 90
        2
176
     1
  1
strokes_ogs.tif
176
     1
290
     0
176
     1
 40
1.0
176
     1
 40
1.0
176
     1
  0
DICTIONARYVAR
  5
392
102
{ACAD_REACTORS
330
38C
102
}
330
38C
100
DictionaryVariables
280
     0
  1
1:1
  0
DICTIONARYVAR
  5
38E
102
{ACAD_REACTORS
330
38C
102
}
330
38C
100
DictionaryVariables
280
     0
  1
STANDARD
  0
DICTIONARYVAR
  5
38D
102
{ACAD_REACTORS
330
38C
102
}
330
38C
100
DictionaryVariables
280
     0
  1
STANDARD
  0
DICTIONARYVAR
  5
38F
102
{ACAD_REACTORS
330
38C
102
}
330
38C
100
DictionaryVariables
280
     0
  1
Imperial24
  0
DICTIONARYVAR
  5
390
102
{ACAD_REACTORS
330
38C
102
}
330
38C
100
DictionaryVariables
280
     0
  1
Imperial24
  0
DICTIONARYVAR
  5
394
102
{ACAD_REACTORS
330
38C
102
}
330
38C
100
DictionaryVariables
280
     0
  1
1
  0
DICTIONARYVAR
  5
395
102
{ACAD_REACTORS
330
38C
102
}
330
38C
100
DictionaryVariables
280
     0
  1
15
  0
DICTIONARYVAR
  5
393
102
{ACAD_REACTORS
330
38C
102
}
330
38C
100
DictionaryVariables
280
     0
  1
0
  0
DICTIONARYVAR
  5
391
102
{ACAD_REACTORS
330
38C
102
}
330
38C
100
DictionaryVariables
280
     0
  1
0
  0
DICTIONARY
  5
1A
330
19
100
AcDbDictionary
280
     1
281
     1
  3
BUMPTILE
360
1C
  3
DIFFUSETILE
360
1B
  3
OPACITYTILE
360
1F
  3
REFLECTIONTILE
360
1E
  3
REFRACTIONTILE
360
20
  3
SPECULARTILE
360
1D
  0
DICTIONARY
  5
12
330
11
100
AcDbDictionary
280
     1
281
     1
  3
BUMPTILE
360
14
  3
DIFFUSETILE
360
13
  3
OPACITYTILE
360
17
  3
REFLECTIONTILE
360
16
  3
REFRACTIONTILE
360
18
  3
SPECULARTILE
360
15
  0
DICTIONARY
  5
22
330
21
100
AcDbDictionary
280
     1
281
     1
  3
BUMPTILE
360
24
  3
DIFFUSETILE
360
23
  3
OPACITYTILE
360
27
  3
REFLECTIONTILE
360
26
  3
REFRACTIONTILE
360
28
  3
SPECULARTILE
360
25
  0
DICTIONARY
  5
3B5
330
64
100
AcDbDictionary
280
     1
281
     1
  3
ACAD_ROUNDTRIP_2008_TABLESTYLE_CELLSTYLEMAP
360
3B6
  0
XRECORD
  5
1C
102
{ACAD_REACTORS
330
1A
102
}
330
1A
100
AcDbXrecord
280
     1
270
     1
271
     1
  0
XRECORD
  5
1B
102
{ACAD_REACTORS
330
1A
102
}
330
1A
100
AcDbXrecord
280
     1
270
     1
271
     1
  0
XRECORD
  5
1F
102
{ACAD_REACTORS
330
1A
102
}
330
1A
100
AcDbXrecord
280
     1
270
     1
271
     1
  0
XRECORD
  5
1E
102
{ACAD_REACTORS
330
1A
102
}
330
1A
100
AcDbXrecord
280
     1
270
     1
271
     1
  0
XRECORD
  5
20
102
{ACAD_REACTORS
330
1A
102
}
330
1A
100
AcDbXrecord
280
     1
270
     1
271
     1
  0
XRECORD
  5
1D
102
{ACAD_REACTORS
330
1A
102
}
330
1A
100
AcDbXrecord
280
     1
270
     1
271
     1
  0
XRECORD
  5
14
102
{ACAD_REACTORS
330
12
102
}
330
12
100
AcDbXrecord
280
     1
270
     1
271
     1
  0
XRECORD
  5
13
102
{ACAD_REACTORS
330
12
102
}
330
12
100
AcDbXrecord
280
     1
270
     1
271
     1
  0
XRECORD
  5
17
102
{ACAD_REACTORS
330
12
102
}
330
12
100
AcDbXrecord
280
     1
270
     1
271
     1
  0
XRECORD
  5
16
102
{ACAD_REACTORS
330
12
102
}
330
12
100
AcDbXrecord
280
     1
270
     1
271
     1
  0
XRECORD
  5
18
102
{ACAD_REACTORS
330
12
102
}
330
12
100
AcDbXrecord
280
     1
270
     1
271
     1
  0
XRECORD
  5
15
102
{ACAD_REACTORS
330
12
102
}
330
12
100
AcDbXrecord
280
     1
270
     1
271
     1
  0
XRECORD
  5
24
102
{ACAD_REACTORS
330
22
102
}
330
22
100
AcDbXrecord
280
     1
270
     1
271
     1
  0
XRECORD
  5
23
102
{ACAD_REACTORS
330
22
102
}
330
22
100
AcDbXrecord
280
     1
270
     1
271
     1
  0
XRECORD
  5
27
102
{ACAD_REACTORS
330
22
102
}
330
22
100
AcDbXrecord
280
     1
270
     1
271
     1
  0
XRECORD
  5
26
102
{ACAD_REACTORS
330
22
102
}
330
22
100
AcDbXrecord
280
     1
270
     1
271
     1
  0
XRECORD
  5
28
102
{ACAD_REACTORS
330
22
102
}
330
22
100
AcDbXrecord
280
     1
270
     1
271
     1
  0
XRECORD
  5
25
102
{ACAD_REACTORS
330
22
102
}
330
22
100
AcDbXrecord
280
     1
270
     1
271
     1
  0
CELLSTYLEMAP
  5
3B6
102
{ACAD_REACTORS
330
3B5
102
}
330
3B5
100
AcDbCellStyleMap
 90
        3
300
CELLSTYLE
  1
TABLEFORMAT_BEGIN
 90
        5
170
     1
 91
        0
 92
    32768
 62
   257
 93
        1
300
CONTENTFORMAT
  1
CONTENTFORMAT_BEGIN
 90
        0
 91
        0
 92
      512
 93
        0
300

 40
0.0
140
1.0
 94
        5
 62
     0
340
55
144
0.25
309
CONTENTFORMAT_END
171
     0
 94
        0
309
TABLEFORMAT_END
  1
CELLSTYLE_BEGIN
 90
        1
 91
        1
300
_TITLE
309
CELLSTYLE_END
300
CELLSTYLE
  1
TABLEFORMAT_BEGIN
 90
        5
170
     1
 91
        0
 92
        0
 62
   257
 93
        1
300
CONTENTFORMAT
  1
CONTENTFORMAT_BEGIN
 90
        0
 91
        0
 92
      512
 93
        0
300

 40
0.0
140
1.0
 94
        5
 62
     0
340
55
144
0.18
309
CONTENTFORMAT_END
171
     0
 94
        0
309
TABLEFORMAT_END
  1
CELLSTYLE_BEGIN
 90
        2
 91
        1
300
_HEADER
309
CELLSTYLE_END
300
CELLSTYLE
  1
TABLEFORMAT_BEGIN
 90
        5
170
     1
 91
        0
 92
        0
 62
   257
 93
        1
300
CONTENTFORMAT
  1
CONTENTFORMAT_BEGIN
 90
        0
 91
        0
 92
      512
 93
        0
300

 40
0.0
140
1.0
 94
        2
 62
     0
340
55
144
0.18
309
CONTENTFORMAT_END
171
     0
 94
        0
309
TABLEFORMAT_END
  1
CELLSTYLE_BEGIN
 90
        3
 91
        2
300
_DATA
309
CELLSTYLE_END
  0
ENDSEC
  0
EOF
