  0
SECTION
  2
HEADER
  9
$ACADVER
  1
AC1009
  9
$EXTMIN
 10
0.0
 20
0.0
 30
0.0
  9
$EXTMAX
 10
1000.0
 20
1000.0
 30
0.0
  9
$FILLMODE
 70
 0
  9
$SPLFRAME
 70
 1
  0
ENDSEC
  0
SECTION
  2
TABLES
  0
TABLE
  2
LAYER
 70
1
  0
LAYER
  2
0
 70
     0
 62
     7
  6
CONTINUOUS
  0
ENDTAB
  0
ENDSEC
  0
SECTION
  2
ENTITIES
  0
LINE
  8
0
 62
     0
 10
328.421
 20
130.433
 30
0.0
 11
328.578
 21
130.426
 31
0.0
  0
LINE
  8
0
 62
     0
 10
328.578
 20
130.426
 30
0.0
 11
328.734
 21
130.408
 31
0.0
  0
LINE
  8
0
 62
     0
 10
328.734
 20
130.408
 30
0.0
 11
328.888
 21
130.377
 31
0.0
  0
LINE
  8
0
 62
     0
 10
328.888
 20
130.377
 30
0.0
 11
329.04
 21
130.335
 31
0.0
  0
LINE
  8
0
 62
     0
 10
329.04
 20
130.335
 30
0.0
 11
329.187
 21
130.28
 31
0.0
  0
LINE
  8
0
 62
     0
 10
329.187
 20
130.28
 30
0.0
 11
329.329
 21
130.215
 31
0.0
  0
LINE
  8
0
 62
     0
 10
329.329
 20
130.215
 30
0.0
 11
329.466
 21
130.138
 31
0.0
  0
LINE
  8
0
 62
     0
 10
329.466
 20
130.138
 30
0.0
 11
329.596
 21
130.051
 31
0.0
  0
LINE
  8
0
 62
     0
 10
329.596
 20
130.051
 30
0.0
 11
329.719
 21
129.953
 31
0.0
  0
LINE
  8
0
 62
     0
 10
329.719
 20
129.953
 30
0.0
 11
329.835
 21
129.847
 31
0.0
  0
LINE
  8
0
 62
     0
 10
329.835
 20
129.847
 30
0.0
 11
329.941
 21
129.731
 31
0.0
  0
LINE
  8
0
 62
     0
 10
329.941
 20
129.731
 30
0.0
 11
330.04
 21
129.609
 31
0.0
  0
LINE
  8
0
 62
     0
 10
330.04
 20
129.609
 30
0.0
 11
330.127
 21
129.478
 31
0.0
  0
LINE
  8
0
 62
     0
 10
330.127
 20
129.478
 30
0.0
 11
330.204
 21
129.34
 31
0.0
  0
LINE
  8
0
 62
     0
 10
330.204
 20
129.34
 30
0.0
 11
330.269
 21
129.198
 31
0.0
  0
LINE
  8
0
 62
     0
 10
330.269
 20
129.198
 30
0.0
 11
330.324
 21
129.052
 31
0.0
  0
LINE
  8
0
 62
     0
 10
330.324
 20
129.052
 30
0.0
 11
330.365
 21
128.899
 31
0.0
  0
LINE
  8
0
 62
     0
 10
330.365
 20
128.899
 30
0.0
 11
330.397
 21
128.746
 31
0.0
  0
LINE
  8
0
 62
     0
 10
330.397
 20
128.746
 30
0.0
 11
330.415
 21
128.589
 31
0.0
  0
LINE
  8
0
 62
     0
 10
330.415
 20
128.589
 30
0.0
 11
330.422
 21
128.432
 31
0.0
  0
LINE
  8
0
 62
     0
 10
330.422
 20
128.432
 30
0.0
 11
330.422
 21
2.13183
 31
0.0
  0
LINE
  8
0
 62
     0
 10
330.422
 20
2.13183
 30
0.0
 11
330.415
 21
1.97473
 31
0.0
  0
LINE
  8
0
 62
     0
 10
330.415
 20
1.97473
 30
0.0
 11
330.397
 21
1.81901
 31
0.0
  0
LINE
  8
0
 62
     0
 10
330.397
 20
1.81901
 30
0.0
 11
330.365
 21
1.66467
 31
0.0
  0
LINE
  8
0
 62
     0
 10
330.365
 20
1.66467
 30
0.0
 11
330.324
 21
1.51309
 31
0.0
  0
LINE
  8
0
 62
     0
 10
330.324
 20
1.51309
 30
0.0
 11
330.269
 21
1.36563
 31
0.0
  0
LINE
  8
0
 62
     0
 10
330.269
 20
1.36563
 30
0.0
 11
330.204
 21
1.2237
 31
0.0
  0
LINE
  8
0
 62
     0
 10
330.204
 20
1.2237
 30
0.0
 11
330.127
 21
1.08727
 31
0.0
  0
LINE
  8
0
 62
     0
 10
330.127
 20
1.08727
 30
0.0
 11
330.04
 21
0.956359
 31
0.0
  0
LINE
  8
0
 62
     0
 10
330.04
 20
0.956359
 30
0.0
 11
329.941
 21
0.833713
 31
0.0
  0
LINE
  8
0
 62
     0
 10
329.941
 20
0.833713
 30
0.0
 11
329.835
 21
0.717959
 31
0.0
  0
LINE
  8
0
 62
     0
 10
329.835
 20
0.717959
 30
0.0
 11
329.719
 21
0.611851
 31
0.0
  0
LINE
  8
0
 62
     0
 10
329.719
 20
0.611851
 30
0.0
 11
329.596
 21
0.512632
 31
0.0
  0
LINE
  8
0
 62
     0
 10
329.596
 20
0.512632
 30
0.0
 11
329.466
 21
0.425813
 31
0.0
  0
LINE
  8
0
 62
     0
 10
329.466
 20
0.425813
 30
0.0
 11
329.329
 21
0.348644
 31
0.0
  0
LINE
  8
0
 62
     0
 10
329.329
 20
0.348644
 30
0.0
 11
329.187
 21
0.283876
 31
0.0
  0
LINE
  8
0
 62
     0
 10
329.187
 20
0.283876
 30
0.0
 11
329.04
 21
0.228755
 31
0.0
  0
LINE
  8
0
 62
     0
 10
329.04
 20
0.228755
 30
0.0
 11
328.888
 21
0.187413
 31
0.0
  0
LINE
  8
0
 62
     0
 10
328.888
 20
0.187413
 30
0.0
 11
328.734
 21
0.155718
 31
0.0
  0
LINE
  8
0
 62
     0
 10
328.734
 20
0.155718
 30
0.0
 11
328.578
 21
0.137804
 31
0.0
  0
LINE
  8
0
 62
     0
 10
328.578
 20
0.137804
 30
0.0
 11
328.421
 21
0.130914
 31
0.0
  0
LINE
  8
0
 62
     0
 10
328.421
 20
0.130914
 30
0.0
 11
2.096
 21
0.130914
 31
0.0
  0
LINE
  8
0
 62
     0
 10
2.096
 20
0.130914
 30
0.0
 11
1.9389
 21
0.137804
 31
0.0
  0
LINE
  8
0
 62
     0
 10
1.9389
 20
0.137804
 30
0.0
 11
1.7818
 21
0.155718
 31
0.0
  0
LINE
  8
0
 62
     0
 10
1.7818
 20
0.155718
 30
0.0
 11
1.62884
 21
0.187413
 31
0.0
  0
LINE
  8
0
 62
     0
 10
1.62884
 20
0.187413
 30
0.0
 11
1.47588
 21
0.228755
 31
0.0
  0
LINE
  8
0
 62
     0
 10
1.47588
 20
0.228755
 30
0.0
 11
1.32981
 21
0.283876
 31
0.0
  0
LINE
  8
0
 62
     0
 10
1.32981
 20
0.283876
 30
0.0
 11
1.18787
 21
0.348644
 31
0.0
  0
LINE
  8
0
 62
     0
 10
1.18787
 20
0.348644
 30
0.0
 11
1.05006
 21
0.425813
 31
0.0
  0
LINE
  8
0
 62
     0
 10
1.05006
 20
0.425813
 30
0.0
 11
0.919152
 21
0.512632
 31
0.0
  0
LINE
  8
0
 62
     0
 10
0.919152
 20
0.512632
 30
0.0
 11
0.796505
 21
0.611851
 31
0.0
  0
LINE
  8
0
 62
     0
 10
0.796505
 20
0.611851
 30
0.0
 11
0.680752
 21
0.717959
 31
0.0
  0
LINE
  8
0
 62
     0
 10
0.680752
 20
0.717959
 30
0.0
 11
0.574643
 21
0.833713
 31
0.0
  0
LINE
  8
0
 62
     0
 10
0.574643
 20
0.833713
 30
0.0
 11
0.4768
 21
0.956359
 31
0.0
  0
LINE
  8
0
 62
     0
 10
0.4768
 20
0.956359
 30
0.0
 11
0.389985
 21
1.08727
 31
0.0
  0
LINE
  8
0
 62
     0
 10
0.389985
 20
1.08727
 30
0.0
 11
0.312815
 21
1.2237
 31
0.0
  0
LINE
  8
0
 62
     0
 10
0.312815
 20
1.2237
 30
0.0
 11
0.248047
 21
1.36563
 31
0.0
  0
LINE
  8
0
 62
     0
 10
0.248047
 20
1.36563
 30
0.0
 11
0.192925
 21
1.51309
 31
0.0
  0
LINE
  8
0
 62
     0
 10
0.192925
 20
1.51309
 30
0.0
 11
0.150206
 21
1.66467
 31
0.0
  0
LINE
  8
0
 62
     0
 10
0.150206
 20
1.66467
 30
0.0
 11
0.119889
 21
1.81901
 31
0.0
  0
LINE
  8
0
 62
     0
 10
0.119889
 20
1.81901
 30
0.0
 11
0.101975
 21
1.97473
 31
0.0
  0
LINE
  8
0
 62
     0
 10
0.101975
 20
1.97473
 30
0.0
 11
0.0950846
 21
2.13183
 31
0.0
  0
LINE
  8
0
 62
     0
 10
0.0950846
 20
2.13183
 30
0.0
 11
0.0950846
 21
128.432
 31
0.0
  0
LINE
  8
0
 62
     0
 10
0.0950846
 20
128.432
 30
0.0
 11
0.101975
 21
128.589
 31
0.0
  0
LINE
  8
0
 62
     0
 10
0.101975
 20
128.589
 30
0.0
 11
0.119889
 21
128.746
 31
0.0
  0
LINE
  8
0
 62
     0
 10
0.119889
 20
128.746
 30
0.0
 11
0.150206
 21
128.899
 31
0.0
  0
LINE
  8
0
 62
     0
 10
0.150206
 20
128.899
 30
0.0
 11
0.192925
 21
129.052
 31
0.0
  0
LINE
  8
0
 62
     0
 10
0.192925
 20
129.052
 30
0.0
 11
0.248047
 21
129.198
 31
0.0
  0
LINE
  8
0
 62
     0
 10
0.248047
 20
129.198
 30
0.0
 11
0.312815
 21
129.34
 31
0.0
  0
LINE
  8
0
 62
     0
 10
0.312815
 20
129.34
 30
0.0
 11
0.389985
 21
129.478
 31
0.0
  0
LINE
  8
0
 62
     0
 10
0.389985
 20
129.478
 30
0.0
 11
0.4768
 21
129.609
 31
0.0
  0
LINE
  8
0
 62
     0
 10
0.4768
 20
129.609
 30
0.0
 11
0.574643
 21
129.731
 31
0.0
  0
LINE
  8
0
 62
     0
 10
0.574643
 20
129.731
 30
0.0
 11
0.680752
 21
129.847
 31
0.0
  0
LINE
  8
0
 62
     0
 10
0.680752
 20
129.847
 30
0.0
 11
0.796505
 21
129.953
 31
0.0
  0
LINE
  8
0
 62
     0
 10
0.796505
 20
129.953
 30
0.0
 11
0.919152
 21
130.051
 31
0.0
  0
LINE
  8
0
 62
     0
 10
0.919152
 20
130.051
 30
0.0
 11
1.05006
 21
130.138
 31
0.0
  0
LINE
  8
0
 62
     0
 10
1.05006
 20
130.138
 30
0.0
 11
1.18787
 21
130.215
 31
0.0
  0
LINE
  8
0
 62
     0
 10
1.18787
 20
130.215
 30
0.0
 11
1.32981
 21
130.28
 31
0.0
  0
LINE
  8
0
 62
     0
 10
1.32981
 20
130.28
 30
0.0
 11
1.47588
 21
130.335
 31
0.0
  0
LINE
  8
0
 62
     0
 10
1.47588
 20
130.335
 30
0.0
 11
1.62884
 21
130.377
 31
0.0
  0
LINE
  8
0
 62
     0
 10
1.62884
 20
130.377
 30
0.0
 11
1.7818
 21
130.408
 31
0.0
  0
LINE
  8
0
 62
     0
 10
1.7818
 20
130.408
 30
0.0
 11
1.9389
 21
130.426
 31
0.0
  0
LINE
  8
0
 62
     0
 10
1.9389
 20
130.426
 30
0.0
 11
2.096
 21
130.433
 31
0.0
  0
LINE
  8
0
 62
     0
 10
2.096
 20
130.433
 30
0.0
 11
328.421
 21
130.433
 31
0.0
  0
LINE
  8
0
 62
     0
 10
3.77031
 20
5.13182
 30
0.0
 11
3.47817
 21
4.98161
 31
0.0
  0
LINE
  8
0
 62
     0
 10
3.47817
 20
4.98161
 30
0.0
 11
3.24528
 21
4.74871
 31
0.0
  0
LINE
  8
0
 62
     0
 10
3.24528
 20
4.74871
 30
0.0
 11
3.09507
 21
4.45657
 31
0.0
  0
LINE
  8
0
 62
     0
 10
3.09507
 20
4.45657
 30
0.0
 11
3.04546
 21
4.13135
 31
0.0
  0
LINE
  8
0
 62
     0
 10
3.04546
 20
4.13135
 30
0.0
 11
3.09507
 21
3.80753
 31
0.0
  0
LINE
  8
0
 62
     0
 10
3.09507
 20
3.80753
 30
0.0
 11
3.24528
 21
3.514
 31
0.0
  0
LINE
  8
0
 62
     0
 10
3.24528
 20
3.514
 30
0.0
 11
3.47817
 21
3.28249
 31
0.0
  0
LINE
  8
0
 62
     0
 10
3.47817
 20
3.28249
 30
0.0
 11
3.77031
 21
3.13366
 31
0.0
  0
LINE
  8
0
 62
     0
 10
3.77031
 20
3.13366
 30
0.0
 11
4.09554
 21
3.0813
 31
0.0
  0
LINE
  8
0
 62
     0
 10
4.09554
 20
3.0813
 30
0.0
 11
4.41935
 21
3.13366
 31
0.0
  0
LINE
  8
0
 62
     0
 10
4.41935
 20
3.13366
 30
0.0
 11
4.7129
 21
3.28249
 31
0.0
  0
LINE
  8
0
 62
     0
 10
4.7129
 20
3.28249
 30
0.0
 11
4.94439
 21
3.514
 31
0.0
  0
LINE
  8
0
 62
     0
 10
4.94439
 20
3.514
 30
0.0
 11
5.09323
 21
3.80753
 31
0.0
  0
LINE
  8
0
 62
     0
 10
5.09323
 20
3.80753
 30
0.0
 11
5.14558
 21
4.13135
 31
0.0
  0
LINE
  8
0
 62
     0
 10
5.14558
 20
4.13135
 30
0.0
 11
5.09323
 21
4.45657
 31
0.0
  0
LINE
  8
0
 62
     0
 10
5.09323
 20
4.45657
 30
0.0
 11
4.94439
 21
4.74871
 31
0.0
  0
LINE
  8
0
 62
     0
 10
4.94439
 20
4.74871
 30
0.0
 11
4.7129
 21
4.98161
 31
0.0
  0
LINE
  8
0
 62
     0
 10
4.7129
 20
4.98161
 30
0.0
 11
4.41935
 21
5.13182
 31
0.0
  0
LINE
  8
0
 62
     0
 10
4.41935
 20
5.13182
 30
0.0
 11
4.09554
 21
5.1828
 31
0.0
  0
LINE
  8
0
 62
     0
 10
4.09554
 20
5.1828
 30
0.0
 11
3.77031
 21
5.13182
 31
0.0
  0
LINE
  8
0
 62
     0
 10
84.3523
 20
5.13182
 30
0.0
 11
84.0588
 21
4.98161
 31
0.0
  0
LINE
  8
0
 62
     0
 10
84.0588
 20
4.98161
 30
0.0
 11
83.8274
 21
4.74871
 31
0.0
  0
LINE
  8
0
 62
     0
 10
83.8274
 20
4.74871
 30
0.0
 11
83.6771
 21
4.45657
 31
0.0
  0
LINE
  8
0
 62
     0
 10
83.6771
 20
4.45657
 30
0.0
 11
83.6263
 21
4.13135
 31
0.0
  0
LINE
  8
0
 62
     0
 10
83.6263
 20
4.13135
 30
0.0
 11
83.6771
 21
3.80753
 31
0.0
  0
LINE
  8
0
 62
     0
 10
83.6771
 20
3.80753
 30
0.0
 11
83.8274
 21
3.514
 31
0.0
  0
LINE
  8
0
 62
     0
 10
83.8274
 20
3.514
 30
0.0
 11
84.0588
 21
3.28249
 31
0.0
  0
LINE
  8
0
 62
     0
 10
84.0588
 20
3.28249
 30
0.0
 11
84.3523
 21
3.13366
 31
0.0
  0
LINE
  8
0
 62
     0
 10
84.3523
 20
3.13366
 30
0.0
 11
84.6762
 21
3.0813
 31
0.0
  0
LINE
  8
0
 62
     0
 10
84.6762
 20
3.0813
 30
0.0
 11
85
 21
3.13366
 31
0.0
  0
LINE
  8
0
 62
     0
 10
85
 20
3.13366
 30
0.0
 11
85.2936
 21
3.28249
 31
0.0
  0
LINE
  8
0
 62
     0
 10
85.2936
 20
3.28249
 30
0.0
 11
85.5253
 21
3.514
 31
0.0
  0
LINE
  8
0
 62
     0
 10
85.5253
 20
3.514
 30
0.0
 11
85.6753
 21
3.80753
 31
0.0
  0
LINE
  8
0
 62
     0
 10
85.6753
 20
3.80753
 30
0.0
 11
85.7264
 21
4.13135
 31
0.0
  0
LINE
  8
0
 62
     0
 10
85.7264
 20
4.13135
 30
0.0
 11
85.6753
 21
4.45657
 31
0.0
  0
LINE
  8
0
 62
     0
 10
85.6753
 20
4.45657
 30
0.0
 11
85.5253
 21
4.74871
 31
0.0
  0
LINE
  8
0
 62
     0
 10
85.5253
 20
4.74871
 30
0.0
 11
85.2936
 21
4.98161
 31
0.0
  0
LINE
  8
0
 62
     0
 10
85.2936
 20
4.98161
 30
0.0
 11
85
 21
5.13182
 31
0.0
  0
LINE
  8
0
 62
     0
 10
85
 20
5.13182
 30
0.0
 11
84.6762
 21
5.1828
 31
0.0
  0
LINE
  8
0
 62
     0
 10
84.6762
 20
5.1828
 30
0.0
 11
84.3523
 21
5.13182
 31
0.0
  0
LINE
  8
0
 62
     0
 10
164.933
 20
5.13182
 30
0.0
 11
164.641
 21
4.98161
 31
0.0
  0
LINE
  8
0
 62
     0
 10
164.641
 20
4.98161
 30
0.0
 11
164.408
 21
4.74871
 31
0.0
  0
LINE
  8
0
 62
     0
 10
164.408
 20
4.74871
 30
0.0
 11
164.259
 21
4.45657
 31
0.0
  0
LINE
  8
0
 62
     0
 10
164.259
 20
4.45657
 30
0.0
 11
164.209
 21
4.13135
 31
0.0
  0
LINE
  8
0
 62
     0
 10
164.209
 20
4.13135
 30
0.0
 11
164.259
 21
3.80753
 31
0.0
  0
LINE
  8
0
 62
     0
 10
164.259
 20
3.80753
 30
0.0
 11
164.408
 21
3.514
 31
0.0
  0
LINE
  8
0
 62
     0
 10
164.408
 20
3.514
 30
0.0
 11
164.641
 21
3.28249
 31
0.0
  0
LINE
  8
0
 62
     0
 10
164.641
 20
3.28249
 30
0.0
 11
164.933
 21
3.13366
 31
0.0
  0
LINE
  8
0
 62
     0
 10
164.933
 20
3.13366
 30
0.0
 11
165.258
 21
3.0813
 31
0.0
  0
LINE
  8
0
 62
     0
 10
165.258
 20
3.0813
 30
0.0
 11
165.582
 21
3.13366
 31
0.0
  0
LINE
  8
0
 62
     0
 10
165.582
 20
3.13366
 30
0.0
 11
165.876
 21
3.28249
 31
0.0
  0
LINE
  8
0
 62
     0
 10
165.876
 20
3.28249
 30
0.0
 11
166.107
 21
3.514
 31
0.0
  0
LINE
  8
0
 62
     0
 10
166.107
 20
3.514
 30
0.0
 11
166.256
 21
3.80753
 31
0.0
  0
LINE
  8
0
 62
     0
 10
166.256
 20
3.80753
 30
0.0
 11
166.309
 21
4.13135
 31
0.0
  0
LINE
  8
0
 62
     0
 10
166.309
 20
4.13135
 30
0.0
 11
166.256
 21
4.45657
 31
0.0
  0
LINE
  8
0
 62
     0
 10
166.256
 20
4.45657
 30
0.0
 11
166.107
 21
4.74871
 31
0.0
  0
LINE
  8
0
 62
     0
 10
166.107
 20
4.74871
 30
0.0
 11
165.876
 21
4.98161
 31
0.0
  0
LINE
  8
0
 62
     0
 10
165.876
 20
4.98161
 30
0.0
 11
165.582
 21
5.13182
 31
0.0
  0
LINE
  8
0
 62
     0
 10
165.582
 20
5.13182
 30
0.0
 11
165.258
 21
5.1828
 31
0.0
  0
LINE
  8
0
 62
     0
 10
165.258
 20
5.1828
 30
0.0
 11
164.933
 21
5.13182
 31
0.0
  0
LINE
  8
0
 62
     0
 10
245.515
 20
5.13182
 30
0.0
 11
245.222
 21
4.98161
 31
0.0
  0
LINE
  8
0
 62
     0
 10
245.222
 20
4.98161
 30
0.0
 11
244.99
 21
4.74871
 31
0.0
  0
LINE
  8
0
 62
     0
 10
244.99
 20
4.74871
 30
0.0
 11
244.84
 21
4.45657
 31
0.0
  0
LINE
  8
0
 62
     0
 10
244.84
 20
4.45657
 30
0.0
 11
244.789
 21
4.13135
 31
0.0
  0
LINE
  8
0
 62
     0
 10
244.789
 20
4.13135
 30
0.0
 11
244.84
 21
3.80753
 31
0.0
  0
LINE
  8
0
 62
     0
 10
244.84
 20
3.80753
 30
0.0
 11
244.99
 21
3.514
 31
0.0
  0
LINE
  8
0
 62
     0
 10
244.99
 20
3.514
 30
0.0
 11
245.222
 21
3.28249
 31
0.0
  0
LINE
  8
0
 62
     0
 10
245.222
 20
3.28249
 30
0.0
 11
245.515
 21
3.13366
 31
0.0
  0
LINE
  8
0
 62
     0
 10
245.515
 20
3.13366
 30
0.0
 11
245.839
 21
3.0813
 31
0.0
  0
LINE
  8
0
 62
     0
 10
245.839
 20
3.0813
 30
0.0
 11
246.163
 21
3.13366
 31
0.0
  0
LINE
  8
0
 62
     0
 10
246.163
 20
3.13366
 30
0.0
 11
246.457
 21
3.28249
 31
0.0
  0
LINE
  8
0
 62
     0
 10
246.457
 20
3.28249
 30
0.0
 11
246.688
 21
3.514
 31
0.0
  0
LINE
  8
0
 62
     0
 10
246.688
 20
3.514
 30
0.0
 11
246.838
 21
3.80753
 31
0.0
  0
LINE
  8
0
 62
     0
 10
246.838
 20
3.80753
 30
0.0
 11
246.889
 21
4.13135
 31
0.0
  0
LINE
  8
0
 62
     0
 10
246.889
 20
4.13135
 30
0.0
 11
246.838
 21
4.45657
 31
0.0
  0
LINE
  8
0
 62
     0
 10
246.838
 20
4.45657
 30
0.0
 11
246.688
 21
4.74871
 31
0.0
  0
LINE
  8
0
 62
     0
 10
246.688
 20
4.74871
 30
0.0
 11
246.457
 21
4.98161
 31
0.0
  0
LINE
  8
0
 62
     0
 10
246.457
 20
4.98161
 30
0.0
 11
246.163
 21
5.13182
 31
0.0
  0
LINE
  8
0
 62
     0
 10
246.163
 20
5.13182
 30
0.0
 11
245.839
 21
5.1828
 31
0.0
  0
LINE
  8
0
 62
     0
 10
245.839
 20
5.1828
 30
0.0
 11
245.515
 21
5.13182
 31
0.0
  0
LINE
  8
0
 62
     0
 10
326.096
 20
5.13182
 30
0.0
 11
325.804
 21
4.98161
 31
0.0
  0
LINE
  8
0
 62
     0
 10
325.804
 20
4.98161
 30
0.0
 11
325.571
 21
4.74871
 31
0.0
  0
LINE
  8
0
 62
     0
 10
325.571
 20
4.74871
 30
0.0
 11
325.422
 21
4.45657
 31
0.0
  0
LINE
  8
0
 62
     0
 10
325.422
 20
4.45657
 30
0.0
 11
325.372
 21
4.13135
 31
0.0
  0
LINE
  8
0
 62
     0
 10
325.372
 20
4.13135
 30
0.0
 11
325.422
 21
3.80753
 31
0.0
  0
LINE
  8
0
 62
     0
 10
325.422
 20
3.80753
 30
0.0
 11
325.571
 21
3.514
 31
0.0
  0
LINE
  8
0
 62
     0
 10
325.571
 20
3.514
 30
0.0
 11
325.804
 21
3.28249
 31
0.0
  0
LINE
  8
0
 62
     0
 10
325.804
 20
3.28249
 30
0.0
 11
326.096
 21
3.13366
 31
0.0
  0
LINE
  8
0
 62
     0
 10
326.096
 20
3.13366
 30
0.0
 11
326.421
 21
3.0813
 31
0.0
  0
LINE
  8
0
 62
     0
 10
326.421
 20
3.0813
 30
0.0
 11
326.745
 21
3.13366
 31
0.0
  0
LINE
  8
0
 62
     0
 10
326.745
 20
3.13366
 30
0.0
 11
327.039
 21
3.28249
 31
0.0
  0
LINE
  8
0
 62
     0
 10
327.039
 20
3.28249
 30
0.0
 11
327.27
 21
3.514
 31
0.0
  0
LINE
  8
0
 62
     0
 10
327.27
 20
3.514
 30
0.0
 11
327.419
 21
3.80753
 31
0.0
  0
LINE
  8
0
 62
     0
 10
327.419
 20
3.80753
 30
0.0
 11
327.472
 21
4.13135
 31
0.0
  0
LINE
  8
0
 62
     0
 10
327.472
 20
4.13135
 30
0.0
 11
327.419
 21
4.45657
 31
0.0
  0
LINE
  8
0
 62
     0
 10
327.419
 20
4.45657
 30
0.0
 11
327.27
 21
4.74871
 31
0.0
  0
LINE
  8
0
 62
     0
 10
327.27
 20
4.74871
 30
0.0
 11
327.039
 21
4.98161
 31
0.0
  0
LINE
  8
0
 62
     0
 10
327.039
 20
4.98161
 30
0.0
 11
326.745
 21
5.13182
 31
0.0
  0
LINE
  8
0
 62
     0
 10
326.745
 20
5.13182
 30
0.0
 11
326.421
 21
5.1828
 31
0.0
  0
LINE
  8
0
 62
     0
 10
326.421
 20
5.1828
 30
0.0
 11
326.096
 21
5.13182
 31
0.0
  0
LINE
  8
0
 62
     0
 10
8.09322
 20
122.435
 30
0.0
 11
8.09322
 21
103.382
 31
0.0
  0
LINE
  8
0
 62
     0
 10
8.09322
 20
103.382
 30
0.0
 11
8.09459
 21
103.382
 31
0.0
  0
LINE
  8
0
 62
     0
 10
8.09459
 20
103.382
 30
0.0
 11
8.09459
 21
84.3333
 31
0.0
  0
LINE
  8
0
 62
     0
 10
8.09459
 20
84.3333
 30
0.0
 11
8.09322
 21
84.3333
 31
0.0
  0
LINE
  8
0
 62
     0
 10
8.09322
 20
84.3333
 30
0.0
 11
8.09322
 21
65.2819
 31
0.0
  0
LINE
  8
0
 62
     0
 10
8.09322
 20
65.2819
 30
0.0
 11
8.09459
 21
65.2819
 31
0.0
  0
LINE
  8
0
 62
     0
 10
8.09459
 20
65.2819
 30
0.0
 11
8.09459
 21
27.1818
 31
0.0
  0
LINE
  8
0
 62
     0
 10
8.09459
 20
27.1818
 30
0.0
 11
108.107
 21
27.1818
 31
0.0
  0
LINE
  8
0
 62
     0
 10
108.107
 20
27.1818
 30
0.0
 11
108.107
 21
8.13181
 31
0.0
  0
LINE
  8
0
 62
     0
 10
108.107
 20
8.13181
 30
0.0
 11
165.258
 21
8.13181
 31
0.0
  0
LINE
  8
0
 62
     0
 10
165.258
 20
8.13181
 30
0.0
 11
165.258
 21
27.1818
 31
0.0
  0
LINE
  8
0
 62
     0
 10
165.258
 20
27.1818
 30
0.0
 11
322.421
 21
27.1818
 31
0.0
  0
LINE
  8
0
 62
     0
 10
322.421
 20
27.1818
 30
0.0
 11
322.421
 21
46.2333
 31
0.0
  0
LINE
  8
0
 62
     0
 10
322.421
 20
46.2333
 30
0.0
 11
303.371
 21
46.2333
 31
0.0
  0
LINE
  8
0
 62
     0
 10
303.371
 20
46.2333
 30
0.0
 11
303.371
 21
65.2833
 31
0.0
  0
LINE
  8
0
 62
     0
 10
303.371
 20
65.2833
 30
0.0
 11
293.846
 21
65.2833
 31
0.0
  0
LINE
  8
0
 62
     0
 10
293.846
 20
65.2833
 30
0.0
 11
293.846
 21
122.435
 31
0.0
  0
LINE
  8
0
 62
     0
 10
293.846
 20
122.435
 30
0.0
 11
8.09322
 21
122.435
 31
0.0
  0
LINE
  8
0
 62
     0
 10
3.77031
 20
66.2809
 30
0.0
 11
3.47817
 21
66.1307
 31
0.0
  0
LINE
  8
0
 62
     0
 10
3.47817
 20
66.1307
 30
0.0
 11
3.24528
 21
65.8992
 31
0.0
  0
LINE
  8
0
 62
     0
 10
3.24528
 20
65.8992
 30
0.0
 11
3.09507
 21
65.6057
 31
0.0
  0
LINE
  8
0
 62
     0
 10
3.09507
 20
65.6057
 30
0.0
 11
3.04546
 21
65.2819
 31
0.0
  0
LINE
  8
0
 62
     0
 10
3.04546
 20
65.2819
 30
0.0
 11
3.09507
 21
64.958
 31
0.0
  0
LINE
  8
0
 62
     0
 10
3.09507
 20
64.958
 30
0.0
 11
3.24528
 21
64.6659
 31
0.0
  0
LINE
  8
0
 62
     0
 10
3.24528
 20
64.6659
 30
0.0
 11
3.47817
 21
64.4331
 31
0.0
  0
LINE
  8
0
 62
     0
 10
3.47817
 20
64.4331
 30
0.0
 11
3.77031
 21
64.2828
 31
0.0
  0
LINE
  8
0
 62
     0
 10
3.77031
 20
64.2828
 30
0.0
 11
4.09554
 21
64.2317
 31
0.0
  0
LINE
  8
0
 62
     0
 10
4.09554
 20
64.2317
 30
0.0
 11
4.41935
 21
64.2828
 31
0.0
  0
LINE
  8
0
 62
     0
 10
4.41935
 20
64.2828
 30
0.0
 11
4.7129
 21
64.4331
 31
0.0
  0
LINE
  8
0
 62
     0
 10
4.7129
 20
64.4331
 30
0.0
 11
4.94439
 21
64.6659
 31
0.0
  0
LINE
  8
0
 62
     0
 10
4.94439
 20
64.6659
 30
0.0
 11
5.09323
 21
64.958
 31
0.0
  0
LINE
  8
0
 62
     0
 10
5.09323
 20
64.958
 30
0.0
 11
5.14558
 21
65.2819
 31
0.0
  0
LINE
  8
0
 62
     0
 10
5.14558
 20
65.2819
 30
0.0
 11
5.09323
 21
65.6057
 31
0.0
  0
LINE
  8
0
 62
     0
 10
5.09323
 20
65.6057
 30
0.0
 11
4.94439
 21
65.8992
 31
0.0
  0
LINE
  8
0
 62
     0
 10
4.94439
 20
65.8992
 30
0.0
 11
4.7129
 21
66.1307
 31
0.0
  0
LINE
  8
0
 62
     0
 10
4.7129
 20
66.1307
 30
0.0
 11
4.41935
 21
66.2809
 31
0.0
  0
LINE
  8
0
 62
     0
 10
4.41935
 20
66.2809
 30
0.0
 11
4.09554
 21
66.3317
 31
0.0
  0
LINE
  8
0
 62
     0
 10
4.09554
 20
66.3317
 30
0.0
 11
3.77031
 21
66.2809
 31
0.0
  0
LINE
  8
0
 62
     0
 10
326.096
 20
66.2809
 30
0.0
 11
325.804
 21
66.1307
 31
0.0
  0
LINE
  8
0
 62
     0
 10
325.804
 20
66.1307
 30
0.0
 11
325.571
 21
65.8992
 31
0.0
  0
LINE
  8
0
 62
     0
 10
325.571
 20
65.8992
 30
0.0
 11
325.422
 21
65.6057
 31
0.0
  0
LINE
  8
0
 62
     0
 10
325.422
 20
65.6057
 30
0.0
 11
325.372
 21
65.2819
 31
0.0
  0
LINE
  8
0
 62
     0
 10
325.372
 20
65.2819
 30
0.0
 11
325.422
 21
64.958
 31
0.0
  0
LINE
  8
0
 62
     0
 10
325.422
 20
64.958
 30
0.0
 11
325.571
 21
64.6659
 31
0.0
  0
LINE
  8
0
 62
     0
 10
325.571
 20
64.6659
 30
0.0
 11
325.804
 21
64.4331
 31
0.0
  0
LINE
  8
0
 62
     0
 10
325.804
 20
64.4331
 30
0.0
 11
326.096
 21
64.2828
 31
0.0
  0
LINE
  8
0
 62
     0
 10
326.096
 20
64.2828
 30
0.0
 11
326.421
 21
64.2317
 31
0.0
  0
LINE
  8
0
 62
     0
 10
326.421
 20
64.2317
 30
0.0
 11
326.745
 21
64.2828
 31
0.0
  0
LINE
  8
0
 62
     0
 10
326.745
 20
64.2828
 30
0.0
 11
327.039
 21
64.4331
 31
0.0
  0
LINE
  8
0
 62
     0
 10
327.039
 20
64.4331
 30
0.0
 11
327.27
 21
64.6659
 31
0.0
  0
LINE
  8
0
 62
     0
 10
327.27
 20
64.6659
 30
0.0
 11
327.419
 21
64.958
 31
0.0
  0
LINE
  8
0
 62
     0
 10
327.419
 20
64.958
 30
0.0
 11
327.472
 21
65.2819
 31
0.0
  0
LINE
  8
0
 62
     0
 10
327.472
 20
65.2819
 30
0.0
 11
327.419
 21
65.6057
 31
0.0
  0
LINE
  8
0
 62
     0
 10
327.419
 20
65.6057
 30
0.0
 11
327.27
 21
65.8992
 31
0.0
  0
LINE
  8
0
 62
     0
 10
327.27
 20
65.8992
 30
0.0
 11
327.039
 21
66.1307
 31
0.0
  0
LINE
  8
0
 62
     0
 10
327.039
 20
66.1307
 30
0.0
 11
326.745
 21
66.2809
 31
0.0
  0
LINE
  8
0
 62
     0
 10
326.745
 20
66.2809
 30
0.0
 11
326.421
 21
66.3317
 31
0.0
  0
LINE
  8
0
 62
     0
 10
326.421
 20
66.3317
 30
0.0
 11
326.096
 21
66.2809
 31
0.0
  0
LINE
  8
0
 62
     0
 10
303.369
 20
122.435
 30
0.0
 11
322.421
 21
122.435
 31
0.0
  0
LINE
  8
0
 62
     0
 10
322.421
 20
122.435
 30
0.0
 11
322.421
 21
84.3319
 31
0.0
  0
LINE
  8
0
 62
     0
 10
322.421
 20
84.3319
 30
0.0
 11
303.369
 21
84.3319
 31
0.0
  0
LINE
  8
0
 62
     0
 10
303.369
 20
84.3319
 30
0.0
 11
303.369
 21
122.435
 31
0.0
  0
LINE
  8
0
 62
     0
 10
3.77031
 20
127.433
 30
0.0
 11
3.47817
 21
127.283
 31
0.0
  0
LINE
  8
0
 62
     0
 10
3.47817
 20
127.283
 30
0.0
 11
3.24528
 21
127.05
 31
0.0
  0
LINE
  8
0
 62
     0
 10
3.24528
 20
127.05
 30
0.0
 11
3.09507
 21
126.758
 31
0.0
  0
LINE
  8
0
 62
     0
 10
3.09507
 20
126.758
 30
0.0
 11
3.04546
 21
126.432
 31
0.0
  0
LINE
  8
0
 62
     0
 10
3.04546
 20
126.432
 30
0.0
 11
3.09507
 21
126.109
 31
0.0
  0
LINE
  8
0
 62
     0
 10
3.09507
 20
126.109
 30
0.0
 11
3.24528
 21
125.815
 31
0.0
  0
LINE
  8
0
 62
     0
 10
3.24528
 20
125.815
 30
0.0
 11
3.47817
 21
125.583
 31
0.0
  0
LINE
  8
0
 62
     0
 10
3.47817
 20
125.583
 30
0.0
 11
3.77031
 21
125.435
 31
0.0
  0
LINE
  8
0
 62
     0
 10
3.77031
 20
125.435
 30
0.0
 11
4.09554
 21
125.382
 31
0.0
  0
LINE
  8
0
 62
     0
 10
4.09554
 20
125.382
 30
0.0
 11
4.41935
 21
125.435
 31
0.0
  0
LINE
  8
0
 62
     0
 10
4.41935
 20
125.435
 30
0.0
 11
4.7129
 21
125.583
 31
0.0
  0
LINE
  8
0
 62
     0
 10
4.7129
 20
125.583
 30
0.0
 11
4.94439
 21
125.815
 31
0.0
  0
LINE
  8
0
 62
     0
 10
4.94439
 20
125.815
 30
0.0
 11
5.09323
 21
126.109
 31
0.0
  0
LINE
  8
0
 62
     0
 10
5.09323
 20
126.109
 30
0.0
 11
5.14558
 21
126.432
 31
0.0
  0
LINE
  8
0
 62
     0
 10
5.14558
 20
126.432
 30
0.0
 11
5.09323
 21
126.758
 31
0.0
  0
LINE
  8
0
 62
     0
 10
5.09323
 20
126.758
 30
0.0
 11
4.94439
 21
127.05
 31
0.0
  0
LINE
  8
0
 62
     0
 10
4.94439
 20
127.05
 30
0.0
 11
4.7129
 21
127.283
 31
0.0
  0
LINE
  8
0
 62
     0
 10
4.7129
 20
127.283
 30
0.0
 11
4.41935
 21
127.433
 31
0.0
  0
LINE
  8
0
 62
     0
 10
4.41935
 20
127.433
 30
0.0
 11
4.09554
 21
127.482
 31
0.0
  0
LINE
  8
0
 62
     0
 10
4.09554
 20
127.482
 30
0.0
 11
3.77031
 21
127.433
 31
0.0
  0
LINE
  8
0
 62
     0
 10
326.096
 20
127.433
 30
0.0
 11
325.804
 21
127.283
 31
0.0
  0
LINE
  8
0
 62
     0
 10
325.804
 20
127.283
 30
0.0
 11
325.571
 21
127.05
 31
0.0
  0
LINE
  8
0
 62
     0
 10
325.571
 20
127.05
 30
0.0
 11
325.422
 21
126.758
 31
0.0
  0
LINE
  8
0
 62
     0
 10
325.422
 20
126.758
 30
0.0
 11
325.372
 21
126.432
 31
0.0
  0
LINE
  8
0
 62
     0
 10
325.372
 20
126.432
 30
0.0
 11
325.422
 21
126.109
 31
0.0
  0
LINE
  8
0
 62
     0
 10
325.422
 20
126.109
 30
0.0
 11
325.571
 21
125.815
 31
0.0
  0
LINE
  8
0
 62
     0
 10
325.571
 20
125.815
 30
0.0
 11
325.804
 21
125.583
 31
0.0
  0
LINE
  8
0
 62
     0
 10
325.804
 20
125.583
 30
0.0
 11
326.096
 21
125.435
 31
0.0
  0
LINE
  8
0
 62
     0
 10
326.096
 20
125.435
 30
0.0
 11
326.421
 21
125.382
 31
0.0
  0
LINE
  8
0
 62
     0
 10
326.421
 20
125.382
 30
0.0
 11
326.745
 21
125.435
 31
0.0
  0
LINE
  8
0
 62
     0
 10
326.745
 20
125.435
 30
0.0
 11
327.039
 21
125.583
 31
0.0
  0
LINE
  8
0
 62
     0
 10
327.039
 20
125.583
 30
0.0
 11
327.27
 21
125.815
 31
0.0
  0
LINE
  8
0
 62
     0
 10
327.27
 20
125.815
 30
0.0
 11
327.419
 21
126.109
 31
0.0
  0
LINE
  8
0
 62
     0
 10
327.419
 20
126.109
 30
0.0
 11
327.472
 21
126.432
 31
0.0
  0
LINE
  8
0
 62
     0
 10
327.472
 20
126.432
 30
0.0
 11
327.419
 21
126.758
 31
0.0
  0
LINE
  8
0
 62
     0
 10
327.419
 20
126.758
 30
0.0
 11
327.27
 21
127.05
 31
0.0
  0
LINE
  8
0
 62
     0
 10
327.27
 20
127.05
 30
0.0
 11
327.039
 21
127.283
 31
0.0
  0
LINE
  8
0
 62
     0
 10
327.039
 20
127.283
 30
0.0
 11
326.745
 21
127.433
 31
0.0
  0
LINE
  8
0
 62
     0
 10
326.745
 20
127.433
 30
0.0
 11
326.421
 21
127.482
 31
0.0
  0
LINE
  8
0
 62
     0
 10
326.421
 20
127.482
 30
0.0
 11
326.096
 21
127.433
 31
0.0
  0
LINE
  8
0
 62
     0
 10
245.515
 20
127.433
 30
0.0
 11
245.222
 21
127.283
 31
0.0
  0
LINE
  8
0
 62
     0
 10
245.222
 20
127.283
 30
0.0
 11
244.99
 21
127.05
 31
0.0
  0
LINE
  8
0
 62
     0
 10
244.99
 20
127.05
 30
0.0
 11
244.84
 21
126.758
 31
0.0
  0
LINE
  8
0
 62
     0
 10
244.84
 20
126.758
 30
0.0
 11
244.789
 21
126.432
 31
0.0
  0
LINE
  8
0
 62
     0
 10
244.789
 20
126.432
 30
0.0
 11
244.84
 21
126.109
 31
0.0
  0
LINE
  8
0
 62
     0
 10
244.84
 20
126.109
 30
0.0
 11
244.99
 21
125.815
 31
0.0
  0
LINE
  8
0
 62
     0
 10
244.99
 20
125.815
 30
0.0
 11
245.222
 21
125.583
 31
0.0
  0
LINE
  8
0
 62
     0
 10
245.222
 20
125.583
 30
0.0
 11
245.515
 21
125.435
 31
0.0
  0
LINE
  8
0
 62
     0
 10
245.515
 20
125.435
 30
0.0
 11
245.839
 21
125.382
 31
0.0
  0
LINE
  8
0
 62
     0
 10
245.839
 20
125.382
 30
0.0
 11
246.163
 21
125.435
 31
0.0
  0
LINE
  8
0
 62
     0
 10
246.163
 20
125.435
 30
0.0
 11
246.457
 21
125.583
 31
0.0
  0
LINE
  8
0
 62
     0
 10
246.457
 20
125.583
 30
0.0
 11
246.688
 21
125.815
 31
0.0
  0
LINE
  8
0
 62
     0
 10
246.688
 20
125.815
 30
0.0
 11
246.838
 21
126.109
 31
0.0
  0
LINE
  8
0
 62
     0
 10
246.838
 20
126.109
 30
0.0
 11
246.889
 21
126.432
 31
0.0
  0
LINE
  8
0
 62
     0
 10
246.889
 20
126.432
 30
0.0
 11
246.838
 21
126.758
 31
0.0
  0
LINE
  8
0
 62
     0
 10
246.838
 20
126.758
 30
0.0
 11
246.688
 21
127.05
 31
0.0
  0
LINE
  8
0
 62
     0
 10
246.688
 20
127.05
 30
0.0
 11
246.457
 21
127.283
 31
0.0
  0
LINE
  8
0
 62
     0
 10
246.457
 20
127.283
 30
0.0
 11
246.163
 21
127.433
 31
0.0
  0
LINE
  8
0
 62
     0
 10
246.163
 20
127.433
 30
0.0
 11
245.839
 21
127.482
 31
0.0
  0
LINE
  8
0
 62
     0
 10
245.839
 20
127.482
 30
0.0
 11
245.515
 21
127.433
 31
0.0
  0
LINE
  8
0
 62
     0
 10
164.933
 20
127.433
 30
0.0
 11
164.641
 21
127.283
 31
0.0
  0
LINE
  8
0
 62
     0
 10
164.641
 20
127.283
 30
0.0
 11
164.408
 21
127.05
 31
0.0
  0
LINE
  8
0
 62
     0
 10
164.408
 20
127.05
 30
0.0
 11
164.259
 21
126.758
 31
0.0
  0
LINE
  8
0
 62
     0
 10
164.259
 20
126.758
 30
0.0
 11
164.209
 21
126.432
 31
0.0
  0
LINE
  8
0
 62
     0
 10
164.209
 20
126.432
 30
0.0
 11
164.259
 21
126.109
 31
0.0
  0
LINE
  8
0
 62
     0
 10
164.259
 20
126.109
 30
0.0
 11
164.408
 21
125.815
 31
0.0
  0
LINE
  8
0
 62
     0
 10
164.408
 20
125.815
 30
0.0
 11
164.641
 21
125.583
 31
0.0
  0
LINE
  8
0
 62
     0
 10
164.641
 20
125.583
 30
0.0
 11
164.933
 21
125.435
 31
0.0
  0
LINE
  8
0
 62
     0
 10
164.933
 20
125.435
 30
0.0
 11
165.258
 21
125.382
 31
0.0
  0
LINE
  8
0
 62
     0
 10
165.258
 20
125.382
 30
0.0
 11
165.582
 21
125.435
 31
0.0
  0
LINE
  8
0
 62
     0
 10
165.582
 20
125.435
 30
0.0
 11
165.876
 21
125.583
 31
0.0
  0
LINE
  8
0
 62
     0
 10
165.876
 20
125.583
 30
0.0
 11
166.107
 21
125.815
 31
0.0
  0
LINE
  8
0
 62
     0
 10
166.107
 20
125.815
 30
0.0
 11
166.256
 21
126.109
 31
0.0
  0
LINE
  8
0
 62
     0
 10
166.256
 20
126.109
 30
0.0
 11
166.309
 21
126.432
 31
0.0
  0
LINE
  8
0
 62
     0
 10
166.309
 20
126.432
 30
0.0
 11
166.256
 21
126.758
 31
0.0
  0
LINE
  8
0
 62
     0
 10
166.256
 20
126.758
 30
0.0
 11
166.107
 21
127.05
 31
0.0
  0
LINE
  8
0
 62
     0
 10
166.107
 20
127.05
 30
0.0
 11
165.876
 21
127.283
 31
0.0
  0
LINE
  8
0
 62
     0
 10
165.876
 20
127.283
 30
0.0
 11
165.582
 21
127.433
 31
0.0
  0
LINE
  8
0
 62
     0
 10
165.582
 20
127.433
 30
0.0
 11
165.258
 21
127.482
 31
0.0
  0
LINE
  8
0
 62
     0
 10
165.258
 20
127.482
 30
0.0
 11
164.933
 21
127.433
 31
0.0
  0
LINE
  8
0
 62
     0
 10
84.3523
 20
127.433
 30
0.0
 11
84.0588
 21
127.283
 31
0.0
  0
LINE
  8
0
 62
     0
 10
84.0588
 20
127.283
 30
0.0
 11
83.8274
 21
127.05
 31
0.0
  0
LINE
  8
0
 62
     0
 10
83.8274
 20
127.05
 30
0.0
 11
83.6771
 21
126.758
 31
0.0
  0
LINE
  8
0
 62
     0
 10
83.6771
 20
126.758
 30
0.0
 11
83.6263
 21
126.432
 31
0.0
  0
LINE
  8
0
 62
     0
 10
83.6263
 20
126.432
 30
0.0
 11
83.6771
 21
126.109
 31
0.0
  0
LINE
  8
0
 62
     0
 10
83.6771
 20
126.109
 30
0.0
 11
83.8274
 21
125.815
 31
0.0
  0
LINE
  8
0
 62
     0
 10
83.8274
 20
125.815
 30
0.0
 11
84.0588
 21
125.583
 31
0.0
  0
LINE
  8
0
 62
     0
 10
84.0588
 20
125.583
 30
0.0
 11
84.3523
 21
125.435
 31
0.0
  0
LINE
  8
0
 62
     0
 10
84.3523
 20
125.435
 30
0.0
 11
84.6762
 21
125.382
 31
0.0
  0
LINE
  8
0
 62
     0
 10
84.6762
 20
125.382
 30
0.0
 11
85
 21
125.435
 31
0.0
  0
LINE
  8
0
 62
     0
 10
85
 20
125.435
 30
0.0
 11
85.2936
 21
125.583
 31
0.0
  0
LINE
  8
0
 62
     0
 10
85.2936
 20
125.583
 30
0.0
 11
85.5253
 21
125.815
 31
0.0
  0
LINE
  8
0
 62
     0
 10
85.5253
 20
125.815
 30
0.0
 11
85.6753
 21
126.109
 31
0.0
  0
LINE
  8
0
 62
     0
 10
85.6753
 20
126.109
 30
0.0
 11
85.7264
 21
126.432
 31
0.0
  0
LINE
  8
0
 62
     0
 10
85.7264
 20
126.432
 30
0.0
 11
85.6753
 21
126.758
 31
0.0
  0
LINE
  8
0
 62
     0
 10
85.6753
 20
126.758
 30
0.0
 11
85.5253
 21
127.05
 31
0.0
  0
LINE
  8
0
 62
     0
 10
85.5253
 20
127.05
 30
0.0
 11
85.2936
 21
127.283
 31
0.0
  0
LINE
  8
0
 62
     0
 10
85.2936
 20
127.283
 30
0.0
 11
85
 21
127.433
 31
0.0
  0
LINE
  8
0
 62
     0
 10
85
 20
127.433
 30
0.0
 11
84.6762
 21
127.482
 31
0.0
  0
LINE
  8
0
 62
     0
 10
84.6762
 20
127.482
 30
0.0
 11
84.3523
 21
127.433
 31
0.0
  0
ENDSEC
  0
EOF
