M48
METRIC,LZ,000.000
;FILE_FORMAT=3:3
;TYPE=NON_PLATED
;Layer: Drill NPTH
;EasyEDA v6.4.25, 2022-01-20T16:11:06+08:00
;bfaf2d4f65d64c88941de24b5d45c2ce,3b57db4a37c74da5bb1b5bc11455ab19,10
;Gerber Generator version 0.2
;Holesize 1 = 0.751 mm
T01C0.751
;Holesize 2 = 1.600 mm
T02C1.600
;Holesize 3 = 2.301 mm
T03C2.301
;Holesize 4 = 3.200 mm
T04C3.200
;Holesize 5 = 4.000 mm
T05C4.000
;Holesize 6 = 12.000 mm
T06C12.000
%
G05
G90
T01
X-073110Y023423
X-078890Y023423
T02
X-009700Y002700
X009700Y002700
T03
X006000Y-003500
X-006000Y-003500
X-010000Y021000
X010000Y021000
X-015000Y024500
X015000Y024500
X-015000Y009500
X-015000Y-005500
X015000Y-005500
X015000Y009500
X095000Y-009500
X076000Y009500
X057000Y-009500
X038000Y009500
X-095000Y-009500
X-076000Y009500
X-057000Y-009500
X-038000Y009500
T04
X-009750Y009500
X009750Y009500
X-010650Y-000050
X010650Y-000050
X010650Y005650
X-010650Y005650
T05
X-104500Y019000
X-085500Y019000
X-066500Y019000
X-047500Y019000
X-028500Y019000
X028500Y019000
X047500Y019000
X066500Y019000
X085500Y019000
X104500Y019000
X-104500Y000000
X-085500Y000000
X-066500Y000000
X-047500Y000000
X-028500Y000000
X028500Y000000
X047500Y000000
X066500Y000000
X085500Y000000
X104500Y000000
X-104500Y-019000
X-085500Y-019000
X-066500Y-019000
X-047500Y-019000
X-028500Y-019000
X-009500Y-019000
X009500Y-019000
X028500Y-019000
X047500Y-019000
X066500Y-019000
X085500Y-019000
X104500Y-019000
X-005250Y014750
X005250Y014750
X-005250Y004250
X005250Y004250
T06
X000000Y009500
M30
