M48
METRIC,LZ,000.000
;FILE_FORMAT=3:3
;TYPE=PLATED
;Layer: Drill PTH
;EasyEDA v6.4.25, 2022-01-20T16:11:06+08:00
;bfaf2d4f65d64c88941de24b5d45c2ce,3b57db4a37c74da5bb1b5bc11455ab19,10
;Gerber Generator version 0.2
;Holesize 1 = 0.305 mm
T01C0.305
;Holesize 2 = 0.800 mm
T02C0.800
;Holesize 3 = 1.499 mm
T03C1.499
;Holesize 4 = 1.501 mm
T04C1.501
%
G05
G90
T01
X-076835Y023749
X-075946Y023749
X-075057Y023749
X-098603Y013335
X-079680Y013335
X-058039Y025019
X-041910Y021260
X-022860Y021260
X034163Y021260
X053213Y021260
X072136Y021260
X091186Y021260
X110236Y021260
X110312Y-005588
X091262Y-005461
X072339Y-005461
X053289Y-005588
X034366Y-005588
X-022530Y-005715
X-041580Y-005715
X-060503Y-005715
X-079680Y-005715
X-098730Y-005588
X-098933Y-013132
X-080010Y-013132
X-060960Y-013132
X-041910Y-013132
X-022987Y-013132
X-018034Y-013132
X014986Y-013132
X034036Y-013132
X052959Y-013132
X072009Y-013132
X090932Y-013132
X109982Y-013132
X-066864Y004191
X-065405Y006477
X-057277Y017780
X-060641Y013843
X-053810Y027305
X-095885Y-023052
X-011083Y-026670
X-001050Y-026670
X008983Y-026670
X-020447Y-022228
X-019050Y-022228
X-017653Y-022228
X-024580Y-026794
X024580Y-025498
X-032890Y001143
X-032890Y004103
X-034533Y027305
X-034355Y002667
X-029845Y008255
X-018288Y012954
X-018923Y012319
X-019558Y011684
X-020193Y011049
X-036703Y004191
X-045720Y014351
X-051689Y011430
X-052959Y012954
X-056388Y012700
X-053467Y013716
X-052324Y012192
X-044704Y010287
X-044704Y009398
X-044704Y008509
X-044704Y007620
X-046482Y004953
X-044704Y005842
X-044704Y004953
X-044704Y004064
X-051054Y010668
X-060833Y001524
X-072517Y012573
X-105664Y023619
X-060706Y010541
X-066863Y009101
X-061976Y025019
X-085598Y004572
X-069850Y009271
X-069850Y010541
X-069850Y011684
X-069850Y008128
X-053278Y-001397
X-053340Y-003429
X-105664Y025080
X-083820Y022860
X-081280Y020320
X-088900Y022860
X-088900Y017780
X-091440Y020320
X-093980Y022860
X-093980Y017780
X-091440Y015240
X-093980Y012700
X-096520Y015240
X-096520Y020320
X-099060Y022860
X-099187Y017780
X-101600Y020320
X-104140Y022860
X-111760Y025400
X-109220Y027305
X-099060Y027305
X-093980Y027305
X-088900Y027305
X-083820Y027305
X-086360Y015240
X-086360Y010160
X-091440Y010160
X-093980Y007620
X-088900Y007620
X-083820Y007620
X-078740Y007620
X-073660Y002540
X-071120Y000000
X-073660Y-002540
X-071120Y-005080
X-076200Y-005080
X-076200Y000000
X-071120Y005080
X-067945Y002540
X-063500Y004064
X-062611Y010160
X-064643Y011684
X-071120Y015240
X-066040Y025908
X-069469Y023876
X-060960Y025908
X-066040Y015240
X-063500Y017780
X-060960Y020320
X-055880Y020320
X-055880Y025400
X-050800Y025400
X-048260Y022860
X-043180Y017780
X-043815Y012700
X-047752Y012700
X-046101Y010160
X-048260Y003810
X-050800Y000000
X-050800Y-002540
X-052070Y002540
X-071120Y-010160
X-076200Y-010160
X-081280Y-010160
X-076200Y-015240
X-076200Y-020320
X-071120Y-020320
X-073660Y-017780
X-073660Y-012700
X-066040Y-010160
X-068580Y-012700
X-066040Y-015240
X-063500Y-017780
X-060960Y-020320
X-063500Y-022860
X-068580Y-022860
X-073660Y-022860
X-078740Y-022860
X-081280Y-020320
X-083820Y-022860
X-086360Y-015240
X-091440Y-020320
X-091440Y-015240
X-088900Y-012700
X-086360Y-010160
X-093980Y-012700
X-096520Y-015240
X-093980Y-017780
X-096520Y-020320
X-101600Y-020320
X-107315Y-020320
X-112522Y-020320
X-112522Y-025400
X-106680Y-025400
X-101600Y-025400
X-096520Y-026797
X-091440Y-026924
X-082677Y-026797
X-074041Y-026797
X-065278Y-026797
X-056769Y-026797
X-047752Y-026797
X-038989Y-026797
X-030480Y-026797
X-020320Y-026797
X-022225Y-025400
X-022352Y-022860
X017780Y-026416
X022225Y-026797
X031115Y-026797
X039878Y-026797
X048768Y-026797
X057404Y-026797
X066167Y-026797
X074930Y-026797
X083820Y-026797
X-112522Y-015240
X-112522Y-010160
X-112522Y-005080
X-112522Y000000
X-112522Y005080
X-112522Y010160
X-112522Y015240
X-112522Y020320
X-096520Y010160
X-101600Y010160
X-106680Y010160
X-104140Y007620
X-106680Y005080
X-109220Y007620
X-109220Y002540
X-109220Y-002540
X-109220Y-007620
X-106680Y-010160
X-104140Y-007620
X-109220Y-012700
X-099060Y-007620
X-096520Y-005080
X-093980Y-002540
X-093980Y002540
X-096520Y000000
X-099060Y002540
X-101600Y005080
X-099060Y007620
X-096520Y005080
X-091440Y005080
X-088900Y002540
X-088900Y-002540
X-083820Y-002540
X-083820Y002540
X-078740Y002540
X-078740Y-002540
X-058420Y-022860
X-058420Y-017780
X-058420Y-012700
X-055880Y-015240
X-055880Y-020320
X-053340Y-022860
X-050800Y-020320
X-050800Y-010160
X-040640Y-020320
X-038100Y-017780
X-040640Y-015240
X-038100Y-012700
X-035560Y-020320
X-035560Y-015240
X-035560Y-010160
X-040640Y-010160
X-030480Y-010160
X-033020Y-012700
X-025400Y-020320
X-020320Y-015240
X-020320Y-010160
X-015240Y-010160
X-015240Y-013843
X-015240Y-020320
X-011176Y-015240
X-011176Y-012700
X-010160Y-010160
X-005080Y-010160
X-002540Y-012700
X005080Y-010160
X010160Y-010160
X-005080Y-020320
X000000Y-020320
X-002540Y-022860
X-007620Y-022860
X002540Y-022860
X005080Y-020320
X007620Y-022860
X012700Y-022860
X012700Y-017780
X017780Y-017780
X017780Y-022860
X020320Y-020320
X020320Y-015240
X017780Y-012700
X015240Y-010160
X020320Y-010160
X022860Y-012700
X022860Y-017780
X022860Y-022860
X025400Y-020320
X027940Y-022860
X033020Y-022860
X035560Y-020320
X038100Y-017780
X038100Y-022860
X035560Y-015240
X038100Y-012700
X035560Y-010160
X025400Y-010160
X040640Y-010160
X040640Y-015240
X040640Y-020320
X043180Y-022860
X048260Y-022860
X043180Y-012700
X045720Y-010160
X050800Y-020320
X053340Y-022860
X055880Y-020320
X058420Y-022860
X055880Y-015240
X058420Y-012700
X058420Y-017780
X060960Y-020320
X063500Y-022860
X068580Y-022860
X060960Y-010160
X066040Y-010160
X071120Y-010160
X063500Y-012700
X076200Y-010160
X076200Y-015240
X076200Y-020320
X073660Y-022860
X071120Y-020320
X078740Y-022860
X081280Y-020320
X078740Y-017780
X078740Y-012700
X081280Y-010160
X086360Y-010160
X083820Y-012700
X086360Y-015240
X088900Y-017780
X091440Y-020320
X088900Y-022860
X083820Y-022860
X091440Y-025400
X093980Y-022860
X096520Y-025400
X096520Y-020320
X093980Y-017780
X093980Y-012700
X091440Y-010160
X096520Y-015240
X099060Y-012700
X099060Y-022860
X101600Y-025400
X104140Y-022860
X106680Y-025400
X109220Y-022860
X101600Y-010160
X111760Y-010160
X111760Y-020320
X111760Y-025400
X111760Y-015240
X111760Y-005080
X111760Y000000
X109220Y002540
X106680Y005080
X101600Y005080
X101600Y000000
X099060Y002540
X104140Y007620
X099060Y-002540
X096520Y-005080
X093980Y-002540
X096520Y000000
X093980Y002540
X096520Y005080
X099060Y007620
X101600Y010160
X106680Y010160
X109220Y007620
X111760Y005080
X111760Y010160
X111760Y015240
X109220Y012700
X106680Y015240
X104140Y012700
X109220Y017780
X104140Y022860
X104140Y027559
X109220Y027559
X099060Y027559
X101600Y025400
X096520Y025400
X096520Y020320
X096520Y015240
X099060Y017780
X099060Y012700
X096520Y010160
X091440Y010160
X093980Y007620
X091440Y005080
X091440Y000000
X093980Y017780
X093980Y022860
X088900Y017780
X088900Y012700
X093980Y012700
X083820Y012700
X086360Y010160
X083820Y022860
X093980Y027559
X088900Y027559
X083820Y027559
X078740Y027559
X073660Y027559
X068580Y027559
X063500Y027559
X058420Y027559
X053340Y027559
X048260Y027559
X043180Y027559
X038100Y027559
X033020Y027559
X027940Y027559
X022860Y027559
X017780Y027559
X012700Y027559
X007620Y027559
X002540Y027559
X-002540Y027559
X-007620Y027559
X-012700Y027559
X-017780Y027559
X-022860Y027559
X-027940Y027559
X-033020Y027559
X081280Y025400
X078740Y022860
X076200Y020320
X076200Y025400
X073660Y017780
X066040Y025400
X060960Y025400
X055880Y025400
X058420Y022860
X055880Y020320
X053340Y017780
X050800Y020320
X048260Y022860
X045720Y025400
X040640Y025400
X038100Y022860
X038100Y017780
X040640Y020320
X025400Y025400
X027940Y022860
X022860Y017780
X022860Y022860
X020320Y025400
X017780Y022860
X020320Y020320
X017780Y017780
X015240Y020193
X012700Y017780
X007620Y022860
X-007620Y022860
X-012700Y022860
X-015240Y020320
X-017780Y022860
X-020320Y020320
X-022860Y017780
X-020320Y025400
X-027940Y022860
X-030480Y025400
X-035560Y025400
X-038100Y022860
X-035560Y017780
X-036703Y016383
X-029845Y010033
X-027940Y010160
X-025908Y008128
X-038100Y-002540
X-033020Y-002540
X-035560Y-005080
X-035560Y000000
X-040640Y000000
X-020320Y-005080
X-020320Y000000
X-022860Y002540
X-022860Y007620
X-017780Y-002540
X-012700Y002540
X-015240Y005080
X-012700Y007620
X-012700Y012700
X-015240Y015240
X-010160Y015240
X017780Y-002540
X020320Y-005080
X020320Y000000
X022860Y002540
X025400Y000000
X022860Y-002540
X025400Y005080
X033020Y002540
X038100Y002540
X035560Y005080
X035560Y000000
X038100Y-002540
X040640Y-005080
X040640Y000000
X040640Y005080
X043180Y007620
X040640Y010160
X038100Y012700
X017780Y012700
X017780Y007620
X020320Y010160
X022860Y012700
X015240Y005080
X012700Y012700
X012700Y007620
X012700Y002540
X050800Y010160
X048260Y012700
X045720Y005080
X043180Y002540
X043180Y-002540
X053340Y002540
X053340Y007620
X055880Y005080
X055880Y000000
X055880Y-005080
X058420Y-002540
X058420Y002540
X058420Y007620
X055880Y010160
X058420Y012700
X053467Y012700
X060960Y010160
X063500Y007620
X060960Y005080
X063500Y002540
X060960Y000000
X063500Y-002540
X060960Y-005080
X066040Y005080
X071120Y010160
X068707Y012700
X073660Y012700
X073660Y007620
X073660Y002540
X073660Y-002540
X076200Y-005080
X076200Y000000
X076200Y005080
X078740Y007620
X081280Y005080
X078740Y002540
X081280Y000000
X078740Y-002540
X081280Y010160
X078740Y012700
X083820Y007620
X086360Y004953
X083820Y002540
X083820Y-002540
T02
X-055523Y008358
X-055523Y005358
X-058523Y005358
X-058523Y008358
X-080320Y027373G85X-080320Y026774
X-071680Y027373G85X-071680Y026774
X-071680Y023293G85X-071680Y022493
X-080320Y023293G85X-080320Y022493
T03
X-107040Y013920
X-100690Y016460
X-088040Y013920
X-081690Y016460
X-061420Y016460
X-063960Y022810
X-044960Y024080
X-051310Y021540
X-025960Y024080
X-032310Y021540
X031040Y024080
X024690Y021540
X050040Y024080
X043690Y021540
X069040Y024080
X062690Y021540
X088040Y024080
X081690Y021540
X107040Y024080
X100690Y021540
X-107040Y-005080
X-100690Y-002540
X-088040Y-005080
X-081690Y-002540
X-069040Y-005080
X-062690Y-002540
X-050040Y-005080
X-043690Y-002540
X-031040Y-005080
X-024690Y-002540
X025960Y-005080
X032310Y-002540
X044960Y-005080
X051310Y-002540
X063960Y-005080
X070310Y-002540
X082960Y-005080
X089310Y-002540
X101960Y-005080
X108310Y-002540
X-101960Y-013920
X-108310Y-016460
X-082960Y-013920
X-089310Y-016460
X-063960Y-013920
X-070310Y-016460
X-044960Y-013920
X-051310Y-016460
X-025960Y-013920
X-032310Y-016460
X-014580Y-016460
X-012040Y-022810
X014580Y-021540
X012040Y-015190
X031040Y-013920
X024690Y-016460
X050040Y-013920
X043690Y-016460
X069040Y-013920
X062690Y-016460
X088040Y-013920
X081690Y-016460
X107040Y-013920
X100690Y-016460
T04
X-057023Y006858
X-102309Y028500
X-105602Y028500
M30
