G04 Layer: BottomSilkLayer*
G04 EasyEDA v6.4.25, 2022-01-20T16:11:06+08:00*
G04 bfaf2d4f65d64c88941de24b5d45c2ce,3b57db4a37c74da5bb1b5bc11455ab19,10*
G04 Gerber Generator version 0.2*
G04 Scale: 100 percent, Rotated: No, Reflected: No *
G04 Dimensions in millimeters *
G04 leading zeros omitted , absolute positions ,4 integer and 5 decimal *
%FSLAX45Y45*%
%MOMM*%

%ADD10C,0.2540*%
%ADD11C,0.1524*%
%ADD35C,0.2032*%
%ADD36C,0.1290*%
%ADD37C,0.2000*%

%LPD*%
G36*
X2355596Y1327150D02*
G01*
X2353818Y1319682D01*
X2343912Y1285494D01*
X2290826Y1285494D01*
X2290826Y1321054D01*
X2283460Y1323086D01*
X2283460Y1285494D01*
X2224786Y1285494D01*
X2227834Y1256792D01*
X2230323Y1257604D01*
X2232304Y1259281D01*
X2233777Y1262126D01*
X2234692Y1266190D01*
X2283460Y1266190D01*
X2283460Y1257808D01*
X2266950Y1246124D01*
X2280107Y1232001D01*
X2286762Y1225550D01*
X2288590Y1226312D01*
X2289860Y1227734D01*
X2290572Y1229715D01*
X2290826Y1232154D01*
X2290826Y1266190D01*
X2338070Y1266190D01*
X2325624Y1227328D01*
X2329180Y1226058D01*
X2339238Y1244142D01*
X2351024Y1266190D01*
X2431542Y1266190D01*
X2437028Y1266393D01*
X2441905Y1267053D01*
X2446223Y1268425D01*
X2449880Y1270762D01*
X2452928Y1274216D01*
X2455367Y1279042D01*
X2457196Y1285443D01*
X2458466Y1293622D01*
X2453995Y1294282D01*
X2450084Y1295196D01*
X2446731Y1296619D01*
X2443988Y1298702D01*
X2441752Y1301800D01*
X2439873Y1305915D01*
X2438400Y1311300D01*
X2437130Y1318260D01*
X2433066Y1318260D01*
X2434590Y1290828D01*
X2434386Y1288288D01*
X2433624Y1286611D01*
X2432253Y1285748D01*
X2430018Y1285494D01*
X2361184Y1285494D01*
X2374392Y1311910D01*
X2376474Y1312875D01*
X2378354Y1314246D01*
X2379929Y1315923D01*
X2380996Y1317752D01*
G37*
G36*
X2225802Y1218946D02*
G01*
X2228596Y1192022D01*
X2230729Y1192733D01*
X2232507Y1194257D01*
X2233828Y1196594D01*
X2234692Y1199896D01*
X2275586Y1199896D01*
X2269693Y1185214D01*
X2263140Y1170686D01*
X2256180Y1156817D01*
X2249068Y1144016D01*
X2245563Y1138123D01*
X2238705Y1127810D01*
X2235454Y1123442D01*
X2253742Y1099566D01*
X2255113Y1101648D01*
X2255723Y1104595D01*
X2255469Y1108354D01*
X2254250Y1113028D01*
X2258009Y1121562D01*
X2261819Y1131011D01*
X2265629Y1141272D01*
X2272842Y1163624D01*
X2276094Y1175512D01*
X2279091Y1187653D01*
X2281682Y1199896D01*
X2301494Y1199896D01*
X2304186Y1199438D01*
X2305913Y1197559D01*
X2306828Y1193342D01*
X2307082Y1185926D01*
X2307031Y1129588D01*
X2306574Y1117346D01*
X2306320Y1114856D01*
X2305862Y1112926D01*
X2305050Y1111453D01*
X2303780Y1110234D01*
X2300122Y1108405D01*
X2294585Y1106271D01*
X2279142Y1101598D01*
X2279142Y1098550D01*
X2304288Y1097788D01*
X2305862Y1093673D01*
X2307691Y1090980D01*
X2309825Y1089558D01*
X2312416Y1089152D01*
X2314651Y1089355D01*
X2316581Y1090117D01*
X2318308Y1091488D01*
X2319731Y1093571D01*
X2321001Y1096568D01*
X2322017Y1100480D01*
X2322880Y1105509D01*
X2323541Y1111707D01*
X2324049Y1119276D01*
X2324557Y1138732D01*
X2324608Y1188212D01*
X2324404Y1196746D01*
X2323795Y1203604D01*
X2322677Y1208989D01*
X2320848Y1213002D01*
X2318308Y1215847D01*
X2314956Y1217676D01*
X2310638Y1218641D01*
X2305304Y1218946D01*
G37*
G36*
X2339340Y1217676D02*
G01*
X2348171Y1197864D01*
X2432558Y1197864D01*
X2432558Y1124966D01*
X2397506Y1124966D01*
X2397506Y1197864D01*
X2390140Y1197864D01*
X2390140Y1124966D01*
X2356104Y1124966D01*
X2356104Y1197864D01*
X2348171Y1197864D01*
X2348738Y1196594D01*
X2348738Y1127506D01*
X2337308Y1117092D01*
X2354326Y1094232D01*
X2355850Y1095959D01*
X2357374Y1098346D01*
X2358694Y1101445D01*
X2359660Y1105154D01*
X2451100Y1105154D01*
X2452827Y1106932D01*
X2454808Y1111097D01*
X2456484Y1116431D01*
X2457196Y1121664D01*
X2457196Y1124966D01*
X2439924Y1124966D01*
X2439924Y1197864D01*
X2452624Y1197864D01*
X2454402Y1199286D01*
X2456586Y1203096D01*
X2458466Y1208481D01*
X2459228Y1214628D01*
X2459228Y1217676D01*
G37*
G36*
X2448052Y1068882D02*
G01*
X2443886Y1067460D01*
X2440381Y1064463D01*
X2437638Y1060450D01*
X2435199Y1055319D01*
X2431897Y1050340D01*
X2427782Y1045667D01*
X2422956Y1041450D01*
X2417368Y1037844D01*
X2411171Y1035050D01*
X2404364Y1033221D01*
X2396998Y1032510D01*
X2396998Y1028192D01*
X2404922Y1026515D01*
X2412238Y1025702D01*
X2419045Y1025652D01*
X2425293Y1026363D01*
X2430983Y1027633D01*
X2436164Y1029512D01*
X2440736Y1031798D01*
X2444800Y1034440D01*
X2448306Y1037386D01*
X2451303Y1040485D01*
X2453741Y1043736D01*
X2455672Y1046987D01*
X2458110Y1053439D01*
X2458516Y1059738D01*
X2456738Y1064971D01*
X2452624Y1068324D01*
G37*
G36*
X2298954Y1031240D02*
G01*
X2307696Y1010919D01*
X2368550Y1010919D01*
X2368550Y893318D01*
X2315718Y893318D01*
X2315718Y1010919D01*
X2307696Y1010919D01*
X2308352Y1009396D01*
X2308352Y965962D01*
X2224024Y965962D01*
X2227072Y934974D01*
X2229713Y935786D01*
X2231948Y937564D01*
X2233625Y940511D01*
X2234692Y944880D01*
X2264156Y944880D01*
X2264156Y884174D01*
X2246884Y870712D01*
X2260701Y854100D01*
X2267712Y846328D01*
X2269540Y847242D01*
X2270810Y848715D01*
X2271522Y850696D01*
X2271776Y853186D01*
X2271776Y944880D01*
X2308352Y944880D01*
X2308352Y895858D01*
X2296668Y885444D01*
X2314194Y862076D01*
X2315718Y863752D01*
X2317242Y866038D01*
X2318562Y868984D01*
X2319528Y872490D01*
X2383536Y872490D01*
X2385263Y874369D01*
X2387396Y878789D01*
X2389124Y884428D01*
X2389886Y890016D01*
X2389886Y893318D01*
X2375662Y893318D01*
X2375662Y1010919D01*
X2385060Y1010919D01*
X2386990Y1012444D01*
X2389225Y1016406D01*
X2391156Y1021943D01*
X2391918Y1028192D01*
X2391918Y1031240D01*
G37*
G36*
X2399284Y992632D02*
G01*
X2398268Y989330D01*
X2403348Y983437D01*
X2408478Y978509D01*
X2413558Y974496D01*
X2418537Y971296D01*
X2423414Y968857D01*
X2428138Y967181D01*
X2432608Y966114D01*
X2436825Y965708D01*
X2440787Y965809D01*
X2444343Y966419D01*
X2447493Y967486D01*
X2450236Y968959D01*
X2452471Y970686D01*
X2454198Y972769D01*
X2455316Y975004D01*
X2455824Y977442D01*
X2455621Y979932D01*
X2454706Y982522D01*
X2453081Y985062D01*
X2450592Y987552D01*
X2444140Y986840D01*
X2437485Y986688D01*
X2430729Y986891D01*
X2423972Y987501D01*
X2410968Y989634D01*
X2404872Y991057D01*
G37*
G36*
X2399030Y946658D02*
G01*
X2397252Y943610D01*
X2401519Y935431D01*
X2405938Y928319D01*
X2410510Y922223D01*
X2415082Y917143D01*
X2419705Y912977D01*
X2424277Y909675D01*
X2428697Y907135D01*
X2433015Y905408D01*
X2437079Y904341D01*
X2440889Y903935D01*
X2444343Y904138D01*
X2447391Y904849D01*
X2450033Y906018D01*
X2452166Y907592D01*
X2453741Y909574D01*
X2454706Y911809D01*
X2455011Y914349D01*
X2454605Y917041D01*
X2453386Y919886D01*
X2451354Y922782D01*
X2444699Y923950D01*
X2437841Y925931D01*
X2430830Y928573D01*
X2423871Y931671D01*
X2417064Y935177D01*
X2410561Y938936D01*
X2404516Y942797D01*
G37*
G36*
X2398522Y895350D02*
G01*
X2396236Y892810D01*
X2399538Y883970D01*
X2403043Y875995D01*
X2406700Y868883D01*
X2410510Y862634D01*
X2414422Y857097D01*
X2418384Y852373D01*
X2422347Y848309D01*
X2426309Y844956D01*
X2430221Y842213D01*
X2434031Y840130D01*
X2437688Y838606D01*
X2441194Y837590D01*
X2444496Y837082D01*
X2447493Y837082D01*
X2450236Y837488D01*
X2452674Y838301D01*
X2454757Y839469D01*
X2456383Y840994D01*
X2457602Y842771D01*
X2458313Y844854D01*
X2458516Y847140D01*
X2458212Y849579D01*
X2457246Y852220D01*
X2455672Y854964D01*
X2450693Y856538D01*
X2445613Y858621D01*
X2440432Y861212D01*
X2435250Y864209D01*
X2430119Y867511D01*
X2420010Y874979D01*
X2410612Y883107D01*
X2402230Y891336D01*
G37*
G36*
X2398268Y818134D02*
G01*
X2389124Y812393D01*
X2379472Y807008D01*
X2369362Y801979D01*
X2358898Y797356D01*
X2348077Y793089D01*
X2337003Y789228D01*
X2325776Y785672D01*
X2314397Y782523D01*
X2302967Y779678D01*
X2291588Y777240D01*
X2291588Y810514D01*
X2284222Y812292D01*
X2284222Y773176D01*
X2225040Y773176D01*
X2228088Y743966D01*
X2230678Y744829D01*
X2232710Y746455D01*
X2234184Y749198D01*
X2235200Y753364D01*
X2284222Y753364D01*
X2284222Y742442D01*
X2268220Y730504D01*
X2281072Y715518D01*
X2287524Y708660D01*
X2289352Y709472D01*
X2290622Y710793D01*
X2291334Y712622D01*
X2291588Y715010D01*
X2291588Y753364D01*
X2322830Y753364D01*
X2326081Y745388D01*
X2329535Y738479D01*
X2333091Y732536D01*
X2336800Y727557D01*
X2340508Y723493D01*
X2344216Y720293D01*
X2347874Y717854D01*
X2351430Y716127D01*
X2354834Y715111D01*
X2357983Y714705D01*
X2360879Y714857D01*
X2363470Y715518D01*
X2365654Y716635D01*
X2367432Y718210D01*
X2368753Y720090D01*
X2369515Y722274D01*
X2369667Y724662D01*
X2369261Y727252D01*
X2368143Y729996D01*
X2366264Y732790D01*
X2361488Y733958D01*
X2356510Y735736D01*
X2351481Y737971D01*
X2346401Y740613D01*
X2341372Y743559D01*
X2331923Y750011D01*
X2327656Y753364D01*
X2451862Y753364D01*
X2453843Y754735D01*
X2456027Y758393D01*
X2457754Y763422D01*
X2458466Y769112D01*
X2458466Y773176D01*
X2342896Y773176D01*
X2353614Y778764D01*
X2363978Y784910D01*
X2373884Y791565D01*
X2383383Y798779D01*
X2392426Y806450D01*
X2401062Y814578D01*
G37*
G36*
X2327656Y723646D02*
G01*
X2327656Y663448D01*
X2254250Y663448D01*
X2254250Y715772D01*
X2246884Y717804D01*
X2246884Y619760D01*
X2230374Y607314D01*
X2237232Y598982D01*
X2250186Y584200D01*
X2252014Y585063D01*
X2253284Y586435D01*
X2253996Y588365D01*
X2254250Y590804D01*
X2254250Y642366D01*
X2327656Y642366D01*
X2327656Y613410D01*
X2310384Y600964D01*
X2324201Y585114D01*
X2330958Y578104D01*
X2332786Y578866D01*
X2334056Y580288D01*
X2334768Y582269D01*
X2335022Y584708D01*
X2335022Y642366D01*
X2451862Y642366D01*
X2453690Y643737D01*
X2455976Y647242D01*
X2457907Y652780D01*
X2458720Y660146D01*
X2458720Y663448D01*
X2335022Y663448D01*
X2335022Y721614D01*
G37*
D11*
X-7709362Y1429905D02*
G01*
X-7714556Y1429905D01*
X-7724947Y1424708D01*
X-7730144Y1419514D01*
X-7735338Y1409123D01*
X-7735338Y1388341D01*
X-7730144Y1377950D01*
X-7724947Y1372755D01*
X-7714556Y1367558D01*
X-7704165Y1367558D01*
X-7693774Y1372755D01*
X-7678188Y1383144D01*
X-7626235Y1435100D01*
X-7626235Y1362364D01*
X-7709362Y1322877D02*
G01*
X-7714556Y1322877D01*
X-7724947Y1317683D01*
X-7730144Y1312486D01*
X-7735338Y1302095D01*
X-7735338Y1281315D01*
X-7730144Y1270924D01*
X-7724947Y1265727D01*
X-7714556Y1260533D01*
X-7704165Y1260533D01*
X-7693774Y1265727D01*
X-7678188Y1276118D01*
X-7626235Y1328074D01*
X-7626235Y1255336D01*
X-7698971Y1221046D02*
G01*
X-7626235Y1221046D01*
X-7667797Y1221046D02*
G01*
X-7683385Y1215852D01*
X-7693774Y1205461D01*
X-7698971Y1195070D01*
X-7698971Y1179484D01*
X-7569662Y1429905D02*
G01*
X-7574856Y1429905D01*
X-7585247Y1424708D01*
X-7590444Y1419514D01*
X-7595638Y1409123D01*
X-7595638Y1388341D01*
X-7590444Y1377950D01*
X-7585247Y1372755D01*
X-7574856Y1367558D01*
X-7564465Y1367558D01*
X-7554074Y1372755D01*
X-7538488Y1383144D01*
X-7486535Y1435100D01*
X-7486535Y1362364D01*
X-7569662Y1322877D02*
G01*
X-7574856Y1322877D01*
X-7585247Y1317683D01*
X-7590444Y1312486D01*
X-7595638Y1302095D01*
X-7595638Y1281315D01*
X-7590444Y1270924D01*
X-7585247Y1265727D01*
X-7574856Y1260533D01*
X-7564465Y1260533D01*
X-7554074Y1265727D01*
X-7538488Y1276118D01*
X-7486535Y1328074D01*
X-7486535Y1255336D01*
X-7559271Y1221046D02*
G01*
X-7486535Y1221046D01*
X-7528097Y1221046D02*
G01*
X-7543685Y1215852D01*
X-7554074Y1205461D01*
X-7559271Y1195070D01*
X-7559271Y1179484D01*
X-7455938Y1372755D02*
G01*
X-7455938Y1424708D01*
X-7409179Y1429905D01*
X-7414374Y1424708D01*
X-7419571Y1409123D01*
X-7419571Y1393535D01*
X-7414374Y1377950D01*
X-7403985Y1367558D01*
X-7388397Y1362364D01*
X-7378006Y1362364D01*
X-7362421Y1367558D01*
X-7352029Y1377950D01*
X-7346835Y1393535D01*
X-7346835Y1409123D01*
X-7352029Y1424708D01*
X-7357224Y1429905D01*
X-7367615Y1435100D01*
X-7455938Y1328074D02*
G01*
X-7346835Y1328074D01*
X-7419571Y1276118D02*
G01*
X-7367615Y1328074D01*
X-7388397Y1307292D02*
G01*
X-7346835Y1270924D01*
X-7435156Y1236634D02*
G01*
X-7440353Y1226243D01*
X-7455938Y1210655D01*
X-7346835Y1210655D01*
X-7875038Y1372755D02*
G01*
X-7875038Y1424708D01*
X-7828279Y1429905D01*
X-7833474Y1424708D01*
X-7838671Y1409123D01*
X-7838671Y1393535D01*
X-7833474Y1377950D01*
X-7823085Y1367558D01*
X-7807497Y1362364D01*
X-7797106Y1362364D01*
X-7781521Y1367558D01*
X-7771129Y1377950D01*
X-7765935Y1393535D01*
X-7765935Y1409123D01*
X-7771129Y1424708D01*
X-7776324Y1429905D01*
X-7786715Y1435100D01*
X-7875038Y1328074D02*
G01*
X-7765935Y1328074D01*
X-7838671Y1276118D02*
G01*
X-7786715Y1328074D01*
X-7807497Y1307292D02*
G01*
X-7765935Y1270924D01*
X-7854256Y1236634D02*
G01*
X-7859453Y1226243D01*
X-7875038Y1210655D01*
X-7765935Y1210655D01*
X-10762556Y2552700D02*
G01*
X-10767753Y2542308D01*
X-10783338Y2526723D01*
X-10674235Y2526723D01*
X-10783338Y2461260D02*
G01*
X-10778144Y2476845D01*
X-10762556Y2487236D01*
X-10736579Y2492433D01*
X-10720994Y2492433D01*
X-10695015Y2487236D01*
X-10679429Y2476845D01*
X-10674235Y2461260D01*
X-10674235Y2450868D01*
X-10679429Y2435283D01*
X-10695015Y2424892D01*
X-10720994Y2419695D01*
X-10736579Y2419695D01*
X-10762556Y2424892D01*
X-10778144Y2435283D01*
X-10783338Y2450868D01*
X-10783338Y2461260D01*
X-10783338Y2385405D02*
G01*
X-10674235Y2385405D01*
X-10746971Y2333452D02*
G01*
X-10695015Y2385405D01*
X-10715797Y2364625D02*
G01*
X-10674235Y2328255D01*
X-9619556Y-2425700D02*
G01*
X-9624753Y-2436091D01*
X-9640338Y-2451676D01*
X-9531235Y-2451676D01*
X-9603971Y-2485966D02*
G01*
X-9552015Y-2485966D01*
X-9536429Y-2491163D01*
X-9531235Y-2501554D01*
X-9531235Y-2517139D01*
X-9536429Y-2527531D01*
X-9552015Y-2543116D01*
X-9603971Y-2543116D02*
G01*
X-9531235Y-2543116D01*
X-9475238Y-2456873D02*
G01*
X-9470044Y-2441285D01*
X-9454456Y-2430894D01*
X-9428479Y-2425700D01*
X-9412894Y-2425700D01*
X-9386915Y-2430894D01*
X-9371329Y-2441285D01*
X-9366135Y-2456873D01*
X-9366135Y-2467264D01*
X-9371329Y-2482850D01*
X-9386915Y-2493241D01*
X-9412894Y-2498435D01*
X-9428479Y-2498435D01*
X-9454456Y-2493241D01*
X-9470044Y-2482850D01*
X-9475238Y-2467264D01*
X-9475238Y-2456873D01*
X-9392112Y-2537922D02*
G01*
X-9386915Y-2532725D01*
X-9381721Y-2537922D01*
X-9386915Y-2543116D01*
X-9392112Y-2537922D01*
X-9454456Y-2577406D02*
G01*
X-9459653Y-2587797D01*
X-9475238Y-2603385D01*
X-9366135Y-2603385D01*
X-9438871Y-2637675D02*
G01*
X-9386915Y-2637675D01*
X-9371329Y-2642870D01*
X-9366135Y-2653261D01*
X-9366135Y-2668846D01*
X-9371329Y-2679237D01*
X-9386915Y-2694825D01*
X-9438871Y-2694825D02*
G01*
X-9366135Y-2694825D01*
X-6990773Y978938D02*
G01*
X-6975185Y973744D01*
X-6964794Y958156D01*
X-6959600Y932179D01*
X-6959600Y916594D01*
X-6964794Y890615D01*
X-6975185Y875029D01*
X-6990773Y869835D01*
X-7001164Y869835D01*
X-7016750Y875029D01*
X-7027141Y890615D01*
X-7032335Y916594D01*
X-7032335Y932179D01*
X-7027141Y958156D01*
X-7016750Y973744D01*
X-7001164Y978938D01*
X-6990773Y978938D01*
X-7071822Y895812D02*
G01*
X-7066625Y890615D01*
X-7071822Y885421D01*
X-7077016Y890615D01*
X-7071822Y895812D01*
X-7111306Y958156D02*
G01*
X-7121697Y963353D01*
X-7137285Y978938D01*
X-7137285Y869835D01*
X-7171575Y942571D02*
G01*
X-7171575Y890615D01*
X-7176770Y875029D01*
X-7187161Y869835D01*
X-7202746Y869835D01*
X-7213137Y875029D01*
X-7228725Y890615D01*
X-7228725Y942571D02*
G01*
X-7228725Y869835D01*
X-6959600Y767656D02*
G01*
X-6969991Y772853D01*
X-6985576Y788438D01*
X-6985576Y679335D01*
X-7019866Y752071D02*
G01*
X-7019866Y700115D01*
X-7025063Y684529D01*
X-7035454Y679335D01*
X-7051039Y679335D01*
X-7061431Y684529D01*
X-7077016Y700115D01*
X-7077016Y752071D02*
G01*
X-7077016Y679335D01*
X-6990773Y470938D02*
G01*
X-6975185Y465744D01*
X-6964794Y450156D01*
X-6959600Y424179D01*
X-6959600Y408594D01*
X-6964794Y382615D01*
X-6975185Y367029D01*
X-6990773Y361835D01*
X-7001164Y361835D01*
X-7016750Y367029D01*
X-7027141Y382615D01*
X-7032335Y408594D01*
X-7032335Y424179D01*
X-7027141Y450156D01*
X-7016750Y465744D01*
X-7001164Y470938D01*
X-6990773Y470938D01*
X-7071822Y387812D02*
G01*
X-7066625Y382615D01*
X-7071822Y377421D01*
X-7077016Y382615D01*
X-7071822Y387812D01*
X-7111306Y450156D02*
G01*
X-7121697Y455353D01*
X-7137285Y470938D01*
X-7137285Y361835D01*
X-7171575Y434571D02*
G01*
X-7171575Y382615D01*
X-7176770Y367029D01*
X-7187161Y361835D01*
X-7202746Y361835D01*
X-7213137Y367029D01*
X-7228725Y382615D01*
X-7228725Y434571D02*
G01*
X-7228725Y361835D01*
X-6165273Y242338D02*
G01*
X-6149685Y237144D01*
X-6139294Y221556D01*
X-6134100Y195579D01*
X-6134100Y179994D01*
X-6139294Y154015D01*
X-6149685Y138429D01*
X-6165273Y133235D01*
X-6175664Y133235D01*
X-6191250Y138429D01*
X-6201641Y154015D01*
X-6206835Y179994D01*
X-6206835Y195579D01*
X-6201641Y221556D01*
X-6191250Y237144D01*
X-6175664Y242338D01*
X-6165273Y242338D01*
X-6246322Y159212D02*
G01*
X-6241125Y154015D01*
X-6246322Y148821D01*
X-6251516Y154015D01*
X-6246322Y159212D01*
X-6285806Y221556D02*
G01*
X-6296197Y226753D01*
X-6311785Y242338D01*
X-6311785Y133235D01*
X-6346075Y205971D02*
G01*
X-6346075Y154015D01*
X-6351270Y138429D01*
X-6361661Y133235D01*
X-6377246Y133235D01*
X-6387637Y138429D01*
X-6403225Y154015D01*
X-6403225Y205971D02*
G01*
X-6403225Y133235D01*
X-5481172Y-87180D02*
G01*
X-5465584Y-92374D01*
X-5455193Y-107962D01*
X-5449999Y-133939D01*
X-5449999Y-149524D01*
X-5455193Y-175503D01*
X-5465584Y-191089D01*
X-5481172Y-196283D01*
X-5491563Y-196283D01*
X-5507149Y-191089D01*
X-5517540Y-175503D01*
X-5522734Y-149524D01*
X-5522734Y-133939D01*
X-5517540Y-107962D01*
X-5507149Y-92374D01*
X-5491563Y-87180D01*
X-5481172Y-87180D01*
X-5562221Y-170306D02*
G01*
X-5557024Y-175503D01*
X-5562221Y-180698D01*
X-5567415Y-175503D01*
X-5562221Y-170306D01*
X-5601705Y-107962D02*
G01*
X-5612096Y-102765D01*
X-5627684Y-87180D01*
X-5627684Y-196283D01*
X-5661974Y-123548D02*
G01*
X-5661974Y-175503D01*
X-5667169Y-191089D01*
X-5677560Y-196283D01*
X-5693145Y-196283D01*
X-5703536Y-191089D01*
X-5719124Y-175503D01*
X-5719124Y-123548D02*
G01*
X-5719124Y-196283D01*
X-5449999Y48201D02*
G01*
X-5460390Y53398D01*
X-5475975Y68983D01*
X-5475975Y-40119D01*
X-5541439Y68983D02*
G01*
X-5525853Y63789D01*
X-5515462Y48201D01*
X-5510265Y22225D01*
X-5510265Y6639D01*
X-5515462Y-19339D01*
X-5525853Y-34925D01*
X-5541439Y-40119D01*
X-5551830Y-40119D01*
X-5567415Y-34925D01*
X-5577806Y-19339D01*
X-5583003Y6639D01*
X-5583003Y22225D01*
X-5577806Y48201D01*
X-5567415Y63789D01*
X-5551830Y68983D01*
X-5541439Y68983D01*
X-5617293Y68983D02*
G01*
X-5617293Y-40119D01*
X-5669246Y32616D02*
G01*
X-5617293Y-19339D01*
X-5638073Y1442D02*
G01*
X-5674443Y-40119D01*
X-6368473Y1436138D02*
G01*
X-6352885Y1430944D01*
X-6342494Y1415356D01*
X-6337300Y1389379D01*
X-6337300Y1373794D01*
X-6342494Y1347815D01*
X-6352885Y1332229D01*
X-6368473Y1327035D01*
X-6378864Y1327035D01*
X-6394450Y1332229D01*
X-6404841Y1347815D01*
X-6410035Y1373794D01*
X-6410035Y1389379D01*
X-6404841Y1415356D01*
X-6394450Y1430944D01*
X-6378864Y1436138D01*
X-6368473Y1436138D01*
X-6449522Y1353012D02*
G01*
X-6444325Y1347815D01*
X-6449522Y1342621D01*
X-6454716Y1347815D01*
X-6449522Y1353012D01*
X-6489006Y1415356D02*
G01*
X-6499397Y1420553D01*
X-6514985Y1436138D01*
X-6514985Y1327035D01*
X-6549275Y1399771D02*
G01*
X-6549275Y1347815D01*
X-6554470Y1332229D01*
X-6564861Y1327035D01*
X-6580446Y1327035D01*
X-6590837Y1332229D01*
X-6606425Y1347815D01*
X-6606425Y1399771D02*
G01*
X-6606425Y1327035D01*
X-5435600Y1834456D02*
G01*
X-5445991Y1839653D01*
X-5461576Y1855238D01*
X-5461576Y1746135D01*
X-5558213Y1839653D02*
G01*
X-5553016Y1850044D01*
X-5537431Y1855238D01*
X-5527039Y1855238D01*
X-5511454Y1850044D01*
X-5501063Y1834456D01*
X-5495866Y1808479D01*
X-5495866Y1782503D01*
X-5501063Y1761721D01*
X-5511454Y1751329D01*
X-5527039Y1746135D01*
X-5532234Y1746135D01*
X-5547822Y1751329D01*
X-5558213Y1761721D01*
X-5563407Y1777306D01*
X-5563407Y1782503D01*
X-5558213Y1798088D01*
X-5547822Y1808479D01*
X-5532234Y1813674D01*
X-5527039Y1813674D01*
X-5511454Y1808479D01*
X-5501063Y1798088D01*
X-5495866Y1782503D01*
X-5597697Y1855238D02*
G01*
X-5597697Y1746135D01*
X-5597697Y1855238D02*
G01*
X-5639262Y1746135D01*
X-5680824Y1855238D02*
G01*
X-5639262Y1746135D01*
X-5680824Y1855238D02*
G01*
X-5680824Y1746135D01*
X-4742873Y1194838D02*
G01*
X-4727285Y1189644D01*
X-4716894Y1174056D01*
X-4711700Y1148079D01*
X-4711700Y1132494D01*
X-4716894Y1106515D01*
X-4727285Y1090929D01*
X-4742873Y1085735D01*
X-4753264Y1085735D01*
X-4768850Y1090929D01*
X-4779241Y1106515D01*
X-4784435Y1132494D01*
X-4784435Y1148079D01*
X-4779241Y1174056D01*
X-4768850Y1189644D01*
X-4753264Y1194838D01*
X-4742873Y1194838D01*
X-4823922Y1111712D02*
G01*
X-4818725Y1106515D01*
X-4823922Y1101321D01*
X-4829116Y1106515D01*
X-4823922Y1111712D01*
X-4863406Y1174056D02*
G01*
X-4873797Y1179253D01*
X-4889385Y1194838D01*
X-4889385Y1085735D01*
X-4923675Y1158471D02*
G01*
X-4923675Y1106515D01*
X-4928870Y1090929D01*
X-4939261Y1085735D01*
X-4954846Y1085735D01*
X-4965237Y1090929D01*
X-4980825Y1106515D01*
X-4980825Y1158471D02*
G01*
X-4980825Y1085735D01*
X-3581171Y1663565D02*
G01*
X-3565583Y1658371D01*
X-3555192Y1642783D01*
X-3549997Y1616806D01*
X-3549997Y1601221D01*
X-3555192Y1575241D01*
X-3565583Y1559656D01*
X-3581171Y1554462D01*
X-3591562Y1554462D01*
X-3607147Y1559656D01*
X-3617539Y1575241D01*
X-3622733Y1601221D01*
X-3622733Y1616806D01*
X-3617539Y1642783D01*
X-3607147Y1658371D01*
X-3591562Y1663565D01*
X-3581171Y1663565D01*
X-3662220Y1580438D02*
G01*
X-3657023Y1575241D01*
X-3662220Y1570047D01*
X-3667414Y1575241D01*
X-3662220Y1580438D01*
X-3701704Y1642783D02*
G01*
X-3712095Y1647979D01*
X-3727683Y1663565D01*
X-3727683Y1554462D01*
X-3761973Y1627197D02*
G01*
X-3761973Y1575241D01*
X-3767167Y1559656D01*
X-3777559Y1554462D01*
X-3793144Y1554462D01*
X-3803535Y1559656D01*
X-3819123Y1575241D01*
X-3819123Y1627197D02*
G01*
X-3819123Y1554462D01*
X-3595255Y1512338D02*
G01*
X-3543300Y1439603D01*
X-3621232Y1439603D01*
X-3595255Y1512338D02*
G01*
X-3595255Y1403235D01*
X-3655522Y1512338D02*
G01*
X-3655522Y1403235D01*
X-3707475Y1475971D02*
G01*
X-3655522Y1424015D01*
X-3676304Y1444797D02*
G01*
X-3712672Y1403235D01*
X-3819697Y1512338D02*
G01*
X-3767744Y1403235D01*
X-3746962Y1512338D02*
G01*
X-3819697Y1512338D01*
X-3599873Y318538D02*
G01*
X-3584285Y313344D01*
X-3573894Y297756D01*
X-3568700Y271779D01*
X-3568700Y256194D01*
X-3573894Y230215D01*
X-3584285Y214629D01*
X-3599873Y209435D01*
X-3610264Y209435D01*
X-3625850Y214629D01*
X-3636241Y230215D01*
X-3641435Y256194D01*
X-3641435Y271779D01*
X-3636241Y297756D01*
X-3625850Y313344D01*
X-3610264Y318538D01*
X-3599873Y318538D01*
X-3680922Y235412D02*
G01*
X-3675725Y230215D01*
X-3680922Y225021D01*
X-3686116Y230215D01*
X-3680922Y235412D01*
X-3720406Y297756D02*
G01*
X-3730797Y302953D01*
X-3746385Y318538D01*
X-3746385Y209435D01*
X-3780675Y282171D02*
G01*
X-3780675Y230215D01*
X-3785870Y214629D01*
X-3796261Y209435D01*
X-3811846Y209435D01*
X-3822237Y214629D01*
X-3837825Y230215D01*
X-3837825Y282171D02*
G01*
X-3837825Y209435D01*
X-3620655Y470938D02*
G01*
X-3568700Y398203D01*
X-3646632Y398203D01*
X-3620655Y470938D02*
G01*
X-3620655Y361835D01*
X-3680922Y470938D02*
G01*
X-3680922Y361835D01*
X-3732875Y434571D02*
G01*
X-3680922Y382615D01*
X-3701704Y403397D02*
G01*
X-3738072Y361835D01*
X-3845097Y470938D02*
G01*
X-3793144Y361835D01*
X-3772362Y470938D02*
G01*
X-3845097Y470938D01*
X-3581400Y145356D02*
G01*
X-3591791Y150553D01*
X-3607376Y166138D01*
X-3607376Y57035D01*
X-3672839Y166138D02*
G01*
X-3657254Y160944D01*
X-3646863Y145356D01*
X-3641666Y119379D01*
X-3641666Y103794D01*
X-3646863Y77815D01*
X-3657254Y62229D01*
X-3672839Y57035D01*
X-3683231Y57035D01*
X-3698816Y62229D01*
X-3709207Y77815D01*
X-3714404Y103794D01*
X-3714404Y119379D01*
X-3709207Y145356D01*
X-3698816Y160944D01*
X-3683231Y166138D01*
X-3672839Y166138D01*
X-3748694Y166138D02*
G01*
X-3748694Y57035D01*
X-3800647Y129771D02*
G01*
X-3748694Y77815D01*
X-3769474Y98597D02*
G01*
X-3805844Y57035D01*
X-2013643Y-1968500D02*
G01*
X-2008446Y-1958108D01*
X-1992861Y-1942523D01*
X-2101964Y-1942523D01*
X-1992861Y-1908233D02*
G01*
X-2101964Y-1908233D01*
X-2029228Y-1856277D02*
G01*
X-2081184Y-1908233D01*
X-2060402Y-1887451D02*
G01*
X-2101964Y-1851083D01*
X-1873943Y-1968500D02*
G01*
X-1868746Y-1958108D01*
X-1853161Y-1942523D01*
X-1962264Y-1942523D01*
X-1853161Y-1908233D02*
G01*
X-1962264Y-1908233D01*
X-1889528Y-1856277D02*
G01*
X-1941484Y-1908233D01*
X-1920702Y-1887451D02*
G01*
X-1962264Y-1851083D01*
X-1734243Y-1968500D02*
G01*
X-1729046Y-1958108D01*
X-1713461Y-1942523D01*
X-1822564Y-1942523D01*
X-1713461Y-1908233D02*
G01*
X-1822564Y-1908233D01*
X-1749828Y-1856277D02*
G01*
X-1801784Y-1908233D01*
X-1781002Y-1887451D02*
G01*
X-1822564Y-1851083D01*
X-887961Y-1200726D02*
G01*
X-893155Y-1216314D01*
X-908743Y-1226705D01*
X-934720Y-1231900D01*
X-950305Y-1231900D01*
X-976284Y-1226705D01*
X-991870Y-1216314D01*
X-997064Y-1200726D01*
X-997064Y-1190335D01*
X-991870Y-1174750D01*
X-976284Y-1164358D01*
X-950305Y-1159164D01*
X-934720Y-1159164D01*
X-908743Y-1164358D01*
X-893155Y-1174750D01*
X-887961Y-1190335D01*
X-887961Y-1200726D01*
X-971087Y-1119677D02*
G01*
X-976284Y-1124874D01*
X-981478Y-1119677D01*
X-976284Y-1114483D01*
X-971087Y-1119677D01*
X-908743Y-1080193D02*
G01*
X-903546Y-1069802D01*
X-887961Y-1054214D01*
X-997064Y-1054214D01*
X-924328Y-1019924D02*
G01*
X-976284Y-1019924D01*
X-991870Y-1014729D01*
X-997064Y-1004338D01*
X-997064Y-988753D01*
X-991870Y-978362D01*
X-976284Y-962774D01*
X-924328Y-962774D02*
G01*
X-997064Y-962774D01*
X-743643Y-1231900D02*
G01*
X-738446Y-1221508D01*
X-722861Y-1205923D01*
X-831964Y-1205923D01*
X-722861Y-1140460D02*
G01*
X-728055Y-1156045D01*
X-743643Y-1166436D01*
X-769620Y-1171633D01*
X-785205Y-1171633D01*
X-811184Y-1166436D01*
X-826770Y-1156045D01*
X-831964Y-1140460D01*
X-831964Y-1130068D01*
X-826770Y-1114483D01*
X-811184Y-1104092D01*
X-785205Y-1098895D01*
X-769620Y-1098895D01*
X-743643Y-1104092D01*
X-728055Y-1114483D01*
X-722861Y-1130068D01*
X-722861Y-1140460D01*
X-722861Y-1064605D02*
G01*
X-831964Y-1064605D01*
X-759228Y-1012652D02*
G01*
X-811184Y-1064605D01*
X-790402Y-1043825D02*
G01*
X-831964Y-1007455D01*
X818456Y-1231900D02*
G01*
X823653Y-1221508D01*
X839238Y-1205923D01*
X730135Y-1205923D01*
X839238Y-1140460D02*
G01*
X834044Y-1156045D01*
X818456Y-1166436D01*
X792479Y-1171633D01*
X776894Y-1171633D01*
X750915Y-1166436D01*
X735329Y-1156045D01*
X730135Y-1140460D01*
X730135Y-1130068D01*
X735329Y-1114483D01*
X750915Y-1104092D01*
X776894Y-1098895D01*
X792479Y-1098895D01*
X818456Y-1104092D01*
X834044Y-1114483D01*
X839238Y-1130068D01*
X839238Y-1140460D01*
X839238Y-1064605D02*
G01*
X730135Y-1064605D01*
X802871Y-1012652D02*
G01*
X750915Y-1064605D01*
X771697Y-1043825D02*
G01*
X730135Y-1007455D01*
X991638Y-1200726D02*
G01*
X986444Y-1216314D01*
X970856Y-1226705D01*
X944879Y-1231900D01*
X929294Y-1231900D01*
X903315Y-1226705D01*
X887729Y-1216314D01*
X882535Y-1200726D01*
X882535Y-1190335D01*
X887729Y-1174750D01*
X903315Y-1164358D01*
X929294Y-1159164D01*
X944879Y-1159164D01*
X970856Y-1164358D01*
X986444Y-1174750D01*
X991638Y-1190335D01*
X991638Y-1200726D01*
X908512Y-1119677D02*
G01*
X903315Y-1124874D01*
X898121Y-1119677D01*
X903315Y-1114483D01*
X908512Y-1119677D01*
X970856Y-1080193D02*
G01*
X976053Y-1069802D01*
X991638Y-1054214D01*
X882535Y-1054214D01*
X955271Y-1019924D02*
G01*
X903315Y-1019924D01*
X887729Y-1014729D01*
X882535Y-1004338D01*
X882535Y-988753D01*
X887729Y-978362D01*
X903315Y-962774D01*
X955271Y-962774D02*
G01*
X882535Y-962774D01*
X-2335761Y480867D02*
G01*
X-2444864Y480867D01*
X-2335761Y444500D02*
G01*
X-2335761Y517235D01*
X-2372128Y551525D02*
G01*
X-2444864Y551525D01*
X-2403302Y551525D02*
G01*
X-2387714Y556722D01*
X-2377325Y567113D01*
X-2372128Y577504D01*
X-2372128Y593089D01*
X-2372128Y689724D02*
G01*
X-2444864Y689724D01*
X-2387714Y689724D02*
G01*
X-2377325Y679335D01*
X-2372128Y668944D01*
X-2372128Y653356D01*
X-2377325Y642965D01*
X-2387714Y632574D01*
X-2403302Y627379D01*
X-2413693Y627379D01*
X-2429278Y632574D01*
X-2439670Y642965D01*
X-2444864Y653356D01*
X-2444864Y668944D01*
X-2439670Y679335D01*
X-2429278Y689724D01*
X-2387714Y786361D02*
G01*
X-2377325Y775970D01*
X-2372128Y765578D01*
X-2372128Y749993D01*
X-2377325Y739602D01*
X-2387714Y729211D01*
X-2403302Y724014D01*
X-2413693Y724014D01*
X-2429278Y729211D01*
X-2439670Y739602D01*
X-2444864Y749993D01*
X-2444864Y765578D01*
X-2439670Y775970D01*
X-2429278Y786361D01*
X-2335761Y820651D02*
G01*
X-2444864Y820651D01*
X-2372128Y872604D02*
G01*
X-2424084Y820651D01*
X-2403302Y841433D02*
G01*
X-2444864Y877801D01*
X-2335761Y992101D02*
G01*
X-2444864Y992101D01*
X-2335761Y992101D02*
G01*
X-2335761Y1038860D01*
X-2340955Y1054445D01*
X-2346152Y1059642D01*
X-2356543Y1064836D01*
X-2372128Y1064836D01*
X-2382520Y1059642D01*
X-2387714Y1054445D01*
X-2392911Y1038860D01*
X-2392911Y992101D01*
X-2372128Y1125105D02*
G01*
X-2377325Y1114714D01*
X-2387714Y1104323D01*
X-2403302Y1099126D01*
X-2413693Y1099126D01*
X-2429278Y1104323D01*
X-2439670Y1114714D01*
X-2444864Y1125105D01*
X-2444864Y1140691D01*
X-2439670Y1151082D01*
X-2429278Y1161473D01*
X-2413693Y1166667D01*
X-2403302Y1166667D01*
X-2387714Y1161473D01*
X-2377325Y1151082D01*
X-2372128Y1140691D01*
X-2372128Y1125105D01*
X-2335761Y1200957D02*
G01*
X-2340955Y1206154D01*
X-2335761Y1211348D01*
X-2330564Y1206154D01*
X-2335761Y1200957D01*
X-2372128Y1206154D02*
G01*
X-2444864Y1206154D01*
X-2372128Y1245638D02*
G01*
X-2444864Y1245638D01*
X-2392911Y1245638D02*
G01*
X-2377325Y1261224D01*
X-2372128Y1271615D01*
X-2372128Y1287203D01*
X-2377325Y1297594D01*
X-2392911Y1302788D01*
X-2444864Y1302788D01*
X-2335761Y1352664D02*
G01*
X-2424084Y1352664D01*
X-2439670Y1357861D01*
X-2444864Y1368252D01*
X-2444864Y1378643D01*
X-2372128Y1337078D02*
G01*
X-2372128Y1373446D01*
X511464Y-1043246D02*
G01*
X521855Y-1032855D01*
X537441Y-1027661D01*
X558223Y-1027661D01*
X573808Y-1032855D01*
X584200Y-1043246D01*
X584200Y-1053637D01*
X579005Y-1064028D01*
X573808Y-1069225D01*
X563417Y-1074420D01*
X532244Y-1084811D01*
X521855Y-1090005D01*
X516658Y-1095202D01*
X511464Y-1105593D01*
X511464Y-1121178D01*
X521855Y-1131570D01*
X537441Y-1136764D01*
X558223Y-1136764D01*
X573808Y-1131570D01*
X584200Y-1121178D01*
X477174Y-1027661D02*
G01*
X477174Y-1136764D01*
X477174Y-1027661D02*
G01*
X430415Y-1027661D01*
X414827Y-1032855D01*
X409633Y-1038052D01*
X404436Y-1048443D01*
X404436Y-1058834D01*
X409633Y-1069225D01*
X414827Y-1074420D01*
X430415Y-1079614D01*
X477174Y-1079614D01*
X440804Y-1079614D02*
G01*
X404436Y-1136764D01*
X292214Y-1053637D02*
G01*
X297411Y-1043246D01*
X307802Y-1032855D01*
X318193Y-1027661D01*
X338975Y-1027661D01*
X349364Y-1032855D01*
X359755Y-1043246D01*
X364952Y-1053637D01*
X370146Y-1069225D01*
X370146Y-1095202D01*
X364952Y-1110787D01*
X359755Y-1121178D01*
X349364Y-1131570D01*
X338975Y-1136764D01*
X318193Y-1136764D01*
X307802Y-1131570D01*
X297411Y-1121178D01*
X292214Y-1110787D01*
X292214Y-1095202D01*
X318193Y-1095202D02*
G01*
X292214Y-1095202D01*
X257924Y-1027661D02*
G01*
X257924Y-1136764D01*
X257924Y-1027661D02*
G01*
X211165Y-1027661D01*
X195579Y-1032855D01*
X190385Y-1038052D01*
X185188Y-1048443D01*
X185188Y-1064028D01*
X190385Y-1074420D01*
X195579Y-1079614D01*
X211165Y-1084811D01*
X257924Y-1084811D01*
X65694Y-1053637D02*
G01*
X65694Y-1048443D01*
X60497Y-1038052D01*
X55303Y-1032855D01*
X44912Y-1027661D01*
X24129Y-1027661D01*
X13738Y-1032855D01*
X8544Y-1038052D01*
X3347Y-1048443D01*
X3347Y-1058834D01*
X8544Y-1069225D01*
X18935Y-1084811D01*
X70888Y-1136764D01*
X-1846Y-1136764D01*
X-67310Y-1027661D02*
G01*
X-51724Y-1032855D01*
X-41333Y-1048443D01*
X-36136Y-1074420D01*
X-36136Y-1090005D01*
X-41333Y-1115984D01*
X-51724Y-1131570D01*
X-67310Y-1136764D01*
X-77701Y-1136764D01*
X-93286Y-1131570D01*
X-103677Y-1115984D01*
X-108874Y-1090005D01*
X-108874Y-1074420D01*
X-103677Y-1048443D01*
X-93286Y-1032855D01*
X-77701Y-1027661D01*
X-67310Y-1027661D01*
X-174335Y-1027661D02*
G01*
X-158750Y-1032855D01*
X-148358Y-1048443D01*
X-143164Y-1074420D01*
X-143164Y-1090005D01*
X-148358Y-1115984D01*
X-158750Y-1131570D01*
X-174335Y-1136764D01*
X-184726Y-1136764D01*
X-200314Y-1131570D01*
X-210705Y-1115984D01*
X-215900Y-1090005D01*
X-215900Y-1074420D01*
X-210705Y-1048443D01*
X-200314Y-1032855D01*
X-184726Y-1027661D01*
X-174335Y-1027661D01*
X-255384Y-1053637D02*
G01*
X-255384Y-1048443D01*
X-260581Y-1038052D01*
X-265775Y-1032855D01*
X-276166Y-1027661D01*
X-296948Y-1027661D01*
X-307339Y-1032855D01*
X-312534Y-1038052D01*
X-317731Y-1048443D01*
X-317731Y-1058834D01*
X-312534Y-1069225D01*
X-302145Y-1084811D01*
X-250189Y-1136764D01*
X-322925Y-1136764D01*
X-388388Y-1027661D02*
G01*
X-372803Y-1032855D01*
X-362412Y-1048443D01*
X-357215Y-1074420D01*
X-357215Y-1090005D01*
X-362412Y-1115984D01*
X-372803Y-1131570D01*
X-388388Y-1136764D01*
X-398779Y-1136764D01*
X-414365Y-1131570D01*
X-424756Y-1115984D01*
X-429953Y-1090005D01*
X-429953Y-1074420D01*
X-424756Y-1048443D01*
X-414365Y-1032855D01*
X-398779Y-1027661D01*
X-388388Y-1027661D01*
X-495414Y-1027661D02*
G01*
X-479828Y-1032855D01*
X-469437Y-1048443D01*
X-464243Y-1074420D01*
X-464243Y-1090005D01*
X-469437Y-1115984D01*
X-479828Y-1131570D01*
X-495414Y-1136764D01*
X-505805Y-1136764D01*
X-521393Y-1131570D01*
X-531784Y-1115984D01*
X-536978Y-1090005D01*
X-536978Y-1074420D01*
X-531784Y-1048443D01*
X-521393Y-1032855D01*
X-505805Y-1027661D01*
X-495414Y-1027661D01*
X-10121900Y2541015D02*
G01*
X-10121900Y2432050D01*
X-10121900Y2541015D02*
G01*
X-10168636Y2541015D01*
X-10184129Y2535936D01*
X-10189463Y2530602D01*
X-10194544Y2520187D01*
X-10194544Y2509773D01*
X-10189463Y2499360D01*
X-10184129Y2494279D01*
X-10168636Y2489200D01*
X-10121900Y2489200D01*
X-10158221Y2489200D02*
G01*
X-10194544Y2432050D01*
X-10301731Y2525521D02*
G01*
X-10291318Y2535936D01*
X-10275570Y2541015D01*
X-10254995Y2541015D01*
X-10239247Y2535936D01*
X-10228834Y2525521D01*
X-10228834Y2515107D01*
X-10234168Y2504694D01*
X-10239247Y2499360D01*
X-10249662Y2494279D01*
X-10280904Y2483865D01*
X-10291318Y2478786D01*
X-10296397Y2473452D01*
X-10301731Y2463037D01*
X-10301731Y2447544D01*
X-10291318Y2437129D01*
X-10275570Y2432050D01*
X-10254995Y2432050D01*
X-10239247Y2437129D01*
X-10228834Y2447544D01*
X-10372344Y2541015D02*
G01*
X-10372344Y2432050D01*
X-10336021Y2541015D02*
G01*
X-10408665Y2541015D01*
D35*
X352135Y-381652D02*
G01*
X444500Y-510961D01*
X305955Y-510961D01*
X352135Y-381652D02*
G01*
X352135Y-575614D01*
X172026Y-381652D02*
G01*
X70426Y-381652D01*
X125844Y-455543D01*
X98135Y-455543D01*
X79664Y-464779D01*
X70426Y-474014D01*
X61191Y-501723D01*
X61191Y-520197D01*
X70426Y-547905D01*
X88900Y-566379D01*
X116608Y-575614D01*
X144317Y-575614D01*
X172026Y-566379D01*
X181264Y-557143D01*
X190500Y-538670D01*
X-60035Y-427835D02*
G01*
X-60035Y-418597D01*
X-69273Y-400123D01*
X-78508Y-390888D01*
X-96982Y-381652D01*
X-133926Y-381652D01*
X-152400Y-390888D01*
X-161635Y-400123D01*
X-170873Y-418597D01*
X-170873Y-437070D01*
X-161635Y-455543D01*
X-143164Y-483252D01*
X-50800Y-575614D01*
X-180108Y-575614D01*
X-328399Y-416024D02*
G01*
X-346941Y-406880D01*
X-374627Y-379194D01*
X-374627Y-572996D01*
D11*
X-317500Y-2615184D02*
G01*
X-317500Y-2724150D01*
X-317500Y-2724150D02*
G01*
X-379729Y-2724150D01*
X-414020Y-2615184D02*
G01*
X-414020Y-2724150D01*
X-414020Y-2615184D02*
G01*
X-481584Y-2615184D01*
X-414020Y-2667000D02*
G01*
X-455676Y-2667000D01*
X-414020Y-2724150D02*
G01*
X-481584Y-2724150D01*
X-515873Y-2615184D02*
G01*
X-515873Y-2724150D01*
X-515873Y-2615184D02*
G01*
X-552450Y-2615184D01*
X-567944Y-2620263D01*
X-578357Y-2630678D01*
X-583437Y-2641092D01*
X-588771Y-2656839D01*
X-588771Y-2682747D01*
X-583437Y-2698242D01*
X-578357Y-2708655D01*
X-567944Y-2719070D01*
X-552450Y-2724150D01*
X-515873Y-2724150D01*
X-623062Y-2636012D02*
G01*
X-633476Y-2630678D01*
X-648970Y-2615184D01*
X-648970Y-2724150D01*
X-1320800Y-2615184D02*
G01*
X-1320800Y-2724150D01*
X-1320800Y-2724150D02*
G01*
X-1383029Y-2724150D01*
X-1417320Y-2615184D02*
G01*
X-1417320Y-2724150D01*
X-1417320Y-2615184D02*
G01*
X-1484884Y-2615184D01*
X-1417320Y-2667000D02*
G01*
X-1458976Y-2667000D01*
X-1417320Y-2724150D02*
G01*
X-1484884Y-2724150D01*
X-1519173Y-2615184D02*
G01*
X-1519173Y-2724150D01*
X-1519173Y-2615184D02*
G01*
X-1555750Y-2615184D01*
X-1571244Y-2620263D01*
X-1581657Y-2630678D01*
X-1586737Y-2641092D01*
X-1592071Y-2656839D01*
X-1592071Y-2682747D01*
X-1586737Y-2698242D01*
X-1581657Y-2708655D01*
X-1571244Y-2719070D01*
X-1555750Y-2724150D01*
X-1519173Y-2724150D01*
X-1631442Y-2641092D02*
G01*
X-1631442Y-2636012D01*
X-1636776Y-2625597D01*
X-1641855Y-2620263D01*
X-1652270Y-2615184D01*
X-1673097Y-2615184D01*
X-1683512Y-2620263D01*
X-1688592Y-2625597D01*
X-1693926Y-2636012D01*
X-1693926Y-2646426D01*
X-1688592Y-2656839D01*
X-1678178Y-2672334D01*
X-1626362Y-2724150D01*
X-1699005Y-2724150D01*
X698500Y-2602484D02*
G01*
X698500Y-2711450D01*
X698500Y-2711450D02*
G01*
X636270Y-2711450D01*
X601979Y-2602484D02*
G01*
X601979Y-2711450D01*
X601979Y-2602484D02*
G01*
X534415Y-2602484D01*
X601979Y-2654300D02*
G01*
X560323Y-2654300D01*
X601979Y-2711450D02*
G01*
X534415Y-2711450D01*
X500126Y-2602484D02*
G01*
X500126Y-2711450D01*
X500126Y-2602484D02*
G01*
X463550Y-2602484D01*
X448055Y-2607563D01*
X437642Y-2617978D01*
X432562Y-2628392D01*
X427228Y-2644139D01*
X427228Y-2670047D01*
X432562Y-2685542D01*
X437642Y-2695955D01*
X448055Y-2706370D01*
X463550Y-2711450D01*
X500126Y-2711450D01*
X382523Y-2602484D02*
G01*
X325373Y-2602484D01*
X356615Y-2644139D01*
X341121Y-2644139D01*
X330707Y-2649220D01*
X325373Y-2654300D01*
X320294Y-2670047D01*
X320294Y-2680462D01*
X325373Y-2695955D01*
X335787Y-2706370D01*
X351536Y-2711450D01*
X367029Y-2711450D01*
X382523Y-2706370D01*
X387857Y-2701289D01*
X392937Y-2690876D01*
G36*
X-199999Y99974D02*
G01*
X-199999Y0D01*
X-49987Y0D01*
X-49987Y99974D01*
G37*
G36*
X50800Y99974D02*
G01*
X50800Y0D01*
X200812Y0D01*
X200812Y99974D01*
G37*
G36*
X-449986Y99974D02*
G01*
X-449986Y0D01*
X-299974Y0D01*
X-299974Y99974D01*
G37*
G36*
X300024Y99974D02*
G01*
X300024Y0D01*
X450037Y0D01*
X450037Y99974D01*
G37*
G36*
X10007Y-2627020D02*
G01*
X-19964Y-2667000D01*
X10007Y-2706979D01*
G37*
G36*
X-993292Y-2627020D02*
G01*
X-1023264Y-2667000D01*
X-993292Y-2706979D01*
G37*
G36*
X1013307Y-2627020D02*
G01*
X983335Y-2667000D01*
X1013307Y-2706979D01*
G37*
D10*
X-1259997Y1700001D02*
G01*
X1259997Y1700001D01*
X1259997Y1700001D02*
G01*
X1260000Y-239999D01*
X-1259997Y-240002D02*
G01*
X-800000Y-240002D01*
X-800000Y199999D01*
X1260000Y-239999D02*
G01*
X800000Y-239999D01*
X800000Y199999D01*
X-800000Y199999D02*
G01*
X800000Y199999D01*
X-550001Y-2D02*
G01*
X-550001Y199999D01*
X-557656Y199999D01*
X550001Y0D02*
G01*
X550001Y199999D01*
X546773Y199999D01*
X-550001Y-2D02*
G01*
X550001Y0D01*
X-1259997Y1700001D02*
G01*
X-1259997Y-240002D01*
X-750011Y1699988D02*
G01*
X749985Y1699988D01*
X749985Y199991D01*
X-750011Y199991D01*
X-750011Y1699988D01*
X-6617398Y874422D02*
G01*
X-6617398Y954425D01*
X-6728373Y843437D02*
G01*
X-6648376Y843437D01*
X-6728373Y985403D02*
G01*
X-6648376Y985403D01*
X-6785963Y842855D02*
G01*
X-6865962Y842855D01*
X-6896945Y873838D02*
G01*
X-6896945Y953836D01*
X-6785963Y984816D02*
G01*
X-6865962Y984816D01*
X-4990401Y1005177D02*
G01*
X-4990401Y925174D01*
X-4879426Y1036162D02*
G01*
X-4959423Y1036162D01*
X-4879426Y894196D02*
G01*
X-4959423Y894196D01*
X-4821836Y1036744D02*
G01*
X-4741837Y1036744D01*
X-4710854Y1005761D02*
G01*
X-4710854Y925763D01*
X-4821836Y894783D02*
G01*
X-4741837Y894783D01*
X-9450677Y-2374201D02*
G01*
X-9370674Y-2374201D01*
X-9481662Y-2263226D02*
G01*
X-9481662Y-2343223D01*
X-9339696Y-2263226D02*
G01*
X-9339696Y-2343223D01*
X-9482244Y-2205636D02*
G01*
X-9482244Y-2125637D01*
X-9451261Y-2094654D02*
G01*
X-9371263Y-2094654D01*
X-9340283Y-2205636D02*
G01*
X-9340283Y-2125637D01*
X-10149839Y1270000D02*
G01*
X-10149839Y1396492D01*
X-9946233Y1404620D02*
G01*
X-10150246Y1404620D01*
X-9946233Y1396492D02*
G01*
X-9946233Y1270507D01*
X-10150246Y1264920D02*
G01*
X-9946233Y1264920D01*
X-9997439Y1270507D02*
G01*
X-9997439Y1396492D01*
X-8257539Y1270000D02*
G01*
X-8257539Y1396492D01*
X-8053933Y1404620D02*
G01*
X-8257946Y1404620D01*
X-8053933Y1396492D02*
G01*
X-8053933Y1270507D01*
X-8257946Y1264920D02*
G01*
X-8053933Y1264920D01*
X-8105139Y1270507D02*
G01*
X-8105139Y1396492D01*
X-5740400Y2207260D02*
G01*
X-5866892Y2207260D01*
X-5875020Y2410866D02*
G01*
X-5875020Y2206853D01*
X-5866892Y2410866D02*
G01*
X-5740907Y2410866D01*
X-5735320Y2206853D02*
G01*
X-5735320Y2410866D01*
X-5740907Y2359660D02*
G01*
X-5866892Y2359660D01*
X-4254500Y2415539D02*
G01*
X-4128007Y2415539D01*
X-4119879Y2211933D02*
G01*
X-4119879Y2415946D01*
X-4128007Y2211933D02*
G01*
X-4253992Y2211933D01*
X-4259579Y2415946D02*
G01*
X-4259579Y2211933D01*
X-4253992Y2263139D02*
G01*
X-4128007Y2263139D01*
X-2349500Y2415539D02*
G01*
X-2223007Y2415539D01*
X-2214879Y2211933D02*
G01*
X-2214879Y2415946D01*
X-2223007Y2211933D02*
G01*
X-2348992Y2211933D01*
X-2354579Y2415946D02*
G01*
X-2354579Y2211933D01*
X-2348992Y2263139D02*
G01*
X-2223007Y2263139D01*
X3352800Y2415539D02*
G01*
X3479291Y2415539D01*
X3487420Y2211933D02*
G01*
X3487420Y2415946D01*
X3479291Y2211933D02*
G01*
X3353308Y2211933D01*
X3347720Y2415946D02*
G01*
X3347720Y2211933D01*
X3353308Y2263139D02*
G01*
X3479291Y2263139D01*
X5257800Y2415539D02*
G01*
X5384291Y2415539D01*
X5392420Y2211933D02*
G01*
X5392420Y2415946D01*
X5384291Y2211933D02*
G01*
X5258308Y2211933D01*
X5252720Y2415946D02*
G01*
X5252720Y2211933D01*
X5258308Y2263139D02*
G01*
X5384291Y2263139D01*
X7150100Y2415539D02*
G01*
X7276591Y2415539D01*
X7284720Y2211933D02*
G01*
X7284720Y2415946D01*
X7276591Y2211933D02*
G01*
X7150608Y2211933D01*
X7145020Y2415946D02*
G01*
X7145020Y2211933D01*
X7150608Y2263139D02*
G01*
X7276591Y2263139D01*
X9055100Y2415539D02*
G01*
X9181591Y2415539D01*
X9189720Y2211933D02*
G01*
X9189720Y2415946D01*
X9181591Y2211933D02*
G01*
X9055608Y2211933D01*
X9050020Y2415946D02*
G01*
X9050020Y2211933D01*
X9055608Y2263139D02*
G01*
X9181591Y2263139D01*
X10960100Y2415539D02*
G01*
X11086591Y2415539D01*
X11094720Y2211933D02*
G01*
X11094720Y2415946D01*
X11086591Y2211933D02*
G01*
X10960608Y2211933D01*
X10955020Y2415946D02*
G01*
X10955020Y2211933D01*
X10960608Y2263139D02*
G01*
X11086591Y2263139D01*
X-10162539Y-622300D02*
G01*
X-10162539Y-495807D01*
X-9958933Y-487679D02*
G01*
X-10162946Y-487679D01*
X-9958933Y-495807D02*
G01*
X-9958933Y-621792D01*
X-10162946Y-627379D02*
G01*
X-9958933Y-627379D01*
X-10010139Y-621792D02*
G01*
X-10010139Y-495807D01*
X-8257539Y-635000D02*
G01*
X-8257539Y-508507D01*
X-8053933Y-500379D02*
G01*
X-8257946Y-500379D01*
X-8053933Y-508507D02*
G01*
X-8053933Y-634492D01*
X-8257946Y-640079D02*
G01*
X-8053933Y-640079D01*
X-8105139Y-634492D02*
G01*
X-8105139Y-508507D01*
X-6339839Y-635000D02*
G01*
X-6339839Y-508507D01*
X-6136233Y-500379D02*
G01*
X-6340246Y-500379D01*
X-6136233Y-508507D02*
G01*
X-6136233Y-634492D01*
X-6340246Y-640079D02*
G01*
X-6136233Y-640079D01*
X-6187439Y-634492D02*
G01*
X-6187439Y-508507D01*
X-4447539Y-635000D02*
G01*
X-4447539Y-508507D01*
X-4243933Y-500379D02*
G01*
X-4447946Y-500379D01*
X-4243933Y-508507D02*
G01*
X-4243933Y-634492D01*
X-4447946Y-640079D02*
G01*
X-4243933Y-640079D01*
X-4295139Y-634492D02*
G01*
X-4295139Y-508507D01*
X-2542539Y-635000D02*
G01*
X-2542539Y-508507D01*
X-2338933Y-500379D02*
G01*
X-2542946Y-500379D01*
X-2338933Y-508507D02*
G01*
X-2338933Y-634492D01*
X-2542946Y-640079D02*
G01*
X-2338933Y-640079D01*
X-2390139Y-634492D02*
G01*
X-2390139Y-508507D01*
X3147059Y-622300D02*
G01*
X3147059Y-495807D01*
X3350666Y-487679D02*
G01*
X3146653Y-487679D01*
X3350666Y-495807D02*
G01*
X3350666Y-621792D01*
X3146653Y-627379D02*
G01*
X3350666Y-627379D01*
X3299459Y-621792D02*
G01*
X3299459Y-495807D01*
X5039359Y-622300D02*
G01*
X5039359Y-495807D01*
X5242966Y-487679D02*
G01*
X5038953Y-487679D01*
X5242966Y-495807D02*
G01*
X5242966Y-621792D01*
X5038953Y-627379D02*
G01*
X5242966Y-627379D01*
X5191759Y-621792D02*
G01*
X5191759Y-495807D01*
X6944359Y-609600D02*
G01*
X6944359Y-483107D01*
X7147966Y-474979D02*
G01*
X6943953Y-474979D01*
X7147966Y-483107D02*
G01*
X7147966Y-609092D01*
X6943953Y-614679D02*
G01*
X7147966Y-614679D01*
X7096759Y-609092D02*
G01*
X7096759Y-483107D01*
X8836659Y-609600D02*
G01*
X8836659Y-483107D01*
X9040266Y-474979D02*
G01*
X8836253Y-474979D01*
X9040266Y-483107D02*
G01*
X9040266Y-609092D01*
X8836253Y-614679D02*
G01*
X9040266Y-614679D01*
X8989059Y-609092D02*
G01*
X8989059Y-483107D01*
X10741659Y-622300D02*
G01*
X10741659Y-495807D01*
X10945266Y-487679D02*
G01*
X10741253Y-487679D01*
X10945266Y-495807D02*
G01*
X10945266Y-621792D01*
X10741253Y-627379D02*
G01*
X10945266Y-627379D01*
X10894059Y-621792D02*
G01*
X10894059Y-495807D01*
X-9829800Y-1602739D02*
G01*
X-9956292Y-1602739D01*
X-9964420Y-1399133D02*
G01*
X-9964420Y-1603146D01*
X-9956292Y-1399133D02*
G01*
X-9830308Y-1399133D01*
X-9824720Y-1603146D02*
G01*
X-9824720Y-1399133D01*
X-9830308Y-1450339D02*
G01*
X-9956292Y-1450339D01*
X-7937500Y-1602739D02*
G01*
X-8063992Y-1602739D01*
X-8072120Y-1399133D02*
G01*
X-8072120Y-1603146D01*
X-8063992Y-1399133D02*
G01*
X-7938008Y-1399133D01*
X-7932420Y-1603146D02*
G01*
X-7932420Y-1399133D01*
X-7938008Y-1450339D02*
G01*
X-8063992Y-1450339D01*
X-6032500Y-1602739D02*
G01*
X-6158992Y-1602739D01*
X-6167120Y-1399133D02*
G01*
X-6167120Y-1603146D01*
X-6158992Y-1399133D02*
G01*
X-6033007Y-1399133D01*
X-6027420Y-1603146D02*
G01*
X-6027420Y-1399133D01*
X-6033007Y-1450339D02*
G01*
X-6158992Y-1450339D01*
X-4127500Y-1602739D02*
G01*
X-4253992Y-1602739D01*
X-4262120Y-1399133D02*
G01*
X-4262120Y-1603146D01*
X-4253992Y-1399133D02*
G01*
X-4128007Y-1399133D01*
X-4122420Y-1603146D02*
G01*
X-4122420Y-1399133D01*
X-4128007Y-1450339D02*
G01*
X-4253992Y-1450339D01*
X-2235200Y-1602739D02*
G01*
X-2361692Y-1602739D01*
X-2369820Y-1399133D02*
G01*
X-2369820Y-1603146D01*
X-2361692Y-1399133D02*
G01*
X-2235707Y-1399133D01*
X-2230120Y-1603146D02*
G01*
X-2230120Y-1399133D01*
X-2235707Y-1450339D02*
G01*
X-2361692Y-1450339D01*
X-1739900Y-1602739D02*
G01*
X-1866392Y-1602739D01*
X-1874520Y-1399133D02*
G01*
X-1874520Y-1603146D01*
X-1866392Y-1399133D02*
G01*
X-1740407Y-1399133D01*
X-1734820Y-1603146D02*
G01*
X-1734820Y-1399133D01*
X-1740407Y-1450339D02*
G01*
X-1866392Y-1450339D01*
D36*
X-5314695Y-28702D02*
G01*
X-5314695Y54102D01*
X-5200904Y51307D02*
G01*
X-5200904Y-28702D01*
X-5175250Y54102D02*
G01*
X-5340350Y54102D01*
X-5340350Y54102D02*
G01*
X-5340350Y-28702D01*
X-5340350Y-28702D02*
G01*
X-5175250Y-28702D01*
X-5175250Y-28702D02*
G01*
X-5175250Y54102D01*
X-3308604Y155702D02*
G01*
X-3308604Y72897D01*
X-3422395Y75692D02*
G01*
X-3422395Y155702D01*
X-3448050Y72897D02*
G01*
X-3282950Y72897D01*
X-3282950Y72897D02*
G01*
X-3282950Y155702D01*
X-3282950Y155702D02*
G01*
X-3448050Y155702D01*
X-3448050Y155702D02*
G01*
X-3448050Y72897D01*
X-3422395Y377697D02*
G01*
X-3422395Y460502D01*
X-3308604Y457707D02*
G01*
X-3308604Y377697D01*
X-3282950Y460502D02*
G01*
X-3448050Y460502D01*
X-3448050Y460502D02*
G01*
X-3448050Y377697D01*
X-3448050Y377697D02*
G01*
X-3282950Y377697D01*
X-3282950Y377697D02*
G01*
X-3282950Y460502D01*
X-3422395Y1431797D02*
G01*
X-3422395Y1514602D01*
X-3308604Y1511807D02*
G01*
X-3308604Y1431797D01*
X-3282950Y1514602D02*
G01*
X-3448050Y1514602D01*
X-3448050Y1514602D02*
G01*
X-3448050Y1431797D01*
X-3448050Y1431797D02*
G01*
X-3282950Y1431797D01*
X-3282950Y1431797D02*
G01*
X-3282950Y1514602D01*
D10*
X-899822Y-1270698D02*
G01*
X-979825Y-1270698D01*
X-868837Y-1381673D02*
G01*
X-868837Y-1301676D01*
X-1010803Y-1381673D02*
G01*
X-1010803Y-1301676D01*
X-868255Y-1439263D02*
G01*
X-868255Y-1519262D01*
X-899238Y-1550245D02*
G01*
X-979236Y-1550245D01*
X-1010216Y-1439263D02*
G01*
X-1010216Y-1519262D01*
X979777Y-1270698D02*
G01*
X899774Y-1270698D01*
X1010762Y-1381673D02*
G01*
X1010762Y-1301676D01*
X868796Y-1381673D02*
G01*
X868796Y-1301676D01*
X1011344Y-1439263D02*
G01*
X1011344Y-1519262D01*
X980361Y-1550245D02*
G01*
X900363Y-1550245D01*
X869383Y-1439263D02*
G01*
X869383Y-1519262D01*
D36*
X-1723897Y-2203195D02*
G01*
X-1806702Y-2203195D01*
X-1803907Y-2089404D02*
G01*
X-1723897Y-2089404D01*
X-1806702Y-2063750D02*
G01*
X-1806702Y-2228850D01*
X-1806702Y-2228850D02*
G01*
X-1723897Y-2228850D01*
X-1723897Y-2228850D02*
G01*
X-1723897Y-2063750D01*
X-1723897Y-2063750D02*
G01*
X-1806702Y-2063750D01*
X-2086102Y-2089404D02*
G01*
X-2003297Y-2089404D01*
X-2006092Y-2203195D02*
G01*
X-2086102Y-2203195D01*
X-2003297Y-2228850D02*
G01*
X-2003297Y-2063750D01*
X-2003297Y-2063750D02*
G01*
X-2086102Y-2063750D01*
X-2086102Y-2063750D02*
G01*
X-2086102Y-2228850D01*
X-2086102Y-2228850D02*
G01*
X-2003297Y-2228850D01*
X-1946402Y-2089404D02*
G01*
X-1863597Y-2089404D01*
X-1866392Y-2203195D02*
G01*
X-1946402Y-2203195D01*
X-1863597Y-2228850D02*
G01*
X-1863597Y-2063750D01*
X-1863597Y-2063750D02*
G01*
X-1946402Y-2063750D01*
X-1946402Y-2063750D02*
G01*
X-1946402Y-2228850D01*
X-1946402Y-2228850D02*
G01*
X-1863597Y-2228850D01*
X-10524997Y2381504D02*
G01*
X-10607802Y2381504D01*
X-10605008Y2495295D02*
G01*
X-10524997Y2495295D01*
X-10607802Y2520950D02*
G01*
X-10607802Y2355850D01*
X-10607802Y2355850D02*
G01*
X-10524997Y2355850D01*
X-10524997Y2355850D02*
G01*
X-10524997Y2520950D01*
X-10524997Y2520950D02*
G01*
X-10607802Y2520950D01*
D10*
X1562100Y-1602739D02*
G01*
X1435607Y-1602739D01*
X1427479Y-1399133D02*
G01*
X1427479Y-1603146D01*
X1435607Y-1399133D02*
G01*
X1561592Y-1399133D01*
X1567179Y-1603146D02*
G01*
X1567179Y-1399133D01*
X1561592Y-1450339D02*
G01*
X1435607Y-1450339D01*
X3467100Y-1602739D02*
G01*
X3340608Y-1602739D01*
X3332479Y-1399133D02*
G01*
X3332479Y-1603146D01*
X3340608Y-1399133D02*
G01*
X3466591Y-1399133D01*
X3472179Y-1603146D02*
G01*
X3472179Y-1399133D01*
X3466591Y-1450339D02*
G01*
X3340608Y-1450339D01*
X5359400Y-1602739D02*
G01*
X5232908Y-1602739D01*
X5224779Y-1399133D02*
G01*
X5224779Y-1603146D01*
X5232908Y-1399133D02*
G01*
X5358891Y-1399133D01*
X5364479Y-1603146D02*
G01*
X5364479Y-1399133D01*
X5358891Y-1450339D02*
G01*
X5232908Y-1450339D01*
X7264400Y-1602739D02*
G01*
X7137908Y-1602739D01*
X7129779Y-1399133D02*
G01*
X7129779Y-1603146D01*
X7137908Y-1399133D02*
G01*
X7263891Y-1399133D01*
X7269479Y-1603146D02*
G01*
X7269479Y-1399133D01*
X7263891Y-1450339D02*
G01*
X7137908Y-1450339D01*
X9156700Y-1602739D02*
G01*
X9030208Y-1602739D01*
X9022079Y-1399133D02*
G01*
X9022079Y-1603146D01*
X9030208Y-1399133D02*
G01*
X9156191Y-1399133D01*
X9161779Y-1603146D02*
G01*
X9161779Y-1399133D01*
X9156191Y-1450339D02*
G01*
X9030208Y-1450339D01*
X11061700Y-1602739D02*
G01*
X10935208Y-1602739D01*
X10927079Y-1399133D02*
G01*
X10927079Y-1603146D01*
X10935208Y-1399133D02*
G01*
X11061191Y-1399133D01*
X11066779Y-1603146D02*
G01*
X11066779Y-1399133D01*
X11061191Y-1450339D02*
G01*
X10935208Y-1450339D01*
X575000Y-1728109D02*
G01*
X575000Y-1852396D01*
X317500Y-1852396D01*
X575000Y-1294996D02*
G01*
X575000Y-1381881D01*
X575000Y-1294996D02*
G01*
X-575000Y-1294996D01*
X-575000Y-1728109D02*
G01*
X-575000Y-1852396D01*
X-575000Y-1294996D02*
G01*
X-575000Y-1381881D01*
X-298114Y-1852396D02*
G01*
X-572500Y-1852396D01*
X-173113Y-1852396D02*
G01*
X-201884Y-1852396D01*
X-48115Y-1852396D02*
G01*
X-76883Y-1852396D01*
X76885Y-1852396D02*
G01*
X48115Y-1852396D01*
X201884Y-1852396D02*
G01*
X173116Y-1852396D01*
X326885Y-1852396D02*
G01*
X298114Y-1852396D01*
X-3226498Y226722D02*
G01*
X-3226498Y306725D01*
X-3337473Y195737D02*
G01*
X-3257476Y195737D01*
X-3337473Y337703D02*
G01*
X-3257476Y337703D01*
X-3395063Y195155D02*
G01*
X-3475062Y195155D01*
X-3506045Y226138D02*
G01*
X-3506045Y306136D01*
X-3395063Y337116D02*
G01*
X-3475062Y337116D01*
X-9628477Y-2374201D02*
G01*
X-9548474Y-2374201D01*
X-9659462Y-2263226D02*
G01*
X-9659462Y-2343223D01*
X-9517496Y-2263226D02*
G01*
X-9517496Y-2343223D01*
X-9660044Y-2205636D02*
G01*
X-9660044Y-2125637D01*
X-9629061Y-2094654D02*
G01*
X-9549063Y-2094654D01*
X-9518083Y-2205636D02*
G01*
X-9518083Y-2125637D01*
X-3028109Y375000D02*
G01*
X-3152396Y375000D01*
X-3152396Y632500D01*
X-2594996Y375000D02*
G01*
X-2681881Y375000D01*
X-2594996Y375000D02*
G01*
X-2594996Y1525000D01*
X-3028109Y1525000D02*
G01*
X-3152396Y1525000D01*
X-2594996Y1525000D02*
G01*
X-2681881Y1525000D01*
X-3152396Y1248115D02*
G01*
X-3152396Y1522501D01*
X-3152396Y1123114D02*
G01*
X-3152396Y1151884D01*
X-3152396Y998115D02*
G01*
X-3152396Y1026883D01*
X-3152396Y873114D02*
G01*
X-3152396Y901885D01*
X-3152396Y748116D02*
G01*
X-3152396Y776884D01*
X-3152396Y623115D02*
G01*
X-3152396Y651885D01*
X3028109Y1525000D02*
G01*
X3152396Y1525000D01*
X3152396Y1267500D01*
X2594996Y1525000D02*
G01*
X2681881Y1525000D01*
X2594996Y1525000D02*
G01*
X2594996Y375000D01*
X3028109Y375000D02*
G01*
X3152396Y375000D01*
X2594996Y375000D02*
G01*
X2681881Y375000D01*
X3152396Y651885D02*
G01*
X3152396Y377499D01*
X3152396Y776886D02*
G01*
X3152396Y748116D01*
X3152396Y901885D02*
G01*
X3152396Y873117D01*
X3152396Y1026886D02*
G01*
X3152396Y998115D01*
X3152396Y1151884D02*
G01*
X3152396Y1123116D01*
X3152396Y1276885D02*
G01*
X3152396Y1248115D01*
D11*
X-9024620Y-2791460D02*
G01*
X-9112097Y-2703956D01*
X-8588120Y-2476200D02*
G01*
X-8937879Y-2476200D01*
X-8588235Y-2756199D02*
G01*
X-8937993Y-2756199D01*
X-8149620Y-2791460D02*
G01*
X-8237098Y-2703956D01*
X-7713121Y-2476200D02*
G01*
X-8062879Y-2476200D01*
X-7713235Y-2756199D02*
G01*
X-8062993Y-2756199D01*
X-7274620Y-2791460D02*
G01*
X-7362098Y-2703956D01*
X-6838121Y-2476200D02*
G01*
X-7187879Y-2476200D01*
X-6838236Y-2756199D02*
G01*
X-7187994Y-2756199D01*
X-6399618Y-2791460D02*
G01*
X-6487096Y-2703956D01*
X-5963119Y-2476200D02*
G01*
X-6312877Y-2476200D01*
X-5963234Y-2756199D02*
G01*
X-6312992Y-2756199D01*
X-5524619Y-2791460D02*
G01*
X-5612096Y-2703956D01*
X-5088120Y-2476200D02*
G01*
X-5437878Y-2476200D01*
X-5088234Y-2756199D02*
G01*
X-5437992Y-2756199D01*
X-4649619Y-2791460D02*
G01*
X-4737097Y-2703956D01*
X-4213120Y-2476200D02*
G01*
X-4562878Y-2476200D01*
X-4213235Y-2756199D02*
G01*
X-4562993Y-2756199D01*
X-3774620Y-2791460D02*
G01*
X-3862097Y-2703956D01*
X-3338121Y-2476200D02*
G01*
X-3687879Y-2476200D01*
X-3338235Y-2756199D02*
G01*
X-3687993Y-2756199D01*
X-2899620Y-2791460D02*
G01*
X-2987098Y-2703956D01*
X-2463121Y-2476200D02*
G01*
X-2812879Y-2476200D01*
X-2463236Y-2756199D02*
G01*
X-2812994Y-2756199D01*
X2376380Y-2791460D02*
G01*
X2288903Y-2703956D01*
X2812879Y-2476200D02*
G01*
X2463121Y-2476200D01*
X2812765Y-2756199D02*
G01*
X2463007Y-2756199D01*
X3251380Y-2791460D02*
G01*
X3163902Y-2703956D01*
X3687879Y-2476200D02*
G01*
X3338121Y-2476200D01*
X3687765Y-2756199D02*
G01*
X3338007Y-2756199D01*
X4126379Y-2791460D02*
G01*
X4038902Y-2703956D01*
X4562878Y-2476200D02*
G01*
X4213120Y-2476200D01*
X4562764Y-2756199D02*
G01*
X4213006Y-2756199D01*
X5001381Y-2791460D02*
G01*
X4913904Y-2703956D01*
X5437880Y-2476200D02*
G01*
X5088122Y-2476200D01*
X5437766Y-2756199D02*
G01*
X5088008Y-2756199D01*
X5876381Y-2791460D02*
G01*
X5788903Y-2703956D01*
X6312880Y-2476200D02*
G01*
X5963122Y-2476200D01*
X6312766Y-2756199D02*
G01*
X5963008Y-2756199D01*
X6751380Y-2791460D02*
G01*
X6663903Y-2703956D01*
X7187879Y-2476200D02*
G01*
X6838121Y-2476200D01*
X7187765Y-2756199D02*
G01*
X6838007Y-2756199D01*
X7626380Y-2791460D02*
G01*
X7538902Y-2703956D01*
X8062879Y-2476200D02*
G01*
X7713121Y-2476200D01*
X8062765Y-2756199D02*
G01*
X7713007Y-2756199D01*
X8501379Y-2791460D02*
G01*
X8413902Y-2703956D01*
X8937879Y-2476200D02*
G01*
X8588120Y-2476200D01*
X8937764Y-2756199D02*
G01*
X8588006Y-2756199D01*
D37*
X-39999Y-2567000D02*
G01*
X-199999Y-2567000D01*
X-199999Y-2766999D01*
X-39999Y-2766999D01*
X39999Y-2766999D02*
G01*
X199999Y-2766999D01*
X199999Y-2567000D01*
X39999Y-2567000D01*
X-199999Y-2567000D02*
G01*
X-199999Y-2567000D01*
X-229999Y-2597000D01*
X-229999Y-2736999D01*
X-229999Y-2736999D01*
X-199999Y-2766999D01*
X-1043299Y-2567000D02*
G01*
X-1203299Y-2567000D01*
X-1203299Y-2766999D01*
X-1043299Y-2766999D01*
X-963300Y-2766999D02*
G01*
X-803300Y-2766999D01*
X-803300Y-2567000D01*
X-963300Y-2567000D01*
X-1203299Y-2567000D02*
G01*
X-1203299Y-2567000D01*
X-1233299Y-2597000D01*
X-1233299Y-2736999D01*
X-1233299Y-2736999D01*
X-1203299Y-2766999D01*
X963300Y-2567000D02*
G01*
X803300Y-2567000D01*
X803300Y-2766999D01*
X963300Y-2766999D01*
X1043299Y-2766999D02*
G01*
X1203299Y-2766999D01*
X1203299Y-2567000D01*
X1043299Y-2567000D01*
X803300Y-2567000D02*
G01*
X803300Y-2567000D01*
X773300Y-2597000D01*
X773300Y-2736999D01*
X773300Y-2736999D01*
X803300Y-2766999D01*
D10*
X-5510301Y1351305D02*
G01*
X-5510301Y1671294D01*
X-5640298Y1671294D02*
G01*
X-5510301Y1671294D01*
X-5640298Y1671294D02*
G01*
X-5640298Y1351305D01*
X-5510301Y1351305D02*
G01*
X-5640298Y1351305D01*
X-6617398Y696622D02*
G01*
X-6617398Y776625D01*
X-6728373Y665637D02*
G01*
X-6648376Y665637D01*
X-6728373Y807603D02*
G01*
X-6648376Y807603D01*
X-6785963Y665055D02*
G01*
X-6865962Y665055D01*
X-6896945Y696038D02*
G01*
X-6896945Y776036D01*
X-6785963Y807016D02*
G01*
X-6865962Y807016D01*
X-5995098Y-27277D02*
G01*
X-5995098Y52725D01*
X-6106073Y-58262D02*
G01*
X-6026076Y-58262D01*
X-6106073Y83703D02*
G01*
X-6026076Y83703D01*
X-6163663Y-58844D02*
G01*
X-6243662Y-58844D01*
X-6274645Y-27861D02*
G01*
X-6274645Y52136D01*
X-6163663Y83116D02*
G01*
X-6243662Y83116D01*
X-6617398Y379122D02*
G01*
X-6617398Y459125D01*
X-6728373Y348137D02*
G01*
X-6648376Y348137D01*
X-6728373Y490103D02*
G01*
X-6648376Y490103D01*
X-6785963Y347555D02*
G01*
X-6865962Y347555D01*
X-6896945Y378538D02*
G01*
X-6896945Y458536D01*
X-6785963Y489516D02*
G01*
X-6865962Y489516D01*
X-6102291Y385820D02*
G01*
X-6102291Y285826D01*
X-6002301Y285826D01*
X-6002296Y1085796D02*
G01*
X-6102294Y1085796D01*
X-6102291Y985796D01*
X-5302303Y985796D02*
G01*
X-5302303Y1085799D01*
X-5402303Y1085796D01*
X-5402303Y285803D02*
G01*
X-5302303Y285803D01*
X-5302303Y385800D01*
D36*
X-7585202Y1669795D02*
G01*
X-7502397Y1669795D01*
X-7505192Y1556004D02*
G01*
X-7585202Y1556004D01*
X-7502397Y1530350D02*
G01*
X-7502397Y1695450D01*
X-7502397Y1695450D02*
G01*
X-7585202Y1695450D01*
X-7585202Y1695450D02*
G01*
X-7585202Y1530350D01*
X-7585202Y1530350D02*
G01*
X-7502397Y1530350D01*
X-7712202Y1669795D02*
G01*
X-7629397Y1669795D01*
X-7632192Y1556004D02*
G01*
X-7712202Y1556004D01*
X-7629397Y1530350D02*
G01*
X-7629397Y1695450D01*
X-7629397Y1695450D02*
G01*
X-7712202Y1695450D01*
X-7712202Y1695450D02*
G01*
X-7712202Y1530350D01*
X-7712202Y1530350D02*
G01*
X-7629397Y1530350D01*
X-7769097Y1556004D02*
G01*
X-7851902Y1556004D01*
X-7849108Y1669795D02*
G01*
X-7769097Y1669795D01*
X-7851902Y1695450D02*
G01*
X-7851902Y1530350D01*
X-7851902Y1530350D02*
G01*
X-7769097Y1530350D01*
X-7769097Y1530350D02*
G01*
X-7769097Y1695450D01*
X-7769097Y1695450D02*
G01*
X-7851902Y1695450D01*
X-7362697Y1556004D02*
G01*
X-7445502Y1556004D01*
X-7442708Y1669795D02*
G01*
X-7362697Y1669795D01*
X-7445502Y1695450D02*
G01*
X-7445502Y1530350D01*
X-7445502Y1530350D02*
G01*
X-7362697Y1530350D01*
X-7362697Y1530350D02*
G01*
X-7362697Y1695450D01*
X-7362697Y1695450D02*
G01*
X-7445502Y1695450D01*
D10*
X-7475308Y2197635D02*
G01*
X-7475308Y2322636D01*
X-7300307Y2322636D01*
X-7300307Y2197635D01*
X-7899999Y2197849D02*
G01*
X-7899999Y2322850D01*
X-7724998Y2322850D01*
X-7724998Y2197849D01*
X-7168001Y2942851D02*
G01*
X-8031998Y2942849D01*
X-8031998Y2942849D02*
G01*
X-8031998Y2197849D01*
X-7168001Y2197849D02*
G01*
X-7168001Y2942851D01*
X-8031998Y2197849D02*
G01*
X-7168001Y2197849D01*
X549986Y149199D02*
G01*
X-550011Y149199D01*
X-550011Y-250799D01*
X549986Y-250799D01*
X549986Y149199D01*
X-5396801Y-99722D02*
G01*
X-5396801Y-179725D01*
X-5285826Y-68737D02*
G01*
X-5365823Y-68737D01*
X-5285826Y-210703D02*
G01*
X-5365823Y-210703D01*
X-5228236Y-68155D02*
G01*
X-5148237Y-68155D01*
X-5117254Y-99138D02*
G01*
X-5117254Y-179136D01*
X-5228236Y-210116D02*
G01*
X-5148237Y-210116D01*
X-5995098Y1344322D02*
G01*
X-5995098Y1424325D01*
X-6106073Y1313337D02*
G01*
X-6026076Y1313337D01*
X-6106073Y1455303D02*
G01*
X-6026076Y1455303D01*
X-6163663Y1312755D02*
G01*
X-6243662Y1312755D01*
X-6274645Y1343738D02*
G01*
X-6274645Y1423736D01*
X-6163663Y1454716D02*
G01*
X-6243662Y1454716D01*
X-3226498Y1585622D02*
G01*
X-3226498Y1665625D01*
X-3337473Y1554637D02*
G01*
X-3257476Y1554637D01*
X-3337473Y1696603D02*
G01*
X-3257476Y1696603D01*
X-3395063Y1554055D02*
G01*
X-3475062Y1554055D01*
X-3506045Y1585038D02*
G01*
X-3506045Y1665036D01*
X-3395063Y1696016D02*
G01*
X-3475062Y1696016D01*
D36*
X-745997Y-1466595D02*
G01*
X-828802Y-1466595D01*
X-826007Y-1352804D02*
G01*
X-745997Y-1352804D01*
X-828802Y-1327150D02*
G01*
X-828802Y-1492250D01*
X-828802Y-1492250D02*
G01*
X-745997Y-1492250D01*
X-745997Y-1492250D02*
G01*
X-745997Y-1327150D01*
X-745997Y-1327150D02*
G01*
X-828802Y-1327150D01*
X828802Y-1466595D02*
G01*
X745997Y-1466595D01*
X748792Y-1352804D02*
G01*
X828802Y-1352804D01*
X745997Y-1327150D02*
G01*
X745997Y-1492250D01*
X745997Y-1492250D02*
G01*
X828802Y-1492250D01*
X828802Y-1492250D02*
G01*
X828802Y-1327150D01*
X828802Y-1327150D02*
G01*
X745997Y-1327150D01*
D10*
G75*
G01*
X-6896951Y873839D02*
G03*
X-6865968Y842856I30983J0D01*
G75*
G01*
X-6865968Y984822D02*
G03*
X-6896951Y953836I0J-30983D01*
G75*
G01*
X-6648381Y843437D02*
G03*
X-6617399Y874423I0J30983D01*
G75*
G01*
X-6617399Y954420D02*
G03*
X-6648381Y985403I-30982J0D01*
G75*
G01*
X-4710849Y1005761D02*
G03*
X-4741832Y1036744I-30983J0D01*
G75*
G01*
X-4741832Y894778D02*
G03*
X-4710849Y925764I0J30983D01*
G75*
G01*
X-4959419Y1036163D02*
G03*
X-4990401Y1005177I0J-30983D01*
G75*
G01*
X-4990401Y925180D02*
G03*
X-4959419Y894197I30982J0D01*
G75*
G01*
X-9451261Y-2094649D02*
G03*
X-9482244Y-2125632I0J-30983D01*
G75*
G01*
X-9340278Y-2125632D02*
G03*
X-9371264Y-2094649I-30983J0D01*
G75*
G01*
X-9481663Y-2343219D02*
G03*
X-9450677Y-2374201I30983J0D01*
G75*
G01*
X-9370680Y-2374201D02*
G03*
X-9339697Y-2343219I0J30982D01*
G75*
G01*
X-899239Y-1550251D02*
G03*
X-868256Y-1519268I0J30983D01*
G75*
G01*
X-1010222Y-1519268D02*
G03*
X-979236Y-1550251I30983J0D01*
G75*
G01*
X-868837Y-1301681D02*
G03*
X-899823Y-1270699I-30983J0D01*
G75*
G01*
X-979820Y-1270699D02*
G03*
X-1010803Y-1301681I0J-30982D01*
G75*
G01*
X980361Y-1550251D02*
G03*
X1011344Y-1519268I0J30983D01*
G75*
G01*
X869378Y-1519268D02*
G03*
X900364Y-1550251I30983J0D01*
G75*
G01*
X1010763Y-1301681D02*
G03*
X979777Y-1270699I-30983J0D01*
G75*
G01*
X899780Y-1270699D02*
G03*
X868797Y-1301681I0J-30982D01*
G75*
G01*
X-3506051Y226139D02*
G03*
X-3475068Y195156I30983J0D01*
G75*
G01*
X-3475068Y337122D02*
G03*
X-3506051Y306136I0J-30983D01*
G75*
G01*
X-3257481Y195737D02*
G03*
X-3226499Y226723I0J30983D01*
G75*
G01*
X-3226499Y306720D02*
G03*
X-3257481Y337703I-30982J0D01*
G75*
G01*
X-9629061Y-2094649D02*
G03*
X-9660044Y-2125632I0J-30983D01*
G75*
G01*
X-9518078Y-2125632D02*
G03*
X-9549064Y-2094649I-30983J0D01*
G75*
G01*
X-9659463Y-2343219D02*
G03*
X-9628477Y-2374201I30983J0D01*
G75*
G01*
X-9548480Y-2374201D02*
G03*
X-9517497Y-2343219I0J30982D01*
G75*
G01*
X-6896951Y696039D02*
G03*
X-6865968Y665056I30983J0D01*
G75*
G01*
X-6865968Y807022D02*
G03*
X-6896951Y776036I0J-30983D01*
G75*
G01*
X-6648381Y665637D02*
G03*
X-6617399Y696623I0J30983D01*
G75*
G01*
X-6617399Y776620D02*
G03*
X-6648381Y807603I-30982J0D01*
G75*
G01*
X-6274651Y-27861D02*
G03*
X-6243668Y-58844I30983J0D01*
G75*
G01*
X-6243668Y83122D02*
G03*
X-6274651Y52136I0J-30983D01*
G75*
G01*
X-6026081Y-58263D02*
G03*
X-5995099Y-27277I0J30983D01*
G75*
G01*
X-5995099Y52720D02*
G03*
X-6026081Y83703I-30982J0D01*
G75*
G01*
X-6896951Y378539D02*
G03*
X-6865968Y347556I30983J0D01*
G75*
G01*
X-6865968Y489522D02*
G03*
X-6896951Y458536I0J-30983D01*
G75*
G01*
X-6648381Y348137D02*
G03*
X-6617399Y379123I0J30983D01*
G75*
G01*
X-6617399Y459120D02*
G03*
X-6648381Y490103I-30982J0D01*
G75*
G01*
X-5117249Y-99139D02*
G03*
X-5148232Y-68156I-30983J0D01*
G75*
G01*
X-5148232Y-210122D02*
G03*
X-5117249Y-179136I0J30983D01*
G75*
G01*
X-5365819Y-68737D02*
G03*
X-5396801Y-99723I0J-30983D01*
G75*
G01*
X-5396801Y-179720D02*
G03*
X-5365819Y-210703I30982J0D01*
G75*
G01*
X-6274651Y1343739D02*
G03*
X-6243668Y1312756I30983J0D01*
G75*
G01*
X-6243668Y1454722D02*
G03*
X-6274651Y1423736I0J-30983D01*
G75*
G01*
X-6026081Y1313337D02*
G03*
X-5995099Y1344323I0J30983D01*
G75*
G01*
X-5995099Y1424320D02*
G03*
X-6026081Y1455303I-30982J0D01*
G75*
G01*
X-3506051Y1585039D02*
G03*
X-3475068Y1554056I30983J0D01*
G75*
G01*
X-3475068Y1696022D02*
G03*
X-3506051Y1665036I0J-30983D01*
G75*
G01*
X-3257481Y1554637D02*
G03*
X-3226499Y1585623I0J30983D01*
G75*
G01*
X-3226499Y1665620D02*
G03*
X-3257481Y1696603I-30982J0D01*
G75*
G01
X-503733Y-1801597D02*
G03X-503733Y-1801597I-17958J0D01*
G75*
G01
X-3083611Y1471701D02*
G03X-3083611Y1471701I-17958J0D01*
G75*
G01
X3119552Y428295D02*
G03X3119552Y428295I-17958J0D01*
G75*
G01
X-6154826Y305791D02*
G03X-6154826Y305791I-12497J0D01*
M02*
