  0
SECTION
  2
HEADER
  9
$ACADVER
  1
AC1009
  9
$EXTMIN
 10
0.0
 20
0.0
 30
0.0
  9
$EXTMAX
 10
1000.0
 20
1000.0
 30
0.0
  9
$FILLMODE
 70
 0
  9
$SPLFRAME
 70
 1
  0
ENDSEC
  0
SECTION
  2
TABLES
  0
TABLE
  2
LAYER
 70
1
  0
LAYER
  2
0
 70
     0
 62
     7
  6
CONTINUOUS
  0
ENDTAB
  0
ENDSEC
  0
SECTION
  2
ENTITIES
  0
LINE
  8
0
 62
     0
 10
306.896
 20
119.144
 30
0.0
 11
307.053
 21
119.137
 31
0.0
  0
LINE
  8
0
 62
     0
 10
307.053
 20
119.137
 30
0.0
 11
307.209
 21
119.119
 31
0.0
  0
LINE
  8
0
 62
     0
 10
307.209
 20
119.119
 30
0.0
 11
307.363
 21
119.089
 31
0.0
  0
LINE
  8
0
 62
     0
 10
307.363
 20
119.089
 30
0.0
 11
307.515
 21
119.046
 31
0.0
  0
LINE
  8
0
 62
     0
 10
307.515
 20
119.046
 30
0.0
 11
307.661
 21
118.991
 31
0.0
  0
LINE
  8
0
 62
     0
 10
307.661
 20
118.991
 30
0.0
 11
307.804
 21
118.926
 31
0.0
  0
LINE
  8
0
 62
     0
 10
307.804
 20
118.926
 30
0.0
 11
307.94
 21
118.849
 31
0.0
  0
LINE
  8
0
 62
     0
 10
307.94
 20
118.849
 30
0.0
 11
308.071
 21
118.762
 31
0.0
  0
LINE
  8
0
 62
     0
 10
308.071
 20
118.762
 30
0.0
 11
308.194
 21
118.664
 31
0.0
  0
LINE
  8
0
 62
     0
 10
308.194
 20
118.664
 30
0.0
 11
308.31
 21
118.558
 31
0.0
  0
LINE
  8
0
 62
     0
 10
308.31
 20
118.558
 30
0.0
 11
308.416
 21
118.442
 31
0.0
  0
LINE
  8
0
 62
     0
 10
308.416
 20
118.442
 30
0.0
 11
308.514
 21
118.32
 31
0.0
  0
LINE
  8
0
 62
     0
 10
308.514
 20
118.32
 30
0.0
 11
308.602
 21
118.189
 31
0.0
  0
LINE
  8
0
 62
     0
 10
308.602
 20
118.189
 30
0.0
 11
308.678
 21
118.051
 31
0.0
  0
LINE
  8
0
 62
     0
 10
308.678
 20
118.051
 30
0.0
 11
308.744
 21
117.909
 31
0.0
  0
LINE
  8
0
 62
     0
 10
308.744
 20
117.909
 30
0.0
 11
308.799
 21
117.763
 31
0.0
  0
LINE
  8
0
 62
     0
 10
308.799
 20
117.763
 30
0.0
 11
308.84
 21
117.61
 31
0.0
  0
LINE
  8
0
 62
     0
 10
308.84
 20
117.61
 30
0.0
 11
308.872
 21
117.457
 31
0.0
  0
LINE
  8
0
 62
     0
 10
308.872
 20
117.457
 30
0.0
 11
308.89
 21
117.3
 31
0.0
  0
LINE
  8
0
 62
     0
 10
308.89
 20
117.3
 30
0.0
 11
308.897
 21
117.143
 31
0.0
  0
LINE
  8
0
 62
     0
 10
308.897
 20
117.143
 30
0.0
 11
308.897
 21
2.34404
 31
0.0
  0
LINE
  8
0
 62
     0
 10
308.897
 20
2.34404
 30
0.0
 11
308.89
 21
2.18695
 31
0.0
  0
LINE
  8
0
 62
     0
 10
308.89
 20
2.18695
 30
0.0
 11
308.872
 21
2.02985
 31
0.0
  0
LINE
  8
0
 62
     0
 10
308.872
 20
2.02985
 30
0.0
 11
308.84
 21
1.87689
 31
0.0
  0
LINE
  8
0
 62
     0
 10
308.84
 20
1.87689
 30
0.0
 11
308.799
 21
1.72393
 31
0.0
  0
LINE
  8
0
 62
     0
 10
308.799
 20
1.72393
 30
0.0
 11
308.744
 21
1.57786
 31
0.0
  0
LINE
  8
0
 62
     0
 10
308.744
 20
1.57786
 30
0.0
 11
308.678
 21
1.43591
 31
0.0
  0
LINE
  8
0
 62
     0
 10
308.678
 20
1.43591
 30
0.0
 11
308.602
 21
1.29811
 31
0.0
  0
LINE
  8
0
 62
     0
 10
308.602
 20
1.29811
 30
0.0
 11
308.514
 21
1.1672
 31
0.0
  0
LINE
  8
0
 62
     0
 10
308.514
 20
1.1672
 30
0.0
 11
308.416
 21
1.04455
 31
0.0
  0
LINE
  8
0
 62
     0
 10
308.416
 20
1.04455
 30
0.0
 11
308.31
 21
0.928797
 31
0.0
  0
LINE
  8
0
 62
     0
 10
308.31
 20
0.928797
 30
0.0
 11
308.194
 21
0.822688
 31
0.0
  0
LINE
  8
0
 62
     0
 10
308.194
 20
0.822688
 30
0.0
 11
308.071
 21
0.724849
 31
0.0
  0
LINE
  8
0
 62
     0
 10
308.071
 20
0.724849
 30
0.0
 11
307.94
 21
0.63803
 31
0.0
  0
LINE
  8
0
 62
     0
 10
307.94
 20
0.63803
 30
0.0
 11
307.804
 21
0.56086
 31
0.0
  0
LINE
  8
0
 62
     0
 10
307.804
 20
0.56086
 30
0.0
 11
307.661
 21
0.494714
 31
0.0
  0
LINE
  8
0
 62
     0
 10
307.661
 20
0.494714
 30
0.0
 11
307.515
 21
0.440972
 31
0.0
  0
LINE
  8
0
 62
     0
 10
307.515
 20
0.440972
 30
0.0
 11
307.363
 21
0.398254
 31
0.0
  0
LINE
  8
0
 62
     0
 10
307.363
 20
0.398254
 30
0.0
 11
307.209
 21
0.367937
 31
0.0
  0
LINE
  8
0
 62
     0
 10
307.209
 20
0.367937
 30
0.0
 11
307.053
 21
0.350022
 31
0.0
  0
LINE
  8
0
 62
     0
 10
307.053
 20
0.350022
 30
0.0
 11
306.896
 21
0.343131
 31
0.0
  0
LINE
  8
0
 62
     0
 10
306.896
 20
0.343131
 30
0.0
 11
2.096
 21
0.343131
 31
0.0
  0
LINE
  8
0
 62
     0
 10
2.096
 20
0.343131
 30
0.0
 11
1.9389
 21
0.350022
 31
0.0
  0
LINE
  8
0
 62
     0
 10
1.9389
 20
0.350022
 30
0.0
 11
1.7818
 21
0.367937
 31
0.0
  0
LINE
  8
0
 62
     0
 10
1.7818
 20
0.367937
 30
0.0
 11
1.62884
 21
0.398254
 31
0.0
  0
LINE
  8
0
 62
     0
 10
1.62884
 20
0.398254
 30
0.0
 11
1.47588
 21
0.440972
 31
0.0
  0
LINE
  8
0
 62
     0
 10
1.47588
 20
0.440972
 30
0.0
 11
1.32981
 21
0.494714
 31
0.0
  0
LINE
  8
0
 62
     0
 10
1.32981
 20
0.494714
 30
0.0
 11
1.18787
 21
0.56086
 31
0.0
  0
LINE
  8
0
 62
     0
 10
1.18787
 20
0.56086
 30
0.0
 11
1.05006
 21
0.63803
 31
0.0
  0
LINE
  8
0
 62
     0
 10
1.05006
 20
0.63803
 30
0.0
 11
0.919152
 21
0.724849
 31
0.0
  0
LINE
  8
0
 62
     0
 10
0.919152
 20
0.724849
 30
0.0
 11
0.796505
 21
0.822688
 31
0.0
  0
LINE
  8
0
 62
     0
 10
0.796505
 20
0.822688
 30
0.0
 11
0.680752
 21
0.928797
 31
0.0
  0
LINE
  8
0
 62
     0
 10
0.680752
 20
0.928797
 30
0.0
 11
0.574643
 21
1.04455
 31
0.0
  0
LINE
  8
0
 62
     0
 10
0.574643
 20
1.04455
 30
0.0
 11
0.4768
 21
1.1672
 31
0.0
  0
LINE
  8
0
 62
     0
 10
0.4768
 20
1.1672
 30
0.0
 11
0.389985
 21
1.29811
 31
0.0
  0
LINE
  8
0
 62
     0
 10
0.389985
 20
1.29811
 30
0.0
 11
0.312815
 21
1.43591
 31
0.0
  0
LINE
  8
0
 62
     0
 10
0.312815
 20
1.43591
 30
0.0
 11
0.248047
 21
1.57786
 31
0.0
  0
LINE
  8
0
 62
     0
 10
0.248047
 20
1.57786
 30
0.0
 11
0.192925
 21
1.72393
 31
0.0
  0
LINE
  8
0
 62
     0
 10
0.192925
 20
1.72393
 30
0.0
 11
0.150206
 21
1.87689
 31
0.0
  0
LINE
  8
0
 62
     0
 10
0.150206
 20
1.87689
 30
0.0
 11
0.119889
 21
2.02985
 31
0.0
  0
LINE
  8
0
 62
     0
 10
0.119889
 20
2.02985
 30
0.0
 11
0.101975
 21
2.18695
 31
0.0
  0
LINE
  8
0
 62
     0
 10
0.101975
 20
2.18695
 30
0.0
 11
0.0950846
 21
2.34267
 31
0.0
  0
LINE
  8
0
 62
     0
 10
0.0950846
 20
2.34267
 30
0.0
 11
0.0950846
 21
117.143
 31
0.0
  0
LINE
  8
0
 62
     0
 10
0.0950846
 20
117.143
 30
0.0
 11
0.101975
 21
117.3
 31
0.0
  0
LINE
  8
0
 62
     0
 10
0.101975
 20
117.3
 30
0.0
 11
0.119889
 21
117.457
 31
0.0
  0
LINE
  8
0
 62
     0
 10
0.119889
 20
117.457
 30
0.0
 11
0.150206
 21
117.61
 31
0.0
  0
LINE
  8
0
 62
     0
 10
0.150206
 20
117.61
 30
0.0
 11
0.192925
 21
117.763
 31
0.0
  0
LINE
  8
0
 62
     0
 10
0.192925
 20
117.763
 30
0.0
 11
0.248047
 21
117.909
 31
0.0
  0
LINE
  8
0
 62
     0
 10
0.248047
 20
117.909
 30
0.0
 11
0.312815
 21
118.051
 31
0.0
  0
LINE
  8
0
 62
     0
 10
0.312815
 20
118.051
 30
0.0
 11
0.389985
 21
118.189
 31
0.0
  0
LINE
  8
0
 62
     0
 10
0.389985
 20
118.189
 30
0.0
 11
0.4768
 21
118.32
 31
0.0
  0
LINE
  8
0
 62
     0
 10
0.4768
 20
118.32
 30
0.0
 11
0.574643
 21
118.442
 31
0.0
  0
LINE
  8
0
 62
     0
 10
0.574643
 20
118.442
 30
0.0
 11
0.680752
 21
118.558
 31
0.0
  0
LINE
  8
0
 62
     0
 10
0.680752
 20
118.558
 30
0.0
 11
0.796505
 21
118.664
 31
0.0
  0
LINE
  8
0
 62
     0
 10
0.796505
 20
118.664
 30
0.0
 11
0.919152
 21
118.762
 31
0.0
  0
LINE
  8
0
 62
     0
 10
0.919152
 20
118.762
 30
0.0
 11
1.05006
 21
118.849
 31
0.0
  0
LINE
  8
0
 62
     0
 10
1.05006
 20
118.849
 30
0.0
 11
1.18787
 21
118.926
 31
0.0
  0
LINE
  8
0
 62
     0
 10
1.18787
 20
118.926
 30
0.0
 11
1.32981
 21
118.991
 31
0.0
  0
LINE
  8
0
 62
     0
 10
1.32981
 20
118.991
 30
0.0
 11
1.47588
 21
119.046
 31
0.0
  0
LINE
  8
0
 62
     0
 10
1.47588
 20
119.046
 30
0.0
 11
1.62884
 21
119.089
 31
0.0
  0
LINE
  8
0
 62
     0
 10
1.62884
 20
119.089
 30
0.0
 11
1.7818
 21
119.119
 31
0.0
  0
LINE
  8
0
 62
     0
 10
1.7818
 20
119.119
 30
0.0
 11
1.9389
 21
119.137
 31
0.0
  0
LINE
  8
0
 62
     0
 10
1.9389
 20
119.137
 30
0.0
 11
2.096
 21
119.144
 31
0.0
  0
LINE
  8
0
 62
     0
 10
2.096
 20
119.144
 30
0.0
 11
306.896
 21
119.144
 31
0.0
  0
LINE
  8
0
 62
     0
 10
290.371
 20
18.8695
 30
0.0
 11
304.37
 21
18.8695
 31
0.0
  0
LINE
  8
0
 62
     0
 10
304.37
 20
18.8695
 30
0.0
 11
304.37
 21
4.86999
 31
0.0
  0
LINE
  8
0
 62
     0
 10
304.37
 20
4.86999
 30
0.0
 11
290.371
 21
4.86999
 31
0.0
  0
LINE
  8
0
 62
     0
 10
290.371
 20
4.86999
 30
0.0
 11
290.371
 21
18.8695
 31
0.0
  0
LINE
  8
0
 62
     0
 10
271.321
 20
18.8695
 30
0.0
 11
285.32
 21
18.8695
 31
0.0
  0
LINE
  8
0
 62
     0
 10
285.32
 20
18.8695
 30
0.0
 11
285.32
 21
4.86999
 31
0.0
  0
LINE
  8
0
 62
     0
 10
285.32
 20
4.86999
 30
0.0
 11
271.321
 21
4.86999
 31
0.0
  0
LINE
  8
0
 62
     0
 10
271.321
 20
4.86999
 30
0.0
 11
271.321
 21
18.8695
 31
0.0
  0
LINE
  8
0
 62
     0
 10
252.271
 20
18.8695
 30
0.0
 11
266.27
 21
18.8695
 31
0.0
  0
LINE
  8
0
 62
     0
 10
266.27
 20
18.8695
 30
0.0
 11
266.27
 21
4.86999
 31
0.0
  0
LINE
  8
0
 62
     0
 10
266.27
 20
4.86999
 30
0.0
 11
252.271
 21
4.86999
 31
0.0
  0
LINE
  8
0
 62
     0
 10
252.271
 20
4.86999
 30
0.0
 11
252.271
 21
18.8695
 31
0.0
  0
LINE
  8
0
 62
     0
 10
233.221
 20
18.8695
 30
0.0
 11
247.22
 21
18.8695
 31
0.0
  0
LINE
  8
0
 62
     0
 10
247.22
 20
18.8695
 30
0.0
 11
247.22
 21
4.86999
 31
0.0
  0
LINE
  8
0
 62
     0
 10
247.22
 20
4.86999
 30
0.0
 11
233.221
 21
4.86999
 31
0.0
  0
LINE
  8
0
 62
     0
 10
233.221
 20
4.86999
 30
0.0
 11
233.221
 21
18.8695
 31
0.0
  0
LINE
  8
0
 62
     0
 10
214.171
 20
18.8695
 30
0.0
 11
228.17
 21
18.8695
 31
0.0
  0
LINE
  8
0
 62
     0
 10
228.17
 20
18.8695
 30
0.0
 11
228.17
 21
4.86999
 31
0.0
  0
LINE
  8
0
 62
     0
 10
228.17
 20
4.86999
 30
0.0
 11
214.171
 21
4.86999
 31
0.0
  0
LINE
  8
0
 62
     0
 10
214.171
 20
4.86999
 30
0.0
 11
214.171
 21
18.8695
 31
0.0
  0
LINE
  8
0
 62
     0
 10
195.121
 20
18.8695
 30
0.0
 11
209.12
 21
18.8695
 31
0.0
  0
LINE
  8
0
 62
     0
 10
209.12
 20
18.8695
 30
0.0
 11
209.12
 21
4.86999
 31
0.0
  0
LINE
  8
0
 62
     0
 10
209.12
 20
4.86999
 30
0.0
 11
195.121
 21
4.86999
 31
0.0
  0
LINE
  8
0
 62
     0
 10
195.121
 20
4.86999
 30
0.0
 11
195.121
 21
18.8695
 31
0.0
  0
LINE
  8
0
 62
     0
 10
176.071
 20
18.8695
 30
0.0
 11
190.07
 21
18.8695
 31
0.0
  0
LINE
  8
0
 62
     0
 10
190.07
 20
18.8695
 30
0.0
 11
190.07
 21
4.86999
 31
0.0
  0
LINE
  8
0
 62
     0
 10
190.07
 20
4.86999
 30
0.0
 11
176.071
 21
4.86999
 31
0.0
  0
LINE
  8
0
 62
     0
 10
176.071
 20
4.86999
 30
0.0
 11
176.071
 21
18.8695
 31
0.0
  0
LINE
  8
0
 62
     0
 10
152.258
 20
18.8695
 30
0.0
 11
166.257
 21
18.8695
 31
0.0
  0
LINE
  8
0
 62
     0
 10
166.257
 20
18.8695
 30
0.0
 11
166.257
 21
4.86999
 31
0.0
  0
LINE
  8
0
 62
     0
 10
166.257
 20
4.86999
 30
0.0
 11
152.258
 21
4.86999
 31
0.0
  0
LINE
  8
0
 62
     0
 10
152.258
 20
4.86999
 30
0.0
 11
152.258
 21
18.8695
 31
0.0
  0
LINE
  8
0
 62
     0
 10
128.446
 20
18.8695
 30
0.0
 11
142.445
 21
18.8695
 31
0.0
  0
LINE
  8
0
 62
     0
 10
142.445
 20
18.8695
 30
0.0
 11
142.445
 21
4.86999
 31
0.0
  0
LINE
  8
0
 62
     0
 10
142.445
 20
4.86999
 30
0.0
 11
128.446
 21
4.86999
 31
0.0
  0
LINE
  8
0
 62
     0
 10
128.446
 20
4.86999
 30
0.0
 11
128.446
 21
18.8695
 31
0.0
  0
LINE
  8
0
 62
     0
 10
109.394
 20
18.8695
 30
0.0
 11
123.395
 21
18.8695
 31
0.0
  0
LINE
  8
0
 62
     0
 10
123.395
 20
18.8695
 30
0.0
 11
123.395
 21
4.86999
 31
0.0
  0
LINE
  8
0
 62
     0
 10
123.395
 20
4.86999
 30
0.0
 11
109.394
 21
4.86999
 31
0.0
  0
LINE
  8
0
 62
     0
 10
109.394
 20
4.86999
 30
0.0
 11
109.394
 21
18.8695
 31
0.0
  0
LINE
  8
0
 62
     0
 10
90.3443
 20
18.8695
 30
0.0
 11
104.345
 21
18.8695
 31
0.0
  0
LINE
  8
0
 62
     0
 10
104.345
 20
18.8695
 30
0.0
 11
104.345
 21
4.86999
 31
0.0
  0
LINE
  8
0
 62
     0
 10
104.345
 20
4.86999
 30
0.0
 11
90.3443
 21
4.86999
 31
0.0
  0
LINE
  8
0
 62
     0
 10
90.3443
 20
4.86999
 30
0.0
 11
90.3443
 21
18.8695
 31
0.0
  0
LINE
  8
0
 62
     0
 10
71.2943
 20
18.8695
 30
0.0
 11
85.295
 21
18.8695
 31
0.0
  0
LINE
  8
0
 62
     0
 10
85.295
 20
18.8695
 30
0.0
 11
85.295
 21
4.86999
 31
0.0
  0
LINE
  8
0
 62
     0
 10
85.295
 20
4.86999
 30
0.0
 11
71.2943
 21
4.86999
 31
0.0
  0
LINE
  8
0
 62
     0
 10
71.2943
 20
4.86999
 30
0.0
 11
71.2943
 21
18.8695
 31
0.0
  0
LINE
  8
0
 62
     0
 10
49.863
 20
18.8695
 30
0.0
 11
63.8637
 21
18.8695
 31
0.0
  0
LINE
  8
0
 62
     0
 10
63.8637
 20
18.8695
 30
0.0
 11
63.8637
 21
4.86999
 31
0.0
  0
LINE
  8
0
 62
     0
 10
63.8637
 20
4.86999
 30
0.0
 11
49.863
 21
4.86999
 31
0.0
  0
LINE
  8
0
 62
     0
 10
49.863
 20
4.86999
 30
0.0
 11
49.863
 21
18.8695
 31
0.0
  0
LINE
  8
0
 62
     0
 10
28.4331
 20
18.8695
 30
0.0
 11
42.4325
 21
18.8695
 31
0.0
  0
LINE
  8
0
 62
     0
 10
42.4325
 20
18.8695
 30
0.0
 11
42.4325
 21
4.86999
 31
0.0
  0
LINE
  8
0
 62
     0
 10
42.4325
 20
4.86999
 30
0.0
 11
28.4331
 21
4.86999
 31
0.0
  0
LINE
  8
0
 62
     0
 10
28.4331
 20
4.86999
 30
0.0
 11
28.4331
 21
18.8695
 31
0.0
  0
LINE
  8
0
 62
     0
 10
7.00183
 20
18.8695
 30
0.0
 11
21.0013
 21
18.8695
 31
0.0
  0
LINE
  8
0
 62
     0
 10
21.0013
 20
18.8695
 30
0.0
 11
21.0013
 21
4.86999
 31
0.0
  0
LINE
  8
0
 62
     0
 10
21.0013
 20
4.86999
 30
0.0
 11
7.00183
 21
4.86999
 31
0.0
  0
LINE
  8
0
 62
     0
 10
7.00183
 20
4.86999
 30
0.0
 11
7.00183
 21
18.8695
 31
0.0
  0
LINE
  8
0
 62
     0
 10
16.5268
 20
37.918
 30
0.0
 11
16.5268
 21
33.219
 31
0.0
  0
LINE
  8
0
 62
     0
 10
16.5268
 20
33.219
 30
0.0
 11
15.0013
 21
33.219
 31
0.0
  0
LINE
  8
0
 62
     0
 10
15.0013
 20
33.219
 30
0.0
 11
15.0013
 21
36.4476
 31
0.0
  0
LINE
  8
0
 62
     0
 10
15.0013
 20
36.4476
 30
0.0
 11
13.276
 21
36.4476
 31
0.0
  0
LINE
  8
0
 62
     0
 10
13.276
 20
36.4476
 30
0.0
 11
13.276
 21
37.3698
 31
0.0
  0
LINE
  8
0
 62
     0
 10
13.276
 20
37.3698
 30
0.0
 11
9.97701
 21
37.3698
 31
0.0
  0
LINE
  8
0
 62
     0
 10
9.97701
 20
37.3698
 30
0.0
 11
9.97701
 21
36.4476
 31
0.0
  0
LINE
  8
0
 62
     0
 10
9.97701
 20
36.4476
 30
0.0
 11
8.25168
 21
36.4476
 31
0.0
  0
LINE
  8
0
 62
     0
 10
8.25168
 20
36.4476
 30
0.0
 11
8.25168
 21
33.219
 31
0.0
  0
LINE
  8
0
 62
     0
 10
8.25168
 20
33.219
 30
0.0
 11
7.42625
 21
33.219
 31
0.0
  0
LINE
  8
0
 62
     0
 10
7.42625
 20
33.219
 30
0.0
 11
7.42625
 21
30.4188
 31
0.0
  0
LINE
  8
0
 62
     0
 10
7.42625
 20
30.4188
 30
0.0
 11
8.25168
 21
30.4188
 31
0.0
  0
LINE
  8
0
 62
     0
 10
8.25168
 20
30.4188
 30
0.0
 11
8.25168
 21
24.1487
 31
0.0
  0
LINE
  8
0
 62
     0
 10
8.25168
 20
24.1487
 30
0.0
 11
9.97701
 21
24.1487
 31
0.0
  0
LINE
  8
0
 62
     0
 10
9.97701
 20
24.1487
 30
0.0
 11
9.97701
 21
23.169
 31
0.0
  0
LINE
  8
0
 62
     0
 10
9.97701
 20
23.169
 30
0.0
 11
13.276
 21
23.169
 31
0.0
  0
LINE
  8
0
 62
     0
 10
13.276
 20
23.169
 30
0.0
 11
13.276
 21
24.1487
 31
0.0
  0
LINE
  8
0
 62
     0
 10
13.276
 20
24.1487
 30
0.0
 11
15.0013
 21
24.1487
 31
0.0
  0
LINE
  8
0
 62
     0
 10
15.0013
 20
24.1487
 30
0.0
 11
15.0013
 21
28.6191
 31
0.0
  0
LINE
  8
0
 62
     0
 10
15.0013
 20
28.6191
 30
0.0
 11
16.5268
 21
28.6191
 31
0.0
  0
LINE
  8
0
 62
     0
 10
16.5268
 20
28.6191
 30
0.0
 11
16.5268
 21
23.9186
 31
0.0
  0
LINE
  8
0
 62
     0
 10
16.5268
 20
23.9186
 30
0.0
 11
30.5263
 21
23.9186
 31
0.0
  0
LINE
  8
0
 62
     0
 10
30.5263
 20
23.9186
 30
0.0
 11
30.5263
 21
28.6191
 31
0.0
  0
LINE
  8
0
 62
     0
 10
30.5263
 20
28.6191
 30
0.0
 11
32.0518
 21
28.6191
 31
0.0
  0
LINE
  8
0
 62
     0
 10
32.0518
 20
28.6191
 30
0.0
 11
32.0518
 21
24.1487
 31
0.0
  0
LINE
  8
0
 62
     0
 10
32.0518
 20
24.1487
 30
0.0
 11
33.7771
 21
24.1487
 31
0.0
  0
LINE
  8
0
 62
     0
 10
33.7771
 20
24.1487
 30
0.0
 11
33.7771
 21
23.169
 31
0.0
  0
LINE
  8
0
 62
     0
 10
33.7771
 20
23.169
 30
0.0
 11
37.0762
 21
23.169
 31
0.0
  0
LINE
  8
0
 62
     0
 10
37.0762
 20
23.169
 30
0.0
 11
37.0762
 21
24.1487
 31
0.0
  0
LINE
  8
0
 62
     0
 10
37.0762
 20
24.1487
 30
0.0
 11
38.8013
 21
24.1487
 31
0.0
  0
LINE
  8
0
 62
     0
 10
38.8013
 20
24.1487
 30
0.0
 11
38.8013
 21
30.4188
 31
0.0
  0
LINE
  8
0
 62
     0
 10
38.8013
 20
30.4188
 30
0.0
 11
39.6268
 21
30.4188
 31
0.0
  0
LINE
  8
0
 62
     0
 10
39.6268
 20
30.4188
 30
0.0
 11
39.6268
 21
33.219
 31
0.0
  0
LINE
  8
0
 62
     0
 10
39.6268
 20
33.219
 30
0.0
 11
38.8013
 21
33.219
 31
0.0
  0
LINE
  8
0
 62
     0
 10
38.8013
 20
33.219
 30
0.0
 11
38.8013
 21
36.4476
 31
0.0
  0
LINE
  8
0
 62
     0
 10
38.8013
 20
36.4476
 30
0.0
 11
37.0762
 21
36.4476
 31
0.0
  0
LINE
  8
0
 62
     0
 10
37.0762
 20
36.4476
 30
0.0
 11
37.0762
 21
37.3698
 31
0.0
  0
LINE
  8
0
 62
     0
 10
37.0762
 20
37.3698
 30
0.0
 11
33.7771
 21
37.3698
 31
0.0
  0
LINE
  8
0
 62
     0
 10
33.7771
 20
37.3698
 30
0.0
 11
33.7771
 21
36.4476
 31
0.0
  0
LINE
  8
0
 62
     0
 10
33.7771
 20
36.4476
 30
0.0
 11
32.0518
 21
36.4476
 31
0.0
  0
LINE
  8
0
 62
     0
 10
32.0518
 20
36.4476
 30
0.0
 11
32.0518
 21
33.219
 31
0.0
  0
LINE
  8
0
 62
     0
 10
32.0518
 20
33.219
 30
0.0
 11
30.5263
 21
33.219
 31
0.0
  0
LINE
  8
0
 62
     0
 10
30.5263
 20
33.219
 30
0.0
 11
30.5263
 21
37.918
 31
0.0
  0
LINE
  8
0
 62
     0
 10
30.5263
 20
37.918
 30
0.0
 11
16.5268
 21
37.918
 31
0.0
  0
LINE
  8
0
 62
     0
 10
290.371
 20
37.918
 30
0.0
 11
304.37
 21
37.918
 31
0.0
  0
LINE
  8
0
 62
     0
 10
304.37
 20
37.918
 30
0.0
 11
304.37
 21
23.9186
 31
0.0
  0
LINE
  8
0
 62
     0
 10
304.37
 20
23.9186
 30
0.0
 11
290.371
 21
23.9186
 31
0.0
  0
LINE
  8
0
 62
     0
 10
290.371
 20
23.9186
 30
0.0
 11
290.371
 21
37.918
 31
0.0
  0
LINE
  8
0
 62
     0
 10
271.321
 20
37.918
 30
0.0
 11
285.32
 21
37.918
 31
0.0
  0
LINE
  8
0
 62
     0
 10
285.32
 20
37.918
 30
0.0
 11
285.32
 21
23.9186
 31
0.0
  0
LINE
  8
0
 62
     0
 10
285.32
 20
23.9186
 30
0.0
 11
271.321
 21
23.9186
 31
0.0
  0
LINE
  8
0
 62
     0
 10
271.321
 20
23.9186
 30
0.0
 11
271.321
 21
37.918
 31
0.0
  0
LINE
  8
0
 62
     0
 10
245.127
 20
37.918
 30
0.0
 11
259.126
 21
37.918
 31
0.0
  0
LINE
  8
0
 62
     0
 10
259.126
 20
37.918
 30
0.0
 11
259.126
 21
23.9186
 31
0.0
  0
LINE
  8
0
 62
     0
 10
259.126
 20
23.9186
 30
0.0
 11
245.127
 21
23.9186
 31
0.0
  0
LINE
  8
0
 62
     0
 10
245.127
 20
23.9186
 30
0.0
 11
245.127
 21
37.918
 31
0.0
  0
LINE
  8
0
 62
     0
 10
218.933
 20
37.918
 30
0.0
 11
232.932
 21
37.918
 31
0.0
  0
LINE
  8
0
 62
     0
 10
232.932
 20
37.918
 30
0.0
 11
232.932
 21
23.9186
 31
0.0
  0
LINE
  8
0
 62
     0
 10
232.932
 20
23.9186
 30
0.0
 11
218.933
 21
23.9186
 31
0.0
  0
LINE
  8
0
 62
     0
 10
218.933
 20
23.9186
 30
0.0
 11
218.933
 21
37.918
 31
0.0
  0
LINE
  8
0
 62
     0
 10
199.883
 20
37.918
 30
0.0
 11
213.882
 21
37.918
 31
0.0
  0
LINE
  8
0
 62
     0
 10
213.882
 20
37.918
 30
0.0
 11
213.882
 21
23.9186
 31
0.0
  0
LINE
  8
0
 62
     0
 10
213.882
 20
23.9186
 30
0.0
 11
199.883
 21
23.9186
 31
0.0
  0
LINE
  8
0
 62
     0
 10
199.883
 20
23.9186
 30
0.0
 11
199.883
 21
37.918
 31
0.0
  0
LINE
  8
0
 62
     0
 10
180.833
 20
37.918
 30
0.0
 11
194.832
 21
37.918
 31
0.0
  0
LINE
  8
0
 62
     0
 10
194.832
 20
37.918
 30
0.0
 11
194.832
 21
23.9186
 31
0.0
  0
LINE
  8
0
 62
     0
 10
194.832
 20
23.9186
 30
0.0
 11
180.833
 21
23.9186
 31
0.0
  0
LINE
  8
0
 62
     0
 10
180.833
 20
23.9186
 30
0.0
 11
180.833
 21
37.918
 31
0.0
  0
LINE
  8
0
 62
     0
 10
161.783
 20
37.918
 30
0.0
 11
175.782
 21
37.918
 31
0.0
  0
LINE
  8
0
 62
     0
 10
175.782
 20
37.918
 30
0.0
 11
175.782
 21
23.9186
 31
0.0
  0
LINE
  8
0
 62
     0
 10
175.782
 20
23.9186
 30
0.0
 11
161.783
 21
23.9186
 31
0.0
  0
LINE
  8
0
 62
     0
 10
161.783
 20
23.9186
 30
0.0
 11
161.783
 21
37.918
 31
0.0
  0
LINE
  8
0
 62
     0
 10
142.733
 20
37.918
 30
0.0
 11
156.732
 21
37.918
 31
0.0
  0
LINE
  8
0
 62
     0
 10
156.732
 20
37.918
 30
0.0
 11
156.732
 21
23.9186
 31
0.0
  0
LINE
  8
0
 62
     0
 10
156.732
 20
23.9186
 30
0.0
 11
142.733
 21
23.9186
 31
0.0
  0
LINE
  8
0
 62
     0
 10
142.733
 20
23.9186
 30
0.0
 11
142.733
 21
37.918
 31
0.0
  0
LINE
  8
0
 62
     0
 10
123.682
 20
37.918
 30
0.0
 11
137.682
 21
37.918
 31
0.0
  0
LINE
  8
0
 62
     0
 10
137.682
 20
37.918
 30
0.0
 11
137.682
 21
23.9186
 31
0.0
  0
LINE
  8
0
 62
     0
 10
137.682
 20
23.9186
 30
0.0
 11
123.682
 21
23.9186
 31
0.0
  0
LINE
  8
0
 62
     0
 10
123.682
 20
23.9186
 30
0.0
 11
123.682
 21
37.918
 31
0.0
  0
LINE
  8
0
 62
     0
 10
104.633
 20
37.918
 30
0.0
 11
118.632
 21
37.918
 31
0.0
  0
LINE
  8
0
 62
     0
 10
118.632
 20
37.918
 30
0.0
 11
118.632
 21
23.9186
 31
0.0
  0
LINE
  8
0
 62
     0
 10
118.632
 20
23.9186
 30
0.0
 11
104.633
 21
23.9186
 31
0.0
  0
LINE
  8
0
 62
     0
 10
104.633
 20
23.9186
 30
0.0
 11
104.633
 21
37.918
 31
0.0
  0
LINE
  8
0
 62
     0
 10
85.5832
 20
37.918
 30
0.0
 11
99.5825
 21
37.918
 31
0.0
  0
LINE
  8
0
 62
     0
 10
99.5825
 20
37.918
 30
0.0
 11
99.5825
 21
23.9186
 31
0.0
  0
LINE
  8
0
 62
     0
 10
99.5825
 20
23.9186
 30
0.0
 11
85.5832
 21
23.9186
 31
0.0
  0
LINE
  8
0
 62
     0
 10
85.5832
 20
23.9186
 30
0.0
 11
85.5832
 21
37.918
 31
0.0
  0
LINE
  8
0
 62
     0
 10
66.5332
 20
37.918
 30
0.0
 11
80.5325
 21
37.918
 31
0.0
  0
LINE
  8
0
 62
     0
 10
80.5325
 20
37.918
 30
0.0
 11
80.5325
 21
23.9186
 31
0.0
  0
LINE
  8
0
 62
     0
 10
80.5325
 20
23.9186
 30
0.0
 11
66.5332
 21
23.9186
 31
0.0
  0
LINE
  8
0
 62
     0
 10
66.5332
 20
23.9186
 30
0.0
 11
66.5332
 21
37.918
 31
0.0
  0
LINE
  8
0
 62
     0
 10
47.4832
 20
37.918
 30
0.0
 11
61.4825
 21
37.918
 31
0.0
  0
LINE
  8
0
 62
     0
 10
61.4825
 20
37.918
 30
0.0
 11
61.4825
 21
23.9186
 31
0.0
  0
LINE
  8
0
 62
     0
 10
61.4825
 20
23.9186
 30
0.0
 11
47.4832
 21
23.9186
 31
0.0
  0
LINE
  8
0
 62
     0
 10
47.4832
 20
23.9186
 30
0.0
 11
47.4832
 21
37.918
 31
0.0
  0
LINE
  8
0
 62
     0
 10
259.413
 20
56.968
 30
0.0
 11
259.413
 21
52.269
 31
0.0
  0
LINE
  8
0
 62
     0
 10
259.413
 20
52.269
 30
0.0
 11
257.889
 21
52.269
 31
0.0
  0
LINE
  8
0
 62
     0
 10
257.889
 20
52.269
 30
0.0
 11
257.889
 21
55.4976
 31
0.0
  0
LINE
  8
0
 62
     0
 10
257.889
 20
55.4976
 30
0.0
 11
256.162
 21
55.4976
 31
0.0
  0
LINE
  8
0
 62
     0
 10
256.162
 20
55.4976
 30
0.0
 11
256.162
 21
56.4183
 31
0.0
  0
LINE
  8
0
 62
     0
 10
256.162
 20
56.4183
 30
0.0
 11
252.863
 21
56.4183
 31
0.0
  0
LINE
  8
0
 62
     0
 10
252.863
 20
56.4183
 30
0.0
 11
252.863
 21
55.4976
 31
0.0
  0
LINE
  8
0
 62
     0
 10
252.863
 20
55.4976
 30
0.0
 11
251.138
 21
55.4976
 31
0.0
  0
LINE
  8
0
 62
     0
 10
251.138
 20
55.4976
 30
0.0
 11
251.138
 21
52.269
 31
0.0
  0
LINE
  8
0
 62
     0
 10
251.138
 20
52.269
 30
0.0
 11
250.314
 21
52.269
 31
0.0
  0
LINE
  8
0
 62
     0
 10
250.314
 20
52.269
 30
0.0
 11
250.314
 21
49.469
 31
0.0
  0
LINE
  8
0
 62
     0
 10
250.314
 20
49.469
 30
0.0
 11
251.138
 21
49.469
 31
0.0
  0
LINE
  8
0
 62
     0
 10
251.138
 20
49.469
 30
0.0
 11
251.138
 21
43.1987
 31
0.0
  0
LINE
  8
0
 62
     0
 10
251.138
 20
43.1987
 30
0.0
 11
252.863
 21
43.1987
 31
0.0
  0
LINE
  8
0
 62
     0
 10
252.863
 20
43.1987
 30
0.0
 11
252.863
 21
42.219
 31
0.0
  0
LINE
  8
0
 62
     0
 10
252.863
 20
42.219
 30
0.0
 11
256.162
 21
42.219
 31
0.0
  0
LINE
  8
0
 62
     0
 10
256.162
 20
42.219
 30
0.0
 11
256.162
 21
43.1987
 31
0.0
  0
LINE
  8
0
 62
     0
 10
256.162
 20
43.1987
 30
0.0
 11
257.889
 21
43.1987
 31
0.0
  0
LINE
  8
0
 62
     0
 10
257.889
 20
43.1987
 30
0.0
 11
257.889
 21
47.6677
 31
0.0
  0
LINE
  8
0
 62
     0
 10
257.889
 20
47.6677
 30
0.0
 11
259.413
 21
47.6677
 31
0.0
  0
LINE
  8
0
 62
     0
 10
259.413
 20
47.6677
 30
0.0
 11
259.413
 21
42.9687
 31
0.0
  0
LINE
  8
0
 62
     0
 10
259.413
 20
42.9687
 30
0.0
 11
273.414
 21
42.9687
 31
0.0
  0
LINE
  8
0
 62
     0
 10
273.414
 20
42.9687
 30
0.0
 11
273.414
 21
47.6677
 31
0.0
  0
LINE
  8
0
 62
     0
 10
273.414
 20
47.6677
 30
0.0
 11
274.938
 21
47.6677
 31
0.0
  0
LINE
  8
0
 62
     0
 10
274.938
 20
47.6677
 30
0.0
 11
274.938
 21
43.1987
 31
0.0
  0
LINE
  8
0
 62
     0
 10
274.938
 20
43.1987
 30
0.0
 11
276.663
 21
43.1987
 31
0.0
  0
LINE
  8
0
 62
     0
 10
276.663
 20
43.1987
 30
0.0
 11
276.663
 21
42.219
 31
0.0
  0
LINE
  8
0
 62
     0
 10
276.663
 20
42.219
 30
0.0
 11
279.964
 21
42.219
 31
0.0
  0
LINE
  8
0
 62
     0
 10
279.964
 20
42.219
 30
0.0
 11
279.964
 21
43.1987
 31
0.0
  0
LINE
  8
0
 62
     0
 10
279.964
 20
43.1987
 30
0.0
 11
281.689
 21
43.1987
 31
0.0
  0
LINE
  8
0
 62
     0
 10
281.689
 20
43.1987
 30
0.0
 11
281.689
 21
49.469
 31
0.0
  0
LINE
  8
0
 62
     0
 10
281.689
 20
49.469
 30
0.0
 11
282.513
 21
49.469
 31
0.0
  0
LINE
  8
0
 62
     0
 10
282.513
 20
49.469
 30
0.0
 11
282.513
 21
52.269
 31
0.0
  0
LINE
  8
0
 62
     0
 10
282.513
 20
52.269
 30
0.0
 11
281.689
 21
52.269
 31
0.0
  0
LINE
  8
0
 62
     0
 10
281.689
 20
52.269
 30
0.0
 11
281.689
 21
55.4976
 31
0.0
  0
LINE
  8
0
 62
     0
 10
281.689
 20
55.4976
 30
0.0
 11
279.964
 21
55.4976
 31
0.0
  0
LINE
  8
0
 62
     0
 10
279.964
 20
55.4976
 30
0.0
 11
279.964
 21
56.4183
 31
0.0
  0
LINE
  8
0
 62
     0
 10
279.964
 20
56.4183
 30
0.0
 11
276.663
 21
56.4183
 31
0.0
  0
LINE
  8
0
 62
     0
 10
276.663
 20
56.4183
 30
0.0
 11
276.663
 21
55.4976
 31
0.0
  0
LINE
  8
0
 62
     0
 10
276.663
 20
55.4976
 30
0.0
 11
274.938
 21
55.4976
 31
0.0
  0
LINE
  8
0
 62
     0
 10
274.938
 20
55.4976
 30
0.0
 11
274.938
 21
52.269
 31
0.0
  0
LINE
  8
0
 62
     0
 10
274.938
 20
52.269
 30
0.0
 11
273.414
 21
52.269
 31
0.0
  0
LINE
  8
0
 62
     0
 10
273.414
 20
52.269
 30
0.0
 11
273.414
 21
56.968
 31
0.0
  0
LINE
  8
0
 62
     0
 10
273.414
 20
56.968
 30
0.0
 11
259.413
 21
56.968
 31
0.0
  0
LINE
  8
0
 62
     0
 10
290.371
 20
56.968
 30
0.0
 11
304.37
 21
56.968
 31
0.0
  0
LINE
  8
0
 62
     0
 10
304.37
 20
56.968
 30
0.0
 11
304.37
 21
42.9687
 31
0.0
  0
LINE
  8
0
 62
     0
 10
304.37
 20
42.9687
 30
0.0
 11
290.371
 21
42.9687
 31
0.0
  0
LINE
  8
0
 62
     0
 10
290.371
 20
42.9687
 30
0.0
 11
290.371
 21
56.968
 31
0.0
  0
LINE
  8
0
 62
     0
 10
228.458
 20
56.968
 30
0.0
 11
242.457
 21
56.968
 31
0.0
  0
LINE
  8
0
 62
     0
 10
242.457
 20
56.968
 30
0.0
 11
242.457
 21
42.9687
 31
0.0
  0
LINE
  8
0
 62
     0
 10
242.457
 20
42.9687
 30
0.0
 11
228.458
 21
42.9687
 31
0.0
  0
LINE
  8
0
 62
     0
 10
228.458
 20
42.9687
 30
0.0
 11
228.458
 21
56.968
 31
0.0
  0
LINE
  8
0
 62
     0
 10
209.408
 20
56.968
 30
0.0
 11
223.407
 21
56.968
 31
0.0
  0
LINE
  8
0
 62
     0
 10
223.407
 20
56.968
 30
0.0
 11
223.407
 21
42.9687
 31
0.0
  0
LINE
  8
0
 62
     0
 10
223.407
 20
42.9687
 30
0.0
 11
209.408
 21
42.9687
 31
0.0
  0
LINE
  8
0
 62
     0
 10
209.408
 20
42.9687
 30
0.0
 11
209.408
 21
56.968
 31
0.0
  0
LINE
  8
0
 62
     0
 10
190.358
 20
56.968
 30
0.0
 11
204.357
 21
56.968
 31
0.0
  0
LINE
  8
0
 62
     0
 10
204.357
 20
56.968
 30
0.0
 11
204.357
 21
42.9687
 31
0.0
  0
LINE
  8
0
 62
     0
 10
204.357
 20
42.9687
 30
0.0
 11
190.358
 21
42.9687
 31
0.0
  0
LINE
  8
0
 62
     0
 10
190.358
 20
42.9687
 30
0.0
 11
190.358
 21
56.968
 31
0.0
  0
LINE
  8
0
 62
     0
 10
171.308
 20
56.968
 30
0.0
 11
185.307
 21
56.968
 31
0.0
  0
LINE
  8
0
 62
     0
 10
185.307
 20
56.968
 30
0.0
 11
185.307
 21
42.9687
 31
0.0
  0
LINE
  8
0
 62
     0
 10
185.307
 20
42.9687
 30
0.0
 11
171.308
 21
42.9687
 31
0.0
  0
LINE
  8
0
 62
     0
 10
171.308
 20
42.9687
 30
0.0
 11
171.308
 21
56.968
 31
0.0
  0
LINE
  8
0
 62
     0
 10
152.258
 20
56.968
 30
0.0
 11
166.257
 21
56.968
 31
0.0
  0
LINE
  8
0
 62
     0
 10
166.257
 20
56.968
 30
0.0
 11
166.257
 21
42.9687
 31
0.0
  0
LINE
  8
0
 62
     0
 10
166.257
 20
42.9687
 30
0.0
 11
152.258
 21
42.9687
 31
0.0
  0
LINE
  8
0
 62
     0
 10
152.258
 20
42.9687
 30
0.0
 11
152.258
 21
56.968
 31
0.0
  0
LINE
  8
0
 62
     0
 10
133.208
 20
56.968
 30
0.0
 11
147.207
 21
56.968
 31
0.0
  0
LINE
  8
0
 62
     0
 10
147.207
 20
56.968
 30
0.0
 11
147.207
 21
42.9687
 31
0.0
  0
LINE
  8
0
 62
     0
 10
147.207
 20
42.9687
 30
0.0
 11
133.208
 21
42.9687
 31
0.0
  0
LINE
  8
0
 62
     0
 10
133.208
 20
42.9687
 30
0.0
 11
133.208
 21
56.968
 31
0.0
  0
LINE
  8
0
 62
     0
 10
114.158
 20
56.968
 30
0.0
 11
128.157
 21
56.968
 31
0.0
  0
LINE
  8
0
 62
     0
 10
128.157
 20
56.968
 30
0.0
 11
128.157
 21
42.9687
 31
0.0
  0
LINE
  8
0
 62
     0
 10
128.157
 20
42.9687
 30
0.0
 11
114.158
 21
42.9687
 31
0.0
  0
LINE
  8
0
 62
     0
 10
114.158
 20
42.9687
 30
0.0
 11
114.158
 21
56.968
 31
0.0
  0
LINE
  8
0
 62
     0
 10
95.1082
 20
56.968
 30
0.0
 11
109.107
 21
56.968
 31
0.0
  0
LINE
  8
0
 62
     0
 10
109.107
 20
56.968
 30
0.0
 11
109.107
 21
42.9687
 31
0.0
  0
LINE
  8
0
 62
     0
 10
109.107
 20
42.9687
 30
0.0
 11
95.1082
 21
42.9687
 31
0.0
  0
LINE
  8
0
 62
     0
 10
95.1082
 20
42.9687
 30
0.0
 11
95.1082
 21
56.968
 31
0.0
  0
LINE
  8
0
 62
     0
 10
76.0582
 20
56.968
 30
0.0
 11
90.0575
 21
56.968
 31
0.0
  0
LINE
  8
0
 62
     0
 10
90.0575
 20
56.968
 30
0.0
 11
90.0575
 21
42.9687
 31
0.0
  0
LINE
  8
0
 62
     0
 10
90.0575
 20
42.9687
 30
0.0
 11
76.0582
 21
42.9687
 31
0.0
  0
LINE
  8
0
 62
     0
 10
76.0582
 20
42.9687
 30
0.0
 11
76.0582
 21
56.968
 31
0.0
  0
LINE
  8
0
 62
     0
 10
57.0082
 20
56.968
 30
0.0
 11
71.0075
 21
56.968
 31
0.0
  0
LINE
  8
0
 62
     0
 10
71.0075
 20
56.968
 30
0.0
 11
71.0075
 21
42.9687
 31
0.0
  0
LINE
  8
0
 62
     0
 10
71.0075
 20
42.9687
 30
0.0
 11
57.0082
 21
42.9687
 31
0.0
  0
LINE
  8
0
 62
     0
 10
57.0082
 20
42.9687
 30
0.0
 11
57.0082
 21
56.968
 31
0.0
  0
LINE
  8
0
 62
     0
 10
37.9582
 20
56.968
 30
0.0
 11
51.9575
 21
56.968
 31
0.0
  0
LINE
  8
0
 62
     0
 10
51.9575
 20
56.968
 30
0.0
 11
51.9575
 21
42.9687
 31
0.0
  0
LINE
  8
0
 62
     0
 10
51.9575
 20
42.9687
 30
0.0
 11
37.9582
 21
42.9687
 31
0.0
  0
LINE
  8
0
 62
     0
 10
37.9582
 20
42.9687
 30
0.0
 11
37.9582
 21
56.968
 31
0.0
  0
LINE
  8
0
 62
     0
 10
11.763
 20
56.968
 30
0.0
 11
25.7638
 21
56.968
 31
0.0
  0
LINE
  8
0
 62
     0
 10
25.7638
 20
56.968
 30
0.0
 11
25.7638
 21
42.9687
 31
0.0
  0
LINE
  8
0
 62
     0
 10
25.7638
 20
42.9687
 30
0.0
 11
11.763
 21
42.9687
 31
0.0
  0
LINE
  8
0
 62
     0
 10
11.763
 20
42.9687
 30
0.0
 11
11.763
 21
56.968
 31
0.0
  0
LINE
  8
0
 62
     0
 10
290.371
 20
76.018
 30
0.0
 11
304.37
 21
76.018
 31
0.0
  0
LINE
  8
0
 62
     0
 10
304.37
 20
76.018
 30
0.0
 11
304.37
 21
62.0187
 31
0.0
  0
LINE
  8
0
 62
     0
 10
304.37
 20
62.0187
 30
0.0
 11
290.371
 21
62.0187
 31
0.0
  0
LINE
  8
0
 62
     0
 10
290.371
 20
62.0187
 30
0.0
 11
290.371
 21
76.018
 31
0.0
  0
LINE
  8
0
 62
     0
 10
266.558
 20
76.018
 30
0.0
 11
280.557
 21
76.018
 31
0.0
  0
LINE
  8
0
 62
     0
 10
280.557
 20
76.018
 30
0.0
 11
280.557
 21
62.0187
 31
0.0
  0
LINE
  8
0
 62
     0
 10
280.557
 20
62.0187
 30
0.0
 11
266.558
 21
62.0187
 31
0.0
  0
LINE
  8
0
 62
     0
 10
266.558
 20
62.0187
 30
0.0
 11
266.558
 21
76.018
 31
0.0
  0
LINE
  8
0
 62
     0
 10
242.746
 20
76.018
 30
0.0
 11
256.745
 21
76.018
 31
0.0
  0
LINE
  8
0
 62
     0
 10
256.745
 20
76.018
 30
0.0
 11
256.745
 21
62.0187
 31
0.0
  0
LINE
  8
0
 62
     0
 10
256.745
 20
62.0187
 30
0.0
 11
242.746
 21
62.0187
 31
0.0
  0
LINE
  8
0
 62
     0
 10
242.746
 20
62.0187
 30
0.0
 11
242.746
 21
76.018
 31
0.0
  0
LINE
  8
0
 62
     0
 10
223.696
 20
76.018
 30
0.0
 11
237.695
 21
76.018
 31
0.0
  0
LINE
  8
0
 62
     0
 10
237.695
 20
76.018
 30
0.0
 11
237.695
 21
62.0187
 31
0.0
  0
LINE
  8
0
 62
     0
 10
237.695
 20
62.0187
 30
0.0
 11
223.696
 21
62.0187
 31
0.0
  0
LINE
  8
0
 62
     0
 10
223.696
 20
62.0187
 30
0.0
 11
223.696
 21
76.018
 31
0.0
  0
LINE
  8
0
 62
     0
 10
204.646
 20
76.018
 30
0.0
 11
218.645
 21
76.018
 31
0.0
  0
LINE
  8
0
 62
     0
 10
218.645
 20
76.018
 30
0.0
 11
218.645
 21
62.0187
 31
0.0
  0
LINE
  8
0
 62
     0
 10
218.645
 20
62.0187
 30
0.0
 11
204.646
 21
62.0187
 31
0.0
  0
LINE
  8
0
 62
     0
 10
204.646
 20
62.0187
 30
0.0
 11
204.646
 21
76.018
 31
0.0
  0
LINE
  8
0
 62
     0
 10
185.596
 20
76.018
 30
0.0
 11
199.595
 21
76.018
 31
0.0
  0
LINE
  8
0
 62
     0
 10
199.595
 20
76.018
 30
0.0
 11
199.595
 21
62.0187
 31
0.0
  0
LINE
  8
0
 62
     0
 10
199.595
 20
62.0187
 30
0.0
 11
185.596
 21
62.0187
 31
0.0
  0
LINE
  8
0
 62
     0
 10
185.596
 20
62.0187
 30
0.0
 11
185.596
 21
76.018
 31
0.0
  0
LINE
  8
0
 62
     0
 10
166.546
 20
76.018
 30
0.0
 11
180.545
 21
76.018
 31
0.0
  0
LINE
  8
0
 62
     0
 10
180.545
 20
76.018
 30
0.0
 11
180.545
 21
62.0187
 31
0.0
  0
LINE
  8
0
 62
     0
 10
180.545
 20
62.0187
 30
0.0
 11
166.546
 21
62.0187
 31
0.0
  0
LINE
  8
0
 62
     0
 10
166.546
 20
62.0187
 30
0.0
 11
166.546
 21
76.018
 31
0.0
  0
LINE
  8
0
 62
     0
 10
147.496
 20
76.018
 30
0.0
 11
161.495
 21
76.018
 31
0.0
  0
LINE
  8
0
 62
     0
 10
161.495
 20
76.018
 30
0.0
 11
161.495
 21
62.0187
 31
0.0
  0
LINE
  8
0
 62
     0
 10
161.495
 20
62.0187
 30
0.0
 11
147.496
 21
62.0187
 31
0.0
  0
LINE
  8
0
 62
     0
 10
147.496
 20
62.0187
 30
0.0
 11
147.496
 21
76.018
 31
0.0
  0
LINE
  8
0
 62
     0
 10
128.446
 20
76.018
 30
0.0
 11
142.445
 21
76.018
 31
0.0
  0
LINE
  8
0
 62
     0
 10
142.445
 20
76.018
 30
0.0
 11
142.445
 21
62.0187
 31
0.0
  0
LINE
  8
0
 62
     0
 10
142.445
 20
62.0187
 30
0.0
 11
128.446
 21
62.0187
 31
0.0
  0
LINE
  8
0
 62
     0
 10
128.446
 20
62.0187
 30
0.0
 11
128.446
 21
76.018
 31
0.0
  0
LINE
  8
0
 62
     0
 10
109.396
 20
76.018
 30
0.0
 11
123.395
 21
76.018
 31
0.0
  0
LINE
  8
0
 62
     0
 10
123.395
 20
76.018
 30
0.0
 11
123.395
 21
62.0187
 31
0.0
  0
LINE
  8
0
 62
     0
 10
123.395
 20
62.0187
 30
0.0
 11
109.396
 21
62.0187
 31
0.0
  0
LINE
  8
0
 62
     0
 10
109.396
 20
62.0187
 30
0.0
 11
109.396
 21
76.018
 31
0.0
  0
LINE
  8
0
 62
     0
 10
90.3457
 20
76.018
 30
0.0
 11
104.345
 21
76.018
 31
0.0
  0
LINE
  8
0
 62
     0
 10
104.345
 20
76.018
 30
0.0
 11
104.345
 21
62.0187
 31
0.0
  0
LINE
  8
0
 62
     0
 10
104.345
 20
62.0187
 30
0.0
 11
90.3457
 21
62.0187
 31
0.0
  0
LINE
  8
0
 62
     0
 10
90.3457
 20
62.0187
 30
0.0
 11
90.3457
 21
76.018
 31
0.0
  0
LINE
  8
0
 62
     0
 10
71.2957
 20
76.018
 30
0.0
 11
85.295
 21
76.018
 31
0.0
  0
LINE
  8
0
 62
     0
 10
85.295
 20
76.018
 30
0.0
 11
85.295
 21
62.0187
 31
0.0
  0
LINE
  8
0
 62
     0
 10
85.295
 20
62.0187
 30
0.0
 11
71.2957
 21
62.0187
 31
0.0
  0
LINE
  8
0
 62
     0
 10
71.2957
 20
62.0187
 30
0.0
 11
71.2957
 21
76.018
 31
0.0
  0
LINE
  8
0
 62
     0
 10
52.2457
 20
76.018
 30
0.0
 11
66.245
 21
76.018
 31
0.0
  0
LINE
  8
0
 62
     0
 10
66.245
 20
76.018
 30
0.0
 11
66.245
 21
62.0187
 31
0.0
  0
LINE
  8
0
 62
     0
 10
66.245
 20
62.0187
 30
0.0
 11
52.2457
 21
62.0187
 31
0.0
  0
LINE
  8
0
 62
     0
 10
52.2457
 20
62.0187
 30
0.0
 11
52.2457
 21
76.018
 31
0.0
  0
LINE
  8
0
 62
     0
 10
33.1956
 20
76.018
 30
0.0
 11
47.195
 21
76.018
 31
0.0
  0
LINE
  8
0
 62
     0
 10
47.195
 20
76.018
 30
0.0
 11
47.195
 21
62.0187
 31
0.0
  0
LINE
  8
0
 62
     0
 10
47.195
 20
62.0187
 30
0.0
 11
33.1956
 21
62.0187
 31
0.0
  0
LINE
  8
0
 62
     0
 10
33.1956
 20
62.0187
 30
0.0
 11
33.1956
 21
76.018
 31
0.0
  0
LINE
  8
0
 62
     0
 10
9.38308
 20
76.018
 30
0.0
 11
23.3826
 21
76.018
 31
0.0
  0
LINE
  8
0
 62
     0
 10
23.3826
 20
76.018
 30
0.0
 11
23.3826
 21
62.0187
 31
0.0
  0
LINE
  8
0
 62
     0
 10
23.3826
 20
62.0187
 30
0.0
 11
9.38308
 21
62.0187
 31
0.0
  0
LINE
  8
0
 62
     0
 10
9.38308
 20
62.0187
 30
0.0
 11
9.38308
 21
76.018
 31
0.0
  0
LINE
  8
0
 62
     0
 10
261.796
 20
95.068
 30
0.0
 11
261.796
 21
90.369
 31
0.0
  0
LINE
  8
0
 62
     0
 10
261.796
 20
90.369
 30
0.0
 11
260.27
 21
90.369
 31
0.0
  0
LINE
  8
0
 62
     0
 10
260.27
 20
90.369
 30
0.0
 11
260.27
 21
93.5976
 31
0.0
  0
LINE
  8
0
 62
     0
 10
260.27
 20
93.5976
 30
0.0
 11
258.546
 21
93.5976
 31
0.0
  0
LINE
  8
0
 62
     0
 10
258.546
 20
93.5976
 30
0.0
 11
258.546
 21
94.5183
 31
0.0
  0
LINE
  8
0
 62
     0
 10
258.546
 20
94.5183
 30
0.0
 11
255.244
 21
94.5183
 31
0.0
  0
LINE
  8
0
 62
     0
 10
255.244
 20
94.5183
 30
0.0
 11
255.244
 21
93.5976
 31
0.0
  0
LINE
  8
0
 62
     0
 10
255.244
 20
93.5976
 30
0.0
 11
253.521
 21
93.5976
 31
0.0
  0
LINE
  8
0
 62
     0
 10
253.521
 20
93.5976
 30
0.0
 11
253.521
 21
90.369
 31
0.0
  0
LINE
  8
0
 62
     0
 10
253.521
 20
90.369
 30
0.0
 11
252.695
 21
90.369
 31
0.0
  0
LINE
  8
0
 62
     0
 10
252.695
 20
90.369
 30
0.0
 11
252.695
 21
87.569
 31
0.0
  0
LINE
  8
0
 62
     0
 10
252.695
 20
87.569
 30
0.0
 11
253.521
 21
87.569
 31
0.0
  0
LINE
  8
0
 62
     0
 10
253.521
 20
87.569
 30
0.0
 11
253.521
 21
81.2987
 31
0.0
  0
LINE
  8
0
 62
     0
 10
253.521
 20
81.2987
 30
0.0
 11
255.244
 21
81.2987
 31
0.0
  0
LINE
  8
0
 62
     0
 10
255.244
 20
81.2987
 30
0.0
 11
255.244
 21
80.319
 31
0.0
  0
LINE
  8
0
 62
     0
 10
255.244
 20
80.319
 30
0.0
 11
258.546
 21
80.319
 31
0.0
  0
LINE
  8
0
 62
     0
 10
258.546
 20
80.319
 30
0.0
 11
258.546
 21
81.2987
 31
0.0
  0
LINE
  8
0
 62
     0
 10
258.546
 20
81.2987
 30
0.0
 11
260.27
 21
81.2987
 31
0.0
  0
LINE
  8
0
 62
     0
 10
260.27
 20
81.2987
 30
0.0
 11
260.27
 21
85.7677
 31
0.0
  0
LINE
  8
0
 62
     0
 10
260.27
 20
85.7677
 30
0.0
 11
261.796
 21
85.7677
 31
0.0
  0
LINE
  8
0
 62
     0
 10
261.796
 20
85.7677
 30
0.0
 11
261.796
 21
81.0687
 31
0.0
  0
LINE
  8
0
 62
     0
 10
261.796
 20
81.0687
 30
0.0
 11
275.795
 21
81.0687
 31
0.0
  0
LINE
  8
0
 62
     0
 10
275.795
 20
81.0687
 30
0.0
 11
275.795
 21
85.7677
 31
0.0
  0
LINE
  8
0
 62
     0
 10
275.795
 20
85.7677
 30
0.0
 11
277.32
 21
85.7677
 31
0.0
  0
LINE
  8
0
 62
     0
 10
277.32
 20
85.7677
 30
0.0
 11
277.32
 21
81.2987
 31
0.0
  0
LINE
  8
0
 62
     0
 10
277.32
 20
81.2987
 30
0.0
 11
279.046
 21
81.2987
 31
0.0
  0
LINE
  8
0
 62
     0
 10
279.046
 20
81.2987
 30
0.0
 11
279.046
 21
80.319
 31
0.0
  0
LINE
  8
0
 62
     0
 10
279.046
 20
80.319
 30
0.0
 11
282.345
 21
80.319
 31
0.0
  0
LINE
  8
0
 62
     0
 10
282.345
 20
80.319
 30
0.0
 11
282.345
 21
81.2987
 31
0.0
  0
LINE
  8
0
 62
     0
 10
282.345
 20
81.2987
 30
0.0
 11
284.07
 21
81.2987
 31
0.0
  0
LINE
  8
0
 62
     0
 10
284.07
 20
81.2987
 30
0.0
 11
284.07
 21
87.569
 31
0.0
  0
LINE
  8
0
 62
     0
 10
284.07
 20
87.569
 30
0.0
 11
284.896
 21
87.569
 31
0.0
  0
LINE
  8
0
 62
     0
 10
284.896
 20
87.569
 30
0.0
 11
284.896
 21
90.369
 31
0.0
  0
LINE
  8
0
 62
     0
 10
284.896
 20
90.369
 30
0.0
 11
284.07
 21
90.369
 31
0.0
  0
LINE
  8
0
 62
     0
 10
284.07
 20
90.369
 30
0.0
 11
284.07
 21
93.5976
 31
0.0
  0
LINE
  8
0
 62
     0
 10
284.07
 20
93.5976
 30
0.0
 11
282.345
 21
93.5976
 31
0.0
  0
LINE
  8
0
 62
     0
 10
282.345
 20
93.5976
 30
0.0
 11
282.345
 21
94.5183
 31
0.0
  0
LINE
  8
0
 62
     0
 10
282.345
 20
94.5183
 30
0.0
 11
279.046
 21
94.5183
 31
0.0
  0
LINE
  8
0
 62
     0
 10
279.046
 20
94.5183
 30
0.0
 11
279.046
 21
93.5976
 31
0.0
  0
LINE
  8
0
 62
     0
 10
279.046
 20
93.5976
 30
0.0
 11
277.32
 21
93.5976
 31
0.0
  0
LINE
  8
0
 62
     0
 10
277.32
 20
93.5976
 30
0.0
 11
277.32
 21
90.369
 31
0.0
  0
LINE
  8
0
 62
     0
 10
277.32
 20
90.369
 30
0.0
 11
275.795
 21
90.369
 31
0.0
  0
LINE
  8
0
 62
     0
 10
275.795
 20
90.369
 30
0.0
 11
275.795
 21
95.068
 31
0.0
  0
LINE
  8
0
 62
     0
 10
275.795
 20
95.068
 30
0.0
 11
261.796
 21
95.068
 31
0.0
  0
LINE
  8
0
 62
     0
 10
290.371
 20
95.068
 30
0.0
 11
304.37
 21
95.068
 31
0.0
  0
LINE
  8
0
 62
     0
 10
304.37
 20
95.068
 30
0.0
 11
304.37
 21
81.0687
 31
0.0
  0
LINE
  8
0
 62
     0
 10
304.37
 20
81.0687
 30
0.0
 11
290.371
 21
81.0687
 31
0.0
  0
LINE
  8
0
 62
     0
 10
290.371
 20
81.0687
 30
0.0
 11
290.371
 21
95.068
 31
0.0
  0
LINE
  8
0
 62
     0
 10
233.221
 20
95.068
 30
0.0
 11
247.22
 21
95.068
 31
0.0
  0
LINE
  8
0
 62
     0
 10
247.22
 20
95.068
 30
0.0
 11
247.22
 21
81.0687
 31
0.0
  0
LINE
  8
0
 62
     0
 10
247.22
 20
81.0687
 30
0.0
 11
233.221
 21
81.0687
 31
0.0
  0
LINE
  8
0
 62
     0
 10
233.221
 20
81.0687
 30
0.0
 11
233.221
 21
95.068
 31
0.0
  0
LINE
  8
0
 62
     0
 10
214.171
 20
95.068
 30
0.0
 11
228.17
 21
95.068
 31
0.0
  0
LINE
  8
0
 62
     0
 10
228.17
 20
95.068
 30
0.0
 11
228.17
 21
81.0687
 31
0.0
  0
LINE
  8
0
 62
     0
 10
228.17
 20
81.0687
 30
0.0
 11
214.171
 21
81.0687
 31
0.0
  0
LINE
  8
0
 62
     0
 10
214.171
 20
81.0687
 30
0.0
 11
214.171
 21
95.068
 31
0.0
  0
LINE
  8
0
 62
     0
 10
195.121
 20
95.068
 30
0.0
 11
209.12
 21
95.068
 31
0.0
  0
LINE
  8
0
 62
     0
 10
209.12
 20
95.068
 30
0.0
 11
209.12
 21
81.0687
 31
0.0
  0
LINE
  8
0
 62
     0
 10
209.12
 20
81.0687
 30
0.0
 11
195.121
 21
81.0687
 31
0.0
  0
LINE
  8
0
 62
     0
 10
195.121
 20
81.0687
 30
0.0
 11
195.121
 21
95.068
 31
0.0
  0
LINE
  8
0
 62
     0
 10
176.071
 20
95.068
 30
0.0
 11
190.07
 21
95.068
 31
0.0
  0
LINE
  8
0
 62
     0
 10
190.07
 20
95.068
 30
0.0
 11
190.07
 21
81.0687
 31
0.0
  0
LINE
  8
0
 62
     0
 10
190.07
 20
81.0687
 30
0.0
 11
176.071
 21
81.0687
 31
0.0
  0
LINE
  8
0
 62
     0
 10
176.071
 20
81.0687
 30
0.0
 11
176.071
 21
95.068
 31
0.0
  0
LINE
  8
0
 62
     0
 10
157.021
 20
95.068
 30
0.0
 11
171.02
 21
95.068
 31
0.0
  0
LINE
  8
0
 62
     0
 10
171.02
 20
95.068
 30
0.0
 11
171.02
 21
81.0687
 31
0.0
  0
LINE
  8
0
 62
     0
 10
171.02
 20
81.0687
 30
0.0
 11
157.021
 21
81.0687
 31
0.0
  0
LINE
  8
0
 62
     0
 10
157.021
 20
81.0687
 30
0.0
 11
157.021
 21
95.068
 31
0.0
  0
LINE
  8
0
 62
     0
 10
137.971
 20
95.068
 30
0.0
 11
151.97
 21
95.068
 31
0.0
  0
LINE
  8
0
 62
     0
 10
151.97
 20
95.068
 30
0.0
 11
151.97
 21
81.0687
 31
0.0
  0
LINE
  8
0
 62
     0
 10
151.97
 20
81.0687
 30
0.0
 11
137.971
 21
81.0687
 31
0.0
  0
LINE
  8
0
 62
     0
 10
137.971
 20
81.0687
 30
0.0
 11
137.971
 21
95.068
 31
0.0
  0
LINE
  8
0
 62
     0
 10
118.919
 20
95.068
 30
0.0
 11
132.92
 21
95.068
 31
0.0
  0
LINE
  8
0
 62
     0
 10
132.92
 20
95.068
 30
0.0
 11
132.92
 21
81.0687
 31
0.0
  0
LINE
  8
0
 62
     0
 10
132.92
 20
81.0687
 30
0.0
 11
118.919
 21
81.0687
 31
0.0
  0
LINE
  8
0
 62
     0
 10
118.919
 20
81.0687
 30
0.0
 11
118.919
 21
95.068
 31
0.0
  0
LINE
  8
0
 62
     0
 10
99.8693
 20
95.068
 30
0.0
 11
113.87
 21
95.068
 31
0.0
  0
LINE
  8
0
 62
     0
 10
113.87
 20
95.068
 30
0.0
 11
113.87
 21
81.0687
 31
0.0
  0
LINE
  8
0
 62
     0
 10
113.87
 20
81.0687
 30
0.0
 11
99.8693
 21
81.0687
 31
0.0
  0
LINE
  8
0
 62
     0
 10
99.8693
 20
81.0687
 30
0.0
 11
99.8693
 21
95.068
 31
0.0
  0
LINE
  8
0
 62
     0
 10
80.8207
 20
95.068
 30
0.0
 11
94.82
 21
95.068
 31
0.0
  0
LINE
  8
0
 62
     0
 10
94.82
 20
95.068
 30
0.0
 11
94.82
 21
81.0687
 31
0.0
  0
LINE
  8
0
 62
     0
 10
94.82
 20
81.0687
 30
0.0
 11
80.8207
 21
81.0687
 31
0.0
  0
LINE
  8
0
 62
     0
 10
80.8207
 20
81.0687
 30
0.0
 11
80.8207
 21
95.068
 31
0.0
  0
LINE
  8
0
 62
     0
 10
61.7707
 20
95.068
 30
0.0
 11
75.77
 21
95.068
 31
0.0
  0
LINE
  8
0
 62
     0
 10
75.77
 20
95.068
 30
0.0
 11
75.77
 21
81.0687
 31
0.0
  0
LINE
  8
0
 62
     0
 10
75.77
 20
81.0687
 30
0.0
 11
61.7707
 21
81.0687
 31
0.0
  0
LINE
  8
0
 62
     0
 10
61.7707
 20
81.0687
 30
0.0
 11
61.7707
 21
95.068
 31
0.0
  0
LINE
  8
0
 62
     0
 10
42.7207
 20
95.068
 30
0.0
 11
56.72
 21
95.068
 31
0.0
  0
LINE
  8
0
 62
     0
 10
56.72
 20
95.068
 30
0.0
 11
56.72
 21
81.0687
 31
0.0
  0
LINE
  8
0
 62
     0
 10
56.72
 20
81.0687
 30
0.0
 11
42.7207
 21
81.0687
 31
0.0
  0
LINE
  8
0
 62
     0
 10
42.7207
 20
81.0687
 30
0.0
 11
42.7207
 21
95.068
 31
0.0
  0
LINE
  8
0
 62
     0
 10
23.6706
 20
95.068
 30
0.0
 11
37.67
 21
95.068
 31
0.0
  0
LINE
  8
0
 62
     0
 10
37.67
 20
95.068
 30
0.0
 11
37.67
 21
81.0687
 31
0.0
  0
LINE
  8
0
 62
     0
 10
37.67
 20
81.0687
 30
0.0
 11
23.6706
 21
81.0687
 31
0.0
  0
LINE
  8
0
 62
     0
 10
23.6706
 20
81.0687
 30
0.0
 11
23.6706
 21
95.068
 31
0.0
  0
LINE
  8
0
 62
     0
 10
4.6192
 20
95.068
 30
0.0
 11
18.6201
 21
95.068
 31
0.0
  0
LINE
  8
0
 62
     0
 10
18.6201
 20
95.068
 30
0.0
 11
18.6201
 21
81.0687
 31
0.0
  0
LINE
  8
0
 62
     0
 10
18.6201
 20
81.0687
 30
0.0
 11
4.6192
 21
81.0687
 31
0.0
  0
LINE
  8
0
 62
     0
 10
4.6192
 20
81.0687
 30
0.0
 11
4.6192
 21
95.068
 31
0.0
  0
LINE
  8
0
 62
     0
 10
290.371
 20
114.119
 30
0.0
 11
304.37
 21
114.119
 31
0.0
  0
LINE
  8
0
 62
     0
 10
304.37
 20
114.119
 30
0.0
 11
304.37
 21
100.119
 31
0.0
  0
LINE
  8
0
 62
     0
 10
304.37
 20
100.119
 30
0.0
 11
290.371
 21
100.119
 31
0.0
  0
LINE
  8
0
 62
     0
 10
290.371
 20
100.119
 30
0.0
 11
290.371
 21
114.119
 31
0.0
  0
LINE
  8
0
 62
     0
 10
271.321
 20
114.119
 30
0.0
 11
285.32
 21
114.119
 31
0.0
  0
LINE
  8
0
 62
     0
 10
285.32
 20
114.119
 30
0.0
 11
285.32
 21
100.119
 31
0.0
  0
LINE
  8
0
 62
     0
 10
285.32
 20
100.119
 30
0.0
 11
271.321
 21
100.119
 31
0.0
  0
LINE
  8
0
 62
     0
 10
271.321
 20
100.119
 30
0.0
 11
271.321
 21
114.119
 31
0.0
  0
LINE
  8
0
 62
     0
 10
252.271
 20
114.119
 30
0.0
 11
266.27
 21
114.119
 31
0.0
  0
LINE
  8
0
 62
     0
 10
266.27
 20
114.119
 30
0.0
 11
266.27
 21
100.119
 31
0.0
  0
LINE
  8
0
 62
     0
 10
266.27
 20
100.119
 30
0.0
 11
252.271
 21
100.119
 31
0.0
  0
LINE
  8
0
 62
     0
 10
252.271
 20
100.119
 30
0.0
 11
252.271
 21
114.119
 31
0.0
  0
LINE
  8
0
 62
     0
 10
233.221
 20
114.119
 30
0.0
 11
247.22
 21
114.119
 31
0.0
  0
LINE
  8
0
 62
     0
 10
247.22
 20
114.119
 30
0.0
 11
247.22
 21
100.119
 31
0.0
  0
LINE
  8
0
 62
     0
 10
247.22
 20
100.119
 30
0.0
 11
233.221
 21
100.119
 31
0.0
  0
LINE
  8
0
 62
     0
 10
233.221
 20
100.119
 30
0.0
 11
233.221
 21
114.119
 31
0.0
  0
LINE
  8
0
 62
     0
 10
214.171
 20
114.119
 30
0.0
 11
228.17
 21
114.119
 31
0.0
  0
LINE
  8
0
 62
     0
 10
228.17
 20
114.119
 30
0.0
 11
228.17
 21
100.119
 31
0.0
  0
LINE
  8
0
 62
     0
 10
228.17
 20
100.119
 30
0.0
 11
214.171
 21
100.119
 31
0.0
  0
LINE
  8
0
 62
     0
 10
214.171
 20
100.119
 30
0.0
 11
214.171
 21
114.119
 31
0.0
  0
LINE
  8
0
 62
     0
 10
195.121
 20
114.119
 30
0.0
 11
209.12
 21
114.119
 31
0.0
  0
LINE
  8
0
 62
     0
 10
209.12
 20
114.119
 30
0.0
 11
209.12
 21
100.119
 31
0.0
  0
LINE
  8
0
 62
     0
 10
209.12
 20
100.119
 30
0.0
 11
195.121
 21
100.119
 31
0.0
  0
LINE
  8
0
 62
     0
 10
195.121
 20
100.119
 30
0.0
 11
195.121
 21
114.119
 31
0.0
  0
LINE
  8
0
 62
     0
 10
176.071
 20
114.119
 30
0.0
 11
190.07
 21
114.119
 31
0.0
  0
LINE
  8
0
 62
     0
 10
190.07
 20
114.119
 30
0.0
 11
190.07
 21
100.119
 31
0.0
  0
LINE
  8
0
 62
     0
 10
190.07
 20
100.119
 30
0.0
 11
176.071
 21
100.119
 31
0.0
  0
LINE
  8
0
 62
     0
 10
176.071
 20
100.119
 30
0.0
 11
176.071
 21
114.119
 31
0.0
  0
LINE
  8
0
 62
     0
 10
157.021
 20
114.119
 30
0.0
 11
171.02
 21
114.119
 31
0.0
  0
LINE
  8
0
 62
     0
 10
171.02
 20
114.119
 30
0.0
 11
171.02
 21
100.119
 31
0.0
  0
LINE
  8
0
 62
     0
 10
171.02
 20
100.119
 30
0.0
 11
157.021
 21
100.119
 31
0.0
  0
LINE
  8
0
 62
     0
 10
157.021
 20
100.119
 30
0.0
 11
157.021
 21
114.119
 31
0.0
  0
LINE
  8
0
 62
     0
 10
137.971
 20
114.119
 30
0.0
 11
151.97
 21
114.119
 31
0.0
  0
LINE
  8
0
 62
     0
 10
151.97
 20
114.119
 30
0.0
 11
151.97
 21
100.119
 31
0.0
  0
LINE
  8
0
 62
     0
 10
151.97
 20
100.119
 30
0.0
 11
137.971
 21
100.119
 31
0.0
  0
LINE
  8
0
 62
     0
 10
137.971
 20
100.119
 30
0.0
 11
137.971
 21
114.119
 31
0.0
  0
LINE
  8
0
 62
     0
 10
118.919
 20
114.119
 30
0.0
 11
132.92
 21
114.119
 31
0.0
  0
LINE
  8
0
 62
     0
 10
132.92
 20
114.119
 30
0.0
 11
132.92
 21
100.119
 31
0.0
  0
LINE
  8
0
 62
     0
 10
132.92
 20
100.119
 30
0.0
 11
118.919
 21
100.119
 31
0.0
  0
LINE
  8
0
 62
     0
 10
118.919
 20
100.119
 30
0.0
 11
118.919
 21
114.119
 31
0.0
  0
LINE
  8
0
 62
     0
 10
99.8693
 20
114.119
 30
0.0
 11
113.87
 21
114.119
 31
0.0
  0
LINE
  8
0
 62
     0
 10
113.87
 20
114.119
 30
0.0
 11
113.87
 21
100.119
 31
0.0
  0
LINE
  8
0
 62
     0
 10
113.87
 20
100.119
 30
0.0
 11
99.8693
 21
100.119
 31
0.0
  0
LINE
  8
0
 62
     0
 10
99.8693
 20
100.119
 30
0.0
 11
99.8693
 21
114.119
 31
0.0
  0
LINE
  8
0
 62
     0
 10
80.8207
 20
114.119
 30
0.0
 11
94.82
 21
114.119
 31
0.0
  0
LINE
  8
0
 62
     0
 10
94.82
 20
114.119
 30
0.0
 11
94.82
 21
100.119
 31
0.0
  0
LINE
  8
0
 62
     0
 10
94.82
 20
100.119
 30
0.0
 11
80.8207
 21
100.119
 31
0.0
  0
LINE
  8
0
 62
     0
 10
80.8207
 20
100.119
 30
0.0
 11
80.8207
 21
114.119
 31
0.0
  0
LINE
  8
0
 62
     0
 10
61.7707
 20
114.119
 30
0.0
 11
75.77
 21
114.119
 31
0.0
  0
LINE
  8
0
 62
     0
 10
75.77
 20
114.119
 30
0.0
 11
75.77
 21
100.119
 31
0.0
  0
LINE
  8
0
 62
     0
 10
75.77
 20
100.119
 30
0.0
 11
61.7707
 21
100.119
 31
0.0
  0
LINE
  8
0
 62
     0
 10
61.7707
 20
100.119
 30
0.0
 11
61.7707
 21
114.119
 31
0.0
  0
LINE
  8
0
 62
     0
 10
42.7207
 20
114.119
 30
0.0
 11
56.72
 21
114.119
 31
0.0
  0
LINE
  8
0
 62
     0
 10
56.72
 20
114.119
 30
0.0
 11
56.72
 21
100.119
 31
0.0
  0
LINE
  8
0
 62
     0
 10
56.72
 20
100.119
 30
0.0
 11
42.7207
 21
100.119
 31
0.0
  0
LINE
  8
0
 62
     0
 10
42.7207
 20
100.119
 30
0.0
 11
42.7207
 21
114.119
 31
0.0
  0
LINE
  8
0
 62
     0
 10
23.6706
 20
114.119
 30
0.0
 11
37.67
 21
114.119
 31
0.0
  0
LINE
  8
0
 62
     0
 10
37.67
 20
114.119
 30
0.0
 11
37.67
 21
100.119
 31
0.0
  0
LINE
  8
0
 62
     0
 10
37.67
 20
100.119
 30
0.0
 11
23.6706
 21
100.119
 31
0.0
  0
LINE
  8
0
 62
     0
 10
23.6706
 20
100.119
 30
0.0
 11
23.6706
 21
114.119
 31
0.0
  0
LINE
  8
0
 62
     0
 10
4.6192
 20
114.119
 30
0.0
 11
18.6201
 21
114.119
 31
0.0
  0
LINE
  8
0
 62
     0
 10
18.6201
 20
114.119
 30
0.0
 11
18.6201
 21
100.119
 31
0.0
  0
LINE
  8
0
 62
     0
 10
18.6201
 20
100.119
 30
0.0
 11
4.6192
 21
100.119
 31
0.0
  0
LINE
  8
0
 62
     0
 10
4.6192
 20
100.119
 30
0.0
 11
4.6192
 21
114.119
 31
0.0
  0
ENDSEC
  0
EOF
