  0
SECTION
  2
HEADER
  9
$ACADVER
  1
AC1009
  9
$EXTMIN
 10
0.0
 20
0.0
 30
0.0
  9
$EXTMAX
 10
1000.0
 20
1000.0
 30
0.0
  9
$FILLMODE
 70
 0
  9
$SPLFRAME
 70
 1
  0
ENDSEC
  0
SECTION
  2
TABLES
  0
TABLE
  2
LAYER
 70
1
  0
LAYER
  2
0
 70
     0
 62
     7
  6
CONTINUOUS
  0
ENDTAB
  0
ENDSEC
  0
SECTION
  2
ENTITIES
  0
LINE
  8
0
 62
     0
 10
318.896
 20
130.433
 30
0.0
 11
319.053
 21
130.426
 31
0.0
  0
LINE
  8
0
 62
     0
 10
319.053
 20
130.426
 30
0.0
 11
319.209
 21
130.408
 31
0.0
  0
LINE
  8
0
 62
     0
 10
319.209
 20
130.408
 30
0.0
 11
319.363
 21
130.377
 31
0.0
  0
LINE
  8
0
 62
     0
 10
319.363
 20
130.377
 30
0.0
 11
319.515
 21
130.335
 31
0.0
  0
LINE
  8
0
 62
     0
 10
319.515
 20
130.335
 30
0.0
 11
319.662
 21
130.28
 31
0.0
  0
LINE
  8
0
 62
     0
 10
319.662
 20
130.28
 30
0.0
 11
319.804
 21
130.215
 31
0.0
  0
LINE
  8
0
 62
     0
 10
319.804
 20
130.215
 30
0.0
 11
319.941
 21
130.138
 31
0.0
  0
LINE
  8
0
 62
     0
 10
319.941
 20
130.138
 30
0.0
 11
320.071
 21
130.051
 31
0.0
  0
LINE
  8
0
 62
     0
 10
320.071
 20
130.051
 30
0.0
 11
320.194
 21
129.953
 31
0.0
  0
LINE
  8
0
 62
     0
 10
320.194
 20
129.953
 30
0.0
 11
320.31
 21
129.847
 31
0.0
  0
LINE
  8
0
 62
     0
 10
320.31
 20
129.847
 30
0.0
 11
320.416
 21
129.731
 31
0.0
  0
LINE
  8
0
 62
     0
 10
320.416
 20
129.731
 30
0.0
 11
320.515
 21
129.609
 31
0.0
  0
LINE
  8
0
 62
     0
 10
320.515
 20
129.609
 30
0.0
 11
320.602
 21
129.478
 31
0.0
  0
LINE
  8
0
 62
     0
 10
320.602
 20
129.478
 30
0.0
 11
320.679
 21
129.34
 31
0.0
  0
LINE
  8
0
 62
     0
 10
320.679
 20
129.34
 30
0.0
 11
320.744
 21
129.198
 31
0.0
  0
LINE
  8
0
 62
     0
 10
320.744
 20
129.198
 30
0.0
 11
320.799
 21
129.052
 31
0.0
  0
LINE
  8
0
 62
     0
 10
320.799
 20
129.052
 30
0.0
 11
320.84
 21
128.899
 31
0.0
  0
LINE
  8
0
 62
     0
 10
320.84
 20
128.899
 30
0.0
 11
320.872
 21
128.746
 31
0.0
  0
LINE
  8
0
 62
     0
 10
320.872
 20
128.746
 30
0.0
 11
320.89
 21
128.589
 31
0.0
  0
LINE
  8
0
 62
     0
 10
320.89
 20
128.589
 30
0.0
 11
320.897
 21
128.432
 31
0.0
  0
LINE
  8
0
 62
     0
 10
320.897
 20
128.432
 30
0.0
 11
320.897
 21
2.13183
 31
0.0
  0
LINE
  8
0
 62
     0
 10
320.897
 20
2.13183
 30
0.0
 11
320.89
 21
1.97473
 31
0.0
  0
LINE
  8
0
 62
     0
 10
320.89
 20
1.97473
 30
0.0
 11
320.872
 21
1.81901
 31
0.0
  0
LINE
  8
0
 62
     0
 10
320.872
 20
1.81901
 30
0.0
 11
320.84
 21
1.66467
 31
0.0
  0
LINE
  8
0
 62
     0
 10
320.84
 20
1.66467
 30
0.0
 11
320.799
 21
1.51309
 31
0.0
  0
LINE
  8
0
 62
     0
 10
320.799
 20
1.51309
 30
0.0
 11
320.744
 21
1.36563
 31
0.0
  0
LINE
  8
0
 62
     0
 10
320.744
 20
1.36563
 30
0.0
 11
320.679
 21
1.2237
 31
0.0
  0
LINE
  8
0
 62
     0
 10
320.679
 20
1.2237
 30
0.0
 11
320.602
 21
1.08727
 31
0.0
  0
LINE
  8
0
 62
     0
 10
320.602
 20
1.08727
 30
0.0
 11
320.515
 21
0.956359
 31
0.0
  0
LINE
  8
0
 62
     0
 10
320.515
 20
0.956359
 30
0.0
 11
320.416
 21
0.833713
 31
0.0
  0
LINE
  8
0
 62
     0
 10
320.416
 20
0.833713
 30
0.0
 11
320.31
 21
0.717959
 31
0.0
  0
LINE
  8
0
 62
     0
 10
320.31
 20
0.717959
 30
0.0
 11
320.194
 21
0.611851
 31
0.0
  0
LINE
  8
0
 62
     0
 10
320.194
 20
0.611851
 30
0.0
 11
320.071
 21
0.512632
 31
0.0
  0
LINE
  8
0
 62
     0
 10
320.071
 20
0.512632
 30
0.0
 11
319.941
 21
0.425813
 31
0.0
  0
LINE
  8
0
 62
     0
 10
319.941
 20
0.425813
 30
0.0
 11
319.804
 21
0.348644
 31
0.0
  0
LINE
  8
0
 62
     0
 10
319.804
 20
0.348644
 30
0.0
 11
319.662
 21
0.283876
 31
0.0
  0
LINE
  8
0
 62
     0
 10
319.662
 20
0.283876
 30
0.0
 11
319.515
 21
0.228755
 31
0.0
  0
LINE
  8
0
 62
     0
 10
319.515
 20
0.228755
 30
0.0
 11
319.363
 21
0.187413
 31
0.0
  0
LINE
  8
0
 62
     0
 10
319.363
 20
0.187413
 30
0.0
 11
319.209
 21
0.155718
 31
0.0
  0
LINE
  8
0
 62
     0
 10
319.209
 20
0.155718
 30
0.0
 11
319.053
 21
0.137804
 31
0.0
  0
LINE
  8
0
 62
     0
 10
319.053
 20
0.137804
 30
0.0
 11
318.896
 21
0.130914
 31
0.0
  0
LINE
  8
0
 62
     0
 10
318.896
 20
0.130914
 30
0.0
 11
2.096
 21
0.130914
 31
0.0
  0
LINE
  8
0
 62
     0
 10
2.096
 20
0.130914
 30
0.0
 11
1.9389
 21
0.137804
 31
0.0
  0
LINE
  8
0
 62
     0
 10
1.9389
 20
0.137804
 30
0.0
 11
1.7818
 21
0.155718
 31
0.0
  0
LINE
  8
0
 62
     0
 10
1.7818
 20
0.155718
 30
0.0
 11
1.62884
 21
0.187413
 31
0.0
  0
LINE
  8
0
 62
     0
 10
1.62884
 20
0.187413
 30
0.0
 11
1.47588
 21
0.228755
 31
0.0
  0
LINE
  8
0
 62
     0
 10
1.47588
 20
0.228755
 30
0.0
 11
1.32981
 21
0.283876
 31
0.0
  0
LINE
  8
0
 62
     0
 10
1.32981
 20
0.283876
 30
0.0
 11
1.18787
 21
0.348644
 31
0.0
  0
LINE
  8
0
 62
     0
 10
1.18787
 20
0.348644
 30
0.0
 11
1.05006
 21
0.425813
 31
0.0
  0
LINE
  8
0
 62
     0
 10
1.05006
 20
0.425813
 30
0.0
 11
0.919152
 21
0.512632
 31
0.0
  0
LINE
  8
0
 62
     0
 10
0.919152
 20
0.512632
 30
0.0
 11
0.796505
 21
0.611851
 31
0.0
  0
LINE
  8
0
 62
     0
 10
0.796505
 20
0.611851
 30
0.0
 11
0.680752
 21
0.717959
 31
0.0
  0
LINE
  8
0
 62
     0
 10
0.680752
 20
0.717959
 30
0.0
 11
0.574643
 21
0.833713
 31
0.0
  0
LINE
  8
0
 62
     0
 10
0.574643
 20
0.833713
 30
0.0
 11
0.4768
 21
0.956359
 31
0.0
  0
LINE
  8
0
 62
     0
 10
0.4768
 20
0.956359
 30
0.0
 11
0.389985
 21
1.08727
 31
0.0
  0
LINE
  8
0
 62
     0
 10
0.389985
 20
1.08727
 30
0.0
 11
0.312815
 21
1.2237
 31
0.0
  0
LINE
  8
0
 62
     0
 10
0.312815
 20
1.2237
 30
0.0
 11
0.248047
 21
1.36563
 31
0.0
  0
LINE
  8
0
 62
     0
 10
0.248047
 20
1.36563
 30
0.0
 11
0.192925
 21
1.51309
 31
0.0
  0
LINE
  8
0
 62
     0
 10
0.192925
 20
1.51309
 30
0.0
 11
0.150206
 21
1.66467
 31
0.0
  0
LINE
  8
0
 62
     0
 10
0.150206
 20
1.66467
 30
0.0
 11
0.119889
 21
1.81901
 31
0.0
  0
LINE
  8
0
 62
     0
 10
0.119889
 20
1.81901
 30
0.0
 11
0.101975
 21
1.97473
 31
0.0
  0
LINE
  8
0
 62
     0
 10
0.101975
 20
1.97473
 30
0.0
 11
0.0950846
 21
2.13183
 31
0.0
  0
LINE
  8
0
 62
     0
 10
0.0950846
 20
2.13183
 30
0.0
 11
0.0950846
 21
128.432
 31
0.0
  0
LINE
  8
0
 62
     0
 10
0.0950846
 20
128.432
 30
0.0
 11
0.101975
 21
128.589
 31
0.0
  0
LINE
  8
0
 62
     0
 10
0.101975
 20
128.589
 30
0.0
 11
0.119889
 21
128.746
 31
0.0
  0
LINE
  8
0
 62
     0
 10
0.119889
 20
128.746
 30
0.0
 11
0.150206
 21
128.899
 31
0.0
  0
LINE
  8
0
 62
     0
 10
0.150206
 20
128.899
 30
0.0
 11
0.192925
 21
129.052
 31
0.0
  0
LINE
  8
0
 62
     0
 10
0.192925
 20
129.052
 30
0.0
 11
0.248047
 21
129.198
 31
0.0
  0
LINE
  8
0
 62
     0
 10
0.248047
 20
129.198
 30
0.0
 11
0.312815
 21
129.34
 31
0.0
  0
LINE
  8
0
 62
     0
 10
0.312815
 20
129.34
 30
0.0
 11
0.389985
 21
129.478
 31
0.0
  0
LINE
  8
0
 62
     0
 10
0.389985
 20
129.478
 30
0.0
 11
0.4768
 21
129.609
 31
0.0
  0
LINE
  8
0
 62
     0
 10
0.4768
 20
129.609
 30
0.0
 11
0.574643
 21
129.731
 31
0.0
  0
LINE
  8
0
 62
     0
 10
0.574643
 20
129.731
 30
0.0
 11
0.680752
 21
129.847
 31
0.0
  0
LINE
  8
0
 62
     0
 10
0.680752
 20
129.847
 30
0.0
 11
0.796505
 21
129.953
 31
0.0
  0
LINE
  8
0
 62
     0
 10
0.796505
 20
129.953
 30
0.0
 11
0.919152
 21
130.051
 31
0.0
  0
LINE
  8
0
 62
     0
 10
0.919152
 20
130.051
 30
0.0
 11
1.05006
 21
130.138
 31
0.0
  0
LINE
  8
0
 62
     0
 10
1.05006
 20
130.138
 30
0.0
 11
1.18787
 21
130.215
 31
0.0
  0
LINE
  8
0
 62
     0
 10
1.18787
 20
130.215
 30
0.0
 11
1.32981
 21
130.28
 31
0.0
  0
LINE
  8
0
 62
     0
 10
1.32981
 20
130.28
 30
0.0
 11
1.47588
 21
130.335
 31
0.0
  0
LINE
  8
0
 62
     0
 10
1.47588
 20
130.335
 30
0.0
 11
1.62884
 21
130.377
 31
0.0
  0
LINE
  8
0
 62
     0
 10
1.62884
 20
130.377
 30
0.0
 11
1.7818
 21
130.408
 31
0.0
  0
LINE
  8
0
 62
     0
 10
1.7818
 20
130.408
 30
0.0
 11
1.9389
 21
130.426
 31
0.0
  0
LINE
  8
0
 62
     0
 10
1.9389
 20
130.426
 30
0.0
 11
2.096
 21
130.433
 31
0.0
  0
LINE
  8
0
 62
     0
 10
2.096
 20
130.433
 30
0.0
 11
318.896
 21
130.433
 31
0.0
  0
LINE
  8
0
 62
     0
 10
3.78548
 20
5.08497
 30
0.0
 11
3.50711
 21
4.94164
 31
0.0
  0
LINE
  8
0
 62
     0
 10
3.50711
 20
4.94164
 30
0.0
 11
3.28386
 21
4.71978
 31
0.0
  0
LINE
  8
0
 62
     0
 10
3.28386
 20
4.71978
 30
0.0
 11
3.14331
 21
4.4414
 31
0.0
  0
LINE
  8
0
 62
     0
 10
3.14331
 20
4.4414
 30
0.0
 11
3.09507
 21
4.13135
 31
0.0
  0
LINE
  8
0
 62
     0
 10
3.09507
 20
4.13135
 30
0.0
 11
3.14331
 21
3.82266
 31
0.0
  0
LINE
  8
0
 62
     0
 10
3.14331
 20
3.82266
 30
0.0
 11
3.28386
 21
3.54432
 31
0.0
  0
LINE
  8
0
 62
     0
 10
3.28386
 20
3.54432
 30
0.0
 11
3.50711
 21
3.32245
 31
0.0
  0
LINE
  8
0
 62
     0
 10
3.50711
 20
3.32245
 30
0.0
 11
3.78548
 21
3.18051
 31
0.0
  0
LINE
  8
0
 62
     0
 10
3.78548
 20
3.18051
 30
0.0
 11
4.09554
 21
3.1309
 31
0.0
  0
LINE
  8
0
 62
     0
 10
4.09554
 20
3.1309
 30
0.0
 11
4.40422
 21
3.18051
 31
0.0
  0
LINE
  8
0
 62
     0
 10
4.40422
 20
3.18051
 30
0.0
 11
4.68256
 21
3.32245
 31
0.0
  0
LINE
  8
0
 62
     0
 10
4.68256
 20
3.32245
 30
0.0
 11
4.90442
 21
3.54432
 31
0.0
  0
LINE
  8
0
 62
     0
 10
4.90442
 20
3.54432
 30
0.0
 11
5.04638
 21
3.82266
 31
0.0
  0
LINE
  8
0
 62
     0
 10
5.04638
 20
3.82266
 30
0.0
 11
5.09598
 21
4.13135
 31
0.0
  0
LINE
  8
0
 62
     0
 10
5.09598
 20
4.13135
 30
0.0
 11
5.04638
 21
4.4414
 31
0.0
  0
LINE
  8
0
 62
     0
 10
5.04638
 20
4.4414
 30
0.0
 11
4.90442
 21
4.71978
 31
0.0
  0
LINE
  8
0
 62
     0
 10
4.90442
 20
4.71978
 30
0.0
 11
4.68256
 21
4.94164
 31
0.0
  0
LINE
  8
0
 62
     0
 10
4.68256
 20
4.94164
 30
0.0
 11
4.40422
 21
5.08497
 31
0.0
  0
LINE
  8
0
 62
     0
 10
4.40422
 20
5.08497
 30
0.0
 11
4.09554
 21
5.13182
 31
0.0
  0
LINE
  8
0
 62
     0
 10
4.09554
 20
5.13182
 30
0.0
 11
3.78548
 21
5.08497
 31
0.0
  0
LINE
  8
0
 62
     0
 10
66.3469
 20
5.08497
 30
0.0
 11
66.0672
 21
4.94164
 31
0.0
  0
LINE
  8
0
 62
     0
 10
66.0672
 20
4.94164
 30
0.0
 11
65.8467
 21
4.71978
 31
0.0
  0
LINE
  8
0
 62
     0
 10
65.8467
 20
4.71978
 30
0.0
 11
65.7049
 21
4.4414
 31
0.0
  0
LINE
  8
0
 62
     0
 10
65.7049
 20
4.4414
 30
0.0
 11
65.6551
 21
4.13135
 31
0.0
  0
LINE
  8
0
 62
     0
 10
65.6551
 20
4.13135
 30
0.0
 11
65.7049
 21
3.82266
 31
0.0
  0
LINE
  8
0
 62
     0
 10
65.7049
 20
3.82266
 30
0.0
 11
65.8467
 21
3.54432
 31
0.0
  0
LINE
  8
0
 62
     0
 10
65.8467
 20
3.54432
 30
0.0
 11
66.0672
 21
3.32245
 31
0.0
  0
LINE
  8
0
 62
     0
 10
66.0672
 20
3.32245
 30
0.0
 11
66.3469
 21
3.18051
 31
0.0
  0
LINE
  8
0
 62
     0
 10
66.3469
 20
3.18051
 30
0.0
 11
66.6556
 21
3.1309
 31
0.0
  0
LINE
  8
0
 62
     0
 10
66.6556
 20
3.1309
 30
0.0
 11
66.9643
 21
3.18051
 31
0.0
  0
LINE
  8
0
 62
     0
 10
66.9643
 20
3.18051
 30
0.0
 11
67.2426
 21
3.32245
 31
0.0
  0
LINE
  8
0
 62
     0
 10
67.2426
 20
3.32245
 30
0.0
 11
67.4645
 21
3.54432
 31
0.0
  0
LINE
  8
0
 62
     0
 10
67.4645
 20
3.54432
 30
0.0
 11
67.6067
 21
3.82266
 31
0.0
  0
LINE
  8
0
 62
     0
 10
67.6067
 20
3.82266
 30
0.0
 11
67.6561
 21
4.13135
 31
0.0
  0
LINE
  8
0
 62
     0
 10
67.6561
 20
4.13135
 30
0.0
 11
67.6067
 21
4.4414
 31
0.0
  0
LINE
  8
0
 62
     0
 10
67.6067
 20
4.4414
 30
0.0
 11
67.4645
 21
4.71978
 31
0.0
  0
LINE
  8
0
 62
     0
 10
67.4645
 20
4.71978
 30
0.0
 11
67.2426
 21
4.94164
 31
0.0
  0
LINE
  8
0
 62
     0
 10
67.2426
 20
4.94164
 30
0.0
 11
66.9643
 21
5.08497
 31
0.0
  0
LINE
  8
0
 62
     0
 10
66.9643
 20
5.08497
 30
0.0
 11
66.6556
 21
5.13182
 31
0.0
  0
LINE
  8
0
 62
     0
 10
66.6556
 20
5.13182
 30
0.0
 11
66.3469
 21
5.08497
 31
0.0
  0
LINE
  8
0
 62
     0
 10
128.906
 20
5.08497
 30
0.0
 11
128.627
 21
4.94164
 31
0.0
  0
LINE
  8
0
 62
     0
 10
128.627
 20
4.94164
 30
0.0
 11
128.407
 21
4.71978
 31
0.0
  0
LINE
  8
0
 62
     0
 10
128.407
 20
4.71978
 30
0.0
 11
128.265
 21
4.4414
 31
0.0
  0
LINE
  8
0
 62
     0
 10
128.265
 20
4.4414
 30
0.0
 11
128.215
 21
4.13135
 31
0.0
  0
LINE
  8
0
 62
     0
 10
128.215
 20
4.13135
 30
0.0
 11
128.265
 21
3.82266
 31
0.0
  0
LINE
  8
0
 62
     0
 10
128.265
 20
3.82266
 30
0.0
 11
128.407
 21
3.54432
 31
0.0
  0
LINE
  8
0
 62
     0
 10
128.407
 20
3.54432
 30
0.0
 11
128.627
 21
3.32245
 31
0.0
  0
LINE
  8
0
 62
     0
 10
128.627
 20
3.32245
 30
0.0
 11
128.906
 21
3.18051
 31
0.0
  0
LINE
  8
0
 62
     0
 10
128.906
 20
3.18051
 30
0.0
 11
129.216
 21
3.1309
 31
0.0
  0
LINE
  8
0
 62
     0
 10
129.216
 20
3.1309
 30
0.0
 11
129.524
 21
3.18051
 31
0.0
  0
LINE
  8
0
 62
     0
 10
129.524
 20
3.18051
 30
0.0
 11
129.803
 21
3.32245
 31
0.0
  0
LINE
  8
0
 62
     0
 10
129.803
 20
3.32245
 30
0.0
 11
130.025
 21
3.54432
 31
0.0
  0
LINE
  8
0
 62
     0
 10
130.025
 20
3.54432
 30
0.0
 11
130.167
 21
3.82266
 31
0.0
  0
LINE
  8
0
 62
     0
 10
130.167
 20
3.82266
 30
0.0
 11
130.215
 21
4.13135
 31
0.0
  0
LINE
  8
0
 62
     0
 10
130.215
 20
4.13135
 30
0.0
 11
130.167
 21
4.4414
 31
0.0
  0
LINE
  8
0
 62
     0
 10
130.167
 20
4.4414
 30
0.0
 11
130.025
 21
4.71978
 31
0.0
  0
LINE
  8
0
 62
     0
 10
130.025
 20
4.71978
 30
0.0
 11
129.803
 21
4.94164
 31
0.0
  0
LINE
  8
0
 62
     0
 10
129.803
 20
4.94164
 30
0.0
 11
129.524
 21
5.08497
 31
0.0
  0
LINE
  8
0
 62
     0
 10
129.524
 20
5.08497
 30
0.0
 11
129.216
 21
5.13182
 31
0.0
  0
LINE
  8
0
 62
     0
 10
129.216
 20
5.13182
 30
0.0
 11
128.906
 21
5.08497
 31
0.0
  0
LINE
  8
0
 62
     0
 10
191.466
 20
5.08497
 30
0.0
 11
191.188
 21
4.94164
 31
0.0
  0
LINE
  8
0
 62
     0
 10
191.188
 20
4.94164
 30
0.0
 11
190.967
 21
4.71978
 31
0.0
  0
LINE
  8
0
 62
     0
 10
190.967
 20
4.71978
 30
0.0
 11
190.824
 21
4.4414
 31
0.0
  0
LINE
  8
0
 62
     0
 10
190.824
 20
4.4414
 30
0.0
 11
190.776
 21
4.13135
 31
0.0
  0
LINE
  8
0
 62
     0
 10
190.776
 20
4.13135
 30
0.0
 11
190.824
 21
3.82266
 31
0.0
  0
LINE
  8
0
 62
     0
 10
190.824
 20
3.82266
 30
0.0
 11
190.967
 21
3.54432
 31
0.0
  0
LINE
  8
0
 62
     0
 10
190.967
 20
3.54432
 30
0.0
 11
191.188
 21
3.32245
 31
0.0
  0
LINE
  8
0
 62
     0
 10
191.188
 20
3.32245
 30
0.0
 11
191.466
 21
3.18051
 31
0.0
  0
LINE
  8
0
 62
     0
 10
191.466
 20
3.18051
 30
0.0
 11
191.776
 21
3.1309
 31
0.0
  0
LINE
  8
0
 62
     0
 10
191.776
 20
3.1309
 30
0.0
 11
192.085
 21
3.18051
 31
0.0
  0
LINE
  8
0
 62
     0
 10
192.085
 20
3.18051
 30
0.0
 11
192.363
 21
3.32245
 31
0.0
  0
LINE
  8
0
 62
     0
 10
192.363
 20
3.32245
 30
0.0
 11
192.585
 21
3.54432
 31
0.0
  0
LINE
  8
0
 62
     0
 10
192.585
 20
3.54432
 30
0.0
 11
192.727
 21
3.82266
 31
0.0
  0
LINE
  8
0
 62
     0
 10
192.727
 20
3.82266
 30
0.0
 11
192.775
 21
4.13135
 31
0.0
  0
LINE
  8
0
 62
     0
 10
192.775
 20
4.13135
 30
0.0
 11
192.727
 21
4.4414
 31
0.0
  0
LINE
  8
0
 62
     0
 10
192.727
 20
4.4414
 30
0.0
 11
192.585
 21
4.71978
 31
0.0
  0
LINE
  8
0
 62
     0
 10
192.585
 20
4.71978
 30
0.0
 11
192.363
 21
4.94164
 31
0.0
  0
LINE
  8
0
 62
     0
 10
192.363
 20
4.94164
 30
0.0
 11
192.085
 21
5.08497
 31
0.0
  0
LINE
  8
0
 62
     0
 10
192.085
 20
5.08497
 30
0.0
 11
191.776
 21
5.13182
 31
0.0
  0
LINE
  8
0
 62
     0
 10
191.776
 20
5.13182
 30
0.0
 11
191.466
 21
5.08497
 31
0.0
  0
LINE
  8
0
 62
     0
 10
254.025
 20
5.08497
 30
0.0
 11
253.748
 21
4.94164
 31
0.0
  0
LINE
  8
0
 62
     0
 10
253.748
 20
4.94164
 30
0.0
 11
253.526
 21
4.71978
 31
0.0
  0
LINE
  8
0
 62
     0
 10
253.526
 20
4.71978
 30
0.0
 11
253.384
 21
4.4414
 31
0.0
  0
LINE
  8
0
 62
     0
 10
253.384
 20
4.4414
 30
0.0
 11
253.336
 21
4.13135
 31
0.0
  0
LINE
  8
0
 62
     0
 10
253.336
 20
4.13135
 30
0.0
 11
253.384
 21
3.82266
 31
0.0
  0
LINE
  8
0
 62
     0
 10
253.384
 20
3.82266
 30
0.0
 11
253.526
 21
3.54432
 31
0.0
  0
LINE
  8
0
 62
     0
 10
253.526
 20
3.54432
 30
0.0
 11
253.748
 21
3.32245
 31
0.0
  0
LINE
  8
0
 62
     0
 10
253.748
 20
3.32245
 30
0.0
 11
254.025
 21
3.18051
 31
0.0
  0
LINE
  8
0
 62
     0
 10
254.025
 20
3.18051
 30
0.0
 11
254.335
 21
3.1309
 31
0.0
  0
LINE
  8
0
 62
     0
 10
254.335
 20
3.1309
 30
0.0
 11
254.643
 21
3.18051
 31
0.0
  0
LINE
  8
0
 62
     0
 10
254.643
 20
3.18051
 30
0.0
 11
254.922
 21
3.32245
 31
0.0
  0
LINE
  8
0
 62
     0
 10
254.922
 20
3.32245
 30
0.0
 11
255.144
 21
3.54432
 31
0.0
  0
LINE
  8
0
 62
     0
 10
255.144
 20
3.54432
 30
0.0
 11
255.286
 21
3.82266
 31
0.0
  0
LINE
  8
0
 62
     0
 10
255.286
 20
3.82266
 30
0.0
 11
255.335
 21
4.13135
 31
0.0
  0
LINE
  8
0
 62
     0
 10
255.335
 20
4.13135
 30
0.0
 11
255.286
 21
4.4414
 31
0.0
  0
LINE
  8
0
 62
     0
 10
255.286
 20
4.4414
 30
0.0
 11
255.144
 21
4.71978
 31
0.0
  0
LINE
  8
0
 62
     0
 10
255.144
 20
4.71978
 30
0.0
 11
254.922
 21
4.94164
 31
0.0
  0
LINE
  8
0
 62
     0
 10
254.922
 20
4.94164
 30
0.0
 11
254.643
 21
5.08497
 31
0.0
  0
LINE
  8
0
 62
     0
 10
254.643
 20
5.08497
 30
0.0
 11
254.335
 21
5.13182
 31
0.0
  0
LINE
  8
0
 62
     0
 10
254.335
 20
5.13182
 30
0.0
 11
254.025
 21
5.08497
 31
0.0
  0
LINE
  8
0
 62
     0
 10
316.586
 20
5.08497
 30
0.0
 11
316.308
 21
4.94164
 31
0.0
  0
LINE
  8
0
 62
     0
 10
316.308
 20
4.94164
 30
0.0
 11
316.086
 21
4.71978
 31
0.0
  0
LINE
  8
0
 62
     0
 10
316.086
 20
4.71978
 30
0.0
 11
315.944
 21
4.4414
 31
0.0
  0
LINE
  8
0
 62
     0
 10
315.944
 20
4.4414
 30
0.0
 11
315.896
 21
4.13135
 31
0.0
  0
LINE
  8
0
 62
     0
 10
315.896
 20
4.13135
 30
0.0
 11
315.944
 21
3.82266
 31
0.0
  0
LINE
  8
0
 62
     0
 10
315.944
 20
3.82266
 30
0.0
 11
316.086
 21
3.54432
 31
0.0
  0
LINE
  8
0
 62
     0
 10
316.086
 20
3.54432
 30
0.0
 11
316.308
 21
3.32245
 31
0.0
  0
LINE
  8
0
 62
     0
 10
316.308
 20
3.32245
 30
0.0
 11
316.586
 21
3.18051
 31
0.0
  0
LINE
  8
0
 62
     0
 10
316.586
 20
3.18051
 30
0.0
 11
316.896
 21
3.1309
 31
0.0
  0
LINE
  8
0
 62
     0
 10
316.896
 20
3.1309
 30
0.0
 11
317.205
 21
3.18051
 31
0.0
  0
LINE
  8
0
 62
     0
 10
317.205
 20
3.18051
 30
0.0
 11
317.483
 21
3.32245
 31
0.0
  0
LINE
  8
0
 62
     0
 10
317.483
 20
3.32245
 30
0.0
 11
317.705
 21
3.54432
 31
0.0
  0
LINE
  8
0
 62
     0
 10
317.705
 20
3.54432
 30
0.0
 11
317.847
 21
3.82266
 31
0.0
  0
LINE
  8
0
 62
     0
 10
317.847
 20
3.82266
 30
0.0
 11
317.897
 21
4.13135
 31
0.0
  0
LINE
  8
0
 62
     0
 10
317.897
 20
4.13135
 30
0.0
 11
317.847
 21
4.4414
 31
0.0
  0
LINE
  8
0
 62
     0
 10
317.847
 20
4.4414
 30
0.0
 11
317.705
 21
4.71978
 31
0.0
  0
LINE
  8
0
 62
     0
 10
317.705
 20
4.71978
 30
0.0
 11
317.483
 21
4.94164
 31
0.0
  0
LINE
  8
0
 62
     0
 10
317.483
 20
4.94164
 30
0.0
 11
317.205
 21
5.08497
 31
0.0
  0
LINE
  8
0
 62
     0
 10
317.205
 20
5.08497
 30
0.0
 11
316.896
 21
5.13182
 31
0.0
  0
LINE
  8
0
 62
     0
 10
316.896
 20
5.13182
 30
0.0
 11
316.586
 21
5.08497
 31
0.0
  0
LINE
  8
0
 62
     0
 10
8.09322
 20
122.435
 30
0.0
 11
8.09322
 21
84.3319
 31
0.0
  0
LINE
  8
0
 62
     0
 10
8.09322
 20
84.3319
 30
0.0
 11
8.09459
 21
84.3319
 31
0.0
  0
LINE
  8
0
 62
     0
 10
8.09459
 20
84.3319
 30
0.0
 11
8.09459
 21
65.2833
 31
0.0
  0
LINE
  8
0
 62
     0
 10
8.09459
 20
65.2833
 30
0.0
 11
8.09322
 21
65.2833
 31
0.0
  0
LINE
  8
0
 62
     0
 10
8.09322
 20
65.2833
 30
0.0
 11
8.09322
 21
46.2319
 31
0.0
  0
LINE
  8
0
 62
     0
 10
8.09322
 20
46.2319
 30
0.0
 11
8.09459
 21
46.2319
 31
0.0
  0
LINE
  8
0
 62
     0
 10
8.09459
 20
46.2319
 30
0.0
 11
8.09459
 21
8.13181
 31
0.0
  0
LINE
  8
0
 62
     0
 10
8.09459
 20
8.13181
 30
0.0
 11
312.896
 21
8.13181
 31
0.0
  0
LINE
  8
0
 62
     0
 10
312.896
 20
8.13181
 30
0.0
 11
312.896
 21
122.435
 31
0.0
  0
LINE
  8
0
 62
     0
 10
312.896
 20
122.435
 30
0.0
 11
8.09322
 21
122.435
 31
0.0
  0
LINE
  8
0
 62
     0
 10
3.78548
 20
66.2326
 30
0.0
 11
3.50711
 21
66.0908
 31
0.0
  0
LINE
  8
0
 62
     0
 10
3.50711
 20
66.0908
 30
0.0
 11
3.28386
 21
65.8703
 31
0.0
  0
LINE
  8
0
 62
     0
 10
3.28386
 20
65.8703
 30
0.0
 11
3.14331
 21
65.592
 31
0.0
  0
LINE
  8
0
 62
     0
 10
3.14331
 20
65.592
 30
0.0
 11
3.09507
 21
65.2819
 31
0.0
  0
LINE
  8
0
 62
     0
 10
3.09507
 20
65.2819
 30
0.0
 11
3.14331
 21
64.9732
 31
0.0
  0
LINE
  8
0
 62
     0
 10
3.14331
 20
64.9732
 30
0.0
 11
3.28386
 21
64.6949
 31
0.0
  0
LINE
  8
0
 62
     0
 10
3.28386
 20
64.6949
 30
0.0
 11
3.50711
 21
64.473
 31
0.0
  0
LINE
  8
0
 62
     0
 10
3.50711
 20
64.473
 30
0.0
 11
3.78548
 21
64.3308
 31
0.0
  0
LINE
  8
0
 62
     0
 10
3.78548
 20
64.3308
 30
0.0
 11
4.09554
 21
64.2828
 31
0.0
  0
LINE
  8
0
 62
     0
 10
4.09554
 20
64.2828
 30
0.0
 11
4.40422
 21
64.3308
 31
0.0
  0
LINE
  8
0
 62
     0
 10
4.40422
 20
64.3308
 30
0.0
 11
4.68256
 21
64.473
 31
0.0
  0
LINE
  8
0
 62
     0
 10
4.68256
 20
64.473
 30
0.0
 11
4.90442
 21
64.6949
 31
0.0
  0
LINE
  8
0
 62
     0
 10
4.90442
 20
64.6949
 30
0.0
 11
5.04638
 21
64.9732
 31
0.0
  0
LINE
  8
0
 62
     0
 10
5.04638
 20
64.9732
 30
0.0
 11
5.09598
 21
65.2819
 31
0.0
  0
LINE
  8
0
 62
     0
 10
5.09598
 20
65.2819
 30
0.0
 11
5.04638
 21
65.592
 31
0.0
  0
LINE
  8
0
 62
     0
 10
5.04638
 20
65.592
 30
0.0
 11
4.90442
 21
65.8703
 31
0.0
  0
LINE
  8
0
 62
     0
 10
4.90442
 20
65.8703
 30
0.0
 11
4.68256
 21
66.0908
 31
0.0
  0
LINE
  8
0
 62
     0
 10
4.68256
 20
66.0908
 30
0.0
 11
4.40422
 21
66.2326
 31
0.0
  0
LINE
  8
0
 62
     0
 10
4.40422
 20
66.2326
 30
0.0
 11
4.09554
 21
66.2824
 31
0.0
  0
LINE
  8
0
 62
     0
 10
4.09554
 20
66.2824
 30
0.0
 11
3.78548
 21
66.2326
 31
0.0
  0
LINE
  8
0
 62
     0
 10
316.586
 20
66.2326
 30
0.0
 11
316.308
 21
66.0908
 31
0.0
  0
LINE
  8
0
 62
     0
 10
316.308
 20
66.0908
 30
0.0
 11
316.086
 21
65.8703
 31
0.0
  0
LINE
  8
0
 62
     0
 10
316.086
 20
65.8703
 30
0.0
 11
315.944
 21
65.592
 31
0.0
  0
LINE
  8
0
 62
     0
 10
315.944
 20
65.592
 30
0.0
 11
315.896
 21
65.2819
 31
0.0
  0
LINE
  8
0
 62
     0
 10
315.896
 20
65.2819
 30
0.0
 11
315.944
 21
64.9732
 31
0.0
  0
LINE
  8
0
 62
     0
 10
315.944
 20
64.9732
 30
0.0
 11
316.086
 21
64.6949
 31
0.0
  0
LINE
  8
0
 62
     0
 10
316.086
 20
64.6949
 30
0.0
 11
316.308
 21
64.473
 31
0.0
  0
LINE
  8
0
 62
     0
 10
316.308
 20
64.473
 30
0.0
 11
316.586
 21
64.3308
 31
0.0
  0
LINE
  8
0
 62
     0
 10
316.586
 20
64.3308
 30
0.0
 11
316.896
 21
64.2828
 31
0.0
  0
LINE
  8
0
 62
     0
 10
316.896
 20
64.2828
 30
0.0
 11
317.205
 21
64.3308
 31
0.0
  0
LINE
  8
0
 62
     0
 10
317.205
 20
64.3308
 30
0.0
 11
317.483
 21
64.473
 31
0.0
  0
LINE
  8
0
 62
     0
 10
317.483
 20
64.473
 30
0.0
 11
317.705
 21
64.6949
 31
0.0
  0
LINE
  8
0
 62
     0
 10
317.705
 20
64.6949
 30
0.0
 11
317.847
 21
64.9732
 31
0.0
  0
LINE
  8
0
 62
     0
 10
317.847
 20
64.9732
 30
0.0
 11
317.897
 21
65.2819
 31
0.0
  0
LINE
  8
0
 62
     0
 10
317.897
 20
65.2819
 30
0.0
 11
317.847
 21
65.592
 31
0.0
  0
LINE
  8
0
 62
     0
 10
317.847
 20
65.592
 30
0.0
 11
317.705
 21
65.8703
 31
0.0
  0
LINE
  8
0
 62
     0
 10
317.705
 20
65.8703
 30
0.0
 11
317.483
 21
66.0908
 31
0.0
  0
LINE
  8
0
 62
     0
 10
317.483
 20
66.0908
 30
0.0
 11
317.205
 21
66.2326
 31
0.0
  0
LINE
  8
0
 62
     0
 10
317.205
 20
66.2326
 30
0.0
 11
316.896
 21
66.2824
 31
0.0
  0
LINE
  8
0
 62
     0
 10
316.896
 20
66.2824
 30
0.0
 11
316.586
 21
66.2326
 31
0.0
  0
LINE
  8
0
 62
     0
 10
3.78548
 20
127.385
 30
0.0
 11
3.50711
 21
127.244
 31
0.0
  0
LINE
  8
0
 62
     0
 10
3.50711
 20
127.244
 30
0.0
 11
3.28386
 21
127.021
 31
0.0
  0
LINE
  8
0
 62
     0
 10
3.28386
 20
127.021
 30
0.0
 11
3.14331
 21
126.742
 31
0.0
  0
LINE
  8
0
 62
     0
 10
3.14331
 20
126.742
 30
0.0
 11
3.09507
 21
126.432
 31
0.0
  0
LINE
  8
0
 62
     0
 10
3.09507
 20
126.432
 30
0.0
 11
3.14331
 21
126.124
 31
0.0
  0
LINE
  8
0
 62
     0
 10
3.14331
 20
126.124
 30
0.0
 11
3.28386
 21
125.845
 31
0.0
  0
LINE
  8
0
 62
     0
 10
3.28386
 20
125.845
 30
0.0
 11
3.50711
 21
125.623
 31
0.0
  0
LINE
  8
0
 62
     0
 10
3.50711
 20
125.623
 30
0.0
 11
3.78548
 21
125.481
 31
0.0
  0
LINE
  8
0
 62
     0
 10
3.78548
 20
125.481
 30
0.0
 11
4.09554
 21
125.432
 31
0.0
  0
LINE
  8
0
 62
     0
 10
4.09554
 20
125.432
 30
0.0
 11
4.40422
 21
125.481
 31
0.0
  0
LINE
  8
0
 62
     0
 10
4.40422
 20
125.481
 30
0.0
 11
4.68256
 21
125.623
 31
0.0
  0
LINE
  8
0
 62
     0
 10
4.68256
 20
125.623
 30
0.0
 11
4.90442
 21
125.845
 31
0.0
  0
LINE
  8
0
 62
     0
 10
4.90442
 20
125.845
 30
0.0
 11
5.04638
 21
126.124
 31
0.0
  0
LINE
  8
0
 62
     0
 10
5.04638
 20
126.124
 30
0.0
 11
5.09598
 21
126.432
 31
0.0
  0
LINE
  8
0
 62
     0
 10
5.09598
 20
126.432
 30
0.0
 11
5.04638
 21
126.742
 31
0.0
  0
LINE
  8
0
 62
     0
 10
5.04638
 20
126.742
 30
0.0
 11
4.90442
 21
127.021
 31
0.0
  0
LINE
  8
0
 62
     0
 10
4.90442
 20
127.021
 30
0.0
 11
4.68256
 21
127.244
 31
0.0
  0
LINE
  8
0
 62
     0
 10
4.68256
 20
127.244
 30
0.0
 11
4.40422
 21
127.385
 31
0.0
  0
LINE
  8
0
 62
     0
 10
4.40422
 20
127.385
 30
0.0
 11
4.09554
 21
127.433
 31
0.0
  0
LINE
  8
0
 62
     0
 10
4.09554
 20
127.433
 30
0.0
 11
3.78548
 21
127.385
 31
0.0
  0
LINE
  8
0
 62
     0
 10
316.586
 20
127.385
 30
0.0
 11
316.308
 21
127.244
 31
0.0
  0
LINE
  8
0
 62
     0
 10
316.308
 20
127.244
 30
0.0
 11
316.086
 21
127.021
 31
0.0
  0
LINE
  8
0
 62
     0
 10
316.086
 20
127.021
 30
0.0
 11
315.944
 21
126.742
 31
0.0
  0
LINE
  8
0
 62
     0
 10
315.944
 20
126.742
 30
0.0
 11
315.896
 21
126.432
 31
0.0
  0
LINE
  8
0
 62
     0
 10
315.896
 20
126.432
 30
0.0
 11
315.944
 21
126.124
 31
0.0
  0
LINE
  8
0
 62
     0
 10
315.944
 20
126.124
 30
0.0
 11
316.086
 21
125.845
 31
0.0
  0
LINE
  8
0
 62
     0
 10
316.086
 20
125.845
 30
0.0
 11
316.308
 21
125.623
 31
0.0
  0
LINE
  8
0
 62
     0
 10
316.308
 20
125.623
 30
0.0
 11
316.586
 21
125.481
 31
0.0
  0
LINE
  8
0
 62
     0
 10
316.586
 20
125.481
 30
0.0
 11
316.896
 21
125.432
 31
0.0
  0
LINE
  8
0
 62
     0
 10
316.896
 20
125.432
 30
0.0
 11
317.205
 21
125.481
 31
0.0
  0
LINE
  8
0
 62
     0
 10
317.205
 20
125.481
 30
0.0
 11
317.483
 21
125.623
 31
0.0
  0
LINE
  8
0
 62
     0
 10
317.483
 20
125.623
 30
0.0
 11
317.705
 21
125.845
 31
0.0
  0
LINE
  8
0
 62
     0
 10
317.705
 20
125.845
 30
0.0
 11
317.847
 21
126.124
 31
0.0
  0
LINE
  8
0
 62
     0
 10
317.847
 20
126.124
 30
0.0
 11
317.897
 21
126.432
 31
0.0
  0
LINE
  8
0
 62
     0
 10
317.897
 20
126.432
 30
0.0
 11
317.847
 21
126.742
 31
0.0
  0
LINE
  8
0
 62
     0
 10
317.847
 20
126.742
 30
0.0
 11
317.705
 21
127.021
 31
0.0
  0
LINE
  8
0
 62
     0
 10
317.705
 20
127.021
 30
0.0
 11
317.483
 21
127.244
 31
0.0
  0
LINE
  8
0
 62
     0
 10
317.483
 20
127.244
 30
0.0
 11
317.205
 21
127.385
 31
0.0
  0
LINE
  8
0
 62
     0
 10
317.205
 20
127.385
 30
0.0
 11
316.896
 21
127.433
 31
0.0
  0
LINE
  8
0
 62
     0
 10
316.896
 20
127.433
 30
0.0
 11
316.586
 21
127.385
 31
0.0
  0
LINE
  8
0
 62
     0
 10
254.025
 20
127.385
 30
0.0
 11
253.748
 21
127.244
 31
0.0
  0
LINE
  8
0
 62
     0
 10
253.748
 20
127.244
 30
0.0
 11
253.526
 21
127.021
 31
0.0
  0
LINE
  8
0
 62
     0
 10
253.526
 20
127.021
 30
0.0
 11
253.384
 21
126.742
 31
0.0
  0
LINE
  8
0
 62
     0
 10
253.384
 20
126.742
 30
0.0
 11
253.336
 21
126.432
 31
0.0
  0
LINE
  8
0
 62
     0
 10
253.336
 20
126.432
 30
0.0
 11
253.384
 21
126.124
 31
0.0
  0
LINE
  8
0
 62
     0
 10
253.384
 20
126.124
 30
0.0
 11
253.526
 21
125.845
 31
0.0
  0
LINE
  8
0
 62
     0
 10
253.526
 20
125.845
 30
0.0
 11
253.748
 21
125.623
 31
0.0
  0
LINE
  8
0
 62
     0
 10
253.748
 20
125.623
 30
0.0
 11
254.025
 21
125.481
 31
0.0
  0
LINE
  8
0
 62
     0
 10
254.025
 20
125.481
 30
0.0
 11
254.335
 21
125.432
 31
0.0
  0
LINE
  8
0
 62
     0
 10
254.335
 20
125.432
 30
0.0
 11
254.643
 21
125.481
 31
0.0
  0
LINE
  8
0
 62
     0
 10
254.643
 20
125.481
 30
0.0
 11
254.922
 21
125.623
 31
0.0
  0
LINE
  8
0
 62
     0
 10
254.922
 20
125.623
 30
0.0
 11
255.144
 21
125.845
 31
0.0
  0
LINE
  8
0
 62
     0
 10
255.144
 20
125.845
 30
0.0
 11
255.286
 21
126.124
 31
0.0
  0
LINE
  8
0
 62
     0
 10
255.286
 20
126.124
 30
0.0
 11
255.335
 21
126.432
 31
0.0
  0
LINE
  8
0
 62
     0
 10
255.335
 20
126.432
 30
0.0
 11
255.286
 21
126.742
 31
0.0
  0
LINE
  8
0
 62
     0
 10
255.286
 20
126.742
 30
0.0
 11
255.144
 21
127.021
 31
0.0
  0
LINE
  8
0
 62
     0
 10
255.144
 20
127.021
 30
0.0
 11
254.922
 21
127.244
 31
0.0
  0
LINE
  8
0
 62
     0
 10
254.922
 20
127.244
 30
0.0
 11
254.643
 21
127.385
 31
0.0
  0
LINE
  8
0
 62
     0
 10
254.643
 20
127.385
 30
0.0
 11
254.335
 21
127.433
 31
0.0
  0
LINE
  8
0
 62
     0
 10
254.335
 20
127.433
 30
0.0
 11
254.025
 21
127.385
 31
0.0
  0
LINE
  8
0
 62
     0
 10
191.466
 20
127.385
 30
0.0
 11
191.188
 21
127.244
 31
0.0
  0
LINE
  8
0
 62
     0
 10
191.188
 20
127.244
 30
0.0
 11
190.967
 21
127.021
 31
0.0
  0
LINE
  8
0
 62
     0
 10
190.967
 20
127.021
 30
0.0
 11
190.824
 21
126.742
 31
0.0
  0
LINE
  8
0
 62
     0
 10
190.824
 20
126.742
 30
0.0
 11
190.776
 21
126.432
 31
0.0
  0
LINE
  8
0
 62
     0
 10
190.776
 20
126.432
 30
0.0
 11
190.824
 21
126.124
 31
0.0
  0
LINE
  8
0
 62
     0
 10
190.824
 20
126.124
 30
0.0
 11
190.967
 21
125.845
 31
0.0
  0
LINE
  8
0
 62
     0
 10
190.967
 20
125.845
 30
0.0
 11
191.188
 21
125.623
 31
0.0
  0
LINE
  8
0
 62
     0
 10
191.188
 20
125.623
 30
0.0
 11
191.466
 21
125.481
 31
0.0
  0
LINE
  8
0
 62
     0
 10
191.466
 20
125.481
 30
0.0
 11
191.776
 21
125.432
 31
0.0
  0
LINE
  8
0
 62
     0
 10
191.776
 20
125.432
 30
0.0
 11
192.085
 21
125.481
 31
0.0
  0
LINE
  8
0
 62
     0
 10
192.085
 20
125.481
 30
0.0
 11
192.363
 21
125.623
 31
0.0
  0
LINE
  8
0
 62
     0
 10
192.363
 20
125.623
 30
0.0
 11
192.585
 21
125.845
 31
0.0
  0
LINE
  8
0
 62
     0
 10
192.585
 20
125.845
 30
0.0
 11
192.727
 21
126.124
 31
0.0
  0
LINE
  8
0
 62
     0
 10
192.727
 20
126.124
 30
0.0
 11
192.775
 21
126.432
 31
0.0
  0
LINE
  8
0
 62
     0
 10
192.775
 20
126.432
 30
0.0
 11
192.727
 21
126.742
 31
0.0
  0
LINE
  8
0
 62
     0
 10
192.727
 20
126.742
 30
0.0
 11
192.585
 21
127.021
 31
0.0
  0
LINE
  8
0
 62
     0
 10
192.585
 20
127.021
 30
0.0
 11
192.363
 21
127.244
 31
0.0
  0
LINE
  8
0
 62
     0
 10
192.363
 20
127.244
 30
0.0
 11
192.085
 21
127.385
 31
0.0
  0
LINE
  8
0
 62
     0
 10
192.085
 20
127.385
 30
0.0
 11
191.776
 21
127.433
 31
0.0
  0
LINE
  8
0
 62
     0
 10
191.776
 20
127.433
 30
0.0
 11
191.466
 21
127.385
 31
0.0
  0
LINE
  8
0
 62
     0
 10
128.906
 20
127.385
 30
0.0
 11
128.627
 21
127.244
 31
0.0
  0
LINE
  8
0
 62
     0
 10
128.627
 20
127.244
 30
0.0
 11
128.407
 21
127.021
 31
0.0
  0
LINE
  8
0
 62
     0
 10
128.407
 20
127.021
 30
0.0
 11
128.265
 21
126.742
 31
0.0
  0
LINE
  8
0
 62
     0
 10
128.265
 20
126.742
 30
0.0
 11
128.215
 21
126.432
 31
0.0
  0
LINE
  8
0
 62
     0
 10
128.215
 20
126.432
 30
0.0
 11
128.265
 21
126.124
 31
0.0
  0
LINE
  8
0
 62
     0
 10
128.265
 20
126.124
 30
0.0
 11
128.407
 21
125.845
 31
0.0
  0
LINE
  8
0
 62
     0
 10
128.407
 20
125.845
 30
0.0
 11
128.627
 21
125.623
 31
0.0
  0
LINE
  8
0
 62
     0
 10
128.627
 20
125.623
 30
0.0
 11
128.906
 21
125.481
 31
0.0
  0
LINE
  8
0
 62
     0
 10
128.906
 20
125.481
 30
0.0
 11
129.216
 21
125.432
 31
0.0
  0
LINE
  8
0
 62
     0
 10
129.216
 20
125.432
 30
0.0
 11
129.524
 21
125.481
 31
0.0
  0
LINE
  8
0
 62
     0
 10
129.524
 20
125.481
 30
0.0
 11
129.803
 21
125.623
 31
0.0
  0
LINE
  8
0
 62
     0
 10
129.803
 20
125.623
 30
0.0
 11
130.025
 21
125.845
 31
0.0
  0
LINE
  8
0
 62
     0
 10
130.025
 20
125.845
 30
0.0
 11
130.167
 21
126.124
 31
0.0
  0
LINE
  8
0
 62
     0
 10
130.167
 20
126.124
 30
0.0
 11
130.215
 21
126.432
 31
0.0
  0
LINE
  8
0
 62
     0
 10
130.215
 20
126.432
 30
0.0
 11
130.167
 21
126.742
 31
0.0
  0
LINE
  8
0
 62
     0
 10
130.167
 20
126.742
 30
0.0
 11
130.025
 21
127.021
 31
0.0
  0
LINE
  8
0
 62
     0
 10
130.025
 20
127.021
 30
0.0
 11
129.803
 21
127.244
 31
0.0
  0
LINE
  8
0
 62
     0
 10
129.803
 20
127.244
 30
0.0
 11
129.524
 21
127.385
 31
0.0
  0
LINE
  8
0
 62
     0
 10
129.524
 20
127.385
 30
0.0
 11
129.216
 21
127.433
 31
0.0
  0
LINE
  8
0
 62
     0
 10
129.216
 20
127.433
 30
0.0
 11
128.906
 21
127.385
 31
0.0
  0
LINE
  8
0
 62
     0
 10
66.3469
 20
127.385
 30
0.0
 11
66.0672
 21
127.244
 31
0.0
  0
LINE
  8
0
 62
     0
 10
66.0672
 20
127.244
 30
0.0
 11
65.8467
 21
127.021
 31
0.0
  0
LINE
  8
0
 62
     0
 10
65.8467
 20
127.021
 30
0.0
 11
65.7049
 21
126.742
 31
0.0
  0
LINE
  8
0
 62
     0
 10
65.7049
 20
126.742
 30
0.0
 11
65.6551
 21
126.432
 31
0.0
  0
LINE
  8
0
 62
     0
 10
65.6551
 20
126.432
 30
0.0
 11
65.7049
 21
126.124
 31
0.0
  0
LINE
  8
0
 62
     0
 10
65.7049
 20
126.124
 30
0.0
 11
65.8467
 21
125.845
 31
0.0
  0
LINE
  8
0
 62
     0
 10
65.8467
 20
125.845
 30
0.0
 11
66.0672
 21
125.623
 31
0.0
  0
LINE
  8
0
 62
     0
 10
66.0672
 20
125.623
 30
0.0
 11
66.3469
 21
125.481
 31
0.0
  0
LINE
  8
0
 62
     0
 10
66.3469
 20
125.481
 30
0.0
 11
66.6556
 21
125.432
 31
0.0
  0
LINE
  8
0
 62
     0
 10
66.6556
 20
125.432
 30
0.0
 11
66.9643
 21
125.481
 31
0.0
  0
LINE
  8
0
 62
     0
 10
66.9643
 20
125.481
 30
0.0
 11
67.2426
 21
125.623
 31
0.0
  0
LINE
  8
0
 62
     0
 10
67.2426
 20
125.623
 30
0.0
 11
67.4645
 21
125.845
 31
0.0
  0
LINE
  8
0
 62
     0
 10
67.4645
 20
125.845
 30
0.0
 11
67.6067
 21
126.124
 31
0.0
  0
LINE
  8
0
 62
     0
 10
67.6067
 20
126.124
 30
0.0
 11
67.6561
 21
126.432
 31
0.0
  0
LINE
  8
0
 62
     0
 10
67.6561
 20
126.432
 30
0.0
 11
67.6067
 21
126.742
 31
0.0
  0
LINE
  8
0
 62
     0
 10
67.6067
 20
126.742
 30
0.0
 11
67.4645
 21
127.021
 31
0.0
  0
LINE
  8
0
 62
     0
 10
67.4645
 20
127.021
 30
0.0
 11
67.2426
 21
127.244
 31
0.0
  0
LINE
  8
0
 62
     0
 10
67.2426
 20
127.244
 30
0.0
 11
66.9643
 21
127.385
 31
0.0
  0
LINE
  8
0
 62
     0
 10
66.9643
 20
127.385
 30
0.0
 11
66.6556
 21
127.433
 31
0.0
  0
LINE
  8
0
 62
     0
 10
66.6556
 20
127.433
 30
0.0
 11
66.3469
 21
127.385
 31
0.0
  0
ENDSEC
  0
EOF
