  0
SECTION
  2
HEADER
  9
$ACADVER
  1
AC1009
  9
$EXTMIN
 10
0.0
 20
0.0
 30
0.0
  9
$EXTMAX
 10
1000.0
 20
1000.0
 30
0.0
  9
$FILLMODE
 70
 0
  9
$SPLFRAME
 70
 1
  0
ENDSEC
  0
SECTION
  2
TABLES
  0
TABLE
  2
LAYER
 70
1
  0
LAYER
  2
0
 70
     0
 62
     7
  6
CONTINUOUS
  0
ENDTAB
  0
ENDSEC
  0
SECTION
  2
ENTITIES
  0
LINE
  8
0
 62
     0
 10
200.597
 20
69.402
 30
0.0
 11
200.753
 21
69.3953
 31
0.0
  0
LINE
  8
0
 62
     0
 10
200.753
 20
69.3953
 30
0.0
 11
200.908
 21
69.3773
 31
0.0
  0
LINE
  8
0
 62
     0
 10
200.908
 20
69.3773
 30
0.0
 11
201.063
 21
69.3469
 31
0.0
  0
LINE
  8
0
 62
     0
 10
201.063
 20
69.3469
 30
0.0
 11
201.214
 21
69.3043
 31
0.0
  0
LINE
  8
0
 62
     0
 10
201.214
 20
69.3043
 30
0.0
 11
201.362
 21
69.2492
 31
0.0
  0
LINE
  8
0
 62
     0
 10
201.362
 20
69.2492
 30
0.0
 11
201.503
 21
69.1843
 31
0.0
  0
LINE
  8
0
 62
     0
 10
201.503
 20
69.1843
 30
0.0
 11
201.64
 21
69.1074
 31
0.0
  0
LINE
  8
0
 62
     0
 10
201.64
 20
69.1074
 30
0.0
 11
201.771
 21
69.0203
 31
0.0
  0
LINE
  8
0
 62
     0
 10
201.771
 20
69.0203
 30
0.0
 11
201.895
 21
68.9225
 31
0.0
  0
LINE
  8
0
 62
     0
 10
201.895
 20
68.9225
 30
0.0
 11
202.011
 21
68.8164
 31
0.0
  0
LINE
  8
0
 62
     0
 10
202.011
 20
68.8164
 30
0.0
 11
202.117
 21
68.7007
 31
0.0
  0
LINE
  8
0
 62
     0
 10
202.117
 20
68.7007
 30
0.0
 11
202.215
 21
68.5782
 31
0.0
  0
LINE
  8
0
 62
     0
 10
202.215
 20
68.5782
 30
0.0
 11
202.301
 21
68.447
 31
0.0
  0
LINE
  8
0
 62
     0
 10
202.301
 20
68.447
 30
0.0
 11
202.379
 21
68.3094
 31
0.0
  0
LINE
  8
0
 62
     0
 10
202.379
 20
68.3094
 30
0.0
 11
202.443
 21
68.1672
 31
0.0
  0
LINE
  8
0
 62
     0
 10
202.443
 20
68.1672
 30
0.0
 11
202.499
 21
68.0212
 31
0.0
  0
LINE
  8
0
 62
     0
 10
202.499
 20
68.0212
 30
0.0
 11
202.54
 21
67.8684
 31
0.0
  0
LINE
  8
0
 62
     0
 10
202.54
 20
67.8684
 30
0.0
 11
202.572
 21
67.7153
 31
0.0
  0
LINE
  8
0
 62
     0
 10
202.572
 20
67.7153
 30
0.0
 11
202.59
 21
67.5584
 31
0.0
  0
LINE
  8
0
 62
     0
 10
202.59
 20
67.5584
 30
0.0
 11
202.596
 21
67.4014
 31
0.0
  0
LINE
  8
0
 62
     0
 10
202.596
 20
67.4014
 30
0.0
 11
202.596
 21
2.25034
 31
0.0
  0
LINE
  8
0
 62
     0
 10
202.596
 20
2.25034
 30
0.0
 11
202.59
 21
2.09462
 31
0.0
  0
LINE
  8
0
 62
     0
 10
202.59
 20
2.09462
 30
0.0
 11
202.572
 21
1.9389
 31
0.0
  0
LINE
  8
0
 62
     0
 10
202.572
 20
1.9389
 30
0.0
 11
202.54
 21
1.78456
 31
0.0
  0
LINE
  8
0
 62
     0
 10
202.54
 20
1.78456
 30
0.0
 11
202.499
 21
1.63298
 31
0.0
  0
LINE
  8
0
 62
     0
 10
202.499
 20
1.63298
 30
0.0
 11
202.443
 21
1.48553
 31
0.0
  0
LINE
  8
0
 62
     0
 10
202.443
 20
1.48553
 30
0.0
 11
202.379
 21
1.34359
 31
0.0
  0
LINE
  8
0
 62
     0
 10
202.379
 20
1.34359
 30
0.0
 11
202.301
 21
1.20716
 31
0.0
  0
LINE
  8
0
 62
     0
 10
202.301
 20
1.20716
 30
0.0
 11
202.215
 21
1.07625
 31
0.0
  0
LINE
  8
0
 62
     0
 10
202.215
 20
1.07625
 30
0.0
 11
202.117
 21
0.952225
 31
0.0
  0
LINE
  8
0
 62
     0
 10
202.117
 20
0.952225
 30
0.0
 11
202.011
 21
0.836468
 31
0.0
  0
LINE
  8
0
 62
     0
 10
202.011
 20
0.836468
 30
0.0
 11
201.895
 21
0.730359
 31
0.0
  0
LINE
  8
0
 62
     0
 10
201.895
 20
0.730359
 30
0.0
 11
201.771
 21
0.63252
 31
0.0
  0
LINE
  8
0
 62
     0
 10
201.771
 20
0.63252
 30
0.0
 11
201.64
 21
0.545705
 31
0.0
  0
LINE
  8
0
 62
     0
 10
201.64
 20
0.545705
 30
0.0
 11
201.503
 21
0.468535
 31
0.0
  0
LINE
  8
0
 62
     0
 10
201.503
 20
0.468535
 30
0.0
 11
201.362
 21
0.403765
 31
0.0
  0
LINE
  8
0
 62
     0
 10
201.362
 20
0.403765
 30
0.0
 11
201.214
 21
0.348644
 31
0.0
  0
LINE
  8
0
 62
     0
 10
201.214
 20
0.348644
 30
0.0
 11
201.063
 21
0.307303
 31
0.0
  0
LINE
  8
0
 62
     0
 10
201.063
 20
0.307303
 30
0.0
 11
200.908
 21
0.275608
 31
0.0
  0
LINE
  8
0
 62
     0
 10
200.908
 20
0.275608
 30
0.0
 11
200.753
 21
0.257693
 31
0.0
  0
LINE
  8
0
 62
     0
 10
200.753
 20
0.257693
 30
0.0
 11
200.597
 21
0.252181
 31
0.0
  0
LINE
  8
0
 62
     0
 10
200.597
 20
0.252181
 30
0.0
 11
2.096
 21
0.250803
 31
0.0
  0
LINE
  8
0
 62
     0
 10
2.096
 20
0.250803
 30
0.0
 11
1.9389
 21
0.257693
 31
0.0
  0
LINE
  8
0
 62
     0
 10
1.9389
 20
0.257693
 30
0.0
 11
1.7818
 21
0.275608
 31
0.0
  0
LINE
  8
0
 62
     0
 10
1.7818
 20
0.275608
 30
0.0
 11
1.62884
 21
0.307303
 31
0.0
  0
LINE
  8
0
 62
     0
 10
1.62884
 20
0.307303
 30
0.0
 11
1.47588
 21
0.348644
 31
0.0
  0
LINE
  8
0
 62
     0
 10
1.47588
 20
0.348644
 30
0.0
 11
1.32981
 21
0.403765
 31
0.0
  0
LINE
  8
0
 62
     0
 10
1.32981
 20
0.403765
 30
0.0
 11
1.18787
 21
0.468535
 31
0.0
  0
LINE
  8
0
 62
     0
 10
1.18787
 20
0.468535
 30
0.0
 11
1.05006
 21
0.545705
 31
0.0
  0
LINE
  8
0
 62
     0
 10
1.05006
 20
0.545705
 30
0.0
 11
0.919152
 21
0.63252
 31
0.0
  0
LINE
  8
0
 62
     0
 10
0.919152
 20
0.63252
 30
0.0
 11
0.796505
 21
0.730359
 31
0.0
  0
LINE
  8
0
 62
     0
 10
0.796505
 20
0.730359
 30
0.0
 11
0.680752
 21
0.836468
 31
0.0
  0
LINE
  8
0
 62
     0
 10
0.680752
 20
0.836468
 30
0.0
 11
0.574643
 21
0.952225
 31
0.0
  0
LINE
  8
0
 62
     0
 10
0.574643
 20
0.952225
 30
0.0
 11
0.4768
 21
1.07625
 31
0.0
  0
LINE
  8
0
 62
     0
 10
0.4768
 20
1.07625
 30
0.0
 11
0.389985
 21
1.20716
 31
0.0
  0
LINE
  8
0
 62
     0
 10
0.389985
 20
1.20716
 30
0.0
 11
0.312815
 21
1.34359
 31
0.0
  0
LINE
  8
0
 62
     0
 10
0.312815
 20
1.34359
 30
0.0
 11
0.248047
 21
1.48553
 31
0.0
  0
LINE
  8
0
 62
     0
 10
0.248047
 20
1.48553
 30
0.0
 11
0.192925
 21
1.63298
 31
0.0
  0
LINE
  8
0
 62
     0
 10
0.192925
 20
1.63298
 30
0.0
 11
0.150206
 21
1.78456
 31
0.0
  0
LINE
  8
0
 62
     0
 10
0.150206
 20
1.78456
 30
0.0
 11
0.119889
 21
1.9389
 31
0.0
  0
LINE
  8
0
 62
     0
 10
0.119889
 20
1.9389
 30
0.0
 11
0.101975
 21
2.09462
 31
0.0
  0
LINE
  8
0
 62
     0
 10
0.101975
 20
2.09462
 30
0.0
 11
0.0950846
 21
2.25034
 31
0.0
  0
LINE
  8
0
 62
     0
 10
0.0950846
 20
2.25034
 30
0.0
 11
0.0950846
 21
67.4014
 31
0.0
  0
LINE
  8
0
 62
     0
 10
0.0950846
 20
67.4014
 30
0.0
 11
0.101975
 21
67.5584
 31
0.0
  0
LINE
  8
0
 62
     0
 10
0.101975
 20
67.5584
 30
0.0
 11
0.119889
 21
67.7153
 31
0.0
  0
LINE
  8
0
 62
     0
 10
0.119889
 20
67.7153
 30
0.0
 11
0.150206
 21
67.8684
 31
0.0
  0
LINE
  8
0
 62
     0
 10
0.150206
 20
67.8684
 30
0.0
 11
0.192925
 21
68.0212
 31
0.0
  0
LINE
  8
0
 62
     0
 10
0.192925
 20
68.0212
 30
0.0
 11
0.248047
 21
68.1672
 31
0.0
  0
LINE
  8
0
 62
     0
 10
0.248047
 20
68.1672
 30
0.0
 11
0.312815
 21
68.3094
 31
0.0
  0
LINE
  8
0
 62
     0
 10
0.312815
 20
68.3094
 30
0.0
 11
0.389985
 21
68.447
 31
0.0
  0
LINE
  8
0
 62
     0
 10
0.389985
 20
68.447
 30
0.0
 11
0.4768
 21
68.5782
 31
0.0
  0
LINE
  8
0
 62
     0
 10
0.4768
 20
68.5782
 30
0.0
 11
0.574643
 21
68.7007
 31
0.0
  0
LINE
  8
0
 62
     0
 10
0.574643
 20
68.7007
 30
0.0
 11
0.680752
 21
68.8164
 31
0.0
  0
LINE
  8
0
 62
     0
 10
0.680752
 20
68.8164
 30
0.0
 11
0.796505
 21
68.9225
 31
0.0
  0
LINE
  8
0
 62
     0
 10
0.796505
 20
68.9225
 30
0.0
 11
0.919152
 21
69.0203
 31
0.0
  0
LINE
  8
0
 62
     0
 10
0.919152
 20
69.0203
 30
0.0
 11
1.05006
 21
69.1074
 31
0.0
  0
LINE
  8
0
 62
     0
 10
1.05006
 20
69.1074
 30
0.0
 11
1.18787
 21
69.1843
 31
0.0
  0
LINE
  8
0
 62
     0
 10
1.18787
 20
69.1843
 30
0.0
 11
1.32981
 21
69.2492
 31
0.0
  0
LINE
  8
0
 62
     0
 10
1.32981
 20
69.2492
 30
0.0
 11
1.47588
 21
69.3043
 31
0.0
  0
LINE
  8
0
 62
     0
 10
1.47588
 20
69.3043
 30
0.0
 11
1.62884
 21
69.3469
 31
0.0
  0
LINE
  8
0
 62
     0
 10
1.62884
 20
69.3469
 30
0.0
 11
1.7818
 21
69.3773
 31
0.0
  0
LINE
  8
0
 62
     0
 10
1.7818
 20
69.3773
 30
0.0
 11
1.9389
 21
69.3953
 31
0.0
  0
LINE
  8
0
 62
     0
 10
1.9389
 20
69.3953
 30
0.0
 11
2.096
 21
69.402
 31
0.0
  0
LINE
  8
0
 62
     0
 10
2.096
 20
69.402
 30
0.0
 11
200.597
 21
69.402
 31
0.0
  0
LINE
  8
0
 62
     0
 10
2.75608
 20
4.2981
 30
0.0
 11
2.44878
 21
4.14101
 31
0.0
  0
LINE
  8
0
 62
     0
 10
2.44878
 20
4.14101
 30
0.0
 11
2.20486
 21
3.8971
 31
0.0
  0
LINE
  8
0
 62
     0
 10
2.20486
 20
3.8971
 30
0.0
 11
2.04914
 21
3.59117
 31
0.0
  0
LINE
  8
0
 62
     0
 10
2.04914
 20
3.59117
 30
0.0
 11
1.9954
 21
3.25079
 31
0.0
  0
LINE
  8
0
 62
     0
 10
1.9954
 20
3.25079
 30
0.0
 11
2.04914
 21
2.9118
 31
0.0
  0
LINE
  8
0
 62
     0
 10
2.04914
 20
2.9118
 30
0.0
 11
2.20486
 21
2.60449
 31
0.0
  0
LINE
  8
0
 62
     0
 10
2.20486
 20
2.60449
 30
0.0
 11
2.44878
 21
2.36196
 31
0.0
  0
LINE
  8
0
 62
     0
 10
2.44878
 20
2.36196
 30
0.0
 11
2.75608
 21
2.20486
 31
0.0
  0
LINE
  8
0
 62
     0
 10
2.75608
 20
2.20486
 30
0.0
 11
3.09507
 21
2.15112
 31
0.0
  0
LINE
  8
0
 62
     0
 10
3.09507
 20
2.15112
 30
0.0
 11
3.43407
 21
2.20486
 31
0.0
  0
LINE
  8
0
 62
     0
 10
3.43407
 20
2.20486
 30
0.0
 11
3.74138
 21
2.36196
 31
0.0
  0
LINE
  8
0
 62
     0
 10
3.74138
 20
2.36196
 30
0.0
 11
3.98392
 21
2.60449
 31
0.0
  0
LINE
  8
0
 62
     0
 10
3.98392
 20
2.60449
 30
0.0
 11
4.14101
 21
2.9118
 31
0.0
  0
LINE
  8
0
 62
     0
 10
4.14101
 20
2.9118
 30
0.0
 11
4.19612
 21
3.25079
 31
0.0
  0
LINE
  8
0
 62
     0
 10
4.19612
 20
3.25079
 30
0.0
 11
4.14101
 21
3.59117
 31
0.0
  0
LINE
  8
0
 62
     0
 10
4.14101
 20
3.59117
 30
0.0
 11
3.98392
 21
3.8971
 31
0.0
  0
LINE
  8
0
 62
     0
 10
3.98392
 20
3.8971
 30
0.0
 11
3.74138
 21
4.14101
 31
0.0
  0
LINE
  8
0
 62
     0
 10
3.74138
 20
4.14101
 30
0.0
 11
3.43407
 21
4.2981
 31
0.0
  0
LINE
  8
0
 62
     0
 10
3.43407
 20
4.2981
 30
0.0
 11
3.09507
 21
4.35046
 31
0.0
  0
LINE
  8
0
 62
     0
 10
3.09507
 20
4.35046
 30
0.0
 11
2.75608
 21
4.2981
 31
0.0
  0
LINE
  8
0
 62
     0
 10
68.2554
 20
4.2981
 30
0.0
 11
67.9482
 21
4.14101
 31
0.0
  0
LINE
  8
0
 62
     0
 10
67.9482
 20
4.14101
 30
0.0
 11
67.7058
 21
3.8971
 31
0.0
  0
LINE
  8
0
 62
     0
 10
67.7058
 20
3.8971
 30
0.0
 11
67.5499
 21
3.59117
 31
0.0
  0
LINE
  8
0
 62
     0
 10
67.5499
 20
3.59117
 30
0.0
 11
67.4949
 21
3.25079
 31
0.0
  0
LINE
  8
0
 62
     0
 10
67.4949
 20
3.25079
 30
0.0
 11
67.5499
 21
2.9118
 31
0.0
  0
LINE
  8
0
 62
     0
 10
67.5499
 20
2.9118
 30
0.0
 11
67.7058
 21
2.60449
 31
0.0
  0
LINE
  8
0
 62
     0
 10
67.7058
 20
2.60449
 30
0.0
 11
67.9482
 21
2.36196
 31
0.0
  0
LINE
  8
0
 62
     0
 10
67.9482
 20
2.36196
 30
0.0
 11
68.2554
 21
2.20486
 31
0.0
  0
LINE
  8
0
 62
     0
 10
68.2554
 20
2.20486
 30
0.0
 11
68.5959
 21
2.15112
 31
0.0
  0
LINE
  8
0
 62
     0
 10
68.5959
 20
2.15112
 30
0.0
 11
68.9349
 21
2.20486
 31
0.0
  0
LINE
  8
0
 62
     0
 10
68.9349
 20
2.20486
 30
0.0
 11
69.2408
 21
2.36196
 31
0.0
  0
LINE
  8
0
 62
     0
 10
69.2408
 20
2.36196
 30
0.0
 11
69.4849
 21
2.60449
 31
0.0
  0
LINE
  8
0
 62
     0
 10
69.4849
 20
2.60449
 30
0.0
 11
69.6419
 21
2.9118
 31
0.0
  0
LINE
  8
0
 62
     0
 10
69.6419
 20
2.9118
 30
0.0
 11
69.6958
 21
3.25079
 31
0.0
  0
LINE
  8
0
 62
     0
 10
69.6958
 20
3.25079
 30
0.0
 11
69.6419
 21
3.59117
 31
0.0
  0
LINE
  8
0
 62
     0
 10
69.6419
 20
3.59117
 30
0.0
 11
69.4849
 21
3.8971
 31
0.0
  0
LINE
  8
0
 62
     0
 10
69.4849
 20
3.8971
 30
0.0
 11
69.2408
 21
4.14101
 31
0.0
  0
LINE
  8
0
 62
     0
 10
69.2408
 20
4.14101
 30
0.0
 11
68.9349
 21
4.2981
 31
0.0
  0
LINE
  8
0
 62
     0
 10
68.9349
 20
4.2981
 30
0.0
 11
68.5959
 21
4.35046
 31
0.0
  0
LINE
  8
0
 62
     0
 10
68.5959
 20
4.35046
 30
0.0
 11
68.2554
 21
4.2981
 31
0.0
  0
LINE
  8
0
 62
     0
 10
133.755
 20
4.2981
 30
0.0
 11
133.449
 21
4.14101
 31
0.0
  0
LINE
  8
0
 62
     0
 10
133.449
 20
4.14101
 30
0.0
 11
133.205
 21
3.8971
 31
0.0
  0
LINE
  8
0
 62
     0
 10
133.205
 20
3.8971
 30
0.0
 11
133.049
 21
3.59117
 31
0.0
  0
LINE
  8
0
 62
     0
 10
133.049
 20
3.59117
 30
0.0
 11
132.996
 21
3.25079
 31
0.0
  0
LINE
  8
0
 62
     0
 10
132.996
 20
3.25079
 30
0.0
 11
133.049
 21
2.9118
 31
0.0
  0
LINE
  8
0
 62
     0
 10
133.049
 20
2.9118
 30
0.0
 11
133.205
 21
2.60449
 31
0.0
  0
LINE
  8
0
 62
     0
 10
133.205
 20
2.60449
 30
0.0
 11
133.449
 21
2.36196
 31
0.0
  0
LINE
  8
0
 62
     0
 10
133.449
 20
2.36196
 30
0.0
 11
133.755
 21
2.20486
 31
0.0
  0
LINE
  8
0
 62
     0
 10
133.755
 20
2.20486
 30
0.0
 11
134.095
 21
2.15112
 31
0.0
  0
LINE
  8
0
 62
     0
 10
134.095
 20
2.15112
 30
0.0
 11
134.436
 21
2.20486
 31
0.0
  0
LINE
  8
0
 62
     0
 10
134.436
 20
2.20486
 30
0.0
 11
134.742
 21
2.36196
 31
0.0
  0
LINE
  8
0
 62
     0
 10
134.742
 20
2.36196
 30
0.0
 11
134.986
 21
2.60449
 31
0.0
  0
LINE
  8
0
 62
     0
 10
134.986
 20
2.60449
 30
0.0
 11
135.141
 21
2.9118
 31
0.0
  0
LINE
  8
0
 62
     0
 10
135.141
 20
2.9118
 30
0.0
 11
135.195
 21
3.25079
 31
0.0
  0
LINE
  8
0
 62
     0
 10
135.195
 20
3.25079
 30
0.0
 11
135.141
 21
3.59117
 31
0.0
  0
LINE
  8
0
 62
     0
 10
135.141
 20
3.59117
 30
0.0
 11
134.986
 21
3.8971
 31
0.0
  0
LINE
  8
0
 62
     0
 10
134.986
 20
3.8971
 30
0.0
 11
134.742
 21
4.14101
 31
0.0
  0
LINE
  8
0
 62
     0
 10
134.742
 20
4.14101
 30
0.0
 11
134.436
 21
4.2981
 31
0.0
  0
LINE
  8
0
 62
     0
 10
134.436
 20
4.2981
 30
0.0
 11
134.095
 21
4.35046
 31
0.0
  0
LINE
  8
0
 62
     0
 10
134.095
 20
4.35046
 30
0.0
 11
133.755
 21
4.2981
 31
0.0
  0
LINE
  8
0
 62
     0
 10
199.256
 20
4.2981
 30
0.0
 11
198.95
 21
4.14101
 31
0.0
  0
LINE
  8
0
 62
     0
 10
198.95
 20
4.14101
 30
0.0
 11
198.706
 21
3.8971
 31
0.0
  0
LINE
  8
0
 62
     0
 10
198.706
 20
3.8971
 30
0.0
 11
198.549
 21
3.59117
 31
0.0
  0
LINE
  8
0
 62
     0
 10
198.549
 20
3.59117
 30
0.0
 11
198.497
 21
3.25079
 31
0.0
  0
LINE
  8
0
 62
     0
 10
198.497
 20
3.25079
 30
0.0
 11
198.549
 21
2.9118
 31
0.0
  0
LINE
  8
0
 62
     0
 10
198.549
 20
2.9118
 30
0.0
 11
198.706
 21
2.60449
 31
0.0
  0
LINE
  8
0
 62
     0
 10
198.706
 20
2.60449
 30
0.0
 11
198.95
 21
2.36196
 31
0.0
  0
LINE
  8
0
 62
     0
 10
198.95
 20
2.36196
 30
0.0
 11
199.256
 21
2.20486
 31
0.0
  0
LINE
  8
0
 62
     0
 10
199.256
 20
2.20486
 30
0.0
 11
199.596
 21
2.15112
 31
0.0
  0
LINE
  8
0
 62
     0
 10
199.596
 20
2.15112
 30
0.0
 11
199.935
 21
2.20486
 31
0.0
  0
LINE
  8
0
 62
     0
 10
199.935
 20
2.20486
 30
0.0
 11
200.243
 21
2.36196
 31
0.0
  0
LINE
  8
0
 62
     0
 10
200.243
 20
2.36196
 30
0.0
 11
200.485
 21
2.60449
 31
0.0
  0
LINE
  8
0
 62
     0
 10
200.485
 20
2.60449
 30
0.0
 11
200.642
 21
2.9118
 31
0.0
  0
LINE
  8
0
 62
     0
 10
200.642
 20
2.9118
 30
0.0
 11
200.696
 21
3.25079
 31
0.0
  0
LINE
  8
0
 62
     0
 10
200.696
 20
3.25079
 30
0.0
 11
200.642
 21
3.59117
 31
0.0
  0
LINE
  8
0
 62
     0
 10
200.642
 20
3.59117
 30
0.0
 11
200.485
 21
3.8971
 31
0.0
  0
LINE
  8
0
 62
     0
 10
200.485
 20
3.8971
 30
0.0
 11
200.243
 21
4.14101
 31
0.0
  0
LINE
  8
0
 62
     0
 10
200.243
 20
4.14101
 30
0.0
 11
199.935
 21
4.2981
 31
0.0
  0
LINE
  8
0
 62
     0
 10
199.935
 20
4.2981
 30
0.0
 11
199.596
 21
4.35046
 31
0.0
  0
LINE
  8
0
 62
     0
 10
199.596
 20
4.35046
 30
0.0
 11
199.256
 21
4.2981
 31
0.0
  0
LINE
  8
0
 62
     0
 10
180.071
 20
22.7762
 30
0.0
 11
180.071
 21
21.7771
 31
0.0
  0
LINE
  8
0
 62
     0
 10
180.071
 20
21.7771
 30
0.0
 11
179.27
 21
21.7771
 31
0.0
  0
LINE
  8
0
 62
     0
 10
179.27
 20
21.7771
 30
0.0
 11
179.27
 21
18.6765
 31
0.0
  0
LINE
  8
0
 62
     0
 10
179.27
 20
18.6765
 30
0.0
 11
180.071
 21
18.6765
 31
0.0
  0
LINE
  8
0
 62
     0
 10
180.071
 20
18.6765
 30
0.0
 11
180.071
 21
12.8764
 31
0.0
  0
LINE
  8
0
 62
     0
 10
180.071
 20
12.8764
 30
0.0
 11
179.27
 21
12.8764
 31
0.0
  0
LINE
  8
0
 62
     0
 10
179.27
 20
12.8764
 30
0.0
 11
179.27
 21
9.77717
 31
0.0
  0
LINE
  8
0
 62
     0
 10
179.27
 20
9.77717
 30
0.0
 11
180.071
 21
9.77717
 31
0.0
  0
LINE
  8
0
 62
     0
 10
180.071
 20
9.77717
 30
0.0
 11
180.071
 21
8.77672
 31
0.0
  0
LINE
  8
0
 62
     0
 10
180.071
 20
8.77672
 30
0.0
 11
194.07
 21
8.77672
 31
0.0
  0
LINE
  8
0
 62
     0
 10
194.07
 20
8.77672
 30
0.0
 11
194.07
 21
9.77717
 31
0.0
  0
LINE
  8
0
 62
     0
 10
194.07
 20
9.77717
 30
0.0
 11
194.871
 21
9.77717
 31
0.0
  0
LINE
  8
0
 62
     0
 10
194.871
 20
9.77717
 30
0.0
 11
194.871
 21
12.8764
 31
0.0
  0
LINE
  8
0
 62
     0
 10
194.871
 20
12.8764
 30
0.0
 11
194.07
 21
12.8764
 31
0.0
  0
LINE
  8
0
 62
     0
 10
194.07
 20
12.8764
 30
0.0
 11
194.07
 21
18.6765
 31
0.0
  0
LINE
  8
0
 62
     0
 10
194.07
 20
18.6765
 30
0.0
 11
194.871
 21
18.6765
 31
0.0
  0
LINE
  8
0
 62
     0
 10
194.871
 20
18.6765
 30
0.0
 11
194.871
 21
21.7771
 31
0.0
  0
LINE
  8
0
 62
     0
 10
194.871
 20
21.7771
 30
0.0
 11
194.07
 21
21.7771
 31
0.0
  0
LINE
  8
0
 62
     0
 10
194.07
 20
21.7771
 30
0.0
 11
194.07
 21
22.7762
 31
0.0
  0
LINE
  8
0
 62
     0
 10
194.07
 20
22.7762
 30
0.0
 11
180.071
 21
22.7762
 31
0.0
  0
LINE
  8
0
 62
     0
 10
161.021
 20
22.7762
 30
0.0
 11
161.021
 21
21.7771
 31
0.0
  0
LINE
  8
0
 62
     0
 10
161.021
 20
21.7771
 30
0.0
 11
160.22
 21
21.7771
 31
0.0
  0
LINE
  8
0
 62
     0
 10
160.22
 20
21.7771
 30
0.0
 11
160.22
 21
18.6765
 31
0.0
  0
LINE
  8
0
 62
     0
 10
160.22
 20
18.6765
 30
0.0
 11
161.021
 21
18.6765
 31
0.0
  0
LINE
  8
0
 62
     0
 10
161.021
 20
18.6765
 30
0.0
 11
161.021
 21
12.8764
 31
0.0
  0
LINE
  8
0
 62
     0
 10
161.021
 20
12.8764
 30
0.0
 11
160.22
 21
12.8764
 31
0.0
  0
LINE
  8
0
 62
     0
 10
160.22
 20
12.8764
 30
0.0
 11
160.22
 21
9.77717
 31
0.0
  0
LINE
  8
0
 62
     0
 10
160.22
 20
9.77717
 30
0.0
 11
161.021
 21
9.77717
 31
0.0
  0
LINE
  8
0
 62
     0
 10
161.021
 20
9.77717
 30
0.0
 11
161.021
 21
8.77672
 31
0.0
  0
LINE
  8
0
 62
     0
 10
161.021
 20
8.77672
 30
0.0
 11
175.02
 21
8.77672
 31
0.0
  0
LINE
  8
0
 62
     0
 10
175.02
 20
8.77672
 30
0.0
 11
175.02
 21
9.77717
 31
0.0
  0
LINE
  8
0
 62
     0
 10
175.02
 20
9.77717
 30
0.0
 11
175.821
 21
9.77717
 31
0.0
  0
LINE
  8
0
 62
     0
 10
175.821
 20
9.77717
 30
0.0
 11
175.821
 21
12.8764
 31
0.0
  0
LINE
  8
0
 62
     0
 10
175.821
 20
12.8764
 30
0.0
 11
175.02
 21
12.8764
 31
0.0
  0
LINE
  8
0
 62
     0
 10
175.02
 20
12.8764
 30
0.0
 11
175.02
 21
18.6765
 31
0.0
  0
LINE
  8
0
 62
     0
 10
175.02
 20
18.6765
 30
0.0
 11
175.821
 21
18.6765
 31
0.0
  0
LINE
  8
0
 62
     0
 10
175.821
 20
18.6765
 30
0.0
 11
175.821
 21
21.7771
 31
0.0
  0
LINE
  8
0
 62
     0
 10
175.821
 20
21.7771
 30
0.0
 11
175.02
 21
21.7771
 31
0.0
  0
LINE
  8
0
 62
     0
 10
175.02
 20
21.7771
 30
0.0
 11
175.02
 21
22.7762
 31
0.0
  0
LINE
  8
0
 62
     0
 10
175.02
 20
22.7762
 30
0.0
 11
161.021
 21
22.7762
 31
0.0
  0
LINE
  8
0
 62
     0
 10
141.971
 20
22.7762
 30
0.0
 11
141.971
 21
21.7771
 31
0.0
  0
LINE
  8
0
 62
     0
 10
141.971
 20
21.7771
 30
0.0
 11
141.17
 21
21.7771
 31
0.0
  0
LINE
  8
0
 62
     0
 10
141.17
 20
21.7771
 30
0.0
 11
141.17
 21
18.6765
 31
0.0
  0
LINE
  8
0
 62
     0
 10
141.17
 20
18.6765
 30
0.0
 11
141.971
 21
18.6765
 31
0.0
  0
LINE
  8
0
 62
     0
 10
141.971
 20
18.6765
 30
0.0
 11
141.971
 21
12.8764
 31
0.0
  0
LINE
  8
0
 62
     0
 10
141.971
 20
12.8764
 30
0.0
 11
141.17
 21
12.8764
 31
0.0
  0
LINE
  8
0
 62
     0
 10
141.17
 20
12.8764
 30
0.0
 11
141.17
 21
9.77717
 31
0.0
  0
LINE
  8
0
 62
     0
 10
141.17
 20
9.77717
 30
0.0
 11
141.971
 21
9.77717
 31
0.0
  0
LINE
  8
0
 62
     0
 10
141.971
 20
9.77717
 30
0.0
 11
141.971
 21
8.77672
 31
0.0
  0
LINE
  8
0
 62
     0
 10
141.971
 20
8.77672
 30
0.0
 11
155.97
 21
8.77672
 31
0.0
  0
LINE
  8
0
 62
     0
 10
155.97
 20
8.77672
 30
0.0
 11
155.97
 21
9.77717
 31
0.0
  0
LINE
  8
0
 62
     0
 10
155.97
 20
9.77717
 30
0.0
 11
156.771
 21
9.77717
 31
0.0
  0
LINE
  8
0
 62
     0
 10
156.771
 20
9.77717
 30
0.0
 11
156.771
 21
12.8764
 31
0.0
  0
LINE
  8
0
 62
     0
 10
156.771
 20
12.8764
 30
0.0
 11
155.97
 21
12.8764
 31
0.0
  0
LINE
  8
0
 62
     0
 10
155.97
 20
12.8764
 30
0.0
 11
155.97
 21
18.6765
 31
0.0
  0
LINE
  8
0
 62
     0
 10
155.97
 20
18.6765
 30
0.0
 11
156.771
 21
18.6765
 31
0.0
  0
LINE
  8
0
 62
     0
 10
156.771
 20
18.6765
 30
0.0
 11
156.771
 21
21.7771
 31
0.0
  0
LINE
  8
0
 62
     0
 10
156.771
 20
21.7771
 30
0.0
 11
155.97
 21
21.7771
 31
0.0
  0
LINE
  8
0
 62
     0
 10
155.97
 20
21.7771
 30
0.0
 11
155.97
 21
22.7762
 31
0.0
  0
LINE
  8
0
 62
     0
 10
155.97
 20
22.7762
 30
0.0
 11
141.971
 21
22.7762
 31
0.0
  0
LINE
  8
0
 62
     0
 10
122.92
 20
22.7762
 30
0.0
 11
122.92
 21
21.7771
 31
0.0
  0
LINE
  8
0
 62
     0
 10
122.92
 20
21.7771
 30
0.0
 11
122.119
 21
21.7771
 31
0.0
  0
LINE
  8
0
 62
     0
 10
122.119
 20
21.7771
 30
0.0
 11
122.119
 21
18.6765
 31
0.0
  0
LINE
  8
0
 62
     0
 10
122.119
 20
18.6765
 30
0.0
 11
122.92
 21
18.6765
 31
0.0
  0
LINE
  8
0
 62
     0
 10
122.92
 20
18.6765
 30
0.0
 11
122.92
 21
12.8764
 31
0.0
  0
LINE
  8
0
 62
     0
 10
122.92
 20
12.8764
 30
0.0
 11
122.119
 21
12.8764
 31
0.0
  0
LINE
  8
0
 62
     0
 10
122.119
 20
12.8764
 30
0.0
 11
122.119
 21
9.77717
 31
0.0
  0
LINE
  8
0
 62
     0
 10
122.119
 20
9.77717
 30
0.0
 11
122.92
 21
9.77717
 31
0.0
  0
LINE
  8
0
 62
     0
 10
122.92
 20
9.77717
 30
0.0
 11
122.92
 21
8.77672
 31
0.0
  0
LINE
  8
0
 62
     0
 10
122.92
 20
8.77672
 30
0.0
 11
136.92
 21
8.77672
 31
0.0
  0
LINE
  8
0
 62
     0
 10
136.92
 20
8.77672
 30
0.0
 11
136.92
 21
9.77717
 31
0.0
  0
LINE
  8
0
 62
     0
 10
136.92
 20
9.77717
 30
0.0
 11
137.721
 21
9.77717
 31
0.0
  0
LINE
  8
0
 62
     0
 10
137.721
 20
9.77717
 30
0.0
 11
137.721
 21
12.8764
 31
0.0
  0
LINE
  8
0
 62
     0
 10
137.721
 20
12.8764
 30
0.0
 11
136.92
 21
12.8764
 31
0.0
  0
LINE
  8
0
 62
     0
 10
136.92
 20
12.8764
 30
0.0
 11
136.92
 21
18.6765
 31
0.0
  0
LINE
  8
0
 62
     0
 10
136.92
 20
18.6765
 30
0.0
 11
137.721
 21
18.6765
 31
0.0
  0
LINE
  8
0
 62
     0
 10
137.721
 20
18.6765
 30
0.0
 11
137.721
 21
21.7771
 31
0.0
  0
LINE
  8
0
 62
     0
 10
137.721
 20
21.7771
 30
0.0
 11
136.92
 21
21.7771
 31
0.0
  0
LINE
  8
0
 62
     0
 10
136.92
 20
21.7771
 30
0.0
 11
136.92
 21
22.7762
 31
0.0
  0
LINE
  8
0
 62
     0
 10
136.92
 20
22.7762
 30
0.0
 11
122.92
 21
22.7762
 31
0.0
  0
LINE
  8
0
 62
     0
 10
103.87
 20
22.7762
 30
0.0
 11
103.87
 21
21.7771
 31
0.0
  0
LINE
  8
0
 62
     0
 10
103.87
 20
21.7771
 30
0.0
 11
103.07
 21
21.7771
 31
0.0
  0
LINE
  8
0
 62
     0
 10
103.07
 20
21.7771
 30
0.0
 11
103.07
 21
18.6765
 31
0.0
  0
LINE
  8
0
 62
     0
 10
103.07
 20
18.6765
 30
0.0
 11
103.87
 21
18.6765
 31
0.0
  0
LINE
  8
0
 62
     0
 10
103.87
 20
18.6765
 30
0.0
 11
103.87
 21
12.8764
 31
0.0
  0
LINE
  8
0
 62
     0
 10
103.87
 20
12.8764
 30
0.0
 11
103.07
 21
12.8764
 31
0.0
  0
LINE
  8
0
 62
     0
 10
103.07
 20
12.8764
 30
0.0
 11
103.07
 21
9.77717
 31
0.0
  0
LINE
  8
0
 62
     0
 10
103.07
 20
9.77717
 30
0.0
 11
103.87
 21
9.77717
 31
0.0
  0
LINE
  8
0
 62
     0
 10
103.87
 20
9.77717
 30
0.0
 11
103.87
 21
8.77672
 31
0.0
  0
LINE
  8
0
 62
     0
 10
103.87
 20
8.77672
 30
0.0
 11
117.869
 21
8.77672
 31
0.0
  0
LINE
  8
0
 62
     0
 10
117.869
 20
8.77672
 30
0.0
 11
117.869
 21
9.77717
 31
0.0
  0
LINE
  8
0
 62
     0
 10
117.869
 20
9.77717
 30
0.0
 11
118.67
 21
9.77717
 31
0.0
  0
LINE
  8
0
 62
     0
 10
118.67
 20
9.77717
 30
0.0
 11
118.67
 21
12.8764
 31
0.0
  0
LINE
  8
0
 62
     0
 10
118.67
 20
12.8764
 30
0.0
 11
117.869
 21
12.8764
 31
0.0
  0
LINE
  8
0
 62
     0
 10
117.869
 20
12.8764
 30
0.0
 11
117.869
 21
18.6765
 31
0.0
  0
LINE
  8
0
 62
     0
 10
117.869
 20
18.6765
 30
0.0
 11
118.67
 21
18.6765
 31
0.0
  0
LINE
  8
0
 62
     0
 10
118.67
 20
18.6765
 30
0.0
 11
118.67
 21
21.7771
 31
0.0
  0
LINE
  8
0
 62
     0
 10
118.67
 20
21.7771
 30
0.0
 11
117.869
 21
21.7771
 31
0.0
  0
LINE
  8
0
 62
     0
 10
117.869
 20
21.7771
 30
0.0
 11
117.869
 21
22.7762
 31
0.0
  0
LINE
  8
0
 62
     0
 10
117.869
 20
22.7762
 30
0.0
 11
103.87
 21
22.7762
 31
0.0
  0
LINE
  8
0
 62
     0
 10
84.8212
 20
22.7762
 30
0.0
 11
84.8212
 21
21.7771
 31
0.0
  0
LINE
  8
0
 62
     0
 10
84.8212
 20
21.7771
 30
0.0
 11
84.0204
 21
21.7771
 31
0.0
  0
LINE
  8
0
 62
     0
 10
84.0204
 20
21.7771
 30
0.0
 11
84.0204
 21
18.6765
 31
0.0
  0
LINE
  8
0
 62
     0
 10
84.0204
 20
18.6765
 30
0.0
 11
84.8212
 21
18.6765
 31
0.0
  0
LINE
  8
0
 62
     0
 10
84.8212
 20
18.6765
 30
0.0
 11
84.8212
 21
12.8764
 31
0.0
  0
LINE
  8
0
 62
     0
 10
84.8212
 20
12.8764
 30
0.0
 11
84.0204
 21
12.8764
 31
0.0
  0
LINE
  8
0
 62
     0
 10
84.0204
 20
12.8764
 30
0.0
 11
84.0204
 21
9.77717
 31
0.0
  0
LINE
  8
0
 62
     0
 10
84.0204
 20
9.77717
 30
0.0
 11
84.8212
 21
9.77717
 31
0.0
  0
LINE
  8
0
 62
     0
 10
84.8212
 20
9.77717
 30
0.0
 11
84.8212
 21
8.77672
 31
0.0
  0
LINE
  8
0
 62
     0
 10
84.8212
 20
8.77672
 30
0.0
 11
98.8205
 21
8.77672
 31
0.0
  0
LINE
  8
0
 62
     0
 10
98.8205
 20
8.77672
 30
0.0
 11
98.8205
 21
9.77717
 31
0.0
  0
LINE
  8
0
 62
     0
 10
98.8205
 20
9.77717
 30
0.0
 11
99.6199
 21
9.77717
 31
0.0
  0
LINE
  8
0
 62
     0
 10
99.6199
 20
9.77717
 30
0.0
 11
99.6199
 21
12.8764
 31
0.0
  0
LINE
  8
0
 62
     0
 10
99.6199
 20
12.8764
 30
0.0
 11
98.8205
 21
12.8764
 31
0.0
  0
LINE
  8
0
 62
     0
 10
98.8205
 20
12.8764
 30
0.0
 11
98.8205
 21
18.6765
 31
0.0
  0
LINE
  8
0
 62
     0
 10
98.8205
 20
18.6765
 30
0.0
 11
99.6199
 21
18.6765
 31
0.0
  0
LINE
  8
0
 62
     0
 10
99.6199
 20
18.6765
 30
0.0
 11
99.6199
 21
21.7771
 31
0.0
  0
LINE
  8
0
 62
     0
 10
99.6199
 20
21.7771
 30
0.0
 11
98.8205
 21
21.7771
 31
0.0
  0
LINE
  8
0
 62
     0
 10
98.8205
 20
21.7771
 30
0.0
 11
98.8205
 21
22.7762
 31
0.0
  0
LINE
  8
0
 62
     0
 10
98.8205
 20
22.7762
 30
0.0
 11
84.8212
 21
22.7762
 31
0.0
  0
LINE
  8
0
 62
     0
 10
65.7712
 20
22.7762
 30
0.0
 11
65.7712
 21
21.7771
 31
0.0
  0
LINE
  8
0
 62
     0
 10
65.7712
 20
21.7771
 30
0.0
 11
64.9704
 21
21.7771
 31
0.0
  0
LINE
  8
0
 62
     0
 10
64.9704
 20
21.7771
 30
0.0
 11
64.9704
 21
18.6765
 31
0.0
  0
LINE
  8
0
 62
     0
 10
64.9704
 20
18.6765
 30
0.0
 11
65.7712
 21
18.6765
 31
0.0
  0
LINE
  8
0
 62
     0
 10
65.7712
 20
18.6765
 30
0.0
 11
65.7712
 21
12.8764
 31
0.0
  0
LINE
  8
0
 62
     0
 10
65.7712
 20
12.8764
 30
0.0
 11
64.9704
 21
12.8764
 31
0.0
  0
LINE
  8
0
 62
     0
 10
64.9704
 20
12.8764
 30
0.0
 11
64.9704
 21
9.77717
 31
0.0
  0
LINE
  8
0
 62
     0
 10
64.9704
 20
9.77717
 30
0.0
 11
65.7712
 21
9.77717
 31
0.0
  0
LINE
  8
0
 62
     0
 10
65.7712
 20
9.77717
 30
0.0
 11
65.7712
 21
8.77672
 31
0.0
  0
LINE
  8
0
 62
     0
 10
65.7712
 20
8.77672
 30
0.0
 11
79.7705
 21
8.77672
 31
0.0
  0
LINE
  8
0
 62
     0
 10
79.7705
 20
8.77672
 30
0.0
 11
79.7705
 21
9.77717
 31
0.0
  0
LINE
  8
0
 62
     0
 10
79.7705
 20
9.77717
 30
0.0
 11
80.5713
 21
9.77717
 31
0.0
  0
LINE
  8
0
 62
     0
 10
80.5713
 20
9.77717
 30
0.0
 11
80.5713
 21
12.8764
 31
0.0
  0
LINE
  8
0
 62
     0
 10
80.5713
 20
12.8764
 30
0.0
 11
79.7705
 21
12.8764
 31
0.0
  0
LINE
  8
0
 62
     0
 10
79.7705
 20
12.8764
 30
0.0
 11
79.7705
 21
18.6765
 31
0.0
  0
LINE
  8
0
 62
     0
 10
79.7705
 20
18.6765
 30
0.0
 11
80.5713
 21
18.6765
 31
0.0
  0
LINE
  8
0
 62
     0
 10
80.5713
 20
18.6765
 30
0.0
 11
80.5713
 21
21.7771
 31
0.0
  0
LINE
  8
0
 62
     0
 10
80.5713
 20
21.7771
 30
0.0
 11
79.7705
 21
21.7771
 31
0.0
  0
LINE
  8
0
 62
     0
 10
79.7705
 20
21.7771
 30
0.0
 11
79.7705
 21
22.7762
 31
0.0
  0
LINE
  8
0
 62
     0
 10
79.7705
 20
22.7762
 30
0.0
 11
65.7712
 21
22.7762
 31
0.0
  0
LINE
  8
0
 62
     0
 10
46.7212
 20
22.7762
 30
0.0
 11
46.7212
 21
21.7771
 31
0.0
  0
LINE
  8
0
 62
     0
 10
46.7212
 20
21.7771
 30
0.0
 11
45.9204
 21
21.7771
 31
0.0
  0
LINE
  8
0
 62
     0
 10
45.9204
 20
21.7771
 30
0.0
 11
45.9204
 21
18.6765
 31
0.0
  0
LINE
  8
0
 62
     0
 10
45.9204
 20
18.6765
 30
0.0
 11
46.7212
 21
18.6765
 31
0.0
  0
LINE
  8
0
 62
     0
 10
46.7212
 20
18.6765
 30
0.0
 11
46.7212
 21
12.8764
 31
0.0
  0
LINE
  8
0
 62
     0
 10
46.7212
 20
12.8764
 30
0.0
 11
45.9204
 21
12.8764
 31
0.0
  0
LINE
  8
0
 62
     0
 10
45.9204
 20
12.8764
 30
0.0
 11
45.9204
 21
9.77717
 31
0.0
  0
LINE
  8
0
 62
     0
 10
45.9204
 20
9.77717
 30
0.0
 11
46.7212
 21
9.77717
 31
0.0
  0
LINE
  8
0
 62
     0
 10
46.7212
 20
9.77717
 30
0.0
 11
46.7212
 21
8.77672
 31
0.0
  0
LINE
  8
0
 62
     0
 10
46.7212
 20
8.77672
 30
0.0
 11
60.7205
 21
8.77672
 31
0.0
  0
LINE
  8
0
 62
     0
 10
60.7205
 20
8.77672
 30
0.0
 11
60.7205
 21
9.77717
 31
0.0
  0
LINE
  8
0
 62
     0
 10
60.7205
 20
9.77717
 30
0.0
 11
61.5213
 21
9.77717
 31
0.0
  0
LINE
  8
0
 62
     0
 10
61.5213
 20
9.77717
 30
0.0
 11
61.5213
 21
12.8764
 31
0.0
  0
LINE
  8
0
 62
     0
 10
61.5213
 20
12.8764
 30
0.0
 11
60.7205
 21
12.8764
 31
0.0
  0
LINE
  8
0
 62
     0
 10
60.7205
 20
12.8764
 30
0.0
 11
60.7205
 21
18.6765
 31
0.0
  0
LINE
  8
0
 62
     0
 10
60.7205
 20
18.6765
 30
0.0
 11
61.5213
 21
18.6765
 31
0.0
  0
LINE
  8
0
 62
     0
 10
61.5213
 20
18.6765
 30
0.0
 11
61.5213
 21
21.7771
 31
0.0
  0
LINE
  8
0
 62
     0
 10
61.5213
 20
21.7771
 30
0.0
 11
60.7205
 21
21.7771
 31
0.0
  0
LINE
  8
0
 62
     0
 10
60.7205
 20
21.7771
 30
0.0
 11
60.7205
 21
22.7762
 31
0.0
  0
LINE
  8
0
 62
     0
 10
60.7205
 20
22.7762
 30
0.0
 11
46.7212
 21
22.7762
 31
0.0
  0
LINE
  8
0
 62
     0
 10
27.671
 20
22.7762
 30
0.0
 11
27.671
 21
21.7771
 31
0.0
  0
LINE
  8
0
 62
     0
 10
27.671
 20
21.7771
 30
0.0
 11
26.8704
 21
21.7771
 31
0.0
  0
LINE
  8
0
 62
     0
 10
26.8704
 20
21.7771
 30
0.0
 11
26.8704
 21
18.6765
 31
0.0
  0
LINE
  8
0
 62
     0
 10
26.8704
 20
18.6765
 30
0.0
 11
27.671
 21
18.6765
 31
0.0
  0
LINE
  8
0
 62
     0
 10
27.671
 20
18.6765
 30
0.0
 11
27.671
 21
12.8764
 31
0.0
  0
LINE
  8
0
 62
     0
 10
27.671
 20
12.8764
 30
0.0
 11
26.8704
 21
12.8764
 31
0.0
  0
LINE
  8
0
 62
     0
 10
26.8704
 20
12.8764
 30
0.0
 11
26.8704
 21
9.77717
 31
0.0
  0
LINE
  8
0
 62
     0
 10
26.8704
 20
9.77717
 30
0.0
 11
27.671
 21
9.77717
 31
0.0
  0
LINE
  8
0
 62
     0
 10
27.671
 20
9.77717
 30
0.0
 11
27.671
 21
8.77672
 31
0.0
  0
LINE
  8
0
 62
     0
 10
27.671
 20
8.77672
 30
0.0
 11
41.6705
 21
8.77672
 31
0.0
  0
LINE
  8
0
 62
     0
 10
41.6705
 20
8.77672
 30
0.0
 11
41.6705
 21
9.77717
 31
0.0
  0
LINE
  8
0
 62
     0
 10
41.6705
 20
9.77717
 30
0.0
 11
42.4713
 21
9.77717
 31
0.0
  0
LINE
  8
0
 62
     0
 10
42.4713
 20
9.77717
 30
0.0
 11
42.4713
 21
12.8764
 31
0.0
  0
LINE
  8
0
 62
     0
 10
42.4713
 20
12.8764
 30
0.0
 11
41.6705
 21
12.8764
 31
0.0
  0
LINE
  8
0
 62
     0
 10
41.6705
 20
12.8764
 30
0.0
 11
41.6705
 21
18.6765
 31
0.0
  0
LINE
  8
0
 62
     0
 10
41.6705
 20
18.6765
 30
0.0
 11
42.4713
 21
18.6765
 31
0.0
  0
LINE
  8
0
 62
     0
 10
42.4713
 20
18.6765
 30
0.0
 11
42.4713
 21
21.7771
 31
0.0
  0
LINE
  8
0
 62
     0
 10
42.4713
 20
21.7771
 30
0.0
 11
41.6705
 21
21.7771
 31
0.0
  0
LINE
  8
0
 62
     0
 10
41.6705
 20
21.7771
 30
0.0
 11
41.6705
 21
22.7762
 31
0.0
  0
LINE
  8
0
 62
     0
 10
41.6705
 20
22.7762
 30
0.0
 11
27.671
 21
22.7762
 31
0.0
  0
LINE
  8
0
 62
     0
 10
8.61963
 20
22.7762
 30
0.0
 11
8.61963
 21
21.7771
 31
0.0
  0
LINE
  8
0
 62
     0
 10
8.61963
 20
21.7771
 30
0.0
 11
7.819
 21
21.7771
 31
0.0
  0
LINE
  8
0
 62
     0
 10
7.819
 20
21.7771
 30
0.0
 11
7.819
 21
18.6765
 31
0.0
  0
LINE
  8
0
 62
     0
 10
7.819
 20
18.6765
 30
0.0
 11
8.61963
 21
18.6765
 31
0.0
  0
LINE
  8
0
 62
     0
 10
8.61963
 20
18.6765
 30
0.0
 11
8.61963
 21
12.8764
 31
0.0
  0
LINE
  8
0
 62
     0
 10
8.61963
 20
12.8764
 30
0.0
 11
7.819
 21
12.8764
 31
0.0
  0
LINE
  8
0
 62
     0
 10
7.819
 20
12.8764
 30
0.0
 11
7.819
 21
9.77717
 31
0.0
  0
LINE
  8
0
 62
     0
 10
7.819
 20
9.77717
 30
0.0
 11
8.61963
 21
9.77717
 31
0.0
  0
LINE
  8
0
 62
     0
 10
8.61963
 20
9.77717
 30
0.0
 11
8.61963
 21
8.77672
 31
0.0
  0
LINE
  8
0
 62
     0
 10
8.61963
 20
8.77672
 30
0.0
 11
22.6205
 21
8.77672
 31
0.0
  0
LINE
  8
0
 62
     0
 10
22.6205
 20
8.77672
 30
0.0
 11
22.6205
 21
9.77717
 31
0.0
  0
LINE
  8
0
 62
     0
 10
22.6205
 20
9.77717
 30
0.0
 11
23.4211
 21
9.77717
 31
0.0
  0
LINE
  8
0
 62
     0
 10
23.4211
 20
9.77717
 30
0.0
 11
23.4211
 21
12.8764
 31
0.0
  0
LINE
  8
0
 62
     0
 10
23.4211
 20
12.8764
 30
0.0
 11
22.6205
 21
12.8764
 31
0.0
  0
LINE
  8
0
 62
     0
 10
22.6205
 20
12.8764
 30
0.0
 11
22.6205
 21
18.6765
 31
0.0
  0
LINE
  8
0
 62
     0
 10
22.6205
 20
18.6765
 30
0.0
 11
23.4211
 21
18.6765
 31
0.0
  0
LINE
  8
0
 62
     0
 10
23.4211
 20
18.6765
 30
0.0
 11
23.4211
 21
21.7771
 31
0.0
  0
LINE
  8
0
 62
     0
 10
23.4211
 20
21.7771
 30
0.0
 11
22.6205
 21
21.7771
 31
0.0
  0
LINE
  8
0
 62
     0
 10
22.6205
 20
21.7771
 30
0.0
 11
22.6205
 21
22.7762
 31
0.0
  0
LINE
  8
0
 62
     0
 10
22.6205
 20
22.7762
 30
0.0
 11
8.61963
 21
22.7762
 31
0.0
  0
LINE
  8
0
 62
     0
 10
180.071
 20
41.8264
 30
0.0
 11
180.071
 21
40.827
 31
0.0
  0
LINE
  8
0
 62
     0
 10
180.071
 20
40.827
 30
0.0
 11
179.27
 21
40.827
 31
0.0
  0
LINE
  8
0
 62
     0
 10
179.27
 20
40.827
 30
0.0
 11
179.27
 21
37.7264
 31
0.0
  0
LINE
  8
0
 62
     0
 10
179.27
 20
37.7264
 30
0.0
 11
180.071
 21
37.7264
 31
0.0
  0
LINE
  8
0
 62
     0
 10
180.071
 20
37.7264
 30
0.0
 11
180.071
 21
31.9264
 31
0.0
  0
LINE
  8
0
 62
     0
 10
180.071
 20
31.9264
 30
0.0
 11
179.27
 21
31.9264
 31
0.0
  0
LINE
  8
0
 62
     0
 10
179.27
 20
31.9264
 30
0.0
 11
179.27
 21
28.8272
 31
0.0
  0
LINE
  8
0
 62
     0
 10
179.27
 20
28.8272
 30
0.0
 11
180.071
 21
28.8272
 31
0.0
  0
LINE
  8
0
 62
     0
 10
180.071
 20
28.8272
 30
0.0
 11
180.071
 21
27.8267
 31
0.0
  0
LINE
  8
0
 62
     0
 10
180.071
 20
27.8267
 30
0.0
 11
194.07
 21
27.8267
 31
0.0
  0
LINE
  8
0
 62
     0
 10
194.07
 20
27.8267
 30
0.0
 11
194.07
 21
28.8272
 31
0.0
  0
LINE
  8
0
 62
     0
 10
194.07
 20
28.8272
 30
0.0
 11
194.871
 21
28.8272
 31
0.0
  0
LINE
  8
0
 62
     0
 10
194.871
 20
28.8272
 30
0.0
 11
194.871
 21
31.9264
 31
0.0
  0
LINE
  8
0
 62
     0
 10
194.871
 20
31.9264
 30
0.0
 11
194.07
 21
31.9264
 31
0.0
  0
LINE
  8
0
 62
     0
 10
194.07
 20
31.9264
 30
0.0
 11
194.07
 21
37.7264
 31
0.0
  0
LINE
  8
0
 62
     0
 10
194.07
 20
37.7264
 30
0.0
 11
194.871
 21
37.7264
 31
0.0
  0
LINE
  8
0
 62
     0
 10
194.871
 20
37.7264
 30
0.0
 11
194.871
 21
40.827
 31
0.0
  0
LINE
  8
0
 62
     0
 10
194.871
 20
40.827
 30
0.0
 11
194.07
 21
40.827
 31
0.0
  0
LINE
  8
0
 62
     0
 10
194.07
 20
40.827
 30
0.0
 11
194.07
 21
41.8264
 31
0.0
  0
LINE
  8
0
 62
     0
 10
194.07
 20
41.8264
 30
0.0
 11
180.071
 21
41.8264
 31
0.0
  0
LINE
  8
0
 62
     0
 10
161.021
 20
41.8264
 30
0.0
 11
161.021
 21
40.827
 31
0.0
  0
LINE
  8
0
 62
     0
 10
161.021
 20
40.827
 30
0.0
 11
160.22
 21
40.827
 31
0.0
  0
LINE
  8
0
 62
     0
 10
160.22
 20
40.827
 30
0.0
 11
160.22
 21
37.7264
 31
0.0
  0
LINE
  8
0
 62
     0
 10
160.22
 20
37.7264
 30
0.0
 11
161.021
 21
37.7264
 31
0.0
  0
LINE
  8
0
 62
     0
 10
161.021
 20
37.7264
 30
0.0
 11
161.021
 21
31.9264
 31
0.0
  0
LINE
  8
0
 62
     0
 10
161.021
 20
31.9264
 30
0.0
 11
160.22
 21
31.9264
 31
0.0
  0
LINE
  8
0
 62
     0
 10
160.22
 20
31.9264
 30
0.0
 11
160.22
 21
28.8272
 31
0.0
  0
LINE
  8
0
 62
     0
 10
160.22
 20
28.8272
 30
0.0
 11
161.021
 21
28.8272
 31
0.0
  0
LINE
  8
0
 62
     0
 10
161.021
 20
28.8272
 30
0.0
 11
161.021
 21
27.8267
 31
0.0
  0
LINE
  8
0
 62
     0
 10
161.021
 20
27.8267
 30
0.0
 11
175.02
 21
27.8267
 31
0.0
  0
LINE
  8
0
 62
     0
 10
175.02
 20
27.8267
 30
0.0
 11
175.02
 21
28.8272
 31
0.0
  0
LINE
  8
0
 62
     0
 10
175.02
 20
28.8272
 30
0.0
 11
175.821
 21
28.8272
 31
0.0
  0
LINE
  8
0
 62
     0
 10
175.821
 20
28.8272
 30
0.0
 11
175.821
 21
31.9264
 31
0.0
  0
LINE
  8
0
 62
     0
 10
175.821
 20
31.9264
 30
0.0
 11
175.02
 21
31.9264
 31
0.0
  0
LINE
  8
0
 62
     0
 10
175.02
 20
31.9264
 30
0.0
 11
175.02
 21
37.7264
 31
0.0
  0
LINE
  8
0
 62
     0
 10
175.02
 20
37.7264
 30
0.0
 11
175.821
 21
37.7264
 31
0.0
  0
LINE
  8
0
 62
     0
 10
175.821
 20
37.7264
 30
0.0
 11
175.821
 21
40.827
 31
0.0
  0
LINE
  8
0
 62
     0
 10
175.821
 20
40.827
 30
0.0
 11
175.02
 21
40.827
 31
0.0
  0
LINE
  8
0
 62
     0
 10
175.02
 20
40.827
 30
0.0
 11
175.02
 21
41.8264
 31
0.0
  0
LINE
  8
0
 62
     0
 10
175.02
 20
41.8264
 30
0.0
 11
161.021
 21
41.8264
 31
0.0
  0
LINE
  8
0
 62
     0
 10
141.971
 20
41.8264
 30
0.0
 11
141.971
 21
40.827
 31
0.0
  0
LINE
  8
0
 62
     0
 10
141.971
 20
40.827
 30
0.0
 11
141.17
 21
40.827
 31
0.0
  0
LINE
  8
0
 62
     0
 10
141.17
 20
40.827
 30
0.0
 11
141.17
 21
37.7264
 31
0.0
  0
LINE
  8
0
 62
     0
 10
141.17
 20
37.7264
 30
0.0
 11
141.971
 21
37.7264
 31
0.0
  0
LINE
  8
0
 62
     0
 10
141.971
 20
37.7264
 30
0.0
 11
141.971
 21
31.9264
 31
0.0
  0
LINE
  8
0
 62
     0
 10
141.971
 20
31.9264
 30
0.0
 11
141.17
 21
31.9264
 31
0.0
  0
LINE
  8
0
 62
     0
 10
141.17
 20
31.9264
 30
0.0
 11
141.17
 21
28.8272
 31
0.0
  0
LINE
  8
0
 62
     0
 10
141.17
 20
28.8272
 30
0.0
 11
141.971
 21
28.8272
 31
0.0
  0
LINE
  8
0
 62
     0
 10
141.971
 20
28.8272
 30
0.0
 11
141.971
 21
27.8267
 31
0.0
  0
LINE
  8
0
 62
     0
 10
141.971
 20
27.8267
 30
0.0
 11
155.97
 21
27.8267
 31
0.0
  0
LINE
  8
0
 62
     0
 10
155.97
 20
27.8267
 30
0.0
 11
155.97
 21
28.8272
 31
0.0
  0
LINE
  8
0
 62
     0
 10
155.97
 20
28.8272
 30
0.0
 11
156.771
 21
28.8272
 31
0.0
  0
LINE
  8
0
 62
     0
 10
156.771
 20
28.8272
 30
0.0
 11
156.771
 21
31.9264
 31
0.0
  0
LINE
  8
0
 62
     0
 10
156.771
 20
31.9264
 30
0.0
 11
155.97
 21
31.9264
 31
0.0
  0
LINE
  8
0
 62
     0
 10
155.97
 20
31.9264
 30
0.0
 11
155.97
 21
37.7264
 31
0.0
  0
LINE
  8
0
 62
     0
 10
155.97
 20
37.7264
 30
0.0
 11
156.771
 21
37.7264
 31
0.0
  0
LINE
  8
0
 62
     0
 10
156.771
 20
37.7264
 30
0.0
 11
156.771
 21
40.827
 31
0.0
  0
LINE
  8
0
 62
     0
 10
156.771
 20
40.827
 30
0.0
 11
155.97
 21
40.827
 31
0.0
  0
LINE
  8
0
 62
     0
 10
155.97
 20
40.827
 30
0.0
 11
155.97
 21
41.8264
 31
0.0
  0
LINE
  8
0
 62
     0
 10
155.97
 20
41.8264
 30
0.0
 11
141.971
 21
41.8264
 31
0.0
  0
LINE
  8
0
 62
     0
 10
122.92
 20
41.8264
 30
0.0
 11
122.92
 21
40.827
 31
0.0
  0
LINE
  8
0
 62
     0
 10
122.92
 20
40.827
 30
0.0
 11
122.119
 21
40.827
 31
0.0
  0
LINE
  8
0
 62
     0
 10
122.119
 20
40.827
 30
0.0
 11
122.119
 21
37.7264
 31
0.0
  0
LINE
  8
0
 62
     0
 10
122.119
 20
37.7264
 30
0.0
 11
122.92
 21
37.7264
 31
0.0
  0
LINE
  8
0
 62
     0
 10
122.92
 20
37.7264
 30
0.0
 11
122.92
 21
31.9264
 31
0.0
  0
LINE
  8
0
 62
     0
 10
122.92
 20
31.9264
 30
0.0
 11
122.119
 21
31.9264
 31
0.0
  0
LINE
  8
0
 62
     0
 10
122.119
 20
31.9264
 30
0.0
 11
122.119
 21
28.8272
 31
0.0
  0
LINE
  8
0
 62
     0
 10
122.119
 20
28.8272
 30
0.0
 11
122.92
 21
28.8272
 31
0.0
  0
LINE
  8
0
 62
     0
 10
122.92
 20
28.8272
 30
0.0
 11
122.92
 21
27.8267
 31
0.0
  0
LINE
  8
0
 62
     0
 10
122.92
 20
27.8267
 30
0.0
 11
136.92
 21
27.8267
 31
0.0
  0
LINE
  8
0
 62
     0
 10
136.92
 20
27.8267
 30
0.0
 11
136.92
 21
28.8272
 31
0.0
  0
LINE
  8
0
 62
     0
 10
136.92
 20
28.8272
 30
0.0
 11
137.721
 21
28.8272
 31
0.0
  0
LINE
  8
0
 62
     0
 10
137.721
 20
28.8272
 30
0.0
 11
137.721
 21
31.9264
 31
0.0
  0
LINE
  8
0
 62
     0
 10
137.721
 20
31.9264
 30
0.0
 11
136.92
 21
31.9264
 31
0.0
  0
LINE
  8
0
 62
     0
 10
136.92
 20
31.9264
 30
0.0
 11
136.92
 21
37.7264
 31
0.0
  0
LINE
  8
0
 62
     0
 10
136.92
 20
37.7264
 30
0.0
 11
137.721
 21
37.7264
 31
0.0
  0
LINE
  8
0
 62
     0
 10
137.721
 20
37.7264
 30
0.0
 11
137.721
 21
40.827
 31
0.0
  0
LINE
  8
0
 62
     0
 10
137.721
 20
40.827
 30
0.0
 11
136.92
 21
40.827
 31
0.0
  0
LINE
  8
0
 62
     0
 10
136.92
 20
40.827
 30
0.0
 11
136.92
 21
41.8264
 31
0.0
  0
LINE
  8
0
 62
     0
 10
136.92
 20
41.8264
 30
0.0
 11
122.92
 21
41.8264
 31
0.0
  0
LINE
  8
0
 62
     0
 10
103.87
 20
41.8264
 30
0.0
 11
103.87
 21
40.827
 31
0.0
  0
LINE
  8
0
 62
     0
 10
103.87
 20
40.827
 30
0.0
 11
103.07
 21
40.827
 31
0.0
  0
LINE
  8
0
 62
     0
 10
103.07
 20
40.827
 30
0.0
 11
103.07
 21
37.7264
 31
0.0
  0
LINE
  8
0
 62
     0
 10
103.07
 20
37.7264
 30
0.0
 11
103.87
 21
37.7264
 31
0.0
  0
LINE
  8
0
 62
     0
 10
103.87
 20
37.7264
 30
0.0
 11
103.87
 21
31.9264
 31
0.0
  0
LINE
  8
0
 62
     0
 10
103.87
 20
31.9264
 30
0.0
 11
103.07
 21
31.9264
 31
0.0
  0
LINE
  8
0
 62
     0
 10
103.07
 20
31.9264
 30
0.0
 11
103.07
 21
28.8272
 31
0.0
  0
LINE
  8
0
 62
     0
 10
103.07
 20
28.8272
 30
0.0
 11
103.87
 21
28.8272
 31
0.0
  0
LINE
  8
0
 62
     0
 10
103.87
 20
28.8272
 30
0.0
 11
103.87
 21
27.8267
 31
0.0
  0
LINE
  8
0
 62
     0
 10
103.87
 20
27.8267
 30
0.0
 11
117.869
 21
27.8267
 31
0.0
  0
LINE
  8
0
 62
     0
 10
117.869
 20
27.8267
 30
0.0
 11
117.869
 21
28.8272
 31
0.0
  0
LINE
  8
0
 62
     0
 10
117.869
 20
28.8272
 30
0.0
 11
118.67
 21
28.8272
 31
0.0
  0
LINE
  8
0
 62
     0
 10
118.67
 20
28.8272
 30
0.0
 11
118.67
 21
31.9264
 31
0.0
  0
LINE
  8
0
 62
     0
 10
118.67
 20
31.9264
 30
0.0
 11
117.869
 21
31.9264
 31
0.0
  0
LINE
  8
0
 62
     0
 10
117.869
 20
31.9264
 30
0.0
 11
117.869
 21
37.7264
 31
0.0
  0
LINE
  8
0
 62
     0
 10
117.869
 20
37.7264
 30
0.0
 11
118.67
 21
37.7264
 31
0.0
  0
LINE
  8
0
 62
     0
 10
118.67
 20
37.7264
 30
0.0
 11
118.67
 21
40.827
 31
0.0
  0
LINE
  8
0
 62
     0
 10
118.67
 20
40.827
 30
0.0
 11
117.869
 21
40.827
 31
0.0
  0
LINE
  8
0
 62
     0
 10
117.869
 20
40.827
 30
0.0
 11
117.869
 21
41.8264
 31
0.0
  0
LINE
  8
0
 62
     0
 10
117.869
 20
41.8264
 30
0.0
 11
103.87
 21
41.8264
 31
0.0
  0
LINE
  8
0
 62
     0
 10
84.8212
 20
41.8264
 30
0.0
 11
84.8212
 21
40.827
 31
0.0
  0
LINE
  8
0
 62
     0
 10
84.8212
 20
40.827
 30
0.0
 11
84.0204
 21
40.827
 31
0.0
  0
LINE
  8
0
 62
     0
 10
84.0204
 20
40.827
 30
0.0
 11
84.0204
 21
37.7264
 31
0.0
  0
LINE
  8
0
 62
     0
 10
84.0204
 20
37.7264
 30
0.0
 11
84.8212
 21
37.7264
 31
0.0
  0
LINE
  8
0
 62
     0
 10
84.8212
 20
37.7264
 30
0.0
 11
84.8212
 21
31.9264
 31
0.0
  0
LINE
  8
0
 62
     0
 10
84.8212
 20
31.9264
 30
0.0
 11
84.0204
 21
31.9264
 31
0.0
  0
LINE
  8
0
 62
     0
 10
84.0204
 20
31.9264
 30
0.0
 11
84.0204
 21
28.8272
 31
0.0
  0
LINE
  8
0
 62
     0
 10
84.0204
 20
28.8272
 30
0.0
 11
84.8212
 21
28.8272
 31
0.0
  0
LINE
  8
0
 62
     0
 10
84.8212
 20
28.8272
 30
0.0
 11
84.8212
 21
27.8267
 31
0.0
  0
LINE
  8
0
 62
     0
 10
84.8212
 20
27.8267
 30
0.0
 11
98.8205
 21
27.8267
 31
0.0
  0
LINE
  8
0
 62
     0
 10
98.8205
 20
27.8267
 30
0.0
 11
98.8205
 21
28.8272
 31
0.0
  0
LINE
  8
0
 62
     0
 10
98.8205
 20
28.8272
 30
0.0
 11
99.6199
 21
28.8272
 31
0.0
  0
LINE
  8
0
 62
     0
 10
99.6199
 20
28.8272
 30
0.0
 11
99.6199
 21
31.9264
 31
0.0
  0
LINE
  8
0
 62
     0
 10
99.6199
 20
31.9264
 30
0.0
 11
98.8205
 21
31.9264
 31
0.0
  0
LINE
  8
0
 62
     0
 10
98.8205
 20
31.9264
 30
0.0
 11
98.8205
 21
37.7264
 31
0.0
  0
LINE
  8
0
 62
     0
 10
98.8205
 20
37.7264
 30
0.0
 11
99.6199
 21
37.7264
 31
0.0
  0
LINE
  8
0
 62
     0
 10
99.6199
 20
37.7264
 30
0.0
 11
99.6199
 21
40.827
 31
0.0
  0
LINE
  8
0
 62
     0
 10
99.6199
 20
40.827
 30
0.0
 11
98.8205
 21
40.827
 31
0.0
  0
LINE
  8
0
 62
     0
 10
98.8205
 20
40.827
 30
0.0
 11
98.8205
 21
41.8264
 31
0.0
  0
LINE
  8
0
 62
     0
 10
98.8205
 20
41.8264
 30
0.0
 11
84.8212
 21
41.8264
 31
0.0
  0
LINE
  8
0
 62
     0
 10
65.7712
 20
41.8264
 30
0.0
 11
65.7712
 21
40.827
 31
0.0
  0
LINE
  8
0
 62
     0
 10
65.7712
 20
40.827
 30
0.0
 11
64.9704
 21
40.827
 31
0.0
  0
LINE
  8
0
 62
     0
 10
64.9704
 20
40.827
 30
0.0
 11
64.9704
 21
37.7264
 31
0.0
  0
LINE
  8
0
 62
     0
 10
64.9704
 20
37.7264
 30
0.0
 11
65.7712
 21
37.7264
 31
0.0
  0
LINE
  8
0
 62
     0
 10
65.7712
 20
37.7264
 30
0.0
 11
65.7712
 21
31.9264
 31
0.0
  0
LINE
  8
0
 62
     0
 10
65.7712
 20
31.9264
 30
0.0
 11
64.9704
 21
31.9264
 31
0.0
  0
LINE
  8
0
 62
     0
 10
64.9704
 20
31.9264
 30
0.0
 11
64.9704
 21
28.8272
 31
0.0
  0
LINE
  8
0
 62
     0
 10
64.9704
 20
28.8272
 30
0.0
 11
65.7712
 21
28.8272
 31
0.0
  0
LINE
  8
0
 62
     0
 10
65.7712
 20
28.8272
 30
0.0
 11
65.7712
 21
27.8267
 31
0.0
  0
LINE
  8
0
 62
     0
 10
65.7712
 20
27.8267
 30
0.0
 11
79.7705
 21
27.8267
 31
0.0
  0
LINE
  8
0
 62
     0
 10
79.7705
 20
27.8267
 30
0.0
 11
79.7705
 21
28.8272
 31
0.0
  0
LINE
  8
0
 62
     0
 10
79.7705
 20
28.8272
 30
0.0
 11
80.5713
 21
28.8272
 31
0.0
  0
LINE
  8
0
 62
     0
 10
80.5713
 20
28.8272
 30
0.0
 11
80.5713
 21
31.9264
 31
0.0
  0
LINE
  8
0
 62
     0
 10
80.5713
 20
31.9264
 30
0.0
 11
79.7705
 21
31.9264
 31
0.0
  0
LINE
  8
0
 62
     0
 10
79.7705
 20
31.9264
 30
0.0
 11
79.7705
 21
37.7264
 31
0.0
  0
LINE
  8
0
 62
     0
 10
79.7705
 20
37.7264
 30
0.0
 11
80.5713
 21
37.7264
 31
0.0
  0
LINE
  8
0
 62
     0
 10
80.5713
 20
37.7264
 30
0.0
 11
80.5713
 21
40.827
 31
0.0
  0
LINE
  8
0
 62
     0
 10
80.5713
 20
40.827
 30
0.0
 11
79.7705
 21
40.827
 31
0.0
  0
LINE
  8
0
 62
     0
 10
79.7705
 20
40.827
 30
0.0
 11
79.7705
 21
41.8264
 31
0.0
  0
LINE
  8
0
 62
     0
 10
79.7705
 20
41.8264
 30
0.0
 11
65.7712
 21
41.8264
 31
0.0
  0
LINE
  8
0
 62
     0
 10
46.7212
 20
41.8264
 30
0.0
 11
46.7212
 21
40.827
 31
0.0
  0
LINE
  8
0
 62
     0
 10
46.7212
 20
40.827
 30
0.0
 11
45.9204
 21
40.827
 31
0.0
  0
LINE
  8
0
 62
     0
 10
45.9204
 20
40.827
 30
0.0
 11
45.9204
 21
37.7264
 31
0.0
  0
LINE
  8
0
 62
     0
 10
45.9204
 20
37.7264
 30
0.0
 11
46.7212
 21
37.7264
 31
0.0
  0
LINE
  8
0
 62
     0
 10
46.7212
 20
37.7264
 30
0.0
 11
46.7212
 21
31.9264
 31
0.0
  0
LINE
  8
0
 62
     0
 10
46.7212
 20
31.9264
 30
0.0
 11
45.9204
 21
31.9264
 31
0.0
  0
LINE
  8
0
 62
     0
 10
45.9204
 20
31.9264
 30
0.0
 11
45.9204
 21
28.8272
 31
0.0
  0
LINE
  8
0
 62
     0
 10
45.9204
 20
28.8272
 30
0.0
 11
46.7212
 21
28.8272
 31
0.0
  0
LINE
  8
0
 62
     0
 10
46.7212
 20
28.8272
 30
0.0
 11
46.7212
 21
27.8267
 31
0.0
  0
LINE
  8
0
 62
     0
 10
46.7212
 20
27.8267
 30
0.0
 11
60.7205
 21
27.8267
 31
0.0
  0
LINE
  8
0
 62
     0
 10
60.7205
 20
27.8267
 30
0.0
 11
60.7205
 21
28.8272
 31
0.0
  0
LINE
  8
0
 62
     0
 10
60.7205
 20
28.8272
 30
0.0
 11
61.5213
 21
28.8272
 31
0.0
  0
LINE
  8
0
 62
     0
 10
61.5213
 20
28.8272
 30
0.0
 11
61.5213
 21
31.9264
 31
0.0
  0
LINE
  8
0
 62
     0
 10
61.5213
 20
31.9264
 30
0.0
 11
60.7205
 21
31.9264
 31
0.0
  0
LINE
  8
0
 62
     0
 10
60.7205
 20
31.9264
 30
0.0
 11
60.7205
 21
37.7264
 31
0.0
  0
LINE
  8
0
 62
     0
 10
60.7205
 20
37.7264
 30
0.0
 11
61.5213
 21
37.7264
 31
0.0
  0
LINE
  8
0
 62
     0
 10
61.5213
 20
37.7264
 30
0.0
 11
61.5213
 21
40.827
 31
0.0
  0
LINE
  8
0
 62
     0
 10
61.5213
 20
40.827
 30
0.0
 11
60.7205
 21
40.827
 31
0.0
  0
LINE
  8
0
 62
     0
 10
60.7205
 20
40.827
 30
0.0
 11
60.7205
 21
41.8264
 31
0.0
  0
LINE
  8
0
 62
     0
 10
60.7205
 20
41.8264
 30
0.0
 11
46.7212
 21
41.8264
 31
0.0
  0
LINE
  8
0
 62
     0
 10
27.671
 20
41.8264
 30
0.0
 11
27.671
 21
40.827
 31
0.0
  0
LINE
  8
0
 62
     0
 10
27.671
 20
40.827
 30
0.0
 11
26.8704
 21
40.827
 31
0.0
  0
LINE
  8
0
 62
     0
 10
26.8704
 20
40.827
 30
0.0
 11
26.8704
 21
37.7264
 31
0.0
  0
LINE
  8
0
 62
     0
 10
26.8704
 20
37.7264
 30
0.0
 11
27.671
 21
37.7264
 31
0.0
  0
LINE
  8
0
 62
     0
 10
27.671
 20
37.7264
 30
0.0
 11
27.671
 21
31.9264
 31
0.0
  0
LINE
  8
0
 62
     0
 10
27.671
 20
31.9264
 30
0.0
 11
26.8704
 21
31.9264
 31
0.0
  0
LINE
  8
0
 62
     0
 10
26.8704
 20
31.9264
 30
0.0
 11
26.8704
 21
28.8272
 31
0.0
  0
LINE
  8
0
 62
     0
 10
26.8704
 20
28.8272
 30
0.0
 11
27.671
 21
28.8272
 31
0.0
  0
LINE
  8
0
 62
     0
 10
27.671
 20
28.8272
 30
0.0
 11
27.671
 21
27.8267
 31
0.0
  0
LINE
  8
0
 62
     0
 10
27.671
 20
27.8267
 30
0.0
 11
41.6705
 21
27.8267
 31
0.0
  0
LINE
  8
0
 62
     0
 10
41.6705
 20
27.8267
 30
0.0
 11
41.6705
 21
28.8272
 31
0.0
  0
LINE
  8
0
 62
     0
 10
41.6705
 20
28.8272
 30
0.0
 11
42.4713
 21
28.8272
 31
0.0
  0
LINE
  8
0
 62
     0
 10
42.4713
 20
28.8272
 30
0.0
 11
42.4713
 21
31.9264
 31
0.0
  0
LINE
  8
0
 62
     0
 10
42.4713
 20
31.9264
 30
0.0
 11
41.6705
 21
31.9264
 31
0.0
  0
LINE
  8
0
 62
     0
 10
41.6705
 20
31.9264
 30
0.0
 11
41.6705
 21
37.7264
 31
0.0
  0
LINE
  8
0
 62
     0
 10
41.6705
 20
37.7264
 30
0.0
 11
42.4713
 21
37.7264
 31
0.0
  0
LINE
  8
0
 62
     0
 10
42.4713
 20
37.7264
 30
0.0
 11
42.4713
 21
40.827
 31
0.0
  0
LINE
  8
0
 62
     0
 10
42.4713
 20
40.827
 30
0.0
 11
41.6705
 21
40.827
 31
0.0
  0
LINE
  8
0
 62
     0
 10
41.6705
 20
40.827
 30
0.0
 11
41.6705
 21
41.8264
 31
0.0
  0
LINE
  8
0
 62
     0
 10
41.6705
 20
41.8264
 30
0.0
 11
27.671
 21
41.8264
 31
0.0
  0
LINE
  8
0
 62
     0
 10
8.61963
 20
41.8264
 30
0.0
 11
8.61963
 21
40.827
 31
0.0
  0
LINE
  8
0
 62
     0
 10
8.61963
 20
40.827
 30
0.0
 11
7.819
 21
40.827
 31
0.0
  0
LINE
  8
0
 62
     0
 10
7.819
 20
40.827
 30
0.0
 11
7.819
 21
37.7264
 31
0.0
  0
LINE
  8
0
 62
     0
 10
7.819
 20
37.7264
 30
0.0
 11
8.61963
 21
37.7264
 31
0.0
  0
LINE
  8
0
 62
     0
 10
8.61963
 20
37.7264
 30
0.0
 11
8.61963
 21
31.9264
 31
0.0
  0
LINE
  8
0
 62
     0
 10
8.61963
 20
31.9264
 30
0.0
 11
7.819
 21
31.9264
 31
0.0
  0
LINE
  8
0
 62
     0
 10
7.819
 20
31.9264
 30
0.0
 11
7.819
 21
28.8272
 31
0.0
  0
LINE
  8
0
 62
     0
 10
7.819
 20
28.8272
 30
0.0
 11
8.61963
 21
28.8272
 31
0.0
  0
LINE
  8
0
 62
     0
 10
8.61963
 20
28.8272
 30
0.0
 11
8.61963
 21
27.8267
 31
0.0
  0
LINE
  8
0
 62
     0
 10
8.61963
 20
27.8267
 30
0.0
 11
22.6205
 21
27.8267
 31
0.0
  0
LINE
  8
0
 62
     0
 10
22.6205
 20
27.8267
 30
0.0
 11
22.6205
 21
28.8272
 31
0.0
  0
LINE
  8
0
 62
     0
 10
22.6205
 20
28.8272
 30
0.0
 11
23.4211
 21
28.8272
 31
0.0
  0
LINE
  8
0
 62
     0
 10
23.4211
 20
28.8272
 30
0.0
 11
23.4211
 21
31.9264
 31
0.0
  0
LINE
  8
0
 62
     0
 10
23.4211
 20
31.9264
 30
0.0
 11
22.6205
 21
31.9264
 31
0.0
  0
LINE
  8
0
 62
     0
 10
22.6205
 20
31.9264
 30
0.0
 11
22.6205
 21
37.7264
 31
0.0
  0
LINE
  8
0
 62
     0
 10
22.6205
 20
37.7264
 30
0.0
 11
23.4211
 21
37.7264
 31
0.0
  0
LINE
  8
0
 62
     0
 10
23.4211
 20
37.7264
 30
0.0
 11
23.4211
 21
40.827
 31
0.0
  0
LINE
  8
0
 62
     0
 10
23.4211
 20
40.827
 30
0.0
 11
22.6205
 21
40.827
 31
0.0
  0
LINE
  8
0
 62
     0
 10
22.6205
 20
40.827
 30
0.0
 11
22.6205
 21
41.8264
 31
0.0
  0
LINE
  8
0
 62
     0
 10
22.6205
 20
41.8264
 30
0.0
 11
8.61963
 21
41.8264
 31
0.0
  0
LINE
  8
0
 62
     0
 10
180.071
 20
60.8774
 30
0.0
 11
180.071
 21
59.877
 31
0.0
  0
LINE
  8
0
 62
     0
 10
180.071
 20
59.877
 30
0.0
 11
179.27
 21
59.877
 31
0.0
  0
LINE
  8
0
 62
     0
 10
179.27
 20
59.877
 30
0.0
 11
179.27
 21
56.7764
 31
0.0
  0
LINE
  8
0
 62
     0
 10
179.27
 20
56.7764
 30
0.0
 11
180.071
 21
56.7764
 31
0.0
  0
LINE
  8
0
 62
     0
 10
180.071
 20
56.7764
 30
0.0
 11
180.071
 21
50.9778
 31
0.0
  0
LINE
  8
0
 62
     0
 10
180.071
 20
50.9778
 30
0.0
 11
179.27
 21
50.9778
 31
0.0
  0
LINE
  8
0
 62
     0
 10
179.27
 20
50.9778
 30
0.0
 11
179.27
 21
47.8772
 31
0.0
  0
LINE
  8
0
 62
     0
 10
179.27
 20
47.8772
 30
0.0
 11
180.071
 21
47.8772
 31
0.0
  0
LINE
  8
0
 62
     0
 10
180.071
 20
47.8772
 30
0.0
 11
180.071
 21
46.8768
 31
0.0
  0
LINE
  8
0
 62
     0
 10
180.071
 20
46.8768
 30
0.0
 11
194.07
 21
46.8768
 31
0.0
  0
LINE
  8
0
 62
     0
 10
194.07
 20
46.8768
 30
0.0
 11
194.07
 21
47.8772
 31
0.0
  0
LINE
  8
0
 62
     0
 10
194.07
 20
47.8772
 30
0.0
 11
194.871
 21
47.8772
 31
0.0
  0
LINE
  8
0
 62
     0
 10
194.871
 20
47.8772
 30
0.0
 11
194.871
 21
50.9778
 31
0.0
  0
LINE
  8
0
 62
     0
 10
194.871
 20
50.9778
 30
0.0
 11
194.07
 21
50.9778
 31
0.0
  0
LINE
  8
0
 62
     0
 10
194.07
 20
50.9778
 30
0.0
 11
194.07
 21
56.7764
 31
0.0
  0
LINE
  8
0
 62
     0
 10
194.07
 20
56.7764
 30
0.0
 11
194.871
 21
56.7764
 31
0.0
  0
LINE
  8
0
 62
     0
 10
194.871
 20
56.7764
 30
0.0
 11
194.871
 21
59.877
 31
0.0
  0
LINE
  8
0
 62
     0
 10
194.871
 20
59.877
 30
0.0
 11
194.07
 21
59.877
 31
0.0
  0
LINE
  8
0
 62
     0
 10
194.07
 20
59.877
 30
0.0
 11
194.07
 21
60.8774
 31
0.0
  0
LINE
  8
0
 62
     0
 10
194.07
 20
60.8774
 30
0.0
 11
180.071
 21
60.8774
 31
0.0
  0
LINE
  8
0
 62
     0
 10
161.021
 20
60.8774
 30
0.0
 11
161.021
 21
59.877
 31
0.0
  0
LINE
  8
0
 62
     0
 10
161.021
 20
59.877
 30
0.0
 11
160.22
 21
59.877
 31
0.0
  0
LINE
  8
0
 62
     0
 10
160.22
 20
59.877
 30
0.0
 11
160.22
 21
56.7764
 31
0.0
  0
LINE
  8
0
 62
     0
 10
160.22
 20
56.7764
 30
0.0
 11
161.021
 21
56.7764
 31
0.0
  0
LINE
  8
0
 62
     0
 10
161.021
 20
56.7764
 30
0.0
 11
161.021
 21
50.9778
 31
0.0
  0
LINE
  8
0
 62
     0
 10
161.021
 20
50.9778
 30
0.0
 11
160.22
 21
50.9778
 31
0.0
  0
LINE
  8
0
 62
     0
 10
160.22
 20
50.9778
 30
0.0
 11
160.22
 21
47.8772
 31
0.0
  0
LINE
  8
0
 62
     0
 10
160.22
 20
47.8772
 30
0.0
 11
161.021
 21
47.8772
 31
0.0
  0
LINE
  8
0
 62
     0
 10
161.021
 20
47.8772
 30
0.0
 11
161.021
 21
46.8768
 31
0.0
  0
LINE
  8
0
 62
     0
 10
161.021
 20
46.8768
 30
0.0
 11
175.02
 21
46.8768
 31
0.0
  0
LINE
  8
0
 62
     0
 10
175.02
 20
46.8768
 30
0.0
 11
175.02
 21
47.8772
 31
0.0
  0
LINE
  8
0
 62
     0
 10
175.02
 20
47.8772
 30
0.0
 11
175.821
 21
47.8772
 31
0.0
  0
LINE
  8
0
 62
     0
 10
175.821
 20
47.8772
 30
0.0
 11
175.821
 21
50.9778
 31
0.0
  0
LINE
  8
0
 62
     0
 10
175.821
 20
50.9778
 30
0.0
 11
175.02
 21
50.9778
 31
0.0
  0
LINE
  8
0
 62
     0
 10
175.02
 20
50.9778
 30
0.0
 11
175.02
 21
56.7764
 31
0.0
  0
LINE
  8
0
 62
     0
 10
175.02
 20
56.7764
 30
0.0
 11
175.821
 21
56.7764
 31
0.0
  0
LINE
  8
0
 62
     0
 10
175.821
 20
56.7764
 30
0.0
 11
175.821
 21
59.877
 31
0.0
  0
LINE
  8
0
 62
     0
 10
175.821
 20
59.877
 30
0.0
 11
175.02
 21
59.877
 31
0.0
  0
LINE
  8
0
 62
     0
 10
175.02
 20
59.877
 30
0.0
 11
175.02
 21
60.8774
 31
0.0
  0
LINE
  8
0
 62
     0
 10
175.02
 20
60.8774
 30
0.0
 11
161.021
 21
60.8774
 31
0.0
  0
LINE
  8
0
 62
     0
 10
141.971
 20
60.8774
 30
0.0
 11
141.971
 21
59.877
 31
0.0
  0
LINE
  8
0
 62
     0
 10
141.971
 20
59.877
 30
0.0
 11
141.17
 21
59.877
 31
0.0
  0
LINE
  8
0
 62
     0
 10
141.17
 20
59.877
 30
0.0
 11
141.17
 21
56.7764
 31
0.0
  0
LINE
  8
0
 62
     0
 10
141.17
 20
56.7764
 30
0.0
 11
141.971
 21
56.7764
 31
0.0
  0
LINE
  8
0
 62
     0
 10
141.971
 20
56.7764
 30
0.0
 11
141.971
 21
50.9778
 31
0.0
  0
LINE
  8
0
 62
     0
 10
141.971
 20
50.9778
 30
0.0
 11
141.17
 21
50.9778
 31
0.0
  0
LINE
  8
0
 62
     0
 10
141.17
 20
50.9778
 30
0.0
 11
141.17
 21
47.8772
 31
0.0
  0
LINE
  8
0
 62
     0
 10
141.17
 20
47.8772
 30
0.0
 11
141.971
 21
47.8772
 31
0.0
  0
LINE
  8
0
 62
     0
 10
141.971
 20
47.8772
 30
0.0
 11
141.971
 21
46.8768
 31
0.0
  0
LINE
  8
0
 62
     0
 10
141.971
 20
46.8768
 30
0.0
 11
155.97
 21
46.8768
 31
0.0
  0
LINE
  8
0
 62
     0
 10
155.97
 20
46.8768
 30
0.0
 11
155.97
 21
47.8772
 31
0.0
  0
LINE
  8
0
 62
     0
 10
155.97
 20
47.8772
 30
0.0
 11
156.771
 21
47.8772
 31
0.0
  0
LINE
  8
0
 62
     0
 10
156.771
 20
47.8772
 30
0.0
 11
156.771
 21
50.9778
 31
0.0
  0
LINE
  8
0
 62
     0
 10
156.771
 20
50.9778
 30
0.0
 11
155.97
 21
50.9778
 31
0.0
  0
LINE
  8
0
 62
     0
 10
155.97
 20
50.9778
 30
0.0
 11
155.97
 21
56.7764
 31
0.0
  0
LINE
  8
0
 62
     0
 10
155.97
 20
56.7764
 30
0.0
 11
156.771
 21
56.7764
 31
0.0
  0
LINE
  8
0
 62
     0
 10
156.771
 20
56.7764
 30
0.0
 11
156.771
 21
59.877
 31
0.0
  0
LINE
  8
0
 62
     0
 10
156.771
 20
59.877
 30
0.0
 11
155.97
 21
59.877
 31
0.0
  0
LINE
  8
0
 62
     0
 10
155.97
 20
59.877
 30
0.0
 11
155.97
 21
60.8774
 31
0.0
  0
LINE
  8
0
 62
     0
 10
155.97
 20
60.8774
 30
0.0
 11
141.971
 21
60.8774
 31
0.0
  0
LINE
  8
0
 62
     0
 10
122.92
 20
60.8774
 30
0.0
 11
122.92
 21
59.877
 31
0.0
  0
LINE
  8
0
 62
     0
 10
122.92
 20
59.877
 30
0.0
 11
122.119
 21
59.877
 31
0.0
  0
LINE
  8
0
 62
     0
 10
122.119
 20
59.877
 30
0.0
 11
122.119
 21
56.7764
 31
0.0
  0
LINE
  8
0
 62
     0
 10
122.119
 20
56.7764
 30
0.0
 11
122.92
 21
56.7764
 31
0.0
  0
LINE
  8
0
 62
     0
 10
122.92
 20
56.7764
 30
0.0
 11
122.92
 21
50.9778
 31
0.0
  0
LINE
  8
0
 62
     0
 10
122.92
 20
50.9778
 30
0.0
 11
122.119
 21
50.9778
 31
0.0
  0
LINE
  8
0
 62
     0
 10
122.119
 20
50.9778
 30
0.0
 11
122.119
 21
47.8772
 31
0.0
  0
LINE
  8
0
 62
     0
 10
122.119
 20
47.8772
 30
0.0
 11
122.92
 21
47.8772
 31
0.0
  0
LINE
  8
0
 62
     0
 10
122.92
 20
47.8772
 30
0.0
 11
122.92
 21
46.8768
 31
0.0
  0
LINE
  8
0
 62
     0
 10
122.92
 20
46.8768
 30
0.0
 11
136.92
 21
46.8768
 31
0.0
  0
LINE
  8
0
 62
     0
 10
136.92
 20
46.8768
 30
0.0
 11
136.92
 21
47.8772
 31
0.0
  0
LINE
  8
0
 62
     0
 10
136.92
 20
47.8772
 30
0.0
 11
137.721
 21
47.8772
 31
0.0
  0
LINE
  8
0
 62
     0
 10
137.721
 20
47.8772
 30
0.0
 11
137.721
 21
50.9778
 31
0.0
  0
LINE
  8
0
 62
     0
 10
137.721
 20
50.9778
 30
0.0
 11
136.92
 21
50.9778
 31
0.0
  0
LINE
  8
0
 62
     0
 10
136.92
 20
50.9778
 30
0.0
 11
136.92
 21
56.7764
 31
0.0
  0
LINE
  8
0
 62
     0
 10
136.92
 20
56.7764
 30
0.0
 11
137.721
 21
56.7764
 31
0.0
  0
LINE
  8
0
 62
     0
 10
137.721
 20
56.7764
 30
0.0
 11
137.721
 21
59.877
 31
0.0
  0
LINE
  8
0
 62
     0
 10
137.721
 20
59.877
 30
0.0
 11
136.92
 21
59.877
 31
0.0
  0
LINE
  8
0
 62
     0
 10
136.92
 20
59.877
 30
0.0
 11
136.92
 21
60.8774
 31
0.0
  0
LINE
  8
0
 62
     0
 10
136.92
 20
60.8774
 30
0.0
 11
122.92
 21
60.8774
 31
0.0
  0
LINE
  8
0
 62
     0
 10
103.87
 20
60.8774
 30
0.0
 11
103.87
 21
59.877
 31
0.0
  0
LINE
  8
0
 62
     0
 10
103.87
 20
59.877
 30
0.0
 11
103.07
 21
59.877
 31
0.0
  0
LINE
  8
0
 62
     0
 10
103.07
 20
59.877
 30
0.0
 11
103.07
 21
56.7764
 31
0.0
  0
LINE
  8
0
 62
     0
 10
103.07
 20
56.7764
 30
0.0
 11
103.87
 21
56.7764
 31
0.0
  0
LINE
  8
0
 62
     0
 10
103.87
 20
56.7764
 30
0.0
 11
103.87
 21
50.9778
 31
0.0
  0
LINE
  8
0
 62
     0
 10
103.87
 20
50.9778
 30
0.0
 11
103.07
 21
50.9778
 31
0.0
  0
LINE
  8
0
 62
     0
 10
103.07
 20
50.9778
 30
0.0
 11
103.07
 21
47.8772
 31
0.0
  0
LINE
  8
0
 62
     0
 10
103.07
 20
47.8772
 30
0.0
 11
103.87
 21
47.8772
 31
0.0
  0
LINE
  8
0
 62
     0
 10
103.87
 20
47.8772
 30
0.0
 11
103.87
 21
46.8768
 31
0.0
  0
LINE
  8
0
 62
     0
 10
103.87
 20
46.8768
 30
0.0
 11
117.869
 21
46.8768
 31
0.0
  0
LINE
  8
0
 62
     0
 10
117.869
 20
46.8768
 30
0.0
 11
117.869
 21
47.8772
 31
0.0
  0
LINE
  8
0
 62
     0
 10
117.869
 20
47.8772
 30
0.0
 11
118.67
 21
47.8772
 31
0.0
  0
LINE
  8
0
 62
     0
 10
118.67
 20
47.8772
 30
0.0
 11
118.67
 21
50.9778
 31
0.0
  0
LINE
  8
0
 62
     0
 10
118.67
 20
50.9778
 30
0.0
 11
117.869
 21
50.9778
 31
0.0
  0
LINE
  8
0
 62
     0
 10
117.869
 20
50.9778
 30
0.0
 11
117.869
 21
56.7764
 31
0.0
  0
LINE
  8
0
 62
     0
 10
117.869
 20
56.7764
 30
0.0
 11
118.67
 21
56.7764
 31
0.0
  0
LINE
  8
0
 62
     0
 10
118.67
 20
56.7764
 30
0.0
 11
118.67
 21
59.877
 31
0.0
  0
LINE
  8
0
 62
     0
 10
118.67
 20
59.877
 30
0.0
 11
117.869
 21
59.877
 31
0.0
  0
LINE
  8
0
 62
     0
 10
117.869
 20
59.877
 30
0.0
 11
117.869
 21
60.8774
 31
0.0
  0
LINE
  8
0
 62
     0
 10
117.869
 20
60.8774
 30
0.0
 11
103.87
 21
60.8774
 31
0.0
  0
LINE
  8
0
 62
     0
 10
84.8212
 20
60.8774
 30
0.0
 11
84.8212
 21
59.877
 31
0.0
  0
LINE
  8
0
 62
     0
 10
84.8212
 20
59.877
 30
0.0
 11
84.0204
 21
59.877
 31
0.0
  0
LINE
  8
0
 62
     0
 10
84.0204
 20
59.877
 30
0.0
 11
84.0204
 21
56.7764
 31
0.0
  0
LINE
  8
0
 62
     0
 10
84.0204
 20
56.7764
 30
0.0
 11
84.8212
 21
56.7764
 31
0.0
  0
LINE
  8
0
 62
     0
 10
84.8212
 20
56.7764
 30
0.0
 11
84.8212
 21
50.9778
 31
0.0
  0
LINE
  8
0
 62
     0
 10
84.8212
 20
50.9778
 30
0.0
 11
84.0204
 21
50.9778
 31
0.0
  0
LINE
  8
0
 62
     0
 10
84.0204
 20
50.9778
 30
0.0
 11
84.0204
 21
47.8772
 31
0.0
  0
LINE
  8
0
 62
     0
 10
84.0204
 20
47.8772
 30
0.0
 11
84.8212
 21
47.8772
 31
0.0
  0
LINE
  8
0
 62
     0
 10
84.8212
 20
47.8772
 30
0.0
 11
84.8212
 21
46.8768
 31
0.0
  0
LINE
  8
0
 62
     0
 10
84.8212
 20
46.8768
 30
0.0
 11
98.8205
 21
46.8768
 31
0.0
  0
LINE
  8
0
 62
     0
 10
98.8205
 20
46.8768
 30
0.0
 11
98.8205
 21
47.8772
 31
0.0
  0
LINE
  8
0
 62
     0
 10
98.8205
 20
47.8772
 30
0.0
 11
99.6199
 21
47.8772
 31
0.0
  0
LINE
  8
0
 62
     0
 10
99.6199
 20
47.8772
 30
0.0
 11
99.6199
 21
50.9778
 31
0.0
  0
LINE
  8
0
 62
     0
 10
99.6199
 20
50.9778
 30
0.0
 11
98.8205
 21
50.9778
 31
0.0
  0
LINE
  8
0
 62
     0
 10
98.8205
 20
50.9778
 30
0.0
 11
98.8205
 21
56.7764
 31
0.0
  0
LINE
  8
0
 62
     0
 10
98.8205
 20
56.7764
 30
0.0
 11
99.6199
 21
56.7764
 31
0.0
  0
LINE
  8
0
 62
     0
 10
99.6199
 20
56.7764
 30
0.0
 11
99.6199
 21
59.877
 31
0.0
  0
LINE
  8
0
 62
     0
 10
99.6199
 20
59.877
 30
0.0
 11
98.8205
 21
59.877
 31
0.0
  0
LINE
  8
0
 62
     0
 10
98.8205
 20
59.877
 30
0.0
 11
98.8205
 21
60.8774
 31
0.0
  0
LINE
  8
0
 62
     0
 10
98.8205
 20
60.8774
 30
0.0
 11
84.8212
 21
60.8774
 31
0.0
  0
LINE
  8
0
 62
     0
 10
65.7712
 20
60.8774
 30
0.0
 11
65.7712
 21
59.877
 31
0.0
  0
LINE
  8
0
 62
     0
 10
65.7712
 20
59.877
 30
0.0
 11
64.9704
 21
59.877
 31
0.0
  0
LINE
  8
0
 62
     0
 10
64.9704
 20
59.877
 30
0.0
 11
64.9704
 21
56.7764
 31
0.0
  0
LINE
  8
0
 62
     0
 10
64.9704
 20
56.7764
 30
0.0
 11
65.7712
 21
56.7764
 31
0.0
  0
LINE
  8
0
 62
     0
 10
65.7712
 20
56.7764
 30
0.0
 11
65.7712
 21
50.9778
 31
0.0
  0
LINE
  8
0
 62
     0
 10
65.7712
 20
50.9778
 30
0.0
 11
64.9704
 21
50.9778
 31
0.0
  0
LINE
  8
0
 62
     0
 10
64.9704
 20
50.9778
 30
0.0
 11
64.9704
 21
47.8772
 31
0.0
  0
LINE
  8
0
 62
     0
 10
64.9704
 20
47.8772
 30
0.0
 11
65.7712
 21
47.8772
 31
0.0
  0
LINE
  8
0
 62
     0
 10
65.7712
 20
47.8772
 30
0.0
 11
65.7712
 21
46.8768
 31
0.0
  0
LINE
  8
0
 62
     0
 10
65.7712
 20
46.8768
 30
0.0
 11
79.7705
 21
46.8768
 31
0.0
  0
LINE
  8
0
 62
     0
 10
79.7705
 20
46.8768
 30
0.0
 11
79.7705
 21
47.8772
 31
0.0
  0
LINE
  8
0
 62
     0
 10
79.7705
 20
47.8772
 30
0.0
 11
80.5713
 21
47.8772
 31
0.0
  0
LINE
  8
0
 62
     0
 10
80.5713
 20
47.8772
 30
0.0
 11
80.5713
 21
50.9778
 31
0.0
  0
LINE
  8
0
 62
     0
 10
80.5713
 20
50.9778
 30
0.0
 11
79.7705
 21
50.9778
 31
0.0
  0
LINE
  8
0
 62
     0
 10
79.7705
 20
50.9778
 30
0.0
 11
79.7705
 21
56.7764
 31
0.0
  0
LINE
  8
0
 62
     0
 10
79.7705
 20
56.7764
 30
0.0
 11
80.5713
 21
56.7764
 31
0.0
  0
LINE
  8
0
 62
     0
 10
80.5713
 20
56.7764
 30
0.0
 11
80.5713
 21
59.877
 31
0.0
  0
LINE
  8
0
 62
     0
 10
80.5713
 20
59.877
 30
0.0
 11
79.7705
 21
59.877
 31
0.0
  0
LINE
  8
0
 62
     0
 10
79.7705
 20
59.877
 30
0.0
 11
79.7705
 21
60.8774
 31
0.0
  0
LINE
  8
0
 62
     0
 10
79.7705
 20
60.8774
 30
0.0
 11
65.7712
 21
60.8774
 31
0.0
  0
LINE
  8
0
 62
     0
 10
46.7212
 20
60.8774
 30
0.0
 11
46.7212
 21
59.877
 31
0.0
  0
LINE
  8
0
 62
     0
 10
46.7212
 20
59.877
 30
0.0
 11
45.9204
 21
59.877
 31
0.0
  0
LINE
  8
0
 62
     0
 10
45.9204
 20
59.877
 30
0.0
 11
45.9204
 21
56.7764
 31
0.0
  0
LINE
  8
0
 62
     0
 10
45.9204
 20
56.7764
 30
0.0
 11
46.7212
 21
56.7764
 31
0.0
  0
LINE
  8
0
 62
     0
 10
46.7212
 20
56.7764
 30
0.0
 11
46.7212
 21
50.9778
 31
0.0
  0
LINE
  8
0
 62
     0
 10
46.7212
 20
50.9778
 30
0.0
 11
45.9204
 21
50.9778
 31
0.0
  0
LINE
  8
0
 62
     0
 10
45.9204
 20
50.9778
 30
0.0
 11
45.9204
 21
47.8772
 31
0.0
  0
LINE
  8
0
 62
     0
 10
45.9204
 20
47.8772
 30
0.0
 11
46.7212
 21
47.8772
 31
0.0
  0
LINE
  8
0
 62
     0
 10
46.7212
 20
47.8772
 30
0.0
 11
46.7212
 21
46.8768
 31
0.0
  0
LINE
  8
0
 62
     0
 10
46.7212
 20
46.8768
 30
0.0
 11
60.7205
 21
46.8768
 31
0.0
  0
LINE
  8
0
 62
     0
 10
60.7205
 20
46.8768
 30
0.0
 11
60.7205
 21
47.8772
 31
0.0
  0
LINE
  8
0
 62
     0
 10
60.7205
 20
47.8772
 30
0.0
 11
61.5213
 21
47.8772
 31
0.0
  0
LINE
  8
0
 62
     0
 10
61.5213
 20
47.8772
 30
0.0
 11
61.5213
 21
50.9778
 31
0.0
  0
LINE
  8
0
 62
     0
 10
61.5213
 20
50.9778
 30
0.0
 11
60.7205
 21
50.9778
 31
0.0
  0
LINE
  8
0
 62
     0
 10
60.7205
 20
50.9778
 30
0.0
 11
60.7205
 21
56.7764
 31
0.0
  0
LINE
  8
0
 62
     0
 10
60.7205
 20
56.7764
 30
0.0
 11
61.5213
 21
56.7764
 31
0.0
  0
LINE
  8
0
 62
     0
 10
61.5213
 20
56.7764
 30
0.0
 11
61.5213
 21
59.877
 31
0.0
  0
LINE
  8
0
 62
     0
 10
61.5213
 20
59.877
 30
0.0
 11
60.7205
 21
59.877
 31
0.0
  0
LINE
  8
0
 62
     0
 10
60.7205
 20
59.877
 30
0.0
 11
60.7205
 21
60.8774
 31
0.0
  0
LINE
  8
0
 62
     0
 10
60.7205
 20
60.8774
 30
0.0
 11
46.7212
 21
60.8774
 31
0.0
  0
LINE
  8
0
 62
     0
 10
27.671
 20
60.8774
 30
0.0
 11
27.671
 21
59.877
 31
0.0
  0
LINE
  8
0
 62
     0
 10
27.671
 20
59.877
 30
0.0
 11
26.8704
 21
59.877
 31
0.0
  0
LINE
  8
0
 62
     0
 10
26.8704
 20
59.877
 30
0.0
 11
26.8704
 21
56.7764
 31
0.0
  0
LINE
  8
0
 62
     0
 10
26.8704
 20
56.7764
 30
0.0
 11
27.671
 21
56.7764
 31
0.0
  0
LINE
  8
0
 62
     0
 10
27.671
 20
56.7764
 30
0.0
 11
27.671
 21
50.9778
 31
0.0
  0
LINE
  8
0
 62
     0
 10
27.671
 20
50.9778
 30
0.0
 11
26.8704
 21
50.9778
 31
0.0
  0
LINE
  8
0
 62
     0
 10
26.8704
 20
50.9778
 30
0.0
 11
26.8704
 21
47.8772
 31
0.0
  0
LINE
  8
0
 62
     0
 10
26.8704
 20
47.8772
 30
0.0
 11
27.671
 21
47.8772
 31
0.0
  0
LINE
  8
0
 62
     0
 10
27.671
 20
47.8772
 30
0.0
 11
27.671
 21
46.8768
 31
0.0
  0
LINE
  8
0
 62
     0
 10
27.671
 20
46.8768
 30
0.0
 11
41.6705
 21
46.8768
 31
0.0
  0
LINE
  8
0
 62
     0
 10
41.6705
 20
46.8768
 30
0.0
 11
41.6705
 21
47.8772
 31
0.0
  0
LINE
  8
0
 62
     0
 10
41.6705
 20
47.8772
 30
0.0
 11
42.4713
 21
47.8772
 31
0.0
  0
LINE
  8
0
 62
     0
 10
42.4713
 20
47.8772
 30
0.0
 11
42.4713
 21
50.9778
 31
0.0
  0
LINE
  8
0
 62
     0
 10
42.4713
 20
50.9778
 30
0.0
 11
41.6705
 21
50.9778
 31
0.0
  0
LINE
  8
0
 62
     0
 10
41.6705
 20
50.9778
 30
0.0
 11
41.6705
 21
56.7764
 31
0.0
  0
LINE
  8
0
 62
     0
 10
41.6705
 20
56.7764
 30
0.0
 11
42.4713
 21
56.7764
 31
0.0
  0
LINE
  8
0
 62
     0
 10
42.4713
 20
56.7764
 30
0.0
 11
42.4713
 21
59.877
 31
0.0
  0
LINE
  8
0
 62
     0
 10
42.4713
 20
59.877
 30
0.0
 11
41.6705
 21
59.877
 31
0.0
  0
LINE
  8
0
 62
     0
 10
41.6705
 20
59.877
 30
0.0
 11
41.6705
 21
60.8774
 31
0.0
  0
LINE
  8
0
 62
     0
 10
41.6705
 20
60.8774
 30
0.0
 11
27.671
 21
60.8774
 31
0.0
  0
LINE
  8
0
 62
     0
 10
8.61963
 20
60.8774
 30
0.0
 11
8.61963
 21
59.877
 31
0.0
  0
LINE
  8
0
 62
     0
 10
8.61963
 20
59.877
 30
0.0
 11
7.819
 21
59.877
 31
0.0
  0
LINE
  8
0
 62
     0
 10
7.819
 20
59.877
 30
0.0
 11
7.819
 21
56.7764
 31
0.0
  0
LINE
  8
0
 62
     0
 10
7.819
 20
56.7764
 30
0.0
 11
8.61963
 21
56.7764
 31
0.0
  0
LINE
  8
0
 62
     0
 10
8.61963
 20
56.7764
 30
0.0
 11
8.61963
 21
50.9778
 31
0.0
  0
LINE
  8
0
 62
     0
 10
8.61963
 20
50.9778
 30
0.0
 11
7.819
 21
50.9778
 31
0.0
  0
LINE
  8
0
 62
     0
 10
7.819
 20
50.9778
 30
0.0
 11
7.819
 21
47.8772
 31
0.0
  0
LINE
  8
0
 62
     0
 10
7.819
 20
47.8772
 30
0.0
 11
8.61963
 21
47.8772
 31
0.0
  0
LINE
  8
0
 62
     0
 10
8.61963
 20
47.8772
 30
0.0
 11
8.61963
 21
46.8768
 31
0.0
  0
LINE
  8
0
 62
     0
 10
8.61963
 20
46.8768
 30
0.0
 11
22.6205
 21
46.8768
 31
0.0
  0
LINE
  8
0
 62
     0
 10
22.6205
 20
46.8768
 30
0.0
 11
22.6205
 21
47.8772
 31
0.0
  0
LINE
  8
0
 62
     0
 10
22.6205
 20
47.8772
 30
0.0
 11
23.4211
 21
47.8772
 31
0.0
  0
LINE
  8
0
 62
     0
 10
23.4211
 20
47.8772
 30
0.0
 11
23.4211
 21
50.9778
 31
0.0
  0
LINE
  8
0
 62
     0
 10
23.4211
 20
50.9778
 30
0.0
 11
22.6205
 21
50.9778
 31
0.0
  0
LINE
  8
0
 62
     0
 10
22.6205
 20
50.9778
 30
0.0
 11
22.6205
 21
56.7764
 31
0.0
  0
LINE
  8
0
 62
     0
 10
22.6205
 20
56.7764
 30
0.0
 11
23.4211
 21
56.7764
 31
0.0
  0
LINE
  8
0
 62
     0
 10
23.4211
 20
56.7764
 30
0.0
 11
23.4211
 21
59.877
 31
0.0
  0
LINE
  8
0
 62
     0
 10
23.4211
 20
59.877
 30
0.0
 11
22.6205
 21
59.877
 31
0.0
  0
LINE
  8
0
 62
     0
 10
22.6205
 20
59.877
 30
0.0
 11
22.6205
 21
60.8774
 31
0.0
  0
LINE
  8
0
 62
     0
 10
22.6205
 20
60.8774
 30
0.0
 11
8.61963
 21
60.8774
 31
0.0
  0
LINE
  8
0
 62
     0
 10
2.75608
 20
67.4479
 30
0.0
 11
2.44878
 21
67.2924
 31
0.0
  0
LINE
  8
0
 62
     0
 10
2.44878
 20
67.2924
 30
0.0
 11
2.20486
 21
67.0486
 31
0.0
  0
LINE
  8
0
 62
     0
 10
2.20486
 20
67.0486
 30
0.0
 11
2.04914
 21
66.7413
 31
0.0
  0
LINE
  8
0
 62
     0
 10
2.04914
 20
66.7413
 30
0.0
 11
1.9954
 21
66.4023
 31
0.0
  0
LINE
  8
0
 62
     0
 10
1.9954
 20
66.4023
 30
0.0
 11
2.04914
 21
66.0633
 31
0.0
  0
LINE
  8
0
 62
     0
 10
2.04914
 20
66.0633
 30
0.0
 11
2.20486
 21
65.756
 31
0.0
  0
LINE
  8
0
 62
     0
 10
2.20486
 20
65.756
 30
0.0
 11
2.44878
 21
65.5133
 31
0.0
  0
LINE
  8
0
 62
     0
 10
2.44878
 20
65.5133
 30
0.0
 11
2.75608
 21
65.3563
 31
0.0
  0
LINE
  8
0
 62
     0
 10
2.75608
 20
65.3563
 30
0.0
 11
3.09507
 21
65.3009
 31
0.0
  0
LINE
  8
0
 62
     0
 10
3.09507
 20
65.3009
 30
0.0
 11
3.43407
 21
65.3563
 31
0.0
  0
LINE
  8
0
 62
     0
 10
3.43407
 20
65.3563
 30
0.0
 11
3.74138
 21
65.5133
 31
0.0
  0
LINE
  8
0
 62
     0
 10
3.74138
 20
65.5133
 30
0.0
 11
3.98392
 21
65.756
 31
0.0
  0
LINE
  8
0
 62
     0
 10
3.98392
 20
65.756
 30
0.0
 11
4.14101
 21
66.0633
 31
0.0
  0
LINE
  8
0
 62
     0
 10
4.14101
 20
66.0633
 30
0.0
 11
4.19612
 21
66.4023
 31
0.0
  0
LINE
  8
0
 62
     0
 10
4.19612
 20
66.4023
 30
0.0
 11
4.14101
 21
66.7413
 31
0.0
  0
LINE
  8
0
 62
     0
 10
4.14101
 20
66.7413
 30
0.0
 11
3.98392
 21
67.0486
 31
0.0
  0
LINE
  8
0
 62
     0
 10
3.98392
 20
67.0486
 30
0.0
 11
3.74138
 21
67.2924
 31
0.0
  0
LINE
  8
0
 62
     0
 10
3.74138
 20
67.2924
 30
0.0
 11
3.43407
 21
67.4479
 31
0.0
  0
LINE
  8
0
 62
     0
 10
3.43407
 20
67.4479
 30
0.0
 11
3.09507
 21
67.5019
 31
0.0
  0
LINE
  8
0
 62
     0
 10
3.09507
 20
67.5019
 30
0.0
 11
2.75608
 21
67.4479
 31
0.0
  0
LINE
  8
0
 62
     0
 10
199.256
 20
67.4479
 30
0.0
 11
198.95
 21
67.2924
 31
0.0
  0
LINE
  8
0
 62
     0
 10
198.95
 20
67.2924
 30
0.0
 11
198.706
 21
67.0486
 31
0.0
  0
LINE
  8
0
 62
     0
 10
198.706
 20
67.0486
 30
0.0
 11
198.549
 21
66.7413
 31
0.0
  0
LINE
  8
0
 62
     0
 10
198.549
 20
66.7413
 30
0.0
 11
198.497
 21
66.4023
 31
0.0
  0
LINE
  8
0
 62
     0
 10
198.497
 20
66.4023
 30
0.0
 11
198.549
 21
66.0633
 31
0.0
  0
LINE
  8
0
 62
     0
 10
198.549
 20
66.0633
 30
0.0
 11
198.706
 21
65.756
 31
0.0
  0
LINE
  8
0
 62
     0
 10
198.706
 20
65.756
 30
0.0
 11
198.95
 21
65.5133
 31
0.0
  0
LINE
  8
0
 62
     0
 10
198.95
 20
65.5133
 30
0.0
 11
199.256
 21
65.3563
 31
0.0
  0
LINE
  8
0
 62
     0
 10
199.256
 20
65.3563
 30
0.0
 11
199.596
 21
65.3009
 31
0.0
  0
LINE
  8
0
 62
     0
 10
199.596
 20
65.3009
 30
0.0
 11
199.935
 21
65.3563
 31
0.0
  0
LINE
  8
0
 62
     0
 10
199.935
 20
65.3563
 30
0.0
 11
200.243
 21
65.5133
 31
0.0
  0
LINE
  8
0
 62
     0
 10
200.243
 20
65.5133
 30
0.0
 11
200.485
 21
65.756
 31
0.0
  0
LINE
  8
0
 62
     0
 10
200.485
 20
65.756
 30
0.0
 11
200.642
 21
66.0633
 31
0.0
  0
LINE
  8
0
 62
     0
 10
200.642
 20
66.0633
 30
0.0
 11
200.696
 21
66.4023
 31
0.0
  0
LINE
  8
0
 62
     0
 10
200.696
 20
66.4023
 30
0.0
 11
200.642
 21
66.7413
 31
0.0
  0
LINE
  8
0
 62
     0
 10
200.642
 20
66.7413
 30
0.0
 11
200.485
 21
67.0486
 31
0.0
  0
LINE
  8
0
 62
     0
 10
200.485
 20
67.0486
 30
0.0
 11
200.243
 21
67.2924
 31
0.0
  0
LINE
  8
0
 62
     0
 10
200.243
 20
67.2924
 30
0.0
 11
199.935
 21
67.4479
 31
0.0
  0
LINE
  8
0
 62
     0
 10
199.935
 20
67.4479
 30
0.0
 11
199.596
 21
67.5019
 31
0.0
  0
LINE
  8
0
 62
     0
 10
199.596
 20
67.5019
 30
0.0
 11
199.256
 21
67.4479
 31
0.0
  0
LINE
  8
0
 62
     0
 10
133.755
 20
67.4479
 30
0.0
 11
133.449
 21
67.2924
 31
0.0
  0
LINE
  8
0
 62
     0
 10
133.449
 20
67.2924
 30
0.0
 11
133.205
 21
67.0486
 31
0.0
  0
LINE
  8
0
 62
     0
 10
133.205
 20
67.0486
 30
0.0
 11
133.049
 21
66.7413
 31
0.0
  0
LINE
  8
0
 62
     0
 10
133.049
 20
66.7413
 30
0.0
 11
132.996
 21
66.4023
 31
0.0
  0
LINE
  8
0
 62
     0
 10
132.996
 20
66.4023
 30
0.0
 11
133.049
 21
66.0633
 31
0.0
  0
LINE
  8
0
 62
     0
 10
133.049
 20
66.0633
 30
0.0
 11
133.205
 21
65.756
 31
0.0
  0
LINE
  8
0
 62
     0
 10
133.205
 20
65.756
 30
0.0
 11
133.449
 21
65.5133
 31
0.0
  0
LINE
  8
0
 62
     0
 10
133.449
 20
65.5133
 30
0.0
 11
133.755
 21
65.3563
 31
0.0
  0
LINE
  8
0
 62
     0
 10
133.755
 20
65.3563
 30
0.0
 11
134.095
 21
65.3009
 31
0.0
  0
LINE
  8
0
 62
     0
 10
134.095
 20
65.3009
 30
0.0
 11
134.436
 21
65.3563
 31
0.0
  0
LINE
  8
0
 62
     0
 10
134.436
 20
65.3563
 30
0.0
 11
134.742
 21
65.5133
 31
0.0
  0
LINE
  8
0
 62
     0
 10
134.742
 20
65.5133
 30
0.0
 11
134.986
 21
65.756
 31
0.0
  0
LINE
  8
0
 62
     0
 10
134.986
 20
65.756
 30
0.0
 11
135.141
 21
66.0633
 31
0.0
  0
LINE
  8
0
 62
     0
 10
135.141
 20
66.0633
 30
0.0
 11
135.195
 21
66.4023
 31
0.0
  0
LINE
  8
0
 62
     0
 10
135.195
 20
66.4023
 30
0.0
 11
135.141
 21
66.7413
 31
0.0
  0
LINE
  8
0
 62
     0
 10
135.141
 20
66.7413
 30
0.0
 11
134.986
 21
67.0486
 31
0.0
  0
LINE
  8
0
 62
     0
 10
134.986
 20
67.0486
 30
0.0
 11
134.742
 21
67.2924
 31
0.0
  0
LINE
  8
0
 62
     0
 10
134.742
 20
67.2924
 30
0.0
 11
134.436
 21
67.4479
 31
0.0
  0
LINE
  8
0
 62
     0
 10
134.436
 20
67.4479
 30
0.0
 11
134.095
 21
67.5019
 31
0.0
  0
LINE
  8
0
 62
     0
 10
134.095
 20
67.5019
 30
0.0
 11
133.755
 21
67.4479
 31
0.0
  0
LINE
  8
0
 62
     0
 10
68.2554
 20
67.4479
 30
0.0
 11
67.9482
 21
67.2924
 31
0.0
  0
LINE
  8
0
 62
     0
 10
67.9482
 20
67.2924
 30
0.0
 11
67.7058
 21
67.0486
 31
0.0
  0
LINE
  8
0
 62
     0
 10
67.7058
 20
67.0486
 30
0.0
 11
67.5499
 21
66.7413
 31
0.0
  0
LINE
  8
0
 62
     0
 10
67.5499
 20
66.7413
 30
0.0
 11
67.4949
 21
66.4023
 31
0.0
  0
LINE
  8
0
 62
     0
 10
67.4949
 20
66.4023
 30
0.0
 11
67.5499
 21
66.0633
 31
0.0
  0
LINE
  8
0
 62
     0
 10
67.5499
 20
66.0633
 30
0.0
 11
67.7058
 21
65.756
 31
0.0
  0
LINE
  8
0
 62
     0
 10
67.7058
 20
65.756
 30
0.0
 11
67.9482
 21
65.5133
 31
0.0
  0
LINE
  8
0
 62
     0
 10
67.9482
 20
65.5133
 30
0.0
 11
68.2554
 21
65.3563
 31
0.0
  0
LINE
  8
0
 62
     0
 10
68.2554
 20
65.3563
 30
0.0
 11
68.5959
 21
65.3009
 31
0.0
  0
LINE
  8
0
 62
     0
 10
68.5959
 20
65.3009
 30
0.0
 11
68.9349
 21
65.3563
 31
0.0
  0
LINE
  8
0
 62
     0
 10
68.9349
 20
65.3563
 30
0.0
 11
69.2408
 21
65.5133
 31
0.0
  0
LINE
  8
0
 62
     0
 10
69.2408
 20
65.5133
 30
0.0
 11
69.4849
 21
65.756
 31
0.0
  0
LINE
  8
0
 62
     0
 10
69.4849
 20
65.756
 30
0.0
 11
69.6419
 21
66.0633
 31
0.0
  0
LINE
  8
0
 62
     0
 10
69.6419
 20
66.0633
 30
0.0
 11
69.6958
 21
66.4023
 31
0.0
  0
LINE
  8
0
 62
     0
 10
69.6958
 20
66.4023
 30
0.0
 11
69.6419
 21
66.7413
 31
0.0
  0
LINE
  8
0
 62
     0
 10
69.6419
 20
66.7413
 30
0.0
 11
69.4849
 21
67.0486
 31
0.0
  0
LINE
  8
0
 62
     0
 10
69.4849
 20
67.0486
 30
0.0
 11
69.2408
 21
67.2924
 31
0.0
  0
LINE
  8
0
 62
     0
 10
69.2408
 20
67.2924
 30
0.0
 11
68.9349
 21
67.4479
 31
0.0
  0
LINE
  8
0
 62
     0
 10
68.9349
 20
67.4479
 30
0.0
 11
68.5959
 21
67.5019
 31
0.0
  0
LINE
  8
0
 62
     0
 10
68.5959
 20
67.5019
 30
0.0
 11
68.2554
 21
67.4479
 31
0.0
  0
ENDSEC
  0
EOF
