  0
SECTION
  2
HEADER
  9
$ACADVER
  1
AC1009
  9
$EXTMIN
 10
0.0
 20
0.0
 30
0.0
  9
$EXTMAX
 10
1000.0
 20
1000.0
 30
0.0
  9
$FILLMODE
 70
 0
  9
$SPLFRAME
 70
 1
  0
ENDSEC
  0
SECTION
  2
TABLES
  0
TABLE
  2
LAYER
 70
1
  0
LAYER
  2
0
 70
     0
 62
     7
  6
CONTINUOUS
  0
ENDTAB
  0
ENDSEC
  0
SECTION
  2
ENTITIES
  0
LINE
  8
0
 62
     0
 10
94.3462
 20
63.4023
 30
0.0
 11
6.09505
 21
63.4023
 31
0.0
  0
LINE
  8
0
 62
     0
 10
6.09505
 20
63.4023
 30
0.0
 11
6.09505
 21
6.2508
 31
0.0
  0
LINE
  8
0
 62
     0
 10
6.09505
 20
6.2508
 30
0.0
 11
196.596
 21
6.2508
 31
0.0
  0
LINE
  8
0
 62
     0
 10
196.596
 20
6.2508
 30
0.0
 11
196.596
 21
63.4023
 31
0.0
  0
LINE
  8
0
 62
     0
 10
196.596
 20
63.4023
 30
0.0
 11
108.345
 21
63.4023
 31
0.0
  0
LINE
  8
0
 62
     0
 10
108.345
 20
63.4023
 30
0.0
 11
108.345
 21
69.402
 31
0.0
  0
LINE
  8
0
 62
     0
 10
108.345
 20
69.402
 30
0.0
 11
200.597
 21
69.402
 31
0.0
  0
LINE
  8
0
 62
     0
 10
200.597
 20
69.402
 30
0.0
 11
200.753
 21
69.3953
 31
0.0
  0
LINE
  8
0
 62
     0
 10
200.753
 20
69.3953
 30
0.0
 11
200.908
 21
69.3773
 31
0.0
  0
LINE
  8
0
 62
     0
 10
200.908
 20
69.3773
 30
0.0
 11
201.063
 21
69.3469
 31
0.0
  0
LINE
  8
0
 62
     0
 10
201.063
 20
69.3469
 30
0.0
 11
201.214
 21
69.3043
 31
0.0
  0
LINE
  8
0
 62
     0
 10
201.214
 20
69.3043
 30
0.0
 11
201.362
 21
69.2492
 31
0.0
  0
LINE
  8
0
 62
     0
 10
201.362
 20
69.2492
 30
0.0
 11
201.503
 21
69.1843
 31
0.0
  0
LINE
  8
0
 62
     0
 10
201.503
 20
69.1843
 30
0.0
 11
201.64
 21
69.1074
 31
0.0
  0
LINE
  8
0
 62
     0
 10
201.64
 20
69.1074
 30
0.0
 11
201.771
 21
69.0203
 31
0.0
  0
LINE
  8
0
 62
     0
 10
201.771
 20
69.0203
 30
0.0
 11
201.895
 21
68.9225
 31
0.0
  0
LINE
  8
0
 62
     0
 10
201.895
 20
68.9225
 30
0.0
 11
202.011
 21
68.8164
 31
0.0
  0
LINE
  8
0
 62
     0
 10
202.011
 20
68.8164
 30
0.0
 11
202.117
 21
68.7007
 31
0.0
  0
LINE
  8
0
 62
     0
 10
202.117
 20
68.7007
 30
0.0
 11
202.215
 21
68.5782
 31
0.0
  0
LINE
  8
0
 62
     0
 10
202.215
 20
68.5782
 30
0.0
 11
202.301
 21
68.447
 31
0.0
  0
LINE
  8
0
 62
     0
 10
202.301
 20
68.447
 30
0.0
 11
202.379
 21
68.3094
 31
0.0
  0
LINE
  8
0
 62
     0
 10
202.379
 20
68.3094
 30
0.0
 11
202.443
 21
68.1672
 31
0.0
  0
LINE
  8
0
 62
     0
 10
202.443
 20
68.1672
 30
0.0
 11
202.499
 21
68.0212
 31
0.0
  0
LINE
  8
0
 62
     0
 10
202.499
 20
68.0212
 30
0.0
 11
202.54
 21
67.8684
 31
0.0
  0
LINE
  8
0
 62
     0
 10
202.54
 20
67.8684
 30
0.0
 11
202.572
 21
67.7153
 31
0.0
  0
LINE
  8
0
 62
     0
 10
202.572
 20
67.7153
 30
0.0
 11
202.59
 21
67.5584
 31
0.0
  0
LINE
  8
0
 62
     0
 10
202.59
 20
67.5584
 30
0.0
 11
202.596
 21
67.4014
 31
0.0
  0
LINE
  8
0
 62
     0
 10
202.596
 20
67.4014
 30
0.0
 11
202.596
 21
2.25034
 31
0.0
  0
LINE
  8
0
 62
     0
 10
202.596
 20
2.25034
 30
0.0
 11
202.59
 21
2.09462
 31
0.0
  0
LINE
  8
0
 62
     0
 10
202.59
 20
2.09462
 30
0.0
 11
202.572
 21
1.9389
 31
0.0
  0
LINE
  8
0
 62
     0
 10
202.572
 20
1.9389
 30
0.0
 11
202.54
 21
1.78456
 31
0.0
  0
LINE
  8
0
 62
     0
 10
202.54
 20
1.78456
 30
0.0
 11
202.499
 21
1.63298
 31
0.0
  0
LINE
  8
0
 62
     0
 10
202.499
 20
1.63298
 30
0.0
 11
202.443
 21
1.48553
 31
0.0
  0
LINE
  8
0
 62
     0
 10
202.443
 20
1.48553
 30
0.0
 11
202.379
 21
1.34359
 31
0.0
  0
LINE
  8
0
 62
     0
 10
202.379
 20
1.34359
 30
0.0
 11
202.301
 21
1.20716
 31
0.0
  0
LINE
  8
0
 62
     0
 10
202.301
 20
1.20716
 30
0.0
 11
202.215
 21
1.07625
 31
0.0
  0
LINE
  8
0
 62
     0
 10
202.215
 20
1.07625
 30
0.0
 11
202.117
 21
0.952225
 31
0.0
  0
LINE
  8
0
 62
     0
 10
202.117
 20
0.952225
 30
0.0
 11
202.011
 21
0.836468
 31
0.0
  0
LINE
  8
0
 62
     0
 10
202.011
 20
0.836468
 30
0.0
 11
201.895
 21
0.730359
 31
0.0
  0
LINE
  8
0
 62
     0
 10
201.895
 20
0.730359
 30
0.0
 11
201.771
 21
0.63252
 31
0.0
  0
LINE
  8
0
 62
     0
 10
201.771
 20
0.63252
 30
0.0
 11
201.64
 21
0.545705
 31
0.0
  0
LINE
  8
0
 62
     0
 10
201.64
 20
0.545705
 30
0.0
 11
201.503
 21
0.468535
 31
0.0
  0
LINE
  8
0
 62
     0
 10
201.503
 20
0.468535
 30
0.0
 11
201.362
 21
0.403765
 31
0.0
  0
LINE
  8
0
 62
     0
 10
201.362
 20
0.403765
 30
0.0
 11
201.214
 21
0.348644
 31
0.0
  0
LINE
  8
0
 62
     0
 10
201.214
 20
0.348644
 30
0.0
 11
201.063
 21
0.307303
 31
0.0
  0
LINE
  8
0
 62
     0
 10
201.063
 20
0.307303
 30
0.0
 11
200.908
 21
0.275608
 31
0.0
  0
LINE
  8
0
 62
     0
 10
200.908
 20
0.275608
 30
0.0
 11
200.753
 21
0.257693
 31
0.0
  0
LINE
  8
0
 62
     0
 10
200.753
 20
0.257693
 30
0.0
 11
200.597
 21
0.252181
 31
0.0
  0
LINE
  8
0
 62
     0
 10
200.597
 20
0.252181
 30
0.0
 11
2.096
 21
0.250803
 31
0.0
  0
LINE
  8
0
 62
     0
 10
2.096
 20
0.250803
 30
0.0
 11
1.9389
 21
0.257693
 31
0.0
  0
LINE
  8
0
 62
     0
 10
1.9389
 20
0.257693
 30
0.0
 11
1.7818
 21
0.275608
 31
0.0
  0
LINE
  8
0
 62
     0
 10
1.7818
 20
0.275608
 30
0.0
 11
1.62884
 21
0.307303
 31
0.0
  0
LINE
  8
0
 62
     0
 10
1.62884
 20
0.307303
 30
0.0
 11
1.47588
 21
0.348644
 31
0.0
  0
LINE
  8
0
 62
     0
 10
1.47588
 20
0.348644
 30
0.0
 11
1.32981
 21
0.403765
 31
0.0
  0
LINE
  8
0
 62
     0
 10
1.32981
 20
0.403765
 30
0.0
 11
1.18787
 21
0.468535
 31
0.0
  0
LINE
  8
0
 62
     0
 10
1.18787
 20
0.468535
 30
0.0
 11
1.05006
 21
0.545705
 31
0.0
  0
LINE
  8
0
 62
     0
 10
1.05006
 20
0.545705
 30
0.0
 11
0.919152
 21
0.63252
 31
0.0
  0
LINE
  8
0
 62
     0
 10
0.919152
 20
0.63252
 30
0.0
 11
0.796505
 21
0.730359
 31
0.0
  0
LINE
  8
0
 62
     0
 10
0.796505
 20
0.730359
 30
0.0
 11
0.680752
 21
0.836468
 31
0.0
  0
LINE
  8
0
 62
     0
 10
0.680752
 20
0.836468
 30
0.0
 11
0.574643
 21
0.952225
 31
0.0
  0
LINE
  8
0
 62
     0
 10
0.574643
 20
0.952225
 30
0.0
 11
0.4768
 21
1.07625
 31
0.0
  0
LINE
  8
0
 62
     0
 10
0.4768
 20
1.07625
 30
0.0
 11
0.389985
 21
1.20716
 31
0.0
  0
LINE
  8
0
 62
     0
 10
0.389985
 20
1.20716
 30
0.0
 11
0.312815
 21
1.34359
 31
0.0
  0
LINE
  8
0
 62
     0
 10
0.312815
 20
1.34359
 30
0.0
 11
0.248047
 21
1.48553
 31
0.0
  0
LINE
  8
0
 62
     0
 10
0.248047
 20
1.48553
 30
0.0
 11
0.192925
 21
1.63298
 31
0.0
  0
LINE
  8
0
 62
     0
 10
0.192925
 20
1.63298
 30
0.0
 11
0.150206
 21
1.78456
 31
0.0
  0
LINE
  8
0
 62
     0
 10
0.150206
 20
1.78456
 30
0.0
 11
0.119889
 21
1.9389
 31
0.0
  0
LINE
  8
0
 62
     0
 10
0.119889
 20
1.9389
 30
0.0
 11
0.101975
 21
2.09462
 31
0.0
  0
LINE
  8
0
 62
     0
 10
0.101975
 20
2.09462
 30
0.0
 11
0.0950846
 21
2.25034
 31
0.0
  0
LINE
  8
0
 62
     0
 10
0.0950846
 20
2.25034
 30
0.0
 11
0.0950846
 21
67.4014
 31
0.0
  0
LINE
  8
0
 62
     0
 10
0.0950846
 20
67.4014
 30
0.0
 11
0.101975
 21
67.5584
 31
0.0
  0
LINE
  8
0
 62
     0
 10
0.101975
 20
67.5584
 30
0.0
 11
0.119889
 21
67.7153
 31
0.0
  0
LINE
  8
0
 62
     0
 10
0.119889
 20
67.7153
 30
0.0
 11
0.150206
 21
67.8684
 31
0.0
  0
LINE
  8
0
 62
     0
 10
0.150206
 20
67.8684
 30
0.0
 11
0.192925
 21
68.0212
 31
0.0
  0
LINE
  8
0
 62
     0
 10
0.192925
 20
68.0212
 30
0.0
 11
0.248047
 21
68.1672
 31
0.0
  0
LINE
  8
0
 62
     0
 10
0.248047
 20
68.1672
 30
0.0
 11
0.312815
 21
68.3094
 31
0.0
  0
LINE
  8
0
 62
     0
 10
0.312815
 20
68.3094
 30
0.0
 11
0.389985
 21
68.447
 31
0.0
  0
LINE
  8
0
 62
     0
 10
0.389985
 20
68.447
 30
0.0
 11
0.4768
 21
68.5782
 31
0.0
  0
LINE
  8
0
 62
     0
 10
0.4768
 20
68.5782
 30
0.0
 11
0.574643
 21
68.7007
 31
0.0
  0
LINE
  8
0
 62
     0
 10
0.574643
 20
68.7007
 30
0.0
 11
0.680752
 21
68.8164
 31
0.0
  0
LINE
  8
0
 62
     0
 10
0.680752
 20
68.8164
 30
0.0
 11
0.796505
 21
68.9225
 31
0.0
  0
LINE
  8
0
 62
     0
 10
0.796505
 20
68.9225
 30
0.0
 11
0.919152
 21
69.0203
 31
0.0
  0
LINE
  8
0
 62
     0
 10
0.919152
 20
69.0203
 30
0.0
 11
1.05006
 21
69.1074
 31
0.0
  0
LINE
  8
0
 62
     0
 10
1.05006
 20
69.1074
 30
0.0
 11
1.18787
 21
69.1843
 31
0.0
  0
LINE
  8
0
 62
     0
 10
1.18787
 20
69.1843
 30
0.0
 11
1.32981
 21
69.2492
 31
0.0
  0
LINE
  8
0
 62
     0
 10
1.32981
 20
69.2492
 30
0.0
 11
1.47588
 21
69.3043
 31
0.0
  0
LINE
  8
0
 62
     0
 10
1.47588
 20
69.3043
 30
0.0
 11
1.62884
 21
69.3469
 31
0.0
  0
LINE
  8
0
 62
     0
 10
1.62884
 20
69.3469
 30
0.0
 11
1.7818
 21
69.3773
 31
0.0
  0
LINE
  8
0
 62
     0
 10
1.7818
 20
69.3773
 30
0.0
 11
1.9389
 21
69.3953
 31
0.0
  0
LINE
  8
0
 62
     0
 10
1.9389
 20
69.3953
 30
0.0
 11
2.096
 21
69.402
 31
0.0
  0
LINE
  8
0
 62
     0
 10
2.096
 20
69.402
 30
0.0
 11
94.3462
 21
69.402
 31
0.0
  0
LINE
  8
0
 62
     0
 10
94.3462
 20
69.402
 30
0.0
 11
94.3462
 21
63.4023
 31
0.0
  0
LINE
  8
0
 62
     0
 10
2.60036
 20
4.77213
 30
0.0
 11
2.15387
 21
4.54614
 31
0.0
  0
LINE
  8
0
 62
     0
 10
2.15387
 20
4.54614
 30
0.0
 11
1.8011
 21
4.19199
 31
0.0
  0
LINE
  8
0
 62
     0
 10
1.8011
 20
4.19199
 30
0.0
 11
1.57372
 21
3.74551
 31
0.0
  0
LINE
  8
0
 62
     0
 10
1.57372
 20
3.74551
 30
0.0
 11
1.49517
 21
3.25079
 31
0.0
  0
LINE
  8
0
 62
     0
 10
1.49517
 20
3.25079
 30
0.0
 11
1.57372
 21
2.75608
 31
0.0
  0
LINE
  8
0
 62
     0
 10
1.57372
 20
2.75608
 30
0.0
 11
1.8011
 21
2.31097
 31
0.0
  0
LINE
  8
0
 62
     0
 10
1.8011
 20
2.31097
 30
0.0
 11
2.15387
 21
1.95682
 31
0.0
  0
LINE
  8
0
 62
     0
 10
2.15387
 20
1.95682
 30
0.0
 11
2.60036
 21
1.72944
 31
0.0
  0
LINE
  8
0
 62
     0
 10
2.60036
 20
1.72944
 30
0.0
 11
3.09507
 21
1.65227
 31
0.0
  0
LINE
  8
0
 62
     0
 10
3.09507
 20
1.65227
 30
0.0
 11
3.5898
 21
1.72944
 31
0.0
  0
LINE
  8
0
 62
     0
 10
3.5898
 20
1.72944
 30
0.0
 11
4.0349
 21
1.95682
 31
0.0
  0
LINE
  8
0
 62
     0
 10
4.0349
 20
1.95682
 30
0.0
 11
4.38905
 21
2.31097
 31
0.0
  0
LINE
  8
0
 62
     0
 10
4.38905
 20
2.31097
 30
0.0
 11
4.61641
 21
2.75608
 31
0.0
  0
LINE
  8
0
 62
     0
 10
4.61641
 20
2.75608
 30
0.0
 11
4.69498
 21
3.25079
 31
0.0
  0
LINE
  8
0
 62
     0
 10
4.69498
 20
3.25079
 30
0.0
 11
4.61641
 21
3.74551
 31
0.0
  0
LINE
  8
0
 62
     0
 10
4.61641
 20
3.74551
 30
0.0
 11
4.38905
 21
4.19199
 31
0.0
  0
LINE
  8
0
 62
     0
 10
4.38905
 20
4.19199
 30
0.0
 11
4.0349
 21
4.54614
 31
0.0
  0
LINE
  8
0
 62
     0
 10
4.0349
 20
4.54614
 30
0.0
 11
3.5898
 21
4.77213
 31
0.0
  0
LINE
  8
0
 62
     0
 10
3.5898
 20
4.77213
 30
0.0
 11
3.09507
 21
4.85069
 31
0.0
  0
LINE
  8
0
 62
     0
 10
3.09507
 20
4.85069
 30
0.0
 11
2.60036
 21
4.77213
 31
0.0
  0
LINE
  8
0
 62
     0
 10
68.0999
 20
4.77213
 30
0.0
 11
67.6547
 21
4.54614
 31
0.0
  0
LINE
  8
0
 62
     0
 10
67.6547
 20
4.54614
 30
0.0
 11
67.3005
 21
4.19199
 31
0.0
  0
LINE
  8
0
 62
     0
 10
67.3005
 20
4.19199
 30
0.0
 11
67.0733
 21
3.74551
 31
0.0
  0
LINE
  8
0
 62
     0
 10
67.0733
 20
3.74551
 30
0.0
 11
66.996
 21
3.25079
 31
0.0
  0
LINE
  8
0
 62
     0
 10
66.996
 20
3.25079
 30
0.0
 11
67.0733
 21
2.75608
 31
0.0
  0
LINE
  8
0
 62
     0
 10
67.0733
 20
2.75608
 30
0.0
 11
67.3005
 21
2.31097
 31
0.0
  0
LINE
  8
0
 62
     0
 10
67.3005
 20
2.31097
 30
0.0
 11
67.6547
 21
1.95682
 31
0.0
  0
LINE
  8
0
 62
     0
 10
67.6547
 20
1.95682
 30
0.0
 11
68.0999
 21
1.72944
 31
0.0
  0
LINE
  8
0
 62
     0
 10
68.0999
 20
1.72944
 30
0.0
 11
68.5959
 21
1.65227
 31
0.0
  0
LINE
  8
0
 62
     0
 10
68.5959
 20
1.65227
 30
0.0
 11
69.0894
 21
1.72944
 31
0.0
  0
LINE
  8
0
 62
     0
 10
69.0894
 20
1.72944
 30
0.0
 11
69.5357
 21
1.95682
 31
0.0
  0
LINE
  8
0
 62
     0
 10
69.5357
 20
1.95682
 30
0.0
 11
69.8899
 21
2.31097
 31
0.0
  0
LINE
  8
0
 62
     0
 10
69.8899
 20
2.31097
 30
0.0
 11
70.1174
 21
2.75608
 31
0.0
  0
LINE
  8
0
 62
     0
 10
70.1174
 20
2.75608
 30
0.0
 11
70.1957
 21
3.25079
 31
0.0
  0
LINE
  8
0
 62
     0
 10
70.1957
 20
3.25079
 30
0.0
 11
70.1174
 21
3.74551
 31
0.0
  0
LINE
  8
0
 62
     0
 10
70.1174
 20
3.74551
 30
0.0
 11
69.8899
 21
4.19199
 31
0.0
  0
LINE
  8
0
 62
     0
 10
69.8899
 20
4.19199
 30
0.0
 11
69.5357
 21
4.54614
 31
0.0
  0
LINE
  8
0
 62
     0
 10
69.5357
 20
4.54614
 30
0.0
 11
69.0894
 21
4.77213
 31
0.0
  0
LINE
  8
0
 62
     0
 10
69.0894
 20
4.77213
 30
0.0
 11
68.5959
 21
4.85069
 31
0.0
  0
LINE
  8
0
 62
     0
 10
68.5959
 20
4.85069
 30
0.0
 11
68.0999
 21
4.77213
 31
0.0
  0
LINE
  8
0
 62
     0
 10
133.601
 20
4.77213
 30
0.0
 11
133.156
 21
4.54614
 31
0.0
  0
LINE
  8
0
 62
     0
 10
133.156
 20
4.54614
 30
0.0
 11
132.801
 21
4.19199
 31
0.0
  0
LINE
  8
0
 62
     0
 10
132.801
 20
4.19199
 30
0.0
 11
132.574
 21
3.74551
 31
0.0
  0
LINE
  8
0
 62
     0
 10
132.574
 20
3.74551
 30
0.0
 11
132.496
 21
3.25079
 31
0.0
  0
LINE
  8
0
 62
     0
 10
132.496
 20
3.25079
 30
0.0
 11
132.574
 21
2.75608
 31
0.0
  0
LINE
  8
0
 62
     0
 10
132.574
 20
2.75608
 30
0.0
 11
132.801
 21
2.31097
 31
0.0
  0
LINE
  8
0
 62
     0
 10
132.801
 20
2.31097
 30
0.0
 11
133.156
 21
1.95682
 31
0.0
  0
LINE
  8
0
 62
     0
 10
133.156
 20
1.95682
 30
0.0
 11
133.601
 21
1.72944
 31
0.0
  0
LINE
  8
0
 62
     0
 10
133.601
 20
1.72944
 30
0.0
 11
134.095
 21
1.65227
 31
0.0
  0
LINE
  8
0
 62
     0
 10
134.095
 20
1.65227
 30
0.0
 11
134.59
 21
1.72944
 31
0.0
  0
LINE
  8
0
 62
     0
 10
134.59
 20
1.72944
 30
0.0
 11
135.037
 21
1.95682
 31
0.0
  0
LINE
  8
0
 62
     0
 10
135.037
 20
1.95682
 30
0.0
 11
135.391
 21
2.31097
 31
0.0
  0
LINE
  8
0
 62
     0
 10
135.391
 20
2.31097
 30
0.0
 11
135.617
 21
2.75608
 31
0.0
  0
LINE
  8
0
 62
     0
 10
135.617
 20
2.75608
 30
0.0
 11
135.695
 21
3.25079
 31
0.0
  0
LINE
  8
0
 62
     0
 10
135.695
 20
3.25079
 30
0.0
 11
135.617
 21
3.74551
 31
0.0
  0
LINE
  8
0
 62
     0
 10
135.617
 20
3.74551
 30
0.0
 11
135.391
 21
4.19199
 31
0.0
  0
LINE
  8
0
 62
     0
 10
135.391
 20
4.19199
 30
0.0
 11
135.037
 21
4.54614
 31
0.0
  0
LINE
  8
0
 62
     0
 10
135.037
 20
4.54614
 30
0.0
 11
134.59
 21
4.77213
 31
0.0
  0
LINE
  8
0
 62
     0
 10
134.59
 20
4.77213
 30
0.0
 11
134.095
 21
4.85069
 31
0.0
  0
LINE
  8
0
 62
     0
 10
134.095
 20
4.85069
 30
0.0
 11
133.601
 21
4.77213
 31
0.0
  0
LINE
  8
0
 62
     0
 10
199.102
 20
4.77213
 30
0.0
 11
198.655
 21
4.54614
 31
0.0
  0
LINE
  8
0
 62
     0
 10
198.655
 20
4.54614
 30
0.0
 11
198.301
 21
4.19199
 31
0.0
  0
LINE
  8
0
 62
     0
 10
198.301
 20
4.19199
 30
0.0
 11
198.075
 21
3.74551
 31
0.0
  0
LINE
  8
0
 62
     0
 10
198.075
 20
3.74551
 30
0.0
 11
197.997
 21
3.25079
 31
0.0
  0
LINE
  8
0
 62
     0
 10
197.997
 20
3.25079
 30
0.0
 11
198.075
 21
2.75608
 31
0.0
  0
LINE
  8
0
 62
     0
 10
198.075
 20
2.75608
 30
0.0
 11
198.301
 21
2.31097
 31
0.0
  0
LINE
  8
0
 62
     0
 10
198.301
 20
2.31097
 30
0.0
 11
198.655
 21
1.95682
 31
0.0
  0
LINE
  8
0
 62
     0
 10
198.655
 20
1.95682
 30
0.0
 11
199.102
 21
1.72944
 31
0.0
  0
LINE
  8
0
 62
     0
 10
199.102
 20
1.72944
 30
0.0
 11
199.596
 21
1.65227
 31
0.0
  0
LINE
  8
0
 62
     0
 10
199.596
 20
1.65227
 30
0.0
 11
200.091
 21
1.72944
 31
0.0
  0
LINE
  8
0
 62
     0
 10
200.091
 20
1.72944
 30
0.0
 11
200.536
 21
1.95682
 31
0.0
  0
LINE
  8
0
 62
     0
 10
200.536
 20
1.95682
 30
0.0
 11
200.89
 21
2.31097
 31
0.0
  0
LINE
  8
0
 62
     0
 10
200.89
 20
2.31097
 30
0.0
 11
201.118
 21
2.75608
 31
0.0
  0
LINE
  8
0
 62
     0
 10
201.118
 20
2.75608
 30
0.0
 11
201.196
 21
3.25079
 31
0.0
  0
LINE
  8
0
 62
     0
 10
201.196
 20
3.25079
 30
0.0
 11
201.118
 21
3.74551
 31
0.0
  0
LINE
  8
0
 62
     0
 10
201.118
 20
3.74551
 30
0.0
 11
200.89
 21
4.19199
 31
0.0
  0
LINE
  8
0
 62
     0
 10
200.89
 20
4.19199
 30
0.0
 11
200.536
 21
4.54614
 31
0.0
  0
LINE
  8
0
 62
     0
 10
200.536
 20
4.54614
 30
0.0
 11
200.091
 21
4.77213
 31
0.0
  0
LINE
  8
0
 62
     0
 10
200.091
 20
4.77213
 30
0.0
 11
199.596
 21
4.85069
 31
0.0
  0
LINE
  8
0
 62
     0
 10
199.596
 20
4.85069
 30
0.0
 11
199.102
 21
4.77213
 31
0.0
  0
LINE
  8
0
 62
     0
 10
2.60036
 20
67.9235
 30
0.0
 11
2.15387
 21
67.6963
 31
0.0
  0
LINE
  8
0
 62
     0
 10
2.15387
 20
67.6963
 30
0.0
 11
1.8011
 21
67.3435
 31
0.0
  0
LINE
  8
0
 62
     0
 10
1.8011
 20
67.3435
 30
0.0
 11
1.57372
 21
66.8969
 31
0.0
  0
LINE
  8
0
 62
     0
 10
1.57372
 20
66.8969
 30
0.0
 11
1.49517
 21
66.4023
 31
0.0
  0
LINE
  8
0
 62
     0
 10
1.49517
 20
66.4023
 30
0.0
 11
1.57372
 21
65.9074
 31
0.0
  0
LINE
  8
0
 62
     0
 10
1.57372
 20
65.9074
 30
0.0
 11
1.8011
 21
65.4625
 31
0.0
  0
LINE
  8
0
 62
     0
 10
1.8011
 20
65.4625
 30
0.0
 11
2.15387
 21
65.1083
 31
0.0
  0
LINE
  8
0
 62
     0
 10
2.15387
 20
65.1083
 30
0.0
 11
2.60036
 21
64.8808
 31
0.0
  0
LINE
  8
0
 62
     0
 10
2.60036
 20
64.8808
 30
0.0
 11
3.09507
 21
64.8021
 31
0.0
  0
LINE
  8
0
 62
     0
 10
3.09507
 20
64.8021
 30
0.0
 11
3.5898
 21
64.8808
 31
0.0
  0
LINE
  8
0
 62
     0
 10
3.5898
 20
64.8808
 30
0.0
 11
4.0349
 21
65.1083
 31
0.0
  0
LINE
  8
0
 62
     0
 10
4.0349
 20
65.1083
 30
0.0
 11
4.38905
 21
65.4625
 31
0.0
  0
LINE
  8
0
 62
     0
 10
4.38905
 20
65.4625
 30
0.0
 11
4.61641
 21
65.9074
 31
0.0
  0
LINE
  8
0
 62
     0
 10
4.61641
 20
65.9074
 30
0.0
 11
4.69498
 21
66.4023
 31
0.0
  0
LINE
  8
0
 62
     0
 10
4.69498
 20
66.4023
 30
0.0
 11
4.61641
 21
66.8969
 31
0.0
  0
LINE
  8
0
 62
     0
 10
4.61641
 20
66.8969
 30
0.0
 11
4.38905
 21
67.3435
 31
0.0
  0
LINE
  8
0
 62
     0
 10
4.38905
 20
67.3435
 30
0.0
 11
4.0349
 21
67.6963
 31
0.0
  0
LINE
  8
0
 62
     0
 10
4.0349
 20
67.6963
 30
0.0
 11
3.5898
 21
67.9235
 31
0.0
  0
LINE
  8
0
 62
     0
 10
3.5898
 20
67.9235
 30
0.0
 11
3.09507
 21
68.0021
 31
0.0
  0
LINE
  8
0
 62
     0
 10
3.09507
 20
68.0021
 30
0.0
 11
2.60036
 21
67.9235
 31
0.0
  0
LINE
  8
0
 62
     0
 10
199.102
 20
67.9235
 30
0.0
 11
198.655
 21
67.6963
 31
0.0
  0
LINE
  8
0
 62
     0
 10
198.655
 20
67.6963
 30
0.0
 11
198.301
 21
67.3435
 31
0.0
  0
LINE
  8
0
 62
     0
 10
198.301
 20
67.3435
 30
0.0
 11
198.075
 21
66.8969
 31
0.0
  0
LINE
  8
0
 62
     0
 10
198.075
 20
66.8969
 30
0.0
 11
197.997
 21
66.4023
 31
0.0
  0
LINE
  8
0
 62
     0
 10
197.997
 20
66.4023
 30
0.0
 11
198.075
 21
65.9074
 31
0.0
  0
LINE
  8
0
 62
     0
 10
198.075
 20
65.9074
 30
0.0
 11
198.301
 21
65.4625
 31
0.0
  0
LINE
  8
0
 62
     0
 10
198.301
 20
65.4625
 30
0.0
 11
198.655
 21
65.1083
 31
0.0
  0
LINE
  8
0
 62
     0
 10
198.655
 20
65.1083
 30
0.0
 11
199.102
 21
64.8808
 31
0.0
  0
LINE
  8
0
 62
     0
 10
199.102
 20
64.8808
 30
0.0
 11
199.596
 21
64.8021
 31
0.0
  0
LINE
  8
0
 62
     0
 10
199.596
 20
64.8021
 30
0.0
 11
200.091
 21
64.8808
 31
0.0
  0
LINE
  8
0
 62
     0
 10
200.091
 20
64.8808
 30
0.0
 11
200.536
 21
65.1083
 31
0.0
  0
LINE
  8
0
 62
     0
 10
200.536
 20
65.1083
 30
0.0
 11
200.89
 21
65.4625
 31
0.0
  0
LINE
  8
0
 62
     0
 10
200.89
 20
65.4625
 30
0.0
 11
201.118
 21
65.9074
 31
0.0
  0
LINE
  8
0
 62
     0
 10
201.118
 20
65.9074
 30
0.0
 11
201.196
 21
66.4023
 31
0.0
  0
LINE
  8
0
 62
     0
 10
201.196
 20
66.4023
 30
0.0
 11
201.118
 21
66.8969
 31
0.0
  0
LINE
  8
0
 62
     0
 10
201.118
 20
66.8969
 30
0.0
 11
200.89
 21
67.3435
 31
0.0
  0
LINE
  8
0
 62
     0
 10
200.89
 20
67.3435
 30
0.0
 11
200.536
 21
67.6963
 31
0.0
  0
LINE
  8
0
 62
     0
 10
200.536
 20
67.6963
 30
0.0
 11
200.091
 21
67.9235
 31
0.0
  0
LINE
  8
0
 62
     0
 10
200.091
 20
67.9235
 30
0.0
 11
199.596
 21
68.0021
 31
0.0
  0
LINE
  8
0
 62
     0
 10
199.596
 20
68.0021
 30
0.0
 11
199.102
 21
67.9235
 31
0.0
  0
LINE
  8
0
 62
     0
 10
133.601
 20
67.9235
 30
0.0
 11
133.156
 21
67.6963
 31
0.0
  0
LINE
  8
0
 62
     0
 10
133.156
 20
67.6963
 30
0.0
 11
132.801
 21
67.3435
 31
0.0
  0
LINE
  8
0
 62
     0
 10
132.801
 20
67.3435
 30
0.0
 11
132.574
 21
66.8969
 31
0.0
  0
LINE
  8
0
 62
     0
 10
132.574
 20
66.8969
 30
0.0
 11
132.496
 21
66.4023
 31
0.0
  0
LINE
  8
0
 62
     0
 10
132.496
 20
66.4023
 30
0.0
 11
132.574
 21
65.9074
 31
0.0
  0
LINE
  8
0
 62
     0
 10
132.574
 20
65.9074
 30
0.0
 11
132.801
 21
65.4625
 31
0.0
  0
LINE
  8
0
 62
     0
 10
132.801
 20
65.4625
 30
0.0
 11
133.156
 21
65.1083
 31
0.0
  0
LINE
  8
0
 62
     0
 10
133.156
 20
65.1083
 30
0.0
 11
133.601
 21
64.8808
 31
0.0
  0
LINE
  8
0
 62
     0
 10
133.601
 20
64.8808
 30
0.0
 11
134.095
 21
64.8021
 31
0.0
  0
LINE
  8
0
 62
     0
 10
134.095
 20
64.8021
 30
0.0
 11
134.59
 21
64.8808
 31
0.0
  0
LINE
  8
0
 62
     0
 10
134.59
 20
64.8808
 30
0.0
 11
135.037
 21
65.1083
 31
0.0
  0
LINE
  8
0
 62
     0
 10
135.037
 20
65.1083
 30
0.0
 11
135.391
 21
65.4625
 31
0.0
  0
LINE
  8
0
 62
     0
 10
135.391
 20
65.4625
 30
0.0
 11
135.617
 21
65.9074
 31
0.0
  0
LINE
  8
0
 62
     0
 10
135.617
 20
65.9074
 30
0.0
 11
135.695
 21
66.4023
 31
0.0
  0
LINE
  8
0
 62
     0
 10
135.695
 20
66.4023
 30
0.0
 11
135.617
 21
66.8969
 31
0.0
  0
LINE
  8
0
 62
     0
 10
135.617
 20
66.8969
 30
0.0
 11
135.391
 21
67.3435
 31
0.0
  0
LINE
  8
0
 62
     0
 10
135.391
 20
67.3435
 30
0.0
 11
135.037
 21
67.6963
 31
0.0
  0
LINE
  8
0
 62
     0
 10
135.037
 20
67.6963
 30
0.0
 11
134.59
 21
67.9235
 31
0.0
  0
LINE
  8
0
 62
     0
 10
134.59
 20
67.9235
 30
0.0
 11
134.095
 21
68.0021
 31
0.0
  0
LINE
  8
0
 62
     0
 10
134.095
 20
68.0021
 30
0.0
 11
133.601
 21
67.9235
 31
0.0
  0
LINE
  8
0
 62
     0
 10
68.0999
 20
67.9235
 30
0.0
 11
67.6547
 21
67.6963
 31
0.0
  0
LINE
  8
0
 62
     0
 10
67.6547
 20
67.6963
 30
0.0
 11
67.3005
 21
67.3435
 31
0.0
  0
LINE
  8
0
 62
     0
 10
67.3005
 20
67.3435
 30
0.0
 11
67.0733
 21
66.8969
 31
0.0
  0
LINE
  8
0
 62
     0
 10
67.0733
 20
66.8969
 30
0.0
 11
66.996
 21
66.4023
 31
0.0
  0
LINE
  8
0
 62
     0
 10
66.996
 20
66.4023
 30
0.0
 11
67.0733
 21
65.9074
 31
0.0
  0
LINE
  8
0
 62
     0
 10
67.0733
 20
65.9074
 30
0.0
 11
67.3005
 21
65.4625
 31
0.0
  0
LINE
  8
0
 62
     0
 10
67.3005
 20
65.4625
 30
0.0
 11
67.6547
 21
65.1083
 31
0.0
  0
LINE
  8
0
 62
     0
 10
67.6547
 20
65.1083
 30
0.0
 11
68.0999
 21
64.8808
 31
0.0
  0
LINE
  8
0
 62
     0
 10
68.0999
 20
64.8808
 30
0.0
 11
68.5959
 21
64.8021
 31
0.0
  0
LINE
  8
0
 62
     0
 10
68.5959
 20
64.8021
 30
0.0
 11
69.0894
 21
64.8808
 31
0.0
  0
LINE
  8
0
 62
     0
 10
69.0894
 20
64.8808
 30
0.0
 11
69.5357
 21
65.1083
 31
0.0
  0
LINE
  8
0
 62
     0
 10
69.5357
 20
65.1083
 30
0.0
 11
69.8899
 21
65.4625
 31
0.0
  0
LINE
  8
0
 62
     0
 10
69.8899
 20
65.4625
 30
0.0
 11
70.1174
 21
65.9074
 31
0.0
  0
LINE
  8
0
 62
     0
 10
70.1174
 20
65.9074
 30
0.0
 11
70.1957
 21
66.4023
 31
0.0
  0
LINE
  8
0
 62
     0
 10
70.1957
 20
66.4023
 30
0.0
 11
70.1174
 21
66.8969
 31
0.0
  0
LINE
  8
0
 62
     0
 10
70.1174
 20
66.8969
 30
0.0
 11
69.8899
 21
67.3435
 31
0.0
  0
LINE
  8
0
 62
     0
 10
69.8899
 20
67.3435
 30
0.0
 11
69.5357
 21
67.6963
 31
0.0
  0
LINE
  8
0
 62
     0
 10
69.5357
 20
67.6963
 30
0.0
 11
69.0894
 21
67.9235
 31
0.0
  0
LINE
  8
0
 62
     0
 10
69.0894
 20
67.9235
 30
0.0
 11
68.5959
 21
68.0021
 31
0.0
  0
LINE
  8
0
 62
     0
 10
68.5959
 20
68.0021
 30
0.0
 11
68.0999
 21
67.9235
 31
0.0
  0
ENDSEC
  0
EOF
