G04 Layer: BoardOutline*
G04 EasyEDA v6.4.25, 2022-01-20T16:10:27+08:00*
G04 6dc260cefc8449458edb0d880bd6ed8d,3b57db4a37c74da5bb1b5bc11455ab19,10*
G04 Gerber Generator version 0.2*
G04 Scale: 100 percent, Rotated: No, Reflected: No *
G04 Dimensions in millimeters *
G04 leading zeros omitted , absolute positions ,4 integer and 5 decimal *
%FSLAX45Y45*%
%MOMM*%

%ADD10C,0.2540*%
D10*
X-1899998Y-1799998D02*
G01*
X-1899998Y1799998D01*
X1899998Y-1799998D02*
G01*
X1899998Y1803400D01*
X-1799998Y-1899998D02*
G01*
X1799998Y-1899998D01*
X2000001Y1899998D02*
G01*
X11300000Y1899998D01*
X-2000001Y1899998D02*
G01*
X-11300000Y1899998D01*
X11400000Y1799998D02*
G01*
X11400000Y-3700000D01*
X-11400000Y-3700000D02*
G01*
X-11400000Y1799998D01*
X11300000Y-3800000D02*
G01*
X-11300000Y-3800000D01*
G75*
G01*
X11400000Y-3700000D02*
G02*
X11300000Y-3800000I-100000J0D01*
G75*
G01*
X-11300000Y-3800000D02*
G02*
X-11400000Y-3700000I0J100000D01*
G75*
G01*
X-11400000Y1799999D02*
G02*
X-11300000Y1899999I100000J0D01*
G75*
G01*
X11300000Y1899999D02*
G02*
X11400000Y1799999I0J-100000D01*
G75*
G01*
X2000001Y1899999D02*
G03*
X1900001Y1799999I0J-100000D01*
G75*
G01*
X-2000001Y1899999D02*
G02*
X-1900001Y1799999I0J-100000D01*
G75*
G01*
X1899999Y-1799999D02*
G02*
X1799999Y-1899999I-100000J0D01*
G75*
G01*
X-1799999Y-1899999D02*
G02*
X-1899999Y-1799999I0J100000D01*
X-11140000Y1640001D02*
G01*
X-9759998Y1640001D01*
X-9759998Y1640001D02*
G01*
X-9759998Y259999D01*
X-9759998Y259999D02*
G01*
X-11140000Y259999D01*
X-11140000Y259999D02*
G01*
X-11140000Y1640001D01*
X-9240001Y1640001D02*
G01*
X-7859999Y1640001D01*
X-7859999Y1640001D02*
G01*
X-7859999Y259999D01*
X-7859999Y259999D02*
G01*
X-9240001Y259999D01*
X-9240001Y259999D02*
G01*
X-9240001Y1640001D01*
X-7340000Y1640001D02*
G01*
X-5959998Y1640001D01*
X-5959998Y1640001D02*
G01*
X-5959998Y259999D01*
X-5959998Y259999D02*
G01*
X-7340000Y259999D01*
X-7340000Y259999D02*
G01*
X-7340000Y1640001D01*
X-5440001Y1640001D02*
G01*
X-4059999Y1640001D01*
X-4059999Y1640001D02*
G01*
X-4059999Y259999D01*
X-4059999Y259999D02*
G01*
X-5440001Y259999D01*
X-5440001Y259999D02*
G01*
X-5440001Y1640001D01*
X-3540000Y1640001D02*
G01*
X-2159998Y1640001D01*
X-2159998Y1640001D02*
G01*
X-2159998Y259999D01*
X-2159998Y259999D02*
G01*
X-3540000Y259999D01*
X-3540000Y259999D02*
G01*
X-3540000Y1640001D01*
X2159998Y1640001D02*
G01*
X3540000Y1640001D01*
X3540000Y1640001D02*
G01*
X3540000Y259999D01*
X3540000Y259999D02*
G01*
X2159998Y259999D01*
X2159998Y259999D02*
G01*
X2159998Y1640001D01*
X4059999Y1640001D02*
G01*
X5440001Y1640001D01*
X5440001Y1640001D02*
G01*
X5440001Y259999D01*
X5440001Y259999D02*
G01*
X4059999Y259999D01*
X4059999Y259999D02*
G01*
X4059999Y1640001D01*
X5959998Y1640001D02*
G01*
X7340000Y1640001D01*
X7340000Y1640001D02*
G01*
X7340000Y259999D01*
X7340000Y259999D02*
G01*
X5959998Y259999D01*
X5959998Y259999D02*
G01*
X5959998Y1640001D01*
X7859999Y1640001D02*
G01*
X9240001Y1640001D01*
X9240001Y1640001D02*
G01*
X9240001Y259999D01*
X9240001Y259999D02*
G01*
X7859999Y259999D01*
X7859999Y259999D02*
G01*
X7859999Y1640001D01*
X9759998Y1640001D02*
G01*
X11140000Y1640001D01*
X11140000Y1640001D02*
G01*
X11140000Y259999D01*
X11140000Y259999D02*
G01*
X9759998Y259999D01*
X9759998Y259999D02*
G01*
X9759998Y1640001D01*
X-11140000Y-259996D02*
G01*
X-9759998Y-259996D01*
X-9759998Y-259996D02*
G01*
X-9759998Y-1639999D01*
X-9759998Y-1639999D02*
G01*
X-11140000Y-1639999D01*
X-11140000Y-1639999D02*
G01*
X-11140000Y-259996D01*
X-9240001Y-259996D02*
G01*
X-7859999Y-259996D01*
X-7859999Y-259996D02*
G01*
X-7859999Y-1639999D01*
X-7859999Y-1639999D02*
G01*
X-9240001Y-1639999D01*
X-9240001Y-1639999D02*
G01*
X-9240001Y-259996D01*
X-7340000Y-259996D02*
G01*
X-5959998Y-259996D01*
X-5959998Y-259996D02*
G01*
X-5959998Y-1639999D01*
X-5959998Y-1639999D02*
G01*
X-7340000Y-1639999D01*
X-7340000Y-1639999D02*
G01*
X-7340000Y-259996D01*
X-5440001Y-259996D02*
G01*
X-4059999Y-259996D01*
X-4059999Y-259996D02*
G01*
X-4059999Y-1639999D01*
X-4059999Y-1639999D02*
G01*
X-5440001Y-1639999D01*
X-5440001Y-1639999D02*
G01*
X-5440001Y-259996D01*
X-3540000Y-259996D02*
G01*
X-2159998Y-259996D01*
X-2159998Y-259996D02*
G01*
X-2159998Y-1639999D01*
X-2159998Y-1639999D02*
G01*
X-3540000Y-1639999D01*
X-3540000Y-1639999D02*
G01*
X-3540000Y-259996D01*
X2159998Y-259996D02*
G01*
X3540000Y-259996D01*
X3540000Y-259996D02*
G01*
X3540000Y-1639999D01*
X3540000Y-1639999D02*
G01*
X2159998Y-1639999D01*
X2159998Y-1639999D02*
G01*
X2159998Y-259996D01*
X4059999Y-259996D02*
G01*
X5440001Y-259996D01*
X5440001Y-259996D02*
G01*
X5440001Y-1639999D01*
X5440001Y-1639999D02*
G01*
X4059999Y-1639999D01*
X4059999Y-1639999D02*
G01*
X4059999Y-259996D01*
X5959998Y-259996D02*
G01*
X7340000Y-259996D01*
X7340000Y-259996D02*
G01*
X7340000Y-1639999D01*
X7340000Y-1639999D02*
G01*
X5959998Y-1639999D01*
X5959998Y-1639999D02*
G01*
X5959998Y-259996D01*
X7859999Y-259996D02*
G01*
X9240001Y-259996D01*
X9240001Y-259996D02*
G01*
X9240001Y-1639999D01*
X9240001Y-1639999D02*
G01*
X7859999Y-1639999D01*
X7859999Y-1639999D02*
G01*
X7859999Y-259996D01*
X9759998Y-259996D02*
G01*
X11140000Y-259996D01*
X11140000Y-259996D02*
G01*
X11140000Y-1639999D01*
X11140000Y-1639999D02*
G01*
X9759998Y-1639999D01*
X9759998Y-1639999D02*
G01*
X9759998Y-259996D01*
X-11140000Y-2159998D02*
G01*
X-9759998Y-2159998D01*
X-9759998Y-2159998D02*
G01*
X-9759998Y-3540000D01*
X-9759998Y-3540000D02*
G01*
X-11140000Y-3540000D01*
X-11140000Y-3540000D02*
G01*
X-11140000Y-2159998D01*
X-9240001Y-2159998D02*
G01*
X-7859999Y-2159998D01*
X-7859999Y-2159998D02*
G01*
X-7859999Y-3540000D01*
X-7859999Y-3540000D02*
G01*
X-9240001Y-3540000D01*
X-9240001Y-3540000D02*
G01*
X-9240001Y-2159998D01*
X-7340000Y-2159998D02*
G01*
X-5959998Y-2159998D01*
X-5959998Y-2159998D02*
G01*
X-5959998Y-3540000D01*
X-5959998Y-3540000D02*
G01*
X-7340000Y-3540000D01*
X-7340000Y-3540000D02*
G01*
X-7340000Y-2159998D01*
X-5440001Y-2159998D02*
G01*
X-4059999Y-2159998D01*
X-4059999Y-2159998D02*
G01*
X-4059999Y-3540000D01*
X-4059999Y-3540000D02*
G01*
X-5440001Y-3540000D01*
X-5440001Y-3540000D02*
G01*
X-5440001Y-2159998D01*
X-3540000Y-2159998D02*
G01*
X-2159998Y-2159998D01*
X-2159998Y-2159998D02*
G01*
X-2159998Y-3540000D01*
X-2159998Y-3540000D02*
G01*
X-3540000Y-3540000D01*
X-3540000Y-3540000D02*
G01*
X-3540000Y-2159998D01*
X-1640001Y-2159998D02*
G01*
X-259999Y-2159998D01*
X-259999Y-2159998D02*
G01*
X-259999Y-3540000D01*
X-259999Y-3540000D02*
G01*
X-1640001Y-3540000D01*
X-1640001Y-3540000D02*
G01*
X-1640001Y-2159998D01*
X259999Y-2159998D02*
G01*
X1640001Y-2159998D01*
X1640001Y-2159998D02*
G01*
X1640001Y-3540000D01*
X1640001Y-3540000D02*
G01*
X259999Y-3540000D01*
X259999Y-3540000D02*
G01*
X259999Y-2159998D01*
X2159998Y-2159998D02*
G01*
X3540000Y-2159998D01*
X3540000Y-2159998D02*
G01*
X3540000Y-3540000D01*
X3540000Y-3540000D02*
G01*
X2159998Y-3540000D01*
X2159998Y-3540000D02*
G01*
X2159998Y-2159998D01*
X4059999Y-2159998D02*
G01*
X5440001Y-2159998D01*
X5440001Y-2159998D02*
G01*
X5440001Y-3540000D01*
X5440001Y-3540000D02*
G01*
X4059999Y-3540000D01*
X4059999Y-3540000D02*
G01*
X4059999Y-2159998D01*
X5959998Y-2159998D02*
G01*
X7340000Y-2159998D01*
X7340000Y-2159998D02*
G01*
X7340000Y-3540000D01*
X7340000Y-3540000D02*
G01*
X5959998Y-3540000D01*
X5959998Y-3540000D02*
G01*
X5959998Y-2159998D01*
X7859999Y-2159998D02*
G01*
X9240001Y-2159998D01*
X9240001Y-2159998D02*
G01*
X9240001Y-3540000D01*
X9240001Y-3540000D02*
G01*
X7859999Y-3540000D01*
X7859999Y-3540000D02*
G01*
X7859999Y-2159998D01*
X9759998Y-2159998D02*
G01*
X11140000Y-2159998D01*
X11140000Y-2159998D02*
G01*
X11140000Y-3540000D01*
X11140000Y-3540000D02*
G01*
X9759998Y-3540000D01*
X9759998Y-3540000D02*
G01*
X9759998Y-2159998D01*

%LPD*%
M02*
