  0
SECTION
  2
HEADER
  9
$ACADVER
  1
AC1009
  9
$EXTMIN
 10
0.0
 20
0.0
 30
0.0
  9
$EXTMAX
 10
1000.0
 20
1000.0
 30
0.0
  9
$FILLMODE
 70
 0
  9
$SPLFRAME
 70
 1
  0
ENDSEC
  0
SECTION
  2
TABLES
  0
TABLE
  2
LAYER
 70
1
  0
LAYER
  2
0
 70
     0
 62
     7
  6
CONTINUOUS
  0
ENDTAB
  0
ENDSEC
  0
SECTION
  2
ENTITIES
  0
LINE
  8
0
 62
     0
 10
0.0950846
 20
141.369
 30
0.0
 11
351.568
 21
141.369
 31
0.0
  0
LINE
  8
0
 62
     0
 10
351.568
 20
141.369
 30
0.0
 11
351.568
 21
0.402389
 31
0.0
  0
LINE
  8
0
 62
     0
 10
351.568
 20
0.402389
 30
0.0
 11
0.0950846
 21
0.402389
 31
0.0
  0
LINE
  8
0
 62
     0
 10
0.0950846
 20
0.402389
 30
0.0
 11
0.0950846
 21
141.369
 31
0.0
  0
LINE
  8
0
 62
     0
 10
131.377
 20
19.1768
 30
0.0
 11
130.594
 21
19.3449
 31
0.0
  0
LINE
  8
0
 62
     0
 10
130.594
 20
19.3449
 30
0.0
 11
129.949
 21
16.3118
 31
0.0
  0
LINE
  8
0
 62
     0
 10
129.949
 20
16.3118
 30
0.0
 11
130.733
 21
16.1465
 31
0.0
  0
LINE
  8
0
 62
     0
 10
130.733
 20
16.1465
 30
0.0
 11
129.526
 21
10.4731
 31
0.0
  0
LINE
  8
0
 62
     0
 10
129.526
 20
10.4731
 30
0.0
 11
128.743
 21
10.6385
 31
0.0
  0
LINE
  8
0
 62
     0
 10
128.743
 20
10.6385
 30
0.0
 11
128.1
 21
7.60677
 31
0.0
  0
LINE
  8
0
 62
     0
 10
128.1
 20
7.60677
 30
0.0
 11
128.881
 21
7.44001
 31
0.0
  0
LINE
  8
0
 62
     0
 10
128.881
 20
7.44001
 30
0.0
 11
128.673
 21
6.46162
 31
0.0
  0
LINE
  8
0
 62
     0
 10
128.673
 20
6.46162
 30
0.0
 11
142.368
 21
3.5512
 31
0.0
  0
LINE
  8
0
 62
     0
 10
142.368
 20
3.5512
 30
0.0
 11
142.576
 21
4.5296
 31
0.0
  0
LINE
  8
0
 62
     0
 10
142.576
 20
4.5296
 30
0.0
 11
143.359
 21
4.36287
 31
0.0
  0
LINE
  8
0
 62
     0
 10
143.359
 20
4.36287
 30
0.0
 11
144.002
 21
7.39592
 31
0.0
  0
LINE
  8
0
 62
     0
 10
144.002
 20
7.39592
 30
0.0
 11
143.221
 21
7.5613
 31
0.0
  0
LINE
  8
0
 62
     0
 10
143.221
 20
7.5613
 30
0.0
 11
144.427
 21
13.2347
 31
0.0
  0
LINE
  8
0
 62
     0
 10
144.427
 20
13.2347
 30
0.0
 11
145.208
 21
13.0679
 31
0.0
  0
LINE
  8
0
 62
     0
 10
145.208
 20
13.0679
 30
0.0
 11
145.853
 21
16.101
 31
0.0
  0
LINE
  8
0
 62
     0
 10
145.853
 20
16.101
 30
0.0
 11
145.07
 21
16.2664
 31
0.0
  0
LINE
  8
0
 62
     0
 10
145.07
 20
16.2664
 30
0.0
 11
145.278
 21
17.2448
 31
0.0
  0
LINE
  8
0
 62
     0
 10
145.278
 20
17.2448
 30
0.0
 11
131.585
 21
20.1552
 31
0.0
  0
LINE
  8
0
 62
     0
 10
131.585
 20
20.1552
 30
0.0
 11
131.377
 21
19.1768
 31
0.0
  0
LINE
  8
0
 62
     0
 10
207.253
 20
23.6058
 30
0.0
 11
207.444
 21
22.7059
 31
0.0
  0
LINE
  8
0
 62
     0
 10
207.444
 20
22.7059
 30
0.0
 11
205.758
 21
22.349
 31
0.0
  0
LINE
  8
0
 62
     0
 10
205.758
 20
22.349
 30
0.0
 11
206.429
 21
19.1878
 31
0.0
  0
LINE
  8
0
 62
     0
 10
206.429
 20
19.1878
 30
0.0
 11
204.938
 21
18.8709
 31
0.0
  0
LINE
  8
0
 62
     0
 10
204.938
 20
18.8709
 30
0.0
 11
204.812
 21
19.4579
 31
0.0
  0
LINE
  8
0
 62
     0
 10
204.812
 20
19.4579
 30
0.0
 11
205.595
 21
19.6246
 31
0.0
  0
LINE
  8
0
 62
     0
 10
205.595
 20
19.6246
 30
0.0
 11
204.95
 21
22.6577
 31
0.0
  0
LINE
  8
0
 62
     0
 10
204.95
 20
22.6577
 30
0.0
 11
204.167
 21
22.491
 31
0.0
  0
LINE
  8
0
 62
     0
 10
204.167
 20
22.491
 30
0.0
 11
203.959
 21
23.4694
 31
0.0
  0
LINE
  8
0
 62
     0
 10
203.959
 20
23.4694
 30
0.0
 11
190.266
 21
20.5589
 31
0.0
  0
LINE
  8
0
 62
     0
 10
190.266
 20
20.5589
 30
0.0
 11
190.474
 21
19.5805
 31
0.0
  0
LINE
  8
0
 62
     0
 10
190.474
 20
19.5805
 30
0.0
 11
189.691
 21
19.4138
 31
0.0
  0
LINE
  8
0
 62
     0
 10
189.691
 20
19.4138
 30
0.0
 11
190.336
 21
16.3807
 31
0.0
  0
LINE
  8
0
 62
     0
 10
190.336
 20
16.3807
 30
0.0
 11
191.119
 21
16.5475
 31
0.0
  0
LINE
  8
0
 62
     0
 10
191.119
 20
16.5475
 30
0.0
 11
191.244
 21
15.9618
 31
0.0
  0
LINE
  8
0
 62
     0
 10
191.244
 20
15.9618
 30
0.0
 11
189.752
 21
15.6435
 31
0.0
  0
LINE
  8
0
 62
     0
 10
189.752
 20
15.6435
 30
0.0
 11
189.079
 21
18.8033
 31
0.0
  0
LINE
  8
0
 62
     0
 10
189.079
 20
18.8033
 30
0.0
 11
187.392
 21
18.4451
 31
0.0
  0
LINE
  8
0
 62
     0
 10
187.392
 20
18.4451
 30
0.0
 11
187.201
 21
19.3449
 31
0.0
  0
LINE
  8
0
 62
     0
 10
187.201
 20
19.3449
 30
0.0
 11
183.974
 21
18.6586
 31
0.0
  0
LINE
  8
0
 62
     0
 10
183.974
 20
18.6586
 30
0.0
 11
184.165
 21
17.7588
 31
0.0
  0
LINE
  8
0
 62
     0
 10
184.165
 20
17.7588
 30
0.0
 11
182.477
 21
17.3991
 31
0.0
  0
LINE
  8
0
 62
     0
 10
182.477
 20
17.3991
 30
0.0
 11
183.148
 21
14.2407
 31
0.0
  0
LINE
  8
0
 62
     0
 10
183.148
 20
14.2407
 30
0.0
 11
182.342
 21
14.0684
 31
0.0
  0
LINE
  8
0
 62
     0
 10
182.342
 20
14.0684
 30
0.0
 11
182.925
 21
11.3302
 31
0.0
  0
LINE
  8
0
 62
     0
 10
182.925
 20
11.3302
 30
0.0
 11
183.731
 21
11.5011
 31
0.0
  0
LINE
  8
0
 62
     0
 10
183.731
 20
11.5011
 30
0.0
 11
185.035
 21
5.36885
 31
0.0
  0
LINE
  8
0
 62
     0
 10
185.035
 20
5.36885
 30
0.0
 11
186.721
 21
5.72714
 31
0.0
  0
LINE
  8
0
 62
     0
 10
186.721
 20
5.72714
 30
0.0
 11
186.925
 21
4.768
 31
0.0
  0
LINE
  8
0
 62
     0
 10
186.925
 20
4.768
 30
0.0
 11
190.154
 21
5.45426
 31
0.0
  0
LINE
  8
0
 62
     0
 10
190.154
 20
5.45426
 30
0.0
 11
189.95
 21
6.41339
 31
0.0
  0
LINE
  8
0
 62
     0
 10
189.95
 20
6.41339
 30
0.0
 11
191.637
 21
6.77305
 31
0.0
  0
LINE
  8
0
 62
     0
 10
191.637
 20
6.77305
 30
0.0
 11
190.708
 21
11.1442
 31
0.0
  0
LINE
  8
0
 62
     0
 10
190.708
 20
11.1442
 30
0.0
 11
192.199
 21
11.4612
 31
0.0
  0
LINE
  8
0
 62
     0
 10
192.199
 20
11.4612
 30
0.0
 11
192.325
 21
10.8741
 31
0.0
  0
LINE
  8
0
 62
     0
 10
192.325
 20
10.8741
 30
0.0
 11
191.542
 21
10.7087
 31
0.0
  0
LINE
  8
0
 62
     0
 10
191.542
 20
10.7087
 30
0.0
 11
192.187
 21
7.67704
 31
0.0
  0
LINE
  8
0
 62
     0
 10
192.187
 20
7.67704
 30
0.0
 11
192.968
 21
7.84243
 31
0.0
  0
LINE
  8
0
 62
     0
 10
192.968
 20
7.84243
 30
0.0
 11
193.176
 21
6.864
 31
0.0
  0
LINE
  8
0
 62
     0
 10
193.176
 20
6.864
 30
0.0
 11
206.871
 21
9.77441
 31
0.0
  0
LINE
  8
0
 62
     0
 10
206.871
 20
9.77441
 30
0.0
 11
206.663
 21
10.7528
 31
0.0
  0
LINE
  8
0
 62
     0
 10
206.663
 20
10.7528
 30
0.0
 11
207.446
 21
10.9196
 31
0.0
  0
LINE
  8
0
 62
     0
 10
207.446
 20
10.9196
 30
0.0
 11
206.801
 21
13.9513
 31
0.0
  0
LINE
  8
0
 62
     0
 10
206.801
 20
13.9513
 30
0.0
 11
206.018
 21
13.7859
 31
0.0
  0
LINE
  8
0
 62
     0
 10
206.018
 20
13.7859
 30
0.0
 11
205.894
 21
14.3729
 31
0.0
  0
LINE
  8
0
 62
     0
 10
205.894
 20
14.3729
 30
0.0
 11
207.385
 21
14.6899
 31
0.0
  0
LINE
  8
0
 62
     0
 10
207.385
 20
14.6899
 30
0.0
 11
208.314
 21
10.316
 31
0.0
  0
LINE
  8
0
 62
     0
 10
208.314
 20
10.316
 30
0.0
 11
210.002
 21
10.6757
 31
0.0
  0
LINE
  8
0
 62
     0
 10
210.002
 20
10.6757
 30
0.0
 11
210.206
 21
9.71793
 31
0.0
  0
LINE
  8
0
 62
     0
 10
210.206
 20
9.71793
 30
0.0
 11
213.433
 21
10.4028
 31
0.0
  0
LINE
  8
0
 62
     0
 10
213.433
 20
10.4028
 30
0.0
 11
213.229
 21
11.3619
 31
0.0
  0
LINE
  8
0
 62
     0
 10
213.229
 20
11.3619
 30
0.0
 11
214.918
 21
11.7202
 31
0.0
  0
LINE
  8
0
 62
     0
 10
214.918
 20
11.7202
 30
0.0
 11
213.614
 21
17.8552
 31
0.0
  0
LINE
  8
0
 62
     0
 10
213.614
 20
17.8552
 30
0.0
 11
214.42
 21
18.0248
 31
0.0
  0
LINE
  8
0
 62
     0
 10
214.42
 20
18.0248
 30
0.0
 11
213.838
 21
20.7629
 31
0.0
  0
LINE
  8
0
 62
     0
 10
213.838
 20
20.7629
 30
0.0
 11
213.031
 21
20.592
 31
0.0
  0
LINE
  8
0
 62
     0
 10
213.031
 20
20.592
 30
0.0
 11
212.36
 21
23.7519
 31
0.0
  0
LINE
  8
0
 62
     0
 10
212.36
 20
23.7519
 30
0.0
 11
210.673
 21
23.3922
 31
0.0
  0
LINE
  8
0
 62
     0
 10
210.673
 20
23.3922
 30
0.0
 11
210.482
 21
24.2921
 31
0.0
  0
LINE
  8
0
 62
     0
 10
210.482
 20
24.2921
 30
0.0
 11
207.253
 21
23.6058
 31
0.0
  0
LINE
  8
0
 62
     0
 10
97.1793
 20
27.2328
 30
0.0
 11
95.4927
 21
27.5924
 31
0.0
  0
LINE
  8
0
 62
     0
 10
95.4927
 20
27.5924
 30
0.0
 11
94.1888
 21
21.4588
 31
0.0
  0
LINE
  8
0
 62
     0
 10
94.1888
 20
21.4588
 30
0.0
 11
93.3813
 21
21.6311
 31
0.0
  0
LINE
  8
0
 62
     0
 10
93.3813
 20
21.6311
 30
0.0
 11
92.8
 21
18.8929
 31
0.0
  0
LINE
  8
0
 62
     0
 10
92.8
 20
18.8929
 30
0.0
 11
93.6061
 21
18.7206
 31
0.0
  0
LINE
  8
0
 62
     0
 10
93.6061
 20
18.7206
 30
0.0
 11
92.9351
 21
15.5608
 31
0.0
  0
LINE
  8
0
 62
     0
 10
92.9351
 20
15.5608
 30
0.0
 11
94.6231
 21
15.2025
 31
0.0
  0
LINE
  8
0
 62
     0
 10
94.6231
 20
15.2025
 30
0.0
 11
94.4301
 21
14.3027
 31
0.0
  0
LINE
  8
0
 62
     0
 10
94.4301
 20
14.3027
 30
0.0
 11
97.6588
 21
13.6164
 31
0.0
  0
LINE
  8
0
 62
     0
 10
97.6588
 20
13.6164
 30
0.0
 11
97.8489
 21
14.5162
 31
0.0
  0
LINE
  8
0
 62
     0
 10
97.8489
 20
14.5162
 30
0.0
 11
99.537
 21
14.158
 31
0.0
  0
LINE
  8
0
 62
     0
 10
99.537
 20
14.158
 30
0.0
 11
100.208
 21
17.3192
 31
0.0
  0
LINE
  8
0
 62
     0
 10
100.208
 20
17.3192
 30
0.0
 11
101.701
 21
17.0009
 31
0.0
  0
LINE
  8
0
 62
     0
 10
101.701
 20
17.0009
 30
0.0
 11
101.575
 21
16.4138
 31
0.0
  0
LINE
  8
0
 62
     0
 10
101.575
 20
16.4138
 30
0.0
 11
100.794
 21
16.5819
 31
0.0
  0
LINE
  8
0
 62
     0
 10
100.794
 20
16.5819
 30
0.0
 11
100.149
 21
13.5475
 31
0.0
  0
LINE
  8
0
 62
     0
 10
100.149
 20
13.5475
 30
0.0
 11
100.931
 21
13.3808
 31
0.0
  0
LINE
  8
0
 62
     0
 10
100.931
 20
13.3808
 30
0.0
 11
100.724
 21
12.4024
 31
0.0
  0
LINE
  8
0
 62
     0
 10
100.724
 20
12.4024
 30
0.0
 11
114.417
 21
9.49194
 31
0.0
  0
LINE
  8
0
 62
     0
 10
114.417
 20
9.49194
 30
0.0
 11
114.625
 21
10.4703
 31
0.0
  0
LINE
  8
0
 62
     0
 10
114.625
 20
10.4703
 30
0.0
 11
115.408
 21
10.3036
 31
0.0
  0
LINE
  8
0
 62
     0
 10
115.408
 20
10.3036
 30
0.0
 11
116.053
 21
13.3367
 31
0.0
  0
LINE
  8
0
 62
     0
 10
116.053
 20
13.3367
 30
0.0
 11
115.27
 21
13.502
 31
0.0
  0
LINE
  8
0
 62
     0
 10
115.27
 20
13.502
 30
0.0
 11
115.394
 21
14.0891
 31
0.0
  0
LINE
  8
0
 62
     0
 10
115.394
 20
14.0891
 30
0.0
 11
116.887
 21
13.7721
 31
0.0
  0
LINE
  8
0
 62
     0
 10
116.887
 20
13.7721
 30
0.0
 11
116.214
 21
10.6123
 31
0.0
  0
LINE
  8
0
 62
     0
 10
116.214
 20
10.6123
 30
0.0
 11
117.901
 21
10.254
 31
0.0
  0
LINE
  8
0
 62
     0
 10
117.901
 20
10.254
 30
0.0
 11
117.711
 21
9.35411
 31
0.0
  0
LINE
  8
0
 62
     0
 10
117.711
 20
9.35411
 30
0.0
 11
120.938
 21
8.66786
 31
0.0
  0
LINE
  8
0
 62
     0
 10
120.938
 20
8.66786
 30
0.0
 11
121.129
 21
9.56772
 31
0.0
  0
LINE
  8
0
 62
     0
 10
121.129
 20
9.56772
 30
0.0
 11
122.818
 21
9.20944
 31
0.0
  0
LINE
  8
0
 62
     0
 10
122.818
 20
9.20944
 30
0.0
 11
123.489
 21
12.3679
 31
0.0
  0
LINE
  8
0
 62
     0
 10
123.489
 20
12.3679
 30
0.0
 11
124.295
 21
12.197
 31
0.0
  0
LINE
  8
0
 62
     0
 10
124.295
 20
12.197
 30
0.0
 11
124.876
 21
14.9365
 31
0.0
  0
LINE
  8
0
 62
     0
 10
124.876
 20
14.9365
 30
0.0
 11
124.07
 21
15.1074
 31
0.0
  0
LINE
  8
0
 62
     0
 10
124.07
 20
15.1074
 30
0.0
 11
125.374
 21
21.2411
 31
0.0
  0
LINE
  8
0
 62
     0
 10
125.374
 20
21.2411
 30
0.0
 11
123.686
 21
21.5994
 31
0.0
  0
LINE
  8
0
 62
     0
 10
123.686
 20
21.5994
 30
0.0
 11
123.888
 21
22.5571
 31
0.0
  0
LINE
  8
0
 62
     0
 10
123.888
 20
22.5571
 30
0.0
 11
120.664
 21
23.2447
 31
0.0
  0
LINE
  8
0
 62
     0
 10
120.664
 20
23.2447
 30
0.0
 11
120.46
 21
22.2856
 31
0.0
  0
LINE
  8
0
 62
     0
 10
120.46
 20
22.2856
 30
0.0
 11
118.772
 21
22.6439
 31
0.0
  0
LINE
  8
0
 62
     0
 10
118.772
 20
22.6439
 30
0.0
 11
117.843
 21
18.2714
 31
0.0
  0
LINE
  8
0
 62
     0
 10
117.843
 20
18.2714
 30
0.0
 11
116.351
 21
18.5884
 31
0.0
  0
LINE
  8
0
 62
     0
 10
116.351
 20
18.5884
 30
0.0
 11
116.476
 21
19.1754
 31
0.0
  0
LINE
  8
0
 62
     0
 10
116.476
 20
19.1754
 30
0.0
 11
117.259
 21
19.01
 31
0.0
  0
LINE
  8
0
 62
     0
 10
117.259
 20
19.01
 30
0.0
 11
117.902
 21
22.0417
 31
0.0
  0
LINE
  8
0
 62
     0
 10
117.902
 20
22.0417
 30
0.0
 11
117.121
 21
22.2085
 31
0.0
  0
LINE
  8
0
 62
     0
 10
117.121
 20
22.2085
 30
0.0
 11
117.329
 21
23.1869
 31
0.0
  0
LINE
  8
0
 62
     0
 10
117.329
 20
23.1869
 30
0.0
 11
103.634
 21
26.0959
 31
0.0
  0
LINE
  8
0
 62
     0
 10
103.634
 20
26.0959
 30
0.0
 11
103.426
 21
25.1189
 31
0.0
  0
LINE
  8
0
 62
     0
 10
103.426
 20
25.1189
 30
0.0
 11
102.643
 21
25.2856
 31
0.0
  0
LINE
  8
0
 62
     0
 10
102.643
 20
25.2856
 30
0.0
 11
102
 21
22.2526
 31
0.0
  0
LINE
  8
0
 62
     0
 10
102
 20
22.2526
 30
0.0
 11
102.781
 21
22.0858
 31
0.0
  0
LINE
  8
0
 62
     0
 10
102.781
 20
22.0858
 30
0.0
 11
102.657
 21
21.4988
 31
0.0
  0
LINE
  8
0
 62
     0
 10
102.657
 20
21.4988
 30
0.0
 11
101.166
 21
21.8157
 31
0.0
  0
LINE
  8
0
 62
     0
 10
101.166
 20
21.8157
 30
0.0
 11
102.095
 21
26.1896
 31
0.0
  0
LINE
  8
0
 62
     0
 10
102.095
 20
26.1896
 30
0.0
 11
100.408
 21
26.5479
 31
0.0
  0
LINE
  8
0
 62
     0
 10
100.408
 20
26.5479
 30
0.0
 11
100.61
 21
27.507
 31
0.0
  0
LINE
  8
0
 62
     0
 10
100.61
 20
27.507
 30
0.0
 11
97.3832
 21
28.1919
 31
0.0
  0
LINE
  8
0
 62
     0
 10
97.3832
 20
28.1919
 30
0.0
 11
97.1793
 21
27.2328
 31
0.0
  0
LINE
  8
0
 62
     0
 10
229.862
 20
28.9746
 30
0.0
 11
230.07
 21
27.9962
 31
0.0
  0
LINE
  8
0
 62
     0
 10
230.07
 20
27.9962
 30
0.0
 11
229.288
 21
27.8309
 31
0.0
  0
LINE
  8
0
 62
     0
 10
229.288
 20
27.8309
 30
0.0
 11
229.932
 21
24.7978
 31
0.0
  0
LINE
  8
0
 62
     0
 10
229.932
 20
24.7978
 30
0.0
 11
230.714
 21
24.9645
 31
0.0
  0
LINE
  8
0
 62
     0
 10
230.714
 20
24.9645
 30
0.0
 11
231.921
 21
19.2912
 31
0.0
  0
LINE
  8
0
 62
     0
 10
231.921
 20
19.2912
 30
0.0
 11
231.138
 21
19.1244
 31
0.0
  0
LINE
  8
0
 62
     0
 10
231.138
 20
19.1244
 30
0.0
 11
231.782
 21
16.0927
 31
0.0
  0
LINE
  8
0
 62
     0
 10
231.782
 20
16.0927
 30
0.0
 11
232.566
 21
16.2595
 31
0.0
  0
LINE
  8
0
 62
     0
 10
232.566
 20
16.2595
 30
0.0
 11
232.774
 21
15.2811
 31
0.0
  0
LINE
  8
0
 62
     0
 10
232.774
 20
15.2811
 30
0.0
 11
246.467
 21
18.1915
 31
0.0
  0
LINE
  8
0
 62
     0
 10
246.467
 20
18.1915
 30
0.0
 11
246.26
 21
19.1699
 31
0.0
  0
LINE
  8
0
 62
     0
 10
246.26
 20
19.1699
 30
0.0
 11
247.041
 21
19.3353
 31
0.0
  0
LINE
  8
0
 62
     0
 10
247.041
 20
19.3353
 30
0.0
 11
246.397
 21
22.3683
 31
0.0
  0
LINE
  8
0
 62
     0
 10
246.397
 20
22.3683
 30
0.0
 11
245.614
 21
22.2016
 31
0.0
  0
LINE
  8
0
 62
     0
 10
245.614
 20
22.2016
 30
0.0
 11
244.409
 21
27.8749
 31
0.0
  0
LINE
  8
0
 62
     0
 10
244.409
 20
27.8749
 30
0.0
 11
245.191
 21
28.0417
 31
0.0
  0
LINE
  8
0
 62
     0
 10
245.191
 20
28.0417
 30
0.0
 11
244.547
 21
31.0734
 31
0.0
  0
LINE
  8
0
 62
     0
 10
244.547
 20
31.0734
 30
0.0
 11
243.764
 21
30.908
 31
0.0
  0
LINE
  8
0
 62
     0
 10
243.764
 20
30.908
 30
0.0
 11
243.556
 21
31.885
 31
0.0
  0
LINE
  8
0
 62
     0
 10
243.556
 20
31.885
 30
0.0
 11
229.862
 21
28.9746
 31
0.0
  0
LINE
  8
0
 62
     0
 10
335.041
 20
29.3067
 30
0.0
 11
335.041
 21
28.3077
 31
0.0
  0
LINE
  8
0
 62
     0
 10
335.041
 20
28.3077
 30
0.0
 11
334.242
 21
28.3077
 31
0.0
  0
LINE
  8
0
 62
     0
 10
334.242
 20
28.3077
 30
0.0
 11
334.242
 21
25.2071
 31
0.0
  0
LINE
  8
0
 62
     0
 10
334.242
 20
25.2071
 30
0.0
 11
335.041
 21
25.2071
 31
0.0
  0
LINE
  8
0
 62
     0
 10
335.041
 20
25.2071
 30
0.0
 11
335.041
 21
19.4069
 31
0.0
  0
LINE
  8
0
 62
     0
 10
335.041
 20
19.4069
 30
0.0
 11
334.242
 21
19.4069
 31
0.0
  0
LINE
  8
0
 62
     0
 10
334.242
 20
19.4069
 30
0.0
 11
334.242
 21
16.3077
 31
0.0
  0
LINE
  8
0
 62
     0
 10
334.242
 20
16.3077
 30
0.0
 11
335.041
 21
16.3077
 31
0.0
  0
LINE
  8
0
 62
     0
 10
335.041
 20
16.3077
 30
0.0
 11
335.041
 21
15.3072
 31
0.0
  0
LINE
  8
0
 62
     0
 10
335.041
 20
15.3072
 30
0.0
 11
349.042
 21
15.3072
 31
0.0
  0
LINE
  8
0
 62
     0
 10
349.042
 20
15.3072
 30
0.0
 11
349.042
 21
16.3077
 31
0.0
  0
LINE
  8
0
 62
     0
 10
349.042
 20
16.3077
 30
0.0
 11
349.841
 21
16.3077
 31
0.0
  0
LINE
  8
0
 62
     0
 10
349.841
 20
16.3077
 30
0.0
 11
349.841
 21
19.4069
 31
0.0
  0
LINE
  8
0
 62
     0
 10
349.841
 20
19.4069
 30
0.0
 11
349.042
 21
19.4069
 31
0.0
  0
LINE
  8
0
 62
     0
 10
349.042
 20
19.4069
 30
0.0
 11
349.042
 21
25.2071
 31
0.0
  0
LINE
  8
0
 62
     0
 10
349.042
 20
25.2071
 30
0.0
 11
349.841
 21
25.2071
 31
0.0
  0
LINE
  8
0
 62
     0
 10
349.841
 20
25.2071
 30
0.0
 11
349.841
 21
28.3077
 31
0.0
  0
LINE
  8
0
 62
     0
 10
349.841
 20
28.3077
 30
0.0
 11
349.042
 21
28.3077
 31
0.0
  0
LINE
  8
0
 62
     0
 10
349.042
 20
28.3077
 30
0.0
 11
349.042
 21
29.3067
 31
0.0
  0
LINE
  8
0
 62
     0
 10
349.042
 20
29.3067
 30
0.0
 11
335.041
 21
29.3067
 31
0.0
  0
LINE
  8
0
 62
     0
 10
315.991
 20
29.3067
 30
0.0
 11
315.991
 21
28.3077
 31
0.0
  0
LINE
  8
0
 62
     0
 10
315.991
 20
28.3077
 30
0.0
 11
315.192
 21
28.3077
 31
0.0
  0
LINE
  8
0
 62
     0
 10
315.192
 20
28.3077
 30
0.0
 11
315.192
 21
25.2071
 31
0.0
  0
LINE
  8
0
 62
     0
 10
315.192
 20
25.2071
 30
0.0
 11
315.991
 21
25.2071
 31
0.0
  0
LINE
  8
0
 62
     0
 10
315.991
 20
25.2071
 30
0.0
 11
315.991
 21
19.4069
 31
0.0
  0
LINE
  8
0
 62
     0
 10
315.991
 20
19.4069
 30
0.0
 11
315.192
 21
19.4069
 31
0.0
  0
LINE
  8
0
 62
     0
 10
315.192
 20
19.4069
 30
0.0
 11
315.192
 21
16.3077
 31
0.0
  0
LINE
  8
0
 62
     0
 10
315.192
 20
16.3077
 30
0.0
 11
315.991
 21
16.3077
 31
0.0
  0
LINE
  8
0
 62
     0
 10
315.991
 20
16.3077
 30
0.0
 11
315.991
 21
15.3072
 31
0.0
  0
LINE
  8
0
 62
     0
 10
315.991
 20
15.3072
 30
0.0
 11
329.992
 21
15.3072
 31
0.0
  0
LINE
  8
0
 62
     0
 10
329.992
 20
15.3072
 30
0.0
 11
329.992
 21
16.3077
 31
0.0
  0
LINE
  8
0
 62
     0
 10
329.992
 20
16.3077
 30
0.0
 11
330.791
 21
16.3077
 31
0.0
  0
LINE
  8
0
 62
     0
 10
330.791
 20
16.3077
 30
0.0
 11
330.791
 21
19.4069
 31
0.0
  0
LINE
  8
0
 62
     0
 10
330.791
 20
19.4069
 30
0.0
 11
329.992
 21
19.4069
 31
0.0
  0
LINE
  8
0
 62
     0
 10
329.992
 20
19.4069
 30
0.0
 11
329.992
 21
25.2071
 31
0.0
  0
LINE
  8
0
 62
     0
 10
329.992
 20
25.2071
 30
0.0
 11
330.791
 21
25.2071
 31
0.0
  0
LINE
  8
0
 62
     0
 10
330.791
 20
25.2071
 30
0.0
 11
330.791
 21
28.3077
 31
0.0
  0
LINE
  8
0
 62
     0
 10
330.791
 20
28.3077
 30
0.0
 11
329.992
 21
28.3077
 31
0.0
  0
LINE
  8
0
 62
     0
 10
329.992
 20
28.3077
 30
0.0
 11
329.992
 21
29.3067
 31
0.0
  0
LINE
  8
0
 62
     0
 10
329.992
 20
29.3067
 30
0.0
 11
315.991
 21
29.3067
 31
0.0
  0
LINE
  8
0
 62
     0
 10
296.941
 20
29.3067
 30
0.0
 11
296.941
 21
28.3077
 31
0.0
  0
LINE
  8
0
 62
     0
 10
296.941
 20
28.3077
 30
0.0
 11
296.142
 21
28.3077
 31
0.0
  0
LINE
  8
0
 62
     0
 10
296.142
 20
28.3077
 30
0.0
 11
296.142
 21
25.2071
 31
0.0
  0
LINE
  8
0
 62
     0
 10
296.142
 20
25.2071
 30
0.0
 11
296.941
 21
25.2071
 31
0.0
  0
LINE
  8
0
 62
     0
 10
296.941
 20
25.2071
 30
0.0
 11
296.941
 21
19.4069
 31
0.0
  0
LINE
  8
0
 62
     0
 10
296.941
 20
19.4069
 30
0.0
 11
296.142
 21
19.4069
 31
0.0
  0
LINE
  8
0
 62
     0
 10
296.142
 20
19.4069
 30
0.0
 11
296.142
 21
16.3077
 31
0.0
  0
LINE
  8
0
 62
     0
 10
296.142
 20
16.3077
 30
0.0
 11
296.941
 21
16.3077
 31
0.0
  0
LINE
  8
0
 62
     0
 10
296.941
 20
16.3077
 30
0.0
 11
296.941
 21
15.3072
 31
0.0
  0
LINE
  8
0
 62
     0
 10
296.941
 20
15.3072
 30
0.0
 11
310.942
 21
15.3072
 31
0.0
  0
LINE
  8
0
 62
     0
 10
310.942
 20
15.3072
 30
0.0
 11
310.942
 21
16.3077
 31
0.0
  0
LINE
  8
0
 62
     0
 10
310.942
 20
16.3077
 30
0.0
 11
311.741
 21
16.3077
 31
0.0
  0
LINE
  8
0
 62
     0
 10
311.741
 20
16.3077
 30
0.0
 11
311.741
 21
19.4069
 31
0.0
  0
LINE
  8
0
 62
     0
 10
311.741
 20
19.4069
 30
0.0
 11
310.942
 21
19.4069
 31
0.0
  0
LINE
  8
0
 62
     0
 10
310.942
 20
19.4069
 30
0.0
 11
310.942
 21
25.2071
 31
0.0
  0
LINE
  8
0
 62
     0
 10
310.942
 20
25.2071
 30
0.0
 11
311.741
 21
25.2071
 31
0.0
  0
LINE
  8
0
 62
     0
 10
311.741
 20
25.2071
 30
0.0
 11
311.741
 21
28.3077
 31
0.0
  0
LINE
  8
0
 62
     0
 10
311.741
 20
28.3077
 30
0.0
 11
310.942
 21
28.3077
 31
0.0
  0
LINE
  8
0
 62
     0
 10
310.942
 20
28.3077
 30
0.0
 11
310.942
 21
29.3067
 31
0.0
  0
LINE
  8
0
 62
     0
 10
310.942
 20
29.3067
 30
0.0
 11
296.941
 21
29.3067
 31
0.0
  0
LINE
  8
0
 62
     0
 10
70.8173
 20
32.0504
 30
0.0
 11
70.0345
 21
32.2158
 31
0.0
  0
LINE
  8
0
 62
     0
 10
70.0345
 20
32.2158
 30
0.0
 11
69.391
 21
29.1841
 31
0.0
  0
LINE
  8
0
 62
     0
 10
69.391
 20
29.1841
 30
0.0
 11
70.1724
 21
29.0173
 31
0.0
  0
LINE
  8
0
 62
     0
 10
70.1724
 20
29.0173
 30
0.0
 11
68.9666
 21
23.344
 31
0.0
  0
LINE
  8
0
 62
     0
 10
68.9666
 20
23.344
 30
0.0
 11
68.1838
 21
23.5107
 31
0.0
  0
LINE
  8
0
 62
     0
 10
68.1838
 20
23.5107
 30
0.0
 11
67.539
 21
20.479
 31
0.0
  0
LINE
  8
0
 62
     0
 10
67.539
 20
20.479
 30
0.0
 11
68.3232
 21
20.3123
 31
0.0
  0
LINE
  8
0
 62
     0
 10
68.3232
 20
20.3123
 30
0.0
 11
68.115
 21
19.3339
 31
0.0
  0
LINE
  8
0
 62
     0
 10
68.115
 20
19.3339
 30
0.0
 11
81.8085
 21
16.4235
 31
0.0
  0
LINE
  8
0
 62
     0
 10
81.8085
 20
16.4235
 30
0.0
 11
82.0166
 21
17.4019
 31
0.0
  0
LINE
  8
0
 62
     0
 10
82.0166
 20
17.4019
 30
0.0
 11
82.798
 21
17.2365
 31
0.0
  0
LINE
  8
0
 62
     0
 10
82.798
 20
17.2365
 30
0.0
 11
83.4429
 21
20.2668
 31
0.0
  0
LINE
  8
0
 62
     0
 10
83.4429
 20
20.2668
 30
0.0
 11
82.6604
 21
20.4336
 31
0.0
  0
LINE
  8
0
 62
     0
 10
82.6604
 20
20.4336
 30
0.0
 11
83.8659
 21
26.1069
 31
0.0
  0
LINE
  8
0
 62
     0
 10
83.8659
 20
26.1069
 30
0.0
 11
84.6501
 21
25.9402
 31
0.0
  0
LINE
  8
0
 62
     0
 10
84.6501
 20
25.9402
 30
0.0
 11
85.2936
 21
28.9719
 31
0.0
  0
LINE
  8
0
 62
     0
 10
85.2936
 20
28.9719
 30
0.0
 11
84.5111
 21
29.14
 31
0.0
  0
LINE
  8
0
 62
     0
 10
84.5111
 20
29.14
 30
0.0
 11
84.7189
 21
30.117
 31
0.0
  0
LINE
  8
0
 62
     0
 10
84.7189
 20
30.117
 30
0.0
 11
71.0255
 21
33.0288
 31
0.0
  0
LINE
  8
0
 62
     0
 10
71.0255
 20
33.0288
 30
0.0
 11
70.8173
 21
32.0504
 31
0.0
  0
LINE
  8
0
 62
     0
 10
31.1947
 20
34.0692
 30
0.0
 11
31.1947
 21
33.0688
 31
0.0
  0
LINE
  8
0
 62
     0
 10
31.1947
 20
33.0688
 30
0.0
 11
30.394
 21
33.0688
 31
0.0
  0
LINE
  8
0
 62
     0
 10
30.394
 20
33.0688
 30
0.0
 11
30.394
 21
29.9696
 31
0.0
  0
LINE
  8
0
 62
     0
 10
30.394
 20
29.9696
 30
0.0
 11
31.1947
 21
29.9696
 31
0.0
  0
LINE
  8
0
 62
     0
 10
31.1947
 20
29.9696
 30
0.0
 11
31.1947
 21
24.1694
 31
0.0
  0
LINE
  8
0
 62
     0
 10
31.1947
 20
24.1694
 30
0.0
 11
30.394
 21
24.1694
 31
0.0
  0
LINE
  8
0
 62
     0
 10
30.394
 20
24.1694
 30
0.0
 11
30.394
 21
21.0688
 31
0.0
  0
LINE
  8
0
 62
     0
 10
30.394
 20
21.0688
 30
0.0
 11
31.1947
 21
21.0688
 31
0.0
  0
LINE
  8
0
 62
     0
 10
31.1947
 20
21.0688
 30
0.0
 11
31.1947
 21
20.0697
 31
0.0
  0
LINE
  8
0
 62
     0
 10
31.1947
 20
20.0697
 30
0.0
 11
45.194
 21
20.0697
 31
0.0
  0
LINE
  8
0
 62
     0
 10
45.194
 20
20.0697
 30
0.0
 11
45.194
 21
21.0688
 31
0.0
  0
LINE
  8
0
 62
     0
 10
45.194
 20
21.0688
 30
0.0
 11
45.9948
 21
21.0688
 31
0.0
  0
LINE
  8
0
 62
     0
 10
45.9948
 20
21.0688
 30
0.0
 11
45.9948
 21
24.1694
 31
0.0
  0
LINE
  8
0
 62
     0
 10
45.9948
 20
24.1694
 30
0.0
 11
45.194
 21
24.1694
 31
0.0
  0
LINE
  8
0
 62
     0
 10
45.194
 20
24.1694
 30
0.0
 11
45.194
 21
29.9696
 31
0.0
  0
LINE
  8
0
 62
     0
 10
45.194
 20
29.9696
 30
0.0
 11
45.9948
 21
29.9696
 31
0.0
  0
LINE
  8
0
 62
     0
 10
45.9948
 20
29.9696
 30
0.0
 11
45.9948
 21
33.0688
 31
0.0
  0
LINE
  8
0
 62
     0
 10
45.9948
 20
33.0688
 30
0.0
 11
45.194
 21
33.0688
 31
0.0
  0
LINE
  8
0
 62
     0
 10
45.194
 20
33.0688
 30
0.0
 11
45.194
 21
34.0692
 31
0.0
  0
LINE
  8
0
 62
     0
 10
45.194
 20
34.0692
 30
0.0
 11
31.1947
 21
34.0692
 31
0.0
  0
LINE
  8
0
 62
     0
 10
7.38216
 20
34.0692
 30
0.0
 11
7.38216
 21
33.0688
 31
0.0
  0
LINE
  8
0
 62
     0
 10
7.38216
 20
33.0688
 30
0.0
 11
6.58153
 21
33.0688
 31
0.0
  0
LINE
  8
0
 62
     0
 10
6.58153
 20
33.0688
 30
0.0
 11
6.58153
 21
29.9696
 31
0.0
  0
LINE
  8
0
 62
     0
 10
6.58153
 20
29.9696
 30
0.0
 11
7.38216
 21
29.9696
 31
0.0
  0
LINE
  8
0
 62
     0
 10
7.38216
 20
29.9696
 30
0.0
 11
7.38216
 21
24.1694
 31
0.0
  0
LINE
  8
0
 62
     0
 10
7.38216
 20
24.1694
 30
0.0
 11
6.58153
 21
24.1694
 31
0.0
  0
LINE
  8
0
 62
     0
 10
6.58153
 20
24.1694
 30
0.0
 11
6.58153
 21
21.0688
 31
0.0
  0
LINE
  8
0
 62
     0
 10
6.58153
 20
21.0688
 30
0.0
 11
7.38216
 21
21.0688
 31
0.0
  0
LINE
  8
0
 62
     0
 10
7.38216
 20
21.0688
 30
0.0
 11
7.38216
 21
20.0697
 31
0.0
  0
LINE
  8
0
 62
     0
 10
7.38216
 20
20.0697
 30
0.0
 11
21.3817
 21
20.0697
 31
0.0
  0
LINE
  8
0
 62
     0
 10
21.3817
 20
20.0697
 30
0.0
 11
21.3817
 21
21.0688
 31
0.0
  0
LINE
  8
0
 62
     0
 10
21.3817
 20
21.0688
 30
0.0
 11
22.1809
 21
21.0688
 31
0.0
  0
LINE
  8
0
 62
     0
 10
22.1809
 20
21.0688
 30
0.0
 11
22.1809
 21
24.1694
 31
0.0
  0
LINE
  8
0
 62
     0
 10
22.1809
 20
24.1694
 30
0.0
 11
21.3817
 21
24.1694
 31
0.0
  0
LINE
  8
0
 62
     0
 10
21.3817
 20
24.1694
 30
0.0
 11
21.3817
 21
29.9696
 31
0.0
  0
LINE
  8
0
 62
     0
 10
21.3817
 20
29.9696
 30
0.0
 11
22.1809
 21
29.9696
 31
0.0
  0
LINE
  8
0
 62
     0
 10
22.1809
 20
29.9696
 30
0.0
 11
22.1809
 21
33.0688
 31
0.0
  0
LINE
  8
0
 62
     0
 10
22.1809
 20
33.0688
 30
0.0
 11
21.3817
 21
33.0688
 31
0.0
  0
LINE
  8
0
 62
     0
 10
21.3817
 20
33.0688
 30
0.0
 11
21.3817
 21
34.0692
 31
0.0
  0
LINE
  8
0
 62
     0
 10
21.3817
 20
34.0692
 30
0.0
 11
7.38216
 21
34.0692
 31
0.0
  0
LINE
  8
0
 62
     0
 10
179.317
 20
37.7059
 30
0.0
 11
179.525
 21
36.7288
 31
0.0
  0
LINE
  8
0
 62
     0
 10
179.525
 20
36.7288
 30
0.0
 11
178.743
 21
36.5622
 31
0.0
  0
LINE
  8
0
 62
     0
 10
178.743
 20
36.5622
 30
0.0
 11
179.388
 21
33.5291
 31
0.0
  0
LINE
  8
0
 62
     0
 10
179.388
 20
33.5291
 30
0.0
 11
180.169
 21
33.6958
 31
0.0
  0
LINE
  8
0
 62
     0
 10
180.169
 20
33.6958
 30
0.0
 11
181.376
 21
28.0238
 31
0.0
  0
LINE
  8
0
 62
     0
 10
181.376
 20
28.0238
 30
0.0
 11
180.593
 21
27.857
 31
0.0
  0
LINE
  8
0
 62
     0
 10
180.593
 20
27.857
 30
0.0
 11
181.237
 21
24.824
 31
0.0
  0
LINE
  8
0
 62
     0
 10
181.237
 20
24.824
 30
0.0
 11
182.021
 21
24.9907
 31
0.0
  0
LINE
  8
0
 62
     0
 10
182.021
 20
24.9907
 30
0.0
 11
182.229
 21
24.0123
 31
0.0
  0
LINE
  8
0
 62
     0
 10
182.229
 20
24.0123
 30
0.0
 11
195.923
 21
26.9227
 31
0.0
  0
LINE
  8
0
 62
     0
 10
195.923
 20
26.9227
 30
0.0
 11
195.714
 21
27.9011
 31
0.0
  0
LINE
  8
0
 62
     0
 10
195.714
 20
27.9011
 30
0.0
 11
196.496
 21
28.0679
 31
0.0
  0
LINE
  8
0
 62
     0
 10
196.496
 20
28.0679
 30
0.0
 11
195.852
 21
31.101
 31
0.0
  0
LINE
  8
0
 62
     0
 10
195.852
 20
31.101
 30
0.0
 11
195.07
 21
30.9328
 31
0.0
  0
LINE
  8
0
 62
     0
 10
195.07
 20
30.9328
 30
0.0
 11
193.864
 21
36.6077
 31
0.0
  0
LINE
  8
0
 62
     0
 10
193.864
 20
36.6077
 30
0.0
 11
194.647
 21
36.7728
 31
0.0
  0
LINE
  8
0
 62
     0
 10
194.647
 20
36.7728
 30
0.0
 11
194.002
 21
39.806
 31
0.0
  0
LINE
  8
0
 62
     0
 10
194.002
 20
39.806
 30
0.0
 11
193.219
 21
39.6392
 31
0.0
  0
LINE
  8
0
 62
     0
 10
193.219
 20
39.6392
 30
0.0
 11
193.012
 21
40.6178
 31
0.0
  0
LINE
  8
0
 62
     0
 10
193.012
 20
40.6178
 30
0.0
 11
179.317
 21
37.7059
 31
0.0
  0
LINE
  8
0
 62
     0
 10
126.019
 20
39.7909
 30
0.0
 11
125.239
 21
39.9591
 31
0.0
  0
LINE
  8
0
 62
     0
 10
125.239
 20
39.9591
 30
0.0
 11
124.594
 21
36.926
 31
0.0
  0
LINE
  8
0
 62
     0
 10
124.594
 20
36.926
 30
0.0
 11
125.377
 21
36.7591
 31
0.0
  0
LINE
  8
0
 62
     0
 10
125.377
 20
36.7591
 30
0.0
 11
124.171
 21
31.0858
 31
0.0
  0
LINE
  8
0
 62
     0
 10
124.171
 20
31.0858
 30
0.0
 11
123.388
 21
31.2525
 31
0.0
  0
LINE
  8
0
 62
     0
 10
123.388
 20
31.2525
 30
0.0
 11
122.743
 21
28.2208
 31
0.0
  0
LINE
  8
0
 62
     0
 10
122.743
 20
28.2208
 30
0.0
 11
123.526
 21
28.0541
 31
0.0
  0
LINE
  8
0
 62
     0
 10
123.526
 20
28.0541
 30
0.0
 11
123.318
 21
27.0757
 31
0.0
  0
LINE
  8
0
 62
     0
 10
123.318
 20
27.0757
 30
0.0
 11
137.011
 21
24.1653
 31
0.0
  0
LINE
  8
0
 62
     0
 10
137.011
 20
24.1653
 30
0.0
 11
137.22
 21
25.1437
 31
0.0
  0
LINE
  8
0
 62
     0
 10
137.22
 20
25.1437
 30
0.0
 11
138.002
 21
24.9769
 31
0.0
  0
LINE
  8
0
 62
     0
 10
138.002
 20
24.9769
 30
0.0
 11
138.646
 21
28.01
 31
0.0
  0
LINE
  8
0
 62
     0
 10
138.646
 20
28.01
 30
0.0
 11
137.864
 21
28.1754
 31
0.0
  0
LINE
  8
0
 62
     0
 10
137.864
 20
28.1754
 30
0.0
 11
139.07
 21
33.8487
 31
0.0
  0
LINE
  8
0
 62
     0
 10
139.07
 20
33.8487
 30
0.0
 11
139.853
 21
33.682
 31
0.0
  0
LINE
  8
0
 62
     0
 10
139.853
 20
33.682
 30
0.0
 11
140.498
 21
36.715
 31
0.0
  0
LINE
  8
0
 62
     0
 10
140.498
 20
36.715
 30
0.0
 11
139.715
 21
36.8819
 31
0.0
  0
LINE
  8
0
 62
     0
 10
139.715
 20
36.8819
 30
0.0
 11
139.922
 21
37.8587
 31
0.0
  0
LINE
  8
0
 62
     0
 10
139.922
 20
37.8587
 30
0.0
 11
126.228
 21
40.7691
 31
0.0
  0
LINE
  8
0
 62
     0
 10
126.228
 20
40.7691
 30
0.0
 11
126.019
 21
39.7909
 31
0.0
  0
LINE
  8
0
 62
     0
 10
197.951
 20
41.6676
 30
0.0
 11
198.159
 21
40.6894
 31
0.0
  0
LINE
  8
0
 62
     0
 10
198.159
 20
40.6894
 30
0.0
 11
197.376
 21
40.5225
 31
0.0
  0
LINE
  8
0
 62
     0
 10
197.376
 20
40.5225
 30
0.0
 11
198.021
 21
37.4908
 31
0.0
  0
LINE
  8
0
 62
     0
 10
198.021
 20
37.4908
 30
0.0
 11
198.804
 21
37.6576
 31
0.0
  0
LINE
  8
0
 62
     0
 10
198.804
 20
37.6576
 30
0.0
 11
200.01
 21
31.9829
 31
0.0
  0
LINE
  8
0
 62
     0
 10
200.01
 20
31.9829
 30
0.0
 11
199.227
 21
31.8175
 31
0.0
  0
LINE
  8
0
 62
     0
 10
199.227
 20
31.8175
 30
0.0
 11
199.872
 21
28.7859
 31
0.0
  0
LINE
  8
0
 62
     0
 10
199.872
 20
28.7859
 30
0.0
 11
200.655
 21
28.9512
 31
0.0
  0
LINE
  8
0
 62
     0
 10
200.655
 20
28.9512
 30
0.0
 11
200.861
 21
27.9728
 31
0.0
  0
LINE
  8
0
 62
     0
 10
200.861
 20
27.9728
 30
0.0
 11
214.556
 21
30.8846
 31
0.0
  0
LINE
  8
0
 62
     0
 10
214.556
 20
30.8846
 30
0.0
 11
214.348
 21
31.863
 31
0.0
  0
LINE
  8
0
 62
     0
 10
214.348
 20
31.863
 30
0.0
 11
215.131
 21
32.0284
 31
0.0
  0
LINE
  8
0
 62
     0
 10
215.131
 20
32.0284
 30
0.0
 11
214.486
 21
35.06
 31
0.0
  0
LINE
  8
0
 62
     0
 10
214.486
 20
35.06
 30
0.0
 11
213.703
 21
34.8947
 31
0.0
  0
LINE
  8
0
 62
     0
 10
213.703
 20
34.8947
 30
0.0
 11
212.497
 21
40.568
 31
0.0
  0
LINE
  8
0
 62
     0
 10
212.497
 20
40.568
 30
0.0
 11
213.28
 21
40.7349
 31
0.0
  0
LINE
  8
0
 62
     0
 10
213.28
 20
40.7349
 30
0.0
 11
212.635
 21
43.7667
 31
0.0
  0
LINE
  8
0
 62
     0
 10
212.635
 20
43.7667
 30
0.0
 11
211.854
 21
43.5998
 31
0.0
  0
LINE
  8
0
 62
     0
 10
211.854
 20
43.5998
 30
0.0
 11
211.646
 21
44.5781
 31
0.0
  0
LINE
  8
0
 62
     0
 10
211.646
 20
44.5781
 30
0.0
 11
197.951
 21
41.6676
 31
0.0
  0
LINE
  8
0
 62
     0
 10
107.386
 20
43.7526
 30
0.0
 11
106.605
 21
43.918
 31
0.0
  0
LINE
  8
0
 62
     0
 10
106.605
 20
43.918
 30
0.0
 11
105.96
 21
40.8862
 31
0.0
  0
LINE
  8
0
 62
     0
 10
105.96
 20
40.8862
 30
0.0
 11
106.743
 21
40.7211
 31
0.0
  0
LINE
  8
0
 62
     0
 10
106.743
 20
40.7211
 30
0.0
 11
105.537
 21
35.0463
 31
0.0
  0
LINE
  8
0
 62
     0
 10
105.537
 20
35.0463
 30
0.0
 11
104.753
 21
35.213
 31
0.0
  0
LINE
  8
0
 62
     0
 10
104.753
 20
35.213
 30
0.0
 11
104.109
 21
32.1813
 31
0.0
  0
LINE
  8
0
 62
     0
 10
104.109
 20
32.1813
 30
0.0
 11
104.892
 21
32.0146
 31
0.0
  0
LINE
  8
0
 62
     0
 10
104.892
 20
32.0146
 30
0.0
 11
104.684
 21
31.0362
 31
0.0
  0
LINE
  8
0
 62
     0
 10
104.684
 20
31.0362
 30
0.0
 11
118.379
 21
28.1258
 31
0.0
  0
LINE
  8
0
 62
     0
 10
118.379
 20
28.1258
 30
0.0
 11
118.586
 21
29.1028
 31
0.0
  0
LINE
  8
0
 62
     0
 10
118.586
 20
29.1028
 30
0.0
 11
119.368
 21
28.9374
 31
0.0
  0
LINE
  8
0
 62
     0
 10
119.368
 20
28.9374
 30
0.0
 11
120.013
 21
31.9691
 31
0.0
  0
LINE
  8
0
 62
     0
 10
120.013
 20
31.9691
 30
0.0
 11
119.231
 21
32.1359
 31
0.0
  0
LINE
  8
0
 62
     0
 10
119.231
 20
32.1359
 30
0.0
 11
120.437
 21
37.8093
 31
0.0
  0
LINE
  8
0
 62
     0
 10
120.437
 20
37.8093
 30
0.0
 11
121.219
 21
37.6439
 31
0.0
  0
LINE
  8
0
 62
     0
 10
121.219
 20
37.6439
 30
0.0
 11
121.864
 21
40.6756
 31
0.0
  0
LINE
  8
0
 62
     0
 10
121.864
 20
40.6756
 30
0.0
 11
121.08
 21
40.8411
 31
0.0
  0
LINE
  8
0
 62
     0
 10
121.08
 20
40.8411
 30
0.0
 11
121.288
 21
41.8193
 31
0.0
  0
LINE
  8
0
 62
     0
 10
121.288
 20
41.8193
 30
0.0
 11
107.594
 21
44.7298
 31
0.0
  0
LINE
  8
0
 62
     0
 10
107.594
 20
44.7298
 30
0.0
 11
107.386
 21
43.7526
 31
0.0
  0
LINE
  8
0
 62
     0
 10
216.585
 20
45.6283
 30
0.0
 11
216.793
 21
44.6497
 31
0.0
  0
LINE
  8
0
 62
     0
 10
216.793
 20
44.6497
 30
0.0
 11
216.01
 21
44.4832
 31
0.0
  0
LINE
  8
0
 62
     0
 10
216.01
 20
44.4832
 30
0.0
 11
216.655
 21
41.4514
 31
0.0
  0
LINE
  8
0
 62
     0
 10
216.655
 20
41.4514
 30
0.0
 11
217.438
 21
41.6168
 31
0.0
  0
LINE
  8
0
 62
     0
 10
217.438
 20
41.6168
 30
0.0
 11
218.644
 21
35.9449
 31
0.0
  0
LINE
  8
0
 62
     0
 10
218.644
 20
35.9449
 30
0.0
 11
217.861
 21
35.778
 31
0.0
  0
LINE
  8
0
 62
     0
 10
217.861
 20
35.778
 30
0.0
 11
218.506
 21
32.7449
 31
0.0
  0
LINE
  8
0
 62
     0
 10
218.506
 20
32.7449
 30
0.0
 11
219.287
 21
32.9131
 31
0.0
  0
LINE
  8
0
 62
     0
 10
219.287
 20
32.9131
 30
0.0
 11
219.495
 21
31.9346
 31
0.0
  0
LINE
  8
0
 62
     0
 10
219.495
 20
31.9346
 30
0.0
 11
233.189
 21
34.8451
 31
0.0
  0
LINE
  8
0
 62
     0
 10
233.189
 20
34.8451
 30
0.0
 11
232.982
 21
35.8221
 31
0.0
  0
LINE
  8
0
 62
     0
 10
232.982
 20
35.8221
 30
0.0
 11
233.765
 21
35.989
 31
0.0
  0
LINE
  8
0
 62
     0
 10
233.765
 20
35.989
 30
0.0
 11
233.12
 21
39.0218
 31
0.0
  0
LINE
  8
0
 62
     0
 10
233.12
 20
39.0218
 30
0.0
 11
232.337
 21
38.8553
 31
0.0
  0
LINE
  8
0
 62
     0
 10
232.337
 20
38.8553
 30
0.0
 11
231.132
 21
44.5287
 31
0.0
  0
LINE
  8
0
 62
     0
 10
231.132
 20
44.5287
 30
0.0
 11
231.913
 21
44.6938
 31
0.0
  0
LINE
  8
0
 62
     0
 10
231.913
 20
44.6938
 30
0.0
 11
231.269
 21
47.727
 31
0.0
  0
LINE
  8
0
 62
     0
 10
231.269
 20
47.727
 30
0.0
 11
230.487
 21
47.5601
 31
0.0
  0
LINE
  8
0
 62
     0
 10
230.487
 20
47.5601
 30
0.0
 11
230.279
 21
48.5387
 31
0.0
  0
LINE
  8
0
 62
     0
 10
230.279
 20
48.5387
 30
0.0
 11
216.585
 21
45.6283
 31
0.0
  0
LINE
  8
0
 62
     0
 10
88.7539
 20
47.7132
 30
0.0
 11
87.9697
 21
47.8801
 31
0.0
  0
LINE
  8
0
 62
     0
 10
87.9697
 20
47.8801
 30
0.0
 11
87.3263
 21
44.8469
 31
0.0
  0
LINE
  8
0
 62
     0
 10
87.3263
 20
44.8469
 30
0.0
 11
88.1091
 21
44.68
 31
0.0
  0
LINE
  8
0
 62
     0
 10
88.1091
 20
44.68
 30
0.0
 11
86.9019
 21
39.0066
 31
0.0
  0
LINE
  8
0
 62
     0
 10
86.9019
 20
39.0066
 30
0.0
 11
86.1205
 21
39.1749
 31
0.0
  0
LINE
  8
0
 62
     0
 10
86.1205
 20
39.1749
 30
0.0
 11
85.4756
 21
36.1417
 31
0.0
  0
LINE
  8
0
 62
     0
 10
85.4756
 20
36.1417
 30
0.0
 11
86.2584
 21
35.9752
 31
0.0
  0
LINE
  8
0
 62
     0
 10
86.2584
 20
35.9752
 30
0.0
 11
86.0503
 21
34.998
 31
0.0
  0
LINE
  8
0
 62
     0
 10
86.0503
 20
34.998
 30
0.0
 11
99.7451
 21
32.0862
 31
0.0
  0
LINE
  8
0
 62
     0
 10
99.7451
 20
32.0862
 30
0.0
 11
99.9518
 21
33.0647
 31
0.0
  0
LINE
  8
0
 62
     0
 10
99.9518
 20
33.0647
 30
0.0
 11
100.735
 21
32.8979
 31
0.0
  0
LINE
  8
0
 62
     0
 10
100.735
 20
32.8979
 30
0.0
 11
101.38
 21
35.9311
 31
0.0
  0
LINE
  8
0
 62
     0
 10
101.38
 20
35.9311
 30
0.0
 11
100.597
 21
36.0962
 31
0.0
  0
LINE
  8
0
 62
     0
 10
100.597
 20
36.0962
 30
0.0
 11
101.802
 21
41.7696
 31
0.0
  0
LINE
  8
0
 62
     0
 10
101.802
 20
41.7696
 30
0.0
 11
102.585
 21
41.6031
 31
0.0
  0
LINE
  8
0
 62
     0
 10
102.585
 20
41.6031
 30
0.0
 11
103.229
 21
44.6359
 31
0.0
  0
LINE
  8
0
 62
     0
 10
103.229
 20
44.6359
 30
0.0
 11
102.447
 21
44.8028
 31
0.0
  0
LINE
  8
0
 62
     0
 10
102.447
 20
44.8028
 30
0.0
 11
102.656
 21
45.78
 31
0.0
  0
LINE
  8
0
 62
     0
 10
102.656
 20
45.78
 30
0.0
 11
88.9621
 21
48.6914
 31
0.0
  0
LINE
  8
0
 62
     0
 10
88.9621
 20
48.6914
 30
0.0
 11
88.7539
 21
47.7132
 31
0.0
  0
LINE
  8
0
 62
     0
 10
315.991
 20
48.3567
 30
0.0
 11
315.991
 21
47.3576
 31
0.0
  0
LINE
  8
0
 62
     0
 10
315.991
 20
47.3576
 30
0.0
 11
315.192
 21
47.3576
 31
0.0
  0
LINE
  8
0
 62
     0
 10
315.192
 20
47.3576
 30
0.0
 11
315.192
 21
44.257
 31
0.0
  0
LINE
  8
0
 62
     0
 10
315.192
 20
44.257
 30
0.0
 11
315.991
 21
44.257
 31
0.0
  0
LINE
  8
0
 62
     0
 10
315.991
 20
44.257
 30
0.0
 11
315.991
 21
38.457
 31
0.0
  0
LINE
  8
0
 62
     0
 10
315.991
 20
38.457
 30
0.0
 11
315.192
 21
38.457
 31
0.0
  0
LINE
  8
0
 62
     0
 10
315.192
 20
38.457
 30
0.0
 11
315.192
 21
35.3579
 31
0.0
  0
LINE
  8
0
 62
     0
 10
315.192
 20
35.3579
 30
0.0
 11
315.991
 21
35.3579
 31
0.0
  0
LINE
  8
0
 62
     0
 10
315.991
 20
35.3579
 30
0.0
 11
315.991
 21
34.3572
 31
0.0
  0
LINE
  8
0
 62
     0
 10
315.991
 20
34.3572
 30
0.0
 11
329.992
 21
34.3572
 31
0.0
  0
LINE
  8
0
 62
     0
 10
329.992
 20
34.3572
 30
0.0
 11
329.992
 21
35.3579
 31
0.0
  0
LINE
  8
0
 62
     0
 10
329.992
 20
35.3579
 30
0.0
 11
330.791
 21
35.3579
 31
0.0
  0
LINE
  8
0
 62
     0
 10
330.791
 20
35.3579
 30
0.0
 11
330.791
 21
38.457
 31
0.0
  0
LINE
  8
0
 62
     0
 10
330.791
 20
38.457
 30
0.0
 11
329.992
 21
38.457
 31
0.0
  0
LINE
  8
0
 62
     0
 10
329.992
 20
38.457
 30
0.0
 11
329.992
 21
44.257
 31
0.0
  0
LINE
  8
0
 62
     0
 10
329.992
 20
44.257
 30
0.0
 11
330.791
 21
44.257
 31
0.0
  0
LINE
  8
0
 62
     0
 10
330.791
 20
44.257
 30
0.0
 11
330.791
 21
47.3576
 31
0.0
  0
LINE
  8
0
 62
     0
 10
330.791
 20
47.3576
 30
0.0
 11
329.992
 21
47.3576
 31
0.0
  0
LINE
  8
0
 62
     0
 10
329.992
 20
47.3576
 30
0.0
 11
329.992
 21
48.3567
 31
0.0
  0
LINE
  8
0
 62
     0
 10
329.992
 20
48.3567
 30
0.0
 11
315.991
 21
48.3567
 31
0.0
  0
LINE
  8
0
 62
     0
 10
235.219
 20
49.5886
 30
0.0
 11
235.427
 21
48.6103
 31
0.0
  0
LINE
  8
0
 62
     0
 10
235.427
 20
48.6103
 30
0.0
 11
234.644
 21
48.4449
 31
0.0
  0
LINE
  8
0
 62
     0
 10
234.644
 20
48.4449
 30
0.0
 11
235.289
 21
45.412
 31
0.0
  0
LINE
  8
0
 62
     0
 10
235.289
 20
45.412
 30
0.0
 11
236.072
 21
45.5785
 31
0.0
  0
LINE
  8
0
 62
     0
 10
236.072
 20
45.5785
 30
0.0
 11
237.276
 21
39.9052
 31
0.0
  0
LINE
  8
0
 62
     0
 10
237.276
 20
39.9052
 30
0.0
 11
236.495
 21
39.7387
 31
0.0
  0
LINE
  8
0
 62
     0
 10
236.495
 20
39.7387
 30
0.0
 11
237.138
 21
36.7069
 31
0.0
  0
LINE
  8
0
 62
     0
 10
237.138
 20
36.7069
 30
0.0
 11
237.921
 21
36.8723
 31
0.0
  0
LINE
  8
0
 62
     0
 10
237.921
 20
36.8723
 30
0.0
 11
238.129
 21
35.8937
 31
0.0
  0
LINE
  8
0
 62
     0
 10
238.129
 20
35.8937
 30
0.0
 11
251.823
 21
38.8056
 31
0.0
  0
LINE
  8
0
 62
     0
 10
251.823
 20
38.8056
 30
0.0
 11
251.616
 21
39.7838
 31
0.0
  0
LINE
  8
0
 62
     0
 10
251.616
 20
39.7838
 30
0.0
 11
252.397
 21
39.9507
 31
0.0
  0
LINE
  8
0
 62
     0
 10
252.397
 20
39.9507
 30
0.0
 11
251.754
 21
42.9824
 31
0.0
  0
LINE
  8
0
 62
     0
 10
251.754
 20
42.9824
 30
0.0
 11
250.971
 21
42.8156
 31
0.0
  0
LINE
  8
0
 62
     0
 10
250.971
 20
42.8156
 30
0.0
 11
249.765
 21
48.489
 31
0.0
  0
LINE
  8
0
 62
     0
 10
249.765
 20
48.489
 30
0.0
 11
250.548
 21
48.6558
 31
0.0
  0
LINE
  8
0
 62
     0
 10
250.548
 20
48.6558
 30
0.0
 11
249.903
 21
51.6876
 31
0.0
  0
LINE
  8
0
 62
     0
 10
249.903
 20
51.6876
 30
0.0
 11
249.12
 21
51.5207
 31
0.0
  0
LINE
  8
0
 62
     0
 10
249.12
 20
51.5207
 30
0.0
 11
248.912
 21
52.499
 31
0.0
  0
LINE
  8
0
 62
     0
 10
248.912
 20
52.499
 30
0.0
 11
235.219
 21
49.5886
 31
0.0
  0
LINE
  8
0
 62
     0
 10
70.1202
 20
51.6738
 30
0.0
 11
69.336
 21
51.8403
 31
0.0
  0
LINE
  8
0
 62
     0
 10
69.336
 20
51.8403
 30
0.0
 11
68.6925
 21
48.8086
 31
0.0
  0
LINE
  8
0
 62
     0
 10
68.6925
 20
48.8086
 30
0.0
 11
69.4754
 21
48.6421
 31
0.0
  0
LINE
  8
0
 62
     0
 10
69.4754
 20
48.6421
 30
0.0
 11
68.2696
 21
42.9687
 31
0.0
  0
LINE
  8
0
 62
     0
 10
68.2696
 20
42.9687
 30
0.0
 11
67.4867
 21
43.1341
 31
0.0
  0
LINE
  8
0
 62
     0
 10
67.4867
 20
43.1341
 30
0.0
 11
66.8419
 21
40.1024
 31
0.0
  0
LINE
  8
0
 62
     0
 10
66.8419
 20
40.1024
 30
0.0
 11
67.6243
 21
39.9369
 31
0.0
  0
LINE
  8
0
 62
     0
 10
67.6243
 20
39.9369
 30
0.0
 11
67.4165
 21
38.9587
 31
0.0
  0
LINE
  8
0
 62
     0
 10
67.4165
 20
38.9587
 30
0.0
 11
81.11
 21
36.0468
 31
0.0
  0
LINE
  8
0
 62
     0
 10
81.11
 20
36.0468
 30
0.0
 11
81.3181
 21
37.0251
 31
0.0
  0
LINE
  8
0
 62
     0
 10
81.3181
 20
37.0251
 30
0.0
 11
82.102
 21
36.8596
 31
0.0
  0
LINE
  8
0
 62
     0
 10
82.102
 20
36.8596
 30
0.0
 11
82.7458
 21
39.8914
 31
0.0
  0
LINE
  8
0
 62
     0
 10
82.7458
 20
39.8914
 30
0.0
 11
81.963
 21
40.0569
 31
0.0
  0
LINE
  8
0
 62
     0
 10
81.963
 20
40.0569
 30
0.0
 11
83.1688
 21
45.7302
 31
0.0
  0
LINE
  8
0
 62
     0
 10
83.1688
 20
45.7302
 30
0.0
 11
83.9516
 21
45.5648
 31
0.0
  0
LINE
  8
0
 62
     0
 10
83.9516
 20
45.5648
 30
0.0
 11
84.5965
 21
48.5965
 31
0.0
  0
LINE
  8
0
 62
     0
 10
84.5965
 20
48.5965
 30
0.0
 11
83.8137
 21
48.7634
 31
0.0
  0
LINE
  8
0
 62
     0
 10
83.8137
 20
48.7634
 30
0.0
 11
84.0218
 21
49.7417
 31
0.0
  0
LINE
  8
0
 62
     0
 10
84.0218
 20
49.7417
 30
0.0
 11
70.327
 21
52.6521
 31
0.0
  0
LINE
  8
0
 62
     0
 10
70.327
 20
52.6521
 30
0.0
 11
70.1202
 21
51.6738
 31
0.0
  0
LINE
  8
0
 62
     0
 10
14.5259
 20
53.1192
 30
0.0
 11
14.5259
 21
52.1187
 31
0.0
  0
LINE
  8
0
 62
     0
 10
14.5259
 20
52.1187
 30
0.0
 11
13.7253
 21
52.1187
 31
0.0
  0
LINE
  8
0
 62
     0
 10
13.7253
 20
52.1187
 30
0.0
 11
13.7253
 21
49.0195
 31
0.0
  0
LINE
  8
0
 62
     0
 10
13.7253
 20
49.0195
 30
0.0
 11
14.5259
 21
49.0195
 31
0.0
  0
LINE
  8
0
 62
     0
 10
14.5259
 20
49.0195
 30
0.0
 11
14.5259
 21
48.4188
 31
0.0
  0
LINE
  8
0
 62
     0
 10
14.5259
 20
48.4188
 30
0.0
 11
13.0004
 21
48.4188
 31
0.0
  0
LINE
  8
0
 62
     0
 10
13.0004
 20
48.4188
 30
0.0
 11
13.0004
 21
51.6488
 31
0.0
  0
LINE
  8
0
 62
     0
 10
13.0004
 20
51.6488
 30
0.0
 11
11.2751
 21
51.6488
 31
0.0
  0
LINE
  8
0
 62
     0
 10
11.2751
 20
51.6488
 30
0.0
 11
11.2751
 21
52.5695
 31
0.0
  0
LINE
  8
0
 62
     0
 10
11.2751
 20
52.5695
 30
0.0
 11
7.97609
 21
52.5695
 31
0.0
  0
LINE
  8
0
 62
     0
 10
7.97609
 20
52.5695
 30
0.0
 11
7.97609
 21
51.6488
 31
0.0
  0
LINE
  8
0
 62
     0
 10
7.97609
 20
51.6488
 30
0.0
 11
6.2508
 21
51.6488
 31
0.0
  0
LINE
  8
0
 62
     0
 10
6.2508
 20
51.6488
 30
0.0
 11
6.2508
 21
48.4188
 31
0.0
  0
LINE
  8
0
 62
     0
 10
6.2508
 20
48.4188
 30
0.0
 11
5.42533
 21
48.4188
 31
0.0
  0
LINE
  8
0
 62
     0
 10
5.42533
 20
48.4188
 30
0.0
 11
5.42533
 21
45.6198
 31
0.0
  0
LINE
  8
0
 62
     0
 10
5.42533
 20
45.6198
 30
0.0
 11
6.2508
 21
45.6198
 31
0.0
  0
LINE
  8
0
 62
     0
 10
6.2508
 20
45.6198
 30
0.0
 11
6.2508
 21
39.3499
 31
0.0
  0
LINE
  8
0
 62
     0
 10
6.2508
 20
39.3499
 30
0.0
 11
7.97609
 21
39.3499
 31
0.0
  0
LINE
  8
0
 62
     0
 10
7.97609
 20
39.3499
 30
0.0
 11
7.97609
 21
38.3688
 31
0.0
  0
LINE
  8
0
 62
     0
 10
7.97609
 20
38.3688
 30
0.0
 11
11.2751
 21
38.3688
 31
0.0
  0
LINE
  8
0
 62
     0
 10
11.2751
 20
38.3688
 30
0.0
 11
11.2751
 21
39.3499
 31
0.0
  0
LINE
  8
0
 62
     0
 10
11.2751
 20
39.3499
 30
0.0
 11
13.0004
 21
39.3499
 31
0.0
  0
LINE
  8
0
 62
     0
 10
13.0004
 20
39.3499
 30
0.0
 11
13.0004
 21
43.8189
 31
0.0
  0
LINE
  8
0
 62
     0
 10
13.0004
 20
43.8189
 30
0.0
 11
14.5259
 21
43.8189
 31
0.0
  0
LINE
  8
0
 62
     0
 10
14.5259
 20
43.8189
 30
0.0
 11
14.5259
 21
43.2195
 31
0.0
  0
LINE
  8
0
 62
     0
 10
14.5259
 20
43.2195
 30
0.0
 11
13.7253
 21
43.2195
 31
0.0
  0
LINE
  8
0
 62
     0
 10
13.7253
 20
43.2195
 30
0.0
 11
13.7253
 21
40.1189
 31
0.0
  0
LINE
  8
0
 62
     0
 10
13.7253
 20
40.1189
 30
0.0
 11
14.5259
 21
40.1189
 31
0.0
  0
LINE
  8
0
 62
     0
 10
14.5259
 20
40.1189
 30
0.0
 11
14.5259
 21
39.1199
 31
0.0
  0
LINE
  8
0
 62
     0
 10
14.5259
 20
39.1199
 30
0.0
 11
28.5254
 21
39.1199
 31
0.0
  0
LINE
  8
0
 62
     0
 10
28.5254
 20
39.1199
 30
0.0
 11
28.5254
 21
40.1189
 31
0.0
  0
LINE
  8
0
 62
     0
 10
28.5254
 20
40.1189
 30
0.0
 11
29.326
 21
40.1189
 31
0.0
  0
LINE
  8
0
 62
     0
 10
29.326
 20
40.1189
 30
0.0
 11
29.326
 21
43.2195
 31
0.0
  0
LINE
  8
0
 62
     0
 10
29.326
 20
43.2195
 30
0.0
 11
28.5254
 21
43.2195
 31
0.0
  0
LINE
  8
0
 62
     0
 10
28.5254
 20
43.2195
 30
0.0
 11
28.5254
 21
43.8189
 31
0.0
  0
LINE
  8
0
 62
     0
 10
28.5254
 20
43.8189
 30
0.0
 11
30.0509
 21
43.8189
 31
0.0
  0
LINE
  8
0
 62
     0
 10
30.0509
 20
43.8189
 30
0.0
 11
30.0509
 21
39.3499
 31
0.0
  0
LINE
  8
0
 62
     0
 10
30.0509
 20
39.3499
 30
0.0
 11
31.7748
 21
39.3499
 31
0.0
  0
LINE
  8
0
 62
     0
 10
31.7748
 20
39.3499
 30
0.0
 11
31.7748
 21
38.3688
 31
0.0
  0
LINE
  8
0
 62
     0
 10
31.7748
 20
38.3688
 30
0.0
 11
35.0752
 21
38.3688
 31
0.0
  0
LINE
  8
0
 62
     0
 10
35.0752
 20
38.3688
 30
0.0
 11
35.0752
 21
39.3499
 31
0.0
  0
LINE
  8
0
 62
     0
 10
35.0752
 20
39.3499
 30
0.0
 11
36.8004
 21
39.3499
 31
0.0
  0
LINE
  8
0
 62
     0
 10
36.8004
 20
39.3499
 30
0.0
 11
36.8004
 21
45.6198
 31
0.0
  0
LINE
  8
0
 62
     0
 10
36.8004
 20
45.6198
 30
0.0
 11
37.6259
 21
45.6198
 31
0.0
  0
LINE
  8
0
 62
     0
 10
37.6259
 20
45.6198
 30
0.0
 11
37.6259
 21
48.4188
 31
0.0
  0
LINE
  8
0
 62
     0
 10
37.6259
 20
48.4188
 30
0.0
 11
36.8004
 21
48.4188
 31
0.0
  0
LINE
  8
0
 62
     0
 10
36.8004
 20
48.4188
 30
0.0
 11
36.8004
 21
51.6488
 31
0.0
  0
LINE
  8
0
 62
     0
 10
36.8004
 20
51.6488
 30
0.0
 11
35.0752
 21
51.6488
 31
0.0
  0
LINE
  8
0
 62
     0
 10
35.0752
 20
51.6488
 30
0.0
 11
35.0752
 21
52.5695
 31
0.0
  0
LINE
  8
0
 62
     0
 10
35.0752
 20
52.5695
 30
0.0
 11
31.7748
 21
52.5695
 31
0.0
  0
LINE
  8
0
 62
     0
 10
31.7748
 20
52.5695
 30
0.0
 11
31.7748
 21
51.6488
 31
0.0
  0
LINE
  8
0
 62
     0
 10
31.7748
 20
51.6488
 30
0.0
 11
30.0509
 21
51.6488
 31
0.0
  0
LINE
  8
0
 62
     0
 10
30.0509
 20
51.6488
 30
0.0
 11
30.0509
 21
48.4188
 31
0.0
  0
LINE
  8
0
 62
     0
 10
30.0509
 20
48.4188
 30
0.0
 11
28.5254
 21
48.4188
 31
0.0
  0
LINE
  8
0
 62
     0
 10
28.5254
 20
48.4188
 30
0.0
 11
28.5254
 21
49.0195
 31
0.0
  0
LINE
  8
0
 62
     0
 10
28.5254
 20
49.0195
 30
0.0
 11
29.326
 21
49.0195
 31
0.0
  0
LINE
  8
0
 62
     0
 10
29.326
 20
49.0195
 30
0.0
 11
29.326
 21
52.1187
 31
0.0
  0
LINE
  8
0
 62
     0
 10
29.326
 20
52.1187
 30
0.0
 11
28.5254
 21
52.1187
 31
0.0
  0
LINE
  8
0
 62
     0
 10
28.5254
 20
52.1187
 30
0.0
 11
28.5254
 21
53.1192
 31
0.0
  0
LINE
  8
0
 62
     0
 10
28.5254
 20
53.1192
 30
0.0
 11
14.5259
 21
53.1192
 31
0.0
  0
LINE
  8
0
 62
     0
 10
285.035
 20
53.1192
 30
0.0
 11
285.035
 21
52.1187
 31
0.0
  0
LINE
  8
0
 62
     0
 10
285.035
 20
52.1187
 30
0.0
 11
284.236
 21
52.1187
 31
0.0
  0
LINE
  8
0
 62
     0
 10
284.236
 20
52.1187
 30
0.0
 11
284.236
 21
49.0195
 31
0.0
  0
LINE
  8
0
 62
     0
 10
284.236
 20
49.0195
 30
0.0
 11
285.035
 21
49.0195
 31
0.0
  0
LINE
  8
0
 62
     0
 10
285.035
 20
49.0195
 30
0.0
 11
285.035
 21
43.2195
 31
0.0
  0
LINE
  8
0
 62
     0
 10
285.035
 20
43.2195
 30
0.0
 11
284.236
 21
43.2195
 31
0.0
  0
LINE
  8
0
 62
     0
 10
284.236
 20
43.2195
 30
0.0
 11
284.236
 21
40.1189
 31
0.0
  0
LINE
  8
0
 62
     0
 10
284.236
 20
40.1189
 30
0.0
 11
285.035
 21
40.1189
 31
0.0
  0
LINE
  8
0
 62
     0
 10
285.035
 20
40.1189
 30
0.0
 11
285.035
 21
39.1199
 31
0.0
  0
LINE
  8
0
 62
     0
 10
285.035
 20
39.1199
 30
0.0
 11
299.036
 21
39.1199
 31
0.0
  0
LINE
  8
0
 62
     0
 10
299.036
 20
39.1199
 30
0.0
 11
299.036
 21
40.1189
 31
0.0
  0
LINE
  8
0
 62
     0
 10
299.036
 20
40.1189
 30
0.0
 11
299.835
 21
40.1189
 31
0.0
  0
LINE
  8
0
 62
     0
 10
299.835
 20
40.1189
 30
0.0
 11
299.835
 21
43.2195
 31
0.0
  0
LINE
  8
0
 62
     0
 10
299.835
 20
43.2195
 30
0.0
 11
299.036
 21
43.2195
 31
0.0
  0
LINE
  8
0
 62
     0
 10
299.036
 20
43.2195
 30
0.0
 11
299.036
 21
49.0195
 31
0.0
  0
LINE
  8
0
 62
     0
 10
299.036
 20
49.0195
 30
0.0
 11
299.835
 21
49.0195
 31
0.0
  0
LINE
  8
0
 62
     0
 10
299.835
 20
49.0195
 30
0.0
 11
299.835
 21
52.1187
 31
0.0
  0
LINE
  8
0
 62
     0
 10
299.835
 20
52.1187
 30
0.0
 11
299.036
 21
52.1187
 31
0.0
  0
LINE
  8
0
 62
     0
 10
299.036
 20
52.1187
 30
0.0
 11
299.036
 21
53.1192
 31
0.0
  0
LINE
  8
0
 62
     0
 10
299.036
 20
53.1192
 30
0.0
 11
285.035
 21
53.1192
 31
0.0
  0
LINE
  8
0
 62
     0
 10
258.841
 20
53.1192
 30
0.0
 11
258.841
 21
52.1187
 31
0.0
  0
LINE
  8
0
 62
     0
 10
258.841
 20
52.1187
 30
0.0
 11
258.042
 21
52.1187
 31
0.0
  0
LINE
  8
0
 62
     0
 10
258.042
 20
52.1187
 30
0.0
 11
258.042
 21
49.0195
 31
0.0
  0
LINE
  8
0
 62
     0
 10
258.042
 20
49.0195
 30
0.0
 11
258.841
 21
49.0195
 31
0.0
  0
LINE
  8
0
 62
     0
 10
258.841
 20
49.0195
 30
0.0
 11
258.841
 21
43.2195
 31
0.0
  0
LINE
  8
0
 62
     0
 10
258.841
 20
43.2195
 30
0.0
 11
258.042
 21
43.2195
 31
0.0
  0
LINE
  8
0
 62
     0
 10
258.042
 20
43.2195
 30
0.0
 11
258.042
 21
40.1189
 31
0.0
  0
LINE
  8
0
 62
     0
 10
258.042
 20
40.1189
 30
0.0
 11
258.841
 21
40.1189
 31
0.0
  0
LINE
  8
0
 62
     0
 10
258.841
 20
40.1189
 30
0.0
 11
258.841
 21
39.1199
 31
0.0
  0
LINE
  8
0
 62
     0
 10
258.841
 20
39.1199
 30
0.0
 11
272.842
 21
39.1199
 31
0.0
  0
LINE
  8
0
 62
     0
 10
272.842
 20
39.1199
 30
0.0
 11
272.842
 21
40.1189
 31
0.0
  0
LINE
  8
0
 62
     0
 10
272.842
 20
40.1189
 30
0.0
 11
273.641
 21
40.1189
 31
0.0
  0
LINE
  8
0
 62
     0
 10
273.641
 20
40.1189
 30
0.0
 11
273.641
 21
43.2195
 31
0.0
  0
LINE
  8
0
 62
     0
 10
273.641
 20
43.2195
 30
0.0
 11
272.842
 21
43.2195
 31
0.0
  0
LINE
  8
0
 62
     0
 10
272.842
 20
43.2195
 30
0.0
 11
272.842
 21
49.0195
 31
0.0
  0
LINE
  8
0
 62
     0
 10
272.842
 20
49.0195
 30
0.0
 11
273.641
 21
49.0195
 31
0.0
  0
LINE
  8
0
 62
     0
 10
273.641
 20
49.0195
 30
0.0
 11
273.641
 21
52.1187
 31
0.0
  0
LINE
  8
0
 62
     0
 10
273.641
 20
52.1187
 30
0.0
 11
272.842
 21
52.1187
 31
0.0
  0
LINE
  8
0
 62
     0
 10
272.842
 20
52.1187
 30
0.0
 11
272.842
 21
53.1192
 31
0.0
  0
LINE
  8
0
 62
     0
 10
272.842
 20
53.1192
 30
0.0
 11
258.841
 21
53.1192
 31
0.0
  0
LINE
  8
0
 62
     0
 10
45.4822
 20
53.1192
 30
0.0
 11
45.4822
 21
52.1187
 31
0.0
  0
LINE
  8
0
 62
     0
 10
45.4822
 20
52.1187
 30
0.0
 11
44.6814
 21
52.1187
 31
0.0
  0
LINE
  8
0
 62
     0
 10
44.6814
 20
52.1187
 30
0.0
 11
44.6814
 21
49.0195
 31
0.0
  0
LINE
  8
0
 62
     0
 10
44.6814
 20
49.0195
 30
0.0
 11
45.4822
 21
49.0195
 31
0.0
  0
LINE
  8
0
 62
     0
 10
45.4822
 20
49.0195
 30
0.0
 11
45.4822
 21
43.2195
 31
0.0
  0
LINE
  8
0
 62
     0
 10
45.4822
 20
43.2195
 30
0.0
 11
44.6814
 21
43.2195
 31
0.0
  0
LINE
  8
0
 62
     0
 10
44.6814
 20
43.2195
 30
0.0
 11
44.6814
 21
40.1189
 31
0.0
  0
LINE
  8
0
 62
     0
 10
44.6814
 20
40.1189
 30
0.0
 11
45.4822
 21
40.1189
 31
0.0
  0
LINE
  8
0
 62
     0
 10
45.4822
 20
40.1189
 30
0.0
 11
45.4822
 21
39.1199
 31
0.0
  0
LINE
  8
0
 62
     0
 10
45.4822
 20
39.1199
 30
0.0
 11
59.4815
 21
39.1199
 31
0.0
  0
LINE
  8
0
 62
     0
 10
59.4815
 20
39.1199
 30
0.0
 11
59.4815
 21
40.1189
 31
0.0
  0
LINE
  8
0
 62
     0
 10
59.4815
 20
40.1189
 30
0.0
 11
60.2809
 21
40.1189
 31
0.0
  0
LINE
  8
0
 62
     0
 10
60.2809
 20
40.1189
 30
0.0
 11
60.2809
 21
43.2195
 31
0.0
  0
LINE
  8
0
 62
     0
 10
60.2809
 20
43.2195
 30
0.0
 11
59.4815
 21
43.2195
 31
0.0
  0
LINE
  8
0
 62
     0
 10
59.4815
 20
43.2195
 30
0.0
 11
59.4815
 21
49.0195
 31
0.0
  0
LINE
  8
0
 62
     0
 10
59.4815
 20
49.0195
 30
0.0
 11
60.2809
 21
49.0195
 31
0.0
  0
LINE
  8
0
 62
     0
 10
60.2809
 20
49.0195
 30
0.0
 11
60.2809
 21
52.1187
 31
0.0
  0
LINE
  8
0
 62
     0
 10
60.2809
 20
52.1187
 30
0.0
 11
59.4815
 21
52.1187
 31
0.0
  0
LINE
  8
0
 62
     0
 10
59.4815
 20
52.1187
 30
0.0
 11
59.4815
 21
53.1192
 31
0.0
  0
LINE
  8
0
 62
     0
 10
59.4815
 20
53.1192
 30
0.0
 11
45.4822
 21
53.1192
 31
0.0
  0
LINE
  8
0
 62
     0
 10
170.699
 20
55.3501
 30
0.0
 11
170.907
 21
54.3719
 31
0.0
  0
LINE
  8
0
 62
     0
 10
170.907
 20
54.3719
 30
0.0
 11
170.123
 21
54.205
 31
0.0
  0
LINE
  8
0
 62
     0
 10
170.123
 20
54.205
 30
0.0
 11
170.768
 21
51.1736
 31
0.0
  0
LINE
  8
0
 62
     0
 10
170.768
 20
51.1736
 30
0.0
 11
171.551
 21
51.3387
 31
0.0
  0
LINE
  8
0
 62
     0
 10
171.551
 20
51.3387
 30
0.0
 11
172.756
 21
45.6667
 31
0.0
  0
LINE
  8
0
 62
     0
 10
172.756
 20
45.6667
 30
0.0
 11
171.975
 21
45.5002
 31
0.0
  0
LINE
  8
0
 62
     0
 10
171.975
 20
45.5002
 30
0.0
 11
172.619
 21
42.467
 31
0.0
  0
LINE
  8
0
 62
     0
 10
172.619
 20
42.467
 30
0.0
 11
173.401
 21
42.6339
 31
0.0
  0
LINE
  8
0
 62
     0
 10
173.401
 20
42.6339
 30
0.0
 11
173.609
 21
41.6567
 31
0.0
  0
LINE
  8
0
 62
     0
 10
173.609
 20
41.6567
 30
0.0
 11
187.303
 21
44.5657
 31
0.0
  0
LINE
  8
0
 62
     0
 10
187.303
 20
44.5657
 30
0.0
 11
187.095
 21
45.5454
 31
0.0
  0
LINE
  8
0
 62
     0
 10
187.095
 20
45.5454
 30
0.0
 11
187.877
 21
45.7108
 31
0.0
  0
LINE
  8
0
 62
     0
 10
187.877
 20
45.7108
 30
0.0
 11
187.234
 21
48.744
 31
0.0
  0
LINE
  8
0
 62
     0
 10
187.234
 20
48.744
 30
0.0
 11
186.45
 21
48.5771
 31
0.0
  0
LINE
  8
0
 62
     0
 10
186.45
 20
48.5771
 30
0.0
 11
185.244
 21
54.2505
 31
0.0
  0
LINE
  8
0
 62
     0
 10
185.244
 20
54.2505
 30
0.0
 11
186.027
 21
54.416
 31
0.0
  0
LINE
  8
0
 62
     0
 10
186.027
 20
54.416
 30
0.0
 11
185.382
 21
57.4492
 31
0.0
  0
LINE
  8
0
 62
     0
 10
185.382
 20
57.4492
 30
0.0
 11
184.6
 21
57.2823
 31
0.0
  0
LINE
  8
0
 62
     0
 10
184.6
 20
57.2823
 30
0.0
 11
184.393
 21
58.2605
 31
0.0
  0
LINE
  8
0
 62
     0
 10
184.393
 20
58.2605
 30
0.0
 11
170.699
 21
55.3501
 31
0.0
  0
LINE
  8
0
 62
     0
 10
120.665
 20
60.4051
 30
0.0
 11
119.881
 21
60.573
 31
0.0
  0
LINE
  8
0
 62
     0
 10
119.881
 20
60.573
 30
0.0
 11
119.237
 21
57.5398
 31
0.0
  0
LINE
  8
0
 62
     0
 10
119.237
 20
57.5398
 30
0.0
 11
120.019
 21
57.3733
 31
0.0
  0
LINE
  8
0
 62
     0
 10
120.019
 20
57.3733
 30
0.0
 11
118.814
 21
51.6999
 31
0.0
  0
LINE
  8
0
 62
     0
 10
118.814
 20
51.6999
 30
0.0
 11
118.032
 21
51.8664
 31
0.0
  0
LINE
  8
0
 62
     0
 10
118.032
 20
51.8664
 30
0.0
 11
117.387
 21
48.835
 31
0.0
  0
LINE
  8
0
 62
     0
 10
117.387
 20
48.835
 30
0.0
 11
118.17
 21
48.6682
 31
0.0
  0
LINE
  8
0
 62
     0
 10
118.17
 20
48.6682
 30
0.0
 11
117.961
 21
47.6899
 31
0.0
  0
LINE
  8
0
 62
     0
 10
117.961
 20
47.6899
 30
0.0
 11
131.655
 21
44.7795
 31
0.0
  0
LINE
  8
0
 62
     0
 10
131.655
 20
44.7795
 30
0.0
 11
131.863
 21
45.7577
 31
0.0
  0
LINE
  8
0
 62
     0
 10
131.863
 20
45.7577
 30
0.0
 11
132.646
 21
45.5909
 31
0.0
  0
LINE
  8
0
 62
     0
 10
132.646
 20
45.5909
 30
0.0
 11
133.291
 21
48.6241
 31
0.0
  0
LINE
  8
0
 62
     0
 10
133.291
 20
48.6241
 30
0.0
 11
132.508
 21
48.7895
 31
0.0
  0
LINE
  8
0
 62
     0
 10
132.508
 20
48.7895
 30
0.0
 11
133.714
 21
54.4629
 31
0.0
  0
LINE
  8
0
 62
     0
 10
133.714
 20
54.4629
 30
0.0
 11
134.497
 21
54.296
 31
0.0
  0
LINE
  8
0
 62
     0
 10
134.497
 20
54.296
 30
0.0
 11
135.141
 21
57.3278
 31
0.0
  0
LINE
  8
0
 62
     0
 10
135.141
 20
57.3278
 30
0.0
 11
134.359
 21
57.4957
 31
0.0
  0
LINE
  8
0
 62
     0
 10
134.359
 20
57.4957
 30
0.0
 11
134.567
 21
58.4729
 31
0.0
  0
LINE
  8
0
 62
     0
 10
134.567
 20
58.4729
 30
0.0
 11
120.872
 21
61.3833
 31
0.0
  0
LINE
  8
0
 62
     0
 10
120.872
 20
61.3833
 30
0.0
 11
120.665
 21
60.4051
 31
0.0
  0
LINE
  8
0
 62
     0
 10
189.333
 20
59.3108
 30
0.0
 11
189.539
 21
58.3325
 31
0.0
  0
LINE
  8
0
 62
     0
 10
189.539
 20
58.3325
 30
0.0
 11
188.758
 21
58.1671
 31
0.0
  0
LINE
  8
0
 62
     0
 10
188.758
 20
58.1671
 30
0.0
 11
189.402
 21
55.1339
 31
0.0
  0
LINE
  8
0
 62
     0
 10
189.402
 20
55.1339
 30
0.0
 11
190.184
 21
55.3007
 31
0.0
  0
LINE
  8
0
 62
     0
 10
190.184
 20
55.3007
 30
0.0
 11
191.39
 21
49.6274
 31
0.0
  0
LINE
  8
0
 62
     0
 10
191.39
 20
49.6274
 30
0.0
 11
190.608
 21
49.4605
 31
0.0
  0
LINE
  8
0
 62
     0
 10
190.608
 20
49.4605
 30
0.0
 11
191.252
 21
46.4287
 31
0.0
  0
LINE
  8
0
 62
     0
 10
191.252
 20
46.4287
 30
0.0
 11
192.035
 21
46.5956
 31
0.0
  0
LINE
  8
0
 62
     0
 10
192.035
 20
46.5956
 30
0.0
 11
192.242
 21
45.6159
 31
0.0
  0
LINE
  8
0
 62
     0
 10
192.242
 20
45.6159
 30
0.0
 11
205.937
 21
48.5278
 31
0.0
  0
LINE
  8
0
 62
     0
 10
205.937
 20
48.5278
 30
0.0
 11
205.729
 21
49.506
 31
0.0
  0
LINE
  8
0
 62
     0
 10
205.729
 20
49.506
 30
0.0
 11
206.512
 21
49.6729
 31
0.0
  0
LINE
  8
0
 62
     0
 10
206.512
 20
49.6729
 30
0.0
 11
205.867
 21
52.7043
 31
0.0
  0
LINE
  8
0
 62
     0
 10
205.867
 20
52.7043
 30
0.0
 11
205.085
 21
52.5392
 31
0.0
  0
LINE
  8
0
 62
     0
 10
205.085
 20
52.5392
 30
0.0
 11
203.878
 21
58.2112
 31
0.0
  0
LINE
  8
0
 62
     0
 10
203.878
 20
58.2112
 30
0.0
 11
204.662
 21
58.3777
 31
0.0
  0
LINE
  8
0
 62
     0
 10
204.662
 20
58.3777
 30
0.0
 11
204.016
 21
61.4094
 31
0.0
  0
LINE
  8
0
 62
     0
 10
204.016
 20
61.4094
 30
0.0
 11
203.235
 21
61.2429
 31
0.0
  0
LINE
  8
0
 62
     0
 10
203.235
 20
61.2429
 30
0.0
 11
203.026
 21
62.2212
 31
0.0
  0
LINE
  8
0
 62
     0
 10
203.026
 20
62.2212
 30
0.0
 11
189.333
 21
59.3108
 31
0.0
  0
LINE
  8
0
 62
     0
 10
102.03
 20
64.3668
 30
0.0
 11
101.249
 21
64.5322
 31
0.0
  0
LINE
  8
0
 62
     0
 10
101.249
 20
64.5322
 30
0.0
 11
100.604
 21
61.5005
 31
0.0
  0
LINE
  8
0
 62
     0
 10
100.604
 20
61.5005
 30
0.0
 11
101.387
 21
61.3336
 31
0.0
  0
LINE
  8
0
 62
     0
 10
101.387
 20
61.3336
 30
0.0
 11
100.181
 21
55.6616
 31
0.0
  0
LINE
  8
0
 62
     0
 10
100.181
 20
55.6616
 30
0.0
 11
99.398
 21
55.8271
 31
0.0
  0
LINE
  8
0
 62
     0
 10
99.398
 20
55.8271
 30
0.0
 11
98.7531
 21
52.7953
 31
0.0
  0
LINE
  8
0
 62
     0
 10
98.7531
 20
52.7953
 30
0.0
 11
99.5355
 21
52.6288
 31
0.0
  0
LINE
  8
0
 62
     0
 10
99.5355
 20
52.6288
 30
0.0
 11
99.3278
 21
51.6502
 31
0.0
  0
LINE
  8
0
 62
     0
 10
99.3278
 20
51.6502
 30
0.0
 11
113.021
 21
48.7398
 31
0.0
  0
LINE
  8
0
 62
     0
 10
113.021
 20
48.7398
 30
0.0
 11
113.229
 21
49.7184
 31
0.0
  0
LINE
  8
0
 62
     0
 10
113.229
 20
49.7184
 30
0.0
 11
114.012
 21
49.5515
 31
0.0
  0
LINE
  8
0
 62
     0
 10
114.012
 20
49.5515
 30
0.0
 11
114.657
 21
52.5833
 31
0.0
  0
LINE
  8
0
 62
     0
 10
114.657
 20
52.5833
 30
0.0
 11
113.874
 21
52.7498
 31
0.0
  0
LINE
  8
0
 62
     0
 10
113.874
 20
52.7498
 30
0.0
 11
115.08
 21
58.4232
 31
0.0
  0
LINE
  8
0
 62
     0
 10
115.08
 20
58.4232
 30
0.0
 11
115.863
 21
58.2581
 31
0.0
  0
LINE
  8
0
 62
     0
 10
115.863
 20
58.2581
 30
0.0
 11
116.508
 21
61.2895
 31
0.0
  0
LINE
  8
0
 62
     0
 10
116.508
 20
61.2895
 30
0.0
 11
115.725
 21
61.4549
 31
0.0
  0
LINE
  8
0
 62
     0
 10
115.725
 20
61.4549
 30
0.0
 11
115.933
 21
62.4336
 31
0.0
  0
LINE
  8
0
 62
     0
 10
115.933
 20
62.4336
 30
0.0
 11
102.238
 21
65.344
 31
0.0
  0
LINE
  8
0
 62
     0
 10
102.238
 20
65.344
 30
0.0
 11
102.03
 21
64.3668
 31
0.0
  0
LINE
  8
0
 62
     0
 10
207.965
 20
63.2714
 30
0.0
 11
208.173
 21
62.2928
 31
0.0
  0
LINE
  8
0
 62
     0
 10
208.173
 20
62.2928
 30
0.0
 11
207.392
 21
62.1273
 31
0.0
  0
LINE
  8
0
 62
     0
 10
207.392
 20
62.1273
 30
0.0
 11
208.036
 21
59.0945
 31
0.0
  0
LINE
  8
0
 62
     0
 10
208.036
 20
59.0945
 30
0.0
 11
208.818
 21
59.261
 31
0.0
  0
LINE
  8
0
 62
     0
 10
208.818
 20
59.261
 30
0.0
 11
210.024
 21
53.5876
 31
0.0
  0
LINE
  8
0
 62
     0
 10
210.024
 20
53.5876
 30
0.0
 11
209.241
 21
53.4211
 31
0.0
  0
LINE
  8
0
 62
     0
 10
209.241
 20
53.4211
 30
0.0
 11
209.886
 21
50.3894
 31
0.0
  0
LINE
  8
0
 62
     0
 10
209.886
 20
50.3894
 30
0.0
 11
210.669
 21
50.5562
 31
0.0
  0
LINE
  8
0
 62
     0
 10
210.669
 20
50.5562
 30
0.0
 11
210.877
 21
49.5776
 31
0.0
  0
LINE
  8
0
 62
     0
 10
210.877
 20
49.5776
 30
0.0
 11
224.571
 21
52.488
 31
0.0
  0
LINE
  8
0
 62
     0
 10
224.571
 20
52.488
 30
0.0
 11
224.362
 21
53.4666
 31
0.0
  0
LINE
  8
0
 62
     0
 10
224.362
 20
53.4666
 30
0.0
 11
225.145
 21
53.6317
 31
0.0
  0
LINE
  8
0
 62
     0
 10
225.145
 20
53.6317
 30
0.0
 11
224.5
 21
56.6649
 31
0.0
  0
LINE
  8
0
 62
     0
 10
224.5
 20
56.6649
 30
0.0
 11
223.719
 21
56.4981
 31
0.0
  0
LINE
  8
0
 62
     0
 10
223.719
 20
56.4981
 30
0.0
 11
222.512
 21
62.1729
 31
0.0
  0
LINE
  8
0
 62
     0
 10
222.512
 20
62.1729
 30
0.0
 11
223.295
 21
62.3383
 31
0.0
  0
LINE
  8
0
 62
     0
 10
223.295
 20
62.3383
 30
0.0
 11
222.651
 21
65.3701
 31
0.0
  0
LINE
  8
0
 62
     0
 10
222.651
 20
65.3701
 30
0.0
 11
221.867
 21
65.2046
 31
0.0
  0
LINE
  8
0
 62
     0
 10
221.867
 20
65.2046
 30
0.0
 11
221.659
 21
66.1829
 31
0.0
  0
LINE
  8
0
 62
     0
 10
221.659
 20
66.1829
 30
0.0
 11
207.965
 21
63.2714
 31
0.0
  0
LINE
  8
0
 62
     0
 10
83.396
 20
68.3274
 30
0.0
 11
82.6149
 21
68.4939
 31
0.0
  0
LINE
  8
0
 62
     0
 10
82.6149
 20
68.4939
 30
0.0
 11
81.9697
 21
65.4611
 31
0.0
  0
LINE
  8
0
 62
     0
 10
81.9697
 20
65.4611
 30
0.0
 11
82.7525
 21
65.2956
 31
0.0
  0
LINE
  8
0
 62
     0
 10
82.7525
 20
65.2956
 30
0.0
 11
81.5467
 21
59.6209
 31
0.0
  0
LINE
  8
0
 62
     0
 10
81.5467
 20
59.6209
 30
0.0
 11
80.7642
 21
59.7888
 31
0.0
  0
LINE
  8
0
 62
     0
 10
80.7642
 20
59.7888
 30
0.0
 11
80.119
 21
56.7559
 31
0.0
  0
LINE
  8
0
 62
     0
 10
80.119
 20
56.7559
 30
0.0
 11
80.9018
 21
56.5891
 31
0.0
  0
LINE
  8
0
 62
     0
 10
80.9018
 20
56.5891
 30
0.0
 11
80.6951
 21
55.6108
 31
0.0
  0
LINE
  8
0
 62
     0
 10
80.6951
 20
55.6108
 30
0.0
 11
94.3889
 21
52.7004
 31
0.0
  0
LINE
  8
0
 62
     0
 10
94.3889
 20
52.7004
 30
0.0
 11
94.5967
 21
53.6787
 31
0.0
  0
LINE
  8
0
 62
     0
 10
94.5967
 20
53.6787
 30
0.0
 11
95.3781
 21
53.5122
 31
0.0
  0
LINE
  8
0
 62
     0
 10
95.3781
 20
53.5122
 30
0.0
 11
96.0229
 21
56.545
 31
0.0
  0
LINE
  8
0
 62
     0
 10
96.0229
 20
56.545
 30
0.0
 11
95.2405
 21
56.7118
 31
0.0
  0
LINE
  8
0
 62
     0
 10
95.2405
 20
56.7118
 30
0.0
 11
96.4463
 21
62.3838
 31
0.0
  0
LINE
  8
0
 62
     0
 10
96.4463
 20
62.3838
 30
0.0
 11
97.2287
 21
62.2169
 31
0.0
  0
LINE
  8
0
 62
     0
 10
97.2287
 20
62.2169
 30
0.0
 11
97.874
 21
65.2501
 31
0.0
  0
LINE
  8
0
 62
     0
 10
97.874
 20
65.2501
 30
0.0
 11
97.0911
 21
65.417
 31
0.0
  0
LINE
  8
0
 62
     0
 10
97.0911
 20
65.417
 30
0.0
 11
97.2993
 21
66.3938
 31
0.0
  0
LINE
  8
0
 62
     0
 10
97.2993
 20
66.3938
 30
0.0
 11
83.6041
 21
69.3057
 31
0.0
  0
LINE
  8
0
 62
     0
 10
83.6041
 20
69.3057
 30
0.0
 11
83.396
 21
68.3274
 31
0.0
  0
LINE
  8
0
 62
     0
 10
226.599
 20
67.2317
 30
0.0
 11
226.807
 21
66.2548
 31
0.0
  0
LINE
  8
0
 62
     0
 10
226.807
 20
66.2548
 30
0.0
 11
226.024
 21
66.088
 31
0.0
  0
LINE
  8
0
 62
     0
 10
226.024
 20
66.088
 30
0.0
 11
226.669
 21
63.0548
 31
0.0
  0
LINE
  8
0
 62
     0
 10
226.669
 20
63.0548
 30
0.0
 11
227.452
 21
63.2217
 31
0.0
  0
LINE
  8
0
 62
     0
 10
227.452
 20
63.2217
 30
0.0
 11
228.658
 21
57.5483
 31
0.0
  0
LINE
  8
0
 62
     0
 10
228.658
 20
57.5483
 30
0.0
 11
227.875
 21
57.3828
 31
0.0
  0
LINE
  8
0
 62
     0
 10
227.875
 20
57.3828
 30
0.0
 11
228.52
 21
54.35
 31
0.0
  0
LINE
  8
0
 62
     0
 10
228.52
 20
54.35
 30
0.0
 11
229.303
 21
54.5165
 31
0.0
  0
LINE
  8
0
 62
     0
 10
229.303
 20
54.5165
 30
0.0
 11
229.511
 21
53.5383
 31
0.0
  0
LINE
  8
0
 62
     0
 10
229.511
 20
53.5383
 30
0.0
 11
243.204
 21
56.4501
 31
0.0
  0
LINE
  8
0
 62
     0
 10
243.204
 20
56.4501
 30
0.0
 11
242.997
 21
57.4269
 31
0.0
  0
LINE
  8
0
 62
     0
 10
242.997
 20
57.4269
 30
0.0
 11
243.779
 21
57.5938
 31
0.0
  0
LINE
  8
0
 62
     0
 10
243.779
 20
57.5938
 30
0.0
 11
243.134
 21
60.6256
 31
0.0
  0
LINE
  8
0
 62
     0
 10
243.134
 20
60.6256
 30
0.0
 11
242.351
 21
60.4601
 31
0.0
  0
LINE
  8
0
 62
     0
 10
242.351
 20
60.4601
 30
0.0
 11
241.146
 21
66.1321
 31
0.0
  0
LINE
  8
0
 62
     0
 10
241.146
 20
66.1321
 30
0.0
 11
241.928
 21
66.2989
 31
0.0
  0
LINE
  8
0
 62
     0
 10
241.928
 20
66.2989
 30
0.0
 11
241.283
 21
69.3318
 31
0.0
  0
LINE
  8
0
 62
     0
 10
241.283
 20
69.3318
 30
0.0
 11
240.502
 21
69.1653
 31
0.0
  0
LINE
  8
0
 62
     0
 10
240.502
 20
69.1653
 30
0.0
 11
240.294
 21
70.1435
 31
0.0
  0
LINE
  8
0
 62
     0
 10
240.294
 20
70.1435
 30
0.0
 11
226.599
 21
67.2317
 31
0.0
  0
LINE
  8
0
 62
     0
 10
64.7637
 20
72.2877
 30
0.0
 11
63.9808
 21
72.4546
 31
0.0
  0
LINE
  8
0
 62
     0
 10
63.9808
 20
72.4546
 30
0.0
 11
63.336
 21
69.4228
 31
0.0
  0
LINE
  8
0
 62
     0
 10
63.336
 20
69.4228
 30
0.0
 11
64.1188
 21
69.2559
 31
0.0
  0
LINE
  8
0
 62
     0
 10
64.1188
 20
69.2559
 30
0.0
 11
62.913
 21
63.5825
 31
0.0
  0
LINE
  8
0
 62
     0
 10
62.913
 20
63.5825
 30
0.0
 11
62.1302
 21
63.748
 31
0.0
  0
LINE
  8
0
 62
     0
 10
62.1302
 20
63.748
 30
0.0
 11
61.4853
 21
60.7162
 31
0.0
  0
LINE
  8
0
 62
     0
 10
61.4853
 20
60.7162
 30
0.0
 11
62.2681
 21
60.5511
 31
0.0
  0
LINE
  8
0
 62
     0
 10
62.2681
 20
60.5511
 30
0.0
 11
62.06
 21
59.5725
 31
0.0
  0
LINE
  8
0
 62
     0
 10
62.06
 20
59.5725
 30
0.0
 11
75.7548
 21
56.6607
 31
0.0
  0
LINE
  8
0
 62
     0
 10
75.7548
 20
56.6607
 30
0.0
 11
75.9629
 21
57.6393
 31
0.0
  0
LINE
  8
0
 62
     0
 10
75.9629
 20
57.6393
 30
0.0
 11
76.7443
 21
57.4738
 31
0.0
  0
LINE
  8
0
 62
     0
 10
76.7443
 20
57.4738
 30
0.0
 11
77.3892
 21
60.5056
 31
0.0
  0
LINE
  8
0
 62
     0
 10
77.3892
 20
60.5056
 30
0.0
 11
76.6064
 21
60.6707
 31
0.0
  0
LINE
  8
0
 62
     0
 10
76.6064
 20
60.6707
 30
0.0
 11
77.8122
 21
66.3444
 31
0.0
  0
LINE
  8
0
 62
     0
 10
77.8122
 20
66.3444
 30
0.0
 11
78.595
 21
66.179
 31
0.0
  0
LINE
  8
0
 62
     0
 10
78.595
 20
66.179
 30
0.0
 11
79.2399
 21
69.2108
 31
0.0
  0
LINE
  8
0
 62
     0
 10
79.2399
 20
69.2108
 30
0.0
 11
78.4571
 21
69.3773
 31
0.0
  0
LINE
  8
0
 62
     0
 10
78.4571
 20
69.3773
 30
0.0
 11
78.6652
 21
70.3559
 31
0.0
  0
LINE
  8
0
 62
     0
 10
78.6652
 20
70.3559
 30
0.0
 11
64.9718
 21
73.2663
 31
0.0
  0
LINE
  8
0
 62
     0
 10
64.9718
 20
73.2663
 30
0.0
 11
64.7637
 21
72.2877
 31
0.0
  0
LINE
  8
0
 62
     0
 10
299.322
 20
72.1692
 30
0.0
 11
299.322
 21
71.1687
 31
0.0
  0
LINE
  8
0
 62
     0
 10
299.322
 20
71.1687
 30
0.0
 11
298.523
 21
71.1687
 31
0.0
  0
LINE
  8
0
 62
     0
 10
298.523
 20
71.1687
 30
0.0
 11
298.523
 21
68.0695
 31
0.0
  0
LINE
  8
0
 62
     0
 10
298.523
 20
68.0695
 30
0.0
 11
299.322
 21
68.0695
 31
0.0
  0
LINE
  8
0
 62
     0
 10
299.322
 20
68.0695
 30
0.0
 11
299.322
 21
67.4688
 31
0.0
  0
LINE
  8
0
 62
     0
 10
299.322
 20
67.4688
 30
0.0
 11
297.797
 21
67.4688
 31
0.0
  0
LINE
  8
0
 62
     0
 10
297.797
 20
67.4688
 30
0.0
 11
297.797
 21
70.6988
 31
0.0
  0
LINE
  8
0
 62
     0
 10
297.797
 20
70.6988
 30
0.0
 11
296.073
 21
70.6988
 31
0.0
  0
LINE
  8
0
 62
     0
 10
296.073
 20
70.6988
 30
0.0
 11
296.073
 21
71.6195
 31
0.0
  0
LINE
  8
0
 62
     0
 10
296.073
 20
71.6195
 30
0.0
 11
292.772
 21
71.6195
 31
0.0
  0
LINE
  8
0
 62
     0
 10
292.772
 20
71.6195
 30
0.0
 11
292.772
 21
70.6988
 31
0.0
  0
LINE
  8
0
 62
     0
 10
292.772
 20
70.6988
 30
0.0
 11
291.047
 21
70.6988
 31
0.0
  0
LINE
  8
0
 62
     0
 10
291.047
 20
70.6988
 30
0.0
 11
291.047
 21
67.4688
 31
0.0
  0
LINE
  8
0
 62
     0
 10
291.047
 20
67.4688
 30
0.0
 11
290.223
 21
67.4688
 31
0.0
  0
LINE
  8
0
 62
     0
 10
290.223
 20
67.4688
 30
0.0
 11
290.223
 21
64.6698
 31
0.0
  0
LINE
  8
0
 62
     0
 10
290.223
 20
64.6698
 30
0.0
 11
291.047
 21
64.6698
 31
0.0
  0
LINE
  8
0
 62
     0
 10
291.047
 20
64.6698
 30
0.0
 11
291.047
 21
58.3999
 31
0.0
  0
LINE
  8
0
 62
     0
 10
291.047
 20
58.3999
 30
0.0
 11
292.772
 21
58.3999
 31
0.0
  0
LINE
  8
0
 62
     0
 10
292.772
 20
58.3999
 30
0.0
 11
292.772
 21
57.4188
 31
0.0
  0
LINE
  8
0
 62
     0
 10
292.772
 20
57.4188
 30
0.0
 11
296.073
 21
57.4188
 31
0.0
  0
LINE
  8
0
 62
     0
 10
296.073
 20
57.4188
 30
0.0
 11
296.073
 21
58.3999
 31
0.0
  0
LINE
  8
0
 62
     0
 10
296.073
 20
58.3999
 30
0.0
 11
297.797
 21
58.3999
 31
0.0
  0
LINE
  8
0
 62
     0
 10
297.797
 20
58.3999
 30
0.0
 11
297.797
 21
62.8689
 31
0.0
  0
LINE
  8
0
 62
     0
 10
297.797
 20
62.8689
 30
0.0
 11
299.322
 21
62.8689
 31
0.0
  0
LINE
  8
0
 62
     0
 10
299.322
 20
62.8689
 30
0.0
 11
299.322
 21
62.2695
 31
0.0
  0
LINE
  8
0
 62
     0
 10
299.322
 20
62.2695
 30
0.0
 11
298.523
 21
62.2695
 31
0.0
  0
LINE
  8
0
 62
     0
 10
298.523
 20
62.2695
 30
0.0
 11
298.523
 21
59.1689
 31
0.0
  0
LINE
  8
0
 62
     0
 10
298.523
 20
59.1689
 30
0.0
 11
299.322
 21
59.1689
 31
0.0
  0
LINE
  8
0
 62
     0
 10
299.322
 20
59.1689
 30
0.0
 11
299.322
 21
58.1699
 31
0.0
  0
LINE
  8
0
 62
     0
 10
299.322
 20
58.1699
 30
0.0
 11
313.323
 21
58.1699
 31
0.0
  0
LINE
  8
0
 62
     0
 10
313.323
 20
58.1699
 30
0.0
 11
313.323
 21
59.1689
 31
0.0
  0
LINE
  8
0
 62
     0
 10
313.323
 20
59.1689
 30
0.0
 11
314.123
 21
59.1689
 31
0.0
  0
LINE
  8
0
 62
     0
 10
314.123
 20
59.1689
 30
0.0
 11
314.123
 21
62.2695
 31
0.0
  0
LINE
  8
0
 62
     0
 10
314.123
 20
62.2695
 30
0.0
 11
313.323
 21
62.2695
 31
0.0
  0
LINE
  8
0
 62
     0
 10
313.323
 20
62.2695
 30
0.0
 11
313.323
 21
62.8689
 31
0.0
  0
LINE
  8
0
 62
     0
 10
313.323
 20
62.8689
 30
0.0
 11
314.847
 21
62.8689
 31
0.0
  0
LINE
  8
0
 62
     0
 10
314.847
 20
62.8689
 30
0.0
 11
314.847
 21
58.3999
 31
0.0
  0
LINE
  8
0
 62
     0
 10
314.847
 20
58.3999
 30
0.0
 11
316.573
 21
58.3999
 31
0.0
  0
LINE
  8
0
 62
     0
 10
316.573
 20
58.3999
 30
0.0
 11
316.573
 21
57.4188
 31
0.0
  0
LINE
  8
0
 62
     0
 10
316.573
 20
57.4188
 30
0.0
 11
319.873
 21
57.4188
 31
0.0
  0
LINE
  8
0
 62
     0
 10
319.873
 20
57.4188
 30
0.0
 11
319.873
 21
58.3999
 31
0.0
  0
LINE
  8
0
 62
     0
 10
319.873
 20
58.3999
 30
0.0
 11
321.597
 21
58.3999
 31
0.0
  0
LINE
  8
0
 62
     0
 10
321.597
 20
58.3999
 30
0.0
 11
321.597
 21
64.6698
 31
0.0
  0
LINE
  8
0
 62
     0
 10
321.597
 20
64.6698
 30
0.0
 11
322.422
 21
64.6698
 31
0.0
  0
LINE
  8
0
 62
     0
 10
322.422
 20
64.6698
 30
0.0
 11
322.422
 21
67.4688
 31
0.0
  0
LINE
  8
0
 62
     0
 10
322.422
 20
67.4688
 30
0.0
 11
321.597
 21
67.4688
 31
0.0
  0
LINE
  8
0
 62
     0
 10
321.597
 20
67.4688
 30
0.0
 11
321.597
 21
70.6988
 31
0.0
  0
LINE
  8
0
 62
     0
 10
321.597
 20
70.6988
 30
0.0
 11
319.873
 21
70.6988
 31
0.0
  0
LINE
  8
0
 62
     0
 10
319.873
 20
70.6988
 30
0.0
 11
319.873
 21
71.6195
 31
0.0
  0
LINE
  8
0
 62
     0
 10
319.873
 20
71.6195
 30
0.0
 11
316.573
 21
71.6195
 31
0.0
  0
LINE
  8
0
 62
     0
 10
316.573
 20
71.6195
 30
0.0
 11
316.573
 21
70.6988
 31
0.0
  0
LINE
  8
0
 62
     0
 10
316.573
 20
70.6988
 30
0.0
 11
314.847
 21
70.6988
 31
0.0
  0
LINE
  8
0
 62
     0
 10
314.847
 20
70.6988
 30
0.0
 11
314.847
 21
67.4688
 31
0.0
  0
LINE
  8
0
 62
     0
 10
314.847
 20
67.4688
 30
0.0
 11
313.323
 21
67.4688
 31
0.0
  0
LINE
  8
0
 62
     0
 10
313.323
 20
67.4688
 30
0.0
 11
313.323
 21
68.0695
 31
0.0
  0
LINE
  8
0
 62
     0
 10
313.323
 20
68.0695
 30
0.0
 11
314.123
 21
68.0695
 31
0.0
  0
LINE
  8
0
 62
     0
 10
314.123
 20
68.0695
 30
0.0
 11
314.123
 21
71.1687
 31
0.0
  0
LINE
  8
0
 62
     0
 10
314.123
 20
71.1687
 30
0.0
 11
313.323
 21
71.1687
 31
0.0
  0
LINE
  8
0
 62
     0
 10
313.323
 20
71.1687
 30
0.0
 11
313.323
 21
72.1692
 31
0.0
  0
LINE
  8
0
 62
     0
 10
313.323
 20
72.1692
 30
0.0
 11
299.322
 21
72.1692
 31
0.0
  0
LINE
  8
0
 62
     0
 10
268.366
 20
72.1692
 30
0.0
 11
268.366
 21
71.1687
 31
0.0
  0
LINE
  8
0
 62
     0
 10
268.366
 20
71.1687
 30
0.0
 11
267.567
 21
71.1687
 31
0.0
  0
LINE
  8
0
 62
     0
 10
267.567
 20
71.1687
 30
0.0
 11
267.567
 21
68.0695
 31
0.0
  0
LINE
  8
0
 62
     0
 10
267.567
 20
68.0695
 30
0.0
 11
268.366
 21
68.0695
 31
0.0
  0
LINE
  8
0
 62
     0
 10
268.366
 20
68.0695
 30
0.0
 11
268.366
 21
62.2695
 31
0.0
  0
LINE
  8
0
 62
     0
 10
268.366
 20
62.2695
 30
0.0
 11
267.567
 21
62.2695
 31
0.0
  0
LINE
  8
0
 62
     0
 10
267.567
 20
62.2695
 30
0.0
 11
267.567
 21
59.1689
 31
0.0
  0
LINE
  8
0
 62
     0
 10
267.567
 20
59.1689
 30
0.0
 11
268.366
 21
59.1689
 31
0.0
  0
LINE
  8
0
 62
     0
 10
268.366
 20
59.1689
 30
0.0
 11
268.366
 21
58.1699
 31
0.0
  0
LINE
  8
0
 62
     0
 10
268.366
 20
58.1699
 30
0.0
 11
282.367
 21
58.1699
 31
0.0
  0
LINE
  8
0
 62
     0
 10
282.367
 20
58.1699
 30
0.0
 11
282.367
 21
59.1689
 31
0.0
  0
LINE
  8
0
 62
     0
 10
282.367
 20
59.1689
 30
0.0
 11
283.166
 21
59.1689
 31
0.0
  0
LINE
  8
0
 62
     0
 10
283.166
 20
59.1689
 30
0.0
 11
283.166
 21
62.2695
 31
0.0
  0
LINE
  8
0
 62
     0
 10
283.166
 20
62.2695
 30
0.0
 11
282.367
 21
62.2695
 31
0.0
  0
LINE
  8
0
 62
     0
 10
282.367
 20
62.2695
 30
0.0
 11
282.367
 21
68.0695
 31
0.0
  0
LINE
  8
0
 62
     0
 10
282.367
 20
68.0695
 30
0.0
 11
283.166
 21
68.0695
 31
0.0
  0
LINE
  8
0
 62
     0
 10
283.166
 20
68.0695
 30
0.0
 11
283.166
 21
71.1687
 31
0.0
  0
LINE
  8
0
 62
     0
 10
283.166
 20
71.1687
 30
0.0
 11
282.367
 21
71.1687
 31
0.0
  0
LINE
  8
0
 62
     0
 10
282.367
 20
71.1687
 30
0.0
 11
282.367
 21
72.1692
 31
0.0
  0
LINE
  8
0
 62
     0
 10
282.367
 20
72.1692
 30
0.0
 11
268.366
 21
72.1692
 31
0.0
  0
LINE
  8
0
 62
     0
 10
249.316
 20
72.1692
 30
0.0
 11
249.316
 21
71.1687
 31
0.0
  0
LINE
  8
0
 62
     0
 10
249.316
 20
71.1687
 30
0.0
 11
248.517
 21
71.1687
 31
0.0
  0
LINE
  8
0
 62
     0
 10
248.517
 20
71.1687
 30
0.0
 11
248.517
 21
68.0695
 31
0.0
  0
LINE
  8
0
 62
     0
 10
248.517
 20
68.0695
 30
0.0
 11
249.316
 21
68.0695
 31
0.0
  0
LINE
  8
0
 62
     0
 10
249.316
 20
68.0695
 30
0.0
 11
249.316
 21
62.2695
 31
0.0
  0
LINE
  8
0
 62
     0
 10
249.316
 20
62.2695
 30
0.0
 11
248.517
 21
62.2695
 31
0.0
  0
LINE
  8
0
 62
     0
 10
248.517
 20
62.2695
 30
0.0
 11
248.517
 21
59.1689
 31
0.0
  0
LINE
  8
0
 62
     0
 10
248.517
 20
59.1689
 30
0.0
 11
249.316
 21
59.1689
 31
0.0
  0
LINE
  8
0
 62
     0
 10
249.316
 20
59.1689
 30
0.0
 11
249.316
 21
58.1699
 31
0.0
  0
LINE
  8
0
 62
     0
 10
249.316
 20
58.1699
 30
0.0
 11
263.317
 21
58.1699
 31
0.0
  0
LINE
  8
0
 62
     0
 10
263.317
 20
58.1699
 30
0.0
 11
263.317
 21
59.1689
 31
0.0
  0
LINE
  8
0
 62
     0
 10
263.317
 20
59.1689
 30
0.0
 11
264.116
 21
59.1689
 31
0.0
  0
LINE
  8
0
 62
     0
 10
264.116
 20
59.1689
 30
0.0
 11
264.116
 21
62.2695
 31
0.0
  0
LINE
  8
0
 62
     0
 10
264.116
 20
62.2695
 30
0.0
 11
263.317
 21
62.2695
 31
0.0
  0
LINE
  8
0
 62
     0
 10
263.317
 20
62.2695
 30
0.0
 11
263.317
 21
68.0695
 31
0.0
  0
LINE
  8
0
 62
     0
 10
263.317
 20
68.0695
 30
0.0
 11
264.116
 21
68.0695
 31
0.0
  0
LINE
  8
0
 62
     0
 10
264.116
 20
68.0695
 30
0.0
 11
264.116
 21
71.1687
 31
0.0
  0
LINE
  8
0
 62
     0
 10
264.116
 20
71.1687
 30
0.0
 11
263.317
 21
71.1687
 31
0.0
  0
LINE
  8
0
 62
     0
 10
263.317
 20
71.1687
 30
0.0
 11
263.317
 21
72.1692
 31
0.0
  0
LINE
  8
0
 62
     0
 10
263.317
 20
72.1692
 30
0.0
 11
249.316
 21
72.1692
 31
0.0
  0
LINE
  8
0
 62
     0
 10
40.7197
 20
72.1692
 30
0.0
 11
40.7197
 21
71.1687
 31
0.0
  0
LINE
  8
0
 62
     0
 10
40.7197
 20
71.1687
 30
0.0
 11
39.9189
 21
71.1687
 31
0.0
  0
LINE
  8
0
 62
     0
 10
39.9189
 20
71.1687
 30
0.0
 11
39.9189
 21
68.0695
 31
0.0
  0
LINE
  8
0
 62
     0
 10
39.9189
 20
68.0695
 30
0.0
 11
40.7197
 21
68.0695
 31
0.0
  0
LINE
  8
0
 62
     0
 10
40.7197
 20
68.0695
 30
0.0
 11
40.7197
 21
62.2695
 31
0.0
  0
LINE
  8
0
 62
     0
 10
40.7197
 20
62.2695
 30
0.0
 11
39.9189
 21
62.2695
 31
0.0
  0
LINE
  8
0
 62
     0
 10
39.9189
 20
62.2695
 30
0.0
 11
39.9189
 21
59.1689
 31
0.0
  0
LINE
  8
0
 62
     0
 10
39.9189
 20
59.1689
 30
0.0
 11
40.7197
 21
59.1689
 31
0.0
  0
LINE
  8
0
 62
     0
 10
40.7197
 20
59.1689
 30
0.0
 11
40.7197
 21
58.1699
 31
0.0
  0
LINE
  8
0
 62
     0
 10
40.7197
 20
58.1699
 30
0.0
 11
54.719
 21
58.1699
 31
0.0
  0
LINE
  8
0
 62
     0
 10
54.719
 20
58.1699
 30
0.0
 11
54.719
 21
59.1689
 31
0.0
  0
LINE
  8
0
 62
     0
 10
54.719
 20
59.1689
 30
0.0
 11
55.5198
 21
59.1689
 31
0.0
  0
LINE
  8
0
 62
     0
 10
55.5198
 20
59.1689
 30
0.0
 11
55.5198
 21
62.2695
 31
0.0
  0
LINE
  8
0
 62
     0
 10
55.5198
 20
62.2695
 30
0.0
 11
54.719
 21
62.2695
 31
0.0
  0
LINE
  8
0
 62
     0
 10
54.719
 20
62.2695
 30
0.0
 11
54.719
 21
68.0695
 31
0.0
  0
LINE
  8
0
 62
     0
 10
54.719
 20
68.0695
 30
0.0
 11
55.5198
 21
68.0695
 31
0.0
  0
LINE
  8
0
 62
     0
 10
55.5198
 20
68.0695
 30
0.0
 11
55.5198
 21
71.1687
 31
0.0
  0
LINE
  8
0
 62
     0
 10
55.5198
 20
71.1687
 30
0.0
 11
54.719
 21
71.1687
 31
0.0
  0
LINE
  8
0
 62
     0
 10
54.719
 20
71.1687
 30
0.0
 11
54.719
 21
72.1692
 31
0.0
  0
LINE
  8
0
 62
     0
 10
54.719
 20
72.1692
 30
0.0
 11
40.7197
 21
72.1692
 31
0.0
  0
LINE
  8
0
 62
     0
 10
9.76203
 20
72.1692
 30
0.0
 11
9.76203
 21
71.1687
 31
0.0
  0
LINE
  8
0
 62
     0
 10
9.76203
 20
71.1687
 30
0.0
 11
8.96278
 21
71.1687
 31
0.0
  0
LINE
  8
0
 62
     0
 10
8.96278
 20
71.1687
 30
0.0
 11
8.96278
 21
68.0695
 31
0.0
  0
LINE
  8
0
 62
     0
 10
8.96278
 20
68.0695
 30
0.0
 11
9.76203
 21
68.0695
 31
0.0
  0
LINE
  8
0
 62
     0
 10
9.76203
 20
68.0695
 30
0.0
 11
9.76203
 21
62.2695
 31
0.0
  0
LINE
  8
0
 62
     0
 10
9.76203
 20
62.2695
 30
0.0
 11
8.96278
 21
62.2695
 31
0.0
  0
LINE
  8
0
 62
     0
 10
8.96278
 20
62.2695
 30
0.0
 11
8.96278
 21
59.1689
 31
0.0
  0
LINE
  8
0
 62
     0
 10
8.96278
 20
59.1689
 30
0.0
 11
9.76203
 21
59.1689
 31
0.0
  0
LINE
  8
0
 62
     0
 10
9.76203
 20
59.1689
 30
0.0
 11
9.76203
 21
58.1699
 31
0.0
  0
LINE
  8
0
 62
     0
 10
9.76203
 20
58.1699
 30
0.0
 11
23.7629
 21
58.1699
 31
0.0
  0
LINE
  8
0
 62
     0
 10
23.7629
 20
58.1699
 30
0.0
 11
23.7629
 21
59.1689
 31
0.0
  0
LINE
  8
0
 62
     0
 10
23.7629
 20
59.1689
 30
0.0
 11
24.5622
 21
59.1689
 31
0.0
  0
LINE
  8
0
 62
     0
 10
24.5622
 20
59.1689
 30
0.0
 11
24.5622
 21
62.2695
 31
0.0
  0
LINE
  8
0
 62
     0
 10
24.5622
 20
62.2695
 30
0.0
 11
23.7629
 21
62.2695
 31
0.0
  0
LINE
  8
0
 62
     0
 10
23.7629
 20
62.2695
 30
0.0
 11
23.7629
 21
68.0695
 31
0.0
  0
LINE
  8
0
 62
     0
 10
23.7629
 20
68.0695
 30
0.0
 11
24.5622
 21
68.0695
 31
0.0
  0
LINE
  8
0
 62
     0
 10
24.5622
 20
68.0695
 30
0.0
 11
24.5622
 21
71.1687
 31
0.0
  0
LINE
  8
0
 62
     0
 10
24.5622
 20
71.1687
 30
0.0
 11
23.7629
 21
71.1687
 31
0.0
  0
LINE
  8
0
 62
     0
 10
23.7629
 20
71.1687
 30
0.0
 11
23.7629
 21
72.1692
 31
0.0
  0
LINE
  8
0
 62
     0
 10
23.7629
 20
72.1692
 30
0.0
 11
9.76203
 21
72.1692
 31
0.0
  0
LINE
  8
0
 62
     0
 10
162.08
 20
72.9933
 30
0.0
 11
162.287
 21
72.015
 31
0.0
  0
LINE
  8
0
 62
     0
 10
162.287
 20
72.015
 30
0.0
 11
161.505
 21
71.8495
 31
0.0
  0
LINE
  8
0
 62
     0
 10
161.505
 20
71.8495
 30
0.0
 11
162.15
 21
68.8178
 31
0.0
  0
LINE
  8
0
 62
     0
 10
162.15
 20
68.8178
 30
0.0
 11
162.931
 21
68.9832
 31
0.0
  0
LINE
  8
0
 62
     0
 10
162.931
 20
68.9832
 30
0.0
 11
164.138
 21
63.3099
 31
0.0
  0
LINE
  8
0
 62
     0
 10
164.138
 20
63.3099
 30
0.0
 11
163.356
 21
63.143
 31
0.0
  0
LINE
  8
0
 62
     0
 10
163.356
 20
63.143
 30
0.0
 11
163.999
 21
60.1116
 31
0.0
  0
LINE
  8
0
 62
     0
 10
163.999
 20
60.1116
 30
0.0
 11
164.783
 21
60.2767
 31
0.0
  0
LINE
  8
0
 62
     0
 10
164.783
 20
60.2767
 30
0.0
 11
164.99
 21
59.2998
 31
0.0
  0
LINE
  8
0
 62
     0
 10
164.99
 20
59.2998
 30
0.0
 11
178.685
 21
62.2102
 31
0.0
  0
LINE
  8
0
 62
     0
 10
178.685
 20
62.2102
 30
0.0
 11
178.477
 21
63.1885
 31
0.0
  0
LINE
  8
0
 62
     0
 10
178.477
 20
63.1885
 30
0.0
 11
179.258
 21
63.3539
 31
0.0
  0
LINE
  8
0
 62
     0
 10
179.258
 20
63.3539
 30
0.0
 11
178.615
 21
66.3871
 31
0.0
  0
LINE
  8
0
 62
     0
 10
178.615
 20
66.3871
 30
0.0
 11
177.832
 21
66.2203
 31
0.0
  0
LINE
  8
0
 62
     0
 10
177.832
 20
66.2203
 30
0.0
 11
176.626
 21
71.8951
 31
0.0
  0
LINE
  8
0
 62
     0
 10
176.626
 20
71.8951
 30
0.0
 11
177.409
 21
72.0605
 31
0.0
  0
LINE
  8
0
 62
     0
 10
177.409
 20
72.0605
 30
0.0
 11
176.764
 21
75.0919
 31
0.0
  0
LINE
  8
0
 62
     0
 10
176.764
 20
75.0919
 30
0.0
 11
175.981
 21
74.9268
 31
0.0
  0
LINE
  8
0
 62
     0
 10
175.981
 20
74.9268
 30
0.0
 11
175.773
 21
75.9037
 31
0.0
  0
LINE
  8
0
 62
     0
 10
175.773
 20
75.9037
 30
0.0
 11
162.08
 21
72.9933
 31
0.0
  0
LINE
  8
0
 62
     0
 10
335.041
 20
76.9317
 30
0.0
 11
335.041
 21
75.9326
 31
0.0
  0
LINE
  8
0
 62
     0
 10
335.041
 20
75.9326
 30
0.0
 11
334.242
 21
75.9326
 31
0.0
  0
LINE
  8
0
 62
     0
 10
334.242
 20
75.9326
 30
0.0
 11
334.242
 21
72.832
 31
0.0
  0
LINE
  8
0
 62
     0
 10
334.242
 20
72.832
 30
0.0
 11
335.041
 21
72.832
 31
0.0
  0
LINE
  8
0
 62
     0
 10
335.041
 20
72.832
 30
0.0
 11
335.041
 21
67.032
 31
0.0
  0
LINE
  8
0
 62
     0
 10
335.041
 20
67.032
 30
0.0
 11
334.242
 21
67.032
 31
0.0
  0
LINE
  8
0
 62
     0
 10
334.242
 20
67.032
 30
0.0
 11
334.242
 21
63.9329
 31
0.0
  0
LINE
  8
0
 62
     0
 10
334.242
 20
63.9329
 30
0.0
 11
335.041
 21
63.9329
 31
0.0
  0
LINE
  8
0
 62
     0
 10
335.041
 20
63.9329
 30
0.0
 11
335.041
 21
62.9324
 31
0.0
  0
LINE
  8
0
 62
     0
 10
335.041
 20
62.9324
 30
0.0
 11
349.042
 21
62.9324
 31
0.0
  0
LINE
  8
0
 62
     0
 10
349.042
 20
62.9324
 30
0.0
 11
349.042
 21
63.9329
 31
0.0
  0
LINE
  8
0
 62
     0
 10
349.042
 20
63.9329
 30
0.0
 11
349.841
 21
63.9329
 31
0.0
  0
LINE
  8
0
 62
     0
 10
349.841
 20
63.9329
 30
0.0
 11
349.841
 21
67.032
 31
0.0
  0
LINE
  8
0
 62
     0
 10
349.841
 20
67.032
 30
0.0
 11
349.042
 21
67.032
 31
0.0
  0
LINE
  8
0
 62
     0
 10
349.042
 20
67.032
 30
0.0
 11
349.042
 21
72.832
 31
0.0
  0
LINE
  8
0
 62
     0
 10
349.042
 20
72.832
 30
0.0
 11
349.841
 21
72.832
 31
0.0
  0
LINE
  8
0
 62
     0
 10
349.841
 20
72.832
 30
0.0
 11
349.841
 21
75.9326
 31
0.0
  0
LINE
  8
0
 62
     0
 10
349.841
 20
75.9326
 30
0.0
 11
349.042
 21
75.9326
 31
0.0
  0
LINE
  8
0
 62
     0
 10
349.042
 20
75.9326
 30
0.0
 11
349.042
 21
76.9317
 31
0.0
  0
LINE
  8
0
 62
     0
 10
349.042
 20
76.9317
 30
0.0
 11
335.041
 21
76.9317
 31
0.0
  0
LINE
  8
0
 62
     0
 10
180.713
 20
76.9539
 30
0.0
 11
180.92
 21
75.9767
 31
0.0
  0
LINE
  8
0
 62
     0
 10
180.92
 20
75.9767
 30
0.0
 11
180.139
 21
75.8102
 31
0.0
  0
LINE
  8
0
 62
     0
 10
180.139
 20
75.8102
 30
0.0
 11
180.782
 21
72.777
 31
0.0
  0
LINE
  8
0
 62
     0
 10
180.782
 20
72.777
 30
0.0
 11
181.565
 21
72.9449
 31
0.0
  0
LINE
  8
0
 62
     0
 10
181.565
 20
72.9449
 30
0.0
 11
182.772
 21
67.2705
 31
0.0
  0
LINE
  8
0
 62
     0
 10
182.772
 20
67.2705
 30
0.0
 11
181.988
 21
67.105
 31
0.0
  0
LINE
  8
0
 62
     0
 10
181.988
 20
67.105
 30
0.0
 11
182.634
 21
64.0719
 31
0.0
  0
LINE
  8
0
 62
     0
 10
182.634
 20
64.0719
 30
0.0
 11
183.416
 21
64.2387
 31
0.0
  0
LINE
  8
0
 62
     0
 10
183.416
 20
64.2387
 30
0.0
 11
183.624
 21
63.2601
 31
0.0
  0
LINE
  8
0
 62
     0
 10
183.624
 20
63.2601
 30
0.0
 11
197.317
 21
66.1719
 31
0.0
  0
LINE
  8
0
 62
     0
 10
197.317
 20
66.1719
 30
0.0
 11
197.109
 21
67.1491
 31
0.0
  0
LINE
  8
0
 62
     0
 10
197.109
 20
67.1491
 30
0.0
 11
197.892
 21
67.3156
 31
0.0
  0
LINE
  8
0
 62
     0
 10
197.892
 20
67.3156
 30
0.0
 11
197.247
 21
70.3474
 31
0.0
  0
LINE
  8
0
 62
     0
 10
197.247
 20
70.3474
 30
0.0
 11
196.465
 21
70.1809
 31
0.0
  0
LINE
  8
0
 62
     0
 10
196.465
 20
70.1809
 30
0.0
 11
195.26
 21
75.8543
 31
0.0
  0
LINE
  8
0
 62
     0
 10
195.26
 20
75.8543
 30
0.0
 11
196.041
 21
76.0208
 31
0.0
  0
LINE
  8
0
 62
     0
 10
196.041
 20
76.0208
 30
0.0
 11
195.398
 21
79.054
 31
0.0
  0
LINE
  8
0
 62
     0
 10
195.398
 20
79.054
 30
0.0
 11
194.615
 21
78.8871
 31
0.0
  0
LINE
  8
0
 62
     0
 10
194.615
 20
78.8871
 30
0.0
 11
194.407
 21
79.8657
 31
0.0
  0
LINE
  8
0
 62
     0
 10
194.407
 20
79.8657
 30
0.0
 11
180.713
 21
76.9539
 31
0.0
  0
LINE
  8
0
 62
     0
 10
119.967
 20
80.0294
 30
0.0
 11
119.185
 21
80.1963
 31
0.0
  0
LINE
  8
0
 62
     0
 10
119.185
 20
80.1963
 30
0.0
 11
118.539
 21
77.1631
 31
0.0
  0
LINE
  8
0
 62
     0
 10
118.539
 20
77.1631
 30
0.0
 11
119.323
 21
76.998
 31
0.0
  0
LINE
  8
0
 62
     0
 10
119.323
 20
76.998
 30
0.0
 11
118.117
 21
71.3246
 31
0.0
  0
LINE
  8
0
 62
     0
 10
118.117
 20
71.3246
 30
0.0
 11
117.333
 21
71.4897
 31
0.0
  0
LINE
  8
0
 62
     0
 10
117.333
 20
71.4897
 30
0.0
 11
116.689
 21
68.4583
 31
0.0
  0
LINE
  8
0
 62
     0
 10
116.689
 20
68.4583
 30
0.0
 11
117.471
 21
68.2914
 31
0.0
  0
LINE
  8
0
 62
     0
 10
117.471
 20
68.2914
 30
0.0
 11
117.264
 21
67.3132
 31
0.0
  0
LINE
  8
0
 62
     0
 10
117.264
 20
67.3132
 30
0.0
 11
130.958
 21
64.4042
 31
0.0
  0
LINE
  8
0
 62
     0
 10
130.958
 20
64.4042
 30
0.0
 11
131.166
 21
65.381
 31
0.0
  0
LINE
  8
0
 62
     0
 10
131.166
 20
65.381
 30
0.0
 11
131.948
 21
65.2141
 31
0.0
  0
LINE
  8
0
 62
     0
 10
131.948
 20
65.2141
 30
0.0
 11
132.592
 21
68.2473
 31
0.0
  0
LINE
  8
0
 62
     0
 10
132.592
 20
68.2473
 30
0.0
 11
131.811
 21
68.4142
 31
0.0
  0
LINE
  8
0
 62
     0
 10
131.811
 20
68.4142
 30
0.0
 11
133.017
 21
74.0862
 31
0.0
  0
LINE
  8
0
 62
     0
 10
133.017
 20
74.0862
 30
0.0
 11
133.798
 21
73.9207
 31
0.0
  0
LINE
  8
0
 62
     0
 10
133.798
 20
73.9207
 30
0.0
 11
134.444
 21
76.9525
 31
0.0
  0
LINE
  8
0
 62
     0
 10
134.444
 20
76.9525
 30
0.0
 11
133.66
 21
77.1179
 31
0.0
  0
LINE
  8
0
 62
     0
 10
133.66
 20
77.1179
 30
0.0
 11
133.868
 21
78.0976
 31
0.0
  0
LINE
  8
0
 62
     0
 10
133.868
 20
78.0976
 30
0.0
 11
120.174
 21
81.008
 31
0.0
  0
LINE
  8
0
 62
     0
 10
120.174
 20
81.008
 30
0.0
 11
119.967
 21
80.0294
 31
0.0
  0
LINE
  8
0
 62
     0
 10
199.347
 20
80.917
 30
0.0
 11
199.555
 21
79.9373
 31
0.0
  0
LINE
  8
0
 62
     0
 10
199.555
 20
79.9373
 30
0.0
 11
198.772
 21
79.7705
 31
0.0
  0
LINE
  8
0
 62
     0
 10
198.772
 20
79.7705
 30
0.0
 11
199.416
 21
76.7387
 31
0.0
  0
LINE
  8
0
 62
     0
 10
199.416
 20
76.7387
 30
0.0
 11
200.2
 21
76.9041
 31
0.0
  0
LINE
  8
0
 62
     0
 10
200.2
 20
76.9041
 30
0.0
 11
201.404
 21
71.2308
 31
0.0
  0
LINE
  8
0
 62
     0
 10
201.404
 20
71.2308
 30
0.0
 11
200.623
 21
71.0653
 31
0.0
  0
LINE
  8
0
 62
     0
 10
200.623
 20
71.0653
 30
0.0
 11
201.267
 21
68.0325
 31
0.0
  0
LINE
  8
0
 62
     0
 10
201.267
 20
68.0325
 30
0.0
 11
202.049
 21
68.199
 31
0.0
  0
LINE
  8
0
 62
     0
 10
202.049
 20
68.199
 30
0.0
 11
202.257
 21
67.2222
 31
0.0
  0
LINE
  8
0
 62
     0
 10
202.257
 20
67.2222
 30
0.0
 11
215.951
 21
70.1312
 31
0.0
  0
LINE
  8
0
 62
     0
 10
215.951
 20
70.1312
 30
0.0
 11
215.743
 21
71.1108
 31
0.0
  0
LINE
  8
0
 62
     0
 10
215.743
 20
71.1108
 30
0.0
 11
216.527
 21
71.2763
 31
0.0
  0
LINE
  8
0
 62
     0
 10
216.527
 20
71.2763
 30
0.0
 11
215.882
 21
74.3081
 31
0.0
  0
LINE
  8
0
 62
     0
 10
215.882
 20
74.3081
 30
0.0
 11
215.099
 21
74.1426
 31
0.0
  0
LINE
  8
0
 62
     0
 10
215.099
 20
74.1426
 30
0.0
 11
213.894
 21
79.816
 31
0.0
  0
LINE
  8
0
 62
     0
 10
213.894
 20
79.816
 30
0.0
 11
214.675
 21
79.9814
 31
0.0
  0
LINE
  8
0
 62
     0
 10
214.675
 20
79.9814
 30
0.0
 11
214.031
 21
83.0143
 31
0.0
  0
LINE
  8
0
 62
     0
 10
214.031
 20
83.0143
 30
0.0
 11
213.249
 21
82.8477
 31
0.0
  0
LINE
  8
0
 62
     0
 10
213.249
 20
82.8477
 30
0.0
 11
213.041
 21
83.826
 31
0.0
  0
LINE
  8
0
 62
     0
 10
213.041
 20
83.826
 30
0.0
 11
199.347
 21
80.917
 31
0.0
  0
LINE
  8
0
 62
     0
 10
101.333
 20
83.99
 30
0.0
 11
100.55
 21
84.1569
 31
0.0
  0
LINE
  8
0
 62
     0
 10
100.55
 20
84.1569
 30
0.0
 11
99.9049
 21
81.1237
 31
0.0
  0
LINE
  8
0
 62
     0
 10
99.9049
 20
81.1237
 30
0.0
 11
100.689
 21
80.9583
 31
0.0
  0
LINE
  8
0
 62
     0
 10
100.689
 20
80.9583
 30
0.0
 11
99.4819
 21
75.2849
 31
0.0
  0
LINE
  8
0
 62
     0
 10
99.4819
 20
75.2849
 30
0.0
 11
98.7005
 21
75.4518
 31
0.0
  0
LINE
  8
0
 62
     0
 10
98.7005
 20
75.4518
 30
0.0
 11
98.0556
 21
72.42
 31
0.0
  0
LINE
  8
0
 62
     0
 10
98.0556
 20
72.42
 30
0.0
 11
98.8385
 21
72.2521
 31
0.0
  0
LINE
  8
0
 62
     0
 10
98.8385
 20
72.2521
 30
0.0
 11
98.6303
 21
71.2749
 31
0.0
  0
LINE
  8
0
 62
     0
 10
98.6303
 20
71.2749
 30
0.0
 11
112.324
 21
68.363
 31
0.0
  0
LINE
  8
0
 62
     0
 10
112.324
 20
68.363
 30
0.0
 11
112.532
 21
69.3416
 31
0.0
  0
LINE
  8
0
 62
     0
 10
112.532
 20
69.3416
 30
0.0
 11
113.315
 21
69.1748
 31
0.0
  0
LINE
  8
0
 62
     0
 10
113.315
 20
69.1748
 30
0.0
 11
113.96
 21
72.208
 31
0.0
  0
LINE
  8
0
 62
     0
 10
113.96
 20
72.208
 30
0.0
 11
113.177
 21
72.3745
 31
0.0
  0
LINE
  8
0
 62
     0
 10
113.177
 20
72.3745
 30
0.0
 11
114.383
 21
78.0479
 31
0.0
  0
LINE
  8
0
 62
     0
 10
114.383
 20
78.0479
 30
0.0
 11
115.165
 21
77.8813
 31
0.0
  0
LINE
  8
0
 62
     0
 10
115.165
 20
77.8813
 30
0.0
 11
115.809
 21
80.9128
 31
0.0
  0
LINE
  8
0
 62
     0
 10
115.809
 20
80.9128
 30
0.0
 11
115.028
 21
81.0796
 31
0.0
  0
LINE
  8
0
 62
     0
 10
115.028
 20
81.0796
 30
0.0
 11
115.234
 21
82.0579
 31
0.0
  0
LINE
  8
0
 62
     0
 10
115.234
 20
82.0579
 30
0.0
 11
101.541
 21
84.9683
 31
0.0
  0
LINE
  8
0
 62
     0
 10
101.541
 20
84.9683
 30
0.0
 11
101.333
 21
83.99
 31
0.0
  0
LINE
  8
0
 62
     0
 10
217.981
 20
84.8748
 30
0.0
 11
218.189
 21
83.8976
 31
0.0
  0
LINE
  8
0
 62
     0
 10
218.189
 20
83.8976
 30
0.0
 11
217.405
 21
83.7311
 31
0.0
  0
LINE
  8
0
 62
     0
 10
217.405
 20
83.7311
 30
0.0
 11
218.051
 21
80.6993
 31
0.0
  0
LINE
  8
0
 62
     0
 10
218.051
 20
80.6993
 30
0.0
 11
218.833
 21
80.8662
 31
0.0
  0
LINE
  8
0
 62
     0
 10
218.833
 20
80.8662
 30
0.0
 11
220.038
 21
75.1928
 31
0.0
  0
LINE
  8
0
 62
     0
 10
220.038
 20
75.1928
 30
0.0
 11
219.257
 21
75.026
 31
0.0
  0
LINE
  8
0
 62
     0
 10
219.257
 20
75.026
 30
0.0
 11
219.901
 21
71.9928
 31
0.0
  0
LINE
  8
0
 62
     0
 10
219.901
 20
71.9928
 30
0.0
 11
220.683
 21
72.161
 31
0.0
  0
LINE
  8
0
 62
     0
 10
220.683
 20
72.161
 30
0.0
 11
220.891
 21
71.181
 31
0.0
  0
LINE
  8
0
 62
     0
 10
220.891
 20
71.181
 30
0.0
 11
234.585
 21
74.0929
 31
0.0
  0
LINE
  8
0
 62
     0
 10
234.585
 20
74.0929
 30
0.0
 11
234.378
 21
75.0701
 31
0.0
  0
LINE
  8
0
 62
     0
 10
234.378
 20
75.0701
 30
0.0
 11
235.16
 21
75.2369
 31
0.0
  0
LINE
  8
0
 62
     0
 10
235.16
 20
75.2369
 30
0.0
 11
234.516
 21
78.2697
 31
0.0
  0
LINE
  8
0
 62
     0
 10
234.516
 20
78.2697
 30
0.0
 11
233.732
 21
78.1032
 31
0.0
  0
LINE
  8
0
 62
     0
 10
233.732
 20
78.1032
 30
0.0
 11
232.526
 21
83.7766
 31
0.0
  0
LINE
  8
0
 62
     0
 10
232.526
 20
83.7766
 30
0.0
 11
233.31
 21
83.9417
 31
0.0
  0
LINE
  8
0
 62
     0
 10
233.31
 20
83.9417
 30
0.0
 11
232.664
 21
86.9749
 31
0.0
  0
LINE
  8
0
 62
     0
 10
232.664
 20
86.9749
 30
0.0
 11
231.883
 21
86.808
 31
0.0
  0
LINE
  8
0
 62
     0
 10
231.883
 20
86.808
 30
0.0
 11
231.674
 21
87.7866
 31
0.0
  0
LINE
  8
0
 62
     0
 10
231.674
 20
87.7866
 30
0.0
 11
217.981
 21
84.8748
 31
0.0
  0
LINE
  8
0
 62
     0
 10
82.6989
 20
87.9521
 30
0.0
 11
81.9161
 21
88.1172
 31
0.0
  0
LINE
  8
0
 62
     0
 10
81.9161
 20
88.1172
 30
0.0
 11
81.2726
 21
85.0858
 31
0.0
  0
LINE
  8
0
 62
     0
 10
81.2726
 20
85.0858
 30
0.0
 11
82.054
 21
84.9189
 31
0.0
  0
LINE
  8
0
 62
     0
 10
82.054
 20
84.9189
 30
0.0
 11
80.8482
 21
79.2455
 31
0.0
  0
LINE
  8
0
 62
     0
 10
80.8482
 20
79.2455
 30
0.0
 11
80.0668
 21
79.411
 31
0.0
  0
LINE
  8
0
 62
     0
 10
80.0668
 20
79.411
 30
0.0
 11
79.4219
 21
76.3792
 31
0.0
  0
LINE
  8
0
 62
     0
 10
79.4219
 20
76.3792
 30
0.0
 11
80.2047
 21
76.2138
 31
0.0
  0
LINE
  8
0
 62
     0
 10
80.2047
 20
76.2138
 30
0.0
 11
79.9966
 21
75.2355
 31
0.0
  0
LINE
  8
0
 62
     0
 10
79.9966
 20
75.2355
 30
0.0
 11
93.69
 21
72.3251
 31
0.0
  0
LINE
  8
0
 62
     0
 10
93.69
 20
72.3251
 30
0.0
 11
93.8982
 21
73.3019
 31
0.0
  0
LINE
  8
0
 62
     0
 10
93.8982
 20
73.3019
 30
0.0
 11
94.681
 21
73.1365
 31
0.0
  0
LINE
  8
0
 62
     0
 10
94.681
 20
73.1365
 30
0.0
 11
95.3258
 21
76.1683
 31
0.0
  0
LINE
  8
0
 62
     0
 10
95.3258
 20
76.1683
 30
0.0
 11
94.543
 21
76.3351
 31
0.0
  0
LINE
  8
0
 62
     0
 10
94.543
 20
76.3351
 30
0.0
 11
95.7488
 21
82.0085
 31
0.0
  0
LINE
  8
0
 62
     0
 10
95.7488
 20
82.0085
 30
0.0
 11
96.5316
 21
81.8416
 31
0.0
  0
LINE
  8
0
 62
     0
 10
96.5316
 20
81.8416
 30
0.0
 11
97.1751
 21
84.8748
 31
0.0
  0
LINE
  8
0
 62
     0
 10
97.1751
 20
84.8748
 30
0.0
 11
96.3937
 21
85.0403
 31
0.0
  0
LINE
  8
0
 62
     0
 10
96.3937
 20
85.0403
 30
0.0
 11
96.6018
 21
86.0185
 31
0.0
  0
LINE
  8
0
 62
     0
 10
96.6018
 20
86.0185
 30
0.0
 11
82.907
 21
88.9289
 31
0.0
  0
LINE
  8
0
 62
     0
 10
82.907
 20
88.9289
 30
0.0
 11
82.6989
 21
87.9521
 31
0.0
  0
LINE
  8
0
 62
     0
 10
236.615
 20
88.8365
 30
0.0
 11
236.821
 21
87.8582
 31
0.0
  0
LINE
  8
0
 62
     0
 10
236.821
 20
87.8582
 30
0.0
 11
236.04
 21
87.6928
 31
0.0
  0
LINE
  8
0
 62
     0
 10
236.04
 20
87.6928
 30
0.0
 11
236.684
 21
84.6596
 31
0.0
  0
LINE
  8
0
 62
     0
 10
236.684
 20
84.6596
 30
0.0
 11
237.466
 21
84.8265
 31
0.0
  0
LINE
  8
0
 62
     0
 10
237.466
 20
84.8265
 30
0.0
 11
238.672
 21
79.1517
 31
0.0
  0
LINE
  8
0
 62
     0
 10
238.672
 20
79.1517
 30
0.0
 11
237.889
 21
78.9862
 31
0.0
  0
LINE
  8
0
 62
     0
 10
237.889
 20
78.9862
 30
0.0
 11
238.534
 21
75.9548
 31
0.0
  0
LINE
  8
0
 62
     0
 10
238.534
 20
75.9548
 30
0.0
 11
239.317
 21
76.1199
 31
0.0
  0
LINE
  8
0
 62
     0
 10
239.317
 20
76.1199
 30
0.0
 11
239.525
 21
75.1431
 31
0.0
  0
LINE
  8
0
 62
     0
 10
239.525
 20
75.1431
 30
0.0
 11
253.219
 21
78.0535
 31
0.0
  0
LINE
  8
0
 62
     0
 10
253.219
 20
78.0535
 30
0.0
 11
253.01
 21
79.0317
 31
0.0
  0
LINE
  8
0
 62
     0
 10
253.01
 20
79.0317
 30
0.0
 11
253.793
 21
79.1972
 31
0.0
  0
LINE
  8
0
 62
     0
 10
253.793
 20
79.1972
 30
0.0
 11
253.147
 21
82.2318
 31
0.0
  0
LINE
  8
0
 62
     0
 10
253.147
 20
82.2318
 30
0.0
 11
252.367
 21
82.0635
 31
0.0
  0
LINE
  8
0
 62
     0
 10
252.367
 20
82.0635
 30
0.0
 11
251.16
 21
87.7369
 31
0.0
  0
LINE
  8
0
 62
     0
 10
251.16
 20
87.7369
 30
0.0
 11
251.944
 21
87.9038
 31
0.0
  0
LINE
  8
0
 62
     0
 10
251.944
 20
87.9038
 30
0.0
 11
251.299
 21
90.9355
 31
0.0
  0
LINE
  8
0
 62
     0
 10
251.299
 20
90.9355
 30
0.0
 11
250.516
 21
90.7701
 31
0.0
  0
LINE
  8
0
 62
     0
 10
250.516
 20
90.7701
 30
0.0
 11
250.308
 21
91.7469
 31
0.0
  0
LINE
  8
0
 62
     0
 10
250.308
 20
91.7469
 30
0.0
 11
236.615
 21
88.8365
 31
0.0
  0
LINE
  8
0
 62
     0
 10
64.0652
 20
91.911
 30
0.0
 11
63.2837
 21
92.0778
 31
0.0
  0
LINE
  8
0
 62
     0
 10
63.2837
 20
92.0778
 30
0.0
 11
62.6389
 21
89.0461
 31
0.0
  0
LINE
  8
0
 62
     0
 10
62.6389
 20
89.0461
 30
0.0
 11
63.4213
 21
88.8792
 31
0.0
  0
LINE
  8
0
 62
     0
 10
63.4213
 20
88.8792
 30
0.0
 11
62.2155
 21
83.2058
 31
0.0
  0
LINE
  8
0
 62
     0
 10
62.2155
 20
83.2058
 30
0.0
 11
61.4331
 21
83.3727
 31
0.0
  0
LINE
  8
0
 62
     0
 10
61.4331
 20
83.3727
 30
0.0
 11
60.7882
 21
80.3409
 31
0.0
  0
LINE
  8
0
 62
     0
 10
60.7882
 20
80.3409
 30
0.0
 11
61.5707
 21
80.1744
 31
0.0
  0
LINE
  8
0
 62
     0
 10
61.5707
 20
80.1744
 30
0.0
 11
61.3625
 21
79.1958
 31
0.0
  0
LINE
  8
0
 62
     0
 10
61.3625
 20
79.1958
 30
0.0
 11
75.0563
 21
76.2854
 31
0.0
  0
LINE
  8
0
 62
     0
 10
75.0563
 20
76.2854
 30
0.0
 11
75.2644
 21
77.264
 31
0.0
  0
LINE
  8
0
 62
     0
 10
75.2644
 20
77.264
 30
0.0
 11
76.0469
 21
77.0971
 31
0.0
  0
LINE
  8
0
 62
     0
 10
76.0469
 20
77.0971
 30
0.0
 11
76.6921
 21
80.1289
 31
0.0
  0
LINE
  8
0
 62
     0
 10
76.6921
 20
80.1289
 30
0.0
 11
75.9093
 21
80.2954
 31
0.0
  0
LINE
  8
0
 62
     0
 10
75.9093
 20
80.2954
 30
0.0
 11
77.1151
 21
85.9688
 31
0.0
  0
LINE
  8
0
 62
     0
 10
77.1151
 20
85.9688
 30
0.0
 11
77.8979
 21
85.8023
 31
0.0
  0
LINE
  8
0
 62
     0
 10
77.8979
 20
85.8023
 30
0.0
 11
78.5428
 21
88.834
 31
0.0
  0
LINE
  8
0
 62
     0
 10
78.5428
 20
88.834
 30
0.0
 11
77.76
 21
89.002
 31
0.0
  0
LINE
  8
0
 62
     0
 10
77.76
 20
89.002
 30
0.0
 11
77.9681
 21
89.9791
 31
0.0
  0
LINE
  8
0
 62
     0
 10
77.9681
 20
89.9791
 30
0.0
 11
64.2729
 21
92.891
 31
0.0
  0
LINE
  8
0
 62
     0
 10
64.2729
 20
92.891
 30
0.0
 11
64.0652
 21
91.911
 31
0.0
  0
LINE
  8
0
 62
     0
 10
301.705
 20
91.2192
 30
0.0
 11
301.705
 21
90.2187
 31
0.0
  0
LINE
  8
0
 62
     0
 10
301.705
 20
90.2187
 30
0.0
 11
300.904
 21
90.2187
 31
0.0
  0
LINE
  8
0
 62
     0
 10
300.904
 20
90.2187
 30
0.0
 11
300.904
 21
87.1195
 31
0.0
  0
LINE
  8
0
 62
     0
 10
300.904
 20
87.1195
 30
0.0
 11
301.705
 21
87.1195
 31
0.0
  0
LINE
  8
0
 62
     0
 10
301.705
 20
87.1195
 30
0.0
 11
301.705
 21
81.3195
 31
0.0
  0
LINE
  8
0
 62
     0
 10
301.705
 20
81.3195
 30
0.0
 11
300.904
 21
81.3195
 31
0.0
  0
LINE
  8
0
 62
     0
 10
300.904
 20
81.3195
 30
0.0
 11
300.904
 21
78.219
 31
0.0
  0
LINE
  8
0
 62
     0
 10
300.904
 20
78.219
 30
0.0
 11
301.705
 21
78.219
 31
0.0
  0
LINE
  8
0
 62
     0
 10
301.705
 20
78.219
 30
0.0
 11
301.705
 21
77.2199
 31
0.0
  0
LINE
  8
0
 62
     0
 10
301.705
 20
77.2199
 30
0.0
 11
315.704
 21
77.2199
 31
0.0
  0
LINE
  8
0
 62
     0
 10
315.704
 20
77.2199
 30
0.0
 11
315.704
 21
78.219
 31
0.0
  0
LINE
  8
0
 62
     0
 10
315.704
 20
78.219
 30
0.0
 11
316.505
 21
78.219
 31
0.0
  0
LINE
  8
0
 62
     0
 10
316.505
 20
78.219
 30
0.0
 11
316.505
 21
81.3195
 31
0.0
  0
LINE
  8
0
 62
     0
 10
316.505
 20
81.3195
 30
0.0
 11
315.704
 21
81.3195
 31
0.0
  0
LINE
  8
0
 62
     0
 10
315.704
 20
81.3195
 30
0.0
 11
315.704
 21
87.1195
 31
0.0
  0
LINE
  8
0
 62
     0
 10
315.704
 20
87.1195
 30
0.0
 11
316.505
 21
87.1195
 31
0.0
  0
LINE
  8
0
 62
     0
 10
316.505
 20
87.1195
 30
0.0
 11
316.505
 21
90.2187
 31
0.0
  0
LINE
  8
0
 62
     0
 10
316.505
 20
90.2187
 30
0.0
 11
315.704
 21
90.2187
 31
0.0
  0
LINE
  8
0
 62
     0
 10
315.704
 20
90.2187
 30
0.0
 11
315.704
 21
91.2192
 31
0.0
  0
LINE
  8
0
 62
     0
 10
315.704
 20
91.2192
 30
0.0
 11
301.705
 21
91.2192
 31
0.0
  0
LINE
  8
0
 62
     0
 10
277.891
 20
91.2192
 30
0.0
 11
277.891
 21
90.2187
 31
0.0
  0
LINE
  8
0
 62
     0
 10
277.891
 20
90.2187
 30
0.0
 11
277.092
 21
90.2187
 31
0.0
  0
LINE
  8
0
 62
     0
 10
277.092
 20
90.2187
 30
0.0
 11
277.092
 21
87.1195
 31
0.0
  0
LINE
  8
0
 62
     0
 10
277.092
 20
87.1195
 30
0.0
 11
277.891
 21
87.1195
 31
0.0
  0
LINE
  8
0
 62
     0
 10
277.891
 20
87.1195
 30
0.0
 11
277.891
 21
81.3195
 31
0.0
  0
LINE
  8
0
 62
     0
 10
277.891
 20
81.3195
 30
0.0
 11
277.092
 21
81.3195
 31
0.0
  0
LINE
  8
0
 62
     0
 10
277.092
 20
81.3195
 30
0.0
 11
277.092
 21
78.219
 31
0.0
  0
LINE
  8
0
 62
     0
 10
277.092
 20
78.219
 30
0.0
 11
277.891
 21
78.219
 31
0.0
  0
LINE
  8
0
 62
     0
 10
277.891
 20
78.219
 30
0.0
 11
277.891
 21
77.2199
 31
0.0
  0
LINE
  8
0
 62
     0
 10
277.891
 20
77.2199
 30
0.0
 11
291.892
 21
77.2199
 31
0.0
  0
LINE
  8
0
 62
     0
 10
291.892
 20
77.2199
 30
0.0
 11
291.892
 21
78.219
 31
0.0
  0
LINE
  8
0
 62
     0
 10
291.892
 20
78.219
 30
0.0
 11
292.691
 21
78.219
 31
0.0
  0
LINE
  8
0
 62
     0
 10
292.691
 20
78.219
 30
0.0
 11
292.691
 21
81.3195
 31
0.0
  0
LINE
  8
0
 62
     0
 10
292.691
 20
81.3195
 30
0.0
 11
291.892
 21
81.3195
 31
0.0
  0
LINE
  8
0
 62
     0
 10
291.892
 20
81.3195
 30
0.0
 11
291.892
 21
87.1195
 31
0.0
  0
LINE
  8
0
 62
     0
 10
291.892
 20
87.1195
 30
0.0
 11
292.691
 21
87.1195
 31
0.0
  0
LINE
  8
0
 62
     0
 10
292.691
 20
87.1195
 30
0.0
 11
292.691
 21
90.2187
 31
0.0
  0
LINE
  8
0
 62
     0
 10
292.691
 20
90.2187
 30
0.0
 11
291.892
 21
90.2187
 31
0.0
  0
LINE
  8
0
 62
     0
 10
291.892
 20
90.2187
 30
0.0
 11
291.892
 21
91.2192
 31
0.0
  0
LINE
  8
0
 62
     0
 10
291.892
 20
91.2192
 30
0.0
 11
277.891
 21
91.2192
 31
0.0
  0
LINE
  8
0
 62
     0
 10
258.841
 20
91.2192
 30
0.0
 11
258.841
 21
90.2187
 31
0.0
  0
LINE
  8
0
 62
     0
 10
258.841
 20
90.2187
 30
0.0
 11
258.042
 21
90.2187
 31
0.0
  0
LINE
  8
0
 62
     0
 10
258.042
 20
90.2187
 30
0.0
 11
258.042
 21
87.1195
 31
0.0
  0
LINE
  8
0
 62
     0
 10
258.042
 20
87.1195
 30
0.0
 11
258.841
 21
87.1195
 31
0.0
  0
LINE
  8
0
 62
     0
 10
258.841
 20
87.1195
 30
0.0
 11
258.841
 21
81.3195
 31
0.0
  0
LINE
  8
0
 62
     0
 10
258.841
 20
81.3195
 30
0.0
 11
258.042
 21
81.3195
 31
0.0
  0
LINE
  8
0
 62
     0
 10
258.042
 20
81.3195
 30
0.0
 11
258.042
 21
78.219
 31
0.0
  0
LINE
  8
0
 62
     0
 10
258.042
 20
78.219
 30
0.0
 11
258.841
 21
78.219
 31
0.0
  0
LINE
  8
0
 62
     0
 10
258.841
 20
78.219
 30
0.0
 11
258.841
 21
77.2199
 31
0.0
  0
LINE
  8
0
 62
     0
 10
258.841
 20
77.2199
 30
0.0
 11
272.842
 21
77.2199
 31
0.0
  0
LINE
  8
0
 62
     0
 10
272.842
 20
77.2199
 30
0.0
 11
272.842
 21
78.219
 31
0.0
  0
LINE
  8
0
 62
     0
 10
272.842
 20
78.219
 30
0.0
 11
273.641
 21
78.219
 31
0.0
  0
LINE
  8
0
 62
     0
 10
273.641
 20
78.219
 30
0.0
 11
273.641
 21
81.3195
 31
0.0
  0
LINE
  8
0
 62
     0
 10
273.641
 20
81.3195
 30
0.0
 11
272.842
 21
81.3195
 31
0.0
  0
LINE
  8
0
 62
     0
 10
272.842
 20
81.3195
 30
0.0
 11
272.842
 21
87.1195
 31
0.0
  0
LINE
  8
0
 62
     0
 10
272.842
 20
87.1195
 30
0.0
 11
273.641
 21
87.1195
 31
0.0
  0
LINE
  8
0
 62
     0
 10
273.641
 20
87.1195
 30
0.0
 11
273.641
 21
90.2187
 31
0.0
  0
LINE
  8
0
 62
     0
 10
273.641
 20
90.2187
 30
0.0
 11
272.842
 21
90.2187
 31
0.0
  0
LINE
  8
0
 62
     0
 10
272.842
 20
90.2187
 30
0.0
 11
272.842
 21
91.2192
 31
0.0
  0
LINE
  8
0
 62
     0
 10
272.842
 20
91.2192
 30
0.0
 11
258.841
 21
91.2192
 31
0.0
  0
LINE
  8
0
 62
     0
 10
40.7197
 20
91.2192
 30
0.0
 11
40.7197
 21
90.2187
 31
0.0
  0
LINE
  8
0
 62
     0
 10
40.7197
 20
90.2187
 30
0.0
 11
39.9189
 21
90.2187
 31
0.0
  0
LINE
  8
0
 62
     0
 10
39.9189
 20
90.2187
 30
0.0
 11
39.9189
 21
87.1195
 31
0.0
  0
LINE
  8
0
 62
     0
 10
39.9189
 20
87.1195
 30
0.0
 11
40.7197
 21
87.1195
 31
0.0
  0
LINE
  8
0
 62
     0
 10
40.7197
 20
87.1195
 30
0.0
 11
40.7197
 21
81.3195
 31
0.0
  0
LINE
  8
0
 62
     0
 10
40.7197
 20
81.3195
 30
0.0
 11
39.9189
 21
81.3195
 31
0.0
  0
LINE
  8
0
 62
     0
 10
39.9189
 20
81.3195
 30
0.0
 11
39.9189
 21
78.219
 31
0.0
  0
LINE
  8
0
 62
     0
 10
39.9189
 20
78.219
 30
0.0
 11
40.7197
 21
78.219
 31
0.0
  0
LINE
  8
0
 62
     0
 10
40.7197
 20
78.219
 30
0.0
 11
40.7197
 21
77.2199
 31
0.0
  0
LINE
  8
0
 62
     0
 10
40.7197
 20
77.2199
 30
0.0
 11
54.719
 21
77.2199
 31
0.0
  0
LINE
  8
0
 62
     0
 10
54.719
 20
77.2199
 30
0.0
 11
54.719
 21
78.219
 31
0.0
  0
LINE
  8
0
 62
     0
 10
54.719
 20
78.219
 30
0.0
 11
55.5198
 21
78.219
 31
0.0
  0
LINE
  8
0
 62
     0
 10
55.5198
 20
78.219
 30
0.0
 11
55.5198
 21
81.3195
 31
0.0
  0
LINE
  8
0
 62
     0
 10
55.5198
 20
81.3195
 30
0.0
 11
54.719
 21
81.3195
 31
0.0
  0
LINE
  8
0
 62
     0
 10
54.719
 20
81.3195
 30
0.0
 11
54.719
 21
87.1195
 31
0.0
  0
LINE
  8
0
 62
     0
 10
54.719
 20
87.1195
 30
0.0
 11
55.5198
 21
87.1195
 31
0.0
  0
LINE
  8
0
 62
     0
 10
55.5198
 20
87.1195
 30
0.0
 11
55.5198
 21
90.2187
 31
0.0
  0
LINE
  8
0
 62
     0
 10
55.5198
 20
90.2187
 30
0.0
 11
54.719
 21
90.2187
 31
0.0
  0
LINE
  8
0
 62
     0
 10
54.719
 20
90.2187
 30
0.0
 11
54.719
 21
91.2192
 31
0.0
  0
LINE
  8
0
 62
     0
 10
54.719
 20
91.2192
 30
0.0
 11
40.7197
 21
91.2192
 31
0.0
  0
LINE
  8
0
 62
     0
 10
16.9072
 20
91.2192
 30
0.0
 11
16.9072
 21
90.2187
 31
0.0
  0
LINE
  8
0
 62
     0
 10
16.9072
 20
90.2187
 30
0.0
 11
16.1065
 21
90.2187
 31
0.0
  0
LINE
  8
0
 62
     0
 10
16.1065
 20
90.2187
 30
0.0
 11
16.1065
 21
87.1195
 31
0.0
  0
LINE
  8
0
 62
     0
 10
16.1065
 20
87.1195
 30
0.0
 11
16.9072
 21
87.1195
 31
0.0
  0
LINE
  8
0
 62
     0
 10
16.9072
 20
87.1195
 30
0.0
 11
16.9072
 21
81.3195
 31
0.0
  0
LINE
  8
0
 62
     0
 10
16.9072
 20
81.3195
 30
0.0
 11
16.1065
 21
81.3195
 31
0.0
  0
LINE
  8
0
 62
     0
 10
16.1065
 20
81.3195
 30
0.0
 11
16.1065
 21
78.219
 31
0.0
  0
LINE
  8
0
 62
     0
 10
16.1065
 20
78.219
 30
0.0
 11
16.9072
 21
78.219
 31
0.0
  0
LINE
  8
0
 62
     0
 10
16.9072
 20
78.219
 30
0.0
 11
16.9072
 21
77.2199
 31
0.0
  0
LINE
  8
0
 62
     0
 10
16.9072
 20
77.2199
 30
0.0
 11
30.9066
 21
77.2199
 31
0.0
  0
LINE
  8
0
 62
     0
 10
30.9066
 20
77.2199
 30
0.0
 11
30.9066
 21
78.219
 31
0.0
  0
LINE
  8
0
 62
     0
 10
30.9066
 20
78.219
 30
0.0
 11
31.7059
 21
78.219
 31
0.0
  0
LINE
  8
0
 62
     0
 10
31.7059
 20
78.219
 30
0.0
 11
31.7059
 21
81.3195
 31
0.0
  0
LINE
  8
0
 62
     0
 10
31.7059
 20
81.3195
 30
0.0
 11
30.9066
 21
81.3195
 31
0.0
  0
LINE
  8
0
 62
     0
 10
30.9066
 20
81.3195
 30
0.0
 11
30.9066
 21
87.1195
 31
0.0
  0
LINE
  8
0
 62
     0
 10
30.9066
 20
87.1195
 30
0.0
 11
31.7059
 21
87.1195
 31
0.0
  0
LINE
  8
0
 62
     0
 10
31.7059
 20
87.1195
 30
0.0
 11
31.7059
 21
90.2187
 31
0.0
  0
LINE
  8
0
 62
     0
 10
31.7059
 20
90.2187
 30
0.0
 11
30.9066
 21
90.2187
 31
0.0
  0
LINE
  8
0
 62
     0
 10
30.9066
 20
90.2187
 30
0.0
 11
30.9066
 21
91.2192
 31
0.0
  0
LINE
  8
0
 62
     0
 10
30.9066
 20
91.2192
 30
0.0
 11
16.9072
 21
91.2192
 31
0.0
  0
LINE
  8
0
 62
     0
 10
167.436
 20
93.6075
 30
0.0
 11
167.644
 21
92.6289
 31
0.0
  0
LINE
  8
0
 62
     0
 10
167.644
 20
92.6289
 30
0.0
 11
166.861
 21
92.4638
 31
0.0
  0
LINE
  8
0
 62
     0
 10
166.861
 20
92.4638
 30
0.0
 11
167.506
 21
89.432
 31
0.0
  0
LINE
  8
0
 62
     0
 10
167.506
 20
89.432
 30
0.0
 11
168.287
 21
89.5974
 31
0.0
  0
LINE
  8
0
 62
     0
 10
168.287
 20
89.5974
 30
0.0
 11
169.493
 21
83.9241
 31
0.0
  0
LINE
  8
0
 62
     0
 10
169.493
 20
83.9241
 30
0.0
 11
168.712
 21
83.7572
 31
0.0
  0
LINE
  8
0
 62
     0
 10
168.712
 20
83.7572
 30
0.0
 11
169.356
 21
80.7254
 31
0.0
  0
LINE
  8
0
 62
     0
 10
169.356
 20
80.7254
 30
0.0
 11
170.138
 21
80.8923
 31
0.0
  0
LINE
  8
0
 62
     0
 10
170.138
 20
80.8923
 30
0.0
 11
170.346
 21
79.9137
 31
0.0
  0
LINE
  8
0
 62
     0
 10
170.346
 20
79.9137
 30
0.0
 11
184.041
 21
82.8241
 31
0.0
  0
LINE
  8
0
 62
     0
 10
184.041
 20
82.8241
 30
0.0
 11
183.833
 21
83.8027
 31
0.0
  0
LINE
  8
0
 62
     0
 10
183.833
 20
83.8027
 30
0.0
 11
184.614
 21
83.9692
 31
0.0
  0
LINE
  8
0
 62
     0
 10
184.614
 20
83.9692
 30
0.0
 11
183.971
 21
87.001
 31
0.0
  0
LINE
  8
0
 62
     0
 10
183.971
 20
87.001
 30
0.0
 11
183.188
 21
86.8345
 31
0.0
  0
LINE
  8
0
 62
     0
 10
183.188
 20
86.8345
 30
0.0
 11
181.981
 21
92.5089
 31
0.0
  0
LINE
  8
0
 62
     0
 10
181.981
 20
92.5089
 30
0.0
 11
182.765
 21
92.6744
 31
0.0
  0
LINE
  8
0
 62
     0
 10
182.765
 20
92.6744
 30
0.0
 11
182.12
 21
95.7061
 31
0.0
  0
LINE
  8
0
 62
     0
 10
182.12
 20
95.7061
 30
0.0
 11
181.337
 21
95.5407
 31
0.0
  0
LINE
  8
0
 62
     0
 10
181.337
 20
95.5407
 30
0.0
 11
181.13
 21
96.5179
 31
0.0
  0
LINE
  8
0
 62
     0
 10
181.13
 20
96.5179
 30
0.0
 11
167.436
 21
93.6075
 31
0.0
  0
LINE
  8
0
 62
     0
 10
133.244
 20
96.6833
 30
0.0
 11
132.461
 21
96.8498
 31
0.0
  0
LINE
  8
0
 62
     0
 10
132.461
 20
96.8498
 30
0.0
 11
131.818
 21
93.817
 31
0.0
  0
LINE
  8
0
 62
     0
 10
131.818
 20
93.817
 30
0.0
 11
132.599
 21
93.6502
 31
0.0
  0
LINE
  8
0
 62
     0
 10
132.599
 20
93.6502
 30
0.0
 11
131.393
 21
87.9768
 31
0.0
  0
LINE
  8
0
 62
     0
 10
131.393
 20
87.9768
 30
0.0
 11
130.612
 21
88.1433
 31
0.0
  0
LINE
  8
0
 62
     0
 10
130.612
 20
88.1433
 30
0.0
 11
129.967
 21
85.1119
 31
0.0
  0
LINE
  8
0
 62
     0
 10
129.967
 20
85.1119
 30
0.0
 11
130.75
 21
84.945
 31
0.0
  0
LINE
  8
0
 62
     0
 10
130.75
 20
84.945
 30
0.0
 11
130.542
 21
83.9682
 31
0.0
  0
LINE
  8
0
 62
     0
 10
130.542
 20
83.9682
 30
0.0
 11
144.235
 21
81.0563
 31
0.0
  0
LINE
  8
0
 62
     0
 10
144.235
 20
81.0563
 30
0.0
 11
144.443
 21
82.036
 31
0.0
  0
LINE
  8
0
 62
     0
 10
144.443
 20
82.036
 30
0.0
 11
145.226
 21
81.8677
 31
0.0
  0
LINE
  8
0
 62
     0
 10
145.226
 20
81.8677
 30
0.0
 11
145.871
 21
84.9009
 31
0.0
  0
LINE
  8
0
 62
     0
 10
145.871
 20
84.9009
 30
0.0
 11
145.088
 21
85.0664
 31
0.0
  0
LINE
  8
0
 62
     0
 10
145.088
 20
85.0664
 30
0.0
 11
146.294
 21
90.7411
 31
0.0
  0
LINE
  8
0
 62
     0
 10
146.294
 20
90.7411
 30
0.0
 11
147.077
 21
90.5729
 31
0.0
  0
LINE
  8
0
 62
     0
 10
147.077
 20
90.5729
 30
0.0
 11
147.72
 21
93.6061
 31
0.0
  0
LINE
  8
0
 62
     0
 10
147.72
 20
93.6061
 30
0.0
 11
146.939
 21
93.7729
 31
0.0
  0
LINE
  8
0
 62
     0
 10
146.939
 20
93.7729
 30
0.0
 11
147.147
 21
94.7498
 31
0.0
  0
LINE
  8
0
 62
     0
 10
147.147
 20
94.7498
 30
0.0
 11
133.452
 21
97.6616
 31
0.0
  0
LINE
  8
0
 62
     0
 10
133.452
 20
97.6616
 30
0.0
 11
133.244
 21
96.6833
 31
0.0
  0
LINE
  8
0
 62
     0
 10
330.28
 20
95.9817
 30
0.0
 11
330.28
 21
94.9826
 31
0.0
  0
LINE
  8
0
 62
     0
 10
330.28
 20
94.9826
 30
0.0
 11
329.479
 21
94.9826
 31
0.0
  0
LINE
  8
0
 62
     0
 10
329.479
 20
94.9826
 30
0.0
 11
329.479
 21
91.882
 31
0.0
  0
LINE
  8
0
 62
     0
 10
329.479
 20
91.882
 30
0.0
 11
330.28
 21
91.882
 31
0.0
  0
LINE
  8
0
 62
     0
 10
330.28
 20
91.882
 30
0.0
 11
330.28
 21
86.082
 31
0.0
  0
LINE
  8
0
 62
     0
 10
330.28
 20
86.082
 30
0.0
 11
329.479
 21
86.082
 31
0.0
  0
LINE
  8
0
 62
     0
 10
329.479
 20
86.082
 30
0.0
 11
329.479
 21
82.9829
 31
0.0
  0
LINE
  8
0
 62
     0
 10
329.479
 20
82.9829
 30
0.0
 11
330.28
 21
82.9829
 31
0.0
  0
LINE
  8
0
 62
     0
 10
330.28
 20
82.9829
 30
0.0
 11
330.28
 21
81.9824
 31
0.0
  0
LINE
  8
0
 62
     0
 10
330.28
 20
81.9824
 30
0.0
 11
344.279
 21
81.9824
 31
0.0
  0
LINE
  8
0
 62
     0
 10
344.279
 20
81.9824
 30
0.0
 11
344.279
 21
82.9829
 31
0.0
  0
LINE
  8
0
 62
     0
 10
344.279
 20
82.9829
 30
0.0
 11
345.08
 21
82.9829
 31
0.0
  0
LINE
  8
0
 62
     0
 10
345.08
 20
82.9829
 30
0.0
 11
345.08
 21
86.082
 31
0.0
  0
LINE
  8
0
 62
     0
 10
345.08
 20
86.082
 30
0.0
 11
344.279
 21
86.082
 31
0.0
  0
LINE
  8
0
 62
     0
 10
344.279
 20
86.082
 30
0.0
 11
344.279
 21
91.882
 31
0.0
  0
LINE
  8
0
 62
     0
 10
344.279
 20
91.882
 30
0.0
 11
345.08
 21
91.882
 31
0.0
  0
LINE
  8
0
 62
     0
 10
345.08
 20
91.882
 30
0.0
 11
345.08
 21
94.9826
 31
0.0
  0
LINE
  8
0
 62
     0
 10
345.08
 20
94.9826
 30
0.0
 11
344.279
 21
94.9826
 31
0.0
  0
LINE
  8
0
 62
     0
 10
344.279
 20
94.9826
 30
0.0
 11
344.279
 21
95.9817
 31
0.0
  0
LINE
  8
0
 62
     0
 10
344.279
 20
95.9817
 30
0.0
 11
330.28
 21
95.9817
 31
0.0
  0
LINE
  8
0
 62
     0
 10
186.069
 20
97.5678
 30
0.0
 11
186.276
 21
96.5909
 31
0.0
  0
LINE
  8
0
 62
     0
 10
186.276
 20
96.5909
 30
0.0
 11
185.495
 21
96.424
 31
0.0
  0
LINE
  8
0
 62
     0
 10
185.495
 20
96.424
 30
0.0
 11
186.139
 21
93.3909
 31
0.0
  0
LINE
  8
0
 62
     0
 10
186.139
 20
93.3909
 30
0.0
 11
186.921
 21
93.5577
 31
0.0
  0
LINE
  8
0
 62
     0
 10
186.921
 20
93.5577
 30
0.0
 11
188.127
 21
87.8844
 31
0.0
  0
LINE
  8
0
 62
     0
 10
188.127
 20
87.8844
 30
0.0
 11
187.344
 21
87.7189
 31
0.0
  0
LINE
  8
0
 62
     0
 10
187.344
 20
87.7189
 30
0.0
 11
187.989
 21
84.6861
 31
0.0
  0
LINE
  8
0
 62
     0
 10
187.989
 20
84.6861
 30
0.0
 11
188.772
 21
84.8526
 31
0.0
  0
LINE
  8
0
 62
     0
 10
188.772
 20
84.8526
 30
0.0
 11
188.98
 21
83.8743
 31
0.0
  0
LINE
  8
0
 62
     0
 10
188.98
 20
83.8743
 30
0.0
 11
202.674
 21
86.7862
 31
0.0
  0
LINE
  8
0
 62
     0
 10
202.674
 20
86.7862
 30
0.0
 11
202.466
 21
87.763
 31
0.0
  0
LINE
  8
0
 62
     0
 10
202.466
 20
87.763
 30
0.0
 11
203.248
 21
87.9299
 31
0.0
  0
LINE
  8
0
 62
     0
 10
203.248
 20
87.9299
 30
0.0
 11
202.603
 21
90.9616
 31
0.0
  0
LINE
  8
0
 62
     0
 10
202.603
 20
90.9616
 30
0.0
 11
201.822
 21
90.7948
 31
0.0
  0
LINE
  8
0
 62
     0
 10
201.822
 20
90.7948
 30
0.0
 11
200.615
 21
96.4681
 31
0.0
  0
LINE
  8
0
 62
     0
 10
200.615
 20
96.4681
 30
0.0
 11
201.399
 21
96.635
 31
0.0
  0
LINE
  8
0
 62
     0
 10
201.399
 20
96.635
 30
0.0
 11
200.754
 21
99.6678
 31
0.0
  0
LINE
  8
0
 62
     0
 10
200.754
 20
99.6678
 30
0.0
 11
199.971
 21
99.5013
 31
0.0
  0
LINE
  8
0
 62
     0
 10
199.971
 20
99.5013
 30
0.0
 11
199.763
 21
100.48
 31
0.0
  0
LINE
  8
0
 62
     0
 10
199.763
 20
100.48
 30
0.0
 11
186.069
 21
97.5678
 31
0.0
  0
LINE
  8
0
 62
     0
 10
114.61
 20
100.644
 30
0.0
 11
113.829
 21
100.81
 31
0.0
  0
LINE
  8
0
 62
     0
 10
113.829
 20
100.81
 30
0.0
 11
113.184
 21
97.7773
 31
0.0
  0
LINE
  8
0
 62
     0
 10
113.184
 20
97.7773
 30
0.0
 11
113.967
 21
97.6119
 31
0.0
  0
LINE
  8
0
 62
     0
 10
113.967
 20
97.6119
 30
0.0
 11
112.761
 21
91.9385
 31
0.0
  0
LINE
  8
0
 62
     0
 10
112.761
 20
91.9385
 30
0.0
 11
111.978
 21
92.1039
 31
0.0
  0
LINE
  8
0
 62
     0
 10
111.978
 20
92.1039
 30
0.0
 11
111.333
 21
89.0722
 31
0.0
  0
LINE
  8
0
 62
     0
 10
111.333
 20
89.0722
 30
0.0
 11
112.116
 21
88.9071
 31
0.0
  0
LINE
  8
0
 62
     0
 10
112.116
 20
88.9071
 30
0.0
 11
111.908
 21
87.927
 31
0.0
  0
LINE
  8
0
 62
     0
 10
111.908
 20
87.927
 30
0.0
 11
125.601
 21
85.018
 31
0.0
  0
LINE
  8
0
 62
     0
 10
125.601
 20
85.018
 30
0.0
 11
125.809
 21
85.9952
 31
0.0
  0
LINE
  8
0
 62
     0
 10
125.809
 20
85.9952
 30
0.0
 11
126.592
 21
85.8284
 31
0.0
  0
LINE
  8
0
 62
     0
 10
126.592
 20
85.8284
 30
0.0
 11
127.237
 21
88.8615
 31
0.0
  0
LINE
  8
0
 62
     0
 10
127.237
 20
88.8615
 30
0.0
 11
126.454
 21
89.0266
 31
0.0
  0
LINE
  8
0
 62
     0
 10
126.454
 20
89.0266
 30
0.0
 11
127.66
 21
94.7
 31
0.0
  0
LINE
  8
0
 62
     0
 10
127.66
 20
94.7
 30
0.0
 11
128.443
 21
94.5349
 31
0.0
  0
LINE
  8
0
 62
     0
 10
128.443
 20
94.5349
 30
0.0
 11
129.088
 21
97.5663
 31
0.0
  0
LINE
  8
0
 62
     0
 10
129.088
 20
97.5663
 30
0.0
 11
128.305
 21
97.7332
 31
0.0
  0
LINE
  8
0
 62
     0
 10
128.305
 20
97.7332
 30
0.0
 11
128.513
 21
98.7118
 31
0.0
  0
LINE
  8
0
 62
     0
 10
128.513
 20
98.7118
 30
0.0
 11
114.818
 21
101.622
 31
0.0
  0
LINE
  8
0
 62
     0
 10
114.818
 20
101.622
 30
0.0
 11
114.61
 21
100.644
 31
0.0
  0
LINE
  8
0
 62
     0
 10
204.702
 20
101.53
 30
0.0
 11
204.91
 21
100.551
 31
0.0
  0
LINE
  8
0
 62
     0
 10
204.91
 20
100.551
 30
0.0
 11
204.129
 21
100.385
 31
0.0
  0
LINE
  8
0
 62
     0
 10
204.129
 20
100.385
 30
0.0
 11
204.772
 21
97.3529
 31
0.0
  0
LINE
  8
0
 62
     0
 10
204.772
 20
97.3529
 30
0.0
 11
205.555
 21
97.5184
 31
0.0
  0
LINE
  8
0
 62
     0
 10
205.555
 20
97.5184
 30
0.0
 11
206.761
 21
91.845
 31
0.0
  0
LINE
  8
0
 62
     0
 10
206.761
 20
91.845
 30
0.0
 11
205.978
 21
91.6795
 31
0.0
  0
LINE
  8
0
 62
     0
 10
205.978
 20
91.6795
 30
0.0
 11
206.623
 21
88.6478
 31
0.0
  0
LINE
  8
0
 62
     0
 10
206.623
 20
88.6478
 30
0.0
 11
207.406
 21
88.8132
 31
0.0
  0
LINE
  8
0
 62
     0
 10
207.406
 20
88.8132
 30
0.0
 11
207.614
 21
87.8346
 31
0.0
  0
LINE
  8
0
 62
     0
 10
207.614
 20
87.8346
 30
0.0
 11
221.307
 21
90.745
 31
0.0
  0
LINE
  8
0
 62
     0
 10
221.307
 20
90.745
 30
0.0
 11
221.099
 21
91.725
 31
0.0
  0
LINE
  8
0
 62
     0
 10
221.099
 20
91.725
 30
0.0
 11
221.882
 21
91.8905
 31
0.0
  0
LINE
  8
0
 62
     0
 10
221.882
 20
91.8905
 30
0.0
 11
221.237
 21
94.9219
 31
0.0
  0
LINE
  8
0
 62
     0
 10
221.237
 20
94.9219
 30
0.0
 11
220.456
 21
94.7568
 31
0.0
  0
LINE
  8
0
 62
     0
 10
220.456
 20
94.7568
 30
0.0
 11
219.25
 21
100.43
 31
0.0
  0
LINE
  8
0
 62
     0
 10
219.25
 20
100.43
 30
0.0
 11
220.031
 21
100.595
 31
0.0
  0
LINE
  8
0
 62
     0
 10
220.031
 20
100.595
 30
0.0
 11
219.388
 21
103.628
 31
0.0
  0
LINE
  8
0
 62
     0
 10
219.388
 20
103.628
 30
0.0
 11
218.605
 21
103.462
 31
0.0
  0
LINE
  8
0
 62
     0
 10
218.605
 20
103.462
 30
0.0
 11
218.397
 21
104.44
 31
0.0
  0
LINE
  8
0
 62
     0
 10
218.397
 20
104.44
 30
0.0
 11
204.702
 21
101.53
 31
0.0
  0
LINE
  8
0
 62
     0
 10
95.9764
 20
104.604
 30
0.0
 11
95.195
 21
104.771
 31
0.0
  0
LINE
  8
0
 62
     0
 10
95.195
 20
104.771
 30
0.0
 11
94.5501
 21
101.738
 31
0.0
  0
LINE
  8
0
 62
     0
 10
94.5501
 20
101.738
 30
0.0
 11
95.3326
 21
101.572
 31
0.0
  0
LINE
  8
0
 62
     0
 10
95.3326
 20
101.572
 30
0.0
 11
94.1268
 21
95.8991
 31
0.0
  0
LINE
  8
0
 62
     0
 10
94.1268
 20
95.8991
 30
0.0
 11
93.3443
 21
96.066
 31
0.0
  0
LINE
  8
0
 62
     0
 10
93.3443
 20
96.066
 30
0.0
 11
92.6994
 21
93.0328
 31
0.0
  0
LINE
  8
0
 62
     0
 10
92.6994
 20
93.0328
 30
0.0
 11
93.4819
 21
92.8659
 31
0.0
  0
LINE
  8
0
 62
     0
 10
93.4819
 20
92.8659
 30
0.0
 11
93.2737
 21
91.8891
 31
0.0
  0
LINE
  8
0
 62
     0
 10
93.2737
 20
91.8891
 30
0.0
 11
106.969
 21
88.9773
 31
0.0
  0
LINE
  8
0
 62
     0
 10
106.969
 20
88.9773
 30
0.0
 11
107.176
 21
89.9555
 31
0.0
  0
LINE
  8
0
 62
     0
 10
107.176
 20
89.9555
 30
0.0
 11
107.958
 21
89.789
 31
0.0
  0
LINE
  8
0
 62
     0
 10
107.958
 20
89.789
 30
0.0
 11
108.603
 21
92.8218
 31
0.0
  0
LINE
  8
0
 62
     0
 10
108.603
 20
92.8218
 30
0.0
 11
107.821
 21
92.9887
 31
0.0
  0
LINE
  8
0
 62
     0
 10
107.821
 20
92.9887
 30
0.0
 11
109.026
 21
98.6621
 31
0.0
  0
LINE
  8
0
 62
     0
 10
109.026
 20
98.6621
 30
0.0
 11
109.809
 21
98.4952
 31
0.0
  0
LINE
  8
0
 62
     0
 10
109.809
 20
98.4952
 30
0.0
 11
110.454
 21
101.527
 31
0.0
  0
LINE
  8
0
 62
     0
 10
110.454
 20
101.527
 30
0.0
 11
109.671
 21
101.694
 31
0.0
  0
LINE
  8
0
 62
     0
 10
109.671
 20
101.694
 30
0.0
 11
109.878
 21
102.671
 31
0.0
  0
LINE
  8
0
 62
     0
 10
109.878
 20
102.671
 30
0.0
 11
96.1842
 21
105.583
 31
0.0
  0
LINE
  8
0
 62
     0
 10
96.1842
 20
105.583
 30
0.0
 11
95.9764
 21
104.604
 31
0.0
  0
LINE
  8
0
 62
     0
 10
223.336
 20
105.489
 30
0.0
 11
223.544
 21
104.512
 31
0.0
  0
LINE
  8
0
 62
     0
 10
223.544
 20
104.512
 30
0.0
 11
222.761
 21
104.345
 31
0.0
  0
LINE
  8
0
 62
     0
 10
222.761
 20
104.345
 30
0.0
 11
223.406
 21
101.314
 31
0.0
  0
LINE
  8
0
 62
     0
 10
223.406
 20
101.314
 30
0.0
 11
224.189
 21
101.479
 31
0.0
  0
LINE
  8
0
 62
     0
 10
224.189
 20
101.479
 30
0.0
 11
225.395
 21
95.8067
 31
0.0
  0
LINE
  8
0
 62
     0
 10
225.395
 20
95.8067
 30
0.0
 11
224.612
 21
95.6398
 31
0.0
  0
LINE
  8
0
 62
     0
 10
224.612
 20
95.6398
 30
0.0
 11
225.257
 21
92.607
 31
0.0
  0
LINE
  8
0
 62
     0
 10
225.257
 20
92.607
 30
0.0
 11
226.04
 21
92.7749
 31
0.0
  0
LINE
  8
0
 62
     0
 10
226.04
 20
92.7749
 30
0.0
 11
226.248
 21
91.7952
 31
0.0
  0
LINE
  8
0
 62
     0
 10
226.248
 20
91.7952
 30
0.0
 11
239.941
 21
94.7071
 31
0.0
  0
LINE
  8
0
 62
     0
 10
239.941
 20
94.7071
 30
0.0
 11
239.733
 21
95.6839
 31
0.0
  0
LINE
  8
0
 62
     0
 10
239.733
 20
95.6839
 30
0.0
 11
240.516
 21
95.8508
 31
0.0
  0
LINE
  8
0
 62
     0
 10
240.516
 20
95.8508
 30
0.0
 11
239.871
 21
98.884
 31
0.0
  0
LINE
  8
0
 62
     0
 10
239.871
 20
98.884
 30
0.0
 11
239.088
 21
98.7171
 31
0.0
  0
LINE
  8
0
 62
     0
 10
239.088
 20
98.7171
 30
0.0
 11
237.883
 21
104.39
 31
0.0
  0
LINE
  8
0
 62
     0
 10
237.883
 20
104.39
 30
0.0
 11
238.665
 21
104.556
 31
0.0
  0
LINE
  8
0
 62
     0
 10
238.665
 20
104.556
 30
0.0
 11
238.02
 21
107.589
 31
0.0
  0
LINE
  8
0
 62
     0
 10
238.02
 20
107.589
 30
0.0
 11
237.239
 21
107.422
 31
0.0
  0
LINE
  8
0
 62
     0
 10
237.239
 20
107.422
 30
0.0
 11
237.031
 21
108.401
 31
0.0
  0
LINE
  8
0
 62
     0
 10
237.031
 20
108.401
 30
0.0
 11
223.336
 21
105.489
 31
0.0
  0
LINE
  8
0
 62
     0
 10
77.3437
 20
108.566
 30
0.0
 11
76.5609
 21
108.731
 31
0.0
  0
LINE
  8
0
 62
     0
 10
76.5609
 20
108.731
 30
0.0
 11
75.916
 21
105.7
 31
0.0
  0
LINE
  8
0
 62
     0
 10
75.916
 20
105.7
 30
0.0
 11
76.6988
 21
105.533
 31
0.0
  0
LINE
  8
0
 62
     0
 10
76.6988
 20
105.533
 30
0.0
 11
75.493
 21
99.8594
 31
0.0
  0
LINE
  8
0
 62
     0
 10
75.493
 20
99.8594
 30
0.0
 11
74.7102
 21
100.026
 31
0.0
  0
LINE
  8
0
 62
     0
 10
74.7102
 20
100.026
 30
0.0
 11
74.0653
 21
96.9931
 31
0.0
  0
LINE
  8
0
 62
     0
 10
74.0653
 20
96.9931
 30
0.0
 11
74.8482
 21
96.828
 31
0.0
  0
LINE
  8
0
 62
     0
 10
74.8482
 20
96.828
 30
0.0
 11
74.64
 21
95.8494
 31
0.0
  0
LINE
  8
0
 62
     0
 10
74.64
 20
95.8494
 30
0.0
 11
88.3348
 21
92.939
 31
0.0
  0
LINE
  8
0
 62
     0
 10
88.3348
 20
92.939
 30
0.0
 11
88.543
 21
93.9161
 31
0.0
  0
LINE
  8
0
 62
     0
 10
88.543
 20
93.9161
 30
0.0
 11
89.3244
 21
93.7507
 31
0.0
  0
LINE
  8
0
 62
     0
 10
89.3244
 20
93.7507
 30
0.0
 11
89.9693
 21
96.7825
 31
0.0
  0
LINE
  8
0
 62
     0
 10
89.9693
 20
96.7825
 30
0.0
 11
89.1868
 21
96.9479
 31
0.0
  0
LINE
  8
0
 62
     0
 10
89.1868
 20
96.9479
 30
0.0
 11
90.3923
 21
102.622
 31
0.0
  0
LINE
  8
0
 62
     0
 10
90.3923
 20
102.622
 30
0.0
 11
91.1751
 21
102.456
 31
0.0
  0
LINE
  8
0
 62
     0
 10
91.1751
 20
102.456
 30
0.0
 11
91.8199
 21
105.489
 31
0.0
  0
LINE
  8
0
 62
     0
 10
91.8199
 20
105.489
 30
0.0
 11
91.0375
 21
105.654
 31
0.0
  0
LINE
  8
0
 62
     0
 10
91.0375
 20
105.654
 30
0.0
 11
91.2453
 21
106.633
 31
0.0
  0
LINE
  8
0
 62
     0
 10
91.2453
 20
106.633
 30
0.0
 11
77.5518
 21
109.543
 31
0.0
  0
LINE
  8
0
 62
     0
 10
77.5518
 20
109.543
 30
0.0
 11
77.3437
 21
108.566
 31
0.0
  0
LINE
  8
0
 62
     0
 10
301.705
 20
110.269
 30
0.0
 11
301.705
 21
109.269
 31
0.0
  0
LINE
  8
0
 62
     0
 10
301.705
 20
109.269
 30
0.0
 11
300.904
 21
109.269
 31
0.0
  0
LINE
  8
0
 62
     0
 10
300.904
 20
109.269
 30
0.0
 11
300.904
 21
106.17
 31
0.0
  0
LINE
  8
0
 62
     0
 10
300.904
 20
106.17
 30
0.0
 11
301.705
 21
106.17
 31
0.0
  0
LINE
  8
0
 62
     0
 10
301.705
 20
106.17
 30
0.0
 11
301.705
 21
100.37
 31
0.0
  0
LINE
  8
0
 62
     0
 10
301.705
 20
100.37
 30
0.0
 11
300.904
 21
100.37
 31
0.0
  0
LINE
  8
0
 62
     0
 10
300.904
 20
100.37
 30
0.0
 11
300.904
 21
97.2689
 31
0.0
  0
LINE
  8
0
 62
     0
 10
300.904
 20
97.2689
 30
0.0
 11
301.705
 21
97.2689
 31
0.0
  0
LINE
  8
0
 62
     0
 10
301.705
 20
97.2689
 30
0.0
 11
301.705
 21
96.2699
 31
0.0
  0
LINE
  8
0
 62
     0
 10
301.705
 20
96.2699
 30
0.0
 11
315.704
 21
96.2699
 31
0.0
  0
LINE
  8
0
 62
     0
 10
315.704
 20
96.2699
 30
0.0
 11
315.704
 21
97.2689
 31
0.0
  0
LINE
  8
0
 62
     0
 10
315.704
 20
97.2689
 30
0.0
 11
316.505
 21
97.2689
 31
0.0
  0
LINE
  8
0
 62
     0
 10
316.505
 20
97.2689
 30
0.0
 11
316.505
 21
100.37
 31
0.0
  0
LINE
  8
0
 62
     0
 10
316.505
 20
100.37
 30
0.0
 11
315.704
 21
100.37
 31
0.0
  0
LINE
  8
0
 62
     0
 10
315.704
 20
100.37
 30
0.0
 11
315.704
 21
106.17
 31
0.0
  0
LINE
  8
0
 62
     0
 10
315.704
 20
106.17
 30
0.0
 11
316.505
 21
106.17
 31
0.0
  0
LINE
  8
0
 62
     0
 10
316.505
 20
106.17
 30
0.0
 11
316.505
 21
109.269
 31
0.0
  0
LINE
  8
0
 62
     0
 10
316.505
 20
109.269
 30
0.0
 11
315.704
 21
109.269
 31
0.0
  0
LINE
  8
0
 62
     0
 10
315.704
 20
109.269
 30
0.0
 11
315.704
 21
110.269
 31
0.0
  0
LINE
  8
0
 62
     0
 10
315.704
 20
110.269
 30
0.0
 11
301.705
 21
110.269
 31
0.0
  0
LINE
  8
0
 62
     0
 10
282.655
 20
110.269
 30
0.0
 11
282.655
 21
109.269
 31
0.0
  0
LINE
  8
0
 62
     0
 10
282.655
 20
109.269
 30
0.0
 11
281.854
 21
109.269
 31
0.0
  0
LINE
  8
0
 62
     0
 10
281.854
 20
109.269
 30
0.0
 11
281.854
 21
106.17
 31
0.0
  0
LINE
  8
0
 62
     0
 10
281.854
 20
106.17
 30
0.0
 11
282.655
 21
106.17
 31
0.0
  0
LINE
  8
0
 62
     0
 10
282.655
 20
106.17
 30
0.0
 11
282.655
 21
100.37
 31
0.0
  0
LINE
  8
0
 62
     0
 10
282.655
 20
100.37
 30
0.0
 11
281.854
 21
100.37
 31
0.0
  0
LINE
  8
0
 62
     0
 10
281.854
 20
100.37
 30
0.0
 11
281.854
 21
97.2689
 31
0.0
  0
LINE
  8
0
 62
     0
 10
281.854
 20
97.2689
 30
0.0
 11
282.655
 21
97.2689
 31
0.0
  0
LINE
  8
0
 62
     0
 10
282.655
 20
97.2689
 30
0.0
 11
282.655
 21
96.2699
 31
0.0
  0
LINE
  8
0
 62
     0
 10
282.655
 20
96.2699
 30
0.0
 11
296.654
 21
96.2699
 31
0.0
  0
LINE
  8
0
 62
     0
 10
296.654
 20
96.2699
 30
0.0
 11
296.654
 21
97.2689
 31
0.0
  0
LINE
  8
0
 62
     0
 10
296.654
 20
97.2689
 30
0.0
 11
297.455
 21
97.2689
 31
0.0
  0
LINE
  8
0
 62
     0
 10
297.455
 20
97.2689
 30
0.0
 11
297.455
 21
100.37
 31
0.0
  0
LINE
  8
0
 62
     0
 10
297.455
 20
100.37
 30
0.0
 11
296.654
 21
100.37
 31
0.0
  0
LINE
  8
0
 62
     0
 10
296.654
 20
100.37
 30
0.0
 11
296.654
 21
106.17
 31
0.0
  0
LINE
  8
0
 62
     0
 10
296.654
 20
106.17
 30
0.0
 11
297.455
 21
106.17
 31
0.0
  0
LINE
  8
0
 62
     0
 10
297.455
 20
106.17
 30
0.0
 11
297.455
 21
109.269
 31
0.0
  0
LINE
  8
0
 62
     0
 10
297.455
 20
109.269
 30
0.0
 11
296.654
 21
109.269
 31
0.0
  0
LINE
  8
0
 62
     0
 10
296.654
 20
109.269
 30
0.0
 11
296.654
 21
110.269
 31
0.0
  0
LINE
  8
0
 62
     0
 10
296.654
 20
110.269
 30
0.0
 11
282.655
 21
110.269
 31
0.0
  0
LINE
  8
0
 62
     0
 10
263.605
 20
110.269
 30
0.0
 11
263.605
 21
109.269
 31
0.0
  0
LINE
  8
0
 62
     0
 10
263.605
 20
109.269
 30
0.0
 11
262.804
 21
109.269
 31
0.0
  0
LINE
  8
0
 62
     0
 10
262.804
 20
109.269
 30
0.0
 11
262.804
 21
106.17
 31
0.0
  0
LINE
  8
0
 62
     0
 10
262.804
 20
106.17
 30
0.0
 11
263.605
 21
106.17
 31
0.0
  0
LINE
  8
0
 62
     0
 10
263.605
 20
106.17
 30
0.0
 11
263.605
 21
100.37
 31
0.0
  0
LINE
  8
0
 62
     0
 10
263.605
 20
100.37
 30
0.0
 11
262.804
 21
100.37
 31
0.0
  0
LINE
  8
0
 62
     0
 10
262.804
 20
100.37
 30
0.0
 11
262.804
 21
97.2689
 31
0.0
  0
LINE
  8
0
 62
     0
 10
262.804
 20
97.2689
 30
0.0
 11
263.605
 21
97.2689
 31
0.0
  0
LINE
  8
0
 62
     0
 10
263.605
 20
97.2689
 30
0.0
 11
263.605
 21
96.2699
 31
0.0
  0
LINE
  8
0
 62
     0
 10
263.605
 20
96.2699
 30
0.0
 11
277.604
 21
96.2699
 31
0.0
  0
LINE
  8
0
 62
     0
 10
277.604
 20
96.2699
 30
0.0
 11
277.604
 21
97.2689
 31
0.0
  0
LINE
  8
0
 62
     0
 10
277.604
 20
97.2689
 30
0.0
 11
278.405
 21
97.2689
 31
0.0
  0
LINE
  8
0
 62
     0
 10
278.405
 20
97.2689
 30
0.0
 11
278.405
 21
100.37
 31
0.0
  0
LINE
  8
0
 62
     0
 10
278.405
 20
100.37
 30
0.0
 11
277.604
 21
100.37
 31
0.0
  0
LINE
  8
0
 62
     0
 10
277.604
 20
100.37
 30
0.0
 11
277.604
 21
106.17
 31
0.0
  0
LINE
  8
0
 62
     0
 10
277.604
 20
106.17
 30
0.0
 11
278.405
 21
106.17
 31
0.0
  0
LINE
  8
0
 62
     0
 10
278.405
 20
106.17
 30
0.0
 11
278.405
 21
109.269
 31
0.0
  0
LINE
  8
0
 62
     0
 10
278.405
 20
109.269
 30
0.0
 11
277.604
 21
109.269
 31
0.0
  0
LINE
  8
0
 62
     0
 10
277.604
 20
109.269
 30
0.0
 11
277.604
 21
110.269
 31
0.0
  0
LINE
  8
0
 62
     0
 10
277.604
 20
110.269
 30
0.0
 11
263.605
 21
110.269
 31
0.0
  0
LINE
  8
0
 62
     0
 10
35.9572
 20
110.269
 30
0.0
 11
35.9572
 21
109.269
 31
0.0
  0
LINE
  8
0
 62
     0
 10
35.9572
 20
109.269
 30
0.0
 11
35.1565
 21
109.269
 31
0.0
  0
LINE
  8
0
 62
     0
 10
35.1565
 20
109.269
 30
0.0
 11
35.1565
 21
106.17
 31
0.0
  0
LINE
  8
0
 62
     0
 10
35.1565
 20
106.17
 30
0.0
 11
35.9572
 21
106.17
 31
0.0
  0
LINE
  8
0
 62
     0
 10
35.9572
 20
106.17
 30
0.0
 11
35.9572
 21
100.37
 31
0.0
  0
LINE
  8
0
 62
     0
 10
35.9572
 20
100.37
 30
0.0
 11
35.1565
 21
100.37
 31
0.0
  0
LINE
  8
0
 62
     0
 10
35.1565
 20
100.37
 30
0.0
 11
35.1565
 21
97.2689
 31
0.0
  0
LINE
  8
0
 62
     0
 10
35.1565
 20
97.2689
 30
0.0
 11
35.9572
 21
97.2689
 31
0.0
  0
LINE
  8
0
 62
     0
 10
35.9572
 20
97.2689
 30
0.0
 11
35.9572
 21
96.2699
 31
0.0
  0
LINE
  8
0
 62
     0
 10
35.9572
 20
96.2699
 30
0.0
 11
49.9565
 21
96.2699
 31
0.0
  0
LINE
  8
0
 62
     0
 10
49.9565
 20
96.2699
 30
0.0
 11
49.9565
 21
97.2689
 31
0.0
  0
LINE
  8
0
 62
     0
 10
49.9565
 20
97.2689
 30
0.0
 11
50.7559
 21
97.2689
 31
0.0
  0
LINE
  8
0
 62
     0
 10
50.7559
 20
97.2689
 30
0.0
 11
50.7559
 21
100.37
 31
0.0
  0
LINE
  8
0
 62
     0
 10
50.7559
 20
100.37
 30
0.0
 11
49.9565
 21
100.37
 31
0.0
  0
LINE
  8
0
 62
     0
 10
49.9565
 20
100.37
 30
0.0
 11
49.9565
 21
106.17
 31
0.0
  0
LINE
  8
0
 62
     0
 10
49.9565
 20
106.17
 30
0.0
 11
50.7559
 21
106.17
 31
0.0
  0
LINE
  8
0
 62
     0
 10
50.7559
 20
106.17
 30
0.0
 11
50.7559
 21
109.269
 31
0.0
  0
LINE
  8
0
 62
     0
 10
50.7559
 20
109.269
 30
0.0
 11
49.9565
 21
109.269
 31
0.0
  0
LINE
  8
0
 62
     0
 10
49.9565
 20
109.269
 30
0.0
 11
49.9565
 21
110.269
 31
0.0
  0
LINE
  8
0
 62
     0
 10
49.9565
 20
110.269
 30
0.0
 11
35.9572
 21
110.269
 31
0.0
  0
LINE
  8
0
 62
     0
 10
16.9072
 20
110.269
 30
0.0
 11
16.9072
 21
109.269
 31
0.0
  0
LINE
  8
0
 62
     0
 10
16.9072
 20
109.269
 30
0.0
 11
16.1065
 21
109.269
 31
0.0
  0
LINE
  8
0
 62
     0
 10
16.1065
 20
109.269
 30
0.0
 11
16.1065
 21
106.17
 31
0.0
  0
LINE
  8
0
 62
     0
 10
16.1065
 20
106.17
 30
0.0
 11
16.9072
 21
106.17
 31
0.0
  0
LINE
  8
0
 62
     0
 10
16.9072
 20
106.17
 30
0.0
 11
16.9072
 21
100.37
 31
0.0
  0
LINE
  8
0
 62
     0
 10
16.9072
 20
100.37
 30
0.0
 11
16.1065
 21
100.37
 31
0.0
  0
LINE
  8
0
 62
     0
 10
16.1065
 20
100.37
 30
0.0
 11
16.1065
 21
97.2689
 31
0.0
  0
LINE
  8
0
 62
     0
 10
16.1065
 20
97.2689
 30
0.0
 11
16.9072
 21
97.2689
 31
0.0
  0
LINE
  8
0
 62
     0
 10
16.9072
 20
97.2689
 30
0.0
 11
16.9072
 21
96.2699
 31
0.0
  0
LINE
  8
0
 62
     0
 10
16.9072
 20
96.2699
 30
0.0
 11
30.9066
 21
96.2699
 31
0.0
  0
LINE
  8
0
 62
     0
 10
30.9066
 20
96.2699
 30
0.0
 11
30.9066
 21
97.2689
 31
0.0
  0
LINE
  8
0
 62
     0
 10
30.9066
 20
97.2689
 30
0.0
 11
31.7059
 21
97.2689
 31
0.0
  0
LINE
  8
0
 62
     0
 10
31.7059
 20
97.2689
 30
0.0
 11
31.7059
 21
100.37
 31
0.0
  0
LINE
  8
0
 62
     0
 10
31.7059
 20
100.37
 30
0.0
 11
30.9066
 21
100.37
 31
0.0
  0
LINE
  8
0
 62
     0
 10
30.9066
 20
100.37
 30
0.0
 11
30.9066
 21
106.17
 31
0.0
  0
LINE
  8
0
 62
     0
 10
30.9066
 20
106.17
 30
0.0
 11
31.7059
 21
106.17
 31
0.0
  0
LINE
  8
0
 62
     0
 10
31.7059
 20
106.17
 30
0.0
 11
31.7059
 21
109.269
 31
0.0
  0
LINE
  8
0
 62
     0
 10
31.7059
 20
109.269
 30
0.0
 11
30.9066
 21
109.269
 31
0.0
  0
LINE
  8
0
 62
     0
 10
30.9066
 20
109.269
 30
0.0
 11
30.9066
 21
110.269
 31
0.0
  0
LINE
  8
0
 62
     0
 10
30.9066
 20
110.269
 30
0.0
 11
16.9072
 21
110.269
 31
0.0
  0
LINE
  8
0
 62
     0
 10
244.555
 20
113.127
 30
0.0
 11
244.555
 21
112.127
 31
0.0
  0
LINE
  8
0
 62
     0
 10
244.555
 20
112.127
 30
0.0
 11
243.754
 21
112.127
 31
0.0
  0
LINE
  8
0
 62
     0
 10
243.754
 20
112.127
 30
0.0
 11
243.754
 21
109.028
 31
0.0
  0
LINE
  8
0
 62
     0
 10
243.754
 20
109.028
 30
0.0
 11
244.555
 21
109.028
 31
0.0
  0
LINE
  8
0
 62
     0
 10
244.555
 20
109.028
 30
0.0
 11
244.555
 21
103.227
 31
0.0
  0
LINE
  8
0
 62
     0
 10
244.555
 20
103.227
 30
0.0
 11
243.754
 21
103.227
 31
0.0
  0
LINE
  8
0
 62
     0
 10
243.754
 20
103.227
 30
0.0
 11
243.754
 21
100.127
 31
0.0
  0
LINE
  8
0
 62
     0
 10
243.754
 20
100.127
 30
0.0
 11
244.555
 21
100.127
 31
0.0
  0
LINE
  8
0
 62
     0
 10
244.555
 20
100.127
 30
0.0
 11
244.555
 21
99.1277
 31
0.0
  0
LINE
  8
0
 62
     0
 10
244.555
 20
99.1277
 30
0.0
 11
258.554
 21
99.1277
 31
0.0
  0
LINE
  8
0
 62
     0
 10
258.554
 20
99.1277
 30
0.0
 11
258.554
 21
100.127
 31
0.0
  0
LINE
  8
0
 62
     0
 10
258.554
 20
100.127
 30
0.0
 11
259.355
 21
100.127
 31
0.0
  0
LINE
  8
0
 62
     0
 10
259.355
 20
100.127
 30
0.0
 11
259.355
 21
103.227
 31
0.0
  0
LINE
  8
0
 62
     0
 10
259.355
 20
103.227
 30
0.0
 11
258.554
 21
103.227
 31
0.0
  0
LINE
  8
0
 62
     0
 10
258.554
 20
103.227
 30
0.0
 11
258.554
 21
109.028
 31
0.0
  0
LINE
  8
0
 62
     0
 10
258.554
 20
109.028
 30
0.0
 11
259.355
 21
109.028
 31
0.0
  0
LINE
  8
0
 62
     0
 10
259.355
 20
109.028
 30
0.0
 11
259.355
 21
112.127
 31
0.0
  0
LINE
  8
0
 62
     0
 10
259.355
 20
112.127
 30
0.0
 11
258.554
 21
112.127
 31
0.0
  0
LINE
  8
0
 62
     0
 10
258.554
 20
112.127
 30
0.0
 11
258.554
 21
113.127
 31
0.0
  0
LINE
  8
0
 62
     0
 10
258.554
 20
113.127
 30
0.0
 11
244.555
 21
113.127
 31
0.0
  0
LINE
  8
0
 62
     0
 10
55.0072
 20
113.127
 30
0.0
 11
55.0072
 21
112.127
 31
0.0
  0
LINE
  8
0
 62
     0
 10
55.0072
 20
112.127
 30
0.0
 11
54.2064
 21
112.127
 31
0.0
  0
LINE
  8
0
 62
     0
 10
54.2064
 20
112.127
 30
0.0
 11
54.2064
 21
109.028
 31
0.0
  0
LINE
  8
0
 62
     0
 10
54.2064
 20
109.028
 30
0.0
 11
55.0072
 21
109.028
 31
0.0
  0
LINE
  8
0
 62
     0
 10
55.0072
 20
109.028
 30
0.0
 11
55.0072
 21
103.227
 31
0.0
  0
LINE
  8
0
 62
     0
 10
55.0072
 20
103.227
 30
0.0
 11
54.2064
 21
103.227
 31
0.0
  0
LINE
  8
0
 62
     0
 10
54.2064
 20
103.227
 30
0.0
 11
54.2064
 21
100.127
 31
0.0
  0
LINE
  8
0
 62
     0
 10
54.2064
 20
100.127
 30
0.0
 11
55.0072
 21
100.127
 31
0.0
  0
LINE
  8
0
 62
     0
 10
55.0072
 20
100.127
 30
0.0
 11
55.0072
 21
99.1277
 31
0.0
  0
LINE
  8
0
 62
     0
 10
55.0072
 20
99.1277
 30
0.0
 11
69.0065
 21
99.1277
 31
0.0
  0
LINE
  8
0
 62
     0
 10
69.0065
 20
99.1277
 30
0.0
 11
69.0065
 21
100.127
 31
0.0
  0
LINE
  8
0
 62
     0
 10
69.0065
 20
100.127
 30
0.0
 11
69.8059
 21
100.127
 31
0.0
  0
LINE
  8
0
 62
     0
 10
69.8059
 20
100.127
 30
0.0
 11
69.8059
 21
103.227
 31
0.0
  0
LINE
  8
0
 62
     0
 10
69.8059
 20
103.227
 30
0.0
 11
69.0065
 21
103.227
 31
0.0
  0
LINE
  8
0
 62
     0
 10
69.0065
 20
103.227
 30
0.0
 11
69.0065
 21
109.028
 31
0.0
  0
LINE
  8
0
 62
     0
 10
69.0065
 20
109.028
 30
0.0
 11
69.8059
 21
109.028
 31
0.0
  0
LINE
  8
0
 62
     0
 10
69.8059
 20
109.028
 30
0.0
 11
69.8059
 21
112.127
 31
0.0
  0
LINE
  8
0
 62
     0
 10
69.8059
 20
112.127
 30
0.0
 11
69.0065
 21
112.127
 31
0.0
  0
LINE
  8
0
 62
     0
 10
69.0065
 20
112.127
 30
0.0
 11
69.0065
 21
113.127
 31
0.0
  0
LINE
  8
0
 62
     0
 10
69.0065
 20
113.127
 30
0.0
 11
55.0072
 21
113.127
 31
0.0
  0
LINE
  8
0
 62
     0
 10
325.516
 20
115.032
 30
0.0
 11
325.516
 21
114.033
 31
0.0
  0
LINE
  8
0
 62
     0
 10
325.516
 20
114.033
 30
0.0
 11
324.717
 21
114.033
 31
0.0
  0
LINE
  8
0
 62
     0
 10
324.717
 20
114.033
 30
0.0
 11
324.717
 21
110.932
 31
0.0
  0
LINE
  8
0
 62
     0
 10
324.717
 20
110.932
 30
0.0
 11
325.516
 21
110.932
 31
0.0
  0
LINE
  8
0
 62
     0
 10
325.516
 20
110.932
 30
0.0
 11
325.516
 21
105.132
 31
0.0
  0
LINE
  8
0
 62
     0
 10
325.516
 20
105.132
 30
0.0
 11
324.717
 21
105.132
 31
0.0
  0
LINE
  8
0
 62
     0
 10
324.717
 20
105.132
 30
0.0
 11
324.717
 21
102.033
 31
0.0
  0
LINE
  8
0
 62
     0
 10
324.717
 20
102.033
 30
0.0
 11
325.516
 21
102.033
 31
0.0
  0
LINE
  8
0
 62
     0
 10
325.516
 20
102.033
 30
0.0
 11
325.516
 21
101.032
 31
0.0
  0
LINE
  8
0
 62
     0
 10
325.516
 20
101.032
 30
0.0
 11
339.517
 21
101.032
 31
0.0
  0
LINE
  8
0
 62
     0
 10
339.517
 20
101.032
 30
0.0
 11
339.517
 21
102.033
 31
0.0
  0
LINE
  8
0
 62
     0
 10
339.517
 20
102.033
 30
0.0
 11
340.316
 21
102.033
 31
0.0
  0
LINE
  8
0
 62
     0
 10
340.316
 20
102.033
 30
0.0
 11
340.316
 21
105.132
 31
0.0
  0
LINE
  8
0
 62
     0
 10
340.316
 20
105.132
 30
0.0
 11
339.517
 21
105.132
 31
0.0
  0
LINE
  8
0
 62
     0
 10
339.517
 20
105.132
 30
0.0
 11
339.517
 21
110.932
 31
0.0
  0
LINE
  8
0
 62
     0
 10
339.517
 20
110.932
 30
0.0
 11
340.316
 21
110.932
 31
0.0
  0
LINE
  8
0
 62
     0
 10
340.316
 20
110.932
 30
0.0
 11
340.316
 21
114.033
 31
0.0
  0
LINE
  8
0
 62
     0
 10
340.316
 20
114.033
 30
0.0
 11
339.517
 21
114.033
 31
0.0
  0
LINE
  8
0
 62
     0
 10
339.517
 20
114.033
 30
0.0
 11
339.517
 21
115.032
 31
0.0
  0
LINE
  8
0
 62
     0
 10
339.517
 20
115.032
 30
0.0
 11
325.516
 21
115.032
 31
0.0
  0
LINE
  8
0
 62
     0
 10
167.142
 20
117.89
 30
0.0
 11
167.35
 21
116.913
 31
0.0
  0
LINE
  8
0
 62
     0
 10
167.35
 20
116.913
 30
0.0
 11
166.569
 21
116.746
 31
0.0
  0
LINE
  8
0
 62
     0
 10
166.569
 20
116.746
 30
0.0
 11
167.212
 21
113.713
 31
0.0
  0
LINE
  8
0
 62
     0
 10
167.212
 20
113.713
 30
0.0
 11
167.995
 21
113.88
 31
0.0
  0
LINE
  8
0
 62
     0
 10
167.995
 20
113.88
 30
0.0
 11
169.201
 21
108.206
 31
0.0
  0
LINE
  8
0
 62
     0
 10
169.201
 20
108.206
 30
0.0
 11
168.418
 21
108.041
 31
0.0
  0
LINE
  8
0
 62
     0
 10
168.418
 20
108.041
 30
0.0
 11
169.063
 21
105.008
 31
0.0
  0
LINE
  8
0
 62
     0
 10
169.063
 20
105.008
 30
0.0
 11
169.846
 21
105.175
 31
0.0
  0
LINE
  8
0
 62
     0
 10
169.846
 20
105.175
 30
0.0
 11
170.054
 21
104.196
 31
0.0
  0
LINE
  8
0
 62
     0
 10
170.054
 20
104.196
 30
0.0
 11
183.747
 21
107.107
 31
0.0
  0
LINE
  8
0
 62
     0
 10
183.747
 20
107.107
 30
0.0
 11
183.54
 21
108.085
 31
0.0
  0
LINE
  8
0
 62
     0
 10
183.54
 20
108.085
 30
0.0
 11
184.322
 21
108.252
 31
0.0
  0
LINE
  8
0
 62
     0
 10
184.322
 20
108.252
 30
0.0
 11
183.677
 21
111.283
 31
0.0
  0
LINE
  8
0
 62
     0
 10
183.677
 20
111.283
 30
0.0
 11
182.896
 21
111.117
 31
0.0
  0
LINE
  8
0
 62
     0
 10
182.896
 20
111.117
 30
0.0
 11
181.689
 21
116.79
 31
0.0
  0
LINE
  8
0
 62
     0
 10
181.689
 20
116.79
 30
0.0
 11
182.471
 21
116.957
 31
0.0
  0
LINE
  8
0
 62
     0
 10
182.471
 20
116.957
 30
0.0
 11
181.828
 21
119.99
 31
0.0
  0
LINE
  8
0
 62
     0
 10
181.828
 20
119.99
 30
0.0
 11
181.044
 21
119.822
 31
0.0
  0
LINE
  8
0
 62
     0
 10
181.044
 20
119.822
 30
0.0
 11
180.836
 21
120.8
 31
0.0
  0
LINE
  8
0
 62
     0
 10
180.836
 20
120.8
 30
0.0
 11
167.142
 21
117.89
 31
0.0
  0
LINE
  8
0
 62
     0
 10
133.536
 20
120.966
 30
0.0
 11
132.755
 21
121.131
 31
0.0
  0
LINE
  8
0
 62
     0
 10
132.755
 20
121.131
 30
0.0
 11
132.11
 21
118.099
 31
0.0
  0
LINE
  8
0
 62
     0
 10
132.11
 20
118.099
 30
0.0
 11
132.892
 21
117.934
 31
0.0
  0
LINE
  8
0
 62
     0
 10
132.892
 20
117.934
 30
0.0
 11
131.687
 21
112.259
 31
0.0
  0
LINE
  8
0
 62
     0
 10
131.687
 20
112.259
 30
0.0
 11
130.904
 21
112.426
 31
0.0
  0
LINE
  8
0
 62
     0
 10
130.904
 20
112.426
 30
0.0
 11
130.259
 21
109.393
 31
0.0
  0
LINE
  8
0
 62
     0
 10
130.259
 20
109.393
 30
0.0
 11
131.042
 21
109.227
 31
0.0
  0
LINE
  8
0
 62
     0
 10
131.042
 20
109.227
 30
0.0
 11
130.834
 21
108.249
 31
0.0
  0
LINE
  8
0
 62
     0
 10
130.834
 20
108.249
 30
0.0
 11
144.527
 21
105.339
 31
0.0
  0
LINE
  8
0
 62
     0
 10
144.527
 20
105.339
 30
0.0
 11
144.735
 21
106.317
 31
0.0
  0
LINE
  8
0
 62
     0
 10
144.735
 20
106.317
 30
0.0
 11
145.518
 21
106.15
 31
0.0
  0
LINE
  8
0
 62
     0
 10
145.518
 20
106.15
 30
0.0
 11
146.163
 21
109.182
 31
0.0
  0
LINE
  8
0
 62
     0
 10
146.163
 20
109.182
 30
0.0
 11
145.38
 21
109.35
 31
0.0
  0
LINE
  8
0
 62
     0
 10
145.38
 20
109.35
 30
0.0
 11
146.586
 21
115.022
 31
0.0
  0
LINE
  8
0
 62
     0
 10
146.586
 20
115.022
 30
0.0
 11
147.369
 21
114.857
 31
0.0
  0
LINE
  8
0
 62
     0
 10
147.369
 20
114.857
 30
0.0
 11
148.014
 21
117.888
 31
0.0
  0
LINE
  8
0
 62
     0
 10
148.014
 20
117.888
 30
0.0
 11
147.231
 21
118.054
 31
0.0
  0
LINE
  8
0
 62
     0
 10
147.231
 20
118.054
 30
0.0
 11
147.439
 21
119.032
 31
0.0
  0
LINE
  8
0
 62
     0
 10
147.439
 20
119.032
 30
0.0
 11
133.744
 21
121.944
 31
0.0
  0
LINE
  8
0
 62
     0
 10
133.744
 20
121.944
 30
0.0
 11
133.536
 21
120.966
 31
0.0
  0
LINE
  8
0
 62
     0
 10
185.776
 20
121.85
 30
0.0
 11
185.984
 21
120.872
 31
0.0
  0
LINE
  8
0
 62
     0
 10
185.984
 20
120.872
 30
0.0
 11
185.201
 21
120.706
 31
0.0
  0
LINE
  8
0
 62
     0
 10
185.201
 20
120.706
 30
0.0
 11
185.847
 21
117.675
 31
0.0
  0
LINE
  8
0
 62
     0
 10
185.847
 20
117.675
 30
0.0
 11
186.629
 21
117.84
 31
0.0
  0
LINE
  8
0
 62
     0
 10
186.629
 20
117.84
 30
0.0
 11
187.835
 21
112.167
 31
0.0
  0
LINE
  8
0
 62
     0
 10
187.835
 20
112.167
 30
0.0
 11
187.052
 21
112
 31
0.0
  0
LINE
  8
0
 62
     0
 10
187.052
 20
112
 30
0.0
 11
187.697
 21
108.968
 31
0.0
  0
LINE
  8
0
 62
     0
 10
187.697
 20
108.968
 30
0.0
 11
188.48
 21
109.134
 31
0.0
  0
LINE
  8
0
 62
     0
 10
188.48
 20
109.134
 30
0.0
 11
188.688
 21
108.157
 31
0.0
  0
LINE
  8
0
 62
     0
 10
188.688
 20
108.157
 30
0.0
 11
202.382
 21
111.067
 31
0.0
  0
LINE
  8
0
 62
     0
 10
202.382
 20
111.067
 30
0.0
 11
202.173
 21
112.045
 31
0.0
  0
LINE
  8
0
 62
     0
 10
202.173
 20
112.045
 30
0.0
 11
202.956
 21
112.212
 31
0.0
  0
LINE
  8
0
 62
     0
 10
202.956
 20
112.212
 30
0.0
 11
202.311
 21
115.244
 31
0.0
  0
LINE
  8
0
 62
     0
 10
202.311
 20
115.244
 30
0.0
 11
201.529
 21
115.077
 31
0.0
  0
LINE
  8
0
 62
     0
 10
201.529
 20
115.077
 30
0.0
 11
200.324
 21
120.752
 31
0.0
  0
LINE
  8
0
 62
     0
 10
200.324
 20
120.752
 30
0.0
 11
201.106
 21
120.917
 31
0.0
  0
LINE
  8
0
 62
     0
 10
201.106
 20
120.917
 30
0.0
 11
200.462
 21
123.949
 31
0.0
  0
LINE
  8
0
 62
     0
 10
200.462
 20
123.949
 30
0.0
 11
199.679
 21
123.784
 31
0.0
  0
LINE
  8
0
 62
     0
 10
199.679
 20
123.784
 30
0.0
 11
199.471
 21
124.762
 31
0.0
  0
LINE
  8
0
 62
     0
 10
199.471
 20
124.762
 30
0.0
 11
185.776
 21
121.85
 31
0.0
  0
LINE
  8
0
 62
     0
 10
114.904
 20
124.926
 30
0.0
 11
114.121
 21
125.093
 31
0.0
  0
LINE
  8
0
 62
     0
 10
114.121
 20
125.093
 30
0.0
 11
113.476
 21
122.06
 31
0.0
  0
LINE
  8
0
 62
     0
 10
113.476
 20
122.06
 30
0.0
 11
114.259
 21
121.893
 31
0.0
  0
LINE
  8
0
 62
     0
 10
114.259
 20
121.893
 30
0.0
 11
113.053
 21
116.221
 31
0.0
  0
LINE
  8
0
 62
     0
 10
113.053
 20
116.221
 30
0.0
 11
112.27
 21
116.386
 31
0.0
  0
LINE
  8
0
 62
     0
 10
112.27
 20
116.386
 30
0.0
 11
111.625
 21
113.355
 31
0.0
  0
LINE
  8
0
 62
     0
 10
111.625
 20
113.355
 30
0.0
 11
112.408
 21
113.188
 31
0.0
  0
LINE
  8
0
 62
     0
 10
112.408
 20
113.188
 30
0.0
 11
112.2
 21
112.211
 31
0.0
  0
LINE
  8
0
 62
     0
 10
112.2
 20
112.211
 30
0.0
 11
125.895
 21
109.299
 31
0.0
  0
LINE
  8
0
 62
     0
 10
125.895
 20
109.299
 30
0.0
 11
126.103
 21
110.278
 31
0.0
  0
LINE
  8
0
 62
     0
 10
126.103
 20
110.278
 30
0.0
 11
126.884
 21
110.111
 31
0.0
  0
LINE
  8
0
 62
     0
 10
126.884
 20
110.111
 30
0.0
 11
127.529
 21
113.144
 31
0.0
  0
LINE
  8
0
 62
     0
 10
127.529
 20
113.144
 30
0.0
 11
126.746
 21
113.309
 31
0.0
  0
LINE
  8
0
 62
     0
 10
126.746
 20
113.309
 30
0.0
 11
127.952
 21
118.984
 31
0.0
  0
LINE
  8
0
 62
     0
 10
127.952
 20
118.984
 30
0.0
 11
128.735
 21
118.816
 31
0.0
  0
LINE
  8
0
 62
     0
 10
128.735
 20
118.816
 30
0.0
 11
129.38
 21
121.849
 31
0.0
  0
LINE
  8
0
 62
     0
 10
129.38
 20
121.849
 30
0.0
 11
128.597
 21
122.016
 31
0.0
  0
LINE
  8
0
 62
     0
 10
128.597
 20
122.016
 30
0.0
 11
128.805
 21
122.994
 31
0.0
  0
LINE
  8
0
 62
     0
 10
128.805
 20
122.994
 30
0.0
 11
115.11
 21
125.905
 31
0.0
  0
LINE
  8
0
 62
     0
 10
115.11
 20
125.905
 30
0.0
 11
114.904
 21
124.926
 31
0.0
  0
LINE
  8
0
 62
     0
 10
209.069
 20
126.802
 30
0.0
 11
209.277
 21
125.823
 31
0.0
  0
LINE
  8
0
 62
     0
 10
209.277
 20
125.823
 30
0.0
 11
208.494
 21
125.658
 31
0.0
  0
LINE
  8
0
 62
     0
 10
208.494
 20
125.658
 30
0.0
 11
209.138
 21
122.625
 31
0.0
  0
LINE
  8
0
 62
     0
 10
209.138
 20
122.625
 30
0.0
 11
209.922
 21
122.791
 31
0.0
  0
LINE
  8
0
 62
     0
 10
209.922
 20
122.791
 30
0.0
 11
211.128
 21
117.118
 31
0.0
  0
LINE
  8
0
 62
     0
 10
211.128
 20
117.118
 30
0.0
 11
210.345
 21
116.951
 31
0.0
  0
LINE
  8
0
 62
     0
 10
210.345
 20
116.951
 30
0.0
 11
210.99
 21
113.92
 31
0.0
  0
LINE
  8
0
 62
     0
 10
210.99
 20
113.92
 30
0.0
 11
211.771
 21
114.085
 31
0.0
  0
LINE
  8
0
 62
     0
 10
211.771
 20
114.085
 30
0.0
 11
211.98
 21
113.108
 31
0.0
  0
LINE
  8
0
 62
     0
 10
211.98
 20
113.108
 30
0.0
 11
225.673
 21
116.018
 31
0.0
  0
LINE
  8
0
 62
     0
 10
225.673
 20
116.018
 30
0.0
 11
225.465
 21
116.997
 31
0.0
  0
LINE
  8
0
 62
     0
 10
225.465
 20
116.997
 30
0.0
 11
226.249
 21
117.162
 31
0.0
  0
LINE
  8
0
 62
     0
 10
226.249
 20
117.162
 30
0.0
 11
225.604
 21
120.195
 31
0.0
  0
LINE
  8
0
 62
     0
 10
225.604
 20
120.195
 30
0.0
 11
224.821
 21
120.028
 31
0.0
  0
LINE
  8
0
 62
     0
 10
224.821
 20
120.028
 30
0.0
 11
223.616
 21
125.702
 31
0.0
  0
LINE
  8
0
 62
     0
 10
223.616
 20
125.702
 30
0.0
 11
224.397
 21
125.869
 31
0.0
  0
LINE
  8
0
 62
     0
 10
224.397
 20
125.869
 30
0.0
 11
223.754
 21
128.9
 31
0.0
  0
LINE
  8
0
 62
     0
 10
223.754
 20
128.9
 30
0.0
 11
222.971
 21
128.735
 31
0.0
  0
LINE
  8
0
 62
     0
 10
222.971
 20
128.735
 30
0.0
 11
222.763
 21
129.712
 31
0.0
  0
LINE
  8
0
 62
     0
 10
222.763
 20
129.712
 30
0.0
 11
209.069
 21
126.802
 31
0.0
  0
LINE
  8
0
 62
     0
 10
91.6107
 20
129.877
 30
0.0
 11
90.8279
 21
130.044
 31
0.0
  0
LINE
  8
0
 62
     0
 10
90.8279
 20
130.044
 30
0.0
 11
90.1831
 21
127.011
 31
0.0
  0
LINE
  8
0
 62
     0
 10
90.1831
 20
127.011
 30
0.0
 11
90.9669
 21
126.844
 31
0.0
  0
LINE
  8
0
 62
     0
 10
90.9669
 20
126.844
 30
0.0
 11
89.7601
 21
121.171
 31
0.0
  0
LINE
  8
0
 62
     0
 10
89.7601
 20
121.171
 30
0.0
 11
88.9773
 21
121.338
 31
0.0
  0
LINE
  8
0
 62
     0
 10
88.9773
 20
121.338
 30
0.0
 11
88.3338
 21
118.306
 31
0.0
  0
LINE
  8
0
 62
     0
 10
88.3338
 20
118.306
 30
0.0
 11
89.1148
 21
118.139
 31
0.0
  0
LINE
  8
0
 62
     0
 10
89.1148
 20
118.139
 30
0.0
 11
88.9081
 21
117.161
 31
0.0
  0
LINE
  8
0
 62
     0
 10
88.9081
 20
117.161
 30
0.0
 11
102.602
 21
114.25
 31
0.0
  0
LINE
  8
0
 62
     0
 10
102.602
 20
114.25
 30
0.0
 11
102.81
 21
115.229
 31
0.0
  0
LINE
  8
0
 62
     0
 10
102.81
 20
115.229
 30
0.0
 11
103.592
 21
115.062
 31
0.0
  0
LINE
  8
0
 62
     0
 10
103.592
 20
115.062
 30
0.0
 11
104.238
 21
118.094
 31
0.0
  0
LINE
  8
0
 62
     0
 10
104.238
 20
118.094
 30
0.0
 11
103.455
 21
118.261
 31
0.0
  0
LINE
  8
0
 62
     0
 10
103.455
 20
118.261
 30
0.0
 11
104.661
 21
123.934
 31
0.0
  0
LINE
  8
0
 62
     0
 10
104.661
 20
123.934
 30
0.0
 11
105.442
 21
123.767
 31
0.0
  0
LINE
  8
0
 62
     0
 10
105.442
 20
123.767
 30
0.0
 11
106.087
 21
126.799
 31
0.0
  0
LINE
  8
0
 62
     0
 10
106.087
 20
126.799
 30
0.0
 11
105.304
 21
126.967
 31
0.0
  0
LINE
  8
0
 62
     0
 10
105.304
 20
126.967
 30
0.0
 11
105.512
 21
127.944
 31
0.0
  0
LINE
  8
0
 62
     0
 10
105.512
 20
127.944
 30
0.0
 11
91.8185
 21
130.856
 31
0.0
  0
LINE
  8
0
 62
     0
 10
91.8185
 20
130.856
 30
0.0
 11
91.6107
 21
129.877
 31
0.0
  0
LINE
  8
0
 62
     0
 10
227.703
 20
130.762
 30
0.0
 11
227.911
 21
129.785
 31
0.0
  0
LINE
  8
0
 62
     0
 10
227.911
 20
129.785
 30
0.0
 11
227.127
 21
129.618
 31
0.0
  0
LINE
  8
0
 62
     0
 10
227.127
 20
129.618
 30
0.0
 11
227.772
 21
126.585
 31
0.0
  0
LINE
  8
0
 62
     0
 10
227.772
 20
126.585
 30
0.0
 11
228.554
 21
126.752
 31
0.0
  0
LINE
  8
0
 62
     0
 10
228.554
 20
126.752
 30
0.0
 11
229.76
 21
121.079
 31
0.0
  0
LINE
  8
0
 62
     0
 10
229.76
 20
121.079
 30
0.0
 11
228.979
 21
120.912
 31
0.0
  0
LINE
  8
0
 62
     0
 10
228.979
 20
120.912
 30
0.0
 11
229.622
 21
117.88
 31
0.0
  0
LINE
  8
0
 62
     0
 10
229.622
 20
117.88
 30
0.0
 11
230.405
 21
118.047
 31
0.0
  0
LINE
  8
0
 62
     0
 10
230.405
 20
118.047
 30
0.0
 11
230.613
 21
117.069
 31
0.0
  0
LINE
  8
0
 62
     0
 10
230.613
 20
117.069
 30
0.0
 11
244.307
 21
119.979
 31
0.0
  0
LINE
  8
0
 62
     0
 10
244.307
 20
119.979
 30
0.0
 11
244.099
 21
120.957
 31
0.0
  0
LINE
  8
0
 62
     0
 10
244.099
 20
120.957
 30
0.0
 11
244.881
 21
121.124
 31
0.0
  0
LINE
  8
0
 62
     0
 10
244.881
 20
121.124
 30
0.0
 11
244.238
 21
124.156
 31
0.0
  0
LINE
  8
0
 62
     0
 10
244.238
 20
124.156
 30
0.0
 11
243.454
 21
123.989
 31
0.0
  0
LINE
  8
0
 62
     0
 10
243.454
 20
123.989
 30
0.0
 11
242.248
 21
129.662
 31
0.0
  0
LINE
  8
0
 62
     0
 10
242.248
 20
129.662
 30
0.0
 11
243.031
 21
129.829
 31
0.0
  0
LINE
  8
0
 62
     0
 10
243.031
 20
129.829
 30
0.0
 11
242.386
 21
132.861
 31
0.0
  0
LINE
  8
0
 62
     0
 10
242.386
 20
132.861
 30
0.0
 11
241.604
 21
132.696
 31
0.0
  0
LINE
  8
0
 62
     0
 10
241.604
 20
132.696
 30
0.0
 11
241.396
 21
133.674
 31
0.0
  0
LINE
  8
0
 62
     0
 10
241.396
 20
133.674
 30
0.0
 11
227.703
 21
130.762
 31
0.0
  0
LINE
  8
0
 62
     0
 10
72.9781
 20
133.838
 30
0.0
 11
72.1942
 21
134.004
 31
0.0
  0
LINE
  8
0
 62
     0
 10
72.1942
 20
134.004
 30
0.0
 11
71.5504
 21
130.972
 31
0.0
  0
LINE
  8
0
 62
     0
 10
71.5504
 20
130.972
 30
0.0
 11
72.3318
 21
130.805
 31
0.0
  0
LINE
  8
0
 62
     0
 10
72.3318
 20
130.805
 30
0.0
 11
71.126
 21
125.133
 31
0.0
  0
LINE
  8
0
 62
     0
 10
71.126
 20
125.133
 30
0.0
 11
70.3446
 21
125.298
 31
0.0
  0
LINE
  8
0
 62
     0
 10
70.3446
 20
125.298
 30
0.0
 11
69.6997
 21
122.266
 31
0.0
  0
LINE
  8
0
 62
     0
 10
69.6997
 20
122.266
 30
0.0
 11
70.4825
 21
122.1
 31
0.0
  0
LINE
  8
0
 62
     0
 10
70.4825
 20
122.1
 30
0.0
 11
70.2744
 21
121.121
 31
0.0
  0
LINE
  8
0
 62
     0
 10
70.2744
 20
121.121
 30
0.0
 11
83.9682
 21
118.211
 31
0.0
  0
LINE
  8
0
 62
     0
 10
83.9682
 20
118.211
 30
0.0
 11
84.176
 21
119.189
 31
0.0
  0
LINE
  8
0
 62
     0
 10
84.176
 20
119.189
 30
0.0
 11
84.9588
 21
119.023
 31
0.0
  0
LINE
  8
0
 62
     0
 10
84.9588
 20
119.023
 30
0.0
 11
85.6036
 21
122.055
 31
0.0
  0
LINE
  8
0
 62
     0
 10
85.6036
 20
122.055
 30
0.0
 11
84.8212
 21
122.221
 31
0.0
  0
LINE
  8
0
 62
     0
 10
84.8212
 20
122.221
 30
0.0
 11
86.0266
 21
127.894
 31
0.0
  0
LINE
  8
0
 62
     0
 10
86.0266
 20
127.894
 30
0.0
 11
86.8094
 21
127.729
 31
0.0
  0
LINE
  8
0
 62
     0
 10
86.8094
 20
127.729
 30
0.0
 11
87.4529
 21
130.761
 31
0.0
  0
LINE
  8
0
 62
     0
 10
87.4529
 20
130.761
 30
0.0
 11
86.6719
 21
130.926
 31
0.0
  0
LINE
  8
0
 62
     0
 10
86.6719
 20
130.926
 30
0.0
 11
86.8796
 21
131.906
 31
0.0
  0
LINE
  8
0
 62
     0
 10
86.8796
 20
131.906
 30
0.0
 11
73.1848
 21
134.815
 31
0.0
  0
LINE
  8
0
 62
     0
 10
73.1848
 20
134.815
 30
0.0
 11
72.9781
 21
133.838
 31
0.0
  0
LINE
  8
0
 62
     0
 10
320.754
 20
134.082
 30
0.0
 11
320.754
 21
133.083
 31
0.0
  0
LINE
  8
0
 62
     0
 10
320.754
 20
133.083
 30
0.0
 11
319.953
 21
133.083
 31
0.0
  0
LINE
  8
0
 62
     0
 10
319.953
 20
133.083
 30
0.0
 11
319.953
 21
129.982
 31
0.0
  0
LINE
  8
0
 62
     0
 10
319.953
 20
129.982
 30
0.0
 11
320.754
 21
129.982
 31
0.0
  0
LINE
  8
0
 62
     0
 10
320.754
 20
129.982
 30
0.0
 11
320.754
 21
124.182
 31
0.0
  0
LINE
  8
0
 62
     0
 10
320.754
 20
124.182
 30
0.0
 11
319.953
 21
124.182
 31
0.0
  0
LINE
  8
0
 62
     0
 10
319.953
 20
124.182
 30
0.0
 11
319.953
 21
121.083
 31
0.0
  0
LINE
  8
0
 62
     0
 10
319.953
 20
121.083
 30
0.0
 11
320.754
 21
121.083
 31
0.0
  0
LINE
  8
0
 62
     0
 10
320.754
 20
121.083
 30
0.0
 11
320.754
 21
120.082
 31
0.0
  0
LINE
  8
0
 62
     0
 10
320.754
 20
120.082
 30
0.0
 11
334.753
 21
120.082
 31
0.0
  0
LINE
  8
0
 62
     0
 10
334.753
 20
120.082
 30
0.0
 11
334.753
 21
121.083
 31
0.0
  0
LINE
  8
0
 62
     0
 10
334.753
 20
121.083
 30
0.0
 11
335.555
 21
121.083
 31
0.0
  0
LINE
  8
0
 62
     0
 10
335.555
 20
121.083
 30
0.0
 11
335.555
 21
124.182
 31
0.0
  0
LINE
  8
0
 62
     0
 10
335.555
 20
124.182
 30
0.0
 11
334.753
 21
124.182
 31
0.0
  0
LINE
  8
0
 62
     0
 10
334.753
 20
124.182
 30
0.0
 11
334.753
 21
129.982
 31
0.0
  0
LINE
  8
0
 62
     0
 10
334.753
 20
129.982
 30
0.0
 11
335.555
 21
129.982
 31
0.0
  0
LINE
  8
0
 62
     0
 10
335.555
 20
129.982
 30
0.0
 11
335.555
 21
133.083
 31
0.0
  0
LINE
  8
0
 62
     0
 10
335.555
 20
133.083
 30
0.0
 11
334.753
 21
133.083
 31
0.0
  0
LINE
  8
0
 62
     0
 10
334.753
 20
133.083
 30
0.0
 11
334.753
 21
134.082
 31
0.0
  0
LINE
  8
0
 62
     0
 10
334.753
 20
134.082
 30
0.0
 11
320.754
 21
134.082
 31
0.0
  0
LINE
  8
0
 62
     0
 10
295.322
 20
134.082
 30
0.0
 11
295.322
 21
133.083
 31
0.0
  0
LINE
  8
0
 62
     0
 10
295.322
 20
133.083
 30
0.0
 11
294.523
 21
133.083
 31
0.0
  0
LINE
  8
0
 62
     0
 10
294.523
 20
133.083
 30
0.0
 11
294.523
 21
129.982
 31
0.0
  0
LINE
  8
0
 62
     0
 10
294.523
 20
129.982
 30
0.0
 11
295.322
 21
129.982
 31
0.0
  0
LINE
  8
0
 62
     0
 10
295.322
 20
129.982
 30
0.0
 11
295.322
 21
124.182
 31
0.0
  0
LINE
  8
0
 62
     0
 10
295.322
 20
124.182
 30
0.0
 11
294.523
 21
124.182
 31
0.0
  0
LINE
  8
0
 62
     0
 10
294.523
 20
124.182
 30
0.0
 11
294.523
 21
121.083
 31
0.0
  0
LINE
  8
0
 62
     0
 10
294.523
 20
121.083
 30
0.0
 11
295.322
 21
121.083
 31
0.0
  0
LINE
  8
0
 62
     0
 10
295.322
 20
121.083
 30
0.0
 11
295.322
 21
120.082
 31
0.0
  0
LINE
  8
0
 62
     0
 10
295.322
 20
120.082
 30
0.0
 11
309.323
 21
120.082
 31
0.0
  0
LINE
  8
0
 62
     0
 10
309.323
 20
120.082
 30
0.0
 11
309.323
 21
121.083
 31
0.0
  0
LINE
  8
0
 62
     0
 10
309.323
 20
121.083
 30
0.0
 11
310.122
 21
121.083
 31
0.0
  0
LINE
  8
0
 62
     0
 10
310.122
 20
121.083
 30
0.0
 11
310.122
 21
124.182
 31
0.0
  0
LINE
  8
0
 62
     0
 10
310.122
 20
124.182
 30
0.0
 11
309.323
 21
124.182
 31
0.0
  0
LINE
  8
0
 62
     0
 10
309.323
 20
124.182
 30
0.0
 11
309.323
 21
129.982
 31
0.0
  0
LINE
  8
0
 62
     0
 10
309.323
 20
129.982
 30
0.0
 11
310.122
 21
129.982
 31
0.0
  0
LINE
  8
0
 62
     0
 10
310.122
 20
129.982
 30
0.0
 11
310.122
 21
133.083
 31
0.0
  0
LINE
  8
0
 62
     0
 10
310.122
 20
133.083
 30
0.0
 11
309.323
 21
133.083
 31
0.0
  0
LINE
  8
0
 62
     0
 10
309.323
 20
133.083
 30
0.0
 11
309.323
 21
134.082
 31
0.0
  0
LINE
  8
0
 62
     0
 10
309.323
 20
134.082
 30
0.0
 11
295.322
 21
134.082
 31
0.0
  0
LINE
  8
0
 62
     0
 10
6.42994
 20
134.082
 30
0.0
 11
6.42994
 21
133.083
 31
0.0
  0
LINE
  8
0
 62
     0
 10
6.42994
 20
133.083
 30
0.0
 11
5.62927
 21
133.083
 31
0.0
  0
LINE
  8
0
 62
     0
 10
5.62927
 20
133.083
 30
0.0
 11
5.62927
 21
129.982
 31
0.0
  0
LINE
  8
0
 62
     0
 10
5.62927
 20
129.982
 30
0.0
 11
6.42994
 21
129.982
 31
0.0
  0
LINE
  8
0
 62
     0
 10
6.42994
 20
129.982
 30
0.0
 11
6.42994
 21
124.182
 31
0.0
  0
LINE
  8
0
 62
     0
 10
6.42994
 20
124.182
 30
0.0
 11
5.62927
 21
124.182
 31
0.0
  0
LINE
  8
0
 62
     0
 10
5.62927
 20
124.182
 30
0.0
 11
5.62927
 21
121.083
 31
0.0
  0
LINE
  8
0
 62
     0
 10
5.62927
 20
121.083
 30
0.0
 11
6.42994
 21
121.083
 31
0.0
  0
LINE
  8
0
 62
     0
 10
6.42994
 20
121.083
 30
0.0
 11
6.42994
 21
120.082
 31
0.0
  0
LINE
  8
0
 62
     0
 10
6.42994
 20
120.082
 30
0.0
 11
20.4294
 21
120.082
 31
0.0
  0
LINE
  8
0
 62
     0
 10
20.4294
 20
120.082
 30
0.0
 11
20.4294
 21
121.083
 31
0.0
  0
LINE
  8
0
 62
     0
 10
20.4294
 20
121.083
 30
0.0
 11
21.2301
 21
121.083
 31
0.0
  0
LINE
  8
0
 62
     0
 10
21.2301
 20
121.083
 30
0.0
 11
21.2301
 21
124.182
 31
0.0
  0
LINE
  8
0
 62
     0
 10
21.2301
 20
124.182
 30
0.0
 11
20.4294
 21
124.182
 31
0.0
  0
LINE
  8
0
 62
     0
 10
20.4294
 20
124.182
 30
0.0
 11
20.4294
 21
129.982
 31
0.0
  0
LINE
  8
0
 62
     0
 10
20.4294
 20
129.982
 30
0.0
 11
21.2301
 21
129.982
 31
0.0
  0
LINE
  8
0
 62
     0
 10
21.2301
 20
129.982
 30
0.0
 11
21.2301
 21
133.083
 31
0.0
  0
LINE
  8
0
 62
     0
 10
21.2301
 20
133.083
 30
0.0
 11
20.4294
 21
133.083
 31
0.0
  0
LINE
  8
0
 62
     0
 10
20.4294
 20
133.083
 30
0.0
 11
20.4294
 21
134.082
 31
0.0
  0
LINE
  8
0
 62
     0
 10
20.4294
 20
134.082
 30
0.0
 11
6.42994
 21
134.082
 31
0.0
  0
LINE
  8
0
 62
     0
 10
250.27
 20
135.034
 30
0.0
 11
250.27
 21
134.035
 31
0.0
  0
LINE
  8
0
 62
     0
 10
250.27
 20
134.035
 30
0.0
 11
249.469
 21
134.035
 31
0.0
  0
LINE
  8
0
 62
     0
 10
249.469
 20
134.035
 30
0.0
 11
249.469
 21
130.934
 31
0.0
  0
LINE
  8
0
 62
     0
 10
249.469
 20
130.934
 30
0.0
 11
250.27
 21
130.934
 31
0.0
  0
LINE
  8
0
 62
     0
 10
250.27
 20
130.934
 30
0.0
 11
250.27
 21
125.134
 31
0.0
  0
LINE
  8
0
 62
     0
 10
250.27
 20
125.134
 30
0.0
 11
249.469
 21
125.134
 31
0.0
  0
LINE
  8
0
 62
     0
 10
249.469
 20
125.134
 30
0.0
 11
249.469
 21
122.035
 31
0.0
  0
LINE
  8
0
 62
     0
 10
249.469
 20
122.035
 30
0.0
 11
250.27
 21
122.035
 31
0.0
  0
LINE
  8
0
 62
     0
 10
250.27
 20
122.035
 30
0.0
 11
250.27
 21
121.035
 31
0.0
  0
LINE
  8
0
 62
     0
 10
250.27
 20
121.035
 30
0.0
 11
264.269
 21
121.035
 31
0.0
  0
LINE
  8
0
 62
     0
 10
264.269
 20
121.035
 30
0.0
 11
264.269
 21
122.035
 31
0.0
  0
LINE
  8
0
 62
     0
 10
264.269
 20
122.035
 30
0.0
 11
265.07
 21
122.035
 31
0.0
  0
LINE
  8
0
 62
     0
 10
265.07
 20
122.035
 30
0.0
 11
265.07
 21
125.134
 31
0.0
  0
LINE
  8
0
 62
     0
 10
265.07
 20
125.134
 30
0.0
 11
264.269
 21
125.134
 31
0.0
  0
LINE
  8
0
 62
     0
 10
264.269
 20
125.134
 30
0.0
 11
264.269
 21
130.934
 31
0.0
  0
LINE
  8
0
 62
     0
 10
264.269
 20
130.934
 30
0.0
 11
265.07
 21
130.934
 31
0.0
  0
LINE
  8
0
 62
     0
 10
265.07
 20
130.934
 30
0.0
 11
265.07
 21
134.035
 31
0.0
  0
LINE
  8
0
 62
     0
 10
265.07
 20
134.035
 30
0.0
 11
264.269
 21
134.035
 31
0.0
  0
LINE
  8
0
 62
     0
 10
264.269
 20
134.035
 30
0.0
 11
264.269
 21
135.034
 31
0.0
  0
LINE
  8
0
 62
     0
 10
264.269
 20
135.034
 30
0.0
 11
250.27
 21
135.034
 31
0.0
  0
LINE
  8
0
 62
     0
 10
50.2447
 20
135.034
 30
0.0
 11
50.2447
 21
134.035
 31
0.0
  0
LINE
  8
0
 62
     0
 10
50.2447
 20
134.035
 30
0.0
 11
49.4439
 21
134.035
 31
0.0
  0
LINE
  8
0
 62
     0
 10
49.4439
 20
134.035
 30
0.0
 11
49.4439
 21
130.934
 31
0.0
  0
LINE
  8
0
 62
     0
 10
49.4439
 20
130.934
 30
0.0
 11
50.2447
 21
130.934
 31
0.0
  0
LINE
  8
0
 62
     0
 10
50.2447
 20
130.934
 30
0.0
 11
50.2447
 21
125.134
 31
0.0
  0
LINE
  8
0
 62
     0
 10
50.2447
 20
125.134
 30
0.0
 11
49.4439
 21
125.134
 31
0.0
  0
LINE
  8
0
 62
     0
 10
49.4439
 20
125.134
 30
0.0
 11
49.4439
 21
122.035
 31
0.0
  0
LINE
  8
0
 62
     0
 10
49.4439
 20
122.035
 30
0.0
 11
50.2447
 21
122.035
 31
0.0
  0
LINE
  8
0
 62
     0
 10
50.2447
 20
122.035
 30
0.0
 11
50.2447
 21
121.035
 31
0.0
  0
LINE
  8
0
 62
     0
 10
50.2447
 20
121.035
 30
0.0
 11
64.244
 21
121.035
 31
0.0
  0
LINE
  8
0
 62
     0
 10
64.244
 20
121.035
 30
0.0
 11
64.244
 21
122.035
 31
0.0
  0
LINE
  8
0
 62
     0
 10
64.244
 20
122.035
 30
0.0
 11
65.0448
 21
122.035
 31
0.0
  0
LINE
  8
0
 62
     0
 10
65.0448
 20
122.035
 30
0.0
 11
65.0448
 21
125.134
 31
0.0
  0
LINE
  8
0
 62
     0
 10
65.0448
 20
125.134
 30
0.0
 11
64.244
 21
125.134
 31
0.0
  0
LINE
  8
0
 62
     0
 10
64.244
 20
125.134
 30
0.0
 11
64.244
 21
130.934
 31
0.0
  0
LINE
  8
0
 62
     0
 10
64.244
 20
130.934
 30
0.0
 11
65.0448
 21
130.934
 31
0.0
  0
LINE
  8
0
 62
     0
 10
65.0448
 20
130.934
 30
0.0
 11
65.0448
 21
134.035
 31
0.0
  0
LINE
  8
0
 62
     0
 10
65.0448
 20
134.035
 30
0.0
 11
64.244
 21
134.035
 31
0.0
  0
LINE
  8
0
 62
     0
 10
64.244
 20
134.035
 30
0.0
 11
64.244
 21
135.034
 31
0.0
  0
LINE
  8
0
 62
     0
 10
64.244
 20
135.034
 30
0.0
 11
50.2447
 21
135.034
 31
0.0
  0
LINE
  8
0
 62
     0
 10
269.32
 20
135.034
 30
0.0
 11
269.32
 21
134.035
 31
0.0
  0
LINE
  8
0
 62
     0
 10
269.32
 20
134.035
 30
0.0
 11
268.519
 21
134.035
 31
0.0
  0
LINE
  8
0
 62
     0
 10
268.519
 20
134.035
 30
0.0
 11
268.519
 21
130.934
 31
0.0
  0
LINE
  8
0
 62
     0
 10
268.519
 20
130.934
 30
0.0
 11
269.32
 21
130.934
 31
0.0
  0
LINE
  8
0
 62
     0
 10
269.32
 20
130.934
 30
0.0
 11
269.32
 21
125.134
 31
0.0
  0
LINE
  8
0
 62
     0
 10
269.32
 20
125.134
 30
0.0
 11
268.519
 21
125.134
 31
0.0
  0
LINE
  8
0
 62
     0
 10
268.519
 20
125.134
 30
0.0
 11
268.519
 21
122.035
 31
0.0
  0
LINE
  8
0
 62
     0
 10
268.519
 20
122.035
 30
0.0
 11
269.32
 21
122.035
 31
0.0
  0
LINE
  8
0
 62
     0
 10
269.32
 20
122.035
 30
0.0
 11
269.32
 21
121.035
 31
0.0
  0
LINE
  8
0
 62
     0
 10
269.32
 20
121.035
 30
0.0
 11
283.319
 21
121.035
 31
0.0
  0
LINE
  8
0
 62
     0
 10
283.319
 20
121.035
 30
0.0
 11
283.319
 21
122.035
 31
0.0
  0
LINE
  8
0
 62
     0
 10
283.319
 20
122.035
 30
0.0
 11
284.12
 21
122.035
 31
0.0
  0
LINE
  8
0
 62
     0
 10
284.12
 20
122.035
 30
0.0
 11
284.12
 21
125.134
 31
0.0
  0
LINE
  8
0
 62
     0
 10
284.12
 20
125.134
 30
0.0
 11
283.319
 21
125.134
 31
0.0
  0
LINE
  8
0
 62
     0
 10
283.319
 20
125.134
 30
0.0
 11
283.319
 21
130.934
 31
0.0
  0
LINE
  8
0
 62
     0
 10
283.319
 20
130.934
 30
0.0
 11
284.12
 21
130.934
 31
0.0
  0
LINE
  8
0
 62
     0
 10
284.12
 20
130.934
 30
0.0
 11
284.12
 21
134.035
 31
0.0
  0
LINE
  8
0
 62
     0
 10
284.12
 20
134.035
 30
0.0
 11
283.319
 21
134.035
 31
0.0
  0
LINE
  8
0
 62
     0
 10
283.319
 20
134.035
 30
0.0
 11
283.319
 21
135.034
 31
0.0
  0
LINE
  8
0
 62
     0
 10
283.319
 20
135.034
 30
0.0
 11
269.32
 21
135.034
 31
0.0
  0
LINE
  8
0
 62
     0
 10
31.1947
 20
135.034
 30
0.0
 11
31.1947
 21
134.035
 31
0.0
  0
LINE
  8
0
 62
     0
 10
31.1947
 20
134.035
 30
0.0
 11
30.394
 21
134.035
 31
0.0
  0
LINE
  8
0
 62
     0
 10
30.394
 20
134.035
 30
0.0
 11
30.394
 21
130.934
 31
0.0
  0
LINE
  8
0
 62
     0
 10
30.394
 20
130.934
 30
0.0
 11
31.1947
 21
130.934
 31
0.0
  0
LINE
  8
0
 62
     0
 10
31.1947
 20
130.934
 30
0.0
 11
31.1947
 21
125.134
 31
0.0
  0
LINE
  8
0
 62
     0
 10
31.1947
 20
125.134
 30
0.0
 11
30.394
 21
125.134
 31
0.0
  0
LINE
  8
0
 62
     0
 10
30.394
 20
125.134
 30
0.0
 11
30.394
 21
122.035
 31
0.0
  0
LINE
  8
0
 62
     0
 10
30.394
 20
122.035
 30
0.0
 11
31.1947
 21
122.035
 31
0.0
  0
LINE
  8
0
 62
     0
 10
31.1947
 20
122.035
 30
0.0
 11
31.1947
 21
121.035
 31
0.0
  0
LINE
  8
0
 62
     0
 10
31.1947
 20
121.035
 30
0.0
 11
45.194
 21
121.035
 31
0.0
  0
LINE
  8
0
 62
     0
 10
45.194
 20
121.035
 30
0.0
 11
45.194
 21
122.035
 31
0.0
  0
LINE
  8
0
 62
     0
 10
45.194
 20
122.035
 30
0.0
 11
45.9948
 21
122.035
 31
0.0
  0
LINE
  8
0
 62
     0
 10
45.9948
 20
122.035
 30
0.0
 11
45.9948
 21
125.134
 31
0.0
  0
LINE
  8
0
 62
     0
 10
45.9948
 20
125.134
 30
0.0
 11
45.194
 21
125.134
 31
0.0
  0
LINE
  8
0
 62
     0
 10
45.194
 20
125.134
 30
0.0
 11
45.194
 21
130.934
 31
0.0
  0
LINE
  8
0
 62
     0
 10
45.194
 20
130.934
 30
0.0
 11
45.9948
 21
130.934
 31
0.0
  0
LINE
  8
0
 62
     0
 10
45.9948
 20
130.934
 30
0.0
 11
45.9948
 21
134.035
 31
0.0
  0
LINE
  8
0
 62
     0
 10
45.9948
 20
134.035
 30
0.0
 11
45.194
 21
134.035
 31
0.0
  0
LINE
  8
0
 62
     0
 10
45.194
 20
134.035
 30
0.0
 11
45.194
 21
135.034
 31
0.0
  0
LINE
  8
0
 62
     0
 10
45.194
 20
135.034
 30
0.0
 11
31.1947
 21
135.034
 31
0.0
  0
ENDSEC
  0
EOF
