  0
SECTION
  2
HEADER
  9
$ACADVER
  1
AC1009
  9
$EXTMIN
 10
0.0
 20
0.0
 30
0.0
  9
$EXTMAX
 10
1000.0
 20
1000.0
 30
0.0
  9
$FILLMODE
 70
 0
  9
$SPLFRAME
 70
 1
  0
ENDSEC
  0
SECTION
  2
TABLES
  0
TABLE
  2
LAYER
 70
1
  0
LAYER
  2
0
 70
     0
 62
     7
  6
CONTINUOUS
  0
ENDTAB
  0
ENDSEC
  0
SECTION
  2
ENTITIES
  0
LINE
  8
0
 62
     0
 10
188.597
 20
57.4075
 30
0.0
 11
188.753
 21
57.4008
 31
0.0
  0
LINE
  8
0
 62
     0
 10
188.753
 20
57.4008
 30
0.0
 11
188.908
 21
57.3828
 31
0.0
  0
LINE
  8
0
 62
     0
 10
188.908
 20
57.3828
 30
0.0
 11
189.063
 21
57.3525
 31
0.0
  0
LINE
  8
0
 62
     0
 10
189.063
 20
57.3525
 30
0.0
 11
189.214
 21
57.3098
 31
0.0
  0
LINE
  8
0
 62
     0
 10
189.214
 20
57.3098
 30
0.0
 11
189.362
 21
57.2548
 31
0.0
  0
LINE
  8
0
 62
     0
 10
189.362
 20
57.2548
 30
0.0
 11
189.504
 21
57.1899
 31
0.0
  0
LINE
  8
0
 62
     0
 10
189.504
 20
57.1899
 30
0.0
 11
189.64
 21
57.113
 31
0.0
  0
LINE
  8
0
 62
     0
 10
189.64
 20
57.113
 30
0.0
 11
189.771
 21
57.0258
 31
0.0
  0
LINE
  8
0
 62
     0
 10
189.771
 20
57.0258
 30
0.0
 11
189.895
 21
56.9281
 31
0.0
  0
LINE
  8
0
 62
     0
 10
189.895
 20
56.9281
 30
0.0
 11
190.011
 21
56.8219
 31
0.0
  0
LINE
  8
0
 62
     0
 10
190.011
 20
56.8219
 30
0.0
 11
190.117
 21
56.7062
 31
0.0
  0
LINE
  8
0
 62
     0
 10
190.117
 20
56.7062
 30
0.0
 11
190.215
 21
56.5838
 31
0.0
  0
LINE
  8
0
 62
     0
 10
190.215
 20
56.5838
 30
0.0
 11
190.302
 21
56.4526
 31
0.0
  0
LINE
  8
0
 62
     0
 10
190.302
 20
56.4526
 30
0.0
 11
190.379
 21
56.315
 31
0.0
  0
LINE
  8
0
 62
     0
 10
190.379
 20
56.315
 30
0.0
 11
190.444
 21
56.1728
 31
0.0
  0
LINE
  8
0
 62
     0
 10
190.444
 20
56.1728
 30
0.0
 11
190.499
 21
56.0268
 31
0.0
  0
LINE
  8
0
 62
     0
 10
190.499
 20
56.0268
 30
0.0
 11
190.54
 21
55.874
 31
0.0
  0
LINE
  8
0
 62
     0
 10
190.54
 20
55.874
 30
0.0
 11
190.572
 21
55.7209
 31
0.0
  0
LINE
  8
0
 62
     0
 10
190.572
 20
55.7209
 30
0.0
 11
190.59
 21
55.5639
 31
0.0
  0
LINE
  8
0
 62
     0
 10
190.59
 20
55.5639
 30
0.0
 11
190.596
 21
55.4069
 31
0.0
  0
LINE
  8
0
 62
     0
 10
190.596
 20
55.4069
 30
0.0
 11
190.596
 21
2.25723
 31
0.0
  0
LINE
  8
0
 62
     0
 10
190.596
 20
2.25723
 30
0.0
 11
190.59
 21
2.10013
 31
0.0
  0
LINE
  8
0
 62
     0
 10
190.59
 20
2.10013
 30
0.0
 11
190.572
 21
1.94441
 31
0.0
  0
LINE
  8
0
 62
     0
 10
190.572
 20
1.94441
 30
0.0
 11
190.54
 21
1.79007
 31
0.0
  0
LINE
  8
0
 62
     0
 10
190.54
 20
1.79007
 30
0.0
 11
190.499
 21
1.63849
 31
0.0
  0
LINE
  8
0
 62
     0
 10
190.499
 20
1.63849
 30
0.0
 11
190.444
 21
1.49104
 31
0.0
  0
LINE
  8
0
 62
     0
 10
190.444
 20
1.49104
 30
0.0
 11
190.379
 21
1.3491
 31
0.0
  0
LINE
  8
0
 62
     0
 10
190.379
 20
1.3491
 30
0.0
 11
190.302
 21
1.21267
 31
0.0
  0
LINE
  8
0
 62
     0
 10
190.302
 20
1.21267
 30
0.0
 11
190.215
 21
1.08176
 31
0.0
  0
LINE
  8
0
 62
     0
 10
190.215
 20
1.08176
 30
0.0
 11
190.117
 21
0.957735
 31
0.0
  0
LINE
  8
0
 62
     0
 10
190.117
 20
0.957735
 30
0.0
 11
190.011
 21
0.841982
 31
0.0
  0
LINE
  8
0
 62
     0
 10
190.011
 20
0.841982
 30
0.0
 11
189.895
 21
0.735873
 31
0.0
  0
LINE
  8
0
 62
     0
 10
189.895
 20
0.735873
 30
0.0
 11
189.771
 21
0.63803
 31
0.0
  0
LINE
  8
0
 62
     0
 10
189.771
 20
0.63803
 30
0.0
 11
189.64
 21
0.551215
 31
0.0
  0
LINE
  8
0
 62
     0
 10
189.64
 20
0.551215
 30
0.0
 11
189.504
 21
0.474045
 31
0.0
  0
LINE
  8
0
 62
     0
 10
189.504
 20
0.474045
 30
0.0
 11
189.362
 21
0.409279
 31
0.0
  0
LINE
  8
0
 62
     0
 10
189.362
 20
0.409279
 30
0.0
 11
189.214
 21
0.354157
 31
0.0
  0
LINE
  8
0
 62
     0
 10
189.214
 20
0.354157
 30
0.0
 11
189.063
 21
0.312815
 31
0.0
  0
LINE
  8
0
 62
     0
 10
189.063
 20
0.312815
 30
0.0
 11
188.908
 21
0.28112
 31
0.0
  0
LINE
  8
0
 62
     0
 10
188.908
 20
0.28112
 30
0.0
 11
188.753
 21
0.263205
 31
0.0
  0
LINE
  8
0
 62
     0
 10
188.753
 20
0.263205
 30
0.0
 11
188.597
 21
0.256315
 31
0.0
  0
LINE
  8
0
 62
     0
 10
188.597
 20
0.256315
 30
0.0
 11
2.096
 21
0.257693
 31
0.0
  0
LINE
  8
0
 62
     0
 10
2.096
 20
0.257693
 30
0.0
 11
1.9389
 21
0.263205
 31
0.0
  0
LINE
  8
0
 62
     0
 10
1.9389
 20
0.263205
 30
0.0
 11
1.7818
 21
0.28112
 31
0.0
  0
LINE
  8
0
 62
     0
 10
1.7818
 20
0.28112
 30
0.0
 11
1.62884
 21
0.312815
 31
0.0
  0
LINE
  8
0
 62
     0
 10
1.62884
 20
0.312815
 30
0.0
 11
1.47588
 21
0.354157
 31
0.0
  0
LINE
  8
0
 62
     0
 10
1.47588
 20
0.354157
 30
0.0
 11
1.32981
 21
0.409279
 31
0.0
  0
LINE
  8
0
 62
     0
 10
1.32981
 20
0.409279
 30
0.0
 11
1.18787
 21
0.474045
 31
0.0
  0
LINE
  8
0
 62
     0
 10
1.18787
 20
0.474045
 30
0.0
 11
1.05006
 21
0.551215
 31
0.0
  0
LINE
  8
0
 62
     0
 10
1.05006
 20
0.551215
 30
0.0
 11
0.919152
 21
0.63803
 31
0.0
  0
LINE
  8
0
 62
     0
 10
0.919152
 20
0.63803
 30
0.0
 11
0.796505
 21
0.735873
 31
0.0
  0
LINE
  8
0
 62
     0
 10
0.796505
 20
0.735873
 30
0.0
 11
0.680752
 21
0.841982
 31
0.0
  0
LINE
  8
0
 62
     0
 10
0.680752
 20
0.841982
 30
0.0
 11
0.574643
 21
0.957735
 31
0.0
  0
LINE
  8
0
 62
     0
 10
0.574643
 20
0.957735
 30
0.0
 11
0.4768
 21
1.08176
 31
0.0
  0
LINE
  8
0
 62
     0
 10
0.4768
 20
1.08176
 30
0.0
 11
0.389985
 21
1.21267
 31
0.0
  0
LINE
  8
0
 62
     0
 10
0.389985
 20
1.21267
 30
0.0
 11
0.312815
 21
1.3491
 31
0.0
  0
LINE
  8
0
 62
     0
 10
0.312815
 20
1.3491
 30
0.0
 11
0.248047
 21
1.49104
 31
0.0
  0
LINE
  8
0
 62
     0
 10
0.248047
 20
1.49104
 30
0.0
 11
0.192925
 21
1.63849
 31
0.0
  0
LINE
  8
0
 62
     0
 10
0.192925
 20
1.63849
 30
0.0
 11
0.150206
 21
1.79007
 31
0.0
  0
LINE
  8
0
 62
     0
 10
0.150206
 20
1.79007
 30
0.0
 11
0.119889
 21
1.94441
 31
0.0
  0
LINE
  8
0
 62
     0
 10
0.119889
 20
1.94441
 30
0.0
 11
0.101975
 21
2.10013
 31
0.0
  0
LINE
  8
0
 62
     0
 10
0.101975
 20
2.10013
 30
0.0
 11
0.0950846
 21
2.25723
 31
0.0
  0
LINE
  8
0
 62
     0
 10
0.0950846
 20
2.25723
 30
0.0
 11
0.0950846
 21
55.4069
 31
0.0
  0
LINE
  8
0
 62
     0
 10
0.0950846
 20
55.4069
 30
0.0
 11
0.101975
 21
55.5639
 31
0.0
  0
LINE
  8
0
 62
     0
 10
0.101975
 20
55.5639
 30
0.0
 11
0.119889
 21
55.7209
 31
0.0
  0
LINE
  8
0
 62
     0
 10
0.119889
 20
55.7209
 30
0.0
 11
0.150206
 21
55.874
 31
0.0
  0
LINE
  8
0
 62
     0
 10
0.150206
 20
55.874
 30
0.0
 11
0.192925
 21
56.0268
 31
0.0
  0
LINE
  8
0
 62
     0
 10
0.192925
 20
56.0268
 30
0.0
 11
0.248047
 21
56.1728
 31
0.0
  0
LINE
  8
0
 62
     0
 10
0.248047
 20
56.1728
 30
0.0
 11
0.312815
 21
56.315
 31
0.0
  0
LINE
  8
0
 62
     0
 10
0.312815
 20
56.315
 30
0.0
 11
0.389985
 21
56.4526
 31
0.0
  0
LINE
  8
0
 62
     0
 10
0.389985
 20
56.4526
 30
0.0
 11
0.4768
 21
56.5838
 31
0.0
  0
LINE
  8
0
 62
     0
 10
0.4768
 20
56.5838
 30
0.0
 11
0.574643
 21
56.7062
 31
0.0
  0
LINE
  8
0
 62
     0
 10
0.574643
 20
56.7062
 30
0.0
 11
0.680752
 21
56.8219
 31
0.0
  0
LINE
  8
0
 62
     0
 10
0.680752
 20
56.8219
 30
0.0
 11
0.796505
 21
56.9281
 31
0.0
  0
LINE
  8
0
 62
     0
 10
0.796505
 20
56.9281
 30
0.0
 11
0.919152
 21
57.0258
 31
0.0
  0
LINE
  8
0
 62
     0
 10
0.919152
 20
57.0258
 30
0.0
 11
1.05006
 21
57.113
 31
0.0
  0
LINE
  8
0
 62
     0
 10
1.05006
 20
57.113
 30
0.0
 11
1.18787
 21
57.1899
 31
0.0
  0
LINE
  8
0
 62
     0
 10
1.18787
 20
57.1899
 30
0.0
 11
1.32981
 21
57.2548
 31
0.0
  0
LINE
  8
0
 62
     0
 10
1.32981
 20
57.2548
 30
0.0
 11
1.47588
 21
57.3098
 31
0.0
  0
LINE
  8
0
 62
     0
 10
1.47588
 20
57.3098
 30
0.0
 11
1.62884
 21
57.3525
 31
0.0
  0
LINE
  8
0
 62
     0
 10
1.62884
 20
57.3525
 30
0.0
 11
1.7818
 21
57.3828
 31
0.0
  0
LINE
  8
0
 62
     0
 10
1.7818
 20
57.3828
 30
0.0
 11
1.9389
 21
57.4008
 31
0.0
  0
LINE
  8
0
 62
     0
 10
1.9389
 20
57.4008
 30
0.0
 11
2.096
 21
57.4075
 31
0.0
  0
LINE
  8
0
 62
     0
 10
2.096
 20
57.4075
 30
0.0
 11
188.597
 21
57.4075
 31
0.0
  0
LINE
  8
0
 62
     0
 10
174.071
 20
16.7817
 30
0.0
 11
188.07
 21
16.7817
 31
0.0
  0
LINE
  8
0
 62
     0
 10
188.07
 20
16.7817
 30
0.0
 11
188.07
 21
2.78226
 31
0.0
  0
LINE
  8
0
 62
     0
 10
188.07
 20
2.78226
 30
0.0
 11
174.071
 21
2.78226
 31
0.0
  0
LINE
  8
0
 62
     0
 10
174.071
 20
2.78226
 30
0.0
 11
174.071
 21
16.7817
 31
0.0
  0
LINE
  8
0
 62
     0
 10
155.021
 20
16.7817
 30
0.0
 11
169.02
 21
16.7817
 31
0.0
  0
LINE
  8
0
 62
     0
 10
169.02
 20
16.7817
 30
0.0
 11
169.02
 21
2.78226
 31
0.0
  0
LINE
  8
0
 62
     0
 10
169.02
 20
2.78226
 30
0.0
 11
155.021
 21
2.78226
 31
0.0
  0
LINE
  8
0
 62
     0
 10
155.021
 20
2.78226
 30
0.0
 11
155.021
 21
16.7817
 31
0.0
  0
LINE
  8
0
 62
     0
 10
135.971
 20
16.7817
 30
0.0
 11
149.97
 21
16.7817
 31
0.0
  0
LINE
  8
0
 62
     0
 10
149.97
 20
16.7817
 30
0.0
 11
149.97
 21
2.78226
 31
0.0
  0
LINE
  8
0
 62
     0
 10
149.97
 20
2.78226
 30
0.0
 11
135.971
 21
2.78226
 31
0.0
  0
LINE
  8
0
 62
     0
 10
135.971
 20
2.78226
 30
0.0
 11
135.971
 21
16.7817
 31
0.0
  0
LINE
  8
0
 62
     0
 10
116.92
 20
16.7817
 30
0.0
 11
130.92
 21
16.7817
 31
0.0
  0
LINE
  8
0
 62
     0
 10
130.92
 20
16.7817
 30
0.0
 11
130.92
 21
2.78226
 31
0.0
  0
LINE
  8
0
 62
     0
 10
130.92
 20
2.78226
 30
0.0
 11
116.92
 21
2.78226
 31
0.0
  0
LINE
  8
0
 62
     0
 10
116.92
 20
2.78226
 30
0.0
 11
116.92
 21
16.7817
 31
0.0
  0
LINE
  8
0
 62
     0
 10
97.8697
 20
16.7817
 30
0.0
 11
111.869
 21
16.7817
 31
0.0
  0
LINE
  8
0
 62
     0
 10
111.869
 20
16.7817
 30
0.0
 11
111.869
 21
2.78226
 31
0.0
  0
LINE
  8
0
 62
     0
 10
111.869
 20
2.78226
 30
0.0
 11
97.8697
 21
2.78226
 31
0.0
  0
LINE
  8
0
 62
     0
 10
97.8697
 20
2.78226
 30
0.0
 11
97.8697
 21
16.7817
 31
0.0
  0
LINE
  8
0
 62
     0
 10
78.8211
 20
16.7817
 30
0.0
 11
92.8204
 21
16.7817
 31
0.0
  0
LINE
  8
0
 62
     0
 10
92.8204
 20
16.7817
 30
0.0
 11
92.8204
 21
2.78226
 31
0.0
  0
LINE
  8
0
 62
     0
 10
92.8204
 20
2.78226
 30
0.0
 11
78.8211
 21
2.78226
 31
0.0
  0
LINE
  8
0
 62
     0
 10
78.8211
 20
2.78226
 30
0.0
 11
78.8211
 21
16.7817
 31
0.0
  0
LINE
  8
0
 62
     0
 10
59.7711
 20
16.7817
 30
0.0
 11
73.7704
 21
16.7817
 31
0.0
  0
LINE
  8
0
 62
     0
 10
73.7704
 20
16.7817
 30
0.0
 11
73.7704
 21
2.78226
 31
0.0
  0
LINE
  8
0
 62
     0
 10
73.7704
 20
2.78226
 30
0.0
 11
59.7711
 21
2.78226
 31
0.0
  0
LINE
  8
0
 62
     0
 10
59.7711
 20
2.78226
 30
0.0
 11
59.7711
 21
16.7817
 31
0.0
  0
LINE
  8
0
 62
     0
 10
40.7211
 20
16.7817
 30
0.0
 11
54.7204
 21
16.7817
 31
0.0
  0
LINE
  8
0
 62
     0
 10
54.7204
 20
16.7817
 30
0.0
 11
54.7204
 21
2.78226
 31
0.0
  0
LINE
  8
0
 62
     0
 10
54.7204
 20
2.78226
 30
0.0
 11
40.7211
 21
2.78226
 31
0.0
  0
LINE
  8
0
 62
     0
 10
40.7211
 20
2.78226
 30
0.0
 11
40.7211
 21
16.7817
 31
0.0
  0
LINE
  8
0
 62
     0
 10
21.671
 20
16.7817
 30
0.0
 11
35.6704
 21
16.7817
 31
0.0
  0
LINE
  8
0
 62
     0
 10
35.6704
 20
16.7817
 30
0.0
 11
35.6704
 21
2.78226
 31
0.0
  0
LINE
  8
0
 62
     0
 10
35.6704
 20
2.78226
 30
0.0
 11
21.671
 21
2.78226
 31
0.0
  0
LINE
  8
0
 62
     0
 10
21.671
 20
2.78226
 30
0.0
 11
21.671
 21
16.7817
 31
0.0
  0
LINE
  8
0
 62
     0
 10
2.62103
 20
16.7817
 30
0.0
 11
16.6205
 21
16.7817
 31
0.0
  0
LINE
  8
0
 62
     0
 10
16.6205
 20
16.7817
 30
0.0
 11
16.6205
 21
2.78226
 31
0.0
  0
LINE
  8
0
 62
     0
 10
16.6205
 20
2.78226
 30
0.0
 11
2.62103
 21
2.78226
 31
0.0
  0
LINE
  8
0
 62
     0
 10
2.62103
 20
2.78226
 30
0.0
 11
2.62103
 21
16.7817
 31
0.0
  0
LINE
  8
0
 62
     0
 10
174.071
 20
35.8316
 30
0.0
 11
188.07
 21
35.8316
 31
0.0
  0
LINE
  8
0
 62
     0
 10
188.07
 20
35.8316
 30
0.0
 11
188.07
 21
21.8323
 31
0.0
  0
LINE
  8
0
 62
     0
 10
188.07
 20
21.8323
 30
0.0
 11
174.071
 21
21.8323
 31
0.0
  0
LINE
  8
0
 62
     0
 10
174.071
 20
21.8323
 30
0.0
 11
174.071
 21
35.8316
 31
0.0
  0
LINE
  8
0
 62
     0
 10
155.021
 20
35.8316
 30
0.0
 11
169.02
 21
35.8316
 31
0.0
  0
LINE
  8
0
 62
     0
 10
169.02
 20
35.8316
 30
0.0
 11
169.02
 21
21.8323
 31
0.0
  0
LINE
  8
0
 62
     0
 10
169.02
 20
21.8323
 30
0.0
 11
155.021
 21
21.8323
 31
0.0
  0
LINE
  8
0
 62
     0
 10
155.021
 20
21.8323
 30
0.0
 11
155.021
 21
35.8316
 31
0.0
  0
LINE
  8
0
 62
     0
 10
135.971
 20
35.8316
 30
0.0
 11
149.97
 21
35.8316
 31
0.0
  0
LINE
  8
0
 62
     0
 10
149.97
 20
35.8316
 30
0.0
 11
149.97
 21
21.8323
 31
0.0
  0
LINE
  8
0
 62
     0
 10
149.97
 20
21.8323
 30
0.0
 11
135.971
 21
21.8323
 31
0.0
  0
LINE
  8
0
 62
     0
 10
135.971
 20
21.8323
 30
0.0
 11
135.971
 21
35.8316
 31
0.0
  0
LINE
  8
0
 62
     0
 10
116.92
 20
35.8316
 30
0.0
 11
130.92
 21
35.8316
 31
0.0
  0
LINE
  8
0
 62
     0
 10
130.92
 20
35.8316
 30
0.0
 11
130.92
 21
21.8323
 31
0.0
  0
LINE
  8
0
 62
     0
 10
130.92
 20
21.8323
 30
0.0
 11
116.92
 21
21.8323
 31
0.0
  0
LINE
  8
0
 62
     0
 10
116.92
 20
21.8323
 30
0.0
 11
116.92
 21
35.8316
 31
0.0
  0
LINE
  8
0
 62
     0
 10
97.8697
 20
35.8316
 30
0.0
 11
111.869
 21
35.8316
 31
0.0
  0
LINE
  8
0
 62
     0
 10
111.869
 20
35.8316
 30
0.0
 11
111.869
 21
21.8323
 31
0.0
  0
LINE
  8
0
 62
     0
 10
111.869
 20
21.8323
 30
0.0
 11
97.8697
 21
21.8323
 31
0.0
  0
LINE
  8
0
 62
     0
 10
97.8697
 20
21.8323
 30
0.0
 11
97.8697
 21
35.8316
 31
0.0
  0
LINE
  8
0
 62
     0
 10
78.8211
 20
35.8316
 30
0.0
 11
92.8204
 21
35.8316
 31
0.0
  0
LINE
  8
0
 62
     0
 10
92.8204
 20
35.8316
 30
0.0
 11
92.8204
 21
21.8323
 31
0.0
  0
LINE
  8
0
 62
     0
 10
92.8204
 20
21.8323
 30
0.0
 11
78.8211
 21
21.8323
 31
0.0
  0
LINE
  8
0
 62
     0
 10
78.8211
 20
21.8323
 30
0.0
 11
78.8211
 21
35.8316
 31
0.0
  0
LINE
  8
0
 62
     0
 10
59.7711
 20
35.8316
 30
0.0
 11
73.7704
 21
35.8316
 31
0.0
  0
LINE
  8
0
 62
     0
 10
73.7704
 20
35.8316
 30
0.0
 11
73.7704
 21
21.8323
 31
0.0
  0
LINE
  8
0
 62
     0
 10
73.7704
 20
21.8323
 30
0.0
 11
59.7711
 21
21.8323
 31
0.0
  0
LINE
  8
0
 62
     0
 10
59.7711
 20
21.8323
 30
0.0
 11
59.7711
 21
35.8316
 31
0.0
  0
LINE
  8
0
 62
     0
 10
40.7211
 20
35.8316
 30
0.0
 11
54.7204
 21
35.8316
 31
0.0
  0
LINE
  8
0
 62
     0
 10
54.7204
 20
35.8316
 30
0.0
 11
54.7204
 21
21.8323
 31
0.0
  0
LINE
  8
0
 62
     0
 10
54.7204
 20
21.8323
 30
0.0
 11
40.7211
 21
21.8323
 31
0.0
  0
LINE
  8
0
 62
     0
 10
40.7211
 20
21.8323
 30
0.0
 11
40.7211
 21
35.8316
 31
0.0
  0
LINE
  8
0
 62
     0
 10
21.671
 20
35.8316
 30
0.0
 11
35.6704
 21
35.8316
 31
0.0
  0
LINE
  8
0
 62
     0
 10
35.6704
 20
35.8316
 30
0.0
 11
35.6704
 21
21.8323
 31
0.0
  0
LINE
  8
0
 62
     0
 10
35.6704
 20
21.8323
 30
0.0
 11
21.671
 21
21.8323
 31
0.0
  0
LINE
  8
0
 62
     0
 10
21.671
 20
21.8323
 30
0.0
 11
21.671
 21
35.8316
 31
0.0
  0
LINE
  8
0
 62
     0
 10
2.62103
 20
35.8316
 30
0.0
 11
16.6205
 21
35.8316
 31
0.0
  0
LINE
  8
0
 62
     0
 10
16.6205
 20
35.8316
 30
0.0
 11
16.6205
 21
21.8323
 31
0.0
  0
LINE
  8
0
 62
     0
 10
16.6205
 20
21.8323
 30
0.0
 11
2.62103
 21
21.8323
 31
0.0
  0
LINE
  8
0
 62
     0
 10
2.62103
 20
21.8323
 30
0.0
 11
2.62103
 21
35.8316
 31
0.0
  0
LINE
  8
0
 62
     0
 10
174.071
 20
54.8816
 30
0.0
 11
188.07
 21
54.8816
 31
0.0
  0
LINE
  8
0
 62
     0
 10
188.07
 20
54.8816
 30
0.0
 11
188.07
 21
40.8824
 31
0.0
  0
LINE
  8
0
 62
     0
 10
188.07
 20
40.8824
 30
0.0
 11
174.071
 21
40.8824
 31
0.0
  0
LINE
  8
0
 62
     0
 10
174.071
 20
40.8824
 30
0.0
 11
174.071
 21
54.8816
 31
0.0
  0
LINE
  8
0
 62
     0
 10
155.021
 20
54.8816
 30
0.0
 11
169.02
 21
54.8816
 31
0.0
  0
LINE
  8
0
 62
     0
 10
169.02
 20
54.8816
 30
0.0
 11
169.02
 21
40.8824
 31
0.0
  0
LINE
  8
0
 62
     0
 10
169.02
 20
40.8824
 30
0.0
 11
155.021
 21
40.8824
 31
0.0
  0
LINE
  8
0
 62
     0
 10
155.021
 20
40.8824
 30
0.0
 11
155.021
 21
54.8816
 31
0.0
  0
LINE
  8
0
 62
     0
 10
135.971
 20
54.8816
 30
0.0
 11
149.97
 21
54.8816
 31
0.0
  0
LINE
  8
0
 62
     0
 10
149.97
 20
54.8816
 30
0.0
 11
149.97
 21
40.8824
 31
0.0
  0
LINE
  8
0
 62
     0
 10
149.97
 20
40.8824
 30
0.0
 11
135.971
 21
40.8824
 31
0.0
  0
LINE
  8
0
 62
     0
 10
135.971
 20
40.8824
 30
0.0
 11
135.971
 21
54.8816
 31
0.0
  0
LINE
  8
0
 62
     0
 10
116.92
 20
54.8816
 30
0.0
 11
130.92
 21
54.8816
 31
0.0
  0
LINE
  8
0
 62
     0
 10
130.92
 20
54.8816
 30
0.0
 11
130.92
 21
40.8824
 31
0.0
  0
LINE
  8
0
 62
     0
 10
130.92
 20
40.8824
 30
0.0
 11
116.92
 21
40.8824
 31
0.0
  0
LINE
  8
0
 62
     0
 10
116.92
 20
40.8824
 30
0.0
 11
116.92
 21
54.8816
 31
0.0
  0
LINE
  8
0
 62
     0
 10
97.8697
 20
54.8816
 30
0.0
 11
111.869
 21
54.8816
 31
0.0
  0
LINE
  8
0
 62
     0
 10
111.869
 20
54.8816
 30
0.0
 11
111.869
 21
40.8824
 31
0.0
  0
LINE
  8
0
 62
     0
 10
111.869
 20
40.8824
 30
0.0
 11
97.8697
 21
40.8824
 31
0.0
  0
LINE
  8
0
 62
     0
 10
97.8697
 20
40.8824
 30
0.0
 11
97.8697
 21
54.8816
 31
0.0
  0
LINE
  8
0
 62
     0
 10
78.8211
 20
54.8816
 30
0.0
 11
92.8204
 21
54.8816
 31
0.0
  0
LINE
  8
0
 62
     0
 10
92.8204
 20
54.8816
 30
0.0
 11
92.8204
 21
40.8824
 31
0.0
  0
LINE
  8
0
 62
     0
 10
92.8204
 20
40.8824
 30
0.0
 11
78.8211
 21
40.8824
 31
0.0
  0
LINE
  8
0
 62
     0
 10
78.8211
 20
40.8824
 30
0.0
 11
78.8211
 21
54.8816
 31
0.0
  0
LINE
  8
0
 62
     0
 10
59.7711
 20
54.8816
 30
0.0
 11
73.7704
 21
54.8816
 31
0.0
  0
LINE
  8
0
 62
     0
 10
73.7704
 20
54.8816
 30
0.0
 11
73.7704
 21
40.8824
 31
0.0
  0
LINE
  8
0
 62
     0
 10
73.7704
 20
40.8824
 30
0.0
 11
59.7711
 21
40.8824
 31
0.0
  0
LINE
  8
0
 62
     0
 10
59.7711
 20
40.8824
 30
0.0
 11
59.7711
 21
54.8816
 31
0.0
  0
LINE
  8
0
 62
     0
 10
40.7211
 20
54.8816
 30
0.0
 11
54.7204
 21
54.8816
 31
0.0
  0
LINE
  8
0
 62
     0
 10
54.7204
 20
54.8816
 30
0.0
 11
54.7204
 21
40.8824
 31
0.0
  0
LINE
  8
0
 62
     0
 10
54.7204
 20
40.8824
 30
0.0
 11
40.7211
 21
40.8824
 31
0.0
  0
LINE
  8
0
 62
     0
 10
40.7211
 20
40.8824
 30
0.0
 11
40.7211
 21
54.8816
 31
0.0
  0
LINE
  8
0
 62
     0
 10
21.671
 20
54.8816
 30
0.0
 11
35.6704
 21
54.8816
 31
0.0
  0
LINE
  8
0
 62
     0
 10
35.6704
 20
54.8816
 30
0.0
 11
35.6704
 21
40.8824
 31
0.0
  0
LINE
  8
0
 62
     0
 10
35.6704
 20
40.8824
 30
0.0
 11
21.671
 21
40.8824
 31
0.0
  0
LINE
  8
0
 62
     0
 10
21.671
 20
40.8824
 30
0.0
 11
21.671
 21
54.8816
 31
0.0
  0
LINE
  8
0
 62
     0
 10
2.62103
 20
54.8816
 30
0.0
 11
16.6205
 21
54.8816
 31
0.0
  0
LINE
  8
0
 62
     0
 10
16.6205
 20
54.8816
 30
0.0
 11
16.6205
 21
40.8824
 31
0.0
  0
LINE
  8
0
 62
     0
 10
16.6205
 20
40.8824
 30
0.0
 11
2.62103
 21
40.8824
 31
0.0
  0
LINE
  8
0
 62
     0
 10
2.62103
 20
40.8824
 30
0.0
 11
2.62103
 21
54.8816
 31
0.0
  0
ENDSEC
  0
EOF
