  0
SECTION
  2
HEADER
  9
$ACADVER
  1
AC1009
  9
$EXTMIN
 10
0.0
 20
0.0
 30
0.0
  9
$EXTMAX
 10
1000.0
 20
1000.0
 30
0.0
  9
$FILLMODE
 70
 0
  9
$SPLFRAME
 70
 1
  0
ENDSEC
  0
SECTION
  2
TABLES
  0
TABLE
  2
LAYER
 70
1
  0
LAYER
  2
0
 70
     0
 62
     7
  6
CONTINUOUS
  0
ENDTAB
  0
ENDSEC
  0
SECTION
  2
ENTITIES
  0
LINE
  8
0
 62
     0
 10
54.2452
 20
38.3575
 30
0.0
 11
54.4823
 21
38.348
 31
0.0
  0
LINE
  8
0
 62
     0
 10
54.4823
 20
38.348
 30
0.0
 11
54.7151
 21
38.3219
 31
0.0
  0
LINE
  8
0
 62
     0
 10
54.7151
 20
38.3219
 30
0.0
 11
54.9465
 21
38.275
 31
0.0
  0
LINE
  8
0
 62
     0
 10
54.9465
 20
38.275
 30
0.0
 11
55.1737
 21
38.2115
 31
0.0
  0
LINE
  8
0
 62
     0
 10
55.1737
 20
38.2115
 30
0.0
 11
55.3942
 21
38.1289
 31
0.0
  0
LINE
  8
0
 62
     0
 10
55.3942
 20
38.1289
 30
0.0
 11
55.608
 21
38.0312
 31
0.0
  0
LINE
  8
0
 62
     0
 10
55.608
 20
38.0312
 30
0.0
 11
55.8133
 21
37.9155
 31
0.0
  0
LINE
  8
0
 62
     0
 10
55.8133
 20
37.9155
 30
0.0
 11
56.0091
 21
37.7857
 31
0.0
  0
LINE
  8
0
 62
     0
 10
56.0091
 20
37.7857
 30
0.0
 11
56.195
 21
37.6396
 31
0.0
  0
LINE
  8
0
 62
     0
 10
56.195
 20
37.6396
 30
0.0
 11
56.3672
 21
37.4798
 31
0.0
  0
LINE
  8
0
 62
     0
 10
56.3672
 20
37.4798
 30
0.0
 11
56.527
 21
37.3063
 31
0.0
  0
LINE
  8
0
 62
     0
 10
56.527
 20
37.3063
 30
0.0
 11
56.673
 21
37.1217
 31
0.0
  0
LINE
  8
0
 62
     0
 10
56.673
 20
37.1217
 30
0.0
 11
56.8043
 21
36.926
 31
0.0
  0
LINE
  8
0
 62
     0
 10
56.8043
 20
36.926
 30
0.0
 11
56.92
 21
36.7192
 31
0.0
  0
LINE
  8
0
 62
     0
 10
56.92
 20
36.7192
 30
0.0
 11
57.0177
 21
36.5054
 31
0.0
  0
LINE
  8
0
 62
     0
 10
57.0177
 20
36.5054
 30
0.0
 11
57.0988
 21
36.285
 31
0.0
  0
LINE
  8
0
 62
     0
 10
57.0988
 20
36.285
 30
0.0
 11
57.1638
 21
36.0578
 31
0.0
  0
LINE
  8
0
 62
     0
 10
57.1638
 20
36.0578
 30
0.0
 11
57.2093
 21
35.8278
 31
0.0
  0
LINE
  8
0
 62
     0
 10
57.2093
 20
35.8278
 30
0.0
 11
57.2368
 21
35.5935
 31
0.0
  0
LINE
  8
0
 62
     0
 10
57.2368
 20
35.5935
 30
0.0
 11
57.2463
 21
35.3579
 31
0.0
  0
LINE
  8
0
 62
     0
 10
57.2463
 20
35.3579
 30
0.0
 11
57.2453
 21
3.2563
 31
0.0
  0
LINE
  8
0
 62
     0
 10
57.2453
 20
3.2563
 30
0.0
 11
57.2368
 21
3.02066
 31
0.0
  0
LINE
  8
0
 62
     0
 10
57.2368
 20
3.02066
 30
0.0
 11
57.2093
 21
2.78777
 31
0.0
  0
LINE
  8
0
 62
     0
 10
57.2093
 20
2.78777
 30
0.0
 11
57.1638
 21
2.55626
 31
0.0
  0
LINE
  8
0
 62
     0
 10
57.1638
 20
2.55626
 30
0.0
 11
57.0988
 21
2.32888
 31
0.0
  0
LINE
  8
0
 62
     0
 10
57.0988
 20
2.32888
 30
0.0
 11
57.0177
 21
2.1084
 31
0.0
  0
LINE
  8
0
 62
     0
 10
57.0177
 20
2.1084
 30
0.0
 11
56.92
 21
1.8948
 31
0.0
  0
LINE
  8
0
 62
     0
 10
56.92
 20
1.8948
 30
0.0
 11
56.8043
 21
1.68947
 31
0.0
  0
LINE
  8
0
 62
     0
 10
56.8043
 20
1.68947
 30
0.0
 11
56.673
 21
1.4938
 31
0.0
  0
LINE
  8
0
 62
     0
 10
56.673
 20
1.4938
 30
0.0
 11
56.527
 21
1.30776
 31
0.0
  0
LINE
  8
0
 62
     0
 10
56.527
 20
1.30776
 30
0.0
 11
56.3672
 21
1.1355
 31
0.0
  0
LINE
  8
0
 62
     0
 10
56.3672
 20
1.1355
 30
0.0
 11
56.195
 21
0.975653
 31
0.0
  0
LINE
  8
0
 62
     0
 10
56.195
 20
0.975653
 30
0.0
 11
56.0091
 21
0.829578
 31
0.0
  0
LINE
  8
0
 62
     0
 10
56.0091
 20
0.829578
 30
0.0
 11
55.8133
 21
0.698666
 31
0.0
  0
LINE
  8
0
 62
     0
 10
55.8133
 20
0.698666
 30
0.0
 11
55.608
 21
0.582909
 31
0.0
  0
LINE
  8
0
 62
     0
 10
55.608
 20
0.582909
 30
0.0
 11
55.3942
 21
0.485069
 31
0.0
  0
LINE
  8
0
 62
     0
 10
55.3942
 20
0.485069
 30
0.0
 11
55.1737
 21
0.403765
 31
0.0
  0
LINE
  8
0
 62
     0
 10
55.1737
 20
0.403765
 30
0.0
 11
54.9465
 21
0.338998
 31
0.0
  0
LINE
  8
0
 62
     0
 10
54.9465
 20
0.338998
 30
0.0
 11
54.7151
 21
0.293522
 31
0.0
  0
LINE
  8
0
 62
     0
 10
54.7151
 20
0.293522
 30
0.0
 11
54.4823
 21
0.265961
 31
0.0
  0
LINE
  8
0
 62
     0
 10
54.4823
 20
0.265961
 30
0.0
 11
54.2452
 21
0.256315
 31
0.0
  0
LINE
  8
0
 62
     0
 10
54.2452
 20
0.256315
 30
0.0
 11
3.09507
 21
0.256315
 31
0.0
  0
LINE
  8
0
 62
     0
 10
3.09507
 20
0.256315
 30
0.0
 11
2.85943
 21
0.265961
 31
0.0
  0
LINE
  8
0
 62
     0
 10
2.85943
 20
0.265961
 30
0.0
 11
2.62516
 21
0.293522
 31
0.0
  0
LINE
  8
0
 62
     0
 10
2.62516
 20
0.293522
 30
0.0
 11
2.39503
 21
0.338998
 31
0.0
  0
LINE
  8
0
 62
     0
 10
2.39503
 20
0.338998
 30
0.0
 11
2.16765
 21
0.403765
 31
0.0
  0
LINE
  8
0
 62
     0
 10
2.16765
 20
0.403765
 30
0.0
 11
1.94717
 21
0.485069
 31
0.0
  0
LINE
  8
0
 62
     0
 10
1.94717
 20
0.485069
 30
0.0
 11
1.73357
 21
0.582909
 31
0.0
  0
LINE
  8
0
 62
     0
 10
1.73357
 20
0.582909
 30
0.0
 11
1.52687
 21
0.698666
 31
0.0
  0
LINE
  8
0
 62
     0
 10
1.52687
 20
0.698666
 30
0.0
 11
1.33119
 21
0.829578
 31
0.0
  0
LINE
  8
0
 62
     0
 10
1.33119
 20
0.829578
 30
0.0
 11
1.14653
 21
0.975653
 31
0.0
  0
LINE
  8
0
 62
     0
 10
1.14653
 20
0.975653
 30
0.0
 11
0.972894
 21
1.1355
 31
0.0
  0
LINE
  8
0
 62
     0
 10
0.972894
 20
1.1355
 30
0.0
 11
0.813043
 21
1.30776
 31
0.0
  0
LINE
  8
0
 62
     0
 10
0.813043
 20
1.30776
 30
0.0
 11
0.666972
 21
1.4938
 31
0.0
  0
LINE
  8
0
 62
     0
 10
0.666972
 20
1.4938
 30
0.0
 11
0.537436
 21
1.68947
 31
0.0
  0
LINE
  8
0
 62
     0
 10
0.537436
 20
1.68947
 30
0.0
 11
0.421679
 21
1.8948
 31
0.0
  0
LINE
  8
0
 62
     0
 10
0.421679
 20
1.8948
 30
0.0
 11
0.323839
 21
2.1084
 31
0.0
  0
LINE
  8
0
 62
     0
 10
0.323839
 20
2.1084
 30
0.0
 11
0.241157
 21
2.32888
 31
0.0
  0
LINE
  8
0
 62
     0
 10
0.241157
 20
2.32888
 30
0.0
 11
0.177767
 21
2.55626
 31
0.0
  0
LINE
  8
0
 62
     0
 10
0.177767
 20
2.55626
 30
0.0
 11
0.130914
 21
2.78777
 31
0.0
  0
LINE
  8
0
 62
     0
 10
0.130914
 20
2.78777
 30
0.0
 11
0.104731
 21
3.02066
 31
0.0
  0
LINE
  8
0
 62
     0
 10
0.104731
 20
3.02066
 30
0.0
 11
0.0950846
 21
3.25768
 31
0.0
  0
LINE
  8
0
 62
     0
 10
0.0950846
 20
3.25768
 30
0.0
 11
0.0950846
 21
35.3579
 31
0.0
  0
LINE
  8
0
 62
     0
 10
0.0950846
 20
35.3579
 30
0.0
 11
0.104731
 21
35.5935
 31
0.0
  0
LINE
  8
0
 62
     0
 10
0.104731
 20
35.5935
 30
0.0
 11
0.130914
 21
35.8278
 31
0.0
  0
LINE
  8
0
 62
     0
 10
0.130914
 20
35.8278
 30
0.0
 11
0.177767
 21
36.0578
 31
0.0
  0
LINE
  8
0
 62
     0
 10
0.177767
 20
36.0578
 30
0.0
 11
0.241157
 21
36.285
 31
0.0
  0
LINE
  8
0
 62
     0
 10
0.241157
 20
36.285
 30
0.0
 11
0.323839
 21
36.5054
 31
0.0
  0
LINE
  8
0
 62
     0
 10
0.323839
 20
36.5054
 30
0.0
 11
0.421679
 21
36.7192
 31
0.0
  0
LINE
  8
0
 62
     0
 10
0.421679
 20
36.7192
 30
0.0
 11
0.537436
 21
36.926
 31
0.0
  0
LINE
  8
0
 62
     0
 10
0.537436
 20
36.926
 30
0.0
 11
0.666972
 21
37.1217
 31
0.0
  0
LINE
  8
0
 62
     0
 10
0.666972
 20
37.1217
 30
0.0
 11
0.813043
 21
37.3063
 31
0.0
  0
LINE
  8
0
 62
     0
 10
0.813043
 20
37.3063
 30
0.0
 11
0.972894
 21
37.4798
 31
0.0
  0
LINE
  8
0
 62
     0
 10
0.972894
 20
37.4798
 30
0.0
 11
1.14653
 21
37.6396
 31
0.0
  0
LINE
  8
0
 62
     0
 10
1.14653
 20
37.6396
 30
0.0
 11
1.33119
 21
37.7857
 31
0.0
  0
LINE
  8
0
 62
     0
 10
1.33119
 20
37.7857
 30
0.0
 11
1.52687
 21
37.9155
 31
0.0
  0
LINE
  8
0
 62
     0
 10
1.52687
 20
37.9155
 30
0.0
 11
1.73357
 21
38.0312
 31
0.0
  0
LINE
  8
0
 62
     0
 10
1.73357
 20
38.0312
 30
0.0
 11
1.94717
 21
38.1289
 31
0.0
  0
LINE
  8
0
 62
     0
 10
1.94717
 20
38.1289
 30
0.0
 11
2.16765
 21
38.2115
 31
0.0
  0
LINE
  8
0
 62
     0
 10
2.16765
 20
38.2115
 30
0.0
 11
2.39503
 21
38.275
 31
0.0
  0
LINE
  8
0
 62
     0
 10
2.39503
 20
38.275
 30
0.0
 11
2.62516
 21
38.3219
 31
0.0
  0
LINE
  8
0
 62
     0
 10
2.62516
 20
38.3219
 30
0.0
 11
2.85943
 21
38.348
 31
0.0
  0
LINE
  8
0
 62
     0
 10
2.85943
 20
38.348
 30
0.0
 11
3.09507
 21
38.3575
 31
0.0
  0
LINE
  8
0
 62
     0
 10
3.09507
 20
38.3575
 30
0.0
 11
54.2452
 21
38.3575
 31
0.0
  0
LINE
  8
0
 62
     0
 10
40.7211
 20
16.7817
 30
0.0
 11
54.7204
 21
16.7817
 31
0.0
  0
LINE
  8
0
 62
     0
 10
54.7204
 20
16.7817
 30
0.0
 11
54.7204
 21
2.78226
 31
0.0
  0
LINE
  8
0
 62
     0
 10
54.7204
 20
2.78226
 30
0.0
 11
40.7211
 21
2.78226
 31
0.0
  0
LINE
  8
0
 62
     0
 10
40.7211
 20
2.78226
 30
0.0
 11
40.7211
 21
16.7817
 31
0.0
  0
LINE
  8
0
 62
     0
 10
21.671
 20
16.7817
 30
0.0
 11
35.6704
 21
16.7817
 31
0.0
  0
LINE
  8
0
 62
     0
 10
35.6704
 20
16.7817
 30
0.0
 11
35.6704
 21
2.78226
 31
0.0
  0
LINE
  8
0
 62
     0
 10
35.6704
 20
2.78226
 30
0.0
 11
21.671
 21
2.78226
 31
0.0
  0
LINE
  8
0
 62
     0
 10
21.671
 20
2.78226
 30
0.0
 11
21.671
 21
16.7817
 31
0.0
  0
LINE
  8
0
 62
     0
 10
2.62103
 20
16.7817
 30
0.0
 11
16.6205
 21
16.7817
 31
0.0
  0
LINE
  8
0
 62
     0
 10
16.6205
 20
16.7817
 30
0.0
 11
16.6205
 21
2.78226
 31
0.0
  0
LINE
  8
0
 62
     0
 10
16.6205
 20
2.78226
 30
0.0
 11
2.62103
 21
2.78226
 31
0.0
  0
LINE
  8
0
 62
     0
 10
2.62103
 20
2.78226
 30
0.0
 11
2.62103
 21
16.7817
 31
0.0
  0
LINE
  8
0
 62
     0
 10
40.7211
 20
35.8316
 30
0.0
 11
54.7204
 21
35.8316
 31
0.0
  0
LINE
  8
0
 62
     0
 10
54.7204
 20
35.8316
 30
0.0
 11
54.7204
 21
21.8323
 31
0.0
  0
LINE
  8
0
 62
     0
 10
54.7204
 20
21.8323
 30
0.0
 11
40.7211
 21
21.8323
 31
0.0
  0
LINE
  8
0
 62
     0
 10
40.7211
 20
21.8323
 30
0.0
 11
40.7211
 21
35.8316
 31
0.0
  0
LINE
  8
0
 62
     0
 10
2.62103
 20
35.8316
 30
0.0
 11
16.6205
 21
35.8316
 31
0.0
  0
LINE
  8
0
 62
     0
 10
16.6205
 20
35.8316
 30
0.0
 11
16.6205
 21
21.8323
 31
0.0
  0
LINE
  8
0
 62
     0
 10
16.6205
 20
21.8323
 30
0.0
 11
2.62103
 21
21.8323
 31
0.0
  0
LINE
  8
0
 62
     0
 10
2.62103
 20
21.8323
 30
0.0
 11
2.62103
 21
35.8316
 31
0.0
  0
ENDSEC
  0
EOF
