  0
SECTION
  2
HEADER
  9
$ACADVER
  1
AC1009
  9
$EXTMIN
 10
0.0
 20
0.0
 30
0.0
  9
$EXTMAX
 10
1000.0
 20
1000.0
 30
0.0
  9
$FILLMODE
 70
 0
  9
$SPLFRAME
 70
 1
  0
ENDSEC
  0
SECTION
  2
TABLES
  0
TABLE
  2
LAYER
 70
1
  0
LAYER
  2
0
 70
     0
 62
     7
  6
CONTINUOUS
  0
ENDTAB
  0
ENDSEC
  0
SECTION
  2
ENTITIES
  0
LINE
  8
0
 62
     0
 10
295.847
 20
107.502
 30
0.0
 11
296.003
 21
107.495
 31
0.0
  0
LINE
  8
0
 62
     0
 10
296.003
 20
107.495
 30
0.0
 11
296.158
 21
107.477
 31
0.0
  0
LINE
  8
0
 62
     0
 10
296.158
 20
107.477
 30
0.0
 11
296.313
 21
107.447
 31
0.0
  0
LINE
  8
0
 62
     0
 10
296.313
 20
107.447
 30
0.0
 11
296.464
 21
107.404
 31
0.0
  0
LINE
  8
0
 62
     0
 10
296.464
 20
107.404
 30
0.0
 11
296.612
 21
107.349
 31
0.0
  0
LINE
  8
0
 62
     0
 10
296.612
 20
107.349
 30
0.0
 11
296.753
 21
107.284
 31
0.0
  0
LINE
  8
0
 62
     0
 10
296.753
 20
107.284
 30
0.0
 11
296.89
 21
107.207
 31
0.0
  0
LINE
  8
0
 62
     0
 10
296.89
 20
107.207
 30
0.0
 11
297.021
 21
107.12
 31
0.0
  0
LINE
  8
0
 62
     0
 10
297.021
 20
107.12
 30
0.0
 11
297.145
 21
107.023
 31
0.0
  0
LINE
  8
0
 62
     0
 10
297.145
 20
107.023
 30
0.0
 11
297.261
 21
106.916
 31
0.0
  0
LINE
  8
0
 62
     0
 10
297.261
 20
106.916
 30
0.0
 11
297.367
 21
106.801
 31
0.0
  0
LINE
  8
0
 62
     0
 10
297.367
 20
106.801
 30
0.0
 11
297.465
 21
106.678
 31
0.0
  0
LINE
  8
0
 62
     0
 10
297.465
 20
106.678
 30
0.0
 11
297.551
 21
106.547
 31
0.0
  0
LINE
  8
0
 62
     0
 10
297.551
 20
106.547
 30
0.0
 11
297.629
 21
106.409
 31
0.0
  0
LINE
  8
0
 62
     0
 10
297.629
 20
106.409
 30
0.0
 11
297.693
 21
106.267
 31
0.0
  0
LINE
  8
0
 62
     0
 10
297.693
 20
106.267
 30
0.0
 11
297.749
 21
106.121
 31
0.0
  0
LINE
  8
0
 62
     0
 10
297.749
 20
106.121
 30
0.0
 11
297.79
 21
105.968
 31
0.0
  0
LINE
  8
0
 62
     0
 10
297.79
 20
105.968
 30
0.0
 11
297.822
 21
105.815
 31
0.0
  0
LINE
  8
0
 62
     0
 10
297.822
 20
105.815
 30
0.0
 11
297.84
 21
105.658
 31
0.0
  0
LINE
  8
0
 62
     0
 10
297.84
 20
105.658
 30
0.0
 11
297.846
 21
105.501
 31
0.0
  0
LINE
  8
0
 62
     0
 10
297.846
 20
105.501
 30
0.0
 11
297.846
 21
2.25171
 31
0.0
  0
LINE
  8
0
 62
     0
 10
297.846
 20
2.25171
 30
0.0
 11
297.84
 21
2.09462
 31
0.0
  0
LINE
  8
0
 62
     0
 10
297.84
 20
2.09462
 30
0.0
 11
297.822
 21
1.9389
 31
0.0
  0
LINE
  8
0
 62
     0
 10
297.822
 20
1.9389
 30
0.0
 11
297.79
 21
1.78456
 31
0.0
  0
LINE
  8
0
 62
     0
 10
297.79
 20
1.78456
 30
0.0
 11
297.749
 21
1.63298
 31
0.0
  0
LINE
  8
0
 62
     0
 10
297.749
 20
1.63298
 30
0.0
 11
297.693
 21
1.48553
 31
0.0
  0
LINE
  8
0
 62
     0
 10
297.693
 20
1.48553
 30
0.0
 11
297.629
 21
1.34359
 31
0.0
  0
LINE
  8
0
 62
     0
 10
297.629
 20
1.34359
 30
0.0
 11
297.551
 21
1.20716
 31
0.0
  0
LINE
  8
0
 62
     0
 10
297.551
 20
1.20716
 30
0.0
 11
297.465
 21
1.07625
 31
0.0
  0
LINE
  8
0
 62
     0
 10
297.465
 20
1.07625
 30
0.0
 11
297.367
 21
0.952225
 31
0.0
  0
LINE
  8
0
 62
     0
 10
297.367
 20
0.952225
 30
0.0
 11
297.261
 21
0.836468
 31
0.0
  0
LINE
  8
0
 62
     0
 10
297.261
 20
0.836468
 30
0.0
 11
297.145
 21
0.730359
 31
0.0
  0
LINE
  8
0
 62
     0
 10
297.145
 20
0.730359
 30
0.0
 11
297.021
 21
0.63252
 31
0.0
  0
LINE
  8
0
 62
     0
 10
297.021
 20
0.63252
 30
0.0
 11
296.89
 21
0.545705
 31
0.0
  0
LINE
  8
0
 62
     0
 10
296.89
 20
0.545705
 30
0.0
 11
296.753
 21
0.468535
 31
0.0
  0
LINE
  8
0
 62
     0
 10
296.753
 20
0.468535
 30
0.0
 11
296.612
 21
0.403765
 31
0.0
  0
LINE
  8
0
 62
     0
 10
296.612
 20
0.403765
 30
0.0
 11
296.464
 21
0.348644
 31
0.0
  0
LINE
  8
0
 62
     0
 10
296.464
 20
0.348644
 30
0.0
 11
296.313
 21
0.307303
 31
0.0
  0
LINE
  8
0
 62
     0
 10
296.313
 20
0.307303
 30
0.0
 11
296.158
 21
0.275608
 31
0.0
  0
LINE
  8
0
 62
     0
 10
296.158
 20
0.275608
 30
0.0
 11
296.003
 21
0.257693
 31
0.0
  0
LINE
  8
0
 62
     0
 10
296.003
 20
0.257693
 30
0.0
 11
295.847
 21
0.252181
 31
0.0
  0
LINE
  8
0
 62
     0
 10
295.847
 20
0.252181
 30
0.0
 11
2.096
 21
0.252181
 31
0.0
  0
LINE
  8
0
 62
     0
 10
2.096
 20
0.252181
 30
0.0
 11
1.9389
 21
0.257693
 31
0.0
  0
LINE
  8
0
 62
     0
 10
1.9389
 20
0.257693
 30
0.0
 11
1.7818
 21
0.275608
 31
0.0
  0
LINE
  8
0
 62
     0
 10
1.7818
 20
0.275608
 30
0.0
 11
1.62884
 21
0.307303
 31
0.0
  0
LINE
  8
0
 62
     0
 10
1.62884
 20
0.307303
 30
0.0
 11
1.47588
 21
0.348644
 31
0.0
  0
LINE
  8
0
 62
     0
 10
1.47588
 20
0.348644
 30
0.0
 11
1.32981
 21
0.403765
 31
0.0
  0
LINE
  8
0
 62
     0
 10
1.32981
 20
0.403765
 30
0.0
 11
1.18787
 21
0.468535
 31
0.0
  0
LINE
  8
0
 62
     0
 10
1.18787
 20
0.468535
 30
0.0
 11
1.05006
 21
0.545705
 31
0.0
  0
LINE
  8
0
 62
     0
 10
1.05006
 20
0.545705
 30
0.0
 11
0.919152
 21
0.63252
 31
0.0
  0
LINE
  8
0
 62
     0
 10
0.919152
 20
0.63252
 30
0.0
 11
0.796505
 21
0.730359
 31
0.0
  0
LINE
  8
0
 62
     0
 10
0.796505
 20
0.730359
 30
0.0
 11
0.680752
 21
0.836468
 31
0.0
  0
LINE
  8
0
 62
     0
 10
0.680752
 20
0.836468
 30
0.0
 11
0.574643
 21
0.952225
 31
0.0
  0
LINE
  8
0
 62
     0
 10
0.574643
 20
0.952225
 30
0.0
 11
0.4768
 21
1.07625
 31
0.0
  0
LINE
  8
0
 62
     0
 10
0.4768
 20
1.07625
 30
0.0
 11
0.389985
 21
1.20716
 31
0.0
  0
LINE
  8
0
 62
     0
 10
0.389985
 20
1.20716
 30
0.0
 11
0.312815
 21
1.34359
 31
0.0
  0
LINE
  8
0
 62
     0
 10
0.312815
 20
1.34359
 30
0.0
 11
0.248047
 21
1.48553
 31
0.0
  0
LINE
  8
0
 62
     0
 10
0.248047
 20
1.48553
 30
0.0
 11
0.192925
 21
1.63298
 31
0.0
  0
LINE
  8
0
 62
     0
 10
0.192925
 20
1.63298
 30
0.0
 11
0.150206
 21
1.78456
 31
0.0
  0
LINE
  8
0
 62
     0
 10
0.150206
 20
1.78456
 30
0.0
 11
0.119889
 21
1.9389
 31
0.0
  0
LINE
  8
0
 62
     0
 10
0.119889
 20
1.9389
 30
0.0
 11
0.101975
 21
2.09462
 31
0.0
  0
LINE
  8
0
 62
     0
 10
0.101975
 20
2.09462
 30
0.0
 11
0.0950846
 21
2.25034
 31
0.0
  0
LINE
  8
0
 62
     0
 10
0.0950846
 20
2.25034
 30
0.0
 11
0.0950846
 21
105.501
 31
0.0
  0
LINE
  8
0
 62
     0
 10
0.0950846
 20
105.501
 30
0.0
 11
0.101975
 21
105.658
 31
0.0
  0
LINE
  8
0
 62
     0
 10
0.101975
 20
105.658
 30
0.0
 11
0.119889
 21
105.815
 31
0.0
  0
LINE
  8
0
 62
     0
 10
0.119889
 20
105.815
 30
0.0
 11
0.150206
 21
105.968
 31
0.0
  0
LINE
  8
0
 62
     0
 10
0.150206
 20
105.968
 30
0.0
 11
0.192925
 21
106.121
 31
0.0
  0
LINE
  8
0
 62
     0
 10
0.192925
 20
106.121
 30
0.0
 11
0.248047
 21
106.267
 31
0.0
  0
LINE
  8
0
 62
     0
 10
0.248047
 20
106.267
 30
0.0
 11
0.312815
 21
106.409
 31
0.0
  0
LINE
  8
0
 62
     0
 10
0.312815
 20
106.409
 30
0.0
 11
0.389985
 21
106.547
 31
0.0
  0
LINE
  8
0
 62
     0
 10
0.389985
 20
106.547
 30
0.0
 11
0.4768
 21
106.678
 31
0.0
  0
LINE
  8
0
 62
     0
 10
0.4768
 20
106.678
 30
0.0
 11
0.574643
 21
106.801
 31
0.0
  0
LINE
  8
0
 62
     0
 10
0.574643
 20
106.801
 30
0.0
 11
0.680752
 21
106.916
 31
0.0
  0
LINE
  8
0
 62
     0
 10
0.680752
 20
106.916
 30
0.0
 11
0.796505
 21
107.023
 31
0.0
  0
LINE
  8
0
 62
     0
 10
0.796505
 20
107.023
 30
0.0
 11
0.919152
 21
107.12
 31
0.0
  0
LINE
  8
0
 62
     0
 10
0.919152
 20
107.12
 30
0.0
 11
1.05006
 21
107.207
 31
0.0
  0
LINE
  8
0
 62
     0
 10
1.05006
 20
107.207
 30
0.0
 11
1.18787
 21
107.284
 31
0.0
  0
LINE
  8
0
 62
     0
 10
1.18787
 20
107.284
 30
0.0
 11
1.32981
 21
107.349
 31
0.0
  0
LINE
  8
0
 62
     0
 10
1.32981
 20
107.349
 30
0.0
 11
1.47588
 21
107.404
 31
0.0
  0
LINE
  8
0
 62
     0
 10
1.47588
 20
107.404
 30
0.0
 11
1.62884
 21
107.447
 31
0.0
  0
LINE
  8
0
 62
     0
 10
1.62884
 20
107.447
 30
0.0
 11
1.7818
 21
107.477
 31
0.0
  0
LINE
  8
0
 62
     0
 10
1.7818
 20
107.477
 30
0.0
 11
1.9389
 21
107.495
 31
0.0
  0
LINE
  8
0
 62
     0
 10
1.9389
 20
107.495
 30
0.0
 11
2.096
 21
107.502
 31
0.0
  0
LINE
  8
0
 62
     0
 10
2.096
 20
107.502
 30
0.0
 11
295.847
 21
107.502
 31
0.0
  0
LINE
  8
0
 62
     0
 10
2.75608
 20
4.2981
 30
0.0
 11
2.44878
 21
4.14101
 31
0.0
  0
LINE
  8
0
 62
     0
 10
2.44878
 20
4.14101
 30
0.0
 11
2.20486
 21
3.8971
 31
0.0
  0
LINE
  8
0
 62
     0
 10
2.20486
 20
3.8971
 30
0.0
 11
2.04914
 21
3.59117
 31
0.0
  0
LINE
  8
0
 62
     0
 10
2.04914
 20
3.59117
 30
0.0
 11
1.9954
 21
3.25079
 31
0.0
  0
LINE
  8
0
 62
     0
 10
1.9954
 20
3.25079
 30
0.0
 11
2.04914
 21
2.9118
 31
0.0
  0
LINE
  8
0
 62
     0
 10
2.04914
 20
2.9118
 30
0.0
 11
2.20486
 21
2.60449
 31
0.0
  0
LINE
  8
0
 62
     0
 10
2.20486
 20
2.60449
 30
0.0
 11
2.44878
 21
2.36196
 31
0.0
  0
LINE
  8
0
 62
     0
 10
2.44878
 20
2.36196
 30
0.0
 11
2.75608
 21
2.20486
 31
0.0
  0
LINE
  8
0
 62
     0
 10
2.75608
 20
2.20486
 30
0.0
 11
3.09507
 21
2.15112
 31
0.0
  0
LINE
  8
0
 62
     0
 10
3.09507
 20
2.15112
 30
0.0
 11
3.43407
 21
2.20486
 31
0.0
  0
LINE
  8
0
 62
     0
 10
3.43407
 20
2.20486
 30
0.0
 11
3.74138
 21
2.36196
 31
0.0
  0
LINE
  8
0
 62
     0
 10
3.74138
 20
2.36196
 30
0.0
 11
3.98392
 21
2.60449
 31
0.0
  0
LINE
  8
0
 62
     0
 10
3.98392
 20
2.60449
 30
0.0
 11
4.14101
 21
2.9118
 31
0.0
  0
LINE
  8
0
 62
     0
 10
4.14101
 20
2.9118
 30
0.0
 11
4.19612
 21
3.25079
 31
0.0
  0
LINE
  8
0
 62
     0
 10
4.19612
 20
3.25079
 30
0.0
 11
4.14101
 21
3.59117
 31
0.0
  0
LINE
  8
0
 62
     0
 10
4.14101
 20
3.59117
 30
0.0
 11
3.98392
 21
3.8971
 31
0.0
  0
LINE
  8
0
 62
     0
 10
3.98392
 20
3.8971
 30
0.0
 11
3.74138
 21
4.14101
 31
0.0
  0
LINE
  8
0
 62
     0
 10
3.74138
 20
4.14101
 30
0.0
 11
3.43407
 21
4.2981
 31
0.0
  0
LINE
  8
0
 62
     0
 10
3.43407
 20
4.2981
 30
0.0
 11
3.09507
 21
4.35046
 31
0.0
  0
LINE
  8
0
 62
     0
 10
3.09507
 20
4.35046
 30
0.0
 11
2.75608
 21
4.2981
 31
0.0
  0
LINE
  8
0
 62
     0
 10
75.6931
 20
4.2981
 30
0.0
 11
75.3869
 21
4.14101
 31
0.0
  0
LINE
  8
0
 62
     0
 10
75.3869
 20
4.14101
 30
0.0
 11
75.1431
 21
3.8971
 31
0.0
  0
LINE
  8
0
 62
     0
 10
75.1431
 20
3.8971
 30
0.0
 11
74.9861
 21
3.59117
 31
0.0
  0
LINE
  8
0
 62
     0
 10
74.9861
 20
3.59117
 30
0.0
 11
74.9321
 21
3.25079
 31
0.0
  0
LINE
  8
0
 62
     0
 10
74.9321
 20
3.25079
 30
0.0
 11
74.9861
 21
2.9118
 31
0.0
  0
LINE
  8
0
 62
     0
 10
74.9861
 20
2.9118
 30
0.0
 11
75.1431
 21
2.60449
 31
0.0
  0
LINE
  8
0
 62
     0
 10
75.1431
 20
2.60449
 30
0.0
 11
75.3869
 21
2.36196
 31
0.0
  0
LINE
  8
0
 62
     0
 10
75.3869
 20
2.36196
 30
0.0
 11
75.6931
 21
2.20486
 31
0.0
  0
LINE
  8
0
 62
     0
 10
75.6931
 20
2.20486
 30
0.0
 11
76.0317
 21
2.15112
 31
0.0
  0
LINE
  8
0
 62
     0
 10
76.0317
 20
2.15112
 30
0.0
 11
76.3722
 21
2.20486
 31
0.0
  0
LINE
  8
0
 62
     0
 10
76.3722
 20
2.20486
 30
0.0
 11
76.6794
 21
2.36196
 31
0.0
  0
LINE
  8
0
 62
     0
 10
76.6794
 20
2.36196
 30
0.0
 11
76.9221
 21
2.60449
 31
0.0
  0
LINE
  8
0
 62
     0
 10
76.9221
 20
2.60449
 30
0.0
 11
77.0777
 21
2.9118
 31
0.0
  0
LINE
  8
0
 62
     0
 10
77.0777
 20
2.9118
 30
0.0
 11
77.1331
 21
3.25079
 31
0.0
  0
LINE
  8
0
 62
     0
 10
77.1331
 20
3.25079
 30
0.0
 11
77.0777
 21
3.59117
 31
0.0
  0
LINE
  8
0
 62
     0
 10
77.0777
 20
3.59117
 30
0.0
 11
76.9221
 21
3.8971
 31
0.0
  0
LINE
  8
0
 62
     0
 10
76.9221
 20
3.8971
 30
0.0
 11
76.6794
 21
4.14101
 31
0.0
  0
LINE
  8
0
 62
     0
 10
76.6794
 20
4.14101
 30
0.0
 11
76.3722
 21
4.2981
 31
0.0
  0
LINE
  8
0
 62
     0
 10
76.3722
 20
4.2981
 30
0.0
 11
76.0317
 21
4.35046
 31
0.0
  0
LINE
  8
0
 62
     0
 10
76.0317
 20
4.35046
 30
0.0
 11
75.6931
 21
4.2981
 31
0.0
  0
LINE
  8
0
 62
     0
 10
148.631
 20
4.2981
 30
0.0
 11
148.324
 21
4.14101
 31
0.0
  0
LINE
  8
0
 62
     0
 10
148.324
 20
4.14101
 30
0.0
 11
148.08
 21
3.8971
 31
0.0
  0
LINE
  8
0
 62
     0
 10
148.08
 20
3.8971
 30
0.0
 11
147.924
 21
3.59117
 31
0.0
  0
LINE
  8
0
 62
     0
 10
147.924
 20
3.59117
 30
0.0
 11
147.87
 21
3.25079
 31
0.0
  0
LINE
  8
0
 62
     0
 10
147.87
 20
3.25079
 30
0.0
 11
147.924
 21
2.9118
 31
0.0
  0
LINE
  8
0
 62
     0
 10
147.924
 20
2.9118
 30
0.0
 11
148.08
 21
2.60449
 31
0.0
  0
LINE
  8
0
 62
     0
 10
148.08
 20
2.60449
 30
0.0
 11
148.324
 21
2.36196
 31
0.0
  0
LINE
  8
0
 62
     0
 10
148.324
 20
2.36196
 30
0.0
 11
148.631
 21
2.20486
 31
0.0
  0
LINE
  8
0
 62
     0
 10
148.631
 20
2.20486
 30
0.0
 11
148.97
 21
2.15112
 31
0.0
  0
LINE
  8
0
 62
     0
 10
148.97
 20
2.15112
 30
0.0
 11
149.31
 21
2.20486
 31
0.0
  0
LINE
  8
0
 62
     0
 10
149.31
 20
2.20486
 30
0.0
 11
149.618
 21
2.36196
 31
0.0
  0
LINE
  8
0
 62
     0
 10
149.618
 20
2.36196
 30
0.0
 11
149.86
 21
2.60449
 31
0.0
  0
LINE
  8
0
 62
     0
 10
149.86
 20
2.60449
 30
0.0
 11
150.016
 21
2.9118
 31
0.0
  0
LINE
  8
0
 62
     0
 10
150.016
 20
2.9118
 30
0.0
 11
150.071
 21
3.25079
 31
0.0
  0
LINE
  8
0
 62
     0
 10
150.071
 20
3.25079
 30
0.0
 11
150.016
 21
3.59117
 31
0.0
  0
LINE
  8
0
 62
     0
 10
150.016
 20
3.59117
 30
0.0
 11
149.86
 21
3.8971
 31
0.0
  0
LINE
  8
0
 62
     0
 10
149.86
 20
3.8971
 30
0.0
 11
149.618
 21
4.14101
 31
0.0
  0
LINE
  8
0
 62
     0
 10
149.618
 20
4.14101
 30
0.0
 11
149.31
 21
4.2981
 31
0.0
  0
LINE
  8
0
 62
     0
 10
149.31
 20
4.2981
 30
0.0
 11
148.97
 21
4.35046
 31
0.0
  0
LINE
  8
0
 62
     0
 10
148.97
 20
4.35046
 30
0.0
 11
148.631
 21
4.2981
 31
0.0
  0
LINE
  8
0
 62
     0
 10
221.568
 20
4.2981
 30
0.0
 11
221.262
 21
4.14101
 31
0.0
  0
LINE
  8
0
 62
     0
 10
221.262
 20
4.14101
 30
0.0
 11
221.018
 21
3.8971
 31
0.0
  0
LINE
  8
0
 62
     0
 10
221.018
 20
3.8971
 30
0.0
 11
220.862
 21
3.59117
 31
0.0
  0
LINE
  8
0
 62
     0
 10
220.862
 20
3.59117
 30
0.0
 11
220.809
 21
3.25079
 31
0.0
  0
LINE
  8
0
 62
     0
 10
220.809
 20
3.25079
 30
0.0
 11
220.862
 21
2.9118
 31
0.0
  0
LINE
  8
0
 62
     0
 10
220.862
 20
2.9118
 30
0.0
 11
221.018
 21
2.60449
 31
0.0
  0
LINE
  8
0
 62
     0
 10
221.018
 20
2.60449
 30
0.0
 11
221.262
 21
2.36196
 31
0.0
  0
LINE
  8
0
 62
     0
 10
221.262
 20
2.36196
 30
0.0
 11
221.568
 21
2.20486
 31
0.0
  0
LINE
  8
0
 62
     0
 10
221.568
 20
2.20486
 30
0.0
 11
221.908
 21
2.15112
 31
0.0
  0
LINE
  8
0
 62
     0
 10
221.908
 20
2.15112
 30
0.0
 11
222.249
 21
2.20486
 31
0.0
  0
LINE
  8
0
 62
     0
 10
222.249
 20
2.20486
 30
0.0
 11
222.554
 21
2.36196
 31
0.0
  0
LINE
  8
0
 62
     0
 10
222.554
 20
2.36196
 30
0.0
 11
222.799
 21
2.60449
 31
0.0
  0
LINE
  8
0
 62
     0
 10
222.799
 20
2.60449
 30
0.0
 11
222.954
 21
2.9118
 31
0.0
  0
LINE
  8
0
 62
     0
 10
222.954
 20
2.9118
 30
0.0
 11
223.008
 21
3.25079
 31
0.0
  0
LINE
  8
0
 62
     0
 10
223.008
 20
3.25079
 30
0.0
 11
222.954
 21
3.59117
 31
0.0
  0
LINE
  8
0
 62
     0
 10
222.954
 20
3.59117
 30
0.0
 11
222.799
 21
3.8971
 31
0.0
  0
LINE
  8
0
 62
     0
 10
222.799
 20
3.8971
 30
0.0
 11
222.554
 21
4.14101
 31
0.0
  0
LINE
  8
0
 62
     0
 10
222.554
 20
4.14101
 30
0.0
 11
222.249
 21
4.2981
 31
0.0
  0
LINE
  8
0
 62
     0
 10
222.249
 20
4.2981
 30
0.0
 11
221.908
 21
4.35046
 31
0.0
  0
LINE
  8
0
 62
     0
 10
221.908
 20
4.35046
 30
0.0
 11
221.568
 21
4.2981
 31
0.0
  0
LINE
  8
0
 62
     0
 10
294.506
 20
4.2981
 30
0.0
 11
294.2
 21
4.14101
 31
0.0
  0
LINE
  8
0
 62
     0
 10
294.2
 20
4.14101
 30
0.0
 11
293.956
 21
3.8971
 31
0.0
  0
LINE
  8
0
 62
     0
 10
293.956
 20
3.8971
 30
0.0
 11
293.799
 21
3.59117
 31
0.0
  0
LINE
  8
0
 62
     0
 10
293.799
 20
3.59117
 30
0.0
 11
293.747
 21
3.25079
 31
0.0
  0
LINE
  8
0
 62
     0
 10
293.747
 20
3.25079
 30
0.0
 11
293.799
 21
2.9118
 31
0.0
  0
LINE
  8
0
 62
     0
 10
293.799
 20
2.9118
 30
0.0
 11
293.956
 21
2.60449
 31
0.0
  0
LINE
  8
0
 62
     0
 10
293.956
 20
2.60449
 30
0.0
 11
294.2
 21
2.36196
 31
0.0
  0
LINE
  8
0
 62
     0
 10
294.2
 20
2.36196
 30
0.0
 11
294.506
 21
2.20486
 31
0.0
  0
LINE
  8
0
 62
     0
 10
294.506
 20
2.20486
 30
0.0
 11
294.846
 21
2.15112
 31
0.0
  0
LINE
  8
0
 62
     0
 10
294.846
 20
2.15112
 30
0.0
 11
295.185
 21
2.20486
 31
0.0
  0
LINE
  8
0
 62
     0
 10
295.185
 20
2.20486
 30
0.0
 11
295.493
 21
2.36196
 31
0.0
  0
LINE
  8
0
 62
     0
 10
295.493
 20
2.36196
 30
0.0
 11
295.735
 21
2.60449
 31
0.0
  0
LINE
  8
0
 62
     0
 10
295.735
 20
2.60449
 30
0.0
 11
295.892
 21
2.9118
 31
0.0
  0
LINE
  8
0
 62
     0
 10
295.892
 20
2.9118
 30
0.0
 11
295.946
 21
3.25079
 31
0.0
  0
LINE
  8
0
 62
     0
 10
295.946
 20
3.25079
 30
0.0
 11
295.892
 21
3.59117
 31
0.0
  0
LINE
  8
0
 62
     0
 10
295.892
 20
3.59117
 30
0.0
 11
295.735
 21
3.8971
 31
0.0
  0
LINE
  8
0
 62
     0
 10
295.735
 20
3.8971
 30
0.0
 11
295.493
 21
4.14101
 31
0.0
  0
LINE
  8
0
 62
     0
 10
295.493
 20
4.14101
 30
0.0
 11
295.185
 21
4.2981
 31
0.0
  0
LINE
  8
0
 62
     0
 10
295.185
 20
4.2981
 30
0.0
 11
294.846
 21
4.35046
 31
0.0
  0
LINE
  8
0
 62
     0
 10
294.846
 20
4.35046
 30
0.0
 11
294.506
 21
4.2981
 31
0.0
  0
LINE
  8
0
 62
     0
 10
2.75608
 20
54.9233
 30
0.0
 11
2.44878
 21
54.7673
 31
0.0
  0
LINE
  8
0
 62
     0
 10
2.44878
 20
54.7673
 30
0.0
 11
2.20486
 21
54.5236
 31
0.0
  0
LINE
  8
0
 62
     0
 10
2.20486
 20
54.5236
 30
0.0
 11
2.04914
 21
54.2163
 31
0.0
  0
LINE
  8
0
 62
     0
 10
2.04914
 20
54.2163
 30
0.0
 11
1.9954
 21
53.8773
 31
0.0
  0
LINE
  8
0
 62
     0
 10
1.9954
 20
53.8773
 30
0.0
 11
2.04914
 21
53.5368
 31
0.0
  0
LINE
  8
0
 62
     0
 10
2.04914
 20
53.5368
 30
0.0
 11
2.20486
 21
53.2296
 31
0.0
  0
LINE
  8
0
 62
     0
 10
2.20486
 20
53.2296
 30
0.0
 11
2.44878
 21
52.9869
 31
0.0
  0
LINE
  8
0
 62
     0
 10
2.44878
 20
52.9869
 30
0.0
 11
2.75608
 21
52.8313
 31
0.0
  0
LINE
  8
0
 62
     0
 10
2.75608
 20
52.8313
 30
0.0
 11
3.09507
 21
52.7763
 31
0.0
  0
LINE
  8
0
 62
     0
 10
3.09507
 20
52.7763
 30
0.0
 11
3.43407
 21
52.8313
 31
0.0
  0
LINE
  8
0
 62
     0
 10
3.43407
 20
52.8313
 30
0.0
 11
3.74138
 21
52.9869
 31
0.0
  0
LINE
  8
0
 62
     0
 10
3.74138
 20
52.9869
 30
0.0
 11
3.98392
 21
53.2296
 31
0.0
  0
LINE
  8
0
 62
     0
 10
3.98392
 20
53.2296
 30
0.0
 11
4.14101
 21
53.5368
 31
0.0
  0
LINE
  8
0
 62
     0
 10
4.14101
 20
53.5368
 30
0.0
 11
4.19612
 21
53.8773
 31
0.0
  0
LINE
  8
0
 62
     0
 10
4.19612
 20
53.8773
 30
0.0
 11
4.14101
 21
54.2163
 31
0.0
  0
LINE
  8
0
 62
     0
 10
4.14101
 20
54.2163
 30
0.0
 11
3.98392
 21
54.5236
 31
0.0
  0
LINE
  8
0
 62
     0
 10
3.98392
 20
54.5236
 30
0.0
 11
3.74138
 21
54.7673
 31
0.0
  0
LINE
  8
0
 62
     0
 10
3.74138
 20
54.7673
 30
0.0
 11
3.43407
 21
54.9233
 31
0.0
  0
LINE
  8
0
 62
     0
 10
3.43407
 20
54.9233
 30
0.0
 11
3.09507
 21
54.9769
 31
0.0
  0
LINE
  8
0
 62
     0
 10
3.09507
 20
54.9769
 30
0.0
 11
2.75608
 21
54.9233
 31
0.0
  0
LINE
  8
0
 62
     0
 10
294.506
 20
54.9233
 30
0.0
 11
294.2
 21
54.7673
 31
0.0
  0
LINE
  8
0
 62
     0
 10
294.2
 20
54.7673
 30
0.0
 11
293.956
 21
54.5236
 31
0.0
  0
LINE
  8
0
 62
     0
 10
293.956
 20
54.5236
 30
0.0
 11
293.799
 21
54.2163
 31
0.0
  0
LINE
  8
0
 62
     0
 10
293.799
 20
54.2163
 30
0.0
 11
293.747
 21
53.8773
 31
0.0
  0
LINE
  8
0
 62
     0
 10
293.747
 20
53.8773
 30
0.0
 11
293.799
 21
53.5368
 31
0.0
  0
LINE
  8
0
 62
     0
 10
293.799
 20
53.5368
 30
0.0
 11
293.956
 21
53.2296
 31
0.0
  0
LINE
  8
0
 62
     0
 10
293.956
 20
53.2296
 30
0.0
 11
294.2
 21
52.9869
 31
0.0
  0
LINE
  8
0
 62
     0
 10
294.2
 20
52.9869
 30
0.0
 11
294.506
 21
52.8313
 31
0.0
  0
LINE
  8
0
 62
     0
 10
294.506
 20
52.8313
 30
0.0
 11
294.846
 21
52.7763
 31
0.0
  0
LINE
  8
0
 62
     0
 10
294.846
 20
52.7763
 30
0.0
 11
295.185
 21
52.8313
 31
0.0
  0
LINE
  8
0
 62
     0
 10
295.185
 20
52.8313
 30
0.0
 11
295.493
 21
52.9869
 31
0.0
  0
LINE
  8
0
 62
     0
 10
295.493
 20
52.9869
 30
0.0
 11
295.735
 21
53.2296
 31
0.0
  0
LINE
  8
0
 62
     0
 10
295.735
 20
53.2296
 30
0.0
 11
295.892
 21
53.5368
 31
0.0
  0
LINE
  8
0
 62
     0
 10
295.892
 20
53.5368
 30
0.0
 11
295.946
 21
53.8773
 31
0.0
  0
LINE
  8
0
 62
     0
 10
295.946
 20
53.8773
 30
0.0
 11
295.892
 21
54.2163
 31
0.0
  0
LINE
  8
0
 62
     0
 10
295.892
 20
54.2163
 30
0.0
 11
295.735
 21
54.5236
 31
0.0
  0
LINE
  8
0
 62
     0
 10
295.735
 20
54.5236
 30
0.0
 11
295.493
 21
54.7673
 31
0.0
  0
LINE
  8
0
 62
     0
 10
295.493
 20
54.7673
 30
0.0
 11
295.185
 21
54.9233
 31
0.0
  0
LINE
  8
0
 62
     0
 10
295.185
 20
54.9233
 30
0.0
 11
294.846
 21
54.9769
 31
0.0
  0
LINE
  8
0
 62
     0
 10
294.846
 20
54.9769
 30
0.0
 11
294.506
 21
54.9233
 31
0.0
  0
LINE
  8
0
 62
     0
 10
2.75608
 20
105.548
 30
0.0
 11
2.44878
 21
105.392
 31
0.0
  0
LINE
  8
0
 62
     0
 10
2.44878
 20
105.392
 30
0.0
 11
2.20486
 21
105.149
 31
0.0
  0
LINE
  8
0
 62
     0
 10
2.20486
 20
105.149
 30
0.0
 11
2.04914
 21
104.841
 31
0.0
  0
LINE
  8
0
 62
     0
 10
2.04914
 20
104.841
 30
0.0
 11
1.9954
 21
104.502
 31
0.0
  0
LINE
  8
0
 62
     0
 10
1.9954
 20
104.502
 30
0.0
 11
2.04914
 21
104.163
 31
0.0
  0
LINE
  8
0
 62
     0
 10
2.04914
 20
104.163
 30
0.0
 11
2.20486
 21
103.856
 31
0.0
  0
LINE
  8
0
 62
     0
 10
2.20486
 20
103.856
 30
0.0
 11
2.44878
 21
103.613
 31
0.0
  0
LINE
  8
0
 62
     0
 10
2.44878
 20
103.613
 30
0.0
 11
2.75608
 21
103.456
 31
0.0
  0
LINE
  8
0
 62
     0
 10
2.75608
 20
103.456
 30
0.0
 11
3.09507
 21
103.401
 31
0.0
  0
LINE
  8
0
 62
     0
 10
3.09507
 20
103.401
 30
0.0
 11
3.43407
 21
103.456
 31
0.0
  0
LINE
  8
0
 62
     0
 10
3.43407
 20
103.456
 30
0.0
 11
3.74138
 21
103.613
 31
0.0
  0
LINE
  8
0
 62
     0
 10
3.74138
 20
103.613
 30
0.0
 11
3.98392
 21
103.856
 31
0.0
  0
LINE
  8
0
 62
     0
 10
3.98392
 20
103.856
 30
0.0
 11
4.14101
 21
104.163
 31
0.0
  0
LINE
  8
0
 62
     0
 10
4.14101
 20
104.163
 30
0.0
 11
4.19612
 21
104.502
 31
0.0
  0
LINE
  8
0
 62
     0
 10
4.19612
 20
104.502
 30
0.0
 11
4.14101
 21
104.841
 31
0.0
  0
LINE
  8
0
 62
     0
 10
4.14101
 20
104.841
 30
0.0
 11
3.98392
 21
105.149
 31
0.0
  0
LINE
  8
0
 62
     0
 10
3.98392
 20
105.149
 30
0.0
 11
3.74138
 21
105.392
 31
0.0
  0
LINE
  8
0
 62
     0
 10
3.74138
 20
105.392
 30
0.0
 11
3.43407
 21
105.548
 31
0.0
  0
LINE
  8
0
 62
     0
 10
3.43407
 20
105.548
 30
0.0
 11
3.09507
 21
105.602
 31
0.0
  0
LINE
  8
0
 62
     0
 10
3.09507
 20
105.602
 30
0.0
 11
2.75608
 21
105.548
 31
0.0
  0
LINE
  8
0
 62
     0
 10
294.506
 20
105.548
 30
0.0
 11
294.2
 21
105.392
 31
0.0
  0
LINE
  8
0
 62
     0
 10
294.2
 20
105.392
 30
0.0
 11
293.956
 21
105.149
 31
0.0
  0
LINE
  8
0
 62
     0
 10
293.956
 20
105.149
 30
0.0
 11
293.799
 21
104.841
 31
0.0
  0
LINE
  8
0
 62
     0
 10
293.799
 20
104.841
 30
0.0
 11
293.747
 21
104.502
 31
0.0
  0
LINE
  8
0
 62
     0
 10
293.747
 20
104.502
 30
0.0
 11
293.799
 21
104.163
 31
0.0
  0
LINE
  8
0
 62
     0
 10
293.799
 20
104.163
 30
0.0
 11
293.956
 21
103.856
 31
0.0
  0
LINE
  8
0
 62
     0
 10
293.956
 20
103.856
 30
0.0
 11
294.2
 21
103.613
 31
0.0
  0
LINE
  8
0
 62
     0
 10
294.2
 20
103.613
 30
0.0
 11
294.506
 21
103.456
 31
0.0
  0
LINE
  8
0
 62
     0
 10
294.506
 20
103.456
 30
0.0
 11
294.846
 21
103.401
 31
0.0
  0
LINE
  8
0
 62
     0
 10
294.846
 20
103.401
 30
0.0
 11
295.185
 21
103.456
 31
0.0
  0
LINE
  8
0
 62
     0
 10
295.185
 20
103.456
 30
0.0
 11
295.493
 21
103.613
 31
0.0
  0
LINE
  8
0
 62
     0
 10
295.493
 20
103.613
 30
0.0
 11
295.735
 21
103.856
 31
0.0
  0
LINE
  8
0
 62
     0
 10
295.735
 20
103.856
 30
0.0
 11
295.892
 21
104.163
 31
0.0
  0
LINE
  8
0
 62
     0
 10
295.892
 20
104.163
 30
0.0
 11
295.946
 21
104.502
 31
0.0
  0
LINE
  8
0
 62
     0
 10
295.946
 20
104.502
 30
0.0
 11
295.892
 21
104.841
 31
0.0
  0
LINE
  8
0
 62
     0
 10
295.892
 20
104.841
 30
0.0
 11
295.735
 21
105.149
 31
0.0
  0
LINE
  8
0
 62
     0
 10
295.735
 20
105.149
 30
0.0
 11
295.493
 21
105.392
 31
0.0
  0
LINE
  8
0
 62
     0
 10
295.493
 20
105.392
 30
0.0
 11
295.185
 21
105.548
 31
0.0
  0
LINE
  8
0
 62
     0
 10
295.185
 20
105.548
 30
0.0
 11
294.846
 21
105.602
 31
0.0
  0
LINE
  8
0
 62
     0
 10
294.846
 20
105.602
 30
0.0
 11
294.506
 21
105.548
 31
0.0
  0
LINE
  8
0
 62
     0
 10
221.568
 20
105.548
 30
0.0
 11
221.262
 21
105.392
 31
0.0
  0
LINE
  8
0
 62
     0
 10
221.262
 20
105.392
 30
0.0
 11
221.018
 21
105.149
 31
0.0
  0
LINE
  8
0
 62
     0
 10
221.018
 20
105.149
 30
0.0
 11
220.862
 21
104.841
 31
0.0
  0
LINE
  8
0
 62
     0
 10
220.862
 20
104.841
 30
0.0
 11
220.809
 21
104.502
 31
0.0
  0
LINE
  8
0
 62
     0
 10
220.809
 20
104.502
 30
0.0
 11
220.862
 21
104.163
 31
0.0
  0
LINE
  8
0
 62
     0
 10
220.862
 20
104.163
 30
0.0
 11
221.018
 21
103.856
 31
0.0
  0
LINE
  8
0
 62
     0
 10
221.018
 20
103.856
 30
0.0
 11
221.262
 21
103.613
 31
0.0
  0
LINE
  8
0
 62
     0
 10
221.262
 20
103.613
 30
0.0
 11
221.568
 21
103.456
 31
0.0
  0
LINE
  8
0
 62
     0
 10
221.568
 20
103.456
 30
0.0
 11
221.908
 21
103.401
 31
0.0
  0
LINE
  8
0
 62
     0
 10
221.908
 20
103.401
 30
0.0
 11
222.249
 21
103.456
 31
0.0
  0
LINE
  8
0
 62
     0
 10
222.249
 20
103.456
 30
0.0
 11
222.554
 21
103.613
 31
0.0
  0
LINE
  8
0
 62
     0
 10
222.554
 20
103.613
 30
0.0
 11
222.799
 21
103.856
 31
0.0
  0
LINE
  8
0
 62
     0
 10
222.799
 20
103.856
 30
0.0
 11
222.954
 21
104.163
 31
0.0
  0
LINE
  8
0
 62
     0
 10
222.954
 20
104.163
 30
0.0
 11
223.008
 21
104.502
 31
0.0
  0
LINE
  8
0
 62
     0
 10
223.008
 20
104.502
 30
0.0
 11
222.954
 21
104.841
 31
0.0
  0
LINE
  8
0
 62
     0
 10
222.954
 20
104.841
 30
0.0
 11
222.799
 21
105.149
 31
0.0
  0
LINE
  8
0
 62
     0
 10
222.799
 20
105.149
 30
0.0
 11
222.554
 21
105.392
 31
0.0
  0
LINE
  8
0
 62
     0
 10
222.554
 20
105.392
 30
0.0
 11
222.249
 21
105.548
 31
0.0
  0
LINE
  8
0
 62
     0
 10
222.249
 20
105.548
 30
0.0
 11
221.908
 21
105.602
 31
0.0
  0
LINE
  8
0
 62
     0
 10
221.908
 20
105.602
 30
0.0
 11
221.568
 21
105.548
 31
0.0
  0
LINE
  8
0
 62
     0
 10
148.631
 20
105.548
 30
0.0
 11
148.324
 21
105.392
 31
0.0
  0
LINE
  8
0
 62
     0
 10
148.324
 20
105.392
 30
0.0
 11
148.08
 21
105.149
 31
0.0
  0
LINE
  8
0
 62
     0
 10
148.08
 20
105.149
 30
0.0
 11
147.924
 21
104.841
 31
0.0
  0
LINE
  8
0
 62
     0
 10
147.924
 20
104.841
 30
0.0
 11
147.87
 21
104.502
 31
0.0
  0
LINE
  8
0
 62
     0
 10
147.87
 20
104.502
 30
0.0
 11
147.924
 21
104.163
 31
0.0
  0
LINE
  8
0
 62
     0
 10
147.924
 20
104.163
 30
0.0
 11
148.08
 21
103.856
 31
0.0
  0
LINE
  8
0
 62
     0
 10
148.08
 20
103.856
 30
0.0
 11
148.324
 21
103.613
 31
0.0
  0
LINE
  8
0
 62
     0
 10
148.324
 20
103.613
 30
0.0
 11
148.631
 21
103.456
 31
0.0
  0
LINE
  8
0
 62
     0
 10
148.631
 20
103.456
 30
0.0
 11
148.97
 21
103.401
 31
0.0
  0
LINE
  8
0
 62
     0
 10
148.97
 20
103.401
 30
0.0
 11
149.31
 21
103.456
 31
0.0
  0
LINE
  8
0
 62
     0
 10
149.31
 20
103.456
 30
0.0
 11
149.618
 21
103.613
 31
0.0
  0
LINE
  8
0
 62
     0
 10
149.618
 20
103.613
 30
0.0
 11
149.86
 21
103.856
 31
0.0
  0
LINE
  8
0
 62
     0
 10
149.86
 20
103.856
 30
0.0
 11
150.016
 21
104.163
 31
0.0
  0
LINE
  8
0
 62
     0
 10
150.016
 20
104.163
 30
0.0
 11
150.071
 21
104.502
 31
0.0
  0
LINE
  8
0
 62
     0
 10
150.071
 20
104.502
 30
0.0
 11
150.016
 21
104.841
 31
0.0
  0
LINE
  8
0
 62
     0
 10
150.016
 20
104.841
 30
0.0
 11
149.86
 21
105.149
 31
0.0
  0
LINE
  8
0
 62
     0
 10
149.86
 20
105.149
 30
0.0
 11
149.618
 21
105.392
 31
0.0
  0
LINE
  8
0
 62
     0
 10
149.618
 20
105.392
 30
0.0
 11
149.31
 21
105.548
 31
0.0
  0
LINE
  8
0
 62
     0
 10
149.31
 20
105.548
 30
0.0
 11
148.97
 21
105.602
 31
0.0
  0
LINE
  8
0
 62
     0
 10
148.97
 20
105.602
 30
0.0
 11
148.631
 21
105.548
 31
0.0
  0
LINE
  8
0
 62
     0
 10
75.6931
 20
105.548
 30
0.0
 11
75.3869
 21
105.392
 31
0.0
  0
LINE
  8
0
 62
     0
 10
75.3869
 20
105.392
 30
0.0
 11
75.1431
 21
105.149
 31
0.0
  0
LINE
  8
0
 62
     0
 10
75.1431
 20
105.149
 30
0.0
 11
74.9861
 21
104.841
 31
0.0
  0
LINE
  8
0
 62
     0
 10
74.9861
 20
104.841
 30
0.0
 11
74.9321
 21
104.502
 31
0.0
  0
LINE
  8
0
 62
     0
 10
74.9321
 20
104.502
 30
0.0
 11
74.9861
 21
104.163
 31
0.0
  0
LINE
  8
0
 62
     0
 10
74.9861
 20
104.163
 30
0.0
 11
75.1431
 21
103.856
 31
0.0
  0
LINE
  8
0
 62
     0
 10
75.1431
 20
103.856
 30
0.0
 11
75.3869
 21
103.613
 31
0.0
  0
LINE
  8
0
 62
     0
 10
75.3869
 20
103.613
 30
0.0
 11
75.6931
 21
103.456
 31
0.0
  0
LINE
  8
0
 62
     0
 10
75.6931
 20
103.456
 30
0.0
 11
76.0317
 21
103.401
 31
0.0
  0
LINE
  8
0
 62
     0
 10
76.0317
 20
103.401
 30
0.0
 11
76.3722
 21
103.456
 31
0.0
  0
LINE
  8
0
 62
     0
 10
76.3722
 20
103.456
 30
0.0
 11
76.6794
 21
103.613
 31
0.0
  0
LINE
  8
0
 62
     0
 10
76.6794
 20
103.613
 30
0.0
 11
76.9221
 21
103.856
 31
0.0
  0
LINE
  8
0
 62
     0
 10
76.9221
 20
103.856
 30
0.0
 11
77.0777
 21
104.163
 31
0.0
  0
LINE
  8
0
 62
     0
 10
77.0777
 20
104.163
 30
0.0
 11
77.1331
 21
104.502
 31
0.0
  0
LINE
  8
0
 62
     0
 10
77.1331
 20
104.502
 30
0.0
 11
77.0777
 21
104.841
 31
0.0
  0
LINE
  8
0
 62
     0
 10
77.0777
 20
104.841
 30
0.0
 11
76.9221
 21
105.149
 31
0.0
  0
LINE
  8
0
 62
     0
 10
76.9221
 20
105.149
 30
0.0
 11
76.6794
 21
105.392
 31
0.0
  0
LINE
  8
0
 62
     0
 10
76.6794
 20
105.392
 30
0.0
 11
76.3722
 21
105.548
 31
0.0
  0
LINE
  8
0
 62
     0
 10
76.3722
 20
105.548
 30
0.0
 11
76.0317
 21
105.602
 31
0.0
  0
LINE
  8
0
 62
     0
 10
76.0317
 20
105.602
 30
0.0
 11
75.6931
 21
105.548
 31
0.0
  0
ENDSEC
  0
EOF
