  0
SECTION
  2
HEADER
  9
$ACADVER
  1
AC1009
  9
$EXTMIN
 10
0.0
 20
0.0
 30
0.0
  9
$EXTMAX
 10
1000.0
 20
1000.0
 30
0.0
  9
$FILLMODE
 70
 0
  9
$SPLFRAME
 70
 1
  0
ENDSEC
  0
SECTION
  2
TABLES
  0
TABLE
  2
LAYER
 70
1
  0
LAYER
  2
0
 70
     0
 62
     7
  6
CONTINUOUS
  0
ENDTAB
  0
ENDSEC
  0
SECTION
  2
ENTITIES
  0
LINE
  8
0
 62
     0
 10
17.971
 20
101.502
 30
0.0
 11
6.09505
 21
101.502
 31
0.0
  0
LINE
  8
0
 62
     0
 10
6.09505
 20
101.502
 30
0.0
 11
6.09505
 21
6.25217
 31
0.0
  0
LINE
  8
0
 62
     0
 10
6.09505
 20
6.25217
 30
0.0
 11
291.846
 21
6.25217
 31
0.0
  0
LINE
  8
0
 62
     0
 10
291.846
 20
6.25217
 30
0.0
 11
291.846
 21
101.502
 31
0.0
  0
LINE
  8
0
 62
     0
 10
291.846
 20
101.502
 30
0.0
 11
31.9705
 21
101.502
 31
0.0
  0
LINE
  8
0
 62
     0
 10
31.9705
 20
101.502
 30
0.0
 11
31.9705
 21
107.502
 31
0.0
  0
LINE
  8
0
 62
     0
 10
31.9705
 20
107.502
 30
0.0
 11
295.847
 21
107.502
 31
0.0
  0
LINE
  8
0
 62
     0
 10
295.847
 20
107.502
 30
0.0
 11
296.003
 21
107.495
 31
0.0
  0
LINE
  8
0
 62
     0
 10
296.003
 20
107.495
 30
0.0
 11
296.158
 21
107.477
 31
0.0
  0
LINE
  8
0
 62
     0
 10
296.158
 20
107.477
 30
0.0
 11
296.313
 21
107.447
 31
0.0
  0
LINE
  8
0
 62
     0
 10
296.313
 20
107.447
 30
0.0
 11
296.464
 21
107.404
 31
0.0
  0
LINE
  8
0
 62
     0
 10
296.464
 20
107.404
 30
0.0
 11
296.612
 21
107.349
 31
0.0
  0
LINE
  8
0
 62
     0
 10
296.612
 20
107.349
 30
0.0
 11
296.753
 21
107.284
 31
0.0
  0
LINE
  8
0
 62
     0
 10
296.753
 20
107.284
 30
0.0
 11
296.89
 21
107.207
 31
0.0
  0
LINE
  8
0
 62
     0
 10
296.89
 20
107.207
 30
0.0
 11
297.021
 21
107.12
 31
0.0
  0
LINE
  8
0
 62
     0
 10
297.021
 20
107.12
 30
0.0
 11
297.145
 21
107.023
 31
0.0
  0
LINE
  8
0
 62
     0
 10
297.145
 20
107.023
 30
0.0
 11
297.261
 21
106.916
 31
0.0
  0
LINE
  8
0
 62
     0
 10
297.261
 20
106.916
 30
0.0
 11
297.367
 21
106.801
 31
0.0
  0
LINE
  8
0
 62
     0
 10
297.367
 20
106.801
 30
0.0
 11
297.465
 21
106.678
 31
0.0
  0
LINE
  8
0
 62
     0
 10
297.465
 20
106.678
 30
0.0
 11
297.551
 21
106.547
 31
0.0
  0
LINE
  8
0
 62
     0
 10
297.551
 20
106.547
 30
0.0
 11
297.629
 21
106.409
 31
0.0
  0
LINE
  8
0
 62
     0
 10
297.629
 20
106.409
 30
0.0
 11
297.693
 21
106.267
 31
0.0
  0
LINE
  8
0
 62
     0
 10
297.693
 20
106.267
 30
0.0
 11
297.749
 21
106.121
 31
0.0
  0
LINE
  8
0
 62
     0
 10
297.749
 20
106.121
 30
0.0
 11
297.79
 21
105.968
 31
0.0
  0
LINE
  8
0
 62
     0
 10
297.79
 20
105.968
 30
0.0
 11
297.822
 21
105.815
 31
0.0
  0
LINE
  8
0
 62
     0
 10
297.822
 20
105.815
 30
0.0
 11
297.84
 21
105.658
 31
0.0
  0
LINE
  8
0
 62
     0
 10
297.84
 20
105.658
 30
0.0
 11
297.846
 21
105.501
 31
0.0
  0
LINE
  8
0
 62
     0
 10
297.846
 20
105.501
 30
0.0
 11
297.846
 21
2.25171
 31
0.0
  0
LINE
  8
0
 62
     0
 10
297.846
 20
2.25171
 30
0.0
 11
297.84
 21
2.09462
 31
0.0
  0
LINE
  8
0
 62
     0
 10
297.84
 20
2.09462
 30
0.0
 11
297.822
 21
1.9389
 31
0.0
  0
LINE
  8
0
 62
     0
 10
297.822
 20
1.9389
 30
0.0
 11
297.79
 21
1.78456
 31
0.0
  0
LINE
  8
0
 62
     0
 10
297.79
 20
1.78456
 30
0.0
 11
297.749
 21
1.63298
 31
0.0
  0
LINE
  8
0
 62
     0
 10
297.749
 20
1.63298
 30
0.0
 11
297.693
 21
1.48553
 31
0.0
  0
LINE
  8
0
 62
     0
 10
297.693
 20
1.48553
 30
0.0
 11
297.629
 21
1.34359
 31
0.0
  0
LINE
  8
0
 62
     0
 10
297.629
 20
1.34359
 30
0.0
 11
297.551
 21
1.20716
 31
0.0
  0
LINE
  8
0
 62
     0
 10
297.551
 20
1.20716
 30
0.0
 11
297.465
 21
1.07625
 31
0.0
  0
LINE
  8
0
 62
     0
 10
297.465
 20
1.07625
 30
0.0
 11
297.367
 21
0.952225
 31
0.0
  0
LINE
  8
0
 62
     0
 10
297.367
 20
0.952225
 30
0.0
 11
297.261
 21
0.836468
 31
0.0
  0
LINE
  8
0
 62
     0
 10
297.261
 20
0.836468
 30
0.0
 11
297.145
 21
0.730359
 31
0.0
  0
LINE
  8
0
 62
     0
 10
297.145
 20
0.730359
 30
0.0
 11
297.021
 21
0.63252
 31
0.0
  0
LINE
  8
0
 62
     0
 10
297.021
 20
0.63252
 30
0.0
 11
296.89
 21
0.545705
 31
0.0
  0
LINE
  8
0
 62
     0
 10
296.89
 20
0.545705
 30
0.0
 11
296.753
 21
0.468535
 31
0.0
  0
LINE
  8
0
 62
     0
 10
296.753
 20
0.468535
 30
0.0
 11
296.612
 21
0.403765
 31
0.0
  0
LINE
  8
0
 62
     0
 10
296.612
 20
0.403765
 30
0.0
 11
296.464
 21
0.348644
 31
0.0
  0
LINE
  8
0
 62
     0
 10
296.464
 20
0.348644
 30
0.0
 11
296.313
 21
0.307303
 31
0.0
  0
LINE
  8
0
 62
     0
 10
296.313
 20
0.307303
 30
0.0
 11
296.158
 21
0.275608
 31
0.0
  0
LINE
  8
0
 62
     0
 10
296.158
 20
0.275608
 30
0.0
 11
296.003
 21
0.257693
 31
0.0
  0
LINE
  8
0
 62
     0
 10
296.003
 20
0.257693
 30
0.0
 11
295.847
 21
0.252181
 31
0.0
  0
LINE
  8
0
 62
     0
 10
295.847
 20
0.252181
 30
0.0
 11
2.096
 21
0.252181
 31
0.0
  0
LINE
  8
0
 62
     0
 10
2.096
 20
0.252181
 30
0.0
 11
1.9389
 21
0.257693
 31
0.0
  0
LINE
  8
0
 62
     0
 10
1.9389
 20
0.257693
 30
0.0
 11
1.7818
 21
0.275608
 31
0.0
  0
LINE
  8
0
 62
     0
 10
1.7818
 20
0.275608
 30
0.0
 11
1.62884
 21
0.307303
 31
0.0
  0
LINE
  8
0
 62
     0
 10
1.62884
 20
0.307303
 30
0.0
 11
1.47588
 21
0.348644
 31
0.0
  0
LINE
  8
0
 62
     0
 10
1.47588
 20
0.348644
 30
0.0
 11
1.32981
 21
0.403765
 31
0.0
  0
LINE
  8
0
 62
     0
 10
1.32981
 20
0.403765
 30
0.0
 11
1.18787
 21
0.468535
 31
0.0
  0
LINE
  8
0
 62
     0
 10
1.18787
 20
0.468535
 30
0.0
 11
1.05006
 21
0.545705
 31
0.0
  0
LINE
  8
0
 62
     0
 10
1.05006
 20
0.545705
 30
0.0
 11
0.919152
 21
0.63252
 31
0.0
  0
LINE
  8
0
 62
     0
 10
0.919152
 20
0.63252
 30
0.0
 11
0.796505
 21
0.730359
 31
0.0
  0
LINE
  8
0
 62
     0
 10
0.796505
 20
0.730359
 30
0.0
 11
0.680752
 21
0.836468
 31
0.0
  0
LINE
  8
0
 62
     0
 10
0.680752
 20
0.836468
 30
0.0
 11
0.574643
 21
0.952225
 31
0.0
  0
LINE
  8
0
 62
     0
 10
0.574643
 20
0.952225
 30
0.0
 11
0.4768
 21
1.07625
 31
0.0
  0
LINE
  8
0
 62
     0
 10
0.4768
 20
1.07625
 30
0.0
 11
0.389985
 21
1.20716
 31
0.0
  0
LINE
  8
0
 62
     0
 10
0.389985
 20
1.20716
 30
0.0
 11
0.312815
 21
1.34359
 31
0.0
  0
LINE
  8
0
 62
     0
 10
0.312815
 20
1.34359
 30
0.0
 11
0.248047
 21
1.48553
 31
0.0
  0
LINE
  8
0
 62
     0
 10
0.248047
 20
1.48553
 30
0.0
 11
0.192925
 21
1.63298
 31
0.0
  0
LINE
  8
0
 62
     0
 10
0.192925
 20
1.63298
 30
0.0
 11
0.150206
 21
1.78456
 31
0.0
  0
LINE
  8
0
 62
     0
 10
0.150206
 20
1.78456
 30
0.0
 11
0.119889
 21
1.9389
 31
0.0
  0
LINE
  8
0
 62
     0
 10
0.119889
 20
1.9389
 30
0.0
 11
0.101975
 21
2.09462
 31
0.0
  0
LINE
  8
0
 62
     0
 10
0.101975
 20
2.09462
 30
0.0
 11
0.0950846
 21
2.25034
 31
0.0
  0
LINE
  8
0
 62
     0
 10
0.0950846
 20
2.25034
 30
0.0
 11
0.0950846
 21
105.501
 31
0.0
  0
LINE
  8
0
 62
     0
 10
0.0950846
 20
105.501
 30
0.0
 11
0.101975
 21
105.658
 31
0.0
  0
LINE
  8
0
 62
     0
 10
0.101975
 20
105.658
 30
0.0
 11
0.119889
 21
105.815
 31
0.0
  0
LINE
  8
0
 62
     0
 10
0.119889
 20
105.815
 30
0.0
 11
0.150206
 21
105.968
 31
0.0
  0
LINE
  8
0
 62
     0
 10
0.150206
 20
105.968
 30
0.0
 11
0.192925
 21
106.121
 31
0.0
  0
LINE
  8
0
 62
     0
 10
0.192925
 20
106.121
 30
0.0
 11
0.248047
 21
106.267
 31
0.0
  0
LINE
  8
0
 62
     0
 10
0.248047
 20
106.267
 30
0.0
 11
0.312815
 21
106.409
 31
0.0
  0
LINE
  8
0
 62
     0
 10
0.312815
 20
106.409
 30
0.0
 11
0.389985
 21
106.547
 31
0.0
  0
LINE
  8
0
 62
     0
 10
0.389985
 20
106.547
 30
0.0
 11
0.4768
 21
106.678
 31
0.0
  0
LINE
  8
0
 62
     0
 10
0.4768
 20
106.678
 30
0.0
 11
0.574643
 21
106.801
 31
0.0
  0
LINE
  8
0
 62
     0
 10
0.574643
 20
106.801
 30
0.0
 11
0.680752
 21
106.916
 31
0.0
  0
LINE
  8
0
 62
     0
 10
0.680752
 20
106.916
 30
0.0
 11
0.796505
 21
107.023
 31
0.0
  0
LINE
  8
0
 62
     0
 10
0.796505
 20
107.023
 30
0.0
 11
0.919152
 21
107.12
 31
0.0
  0
LINE
  8
0
 62
     0
 10
0.919152
 20
107.12
 30
0.0
 11
1.05006
 21
107.207
 31
0.0
  0
LINE
  8
0
 62
     0
 10
1.05006
 20
107.207
 30
0.0
 11
1.18787
 21
107.284
 31
0.0
  0
LINE
  8
0
 62
     0
 10
1.18787
 20
107.284
 30
0.0
 11
1.32981
 21
107.349
 31
0.0
  0
LINE
  8
0
 62
     0
 10
1.32981
 20
107.349
 30
0.0
 11
1.47588
 21
107.404
 31
0.0
  0
LINE
  8
0
 62
     0
 10
1.47588
 20
107.404
 30
0.0
 11
1.62884
 21
107.447
 31
0.0
  0
LINE
  8
0
 62
     0
 10
1.62884
 20
107.447
 30
0.0
 11
1.7818
 21
107.477
 31
0.0
  0
LINE
  8
0
 62
     0
 10
1.7818
 20
107.477
 30
0.0
 11
1.9389
 21
107.495
 31
0.0
  0
LINE
  8
0
 62
     0
 10
1.9389
 20
107.495
 30
0.0
 11
2.096
 21
107.502
 31
0.0
  0
LINE
  8
0
 62
     0
 10
2.096
 20
107.502
 30
0.0
 11
17.971
 21
107.502
 31
0.0
  0
LINE
  8
0
 62
     0
 10
17.971
 20
107.502
 30
0.0
 11
17.971
 21
101.502
 31
0.0
  0
LINE
  8
0
 62
     0
 10
2.63205
 20
4.67706
 30
0.0
 11
2.21313
 21
4.46486
 31
0.0
  0
LINE
  8
0
 62
     0
 10
2.21313
 20
4.46486
 30
0.0
 11
1.88102
 21
4.13272
 31
0.0
  0
LINE
  8
0
 62
     0
 10
1.88102
 20
4.13272
 30
0.0
 11
1.6688
 21
3.71521
 31
0.0
  0
LINE
  8
0
 62
     0
 10
1.6688
 20
3.71521
 30
0.0
 11
1.59439
 21
3.25217
 31
0.0
  0
LINE
  8
0
 62
     0
 10
1.59439
 20
3.25217
 30
0.0
 11
1.6688
 21
2.78777
 31
0.0
  0
LINE
  8
0
 62
     0
 10
1.6688
 20
2.78777
 30
0.0
 11
1.88102
 21
2.37023
 31
0.0
  0
LINE
  8
0
 62
     0
 10
1.88102
 20
2.37023
 30
0.0
 11
2.21313
 21
2.03812
 31
0.0
  0
LINE
  8
0
 62
     0
 10
2.21313
 20
2.03812
 30
0.0
 11
2.63205
 21
1.82452
 31
0.0
  0
LINE
  8
0
 62
     0
 10
2.63205
 20
1.82452
 30
0.0
 11
3.09507
 21
1.75149
 31
0.0
  0
LINE
  8
0
 62
     0
 10
3.09507
 20
1.75149
 30
0.0
 11
3.55808
 21
1.82452
 31
0.0
  0
LINE
  8
0
 62
     0
 10
3.55808
 20
1.82452
 30
0.0
 11
3.97701
 21
2.03812
 31
0.0
  0
LINE
  8
0
 62
     0
 10
3.97701
 20
2.03812
 30
0.0
 11
4.30911
 21
2.37023
 31
0.0
  0
LINE
  8
0
 62
     0
 10
4.30911
 20
2.37023
 30
0.0
 11
4.52134
 21
2.78777
 31
0.0
  0
LINE
  8
0
 62
     0
 10
4.52134
 20
2.78777
 30
0.0
 11
4.59574
 21
3.25217
 31
0.0
  0
LINE
  8
0
 62
     0
 10
4.59574
 20
3.25217
 30
0.0
 11
4.52134
 21
3.71521
 31
0.0
  0
LINE
  8
0
 62
     0
 10
4.52134
 20
3.71521
 30
0.0
 11
4.30911
 21
4.13272
 31
0.0
  0
LINE
  8
0
 62
     0
 10
4.30911
 20
4.13272
 30
0.0
 11
3.97701
 21
4.46486
 31
0.0
  0
LINE
  8
0
 62
     0
 10
3.97701
 20
4.46486
 30
0.0
 11
3.55808
 21
4.67706
 31
0.0
  0
LINE
  8
0
 62
     0
 10
3.55808
 20
4.67706
 30
0.0
 11
3.09507
 21
4.75149
 31
0.0
  0
LINE
  8
0
 62
     0
 10
3.09507
 20
4.75149
 30
0.0
 11
2.63205
 21
4.67706
 31
0.0
  0
LINE
  8
0
 62
     0
 10
75.5689
 20
4.67706
 30
0.0
 11
75.1512
 21
4.46486
 31
0.0
  0
LINE
  8
0
 62
     0
 10
75.1512
 20
4.46486
 30
0.0
 11
74.8192
 21
4.13272
 31
0.0
  0
LINE
  8
0
 62
     0
 10
74.8192
 20
4.13272
 30
0.0
 11
74.6069
 21
3.71521
 31
0.0
  0
LINE
  8
0
 62
     0
 10
74.6069
 20
3.71521
 30
0.0
 11
74.5324
 21
3.25217
 31
0.0
  0
LINE
  8
0
 62
     0
 10
74.5324
 20
3.25217
 30
0.0
 11
74.6069
 21
2.78777
 31
0.0
  0
LINE
  8
0
 62
     0
 10
74.6069
 20
2.78777
 30
0.0
 11
74.8192
 21
2.37023
 31
0.0
  0
LINE
  8
0
 62
     0
 10
74.8192
 20
2.37023
 30
0.0
 11
75.1512
 21
2.03812
 31
0.0
  0
LINE
  8
0
 62
     0
 10
75.1512
 20
2.03812
 30
0.0
 11
75.5689
 21
1.82452
 31
0.0
  0
LINE
  8
0
 62
     0
 10
75.5689
 20
1.82452
 30
0.0
 11
76.0317
 21
1.75149
 31
0.0
  0
LINE
  8
0
 62
     0
 10
76.0317
 20
1.75149
 30
0.0
 11
76.4963
 21
1.82452
 31
0.0
  0
LINE
  8
0
 62
     0
 10
76.4963
 20
1.82452
 30
0.0
 11
76.9137
 21
2.03812
 31
0.0
  0
LINE
  8
0
 62
     0
 10
76.9137
 20
2.03812
 30
0.0
 11
77.246
 21
2.37023
 31
0.0
  0
LINE
  8
0
 62
     0
 10
77.246
 20
2.37023
 30
0.0
 11
77.4594
 21
2.78777
 31
0.0
  0
LINE
  8
0
 62
     0
 10
77.4594
 20
2.78777
 30
0.0
 11
77.5324
 21
3.25217
 31
0.0
  0
LINE
  8
0
 62
     0
 10
77.5324
 20
3.25217
 30
0.0
 11
77.4594
 21
3.71521
 31
0.0
  0
LINE
  8
0
 62
     0
 10
77.4594
 20
3.71521
 30
0.0
 11
77.246
 21
4.13272
 31
0.0
  0
LINE
  8
0
 62
     0
 10
77.246
 20
4.13272
 30
0.0
 11
76.9137
 21
4.46486
 31
0.0
  0
LINE
  8
0
 62
     0
 10
76.9137
 20
4.46486
 30
0.0
 11
76.4963
 21
4.67706
 31
0.0
  0
LINE
  8
0
 62
     0
 10
76.4963
 20
4.67706
 30
0.0
 11
76.0317
 21
4.75149
 31
0.0
  0
LINE
  8
0
 62
     0
 10
76.0317
 20
4.75149
 30
0.0
 11
75.5689
 21
4.67706
 31
0.0
  0
LINE
  8
0
 62
     0
 10
148.507
 20
4.67706
 30
0.0
 11
148.088
 21
4.46486
 31
0.0
  0
LINE
  8
0
 62
     0
 10
148.088
 20
4.46486
 30
0.0
 11
147.756
 21
4.13272
 31
0.0
  0
LINE
  8
0
 62
     0
 10
147.756
 20
4.13272
 30
0.0
 11
147.544
 21
3.71521
 31
0.0
  0
LINE
  8
0
 62
     0
 10
147.544
 20
3.71521
 30
0.0
 11
147.471
 21
3.25217
 31
0.0
  0
LINE
  8
0
 62
     0
 10
147.471
 20
3.25217
 30
0.0
 11
147.544
 21
2.78777
 31
0.0
  0
LINE
  8
0
 62
     0
 10
147.544
 20
2.78777
 30
0.0
 11
147.756
 21
2.37023
 31
0.0
  0
LINE
  8
0
 62
     0
 10
147.756
 20
2.37023
 30
0.0
 11
148.088
 21
2.03812
 31
0.0
  0
LINE
  8
0
 62
     0
 10
148.088
 20
2.03812
 30
0.0
 11
148.507
 21
1.82452
 31
0.0
  0
LINE
  8
0
 62
     0
 10
148.507
 20
1.82452
 30
0.0
 11
148.97
 21
1.75149
 31
0.0
  0
LINE
  8
0
 62
     0
 10
148.97
 20
1.75149
 30
0.0
 11
149.435
 21
1.82452
 31
0.0
  0
LINE
  8
0
 62
     0
 10
149.435
 20
1.82452
 30
0.0
 11
149.852
 21
2.03812
 31
0.0
  0
LINE
  8
0
 62
     0
 10
149.852
 20
2.03812
 30
0.0
 11
150.184
 21
2.37023
 31
0.0
  0
LINE
  8
0
 62
     0
 10
150.184
 20
2.37023
 30
0.0
 11
150.398
 21
2.78777
 31
0.0
  0
LINE
  8
0
 62
     0
 10
150.398
 20
2.78777
 30
0.0
 11
150.471
 21
3.25217
 31
0.0
  0
LINE
  8
0
 62
     0
 10
150.471
 20
3.25217
 30
0.0
 11
150.398
 21
3.71521
 31
0.0
  0
LINE
  8
0
 62
     0
 10
150.398
 20
3.71521
 30
0.0
 11
150.184
 21
4.13272
 31
0.0
  0
LINE
  8
0
 62
     0
 10
150.184
 20
4.13272
 30
0.0
 11
149.852
 21
4.46486
 31
0.0
  0
LINE
  8
0
 62
     0
 10
149.852
 20
4.46486
 30
0.0
 11
149.435
 21
4.67706
 31
0.0
  0
LINE
  8
0
 62
     0
 10
149.435
 20
4.67706
 30
0.0
 11
148.97
 21
4.75149
 31
0.0
  0
LINE
  8
0
 62
     0
 10
148.97
 20
4.75149
 30
0.0
 11
148.507
 21
4.67706
 31
0.0
  0
LINE
  8
0
 62
     0
 10
221.444
 20
4.67706
 30
0.0
 11
221.026
 21
4.46486
 31
0.0
  0
LINE
  8
0
 62
     0
 10
221.026
 20
4.46486
 30
0.0
 11
220.694
 21
4.13272
 31
0.0
  0
LINE
  8
0
 62
     0
 10
220.694
 20
4.13272
 30
0.0
 11
220.482
 21
3.71521
 31
0.0
  0
LINE
  8
0
 62
     0
 10
220.482
 20
3.71521
 30
0.0
 11
220.409
 21
3.25217
 31
0.0
  0
LINE
  8
0
 62
     0
 10
220.409
 20
3.25217
 30
0.0
 11
220.482
 21
2.78777
 31
0.0
  0
LINE
  8
0
 62
     0
 10
220.482
 20
2.78777
 30
0.0
 11
220.694
 21
2.37023
 31
0.0
  0
LINE
  8
0
 62
     0
 10
220.694
 20
2.37023
 30
0.0
 11
221.026
 21
2.03812
 31
0.0
  0
LINE
  8
0
 62
     0
 10
221.026
 20
2.03812
 30
0.0
 11
221.444
 21
1.82452
 31
0.0
  0
LINE
  8
0
 62
     0
 10
221.444
 20
1.82452
 30
0.0
 11
221.908
 21
1.75149
 31
0.0
  0
LINE
  8
0
 62
     0
 10
221.908
 20
1.75149
 30
0.0
 11
222.371
 21
1.82452
 31
0.0
  0
LINE
  8
0
 62
     0
 10
222.371
 20
1.82452
 30
0.0
 11
222.789
 21
2.03812
 31
0.0
  0
LINE
  8
0
 62
     0
 10
222.789
 20
2.03812
 30
0.0
 11
223.121
 21
2.37023
 31
0.0
  0
LINE
  8
0
 62
     0
 10
223.121
 20
2.37023
 30
0.0
 11
223.334
 21
2.78777
 31
0.0
  0
LINE
  8
0
 62
     0
 10
223.334
 20
2.78777
 30
0.0
 11
223.409
 21
3.25217
 31
0.0
  0
LINE
  8
0
 62
     0
 10
223.409
 20
3.25217
 30
0.0
 11
223.334
 21
3.71521
 31
0.0
  0
LINE
  8
0
 62
     0
 10
223.334
 20
3.71521
 30
0.0
 11
223.121
 21
4.13272
 31
0.0
  0
LINE
  8
0
 62
     0
 10
223.121
 20
4.13272
 30
0.0
 11
222.789
 21
4.46486
 31
0.0
  0
LINE
  8
0
 62
     0
 10
222.789
 20
4.46486
 30
0.0
 11
222.371
 21
4.67706
 31
0.0
  0
LINE
  8
0
 62
     0
 10
222.371
 20
4.67706
 30
0.0
 11
221.908
 21
4.75149
 31
0.0
  0
LINE
  8
0
 62
     0
 10
221.908
 20
4.75149
 30
0.0
 11
221.444
 21
4.67706
 31
0.0
  0
LINE
  8
0
 62
     0
 10
294.382
 20
4.67706
 30
0.0
 11
293.964
 21
4.46486
 31
0.0
  0
LINE
  8
0
 62
     0
 10
293.964
 20
4.46486
 30
0.0
 11
293.632
 21
4.13272
 31
0.0
  0
LINE
  8
0
 62
     0
 10
293.632
 20
4.13272
 30
0.0
 11
293.42
 21
3.71521
 31
0.0
  0
LINE
  8
0
 62
     0
 10
293.42
 20
3.71521
 30
0.0
 11
293.347
 21
3.25217
 31
0.0
  0
LINE
  8
0
 62
     0
 10
293.347
 20
3.25217
 30
0.0
 11
293.42
 21
2.78777
 31
0.0
  0
LINE
  8
0
 62
     0
 10
293.42
 20
2.78777
 30
0.0
 11
293.632
 21
2.37023
 31
0.0
  0
LINE
  8
0
 62
     0
 10
293.632
 20
2.37023
 30
0.0
 11
293.964
 21
2.03812
 31
0.0
  0
LINE
  8
0
 62
     0
 10
293.964
 20
2.03812
 30
0.0
 11
294.382
 21
1.82452
 31
0.0
  0
LINE
  8
0
 62
     0
 10
294.382
 20
1.82452
 30
0.0
 11
294.846
 21
1.75149
 31
0.0
  0
LINE
  8
0
 62
     0
 10
294.846
 20
1.75149
 30
0.0
 11
295.31
 21
1.82452
 31
0.0
  0
LINE
  8
0
 62
     0
 10
295.31
 20
1.82452
 30
0.0
 11
295.727
 21
2.03812
 31
0.0
  0
LINE
  8
0
 62
     0
 10
295.727
 20
2.03812
 30
0.0
 11
296.059
 21
2.37023
 31
0.0
  0
LINE
  8
0
 62
     0
 10
296.059
 20
2.37023
 30
0.0
 11
296.273
 21
2.78777
 31
0.0
  0
LINE
  8
0
 62
     0
 10
296.273
 20
2.78777
 30
0.0
 11
296.347
 21
3.25217
 31
0.0
  0
LINE
  8
0
 62
     0
 10
296.347
 20
3.25217
 30
0.0
 11
296.273
 21
3.71521
 31
0.0
  0
LINE
  8
0
 62
     0
 10
296.273
 20
3.71521
 30
0.0
 11
296.059
 21
4.13272
 31
0.0
  0
LINE
  8
0
 62
     0
 10
296.059
 20
4.13272
 30
0.0
 11
295.727
 21
4.46486
 31
0.0
  0
LINE
  8
0
 62
     0
 10
295.727
 20
4.46486
 30
0.0
 11
295.31
 21
4.67706
 31
0.0
  0
LINE
  8
0
 62
     0
 10
295.31
 20
4.67706
 30
0.0
 11
294.846
 21
4.75149
 31
0.0
  0
LINE
  8
0
 62
     0
 10
294.846
 20
4.75149
 30
0.0
 11
294.382
 21
4.67706
 31
0.0
  0
LINE
  8
0
 62
     0
 10
2.63205
 20
55.3036
 30
0.0
 11
2.21313
 21
55.0912
 31
0.0
  0
LINE
  8
0
 62
     0
 10
2.21313
 20
55.0912
 30
0.0
 11
1.88102
 21
54.7592
 31
0.0
  0
LINE
  8
0
 62
     0
 10
1.88102
 20
54.7592
 30
0.0
 11
1.6688
 21
54.3401
 31
0.0
  0
LINE
  8
0
 62
     0
 10
1.6688
 20
54.3401
 30
0.0
 11
1.59439
 21
53.8773
 31
0.0
  0
LINE
  8
0
 62
     0
 10
1.59439
 20
53.8773
 30
0.0
 11
1.6688
 21
53.4127
 31
0.0
  0
LINE
  8
0
 62
     0
 10
1.6688
 20
53.4127
 30
0.0
 11
1.88102
 21
52.9953
 31
0.0
  0
LINE
  8
0
 62
     0
 10
1.88102
 20
52.9953
 30
0.0
 11
2.21313
 21
52.663
 31
0.0
  0
LINE
  8
0
 62
     0
 10
2.21313
 20
52.663
 30
0.0
 11
2.63205
 21
52.4496
 31
0.0
  0
LINE
  8
0
 62
     0
 10
2.63205
 20
52.4496
 30
0.0
 11
3.09507
 21
52.3766
 31
0.0
  0
LINE
  8
0
 62
     0
 10
3.09507
 20
52.3766
 30
0.0
 11
3.55808
 21
52.4496
 31
0.0
  0
LINE
  8
0
 62
     0
 10
3.55808
 20
52.4496
 30
0.0
 11
3.97701
 21
52.663
 31
0.0
  0
LINE
  8
0
 62
     0
 10
3.97701
 20
52.663
 30
0.0
 11
4.30911
 21
52.9953
 31
0.0
  0
LINE
  8
0
 62
     0
 10
4.30911
 20
52.9953
 30
0.0
 11
4.52134
 21
53.4127
 31
0.0
  0
LINE
  8
0
 62
     0
 10
4.52134
 20
53.4127
 30
0.0
 11
4.59574
 21
53.8773
 31
0.0
  0
LINE
  8
0
 62
     0
 10
4.59574
 20
53.8773
 30
0.0
 11
4.52134
 21
54.3401
 31
0.0
  0
LINE
  8
0
 62
     0
 10
4.52134
 20
54.3401
 30
0.0
 11
4.30911
 21
54.7592
 31
0.0
  0
LINE
  8
0
 62
     0
 10
4.30911
 20
54.7592
 30
0.0
 11
3.97701
 21
55.0912
 31
0.0
  0
LINE
  8
0
 62
     0
 10
3.97701
 20
55.0912
 30
0.0
 11
3.55808
 21
55.3036
 31
0.0
  0
LINE
  8
0
 62
     0
 10
3.55808
 20
55.3036
 30
0.0
 11
3.09507
 21
55.3766
 31
0.0
  0
LINE
  8
0
 62
     0
 10
3.09507
 20
55.3766
 30
0.0
 11
2.63205
 21
55.3036
 31
0.0
  0
LINE
  8
0
 62
     0
 10
294.382
 20
55.3036
 30
0.0
 11
293.964
 21
55.0912
 31
0.0
  0
LINE
  8
0
 62
     0
 10
293.964
 20
55.0912
 30
0.0
 11
293.632
 21
54.7592
 31
0.0
  0
LINE
  8
0
 62
     0
 10
293.632
 20
54.7592
 30
0.0
 11
293.42
 21
54.3401
 31
0.0
  0
LINE
  8
0
 62
     0
 10
293.42
 20
54.3401
 30
0.0
 11
293.347
 21
53.8773
 31
0.0
  0
LINE
  8
0
 62
     0
 10
293.347
 20
53.8773
 30
0.0
 11
293.42
 21
53.4127
 31
0.0
  0
LINE
  8
0
 62
     0
 10
293.42
 20
53.4127
 30
0.0
 11
293.632
 21
52.9953
 31
0.0
  0
LINE
  8
0
 62
     0
 10
293.632
 20
52.9953
 30
0.0
 11
293.964
 21
52.663
 31
0.0
  0
LINE
  8
0
 62
     0
 10
293.964
 20
52.663
 30
0.0
 11
294.382
 21
52.4496
 31
0.0
  0
LINE
  8
0
 62
     0
 10
294.382
 20
52.4496
 30
0.0
 11
294.846
 21
52.3766
 31
0.0
  0
LINE
  8
0
 62
     0
 10
294.846
 20
52.3766
 30
0.0
 11
295.31
 21
52.4496
 31
0.0
  0
LINE
  8
0
 62
     0
 10
295.31
 20
52.4496
 30
0.0
 11
295.727
 21
52.663
 31
0.0
  0
LINE
  8
0
 62
     0
 10
295.727
 20
52.663
 30
0.0
 11
296.059
 21
52.9953
 31
0.0
  0
LINE
  8
0
 62
     0
 10
296.059
 20
52.9953
 30
0.0
 11
296.273
 21
53.4127
 31
0.0
  0
LINE
  8
0
 62
     0
 10
296.273
 20
53.4127
 30
0.0
 11
296.347
 21
53.8773
 31
0.0
  0
LINE
  8
0
 62
     0
 10
296.347
 20
53.8773
 30
0.0
 11
296.273
 21
54.3401
 31
0.0
  0
LINE
  8
0
 62
     0
 10
296.273
 20
54.3401
 30
0.0
 11
296.059
 21
54.7592
 31
0.0
  0
LINE
  8
0
 62
     0
 10
296.059
 20
54.7592
 30
0.0
 11
295.727
 21
55.0912
 31
0.0
  0
LINE
  8
0
 62
     0
 10
295.727
 20
55.0912
 30
0.0
 11
295.31
 21
55.3036
 31
0.0
  0
LINE
  8
0
 62
     0
 10
295.31
 20
55.3036
 30
0.0
 11
294.846
 21
55.3766
 31
0.0
  0
LINE
  8
0
 62
     0
 10
294.846
 20
55.3766
 30
0.0
 11
294.382
 21
55.3036
 31
0.0
  0
LINE
  8
0
 62
     0
 10
2.63205
 20
105.929
 30
0.0
 11
2.21313
 21
105.716
 31
0.0
  0
LINE
  8
0
 62
     0
 10
2.21313
 20
105.716
 30
0.0
 11
1.88102
 21
105.384
 31
0.0
  0
LINE
  8
0
 62
     0
 10
1.88102
 20
105.384
 30
0.0
 11
1.6688
 21
104.965
 31
0.0
  0
LINE
  8
0
 62
     0
 10
1.6688
 20
104.965
 30
0.0
 11
1.59439
 21
104.502
 31
0.0
  0
LINE
  8
0
 62
     0
 10
1.59439
 20
104.502
 30
0.0
 11
1.6688
 21
104.039
 31
0.0
  0
LINE
  8
0
 62
     0
 10
1.6688
 20
104.039
 30
0.0
 11
1.88102
 21
103.62
 31
0.0
  0
LINE
  8
0
 62
     0
 10
1.88102
 20
103.62
 30
0.0
 11
2.21313
 21
103.288
 31
0.0
  0
LINE
  8
0
 62
     0
 10
2.21313
 20
103.288
 30
0.0
 11
2.63205
 21
103.076
 31
0.0
  0
LINE
  8
0
 62
     0
 10
2.63205
 20
103.076
 30
0.0
 11
3.09507
 21
103.002
 31
0.0
  0
LINE
  8
0
 62
     0
 10
3.09507
 20
103.002
 30
0.0
 11
3.55808
 21
103.076
 31
0.0
  0
LINE
  8
0
 62
     0
 10
3.55808
 20
103.076
 30
0.0
 11
3.97701
 21
103.288
 31
0.0
  0
LINE
  8
0
 62
     0
 10
3.97701
 20
103.288
 30
0.0
 11
4.30911
 21
103.62
 31
0.0
  0
LINE
  8
0
 62
     0
 10
4.30911
 20
103.62
 30
0.0
 11
4.52134
 21
104.039
 31
0.0
  0
LINE
  8
0
 62
     0
 10
4.52134
 20
104.039
 30
0.0
 11
4.59574
 21
104.502
 31
0.0
  0
LINE
  8
0
 62
     0
 10
4.59574
 20
104.502
 30
0.0
 11
4.52134
 21
104.965
 31
0.0
  0
LINE
  8
0
 62
     0
 10
4.52134
 20
104.965
 30
0.0
 11
4.30911
 21
105.384
 31
0.0
  0
LINE
  8
0
 62
     0
 10
4.30911
 20
105.384
 30
0.0
 11
3.97701
 21
105.716
 31
0.0
  0
LINE
  8
0
 62
     0
 10
3.97701
 20
105.716
 30
0.0
 11
3.55808
 21
105.929
 31
0.0
  0
LINE
  8
0
 62
     0
 10
3.55808
 20
105.929
 30
0.0
 11
3.09507
 21
106.002
 31
0.0
  0
LINE
  8
0
 62
     0
 10
3.09507
 20
106.002
 30
0.0
 11
2.63205
 21
105.929
 31
0.0
  0
LINE
  8
0
 62
     0
 10
294.382
 20
105.929
 30
0.0
 11
293.964
 21
105.716
 31
0.0
  0
LINE
  8
0
 62
     0
 10
293.964
 20
105.716
 30
0.0
 11
293.632
 21
105.384
 31
0.0
  0
LINE
  8
0
 62
     0
 10
293.632
 20
105.384
 30
0.0
 11
293.42
 21
104.965
 31
0.0
  0
LINE
  8
0
 62
     0
 10
293.42
 20
104.965
 30
0.0
 11
293.347
 21
104.502
 31
0.0
  0
LINE
  8
0
 62
     0
 10
293.347
 20
104.502
 30
0.0
 11
293.42
 21
104.039
 31
0.0
  0
LINE
  8
0
 62
     0
 10
293.42
 20
104.039
 30
0.0
 11
293.632
 21
103.62
 31
0.0
  0
LINE
  8
0
 62
     0
 10
293.632
 20
103.62
 30
0.0
 11
293.964
 21
103.288
 31
0.0
  0
LINE
  8
0
 62
     0
 10
293.964
 20
103.288
 30
0.0
 11
294.382
 21
103.076
 31
0.0
  0
LINE
  8
0
 62
     0
 10
294.382
 20
103.076
 30
0.0
 11
294.846
 21
103.002
 31
0.0
  0
LINE
  8
0
 62
     0
 10
294.846
 20
103.002
 30
0.0
 11
295.31
 21
103.076
 31
0.0
  0
LINE
  8
0
 62
     0
 10
295.31
 20
103.076
 30
0.0
 11
295.727
 21
103.288
 31
0.0
  0
LINE
  8
0
 62
     0
 10
295.727
 20
103.288
 30
0.0
 11
296.059
 21
103.62
 31
0.0
  0
LINE
  8
0
 62
     0
 10
296.059
 20
103.62
 30
0.0
 11
296.273
 21
104.039
 31
0.0
  0
LINE
  8
0
 62
     0
 10
296.273
 20
104.039
 30
0.0
 11
296.347
 21
104.502
 31
0.0
  0
LINE
  8
0
 62
     0
 10
296.347
 20
104.502
 30
0.0
 11
296.273
 21
104.965
 31
0.0
  0
LINE
  8
0
 62
     0
 10
296.273
 20
104.965
 30
0.0
 11
296.059
 21
105.384
 31
0.0
  0
LINE
  8
0
 62
     0
 10
296.059
 20
105.384
 30
0.0
 11
295.727
 21
105.716
 31
0.0
  0
LINE
  8
0
 62
     0
 10
295.727
 20
105.716
 30
0.0
 11
295.31
 21
105.929
 31
0.0
  0
LINE
  8
0
 62
     0
 10
295.31
 20
105.929
 30
0.0
 11
294.846
 21
106.002
 31
0.0
  0
LINE
  8
0
 62
     0
 10
294.846
 20
106.002
 30
0.0
 11
294.382
 21
105.929
 31
0.0
  0
LINE
  8
0
 62
     0
 10
221.444
 20
105.929
 30
0.0
 11
221.026
 21
105.716
 31
0.0
  0
LINE
  8
0
 62
     0
 10
221.026
 20
105.716
 30
0.0
 11
220.694
 21
105.384
 31
0.0
  0
LINE
  8
0
 62
     0
 10
220.694
 20
105.384
 30
0.0
 11
220.482
 21
104.965
 31
0.0
  0
LINE
  8
0
 62
     0
 10
220.482
 20
104.965
 30
0.0
 11
220.409
 21
104.502
 31
0.0
  0
LINE
  8
0
 62
     0
 10
220.409
 20
104.502
 30
0.0
 11
220.482
 21
104.039
 31
0.0
  0
LINE
  8
0
 62
     0
 10
220.482
 20
104.039
 30
0.0
 11
220.694
 21
103.62
 31
0.0
  0
LINE
  8
0
 62
     0
 10
220.694
 20
103.62
 30
0.0
 11
221.026
 21
103.288
 31
0.0
  0
LINE
  8
0
 62
     0
 10
221.026
 20
103.288
 30
0.0
 11
221.444
 21
103.076
 31
0.0
  0
LINE
  8
0
 62
     0
 10
221.444
 20
103.076
 30
0.0
 11
221.908
 21
103.002
 31
0.0
  0
LINE
  8
0
 62
     0
 10
221.908
 20
103.002
 30
0.0
 11
222.371
 21
103.076
 31
0.0
  0
LINE
  8
0
 62
     0
 10
222.371
 20
103.076
 30
0.0
 11
222.789
 21
103.288
 31
0.0
  0
LINE
  8
0
 62
     0
 10
222.789
 20
103.288
 30
0.0
 11
223.121
 21
103.62
 31
0.0
  0
LINE
  8
0
 62
     0
 10
223.121
 20
103.62
 30
0.0
 11
223.334
 21
104.039
 31
0.0
  0
LINE
  8
0
 62
     0
 10
223.334
 20
104.039
 30
0.0
 11
223.409
 21
104.502
 31
0.0
  0
LINE
  8
0
 62
     0
 10
223.409
 20
104.502
 30
0.0
 11
223.334
 21
104.965
 31
0.0
  0
LINE
  8
0
 62
     0
 10
223.334
 20
104.965
 30
0.0
 11
223.121
 21
105.384
 31
0.0
  0
LINE
  8
0
 62
     0
 10
223.121
 20
105.384
 30
0.0
 11
222.789
 21
105.716
 31
0.0
  0
LINE
  8
0
 62
     0
 10
222.789
 20
105.716
 30
0.0
 11
222.371
 21
105.929
 31
0.0
  0
LINE
  8
0
 62
     0
 10
222.371
 20
105.929
 30
0.0
 11
221.908
 21
106.002
 31
0.0
  0
LINE
  8
0
 62
     0
 10
221.908
 20
106.002
 30
0.0
 11
221.444
 21
105.929
 31
0.0
  0
LINE
  8
0
 62
     0
 10
148.507
 20
105.929
 30
0.0
 11
148.088
 21
105.716
 31
0.0
  0
LINE
  8
0
 62
     0
 10
148.088
 20
105.716
 30
0.0
 11
147.756
 21
105.384
 31
0.0
  0
LINE
  8
0
 62
     0
 10
147.756
 20
105.384
 30
0.0
 11
147.544
 21
104.965
 31
0.0
  0
LINE
  8
0
 62
     0
 10
147.544
 20
104.965
 30
0.0
 11
147.471
 21
104.502
 31
0.0
  0
LINE
  8
0
 62
     0
 10
147.471
 20
104.502
 30
0.0
 11
147.544
 21
104.039
 31
0.0
  0
LINE
  8
0
 62
     0
 10
147.544
 20
104.039
 30
0.0
 11
147.756
 21
103.62
 31
0.0
  0
LINE
  8
0
 62
     0
 10
147.756
 20
103.62
 30
0.0
 11
148.088
 21
103.288
 31
0.0
  0
LINE
  8
0
 62
     0
 10
148.088
 20
103.288
 30
0.0
 11
148.507
 21
103.076
 31
0.0
  0
LINE
  8
0
 62
     0
 10
148.507
 20
103.076
 30
0.0
 11
148.97
 21
103.002
 31
0.0
  0
LINE
  8
0
 62
     0
 10
148.97
 20
103.002
 30
0.0
 11
149.435
 21
103.076
 31
0.0
  0
LINE
  8
0
 62
     0
 10
149.435
 20
103.076
 30
0.0
 11
149.852
 21
103.288
 31
0.0
  0
LINE
  8
0
 62
     0
 10
149.852
 20
103.288
 30
0.0
 11
150.184
 21
103.62
 31
0.0
  0
LINE
  8
0
 62
     0
 10
150.184
 20
103.62
 30
0.0
 11
150.398
 21
104.039
 31
0.0
  0
LINE
  8
0
 62
     0
 10
150.398
 20
104.039
 30
0.0
 11
150.471
 21
104.502
 31
0.0
  0
LINE
  8
0
 62
     0
 10
150.471
 20
104.502
 30
0.0
 11
150.398
 21
104.965
 31
0.0
  0
LINE
  8
0
 62
     0
 10
150.398
 20
104.965
 30
0.0
 11
150.184
 21
105.384
 31
0.0
  0
LINE
  8
0
 62
     0
 10
150.184
 20
105.384
 30
0.0
 11
149.852
 21
105.716
 31
0.0
  0
LINE
  8
0
 62
     0
 10
149.852
 20
105.716
 30
0.0
 11
149.435
 21
105.929
 31
0.0
  0
LINE
  8
0
 62
     0
 10
149.435
 20
105.929
 30
0.0
 11
148.97
 21
106.002
 31
0.0
  0
LINE
  8
0
 62
     0
 10
148.97
 20
106.002
 30
0.0
 11
148.507
 21
105.929
 31
0.0
  0
LINE
  8
0
 62
     0
 10
75.5689
 20
105.929
 30
0.0
 11
75.1512
 21
105.716
 31
0.0
  0
LINE
  8
0
 62
     0
 10
75.1512
 20
105.716
 30
0.0
 11
74.8192
 21
105.384
 31
0.0
  0
LINE
  8
0
 62
     0
 10
74.8192
 20
105.384
 30
0.0
 11
74.6069
 21
104.965
 31
0.0
  0
LINE
  8
0
 62
     0
 10
74.6069
 20
104.965
 30
0.0
 11
74.5324
 21
104.502
 31
0.0
  0
LINE
  8
0
 62
     0
 10
74.5324
 20
104.502
 30
0.0
 11
74.6069
 21
104.039
 31
0.0
  0
LINE
  8
0
 62
     0
 10
74.6069
 20
104.039
 30
0.0
 11
74.8192
 21
103.62
 31
0.0
  0
LINE
  8
0
 62
     0
 10
74.8192
 20
103.62
 30
0.0
 11
75.1512
 21
103.288
 31
0.0
  0
LINE
  8
0
 62
     0
 10
75.1512
 20
103.288
 30
0.0
 11
75.5689
 21
103.076
 31
0.0
  0
LINE
  8
0
 62
     0
 10
75.5689
 20
103.076
 30
0.0
 11
76.0317
 21
103.002
 31
0.0
  0
LINE
  8
0
 62
     0
 10
76.0317
 20
103.002
 30
0.0
 11
76.4963
 21
103.076
 31
0.0
  0
LINE
  8
0
 62
     0
 10
76.4963
 20
103.076
 30
0.0
 11
76.9137
 21
103.288
 31
0.0
  0
LINE
  8
0
 62
     0
 10
76.9137
 20
103.288
 30
0.0
 11
77.246
 21
103.62
 31
0.0
  0
LINE
  8
0
 62
     0
 10
77.246
 20
103.62
 30
0.0
 11
77.4594
 21
104.039
 31
0.0
  0
LINE
  8
0
 62
     0
 10
77.4594
 20
104.039
 30
0.0
 11
77.5324
 21
104.502
 31
0.0
  0
LINE
  8
0
 62
     0
 10
77.5324
 20
104.502
 30
0.0
 11
77.4594
 21
104.965
 31
0.0
  0
LINE
  8
0
 62
     0
 10
77.4594
 20
104.965
 30
0.0
 11
77.246
 21
105.384
 31
0.0
  0
LINE
  8
0
 62
     0
 10
77.246
 20
105.384
 30
0.0
 11
76.9137
 21
105.716
 31
0.0
  0
LINE
  8
0
 62
     0
 10
76.9137
 20
105.716
 30
0.0
 11
76.4963
 21
105.929
 31
0.0
  0
LINE
  8
0
 62
     0
 10
76.4963
 20
105.929
 30
0.0
 11
76.0317
 21
106.002
 31
0.0
  0
LINE
  8
0
 62
     0
 10
76.0317
 20
106.002
 30
0.0
 11
75.5689
 21
105.929
 31
0.0
  0
ENDSEC
  0
EOF
