  0
SECTION
  2
HEADER
  9
$ACADVER
  1
AC1009
  9
$EXTMIN
 10
0.0
 20
0.0
 30
0.0
  9
$EXTMAX
 10
1000.0
 20
1000.0
 30
0.0
  9
$FILLMODE
 70
 0
  9
$SPLFRAME
 70
 1
  0
ENDSEC
  0
SECTION
  2
TABLES
  0
TABLE
  2
LAYER
 70
1
  0
LAYER
  2
0
 70
     0
 62
     7
  6
CONTINUOUS
  0
ENDTAB
  0
ENDSEC
  0
SECTION
  2
ENTITIES
  0
LINE
  8
0
 62
     0
 10
295.847
 20
107.502
 30
0.0
 11
296.003
 21
107.495
 31
0.0
  0
LINE
  8
0
 62
     0
 10
296.003
 20
107.495
 30
0.0
 11
296.158
 21
107.477
 31
0.0
  0
LINE
  8
0
 62
     0
 10
296.158
 20
107.477
 30
0.0
 11
296.313
 21
107.447
 31
0.0
  0
LINE
  8
0
 62
     0
 10
296.313
 20
107.447
 30
0.0
 11
296.464
 21
107.404
 31
0.0
  0
LINE
  8
0
 62
     0
 10
296.464
 20
107.404
 30
0.0
 11
296.612
 21
107.349
 31
0.0
  0
LINE
  8
0
 62
     0
 10
296.612
 20
107.349
 30
0.0
 11
296.753
 21
107.284
 31
0.0
  0
LINE
  8
0
 62
     0
 10
296.753
 20
107.284
 30
0.0
 11
296.89
 21
107.207
 31
0.0
  0
LINE
  8
0
 62
     0
 10
296.89
 20
107.207
 30
0.0
 11
297.021
 21
107.12
 31
0.0
  0
LINE
  8
0
 62
     0
 10
297.021
 20
107.12
 30
0.0
 11
297.145
 21
107.023
 31
0.0
  0
LINE
  8
0
 62
     0
 10
297.145
 20
107.023
 30
0.0
 11
297.261
 21
106.916
 31
0.0
  0
LINE
  8
0
 62
     0
 10
297.261
 20
106.916
 30
0.0
 11
297.367
 21
106.801
 31
0.0
  0
LINE
  8
0
 62
     0
 10
297.367
 20
106.801
 30
0.0
 11
297.465
 21
106.678
 31
0.0
  0
LINE
  8
0
 62
     0
 10
297.465
 20
106.678
 30
0.0
 11
297.551
 21
106.547
 31
0.0
  0
LINE
  8
0
 62
     0
 10
297.551
 20
106.547
 30
0.0
 11
297.629
 21
106.409
 31
0.0
  0
LINE
  8
0
 62
     0
 10
297.629
 20
106.409
 30
0.0
 11
297.693
 21
106.267
 31
0.0
  0
LINE
  8
0
 62
     0
 10
297.693
 20
106.267
 30
0.0
 11
297.749
 21
106.121
 31
0.0
  0
LINE
  8
0
 62
     0
 10
297.749
 20
106.121
 30
0.0
 11
297.79
 21
105.968
 31
0.0
  0
LINE
  8
0
 62
     0
 10
297.79
 20
105.968
 30
0.0
 11
297.822
 21
105.815
 31
0.0
  0
LINE
  8
0
 62
     0
 10
297.822
 20
105.815
 30
0.0
 11
297.84
 21
105.658
 31
0.0
  0
LINE
  8
0
 62
     0
 10
297.84
 20
105.658
 30
0.0
 11
297.846
 21
105.501
 31
0.0
  0
LINE
  8
0
 62
     0
 10
297.846
 20
105.501
 30
0.0
 11
297.846
 21
2.25171
 31
0.0
  0
LINE
  8
0
 62
     0
 10
297.846
 20
2.25171
 30
0.0
 11
297.84
 21
2.09462
 31
0.0
  0
LINE
  8
0
 62
     0
 10
297.84
 20
2.09462
 30
0.0
 11
297.822
 21
1.9389
 31
0.0
  0
LINE
  8
0
 62
     0
 10
297.822
 20
1.9389
 30
0.0
 11
297.79
 21
1.78456
 31
0.0
  0
LINE
  8
0
 62
     0
 10
297.79
 20
1.78456
 30
0.0
 11
297.749
 21
1.63298
 31
0.0
  0
LINE
  8
0
 62
     0
 10
297.749
 20
1.63298
 30
0.0
 11
297.693
 21
1.48553
 31
0.0
  0
LINE
  8
0
 62
     0
 10
297.693
 20
1.48553
 30
0.0
 11
297.629
 21
1.34359
 31
0.0
  0
LINE
  8
0
 62
     0
 10
297.629
 20
1.34359
 30
0.0
 11
297.551
 21
1.20716
 31
0.0
  0
LINE
  8
0
 62
     0
 10
297.551
 20
1.20716
 30
0.0
 11
297.465
 21
1.07625
 31
0.0
  0
LINE
  8
0
 62
     0
 10
297.465
 20
1.07625
 30
0.0
 11
297.367
 21
0.952225
 31
0.0
  0
LINE
  8
0
 62
     0
 10
297.367
 20
0.952225
 30
0.0
 11
297.261
 21
0.836468
 31
0.0
  0
LINE
  8
0
 62
     0
 10
297.261
 20
0.836468
 30
0.0
 11
297.145
 21
0.730359
 31
0.0
  0
LINE
  8
0
 62
     0
 10
297.145
 20
0.730359
 30
0.0
 11
297.021
 21
0.63252
 31
0.0
  0
LINE
  8
0
 62
     0
 10
297.021
 20
0.63252
 30
0.0
 11
296.89
 21
0.545705
 31
0.0
  0
LINE
  8
0
 62
     0
 10
296.89
 20
0.545705
 30
0.0
 11
296.753
 21
0.468535
 31
0.0
  0
LINE
  8
0
 62
     0
 10
296.753
 20
0.468535
 30
0.0
 11
296.612
 21
0.403765
 31
0.0
  0
LINE
  8
0
 62
     0
 10
296.612
 20
0.403765
 30
0.0
 11
296.464
 21
0.348644
 31
0.0
  0
LINE
  8
0
 62
     0
 10
296.464
 20
0.348644
 30
0.0
 11
296.313
 21
0.307303
 31
0.0
  0
LINE
  8
0
 62
     0
 10
296.313
 20
0.307303
 30
0.0
 11
296.158
 21
0.275608
 31
0.0
  0
LINE
  8
0
 62
     0
 10
296.158
 20
0.275608
 30
0.0
 11
296.003
 21
0.257693
 31
0.0
  0
LINE
  8
0
 62
     0
 10
296.003
 20
0.257693
 30
0.0
 11
295.847
 21
0.252181
 31
0.0
  0
LINE
  8
0
 62
     0
 10
295.847
 20
0.252181
 30
0.0
 11
2.096
 21
0.252181
 31
0.0
  0
LINE
  8
0
 62
     0
 10
2.096
 20
0.252181
 30
0.0
 11
1.9389
 21
0.257693
 31
0.0
  0
LINE
  8
0
 62
     0
 10
1.9389
 20
0.257693
 30
0.0
 11
1.7818
 21
0.275608
 31
0.0
  0
LINE
  8
0
 62
     0
 10
1.7818
 20
0.275608
 30
0.0
 11
1.62884
 21
0.307303
 31
0.0
  0
LINE
  8
0
 62
     0
 10
1.62884
 20
0.307303
 30
0.0
 11
1.47588
 21
0.348644
 31
0.0
  0
LINE
  8
0
 62
     0
 10
1.47588
 20
0.348644
 30
0.0
 11
1.32981
 21
0.403765
 31
0.0
  0
LINE
  8
0
 62
     0
 10
1.32981
 20
0.403765
 30
0.0
 11
1.18787
 21
0.468535
 31
0.0
  0
LINE
  8
0
 62
     0
 10
1.18787
 20
0.468535
 30
0.0
 11
1.05006
 21
0.545705
 31
0.0
  0
LINE
  8
0
 62
     0
 10
1.05006
 20
0.545705
 30
0.0
 11
0.919152
 21
0.63252
 31
0.0
  0
LINE
  8
0
 62
     0
 10
0.919152
 20
0.63252
 30
0.0
 11
0.796505
 21
0.730359
 31
0.0
  0
LINE
  8
0
 62
     0
 10
0.796505
 20
0.730359
 30
0.0
 11
0.680752
 21
0.836468
 31
0.0
  0
LINE
  8
0
 62
     0
 10
0.680752
 20
0.836468
 30
0.0
 11
0.574643
 21
0.952225
 31
0.0
  0
LINE
  8
0
 62
     0
 10
0.574643
 20
0.952225
 30
0.0
 11
0.4768
 21
1.07625
 31
0.0
  0
LINE
  8
0
 62
     0
 10
0.4768
 20
1.07625
 30
0.0
 11
0.389985
 21
1.20716
 31
0.0
  0
LINE
  8
0
 62
     0
 10
0.389985
 20
1.20716
 30
0.0
 11
0.312815
 21
1.34359
 31
0.0
  0
LINE
  8
0
 62
     0
 10
0.312815
 20
1.34359
 30
0.0
 11
0.248047
 21
1.48553
 31
0.0
  0
LINE
  8
0
 62
     0
 10
0.248047
 20
1.48553
 30
0.0
 11
0.192925
 21
1.63298
 31
0.0
  0
LINE
  8
0
 62
     0
 10
0.192925
 20
1.63298
 30
0.0
 11
0.150206
 21
1.78456
 31
0.0
  0
LINE
  8
0
 62
     0
 10
0.150206
 20
1.78456
 30
0.0
 11
0.119889
 21
1.9389
 31
0.0
  0
LINE
  8
0
 62
     0
 10
0.119889
 20
1.9389
 30
0.0
 11
0.101975
 21
2.09462
 31
0.0
  0
LINE
  8
0
 62
     0
 10
0.101975
 20
2.09462
 30
0.0
 11
0.0950846
 21
2.25034
 31
0.0
  0
LINE
  8
0
 62
     0
 10
0.0950846
 20
2.25034
 30
0.0
 11
0.0950846
 21
105.501
 31
0.0
  0
LINE
  8
0
 62
     0
 10
0.0950846
 20
105.501
 30
0.0
 11
0.101975
 21
105.658
 31
0.0
  0
LINE
  8
0
 62
     0
 10
0.101975
 20
105.658
 30
0.0
 11
0.119889
 21
105.815
 31
0.0
  0
LINE
  8
0
 62
     0
 10
0.119889
 20
105.815
 30
0.0
 11
0.150206
 21
105.968
 31
0.0
  0
LINE
  8
0
 62
     0
 10
0.150206
 20
105.968
 30
0.0
 11
0.192925
 21
106.121
 31
0.0
  0
LINE
  8
0
 62
     0
 10
0.192925
 20
106.121
 30
0.0
 11
0.248047
 21
106.267
 31
0.0
  0
LINE
  8
0
 62
     0
 10
0.248047
 20
106.267
 30
0.0
 11
0.312815
 21
106.409
 31
0.0
  0
LINE
  8
0
 62
     0
 10
0.312815
 20
106.409
 30
0.0
 11
0.389985
 21
106.547
 31
0.0
  0
LINE
  8
0
 62
     0
 10
0.389985
 20
106.547
 30
0.0
 11
0.4768
 21
106.678
 31
0.0
  0
LINE
  8
0
 62
     0
 10
0.4768
 20
106.678
 30
0.0
 11
0.574643
 21
106.801
 31
0.0
  0
LINE
  8
0
 62
     0
 10
0.574643
 20
106.801
 30
0.0
 11
0.680752
 21
106.916
 31
0.0
  0
LINE
  8
0
 62
     0
 10
0.680752
 20
106.916
 30
0.0
 11
0.796505
 21
107.023
 31
0.0
  0
LINE
  8
0
 62
     0
 10
0.796505
 20
107.023
 30
0.0
 11
0.919152
 21
107.12
 31
0.0
  0
LINE
  8
0
 62
     0
 10
0.919152
 20
107.12
 30
0.0
 11
1.05006
 21
107.207
 31
0.0
  0
LINE
  8
0
 62
     0
 10
1.05006
 20
107.207
 30
0.0
 11
1.18787
 21
107.284
 31
0.0
  0
LINE
  8
0
 62
     0
 10
1.18787
 20
107.284
 30
0.0
 11
1.32981
 21
107.349
 31
0.0
  0
LINE
  8
0
 62
     0
 10
1.32981
 20
107.349
 30
0.0
 11
1.47588
 21
107.404
 31
0.0
  0
LINE
  8
0
 62
     0
 10
1.47588
 20
107.404
 30
0.0
 11
1.62884
 21
107.447
 31
0.0
  0
LINE
  8
0
 62
     0
 10
1.62884
 20
107.447
 30
0.0
 11
1.7818
 21
107.477
 31
0.0
  0
LINE
  8
0
 62
     0
 10
1.7818
 20
107.477
 30
0.0
 11
1.9389
 21
107.495
 31
0.0
  0
LINE
  8
0
 62
     0
 10
1.9389
 20
107.495
 30
0.0
 11
2.096
 21
107.502
 31
0.0
  0
LINE
  8
0
 62
     0
 10
2.096
 20
107.502
 30
0.0
 11
295.847
 21
107.502
 31
0.0
  0
LINE
  8
0
 62
     0
 10
2.75608
 20
4.2981
 30
0.0
 11
2.44878
 21
4.14101
 31
0.0
  0
LINE
  8
0
 62
     0
 10
2.44878
 20
4.14101
 30
0.0
 11
2.20486
 21
3.8971
 31
0.0
  0
LINE
  8
0
 62
     0
 10
2.20486
 20
3.8971
 30
0.0
 11
2.04914
 21
3.59117
 31
0.0
  0
LINE
  8
0
 62
     0
 10
2.04914
 20
3.59117
 30
0.0
 11
1.9954
 21
3.25079
 31
0.0
  0
LINE
  8
0
 62
     0
 10
1.9954
 20
3.25079
 30
0.0
 11
2.04914
 21
2.9118
 31
0.0
  0
LINE
  8
0
 62
     0
 10
2.04914
 20
2.9118
 30
0.0
 11
2.20486
 21
2.60449
 31
0.0
  0
LINE
  8
0
 62
     0
 10
2.20486
 20
2.60449
 30
0.0
 11
2.44878
 21
2.36196
 31
0.0
  0
LINE
  8
0
 62
     0
 10
2.44878
 20
2.36196
 30
0.0
 11
2.75608
 21
2.20486
 31
0.0
  0
LINE
  8
0
 62
     0
 10
2.75608
 20
2.20486
 30
0.0
 11
3.09507
 21
2.15112
 31
0.0
  0
LINE
  8
0
 62
     0
 10
3.09507
 20
2.15112
 30
0.0
 11
3.43407
 21
2.20486
 31
0.0
  0
LINE
  8
0
 62
     0
 10
3.43407
 20
2.20486
 30
0.0
 11
3.74138
 21
2.36196
 31
0.0
  0
LINE
  8
0
 62
     0
 10
3.74138
 20
2.36196
 30
0.0
 11
3.98392
 21
2.60449
 31
0.0
  0
LINE
  8
0
 62
     0
 10
3.98392
 20
2.60449
 30
0.0
 11
4.14101
 21
2.9118
 31
0.0
  0
LINE
  8
0
 62
     0
 10
4.14101
 20
2.9118
 30
0.0
 11
4.19612
 21
3.25079
 31
0.0
  0
LINE
  8
0
 62
     0
 10
4.19612
 20
3.25079
 30
0.0
 11
4.14101
 21
3.59117
 31
0.0
  0
LINE
  8
0
 62
     0
 10
4.14101
 20
3.59117
 30
0.0
 11
3.98392
 21
3.8971
 31
0.0
  0
LINE
  8
0
 62
     0
 10
3.98392
 20
3.8971
 30
0.0
 11
3.74138
 21
4.14101
 31
0.0
  0
LINE
  8
0
 62
     0
 10
3.74138
 20
4.14101
 30
0.0
 11
3.43407
 21
4.2981
 31
0.0
  0
LINE
  8
0
 62
     0
 10
3.43407
 20
4.2981
 30
0.0
 11
3.09507
 21
4.35046
 31
0.0
  0
LINE
  8
0
 62
     0
 10
3.09507
 20
4.35046
 30
0.0
 11
2.75608
 21
4.2981
 31
0.0
  0
LINE
  8
0
 62
     0
 10
75.6931
 20
4.2981
 30
0.0
 11
75.3869
 21
4.14101
 31
0.0
  0
LINE
  8
0
 62
     0
 10
75.3869
 20
4.14101
 30
0.0
 11
75.1431
 21
3.8971
 31
0.0
  0
LINE
  8
0
 62
     0
 10
75.1431
 20
3.8971
 30
0.0
 11
74.9861
 21
3.59117
 31
0.0
  0
LINE
  8
0
 62
     0
 10
74.9861
 20
3.59117
 30
0.0
 11
74.9321
 21
3.25079
 31
0.0
  0
LINE
  8
0
 62
     0
 10
74.9321
 20
3.25079
 30
0.0
 11
74.9861
 21
2.9118
 31
0.0
  0
LINE
  8
0
 62
     0
 10
74.9861
 20
2.9118
 30
0.0
 11
75.1431
 21
2.60449
 31
0.0
  0
LINE
  8
0
 62
     0
 10
75.1431
 20
2.60449
 30
0.0
 11
75.3869
 21
2.36196
 31
0.0
  0
LINE
  8
0
 62
     0
 10
75.3869
 20
2.36196
 30
0.0
 11
75.6931
 21
2.20486
 31
0.0
  0
LINE
  8
0
 62
     0
 10
75.6931
 20
2.20486
 30
0.0
 11
76.0317
 21
2.15112
 31
0.0
  0
LINE
  8
0
 62
     0
 10
76.0317
 20
2.15112
 30
0.0
 11
76.3722
 21
2.20486
 31
0.0
  0
LINE
  8
0
 62
     0
 10
76.3722
 20
2.20486
 30
0.0
 11
76.6794
 21
2.36196
 31
0.0
  0
LINE
  8
0
 62
     0
 10
76.6794
 20
2.36196
 30
0.0
 11
76.9221
 21
2.60449
 31
0.0
  0
LINE
  8
0
 62
     0
 10
76.9221
 20
2.60449
 30
0.0
 11
77.0777
 21
2.9118
 31
0.0
  0
LINE
  8
0
 62
     0
 10
77.0777
 20
2.9118
 30
0.0
 11
77.1331
 21
3.25079
 31
0.0
  0
LINE
  8
0
 62
     0
 10
77.1331
 20
3.25079
 30
0.0
 11
77.0777
 21
3.59117
 31
0.0
  0
LINE
  8
0
 62
     0
 10
77.0777
 20
3.59117
 30
0.0
 11
76.9221
 21
3.8971
 31
0.0
  0
LINE
  8
0
 62
     0
 10
76.9221
 20
3.8971
 30
0.0
 11
76.6794
 21
4.14101
 31
0.0
  0
LINE
  8
0
 62
     0
 10
76.6794
 20
4.14101
 30
0.0
 11
76.3722
 21
4.2981
 31
0.0
  0
LINE
  8
0
 62
     0
 10
76.3722
 20
4.2981
 30
0.0
 11
76.0317
 21
4.35046
 31
0.0
  0
LINE
  8
0
 62
     0
 10
76.0317
 20
4.35046
 30
0.0
 11
75.6931
 21
4.2981
 31
0.0
  0
LINE
  8
0
 62
     0
 10
148.631
 20
4.2981
 30
0.0
 11
148.324
 21
4.14101
 31
0.0
  0
LINE
  8
0
 62
     0
 10
148.324
 20
4.14101
 30
0.0
 11
148.08
 21
3.8971
 31
0.0
  0
LINE
  8
0
 62
     0
 10
148.08
 20
3.8971
 30
0.0
 11
147.924
 21
3.59117
 31
0.0
  0
LINE
  8
0
 62
     0
 10
147.924
 20
3.59117
 30
0.0
 11
147.87
 21
3.25079
 31
0.0
  0
LINE
  8
0
 62
     0
 10
147.87
 20
3.25079
 30
0.0
 11
147.924
 21
2.9118
 31
0.0
  0
LINE
  8
0
 62
     0
 10
147.924
 20
2.9118
 30
0.0
 11
148.08
 21
2.60449
 31
0.0
  0
LINE
  8
0
 62
     0
 10
148.08
 20
2.60449
 30
0.0
 11
148.324
 21
2.36196
 31
0.0
  0
LINE
  8
0
 62
     0
 10
148.324
 20
2.36196
 30
0.0
 11
148.631
 21
2.20486
 31
0.0
  0
LINE
  8
0
 62
     0
 10
148.631
 20
2.20486
 30
0.0
 11
148.97
 21
2.15112
 31
0.0
  0
LINE
  8
0
 62
     0
 10
148.97
 20
2.15112
 30
0.0
 11
149.31
 21
2.20486
 31
0.0
  0
LINE
  8
0
 62
     0
 10
149.31
 20
2.20486
 30
0.0
 11
149.618
 21
2.36196
 31
0.0
  0
LINE
  8
0
 62
     0
 10
149.618
 20
2.36196
 30
0.0
 11
149.86
 21
2.60449
 31
0.0
  0
LINE
  8
0
 62
     0
 10
149.86
 20
2.60449
 30
0.0
 11
150.016
 21
2.9118
 31
0.0
  0
LINE
  8
0
 62
     0
 10
150.016
 20
2.9118
 30
0.0
 11
150.071
 21
3.25079
 31
0.0
  0
LINE
  8
0
 62
     0
 10
150.071
 20
3.25079
 30
0.0
 11
150.016
 21
3.59117
 31
0.0
  0
LINE
  8
0
 62
     0
 10
150.016
 20
3.59117
 30
0.0
 11
149.86
 21
3.8971
 31
0.0
  0
LINE
  8
0
 62
     0
 10
149.86
 20
3.8971
 30
0.0
 11
149.618
 21
4.14101
 31
0.0
  0
LINE
  8
0
 62
     0
 10
149.618
 20
4.14101
 30
0.0
 11
149.31
 21
4.2981
 31
0.0
  0
LINE
  8
0
 62
     0
 10
149.31
 20
4.2981
 30
0.0
 11
148.97
 21
4.35046
 31
0.0
  0
LINE
  8
0
 62
     0
 10
148.97
 20
4.35046
 30
0.0
 11
148.631
 21
4.2981
 31
0.0
  0
LINE
  8
0
 62
     0
 10
221.568
 20
4.2981
 30
0.0
 11
221.262
 21
4.14101
 31
0.0
  0
LINE
  8
0
 62
     0
 10
221.262
 20
4.14101
 30
0.0
 11
221.018
 21
3.8971
 31
0.0
  0
LINE
  8
0
 62
     0
 10
221.018
 20
3.8971
 30
0.0
 11
220.862
 21
3.59117
 31
0.0
  0
LINE
  8
0
 62
     0
 10
220.862
 20
3.59117
 30
0.0
 11
220.809
 21
3.25079
 31
0.0
  0
LINE
  8
0
 62
     0
 10
220.809
 20
3.25079
 30
0.0
 11
220.862
 21
2.9118
 31
0.0
  0
LINE
  8
0
 62
     0
 10
220.862
 20
2.9118
 30
0.0
 11
221.018
 21
2.60449
 31
0.0
  0
LINE
  8
0
 62
     0
 10
221.018
 20
2.60449
 30
0.0
 11
221.262
 21
2.36196
 31
0.0
  0
LINE
  8
0
 62
     0
 10
221.262
 20
2.36196
 30
0.0
 11
221.568
 21
2.20486
 31
0.0
  0
LINE
  8
0
 62
     0
 10
221.568
 20
2.20486
 30
0.0
 11
221.908
 21
2.15112
 31
0.0
  0
LINE
  8
0
 62
     0
 10
221.908
 20
2.15112
 30
0.0
 11
222.249
 21
2.20486
 31
0.0
  0
LINE
  8
0
 62
     0
 10
222.249
 20
2.20486
 30
0.0
 11
222.554
 21
2.36196
 31
0.0
  0
LINE
  8
0
 62
     0
 10
222.554
 20
2.36196
 30
0.0
 11
222.799
 21
2.60449
 31
0.0
  0
LINE
  8
0
 62
     0
 10
222.799
 20
2.60449
 30
0.0
 11
222.954
 21
2.9118
 31
0.0
  0
LINE
  8
0
 62
     0
 10
222.954
 20
2.9118
 30
0.0
 11
223.008
 21
3.25079
 31
0.0
  0
LINE
  8
0
 62
     0
 10
223.008
 20
3.25079
 30
0.0
 11
222.954
 21
3.59117
 31
0.0
  0
LINE
  8
0
 62
     0
 10
222.954
 20
3.59117
 30
0.0
 11
222.799
 21
3.8971
 31
0.0
  0
LINE
  8
0
 62
     0
 10
222.799
 20
3.8971
 30
0.0
 11
222.554
 21
4.14101
 31
0.0
  0
LINE
  8
0
 62
     0
 10
222.554
 20
4.14101
 30
0.0
 11
222.249
 21
4.2981
 31
0.0
  0
LINE
  8
0
 62
     0
 10
222.249
 20
4.2981
 30
0.0
 11
221.908
 21
4.35046
 31
0.0
  0
LINE
  8
0
 62
     0
 10
221.908
 20
4.35046
 30
0.0
 11
221.568
 21
4.2981
 31
0.0
  0
LINE
  8
0
 62
     0
 10
294.506
 20
4.2981
 30
0.0
 11
294.2
 21
4.14101
 31
0.0
  0
LINE
  8
0
 62
     0
 10
294.2
 20
4.14101
 30
0.0
 11
293.956
 21
3.8971
 31
0.0
  0
LINE
  8
0
 62
     0
 10
293.956
 20
3.8971
 30
0.0
 11
293.799
 21
3.59117
 31
0.0
  0
LINE
  8
0
 62
     0
 10
293.799
 20
3.59117
 30
0.0
 11
293.747
 21
3.25079
 31
0.0
  0
LINE
  8
0
 62
     0
 10
293.747
 20
3.25079
 30
0.0
 11
293.799
 21
2.9118
 31
0.0
  0
LINE
  8
0
 62
     0
 10
293.799
 20
2.9118
 30
0.0
 11
293.956
 21
2.60449
 31
0.0
  0
LINE
  8
0
 62
     0
 10
293.956
 20
2.60449
 30
0.0
 11
294.2
 21
2.36196
 31
0.0
  0
LINE
  8
0
 62
     0
 10
294.2
 20
2.36196
 30
0.0
 11
294.506
 21
2.20486
 31
0.0
  0
LINE
  8
0
 62
     0
 10
294.506
 20
2.20486
 30
0.0
 11
294.846
 21
2.15112
 31
0.0
  0
LINE
  8
0
 62
     0
 10
294.846
 20
2.15112
 30
0.0
 11
295.185
 21
2.20486
 31
0.0
  0
LINE
  8
0
 62
     0
 10
295.185
 20
2.20486
 30
0.0
 11
295.493
 21
2.36196
 31
0.0
  0
LINE
  8
0
 62
     0
 10
295.493
 20
2.36196
 30
0.0
 11
295.735
 21
2.60449
 31
0.0
  0
LINE
  8
0
 62
     0
 10
295.735
 20
2.60449
 30
0.0
 11
295.892
 21
2.9118
 31
0.0
  0
LINE
  8
0
 62
     0
 10
295.892
 20
2.9118
 30
0.0
 11
295.946
 21
3.25079
 31
0.0
  0
LINE
  8
0
 62
     0
 10
295.946
 20
3.25079
 30
0.0
 11
295.892
 21
3.59117
 31
0.0
  0
LINE
  8
0
 62
     0
 10
295.892
 20
3.59117
 30
0.0
 11
295.735
 21
3.8971
 31
0.0
  0
LINE
  8
0
 62
     0
 10
295.735
 20
3.8971
 30
0.0
 11
295.493
 21
4.14101
 31
0.0
  0
LINE
  8
0
 62
     0
 10
295.493
 20
4.14101
 30
0.0
 11
295.185
 21
4.2981
 31
0.0
  0
LINE
  8
0
 62
     0
 10
295.185
 20
4.2981
 30
0.0
 11
294.846
 21
4.35046
 31
0.0
  0
LINE
  8
0
 62
     0
 10
294.846
 20
4.35046
 30
0.0
 11
294.506
 21
4.2981
 31
0.0
  0
LINE
  8
0
 62
     0
 10
175.307
 20
22.7762
 30
0.0
 11
175.307
 21
18.0771
 31
0.0
  0
LINE
  8
0
 62
     0
 10
175.307
 20
18.0771
 30
0.0
 11
173.783
 21
18.0771
 31
0.0
  0
LINE
  8
0
 62
     0
 10
173.783
 20
18.0771
 30
0.0
 11
173.783
 21
21.3072
 31
0.0
  0
LINE
  8
0
 62
     0
 10
173.783
 20
21.3072
 30
0.0
 11
172.058
 21
21.3072
 31
0.0
  0
LINE
  8
0
 62
     0
 10
172.058
 20
21.3072
 30
0.0
 11
172.058
 21
22.2278
 31
0.0
  0
LINE
  8
0
 62
     0
 10
172.058
 20
22.2278
 30
0.0
 11
168.757
 21
22.2278
 31
0.0
  0
LINE
  8
0
 62
     0
 10
168.757
 20
22.2278
 30
0.0
 11
168.757
 21
21.3072
 31
0.0
  0
LINE
  8
0
 62
     0
 10
168.757
 20
21.3072
 30
0.0
 11
167.032
 21
21.3072
 31
0.0
  0
LINE
  8
0
 62
     0
 10
167.032
 20
21.3072
 30
0.0
 11
167.032
 21
18.0771
 31
0.0
  0
LINE
  8
0
 62
     0
 10
167.032
 20
18.0771
 30
0.0
 11
166.208
 21
18.0771
 31
0.0
  0
LINE
  8
0
 62
     0
 10
166.208
 20
18.0771
 30
0.0
 11
166.208
 21
15.2769
 31
0.0
  0
LINE
  8
0
 62
     0
 10
166.208
 20
15.2769
 30
0.0
 11
167.032
 21
15.2769
 31
0.0
  0
LINE
  8
0
 62
     0
 10
167.032
 20
15.2769
 30
0.0
 11
167.032
 21
9.00825
 31
0.0
  0
LINE
  8
0
 62
     0
 10
167.032
 20
9.00825
 30
0.0
 11
168.757
 21
9.00825
 31
0.0
  0
LINE
  8
0
 62
     0
 10
168.757
 20
9.00825
 30
0.0
 11
168.757
 21
8.02707
 31
0.0
  0
LINE
  8
0
 62
     0
 10
168.757
 20
8.02707
 30
0.0
 11
172.058
 21
8.02707
 31
0.0
  0
LINE
  8
0
 62
     0
 10
172.058
 20
8.02707
 30
0.0
 11
172.058
 21
9.00825
 31
0.0
  0
LINE
  8
0
 62
     0
 10
172.058
 20
9.00825
 30
0.0
 11
173.783
 21
9.00825
 31
0.0
  0
LINE
  8
0
 62
     0
 10
173.783
 20
9.00825
 30
0.0
 11
173.783
 21
13.4772
 31
0.0
  0
LINE
  8
0
 62
     0
 10
173.783
 20
13.4772
 30
0.0
 11
175.307
 21
13.4772
 31
0.0
  0
LINE
  8
0
 62
     0
 10
175.307
 20
13.4772
 30
0.0
 11
175.307
 21
8.77672
 31
0.0
  0
LINE
  8
0
 62
     0
 10
175.307
 20
8.77672
 30
0.0
 11
189.308
 21
8.77672
 31
0.0
  0
LINE
  8
0
 62
     0
 10
189.308
 20
8.77672
 30
0.0
 11
189.308
 21
13.4772
 31
0.0
  0
LINE
  8
0
 62
     0
 10
189.308
 20
13.4772
 30
0.0
 11
190.832
 21
13.4772
 31
0.0
  0
LINE
  8
0
 62
     0
 10
190.832
 20
13.4772
 30
0.0
 11
190.832
 21
9.00825
 31
0.0
  0
LINE
  8
0
 62
     0
 10
190.832
 20
9.00825
 30
0.0
 11
192.557
 21
9.00825
 31
0.0
  0
LINE
  8
0
 62
     0
 10
192.557
 20
9.00825
 30
0.0
 11
192.557
 21
8.02707
 31
0.0
  0
LINE
  8
0
 62
     0
 10
192.557
 20
8.02707
 30
0.0
 11
195.858
 21
8.02707
 31
0.0
  0
LINE
  8
0
 62
     0
 10
195.858
 20
8.02707
 30
0.0
 11
195.858
 21
9.00825
 31
0.0
  0
LINE
  8
0
 62
     0
 10
195.858
 20
9.00825
 30
0.0
 11
197.583
 21
9.00825
 31
0.0
  0
LINE
  8
0
 62
     0
 10
197.583
 20
9.00825
 30
0.0
 11
197.583
 21
15.2769
 31
0.0
  0
LINE
  8
0
 62
     0
 10
197.583
 20
15.2769
 30
0.0
 11
198.407
 21
15.2769
 31
0.0
  0
LINE
  8
0
 62
     0
 10
198.407
 20
15.2769
 30
0.0
 11
198.407
 21
18.0771
 31
0.0
  0
LINE
  8
0
 62
     0
 10
198.407
 20
18.0771
 30
0.0
 11
197.583
 21
18.0771
 31
0.0
  0
LINE
  8
0
 62
     0
 10
197.583
 20
18.0771
 30
0.0
 11
197.583
 21
21.3072
 31
0.0
  0
LINE
  8
0
 62
     0
 10
197.583
 20
21.3072
 30
0.0
 11
195.858
 21
21.3072
 31
0.0
  0
LINE
  8
0
 62
     0
 10
195.858
 20
21.3072
 30
0.0
 11
195.858
 21
22.2278
 31
0.0
  0
LINE
  8
0
 62
     0
 10
195.858
 20
22.2278
 30
0.0
 11
192.557
 21
22.2278
 31
0.0
  0
LINE
  8
0
 62
     0
 10
192.557
 20
22.2278
 30
0.0
 11
192.557
 21
21.3072
 31
0.0
  0
LINE
  8
0
 62
     0
 10
192.557
 20
21.3072
 30
0.0
 11
190.832
 21
21.3072
 31
0.0
  0
LINE
  8
0
 62
     0
 10
190.832
 20
21.3072
 30
0.0
 11
190.832
 21
18.0771
 31
0.0
  0
LINE
  8
0
 62
     0
 10
190.832
 20
18.0771
 30
0.0
 11
189.308
 21
18.0771
 31
0.0
  0
LINE
  8
0
 62
     0
 10
189.308
 20
18.0771
 30
0.0
 11
189.308
 21
22.7762
 31
0.0
  0
LINE
  8
0
 62
     0
 10
189.308
 20
22.7762
 30
0.0
 11
175.307
 21
22.7762
 31
0.0
  0
LINE
  8
0
 62
     0
 10
80.0573
 20
22.7762
 30
0.0
 11
80.0573
 21
18.0771
 31
0.0
  0
LINE
  8
0
 62
     0
 10
80.0573
 20
18.0771
 30
0.0
 11
78.5329
 21
18.0771
 31
0.0
  0
LINE
  8
0
 62
     0
 10
78.5329
 20
18.0771
 30
0.0
 11
78.5329
 21
21.3072
 31
0.0
  0
LINE
  8
0
 62
     0
 10
78.5329
 20
21.3072
 30
0.0
 11
76.8078
 21
21.3072
 31
0.0
  0
LINE
  8
0
 62
     0
 10
76.8078
 20
21.3072
 30
0.0
 11
76.8078
 21
22.2278
 31
0.0
  0
LINE
  8
0
 62
     0
 10
76.8078
 20
22.2278
 30
0.0
 11
73.5072
 21
22.2278
 31
0.0
  0
LINE
  8
0
 62
     0
 10
73.5072
 20
22.2278
 30
0.0
 11
73.5072
 21
21.3072
 31
0.0
  0
LINE
  8
0
 62
     0
 10
73.5072
 20
21.3072
 30
0.0
 11
71.7822
 21
21.3072
 31
0.0
  0
LINE
  8
0
 62
     0
 10
71.7822
 20
21.3072
 30
0.0
 11
71.7822
 21
18.0771
 31
0.0
  0
LINE
  8
0
 62
     0
 10
71.7822
 20
18.0771
 30
0.0
 11
70.9581
 21
18.0771
 31
0.0
  0
LINE
  8
0
 62
     0
 10
70.9581
 20
18.0771
 30
0.0
 11
70.9581
 21
15.2769
 31
0.0
  0
LINE
  8
0
 62
     0
 10
70.9581
 20
15.2769
 30
0.0
 11
71.7822
 21
15.2769
 31
0.0
  0
LINE
  8
0
 62
     0
 10
71.7822
 20
15.2769
 30
0.0
 11
71.7822
 21
9.00825
 31
0.0
  0
LINE
  8
0
 62
     0
 10
71.7822
 20
9.00825
 30
0.0
 11
73.5072
 21
9.00825
 31
0.0
  0
LINE
  8
0
 62
     0
 10
73.5072
 20
9.00825
 30
0.0
 11
73.5072
 21
8.02707
 31
0.0
  0
LINE
  8
0
 62
     0
 10
73.5072
 20
8.02707
 30
0.0
 11
76.8078
 21
8.02707
 31
0.0
  0
LINE
  8
0
 62
     0
 10
76.8078
 20
8.02707
 30
0.0
 11
76.8078
 21
9.00825
 31
0.0
  0
LINE
  8
0
 62
     0
 10
76.8078
 20
9.00825
 30
0.0
 11
78.5329
 21
9.00825
 31
0.0
  0
LINE
  8
0
 62
     0
 10
78.5329
 20
9.00825
 30
0.0
 11
78.5329
 21
13.4772
 31
0.0
  0
LINE
  8
0
 62
     0
 10
78.5329
 20
13.4772
 30
0.0
 11
80.0573
 21
13.4772
 31
0.0
  0
LINE
  8
0
 62
     0
 10
80.0573
 20
13.4772
 30
0.0
 11
80.0573
 21
8.77672
 31
0.0
  0
LINE
  8
0
 62
     0
 10
80.0573
 20
8.77672
 30
0.0
 11
94.058
 21
8.77672
 31
0.0
  0
LINE
  8
0
 62
     0
 10
94.058
 20
8.77672
 30
0.0
 11
94.058
 21
13.4772
 31
0.0
  0
LINE
  8
0
 62
     0
 10
94.058
 20
13.4772
 30
0.0
 11
95.582
 21
13.4772
 31
0.0
  0
LINE
  8
0
 62
     0
 10
95.582
 20
13.4772
 30
0.0
 11
95.582
 21
9.00825
 31
0.0
  0
LINE
  8
0
 62
     0
 10
95.582
 20
9.00825
 30
0.0
 11
97.3074
 21
9.00825
 31
0.0
  0
LINE
  8
0
 62
     0
 10
97.3074
 20
9.00825
 30
0.0
 11
97.3074
 21
8.02707
 31
0.0
  0
LINE
  8
0
 62
     0
 10
97.3074
 20
8.02707
 30
0.0
 11
100.608
 21
8.02707
 31
0.0
  0
LINE
  8
0
 62
     0
 10
100.608
 20
8.02707
 30
0.0
 11
100.608
 21
9.00825
 31
0.0
  0
LINE
  8
0
 62
     0
 10
100.608
 20
9.00825
 30
0.0
 11
102.333
 21
9.00825
 31
0.0
  0
LINE
  8
0
 62
     0
 10
102.333
 20
9.00825
 30
0.0
 11
102.333
 21
15.2769
 31
0.0
  0
LINE
  8
0
 62
     0
 10
102.333
 20
15.2769
 30
0.0
 11
103.157
 21
15.2769
 31
0.0
  0
LINE
  8
0
 62
     0
 10
103.157
 20
15.2769
 30
0.0
 11
103.157
 21
18.0771
 31
0.0
  0
LINE
  8
0
 62
     0
 10
103.157
 20
18.0771
 30
0.0
 11
102.333
 21
18.0771
 31
0.0
  0
LINE
  8
0
 62
     0
 10
102.333
 20
18.0771
 30
0.0
 11
102.333
 21
21.3072
 31
0.0
  0
LINE
  8
0
 62
     0
 10
102.333
 20
21.3072
 30
0.0
 11
100.608
 21
21.3072
 31
0.0
  0
LINE
  8
0
 62
     0
 10
100.608
 20
21.3072
 30
0.0
 11
100.608
 21
22.2278
 31
0.0
  0
LINE
  8
0
 62
     0
 10
100.608
 20
22.2278
 30
0.0
 11
97.3074
 21
22.2278
 31
0.0
  0
LINE
  8
0
 62
     0
 10
97.3074
 20
22.2278
 30
0.0
 11
97.3074
 21
21.3072
 31
0.0
  0
LINE
  8
0
 62
     0
 10
97.3074
 20
21.3072
 30
0.0
 11
95.582
 21
21.3072
 31
0.0
  0
LINE
  8
0
 62
     0
 10
95.582
 20
21.3072
 30
0.0
 11
95.582
 21
18.0771
 31
0.0
  0
LINE
  8
0
 62
     0
 10
95.582
 20
18.0771
 30
0.0
 11
94.058
 21
18.0771
 31
0.0
  0
LINE
  8
0
 62
     0
 10
94.058
 20
18.0771
 30
0.0
 11
94.058
 21
22.7762
 31
0.0
  0
LINE
  8
0
 62
     0
 10
94.058
 20
22.7762
 30
0.0
 11
80.0573
 21
22.7762
 31
0.0
  0
LINE
  8
0
 62
     0
 10
268.176
 20
22.7762
 30
0.0
 11
282.177
 21
22.7762
 31
0.0
  0
LINE
  8
0
 62
     0
 10
282.177
 20
22.7762
 30
0.0
 11
282.177
 21
8.77672
 31
0.0
  0
LINE
  8
0
 62
     0
 10
282.177
 20
8.77672
 30
0.0
 11
268.176
 21
8.77672
 31
0.0
  0
LINE
  8
0
 62
     0
 10
268.176
 20
8.77672
 30
0.0
 11
268.176
 21
22.7762
 31
0.0
  0
LINE
  8
0
 62
     0
 10
241.982
 20
22.7762
 30
0.0
 11
255.983
 21
22.7762
 31
0.0
  0
LINE
  8
0
 62
     0
 10
255.983
 20
22.7762
 30
0.0
 11
255.983
 21
8.77672
 31
0.0
  0
LINE
  8
0
 62
     0
 10
255.983
 20
8.77672
 30
0.0
 11
241.982
 21
8.77672
 31
0.0
  0
LINE
  8
0
 62
     0
 10
241.982
 20
8.77672
 30
0.0
 11
241.982
 21
22.7762
 31
0.0
  0
LINE
  8
0
 62
     0
 10
222.932
 20
22.7762
 30
0.0
 11
236.933
 21
22.7762
 31
0.0
  0
LINE
  8
0
 62
     0
 10
236.933
 20
22.7762
 30
0.0
 11
236.933
 21
8.77672
 31
0.0
  0
LINE
  8
0
 62
     0
 10
236.933
 20
8.77672
 30
0.0
 11
222.932
 21
8.77672
 31
0.0
  0
LINE
  8
0
 62
     0
 10
222.932
 20
8.77672
 30
0.0
 11
222.932
 21
22.7762
 31
0.0
  0
LINE
  8
0
 62
     0
 10
203.882
 20
22.7762
 30
0.0
 11
217.883
 21
22.7762
 31
0.0
  0
LINE
  8
0
 62
     0
 10
217.883
 20
22.7762
 30
0.0
 11
217.883
 21
8.77672
 31
0.0
  0
LINE
  8
0
 62
     0
 10
217.883
 20
8.77672
 30
0.0
 11
203.882
 21
8.77672
 31
0.0
  0
LINE
  8
0
 62
     0
 10
203.882
 20
8.77672
 30
0.0
 11
203.882
 21
22.7762
 31
0.0
  0
LINE
  8
0
 62
     0
 10
146.732
 20
22.7762
 30
0.0
 11
160.733
 21
22.7762
 31
0.0
  0
LINE
  8
0
 62
     0
 10
160.733
 20
22.7762
 30
0.0
 11
160.733
 21
8.77672
 31
0.0
  0
LINE
  8
0
 62
     0
 10
160.733
 20
8.77672
 30
0.0
 11
146.732
 21
8.77672
 31
0.0
  0
LINE
  8
0
 62
     0
 10
146.732
 20
8.77672
 30
0.0
 11
146.732
 21
22.7762
 31
0.0
  0
LINE
  8
0
 62
     0
 10
127.682
 20
22.7762
 30
0.0
 11
141.683
 21
22.7762
 31
0.0
  0
LINE
  8
0
 62
     0
 10
141.683
 20
22.7762
 30
0.0
 11
141.683
 21
8.77672
 31
0.0
  0
LINE
  8
0
 62
     0
 10
141.683
 20
8.77672
 30
0.0
 11
127.682
 21
8.77672
 31
0.0
  0
LINE
  8
0
 62
     0
 10
127.682
 20
8.77672
 30
0.0
 11
127.682
 21
22.7762
 31
0.0
  0
LINE
  8
0
 62
     0
 10
108.632
 20
22.7762
 30
0.0
 11
122.633
 21
22.7762
 31
0.0
  0
LINE
  8
0
 62
     0
 10
122.633
 20
22.7762
 30
0.0
 11
122.633
 21
8.77672
 31
0.0
  0
LINE
  8
0
 62
     0
 10
122.633
 20
8.77672
 30
0.0
 11
108.632
 21
8.77672
 31
0.0
  0
LINE
  8
0
 62
     0
 10
108.632
 20
8.77672
 30
0.0
 11
108.632
 21
22.7762
 31
0.0
  0
LINE
  8
0
 62
     0
 10
51.4823
 20
22.7762
 30
0.0
 11
65.483
 21
22.7762
 31
0.0
  0
LINE
  8
0
 62
     0
 10
65.483
 20
22.7762
 30
0.0
 11
65.483
 21
8.77672
 31
0.0
  0
LINE
  8
0
 62
     0
 10
65.483
 20
8.77672
 30
0.0
 11
51.4823
 21
8.77672
 31
0.0
  0
LINE
  8
0
 62
     0
 10
51.4823
 20
8.77672
 30
0.0
 11
51.4823
 21
22.7762
 31
0.0
  0
LINE
  8
0
 62
     0
 10
32.4321
 20
22.7762
 30
0.0
 11
46.433
 21
22.7762
 31
0.0
  0
LINE
  8
0
 62
     0
 10
46.433
 20
22.7762
 30
0.0
 11
46.433
 21
8.77672
 31
0.0
  0
LINE
  8
0
 62
     0
 10
46.433
 20
8.77672
 30
0.0
 11
32.4321
 21
8.77672
 31
0.0
  0
LINE
  8
0
 62
     0
 10
32.4321
 20
8.77672
 30
0.0
 11
32.4321
 21
22.7762
 31
0.0
  0
LINE
  8
0
 62
     0
 10
11.0009
 20
22.7762
 30
0.0
 11
25.0017
 21
22.7762
 31
0.0
  0
LINE
  8
0
 62
     0
 10
25.0017
 20
22.7762
 30
0.0
 11
25.0017
 21
8.77672
 31
0.0
  0
LINE
  8
0
 62
     0
 10
25.0017
 20
8.77672
 30
0.0
 11
11.0009
 21
8.77672
 31
0.0
  0
LINE
  8
0
 62
     0
 10
11.0009
 20
8.77672
 30
0.0
 11
11.0009
 21
22.7762
 31
0.0
  0
LINE
  8
0
 62
     0
 10
258.651
 20
41.8264
 30
0.0
 11
258.651
 21
37.127
 31
0.0
  0
LINE
  8
0
 62
     0
 10
258.651
 20
37.127
 30
0.0
 11
257.127
 21
37.127
 31
0.0
  0
LINE
  8
0
 62
     0
 10
257.127
 20
37.127
 30
0.0
 11
257.127
 21
40.3571
 31
0.0
  0
LINE
  8
0
 62
     0
 10
257.127
 20
40.3571
 30
0.0
 11
255.4
 21
40.3571
 31
0.0
  0
LINE
  8
0
 62
     0
 10
255.4
 20
40.3571
 30
0.0
 11
255.4
 21
41.2764
 31
0.0
  0
LINE
  8
0
 62
     0
 10
255.4
 20
41.2764
 30
0.0
 11
252.101
 21
41.2764
 31
0.0
  0
LINE
  8
0
 62
     0
 10
252.101
 20
41.2764
 30
0.0
 11
252.101
 21
40.3571
 31
0.0
  0
LINE
  8
0
 62
     0
 10
252.101
 20
40.3571
 30
0.0
 11
250.377
 21
40.3571
 31
0.0
  0
LINE
  8
0
 62
     0
 10
250.377
 20
40.3571
 30
0.0
 11
250.377
 21
37.127
 31
0.0
  0
LINE
  8
0
 62
     0
 10
250.377
 20
37.127
 30
0.0
 11
249.552
 21
37.127
 31
0.0
  0
LINE
  8
0
 62
     0
 10
249.552
 20
37.127
 30
0.0
 11
249.552
 21
34.3269
 31
0.0
  0
LINE
  8
0
 62
     0
 10
249.552
 20
34.3269
 30
0.0
 11
250.377
 21
34.3269
 31
0.0
  0
LINE
  8
0
 62
     0
 10
250.377
 20
34.3269
 30
0.0
 11
250.377
 21
28.0569
 31
0.0
  0
LINE
  8
0
 62
     0
 10
250.377
 20
28.0569
 30
0.0
 11
252.101
 21
28.0569
 31
0.0
  0
LINE
  8
0
 62
     0
 10
252.101
 20
28.0569
 30
0.0
 11
252.101
 21
27.0771
 31
0.0
  0
LINE
  8
0
 62
     0
 10
252.101
 20
27.0771
 30
0.0
 11
255.4
 21
27.0771
 31
0.0
  0
LINE
  8
0
 62
     0
 10
255.4
 20
27.0771
 30
0.0
 11
255.4
 21
28.0569
 31
0.0
  0
LINE
  8
0
 62
     0
 10
255.4
 20
28.0569
 30
0.0
 11
257.127
 21
28.0569
 31
0.0
  0
LINE
  8
0
 62
     0
 10
257.127
 20
28.0569
 30
0.0
 11
257.127
 21
32.5272
 31
0.0
  0
LINE
  8
0
 62
     0
 10
257.127
 20
32.5272
 30
0.0
 11
258.651
 21
32.5272
 31
0.0
  0
LINE
  8
0
 62
     0
 10
258.651
 20
32.5272
 30
0.0
 11
258.651
 21
27.8267
 31
0.0
  0
LINE
  8
0
 62
     0
 10
258.651
 20
27.8267
 30
0.0
 11
272.652
 21
27.8267
 31
0.0
  0
LINE
  8
0
 62
     0
 10
272.652
 20
27.8267
 30
0.0
 11
272.652
 21
32.5272
 31
0.0
  0
LINE
  8
0
 62
     0
 10
272.652
 20
32.5272
 30
0.0
 11
274.176
 21
32.5272
 31
0.0
  0
LINE
  8
0
 62
     0
 10
274.176
 20
32.5272
 30
0.0
 11
274.176
 21
28.0569
 31
0.0
  0
LINE
  8
0
 62
     0
 10
274.176
 20
28.0569
 30
0.0
 11
275.901
 21
28.0569
 31
0.0
  0
LINE
  8
0
 62
     0
 10
275.901
 20
28.0569
 30
0.0
 11
275.901
 21
27.0771
 31
0.0
  0
LINE
  8
0
 62
     0
 10
275.901
 20
27.0771
 30
0.0
 11
279.202
 21
27.0771
 31
0.0
  0
LINE
  8
0
 62
     0
 10
279.202
 20
27.0771
 30
0.0
 11
279.202
 21
28.0569
 31
0.0
  0
LINE
  8
0
 62
     0
 10
279.202
 20
28.0569
 30
0.0
 11
280.927
 21
28.0569
 31
0.0
  0
LINE
  8
0
 62
     0
 10
280.927
 20
28.0569
 30
0.0
 11
280.927
 21
34.3269
 31
0.0
  0
LINE
  8
0
 62
     0
 10
280.927
 20
34.3269
 30
0.0
 11
281.751
 21
34.3269
 31
0.0
  0
LINE
  8
0
 62
     0
 10
281.751
 20
34.3269
 30
0.0
 11
281.751
 21
37.127
 31
0.0
  0
LINE
  8
0
 62
     0
 10
281.751
 20
37.127
 30
0.0
 11
280.927
 21
37.127
 31
0.0
  0
LINE
  8
0
 62
     0
 10
280.927
 20
37.127
 30
0.0
 11
280.927
 21
40.3571
 31
0.0
  0
LINE
  8
0
 62
     0
 10
280.927
 20
40.3571
 30
0.0
 11
279.202
 21
40.3571
 31
0.0
  0
LINE
  8
0
 62
     0
 10
279.202
 20
40.3571
 30
0.0
 11
279.202
 21
41.2764
 31
0.0
  0
LINE
  8
0
 62
     0
 10
279.202
 20
41.2764
 30
0.0
 11
275.901
 21
41.2764
 31
0.0
  0
LINE
  8
0
 62
     0
 10
275.901
 20
41.2764
 30
0.0
 11
275.901
 21
40.3571
 31
0.0
  0
LINE
  8
0
 62
     0
 10
275.901
 20
40.3571
 30
0.0
 11
274.176
 21
40.3571
 31
0.0
  0
LINE
  8
0
 62
     0
 10
274.176
 20
40.3571
 30
0.0
 11
274.176
 21
37.127
 31
0.0
  0
LINE
  8
0
 62
     0
 10
274.176
 20
37.127
 30
0.0
 11
272.652
 21
37.127
 31
0.0
  0
LINE
  8
0
 62
     0
 10
272.652
 20
37.127
 30
0.0
 11
272.652
 21
41.8264
 31
0.0
  0
LINE
  8
0
 62
     0
 10
272.652
 20
41.8264
 30
0.0
 11
258.651
 21
41.8264
 31
0.0
  0
LINE
  8
0
 62
     0
 10
20.5259
 20
41.8264
 30
0.0
 11
20.5259
 21
37.127
 31
0.0
  0
LINE
  8
0
 62
     0
 10
20.5259
 20
37.127
 30
0.0
 11
19.0018
 21
37.127
 31
0.0
  0
LINE
  8
0
 62
     0
 10
19.0018
 20
37.127
 30
0.0
 11
19.0018
 21
40.3571
 31
0.0
  0
LINE
  8
0
 62
     0
 10
19.0018
 20
40.3571
 30
0.0
 11
17.2765
 21
40.3571
 31
0.0
  0
LINE
  8
0
 62
     0
 10
17.2765
 20
40.3571
 30
0.0
 11
17.2765
 21
41.2764
 31
0.0
  0
LINE
  8
0
 62
     0
 10
17.2765
 20
41.2764
 30
0.0
 11
13.9761
 21
41.2764
 31
0.0
  0
LINE
  8
0
 62
     0
 10
13.9761
 20
41.2764
 30
0.0
 11
13.9761
 21
40.3571
 31
0.0
  0
LINE
  8
0
 62
     0
 10
13.9761
 20
40.3571
 30
0.0
 11
12.2521
 21
40.3571
 31
0.0
  0
LINE
  8
0
 62
     0
 10
12.2521
 20
40.3571
 30
0.0
 11
12.2521
 21
37.127
 31
0.0
  0
LINE
  8
0
 62
     0
 10
12.2521
 20
37.127
 30
0.0
 11
11.4267
 21
37.127
 31
0.0
  0
LINE
  8
0
 62
     0
 10
11.4267
 20
37.127
 30
0.0
 11
11.4267
 21
34.3269
 31
0.0
  0
LINE
  8
0
 62
     0
 10
11.4267
 20
34.3269
 30
0.0
 11
12.2521
 21
34.3269
 31
0.0
  0
LINE
  8
0
 62
     0
 10
12.2521
 20
34.3269
 30
0.0
 11
12.2521
 21
28.0569
 31
0.0
  0
LINE
  8
0
 62
     0
 10
12.2521
 20
28.0569
 30
0.0
 11
13.9761
 21
28.0569
 31
0.0
  0
LINE
  8
0
 62
     0
 10
13.9761
 20
28.0569
 30
0.0
 11
13.9761
 21
27.0771
 31
0.0
  0
LINE
  8
0
 62
     0
 10
13.9761
 20
27.0771
 30
0.0
 11
17.2765
 21
27.0771
 31
0.0
  0
LINE
  8
0
 62
     0
 10
17.2765
 20
27.0771
 30
0.0
 11
17.2765
 21
28.0569
 31
0.0
  0
LINE
  8
0
 62
     0
 10
17.2765
 20
28.0569
 30
0.0
 11
19.0018
 21
28.0569
 31
0.0
  0
LINE
  8
0
 62
     0
 10
19.0018
 20
28.0569
 30
0.0
 11
19.0018
 21
32.5272
 31
0.0
  0
LINE
  8
0
 62
     0
 10
19.0018
 20
32.5272
 30
0.0
 11
20.5259
 21
32.5272
 31
0.0
  0
LINE
  8
0
 62
     0
 10
20.5259
 20
32.5272
 30
0.0
 11
20.5259
 21
27.8267
 31
0.0
  0
LINE
  8
0
 62
     0
 10
20.5259
 20
27.8267
 30
0.0
 11
34.5267
 21
27.8267
 31
0.0
  0
LINE
  8
0
 62
     0
 10
34.5267
 20
27.8267
 30
0.0
 11
34.5267
 21
32.5272
 31
0.0
  0
LINE
  8
0
 62
     0
 10
34.5267
 20
32.5272
 30
0.0
 11
36.0507
 21
32.5272
 31
0.0
  0
LINE
  8
0
 62
     0
 10
36.0507
 20
32.5272
 30
0.0
 11
36.0507
 21
28.0569
 31
0.0
  0
LINE
  8
0
 62
     0
 10
36.0507
 20
28.0569
 30
0.0
 11
37.7762
 21
28.0569
 31
0.0
  0
LINE
  8
0
 62
     0
 10
37.7762
 20
28.0569
 30
0.0
 11
37.7762
 21
27.0771
 31
0.0
  0
LINE
  8
0
 62
     0
 10
37.7762
 20
27.0771
 30
0.0
 11
41.0767
 21
27.0771
 31
0.0
  0
LINE
  8
0
 62
     0
 10
41.0767
 20
27.0771
 30
0.0
 11
41.0767
 21
28.0569
 31
0.0
  0
LINE
  8
0
 62
     0
 10
41.0767
 20
28.0569
 30
0.0
 11
42.8018
 21
28.0569
 31
0.0
  0
LINE
  8
0
 62
     0
 10
42.8018
 20
28.0569
 30
0.0
 11
42.8018
 21
34.3269
 31
0.0
  0
LINE
  8
0
 62
     0
 10
42.8018
 20
34.3269
 30
0.0
 11
43.6259
 21
34.3269
 31
0.0
  0
LINE
  8
0
 62
     0
 10
43.6259
 20
34.3269
 30
0.0
 11
43.6259
 21
37.127
 31
0.0
  0
LINE
  8
0
 62
     0
 10
43.6259
 20
37.127
 30
0.0
 11
42.8018
 21
37.127
 31
0.0
  0
LINE
  8
0
 62
     0
 10
42.8018
 20
37.127
 30
0.0
 11
42.8018
 21
40.3571
 31
0.0
  0
LINE
  8
0
 62
     0
 10
42.8018
 20
40.3571
 30
0.0
 11
41.0767
 21
40.3571
 31
0.0
  0
LINE
  8
0
 62
     0
 10
41.0767
 20
40.3571
 30
0.0
 11
41.0767
 21
41.2764
 31
0.0
  0
LINE
  8
0
 62
     0
 10
41.0767
 20
41.2764
 30
0.0
 11
37.7762
 21
41.2764
 31
0.0
  0
LINE
  8
0
 62
     0
 10
37.7762
 20
41.2764
 30
0.0
 11
37.7762
 21
40.3571
 31
0.0
  0
LINE
  8
0
 62
     0
 10
37.7762
 20
40.3571
 30
0.0
 11
36.0507
 21
40.3571
 31
0.0
  0
LINE
  8
0
 62
     0
 10
36.0507
 20
40.3571
 30
0.0
 11
36.0507
 21
37.127
 31
0.0
  0
LINE
  8
0
 62
     0
 10
36.0507
 20
37.127
 30
0.0
 11
34.5267
 21
37.127
 31
0.0
  0
LINE
  8
0
 62
     0
 10
34.5267
 20
37.127
 30
0.0
 11
34.5267
 21
41.8264
 31
0.0
  0
LINE
  8
0
 62
     0
 10
34.5267
 20
41.8264
 30
0.0
 11
20.5259
 21
41.8264
 31
0.0
  0
LINE
  8
0
 62
     0
 10
222.932
 20
41.8264
 30
0.0
 11
236.933
 21
41.8264
 31
0.0
  0
LINE
  8
0
 62
     0
 10
236.933
 20
41.8264
 30
0.0
 11
236.933
 21
27.8267
 31
0.0
  0
LINE
  8
0
 62
     0
 10
236.933
 20
27.8267
 30
0.0
 11
222.932
 21
27.8267
 31
0.0
  0
LINE
  8
0
 62
     0
 10
222.932
 20
27.8267
 30
0.0
 11
222.932
 21
41.8264
 31
0.0
  0
LINE
  8
0
 62
     0
 10
203.882
 20
41.8264
 30
0.0
 11
217.883
 21
41.8264
 31
0.0
  0
LINE
  8
0
 62
     0
 10
217.883
 20
41.8264
 30
0.0
 11
217.883
 21
27.8267
 31
0.0
  0
LINE
  8
0
 62
     0
 10
217.883
 20
27.8267
 30
0.0
 11
203.882
 21
27.8267
 31
0.0
  0
LINE
  8
0
 62
     0
 10
203.882
 20
27.8267
 30
0.0
 11
203.882
 21
41.8264
 31
0.0
  0
LINE
  8
0
 62
     0
 10
184.832
 20
41.8264
 30
0.0
 11
198.833
 21
41.8264
 31
0.0
  0
LINE
  8
0
 62
     0
 10
198.833
 20
41.8264
 30
0.0
 11
198.833
 21
27.8267
 31
0.0
  0
LINE
  8
0
 62
     0
 10
198.833
 20
27.8267
 30
0.0
 11
184.832
 21
27.8267
 31
0.0
  0
LINE
  8
0
 62
     0
 10
184.832
 20
27.8267
 30
0.0
 11
184.832
 21
41.8264
 31
0.0
  0
LINE
  8
0
 62
     0
 10
165.782
 20
41.8264
 30
0.0
 11
179.783
 21
41.8264
 31
0.0
  0
LINE
  8
0
 62
     0
 10
179.783
 20
41.8264
 30
0.0
 11
179.783
 21
27.8267
 31
0.0
  0
LINE
  8
0
 62
     0
 10
179.783
 20
27.8267
 30
0.0
 11
165.782
 21
27.8267
 31
0.0
  0
LINE
  8
0
 62
     0
 10
165.782
 20
27.8267
 30
0.0
 11
165.782
 21
41.8264
 31
0.0
  0
LINE
  8
0
 62
     0
 10
146.732
 20
41.8264
 30
0.0
 11
160.733
 21
41.8264
 31
0.0
  0
LINE
  8
0
 62
     0
 10
160.733
 20
41.8264
 30
0.0
 11
160.733
 21
27.8267
 31
0.0
  0
LINE
  8
0
 62
     0
 10
160.733
 20
27.8267
 30
0.0
 11
146.732
 21
27.8267
 31
0.0
  0
LINE
  8
0
 62
     0
 10
146.732
 20
27.8267
 30
0.0
 11
146.732
 21
41.8264
 31
0.0
  0
LINE
  8
0
 62
     0
 10
127.682
 20
41.8264
 30
0.0
 11
141.683
 21
41.8264
 31
0.0
  0
LINE
  8
0
 62
     0
 10
141.683
 20
41.8264
 30
0.0
 11
141.683
 21
27.8267
 31
0.0
  0
LINE
  8
0
 62
     0
 10
141.683
 20
27.8267
 30
0.0
 11
127.682
 21
27.8267
 31
0.0
  0
LINE
  8
0
 62
     0
 10
127.682
 20
27.8267
 30
0.0
 11
127.682
 21
41.8264
 31
0.0
  0
LINE
  8
0
 62
     0
 10
108.632
 20
41.8264
 30
0.0
 11
122.633
 21
41.8264
 31
0.0
  0
LINE
  8
0
 62
     0
 10
122.633
 20
41.8264
 30
0.0
 11
122.633
 21
27.8267
 31
0.0
  0
LINE
  8
0
 62
     0
 10
122.633
 20
27.8267
 30
0.0
 11
108.632
 21
27.8267
 31
0.0
  0
LINE
  8
0
 62
     0
 10
108.632
 20
27.8267
 30
0.0
 11
108.632
 21
41.8264
 31
0.0
  0
LINE
  8
0
 62
     0
 10
89.5823
 20
41.8264
 30
0.0
 11
103.583
 21
41.8264
 31
0.0
  0
LINE
  8
0
 62
     0
 10
103.583
 20
41.8264
 30
0.0
 11
103.583
 21
27.8267
 31
0.0
  0
LINE
  8
0
 62
     0
 10
103.583
 20
27.8267
 30
0.0
 11
89.5823
 21
27.8267
 31
0.0
  0
LINE
  8
0
 62
     0
 10
89.5823
 20
27.8267
 30
0.0
 11
89.5823
 21
41.8264
 31
0.0
  0
LINE
  8
0
 62
     0
 10
70.5323
 20
41.8264
 30
0.0
 11
84.533
 21
41.8264
 31
0.0
  0
LINE
  8
0
 62
     0
 10
84.533
 20
41.8264
 30
0.0
 11
84.533
 21
27.8267
 31
0.0
  0
LINE
  8
0
 62
     0
 10
84.533
 20
27.8267
 30
0.0
 11
70.5323
 21
27.8267
 31
0.0
  0
LINE
  8
0
 62
     0
 10
70.5323
 20
27.8267
 30
0.0
 11
70.5323
 21
41.8264
 31
0.0
  0
LINE
  8
0
 62
     0
 10
51.4823
 20
41.8264
 30
0.0
 11
65.483
 21
41.8264
 31
0.0
  0
LINE
  8
0
 62
     0
 10
65.483
 20
41.8264
 30
0.0
 11
65.483
 21
27.8267
 31
0.0
  0
LINE
  8
0
 62
     0
 10
65.483
 20
27.8267
 30
0.0
 11
51.4823
 21
27.8267
 31
0.0
  0
LINE
  8
0
 62
     0
 10
51.4823
 20
27.8267
 30
0.0
 11
51.4823
 21
41.8264
 31
0.0
  0
LINE
  8
0
 62
     0
 10
263.414
 20
60.8764
 30
0.0
 11
263.414
 21
56.177
 31
0.0
  0
LINE
  8
0
 62
     0
 10
263.414
 20
56.177
 30
0.0
 11
261.888
 21
56.177
 31
0.0
  0
LINE
  8
0
 62
     0
 10
261.888
 20
56.177
 30
0.0
 11
261.888
 21
59.4071
 31
0.0
  0
LINE
  8
0
 62
     0
 10
261.888
 20
59.4071
 30
0.0
 11
260.164
 21
59.4071
 31
0.0
  0
LINE
  8
0
 62
     0
 10
260.164
 20
59.4071
 30
0.0
 11
260.164
 21
60.3264
 31
0.0
  0
LINE
  8
0
 62
     0
 10
260.164
 20
60.3264
 30
0.0
 11
256.862
 21
60.3264
 31
0.0
  0
LINE
  8
0
 62
     0
 10
256.862
 20
60.3264
 30
0.0
 11
256.862
 21
59.4071
 31
0.0
  0
LINE
  8
0
 62
     0
 10
256.862
 20
59.4071
 30
0.0
 11
255.138
 21
59.4071
 31
0.0
  0
LINE
  8
0
 62
     0
 10
255.138
 20
59.4071
 30
0.0
 11
255.138
 21
56.177
 31
0.0
  0
LINE
  8
0
 62
     0
 10
255.138
 20
56.177
 30
0.0
 11
254.313
 21
56.177
 31
0.0
  0
LINE
  8
0
 62
     0
 10
254.313
 20
56.177
 30
0.0
 11
254.313
 21
53.377
 31
0.0
  0
LINE
  8
0
 62
     0
 10
254.313
 20
53.377
 30
0.0
 11
255.138
 21
53.377
 31
0.0
  0
LINE
  8
0
 62
     0
 10
255.138
 20
53.377
 30
0.0
 11
255.138
 21
47.1082
 31
0.0
  0
LINE
  8
0
 62
     0
 10
255.138
 20
47.1082
 30
0.0
 11
256.862
 21
47.1082
 31
0.0
  0
LINE
  8
0
 62
     0
 10
256.862
 20
47.1082
 30
0.0
 11
256.862
 21
46.1271
 31
0.0
  0
LINE
  8
0
 62
     0
 10
256.862
 20
46.1271
 30
0.0
 11
260.164
 21
46.1271
 31
0.0
  0
LINE
  8
0
 62
     0
 10
260.164
 20
46.1271
 30
0.0
 11
260.164
 21
47.1082
 31
0.0
  0
LINE
  8
0
 62
     0
 10
260.164
 20
47.1082
 30
0.0
 11
261.888
 21
47.1082
 31
0.0
  0
LINE
  8
0
 62
     0
 10
261.888
 20
47.1082
 30
0.0
 11
261.888
 21
51.5772
 31
0.0
  0
LINE
  8
0
 62
     0
 10
261.888
 20
51.5772
 30
0.0
 11
263.414
 21
51.5772
 31
0.0
  0
LINE
  8
0
 62
     0
 10
263.414
 20
51.5772
 30
0.0
 11
263.414
 21
46.8768
 31
0.0
  0
LINE
  8
0
 62
     0
 10
263.414
 20
46.8768
 30
0.0
 11
277.413
 21
46.8768
 31
0.0
  0
LINE
  8
0
 62
     0
 10
277.413
 20
46.8768
 30
0.0
 11
277.413
 21
51.5772
 31
0.0
  0
LINE
  8
0
 62
     0
 10
277.413
 20
51.5772
 30
0.0
 11
278.938
 21
51.5772
 31
0.0
  0
LINE
  8
0
 62
     0
 10
278.938
 20
51.5772
 30
0.0
 11
278.938
 21
47.1082
 31
0.0
  0
LINE
  8
0
 62
     0
 10
278.938
 20
47.1082
 30
0.0
 11
280.664
 21
47.1082
 31
0.0
  0
LINE
  8
0
 62
     0
 10
280.664
 20
47.1082
 30
0.0
 11
280.664
 21
46.1271
 31
0.0
  0
LINE
  8
0
 62
     0
 10
280.664
 20
46.1271
 30
0.0
 11
283.964
 21
46.1271
 31
0.0
  0
LINE
  8
0
 62
     0
 10
283.964
 20
46.1271
 30
0.0
 11
283.964
 21
47.1082
 31
0.0
  0
LINE
  8
0
 62
     0
 10
283.964
 20
47.1082
 30
0.0
 11
285.688
 21
47.1082
 31
0.0
  0
LINE
  8
0
 62
     0
 10
285.688
 20
47.1082
 30
0.0
 11
285.688
 21
53.377
 31
0.0
  0
LINE
  8
0
 62
     0
 10
285.688
 20
53.377
 30
0.0
 11
286.513
 21
53.377
 31
0.0
  0
LINE
  8
0
 62
     0
 10
286.513
 20
53.377
 30
0.0
 11
286.513
 21
56.177
 31
0.0
  0
LINE
  8
0
 62
     0
 10
286.513
 20
56.177
 30
0.0
 11
285.688
 21
56.177
 31
0.0
  0
LINE
  8
0
 62
     0
 10
285.688
 20
56.177
 30
0.0
 11
285.688
 21
59.4071
 31
0.0
  0
LINE
  8
0
 62
     0
 10
285.688
 20
59.4071
 30
0.0
 11
283.964
 21
59.4071
 31
0.0
  0
LINE
  8
0
 62
     0
 10
283.964
 20
59.4071
 30
0.0
 11
283.964
 21
60.3264
 31
0.0
  0
LINE
  8
0
 62
     0
 10
283.964
 20
60.3264
 30
0.0
 11
280.664
 21
60.3264
 31
0.0
  0
LINE
  8
0
 62
     0
 10
280.664
 20
60.3264
 30
0.0
 11
280.664
 21
59.4071
 31
0.0
  0
LINE
  8
0
 62
     0
 10
280.664
 20
59.4071
 30
0.0
 11
278.938
 21
59.4071
 31
0.0
  0
LINE
  8
0
 62
     0
 10
278.938
 20
59.4071
 30
0.0
 11
278.938
 21
56.177
 31
0.0
  0
LINE
  8
0
 62
     0
 10
278.938
 20
56.177
 30
0.0
 11
277.413
 21
56.177
 31
0.0
  0
LINE
  8
0
 62
     0
 10
277.413
 20
56.177
 30
0.0
 11
277.413
 21
60.8764
 31
0.0
  0
LINE
  8
0
 62
     0
 10
277.413
 20
60.8764
 30
0.0
 11
263.414
 21
60.8764
 31
0.0
  0
LINE
  8
0
 62
     0
 10
232.457
 20
60.8764
 30
0.0
 11
246.458
 21
60.8764
 31
0.0
  0
LINE
  8
0
 62
     0
 10
246.458
 20
60.8764
 30
0.0
 11
246.458
 21
46.8768
 31
0.0
  0
LINE
  8
0
 62
     0
 10
246.458
 20
46.8768
 30
0.0
 11
232.457
 21
46.8768
 31
0.0
  0
LINE
  8
0
 62
     0
 10
232.457
 20
46.8768
 30
0.0
 11
232.457
 21
60.8764
 31
0.0
  0
LINE
  8
0
 62
     0
 10
213.407
 20
60.8764
 30
0.0
 11
227.408
 21
60.8764
 31
0.0
  0
LINE
  8
0
 62
     0
 10
227.408
 20
60.8764
 30
0.0
 11
227.408
 21
46.8768
 31
0.0
  0
LINE
  8
0
 62
     0
 10
227.408
 20
46.8768
 30
0.0
 11
213.407
 21
46.8768
 31
0.0
  0
LINE
  8
0
 62
     0
 10
213.407
 20
46.8768
 30
0.0
 11
213.407
 21
60.8764
 31
0.0
  0
LINE
  8
0
 62
     0
 10
194.357
 20
60.8764
 30
0.0
 11
208.358
 21
60.8764
 31
0.0
  0
LINE
  8
0
 62
     0
 10
208.358
 20
60.8764
 30
0.0
 11
208.358
 21
46.8768
 31
0.0
  0
LINE
  8
0
 62
     0
 10
208.358
 20
46.8768
 30
0.0
 11
194.357
 21
46.8768
 31
0.0
  0
LINE
  8
0
 62
     0
 10
194.357
 20
46.8768
 30
0.0
 11
194.357
 21
60.8764
 31
0.0
  0
LINE
  8
0
 62
     0
 10
175.307
 20
60.8764
 30
0.0
 11
189.308
 21
60.8764
 31
0.0
  0
LINE
  8
0
 62
     0
 10
189.308
 20
60.8764
 30
0.0
 11
189.308
 21
46.8768
 31
0.0
  0
LINE
  8
0
 62
     0
 10
189.308
 20
46.8768
 30
0.0
 11
175.307
 21
46.8768
 31
0.0
  0
LINE
  8
0
 62
     0
 10
175.307
 20
46.8768
 30
0.0
 11
175.307
 21
60.8764
 31
0.0
  0
LINE
  8
0
 62
     0
 10
156.257
 20
60.8764
 30
0.0
 11
170.258
 21
60.8764
 31
0.0
  0
LINE
  8
0
 62
     0
 10
170.258
 20
60.8764
 30
0.0
 11
170.258
 21
46.8768
 31
0.0
  0
LINE
  8
0
 62
     0
 10
170.258
 20
46.8768
 30
0.0
 11
156.257
 21
46.8768
 31
0.0
  0
LINE
  8
0
 62
     0
 10
156.257
 20
46.8768
 30
0.0
 11
156.257
 21
60.8764
 31
0.0
  0
LINE
  8
0
 62
     0
 10
137.207
 20
60.8764
 30
0.0
 11
151.208
 21
60.8764
 31
0.0
  0
LINE
  8
0
 62
     0
 10
151.208
 20
60.8764
 30
0.0
 11
151.208
 21
46.8768
 31
0.0
  0
LINE
  8
0
 62
     0
 10
151.208
 20
46.8768
 30
0.0
 11
137.207
 21
46.8768
 31
0.0
  0
LINE
  8
0
 62
     0
 10
137.207
 20
46.8768
 30
0.0
 11
137.207
 21
60.8764
 31
0.0
  0
LINE
  8
0
 62
     0
 10
118.157
 20
60.8764
 30
0.0
 11
132.158
 21
60.8764
 31
0.0
  0
LINE
  8
0
 62
     0
 10
132.158
 20
60.8764
 30
0.0
 11
132.158
 21
46.8768
 31
0.0
  0
LINE
  8
0
 62
     0
 10
132.158
 20
46.8768
 30
0.0
 11
118.157
 21
46.8768
 31
0.0
  0
LINE
  8
0
 62
     0
 10
118.157
 20
46.8768
 30
0.0
 11
118.157
 21
60.8764
 31
0.0
  0
LINE
  8
0
 62
     0
 10
99.1073
 20
60.8764
 30
0.0
 11
113.108
 21
60.8764
 31
0.0
  0
LINE
  8
0
 62
     0
 10
113.108
 20
60.8764
 30
0.0
 11
113.108
 21
46.8768
 31
0.0
  0
LINE
  8
0
 62
     0
 10
113.108
 20
46.8768
 30
0.0
 11
99.1073
 21
46.8768
 31
0.0
  0
LINE
  8
0
 62
     0
 10
99.1073
 20
46.8768
 30
0.0
 11
99.1073
 21
60.8764
 31
0.0
  0
LINE
  8
0
 62
     0
 10
80.0573
 20
60.8764
 30
0.0
 11
94.058
 21
60.8764
 31
0.0
  0
LINE
  8
0
 62
     0
 10
94.058
 20
60.8764
 30
0.0
 11
94.058
 21
46.8768
 31
0.0
  0
LINE
  8
0
 62
     0
 10
94.058
 20
46.8768
 30
0.0
 11
80.0573
 21
46.8768
 31
0.0
  0
LINE
  8
0
 62
     0
 10
80.0573
 20
46.8768
 30
0.0
 11
80.0573
 21
60.8764
 31
0.0
  0
LINE
  8
0
 62
     0
 10
61.0073
 20
60.8764
 30
0.0
 11
75.008
 21
60.8764
 31
0.0
  0
LINE
  8
0
 62
     0
 10
75.008
 20
60.8764
 30
0.0
 11
75.008
 21
46.8768
 31
0.0
  0
LINE
  8
0
 62
     0
 10
75.008
 20
46.8768
 30
0.0
 11
61.0073
 21
46.8768
 31
0.0
  0
LINE
  8
0
 62
     0
 10
61.0073
 20
46.8768
 30
0.0
 11
61.0073
 21
60.8764
 31
0.0
  0
LINE
  8
0
 62
     0
 10
41.9573
 20
60.8764
 30
0.0
 11
55.958
 21
60.8764
 31
0.0
  0
LINE
  8
0
 62
     0
 10
55.958
 20
60.8764
 30
0.0
 11
55.958
 21
46.8768
 31
0.0
  0
LINE
  8
0
 62
     0
 10
55.958
 20
46.8768
 30
0.0
 11
41.9573
 21
46.8768
 31
0.0
  0
LINE
  8
0
 62
     0
 10
41.9573
 20
46.8768
 30
0.0
 11
41.9573
 21
60.8764
 31
0.0
  0
LINE
  8
0
 62
     0
 10
15.7634
 20
60.8764
 30
0.0
 11
29.7629
 21
60.8764
 31
0.0
  0
LINE
  8
0
 62
     0
 10
29.7629
 20
60.8764
 30
0.0
 11
29.7629
 21
46.8768
 31
0.0
  0
LINE
  8
0
 62
     0
 10
29.7629
 20
46.8768
 30
0.0
 11
15.7634
 21
46.8768
 31
0.0
  0
LINE
  8
0
 62
     0
 10
15.7634
 20
46.8768
 30
0.0
 11
15.7634
 21
60.8764
 31
0.0
  0
LINE
  8
0
 62
     0
 10
2.75608
 20
54.9233
 30
0.0
 11
2.44878
 21
54.7673
 31
0.0
  0
LINE
  8
0
 62
     0
 10
2.44878
 20
54.7673
 30
0.0
 11
2.20486
 21
54.5236
 31
0.0
  0
LINE
  8
0
 62
     0
 10
2.20486
 20
54.5236
 30
0.0
 11
2.04914
 21
54.2163
 31
0.0
  0
LINE
  8
0
 62
     0
 10
2.04914
 20
54.2163
 30
0.0
 11
1.9954
 21
53.8773
 31
0.0
  0
LINE
  8
0
 62
     0
 10
1.9954
 20
53.8773
 30
0.0
 11
2.04914
 21
53.5368
 31
0.0
  0
LINE
  8
0
 62
     0
 10
2.04914
 20
53.5368
 30
0.0
 11
2.20486
 21
53.2296
 31
0.0
  0
LINE
  8
0
 62
     0
 10
2.20486
 20
53.2296
 30
0.0
 11
2.44878
 21
52.9869
 31
0.0
  0
LINE
  8
0
 62
     0
 10
2.44878
 20
52.9869
 30
0.0
 11
2.75608
 21
52.8313
 31
0.0
  0
LINE
  8
0
 62
     0
 10
2.75608
 20
52.8313
 30
0.0
 11
3.09507
 21
52.7763
 31
0.0
  0
LINE
  8
0
 62
     0
 10
3.09507
 20
52.7763
 30
0.0
 11
3.43407
 21
52.8313
 31
0.0
  0
LINE
  8
0
 62
     0
 10
3.43407
 20
52.8313
 30
0.0
 11
3.74138
 21
52.9869
 31
0.0
  0
LINE
  8
0
 62
     0
 10
3.74138
 20
52.9869
 30
0.0
 11
3.98392
 21
53.2296
 31
0.0
  0
LINE
  8
0
 62
     0
 10
3.98392
 20
53.2296
 30
0.0
 11
4.14101
 21
53.5368
 31
0.0
  0
LINE
  8
0
 62
     0
 10
4.14101
 20
53.5368
 30
0.0
 11
4.19612
 21
53.8773
 31
0.0
  0
LINE
  8
0
 62
     0
 10
4.19612
 20
53.8773
 30
0.0
 11
4.14101
 21
54.2163
 31
0.0
  0
LINE
  8
0
 62
     0
 10
4.14101
 20
54.2163
 30
0.0
 11
3.98392
 21
54.5236
 31
0.0
  0
LINE
  8
0
 62
     0
 10
3.98392
 20
54.5236
 30
0.0
 11
3.74138
 21
54.7673
 31
0.0
  0
LINE
  8
0
 62
     0
 10
3.74138
 20
54.7673
 30
0.0
 11
3.43407
 21
54.9233
 31
0.0
  0
LINE
  8
0
 62
     0
 10
3.43407
 20
54.9233
 30
0.0
 11
3.09507
 21
54.9769
 31
0.0
  0
LINE
  8
0
 62
     0
 10
3.09507
 20
54.9769
 30
0.0
 11
2.75608
 21
54.9233
 31
0.0
  0
LINE
  8
0
 62
     0
 10
294.506
 20
54.9233
 30
0.0
 11
294.2
 21
54.7673
 31
0.0
  0
LINE
  8
0
 62
     0
 10
294.2
 20
54.7673
 30
0.0
 11
293.956
 21
54.5236
 31
0.0
  0
LINE
  8
0
 62
     0
 10
293.956
 20
54.5236
 30
0.0
 11
293.799
 21
54.2163
 31
0.0
  0
LINE
  8
0
 62
     0
 10
293.799
 20
54.2163
 30
0.0
 11
293.747
 21
53.8773
 31
0.0
  0
LINE
  8
0
 62
     0
 10
293.747
 20
53.8773
 30
0.0
 11
293.799
 21
53.5368
 31
0.0
  0
LINE
  8
0
 62
     0
 10
293.799
 20
53.5368
 30
0.0
 11
293.956
 21
53.2296
 31
0.0
  0
LINE
  8
0
 62
     0
 10
293.956
 20
53.2296
 30
0.0
 11
294.2
 21
52.9869
 31
0.0
  0
LINE
  8
0
 62
     0
 10
294.2
 20
52.9869
 30
0.0
 11
294.506
 21
52.8313
 31
0.0
  0
LINE
  8
0
 62
     0
 10
294.506
 20
52.8313
 30
0.0
 11
294.846
 21
52.7763
 31
0.0
  0
LINE
  8
0
 62
     0
 10
294.846
 20
52.7763
 30
0.0
 11
295.185
 21
52.8313
 31
0.0
  0
LINE
  8
0
 62
     0
 10
295.185
 20
52.8313
 30
0.0
 11
295.493
 21
52.9869
 31
0.0
  0
LINE
  8
0
 62
     0
 10
295.493
 20
52.9869
 30
0.0
 11
295.735
 21
53.2296
 31
0.0
  0
LINE
  8
0
 62
     0
 10
295.735
 20
53.2296
 30
0.0
 11
295.892
 21
53.5368
 31
0.0
  0
LINE
  8
0
 62
     0
 10
295.892
 20
53.5368
 30
0.0
 11
295.946
 21
53.8773
 31
0.0
  0
LINE
  8
0
 62
     0
 10
295.946
 20
53.8773
 30
0.0
 11
295.892
 21
54.2163
 31
0.0
  0
LINE
  8
0
 62
     0
 10
295.892
 20
54.2163
 30
0.0
 11
295.735
 21
54.5236
 31
0.0
  0
LINE
  8
0
 62
     0
 10
295.735
 20
54.5236
 30
0.0
 11
295.493
 21
54.7673
 31
0.0
  0
LINE
  8
0
 62
     0
 10
295.493
 20
54.7673
 30
0.0
 11
295.185
 21
54.9233
 31
0.0
  0
LINE
  8
0
 62
     0
 10
295.185
 20
54.9233
 30
0.0
 11
294.846
 21
54.9769
 31
0.0
  0
LINE
  8
0
 62
     0
 10
294.846
 20
54.9769
 30
0.0
 11
294.506
 21
54.9233
 31
0.0
  0
LINE
  8
0
 62
     0
 10
270.557
 20
79.9264
 30
0.0
 11
284.558
 21
79.9264
 31
0.0
  0
LINE
  8
0
 62
     0
 10
284.558
 20
79.9264
 30
0.0
 11
284.558
 21
65.9268
 31
0.0
  0
LINE
  8
0
 62
     0
 10
284.558
 20
65.9268
 30
0.0
 11
270.557
 21
65.9268
 31
0.0
  0
LINE
  8
0
 62
     0
 10
270.557
 20
65.9268
 30
0.0
 11
270.557
 21
79.9264
 31
0.0
  0
LINE
  8
0
 62
     0
 10
246.746
 20
79.9264
 30
0.0
 11
260.745
 21
79.9264
 31
0.0
  0
LINE
  8
0
 62
     0
 10
260.745
 20
79.9264
 30
0.0
 11
260.745
 21
65.9268
 31
0.0
  0
LINE
  8
0
 62
     0
 10
260.745
 20
65.9268
 30
0.0
 11
246.746
 21
65.9268
 31
0.0
  0
LINE
  8
0
 62
     0
 10
246.746
 20
65.9268
 30
0.0
 11
246.746
 21
79.9264
 31
0.0
  0
LINE
  8
0
 62
     0
 10
227.696
 20
79.9264
 30
0.0
 11
241.695
 21
79.9264
 31
0.0
  0
LINE
  8
0
 62
     0
 10
241.695
 20
79.9264
 30
0.0
 11
241.695
 21
65.9268
 31
0.0
  0
LINE
  8
0
 62
     0
 10
241.695
 20
65.9268
 30
0.0
 11
227.696
 21
65.9268
 31
0.0
  0
LINE
  8
0
 62
     0
 10
227.696
 20
65.9268
 30
0.0
 11
227.696
 21
79.9264
 31
0.0
  0
LINE
  8
0
 62
     0
 10
208.646
 20
79.9264
 30
0.0
 11
222.645
 21
79.9264
 31
0.0
  0
LINE
  8
0
 62
     0
 10
222.645
 20
79.9264
 30
0.0
 11
222.645
 21
65.9268
 31
0.0
  0
LINE
  8
0
 62
     0
 10
222.645
 20
65.9268
 30
0.0
 11
208.646
 21
65.9268
 31
0.0
  0
LINE
  8
0
 62
     0
 10
208.646
 20
65.9268
 30
0.0
 11
208.646
 21
79.9264
 31
0.0
  0
LINE
  8
0
 62
     0
 10
189.596
 20
79.9264
 30
0.0
 11
203.595
 21
79.9264
 31
0.0
  0
LINE
  8
0
 62
     0
 10
203.595
 20
79.9264
 30
0.0
 11
203.595
 21
65.9268
 31
0.0
  0
LINE
  8
0
 62
     0
 10
203.595
 20
65.9268
 30
0.0
 11
189.596
 21
65.9268
 31
0.0
  0
LINE
  8
0
 62
     0
 10
189.596
 20
65.9268
 30
0.0
 11
189.596
 21
79.9264
 31
0.0
  0
LINE
  8
0
 62
     0
 10
170.546
 20
79.9264
 30
0.0
 11
184.545
 21
79.9264
 31
0.0
  0
LINE
  8
0
 62
     0
 10
184.545
 20
79.9264
 30
0.0
 11
184.545
 21
65.9268
 31
0.0
  0
LINE
  8
0
 62
     0
 10
184.545
 20
65.9268
 30
0.0
 11
170.546
 21
65.9268
 31
0.0
  0
LINE
  8
0
 62
     0
 10
170.546
 20
65.9268
 30
0.0
 11
170.546
 21
79.9264
 31
0.0
  0
LINE
  8
0
 62
     0
 10
151.496
 20
79.9264
 30
0.0
 11
165.495
 21
79.9264
 31
0.0
  0
LINE
  8
0
 62
     0
 10
165.495
 20
79.9264
 30
0.0
 11
165.495
 21
65.9268
 31
0.0
  0
LINE
  8
0
 62
     0
 10
165.495
 20
65.9268
 30
0.0
 11
151.496
 21
65.9268
 31
0.0
  0
LINE
  8
0
 62
     0
 10
151.496
 20
65.9268
 30
0.0
 11
151.496
 21
79.9264
 31
0.0
  0
LINE
  8
0
 62
     0
 10
132.446
 20
79.9264
 30
0.0
 11
146.445
 21
79.9264
 31
0.0
  0
LINE
  8
0
 62
     0
 10
146.445
 20
79.9264
 30
0.0
 11
146.445
 21
65.9268
 31
0.0
  0
LINE
  8
0
 62
     0
 10
146.445
 20
65.9268
 30
0.0
 11
132.446
 21
65.9268
 31
0.0
  0
LINE
  8
0
 62
     0
 10
132.446
 20
65.9268
 30
0.0
 11
132.446
 21
79.9264
 31
0.0
  0
LINE
  8
0
 62
     0
 10
113.396
 20
79.9264
 30
0.0
 11
127.395
 21
79.9264
 31
0.0
  0
LINE
  8
0
 62
     0
 10
127.395
 20
79.9264
 30
0.0
 11
127.395
 21
65.9268
 31
0.0
  0
LINE
  8
0
 62
     0
 10
127.395
 20
65.9268
 30
0.0
 11
113.396
 21
65.9268
 31
0.0
  0
LINE
  8
0
 62
     0
 10
113.396
 20
65.9268
 30
0.0
 11
113.396
 21
79.9264
 31
0.0
  0
LINE
  8
0
 62
     0
 10
94.3462
 20
79.9264
 30
0.0
 11
108.345
 21
79.9264
 31
0.0
  0
LINE
  8
0
 62
     0
 10
108.345
 20
79.9264
 30
0.0
 11
108.345
 21
65.9268
 31
0.0
  0
LINE
  8
0
 62
     0
 10
108.345
 20
65.9268
 30
0.0
 11
94.3462
 21
65.9268
 31
0.0
  0
LINE
  8
0
 62
     0
 10
94.3462
 20
65.9268
 30
0.0
 11
94.3462
 21
79.9264
 31
0.0
  0
LINE
  8
0
 62
     0
 10
75.2962
 20
79.9264
 30
0.0
 11
89.2955
 21
79.9264
 31
0.0
  0
LINE
  8
0
 62
     0
 10
89.2955
 20
79.9264
 30
0.0
 11
89.2955
 21
65.9268
 31
0.0
  0
LINE
  8
0
 62
     0
 10
89.2955
 20
65.9268
 30
0.0
 11
75.2962
 21
65.9268
 31
0.0
  0
LINE
  8
0
 62
     0
 10
75.2962
 20
65.9268
 30
0.0
 11
75.2962
 21
79.9264
 31
0.0
  0
LINE
  8
0
 62
     0
 10
56.2462
 20
79.9264
 30
0.0
 11
70.2455
 21
79.9264
 31
0.0
  0
LINE
  8
0
 62
     0
 10
70.2455
 20
79.9264
 30
0.0
 11
70.2455
 21
65.9268
 31
0.0
  0
LINE
  8
0
 62
     0
 10
70.2455
 20
65.9268
 30
0.0
 11
56.2462
 21
65.9268
 31
0.0
  0
LINE
  8
0
 62
     0
 10
56.2462
 20
65.9268
 30
0.0
 11
56.2462
 21
79.9264
 31
0.0
  0
LINE
  8
0
 62
     0
 10
37.1962
 20
79.9264
 30
0.0
 11
51.1955
 21
79.9264
 31
0.0
  0
LINE
  8
0
 62
     0
 10
51.1955
 20
79.9264
 30
0.0
 11
51.1955
 21
65.9268
 31
0.0
  0
LINE
  8
0
 62
     0
 10
51.1955
 20
65.9268
 30
0.0
 11
37.1962
 21
65.9268
 31
0.0
  0
LINE
  8
0
 62
     0
 10
37.1962
 20
65.9268
 30
0.0
 11
37.1962
 21
79.9264
 31
0.0
  0
LINE
  8
0
 62
     0
 10
13.3821
 20
79.9264
 30
0.0
 11
27.383
 21
79.9264
 31
0.0
  0
LINE
  8
0
 62
     0
 10
27.383
 20
79.9264
 30
0.0
 11
27.383
 21
65.9268
 31
0.0
  0
LINE
  8
0
 62
     0
 10
27.383
 20
65.9268
 30
0.0
 11
13.3821
 21
65.9268
 31
0.0
  0
LINE
  8
0
 62
     0
 10
13.3821
 20
65.9268
 30
0.0
 11
13.3821
 21
79.9264
 31
0.0
  0
LINE
  8
0
 62
     0
 10
265.796
 20
98.9775
 30
0.0
 11
265.796
 21
94.277
 31
0.0
  0
LINE
  8
0
 62
     0
 10
265.796
 20
94.277
 30
0.0
 11
264.27
 21
94.277
 31
0.0
  0
LINE
  8
0
 62
     0
 10
264.27
 20
94.277
 30
0.0
 11
264.27
 21
97.5071
 31
0.0
  0
LINE
  8
0
 62
     0
 10
264.27
 20
97.5071
 30
0.0
 11
262.545
 21
97.5071
 31
0.0
  0
LINE
  8
0
 62
     0
 10
262.545
 20
97.5071
 30
0.0
 11
262.545
 21
98.4264
 31
0.0
  0
LINE
  8
0
 62
     0
 10
262.545
 20
98.4264
 30
0.0
 11
259.245
 21
98.4264
 31
0.0
  0
LINE
  8
0
 62
     0
 10
259.245
 20
98.4264
 30
0.0
 11
259.245
 21
97.5071
 31
0.0
  0
LINE
  8
0
 62
     0
 10
259.245
 20
97.5071
 30
0.0
 11
257.521
 21
97.5071
 31
0.0
  0
LINE
  8
0
 62
     0
 10
257.521
 20
97.5071
 30
0.0
 11
257.521
 21
94.277
 31
0.0
  0
LINE
  8
0
 62
     0
 10
257.521
 20
94.277
 30
0.0
 11
256.696
 21
94.277
 31
0.0
  0
LINE
  8
0
 62
     0
 10
256.696
 20
94.277
 30
0.0
 11
256.696
 21
91.477
 31
0.0
  0
LINE
  8
0
 62
     0
 10
256.696
 20
91.477
 30
0.0
 11
257.521
 21
91.477
 31
0.0
  0
LINE
  8
0
 62
     0
 10
257.521
 20
91.477
 30
0.0
 11
257.521
 21
85.2082
 31
0.0
  0
LINE
  8
0
 62
     0
 10
257.521
 20
85.2082
 30
0.0
 11
259.245
 21
85.2082
 31
0.0
  0
LINE
  8
0
 62
     0
 10
259.245
 20
85.2082
 30
0.0
 11
259.245
 21
84.2271
 31
0.0
  0
LINE
  8
0
 62
     0
 10
259.245
 20
84.2271
 30
0.0
 11
262.545
 21
84.2271
 31
0.0
  0
LINE
  8
0
 62
     0
 10
262.545
 20
84.2271
 30
0.0
 11
262.545
 21
85.2082
 31
0.0
  0
LINE
  8
0
 62
     0
 10
262.545
 20
85.2082
 30
0.0
 11
264.27
 21
85.2082
 31
0.0
  0
LINE
  8
0
 62
     0
 10
264.27
 20
85.2082
 30
0.0
 11
264.27
 21
89.6772
 31
0.0
  0
LINE
  8
0
 62
     0
 10
264.27
 20
89.6772
 30
0.0
 11
265.796
 21
89.6772
 31
0.0
  0
LINE
  8
0
 62
     0
 10
265.796
 20
89.6772
 30
0.0
 11
265.796
 21
84.9768
 31
0.0
  0
LINE
  8
0
 62
     0
 10
265.796
 20
84.9768
 30
0.0
 11
279.795
 21
84.9768
 31
0.0
  0
LINE
  8
0
 62
     0
 10
279.795
 20
84.9768
 30
0.0
 11
279.795
 21
89.6772
 31
0.0
  0
LINE
  8
0
 62
     0
 10
279.795
 20
89.6772
 30
0.0
 11
281.321
 21
89.6772
 31
0.0
  0
LINE
  8
0
 62
     0
 10
281.321
 20
89.6772
 30
0.0
 11
281.321
 21
85.2082
 31
0.0
  0
LINE
  8
0
 62
     0
 10
281.321
 20
85.2082
 30
0.0
 11
283.045
 21
85.2082
 31
0.0
  0
LINE
  8
0
 62
     0
 10
283.045
 20
85.2082
 30
0.0
 11
283.045
 21
84.2271
 31
0.0
  0
LINE
  8
0
 62
     0
 10
283.045
 20
84.2271
 30
0.0
 11
286.345
 21
84.2271
 31
0.0
  0
LINE
  8
0
 62
     0
 10
286.345
 20
84.2271
 30
0.0
 11
286.345
 21
85.2082
 31
0.0
  0
LINE
  8
0
 62
     0
 10
286.345
 20
85.2082
 30
0.0
 11
288.071
 21
85.2082
 31
0.0
  0
LINE
  8
0
 62
     0
 10
288.071
 20
85.2082
 30
0.0
 11
288.071
 21
91.477
 31
0.0
  0
LINE
  8
0
 62
     0
 10
288.071
 20
91.477
 30
0.0
 11
288.896
 21
91.477
 31
0.0
  0
LINE
  8
0
 62
     0
 10
288.896
 20
91.477
 30
0.0
 11
288.896
 21
94.277
 31
0.0
  0
LINE
  8
0
 62
     0
 10
288.896
 20
94.277
 30
0.0
 11
288.071
 21
94.277
 31
0.0
  0
LINE
  8
0
 62
     0
 10
288.071
 20
94.277
 30
0.0
 11
288.071
 21
97.5071
 31
0.0
  0
LINE
  8
0
 62
     0
 10
288.071
 20
97.5071
 30
0.0
 11
286.345
 21
97.5071
 31
0.0
  0
LINE
  8
0
 62
     0
 10
286.345
 20
97.5071
 30
0.0
 11
286.345
 21
98.4264
 31
0.0
  0
LINE
  8
0
 62
     0
 10
286.345
 20
98.4264
 30
0.0
 11
283.045
 21
98.4264
 31
0.0
  0
LINE
  8
0
 62
     0
 10
283.045
 20
98.4264
 30
0.0
 11
283.045
 21
97.5071
 31
0.0
  0
LINE
  8
0
 62
     0
 10
283.045
 20
97.5071
 30
0.0
 11
281.321
 21
97.5071
 31
0.0
  0
LINE
  8
0
 62
     0
 10
281.321
 20
97.5071
 30
0.0
 11
281.321
 21
94.277
 31
0.0
  0
LINE
  8
0
 62
     0
 10
281.321
 20
94.277
 30
0.0
 11
279.795
 21
94.277
 31
0.0
  0
LINE
  8
0
 62
     0
 10
279.795
 20
94.277
 30
0.0
 11
279.795
 21
98.9775
 31
0.0
  0
LINE
  8
0
 62
     0
 10
279.795
 20
98.9775
 30
0.0
 11
265.796
 21
98.9775
 31
0.0
  0
LINE
  8
0
 62
     0
 10
237.221
 20
98.9775
 30
0.0
 11
251.22
 21
98.9775
 31
0.0
  0
LINE
  8
0
 62
     0
 10
251.22
 20
98.9775
 30
0.0
 11
251.22
 21
84.9768
 31
0.0
  0
LINE
  8
0
 62
     0
 10
251.22
 20
84.9768
 30
0.0
 11
237.221
 21
84.9768
 31
0.0
  0
LINE
  8
0
 62
     0
 10
237.221
 20
84.9768
 30
0.0
 11
237.221
 21
98.9775
 31
0.0
  0
LINE
  8
0
 62
     0
 10
218.171
 20
98.9775
 30
0.0
 11
232.17
 21
98.9775
 31
0.0
  0
LINE
  8
0
 62
     0
 10
232.17
 20
98.9775
 30
0.0
 11
232.17
 21
84.9768
 31
0.0
  0
LINE
  8
0
 62
     0
 10
232.17
 20
84.9768
 30
0.0
 11
218.171
 21
84.9768
 31
0.0
  0
LINE
  8
0
 62
     0
 10
218.171
 20
84.9768
 30
0.0
 11
218.171
 21
98.9775
 31
0.0
  0
LINE
  8
0
 62
     0
 10
199.121
 20
98.9775
 30
0.0
 11
213.12
 21
98.9775
 31
0.0
  0
LINE
  8
0
 62
     0
 10
213.12
 20
98.9775
 30
0.0
 11
213.12
 21
84.9768
 31
0.0
  0
LINE
  8
0
 62
     0
 10
213.12
 20
84.9768
 30
0.0
 11
199.121
 21
84.9768
 31
0.0
  0
LINE
  8
0
 62
     0
 10
199.121
 20
84.9768
 30
0.0
 11
199.121
 21
98.9775
 31
0.0
  0
LINE
  8
0
 62
     0
 10
180.071
 20
98.9775
 30
0.0
 11
194.07
 21
98.9775
 31
0.0
  0
LINE
  8
0
 62
     0
 10
194.07
 20
98.9775
 30
0.0
 11
194.07
 21
84.9768
 31
0.0
  0
LINE
  8
0
 62
     0
 10
194.07
 20
84.9768
 30
0.0
 11
180.071
 21
84.9768
 31
0.0
  0
LINE
  8
0
 62
     0
 10
180.071
 20
84.9768
 30
0.0
 11
180.071
 21
98.9775
 31
0.0
  0
LINE
  8
0
 62
     0
 10
161.021
 20
98.9775
 30
0.0
 11
175.02
 21
98.9775
 31
0.0
  0
LINE
  8
0
 62
     0
 10
175.02
 20
98.9775
 30
0.0
 11
175.02
 21
84.9768
 31
0.0
  0
LINE
  8
0
 62
     0
 10
175.02
 20
84.9768
 30
0.0
 11
161.021
 21
84.9768
 31
0.0
  0
LINE
  8
0
 62
     0
 10
161.021
 20
84.9768
 30
0.0
 11
161.021
 21
98.9775
 31
0.0
  0
LINE
  8
0
 62
     0
 10
141.971
 20
98.9775
 30
0.0
 11
155.97
 21
98.9775
 31
0.0
  0
LINE
  8
0
 62
     0
 10
155.97
 20
98.9775
 30
0.0
 11
155.97
 21
84.9768
 31
0.0
  0
LINE
  8
0
 62
     0
 10
155.97
 20
84.9768
 30
0.0
 11
141.971
 21
84.9768
 31
0.0
  0
LINE
  8
0
 62
     0
 10
141.971
 20
84.9768
 30
0.0
 11
141.971
 21
98.9775
 31
0.0
  0
LINE
  8
0
 62
     0
 10
122.92
 20
98.9775
 30
0.0
 11
136.92
 21
98.9775
 31
0.0
  0
LINE
  8
0
 62
     0
 10
136.92
 20
98.9775
 30
0.0
 11
136.92
 21
84.9768
 31
0.0
  0
LINE
  8
0
 62
     0
 10
136.92
 20
84.9768
 30
0.0
 11
122.92
 21
84.9768
 31
0.0
  0
LINE
  8
0
 62
     0
 10
122.92
 20
84.9768
 30
0.0
 11
122.92
 21
98.9775
 31
0.0
  0
LINE
  8
0
 62
     0
 10
103.87
 20
98.9775
 30
0.0
 11
117.869
 21
98.9775
 31
0.0
  0
LINE
  8
0
 62
     0
 10
117.869
 20
98.9775
 30
0.0
 11
117.869
 21
84.9768
 31
0.0
  0
LINE
  8
0
 62
     0
 10
117.869
 20
84.9768
 30
0.0
 11
103.87
 21
84.9768
 31
0.0
  0
LINE
  8
0
 62
     0
 10
103.87
 20
84.9768
 30
0.0
 11
103.87
 21
98.9775
 31
0.0
  0
LINE
  8
0
 62
     0
 10
84.8212
 20
98.9775
 30
0.0
 11
98.8205
 21
98.9775
 31
0.0
  0
LINE
  8
0
 62
     0
 10
98.8205
 20
98.9775
 30
0.0
 11
98.8205
 21
84.9768
 31
0.0
  0
LINE
  8
0
 62
     0
 10
98.8205
 20
84.9768
 30
0.0
 11
84.8212
 21
84.9768
 31
0.0
  0
LINE
  8
0
 62
     0
 10
84.8212
 20
84.9768
 30
0.0
 11
84.8212
 21
98.9775
 31
0.0
  0
LINE
  8
0
 62
     0
 10
65.7712
 20
98.9775
 30
0.0
 11
79.7705
 21
98.9775
 31
0.0
  0
LINE
  8
0
 62
     0
 10
79.7705
 20
98.9775
 30
0.0
 11
79.7705
 21
84.9768
 31
0.0
  0
LINE
  8
0
 62
     0
 10
79.7705
 20
84.9768
 30
0.0
 11
65.7712
 21
84.9768
 31
0.0
  0
LINE
  8
0
 62
     0
 10
65.7712
 20
84.9768
 30
0.0
 11
65.7712
 21
98.9775
 31
0.0
  0
LINE
  8
0
 62
     0
 10
46.7212
 20
98.9775
 30
0.0
 11
60.7205
 21
98.9775
 31
0.0
  0
LINE
  8
0
 62
     0
 10
60.7205
 20
98.9775
 30
0.0
 11
60.7205
 21
84.9768
 31
0.0
  0
LINE
  8
0
 62
     0
 10
60.7205
 20
84.9768
 30
0.0
 11
46.7212
 21
84.9768
 31
0.0
  0
LINE
  8
0
 62
     0
 10
46.7212
 20
84.9768
 30
0.0
 11
46.7212
 21
98.9775
 31
0.0
  0
LINE
  8
0
 62
     0
 10
27.671
 20
98.9775
 30
0.0
 11
41.6705
 21
98.9775
 31
0.0
  0
LINE
  8
0
 62
     0
 10
41.6705
 20
98.9775
 30
0.0
 11
41.6705
 21
84.9768
 31
0.0
  0
LINE
  8
0
 62
     0
 10
41.6705
 20
84.9768
 30
0.0
 11
27.671
 21
84.9768
 31
0.0
  0
LINE
  8
0
 62
     0
 10
27.671
 20
84.9768
 30
0.0
 11
27.671
 21
98.9775
 31
0.0
  0
LINE
  8
0
 62
     0
 10
8.61963
 20
98.9775
 30
0.0
 11
22.6205
 21
98.9775
 31
0.0
  0
LINE
  8
0
 62
     0
 10
22.6205
 20
98.9775
 30
0.0
 11
22.6205
 21
84.9768
 31
0.0
  0
LINE
  8
0
 62
     0
 10
22.6205
 20
84.9768
 30
0.0
 11
8.61963
 21
84.9768
 31
0.0
  0
LINE
  8
0
 62
     0
 10
8.61963
 20
84.9768
 30
0.0
 11
8.61963
 21
98.9775
 31
0.0
  0
LINE
  8
0
 62
     0
 10
2.75608
 20
105.548
 30
0.0
 11
2.44878
 21
105.392
 31
0.0
  0
LINE
  8
0
 62
     0
 10
2.44878
 20
105.392
 30
0.0
 11
2.20486
 21
105.149
 31
0.0
  0
LINE
  8
0
 62
     0
 10
2.20486
 20
105.149
 30
0.0
 11
2.04914
 21
104.841
 31
0.0
  0
LINE
  8
0
 62
     0
 10
2.04914
 20
104.841
 30
0.0
 11
1.9954
 21
104.502
 31
0.0
  0
LINE
  8
0
 62
     0
 10
1.9954
 20
104.502
 30
0.0
 11
2.04914
 21
104.163
 31
0.0
  0
LINE
  8
0
 62
     0
 10
2.04914
 20
104.163
 30
0.0
 11
2.20486
 21
103.856
 31
0.0
  0
LINE
  8
0
 62
     0
 10
2.20486
 20
103.856
 30
0.0
 11
2.44878
 21
103.613
 31
0.0
  0
LINE
  8
0
 62
     0
 10
2.44878
 20
103.613
 30
0.0
 11
2.75608
 21
103.456
 31
0.0
  0
LINE
  8
0
 62
     0
 10
2.75608
 20
103.456
 30
0.0
 11
3.09507
 21
103.401
 31
0.0
  0
LINE
  8
0
 62
     0
 10
3.09507
 20
103.401
 30
0.0
 11
3.43407
 21
103.456
 31
0.0
  0
LINE
  8
0
 62
     0
 10
3.43407
 20
103.456
 30
0.0
 11
3.74138
 21
103.613
 31
0.0
  0
LINE
  8
0
 62
     0
 10
3.74138
 20
103.613
 30
0.0
 11
3.98392
 21
103.856
 31
0.0
  0
LINE
  8
0
 62
     0
 10
3.98392
 20
103.856
 30
0.0
 11
4.14101
 21
104.163
 31
0.0
  0
LINE
  8
0
 62
     0
 10
4.14101
 20
104.163
 30
0.0
 11
4.19612
 21
104.502
 31
0.0
  0
LINE
  8
0
 62
     0
 10
4.19612
 20
104.502
 30
0.0
 11
4.14101
 21
104.841
 31
0.0
  0
LINE
  8
0
 62
     0
 10
4.14101
 20
104.841
 30
0.0
 11
3.98392
 21
105.149
 31
0.0
  0
LINE
  8
0
 62
     0
 10
3.98392
 20
105.149
 30
0.0
 11
3.74138
 21
105.392
 31
0.0
  0
LINE
  8
0
 62
     0
 10
3.74138
 20
105.392
 30
0.0
 11
3.43407
 21
105.548
 31
0.0
  0
LINE
  8
0
 62
     0
 10
3.43407
 20
105.548
 30
0.0
 11
3.09507
 21
105.602
 31
0.0
  0
LINE
  8
0
 62
     0
 10
3.09507
 20
105.602
 30
0.0
 11
2.75608
 21
105.548
 31
0.0
  0
LINE
  8
0
 62
     0
 10
294.506
 20
105.548
 30
0.0
 11
294.2
 21
105.392
 31
0.0
  0
LINE
  8
0
 62
     0
 10
294.2
 20
105.392
 30
0.0
 11
293.956
 21
105.149
 31
0.0
  0
LINE
  8
0
 62
     0
 10
293.956
 20
105.149
 30
0.0
 11
293.799
 21
104.841
 31
0.0
  0
LINE
  8
0
 62
     0
 10
293.799
 20
104.841
 30
0.0
 11
293.747
 21
104.502
 31
0.0
  0
LINE
  8
0
 62
     0
 10
293.747
 20
104.502
 30
0.0
 11
293.799
 21
104.163
 31
0.0
  0
LINE
  8
0
 62
     0
 10
293.799
 20
104.163
 30
0.0
 11
293.956
 21
103.856
 31
0.0
  0
LINE
  8
0
 62
     0
 10
293.956
 20
103.856
 30
0.0
 11
294.2
 21
103.613
 31
0.0
  0
LINE
  8
0
 62
     0
 10
294.2
 20
103.613
 30
0.0
 11
294.506
 21
103.456
 31
0.0
  0
LINE
  8
0
 62
     0
 10
294.506
 20
103.456
 30
0.0
 11
294.846
 21
103.401
 31
0.0
  0
LINE
  8
0
 62
     0
 10
294.846
 20
103.401
 30
0.0
 11
295.185
 21
103.456
 31
0.0
  0
LINE
  8
0
 62
     0
 10
295.185
 20
103.456
 30
0.0
 11
295.493
 21
103.613
 31
0.0
  0
LINE
  8
0
 62
     0
 10
295.493
 20
103.613
 30
0.0
 11
295.735
 21
103.856
 31
0.0
  0
LINE
  8
0
 62
     0
 10
295.735
 20
103.856
 30
0.0
 11
295.892
 21
104.163
 31
0.0
  0
LINE
  8
0
 62
     0
 10
295.892
 20
104.163
 30
0.0
 11
295.946
 21
104.502
 31
0.0
  0
LINE
  8
0
 62
     0
 10
295.946
 20
104.502
 30
0.0
 11
295.892
 21
104.841
 31
0.0
  0
LINE
  8
0
 62
     0
 10
295.892
 20
104.841
 30
0.0
 11
295.735
 21
105.149
 31
0.0
  0
LINE
  8
0
 62
     0
 10
295.735
 20
105.149
 30
0.0
 11
295.493
 21
105.392
 31
0.0
  0
LINE
  8
0
 62
     0
 10
295.493
 20
105.392
 30
0.0
 11
295.185
 21
105.548
 31
0.0
  0
LINE
  8
0
 62
     0
 10
295.185
 20
105.548
 30
0.0
 11
294.846
 21
105.602
 31
0.0
  0
LINE
  8
0
 62
     0
 10
294.846
 20
105.602
 30
0.0
 11
294.506
 21
105.548
 31
0.0
  0
LINE
  8
0
 62
     0
 10
221.568
 20
105.548
 30
0.0
 11
221.262
 21
105.392
 31
0.0
  0
LINE
  8
0
 62
     0
 10
221.262
 20
105.392
 30
0.0
 11
221.018
 21
105.149
 31
0.0
  0
LINE
  8
0
 62
     0
 10
221.018
 20
105.149
 30
0.0
 11
220.862
 21
104.841
 31
0.0
  0
LINE
  8
0
 62
     0
 10
220.862
 20
104.841
 30
0.0
 11
220.809
 21
104.502
 31
0.0
  0
LINE
  8
0
 62
     0
 10
220.809
 20
104.502
 30
0.0
 11
220.862
 21
104.163
 31
0.0
  0
LINE
  8
0
 62
     0
 10
220.862
 20
104.163
 30
0.0
 11
221.018
 21
103.856
 31
0.0
  0
LINE
  8
0
 62
     0
 10
221.018
 20
103.856
 30
0.0
 11
221.262
 21
103.613
 31
0.0
  0
LINE
  8
0
 62
     0
 10
221.262
 20
103.613
 30
0.0
 11
221.568
 21
103.456
 31
0.0
  0
LINE
  8
0
 62
     0
 10
221.568
 20
103.456
 30
0.0
 11
221.908
 21
103.401
 31
0.0
  0
LINE
  8
0
 62
     0
 10
221.908
 20
103.401
 30
0.0
 11
222.249
 21
103.456
 31
0.0
  0
LINE
  8
0
 62
     0
 10
222.249
 20
103.456
 30
0.0
 11
222.554
 21
103.613
 31
0.0
  0
LINE
  8
0
 62
     0
 10
222.554
 20
103.613
 30
0.0
 11
222.799
 21
103.856
 31
0.0
  0
LINE
  8
0
 62
     0
 10
222.799
 20
103.856
 30
0.0
 11
222.954
 21
104.163
 31
0.0
  0
LINE
  8
0
 62
     0
 10
222.954
 20
104.163
 30
0.0
 11
223.008
 21
104.502
 31
0.0
  0
LINE
  8
0
 62
     0
 10
223.008
 20
104.502
 30
0.0
 11
222.954
 21
104.841
 31
0.0
  0
LINE
  8
0
 62
     0
 10
222.954
 20
104.841
 30
0.0
 11
222.799
 21
105.149
 31
0.0
  0
LINE
  8
0
 62
     0
 10
222.799
 20
105.149
 30
0.0
 11
222.554
 21
105.392
 31
0.0
  0
LINE
  8
0
 62
     0
 10
222.554
 20
105.392
 30
0.0
 11
222.249
 21
105.548
 31
0.0
  0
LINE
  8
0
 62
     0
 10
222.249
 20
105.548
 30
0.0
 11
221.908
 21
105.602
 31
0.0
  0
LINE
  8
0
 62
     0
 10
221.908
 20
105.602
 30
0.0
 11
221.568
 21
105.548
 31
0.0
  0
LINE
  8
0
 62
     0
 10
148.631
 20
105.548
 30
0.0
 11
148.324
 21
105.392
 31
0.0
  0
LINE
  8
0
 62
     0
 10
148.324
 20
105.392
 30
0.0
 11
148.08
 21
105.149
 31
0.0
  0
LINE
  8
0
 62
     0
 10
148.08
 20
105.149
 30
0.0
 11
147.924
 21
104.841
 31
0.0
  0
LINE
  8
0
 62
     0
 10
147.924
 20
104.841
 30
0.0
 11
147.87
 21
104.502
 31
0.0
  0
LINE
  8
0
 62
     0
 10
147.87
 20
104.502
 30
0.0
 11
147.924
 21
104.163
 31
0.0
  0
LINE
  8
0
 62
     0
 10
147.924
 20
104.163
 30
0.0
 11
148.08
 21
103.856
 31
0.0
  0
LINE
  8
0
 62
     0
 10
148.08
 20
103.856
 30
0.0
 11
148.324
 21
103.613
 31
0.0
  0
LINE
  8
0
 62
     0
 10
148.324
 20
103.613
 30
0.0
 11
148.631
 21
103.456
 31
0.0
  0
LINE
  8
0
 62
     0
 10
148.631
 20
103.456
 30
0.0
 11
148.97
 21
103.401
 31
0.0
  0
LINE
  8
0
 62
     0
 10
148.97
 20
103.401
 30
0.0
 11
149.31
 21
103.456
 31
0.0
  0
LINE
  8
0
 62
     0
 10
149.31
 20
103.456
 30
0.0
 11
149.618
 21
103.613
 31
0.0
  0
LINE
  8
0
 62
     0
 10
149.618
 20
103.613
 30
0.0
 11
149.86
 21
103.856
 31
0.0
  0
LINE
  8
0
 62
     0
 10
149.86
 20
103.856
 30
0.0
 11
150.016
 21
104.163
 31
0.0
  0
LINE
  8
0
 62
     0
 10
150.016
 20
104.163
 30
0.0
 11
150.071
 21
104.502
 31
0.0
  0
LINE
  8
0
 62
     0
 10
150.071
 20
104.502
 30
0.0
 11
150.016
 21
104.841
 31
0.0
  0
LINE
  8
0
 62
     0
 10
150.016
 20
104.841
 30
0.0
 11
149.86
 21
105.149
 31
0.0
  0
LINE
  8
0
 62
     0
 10
149.86
 20
105.149
 30
0.0
 11
149.618
 21
105.392
 31
0.0
  0
LINE
  8
0
 62
     0
 10
149.618
 20
105.392
 30
0.0
 11
149.31
 21
105.548
 31
0.0
  0
LINE
  8
0
 62
     0
 10
149.31
 20
105.548
 30
0.0
 11
148.97
 21
105.602
 31
0.0
  0
LINE
  8
0
 62
     0
 10
148.97
 20
105.602
 30
0.0
 11
148.631
 21
105.548
 31
0.0
  0
LINE
  8
0
 62
     0
 10
75.6931
 20
105.548
 30
0.0
 11
75.3869
 21
105.392
 31
0.0
  0
LINE
  8
0
 62
     0
 10
75.3869
 20
105.392
 30
0.0
 11
75.1431
 21
105.149
 31
0.0
  0
LINE
  8
0
 62
     0
 10
75.1431
 20
105.149
 30
0.0
 11
74.9861
 21
104.841
 31
0.0
  0
LINE
  8
0
 62
     0
 10
74.9861
 20
104.841
 30
0.0
 11
74.9321
 21
104.502
 31
0.0
  0
LINE
  8
0
 62
     0
 10
74.9321
 20
104.502
 30
0.0
 11
74.9861
 21
104.163
 31
0.0
  0
LINE
  8
0
 62
     0
 10
74.9861
 20
104.163
 30
0.0
 11
75.1431
 21
103.856
 31
0.0
  0
LINE
  8
0
 62
     0
 10
75.1431
 20
103.856
 30
0.0
 11
75.3869
 21
103.613
 31
0.0
  0
LINE
  8
0
 62
     0
 10
75.3869
 20
103.613
 30
0.0
 11
75.6931
 21
103.456
 31
0.0
  0
LINE
  8
0
 62
     0
 10
75.6931
 20
103.456
 30
0.0
 11
76.0317
 21
103.401
 31
0.0
  0
LINE
  8
0
 62
     0
 10
76.0317
 20
103.401
 30
0.0
 11
76.3722
 21
103.456
 31
0.0
  0
LINE
  8
0
 62
     0
 10
76.3722
 20
103.456
 30
0.0
 11
76.6794
 21
103.613
 31
0.0
  0
LINE
  8
0
 62
     0
 10
76.6794
 20
103.613
 30
0.0
 11
76.9221
 21
103.856
 31
0.0
  0
LINE
  8
0
 62
     0
 10
76.9221
 20
103.856
 30
0.0
 11
77.0777
 21
104.163
 31
0.0
  0
LINE
  8
0
 62
     0
 10
77.0777
 20
104.163
 30
0.0
 11
77.1331
 21
104.502
 31
0.0
  0
LINE
  8
0
 62
     0
 10
77.1331
 20
104.502
 30
0.0
 11
77.0777
 21
104.841
 31
0.0
  0
LINE
  8
0
 62
     0
 10
77.0777
 20
104.841
 30
0.0
 11
76.9221
 21
105.149
 31
0.0
  0
LINE
  8
0
 62
     0
 10
76.9221
 20
105.149
 30
0.0
 11
76.6794
 21
105.392
 31
0.0
  0
LINE
  8
0
 62
     0
 10
76.6794
 20
105.392
 30
0.0
 11
76.3722
 21
105.548
 31
0.0
  0
LINE
  8
0
 62
     0
 10
76.3722
 20
105.548
 30
0.0
 11
76.0317
 21
105.602
 31
0.0
  0
LINE
  8
0
 62
     0
 10
76.0317
 20
105.602
 30
0.0
 11
75.6931
 21
105.548
 31
0.0
  0
ENDSEC
  0
EOF
