  0
SECTION
  2
HEADER
  9
$ACADVER
  1
AC1032
  9
$ACADMAINTVER
 90
      174
  9
$DWGCODEPAGE
  3
ANSI_936
  9
$LASTSAVEDBY
  1
xuech
  9
$REQUIREDVERSIONS
160
                 0
  9
$INSBASE
 10
0.0
 20
0.0
 30
0.0
  9
$EXTMIN
 10
0.0950846
 20
0.252181
 30
0.0
  9
$EXTMAX
 10
337.5789999999999
 20
107.502
 30
0.0
  9
$LIMMIN
 10
0.0
 20
0.0
  9
$LIMMAX
 10
12.0
 20
9.0
  9
$ORTHOMODE
 70
     0
  9
$REGENMODE
 70
     1
  9
$FILLMODE
 70
     0
  9
$QTEXTMODE
 70
     0
  9
$MIRRTEXT
 70
     0
  9
$LTSCALE
 40
1.0
  9
$ATTMODE
 70
     1
  9
$TEXTSIZE
 40
0.2
  9
$TRACEWID
 40
0.05
  9
$TEXTSTYLE
  7
Standard
  9
$CLAYER
  8
0
  9
$CELTYPE
  6
Continuous
  9
$CECOLOR
 62
   256
  9
$CELTSCALE
 40
1.0
  9
$DISPSILH
 70
     0
  9
$DIMSCALE
 40
1.0
  9
$DIMASZ
 40
0.18
  9
$DIMEXO
 40
0.0625
  9
$DIMDLI
 40
0.38
  9
$DIMRND
 40
0.0
  9
$DIMDLE
 40
0.0
  9
$DIMEXE
 40
0.18
  9
$DIMTP
 40
0.0
  9
$DIMTM
 40
0.0
  9
$DIMTXT
 40
0.18
  9
$DIMCEN
 40
0.09
  9
$DIMTSZ
 40
0.0
  9
$DIMTOL
 70
     0
  9
$DIMLIM
 70
     0
  9
$DIMTIH
 70
     1
  9
$DIMTOH
 70
     1
  9
$DIMSE1
 70
     0
  9
$DIMSE2
 70
     0
  9
$DIMTAD
 70
     0
  9
$DIMZIN
 70
     0
  9
$DIMBLK
  1

  9
$DIMASO
 70
     1
  9
$DIMSHO
 70
     1
  9
$DIMPOST
  1

  9
$DIMAPOST
  1

  9
$DIMALT
 70
     0
  9
$DIMALTD
 70
     2
  9
$DIMALTF
 40
25.4
  9
$DIMLFAC
 40
1.0
  9
$DIMTOFL
 70
     0
  9
$DIMTVP
 40
0.0
  9
$DIMTIX
 70
     0
  9
$DIMSOXD
 70
     0
  9
$DIMSAH
 70
     0
  9
$DIMBLK1
  1

  9
$DIMBLK2
  1

  9
$DIMSTYLE
  2
Standard
  9
$DIMCLRD
 70
     0
  9
$DIMCLRE
 70
     0
  9
$DIMCLRT
 70
     0
  9
$DIMTFAC
 40
1.0
  9
$DIMGAP
 40
0.09
  9
$DIMJUST
 70
     0
  9
$DIMSD1
 70
     0
  9
$DIMSD2
 70
     0
  9
$DIMTOLJ
 70
     1
  9
$DIMTZIN
 70
     0
  9
$DIMALTZ
 70
     0
  9
$DIMALTTZ
 70
     0
  9
$DIMUPT
 70
     0
  9
$DIMDEC
 70
     4
  9
$DIMTDEC
 70
     4
  9
$DIMALTU
 70
     2
  9
$DIMALTTD
 70
     2
  9
$DIMTXSTY
  7
Standard
  9
$DIMAUNIT
 70
     0
  9
$DIMADEC
 70
     0
  9
$DIMALTRND
 40
0.0
  9
$DIMAZIN
 70
     0
  9
$DIMDSEP
 70
    46
  9
$DIMATFIT
 70
     3
  9
$DIMFRAC
 70
     0
  9
$DIMLDRBLK
  1

  9
$DIMLUNIT
 70
     2
  9
$DIMLWD
 70
    -2
  9
$DIMLWE
 70
    -2
  9
$DIMTMOVE
 70
     0
  9
$DIMFXL
 40
1.0
  9
$DIMFXLON
 70
     0
  9
$DIMJOGANG
 40
0.7853981633974483
  9
$DIMTFILL
 70
     0
  9
$DIMTFILLCLR
 70
     0
  9
$DIMARCSYM
 70
     0
  9
$DIMLTYPE
  6

  9
$DIMLTEX1
  6

  9
$DIMLTEX2
  6

  9
$DIMTXTDIRECTION
 70
     0
  9
$LUNITS
 70
     2
  9
$LUPREC
 70
     4
  9
$SKETCHINC
 40
0.1
  9
$FILLETRAD
 40
0.0
  9
$AUNITS
 70
     0
  9
$AUPREC
 70
     0
  9
$MENU
  1
.
  9
$ELEVATION
 40
0.0
  9
$PELEVATION
 40
0.0
  9
$THICKNESS
 40
0.0
  9
$LIMCHECK
 70
     0
  9
$CHAMFERA
 40
0.0
  9
$CHAMFERB
 40
0.0
  9
$CHAMFERC
 40
0.0
  9
$CHAMFERD
 40
0.0
  9
$SKPOLY
 70
     0
  9
$TDCREATE
 40
2459459.864710648
  9
$TDUCREATE
 40
2459459.531377315
  9
$TDUPDATE
 40
2459459.884444445
  9
$TDUUPDATE
 40
2459459.551111111
  9
$TDINDWG
 40
0.0197337963
  9
$TDUSRTIMER
 40
0.0197337963
  9
$USRTIMER
 70
     1
  9
$ANGBASE
 50
0.0
  9
$ANGDIR
 70
     0
  9
$PDMODE
 70
     0
  9
$PDSIZE
 40
0.0
  9
$PLINEWID
 40
0.0
  9
$SPLFRAME
 70
     1
  9
$SPLINETYPE
 70
     6
  9
$SPLINESEGS
 70
     8
  9
$HANDSEED
  5
3E7
  9
$SURFTAB1
 70
     6
  9
$SURFTAB2
 70
     6
  9
$SURFTYPE
 70
     6
  9
$SURFU
 70
     6
  9
$SURFV
 70
     6
  9
$UCSBASE
  2

  9
$UCSNAME
  2

  9
$UCSORG
 10
0.0
 20
0.0
 30
0.0
  9
$UCSXDIR
 10
1.0
 20
0.0
 30
0.0
  9
$UCSYDIR
 10
0.0
 20
1.0
 30
0.0
  9
$UCSORTHOREF
  2

  9
$UCSORTHOVIEW
 70
     0
  9
$UCSORGTOP
 10
0.0
 20
0.0
 30
0.0
  9
$UCSORGBOTTOM
 10
0.0
 20
0.0
 30
0.0
  9
$UCSORGLEFT
 10
0.0
 20
0.0
 30
0.0
  9
$UCSORGRIGHT
 10
0.0
 20
0.0
 30
0.0
  9
$UCSORGFRONT
 10
0.0
 20
0.0
 30
0.0
  9
$UCSORGBACK
 10
0.0
 20
0.0
 30
0.0
  9
$PUCSBASE
  2

  9
$PUCSNAME
  2

  9
$PUCSORG
 10
0.0
 20
0.0
 30
0.0
  9
$PUCSXDIR
 10
1.0
 20
0.0
 30
0.0
  9
$PUCSYDIR
 10
0.0
 20
1.0
 30
0.0
  9
$PUCSORTHOREF
  2

  9
$PUCSORTHOVIEW
 70
     0
  9
$PUCSORGTOP
 10
0.0
 20
0.0
 30
0.0
  9
$PUCSORGBOTTOM
 10
0.0
 20
0.0
 30
0.0
  9
$PUCSORGLEFT
 10
0.0
 20
0.0
 30
0.0
  9
$PUCSORGRIGHT
 10
0.0
 20
0.0
 30
0.0
  9
$PUCSORGFRONT
 10
0.0
 20
0.0
 30
0.0
  9
$PUCSORGBACK
 10
0.0
 20
0.0
 30
0.0
  9
$USERI1
 70
     0
  9
$USERI2
 70
     0
  9
$USERI3
 70
     0
  9
$USERI4
 70
     0
  9
$USERI5
 70
     0
  9
$USERR1
 40
0.0
  9
$USERR2
 40
0.0
  9
$USERR3
 40
0.0
  9
$USERR4
 40
0.0
  9
$USERR5
 40
0.0
  9
$WORLDVIEW
 70
     1
  9
$SHADEDGE
 70
     3
  9
$SHADEDIF
 70
    70
  9
$TILEMODE
 70
     1
  9
$MAXACTVP
 70
    64
  9
$PINSBASE
 10
0.0
 20
0.0
 30
0.0
  9
$PLIMCHECK
 70
     0
  9
$PEXTMIN
 10
1.000000000000000E+20
 20
1.000000000000000E+20
 30
1.000000000000000E+20
  9
$PEXTMAX
 10
-1.000000000000000E+20
 20
-1.000000000000000E+20
 30
-1.000000000000000E+20
  9
$PLIMMIN
 10
0.0
 20
0.0
  9
$PLIMMAX
 10
12.0
 20
9.0
  9
$UNITMODE
 70
     0
  9
$VISRETAIN
 70
     1
  9
$PLINEGEN
 70
     0
  9
$PSLTSCALE
 70
     1
  9
$TREEDEPTH
 70
  3020
  9
$CMLSTYLE
  2
Standard
  9
$CMLJUST
 70
     0
  9
$CMLSCALE
 40
1.0
  9
$PROXYGRAPHICS
 70
     1
  9
$MEASUREMENT
 70
     0
  9
$CELWEIGHT
370
    -1
  9
$ENDCAPS
280
     0
  9
$JOINSTYLE
280
     0
  9
$LWDISPLAY
290
     0
  9
$INSUNITS
 70
     0
  9
$HYPERLINKBASE
  1

  9
$STYLESHEET
  1

  9
$XEDIT
290
     1
  9
$CEPSNTYPE
380
     0
  9
$PSTYLEMODE
290
     1
  9
$FINGERPRINTGUID
  2
{209EE868-9E16-4C4C-B20E-E98806AF136F}
  9
$VERSIONGUID
  2
{E1227FA5-0E54-E24D-8476-AE2101B4E88A}
  9
$EXTNAMES
290
     1
  9
$PSVPSCALE
 40
0.0
  9
$OLESTARTUP
290
     0
  9
$SORTENTS
280
   127
  9
$INDEXCTL
280
     0
  9
$HIDETEXT
280
     0
  9
$XCLIPFRAME
280
     2
  9
$HALOGAP
280
     0
  9
$OBSCOLOR
 70
   257
  9
$OBSLTYPE
280
     0
  9
$INTERSECTIONDISPLAY
280
     0
  9
$INTERSECTIONCOLOR
 70
   257
  9
$DIMASSOC
280
     1
  9
$PROJECTNAME
  1

  9
$CAMERADISPLAY
290
     0
  9
$LENSLENGTH
 40
50.0
  9
$CAMERAHEIGHT
 40
0.0
  9
$STEPSPERSEC
 40
2.0
  9
$STEPSIZE
 40
6.0
  9
$3DDWFPREC
 40
2.0
  9
$PSOLWIDTH
 40
0.25
  9
$PSOLHEIGHT
 40
4.0
  9
$LOFTANG1
 40
1.570796326794896
  9
$LOFTANG2
 40
1.570796326794896
  9
$LOFTMAG1
 40
0.0
  9
$LOFTMAG2
 40
0.0
  9
$LOFTPARAM
 70
     7
  9
$LOFTNORMALS
280
     1
  9
$LATITUDE
 40
37.795
  9
$LONGITUDE
 40
-122.394
  9
$NORTHDIRECTION
 40
0.0
  9
$TIMEZONE
 70
 -8000
  9
$LIGHTGLYPHDISPLAY
280
     1
  9
$TILEMODELIGHTSYNCH
280
     1
  9
$CMATERIAL
347
11
  9
$SOLIDHIST
280
     0
  9
$SHOWHIST
280
     1
  9
$DWFFRAME
280
     2
  9
$DGNFRAME
280
     0
  9
$REALWORLDSCALE
290
     1
  9
$INTERFERECOLOR
 62
     1
  9
$INTERFEREOBJVS
345
33
  9
$INTERFEREVPVS
346
30
  9
$CSHADOW
280
     0
  9
$SHADOWPLANELOCATION
 40
0.0
  0
ENDSEC
  0
SECTION
  2
CLASSES
  0
CLASS
  1
ACDBDICTIONARYWDFLT
  2
AcDbDictionaryWithDefault
  3
ObjectDBX Classes
 90
        0
 91
        1
280
     0
281
     0
  0
CLASS
  1
MATERIAL
  2
AcDbMaterial
  3
ObjectDBX Classes
 90
     1153
 91
        3
280
     0
281
     0
  0
CLASS
  1
VISUALSTYLE
  2
AcDbVisualStyle
  3
ObjectDBX Classes
 90
     4095
 91
       24
280
     0
281
     0
  0
CLASS
  1
SCALE
  2
AcDbScale
  3
ObjectDBX Classes
 90
     1153
 91
       17
280
     0
281
     0
  0
CLASS
  1
TABLESTYLE
  2
AcDbTableStyle
  3
ObjectDBX Classes
 90
     4095
 91
        1
280
     0
281
     0
  0
CLASS
  1
MLEADERSTYLE
  2
AcDbMLeaderStyle
  3
ACDB_MLEADERSTYLE_CLASS
 90
     4095
 91
        1
280
     0
281
     0
  0
CLASS
  1
ACDBSECTIONVIEWSTYLE
  2
AcDbSectionViewStyle
  3
ObjectDBX Classes
 90
     1025
 91
        1
280
     0
281
     0
  0
CLASS
  1
ACDBDETAILVIEWSTYLE
  2
AcDbDetailViewStyle
  3
ObjectDBX Classes
 90
     1025
 91
        1
280
     0
281
     0
  0
CLASS
  1
DICTIONARYVAR
  2
AcDbDictionaryVar
  3
ObjectDBX Classes
 90
        0
 91
       18
280
     0
281
     0
  0
CLASS
  1
CELLSTYLEMAP
  2
AcDbCellStyleMap
  3
ObjectDBX Classes
 90
     1152
 91
        1
280
     0
281
     0
  0
ENDSEC
  0
SECTION
  2
TABLES
  0
TABLE
  2
VPORT
  5
8
330
0
100
AcDbSymbolTable
 70
     1
  0
VPORT
  5
74
330
8
100
AcDbSymbolTableRecord
100
AcDbViewportTableRecord
  2
*Active
 70
     0
 10
0.0
 20
0.0
 11
1.0
 21
1.0
 12
22.58511407340074
 22
34.05373193703415
 13
0.0
 23
0.0
 14
1.0
 24
1.0
 15
0.0
 25
0.0
 16
0.0
 26
0.0
 36
1.0
 17
0.0
 27
0.0
 37
0.0
 40
374.5139571107865
 41
2.17952353942144
 42
50.0
 43
0.0
 44
0.0
 50
0.0
 51
0.0
 71
     0
 72
   100
 73
     1
 74
     1
 75
     0
 76
     0
 77
     0
 78
     0
281
     0
 65
     1
110
0.0
120
0.0
130
0.0
111
1.0
121
0.0
131
0.0
112
0.0
122
1.0
132
0.0
 79
     0
146
0.0
348
2F
 60
     3
 61
     5
292
     1
282
     1
141
0.0
142
0.0
 63
   250
421
  3355443
1001
ACAD_NAV_VCDISPLAY
1070
     3
  0
ENDTAB
  0
TABLE
  2
LTYPE
  5
5
330
0
100
AcDbSymbolTable
 70
     3
  0
LTYPE
  5
5A
330
5
100
AcDbSymbolTableRecord
100
AcDbLinetypeTableRecord
  2
ByBlock
 70
     0
  3

 72
    65
 73
     0
 40
0.0
  0
LTYPE
  5
5B
330
5
100
AcDbSymbolTableRecord
100
AcDbLinetypeTableRecord
  2
ByLayer
 70
     0
  3

 72
    65
 73
     0
 40
0.0
  0
LTYPE
  5
5C
330
5
100
AcDbSymbolTableRecord
100
AcDbLinetypeTableRecord
  2
Continuous
 70
     0
  3
Solid line
 72
    65
 73
     0
 40
0.0
  0
ENDTAB
  0
TABLE
  2
LAYER
  5
2
102
{ACAD_XDICTIONARY
360
3B1
102
}
330
0
100
AcDbSymbolTable
 70
     1
  0
LAYER
  5
54
102
{ACAD_XDICTIONARY
360
3D8
102
}
330
2
100
AcDbSymbolTableRecord
100
AcDbLayerTableRecord
  2
0
 70
     0
 62
     7
  6
Continuous
370
    -3
390
F
347
21
348
0
  0
ENDTAB
  0
TABLE
  2
STYLE
  5
3
330
0
100
AcDbSymbolTable
 70
     2
  0
STYLE
  5
55
330
3
100
AcDbSymbolTableRecord
100
AcDbTextStyleTableRecord
  2
Standard
 70
     0
 40
0.0
 41
1.0
 50
0.0
 71
     0
 42
0.2
  3
txt
  4

  0
STYLE
  5
59
330
3
100
AcDbSymbolTableRecord
100
AcDbTextStyleTableRecord
  2
Annotative
 70
     0
 40
0.0
 41
1.0
 50
0.0
 71
     0
 42
0.2
  3
txt
  4

1001
AcadAnnotative
1000
AnnotativeData
1002
{
1070
     1
1070
     1
1002
}
  0
ENDTAB
  0
TABLE
  2
VIEW
  5
6
330
0
100
AcDbSymbolTable
 70
     0
  0
ENDTAB
  0
TABLE
  2
UCS
  5
7
330
0
100
AcDbSymbolTable
 70
     0
  0
ENDTAB
  0
TABLE
  2
APPID
  5
9
330
0
100
AcDbSymbolTable
 70
     6
  0
APPID
  5
56
330
9
100
AcDbSymbolTableRecord
100
AcDbRegAppTableRecord
  2
ACAD
 70
     0
  0
APPID
  5
5D
330
9
100
AcDbSymbolTableRecord
100
AcDbRegAppTableRecord
  2
AcadAnnotative
 70
     0
  0
APPID
  5
3AF
330
9
100
AcDbSymbolTableRecord
100
AcDbRegAppTableRecord
  2
ACAD_NAV_VCDISPLAY
 70
     0
  0
APPID
  5
3B0
330
9
100
AcDbSymbolTableRecord
100
AcDbRegAppTableRecord
  2
ACAD_PSEXT
 70
     0
  0
APPID
  5
3BD
330
9
100
AcDbSymbolTableRecord
100
AcDbRegAppTableRecord
  2
ACAD_EXEMPT_FROM_CAD_STANDARDS
 70
     0
  0
APPID
  5
3C6
330
9
100
AcDbSymbolTableRecord
100
AcDbRegAppTableRecord
  2
ACAD_DSTYLE_DIMRADIAL_EXTENSION
 70
     0
  0
ENDTAB
  0
TABLE
  2
DIMSTYLE
  5
A
330
0
100
AcDbSymbolTable
 70
     4
100
AcDbDimStyleTable
 71
     1
340
57
  0
DIMSTYLE
105
57
330
A
100
AcDbSymbolTableRecord
100
AcDbDimStyleTableRecord
  2
Standard
 70
     0
340
55
  0
DIMSTYLE
105
58
330
A
100
AcDbSymbolTableRecord
100
AcDbDimStyleTableRecord
  2
Annotative
 70
     0
340
55
1001
AcadAnnotative
1000
AnnotativeData
1002
{
1070
     1
1070
     1
1002
}
  0
ENDTAB
  0
TABLE
  2
BLOCK_RECORD
  5
1
330
0
100
AcDbSymbolTable
 70
     3
  0
BLOCK_RECORD
  5
6F
330
1
100
AcDbSymbolTableRecord
100
AcDbBlockTableRecord
  2
*Model_Space
340
72
 70
     0
280
     1
281
     0
  0
BLOCK_RECORD
  5
6B
330
1
100
AcDbSymbolTableRecord
100
AcDbBlockTableRecord
  2
*Paper_Space
340
6E
 70
     0
280
     1
281
     0
  0
ENDTAB
  0
ENDSEC
  0
SECTION
  2
BLOCKS
  0
BLOCK
  5
70
330
6F
100
AcDbEntity
  8
0
100
AcDbBlockBegin
  2
*Model_Space
 70
     0
 10
0.0
 20
0.0
 30
0.0
  3
*Model_Space
  1

  0
ENDBLK
  5
71
330
6F
100
AcDbEntity
  8
0
100
AcDbBlockEnd
  0
BLOCK
  5
6C
330
6B
100
AcDbEntity
 67
     1
  8
0
100
AcDbBlockBegin
  2
*Paper_Space
 70
     0
 10
0.0
 20
0.0
 30
0.0
  3
*Paper_Space
  1

  0
ENDBLK
  5
6D
330
6B
100
AcDbEntity
 67
     1
  8
0
100
AcDbBlockEnd
  0
ENDSEC
  0
SECTION
  2
ENTITIES
  0
LINE
  5
75
330
6F
100
AcDbEntity
  8
0
 62
     0
100
AcDbLine
 10
295.847
 20
107.502
 30
0.0
 11
296.003
 21
107.495
 31
0.0
  0
LINE
  5
76
330
6F
100
AcDbEntity
  8
0
 62
     0
100
AcDbLine
 10
296.003
 20
107.495
 30
0.0
 11
296.158
 21
107.477
 31
0.0
  0
LINE
  5
77
330
6F
100
AcDbEntity
  8
0
 62
     0
100
AcDbLine
 10
296.158
 20
107.477
 30
0.0
 11
296.313
 21
107.447
 31
0.0
  0
LINE
  5
78
330
6F
100
AcDbEntity
  8
0
 62
     0
100
AcDbLine
 10
296.313
 20
107.447
 30
0.0
 11
296.464
 21
107.404
 31
0.0
  0
LINE
  5
79
330
6F
100
AcDbEntity
  8
0
 62
     0
100
AcDbLine
 10
296.464
 20
107.404
 30
0.0
 11
296.612
 21
107.349
 31
0.0
  0
LINE
  5
7A
330
6F
100
AcDbEntity
  8
0
 62
     0
100
AcDbLine
 10
296.612
 20
107.349
 30
0.0
 11
296.753
 21
107.284
 31
0.0
  0
LINE
  5
7B
330
6F
100
AcDbEntity
  8
0
 62
     0
100
AcDbLine
 10
296.753
 20
107.284
 30
0.0
 11
296.89
 21
107.207
 31
0.0
  0
LINE
  5
7C
330
6F
100
AcDbEntity
  8
0
 62
     0
100
AcDbLine
 10
296.89
 20
107.207
 30
0.0
 11
297.021
 21
107.12
 31
0.0
  0
LINE
  5
7D
330
6F
100
AcDbEntity
  8
0
 62
     0
100
AcDbLine
 10
297.021
 20
107.12
 30
0.0
 11
297.145
 21
107.023
 31
0.0
  0
LINE
  5
7E
330
6F
100
AcDbEntity
  8
0
 62
     0
100
AcDbLine
 10
297.145
 20
107.023
 30
0.0
 11
297.2609999999999
 21
106.916
 31
0.0
  0
LINE
  5
7F
330
6F
100
AcDbEntity
  8
0
 62
     0
100
AcDbLine
 10
297.2609999999999
 20
106.916
 30
0.0
 11
297.367
 21
106.801
 31
0.0
  0
LINE
  5
80
330
6F
100
AcDbEntity
  8
0
 62
     0
100
AcDbLine
 10
297.367
 20
106.801
 30
0.0
 11
297.465
 21
106.678
 31
0.0
  0
LINE
  5
81
330
6F
100
AcDbEntity
  8
0
 62
     0
100
AcDbLine
 10
297.465
 20
106.678
 30
0.0
 11
297.551
 21
106.547
 31
0.0
  0
LINE
  5
82
330
6F
100
AcDbEntity
  8
0
 62
     0
100
AcDbLine
 10
297.551
 20
106.547
 30
0.0
 11
297.629
 21
106.409
 31
0.0
  0
LINE
  5
83
330
6F
100
AcDbEntity
  8
0
 62
     0
100
AcDbLine
 10
297.629
 20
106.409
 30
0.0
 11
297.693
 21
106.267
 31
0.0
  0
LINE
  5
84
330
6F
100
AcDbEntity
  8
0
 62
     0
100
AcDbLine
 10
297.693
 20
106.267
 30
0.0
 11
297.749
 21
106.121
 31
0.0
  0
LINE
  5
85
330
6F
100
AcDbEntity
  8
0
 62
     0
100
AcDbLine
 10
297.749
 20
106.121
 30
0.0
 11
297.79
 21
105.968
 31
0.0
  0
LINE
  5
86
330
6F
100
AcDbEntity
  8
0
 62
     0
100
AcDbLine
 10
297.79
 20
105.968
 30
0.0
 11
297.822
 21
105.815
 31
0.0
  0
LINE
  5
87
330
6F
100
AcDbEntity
  8
0
 62
     0
100
AcDbLine
 10
297.822
 20
105.815
 30
0.0
 11
297.84
 21
105.658
 31
0.0
  0
LINE
  5
88
330
6F
100
AcDbEntity
  8
0
 62
     0
100
AcDbLine
 10
297.84
 20
105.658
 30
0.0
 11
297.846
 21
105.501
 31
0.0
  0
LINE
  5
89
330
6F
100
AcDbEntity
  8
0
 62
     0
100
AcDbLine
 10
297.846
 20
105.501
 30
0.0
 11
297.846
 21
2.251709999999999
 31
0.0
  0
LINE
  5
8A
330
6F
100
AcDbEntity
  8
0
 62
     0
100
AcDbLine
 10
297.846
 20
2.251709999999999
 30
0.0
 11
297.84
 21
2.094619999999999
 31
0.0
  0
LINE
  5
8B
330
6F
100
AcDbEntity
  8
0
 62
     0
100
AcDbLine
 10
297.84
 20
2.094619999999999
 30
0.0
 11
297.822
 21
1.9389
 31
0.0
  0
LINE
  5
8C
330
6F
100
AcDbEntity
  8
0
 62
     0
100
AcDbLine
 10
297.822
 20
1.9389
 30
0.0
 11
297.79
 21
1.784559999999999
 31
0.0
  0
LINE
  5
8D
330
6F
100
AcDbEntity
  8
0
 62
     0
100
AcDbLine
 10
297.79
 20
1.784559999999999
 30
0.0
 11
297.749
 21
1.632979999999999
 31
0.0
  0
LINE
  5
8E
330
6F
100
AcDbEntity
  8
0
 62
     0
100
AcDbLine
 10
297.749
 20
1.632979999999999
 30
0.0
 11
297.693
 21
1.485529999999999
 31
0.0
  0
LINE
  5
8F
330
6F
100
AcDbEntity
  8
0
 62
     0
100
AcDbLine
 10
297.693
 20
1.485529999999999
 30
0.0
 11
297.629
 21
1.34359
 31
0.0
  0
LINE
  5
90
330
6F
100
AcDbEntity
  8
0
 62
     0
100
AcDbLine
 10
297.629
 20
1.34359
 30
0.0
 11
297.551
 21
1.20716
 31
0.0
  0
LINE
  5
91
330
6F
100
AcDbEntity
  8
0
 62
     0
100
AcDbLine
 10
297.551
 20
1.20716
 30
0.0
 11
297.465
 21
1.076249999999999
 31
0.0
  0
LINE
  5
92
330
6F
100
AcDbEntity
  8
0
 62
     0
100
AcDbLine
 10
297.465
 20
1.076249999999999
 30
0.0
 11
297.367
 21
0.9522249999999999
 31
0.0
  0
LINE
  5
93
330
6F
100
AcDbEntity
  8
0
 62
     0
100
AcDbLine
 10
297.367
 20
0.9522249999999999
 30
0.0
 11
297.2609999999999
 21
0.8364679999999999
 31
0.0
  0
LINE
  5
94
330
6F
100
AcDbEntity
  8
0
 62
     0
100
AcDbLine
 10
297.2609999999999
 20
0.8364679999999999
 30
0.0
 11
297.145
 21
0.730359
 31
0.0
  0
LINE
  5
95
330
6F
100
AcDbEntity
  8
0
 62
     0
100
AcDbLine
 10
297.145
 20
0.730359
 30
0.0
 11
297.021
 21
0.63252
 31
0.0
  0
LINE
  5
96
330
6F
100
AcDbEntity
  8
0
 62
     0
100
AcDbLine
 10
297.021
 20
0.63252
 30
0.0
 11
296.89
 21
0.545705
 31
0.0
  0
LINE
  5
97
330
6F
100
AcDbEntity
  8
0
 62
     0
100
AcDbLine
 10
296.89
 20
0.545705
 30
0.0
 11
296.753
 21
0.4685350000000001
 31
0.0
  0
LINE
  5
98
330
6F
100
AcDbEntity
  8
0
 62
     0
100
AcDbLine
 10
296.753
 20
0.4685350000000001
 30
0.0
 11
296.612
 21
0.4037650000000001
 31
0.0
  0
LINE
  5
99
330
6F
100
AcDbEntity
  8
0
 62
     0
100
AcDbLine
 10
296.612
 20
0.4037650000000001
 30
0.0
 11
296.464
 21
0.348644
 31
0.0
  0
LINE
  5
9A
330
6F
100
AcDbEntity
  8
0
 62
     0
100
AcDbLine
 10
296.464
 20
0.348644
 30
0.0
 11
296.313
 21
0.307303
 31
0.0
  0
LINE
  5
9B
330
6F
100
AcDbEntity
  8
0
 62
     0
100
AcDbLine
 10
296.313
 20
0.307303
 30
0.0
 11
296.158
 21
0.275608
 31
0.0
  0
LINE
  5
9C
330
6F
100
AcDbEntity
  8
0
 62
     0
100
AcDbLine
 10
296.158
 20
0.275608
 30
0.0
 11
296.003
 21
0.257693
 31
0.0
  0
LINE
  5
9D
330
6F
100
AcDbEntity
  8
0
 62
     0
100
AcDbLine
 10
296.003
 20
0.257693
 30
0.0
 11
295.847
 21
0.252181
 31
0.0
  0
LINE
  5
9E
330
6F
100
AcDbEntity
  8
0
 62
     0
100
AcDbLine
 10
295.847
 20
0.252181
 30
0.0
 11
2.096
 21
0.252181
 31
0.0
  0
LINE
  5
9F
330
6F
100
AcDbEntity
  8
0
 62
     0
100
AcDbLine
 10
2.096
 20
0.252181
 30
0.0
 11
1.9389
 21
0.257693
 31
0.0
  0
LINE
  5
A0
330
6F
100
AcDbEntity
  8
0
 62
     0
100
AcDbLine
 10
1.9389
 20
0.257693
 30
0.0
 11
1.7818
 21
0.275608
 31
0.0
  0
LINE
  5
A1
330
6F
100
AcDbEntity
  8
0
 62
     0
100
AcDbLine
 10
1.7818
 20
0.275608
 30
0.0
 11
1.62884
 21
0.307303
 31
0.0
  0
LINE
  5
A2
330
6F
100
AcDbEntity
  8
0
 62
     0
100
AcDbLine
 10
1.62884
 20
0.307303
 30
0.0
 11
1.475879999999999
 21
0.348644
 31
0.0
  0
LINE
  5
A3
330
6F
100
AcDbEntity
  8
0
 62
     0
100
AcDbLine
 10
1.475879999999999
 20
0.348644
 30
0.0
 11
1.329809999999999
 21
0.4037650000000001
 31
0.0
  0
LINE
  5
A4
330
6F
100
AcDbEntity
  8
0
 62
     0
100
AcDbLine
 10
1.329809999999999
 20
0.4037650000000001
 30
0.0
 11
1.187869999999999
 21
0.4685350000000001
 31
0.0
  0
LINE
  5
A5
330
6F
100
AcDbEntity
  8
0
 62
     0
100
AcDbLine
 10
1.187869999999999
 20
0.4685350000000001
 30
0.0
 11
1.050059999999999
 21
0.545705
 31
0.0
  0
LINE
  5
A6
330
6F
100
AcDbEntity
  8
0
 62
     0
100
AcDbLine
 10
1.050059999999999
 20
0.545705
 30
0.0
 11
0.919152
 21
0.63252
 31
0.0
  0
LINE
  5
A7
330
6F
100
AcDbEntity
  8
0
 62
     0
100
AcDbLine
 10
0.919152
 20
0.63252
 30
0.0
 11
0.796505
 21
0.730359
 31
0.0
  0
LINE
  5
A8
330
6F
100
AcDbEntity
  8
0
 62
     0
100
AcDbLine
 10
0.796505
 20
0.730359
 30
0.0
 11
0.6807520000000001
 21
0.8364679999999999
 31
0.0
  0
LINE
  5
A9
330
6F
100
AcDbEntity
  8
0
 62
     0
100
AcDbLine
 10
0.6807520000000001
 20
0.8364679999999999
 30
0.0
 11
0.5746430000000001
 21
0.9522249999999999
 31
0.0
  0
LINE
  5
AA
330
6F
100
AcDbEntity
  8
0
 62
     0
100
AcDbLine
 10
0.5746430000000001
 20
0.9522249999999999
 30
0.0
 11
0.4768
 21
1.076249999999999
 31
0.0
  0
LINE
  5
AB
330
6F
100
AcDbEntity
  8
0
 62
     0
100
AcDbLine
 10
0.4768
 20
1.076249999999999
 30
0.0
 11
0.389985
 21
1.20716
 31
0.0
  0
LINE
  5
AC
330
6F
100
AcDbEntity
  8
0
 62
     0
100
AcDbLine
 10
0.389985
 20
1.20716
 30
0.0
 11
0.312815
 21
1.34359
 31
0.0
  0
LINE
  5
AD
330
6F
100
AcDbEntity
  8
0
 62
     0
100
AcDbLine
 10
0.312815
 20
1.34359
 30
0.0
 11
0.248047
 21
1.485529999999999
 31
0.0
  0
LINE
  5
AE
330
6F
100
AcDbEntity
  8
0
 62
     0
100
AcDbLine
 10
0.248047
 20
1.485529999999999
 30
0.0
 11
0.192925
 21
1.632979999999999
 31
0.0
  0
LINE
  5
AF
330
6F
100
AcDbEntity
  8
0
 62
     0
100
AcDbLine
 10
0.192925
 20
1.632979999999999
 30
0.0
 11
0.150206
 21
1.784559999999999
 31
0.0
  0
LINE
  5
B0
330
6F
100
AcDbEntity
  8
0
 62
     0
100
AcDbLine
 10
0.150206
 20
1.784559999999999
 30
0.0
 11
0.119889
 21
1.9389
 31
0.0
  0
LINE
  5
B1
330
6F
100
AcDbEntity
  8
0
 62
     0
100
AcDbLine
 10
0.119889
 20
1.9389
 30
0.0
 11
0.101975
 21
2.094619999999999
 31
0.0
  0
LINE
  5
B2
330
6F
100
AcDbEntity
  8
0
 62
     0
100
AcDbLine
 10
0.101975
 20
2.094619999999999
 30
0.0
 11
0.0950846
 21
2.25034
 31
0.0
  0
LINE
  5
B3
330
6F
100
AcDbEntity
  8
0
 62
     0
100
AcDbLine
 10
0.0950846
 20
2.25034
 30
0.0
 11
0.0950846
 21
105.501
 31
0.0
  0
LINE
  5
B4
330
6F
100
AcDbEntity
  8
0
 62
     0
100
AcDbLine
 10
0.0950846
 20
105.501
 30
0.0
 11
0.101975
 21
105.658
 31
0.0
  0
LINE
  5
B5
330
6F
100
AcDbEntity
  8
0
 62
     0
100
AcDbLine
 10
0.101975
 20
105.658
 30
0.0
 11
0.119889
 21
105.815
 31
0.0
  0
LINE
  5
B6
330
6F
100
AcDbEntity
  8
0
 62
     0
100
AcDbLine
 10
0.119889
 20
105.815
 30
0.0
 11
0.150206
 21
105.968
 31
0.0
  0
LINE
  5
B7
330
6F
100
AcDbEntity
  8
0
 62
     0
100
AcDbLine
 10
0.150206
 20
105.968
 30
0.0
 11
0.192925
 21
106.121
 31
0.0
  0
LINE
  5
B8
330
6F
100
AcDbEntity
  8
0
 62
     0
100
AcDbLine
 10
0.192925
 20
106.121
 30
0.0
 11
0.248047
 21
106.267
 31
0.0
  0
LINE
  5
B9
330
6F
100
AcDbEntity
  8
0
 62
     0
100
AcDbLine
 10
0.248047
 20
106.267
 30
0.0
 11
0.312815
 21
106.409
 31
0.0
  0
LINE
  5
BA
330
6F
100
AcDbEntity
  8
0
 62
     0
100
AcDbLine
 10
0.312815
 20
106.409
 30
0.0
 11
0.389985
 21
106.547
 31
0.0
  0
LINE
  5
BB
330
6F
100
AcDbEntity
  8
0
 62
     0
100
AcDbLine
 10
0.389985
 20
106.547
 30
0.0
 11
0.4768
 21
106.678
 31
0.0
  0
LINE
  5
BC
330
6F
100
AcDbEntity
  8
0
 62
     0
100
AcDbLine
 10
0.4768
 20
106.678
 30
0.0
 11
0.5746430000000001
 21
106.801
 31
0.0
  0
LINE
  5
BD
330
6F
100
AcDbEntity
  8
0
 62
     0
100
AcDbLine
 10
0.5746430000000001
 20
106.801
 30
0.0
 11
0.6807520000000001
 21
106.916
 31
0.0
  0
LINE
  5
BE
330
6F
100
AcDbEntity
  8
0
 62
     0
100
AcDbLine
 10
0.6807520000000001
 20
106.916
 30
0.0
 11
0.796505
 21
107.023
 31
0.0
  0
LINE
  5
BF
330
6F
100
AcDbEntity
  8
0
 62
     0
100
AcDbLine
 10
0.796505
 20
107.023
 30
0.0
 11
0.919152
 21
107.12
 31
0.0
  0
LINE
  5
C0
330
6F
100
AcDbEntity
  8
0
 62
     0
100
AcDbLine
 10
0.919152
 20
107.12
 30
0.0
 11
1.050059999999999
 21
107.207
 31
0.0
  0
LINE
  5
C1
330
6F
100
AcDbEntity
  8
0
 62
     0
100
AcDbLine
 10
1.050059999999999
 20
107.207
 30
0.0
 11
1.187869999999999
 21
107.284
 31
0.0
  0
LINE
  5
C2
330
6F
100
AcDbEntity
  8
0
 62
     0
100
AcDbLine
 10
1.187869999999999
 20
107.284
 30
0.0
 11
1.329809999999999
 21
107.349
 31
0.0
  0
LINE
  5
C3
330
6F
100
AcDbEntity
  8
0
 62
     0
100
AcDbLine
 10
1.329809999999999
 20
107.349
 30
0.0
 11
1.475879999999999
 21
107.404
 31
0.0
  0
LINE
  5
C4
330
6F
100
AcDbEntity
  8
0
 62
     0
100
AcDbLine
 10
1.475879999999999
 20
107.404
 30
0.0
 11
1.62884
 21
107.447
 31
0.0
  0
LINE
  5
C5
330
6F
100
AcDbEntity
  8
0
 62
     0
100
AcDbLine
 10
1.62884
 20
107.447
 30
0.0
 11
1.7818
 21
107.477
 31
0.0
  0
LINE
  5
C6
330
6F
100
AcDbEntity
  8
0
 62
     0
100
AcDbLine
 10
1.7818
 20
107.477
 30
0.0
 11
1.9389
 21
107.495
 31
0.0
  0
LINE
  5
C7
330
6F
100
AcDbEntity
  8
0
 62
     0
100
AcDbLine
 10
1.9389
 20
107.495
 30
0.0
 11
2.096
 21
107.502
 31
0.0
  0
LINE
  5
C8
330
6F
100
AcDbEntity
  8
0
 62
     0
100
AcDbLine
 10
2.096
 20
107.502
 30
0.0
 11
295.847
 21
107.502
 31
0.0
  0
LINE
  5
C9
330
6F
100
AcDbEntity
  8
0
 62
     0
100
AcDbLine
 10
2.756079999999999
 20
4.298099999999999
 30
0.0
 11
2.448779999999999
 21
4.141009999999999
 31
0.0
  0
LINE
  5
CA
330
6F
100
AcDbEntity
  8
0
 62
     0
100
AcDbLine
 10
2.448779999999999
 20
4.141009999999999
 30
0.0
 11
2.20486
 21
3.8971
 31
0.0
  0
LINE
  5
CB
330
6F
100
AcDbEntity
  8
0
 62
     0
100
AcDbLine
 10
2.20486
 20
3.8971
 30
0.0
 11
2.049139999999999
 21
3.591169999999999
 31
0.0
  0
LINE
  5
CC
330
6F
100
AcDbEntity
  8
0
 62
     0
100
AcDbLine
 10
2.049139999999999
 20
3.591169999999999
 30
0.0
 11
1.9954
 21
3.25079
 31
0.0
  0
LINE
  5
CD
330
6F
100
AcDbEntity
  8
0
 62
     0
100
AcDbLine
 10
1.9954
 20
3.25079
 30
0.0
 11
2.049139999999999
 21
2.911799999999999
 31
0.0
  0
LINE
  5
CE
330
6F
100
AcDbEntity
  8
0
 62
     0
100
AcDbLine
 10
2.049139999999999
 20
2.911799999999999
 30
0.0
 11
2.20486
 21
2.60449
 31
0.0
  0
LINE
  5
CF
330
6F
100
AcDbEntity
  8
0
 62
     0
100
AcDbLine
 10
2.20486
 20
2.60449
 30
0.0
 11
2.448779999999999
 21
2.361959999999999
 31
0.0
  0
LINE
  5
D0
330
6F
100
AcDbEntity
  8
0
 62
     0
100
AcDbLine
 10
2.448779999999999
 20
2.361959999999999
 30
0.0
 11
2.756079999999999
 21
2.20486
 31
0.0
  0
LINE
  5
D1
330
6F
100
AcDbEntity
  8
0
 62
     0
100
AcDbLine
 10
2.756079999999999
 20
2.20486
 30
0.0
 11
3.09507
 21
2.15112
 31
0.0
  0
LINE
  5
D2
330
6F
100
AcDbEntity
  8
0
 62
     0
100
AcDbLine
 10
3.09507
 20
2.15112
 30
0.0
 11
3.434069999999999
 21
2.20486
 31
0.0
  0
LINE
  5
D3
330
6F
100
AcDbEntity
  8
0
 62
     0
100
AcDbLine
 10
3.434069999999999
 20
2.20486
 30
0.0
 11
3.74138
 21
2.361959999999999
 31
0.0
  0
LINE
  5
D4
330
6F
100
AcDbEntity
  8
0
 62
     0
100
AcDbLine
 10
3.74138
 20
2.361959999999999
 30
0.0
 11
3.983919999999999
 21
2.60449
 31
0.0
  0
LINE
  5
D5
330
6F
100
AcDbEntity
  8
0
 62
     0
100
AcDbLine
 10
3.983919999999999
 20
2.60449
 30
0.0
 11
4.141009999999999
 21
2.911799999999999
 31
0.0
  0
LINE
  5
D6
330
6F
100
AcDbEntity
  8
0
 62
     0
100
AcDbLine
 10
4.141009999999999
 20
2.911799999999999
 30
0.0
 11
4.196119999999999
 21
3.25079
 31
0.0
  0
LINE
  5
D7
330
6F
100
AcDbEntity
  8
0
 62
     0
100
AcDbLine
 10
4.196119999999999
 20
3.25079
 30
0.0
 11
4.141009999999999
 21
3.591169999999999
 31
0.0
  0
LINE
  5
D8
330
6F
100
AcDbEntity
  8
0
 62
     0
100
AcDbLine
 10
4.141009999999999
 20
3.591169999999999
 30
0.0
 11
3.983919999999999
 21
3.8971
 31
0.0
  0
LINE
  5
D9
330
6F
100
AcDbEntity
  8
0
 62
     0
100
AcDbLine
 10
3.983919999999999
 20
3.8971
 30
0.0
 11
3.74138
 21
4.141009999999999
 31
0.0
  0
LINE
  5
DA
330
6F
100
AcDbEntity
  8
0
 62
     0
100
AcDbLine
 10
3.74138
 20
4.141009999999999
 30
0.0
 11
3.434069999999999
 21
4.298099999999999
 31
0.0
  0
LINE
  5
DB
330
6F
100
AcDbEntity
  8
0
 62
     0
100
AcDbLine
 10
3.434069999999999
 20
4.298099999999999
 30
0.0
 11
3.09507
 21
4.350459999999999
 31
0.0
  0
LINE
  5
DC
330
6F
100
AcDbEntity
  8
0
 62
     0
100
AcDbLine
 10
3.09507
 20
4.350459999999999
 30
0.0
 11
2.756079999999999
 21
4.298099999999999
 31
0.0
  0
LINE
  5
DD
330
6F
100
AcDbEntity
  8
0
 62
     0
100
AcDbLine
 10
75.6931
 20
4.298099999999999
 30
0.0
 11
75.38689999999999
 21
4.141009999999999
 31
0.0
  0
LINE
  5
DE
330
6F
100
AcDbEntity
  8
0
 62
     0
100
AcDbLine
 10
75.38689999999999
 20
4.141009999999999
 30
0.0
 11
75.1431
 21
3.8971
 31
0.0
  0
LINE
  5
DF
330
6F
100
AcDbEntity
  8
0
 62
     0
100
AcDbLine
 10
75.1431
 20
3.8971
 30
0.0
 11
74.98609999999999
 21
3.591169999999999
 31
0.0
  0
LINE
  5
E0
330
6F
100
AcDbEntity
  8
0
 62
     0
100
AcDbLine
 10
74.98609999999999
 20
3.591169999999999
 30
0.0
 11
74.93210000000001
 21
3.25079
 31
0.0
  0
LINE
  5
E1
330
6F
100
AcDbEntity
  8
0
 62
     0
100
AcDbLine
 10
74.93210000000001
 20
3.25079
 30
0.0
 11
74.98609999999999
 21
2.911799999999999
 31
0.0
  0
LINE
  5
E2
330
6F
100
AcDbEntity
  8
0
 62
     0
100
AcDbLine
 10
74.98609999999999
 20
2.911799999999999
 30
0.0
 11
75.1431
 21
2.60449
 31
0.0
  0
LINE
  5
E3
330
6F
100
AcDbEntity
  8
0
 62
     0
100
AcDbLine
 10
75.1431
 20
2.60449
 30
0.0
 11
75.38689999999999
 21
2.361959999999999
 31
0.0
  0
LINE
  5
E4
330
6F
100
AcDbEntity
  8
0
 62
     0
100
AcDbLine
 10
75.38689999999999
 20
2.361959999999999
 30
0.0
 11
75.6931
 21
2.20486
 31
0.0
  0
LINE
  5
E5
330
6F
100
AcDbEntity
  8
0
 62
     0
100
AcDbLine
 10
75.6931
 20
2.20486
 30
0.0
 11
76.0317
 21
2.15112
 31
0.0
  0
LINE
  5
E6
330
6F
100
AcDbEntity
  8
0
 62
     0
100
AcDbLine
 10
76.0317
 20
2.15112
 30
0.0
 11
76.37220000000001
 21
2.20486
 31
0.0
  0
LINE
  5
E7
330
6F
100
AcDbEntity
  8
0
 62
     0
100
AcDbLine
 10
76.37220000000001
 20
2.20486
 30
0.0
 11
76.6794
 21
2.361959999999999
 31
0.0
  0
LINE
  5
E8
330
6F
100
AcDbEntity
  8
0
 62
     0
100
AcDbLine
 10
76.6794
 20
2.361959999999999
 30
0.0
 11
76.9221
 21
2.60449
 31
0.0
  0
LINE
  5
E9
330
6F
100
AcDbEntity
  8
0
 62
     0
100
AcDbLine
 10
76.9221
 20
2.60449
 30
0.0
 11
77.0777
 21
2.911799999999999
 31
0.0
  0
LINE
  5
EA
330
6F
100
AcDbEntity
  8
0
 62
     0
100
AcDbLine
 10
77.0777
 20
2.911799999999999
 30
0.0
 11
77.13309999999999
 21
3.25079
 31
0.0
  0
LINE
  5
EB
330
6F
100
AcDbEntity
  8
0
 62
     0
100
AcDbLine
 10
77.13309999999999
 20
3.25079
 30
0.0
 11
77.0777
 21
3.591169999999999
 31
0.0
  0
LINE
  5
EC
330
6F
100
AcDbEntity
  8
0
 62
     0
100
AcDbLine
 10
77.0777
 20
3.591169999999999
 30
0.0
 11
76.9221
 21
3.8971
 31
0.0
  0
LINE
  5
ED
330
6F
100
AcDbEntity
  8
0
 62
     0
100
AcDbLine
 10
76.9221
 20
3.8971
 30
0.0
 11
76.6794
 21
4.141009999999999
 31
0.0
  0
LINE
  5
EE
330
6F
100
AcDbEntity
  8
0
 62
     0
100
AcDbLine
 10
76.6794
 20
4.141009999999999
 30
0.0
 11
76.37220000000001
 21
4.298099999999999
 31
0.0
  0
LINE
  5
EF
330
6F
100
AcDbEntity
  8
0
 62
     0
100
AcDbLine
 10
76.37220000000001
 20
4.298099999999999
 30
0.0
 11
76.0317
 21
4.350459999999999
 31
0.0
  0
LINE
  5
F0
330
6F
100
AcDbEntity
  8
0
 62
     0
100
AcDbLine
 10
76.0317
 20
4.350459999999999
 30
0.0
 11
75.6931
 21
4.298099999999999
 31
0.0
  0
LINE
  5
F1
330
6F
100
AcDbEntity
  8
0
 62
     0
100
AcDbLine
 10
148.631
 20
4.298099999999999
 30
0.0
 11
148.324
 21
4.141009999999999
 31
0.0
  0
LINE
  5
F2
330
6F
100
AcDbEntity
  8
0
 62
     0
100
AcDbLine
 10
148.324
 20
4.141009999999999
 30
0.0
 11
148.08
 21
3.8971
 31
0.0
  0
LINE
  5
F3
330
6F
100
AcDbEntity
  8
0
 62
     0
100
AcDbLine
 10
148.08
 20
3.8971
 30
0.0
 11
147.924
 21
3.591169999999999
 31
0.0
  0
LINE
  5
F4
330
6F
100
AcDbEntity
  8
0
 62
     0
100
AcDbLine
 10
147.924
 20
3.591169999999999
 30
0.0
 11
147.87
 21
3.25079
 31
0.0
  0
LINE
  5
F5
330
6F
100
AcDbEntity
  8
0
 62
     0
100
AcDbLine
 10
147.87
 20
3.25079
 30
0.0
 11
147.924
 21
2.911799999999999
 31
0.0
  0
LINE
  5
F6
330
6F
100
AcDbEntity
  8
0
 62
     0
100
AcDbLine
 10
147.924
 20
2.911799999999999
 30
0.0
 11
148.08
 21
2.60449
 31
0.0
  0
LINE
  5
F7
330
6F
100
AcDbEntity
  8
0
 62
     0
100
AcDbLine
 10
148.08
 20
2.60449
 30
0.0
 11
148.324
 21
2.361959999999999
 31
0.0
  0
LINE
  5
F8
330
6F
100
AcDbEntity
  8
0
 62
     0
100
AcDbLine
 10
148.324
 20
2.361959999999999
 30
0.0
 11
148.631
 21
2.20486
 31
0.0
  0
LINE
  5
F9
330
6F
100
AcDbEntity
  8
0
 62
     0
100
AcDbLine
 10
148.631
 20
2.20486
 30
0.0
 11
148.97
 21
2.15112
 31
0.0
  0
LINE
  5
FA
330
6F
100
AcDbEntity
  8
0
 62
     0
100
AcDbLine
 10
148.97
 20
2.15112
 30
0.0
 11
149.31
 21
2.20486
 31
0.0
  0
LINE
  5
FB
330
6F
100
AcDbEntity
  8
0
 62
     0
100
AcDbLine
 10
149.31
 20
2.20486
 30
0.0
 11
149.618
 21
2.361959999999999
 31
0.0
  0
LINE
  5
FC
330
6F
100
AcDbEntity
  8
0
 62
     0
100
AcDbLine
 10
149.618
 20
2.361959999999999
 30
0.0
 11
149.86
 21
2.60449
 31
0.0
  0
LINE
  5
FD
330
6F
100
AcDbEntity
  8
0
 62
     0
100
AcDbLine
 10
149.86
 20
2.60449
 30
0.0
 11
150.016
 21
2.911799999999999
 31
0.0
  0
LINE
  5
FE
330
6F
100
AcDbEntity
  8
0
 62
     0
100
AcDbLine
 10
150.016
 20
2.911799999999999
 30
0.0
 11
150.071
 21
3.25079
 31
0.0
  0
LINE
  5
FF
330
6F
100
AcDbEntity
  8
0
 62
     0
100
AcDbLine
 10
150.071
 20
3.25079
 30
0.0
 11
150.016
 21
3.591169999999999
 31
0.0
  0
LINE
  5
100
330
6F
100
AcDbEntity
  8
0
 62
     0
100
AcDbLine
 10
150.016
 20
3.591169999999999
 30
0.0
 11
149.86
 21
3.8971
 31
0.0
  0
LINE
  5
101
330
6F
100
AcDbEntity
  8
0
 62
     0
100
AcDbLine
 10
149.86
 20
3.8971
 30
0.0
 11
149.618
 21
4.141009999999999
 31
0.0
  0
LINE
  5
102
330
6F
100
AcDbEntity
  8
0
 62
     0
100
AcDbLine
 10
149.618
 20
4.141009999999999
 30
0.0
 11
149.31
 21
4.298099999999999
 31
0.0
  0
LINE
  5
103
330
6F
100
AcDbEntity
  8
0
 62
     0
100
AcDbLine
 10
149.31
 20
4.298099999999999
 30
0.0
 11
148.97
 21
4.350459999999999
 31
0.0
  0
LINE
  5
104
330
6F
100
AcDbEntity
  8
0
 62
     0
100
AcDbLine
 10
148.97
 20
4.350459999999999
 30
0.0
 11
148.631
 21
4.298099999999999
 31
0.0
  0
LINE
  5
105
330
6F
100
AcDbEntity
  8
0
 62
     0
100
AcDbLine
 10
221.568
 20
4.298099999999999
 30
0.0
 11
221.262
 21
4.141009999999999
 31
0.0
  0
LINE
  5
106
330
6F
100
AcDbEntity
  8
0
 62
     0
100
AcDbLine
 10
221.262
 20
4.141009999999999
 30
0.0
 11
221.018
 21
3.8971
 31
0.0
  0
LINE
  5
107
330
6F
100
AcDbEntity
  8
0
 62
     0
100
AcDbLine
 10
221.018
 20
3.8971
 30
0.0
 11
220.862
 21
3.591169999999999
 31
0.0
  0
LINE
  5
108
330
6F
100
AcDbEntity
  8
0
 62
     0
100
AcDbLine
 10
220.862
 20
3.591169999999999
 30
0.0
 11
220.809
 21
3.25079
 31
0.0
  0
LINE
  5
109
330
6F
100
AcDbEntity
  8
0
 62
     0
100
AcDbLine
 10
220.809
 20
3.25079
 30
0.0
 11
220.862
 21
2.911799999999999
 31
0.0
  0
LINE
  5
10A
330
6F
100
AcDbEntity
  8
0
 62
     0
100
AcDbLine
 10
220.862
 20
2.911799999999999
 30
0.0
 11
221.018
 21
2.60449
 31
0.0
  0
LINE
  5
10B
330
6F
100
AcDbEntity
  8
0
 62
     0
100
AcDbLine
 10
221.018
 20
2.60449
 30
0.0
 11
221.262
 21
2.361959999999999
 31
0.0
  0
LINE
  5
10C
330
6F
100
AcDbEntity
  8
0
 62
     0
100
AcDbLine
 10
221.262
 20
2.361959999999999
 30
0.0
 11
221.568
 21
2.20486
 31
0.0
  0
LINE
  5
10D
330
6F
100
AcDbEntity
  8
0
 62
     0
100
AcDbLine
 10
221.568
 20
2.20486
 30
0.0
 11
221.908
 21
2.15112
 31
0.0
  0
LINE
  5
10E
330
6F
100
AcDbEntity
  8
0
 62
     0
100
AcDbLine
 10
221.908
 20
2.15112
 30
0.0
 11
222.249
 21
2.20486
 31
0.0
  0
LINE
  5
10F
330
6F
100
AcDbEntity
  8
0
 62
     0
100
AcDbLine
 10
222.249
 20
2.20486
 30
0.0
 11
222.554
 21
2.361959999999999
 31
0.0
  0
LINE
  5
110
330
6F
100
AcDbEntity
  8
0
 62
     0
100
AcDbLine
 10
222.554
 20
2.361959999999999
 30
0.0
 11
222.799
 21
2.60449
 31
0.0
  0
LINE
  5
111
330
6F
100
AcDbEntity
  8
0
 62
     0
100
AcDbLine
 10
222.799
 20
2.60449
 30
0.0
 11
222.954
 21
2.911799999999999
 31
0.0
  0
LINE
  5
112
330
6F
100
AcDbEntity
  8
0
 62
     0
100
AcDbLine
 10
222.954
 20
2.911799999999999
 30
0.0
 11
223.008
 21
3.25079
 31
0.0
  0
LINE
  5
113
330
6F
100
AcDbEntity
  8
0
 62
     0
100
AcDbLine
 10
223.008
 20
3.25079
 30
0.0
 11
222.954
 21
3.591169999999999
 31
0.0
  0
LINE
  5
114
330
6F
100
AcDbEntity
  8
0
 62
     0
100
AcDbLine
 10
222.954
 20
3.591169999999999
 30
0.0
 11
222.799
 21
3.8971
 31
0.0
  0
LINE
  5
115
330
6F
100
AcDbEntity
  8
0
 62
     0
100
AcDbLine
 10
222.799
 20
3.8971
 30
0.0
 11
222.554
 21
4.141009999999999
 31
0.0
  0
LINE
  5
116
330
6F
100
AcDbEntity
  8
0
 62
     0
100
AcDbLine
 10
222.554
 20
4.141009999999999
 30
0.0
 11
222.249
 21
4.298099999999999
 31
0.0
  0
LINE
  5
117
330
6F
100
AcDbEntity
  8
0
 62
     0
100
AcDbLine
 10
222.249
 20
4.298099999999999
 30
0.0
 11
221.908
 21
4.350459999999999
 31
0.0
  0
LINE
  5
118
330
6F
100
AcDbEntity
  8
0
 62
     0
100
AcDbLine
 10
221.908
 20
4.350459999999999
 30
0.0
 11
221.568
 21
4.298099999999999
 31
0.0
  0
LINE
  5
119
330
6F
100
AcDbEntity
  8
0
 62
     0
100
AcDbLine
 10
294.506
 20
4.298099999999999
 30
0.0
 11
294.2
 21
4.141009999999999
 31
0.0
  0
LINE
  5
11A
330
6F
100
AcDbEntity
  8
0
 62
     0
100
AcDbLine
 10
294.2
 20
4.141009999999999
 30
0.0
 11
293.956
 21
3.8971
 31
0.0
  0
LINE
  5
11B
330
6F
100
AcDbEntity
  8
0
 62
     0
100
AcDbLine
 10
293.956
 20
3.8971
 30
0.0
 11
293.799
 21
3.591169999999999
 31
0.0
  0
LINE
  5
11C
330
6F
100
AcDbEntity
  8
0
 62
     0
100
AcDbLine
 10
293.799
 20
3.591169999999999
 30
0.0
 11
293.747
 21
3.25079
 31
0.0
  0
LINE
  5
11D
330
6F
100
AcDbEntity
  8
0
 62
     0
100
AcDbLine
 10
293.747
 20
3.25079
 30
0.0
 11
293.799
 21
2.911799999999999
 31
0.0
  0
LINE
  5
11E
330
6F
100
AcDbEntity
  8
0
 62
     0
100
AcDbLine
 10
293.799
 20
2.911799999999999
 30
0.0
 11
293.956
 21
2.60449
 31
0.0
  0
LINE
  5
11F
330
6F
100
AcDbEntity
  8
0
 62
     0
100
AcDbLine
 10
293.956
 20
2.60449
 30
0.0
 11
294.2
 21
2.361959999999999
 31
0.0
  0
LINE
  5
120
330
6F
100
AcDbEntity
  8
0
 62
     0
100
AcDbLine
 10
294.2
 20
2.361959999999999
 30
0.0
 11
294.506
 21
2.20486
 31
0.0
  0
LINE
  5
121
330
6F
100
AcDbEntity
  8
0
 62
     0
100
AcDbLine
 10
294.506
 20
2.20486
 30
0.0
 11
294.846
 21
2.15112
 31
0.0
  0
LINE
  5
122
330
6F
100
AcDbEntity
  8
0
 62
     0
100
AcDbLine
 10
294.846
 20
2.15112
 30
0.0
 11
295.185
 21
2.20486
 31
0.0
  0
LINE
  5
123
330
6F
100
AcDbEntity
  8
0
 62
     0
100
AcDbLine
 10
295.185
 20
2.20486
 30
0.0
 11
295.493
 21
2.361959999999999
 31
0.0
  0
LINE
  5
124
330
6F
100
AcDbEntity
  8
0
 62
     0
100
AcDbLine
 10
295.493
 20
2.361959999999999
 30
0.0
 11
295.735
 21
2.60449
 31
0.0
  0
LINE
  5
125
330
6F
100
AcDbEntity
  8
0
 62
     0
100
AcDbLine
 10
295.735
 20
2.60449
 30
0.0
 11
295.892
 21
2.911799999999999
 31
0.0
  0
LINE
  5
126
330
6F
100
AcDbEntity
  8
0
 62
     0
100
AcDbLine
 10
295.892
 20
2.911799999999999
 30
0.0
 11
295.9459999999999
 21
3.25079
 31
0.0
  0
LINE
  5
127
330
6F
100
AcDbEntity
  8
0
 62
     0
100
AcDbLine
 10
295.9459999999999
 20
3.25079
 30
0.0
 11
295.892
 21
3.591169999999999
 31
0.0
  0
LINE
  5
128
330
6F
100
AcDbEntity
  8
0
 62
     0
100
AcDbLine
 10
295.892
 20
3.591169999999999
 30
0.0
 11
295.735
 21
3.8971
 31
0.0
  0
LINE
  5
129
330
6F
100
AcDbEntity
  8
0
 62
     0
100
AcDbLine
 10
295.735
 20
3.8971
 30
0.0
 11
295.493
 21
4.141009999999999
 31
0.0
  0
LINE
  5
12A
330
6F
100
AcDbEntity
  8
0
 62
     0
100
AcDbLine
 10
295.493
 20
4.141009999999999
 30
0.0
 11
295.185
 21
4.298099999999999
 31
0.0
  0
LINE
  5
12B
330
6F
100
AcDbEntity
  8
0
 62
     0
100
AcDbLine
 10
295.185
 20
4.298099999999999
 30
0.0
 11
294.846
 21
4.350459999999999
 31
0.0
  0
LINE
  5
12C
330
6F
100
AcDbEntity
  8
0
 62
     0
100
AcDbLine
 10
294.846
 20
4.350459999999999
 30
0.0
 11
294.506
 21
4.298099999999999
 31
0.0
  0
LINE
  5
12D
330
6F
100
AcDbEntity
  8
0
 62
     0
100
AcDbLine
 10
175.307
 20
22.7762
 30
0.0
 11
175.307
 21
18.0771
 31
0.0
  0
LINE
  5
12E
330
6F
100
AcDbEntity
  8
0
 62
     0
100
AcDbLine
 10
175.307
 20
18.0771
 30
0.0
 11
173.783
 21
18.0771
 31
0.0
  0
LINE
  5
12F
330
6F
100
AcDbEntity
  8
0
 62
     0
100
AcDbLine
 10
173.783
 20
18.0771
 30
0.0
 11
173.783
 21
21.3072
 31
0.0
  0
LINE
  5
130
330
6F
100
AcDbEntity
  8
0
 62
     0
100
AcDbLine
 10
173.783
 20
21.3072
 30
0.0
 11
172.058
 21
21.3072
 31
0.0
  0
LINE
  5
131
330
6F
100
AcDbEntity
  8
0
 62
     0
100
AcDbLine
 10
172.058
 20
21.3072
 30
0.0
 11
172.058
 21
22.2278
 31
0.0
  0
LINE
  5
132
330
6F
100
AcDbEntity
  8
0
 62
     0
100
AcDbLine
 10
172.058
 20
22.2278
 30
0.0
 11
168.757
 21
22.2278
 31
0.0
  0
LINE
  5
133
330
6F
100
AcDbEntity
  8
0
 62
     0
100
AcDbLine
 10
168.757
 20
22.2278
 30
0.0
 11
168.757
 21
21.3072
 31
0.0
  0
LINE
  5
134
330
6F
100
AcDbEntity
  8
0
 62
     0
100
AcDbLine
 10
168.757
 20
21.3072
 30
0.0
 11
167.032
 21
21.3072
 31
0.0
  0
LINE
  5
135
330
6F
100
AcDbEntity
  8
0
 62
     0
100
AcDbLine
 10
167.032
 20
21.3072
 30
0.0
 11
167.032
 21
18.0771
 31
0.0
  0
LINE
  5
136
330
6F
100
AcDbEntity
  8
0
 62
     0
100
AcDbLine
 10
167.032
 20
18.0771
 30
0.0
 11
166.208
 21
18.0771
 31
0.0
  0
LINE
  5
137
330
6F
100
AcDbEntity
  8
0
 62
     0
100
AcDbLine
 10
166.208
 20
18.0771
 30
0.0
 11
166.208
 21
15.2769
 31
0.0
  0
LINE
  5
138
330
6F
100
AcDbEntity
  8
0
 62
     0
100
AcDbLine
 10
166.208
 20
15.2769
 30
0.0
 11
167.032
 21
15.2769
 31
0.0
  0
LINE
  5
139
330
6F
100
AcDbEntity
  8
0
 62
     0
100
AcDbLine
 10
167.032
 20
15.2769
 30
0.0
 11
167.032
 21
9.00825
 31
0.0
  0
LINE
  5
13A
330
6F
100
AcDbEntity
  8
0
 62
     0
100
AcDbLine
 10
167.032
 20
9.00825
 30
0.0
 11
168.757
 21
9.00825
 31
0.0
  0
LINE
  5
13B
330
6F
100
AcDbEntity
  8
0
 62
     0
100
AcDbLine
 10
168.757
 20
9.00825
 30
0.0
 11
168.757
 21
8.02707
 31
0.0
  0
LINE
  5
13C
330
6F
100
AcDbEntity
  8
0
 62
     0
100
AcDbLine
 10
168.757
 20
8.02707
 30
0.0
 11
172.058
 21
8.02707
 31
0.0
  0
LINE
  5
13D
330
6F
100
AcDbEntity
  8
0
 62
     0
100
AcDbLine
 10
172.058
 20
8.02707
 30
0.0
 11
172.058
 21
9.00825
 31
0.0
  0
LINE
  5
13E
330
6F
100
AcDbEntity
  8
0
 62
     0
100
AcDbLine
 10
172.058
 20
9.00825
 30
0.0
 11
173.783
 21
9.00825
 31
0.0
  0
LINE
  5
13F
330
6F
100
AcDbEntity
  8
0
 62
     0
100
AcDbLine
 10
173.783
 20
9.00825
 30
0.0
 11
173.783
 21
13.4772
 31
0.0
  0
LINE
  5
140
330
6F
100
AcDbEntity
  8
0
 62
     0
100
AcDbLine
 10
173.783
 20
13.4772
 30
0.0
 11
175.307
 21
13.4772
 31
0.0
  0
LINE
  5
141
330
6F
100
AcDbEntity
  8
0
 62
     0
100
AcDbLine
 10
175.307
 20
13.4772
 30
0.0
 11
175.307
 21
8.776719999999999
 31
0.0
  0
LINE
  5
142
330
6F
100
AcDbEntity
  8
0
 62
     0
100
AcDbLine
 10
175.307
 20
8.776719999999999
 30
0.0
 11
189.308
 21
8.776719999999999
 31
0.0
  0
LINE
  5
143
330
6F
100
AcDbEntity
  8
0
 62
     0
100
AcDbLine
 10
189.308
 20
8.776719999999999
 30
0.0
 11
189.308
 21
13.4772
 31
0.0
  0
LINE
  5
144
330
6F
100
AcDbEntity
  8
0
 62
     0
100
AcDbLine
 10
189.308
 20
13.4772
 30
0.0
 11
190.832
 21
13.4772
 31
0.0
  0
LINE
  5
145
330
6F
100
AcDbEntity
  8
0
 62
     0
100
AcDbLine
 10
190.832
 20
13.4772
 30
0.0
 11
190.832
 21
9.00825
 31
0.0
  0
LINE
  5
146
330
6F
100
AcDbEntity
  8
0
 62
     0
100
AcDbLine
 10
190.832
 20
9.00825
 30
0.0
 11
192.557
 21
9.00825
 31
0.0
  0
LINE
  5
147
330
6F
100
AcDbEntity
  8
0
 62
     0
100
AcDbLine
 10
192.557
 20
9.00825
 30
0.0
 11
192.557
 21
8.02707
 31
0.0
  0
LINE
  5
148
330
6F
100
AcDbEntity
  8
0
 62
     0
100
AcDbLine
 10
192.557
 20
8.02707
 30
0.0
 11
195.858
 21
8.02707
 31
0.0
  0
LINE
  5
149
330
6F
100
AcDbEntity
  8
0
 62
     0
100
AcDbLine
 10
195.858
 20
8.02707
 30
0.0
 11
195.858
 21
9.00825
 31
0.0
  0
LINE
  5
14A
330
6F
100
AcDbEntity
  8
0
 62
     0
100
AcDbLine
 10
195.858
 20
9.00825
 30
0.0
 11
197.583
 21
9.00825
 31
0.0
  0
LINE
  5
14B
330
6F
100
AcDbEntity
  8
0
 62
     0
100
AcDbLine
 10
197.583
 20
9.00825
 30
0.0
 11
197.583
 21
15.2769
 31
0.0
  0
LINE
  5
14C
330
6F
100
AcDbEntity
  8
0
 62
     0
100
AcDbLine
 10
197.583
 20
15.2769
 30
0.0
 11
198.407
 21
15.2769
 31
0.0
  0
LINE
  5
14D
330
6F
100
AcDbEntity
  8
0
 62
     0
100
AcDbLine
 10
198.407
 20
15.2769
 30
0.0
 11
198.407
 21
18.0771
 31
0.0
  0
LINE
  5
14E
330
6F
100
AcDbEntity
  8
0
 62
     0
100
AcDbLine
 10
198.407
 20
18.0771
 30
0.0
 11
197.583
 21
18.0771
 31
0.0
  0
LINE
  5
14F
330
6F
100
AcDbEntity
  8
0
 62
     0
100
AcDbLine
 10
197.583
 20
18.0771
 30
0.0
 11
197.583
 21
21.3072
 31
0.0
  0
LINE
  5
150
330
6F
100
AcDbEntity
  8
0
 62
     0
100
AcDbLine
 10
197.583
 20
21.3072
 30
0.0
 11
195.858
 21
21.3072
 31
0.0
  0
LINE
  5
151
330
6F
100
AcDbEntity
  8
0
 62
     0
100
AcDbLine
 10
195.858
 20
21.3072
 30
0.0
 11
195.858
 21
22.2278
 31
0.0
  0
LINE
  5
152
330
6F
100
AcDbEntity
  8
0
 62
     0
100
AcDbLine
 10
195.858
 20
22.2278
 30
0.0
 11
192.557
 21
22.2278
 31
0.0
  0
LINE
  5
153
330
6F
100
AcDbEntity
  8
0
 62
     0
100
AcDbLine
 10
192.557
 20
22.2278
 30
0.0
 11
192.557
 21
21.3072
 31
0.0
  0
LINE
  5
154
330
6F
100
AcDbEntity
  8
0
 62
     0
100
AcDbLine
 10
192.557
 20
21.3072
 30
0.0
 11
190.832
 21
21.3072
 31
0.0
  0
LINE
  5
155
330
6F
100
AcDbEntity
  8
0
 62
     0
100
AcDbLine
 10
190.832
 20
21.3072
 30
0.0
 11
190.832
 21
18.0771
 31
0.0
  0
LINE
  5
156
330
6F
100
AcDbEntity
  8
0
 62
     0
100
AcDbLine
 10
190.832
 20
18.0771
 30
0.0
 11
189.308
 21
18.0771
 31
0.0
  0
LINE
  5
157
330
6F
100
AcDbEntity
  8
0
 62
     0
100
AcDbLine
 10
189.308
 20
18.0771
 30
0.0
 11
189.308
 21
22.7762
 31
0.0
  0
LINE
  5
158
330
6F
100
AcDbEntity
  8
0
 62
     0
100
AcDbLine
 10
189.308
 20
22.7762
 30
0.0
 11
175.307
 21
22.7762
 31
0.0
  0
LINE
  5
159
330
6F
100
AcDbEntity
  8
0
 62
     0
100
AcDbLine
 10
80.05729999999999
 20
22.7762
 30
0.0
 11
80.05729999999999
 21
18.0771
 31
0.0
  0
LINE
  5
15A
330
6F
100
AcDbEntity
  8
0
 62
     0
100
AcDbLine
 10
80.05729999999999
 20
18.0771
 30
0.0
 11
78.5329
 21
18.0771
 31
0.0
  0
LINE
  5
15B
330
6F
100
AcDbEntity
  8
0
 62
     0
100
AcDbLine
 10
78.5329
 20
18.0771
 30
0.0
 11
78.5329
 21
21.3072
 31
0.0
  0
LINE
  5
15C
330
6F
100
AcDbEntity
  8
0
 62
     0
100
AcDbLine
 10
78.5329
 20
21.3072
 30
0.0
 11
76.8078
 21
21.3072
 31
0.0
  0
LINE
  5
15D
330
6F
100
AcDbEntity
  8
0
 62
     0
100
AcDbLine
 10
76.8078
 20
21.3072
 30
0.0
 11
76.8078
 21
22.2278
 31
0.0
  0
LINE
  5
15E
330
6F
100
AcDbEntity
  8
0
 62
     0
100
AcDbLine
 10
76.8078
 20
22.2278
 30
0.0
 11
73.50719999999999
 21
22.2278
 31
0.0
  0
LINE
  5
15F
330
6F
100
AcDbEntity
  8
0
 62
     0
100
AcDbLine
 10
73.50719999999999
 20
22.2278
 30
0.0
 11
73.50719999999999
 21
21.3072
 31
0.0
  0
LINE
  5
160
330
6F
100
AcDbEntity
  8
0
 62
     0
100
AcDbLine
 10
73.50719999999999
 20
21.3072
 30
0.0
 11
71.7822
 21
21.3072
 31
0.0
  0
LINE
  5
161
330
6F
100
AcDbEntity
  8
0
 62
     0
100
AcDbLine
 10
71.7822
 20
21.3072
 30
0.0
 11
71.7822
 21
18.0771
 31
0.0
  0
LINE
  5
162
330
6F
100
AcDbEntity
  8
0
 62
     0
100
AcDbLine
 10
71.7822
 20
18.0771
 30
0.0
 11
70.9581
 21
18.0771
 31
0.0
  0
LINE
  5
163
330
6F
100
AcDbEntity
  8
0
 62
     0
100
AcDbLine
 10
70.9581
 20
18.0771
 30
0.0
 11
70.9581
 21
15.2769
 31
0.0
  0
LINE
  5
164
330
6F
100
AcDbEntity
  8
0
 62
     0
100
AcDbLine
 10
70.9581
 20
15.2769
 30
0.0
 11
71.7822
 21
15.2769
 31
0.0
  0
LINE
  5
165
330
6F
100
AcDbEntity
  8
0
 62
     0
100
AcDbLine
 10
71.7822
 20
15.2769
 30
0.0
 11
71.7822
 21
9.00825
 31
0.0
  0
LINE
  5
166
330
6F
100
AcDbEntity
  8
0
 62
     0
100
AcDbLine
 10
71.7822
 20
9.00825
 30
0.0
 11
73.50719999999999
 21
9.00825
 31
0.0
  0
LINE
  5
167
330
6F
100
AcDbEntity
  8
0
 62
     0
100
AcDbLine
 10
73.50719999999999
 20
9.00825
 30
0.0
 11
73.50719999999999
 21
8.02707
 31
0.0
  0
LINE
  5
168
330
6F
100
AcDbEntity
  8
0
 62
     0
100
AcDbLine
 10
73.50719999999999
 20
8.02707
 30
0.0
 11
76.8078
 21
8.02707
 31
0.0
  0
LINE
  5
169
330
6F
100
AcDbEntity
  8
0
 62
     0
100
AcDbLine
 10
76.8078
 20
8.02707
 30
0.0
 11
76.8078
 21
9.00825
 31
0.0
  0
LINE
  5
16A
330
6F
100
AcDbEntity
  8
0
 62
     0
100
AcDbLine
 10
76.8078
 20
9.00825
 30
0.0
 11
78.5329
 21
9.00825
 31
0.0
  0
LINE
  5
16B
330
6F
100
AcDbEntity
  8
0
 62
     0
100
AcDbLine
 10
78.5329
 20
9.00825
 30
0.0
 11
78.5329
 21
13.4772
 31
0.0
  0
LINE
  5
16C
330
6F
100
AcDbEntity
  8
0
 62
     0
100
AcDbLine
 10
78.5329
 20
13.4772
 30
0.0
 11
80.05729999999999
 21
13.4772
 31
0.0
  0
LINE
  5
16D
330
6F
100
AcDbEntity
  8
0
 62
     0
100
AcDbLine
 10
80.05729999999999
 20
13.4772
 30
0.0
 11
80.05729999999999
 21
8.776719999999999
 31
0.0
  0
LINE
  5
16E
330
6F
100
AcDbEntity
  8
0
 62
     0
100
AcDbLine
 10
80.05729999999999
 20
8.776719999999999
 30
0.0
 11
94.05799999999999
 21
8.776719999999999
 31
0.0
  0
LINE
  5
16F
330
6F
100
AcDbEntity
  8
0
 62
     0
100
AcDbLine
 10
94.05799999999999
 20
8.776719999999999
 30
0.0
 11
94.05799999999999
 21
13.4772
 31
0.0
  0
LINE
  5
170
330
6F
100
AcDbEntity
  8
0
 62
     0
100
AcDbLine
 10
94.05799999999999
 20
13.4772
 30
0.0
 11
95.58200000000001
 21
13.4772
 31
0.0
  0
LINE
  5
171
330
6F
100
AcDbEntity
  8
0
 62
     0
100
AcDbLine
 10
95.58200000000001
 20
13.4772
 30
0.0
 11
95.58200000000001
 21
9.00825
 31
0.0
  0
LINE
  5
172
330
6F
100
AcDbEntity
  8
0
 62
     0
100
AcDbLine
 10
95.58200000000001
 20
9.00825
 30
0.0
 11
97.3074
 21
9.00825
 31
0.0
  0
LINE
  5
173
330
6F
100
AcDbEntity
  8
0
 62
     0
100
AcDbLine
 10
97.3074
 20
9.00825
 30
0.0
 11
97.3074
 21
8.02707
 31
0.0
  0
LINE
  5
174
330
6F
100
AcDbEntity
  8
0
 62
     0
100
AcDbLine
 10
97.3074
 20
8.02707
 30
0.0
 11
100.608
 21
8.02707
 31
0.0
  0
LINE
  5
175
330
6F
100
AcDbEntity
  8
0
 62
     0
100
AcDbLine
 10
100.608
 20
8.02707
 30
0.0
 11
100.608
 21
9.00825
 31
0.0
  0
LINE
  5
176
330
6F
100
AcDbEntity
  8
0
 62
     0
100
AcDbLine
 10
100.608
 20
9.00825
 30
0.0
 11
102.333
 21
9.00825
 31
0.0
  0
LINE
  5
177
330
6F
100
AcDbEntity
  8
0
 62
     0
100
AcDbLine
 10
102.333
 20
9.00825
 30
0.0
 11
102.333
 21
15.2769
 31
0.0
  0
LINE
  5
178
330
6F
100
AcDbEntity
  8
0
 62
     0
100
AcDbLine
 10
102.333
 20
15.2769
 30
0.0
 11
103.157
 21
15.2769
 31
0.0
  0
LINE
  5
179
330
6F
100
AcDbEntity
  8
0
 62
     0
100
AcDbLine
 10
103.157
 20
15.2769
 30
0.0
 11
103.157
 21
18.0771
 31
0.0
  0
LINE
  5
17A
330
6F
100
AcDbEntity
  8
0
 62
     0
100
AcDbLine
 10
103.157
 20
18.0771
 30
0.0
 11
102.333
 21
18.0771
 31
0.0
  0
LINE
  5
17B
330
6F
100
AcDbEntity
  8
0
 62
     0
100
AcDbLine
 10
102.333
 20
18.0771
 30
0.0
 11
102.333
 21
21.3072
 31
0.0
  0
LINE
  5
17C
330
6F
100
AcDbEntity
  8
0
 62
     0
100
AcDbLine
 10
102.333
 20
21.3072
 30
0.0
 11
100.608
 21
21.3072
 31
0.0
  0
LINE
  5
17D
330
6F
100
AcDbEntity
  8
0
 62
     0
100
AcDbLine
 10
100.608
 20
21.3072
 30
0.0
 11
100.608
 21
22.2278
 31
0.0
  0
LINE
  5
17E
330
6F
100
AcDbEntity
  8
0
 62
     0
100
AcDbLine
 10
100.608
 20
22.2278
 30
0.0
 11
97.3074
 21
22.2278
 31
0.0
  0
LINE
  5
17F
330
6F
100
AcDbEntity
  8
0
 62
     0
100
AcDbLine
 10
97.3074
 20
22.2278
 30
0.0
 11
97.3074
 21
21.3072
 31
0.0
  0
LINE
  5
180
330
6F
100
AcDbEntity
  8
0
 62
     0
100
AcDbLine
 10
97.3074
 20
21.3072
 30
0.0
 11
95.58200000000001
 21
21.3072
 31
0.0
  0
LINE
  5
181
330
6F
100
AcDbEntity
  8
0
 62
     0
100
AcDbLine
 10
95.58200000000001
 20
21.3072
 30
0.0
 11
95.58200000000001
 21
18.0771
 31
0.0
  0
LINE
  5
182
330
6F
100
AcDbEntity
  8
0
 62
     0
100
AcDbLine
 10
95.58200000000001
 20
18.0771
 30
0.0
 11
94.05799999999999
 21
18.0771
 31
0.0
  0
LINE
  5
183
330
6F
100
AcDbEntity
  8
0
 62
     0
100
AcDbLine
 10
94.05799999999999
 20
18.0771
 30
0.0
 11
94.05799999999999
 21
22.7762
 31
0.0
  0
LINE
  5
184
330
6F
100
AcDbEntity
  8
0
 62
     0
100
AcDbLine
 10
94.05799999999999
 20
22.7762
 30
0.0
 11
80.05729999999999
 21
22.7762
 31
0.0
  0
LINE
  5
185
330
6F
100
AcDbEntity
  8
0
 62
     0
100
AcDbLine
 10
268.176
 20
22.7762
 30
0.0
 11
282.177
 21
22.7762
 31
0.0
  0
LINE
  5
186
330
6F
100
AcDbEntity
  8
0
 62
     0
100
AcDbLine
 10
282.177
 20
22.7762
 30
0.0
 11
282.177
 21
8.776719999999999
 31
0.0
  0
LINE
  5
187
330
6F
100
AcDbEntity
  8
0
 62
     0
100
AcDbLine
 10
282.177
 20
8.776719999999999
 30
0.0
 11
268.176
 21
8.776719999999999
 31
0.0
  0
LINE
  5
188
330
6F
100
AcDbEntity
  8
0
 62
     0
100
AcDbLine
 10
268.176
 20
8.776719999999999
 30
0.0
 11
268.176
 21
22.7762
 31
0.0
  0
LINE
  5
189
330
6F
100
AcDbEntity
  8
0
 62
     0
100
AcDbLine
 10
241.982
 20
22.7762
 30
0.0
 11
255.983
 21
22.7762
 31
0.0
  0
LINE
  5
18A
330
6F
100
AcDbEntity
  8
0
 62
     0
100
AcDbLine
 10
255.983
 20
22.7762
 30
0.0
 11
255.983
 21
8.776719999999999
 31
0.0
  0
LINE
  5
18B
330
6F
100
AcDbEntity
  8
0
 62
     0
100
AcDbLine
 10
255.983
 20
8.776719999999999
 30
0.0
 11
241.982
 21
8.776719999999999
 31
0.0
  0
LINE
  5
18C
330
6F
100
AcDbEntity
  8
0
 62
     0
100
AcDbLine
 10
241.982
 20
8.776719999999999
 30
0.0
 11
241.982
 21
22.7762
 31
0.0
  0
LINE
  5
18D
330
6F
100
AcDbEntity
  8
0
 62
     0
100
AcDbLine
 10
222.932
 20
22.7762
 30
0.0
 11
236.933
 21
22.7762
 31
0.0
  0
LINE
  5
18E
330
6F
100
AcDbEntity
  8
0
 62
     0
100
AcDbLine
 10
236.933
 20
22.7762
 30
0.0
 11
236.933
 21
8.776719999999999
 31
0.0
  0
LINE
  5
18F
330
6F
100
AcDbEntity
  8
0
 62
     0
100
AcDbLine
 10
236.933
 20
8.776719999999999
 30
0.0
 11
222.932
 21
8.776719999999999
 31
0.0
  0
LINE
  5
190
330
6F
100
AcDbEntity
  8
0
 62
     0
100
AcDbLine
 10
222.932
 20
8.776719999999999
 30
0.0
 11
222.932
 21
22.7762
 31
0.0
  0
LINE
  5
191
330
6F
100
AcDbEntity
  8
0
 62
     0
100
AcDbLine
 10
203.882
 20
22.7762
 30
0.0
 11
217.883
 21
22.7762
 31
0.0
  0
LINE
  5
192
330
6F
100
AcDbEntity
  8
0
 62
     0
100
AcDbLine
 10
217.883
 20
22.7762
 30
0.0
 11
217.883
 21
8.776719999999999
 31
0.0
  0
LINE
  5
193
330
6F
100
AcDbEntity
  8
0
 62
     0
100
AcDbLine
 10
217.883
 20
8.776719999999999
 30
0.0
 11
203.882
 21
8.776719999999999
 31
0.0
  0
LINE
  5
194
330
6F
100
AcDbEntity
  8
0
 62
     0
100
AcDbLine
 10
203.882
 20
8.776719999999999
 30
0.0
 11
203.882
 21
22.7762
 31
0.0
  0
LINE
  5
195
330
6F
100
AcDbEntity
  8
0
 62
     0
100
AcDbLine
 10
146.732
 20
22.7762
 30
0.0
 11
160.733
 21
22.7762
 31
0.0
  0
LINE
  5
196
330
6F
100
AcDbEntity
  8
0
 62
     0
100
AcDbLine
 10
160.733
 20
22.7762
 30
0.0
 11
160.733
 21
8.776719999999999
 31
0.0
  0
LINE
  5
197
330
6F
100
AcDbEntity
  8
0
 62
     0
100
AcDbLine
 10
160.733
 20
8.776719999999999
 30
0.0
 11
146.732
 21
8.776719999999999
 31
0.0
  0
LINE
  5
198
330
6F
100
AcDbEntity
  8
0
 62
     0
100
AcDbLine
 10
146.732
 20
8.776719999999999
 30
0.0
 11
146.732
 21
22.7762
 31
0.0
  0
LINE
  5
199
330
6F
100
AcDbEntity
  8
0
 62
     0
100
AcDbLine
 10
127.682
 20
22.7762
 30
0.0
 11
141.683
 21
22.7762
 31
0.0
  0
LINE
  5
19A
330
6F
100
AcDbEntity
  8
0
 62
     0
100
AcDbLine
 10
141.683
 20
22.7762
 30
0.0
 11
141.683
 21
8.776719999999999
 31
0.0
  0
LINE
  5
19B
330
6F
100
AcDbEntity
  8
0
 62
     0
100
AcDbLine
 10
141.683
 20
8.776719999999999
 30
0.0
 11
127.682
 21
8.776719999999999
 31
0.0
  0
LINE
  5
19C
330
6F
100
AcDbEntity
  8
0
 62
     0
100
AcDbLine
 10
127.682
 20
8.776719999999999
 30
0.0
 11
127.682
 21
22.7762
 31
0.0
  0
LINE
  5
19D
330
6F
100
AcDbEntity
  8
0
 62
     0
100
AcDbLine
 10
108.632
 20
22.7762
 30
0.0
 11
122.633
 21
22.7762
 31
0.0
  0
LINE
  5
19E
330
6F
100
AcDbEntity
  8
0
 62
     0
100
AcDbLine
 10
122.633
 20
22.7762
 30
0.0
 11
122.633
 21
8.776719999999999
 31
0.0
  0
LINE
  5
19F
330
6F
100
AcDbEntity
  8
0
 62
     0
100
AcDbLine
 10
122.633
 20
8.776719999999999
 30
0.0
 11
108.632
 21
8.776719999999999
 31
0.0
  0
LINE
  5
1A0
330
6F
100
AcDbEntity
  8
0
 62
     0
100
AcDbLine
 10
108.632
 20
8.776719999999999
 30
0.0
 11
108.632
 21
22.7762
 31
0.0
  0
LINE
  5
1A1
330
6F
100
AcDbEntity
  8
0
 62
     0
100
AcDbLine
 10
51.4823
 20
22.7762
 30
0.0
 11
65.48300000000001
 21
22.7762
 31
0.0
  0
LINE
  5
1A2
330
6F
100
AcDbEntity
  8
0
 62
     0
100
AcDbLine
 10
65.48300000000001
 20
22.7762
 30
0.0
 11
65.48300000000001
 21
8.776719999999999
 31
0.0
  0
LINE
  5
1A3
330
6F
100
AcDbEntity
  8
0
 62
     0
100
AcDbLine
 10
65.48300000000001
 20
8.776719999999999
 30
0.0
 11
51.4823
 21
8.776719999999999
 31
0.0
  0
LINE
  5
1A4
330
6F
100
AcDbEntity
  8
0
 62
     0
100
AcDbLine
 10
51.4823
 20
8.776719999999999
 30
0.0
 11
51.4823
 21
22.7762
 31
0.0
  0
LINE
  5
1A5
330
6F
100
AcDbEntity
  8
0
 62
     0
100
AcDbLine
 10
32.4321
 20
22.7762
 30
0.0
 11
46.43299999999999
 21
22.7762
 31
0.0
  0
LINE
  5
1A6
330
6F
100
AcDbEntity
  8
0
 62
     0
100
AcDbLine
 10
46.43299999999999
 20
22.7762
 30
0.0
 11
46.43299999999999
 21
8.776719999999999
 31
0.0
  0
LINE
  5
1A7
330
6F
100
AcDbEntity
  8
0
 62
     0
100
AcDbLine
 10
46.43299999999999
 20
8.776719999999999
 30
0.0
 11
32.4321
 21
8.776719999999999
 31
0.0
  0
LINE
  5
1A8
330
6F
100
AcDbEntity
  8
0
 62
     0
100
AcDbLine
 10
32.4321
 20
8.776719999999999
 30
0.0
 11
32.4321
 21
22.7762
 31
0.0
  0
LINE
  5
1A9
330
6F
100
AcDbEntity
  8
0
 62
     0
100
AcDbLine
 10
11.0009
 20
22.7762
 30
0.0
 11
25.0017
 21
22.7762
 31
0.0
  0
LINE
  5
1AA
330
6F
100
AcDbEntity
  8
0
 62
     0
100
AcDbLine
 10
25.0017
 20
22.7762
 30
0.0
 11
25.0017
 21
8.776719999999999
 31
0.0
  0
LINE
  5
1AB
330
6F
100
AcDbEntity
  8
0
 62
     0
100
AcDbLine
 10
25.0017
 20
8.776719999999999
 30
0.0
 11
11.0009
 21
8.776719999999999
 31
0.0
  0
LINE
  5
1AC
330
6F
100
AcDbEntity
  8
0
 62
     0
100
AcDbLine
 10
11.0009
 20
8.776719999999999
 30
0.0
 11
11.0009
 21
22.7762
 31
0.0
  0
LINE
  5
1AD
330
6F
100
AcDbEntity
  8
0
 62
     0
100
AcDbLine
 10
258.651
 20
41.8264
 30
0.0
 11
258.651
 21
37.127
 31
0.0
  0
LINE
  5
1AE
330
6F
100
AcDbEntity
  8
0
 62
     0
100
AcDbLine
 10
258.651
 20
37.127
 30
0.0
 11
257.127
 21
37.127
 31
0.0
  0
LINE
  5
1AF
330
6F
100
AcDbEntity
  8
0
 62
     0
100
AcDbLine
 10
257.127
 20
37.127
 30
0.0
 11
257.127
 21
40.3571
 31
0.0
  0
LINE
  5
1B0
330
6F
100
AcDbEntity
  8
0
 62
     0
100
AcDbLine
 10
257.127
 20
40.3571
 30
0.0
 11
255.4
 21
40.3571
 31
0.0
  0
LINE
  5
1B1
330
6F
100
AcDbEntity
  8
0
 62
     0
100
AcDbLine
 10
255.4
 20
40.3571
 30
0.0
 11
255.4
 21
41.2764
 31
0.0
  0
LINE
  5
1B2
330
6F
100
AcDbEntity
  8
0
 62
     0
100
AcDbLine
 10
255.4
 20
41.2764
 30
0.0
 11
252.101
 21
41.2764
 31
0.0
  0
LINE
  5
1B3
330
6F
100
AcDbEntity
  8
0
 62
     0
100
AcDbLine
 10
252.101
 20
41.2764
 30
0.0
 11
252.101
 21
40.3571
 31
0.0
  0
LINE
  5
1B4
330
6F
100
AcDbEntity
  8
0
 62
     0
100
AcDbLine
 10
252.101
 20
40.3571
 30
0.0
 11
250.377
 21
40.3571
 31
0.0
  0
LINE
  5
1B5
330
6F
100
AcDbEntity
  8
0
 62
     0
100
AcDbLine
 10
250.377
 20
40.3571
 30
0.0
 11
250.377
 21
37.127
 31
0.0
  0
LINE
  5
1B6
330
6F
100
AcDbEntity
  8
0
 62
     0
100
AcDbLine
 10
250.377
 20
37.127
 30
0.0
 11
249.552
 21
37.127
 31
0.0
  0
LINE
  5
1B7
330
6F
100
AcDbEntity
  8
0
 62
     0
100
AcDbLine
 10
249.552
 20
37.127
 30
0.0
 11
249.552
 21
34.3269
 31
0.0
  0
LINE
  5
1B8
330
6F
100
AcDbEntity
  8
0
 62
     0
100
AcDbLine
 10
249.552
 20
34.3269
 30
0.0
 11
250.377
 21
34.3269
 31
0.0
  0
LINE
  5
1B9
330
6F
100
AcDbEntity
  8
0
 62
     0
100
AcDbLine
 10
250.377
 20
34.3269
 30
0.0
 11
250.377
 21
28.0569
 31
0.0
  0
LINE
  5
1BA
330
6F
100
AcDbEntity
  8
0
 62
     0
100
AcDbLine
 10
250.377
 20
28.0569
 30
0.0
 11
252.101
 21
28.0569
 31
0.0
  0
LINE
  5
1BB
330
6F
100
AcDbEntity
  8
0
 62
     0
100
AcDbLine
 10
252.101
 20
28.0569
 30
0.0
 11
252.101
 21
27.0771
 31
0.0
  0
LINE
  5
1BC
330
6F
100
AcDbEntity
  8
0
 62
     0
100
AcDbLine
 10
252.101
 20
27.0771
 30
0.0
 11
255.4
 21
27.0771
 31
0.0
  0
LINE
  5
1BD
330
6F
100
AcDbEntity
  8
0
 62
     0
100
AcDbLine
 10
255.4
 20
27.0771
 30
0.0
 11
255.4
 21
28.0569
 31
0.0
  0
LINE
  5
1BE
330
6F
100
AcDbEntity
  8
0
 62
     0
100
AcDbLine
 10
255.4
 20
28.0569
 30
0.0
 11
257.127
 21
28.0569
 31
0.0
  0
LINE
  5
1BF
330
6F
100
AcDbEntity
  8
0
 62
     0
100
AcDbLine
 10
257.127
 20
28.0569
 30
0.0
 11
257.127
 21
32.5272
 31
0.0
  0
LINE
  5
1C0
330
6F
100
AcDbEntity
  8
0
 62
     0
100
AcDbLine
 10
257.127
 20
32.5272
 30
0.0
 11
258.651
 21
32.5272
 31
0.0
  0
LINE
  5
1C1
330
6F
100
AcDbEntity
  8
0
 62
     0
100
AcDbLine
 10
258.651
 20
32.5272
 30
0.0
 11
258.651
 21
27.8267
 31
0.0
  0
LINE
  5
1C2
330
6F
100
AcDbEntity
  8
0
 62
     0
100
AcDbLine
 10
258.651
 20
27.8267
 30
0.0
 11
272.652
 21
27.8267
 31
0.0
  0
LINE
  5
1C3
330
6F
100
AcDbEntity
  8
0
 62
     0
100
AcDbLine
 10
272.652
 20
27.8267
 30
0.0
 11
272.652
 21
32.5272
 31
0.0
  0
LINE
  5
1C4
330
6F
100
AcDbEntity
  8
0
 62
     0
100
AcDbLine
 10
272.652
 20
32.5272
 30
0.0
 11
274.176
 21
32.5272
 31
0.0
  0
LINE
  5
1C5
330
6F
100
AcDbEntity
  8
0
 62
     0
100
AcDbLine
 10
274.176
 20
32.5272
 30
0.0
 11
274.176
 21
28.0569
 31
0.0
  0
LINE
  5
1C6
330
6F
100
AcDbEntity
  8
0
 62
     0
100
AcDbLine
 10
274.176
 20
28.0569
 30
0.0
 11
275.901
 21
28.0569
 31
0.0
  0
LINE
  5
1C7
330
6F
100
AcDbEntity
  8
0
 62
     0
100
AcDbLine
 10
275.901
 20
28.0569
 30
0.0
 11
275.901
 21
27.0771
 31
0.0
  0
LINE
  5
1C8
330
6F
100
AcDbEntity
  8
0
 62
     0
100
AcDbLine
 10
275.901
 20
27.0771
 30
0.0
 11
279.202
 21
27.0771
 31
0.0
  0
LINE
  5
1C9
330
6F
100
AcDbEntity
  8
0
 62
     0
100
AcDbLine
 10
279.202
 20
27.0771
 30
0.0
 11
279.202
 21
28.0569
 31
0.0
  0
LINE
  5
1CA
330
6F
100
AcDbEntity
  8
0
 62
     0
100
AcDbLine
 10
279.202
 20
28.0569
 30
0.0
 11
280.927
 21
28.0569
 31
0.0
  0
LINE
  5
1CB
330
6F
100
AcDbEntity
  8
0
 62
     0
100
AcDbLine
 10
280.927
 20
28.0569
 30
0.0
 11
280.927
 21
34.3269
 31
0.0
  0
LINE
  5
1CC
330
6F
100
AcDbEntity
  8
0
 62
     0
100
AcDbLine
 10
280.927
 20
34.3269
 30
0.0
 11
281.751
 21
34.3269
 31
0.0
  0
LINE
  5
1CD
330
6F
100
AcDbEntity
  8
0
 62
     0
100
AcDbLine
 10
281.751
 20
34.3269
 30
0.0
 11
281.751
 21
37.127
 31
0.0
  0
LINE
  5
1CE
330
6F
100
AcDbEntity
  8
0
 62
     0
100
AcDbLine
 10
281.751
 20
37.127
 30
0.0
 11
280.927
 21
37.127
 31
0.0
  0
LINE
  5
1CF
330
6F
100
AcDbEntity
  8
0
 62
     0
100
AcDbLine
 10
280.927
 20
37.127
 30
0.0
 11
280.927
 21
40.3571
 31
0.0
  0
LINE
  5
1D0
330
6F
100
AcDbEntity
  8
0
 62
     0
100
AcDbLine
 10
280.927
 20
40.3571
 30
0.0
 11
279.202
 21
40.3571
 31
0.0
  0
LINE
  5
1D1
330
6F
100
AcDbEntity
  8
0
 62
     0
100
AcDbLine
 10
279.202
 20
40.3571
 30
0.0
 11
279.202
 21
41.2764
 31
0.0
  0
LINE
  5
1D2
330
6F
100
AcDbEntity
  8
0
 62
     0
100
AcDbLine
 10
279.202
 20
41.2764
 30
0.0
 11
275.901
 21
41.2764
 31
0.0
  0
LINE
  5
1D3
330
6F
100
AcDbEntity
  8
0
 62
     0
100
AcDbLine
 10
275.901
 20
41.2764
 30
0.0
 11
275.901
 21
40.3571
 31
0.0
  0
LINE
  5
1D4
330
6F
100
AcDbEntity
  8
0
 62
     0
100
AcDbLine
 10
275.901
 20
40.3571
 30
0.0
 11
274.176
 21
40.3571
 31
0.0
  0
LINE
  5
1D5
330
6F
100
AcDbEntity
  8
0
 62
     0
100
AcDbLine
 10
274.176
 20
40.3571
 30
0.0
 11
274.176
 21
37.127
 31
0.0
  0
LINE
  5
1D6
330
6F
100
AcDbEntity
  8
0
 62
     0
100
AcDbLine
 10
274.176
 20
37.127
 30
0.0
 11
272.652
 21
37.127
 31
0.0
  0
LINE
  5
1D7
330
6F
100
AcDbEntity
  8
0
 62
     0
100
AcDbLine
 10
272.652
 20
37.127
 30
0.0
 11
272.652
 21
41.8264
 31
0.0
  0
LINE
  5
1D8
330
6F
100
AcDbEntity
  8
0
 62
     0
100
AcDbLine
 10
272.652
 20
41.8264
 30
0.0
 11
258.651
 21
41.8264
 31
0.0
  0
LINE
  5
1D9
330
6F
100
AcDbEntity
  8
0
 62
     0
100
AcDbLine
 10
20.5259
 20
41.8264
 30
0.0
 11
20.5259
 21
37.127
 31
0.0
  0
LINE
  5
1DA
330
6F
100
AcDbEntity
  8
0
 62
     0
100
AcDbLine
 10
20.5259
 20
37.127
 30
0.0
 11
19.0018
 21
37.127
 31
0.0
  0
LINE
  5
1DB
330
6F
100
AcDbEntity
  8
0
 62
     0
100
AcDbLine
 10
19.0018
 20
37.127
 30
0.0
 11
19.0018
 21
40.3571
 31
0.0
  0
LINE
  5
1DC
330
6F
100
AcDbEntity
  8
0
 62
     0
100
AcDbLine
 10
19.0018
 20
40.3571
 30
0.0
 11
17.2765
 21
40.3571
 31
0.0
  0
LINE
  5
1DD
330
6F
100
AcDbEntity
  8
0
 62
     0
100
AcDbLine
 10
17.2765
 20
40.3571
 30
0.0
 11
17.2765
 21
41.2764
 31
0.0
  0
LINE
  5
1DE
330
6F
100
AcDbEntity
  8
0
 62
     0
100
AcDbLine
 10
17.2765
 20
41.2764
 30
0.0
 11
13.9761
 21
41.2764
 31
0.0
  0
LINE
  5
1DF
330
6F
100
AcDbEntity
  8
0
 62
     0
100
AcDbLine
 10
13.9761
 20
41.2764
 30
0.0
 11
13.9761
 21
40.3571
 31
0.0
  0
LINE
  5
1E0
330
6F
100
AcDbEntity
  8
0
 62
     0
100
AcDbLine
 10
13.9761
 20
40.3571
 30
0.0
 11
12.2521
 21
40.3571
 31
0.0
  0
LINE
  5
1E1
330
6F
100
AcDbEntity
  8
0
 62
     0
100
AcDbLine
 10
12.2521
 20
40.3571
 30
0.0
 11
12.2521
 21
37.127
 31
0.0
  0
LINE
  5
1E2
330
6F
100
AcDbEntity
  8
0
 62
     0
100
AcDbLine
 10
12.2521
 20
37.127
 30
0.0
 11
11.4267
 21
37.127
 31
0.0
  0
LINE
  5
1E3
330
6F
100
AcDbEntity
  8
0
 62
     0
100
AcDbLine
 10
11.4267
 20
37.127
 30
0.0
 11
11.4267
 21
34.3269
 31
0.0
  0
LINE
  5
1E4
330
6F
100
AcDbEntity
  8
0
 62
     0
100
AcDbLine
 10
11.4267
 20
34.3269
 30
0.0
 11
12.2521
 21
34.3269
 31
0.0
  0
LINE
  5
1E5
330
6F
100
AcDbEntity
  8
0
 62
     0
100
AcDbLine
 10
12.2521
 20
34.3269
 30
0.0
 11
12.2521
 21
28.0569
 31
0.0
  0
LINE
  5
1E6
330
6F
100
AcDbEntity
  8
0
 62
     0
100
AcDbLine
 10
12.2521
 20
28.0569
 30
0.0
 11
13.9761
 21
28.0569
 31
0.0
  0
LINE
  5
1E7
330
6F
100
AcDbEntity
  8
0
 62
     0
100
AcDbLine
 10
13.9761
 20
28.0569
 30
0.0
 11
13.9761
 21
27.0771
 31
0.0
  0
LINE
  5
1E8
330
6F
100
AcDbEntity
  8
0
 62
     0
100
AcDbLine
 10
13.9761
 20
27.0771
 30
0.0
 11
17.2765
 21
27.0771
 31
0.0
  0
LINE
  5
1E9
330
6F
100
AcDbEntity
  8
0
 62
     0
100
AcDbLine
 10
17.2765
 20
27.0771
 30
0.0
 11
17.2765
 21
28.0569
 31
0.0
  0
LINE
  5
1EA
330
6F
100
AcDbEntity
  8
0
 62
     0
100
AcDbLine
 10
17.2765
 20
28.0569
 30
0.0
 11
19.0018
 21
28.0569
 31
0.0
  0
LINE
  5
1EB
330
6F
100
AcDbEntity
  8
0
 62
     0
100
AcDbLine
 10
19.0018
 20
28.0569
 30
0.0
 11
19.0018
 21
32.5272
 31
0.0
  0
LINE
  5
1EC
330
6F
100
AcDbEntity
  8
0
 62
     0
100
AcDbLine
 10
19.0018
 20
32.5272
 30
0.0
 11
20.5259
 21
32.5272
 31
0.0
  0
LINE
  5
1ED
330
6F
100
AcDbEntity
  8
0
 62
     0
100
AcDbLine
 10
20.5259
 20
32.5272
 30
0.0
 11
20.5259
 21
27.8267
 31
0.0
  0
LINE
  5
1EE
330
6F
100
AcDbEntity
  8
0
 62
     0
100
AcDbLine
 10
20.5259
 20
27.8267
 30
0.0
 11
34.5267
 21
27.8267
 31
0.0
  0
LINE
  5
1EF
330
6F
100
AcDbEntity
  8
0
 62
     0
100
AcDbLine
 10
34.5267
 20
27.8267
 30
0.0
 11
34.5267
 21
32.5272
 31
0.0
  0
LINE
  5
1F0
330
6F
100
AcDbEntity
  8
0
 62
     0
100
AcDbLine
 10
34.5267
 20
32.5272
 30
0.0
 11
36.0507
 21
32.5272
 31
0.0
  0
LINE
  5
1F1
330
6F
100
AcDbEntity
  8
0
 62
     0
100
AcDbLine
 10
36.0507
 20
32.5272
 30
0.0
 11
36.0507
 21
28.0569
 31
0.0
  0
LINE
  5
1F2
330
6F
100
AcDbEntity
  8
0
 62
     0
100
AcDbLine
 10
36.0507
 20
28.0569
 30
0.0
 11
37.77620000000001
 21
28.0569
 31
0.0
  0
LINE
  5
1F3
330
6F
100
AcDbEntity
  8
0
 62
     0
100
AcDbLine
 10
37.77620000000001
 20
28.0569
 30
0.0
 11
37.77620000000001
 21
27.0771
 31
0.0
  0
LINE
  5
1F4
330
6F
100
AcDbEntity
  8
0
 62
     0
100
AcDbLine
 10
37.77620000000001
 20
27.0771
 30
0.0
 11
41.0767
 21
27.0771
 31
0.0
  0
LINE
  5
1F5
330
6F
100
AcDbEntity
  8
0
 62
     0
100
AcDbLine
 10
41.0767
 20
27.0771
 30
0.0
 11
41.0767
 21
28.0569
 31
0.0
  0
LINE
  5
1F6
330
6F
100
AcDbEntity
  8
0
 62
     0
100
AcDbLine
 10
41.0767
 20
28.0569
 30
0.0
 11
42.8018
 21
28.0569
 31
0.0
  0
LINE
  5
1F7
330
6F
100
AcDbEntity
  8
0
 62
     0
100
AcDbLine
 10
42.8018
 20
28.0569
 30
0.0
 11
42.8018
 21
34.3269
 31
0.0
  0
LINE
  5
1F8
330
6F
100
AcDbEntity
  8
0
 62
     0
100
AcDbLine
 10
42.8018
 20
34.3269
 30
0.0
 11
43.62589999999999
 21
34.3269
 31
0.0
  0
LINE
  5
1F9
330
6F
100
AcDbEntity
  8
0
 62
     0
100
AcDbLine
 10
43.62589999999999
 20
34.3269
 30
0.0
 11
43.62589999999999
 21
37.127
 31
0.0
  0
LINE
  5
1FA
330
6F
100
AcDbEntity
  8
0
 62
     0
100
AcDbLine
 10
43.62589999999999
 20
37.127
 30
0.0
 11
42.8018
 21
37.127
 31
0.0
  0
LINE
  5
1FB
330
6F
100
AcDbEntity
  8
0
 62
     0
100
AcDbLine
 10
42.8018
 20
37.127
 30
0.0
 11
42.8018
 21
40.3571
 31
0.0
  0
LINE
  5
1FC
330
6F
100
AcDbEntity
  8
0
 62
     0
100
AcDbLine
 10
42.8018
 20
40.3571
 30
0.0
 11
41.0767
 21
40.3571
 31
0.0
  0
LINE
  5
1FD
330
6F
100
AcDbEntity
  8
0
 62
     0
100
AcDbLine
 10
41.0767
 20
40.3571
 30
0.0
 11
41.0767
 21
41.2764
 31
0.0
  0
LINE
  5
1FE
330
6F
100
AcDbEntity
  8
0
 62
     0
100
AcDbLine
 10
41.0767
 20
41.2764
 30
0.0
 11
37.77620000000001
 21
41.2764
 31
0.0
  0
LINE
  5
1FF
330
6F
100
AcDbEntity
  8
0
 62
     0
100
AcDbLine
 10
37.77620000000001
 20
41.2764
 30
0.0
 11
37.77620000000001
 21
40.3571
 31
0.0
  0
LINE
  5
200
330
6F
100
AcDbEntity
  8
0
 62
     0
100
AcDbLine
 10
37.77620000000001
 20
40.3571
 30
0.0
 11
36.0507
 21
40.3571
 31
0.0
  0
LINE
  5
201
330
6F
100
AcDbEntity
  8
0
 62
     0
100
AcDbLine
 10
36.0507
 20
40.3571
 30
0.0
 11
36.0507
 21
37.127
 31
0.0
  0
LINE
  5
202
330
6F
100
AcDbEntity
  8
0
 62
     0
100
AcDbLine
 10
36.0507
 20
37.127
 30
0.0
 11
34.5267
 21
37.127
 31
0.0
  0
LINE
  5
203
330
6F
100
AcDbEntity
  8
0
 62
     0
100
AcDbLine
 10
34.5267
 20
37.127
 30
0.0
 11
34.5267
 21
41.8264
 31
0.0
  0
LINE
  5
204
330
6F
100
AcDbEntity
  8
0
 62
     0
100
AcDbLine
 10
34.5267
 20
41.8264
 30
0.0
 11
20.5259
 21
41.8264
 31
0.0
  0
LINE
  5
205
330
6F
100
AcDbEntity
  8
0
 62
     0
100
AcDbLine
 10
222.932
 20
41.8264
 30
0.0
 11
236.933
 21
41.8264
 31
0.0
  0
LINE
  5
206
330
6F
100
AcDbEntity
  8
0
 62
     0
100
AcDbLine
 10
236.933
 20
41.8264
 30
0.0
 11
236.933
 21
27.8267
 31
0.0
  0
LINE
  5
207
330
6F
100
AcDbEntity
  8
0
 62
     0
100
AcDbLine
 10
236.933
 20
27.8267
 30
0.0
 11
222.932
 21
27.8267
 31
0.0
  0
LINE
  5
208
330
6F
100
AcDbEntity
  8
0
 62
     0
100
AcDbLine
 10
222.932
 20
27.8267
 30
0.0
 11
222.932
 21
41.8264
 31
0.0
  0
LINE
  5
209
330
6F
100
AcDbEntity
  8
0
 62
     0
100
AcDbLine
 10
203.882
 20
41.8264
 30
0.0
 11
217.883
 21
41.8264
 31
0.0
  0
LINE
  5
20A
330
6F
100
AcDbEntity
  8
0
 62
     0
100
AcDbLine
 10
217.883
 20
41.8264
 30
0.0
 11
217.883
 21
27.8267
 31
0.0
  0
LINE
  5
20B
330
6F
100
AcDbEntity
  8
0
 62
     0
100
AcDbLine
 10
217.883
 20
27.8267
 30
0.0
 11
203.882
 21
27.8267
 31
0.0
  0
LINE
  5
20C
330
6F
100
AcDbEntity
  8
0
 62
     0
100
AcDbLine
 10
203.882
 20
27.8267
 30
0.0
 11
203.882
 21
41.8264
 31
0.0
  0
LINE
  5
20D
330
6F
100
AcDbEntity
  8
0
 62
     0
100
AcDbLine
 10
184.832
 20
41.8264
 30
0.0
 11
198.833
 21
41.8264
 31
0.0
  0
LINE
  5
20E
330
6F
100
AcDbEntity
  8
0
 62
     0
100
AcDbLine
 10
198.833
 20
41.8264
 30
0.0
 11
198.833
 21
27.8267
 31
0.0
  0
LINE
  5
20F
330
6F
100
AcDbEntity
  8
0
 62
     0
100
AcDbLine
 10
198.833
 20
27.8267
 30
0.0
 11
184.832
 21
27.8267
 31
0.0
  0
LINE
  5
210
330
6F
100
AcDbEntity
  8
0
 62
     0
100
AcDbLine
 10
184.832
 20
27.8267
 30
0.0
 11
184.832
 21
41.8264
 31
0.0
  0
LINE
  5
211
330
6F
100
AcDbEntity
  8
0
 62
     0
100
AcDbLine
 10
165.782
 20
41.8264
 30
0.0
 11
179.783
 21
41.8264
 31
0.0
  0
LINE
  5
212
330
6F
100
AcDbEntity
  8
0
 62
     0
100
AcDbLine
 10
179.783
 20
41.8264
 30
0.0
 11
179.783
 21
27.8267
 31
0.0
  0
LINE
  5
213
330
6F
100
AcDbEntity
  8
0
 62
     0
100
AcDbLine
 10
179.783
 20
27.8267
 30
0.0
 11
165.782
 21
27.8267
 31
0.0
  0
LINE
  5
214
330
6F
100
AcDbEntity
  8
0
 62
     0
100
AcDbLine
 10
165.782
 20
27.8267
 30
0.0
 11
165.782
 21
41.8264
 31
0.0
  0
LINE
  5
215
330
6F
100
AcDbEntity
  8
0
 62
     0
100
AcDbLine
 10
146.732
 20
41.8264
 30
0.0
 11
160.733
 21
41.8264
 31
0.0
  0
LINE
  5
216
330
6F
100
AcDbEntity
  8
0
 62
     0
100
AcDbLine
 10
160.733
 20
41.8264
 30
0.0
 11
160.733
 21
27.8267
 31
0.0
  0
LINE
  5
217
330
6F
100
AcDbEntity
  8
0
 62
     0
100
AcDbLine
 10
160.733
 20
27.8267
 30
0.0
 11
146.732
 21
27.8267
 31
0.0
  0
LINE
  5
218
330
6F
100
AcDbEntity
  8
0
 62
     0
100
AcDbLine
 10
146.732
 20
27.8267
 30
0.0
 11
146.732
 21
41.8264
 31
0.0
  0
LINE
  5
219
330
6F
100
AcDbEntity
  8
0
 62
     0
100
AcDbLine
 10
127.682
 20
41.8264
 30
0.0
 11
141.683
 21
41.8264
 31
0.0
  0
LINE
  5
21A
330
6F
100
AcDbEntity
  8
0
 62
     0
100
AcDbLine
 10
141.683
 20
41.8264
 30
0.0
 11
141.683
 21
27.8267
 31
0.0
  0
LINE
  5
21B
330
6F
100
AcDbEntity
  8
0
 62
     0
100
AcDbLine
 10
141.683
 20
27.8267
 30
0.0
 11
127.682
 21
27.8267
 31
0.0
  0
LINE
  5
21C
330
6F
100
AcDbEntity
  8
0
 62
     0
100
AcDbLine
 10
127.682
 20
27.8267
 30
0.0
 11
127.682
 21
41.8264
 31
0.0
  0
LINE
  5
21D
330
6F
100
AcDbEntity
  8
0
 62
     0
100
AcDbLine
 10
108.632
 20
41.8264
 30
0.0
 11
122.633
 21
41.8264
 31
0.0
  0
LINE
  5
21E
330
6F
100
AcDbEntity
  8
0
 62
     0
100
AcDbLine
 10
122.633
 20
41.8264
 30
0.0
 11
122.633
 21
27.8267
 31
0.0
  0
LINE
  5
21F
330
6F
100
AcDbEntity
  8
0
 62
     0
100
AcDbLine
 10
122.633
 20
27.8267
 30
0.0
 11
108.632
 21
27.8267
 31
0.0
  0
LINE
  5
220
330
6F
100
AcDbEntity
  8
0
 62
     0
100
AcDbLine
 10
108.632
 20
27.8267
 30
0.0
 11
108.632
 21
41.8264
 31
0.0
  0
LINE
  5
221
330
6F
100
AcDbEntity
  8
0
 62
     0
100
AcDbLine
 10
89.5823
 20
41.8264
 30
0.0
 11
103.583
 21
41.8264
 31
0.0
  0
LINE
  5
222
330
6F
100
AcDbEntity
  8
0
 62
     0
100
AcDbLine
 10
103.583
 20
41.8264
 30
0.0
 11
103.583
 21
27.8267
 31
0.0
  0
LINE
  5
223
330
6F
100
AcDbEntity
  8
0
 62
     0
100
AcDbLine
 10
103.583
 20
27.8267
 30
0.0
 11
89.5823
 21
27.8267
 31
0.0
  0
LINE
  5
224
330
6F
100
AcDbEntity
  8
0
 62
     0
100
AcDbLine
 10
89.5823
 20
27.8267
 30
0.0
 11
89.5823
 21
41.8264
 31
0.0
  0
LINE
  5
225
330
6F
100
AcDbEntity
  8
0
 62
     0
100
AcDbLine
 10
70.5323
 20
41.8264
 30
0.0
 11
84.53299999999998
 21
41.8264
 31
0.0
  0
LINE
  5
226
330
6F
100
AcDbEntity
  8
0
 62
     0
100
AcDbLine
 10
84.53299999999998
 20
41.8264
 30
0.0
 11
84.53299999999998
 21
27.8267
 31
0.0
  0
LINE
  5
227
330
6F
100
AcDbEntity
  8
0
 62
     0
100
AcDbLine
 10
84.53299999999998
 20
27.8267
 30
0.0
 11
70.5323
 21
27.8267
 31
0.0
  0
LINE
  5
228
330
6F
100
AcDbEntity
  8
0
 62
     0
100
AcDbLine
 10
70.5323
 20
27.8267
 30
0.0
 11
70.5323
 21
41.8264
 31
0.0
  0
LINE
  5
229
330
6F
100
AcDbEntity
  8
0
 62
     0
100
AcDbLine
 10
51.4823
 20
41.8264
 30
0.0
 11
65.48300000000001
 21
41.8264
 31
0.0
  0
LINE
  5
22A
330
6F
100
AcDbEntity
  8
0
 62
     0
100
AcDbLine
 10
65.48300000000001
 20
41.8264
 30
0.0
 11
65.48300000000001
 21
27.8267
 31
0.0
  0
LINE
  5
22B
330
6F
100
AcDbEntity
  8
0
 62
     0
100
AcDbLine
 10
65.48300000000001
 20
27.8267
 30
0.0
 11
51.4823
 21
27.8267
 31
0.0
  0
LINE
  5
22C
330
6F
100
AcDbEntity
  8
0
 62
     0
100
AcDbLine
 10
51.4823
 20
27.8267
 30
0.0
 11
51.4823
 21
41.8264
 31
0.0
  0
LINE
  5
22D
330
6F
100
AcDbEntity
  8
0
 62
     0
100
AcDbLine
 10
263.414
 20
60.8764
 30
0.0
 11
263.414
 21
56.177
 31
0.0
  0
LINE
  5
22E
330
6F
100
AcDbEntity
  8
0
 62
     0
100
AcDbLine
 10
263.414
 20
56.177
 30
0.0
 11
261.888
 21
56.177
 31
0.0
  0
LINE
  5
22F
330
6F
100
AcDbEntity
  8
0
 62
     0
100
AcDbLine
 10
261.888
 20
56.177
 30
0.0
 11
261.888
 21
59.4071
 31
0.0
  0
LINE
  5
230
330
6F
100
AcDbEntity
  8
0
 62
     0
100
AcDbLine
 10
261.888
 20
59.4071
 30
0.0
 11
260.164
 21
59.4071
 31
0.0
  0
LINE
  5
231
330
6F
100
AcDbEntity
  8
0
 62
     0
100
AcDbLine
 10
260.164
 20
59.4071
 30
0.0
 11
260.164
 21
60.3264
 31
0.0
  0
LINE
  5
232
330
6F
100
AcDbEntity
  8
0
 62
     0
100
AcDbLine
 10
260.164
 20
60.3264
 30
0.0
 11
256.862
 21
60.3264
 31
0.0
  0
LINE
  5
233
330
6F
100
AcDbEntity
  8
0
 62
     0
100
AcDbLine
 10
256.862
 20
60.3264
 30
0.0
 11
256.862
 21
59.4071
 31
0.0
  0
LINE
  5
234
330
6F
100
AcDbEntity
  8
0
 62
     0
100
AcDbLine
 10
256.862
 20
59.4071
 30
0.0
 11
255.138
 21
59.4071
 31
0.0
  0
LINE
  5
235
330
6F
100
AcDbEntity
  8
0
 62
     0
100
AcDbLine
 10
255.138
 20
59.4071
 30
0.0
 11
255.138
 21
56.177
 31
0.0
  0
LINE
  5
236
330
6F
100
AcDbEntity
  8
0
 62
     0
100
AcDbLine
 10
255.138
 20
56.177
 30
0.0
 11
254.313
 21
56.177
 31
0.0
  0
LINE
  5
237
330
6F
100
AcDbEntity
  8
0
 62
     0
100
AcDbLine
 10
254.313
 20
56.177
 30
0.0
 11
254.313
 21
53.37699999999999
 31
0.0
  0
LINE
  5
238
330
6F
100
AcDbEntity
  8
0
 62
     0
100
AcDbLine
 10
254.313
 20
53.37699999999999
 30
0.0
 11
255.138
 21
53.37699999999999
 31
0.0
  0
LINE
  5
239
330
6F
100
AcDbEntity
  8
0
 62
     0
100
AcDbLine
 10
255.138
 20
53.37699999999999
 30
0.0
 11
255.138
 21
47.1082
 31
0.0
  0
LINE
  5
23A
330
6F
100
AcDbEntity
  8
0
 62
     0
100
AcDbLine
 10
255.138
 20
47.1082
 30
0.0
 11
256.862
 21
47.1082
 31
0.0
  0
LINE
  5
23B
330
6F
100
AcDbEntity
  8
0
 62
     0
100
AcDbLine
 10
256.862
 20
47.1082
 30
0.0
 11
256.862
 21
46.12709999999999
 31
0.0
  0
LINE
  5
23C
330
6F
100
AcDbEntity
  8
0
 62
     0
100
AcDbLine
 10
256.862
 20
46.12709999999999
 30
0.0
 11
260.164
 21
46.12709999999999
 31
0.0
  0
LINE
  5
23D
330
6F
100
AcDbEntity
  8
0
 62
     0
100
AcDbLine
 10
260.164
 20
46.12709999999999
 30
0.0
 11
260.164
 21
47.1082
 31
0.0
  0
LINE
  5
23E
330
6F
100
AcDbEntity
  8
0
 62
     0
100
AcDbLine
 10
260.164
 20
47.1082
 30
0.0
 11
261.888
 21
47.1082
 31
0.0
  0
LINE
  5
23F
330
6F
100
AcDbEntity
  8
0
 62
     0
100
AcDbLine
 10
261.888
 20
47.1082
 30
0.0
 11
261.888
 21
51.5772
 31
0.0
  0
LINE
  5
240
330
6F
100
AcDbEntity
  8
0
 62
     0
100
AcDbLine
 10
261.888
 20
51.5772
 30
0.0
 11
263.414
 21
51.5772
 31
0.0
  0
LINE
  5
241
330
6F
100
AcDbEntity
  8
0
 62
     0
100
AcDbLine
 10
263.414
 20
51.5772
 30
0.0
 11
263.414
 21
46.8768
 31
0.0
  0
LINE
  5
242
330
6F
100
AcDbEntity
  8
0
 62
     0
100
AcDbLine
 10
263.414
 20
46.8768
 30
0.0
 11
277.413
 21
46.8768
 31
0.0
  0
LINE
  5
243
330
6F
100
AcDbEntity
  8
0
 62
     0
100
AcDbLine
 10
277.413
 20
46.8768
 30
0.0
 11
277.413
 21
51.5772
 31
0.0
  0
LINE
  5
244
330
6F
100
AcDbEntity
  8
0
 62
     0
100
AcDbLine
 10
277.413
 20
51.5772
 30
0.0
 11
278.938
 21
51.5772
 31
0.0
  0
LINE
  5
245
330
6F
100
AcDbEntity
  8
0
 62
     0
100
AcDbLine
 10
278.938
 20
51.5772
 30
0.0
 11
278.938
 21
47.1082
 31
0.0
  0
LINE
  5
246
330
6F
100
AcDbEntity
  8
0
 62
     0
100
AcDbLine
 10
278.938
 20
47.1082
 30
0.0
 11
280.664
 21
47.1082
 31
0.0
  0
LINE
  5
247
330
6F
100
AcDbEntity
  8
0
 62
     0
100
AcDbLine
 10
280.664
 20
47.1082
 30
0.0
 11
280.664
 21
46.12709999999999
 31
0.0
  0
LINE
  5
248
330
6F
100
AcDbEntity
  8
0
 62
     0
100
AcDbLine
 10
280.664
 20
46.12709999999999
 30
0.0
 11
283.964
 21
46.12709999999999
 31
0.0
  0
LINE
  5
249
330
6F
100
AcDbEntity
  8
0
 62
     0
100
AcDbLine
 10
283.964
 20
46.12709999999999
 30
0.0
 11
283.964
 21
47.1082
 31
0.0
  0
LINE
  5
24A
330
6F
100
AcDbEntity
  8
0
 62
     0
100
AcDbLine
 10
283.964
 20
47.1082
 30
0.0
 11
285.688
 21
47.1082
 31
0.0
  0
LINE
  5
24B
330
6F
100
AcDbEntity
  8
0
 62
     0
100
AcDbLine
 10
285.688
 20
47.1082
 30
0.0
 11
285.688
 21
53.37699999999999
 31
0.0
  0
LINE
  5
24C
330
6F
100
AcDbEntity
  8
0
 62
     0
100
AcDbLine
 10
285.688
 20
53.37699999999999
 30
0.0
 11
286.513
 21
53.37699999999999
 31
0.0
  0
LINE
  5
24D
330
6F
100
AcDbEntity
  8
0
 62
     0
100
AcDbLine
 10
286.513
 20
53.37699999999999
 30
0.0
 11
286.513
 21
56.177
 31
0.0
  0
LINE
  5
24E
330
6F
100
AcDbEntity
  8
0
 62
     0
100
AcDbLine
 10
286.513
 20
56.177
 30
0.0
 11
285.688
 21
56.177
 31
0.0
  0
LINE
  5
24F
330
6F
100
AcDbEntity
  8
0
 62
     0
100
AcDbLine
 10
285.688
 20
56.177
 30
0.0
 11
285.688
 21
59.4071
 31
0.0
  0
LINE
  5
250
330
6F
100
AcDbEntity
  8
0
 62
     0
100
AcDbLine
 10
285.688
 20
59.4071
 30
0.0
 11
283.964
 21
59.4071
 31
0.0
  0
LINE
  5
251
330
6F
100
AcDbEntity
  8
0
 62
     0
100
AcDbLine
 10
283.964
 20
59.4071
 30
0.0
 11
283.964
 21
60.3264
 31
0.0
  0
LINE
  5
252
330
6F
100
AcDbEntity
  8
0
 62
     0
100
AcDbLine
 10
283.964
 20
60.3264
 30
0.0
 11
280.664
 21
60.3264
 31
0.0
  0
LINE
  5
253
330
6F
100
AcDbEntity
  8
0
 62
     0
100
AcDbLine
 10
280.664
 20
60.3264
 30
0.0
 11
280.664
 21
59.4071
 31
0.0
  0
LINE
  5
254
330
6F
100
AcDbEntity
  8
0
 62
     0
100
AcDbLine
 10
280.664
 20
59.4071
 30
0.0
 11
278.938
 21
59.4071
 31
0.0
  0
LINE
  5
255
330
6F
100
AcDbEntity
  8
0
 62
     0
100
AcDbLine
 10
278.938
 20
59.4071
 30
0.0
 11
278.938
 21
56.177
 31
0.0
  0
LINE
  5
256
330
6F
100
AcDbEntity
  8
0
 62
     0
100
AcDbLine
 10
278.938
 20
56.177
 30
0.0
 11
277.413
 21
56.177
 31
0.0
  0
LINE
  5
257
330
6F
100
AcDbEntity
  8
0
 62
     0
100
AcDbLine
 10
277.413
 20
56.177
 30
0.0
 11
277.413
 21
60.8764
 31
0.0
  0
LINE
  5
258
330
6F
100
AcDbEntity
  8
0
 62
     0
100
AcDbLine
 10
277.413
 20
60.8764
 30
0.0
 11
263.414
 21
60.8764
 31
0.0
  0
LINE
  5
259
330
6F
100
AcDbEntity
  8
0
 62
     0
100
AcDbLine
 10
232.457
 20
60.8764
 30
0.0
 11
246.458
 21
60.8764
 31
0.0
  0
LINE
  5
25A
330
6F
100
AcDbEntity
  8
0
 62
     0
100
AcDbLine
 10
246.458
 20
60.8764
 30
0.0
 11
246.458
 21
46.8768
 31
0.0
  0
LINE
  5
25B
330
6F
100
AcDbEntity
  8
0
 62
     0
100
AcDbLine
 10
246.458
 20
46.8768
 30
0.0
 11
232.457
 21
46.8768
 31
0.0
  0
LINE
  5
25C
330
6F
100
AcDbEntity
  8
0
 62
     0
100
AcDbLine
 10
232.457
 20
46.8768
 30
0.0
 11
232.457
 21
60.8764
 31
0.0
  0
LINE
  5
25D
330
6F
100
AcDbEntity
  8
0
 62
     0
100
AcDbLine
 10
213.407
 20
60.8764
 30
0.0
 11
227.408
 21
60.8764
 31
0.0
  0
LINE
  5
25E
330
6F
100
AcDbEntity
  8
0
 62
     0
100
AcDbLine
 10
227.408
 20
60.8764
 30
0.0
 11
227.408
 21
46.8768
 31
0.0
  0
LINE
  5
25F
330
6F
100
AcDbEntity
  8
0
 62
     0
100
AcDbLine
 10
227.408
 20
46.8768
 30
0.0
 11
213.407
 21
46.8768
 31
0.0
  0
LINE
  5
260
330
6F
100
AcDbEntity
  8
0
 62
     0
100
AcDbLine
 10
213.407
 20
46.8768
 30
0.0
 11
213.407
 21
60.8764
 31
0.0
  0
LINE
  5
261
330
6F
100
AcDbEntity
  8
0
 62
     0
100
AcDbLine
 10
194.357
 20
60.8764
 30
0.0
 11
208.358
 21
60.8764
 31
0.0
  0
LINE
  5
262
330
6F
100
AcDbEntity
  8
0
 62
     0
100
AcDbLine
 10
208.358
 20
60.8764
 30
0.0
 11
208.358
 21
46.8768
 31
0.0
  0
LINE
  5
263
330
6F
100
AcDbEntity
  8
0
 62
     0
100
AcDbLine
 10
208.358
 20
46.8768
 30
0.0
 11
194.357
 21
46.8768
 31
0.0
  0
LINE
  5
264
330
6F
100
AcDbEntity
  8
0
 62
     0
100
AcDbLine
 10
194.357
 20
46.8768
 30
0.0
 11
194.357
 21
60.8764
 31
0.0
  0
LINE
  5
265
330
6F
100
AcDbEntity
  8
0
 62
     0
100
AcDbLine
 10
175.307
 20
60.8764
 30
0.0
 11
189.308
 21
60.8764
 31
0.0
  0
LINE
  5
266
330
6F
100
AcDbEntity
  8
0
 62
     0
100
AcDbLine
 10
189.308
 20
60.8764
 30
0.0
 11
189.308
 21
46.8768
 31
0.0
  0
LINE
  5
267
330
6F
100
AcDbEntity
  8
0
 62
     0
100
AcDbLine
 10
189.308
 20
46.8768
 30
0.0
 11
175.307
 21
46.8768
 31
0.0
  0
LINE
  5
268
330
6F
100
AcDbEntity
  8
0
 62
     0
100
AcDbLine
 10
175.307
 20
46.8768
 30
0.0
 11
175.307
 21
60.8764
 31
0.0
  0
LINE
  5
269
330
6F
100
AcDbEntity
  8
0
 62
     0
100
AcDbLine
 10
156.257
 20
60.8764
 30
0.0
 11
170.258
 21
60.8764
 31
0.0
  0
LINE
  5
26A
330
6F
100
AcDbEntity
  8
0
 62
     0
100
AcDbLine
 10
170.258
 20
60.8764
 30
0.0
 11
170.258
 21
46.8768
 31
0.0
  0
LINE
  5
26B
330
6F
100
AcDbEntity
  8
0
 62
     0
100
AcDbLine
 10
170.258
 20
46.8768
 30
0.0
 11
156.257
 21
46.8768
 31
0.0
  0
LINE
  5
26C
330
6F
100
AcDbEntity
  8
0
 62
     0
100
AcDbLine
 10
156.257
 20
46.8768
 30
0.0
 11
156.257
 21
60.8764
 31
0.0
  0
LINE
  5
26D
330
6F
100
AcDbEntity
  8
0
 62
     0
100
AcDbLine
 10
137.207
 20
60.8764
 30
0.0
 11
151.208
 21
60.8764
 31
0.0
  0
LINE
  5
26E
330
6F
100
AcDbEntity
  8
0
 62
     0
100
AcDbLine
 10
151.208
 20
60.8764
 30
0.0
 11
151.208
 21
46.8768
 31
0.0
  0
LINE
  5
26F
330
6F
100
AcDbEntity
  8
0
 62
     0
100
AcDbLine
 10
151.208
 20
46.8768
 30
0.0
 11
137.207
 21
46.8768
 31
0.0
  0
LINE
  5
270
330
6F
100
AcDbEntity
  8
0
 62
     0
100
AcDbLine
 10
137.207
 20
46.8768
 30
0.0
 11
137.207
 21
60.8764
 31
0.0
  0
LINE
  5
271
330
6F
100
AcDbEntity
  8
0
 62
     0
100
AcDbLine
 10
118.157
 20
60.8764
 30
0.0
 11
132.158
 21
60.8764
 31
0.0
  0
LINE
  5
272
330
6F
100
AcDbEntity
  8
0
 62
     0
100
AcDbLine
 10
132.158
 20
60.8764
 30
0.0
 11
132.158
 21
46.8768
 31
0.0
  0
LINE
  5
273
330
6F
100
AcDbEntity
  8
0
 62
     0
100
AcDbLine
 10
132.158
 20
46.8768
 30
0.0
 11
118.157
 21
46.8768
 31
0.0
  0
LINE
  5
274
330
6F
100
AcDbEntity
  8
0
 62
     0
100
AcDbLine
 10
118.157
 20
46.8768
 30
0.0
 11
118.157
 21
60.8764
 31
0.0
  0
LINE
  5
275
330
6F
100
AcDbEntity
  8
0
 62
     0
100
AcDbLine
 10
99.1073
 20
60.8764
 30
0.0
 11
113.108
 21
60.8764
 31
0.0
  0
LINE
  5
276
330
6F
100
AcDbEntity
  8
0
 62
     0
100
AcDbLine
 10
113.108
 20
60.8764
 30
0.0
 11
113.108
 21
46.8768
 31
0.0
  0
LINE
  5
277
330
6F
100
AcDbEntity
  8
0
 62
     0
100
AcDbLine
 10
113.108
 20
46.8768
 30
0.0
 11
99.1073
 21
46.8768
 31
0.0
  0
LINE
  5
278
330
6F
100
AcDbEntity
  8
0
 62
     0
100
AcDbLine
 10
99.1073
 20
46.8768
 30
0.0
 11
99.1073
 21
60.8764
 31
0.0
  0
LINE
  5
279
330
6F
100
AcDbEntity
  8
0
 62
     0
100
AcDbLine
 10
80.05729999999999
 20
60.8764
 30
0.0
 11
94.05799999999999
 21
60.8764
 31
0.0
  0
LINE
  5
27A
330
6F
100
AcDbEntity
  8
0
 62
     0
100
AcDbLine
 10
94.05799999999999
 20
60.8764
 30
0.0
 11
94.05799999999999
 21
46.8768
 31
0.0
  0
LINE
  5
27B
330
6F
100
AcDbEntity
  8
0
 62
     0
100
AcDbLine
 10
94.05799999999999
 20
46.8768
 30
0.0
 11
80.05729999999999
 21
46.8768
 31
0.0
  0
LINE
  5
27C
330
6F
100
AcDbEntity
  8
0
 62
     0
100
AcDbLine
 10
80.05729999999999
 20
46.8768
 30
0.0
 11
80.05729999999999
 21
60.8764
 31
0.0
  0
LINE
  5
27D
330
6F
100
AcDbEntity
  8
0
 62
     0
100
AcDbLine
 10
61.0073
 20
60.8764
 30
0.0
 11
75.00799999999999
 21
60.8764
 31
0.0
  0
LINE
  5
27E
330
6F
100
AcDbEntity
  8
0
 62
     0
100
AcDbLine
 10
75.00799999999999
 20
60.8764
 30
0.0
 11
75.00799999999999
 21
46.8768
 31
0.0
  0
LINE
  5
27F
330
6F
100
AcDbEntity
  8
0
 62
     0
100
AcDbLine
 10
75.00799999999999
 20
46.8768
 30
0.0
 11
61.0073
 21
46.8768
 31
0.0
  0
LINE
  5
280
330
6F
100
AcDbEntity
  8
0
 62
     0
100
AcDbLine
 10
61.0073
 20
46.8768
 30
0.0
 11
61.0073
 21
60.8764
 31
0.0
  0
LINE
  5
281
330
6F
100
AcDbEntity
  8
0
 62
     0
100
AcDbLine
 10
41.9573
 20
60.8764
 30
0.0
 11
55.958
 21
60.8764
 31
0.0
  0
LINE
  5
282
330
6F
100
AcDbEntity
  8
0
 62
     0
100
AcDbLine
 10
55.958
 20
60.8764
 30
0.0
 11
55.958
 21
46.8768
 31
0.0
  0
LINE
  5
283
330
6F
100
AcDbEntity
  8
0
 62
     0
100
AcDbLine
 10
55.958
 20
46.8768
 30
0.0
 11
41.9573
 21
46.8768
 31
0.0
  0
LINE
  5
284
330
6F
100
AcDbEntity
  8
0
 62
     0
100
AcDbLine
 10
41.9573
 20
46.8768
 30
0.0
 11
41.9573
 21
60.8764
 31
0.0
  0
LINE
  5
285
330
6F
100
AcDbEntity
  8
0
 62
     0
100
AcDbLine
 10
15.7634
 20
60.8764
 30
0.0
 11
29.7629
 21
60.8764
 31
0.0
  0
LINE
  5
286
330
6F
100
AcDbEntity
  8
0
 62
     0
100
AcDbLine
 10
29.7629
 20
60.8764
 30
0.0
 11
29.7629
 21
46.8768
 31
0.0
  0
LINE
  5
287
330
6F
100
AcDbEntity
  8
0
 62
     0
100
AcDbLine
 10
29.7629
 20
46.8768
 30
0.0
 11
15.7634
 21
46.8768
 31
0.0
  0
LINE
  5
288
330
6F
100
AcDbEntity
  8
0
 62
     0
100
AcDbLine
 10
15.7634
 20
46.8768
 30
0.0
 11
15.7634
 21
60.8764
 31
0.0
  0
LINE
  5
289
330
6F
100
AcDbEntity
  8
0
 62
     0
100
AcDbLine
 10
2.756079999999999
 20
54.92329999999999
 30
0.0
 11
2.448779999999999
 21
54.76729999999999
 31
0.0
  0
LINE
  5
28A
330
6F
100
AcDbEntity
  8
0
 62
     0
100
AcDbLine
 10
2.448779999999999
 20
54.76729999999999
 30
0.0
 11
2.20486
 21
54.5236
 31
0.0
  0
LINE
  5
28B
330
6F
100
AcDbEntity
  8
0
 62
     0
100
AcDbLine
 10
2.20486
 20
54.5236
 30
0.0
 11
2.049139999999999
 21
54.2163
 31
0.0
  0
LINE
  5
28C
330
6F
100
AcDbEntity
  8
0
 62
     0
100
AcDbLine
 10
2.049139999999999
 20
54.2163
 30
0.0
 11
1.9954
 21
53.8773
 31
0.0
  0
LINE
  5
28D
330
6F
100
AcDbEntity
  8
0
 62
     0
100
AcDbLine
 10
1.9954
 20
53.8773
 30
0.0
 11
2.049139999999999
 21
53.5368
 31
0.0
  0
LINE
  5
28E
330
6F
100
AcDbEntity
  8
0
 62
     0
100
AcDbLine
 10
2.049139999999999
 20
53.5368
 30
0.0
 11
2.20486
 21
53.2296
 31
0.0
  0
LINE
  5
28F
330
6F
100
AcDbEntity
  8
0
 62
     0
100
AcDbLine
 10
2.20486
 20
53.2296
 30
0.0
 11
2.448779999999999
 21
52.9869
 31
0.0
  0
LINE
  5
290
330
6F
100
AcDbEntity
  8
0
 62
     0
100
AcDbLine
 10
2.448779999999999
 20
52.9869
 30
0.0
 11
2.756079999999999
 21
52.83129999999999
 31
0.0
  0
LINE
  5
291
330
6F
100
AcDbEntity
  8
0
 62
     0
100
AcDbLine
 10
2.756079999999999
 20
52.83129999999999
 30
0.0
 11
3.09507
 21
52.7763
 31
0.0
  0
LINE
  5
292
330
6F
100
AcDbEntity
  8
0
 62
     0
100
AcDbLine
 10
3.09507
 20
52.7763
 30
0.0
 11
3.434069999999999
 21
52.83129999999999
 31
0.0
  0
LINE
  5
293
330
6F
100
AcDbEntity
  8
0
 62
     0
100
AcDbLine
 10
3.434069999999999
 20
52.83129999999999
 30
0.0
 11
3.74138
 21
52.9869
 31
0.0
  0
LINE
  5
294
330
6F
100
AcDbEntity
  8
0
 62
     0
100
AcDbLine
 10
3.74138
 20
52.9869
 30
0.0
 11
3.983919999999999
 21
53.2296
 31
0.0
  0
LINE
  5
295
330
6F
100
AcDbEntity
  8
0
 62
     0
100
AcDbLine
 10
3.983919999999999
 20
53.2296
 30
0.0
 11
4.141009999999999
 21
53.5368
 31
0.0
  0
LINE
  5
296
330
6F
100
AcDbEntity
  8
0
 62
     0
100
AcDbLine
 10
4.141009999999999
 20
53.5368
 30
0.0
 11
4.196119999999999
 21
53.8773
 31
0.0
  0
LINE
  5
297
330
6F
100
AcDbEntity
  8
0
 62
     0
100
AcDbLine
 10
4.196119999999999
 20
53.8773
 30
0.0
 11
4.141009999999999
 21
54.2163
 31
0.0
  0
LINE
  5
298
330
6F
100
AcDbEntity
  8
0
 62
     0
100
AcDbLine
 10
4.141009999999999
 20
54.2163
 30
0.0
 11
3.983919999999999
 21
54.5236
 31
0.0
  0
LINE
  5
299
330
6F
100
AcDbEntity
  8
0
 62
     0
100
AcDbLine
 10
3.983919999999999
 20
54.5236
 30
0.0
 11
3.74138
 21
54.76729999999999
 31
0.0
  0
LINE
  5
29A
330
6F
100
AcDbEntity
  8
0
 62
     0
100
AcDbLine
 10
3.74138
 20
54.76729999999999
 30
0.0
 11
3.434069999999999
 21
54.92329999999999
 31
0.0
  0
LINE
  5
29B
330
6F
100
AcDbEntity
  8
0
 62
     0
100
AcDbLine
 10
3.434069999999999
 20
54.92329999999999
 30
0.0
 11
3.09507
 21
54.9769
 31
0.0
  0
LINE
  5
29C
330
6F
100
AcDbEntity
  8
0
 62
     0
100
AcDbLine
 10
3.09507
 20
54.9769
 30
0.0
 11
2.756079999999999
 21
54.92329999999999
 31
0.0
  0
LINE
  5
29D
330
6F
100
AcDbEntity
  8
0
 62
     0
100
AcDbLine
 10
294.506
 20
54.92329999999999
 30
0.0
 11
294.2
 21
54.76729999999999
 31
0.0
  0
LINE
  5
29E
330
6F
100
AcDbEntity
  8
0
 62
     0
100
AcDbLine
 10
294.2
 20
54.76729999999999
 30
0.0
 11
293.956
 21
54.5236
 31
0.0
  0
LINE
  5
29F
330
6F
100
AcDbEntity
  8
0
 62
     0
100
AcDbLine
 10
293.956
 20
54.5236
 30
0.0
 11
293.799
 21
54.2163
 31
0.0
  0
LINE
  5
2A0
330
6F
100
AcDbEntity
  8
0
 62
     0
100
AcDbLine
 10
293.799
 20
54.2163
 30
0.0
 11
293.747
 21
53.8773
 31
0.0
  0
LINE
  5
2A1
330
6F
100
AcDbEntity
  8
0
 62
     0
100
AcDbLine
 10
293.747
 20
53.8773
 30
0.0
 11
293.799
 21
53.5368
 31
0.0
  0
LINE
  5
2A2
330
6F
100
AcDbEntity
  8
0
 62
     0
100
AcDbLine
 10
293.799
 20
53.5368
 30
0.0
 11
293.956
 21
53.2296
 31
0.0
  0
LINE
  5
2A3
330
6F
100
AcDbEntity
  8
0
 62
     0
100
AcDbLine
 10
293.956
 20
53.2296
 30
0.0
 11
294.2
 21
52.9869
 31
0.0
  0
LINE
  5
2A4
330
6F
100
AcDbEntity
  8
0
 62
     0
100
AcDbLine
 10
294.2
 20
52.9869
 30
0.0
 11
294.506
 21
52.83129999999999
 31
0.0
  0
LINE
  5
2A5
330
6F
100
AcDbEntity
  8
0
 62
     0
100
AcDbLine
 10
294.506
 20
52.83129999999999
 30
0.0
 11
294.846
 21
52.7763
 31
0.0
  0
LINE
  5
2A6
330
6F
100
AcDbEntity
  8
0
 62
     0
100
AcDbLine
 10
294.846
 20
52.7763
 30
0.0
 11
295.185
 21
52.83129999999999
 31
0.0
  0
LINE
  5
2A7
330
6F
100
AcDbEntity
  8
0
 62
     0
100
AcDbLine
 10
295.185
 20
52.83129999999999
 30
0.0
 11
295.493
 21
52.9869
 31
0.0
  0
LINE
  5
2A8
330
6F
100
AcDbEntity
  8
0
 62
     0
100
AcDbLine
 10
295.493
 20
52.9869
 30
0.0
 11
295.735
 21
53.2296
 31
0.0
  0
LINE
  5
2A9
330
6F
100
AcDbEntity
  8
0
 62
     0
100
AcDbLine
 10
295.735
 20
53.2296
 30
0.0
 11
295.892
 21
53.5368
 31
0.0
  0
LINE
  5
2AA
330
6F
100
AcDbEntity
  8
0
 62
     0
100
AcDbLine
 10
295.892
 20
53.5368
 30
0.0
 11
295.9459999999999
 21
53.8773
 31
0.0
  0
LINE
  5
2AB
330
6F
100
AcDbEntity
  8
0
 62
     0
100
AcDbLine
 10
295.9459999999999
 20
53.8773
 30
0.0
 11
295.892
 21
54.2163
 31
0.0
  0
LINE
  5
2AC
330
6F
100
AcDbEntity
  8
0
 62
     0
100
AcDbLine
 10
295.892
 20
54.2163
 30
0.0
 11
295.735
 21
54.5236
 31
0.0
  0
LINE
  5
2AD
330
6F
100
AcDbEntity
  8
0
 62
     0
100
AcDbLine
 10
295.735
 20
54.5236
 30
0.0
 11
295.493
 21
54.76729999999999
 31
0.0
  0
LINE
  5
2AE
330
6F
100
AcDbEntity
  8
0
 62
     0
100
AcDbLine
 10
295.493
 20
54.76729999999999
 30
0.0
 11
295.185
 21
54.92329999999999
 31
0.0
  0
LINE
  5
2AF
330
6F
100
AcDbEntity
  8
0
 62
     0
100
AcDbLine
 10
295.185
 20
54.92329999999999
 30
0.0
 11
294.846
 21
54.9769
 31
0.0
  0
LINE
  5
2B0
330
6F
100
AcDbEntity
  8
0
 62
     0
100
AcDbLine
 10
294.846
 20
54.9769
 30
0.0
 11
294.506
 21
54.92329999999999
 31
0.0
  0
LINE
  5
2B1
330
6F
100
AcDbEntity
  8
0
 62
     0
100
AcDbLine
 10
270.557
 20
79.9264
 30
0.0
 11
284.558
 21
79.9264
 31
0.0
  0
LINE
  5
2B2
330
6F
100
AcDbEntity
  8
0
 62
     0
100
AcDbLine
 10
284.558
 20
79.9264
 30
0.0
 11
284.558
 21
65.9268
 31
0.0
  0
LINE
  5
2B3
330
6F
100
AcDbEntity
  8
0
 62
     0
100
AcDbLine
 10
284.558
 20
65.9268
 30
0.0
 11
270.557
 21
65.9268
 31
0.0
  0
LINE
  5
2B4
330
6F
100
AcDbEntity
  8
0
 62
     0
100
AcDbLine
 10
270.557
 20
65.9268
 30
0.0
 11
270.557
 21
79.9264
 31
0.0
  0
LINE
  5
2B5
330
6F
100
AcDbEntity
  8
0
 62
     0
100
AcDbLine
 10
246.746
 20
79.9264
 30
0.0
 11
260.745
 21
79.9264
 31
0.0
  0
LINE
  5
2B6
330
6F
100
AcDbEntity
  8
0
 62
     0
100
AcDbLine
 10
260.745
 20
79.9264
 30
0.0
 11
260.745
 21
65.9268
 31
0.0
  0
LINE
  5
2B7
330
6F
100
AcDbEntity
  8
0
 62
     0
100
AcDbLine
 10
260.745
 20
65.9268
 30
0.0
 11
246.746
 21
65.9268
 31
0.0
  0
LINE
  5
2B8
330
6F
100
AcDbEntity
  8
0
 62
     0
100
AcDbLine
 10
246.746
 20
65.9268
 30
0.0
 11
246.746
 21
79.9264
 31
0.0
  0
LINE
  5
2B9
330
6F
100
AcDbEntity
  8
0
 62
     0
100
AcDbLine
 10
227.696
 20
79.9264
 30
0.0
 11
241.695
 21
79.9264
 31
0.0
  0
LINE
  5
2BA
330
6F
100
AcDbEntity
  8
0
 62
     0
100
AcDbLine
 10
241.695
 20
79.9264
 30
0.0
 11
241.695
 21
65.9268
 31
0.0
  0
LINE
  5
2BB
330
6F
100
AcDbEntity
  8
0
 62
     0
100
AcDbLine
 10
241.695
 20
65.9268
 30
0.0
 11
227.696
 21
65.9268
 31
0.0
  0
LINE
  5
2BC
330
6F
100
AcDbEntity
  8
0
 62
     0
100
AcDbLine
 10
227.696
 20
65.9268
 30
0.0
 11
227.696
 21
79.9264
 31
0.0
  0
LINE
  5
2BD
330
6F
100
AcDbEntity
  8
0
 62
     0
100
AcDbLine
 10
208.646
 20
79.9264
 30
0.0
 11
222.645
 21
79.9264
 31
0.0
  0
LINE
  5
2BE
330
6F
100
AcDbEntity
  8
0
 62
     0
100
AcDbLine
 10
222.645
 20
79.9264
 30
0.0
 11
222.645
 21
65.9268
 31
0.0
  0
LINE
  5
2BF
330
6F
100
AcDbEntity
  8
0
 62
     0
100
AcDbLine
 10
222.645
 20
65.9268
 30
0.0
 11
208.646
 21
65.9268
 31
0.0
  0
LINE
  5
2C0
330
6F
100
AcDbEntity
  8
0
 62
     0
100
AcDbLine
 10
208.646
 20
65.9268
 30
0.0
 11
208.646
 21
79.9264
 31
0.0
  0
LINE
  5
2C1
330
6F
100
AcDbEntity
  8
0
 62
     0
100
AcDbLine
 10
189.596
 20
79.9264
 30
0.0
 11
203.595
 21
79.9264
 31
0.0
  0
LINE
  5
2C2
330
6F
100
AcDbEntity
  8
0
 62
     0
100
AcDbLine
 10
203.595
 20
79.9264
 30
0.0
 11
203.595
 21
65.9268
 31
0.0
  0
LINE
  5
2C3
330
6F
100
AcDbEntity
  8
0
 62
     0
100
AcDbLine
 10
203.595
 20
65.9268
 30
0.0
 11
189.596
 21
65.9268
 31
0.0
  0
LINE
  5
2C4
330
6F
100
AcDbEntity
  8
0
 62
     0
100
AcDbLine
 10
189.596
 20
65.9268
 30
0.0
 11
189.596
 21
79.9264
 31
0.0
  0
LINE
  5
2C5
330
6F
100
AcDbEntity
  8
0
 62
     0
100
AcDbLine
 10
170.546
 20
79.9264
 30
0.0
 11
184.5449999999999
 21
79.9264
 31
0.0
  0
LINE
  5
2C6
330
6F
100
AcDbEntity
  8
0
 62
     0
100
AcDbLine
 10
184.5449999999999
 20
79.9264
 30
0.0
 11
184.5449999999999
 21
65.9268
 31
0.0
  0
LINE
  5
2C7
330
6F
100
AcDbEntity
  8
0
 62
     0
100
AcDbLine
 10
184.5449999999999
 20
65.9268
 30
0.0
 11
170.546
 21
65.9268
 31
0.0
  0
LINE
  5
2C8
330
6F
100
AcDbEntity
  8
0
 62
     0
100
AcDbLine
 10
170.546
 20
65.9268
 30
0.0
 11
170.546
 21
79.9264
 31
0.0
  0
LINE
  5
2C9
330
6F
100
AcDbEntity
  8
0
 62
     0
100
AcDbLine
 10
151.496
 20
79.9264
 30
0.0
 11
165.495
 21
79.9264
 31
0.0
  0
LINE
  5
2CA
330
6F
100
AcDbEntity
  8
0
 62
     0
100
AcDbLine
 10
165.495
 20
79.9264
 30
0.0
 11
165.495
 21
65.9268
 31
0.0
  0
LINE
  5
2CB
330
6F
100
AcDbEntity
  8
0
 62
     0
100
AcDbLine
 10
165.495
 20
65.9268
 30
0.0
 11
151.496
 21
65.9268
 31
0.0
  0
LINE
  5
2CC
330
6F
100
AcDbEntity
  8
0
 62
     0
100
AcDbLine
 10
151.496
 20
65.9268
 30
0.0
 11
151.496
 21
79.9264
 31
0.0
  0
LINE
  5
2CD
330
6F
100
AcDbEntity
  8
0
 62
     0
100
AcDbLine
 10
132.446
 20
79.9264
 30
0.0
 11
146.445
 21
79.9264
 31
0.0
  0
LINE
  5
2CE
330
6F
100
AcDbEntity
  8
0
 62
     0
100
AcDbLine
 10
146.445
 20
79.9264
 30
0.0
 11
146.445
 21
65.9268
 31
0.0
  0
LINE
  5
2CF
330
6F
100
AcDbEntity
  8
0
 62
     0
100
AcDbLine
 10
146.445
 20
65.9268
 30
0.0
 11
132.446
 21
65.9268
 31
0.0
  0
LINE
  5
2D0
330
6F
100
AcDbEntity
  8
0
 62
     0
100
AcDbLine
 10
132.446
 20
65.9268
 30
0.0
 11
132.446
 21
79.9264
 31
0.0
  0
LINE
  5
2D1
330
6F
100
AcDbEntity
  8
0
 62
     0
100
AcDbLine
 10
113.396
 20
79.9264
 30
0.0
 11
127.395
 21
79.9264
 31
0.0
  0
LINE
  5
2D2
330
6F
100
AcDbEntity
  8
0
 62
     0
100
AcDbLine
 10
127.395
 20
79.9264
 30
0.0
 11
127.395
 21
65.9268
 31
0.0
  0
LINE
  5
2D3
330
6F
100
AcDbEntity
  8
0
 62
     0
100
AcDbLine
 10
127.395
 20
65.9268
 30
0.0
 11
113.396
 21
65.9268
 31
0.0
  0
LINE
  5
2D4
330
6F
100
AcDbEntity
  8
0
 62
     0
100
AcDbLine
 10
113.396
 20
65.9268
 30
0.0
 11
113.396
 21
79.9264
 31
0.0
  0
LINE
  5
2D5
330
6F
100
AcDbEntity
  8
0
 62
     0
100
AcDbLine
 10
94.3462
 20
79.9264
 30
0.0
 11
108.345
 21
79.9264
 31
0.0
  0
LINE
  5
2D6
330
6F
100
AcDbEntity
  8
0
 62
     0
100
AcDbLine
 10
108.345
 20
79.9264
 30
0.0
 11
108.345
 21
65.9268
 31
0.0
  0
LINE
  5
2D7
330
6F
100
AcDbEntity
  8
0
 62
     0
100
AcDbLine
 10
108.345
 20
65.9268
 30
0.0
 11
94.3462
 21
65.9268
 31
0.0
  0
LINE
  5
2D8
330
6F
100
AcDbEntity
  8
0
 62
     0
100
AcDbLine
 10
94.3462
 20
65.9268
 30
0.0
 11
94.3462
 21
79.9264
 31
0.0
  0
LINE
  5
2D9
330
6F
100
AcDbEntity
  8
0
 62
     0
100
AcDbLine
 10
75.2962
 20
79.9264
 30
0.0
 11
89.2955
 21
79.9264
 31
0.0
  0
LINE
  5
2DA
330
6F
100
AcDbEntity
  8
0
 62
     0
100
AcDbLine
 10
89.2955
 20
79.9264
 30
0.0
 11
89.2955
 21
65.9268
 31
0.0
  0
LINE
  5
2DB
330
6F
100
AcDbEntity
  8
0
 62
     0
100
AcDbLine
 10
89.2955
 20
65.9268
 30
0.0
 11
75.2962
 21
65.9268
 31
0.0
  0
LINE
  5
2DC
330
6F
100
AcDbEntity
  8
0
 62
     0
100
AcDbLine
 10
75.2962
 20
65.9268
 30
0.0
 11
75.2962
 21
79.9264
 31
0.0
  0
LINE
  5
2DD
330
6F
100
AcDbEntity
  8
0
 62
     0
100
AcDbLine
 10
56.2462
 20
79.9264
 30
0.0
 11
70.24550000000001
 21
79.9264
 31
0.0
  0
LINE
  5
2DE
330
6F
100
AcDbEntity
  8
0
 62
     0
100
AcDbLine
 10
70.24550000000001
 20
79.9264
 30
0.0
 11
70.24550000000001
 21
65.9268
 31
0.0
  0
LINE
  5
2DF
330
6F
100
AcDbEntity
  8
0
 62
     0
100
AcDbLine
 10
70.24550000000001
 20
65.9268
 30
0.0
 11
56.2462
 21
65.9268
 31
0.0
  0
LINE
  5
2E0
330
6F
100
AcDbEntity
  8
0
 62
     0
100
AcDbLine
 10
56.2462
 20
65.9268
 30
0.0
 11
56.2462
 21
79.9264
 31
0.0
  0
LINE
  5
2E1
330
6F
100
AcDbEntity
  8
0
 62
     0
100
AcDbLine
 10
37.1962
 20
79.9264
 30
0.0
 11
51.1955
 21
79.9264
 31
0.0
  0
LINE
  5
2E2
330
6F
100
AcDbEntity
  8
0
 62
     0
100
AcDbLine
 10
51.1955
 20
79.9264
 30
0.0
 11
51.1955
 21
65.9268
 31
0.0
  0
LINE
  5
2E3
330
6F
100
AcDbEntity
  8
0
 62
     0
100
AcDbLine
 10
51.1955
 20
65.9268
 30
0.0
 11
37.1962
 21
65.9268
 31
0.0
  0
LINE
  5
2E4
330
6F
100
AcDbEntity
  8
0
 62
     0
100
AcDbLine
 10
37.1962
 20
65.9268
 30
0.0
 11
37.1962
 21
79.9264
 31
0.0
  0
LINE
  5
2E5
330
6F
100
AcDbEntity
  8
0
 62
     0
100
AcDbLine
 10
13.3821
 20
79.9264
 30
0.0
 11
27.38300000000001
 21
79.9264
 31
0.0
  0
LINE
  5
2E6
330
6F
100
AcDbEntity
  8
0
 62
     0
100
AcDbLine
 10
27.38300000000001
 20
79.9264
 30
0.0
 11
27.38300000000001
 21
65.9268
 31
0.0
  0
LINE
  5
2E7
330
6F
100
AcDbEntity
  8
0
 62
     0
100
AcDbLine
 10
27.38300000000001
 20
65.9268
 30
0.0
 11
13.3821
 21
65.9268
 31
0.0
  0
LINE
  5
2E8
330
6F
100
AcDbEntity
  8
0
 62
     0
100
AcDbLine
 10
13.3821
 20
65.9268
 30
0.0
 11
13.3821
 21
79.9264
 31
0.0
  0
LINE
  5
2E9
330
6F
100
AcDbEntity
  8
0
 62
     0
100
AcDbLine
 10
265.796
 20
98.97750000000002
 30
0.0
 11
265.796
 21
94.27699999999999
 31
0.0
  0
LINE
  5
2EA
330
6F
100
AcDbEntity
  8
0
 62
     0
100
AcDbLine
 10
265.796
 20
94.27699999999999
 30
0.0
 11
264.27
 21
94.27699999999999
 31
0.0
  0
LINE
  5
2EB
330
6F
100
AcDbEntity
  8
0
 62
     0
100
AcDbLine
 10
264.27
 20
94.27699999999999
 30
0.0
 11
264.27
 21
97.50709999999999
 31
0.0
  0
LINE
  5
2EC
330
6F
100
AcDbEntity
  8
0
 62
     0
100
AcDbLine
 10
264.27
 20
97.50709999999999
 30
0.0
 11
262.545
 21
97.50709999999999
 31
0.0
  0
LINE
  5
2ED
330
6F
100
AcDbEntity
  8
0
 62
     0
100
AcDbLine
 10
262.545
 20
97.50709999999999
 30
0.0
 11
262.545
 21
98.42640000000001
 31
0.0
  0
LINE
  5
2EE
330
6F
100
AcDbEntity
  8
0
 62
     0
100
AcDbLine
 10
262.545
 20
98.42640000000001
 30
0.0
 11
259.245
 21
98.42640000000001
 31
0.0
  0
LINE
  5
2EF
330
6F
100
AcDbEntity
  8
0
 62
     0
100
AcDbLine
 10
259.245
 20
98.42640000000001
 30
0.0
 11
259.245
 21
97.50709999999999
 31
0.0
  0
LINE
  5
2F0
330
6F
100
AcDbEntity
  8
0
 62
     0
100
AcDbLine
 10
259.245
 20
97.50709999999999
 30
0.0
 11
257.521
 21
97.50709999999999
 31
0.0
  0
LINE
  5
2F1
330
6F
100
AcDbEntity
  8
0
 62
     0
100
AcDbLine
 10
257.521
 20
97.50709999999999
 30
0.0
 11
257.521
 21
94.27699999999999
 31
0.0
  0
LINE
  5
2F2
330
6F
100
AcDbEntity
  8
0
 62
     0
100
AcDbLine
 10
257.521
 20
94.27699999999999
 30
0.0
 11
256.696
 21
94.27699999999999
 31
0.0
  0
LINE
  5
2F3
330
6F
100
AcDbEntity
  8
0
 62
     0
100
AcDbLine
 10
256.696
 20
94.27699999999999
 30
0.0
 11
256.696
 21
91.477
 31
0.0
  0
LINE
  5
2F4
330
6F
100
AcDbEntity
  8
0
 62
     0
100
AcDbLine
 10
256.696
 20
91.477
 30
0.0
 11
257.521
 21
91.477
 31
0.0
  0
LINE
  5
2F5
330
6F
100
AcDbEntity
  8
0
 62
     0
100
AcDbLine
 10
257.521
 20
91.477
 30
0.0
 11
257.521
 21
85.2082
 31
0.0
  0
LINE
  5
2F6
330
6F
100
AcDbEntity
  8
0
 62
     0
100
AcDbLine
 10
257.521
 20
85.2082
 30
0.0
 11
259.245
 21
85.2082
 31
0.0
  0
LINE
  5
2F7
330
6F
100
AcDbEntity
  8
0
 62
     0
100
AcDbLine
 10
259.245
 20
85.2082
 30
0.0
 11
259.245
 21
84.2271
 31
0.0
  0
LINE
  5
2F8
330
6F
100
AcDbEntity
  8
0
 62
     0
100
AcDbLine
 10
259.245
 20
84.2271
 30
0.0
 11
262.545
 21
84.2271
 31
0.0
  0
LINE
  5
2F9
330
6F
100
AcDbEntity
  8
0
 62
     0
100
AcDbLine
 10
262.545
 20
84.2271
 30
0.0
 11
262.545
 21
85.2082
 31
0.0
  0
LINE
  5
2FA
330
6F
100
AcDbEntity
  8
0
 62
     0
100
AcDbLine
 10
262.545
 20
85.2082
 30
0.0
 11
264.27
 21
85.2082
 31
0.0
  0
LINE
  5
2FB
330
6F
100
AcDbEntity
  8
0
 62
     0
100
AcDbLine
 10
264.27
 20
85.2082
 30
0.0
 11
264.27
 21
89.67719999999999
 31
0.0
  0
LINE
  5
2FC
330
6F
100
AcDbEntity
  8
0
 62
     0
100
AcDbLine
 10
264.27
 20
89.67719999999999
 30
0.0
 11
265.796
 21
89.67719999999999
 31
0.0
  0
LINE
  5
2FD
330
6F
100
AcDbEntity
  8
0
 62
     0
100
AcDbLine
 10
265.796
 20
89.67719999999999
 30
0.0
 11
265.796
 21
84.9768
 31
0.0
  0
LINE
  5
2FE
330
6F
100
AcDbEntity
  8
0
 62
     0
100
AcDbLine
 10
265.796
 20
84.9768
 30
0.0
 11
279.795
 21
84.9768
 31
0.0
  0
LINE
  5
2FF
330
6F
100
AcDbEntity
  8
0
 62
     0
100
AcDbLine
 10
279.795
 20
84.9768
 30
0.0
 11
279.795
 21
89.67719999999999
 31
0.0
  0
LINE
  5
300
330
6F
100
AcDbEntity
  8
0
 62
     0
100
AcDbLine
 10
279.795
 20
89.67719999999999
 30
0.0
 11
281.321
 21
89.67719999999999
 31
0.0
  0
LINE
  5
301
330
6F
100
AcDbEntity
  8
0
 62
     0
100
AcDbLine
 10
281.321
 20
89.67719999999999
 30
0.0
 11
281.321
 21
85.2082
 31
0.0
  0
LINE
  5
302
330
6F
100
AcDbEntity
  8
0
 62
     0
100
AcDbLine
 10
281.321
 20
85.2082
 30
0.0
 11
283.045
 21
85.2082
 31
0.0
  0
LINE
  5
303
330
6F
100
AcDbEntity
  8
0
 62
     0
100
AcDbLine
 10
283.045
 20
85.2082
 30
0.0
 11
283.045
 21
84.2271
 31
0.0
  0
LINE
  5
304
330
6F
100
AcDbEntity
  8
0
 62
     0
100
AcDbLine
 10
283.045
 20
84.2271
 30
0.0
 11
286.345
 21
84.2271
 31
0.0
  0
LINE
  5
305
330
6F
100
AcDbEntity
  8
0
 62
     0
100
AcDbLine
 10
286.345
 20
84.2271
 30
0.0
 11
286.345
 21
85.2082
 31
0.0
  0
LINE
  5
306
330
6F
100
AcDbEntity
  8
0
 62
     0
100
AcDbLine
 10
286.345
 20
85.2082
 30
0.0
 11
288.071
 21
85.2082
 31
0.0
  0
LINE
  5
307
330
6F
100
AcDbEntity
  8
0
 62
     0
100
AcDbLine
 10
288.071
 20
85.2082
 30
0.0
 11
288.071
 21
91.477
 31
0.0
  0
LINE
  5
308
330
6F
100
AcDbEntity
  8
0
 62
     0
100
AcDbLine
 10
288.071
 20
91.477
 30
0.0
 11
288.8959999999999
 21
91.477
 31
0.0
  0
LINE
  5
309
330
6F
100
AcDbEntity
  8
0
 62
     0
100
AcDbLine
 10
288.8959999999999
 20
91.477
 30
0.0
 11
288.8959999999999
 21
94.27699999999999
 31
0.0
  0
LINE
  5
30A
330
6F
100
AcDbEntity
  8
0
 62
     0
100
AcDbLine
 10
288.8959999999999
 20
94.27699999999999
 30
0.0
 11
288.071
 21
94.27699999999999
 31
0.0
  0
LINE
  5
30B
330
6F
100
AcDbEntity
  8
0
 62
     0
100
AcDbLine
 10
288.071
 20
94.27699999999999
 30
0.0
 11
288.071
 21
97.50709999999999
 31
0.0
  0
LINE
  5
30C
330
6F
100
AcDbEntity
  8
0
 62
     0
100
AcDbLine
 10
288.071
 20
97.50709999999999
 30
0.0
 11
286.345
 21
97.50709999999999
 31
0.0
  0
LINE
  5
30D
330
6F
100
AcDbEntity
  8
0
 62
     0
100
AcDbLine
 10
286.345
 20
97.50709999999999
 30
0.0
 11
286.345
 21
98.42640000000001
 31
0.0
  0
LINE
  5
30E
330
6F
100
AcDbEntity
  8
0
 62
     0
100
AcDbLine
 10
286.345
 20
98.42640000000001
 30
0.0
 11
283.045
 21
98.42640000000001
 31
0.0
  0
LINE
  5
30F
330
6F
100
AcDbEntity
  8
0
 62
     0
100
AcDbLine
 10
283.045
 20
98.42640000000001
 30
0.0
 11
283.045
 21
97.50709999999999
 31
0.0
  0
LINE
  5
310
330
6F
100
AcDbEntity
  8
0
 62
     0
100
AcDbLine
 10
283.045
 20
97.50709999999999
 30
0.0
 11
281.321
 21
97.50709999999999
 31
0.0
  0
LINE
  5
311
330
6F
100
AcDbEntity
  8
0
 62
     0
100
AcDbLine
 10
281.321
 20
97.50709999999999
 30
0.0
 11
281.321
 21
94.27699999999999
 31
0.0
  0
LINE
  5
312
330
6F
100
AcDbEntity
  8
0
 62
     0
100
AcDbLine
 10
281.321
 20
94.27699999999999
 30
0.0
 11
279.795
 21
94.27699999999999
 31
0.0
  0
LINE
  5
313
330
6F
100
AcDbEntity
  8
0
 62
     0
100
AcDbLine
 10
279.795
 20
94.27699999999999
 30
0.0
 11
279.795
 21
98.97750000000002
 31
0.0
  0
LINE
  5
314
330
6F
100
AcDbEntity
  8
0
 62
     0
100
AcDbLine
 10
279.795
 20
98.97750000000002
 30
0.0
 11
265.796
 21
98.97750000000002
 31
0.0
  0
LINE
  5
315
330
6F
100
AcDbEntity
  8
0
 62
     0
100
AcDbLine
 10
237.221
 20
98.97750000000002
 30
0.0
 11
251.22
 21
98.97750000000002
 31
0.0
  0
LINE
  5
316
330
6F
100
AcDbEntity
  8
0
 62
     0
100
AcDbLine
 10
251.22
 20
98.97750000000002
 30
0.0
 11
251.22
 21
84.9768
 31
0.0
  0
LINE
  5
317
330
6F
100
AcDbEntity
  8
0
 62
     0
100
AcDbLine
 10
251.22
 20
84.9768
 30
0.0
 11
237.221
 21
84.9768
 31
0.0
  0
LINE
  5
318
330
6F
100
AcDbEntity
  8
0
 62
     0
100
AcDbLine
 10
237.221
 20
84.9768
 30
0.0
 11
237.221
 21
98.97750000000002
 31
0.0
  0
LINE
  5
319
330
6F
100
AcDbEntity
  8
0
 62
     0
100
AcDbLine
 10
218.171
 20
98.97750000000002
 30
0.0
 11
232.17
 21
98.97750000000002
 31
0.0
  0
LINE
  5
31A
330
6F
100
AcDbEntity
  8
0
 62
     0
100
AcDbLine
 10
232.17
 20
98.97750000000002
 30
0.0
 11
232.17
 21
84.9768
 31
0.0
  0
LINE
  5
31B
330
6F
100
AcDbEntity
  8
0
 62
     0
100
AcDbLine
 10
232.17
 20
84.9768
 30
0.0
 11
218.171
 21
84.9768
 31
0.0
  0
LINE
  5
31C
330
6F
100
AcDbEntity
  8
0
 62
     0
100
AcDbLine
 10
218.171
 20
84.9768
 30
0.0
 11
218.171
 21
98.97750000000002
 31
0.0
  0
LINE
  5
31D
330
6F
100
AcDbEntity
  8
0
 62
     0
100
AcDbLine
 10
199.121
 20
98.97750000000002
 30
0.0
 11
213.12
 21
98.97750000000002
 31
0.0
  0
LINE
  5
31E
330
6F
100
AcDbEntity
  8
0
 62
     0
100
AcDbLine
 10
213.12
 20
98.97750000000002
 30
0.0
 11
213.12
 21
84.9768
 31
0.0
  0
LINE
  5
31F
330
6F
100
AcDbEntity
  8
0
 62
     0
100
AcDbLine
 10
213.12
 20
84.9768
 30
0.0
 11
199.121
 21
84.9768
 31
0.0
  0
LINE
  5
320
330
6F
100
AcDbEntity
  8
0
 62
     0
100
AcDbLine
 10
199.121
 20
84.9768
 30
0.0
 11
199.121
 21
98.97750000000002
 31
0.0
  0
LINE
  5
321
330
6F
100
AcDbEntity
  8
0
 62
     0
100
AcDbLine
 10
180.071
 20
98.97750000000002
 30
0.0
 11
194.07
 21
98.97750000000002
 31
0.0
  0
LINE
  5
322
330
6F
100
AcDbEntity
  8
0
 62
     0
100
AcDbLine
 10
194.07
 20
98.97750000000002
 30
0.0
 11
194.07
 21
84.9768
 31
0.0
  0
LINE
  5
323
330
6F
100
AcDbEntity
  8
0
 62
     0
100
AcDbLine
 10
194.07
 20
84.9768
 30
0.0
 11
180.071
 21
84.9768
 31
0.0
  0
LINE
  5
324
330
6F
100
AcDbEntity
  8
0
 62
     0
100
AcDbLine
 10
180.071
 20
84.9768
 30
0.0
 11
180.071
 21
98.97750000000002
 31
0.0
  0
LINE
  5
325
330
6F
100
AcDbEntity
  8
0
 62
     0
100
AcDbLine
 10
161.021
 20
98.97750000000002
 30
0.0
 11
175.02
 21
98.97750000000002
 31
0.0
  0
LINE
  5
326
330
6F
100
AcDbEntity
  8
0
 62
     0
100
AcDbLine
 10
175.02
 20
98.97750000000002
 30
0.0
 11
175.02
 21
84.9768
 31
0.0
  0
LINE
  5
327
330
6F
100
AcDbEntity
  8
0
 62
     0
100
AcDbLine
 10
175.02
 20
84.9768
 30
0.0
 11
161.021
 21
84.9768
 31
0.0
  0
LINE
  5
328
330
6F
100
AcDbEntity
  8
0
 62
     0
100
AcDbLine
 10
161.021
 20
84.9768
 30
0.0
 11
161.021
 21
98.97750000000002
 31
0.0
  0
LINE
  5
329
330
6F
100
AcDbEntity
  8
0
 62
     0
100
AcDbLine
 10
141.971
 20
98.97750000000002
 30
0.0
 11
155.97
 21
98.97750000000002
 31
0.0
  0
LINE
  5
32A
330
6F
100
AcDbEntity
  8
0
 62
     0
100
AcDbLine
 10
155.97
 20
98.97750000000002
 30
0.0
 11
155.97
 21
84.9768
 31
0.0
  0
LINE
  5
32B
330
6F
100
AcDbEntity
  8
0
 62
     0
100
AcDbLine
 10
155.97
 20
84.9768
 30
0.0
 11
141.971
 21
84.9768
 31
0.0
  0
LINE
  5
32C
330
6F
100
AcDbEntity
  8
0
 62
     0
100
AcDbLine
 10
141.971
 20
84.9768
 30
0.0
 11
141.971
 21
98.97750000000002
 31
0.0
  0
LINE
  5
32D
330
6F
100
AcDbEntity
  8
0
 62
     0
100
AcDbLine
 10
122.92
 20
98.97750000000002
 30
0.0
 11
136.92
 21
98.97750000000002
 31
0.0
  0
LINE
  5
32E
330
6F
100
AcDbEntity
  8
0
 62
     0
100
AcDbLine
 10
136.92
 20
98.97750000000002
 30
0.0
 11
136.92
 21
84.9768
 31
0.0
  0
LINE
  5
32F
330
6F
100
AcDbEntity
  8
0
 62
     0
100
AcDbLine
 10
136.92
 20
84.9768
 30
0.0
 11
122.92
 21
84.9768
 31
0.0
  0
LINE
  5
330
330
6F
100
AcDbEntity
  8
0
 62
     0
100
AcDbLine
 10
122.92
 20
84.9768
 30
0.0
 11
122.92
 21
98.97750000000002
 31
0.0
  0
LINE
  5
331
330
6F
100
AcDbEntity
  8
0
 62
     0
100
AcDbLine
 10
103.87
 20
98.97750000000002
 30
0.0
 11
117.869
 21
98.97750000000002
 31
0.0
  0
LINE
  5
332
330
6F
100
AcDbEntity
  8
0
 62
     0
100
AcDbLine
 10
117.869
 20
98.97750000000002
 30
0.0
 11
117.869
 21
84.9768
 31
0.0
  0
LINE
  5
333
330
6F
100
AcDbEntity
  8
0
 62
     0
100
AcDbLine
 10
117.869
 20
84.9768
 30
0.0
 11
103.87
 21
84.9768
 31
0.0
  0
LINE
  5
334
330
6F
100
AcDbEntity
  8
0
 62
     0
100
AcDbLine
 10
103.87
 20
84.9768
 30
0.0
 11
103.87
 21
98.97750000000002
 31
0.0
  0
LINE
  5
335
330
6F
100
AcDbEntity
  8
0
 62
     0
100
AcDbLine
 10
84.8212
 20
98.97750000000002
 30
0.0
 11
98.82049999999999
 21
98.97750000000002
 31
0.0
  0
LINE
  5
336
330
6F
100
AcDbEntity
  8
0
 62
     0
100
AcDbLine
 10
98.82049999999999
 20
98.97750000000002
 30
0.0
 11
98.82049999999999
 21
84.9768
 31
0.0
  0
LINE
  5
337
330
6F
100
AcDbEntity
  8
0
 62
     0
100
AcDbLine
 10
98.82049999999999
 20
84.9768
 30
0.0
 11
84.8212
 21
84.9768
 31
0.0
  0
LINE
  5
338
330
6F
100
AcDbEntity
  8
0
 62
     0
100
AcDbLine
 10
84.8212
 20
84.9768
 30
0.0
 11
84.8212
 21
98.97750000000002
 31
0.0
  0
LINE
  5
339
330
6F
100
AcDbEntity
  8
0
 62
     0
100
AcDbLine
 10
65.77119999999999
 20
98.97750000000002
 30
0.0
 11
79.7705
 21
98.97750000000002
 31
0.0
  0
LINE
  5
33A
330
6F
100
AcDbEntity
  8
0
 62
     0
100
AcDbLine
 10
79.7705
 20
98.97750000000002
 30
0.0
 11
79.7705
 21
84.9768
 31
0.0
  0
LINE
  5
33B
330
6F
100
AcDbEntity
  8
0
 62
     0
100
AcDbLine
 10
79.7705
 20
84.9768
 30
0.0
 11
65.77119999999999
 21
84.9768
 31
0.0
  0
LINE
  5
33C
330
6F
100
AcDbEntity
  8
0
 62
     0
100
AcDbLine
 10
65.77119999999999
 20
84.9768
 30
0.0
 11
65.77119999999999
 21
98.97750000000002
 31
0.0
  0
LINE
  5
33D
330
6F
100
AcDbEntity
  8
0
 62
     0
100
AcDbLine
 10
46.7212
 20
98.97750000000002
 30
0.0
 11
60.7205
 21
98.97750000000002
 31
0.0
  0
LINE
  5
33E
330
6F
100
AcDbEntity
  8
0
 62
     0
100
AcDbLine
 10
60.7205
 20
98.97750000000002
 30
0.0
 11
60.7205
 21
84.9768
 31
0.0
  0
LINE
  5
33F
330
6F
100
AcDbEntity
  8
0
 62
     0
100
AcDbLine
 10
60.7205
 20
84.9768
 30
0.0
 11
46.7212
 21
84.9768
 31
0.0
  0
LINE
  5
340
330
6F
100
AcDbEntity
  8
0
 62
     0
100
AcDbLine
 10
46.7212
 20
84.9768
 30
0.0
 11
46.7212
 21
98.97750000000002
 31
0.0
  0
LINE
  5
341
330
6F
100
AcDbEntity
  8
0
 62
     0
100
AcDbLine
 10
27.671
 20
98.97750000000002
 30
0.0
 11
41.67049999999999
 21
98.97750000000002
 31
0.0
  0
LINE
  5
342
330
6F
100
AcDbEntity
  8
0
 62
     0
100
AcDbLine
 10
41.67049999999999
 20
98.97750000000002
 30
0.0
 11
41.67049999999999
 21
84.9768
 31
0.0
  0
LINE
  5
343
330
6F
100
AcDbEntity
  8
0
 62
     0
100
AcDbLine
 10
41.67049999999999
 20
84.9768
 30
0.0
 11
27.671
 21
84.9768
 31
0.0
  0
LINE
  5
344
330
6F
100
AcDbEntity
  8
0
 62
     0
100
AcDbLine
 10
27.671
 20
84.9768
 30
0.0
 11
27.671
 21
98.97750000000002
 31
0.0
  0
LINE
  5
345
330
6F
100
AcDbEntity
  8
0
 62
     0
100
AcDbLine
 10
8.61963
 20
98.97750000000002
 30
0.0
 11
22.6205
 21
98.97750000000002
 31
0.0
  0
LINE
  5
346
330
6F
100
AcDbEntity
  8
0
 62
     0
100
AcDbLine
 10
22.6205
 20
98.97750000000002
 30
0.0
 11
22.6205
 21
84.9768
 31
0.0
  0
LINE
  5
347
330
6F
100
AcDbEntity
  8
0
 62
     0
100
AcDbLine
 10
22.6205
 20
84.9768
 30
0.0
 11
8.61963
 21
84.9768
 31
0.0
  0
LINE
  5
348
330
6F
100
AcDbEntity
  8
0
 62
     0
100
AcDbLine
 10
8.61963
 20
84.9768
 30
0.0
 11
8.61963
 21
98.97750000000002
 31
0.0
  0
LINE
  5
349
330
6F
100
AcDbEntity
  8
0
 62
     0
100
AcDbLine
 10
2.756079999999999
 20
105.548
 30
0.0
 11
2.448779999999999
 21
105.392
 31
0.0
  0
LINE
  5
34A
330
6F
100
AcDbEntity
  8
0
 62
     0
100
AcDbLine
 10
2.448779999999999
 20
105.392
 30
0.0
 11
2.20486
 21
105.149
 31
0.0
  0
LINE
  5
34B
330
6F
100
AcDbEntity
  8
0
 62
     0
100
AcDbLine
 10
2.20486
 20
105.149
 30
0.0
 11
2.049139999999999
 21
104.841
 31
0.0
  0
LINE
  5
34C
330
6F
100
AcDbEntity
  8
0
 62
     0
100
AcDbLine
 10
2.049139999999999
 20
104.841
 30
0.0
 11
1.9954
 21
104.502
 31
0.0
  0
LINE
  5
34D
330
6F
100
AcDbEntity
  8
0
 62
     0
100
AcDbLine
 10
1.9954
 20
104.502
 30
0.0
 11
2.049139999999999
 21
104.163
 31
0.0
  0
LINE
  5
34E
330
6F
100
AcDbEntity
  8
0
 62
     0
100
AcDbLine
 10
2.049139999999999
 20
104.163
 30
0.0
 11
2.20486
 21
103.856
 31
0.0
  0
LINE
  5
34F
330
6F
100
AcDbEntity
  8
0
 62
     0
100
AcDbLine
 10
2.20486
 20
103.856
 30
0.0
 11
2.448779999999999
 21
103.613
 31
0.0
  0
LINE
  5
350
330
6F
100
AcDbEntity
  8
0
 62
     0
100
AcDbLine
 10
2.448779999999999
 20
103.613
 30
0.0
 11
2.756079999999999
 21
103.456
 31
0.0
  0
LINE
  5
351
330
6F
100
AcDbEntity
  8
0
 62
     0
100
AcDbLine
 10
2.756079999999999
 20
103.456
 30
0.0
 11
3.09507
 21
103.401
 31
0.0
  0
LINE
  5
352
330
6F
100
AcDbEntity
  8
0
 62
     0
100
AcDbLine
 10
3.09507
 20
103.401
 30
0.0
 11
3.434069999999999
 21
103.456
 31
0.0
  0
LINE
  5
353
330
6F
100
AcDbEntity
  8
0
 62
     0
100
AcDbLine
 10
3.434069999999999
 20
103.456
 30
0.0
 11
3.74138
 21
103.613
 31
0.0
  0
LINE
  5
354
330
6F
100
AcDbEntity
  8
0
 62
     0
100
AcDbLine
 10
3.74138
 20
103.613
 30
0.0
 11
3.983919999999999
 21
103.856
 31
0.0
  0
LINE
  5
355
330
6F
100
AcDbEntity
  8
0
 62
     0
100
AcDbLine
 10
3.983919999999999
 20
103.856
 30
0.0
 11
4.141009999999999
 21
104.163
 31
0.0
  0
LINE
  5
356
330
6F
100
AcDbEntity
  8
0
 62
     0
100
AcDbLine
 10
4.141009999999999
 20
104.163
 30
0.0
 11
4.196119999999999
 21
104.502
 31
0.0
  0
LINE
  5
357
330
6F
100
AcDbEntity
  8
0
 62
     0
100
AcDbLine
 10
4.196119999999999
 20
104.502
 30
0.0
 11
4.141009999999999
 21
104.841
 31
0.0
  0
LINE
  5
358
330
6F
100
AcDbEntity
  8
0
 62
     0
100
AcDbLine
 10
4.141009999999999
 20
104.841
 30
0.0
 11
3.983919999999999
 21
105.149
 31
0.0
  0
LINE
  5
359
330
6F
100
AcDbEntity
  8
0
 62
     0
100
AcDbLine
 10
3.983919999999999
 20
105.149
 30
0.0
 11
3.74138
 21
105.392
 31
0.0
  0
LINE
  5
35A
330
6F
100
AcDbEntity
  8
0
 62
     0
100
AcDbLine
 10
3.74138
 20
105.392
 30
0.0
 11
3.434069999999999
 21
105.548
 31
0.0
  0
LINE
  5
35B
330
6F
100
AcDbEntity
  8
0
 62
     0
100
AcDbLine
 10
3.434069999999999
 20
105.548
 30
0.0
 11
3.09507
 21
105.602
 31
0.0
  0
LINE
  5
35C
330
6F
100
AcDbEntity
  8
0
 62
     0
100
AcDbLine
 10
3.09507
 20
105.602
 30
0.0
 11
2.756079999999999
 21
105.548
 31
0.0
  0
LINE
  5
35D
330
6F
100
AcDbEntity
  8
0
 62
     0
100
AcDbLine
 10
294.506
 20
105.548
 30
0.0
 11
294.2
 21
105.392
 31
0.0
  0
LINE
  5
35E
330
6F
100
AcDbEntity
  8
0
 62
     0
100
AcDbLine
 10
294.2
 20
105.392
 30
0.0
 11
293.956
 21
105.149
 31
0.0
  0
LINE
  5
35F
330
6F
100
AcDbEntity
  8
0
 62
     0
100
AcDbLine
 10
293.956
 20
105.149
 30
0.0
 11
293.799
 21
104.841
 31
0.0
  0
LINE
  5
360
330
6F
100
AcDbEntity
  8
0
 62
     0
100
AcDbLine
 10
293.799
 20
104.841
 30
0.0
 11
293.747
 21
104.502
 31
0.0
  0
LINE
  5
361
330
6F
100
AcDbEntity
  8
0
 62
     0
100
AcDbLine
 10
293.747
 20
104.502
 30
0.0
 11
293.799
 21
104.163
 31
0.0
  0
LINE
  5
362
330
6F
100
AcDbEntity
  8
0
 62
     0
100
AcDbLine
 10
293.799
 20
104.163
 30
0.0
 11
293.956
 21
103.856
 31
0.0
  0
LINE
  5
363
330
6F
100
AcDbEntity
  8
0
 62
     0
100
AcDbLine
 10
293.956
 20
103.856
 30
0.0
 11
294.2
 21
103.613
 31
0.0
  0
LINE
  5
364
330
6F
100
AcDbEntity
  8
0
 62
     0
100
AcDbLine
 10
294.2
 20
103.613
 30
0.0
 11
294.506
 21
103.456
 31
0.0
  0
LINE
  5
365
330
6F
100
AcDbEntity
  8
0
 62
     0
100
AcDbLine
 10
294.506
 20
103.456
 30
0.0
 11
294.846
 21
103.401
 31
0.0
  0
LINE
  5
366
330
6F
100
AcDbEntity
  8
0
 62
     0
100
AcDbLine
 10
294.846
 20
103.401
 30
0.0
 11
295.185
 21
103.456
 31
0.0
  0
LINE
  5
367
330
6F
100
AcDbEntity
  8
0
 62
     0
100
AcDbLine
 10
295.185
 20
103.456
 30
0.0
 11
295.493
 21
103.613
 31
0.0
  0
LINE
  5
368
330
6F
100
AcDbEntity
  8
0
 62
     0
100
AcDbLine
 10
295.493
 20
103.613
 30
0.0
 11
295.735
 21
103.856
 31
0.0
  0
LINE
  5
369
330
6F
100
AcDbEntity
  8
0
 62
     0
100
AcDbLine
 10
295.735
 20
103.856
 30
0.0
 11
295.892
 21
104.163
 31
0.0
  0
LINE
  5
36A
330
6F
100
AcDbEntity
  8
0
 62
     0
100
AcDbLine
 10
295.892
 20
104.163
 30
0.0
 11
295.9459999999999
 21
104.502
 31
0.0
  0
LINE
  5
36B
330
6F
100
AcDbEntity
  8
0
 62
     0
100
AcDbLine
 10
295.9459999999999
 20
104.502
 30
0.0
 11
295.892
 21
104.841
 31
0.0
  0
LINE
  5
36C
330
6F
100
AcDbEntity
  8
0
 62
     0
100
AcDbLine
 10
295.892
 20
104.841
 30
0.0
 11
295.735
 21
105.149
 31
0.0
  0
LINE
  5
36D
330
6F
100
AcDbEntity
  8
0
 62
     0
100
AcDbLine
 10
295.735
 20
105.149
 30
0.0
 11
295.493
 21
105.392
 31
0.0
  0
LINE
  5
36E
330
6F
100
AcDbEntity
  8
0
 62
     0
100
AcDbLine
 10
295.493
 20
105.392
 30
0.0
 11
295.185
 21
105.548
 31
0.0
  0
LINE
  5
36F
330
6F
100
AcDbEntity
  8
0
 62
     0
100
AcDbLine
 10
295.185
 20
105.548
 30
0.0
 11
294.846
 21
105.602
 31
0.0
  0
LINE
  5
370
330
6F
100
AcDbEntity
  8
0
 62
     0
100
AcDbLine
 10
294.846
 20
105.602
 30
0.0
 11
294.506
 21
105.548
 31
0.0
  0
LINE
  5
371
330
6F
100
AcDbEntity
  8
0
 62
     0
100
AcDbLine
 10
221.568
 20
105.548
 30
0.0
 11
221.262
 21
105.392
 31
0.0
  0
LINE
  5
372
330
6F
100
AcDbEntity
  8
0
 62
     0
100
AcDbLine
 10
221.262
 20
105.392
 30
0.0
 11
221.018
 21
105.149
 31
0.0
  0
LINE
  5
373
330
6F
100
AcDbEntity
  8
0
 62
     0
100
AcDbLine
 10
221.018
 20
105.149
 30
0.0
 11
220.862
 21
104.841
 31
0.0
  0
LINE
  5
374
330
6F
100
AcDbEntity
  8
0
 62
     0
100
AcDbLine
 10
220.862
 20
104.841
 30
0.0
 11
220.809
 21
104.502
 31
0.0
  0
LINE
  5
375
330
6F
100
AcDbEntity
  8
0
 62
     0
100
AcDbLine
 10
220.809
 20
104.502
 30
0.0
 11
220.862
 21
104.163
 31
0.0
  0
LINE
  5
376
330
6F
100
AcDbEntity
  8
0
 62
     0
100
AcDbLine
 10
220.862
 20
104.163
 30
0.0
 11
221.018
 21
103.856
 31
0.0
  0
LINE
  5
377
330
6F
100
AcDbEntity
  8
0
 62
     0
100
AcDbLine
 10
221.018
 20
103.856
 30
0.0
 11
221.262
 21
103.613
 31
0.0
  0
LINE
  5
378
330
6F
100
AcDbEntity
  8
0
 62
     0
100
AcDbLine
 10
221.262
 20
103.613
 30
0.0
 11
221.568
 21
103.456
 31
0.0
  0
LINE
  5
379
330
6F
100
AcDbEntity
  8
0
 62
     0
100
AcDbLine
 10
221.568
 20
103.456
 30
0.0
 11
221.908
 21
103.401
 31
0.0
  0
LINE
  5
37A
330
6F
100
AcDbEntity
  8
0
 62
     0
100
AcDbLine
 10
221.908
 20
103.401
 30
0.0
 11
222.249
 21
103.456
 31
0.0
  0
LINE
  5
37B
330
6F
100
AcDbEntity
  8
0
 62
     0
100
AcDbLine
 10
222.249
 20
103.456
 30
0.0
 11
222.554
 21
103.613
 31
0.0
  0
LINE
  5
37C
330
6F
100
AcDbEntity
  8
0
 62
     0
100
AcDbLine
 10
222.554
 20
103.613
 30
0.0
 11
222.799
 21
103.856
 31
0.0
  0
LINE
  5
37D
330
6F
100
AcDbEntity
  8
0
 62
     0
100
AcDbLine
 10
222.799
 20
103.856
 30
0.0
 11
222.954
 21
104.163
 31
0.0
  0
LINE
  5
37E
330
6F
100
AcDbEntity
  8
0
 62
     0
100
AcDbLine
 10
222.954
 20
104.163
 30
0.0
 11
223.008
 21
104.502
 31
0.0
  0
LINE
  5
37F
330
6F
100
AcDbEntity
  8
0
 62
     0
100
AcDbLine
 10
223.008
 20
104.502
 30
0.0
 11
222.954
 21
104.841
 31
0.0
  0
LINE
  5
380
330
6F
100
AcDbEntity
  8
0
 62
     0
100
AcDbLine
 10
222.954
 20
104.841
 30
0.0
 11
222.799
 21
105.149
 31
0.0
  0
LINE
  5
381
330
6F
100
AcDbEntity
  8
0
 62
     0
100
AcDbLine
 10
222.799
 20
105.149
 30
0.0
 11
222.554
 21
105.392
 31
0.0
  0
LINE
  5
382
330
6F
100
AcDbEntity
  8
0
 62
     0
100
AcDbLine
 10
222.554
 20
105.392
 30
0.0
 11
222.249
 21
105.548
 31
0.0
  0
LINE
  5
383
330
6F
100
AcDbEntity
  8
0
 62
     0
100
AcDbLine
 10
222.249
 20
105.548
 30
0.0
 11
221.908
 21
105.602
 31
0.0
  0
LINE
  5
384
330
6F
100
AcDbEntity
  8
0
 62
     0
100
AcDbLine
 10
221.908
 20
105.602
 30
0.0
 11
221.568
 21
105.548
 31
0.0
  0
LINE
  5
385
330
6F
100
AcDbEntity
  8
0
 62
     0
100
AcDbLine
 10
148.631
 20
105.548
 30
0.0
 11
148.324
 21
105.392
 31
0.0
  0
LINE
  5
386
330
6F
100
AcDbEntity
  8
0
 62
     0
100
AcDbLine
 10
148.324
 20
105.392
 30
0.0
 11
148.08
 21
105.149
 31
0.0
  0
LINE
  5
387
330
6F
100
AcDbEntity
  8
0
 62
     0
100
AcDbLine
 10
148.08
 20
105.149
 30
0.0
 11
147.924
 21
104.841
 31
0.0
  0
LINE
  5
388
330
6F
100
AcDbEntity
  8
0
 62
     0
100
AcDbLine
 10
147.924
 20
104.841
 30
0.0
 11
147.87
 21
104.502
 31
0.0
  0
LINE
  5
389
330
6F
100
AcDbEntity
  8
0
 62
     0
100
AcDbLine
 10
147.87
 20
104.502
 30
0.0
 11
147.924
 21
104.163
 31
0.0
  0
LINE
  5
38A
330
6F
100
AcDbEntity
  8
0
 62
     0
100
AcDbLine
 10
147.924
 20
104.163
 30
0.0
 11
148.08
 21
103.856
 31
0.0
  0
LINE
  5
38B
330
6F
100
AcDbEntity
  8
0
 62
     0
100
AcDbLine
 10
148.08
 20
103.856
 30
0.0
 11
148.324
 21
103.613
 31
0.0
  0
LINE
  5
38C
330
6F
100
AcDbEntity
  8
0
 62
     0
100
AcDbLine
 10
148.324
 20
103.613
 30
0.0
 11
148.631
 21
103.456
 31
0.0
  0
LINE
  5
38D
330
6F
100
AcDbEntity
  8
0
 62
     0
100
AcDbLine
 10
148.631
 20
103.456
 30
0.0
 11
148.97
 21
103.401
 31
0.0
  0
LINE
  5
38E
330
6F
100
AcDbEntity
  8
0
 62
     0
100
AcDbLine
 10
148.97
 20
103.401
 30
0.0
 11
149.31
 21
103.456
 31
0.0
  0
LINE
  5
38F
330
6F
100
AcDbEntity
  8
0
 62
     0
100
AcDbLine
 10
149.31
 20
103.456
 30
0.0
 11
149.618
 21
103.613
 31
0.0
  0
LINE
  5
390
330
6F
100
AcDbEntity
  8
0
 62
     0
100
AcDbLine
 10
149.618
 20
103.613
 30
0.0
 11
149.86
 21
103.856
 31
0.0
  0
LINE
  5
391
330
6F
100
AcDbEntity
  8
0
 62
     0
100
AcDbLine
 10
149.86
 20
103.856
 30
0.0
 11
150.016
 21
104.163
 31
0.0
  0
LINE
  5
392
330
6F
100
AcDbEntity
  8
0
 62
     0
100
AcDbLine
 10
150.016
 20
104.163
 30
0.0
 11
150.071
 21
104.502
 31
0.0
  0
LINE
  5
393
330
6F
100
AcDbEntity
  8
0
 62
     0
100
AcDbLine
 10
150.071
 20
104.502
 30
0.0
 11
150.016
 21
104.841
 31
0.0
  0
LINE
  5
394
330
6F
100
AcDbEntity
  8
0
 62
     0
100
AcDbLine
 10
150.016
 20
104.841
 30
0.0
 11
149.86
 21
105.149
 31
0.0
  0
LINE
  5
395
330
6F
100
AcDbEntity
  8
0
 62
     0
100
AcDbLine
 10
149.86
 20
105.149
 30
0.0
 11
149.618
 21
105.392
 31
0.0
  0
LINE
  5
396
330
6F
100
AcDbEntity
  8
0
 62
     0
100
AcDbLine
 10
149.618
 20
105.392
 30
0.0
 11
149.31
 21
105.548
 31
0.0
  0
LINE
  5
397
330
6F
100
AcDbEntity
  8
0
 62
     0
100
AcDbLine
 10
149.31
 20
105.548
 30
0.0
 11
148.97
 21
105.602
 31
0.0
  0
LINE
  5
398
330
6F
100
AcDbEntity
  8
0
 62
     0
100
AcDbLine
 10
148.97
 20
105.602
 30
0.0
 11
148.631
 21
105.548
 31
0.0
  0
LINE
  5
399
330
6F
100
AcDbEntity
  8
0
 62
     0
100
AcDbLine
 10
75.6931
 20
105.548
 30
0.0
 11
75.38689999999999
 21
105.392
 31
0.0
  0
LINE
  5
39A
330
6F
100
AcDbEntity
  8
0
 62
     0
100
AcDbLine
 10
75.38689999999999
 20
105.392
 30
0.0
 11
75.1431
 21
105.149
 31
0.0
  0
LINE
  5
39B
330
6F
100
AcDbEntity
  8
0
 62
     0
100
AcDbLine
 10
75.1431
 20
105.149
 30
0.0
 11
74.98609999999999
 21
104.841
 31
0.0
  0
LINE
  5
39C
330
6F
100
AcDbEntity
  8
0
 62
     0
100
AcDbLine
 10
74.98609999999999
 20
104.841
 30
0.0
 11
74.93210000000001
 21
104.502
 31
0.0
  0
LINE
  5
39D
330
6F
100
AcDbEntity
  8
0
 62
     0
100
AcDbLine
 10
74.93210000000001
 20
104.502
 30
0.0
 11
74.98609999999999
 21
104.163
 31
0.0
  0
LINE
  5
39E
330
6F
100
AcDbEntity
  8
0
 62
     0
100
AcDbLine
 10
74.98609999999999
 20
104.163
 30
0.0
 11
75.1431
 21
103.856
 31
0.0
  0
LINE
  5
39F
330
6F
100
AcDbEntity
  8
0
 62
     0
100
AcDbLine
 10
75.1431
 20
103.856
 30
0.0
 11
75.38689999999999
 21
103.613
 31
0.0
  0
LINE
  5
3A0
330
6F
100
AcDbEntity
  8
0
 62
     0
100
AcDbLine
 10
75.38689999999999
 20
103.613
 30
0.0
 11
75.6931
 21
103.456
 31
0.0
  0
LINE
  5
3A1
330
6F
100
AcDbEntity
  8
0
 62
     0
100
AcDbLine
 10
75.6931
 20
103.456
 30
0.0
 11
76.0317
 21
103.401
 31
0.0
  0
LINE
  5
3A2
330
6F
100
AcDbEntity
  8
0
 62
     0
100
AcDbLine
 10
76.0317
 20
103.401
 30
0.0
 11
76.37220000000001
 21
103.456
 31
0.0
  0
LINE
  5
3A3
330
6F
100
AcDbEntity
  8
0
 62
     0
100
AcDbLine
 10
76.37220000000001
 20
103.456
 30
0.0
 11
76.6794
 21
103.613
 31
0.0
  0
LINE
  5
3A4
330
6F
100
AcDbEntity
  8
0
 62
     0
100
AcDbLine
 10
76.6794
 20
103.613
 30
0.0
 11
76.9221
 21
103.856
 31
0.0
  0
LINE
  5
3A5
330
6F
100
AcDbEntity
  8
0
 62
     0
100
AcDbLine
 10
76.9221
 20
103.856
 30
0.0
 11
77.0777
 21
104.163
 31
0.0
  0
LINE
  5
3A6
330
6F
100
AcDbEntity
  8
0
 62
     0
100
AcDbLine
 10
77.0777
 20
104.163
 30
0.0
 11
77.13309999999999
 21
104.502
 31
0.0
  0
LINE
  5
3A7
330
6F
100
AcDbEntity
  8
0
 62
     0
100
AcDbLine
 10
77.13309999999999
 20
104.502
 30
0.0
 11
77.0777
 21
104.841
 31
0.0
  0
LINE
  5
3A8
330
6F
100
AcDbEntity
  8
0
 62
     0
100
AcDbLine
 10
77.0777
 20
104.841
 30
0.0
 11
76.9221
 21
105.149
 31
0.0
  0
LINE
  5
3A9
330
6F
100
AcDbEntity
  8
0
 62
     0
100
AcDbLine
 10
76.9221
 20
105.149
 30
0.0
 11
76.6794
 21
105.392
 31
0.0
  0
LINE
  5
3AA
330
6F
100
AcDbEntity
  8
0
 62
     0
100
AcDbLine
 10
76.6794
 20
105.392
 30
0.0
 11
76.37220000000001
 21
105.548
 31
0.0
  0
LINE
  5
3AB
330
6F
100
AcDbEntity
  8
0
 62
     0
100
AcDbLine
 10
76.37220000000001
 20
105.548
 30
0.0
 11
76.0317
 21
105.602
 31
0.0
  0
LINE
  5
3AC
330
6F
100
AcDbEntity
  8
0
 62
     0
100
AcDbLine
 10
76.0317
 20
105.602
 30
0.0
 11
75.6931
 21
105.548
 31
0.0
  0
CIRCLE
  5
3BA
330
6F
100
AcDbEntity
  8
0
100
AcDbCircle
 10
125.1569999999999
 20
44.9737264694595
 30
0.0
 40
2.032
  0
CIRCLE
  5
3BB
330
6F
100
AcDbEntity
  8
0
100
AcDbCircle
 10
134.682
 20
44.9737264694595
 30
0.0
 40
3.048
  0
CIRCLE
  5
3BC
330
6F
100
AcDbEntity
  8
0
100
AcDbCircle
 10
144.2069999999998
 20
44.9737264694595
 30
0.0
 40
2.032
  0
LWPOLYLINE
  5
3D7
330
6F
100
AcDbEntity
  8
0
100
AcDbPolyline
 90
        5
 70
     1
 43
0.0
 10
27.53231776844768
 20
17.83980653346037
 10
30.07231776844765
 20
17.83980653346037
 10
30.07231776844765
 20
14.28380653346039
 10
27.53231776844768
 20
14.28380653346039
 10
27.53231776844768
 20
17.83980653346037
  0
ENDSEC
  0
SECTION
  2
OBJECTS
  0
DICTIONARY
  5
C
330
0
100
AcDbDictionary
281
     1
  3
ACAD_CIP_PREVIOUS_PRODUCT_INFO
350
3AE
  3
ACAD_COLOR
350
62
  3
ACAD_DETAILVIEWSTYLE
350
69
  3
ACAD_GROUP
350
D
  3
ACAD_LAYOUT
350
61
  3
ACAD_MATERIAL
350
10
  3
ACAD_MLEADERSTYLE
350
65
  3
ACAD_MLINESTYLE
350
5E
  3
ACAD_PLOTSETTINGS
350
60
  3
ACAD_PLOTSTYLENAME
350
E
  3
ACAD_SCALELIST
350
42
  3
ACAD_SECTIONVIEWSTYLE
350
67
  3
ACAD_TABLESTYLE
350
63
  3
ACAD_VISUALSTYLE
350
29
  3
ACDB_RECOMPOSE_DATA
350
3E6
  3
AcDbVariableDictionary
350
3DA
  0
DICTIONARY
  5
3B1
330
2
100
AcDbDictionary
280
     1
281
     1
  3
ACAD_LAYERSTATES
360
3B2
  0
DICTIONARY
  5
3D8
330
54
100
AcDbDictionary
280
     1
281
     1
  3
ADSK_XREC_LAYER_RECONCILED
360
3D9
  0
XRECORD
  5
3AE
102
{ACAD_REACTORS
330
C
102
}
330
C
100
AcDbXrecord
280
     1
300
ACD
300
2021
300

  0
DICTIONARY
  5
62
102
{ACAD_REACTORS
330
C
102
}
330
C
100
AcDbDictionary
281
     1
  0
DICTIONARY
  5
69
102
{ACAD_REACTORS
330
C
102
}
330
C
100
AcDbDictionary
281
     1
  3
Imperial24
350
6A
  0
DICTIONARY
  5
D
102
{ACAD_REACTORS
330
C
102
}
330
C
100
AcDbDictionary
281
     1
  0
DICTIONARY
  5
61
102
{ACAD_REACTORS
330
C
102
}
330
C
100
AcDbDictionary
281
     1
  3
Layout1
350
6E
  3
Model
350
72
  0
DICTIONARY
  5
10
102
{ACAD_REACTORS
330
C
102
}
330
C
100
AcDbDictionary
281
     1
  3
ByBlock
350
19
  3
ByLayer
350
11
  3
Global
350
21
  0
DICTIONARY
  5
65
102
{ACAD_REACTORS
330
C
102
}
330
C
100
AcDbDictionary
281
     1
  3
Standard
350
66
  0
DICTIONARY
  5
5E
102
{ACAD_REACTORS
330
C
102
}
330
C
100
AcDbDictionary
281
     1
  3
Standard
350
5F
  0
DICTIONARY
  5
60
102
{ACAD_REACTORS
330
C
102
}
330
C
100
AcDbDictionary
281
     1
  0
ACDBDICTIONARYWDFLT
  5
E
102
{ACAD_REACTORS
330
C
102
}
330
C
100
AcDbDictionary
281
     1
  3
Normal
350
F
100
AcDbDictionaryWithDefault
340
F
  0
DICTIONARY
  5
42
102
{ACAD_REACTORS
330
C
102
}
330
C
100
AcDbDictionary
281
     1
  3
A0
350
43
  3
A1
350
44
  3
A2
350
45
  3
A3
350
46
  3
A4
350
47
  3
A5
350
48
  3
A6
350
49
  3
A7
350
4A
  3
A8
350
4B
  3
A9
350
4C
  3
B0
350
4D
  3
B1
350
4E
  3
B2
350
4F
  3
B3
350
50
  3
B4
350
51
  3
B5
350
52
  3
B6
350
53
  0
DICTIONARY
  5
67
102
{ACAD_REACTORS
330
C
102
}
330
C
100
AcDbDictionary
281
     1
  3
Imperial24
350
68
  0
DICTIONARY
  5
63
102
{ACAD_REACTORS
330
C
102
}
330
C
100
AcDbDictionary
281
     1
  3
Standard
350
64
  0
DICTIONARY
  5
29
102
{ACAD_REACTORS
330
C
102
}
330
C
100
AcDbDictionary
281
     1
  3
2dWireframe
350
2F
  3
Basic
350
2E
  3
Brighten
350
35
  3
ColorChange
350
39
  3
Conceptual
350
32
  3
Dim
350
34
  3
EdgeColorOff
350
41
  3
Facepattern
350
38
  3
Flat
350
2A
  3
FlatWithEdges
350
2B
  3
Gouraud
350
2C
  3
GouraudWithEdges
350
2D
  3
Hidden
350
31
  3
JitterOff
350
3F
  3
Linepattern
350
37
  3
OverhangOff
350
40
  3
Realistic
350
33
  3
Shaded
350
3E
  3
Shaded with edges
350
3D
  3
Shades of Gray
350
3A
  3
Sketchy
350
3B
  3
Thicken
350
36
  3
Wireframe
350
30
  3
X-Ray
350
3C
  0
XRECORD
  5
3E6
102
{ACAD_REACTORS
330
C
102
}
330
C
100
AcDbXrecord
280
     1
 90
        1
330
64
  0
DICTIONARY
  5
3DA
102
{ACAD_REACTORS
330
C
102
}
330
C
100
AcDbDictionary
281
     1
  3
CANNOSCALE
350
3E0
  3
CMLEADERSTYLE
350
3DC
  3
CTABLESTYLE
350
3DB
  3
CVIEWDETAILSTYLE
350
3DD
  3
CVIEWSECTIONSTYLE
350
3DE
  3
LAYEREVAL
350
3E2
  3
LAYERNOTIFY
350
3E3
  3
LIGHTINGUNITS
350
3E1
  3
MSLTSCALE
350
3DF
  0
DICTIONARY
  5
3B2
102
{ACAD_REACTORS
330
3B1
102
}
330
3B1
100
AcDbDictionary
281
     1
  0
XRECORD
  5
3D9
102
{ACAD_REACTORS
330
3D8
102
}
330
3D8
100
AcDbXrecord
280
     1
290
     1
  0
ACDBDETAILVIEWSTYLE
  5
6A
102
{ACAD_REACTORS
330
69
102
}
330
69
100
AcDbModelDocViewStyle
 70
     0
  3
Imperial24
290
     0
300
Imperial24
 90
        0
100
AcDbDetailViewStyle
 70
     0
 71
     0
 90
        3
 71
     1
340
55
 62
   256
 40
0.24
340
0
 62
   256
 40
0.24
300

 40
0.36
280
     3
 71
     2
340
5C
 90
       25
 62
   256
 71
     3
340
55
 62
   256
 40
0.24
 90
        1
 40
0.75
 90
        1
300
%<\AcVar ViewType \f "%tc1">% %<\AcVar ViewDetailId>%\PSCALE %<\AcVar ViewScale \f "%sn">%
 71
     4
340
5C
 90
       25
 62
   256
340
5C
 90
       25
 62
   256
280
     0
  0
LAYOUT
  5
6E
102
{ACAD_REACTORS
330
61
102
}
330
61
100
AcDbPlotSettings
  1

  2
Microsoft Print to PDF
  4

  6

 40
0.0
 41
0.0
 42
0.0
 43
0.0
 44
0.0
 45
0.0
 46
0.0
 47
0.0
 48
0.0
 49
0.0
140
0.0
141
0.0
142
1.0
143
1.0
 70
   688
 72
     0
 73
     0
 74
     5
  7

 75
    16
147
1.0
 76
     0
 77
     2
 78
   300
148
0.0
149
0.0
100
AcDbLayout
  1
Layout1
 70
     1
 71
     1
 10
0.0
 20
0.0
 11
12.0
 21
9.0
 12
0.0
 22
0.0
 32
0.0
 14
1.000000000000000E+20
 24
1.000000000000000E+20
 34
1.000000000000000E+20
 15
-1.000000000000000E+20
 25
-1.000000000000000E+20
 35
-1.000000000000000E+20
146
0.0
 13
0.0
 23
0.0
 33
0.0
 16
1.0
 26
0.0
 36
0.0
 17
0.0
 27
1.0
 37
0.0
 76
     0
330
6B
  0
LAYOUT
  5
72
102
{ACAD_REACTORS
330
61
102
}
330
61
100
AcDbPlotSettings
  1

  2
Microsoft Print to PDF
  4

  6

 40
0.0
 41
0.0
 42
0.0
 43
0.0
 44
0.0
 45
0.0
 46
0.0
 47
0.0
 48
0.0
 49
0.0
140
0.0
141
0.0
142
1.0
143
1.0
 70
  1712
 72
     0
 73
     0
 74
     0
  7

 75
     0
147
1.0
 76
     0
 77
     2
 78
   300
148
0.0
149
0.0
100
AcDbLayout
  1
Model
 70
     1
 71
     0
 10
0.0
 20
0.0
 11
12.0
 21
9.0
 12
0.0
 22
0.0
 32
0.0
 14
0.0
 24
0.0
 34
0.0
 15
0.0
 25
0.0
 35
0.0
146
0.0
 13
0.0
 23
0.0
 33
0.0
 16
1.0
 26
0.0
 36
0.0
 17
0.0
 27
1.0
 37
0.0
 76
     0
330
6F
331
74
  0
MATERIAL
  5
19
102
{ACAD_XDICTIONARY
360
1A
102
}
102
{ACAD_REACTORS
330
10
102
}
330
10
100
AcDbMaterial
  1
ByBlock
 72
     0
 43
0.0208333333333333
 43
0.0
 43
0.0
 43
0.0
 43
0.0
 43
0.0208333333333333
 43
0.0
 43
0.0
 43
0.0
 43
0.0
 43
1.0
 43
0.0
 43
0.0
 43
0.0
 43
0.0
 43
1.0
 77
     0
 47
0.0208333333333333
 47
0.0
 47
0.0
 47
0.0
 47
0.0
 47
0.0208333333333333
 47
0.0
 47
0.0
 47
0.0
 47
0.0
 47
1.0
 47
0.0
 47
0.0
 47
0.0
 47
0.0
 47
1.0
171
     0
 49
0.0208333333333333
 49
0.0
 49
0.0
 49
0.0
 49
0.0
 49
0.0208333333333333
 49
0.0
 49
0.0
 49
0.0
 49
0.0
 49
1.0
 49
0.0
 49
0.0
 49
0.0
 49
0.0
 49
1.0
175
     0
142
0.0208333333333333
142
0.0
142
0.0
142
0.0
142
0.0
142
0.0208333333333333
142
0.0
142
0.0
142
0.0
142
0.0
142
1.0
142
0.0
142
0.0
142
0.0
142
0.0
142
1.0
179
     0
144
0.0208333333333333
144
0.0
144
0.0
144
0.0
144
0.0
144
0.0208333333333333
144
0.0
144
0.0
144
0.0
144
0.0
144
1.0
144
0.0
144
0.0
144
0.0
144
0.0
144
1.0
147
0.0208333333333333
147
0.0
147
0.0
147
0.0
147
0.0
147
0.0208333333333333
147
0.0
147
0.0
147
0.0
147
0.0
147
1.0
147
0.0
147
0.0
147
0.0
147
0.0
147
1.0
  0
MATERIAL
  5
11
102
{ACAD_XDICTIONARY
360
12
102
}
102
{ACAD_REACTORS
330
10
102
}
330
10
100
AcDbMaterial
  1
ByLayer
 72
     0
 43
0.0208333333333333
 43
0.0
 43
0.0
 43
0.0
 43
0.0
 43
0.0208333333333333
 43
0.0
 43
0.0
 43
0.0
 43
0.0
 43
1.0
 43
0.0
 43
0.0
 43
0.0
 43
0.0
 43
1.0
 77
     0
 47
0.0208333333333333
 47
0.0
 47
0.0
 47
0.0
 47
0.0
 47
0.0208333333333333
 47
0.0
 47
0.0
 47
0.0
 47
0.0
 47
1.0
 47
0.0
 47
0.0
 47
0.0
 47
0.0
 47
1.0
171
     0
 49
0.0208333333333333
 49
0.0
 49
0.0
 49
0.0
 49
0.0
 49
0.0208333333333333
 49
0.0
 49
0.0
 49
0.0
 49
0.0
 49
1.0
 49
0.0
 49
0.0
 49
0.0
 49
0.0
 49
1.0
175
     0
142
0.0208333333333333
142
0.0
142
0.0
142
0.0
142
0.0
142
0.0208333333333333
142
0.0
142
0.0
142
0.0
142
0.0
142
1.0
142
0.0
142
0.0
142
0.0
142
0.0
142
1.0
179
     0
144
0.0208333333333333
144
0.0
144
0.0
144
0.0
144
0.0
144
0.0208333333333333
144
0.0
144
0.0
144
0.0
144
0.0
144
1.0
144
0.0
144
0.0
144
0.0
144
0.0
144
1.0
147
0.0208333333333333
147
0.0
147
0.0
147
0.0
147
0.0
147
0.0208333333333333
147
0.0
147
0.0
147
0.0
147
0.0
147
1.0
147
0.0
147
0.0
147
0.0
147
0.0
147
1.0
  0
MATERIAL
  5
21
102
{ACAD_XDICTIONARY
360
22
102
}
102
{ACAD_REACTORS
330
10
102
}
330
10
100
AcDbMaterial
  1
Global
 72
     0
 43
0.0208333333333333
 43
0.0
 43
0.0
 43
0.0
 43
0.0
 43
0.0208333333333333
 43
0.0
 43
0.0
 43
0.0
 43
0.0
 43
1.0
 43
0.0
 43
0.0
 43
0.0
 43
0.0
 43
1.0
 77
     0
 47
0.0208333333333333
 47
0.0
 47
0.0
 47
0.0
 47
0.0
 47
0.0208333333333333
 47
0.0
 47
0.0
 47
0.0
 47
0.0
 47
1.0
 47
0.0
 47
0.0
 47
0.0
 47
0.0
 47
1.0
171
     0
 49
0.0208333333333333
 49
0.0
 49
0.0
 49
0.0
 49
0.0
 49
0.0208333333333333
 49
0.0
 49
0.0
 49
0.0
 49
0.0
 49
1.0
 49
0.0
 49
0.0
 49
0.0
 49
0.0
 49
1.0
175
     0
142
0.0208333333333333
142
0.0
142
0.0
142
0.0
142
0.0
142
0.0208333333333333
142
0.0
142
0.0
142
0.0
142
0.0
142
1.0
142
0.0
142
0.0
142
0.0
142
0.0
142
1.0
179
     0
144
0.0208333333333333
144
0.0
144
0.0
144
0.0
144
0.0
144
0.0208333333333333
144
0.0
144
0.0
144
0.0
144
0.0
144
1.0
144
0.0
144
0.0
144
0.0
144
0.0
144
1.0
147
0.0208333333333333
147
0.0
147
0.0
147
0.0
147
0.0
147
0.0208333333333333
147
0.0
147
0.0
147
0.0
147
0.0
147
1.0
147
0.0
147
0.0
147
0.0
147
0.0
147
1.0
  0
MLEADERSTYLE
  5
66
102
{ACAD_REACTORS
330
65
102
}
330
65
100
AcDbMLeaderStyle
179
     2
170
     2
171
     1
172
     0
 90
        2
 40
0.0
 41
0.0
173
     1
 91
-1056964608
340
5A
 92
       -2
290
     1
 42
0.09
291
     1
 43
0.36
  3
Standard
 44
0.18
300

342
55
174
     1
178
     6
175
     1
176
     0
 93
-1056964608
 45
0.18
292
     0
297
     0
 46
0.18
 94
-1056964608
 47
1.0
 49
1.0
140
1.0
293
     1
141
0.0
294
     1
177
     0
142
1.0
295
     0
296
     0
143
0.125
271
     0
272
     9
273
     9
298
     0
  0
MLINESTYLE
  5
5F
102
{ACAD_REACTORS
330
5E
102
}
330
5E
100
AcDbMlineStyle
  2
STANDARD
 70
     0
  3

 62
   256
 51
90.0
 52
90.0
 71
     2
 49
0.5
 62
   256
  6
BYLAYER
 49
-0.5
 62
   256
  6
BYLAYER
  0
ACDBPLACEHOLDER
  5
F
102
{ACAD_REACTORS
330
E
102
}
330
E
  0
SCALE
  5
43
102
{ACAD_REACTORS
330
42
102
}
330
42
100
AcDbScale
 70
     0
300
1:1
140
1.0
141
1.0
290
     1
  0
SCALE
  5
44
102
{ACAD_REACTORS
330
42
102
}
330
42
100
AcDbScale
 70
     0
300
1/128" = 1'-0"
140
0.0078125
141
12.0
290
     0
  0
SCALE
  5
45
102
{ACAD_REACTORS
330
42
102
}
330
42
100
AcDbScale
 70
     0
300
1/64" = 1'-0"
140
0.015625
141
12.0
290
     0
  0
SCALE
  5
46
102
{ACAD_REACTORS
330
42
102
}
330
42
100
AcDbScale
 70
     0
300
1/32" = 1'-0"
140
0.03125
141
12.0
290
     0
  0
SCALE
  5
47
102
{ACAD_REACTORS
330
42
102
}
330
42
100
AcDbScale
 70
     0
300
1/16" = 1'-0"
140
0.0625
141
12.0
290
     0
  0
SCALE
  5
48
102
{ACAD_REACTORS
330
42
102
}
330
42
100
AcDbScale
 70
     0
300
3/32" = 1'-0"
140
0.09375
141
12.0
290
     0
  0
SCALE
  5
49
102
{ACAD_REACTORS
330
42
102
}
330
42
100
AcDbScale
 70
     0
300
1/8" = 1'-0"
140
0.125
141
12.0
290
     0
  0
SCALE
  5
4A
102
{ACAD_REACTORS
330
42
102
}
330
42
100
AcDbScale
 70
     0
300
3/16" = 1'-0"
140
0.1875
141
12.0
290
     0
  0
SCALE
  5
4B
102
{ACAD_REACTORS
330
42
102
}
330
42
100
AcDbScale
 70
     0
300
1/4" = 1'-0"
140
0.25
141
12.0
290
     0
  0
SCALE
  5
4C
102
{ACAD_REACTORS
330
42
102
}
330
42
100
AcDbScale
 70
     0
300
3/8" = 1'-0"
140
0.375
141
12.0
290
     0
  0
SCALE
  5
4D
102
{ACAD_REACTORS
330
42
102
}
330
42
100
AcDbScale
 70
     0
300
1/2" = 1'-0"
140
0.5
141
12.0
290
     0
  0
SCALE
  5
4E
102
{ACAD_REACTORS
330
42
102
}
330
42
100
AcDbScale
 70
     0
300
3/4" = 1'-0"
140
0.75
141
12.0
290
     0
  0
SCALE
  5
4F
102
{ACAD_REACTORS
330
42
102
}
330
42
100
AcDbScale
 70
     0
300
1" = 1'-0"
140
1.0
141
12.0
290
     0
  0
SCALE
  5
50
102
{ACAD_REACTORS
330
42
102
}
330
42
100
AcDbScale
 70
     0
300
1-1/2" = 1'-0"
140
1.5
141
12.0
290
     0
  0
SCALE
  5
51
102
{ACAD_REACTORS
330
42
102
}
330
42
100
AcDbScale
 70
     0
300
3" = 1'-0"
140
3.0
141
12.0
290
     0
  0
SCALE
  5
52
102
{ACAD_REACTORS
330
42
102
}
330
42
100
AcDbScale
 70
     0
300
6" = 1'-0"
140
6.0
141
12.0
290
     0
  0
SCALE
  5
53
102
{ACAD_REACTORS
330
42
102
}
330
42
100
AcDbScale
 70
     0
300
1'-0" = 1'-0"
140
12.0
141
12.0
290
     0
  0
ACDBSECTIONVIEWSTYLE
  5
68
102
{ACAD_REACTORS
330
67
102
}
330
67
100
AcDbModelDocViewStyle
 70
     0
  3
Imperial24
290
     0
300
Imperial24
 90
        0
100
AcDbSectionViewStyle
 70
     0
 71
     0
 90
       78
 71
     1
340
55
 62
   256
 40
0.24
340
0
340
0
 62
   256
 40
0.24
300
I, O, Q, S, X, Z
 40
0.48
 90
        3
 40
0.18
 90
        1
 71
     2
340
5C
 90
       25
 62
   256
340
5C
 90
       50
 62
   256
 40
0.24
 40
0.0
 40
0.24
 71
     3
340
55
 62
   256
 40
0.24
 90
        1
 40
0.75
 90
        1
300
%<\AcVar ViewType \f "%tc1">% %<\AcVar ViewSectionStartId>%-%<\AcVar ViewSectionEndId>%\PSCALE %<\AcVar ViewScale \f "%sn">%
 71
     4
 62
   256
 62
   257
300
ANSI31
 40
1.0
 90
        0
290
     0
290
     0
 90
        6
 40
0.0
 40
1.570796326794896
 40
0.2617993877991494
 40
1.308996938995747
 40
-0.2617993877991494
 40
1.832595714594046
  0
TABLESTYLE
  5
64
102
{ACAD_XDICTIONARY
360
3E4
102
}
102
{ACAD_REACTORS
330
63
102
}
330
63
100
AcDbTableStyle
280
     0
  3
Standard
 70
     0
 71
     0
 40
0.06
 41
0.06
280
     0
281
     0
  7
Standard
140
0.18
170
     2
 62
     0
 63
     7
283
     0
 90
      512
 91
        0
  1

274
    -2
284
     1
 64
     0
275
    -2
285
     1
 65
     0
276
    -2
286
     1
 66
     0
277
    -2
287
     1
 67
     0
278
    -2
288
     1
 68
     0
279
    -2
289
     1
 69
     0
  7
Standard
140
0.25
170
     5
 62
     0
 63
     7
283
     0
 90
      512
 91
        0
  1

274
    -2
284
     1
 64
     0
275
    -2
285
     1
 65
     0
276
    -2
286
     1
 66
     0
277
    -2
287
     1
 67
     0
278
    -2
288
     1
 68
     0
279
    -2
289
     1
 69
     0
  7
Standard
140
0.18
170
     5
 62
     0
 63
     7
283
     0
 90
      512
 91
        0
  1

274
    -2
284
     1
 64
     0
275
    -2
285
     1
 65
     0
276
    -2
286
     1
 66
     0
277
    -2
287
     1
 67
     0
278
    -2
288
     1
 68
     0
279
    -2
289
     1
 69
     0
  0
VISUALSTYLE
  5
2F
102
{ACAD_REACTORS
330
29
102
}
330
29
100
AcDbVisualStyle
  2
2dWireframe
 70
     4
177
     3
291
     0
 70
    58
 90
        0
176
     1
 90
        2
176
     1
 90
        0
176
     1
 90
        0
176
     1
 40
0.6
176
     1
 40
30.0
176
     1
 62
     7
420
 16777215
176
     1
 90
        1
176
     1
 90
        4
176
     1
 62
     7
176
     1
 62
   257
176
     1
 90
        1
176
     1
 90
        1
176
     1
 40
1.0
176
     1
 90
        0
176
     1
 62
   257
176
     1
 40
1.0
176
     1
 90
        1
176
     1
 90
        6
176
     1
 90
        2
176
     1
 62
     7
176
     1
 90
        5
176
     1
 90
        0
176
     1
 90
        0
176
     1
290
     0
176
     1
 90
        1
176
     1
 40
0.0
176
     1
 90
        0
176
     1
290
     1
176
     1
290
     1
176
     1
290
     0
176
     1
290
     0
176
     1
290
     0
176
     1
290
     0
176
     1
290
     0
176
     1
290
     0
176
     1
290
     0
176
     1
 90
       50
176
     1
 40
0.0
176
     1
 40
1.0
176
     1
 90
        0
176
     1
 62
    18
420
        0
176
     1
 90
       50
176
     1
 90
        3
176
     1
 62
     5
420
      255
176
     1
290
     0
176
     1
 90
       50
176
     1
 90
       50
176
     1
 90
       50
176
     1
290
     0
176
     1
 90
       50
176
     1
 62
   256
176
     0
 40
1.0
176
     0
 90
        2
176
     1
  1
strokes_ogs.tif
176
     1
290
     0
176
     1
 40
1.0
176
     1
 40
1.0
176
     1
  0
VISUALSTYLE
  5
2E
102
{ACAD_REACTORS
330
29
102
}
330
29
100
AcDbVisualStyle
  2
Basic
 70
     7
177
     3
291
     1
 70
    58
 90
        1
176
     1
 90
        0
176
     1
 90
        1
176
     1
 90
        0
176
     1
 40
0.6
176
     1
 40
30.0
176
     1
 62
     7
420
 16777215
176
     1
 90
        0
176
     1
 90
        4
176
     1
 62
     7
176
     1
 62
   257
176
     1
 90
        1
176
     1
 90
        1
176
     1
 40
1.0
176
     1
 90
        8
176
     1
 62
     7
176
     1
 40
1.0
176
     1
 90
        1
176
     1
 90
        6
176
     1
 90
        2
176
     1
 62
     7
176
     1
 90
        5
176
     1
 90
        0
176
     1
 90
        0
176
     1
290
     0
176
     1
 90
        1
176
     1
 40
0.0
176
     1
 90
        0
176
     1
290
     0
176
     1
290
     1
176
     1
290
     1
176
     1
290
     0
176
     1
290
     0
176
     1
290
     0
176
     1
290
     0
176
     1
290
     0
176
     1
290
     0
176
     1
 90
       50
176
     1
 40
0.0
176
     1
 40
1.0
176
     1
 90
        0
176
     1
 62
    18
420
        0
176
     1
 90
       50
176
     1
 90
        3
176
     1
 62
     5
420
      255
176
     1
290
     0
176
     1
 90
       50
176
     1
 90
       50
176
     1
 90
       50
176
     1
290
     0
176
     1
 90
       50
176
     1
 62
   256
176
     0
 40
1.0
176
     0
 90
        2
176
     1
  1
strokes_ogs.tif
176
     1
290
     0
176
     1
 40
1.0
176
     1
 40
1.0
176
     1
  0
VISUALSTYLE
  5
35
102
{ACAD_REACTORS
330
29
102
}
330
29
100
AcDbVisualStyle
  2
Brighten
 70
    12
177
     3
291
     1
 70
    58
 90
        2
176
     1
 90
        2
176
     1
 90
        0
176
     1
 90
        0
176
     1
 40
0.6
176
     1
 40
30.0
176
     1
 62
     7
420
 16777215
176
     1
 90
        1
176
     1
 90
        4
176
     1
 62
     7
176
     1
 62
   257
176
     1
 90
        1
176
     1
 90
        1
176
     1
 40
1.0
176
     1
 90
        8
176
     1
 62
     7
176
     1
 40
1.0
176
     1
 90
        1
176
     1
 90
        6
176
     1
 90
        2
176
     1
 62
     7
176
     1
 90
        5
176
     1
 90
        0
176
     1
 90
        0
176
     1
290
     0
176
     1
 90
        1
176
     1
 40
50.0
176
     1
 90
        0
176
     1
290
     0
176
     1
290
     1
176
     1
290
     1
176
     1
290
     0
176
     1
290
     0
176
     1
290
     0
176
     1
290
     0
176
     1
290
     0
176
     1
290
     0
176
     1
 90
       50
176
     1
 40
0.0
176
     1
 40
1.0
176
     1
 90
        0
176
     1
 62
    18
420
        0
176
     1
 90
       50
176
     1
 90
        3
176
     1
 62
     5
420
      255
176
     1
290
     0
176
     1
 90
       50
176
     1
 90
       50
176
     1
 90
       50
176
     1
290
     0
176
     1
 90
       50
176
     1
 62
   256
176
     0
 40
1.0
176
     0
 90
        2
176
     1
  1
strokes_ogs.tif
176
     1
290
     0
176
     1
 40
1.0
176
     1
 40
1.0
176
     1
  0
VISUALSTYLE
  5
39
102
{ACAD_REACTORS
330
29
102
}
330
29
100
AcDbVisualStyle
  2
ColorChange
 70
    16
177
     3
291
     1
 70
    58
 90
        2
176
     1
 90
        2
176
     1
 90
        3
176
     1
 90
        0
176
     1
 40
0.6
176
     1
 40
30.0
176
     1
 62
     8
420
  8421504
176
     1
 90
        1
176
     1
 90
        4
176
     1
 62
     7
176
     1
 62
   257
176
     1
 90
        1
176
     1
 90
        1
176
     1
 40
1.0
176
     1
 90
        8
176
     1
 62
     8
420
  8421504
176
     1
 40
1.0
176
     1
 90
        1
176
     1
 90
        6
176
     1
 90
        2
176
     1
 62
     7
176
     1
 90
        5
176
     1
 90
        0
176
     1
 90
        0
176
     1
290
     0
176
     1
 90
        1
176
     1
 40
0.0
176
     1
 90
        0
176
     1
290
     0
176
     1
290
     1
176
     1
290
     1
176
     1
290
     0
176
     1
290
     0
176
     1
290
     0
176
     1
290
     0
176
     1
290
     0
176
     1
290
     0
176
     1
 90
       50
176
     1
 40
0.0
176
     1
 40
1.0
176
     1
 90
        0
176
     1
 62
    18
420
        0
176
     1
 90
       50
176
     1
 90
        3
176
     1
 62
     5
420
      255
176
     1
290
     0
176
     1
 90
       50
176
     1
 90
       50
176
     1
 90
       50
176
     1
290
     0
176
     1
 90
       50
176
     1
 62
   256
176
     0
 40
1.0
176
     0
 90
        2
176
     1
  1
strokes_ogs.tif
176
     1
290
     0
176
     1
 40
1.0
176
     1
 40
1.0
176
     1
  0
VISUALSTYLE
  5
32
102
{ACAD_REACTORS
330
29
102
}
330
29
100
AcDbVisualStyle
  2
Conceptual
 70
     9
177
     3
291
     0
 70
    58
 90
        3
176
     1
 90
        2
176
     1
 90
        0
176
     1
 90
        0
176
     1
 40
0.6
176
     1
 40
30.0
176
     1
 62
     7
420
 16777215
176
     1
 90
        2
176
     1
 90
        2
176
     1
 62
     7
176
     1
 62
   257
176
     1
 90
        1
176
     1
 90
        1
176
     1
 40
179.0
176
     1
 90
        8
176
     1
 62
     7
176
     1
 40
1.0
176
     1
 90
        1
176
     1
 90
        6
176
     1
 90
        2
176
     1
 62
     7
176
     1
 90
        3
176
     1
 90
        0
176
     1
 90
        0
176
     1
290
     0
176
     1
 90
        1
176
     1
 40
0.0
176
     1
 90
        0
176
     1
290
     0
176
     1
290
     1
176
     1
290
     1
176
     1
290
     0
176
     1
290
     0
176
     1
290
     0
176
     1
290
     0
176
     1
290
     0
176
     1
290
     0
176
     1
 90
       50
176
     1
 40
0.0
176
     1
 40
1.0
176
     1
 90
        0
176
     1
 62
    18
420
        0
176
     1
 90
       50
176
     1
 90
        3
176
     1
 62
     5
420
      255
176
     1
290
     0
176
     1
 90
       50
176
     1
 90
       50
176
     1
 90
       50
176
     1
290
     0
176
     1
 90
       50
176
     1
 62
   256
176
     0
 40
1.0
176
     0
 90
        2
176
     1
  1
strokes_ogs.tif
176
     1
290
     0
176
     1
 40
1.0
176
     1
 40
1.0
176
     1
  0
VISUALSTYLE
  5
34
102
{ACAD_REACTORS
330
29
102
}
330
29
100
AcDbVisualStyle
  2
Dim
 70
    11
177
     3
291
     1
 70
    58
 90
        2
176
     1
 90
        2
176
     1
 90
        0
176
     1
 90
        0
176
     1
 40
0.6
176
     1
 40
30.0
176
     1
 62
     7
420
 16777215
176
     1
 90
        1
176
     1
 90
        4
176
     1
 62
     7
176
     1
 62
   257
176
     1
 90
        1
176
     1
 90
        1
176
     1
 40
1.0
176
     1
 90
        8
176
     1
 62
     7
176
     1
 40
1.0
176
     1
 90
        1
176
     1
 90
        6
176
     1
 90
        2
176
     1
 62
     7
176
     1
 90
        5
176
     1
 90
        0
176
     1
 90
        0
176
     1
290
     0
176
     1
 90
        1
176
     1
 40
-50.0
176
     1
 90
        0
176
     1
290
     0
176
     1
290
     1
176
     1
290
     1
176
     1
290
     0
176
     1
290
     0
176
     1
290
     0
176
     1
290
     0
176
     1
290
     0
176
     1
290
     0
176
     1
 90
       50
176
     1
 40
0.0
176
     1
 40
1.0
176
     1
 90
        0
176
     1
 62
    18
420
        0
176
     1
 90
       50
176
     1
 90
        3
176
     1
 62
     5
420
      255
176
     1
290
     0
176
     1
 90
       50
176
     1
 90
       50
176
     1
 90
       50
176
     1
290
     0
176
     1
 90
       50
176
     1
 62
   256
176
     0
 40
1.0
176
     0
 90
        2
176
     1
  1
strokes_ogs.tif
176
     1
290
     0
176
     1
 40
1.0
176
     1
 40
1.0
176
     1
  0
VISUALSTYLE
  5
41
102
{ACAD_REACTORS
330
29
102
}
330
29
100
AcDbVisualStyle
  2
EdgeColorOff
 70
    22
177
     3
291
     1
 70
    58
 90
        2
176
     0
 90
        2
176
     0
 90
        0
176
     0
 90
        0
176
     0
 40
0.6
176
     0
 40
30.0
176
     0
 62
     7
420
 16777215
176
     0
 90
        1
176
     0
 90
        4
176
     0
 62
     7
176
     0
 62
   257
176
     0
 90
        1
176
     0
 90
        1
176
     0
 40
1.0
176
     0
 90
        8
176
     2
 62
     7
176
     0
 40
1.0
176
     0
 90
        1
176
     0
 90
        6
176
     0
 90
        2
176
     0
 62
     7
176
     0
 90
        5
176
     0
 90
        0
176
     0
 90
        0
176
     0
290
     0
176
     0
 90
        1
176
     0
 40
0.0
176
     0
 90
        0
176
     0
290
     0
176
     1
290
     1
176
     1
290
     1
176
     1
290
     0
176
     1
290
     0
176
     1
290
     0
176
     1
290
     0
176
     1
290
     0
176
     1
290
     0
176
     1
 90
       50
176
     0
 40
0.0
176
     0
 40
1.0
176
     0
 90
        0
176
     0
 62
    18
420
        0
176
     0
 90
       50
176
     0
 90
        3
176
     0
 62
     5
420
      255
176
     0
290
     0
176
     1
 90
       50
176
     0
 90
       50
176
     0
 90
       50
176
     0
290
     0
176
     1
 90
       50
176
     0
 62
   256
176
     0
 40
1.0
176
     0
 90
        2
176
     0
  1
strokes_ogs.tif
176
     0
290
     0
176
     1
 40
1.0
176
     0
 40
1.0
176
     0
  0
VISUALSTYLE
  5
38
102
{ACAD_REACTORS
330
29
102
}
330
29
100
AcDbVisualStyle
  2
Facepattern
 70
    15
177
     3
291
     1
 70
    58
 90
        2
176
     1
 90
        2
176
     1
 90
        0
176
     1
 90
        0
176
     1
 40
0.6
176
     1
 40
30.0
176
     1
 62
     7
420
 16777215
176
     1
 90
        1
176
     1
 90
        4
176
     1
 62
     7
176
     1
 62
   257
176
     1
 90
        1
176
     1
 90
        1
176
     1
 40
1.0
176
     1
 90
        8
176
     1
 62
     7
176
     1
 40
1.0
176
     1
 90
        1
176
     1
 90
        6
176
     1
 90
        2
176
     1
 62
     7
176
     1
 90
        5
176
     1
 90
        0
176
     1
 90
        0
176
     1
290
     0
176
     1
 90
        1
176
     1
 40
0.0
176
     1
 90
        0
176
     1
290
     0
176
     1
290
     1
176
     1
290
     1
176
     1
290
     0
176
     1
290
     0
176
     1
290
     0
176
     1
290
     0
176
     1
290
     0
176
     1
290
     0
176
     1
 90
       50
176
     1
 40
0.0
176
     1
 40
1.0
176
     1
 90
        0
176
     1
 62
    18
420
        0
176
     1
 90
       50
176
     1
 90
        3
176
     1
 62
     5
420
      255
176
     1
290
     0
176
     1
 90
       50
176
     1
 90
       50
176
     1
 90
       50
176
     1
290
     0
176
     1
 90
       50
176
     1
 62
   256
176
     0
 40
1.0
176
     0
 90
        2
176
     1
  1
strokes_ogs.tif
176
     1
290
     0
176
     1
 40
1.0
176
     1
 40
1.0
176
     1
  0
VISUALSTYLE
  5
2A
102
{ACAD_REACTORS
330
29
102
}
330
29
100
AcDbVisualStyle
  2
Flat
 70
     0
177
     3
291
     1
 70
    58
 90
        2
176
     1
 90
        1
176
     1
 90
        1
176
     1
 90
        2
176
     1
 40
0.6
176
     1
 40
30.0
176
     1
 62
     7
420
 16777215
176
     1
 90
        0
176
     1
 90
        0
176
     1
 62
     7
176
     1
 62
   257
176
     1
 90
        1
176
     1
 90
        1
176
     1
 40
1.0
176
     1
 90
        8
176
     1
 62
     7
176
     1
 40
1.0
176
     1
 90
        1
176
     1
 90
        6
176
     1
 90
        2
176
     1
 62
     7
176
     1
 90
        5
176
     1
 90
        0
176
     1
 90
        0
176
     1
290
     0
176
     1
 90
       13
176
     1
 40
0.0
176
     1
 90
        0
176
     1
290
     0
176
     1
290
     1
176
     1
290
     1
176
     1
290
     0
176
     1
290
     0
176
     1
290
     0
176
     1
290
     0
176
     1
290
     0
176
     1
290
     0
176
     1
 90
       50
176
     1
 40
0.0
176
     1
 40
1.0
176
     1
 90
        0
176
     1
 62
    18
420
        0
176
     1
 90
       50
176
     1
 90
        3
176
     1
 62
     5
420
      255
176
     1
290
     0
176
     1
 90
       50
176
     1
 90
       50
176
     1
 90
       50
176
     1
290
     0
176
     1
 90
       50
176
     1
 62
   256
176
     0
 40
1.0
176
     0
 90
        2
176
     1
  1
strokes_ogs.tif
176
     1
290
     0
176
     1
 40
1.0
176
     1
 40
1.0
176
     1
  0
VISUALSTYLE
  5
2B
102
{ACAD_REACTORS
330
29
102
}
330
29
100
AcDbVisualStyle
  2
FlatWithEdges
 70
     1
177
     3
291
     1
 70
    58
 90
        2
176
     1
 90
        1
176
     1
 90
        1
176
     1
 90
        2
176
     1
 40
0.6
176
     1
 40
30.0
176
     1
 62
     7
420
 16777215
176
     1
 90
        1
176
     1
 90
        0
176
     1
 62
     7
176
     1
 62
   257
176
     1
 90
        1
176
     1
 90
        1
176
     1
 40
1.0
176
     1
 90
        0
176
     1
 62
   257
176
     1
 40
1.0
176
     1
 90
        1
176
     1
 90
        6
176
     1
 90
        2
176
     1
 62
     7
176
     1
 90
        5
176
     1
 90
        0
176
     1
 90
        0
176
     1
290
     0
176
     1
 90
       13
176
     1
 40
0.0
176
     1
 90
        0
176
     1
290
     0
176
     1
290
     1
176
     1
290
     1
176
     1
290
     0
176
     1
290
     0
176
     1
290
     0
176
     1
290
     0
176
     1
290
     0
176
     1
290
     0
176
     1
 90
       50
176
     1
 40
0.0
176
     1
 40
1.0
176
     1
 90
        0
176
     1
 62
    18
420
        0
176
     1
 90
       50
176
     1
 90
        3
176
     1
 62
     5
420
      255
176
     1
290
     0
176
     1
 90
       50
176
     1
 90
       50
176
     1
 90
       50
176
     1
290
     0
176
     1
 90
       50
176
     1
 62
   256
176
     0
 40
1.0
176
     0
 90
        2
176
     1
  1
strokes_ogs.tif
176
     1
290
     0
176
     1
 40
1.0
176
     1
 40
1.0
176
     1
  0
VISUALSTYLE
  5
2C
102
{ACAD_REACTORS
330
29
102
}
330
29
100
AcDbVisualStyle
  2
Gouraud
 70
     2
177
     3
291
     1
 70
    58
 90
        2
176
     1
 90
        2
176
     1
 90
        1
176
     1
 90
        2
176
     1
 40
0.6
176
     1
 40
30.0
176
     1
 62
     7
420
 16777215
176
     1
 90
        0
176
     1
 90
        0
176
     1
 62
     7
176
     1
 62
   257
176
     1
 90
        1
176
     1
 90
        1
176
     1
 40
1.0
176
     1
 90
        0
176
     1
 62
     7
176
     1
 40
1.0
176
     1
 90
        1
176
     1
 90
        6
176
     1
 90
        2
176
     1
 62
     7
176
     1
 90
        5
176
     1
 90
        0
176
     1
 90
        0
176
     1
290
     0
176
     1
 90
       13
176
     1
 40
0.0
176
     1
 90
        0
176
     1
290
     0
176
     1
290
     1
176
     1
290
     1
176
     1
290
     0
176
     1
290
     0
176
     1
290
     0
176
     1
290
     0
176
     1
290
     0
176
     1
290
     0
176
     1
 90
       50
176
     1
 40
0.0
176
     1
 40
1.0
176
     1
 90
        0
176
     1
 62
    18
420
        0
176
     1
 90
       50
176
     1
 90
        3
176
     1
 62
     5
420
      255
176
     1
290
     0
176
     1
 90
       50
176
     1
 90
       50
176
     1
 90
       50
176
     1
290
     0
176
     1
 90
       50
176
     1
 62
   256
176
     0
 40
1.0
176
     0
 90
        2
176
     1
  1
strokes_ogs.tif
176
     1
290
     0
176
     1
 40
1.0
176
     1
 40
1.0
176
     1
  0
VISUALSTYLE
  5
2D
102
{ACAD_REACTORS
330
29
102
}
330
29
100
AcDbVisualStyle
  2
GouraudWithEdges
 70
     3
177
     3
291
     1
 70
    58
 90
        2
176
     1
 90
        2
176
     1
 90
        1
176
     1
 90
        2
176
     1
 40
0.6
176
     1
 40
30.0
176
     1
 62
     7
420
 16777215
176
     1
 90
        1
176
     1
 90
        0
176
     1
 62
     7
176
     1
 62
   257
176
     1
 90
        1
176
     1
 90
        1
176
     1
 40
1.0
176
     1
 90
        0
176
     1
 62
   257
176
     1
 40
1.0
176
     1
 90
        1
176
     1
 90
        6
176
     1
 90
        2
176
     1
 62
     7
176
     1
 90
        5
176
     1
 90
        0
176
     1
 90
        0
176
     1
290
     0
176
     1
 90
       13
176
     1
 40
0.0
176
     1
 90
        0
176
     1
290
     0
176
     1
290
     1
176
     1
290
     1
176
     1
290
     0
176
     1
290
     0
176
     1
290
     0
176
     1
290
     0
176
     1
290
     0
176
     1
290
     0
176
     1
 90
       50
176
     1
 40
0.0
176
     1
 40
1.0
176
     1
 90
        0
176
     1
 62
    18
420
        0
176
     1
 90
       50
176
     1
 90
        3
176
     1
 62
     5
420
      255
176
     1
290
     0
176
     1
 90
       50
176
     1
 90
       50
176
     1
 90
       50
176
     1
290
     0
176
     1
 90
       50
176
     1
 62
   256
176
     0
 40
1.0
176
     0
 90
        2
176
     1
  1
strokes_ogs.tif
176
     1
290
     0
176
     1
 40
1.0
176
     1
 40
1.0
176
     1
  0
VISUALSTYLE
  5
31
102
{ACAD_REACTORS
330
29
102
}
330
29
100
AcDbVisualStyle
  2
Hidden
 70
     6
177
     3
291
     0
 70
    58
 90
        1
176
     1
 90
        2
176
     1
 90
        2
176
     1
 90
        0
176
     1
 40
0.6
176
     1
 40
30.0
176
     1
 62
     7
420
 16777215
176
     1
 90
        2
176
     1
 90
        2
176
     1
 62
     7
176
     1
 62
   257
176
     1
 90
        2
176
     1
 90
        1
176
     1
 40
40.0
176
     1
 90
        0
176
     1
 62
   257
176
     1
 40
1.0
176
     1
 90
        1
176
     1
 90
        6
176
     1
 90
        2
176
     1
 62
     7
176
     1
 90
        3
176
     1
 90
        0
176
     1
 90
        0
176
     1
290
     0
176
     1
 90
        1
176
     1
 40
0.0
176
     1
 90
        0
176
     1
290
     0
176
     1
290
     1
176
     1
290
     1
176
     1
290
     0
176
     1
290
     0
176
     1
290
     0
176
     1
290
     0
176
     1
290
     0
176
     1
290
     0
176
     1
 90
       50
176
     1
 40
0.0
176
     1
 40
1.0
176
     1
 90
        0
176
     1
 62
    18
420
        0
176
     1
 90
       50
176
     1
 90
        3
176
     1
 62
     5
420
      255
176
     1
290
     0
176
     1
 90
       50
176
     1
 90
       50
176
     1
 90
       50
176
     1
290
     0
176
     1
 90
       50
176
     1
 62
   256
176
     0
 40
1.0
176
     0
 90
        2
176
     1
  1
strokes_ogs.tif
176
     1
290
     0
176
     1
 40
1.0
176
     1
 40
1.0
176
     1
  0
VISUALSTYLE
  5
3F
102
{ACAD_REACTORS
330
29
102
}
330
29
100
AcDbVisualStyle
  2
JitterOff
 70
    20
177
     3
291
     1
 70
    58
 90
        2
176
     0
 90
        2
176
     0
 90
        0
176
     0
 90
        0
176
     0
 40
0.6
176
     0
 40
30.0
176
     0
 62
     7
420
 16777215
176
     0
 90
        1
176
     0
 90
        4
176
     0
 62
     7
176
     0
 62
   257
176
     0
 90
        1
176
     0
 90
        1
176
     0
 40
1.0
176
     0
 90
       10
176
     2
 62
     7
176
     0
 40
1.0
176
     0
 90
        1
176
     0
 90
        6
176
     0
 90
        2
176
     0
 62
     7
176
     0
 90
        5
176
     0
 90
        0
176
     0
 90
        0
176
     0
290
     0
176
     0
 90
        1
176
     0
 40
0.0
176
     0
 90
        0
176
     0
290
     0
176
     1
290
     1
176
     1
290
     1
176
     1
290
     0
176
     1
290
     0
176
     1
290
     0
176
     1
290
     0
176
     1
290
     0
176
     1
290
     0
176
     1
 90
       50
176
     0
 40
0.0
176
     0
 40
1.0
176
     0
 90
        0
176
     0
 62
    18
420
        0
176
     0
 90
       50
176
     0
 90
        3
176
     0
 62
     5
420
      255
176
     0
290
     0
176
     1
 90
       50
176
     0
 90
       50
176
     0
 90
       50
176
     0
290
     0
176
     1
 90
       50
176
     0
 62
   256
176
     0
 40
1.0
176
     0
 90
        2
176
     0
  1
strokes_ogs.tif
176
     0
290
     0
176
     1
 40
1.0
176
     0
 40
1.0
176
     0
  0
VISUALSTYLE
  5
37
102
{ACAD_REACTORS
330
29
102
}
330
29
100
AcDbVisualStyle
  2
Linepattern
 70
    14
177
     3
291
     1
 70
    58
 90
        2
176
     1
 90
        2
176
     1
 90
        0
176
     1
 90
        0
176
     1
 40
0.6
176
     1
 40
30.0
176
     1
 62
     7
420
 16777215
176
     1
 90
        1
176
     1
 90
        4
176
     1
 62
     7
176
     1
 62
   257
176
     1
 90
        7
176
     1
 90
        7
176
     1
 40
1.0
176
     1
 90
        8
176
     1
 62
     7
176
     1
 40
1.0
176
     1
 90
        1
176
     1
 90
        6
176
     1
 90
        2
176
     1
 62
     7
176
     1
 90
        5
176
     1
 90
        0
176
     1
 90
        0
176
     1
290
     0
176
     1
 90
        1
176
     1
 40
0.0
176
     1
 90
        0
176
     1
290
     0
176
     1
290
     1
176
     1
290
     1
176
     1
290
     0
176
     1
290
     0
176
     1
290
     0
176
     1
290
     0
176
     1
290
     0
176
     1
290
     0
176
     1
 90
       50
176
     1
 40
0.0
176
     1
 40
1.0
176
     1
 90
        0
176
     1
 62
    18
420
        0
176
     1
 90
       50
176
     1
 90
        3
176
     1
 62
     5
420
      255
176
     1
290
     0
176
     1
 90
       50
176
     1
 90
       50
176
     1
 90
       50
176
     1
290
     0
176
     1
 90
       50
176
     1
 62
   256
176
     0
 40
1.0
176
     0
 90
        2
176
     1
  1
strokes_ogs.tif
176
     1
290
     0
176
     1
 40
1.0
176
     1
 40
1.0
176
     1
  0
VISUALSTYLE
  5
40
102
{ACAD_REACTORS
330
29
102
}
330
29
100
AcDbVisualStyle
  2
OverhangOff
 70
    21
177
     3
291
     1
 70
    58
 90
        2
176
     0
 90
        2
176
     0
 90
        0
176
     0
 90
        0
176
     0
 40
0.6
176
     0
 40
30.0
176
     0
 62
     7
420
 16777215
176
     0
 90
        1
176
     0
 90
        4
176
     0
 62
     7
176
     0
 62
   257
176
     0
 90
        1
176
     0
 90
        1
176
     0
 40
1.0
176
     0
 90
        9
176
     2
 62
     7
176
     0
 40
1.0
176
     0
 90
        1
176
     0
 90
        6
176
     0
 90
        2
176
     0
 62
     7
176
     0
 90
        5
176
     0
 90
        0
176
     0
 90
        0
176
     0
290
     0
176
     0
 90
        1
176
     0
 40
0.0
176
     0
 90
        0
176
     0
290
     0
176
     1
290
     1
176
     1
290
     1
176
     1
290
     0
176
     1
290
     0
176
     1
290
     0
176
     1
290
     0
176
     1
290
     0
176
     1
290
     0
176
     1
 90
       50
176
     0
 40
0.0
176
     0
 40
1.0
176
     0
 90
        0
176
     0
 62
    18
420
        0
176
     0
 90
       50
176
     0
 90
        3
176
     0
 62
     5
420
      255
176
     0
290
     0
176
     1
 90
       50
176
     0
 90
       50
176
     0
 90
       50
176
     0
290
     0
176
     1
 90
       50
176
     0
 62
   256
176
     0
 40
1.0
176
     0
 90
        2
176
     0
  1
strokes_ogs.tif
176
     0
290
     0
176
     1
 40
1.0
176
     0
 40
1.0
176
     0
  0
VISUALSTYLE
  5
33
102
{ACAD_REACTORS
330
29
102
}
330
29
100
AcDbVisualStyle
  2
Realistic
 70
     8
177
     3
291
     0
 70
    58
 90
        2
176
     1
 90
        3
176
     1
 90
        0
176
     1
 90
        2
176
     1
 40
0.6
176
     1
 40
30.0
176
     1
 62
     7
420
 16777215
176
     1
 90
        0
176
     1
 90
        0
176
     1
 62
     7
176
     1
 62
   257
176
     1
 90
        1
176
     1
 90
        1
176
     1
 40
1.0
176
     1
 90
        8
176
     1
 62
   257
176
     1
 40
1.0
176
     1
 90
        1
176
     1
 90
        6
176
     1
 90
        2
176
     1
 62
     7
176
     1
 90
        3
176
     1
 90
        0
176
     1
 90
        0
176
     1
290
     0
176
     1
 90
       13
176
     1
 40
0.0
176
     1
 90
        0
176
     1
290
     0
176
     1
290
     1
176
     1
290
     1
176
     1
290
     0
176
     1
290
     0
176
     1
290
     0
176
     1
290
     0
176
     1
290
     0
176
     1
290
     0
176
     1
 90
       50
176
     1
 40
0.0
176
     1
 40
1.0
176
     1
 90
        0
176
     1
 62
    18
420
        0
176
     1
 90
       50
176
     1
 90
        3
176
     1
 62
     5
420
      255
176
     1
290
     0
176
     1
 90
       50
176
     1
 90
       50
176
     1
 90
       50
176
     1
290
     0
176
     1
 90
       50
176
     1
 62
   256
176
     0
 40
1.0
176
     0
 90
        2
176
     1
  1
strokes_ogs.tif
176
     1
290
     0
176
     1
 40
1.0
176
     1
 40
1.0
176
     1
  0
VISUALSTYLE
  5
3E
102
{ACAD_REACTORS
330
29
102
}
330
29
100
AcDbVisualStyle
  2
Shaded
 70
    27
177
     3
291
     0
 70
    58
 90
        2
176
     1
 90
        2
176
     1
 90
        1
176
     1
 90
        2
176
     1
 40
0.6
176
     1
 40
30.0
176
     1
 62
     7
420
 16777215
176
     1
 90
        0
176
     1
 90
        4
176
     1
 62
     7
176
     1
 62
   257
176
     1
 90
        1
176
     1
 90
        1
176
     1
 40
1.0
176
     1
 90
        8
176
     1
 62
   257
176
     1
 40
1.0
176
     1
 90
        1
176
     1
 90
        6
176
     1
 90
        2
176
     1
 62
     8
420
  7895160
176
     1
 90
        3
176
     1
 90
        0
176
     1
 90
        0
176
     1
290
     0
176
     1
 90
        5
176
     1
 40
0.0
176
     1
 90
        0
176
     1
290
     0
176
     1
290
     1
176
     1
290
     1
176
     1
290
     0
176
     1
290
     0
176
     1
290
     0
176
     1
290
     0
176
     1
290
     0
176
     1
290
     0
176
     1
 90
       50
176
     1
 40
0.0
176
     1
 40
1.0
176
     1
 90
        0
176
     1
 62
    18
420
        0
176
     1
 90
       50
176
     1
 90
        3
176
     1
 62
     5
420
      255
176
     1
290
     0
176
     1
 90
       50
176
     1
 90
       50
176
     1
 90
       50
176
     1
290
     0
176
     1
 90
       50
176
     1
 62
   256
176
     0
 40
1.0
176
     0
 90
        2
176
     1
  1
strokes_ogs.tif
176
     1
290
     0
176
     1
 40
1.0
176
     1
 40
1.0
176
     1
  0
VISUALSTYLE
  5
3D
102
{ACAD_REACTORS
330
29
102
}
330
29
100
AcDbVisualStyle
  2
Shaded with edges
 70
    26
177
     3
291
     0
 70
    58
 90
        2
176
     1
 90
        2
176
     1
 90
        1
176
     1
 90
        2
176
     1
 40
0.6
176
     1
 40
30.0
176
     1
 62
     7
420
 16777215
176
     1
 90
        1
176
     1
 90
        2
176
     1
 62
     7
176
     1
 62
   257
176
     1
 90
        2
176
     1
 90
        1
176
     1
 40
1.0
176
     1
 90
        8
176
     1
 62
   257
176
     1
 40
1.0
176
     1
 90
        1
176
     1
 90
        6
176
     1
 90
        2
176
     1
 62
     7
176
     1
 90
        3
176
     1
 90
        0
176
     1
 90
        0
176
     1
290
     0
176
     1
 90
        5
176
     1
 40
0.0
176
     1
 90
        0
176
     1
290
     0
176
     1
290
     1
176
     1
290
     1
176
     1
290
     0
176
     1
290
     0
176
     1
290
     0
176
     1
290
     0
176
     1
290
     0
176
     1
290
     0
176
     1
 90
       50
176
     1
 40
0.0
176
     1
 40
1.0
176
     1
 90
        0
176
     1
 62
    18
420
        0
176
     1
 90
       50
176
     1
 90
        3
176
     1
 62
     5
420
      255
176
     1
290
     0
176
     1
 90
       50
176
     1
 90
       50
176
     1
 90
       50
176
     1
290
     0
176
     1
 90
       50
176
     1
 62
   256
176
     0
 40
1.0
176
     0
 90
        2
176
     1
  1
strokes_ogs.tif
176
     1
290
     0
176
     1
 40
1.0
176
     1
 40
1.0
176
     1
  0
VISUALSTYLE
  5
3A
102
{ACAD_REACTORS
330
29
102
}
330
29
100
AcDbVisualStyle
  2
Shades of Gray
 70
    23
177
     3
291
     0
 70
    58
 90
        2
176
     1
 90
        2
176
     1
 90
        3
176
     1
 90
        0
176
     1
 40
0.6
176
     1
 40
30.0
176
     1
 62
     7
420
 16777215
176
     1
 90
        2
176
     1
 90
        2
176
     1
 62
     7
176
     1
 62
     7
176
     1
 90
        1
176
     1
 90
        1
176
     1
 40
40.0
176
     1
 90
        8
176
     1
 62
     7
176
     1
 40
1.0
176
     1
 90
        1
176
     1
 90
        6
176
     1
 90
        2
176
     1
 62
     7
176
     1
 90
        3
176
     1
 90
        0
176
     1
 90
        0
176
     1
290
     0
176
     1
 90
        1
176
     1
 40
0.0
176
     1
 90
        0
176
     1
290
     0
176
     1
290
     1
176
     1
290
     1
176
     1
290
     0
176
     1
290
     0
176
     1
290
     0
176
     1
290
     0
176
     1
290
     0
176
     1
290
     0
176
     1
 90
       50
176
     1
 40
0.0
176
     1
 40
1.0
176
     1
 90
        0
176
     1
 62
    18
420
        0
176
     1
 90
       50
176
     1
 90
        3
176
     1
 62
     5
420
      255
176
     1
290
     0
176
     1
 90
       50
176
     1
 90
       50
176
     1
 90
       50
176
     1
290
     0
176
     1
 90
       50
176
     1
 62
   256
176
     0
 40
1.0
176
     0
 90
        2
176
     1
  1
strokes_ogs.tif
176
     1
290
     0
176
     1
 40
1.0
176
     1
 40
1.0
176
     1
  0
VISUALSTYLE
  5
3B
102
{ACAD_REACTORS
330
29
102
}
330
29
100
AcDbVisualStyle
  2
Sketchy
 70
    24
177
     3
291
     0
 70
    58
 90
        1
176
     1
 90
        2
176
     1
 90
        2
176
     1
 90
        0
176
     1
 40
0.6
176
     1
 40
30.0
176
     1
 62
     7
420
 16777215
176
     1
 90
        2
176
     1
 90
        2
176
     1
 62
     7
176
     1
 62
     7
176
     1
 90
        1
176
     1
 90
        1
176
     1
 40
40.0
176
     1
 90
       11
176
     1
 62
     7
176
     1
 40
1.0
176
     1
 90
        1
176
     1
 90
        6
176
     1
 90
        2
176
     1
 62
     7
176
     1
 90
        6
176
     1
 90
        0
176
     1
 90
        0
176
     1
290
     0
176
     1
 90
        1
176
     1
 40
0.0
176
     1
 90
        0
176
     1
290
     0
176
     1
290
     1
176
     1
290
     1
176
     1
290
     0
176
     1
290
     0
176
     1
290
     0
176
     1
290
     0
176
     1
290
     0
176
     1
290
     0
176
     1
 90
       50
176
     1
 40
0.0
176
     1
 40
1.0
176
     1
 90
        0
176
     1
 62
    18
420
        0
176
     1
 90
       50
176
     1
 90
        3
176
     1
 62
     5
420
      255
176
     1
290
     0
176
     1
 90
       50
176
     1
 90
       50
176
     1
 90
       50
176
     1
290
     0
176
     1
 90
       50
176
     1
 62
   256
176
     0
 40
1.0
176
     0
 90
        2
176
     1
  1
strokes_ogs.tif
176
     1
290
     0
176
     1
 40
1.0
176
     1
 40
1.0
176
     1
  0
VISUALSTYLE
  5
36
102
{ACAD_REACTORS
330
29
102
}
330
29
100
AcDbVisualStyle
  2
Thicken
 70
    13
177
     3
291
     1
 70
    58
 90
        2
176
     1
 90
        2
176
     1
 90
        0
176
     1
 90
        0
176
     1
 40
0.6
176
     1
 40
30.0
176
     1
 62
     7
420
 16777215
176
     1
 90
        1
176
     1
 90
        4
176
     1
 62
     7
176
     1
 62
   257
176
     1
 90
        1
176
     1
 90
        1
176
     1
 40
1.0
176
     1
 90
       12
176
     1
 62
     7
176
     1
 40
1.0
176
     1
 90
        1
176
     1
 90
        6
176
     1
 90
        2
176
     1
 62
     7
176
     1
 90
        5
176
     1
 90
        0
176
     1
 90
        0
176
     1
290
     0
176
     1
 90
        1
176
     1
 40
0.0
176
     1
 90
        0
176
     1
290
     0
176
     1
290
     1
176
     1
290
     1
176
     1
290
     0
176
     1
290
     0
176
     1
290
     0
176
     1
290
     0
176
     1
290
     0
176
     1
290
     0
176
     1
 90
       50
176
     1
 40
0.0
176
     1
 40
1.0
176
     1
 90
        0
176
     1
 62
    18
420
        0
176
     1
 90
       50
176
     1
 90
        3
176
     1
 62
     5
420
      255
176
     1
290
     0
176
     1
 90
       50
176
     1
 90
       50
176
     1
 90
       50
176
     1
290
     0
176
     1
 90
       50
176
     1
 62
   256
176
     0
 40
1.0
176
     0
 90
        2
176
     1
  1
strokes_ogs.tif
176
     1
290
     0
176
     1
 40
1.0
176
     1
 40
1.0
176
     1
  0
VISUALSTYLE
  5
30
102
{ACAD_REACTORS
330
29
102
}
330
29
100
AcDbVisualStyle
  2
Wireframe
 70
     5
177
     3
291
     0
 70
    58
 90
        0
176
     1
 90
        2
176
     1
 90
        0
176
     1
 90
        0
176
     1
 40
0.6
176
     1
 40
30.0
176
     1
 62
     7
420
 16777215
176
     1
 90
        1
176
     1
 90
        4
176
     1
 62
     7
176
     1
 62
   257
176
     1
 90
        1
176
     1
 90
        1
176
     1
 40
1.0
176
     1
 90
        0
176
     1
 62
   257
176
     1
 40
1.0
176
     1
 90
        1
176
     1
 90
        6
176
     1
 90
        2
176
     1
 62
     7
176
     1
 90
        3
176
     1
 90
        0
176
     1
 90
        0
176
     1
290
     0
176
     1
 90
        1
176
     1
 40
0.0
176
     1
 90
        0
176
     1
290
     0
176
     1
290
     1
176
     1
290
     1
176
     1
290
     0
176
     1
290
     0
176
     1
290
     0
176
     1
290
     0
176
     1
290
     0
176
     1
290
     0
176
     1
 90
       50
176
     1
 40
0.0
176
     1
 40
1.0
176
     1
 90
        0
176
     1
 62
    18
420
        0
176
     1
 90
       50
176
     1
 90
        3
176
     1
 62
     5
420
      255
176
     1
290
     0
176
     1
 90
       50
176
     1
 90
       50
176
     1
 90
       50
176
     1
290
     0
176
     1
 90
       50
176
     1
 62
   256
176
     0
 40
1.0
176
     0
 90
        2
176
     1
  1
strokes_ogs.tif
176
     1
290
     0
176
     1
 40
1.0
176
     1
 40
1.0
176
     1
  0
VISUALSTYLE
  5
3C
102
{ACAD_REACTORS
330
29
102
}
330
29
100
AcDbVisualStyle
  2
X-Ray
 70
    25
177
     3
291
     0
 70
    58
 90
        2
176
     1
 90
        2
176
     1
 90
        1
176
     1
 90
        1
176
     1
 40
0.5
176
     1
 40
30.0
176
     1
 62
     7
420
 16777215
176
     1
 90
        1
176
     1
 90
        0
176
     1
 62
     7
176
     1
 62
   257
176
     1
 90
        1
176
     1
 90
        1
176
     1
 40
1.0
176
     1
 90
        8
176
     1
 62
     7
176
     1
 40
1.0
176
     1
 90
        1
176
     1
 90
        6
176
     1
 90
        2
176
     1
 62
     7
176
     1
 90
        3
176
     1
 90
        0
176
     1
 90
        0
176
     1
290
     0
176
     1
 90
       13
176
     1
 40
0.0
176
     1
 90
        0
176
     1
290
     0
176
     1
290
     1
176
     1
290
     1
176
     1
290
     0
176
     1
290
     0
176
     1
290
     0
176
     1
290
     0
176
     1
290
     0
176
     1
290
     0
176
     1
 90
       50
176
     1
 40
0.0
176
     1
 40
1.0
176
     1
 90
        0
176
     1
 62
    18
420
        0
176
     1
 90
       50
176
     1
 90
        3
176
     1
 62
     5
420
      255
176
     1
290
     0
176
     1
 90
       50
176
     1
 90
       50
176
     1
 90
       50
176
     1
290
     0
176
     1
 90
       50
176
     1
 62
   256
176
     0
 40
1.0
176
     0
 90
        2
176
     1
  1
strokes_ogs.tif
176
     1
290
     0
176
     1
 40
1.0
176
     1
 40
1.0
176
     1
  0
DICTIONARYVAR
  5
3E0
102
{ACAD_REACTORS
330
3DA
102
}
330
3DA
100
DictionaryVariables
280
     0
  1
1:1
  0
DICTIONARYVAR
  5
3DC
102
{ACAD_REACTORS
330
3DA
102
}
330
3DA
100
DictionaryVariables
280
     0
  1
STANDARD
  0
DICTIONARYVAR
  5
3DB
102
{ACAD_REACTORS
330
3DA
102
}
330
3DA
100
DictionaryVariables
280
     0
  1
STANDARD
  0
DICTIONARYVAR
  5
3DD
102
{ACAD_REACTORS
330
3DA
102
}
330
3DA
100
DictionaryVariables
280
     0
  1
Imperial24
  0
DICTIONARYVAR
  5
3DE
102
{ACAD_REACTORS
330
3DA
102
}
330
3DA
100
DictionaryVariables
280
     0
  1
Imperial24
  0
DICTIONARYVAR
  5
3E2
102
{ACAD_REACTORS
330
3DA
102
}
330
3DA
100
DictionaryVariables
280
     0
  1
1
  0
DICTIONARYVAR
  5
3E3
102
{ACAD_REACTORS
330
3DA
102
}
330
3DA
100
DictionaryVariables
280
     0
  1
15
  0
DICTIONARYVAR
  5
3E1
102
{ACAD_REACTORS
330
3DA
102
}
330
3DA
100
DictionaryVariables
280
     0
  1
0
  0
DICTIONARYVAR
  5
3DF
102
{ACAD_REACTORS
330
3DA
102
}
330
3DA
100
DictionaryVariables
280
     0
  1
0
  0
DICTIONARY
  5
1A
330
19
100
AcDbDictionary
280
     1
281
     1
  3
BUMPTILE
360
1C
  3
DIFFUSETILE
360
1B
  3
OPACITYTILE
360
1F
  3
REFLECTIONTILE
360
1E
  3
REFRACTIONTILE
360
20
  3
SPECULARTILE
360
1D
  0
DICTIONARY
  5
12
330
11
100
AcDbDictionary
280
     1
281
     1
  3
BUMPTILE
360
14
  3
DIFFUSETILE
360
13
  3
OPACITYTILE
360
17
  3
REFLECTIONTILE
360
16
  3
REFRACTIONTILE
360
18
  3
SPECULARTILE
360
15
  0
DICTIONARY
  5
22
330
21
100
AcDbDictionary
280
     1
281
     1
  3
BUMPTILE
360
24
  3
DIFFUSETILE
360
23
  3
OPACITYTILE
360
27
  3
REFLECTIONTILE
360
26
  3
REFRACTIONTILE
360
28
  3
SPECULARTILE
360
25
  0
DICTIONARY
  5
3E4
330
64
100
AcDbDictionary
280
     1
281
     1
  3
ACAD_ROUNDTRIP_2008_TABLESTYLE_CELLSTYLEMAP
360
3E5
  0
XRECORD
  5
1C
102
{ACAD_REACTORS
330
1A
102
}
330
1A
100
AcDbXrecord
280
     1
270
     1
271
     1
  0
XRECORD
  5
1B
102
{ACAD_REACTORS
330
1A
102
}
330
1A
100
AcDbXrecord
280
     1
270
     1
271
     1
  0
XRECORD
  5
1F
102
{ACAD_REACTORS
330
1A
102
}
330
1A
100
AcDbXrecord
280
     1
270
     1
271
     1
  0
XRECORD
  5
1E
102
{ACAD_REACTORS
330
1A
102
}
330
1A
100
AcDbXrecord
280
     1
270
     1
271
     1
  0
XRECORD
  5
20
102
{ACAD_REACTORS
330
1A
102
}
330
1A
100
AcDbXrecord
280
     1
270
     1
271
     1
  0
XRECORD
  5
1D
102
{ACAD_REACTORS
330
1A
102
}
330
1A
100
AcDbXrecord
280
     1
270
     1
271
     1
  0
XRECORD
  5
14
102
{ACAD_REACTORS
330
12
102
}
330
12
100
AcDbXrecord
280
     1
270
     1
271
     1
  0
XRECORD
  5
13
102
{ACAD_REACTORS
330
12
102
}
330
12
100
AcDbXrecord
280
     1
270
     1
271
     1
  0
XRECORD
  5
17
102
{ACAD_REACTORS
330
12
102
}
330
12
100
AcDbXrecord
280
     1
270
     1
271
     1
  0
XRECORD
  5
16
102
{ACAD_REACTORS
330
12
102
}
330
12
100
AcDbXrecord
280
     1
270
     1
271
     1
  0
XRECORD
  5
18
102
{ACAD_REACTORS
330
12
102
}
330
12
100
AcDbXrecord
280
     1
270
     1
271
     1
  0
XRECORD
  5
15
102
{ACAD_REACTORS
330
12
102
}
330
12
100
AcDbXrecord
280
     1
270
     1
271
     1
  0
XRECORD
  5
24
102
{ACAD_REACTORS
330
22
102
}
330
22
100
AcDbXrecord
280
     1
270
     1
271
     1
  0
XRECORD
  5
23
102
{ACAD_REACTORS
330
22
102
}
330
22
100
AcDbXrecord
280
     1
270
     1
271
     1
  0
XRECORD
  5
27
102
{ACAD_REACTORS
330
22
102
}
330
22
100
AcDbXrecord
280
     1
270
     1
271
     1
  0
XRECORD
  5
26
102
{ACAD_REACTORS
330
22
102
}
330
22
100
AcDbXrecord
280
     1
270
     1
271
     1
  0
XRECORD
  5
28
102
{ACAD_REACTORS
330
22
102
}
330
22
100
AcDbXrecord
280
     1
270
     1
271
     1
  0
XRECORD
  5
25
102
{ACAD_REACTORS
330
22
102
}
330
22
100
AcDbXrecord
280
     1
270
     1
271
     1
  0
CELLSTYLEMAP
  5
3E5
102
{ACAD_REACTORS
330
3E4
102
}
330
3E4
100
AcDbCellStyleMap
 90
        3
300
CELLSTYLE
  1
TABLEFORMAT_BEGIN
 90
        5
170
     1
 91
        0
 92
    32768
 62
   257
 93
        1
300
CONTENTFORMAT
  1
CONTENTFORMAT_BEGIN
 90
        0
 91
        0
 92
      512
 93
        0
300

 40
0.0
140
1.0
 94
        5
 62
     0
340
55
144
0.25
309
CONTENTFORMAT_END
171
     0
 94
        0
309
TABLEFORMAT_END
  1
CELLSTYLE_BEGIN
 90
        1
 91
        1
300
_TITLE
309
CELLSTYLE_END
300
CELLSTYLE
  1
TABLEFORMAT_BEGIN
 90
        5
170
     1
 91
        0
 92
        0
 62
   257
 93
        1
300
CONTENTFORMAT
  1
CONTENTFORMAT_BEGIN
 90
        0
 91
        0
 92
      512
 93
        0
300

 40
0.0
140
1.0
 94
        5
 62
     0
340
55
144
0.18
309
CONTENTFORMAT_END
171
     0
 94
        0
309
TABLEFORMAT_END
  1
CELLSTYLE_BEGIN
 90
        2
 91
        1
300
_HEADER
309
CELLSTYLE_END
300
CELLSTYLE
  1
TABLEFORMAT_BEGIN
 90
        5
170
     1
 91
        0
 92
        0
 62
   257
 93
        1
300
CONTENTFORMAT
  1
CONTENTFORMAT_BEGIN
 90
        0
 91
        0
 92
      512
 93
        0
300

 40
0.0
140
1.0
 94
        2
 62
     0
340
55
144
0.18
309
CONTENTFORMAT_END
171
     0
 94
        0
309
TABLEFORMAT_END
  1
CELLSTYLE_BEGIN
 90
        3
 91
        2
300
_DATA
309
CELLSTYLE_END
  0
ENDSEC
  0
EOF
