  0
SECTION
  2
HEADER
  9
$ACADVER
  1
AC1009
  9
$EXTMIN
 10
0.0
 20
0.0
 30
0.0
  9
$EXTMAX
 10
1000.0
 20
1000.0
 30
0.0
  9
$FILLMODE
 70
 0
  9
$SPLFRAME
 70
 1
  0
ENDSEC
  0
SECTION
  2
TABLES
  0
TABLE
  2
LAYER
 70
1
  0
LAYER
  2
0
 70
     0
 62
     7
  6
CONTINUOUS
  0
ENDTAB
  0
ENDSEC
  0
SECTION
  2
ENTITIES
  0
LINE
  8
0
 62
     0
 10
318.896
 20
130.433
 30
0.0
 11
319.053
 21
130.426
 31
0.0
  0
LINE
  8
0
 62
     0
 10
319.053
 20
130.426
 30
0.0
 11
319.209
 21
130.408
 31
0.0
  0
LINE
  8
0
 62
     0
 10
319.209
 20
130.408
 30
0.0
 11
319.363
 21
130.377
 31
0.0
  0
LINE
  8
0
 62
     0
 10
319.363
 20
130.377
 30
0.0
 11
319.515
 21
130.335
 31
0.0
  0
LINE
  8
0
 62
     0
 10
319.515
 20
130.335
 30
0.0
 11
319.662
 21
130.28
 31
0.0
  0
LINE
  8
0
 62
     0
 10
319.662
 20
130.28
 30
0.0
 11
319.804
 21
130.215
 31
0.0
  0
LINE
  8
0
 62
     0
 10
319.804
 20
130.215
 30
0.0
 11
319.941
 21
130.138
 31
0.0
  0
LINE
  8
0
 62
     0
 10
319.941
 20
130.138
 30
0.0
 11
320.071
 21
130.051
 31
0.0
  0
LINE
  8
0
 62
     0
 10
320.071
 20
130.051
 30
0.0
 11
320.194
 21
129.953
 31
0.0
  0
LINE
  8
0
 62
     0
 10
320.194
 20
129.953
 30
0.0
 11
320.31
 21
129.847
 31
0.0
  0
LINE
  8
0
 62
     0
 10
320.31
 20
129.847
 30
0.0
 11
320.416
 21
129.731
 31
0.0
  0
LINE
  8
0
 62
     0
 10
320.416
 20
129.731
 30
0.0
 11
320.515
 21
129.609
 31
0.0
  0
LINE
  8
0
 62
     0
 10
320.515
 20
129.609
 30
0.0
 11
320.602
 21
129.478
 31
0.0
  0
LINE
  8
0
 62
     0
 10
320.602
 20
129.478
 30
0.0
 11
320.679
 21
129.34
 31
0.0
  0
LINE
  8
0
 62
     0
 10
320.679
 20
129.34
 30
0.0
 11
320.744
 21
129.198
 31
0.0
  0
LINE
  8
0
 62
     0
 10
320.744
 20
129.198
 30
0.0
 11
320.799
 21
129.052
 31
0.0
  0
LINE
  8
0
 62
     0
 10
320.799
 20
129.052
 30
0.0
 11
320.84
 21
128.899
 31
0.0
  0
LINE
  8
0
 62
     0
 10
320.84
 20
128.899
 30
0.0
 11
320.872
 21
128.746
 31
0.0
  0
LINE
  8
0
 62
     0
 10
320.872
 20
128.746
 30
0.0
 11
320.89
 21
128.589
 31
0.0
  0
LINE
  8
0
 62
     0
 10
320.89
 20
128.589
 30
0.0
 11
320.897
 21
128.432
 31
0.0
  0
LINE
  8
0
 62
     0
 10
320.897
 20
128.432
 30
0.0
 11
320.897
 21
2.13183
 31
0.0
  0
LINE
  8
0
 62
     0
 10
320.897
 20
2.13183
 30
0.0
 11
320.89
 21
1.97473
 31
0.0
  0
LINE
  8
0
 62
     0
 10
320.89
 20
1.97473
 30
0.0
 11
320.872
 21
1.81901
 31
0.0
  0
LINE
  8
0
 62
     0
 10
320.872
 20
1.81901
 30
0.0
 11
320.84
 21
1.66467
 31
0.0
  0
LINE
  8
0
 62
     0
 10
320.84
 20
1.66467
 30
0.0
 11
320.799
 21
1.51309
 31
0.0
  0
LINE
  8
0
 62
     0
 10
320.799
 20
1.51309
 30
0.0
 11
320.744
 21
1.36563
 31
0.0
  0
LINE
  8
0
 62
     0
 10
320.744
 20
1.36563
 30
0.0
 11
320.679
 21
1.2237
 31
0.0
  0
LINE
  8
0
 62
     0
 10
320.679
 20
1.2237
 30
0.0
 11
320.602
 21
1.08727
 31
0.0
  0
LINE
  8
0
 62
     0
 10
320.602
 20
1.08727
 30
0.0
 11
320.515
 21
0.956359
 31
0.0
  0
LINE
  8
0
 62
     0
 10
320.515
 20
0.956359
 30
0.0
 11
320.416
 21
0.833713
 31
0.0
  0
LINE
  8
0
 62
     0
 10
320.416
 20
0.833713
 30
0.0
 11
320.31
 21
0.717959
 31
0.0
  0
LINE
  8
0
 62
     0
 10
320.31
 20
0.717959
 30
0.0
 11
320.194
 21
0.611851
 31
0.0
  0
LINE
  8
0
 62
     0
 10
320.194
 20
0.611851
 30
0.0
 11
320.071
 21
0.512632
 31
0.0
  0
LINE
  8
0
 62
     0
 10
320.071
 20
0.512632
 30
0.0
 11
319.941
 21
0.425813
 31
0.0
  0
LINE
  8
0
 62
     0
 10
319.941
 20
0.425813
 30
0.0
 11
319.804
 21
0.348644
 31
0.0
  0
LINE
  8
0
 62
     0
 10
319.804
 20
0.348644
 30
0.0
 11
319.662
 21
0.283876
 31
0.0
  0
LINE
  8
0
 62
     0
 10
319.662
 20
0.283876
 30
0.0
 11
319.515
 21
0.228755
 31
0.0
  0
LINE
  8
0
 62
     0
 10
319.515
 20
0.228755
 30
0.0
 11
319.363
 21
0.187413
 31
0.0
  0
LINE
  8
0
 62
     0
 10
319.363
 20
0.187413
 30
0.0
 11
319.209
 21
0.155718
 31
0.0
  0
LINE
  8
0
 62
     0
 10
319.209
 20
0.155718
 30
0.0
 11
319.053
 21
0.137804
 31
0.0
  0
LINE
  8
0
 62
     0
 10
319.053
 20
0.137804
 30
0.0
 11
318.896
 21
0.130914
 31
0.0
  0
LINE
  8
0
 62
     0
 10
318.896
 20
0.130914
 30
0.0
 11
2.096
 21
0.130914
 31
0.0
  0
LINE
  8
0
 62
     0
 10
2.096
 20
0.130914
 30
0.0
 11
1.9389
 21
0.137804
 31
0.0
  0
LINE
  8
0
 62
     0
 10
1.9389
 20
0.137804
 30
0.0
 11
1.7818
 21
0.155718
 31
0.0
  0
LINE
  8
0
 62
     0
 10
1.7818
 20
0.155718
 30
0.0
 11
1.62884
 21
0.187413
 31
0.0
  0
LINE
  8
0
 62
     0
 10
1.62884
 20
0.187413
 30
0.0
 11
1.47588
 21
0.228755
 31
0.0
  0
LINE
  8
0
 62
     0
 10
1.47588
 20
0.228755
 30
0.0
 11
1.32981
 21
0.283876
 31
0.0
  0
LINE
  8
0
 62
     0
 10
1.32981
 20
0.283876
 30
0.0
 11
1.18787
 21
0.348644
 31
0.0
  0
LINE
  8
0
 62
     0
 10
1.18787
 20
0.348644
 30
0.0
 11
1.05006
 21
0.425813
 31
0.0
  0
LINE
  8
0
 62
     0
 10
1.05006
 20
0.425813
 30
0.0
 11
0.919152
 21
0.512632
 31
0.0
  0
LINE
  8
0
 62
     0
 10
0.919152
 20
0.512632
 30
0.0
 11
0.796505
 21
0.611851
 31
0.0
  0
LINE
  8
0
 62
     0
 10
0.796505
 20
0.611851
 30
0.0
 11
0.680752
 21
0.717959
 31
0.0
  0
LINE
  8
0
 62
     0
 10
0.680752
 20
0.717959
 30
0.0
 11
0.574643
 21
0.833713
 31
0.0
  0
LINE
  8
0
 62
     0
 10
0.574643
 20
0.833713
 30
0.0
 11
0.4768
 21
0.956359
 31
0.0
  0
LINE
  8
0
 62
     0
 10
0.4768
 20
0.956359
 30
0.0
 11
0.389985
 21
1.08727
 31
0.0
  0
LINE
  8
0
 62
     0
 10
0.389985
 20
1.08727
 30
0.0
 11
0.312815
 21
1.2237
 31
0.0
  0
LINE
  8
0
 62
     0
 10
0.312815
 20
1.2237
 30
0.0
 11
0.248047
 21
1.36563
 31
0.0
  0
LINE
  8
0
 62
     0
 10
0.248047
 20
1.36563
 30
0.0
 11
0.192925
 21
1.51309
 31
0.0
  0
LINE
  8
0
 62
     0
 10
0.192925
 20
1.51309
 30
0.0
 11
0.150206
 21
1.66467
 31
0.0
  0
LINE
  8
0
 62
     0
 10
0.150206
 20
1.66467
 30
0.0
 11
0.119889
 21
1.81901
 31
0.0
  0
LINE
  8
0
 62
     0
 10
0.119889
 20
1.81901
 30
0.0
 11
0.101975
 21
1.97473
 31
0.0
  0
LINE
  8
0
 62
     0
 10
0.101975
 20
1.97473
 30
0.0
 11
0.0950846
 21
2.13183
 31
0.0
  0
LINE
  8
0
 62
     0
 10
0.0950846
 20
2.13183
 30
0.0
 11
0.0950846
 21
128.432
 31
0.0
  0
LINE
  8
0
 62
     0
 10
0.0950846
 20
128.432
 30
0.0
 11
0.101975
 21
128.589
 31
0.0
  0
LINE
  8
0
 62
     0
 10
0.101975
 20
128.589
 30
0.0
 11
0.119889
 21
128.746
 31
0.0
  0
LINE
  8
0
 62
     0
 10
0.119889
 20
128.746
 30
0.0
 11
0.150206
 21
128.899
 31
0.0
  0
LINE
  8
0
 62
     0
 10
0.150206
 20
128.899
 30
0.0
 11
0.192925
 21
129.052
 31
0.0
  0
LINE
  8
0
 62
     0
 10
0.192925
 20
129.052
 30
0.0
 11
0.248047
 21
129.198
 31
0.0
  0
LINE
  8
0
 62
     0
 10
0.248047
 20
129.198
 30
0.0
 11
0.312815
 21
129.34
 31
0.0
  0
LINE
  8
0
 62
     0
 10
0.312815
 20
129.34
 30
0.0
 11
0.389985
 21
129.478
 31
0.0
  0
LINE
  8
0
 62
     0
 10
0.389985
 20
129.478
 30
0.0
 11
0.4768
 21
129.609
 31
0.0
  0
LINE
  8
0
 62
     0
 10
0.4768
 20
129.609
 30
0.0
 11
0.574643
 21
129.731
 31
0.0
  0
LINE
  8
0
 62
     0
 10
0.574643
 20
129.731
 30
0.0
 11
0.680752
 21
129.847
 31
0.0
  0
LINE
  8
0
 62
     0
 10
0.680752
 20
129.847
 30
0.0
 11
0.796505
 21
129.953
 31
0.0
  0
LINE
  8
0
 62
     0
 10
0.796505
 20
129.953
 30
0.0
 11
0.919152
 21
130.051
 31
0.0
  0
LINE
  8
0
 62
     0
 10
0.919152
 20
130.051
 30
0.0
 11
1.05006
 21
130.138
 31
0.0
  0
LINE
  8
0
 62
     0
 10
1.05006
 20
130.138
 30
0.0
 11
1.18787
 21
130.215
 31
0.0
  0
LINE
  8
0
 62
     0
 10
1.18787
 20
130.215
 30
0.0
 11
1.32981
 21
130.28
 31
0.0
  0
LINE
  8
0
 62
     0
 10
1.32981
 20
130.28
 30
0.0
 11
1.47588
 21
130.335
 31
0.0
  0
LINE
  8
0
 62
     0
 10
1.47588
 20
130.335
 30
0.0
 11
1.62884
 21
130.377
 31
0.0
  0
LINE
  8
0
 62
     0
 10
1.62884
 20
130.377
 30
0.0
 11
1.7818
 21
130.408
 31
0.0
  0
LINE
  8
0
 62
     0
 10
1.7818
 20
130.408
 30
0.0
 11
1.9389
 21
130.426
 31
0.0
  0
LINE
  8
0
 62
     0
 10
1.9389
 20
130.426
 30
0.0
 11
2.096
 21
130.433
 31
0.0
  0
LINE
  8
0
 62
     0
 10
2.096
 20
130.433
 30
0.0
 11
318.896
 21
130.433
 31
0.0
  0
LINE
  8
0
 62
     0
 10
3.78548
 20
5.08497
 30
0.0
 11
3.50711
 21
4.94164
 31
0.0
  0
LINE
  8
0
 62
     0
 10
3.50711
 20
4.94164
 30
0.0
 11
3.28386
 21
4.71978
 31
0.0
  0
LINE
  8
0
 62
     0
 10
3.28386
 20
4.71978
 30
0.0
 11
3.14331
 21
4.4414
 31
0.0
  0
LINE
  8
0
 62
     0
 10
3.14331
 20
4.4414
 30
0.0
 11
3.09507
 21
4.13135
 31
0.0
  0
LINE
  8
0
 62
     0
 10
3.09507
 20
4.13135
 30
0.0
 11
3.14331
 21
3.82266
 31
0.0
  0
LINE
  8
0
 62
     0
 10
3.14331
 20
3.82266
 30
0.0
 11
3.28386
 21
3.54432
 31
0.0
  0
LINE
  8
0
 62
     0
 10
3.28386
 20
3.54432
 30
0.0
 11
3.50711
 21
3.32245
 31
0.0
  0
LINE
  8
0
 62
     0
 10
3.50711
 20
3.32245
 30
0.0
 11
3.78548
 21
3.18051
 31
0.0
  0
LINE
  8
0
 62
     0
 10
3.78548
 20
3.18051
 30
0.0
 11
4.09554
 21
3.1309
 31
0.0
  0
LINE
  8
0
 62
     0
 10
4.09554
 20
3.1309
 30
0.0
 11
4.40422
 21
3.18051
 31
0.0
  0
LINE
  8
0
 62
     0
 10
4.40422
 20
3.18051
 30
0.0
 11
4.68256
 21
3.32245
 31
0.0
  0
LINE
  8
0
 62
     0
 10
4.68256
 20
3.32245
 30
0.0
 11
4.90442
 21
3.54432
 31
0.0
  0
LINE
  8
0
 62
     0
 10
4.90442
 20
3.54432
 30
0.0
 11
5.04638
 21
3.82266
 31
0.0
  0
LINE
  8
0
 62
     0
 10
5.04638
 20
3.82266
 30
0.0
 11
5.09598
 21
4.13135
 31
0.0
  0
LINE
  8
0
 62
     0
 10
5.09598
 20
4.13135
 30
0.0
 11
5.04638
 21
4.4414
 31
0.0
  0
LINE
  8
0
 62
     0
 10
5.04638
 20
4.4414
 30
0.0
 11
4.90442
 21
4.71978
 31
0.0
  0
LINE
  8
0
 62
     0
 10
4.90442
 20
4.71978
 30
0.0
 11
4.68256
 21
4.94164
 31
0.0
  0
LINE
  8
0
 62
     0
 10
4.68256
 20
4.94164
 30
0.0
 11
4.40422
 21
5.08497
 31
0.0
  0
LINE
  8
0
 62
     0
 10
4.40422
 20
5.08497
 30
0.0
 11
4.09554
 21
5.13182
 31
0.0
  0
LINE
  8
0
 62
     0
 10
4.09554
 20
5.13182
 30
0.0
 11
3.78548
 21
5.08497
 31
0.0
  0
LINE
  8
0
 62
     0
 10
66.3469
 20
5.08497
 30
0.0
 11
66.0672
 21
4.94164
 31
0.0
  0
LINE
  8
0
 62
     0
 10
66.0672
 20
4.94164
 30
0.0
 11
65.8467
 21
4.71978
 31
0.0
  0
LINE
  8
0
 62
     0
 10
65.8467
 20
4.71978
 30
0.0
 11
65.7049
 21
4.4414
 31
0.0
  0
LINE
  8
0
 62
     0
 10
65.7049
 20
4.4414
 30
0.0
 11
65.6551
 21
4.13135
 31
0.0
  0
LINE
  8
0
 62
     0
 10
65.6551
 20
4.13135
 30
0.0
 11
65.7049
 21
3.82266
 31
0.0
  0
LINE
  8
0
 62
     0
 10
65.7049
 20
3.82266
 30
0.0
 11
65.8467
 21
3.54432
 31
0.0
  0
LINE
  8
0
 62
     0
 10
65.8467
 20
3.54432
 30
0.0
 11
66.0672
 21
3.32245
 31
0.0
  0
LINE
  8
0
 62
     0
 10
66.0672
 20
3.32245
 30
0.0
 11
66.3469
 21
3.18051
 31
0.0
  0
LINE
  8
0
 62
     0
 10
66.3469
 20
3.18051
 30
0.0
 11
66.6556
 21
3.1309
 31
0.0
  0
LINE
  8
0
 62
     0
 10
66.6556
 20
3.1309
 30
0.0
 11
66.9643
 21
3.18051
 31
0.0
  0
LINE
  8
0
 62
     0
 10
66.9643
 20
3.18051
 30
0.0
 11
67.2426
 21
3.32245
 31
0.0
  0
LINE
  8
0
 62
     0
 10
67.2426
 20
3.32245
 30
0.0
 11
67.4645
 21
3.54432
 31
0.0
  0
LINE
  8
0
 62
     0
 10
67.4645
 20
3.54432
 30
0.0
 11
67.6067
 21
3.82266
 31
0.0
  0
LINE
  8
0
 62
     0
 10
67.6067
 20
3.82266
 30
0.0
 11
67.6561
 21
4.13135
 31
0.0
  0
LINE
  8
0
 62
     0
 10
67.6561
 20
4.13135
 30
0.0
 11
67.6067
 21
4.4414
 31
0.0
  0
LINE
  8
0
 62
     0
 10
67.6067
 20
4.4414
 30
0.0
 11
67.4645
 21
4.71978
 31
0.0
  0
LINE
  8
0
 62
     0
 10
67.4645
 20
4.71978
 30
0.0
 11
67.2426
 21
4.94164
 31
0.0
  0
LINE
  8
0
 62
     0
 10
67.2426
 20
4.94164
 30
0.0
 11
66.9643
 21
5.08497
 31
0.0
  0
LINE
  8
0
 62
     0
 10
66.9643
 20
5.08497
 30
0.0
 11
66.6556
 21
5.13182
 31
0.0
  0
LINE
  8
0
 62
     0
 10
66.6556
 20
5.13182
 30
0.0
 11
66.3469
 21
5.08497
 31
0.0
  0
LINE
  8
0
 62
     0
 10
128.906
 20
5.08497
 30
0.0
 11
128.627
 21
4.94164
 31
0.0
  0
LINE
  8
0
 62
     0
 10
128.627
 20
4.94164
 30
0.0
 11
128.407
 21
4.71978
 31
0.0
  0
LINE
  8
0
 62
     0
 10
128.407
 20
4.71978
 30
0.0
 11
128.265
 21
4.4414
 31
0.0
  0
LINE
  8
0
 62
     0
 10
128.265
 20
4.4414
 30
0.0
 11
128.215
 21
4.13135
 31
0.0
  0
LINE
  8
0
 62
     0
 10
128.215
 20
4.13135
 30
0.0
 11
128.265
 21
3.82266
 31
0.0
  0
LINE
  8
0
 62
     0
 10
128.265
 20
3.82266
 30
0.0
 11
128.407
 21
3.54432
 31
0.0
  0
LINE
  8
0
 62
     0
 10
128.407
 20
3.54432
 30
0.0
 11
128.627
 21
3.32245
 31
0.0
  0
LINE
  8
0
 62
     0
 10
128.627
 20
3.32245
 30
0.0
 11
128.906
 21
3.18051
 31
0.0
  0
LINE
  8
0
 62
     0
 10
128.906
 20
3.18051
 30
0.0
 11
129.216
 21
3.1309
 31
0.0
  0
LINE
  8
0
 62
     0
 10
129.216
 20
3.1309
 30
0.0
 11
129.524
 21
3.18051
 31
0.0
  0
LINE
  8
0
 62
     0
 10
129.524
 20
3.18051
 30
0.0
 11
129.803
 21
3.32245
 31
0.0
  0
LINE
  8
0
 62
     0
 10
129.803
 20
3.32245
 30
0.0
 11
130.025
 21
3.54432
 31
0.0
  0
LINE
  8
0
 62
     0
 10
130.025
 20
3.54432
 30
0.0
 11
130.167
 21
3.82266
 31
0.0
  0
LINE
  8
0
 62
     0
 10
130.167
 20
3.82266
 30
0.0
 11
130.215
 21
4.13135
 31
0.0
  0
LINE
  8
0
 62
     0
 10
130.215
 20
4.13135
 30
0.0
 11
130.167
 21
4.4414
 31
0.0
  0
LINE
  8
0
 62
     0
 10
130.167
 20
4.4414
 30
0.0
 11
130.025
 21
4.71978
 31
0.0
  0
LINE
  8
0
 62
     0
 10
130.025
 20
4.71978
 30
0.0
 11
129.803
 21
4.94164
 31
0.0
  0
LINE
  8
0
 62
     0
 10
129.803
 20
4.94164
 30
0.0
 11
129.524
 21
5.08497
 31
0.0
  0
LINE
  8
0
 62
     0
 10
129.524
 20
5.08497
 30
0.0
 11
129.216
 21
5.13182
 31
0.0
  0
LINE
  8
0
 62
     0
 10
129.216
 20
5.13182
 30
0.0
 11
128.906
 21
5.08497
 31
0.0
  0
LINE
  8
0
 62
     0
 10
191.466
 20
5.08497
 30
0.0
 11
191.188
 21
4.94164
 31
0.0
  0
LINE
  8
0
 62
     0
 10
191.188
 20
4.94164
 30
0.0
 11
190.967
 21
4.71978
 31
0.0
  0
LINE
  8
0
 62
     0
 10
190.967
 20
4.71978
 30
0.0
 11
190.824
 21
4.4414
 31
0.0
  0
LINE
  8
0
 62
     0
 10
190.824
 20
4.4414
 30
0.0
 11
190.776
 21
4.13135
 31
0.0
  0
LINE
  8
0
 62
     0
 10
190.776
 20
4.13135
 30
0.0
 11
190.824
 21
3.82266
 31
0.0
  0
LINE
  8
0
 62
     0
 10
190.824
 20
3.82266
 30
0.0
 11
190.967
 21
3.54432
 31
0.0
  0
LINE
  8
0
 62
     0
 10
190.967
 20
3.54432
 30
0.0
 11
191.188
 21
3.32245
 31
0.0
  0
LINE
  8
0
 62
     0
 10
191.188
 20
3.32245
 30
0.0
 11
191.466
 21
3.18051
 31
0.0
  0
LINE
  8
0
 62
     0
 10
191.466
 20
3.18051
 30
0.0
 11
191.776
 21
3.1309
 31
0.0
  0
LINE
  8
0
 62
     0
 10
191.776
 20
3.1309
 30
0.0
 11
192.085
 21
3.18051
 31
0.0
  0
LINE
  8
0
 62
     0
 10
192.085
 20
3.18051
 30
0.0
 11
192.363
 21
3.32245
 31
0.0
  0
LINE
  8
0
 62
     0
 10
192.363
 20
3.32245
 30
0.0
 11
192.585
 21
3.54432
 31
0.0
  0
LINE
  8
0
 62
     0
 10
192.585
 20
3.54432
 30
0.0
 11
192.727
 21
3.82266
 31
0.0
  0
LINE
  8
0
 62
     0
 10
192.727
 20
3.82266
 30
0.0
 11
192.775
 21
4.13135
 31
0.0
  0
LINE
  8
0
 62
     0
 10
192.775
 20
4.13135
 30
0.0
 11
192.727
 21
4.4414
 31
0.0
  0
LINE
  8
0
 62
     0
 10
192.727
 20
4.4414
 30
0.0
 11
192.585
 21
4.71978
 31
0.0
  0
LINE
  8
0
 62
     0
 10
192.585
 20
4.71978
 30
0.0
 11
192.363
 21
4.94164
 31
0.0
  0
LINE
  8
0
 62
     0
 10
192.363
 20
4.94164
 30
0.0
 11
192.085
 21
5.08497
 31
0.0
  0
LINE
  8
0
 62
     0
 10
192.085
 20
5.08497
 30
0.0
 11
191.776
 21
5.13182
 31
0.0
  0
LINE
  8
0
 62
     0
 10
191.776
 20
5.13182
 30
0.0
 11
191.466
 21
5.08497
 31
0.0
  0
LINE
  8
0
 62
     0
 10
254.025
 20
5.08497
 30
0.0
 11
253.748
 21
4.94164
 31
0.0
  0
LINE
  8
0
 62
     0
 10
253.748
 20
4.94164
 30
0.0
 11
253.526
 21
4.71978
 31
0.0
  0
LINE
  8
0
 62
     0
 10
253.526
 20
4.71978
 30
0.0
 11
253.384
 21
4.4414
 31
0.0
  0
LINE
  8
0
 62
     0
 10
253.384
 20
4.4414
 30
0.0
 11
253.336
 21
4.13135
 31
0.0
  0
LINE
  8
0
 62
     0
 10
253.336
 20
4.13135
 30
0.0
 11
253.384
 21
3.82266
 31
0.0
  0
LINE
  8
0
 62
     0
 10
253.384
 20
3.82266
 30
0.0
 11
253.526
 21
3.54432
 31
0.0
  0
LINE
  8
0
 62
     0
 10
253.526
 20
3.54432
 30
0.0
 11
253.748
 21
3.32245
 31
0.0
  0
LINE
  8
0
 62
     0
 10
253.748
 20
3.32245
 30
0.0
 11
254.025
 21
3.18051
 31
0.0
  0
LINE
  8
0
 62
     0
 10
254.025
 20
3.18051
 30
0.0
 11
254.335
 21
3.1309
 31
0.0
  0
LINE
  8
0
 62
     0
 10
254.335
 20
3.1309
 30
0.0
 11
254.643
 21
3.18051
 31
0.0
  0
LINE
  8
0
 62
     0
 10
254.643
 20
3.18051
 30
0.0
 11
254.922
 21
3.32245
 31
0.0
  0
LINE
  8
0
 62
     0
 10
254.922
 20
3.32245
 30
0.0
 11
255.144
 21
3.54432
 31
0.0
  0
LINE
  8
0
 62
     0
 10
255.144
 20
3.54432
 30
0.0
 11
255.286
 21
3.82266
 31
0.0
  0
LINE
  8
0
 62
     0
 10
255.286
 20
3.82266
 30
0.0
 11
255.335
 21
4.13135
 31
0.0
  0
LINE
  8
0
 62
     0
 10
255.335
 20
4.13135
 30
0.0
 11
255.286
 21
4.4414
 31
0.0
  0
LINE
  8
0
 62
     0
 10
255.286
 20
4.4414
 30
0.0
 11
255.144
 21
4.71978
 31
0.0
  0
LINE
  8
0
 62
     0
 10
255.144
 20
4.71978
 30
0.0
 11
254.922
 21
4.94164
 31
0.0
  0
LINE
  8
0
 62
     0
 10
254.922
 20
4.94164
 30
0.0
 11
254.643
 21
5.08497
 31
0.0
  0
LINE
  8
0
 62
     0
 10
254.643
 20
5.08497
 30
0.0
 11
254.335
 21
5.13182
 31
0.0
  0
LINE
  8
0
 62
     0
 10
254.335
 20
5.13182
 30
0.0
 11
254.025
 21
5.08497
 31
0.0
  0
LINE
  8
0
 62
     0
 10
316.586
 20
5.08497
 30
0.0
 11
316.308
 21
4.94164
 31
0.0
  0
LINE
  8
0
 62
     0
 10
316.308
 20
4.94164
 30
0.0
 11
316.086
 21
4.71978
 31
0.0
  0
LINE
  8
0
 62
     0
 10
316.086
 20
4.71978
 30
0.0
 11
315.944
 21
4.4414
 31
0.0
  0
LINE
  8
0
 62
     0
 10
315.944
 20
4.4414
 30
0.0
 11
315.896
 21
4.13135
 31
0.0
  0
LINE
  8
0
 62
     0
 10
315.896
 20
4.13135
 30
0.0
 11
315.944
 21
3.82266
 31
0.0
  0
LINE
  8
0
 62
     0
 10
315.944
 20
3.82266
 30
0.0
 11
316.086
 21
3.54432
 31
0.0
  0
LINE
  8
0
 62
     0
 10
316.086
 20
3.54432
 30
0.0
 11
316.308
 21
3.32245
 31
0.0
  0
LINE
  8
0
 62
     0
 10
316.308
 20
3.32245
 30
0.0
 11
316.586
 21
3.18051
 31
0.0
  0
LINE
  8
0
 62
     0
 10
316.586
 20
3.18051
 30
0.0
 11
316.896
 21
3.1309
 31
0.0
  0
LINE
  8
0
 62
     0
 10
316.896
 20
3.1309
 30
0.0
 11
317.205
 21
3.18051
 31
0.0
  0
LINE
  8
0
 62
     0
 10
317.205
 20
3.18051
 30
0.0
 11
317.483
 21
3.32245
 31
0.0
  0
LINE
  8
0
 62
     0
 10
317.483
 20
3.32245
 30
0.0
 11
317.705
 21
3.54432
 31
0.0
  0
LINE
  8
0
 62
     0
 10
317.705
 20
3.54432
 30
0.0
 11
317.847
 21
3.82266
 31
0.0
  0
LINE
  8
0
 62
     0
 10
317.847
 20
3.82266
 30
0.0
 11
317.897
 21
4.13135
 31
0.0
  0
LINE
  8
0
 62
     0
 10
317.897
 20
4.13135
 30
0.0
 11
317.847
 21
4.4414
 31
0.0
  0
LINE
  8
0
 62
     0
 10
317.847
 20
4.4414
 30
0.0
 11
317.705
 21
4.71978
 31
0.0
  0
LINE
  8
0
 62
     0
 10
317.705
 20
4.71978
 30
0.0
 11
317.483
 21
4.94164
 31
0.0
  0
LINE
  8
0
 62
     0
 10
317.483
 20
4.94164
 30
0.0
 11
317.205
 21
5.08497
 31
0.0
  0
LINE
  8
0
 62
     0
 10
317.205
 20
5.08497
 30
0.0
 11
316.896
 21
5.13182
 31
0.0
  0
LINE
  8
0
 62
     0
 10
316.896
 20
5.13182
 30
0.0
 11
316.586
 21
5.08497
 31
0.0
  0
LINE
  8
0
 62
     0
 10
296.37
 20
24.6586
 30
0.0
 11
310.37
 21
24.6586
 31
0.0
  0
LINE
  8
0
 62
     0
 10
310.37
 20
24.6586
 30
0.0
 11
310.37
 21
10.6577
 31
0.0
  0
LINE
  8
0
 62
     0
 10
310.37
 20
10.6577
 30
0.0
 11
296.37
 21
10.6577
 31
0.0
  0
LINE
  8
0
 62
     0
 10
296.37
 20
10.6577
 30
0.0
 11
296.37
 21
24.6586
 31
0.0
  0
LINE
  8
0
 62
     0
 10
277.32
 20
24.6586
 30
0.0
 11
291.32
 21
24.6586
 31
0.0
  0
LINE
  8
0
 62
     0
 10
291.32
 20
24.6586
 30
0.0
 11
291.32
 21
10.6577
 31
0.0
  0
LINE
  8
0
 62
     0
 10
291.32
 20
10.6577
 30
0.0
 11
277.32
 21
10.6577
 31
0.0
  0
LINE
  8
0
 62
     0
 10
277.32
 20
10.6577
 30
0.0
 11
277.32
 21
24.6586
 31
0.0
  0
LINE
  8
0
 62
     0
 10
258.27
 20
24.6586
 30
0.0
 11
272.27
 21
24.6586
 31
0.0
  0
LINE
  8
0
 62
     0
 10
272.27
 20
24.6586
 30
0.0
 11
272.27
 21
10.6577
 31
0.0
  0
LINE
  8
0
 62
     0
 10
272.27
 20
10.6577
 30
0.0
 11
258.27
 21
10.6577
 31
0.0
  0
LINE
  8
0
 62
     0
 10
258.27
 20
10.6577
 30
0.0
 11
258.27
 21
24.6586
 31
0.0
  0
LINE
  8
0
 62
     0
 10
239.22
 20
24.6586
 30
0.0
 11
253.22
 21
24.6586
 31
0.0
  0
LINE
  8
0
 62
     0
 10
253.22
 20
24.6586
 30
0.0
 11
253.22
 21
10.6577
 31
0.0
  0
LINE
  8
0
 62
     0
 10
253.22
 20
10.6577
 30
0.0
 11
239.22
 21
10.6577
 31
0.0
  0
LINE
  8
0
 62
     0
 10
239.22
 20
10.6577
 30
0.0
 11
239.22
 21
24.6586
 31
0.0
  0
LINE
  8
0
 62
     0
 10
220.17
 20
24.6586
 30
0.0
 11
234.17
 21
24.6586
 31
0.0
  0
LINE
  8
0
 62
     0
 10
234.17
 20
24.6586
 30
0.0
 11
234.17
 21
10.6577
 31
0.0
  0
LINE
  8
0
 62
     0
 10
234.17
 20
10.6577
 30
0.0
 11
220.17
 21
10.6577
 31
0.0
  0
LINE
  8
0
 62
     0
 10
220.17
 20
10.6577
 30
0.0
 11
220.17
 21
24.6586
 31
0.0
  0
LINE
  8
0
 62
     0
 10
201.12
 20
24.6586
 30
0.0
 11
215.12
 21
24.6586
 31
0.0
  0
LINE
  8
0
 62
     0
 10
215.12
 20
24.6586
 30
0.0
 11
215.12
 21
10.6577
 31
0.0
  0
LINE
  8
0
 62
     0
 10
215.12
 20
10.6577
 30
0.0
 11
201.12
 21
10.6577
 31
0.0
  0
LINE
  8
0
 62
     0
 10
201.12
 20
10.6577
 30
0.0
 11
201.12
 21
24.6586
 31
0.0
  0
LINE
  8
0
 62
     0
 10
182.07
 20
24.6586
 30
0.0
 11
196.07
 21
24.6586
 31
0.0
  0
LINE
  8
0
 62
     0
 10
196.07
 20
24.6586
 30
0.0
 11
196.07
 21
10.6577
 31
0.0
  0
LINE
  8
0
 62
     0
 10
196.07
 20
10.6577
 30
0.0
 11
182.07
 21
10.6577
 31
0.0
  0
LINE
  8
0
 62
     0
 10
182.07
 20
10.6577
 30
0.0
 11
182.07
 21
24.6586
 31
0.0
  0
LINE
  8
0
 62
     0
 10
158.258
 20
24.6586
 30
0.0
 11
172.258
 21
24.6586
 31
0.0
  0
LINE
  8
0
 62
     0
 10
172.258
 20
24.6586
 30
0.0
 11
172.258
 21
10.6577
 31
0.0
  0
LINE
  8
0
 62
     0
 10
172.258
 20
10.6577
 30
0.0
 11
158.258
 21
10.6577
 31
0.0
  0
LINE
  8
0
 62
     0
 10
158.258
 20
10.6577
 30
0.0
 11
158.258
 21
24.6586
 31
0.0
  0
LINE
  8
0
 62
     0
 10
134.445
 20
24.6586
 30
0.0
 11
148.445
 21
24.6586
 31
0.0
  0
LINE
  8
0
 62
     0
 10
148.445
 20
24.6586
 30
0.0
 11
148.445
 21
10.6577
 31
0.0
  0
LINE
  8
0
 62
     0
 10
148.445
 20
10.6577
 30
0.0
 11
134.445
 21
10.6577
 31
0.0
  0
LINE
  8
0
 62
     0
 10
134.445
 20
10.6577
 30
0.0
 11
134.445
 21
24.6586
 31
0.0
  0
LINE
  8
0
 62
     0
 10
115.394
 20
24.6586
 30
0.0
 11
129.395
 21
24.6586
 31
0.0
  0
LINE
  8
0
 62
     0
 10
129.395
 20
24.6586
 30
0.0
 11
129.395
 21
10.6577
 31
0.0
  0
LINE
  8
0
 62
     0
 10
129.395
 20
10.6577
 30
0.0
 11
115.394
 21
10.6577
 31
0.0
  0
LINE
  8
0
 62
     0
 10
115.394
 20
10.6577
 30
0.0
 11
115.394
 21
24.6586
 31
0.0
  0
LINE
  8
0
 62
     0
 10
96.3443
 20
24.6586
 30
0.0
 11
110.345
 21
24.6586
 31
0.0
  0
LINE
  8
0
 62
     0
 10
110.345
 20
24.6586
 30
0.0
 11
110.345
 21
10.6577
 31
0.0
  0
LINE
  8
0
 62
     0
 10
110.345
 20
10.6577
 30
0.0
 11
96.3443
 21
10.6577
 31
0.0
  0
LINE
  8
0
 62
     0
 10
96.3443
 20
10.6577
 30
0.0
 11
96.3443
 21
24.6586
 31
0.0
  0
LINE
  8
0
 62
     0
 10
77.2943
 20
24.6586
 30
0.0
 11
91.295
 21
24.6586
 31
0.0
  0
LINE
  8
0
 62
     0
 10
91.295
 20
24.6586
 30
0.0
 11
91.295
 21
10.6577
 31
0.0
  0
LINE
  8
0
 62
     0
 10
91.295
 20
10.6577
 30
0.0
 11
77.2943
 21
10.6577
 31
0.0
  0
LINE
  8
0
 62
     0
 10
77.2943
 20
10.6577
 30
0.0
 11
77.2943
 21
24.6586
 31
0.0
  0
LINE
  8
0
 62
     0
 10
55.8631
 20
24.6586
 30
0.0
 11
69.8638
 21
24.6586
 31
0.0
  0
LINE
  8
0
 62
     0
 10
69.8638
 20
24.6586
 30
0.0
 11
69.8638
 21
10.6577
 31
0.0
  0
LINE
  8
0
 62
     0
 10
69.8638
 20
10.6577
 30
0.0
 11
55.8631
 21
10.6577
 31
0.0
  0
LINE
  8
0
 62
     0
 10
55.8631
 20
10.6577
 30
0.0
 11
55.8631
 21
24.6586
 31
0.0
  0
LINE
  8
0
 62
     0
 10
34.4331
 20
24.6586
 30
0.0
 11
48.4325
 21
24.6586
 31
0.0
  0
LINE
  8
0
 62
     0
 10
48.4325
 20
24.6586
 30
0.0
 11
48.4325
 21
10.6577
 31
0.0
  0
LINE
  8
0
 62
     0
 10
48.4325
 20
10.6577
 30
0.0
 11
34.4331
 21
10.6577
 31
0.0
  0
LINE
  8
0
 62
     0
 10
34.4331
 20
10.6577
 30
0.0
 11
34.4331
 21
24.6586
 31
0.0
  0
LINE
  8
0
 62
     0
 10
13.0018
 20
24.6586
 30
0.0
 11
27.0013
 21
24.6586
 31
0.0
  0
LINE
  8
0
 62
     0
 10
27.0013
 20
24.6586
 30
0.0
 11
27.0013
 21
10.6577
 31
0.0
  0
LINE
  8
0
 62
     0
 10
27.0013
 20
10.6577
 30
0.0
 11
13.0018
 21
10.6577
 31
0.0
  0
LINE
  8
0
 62
     0
 10
13.0018
 20
10.6577
 30
0.0
 11
13.0018
 21
24.6586
 31
0.0
  0
LINE
  8
0
 62
     0
 10
22.5268
 20
43.7074
 30
0.0
 11
22.5268
 21
39.0066
 31
0.0
  0
LINE
  8
0
 62
     0
 10
22.5268
 20
39.0066
 30
0.0
 11
21.0013
 21
39.0066
 31
0.0
  0
LINE
  8
0
 62
     0
 10
21.0013
 20
39.0066
 30
0.0
 11
21.0013
 21
42.237
 31
0.0
  0
LINE
  8
0
 62
     0
 10
21.0013
 20
42.237
 30
0.0
 11
19.276
 21
42.237
 31
0.0
  0
LINE
  8
0
 62
     0
 10
19.276
 20
42.237
 30
0.0
 11
19.276
 21
43.1588
 31
0.0
  0
LINE
  8
0
 62
     0
 10
19.276
 20
43.1588
 30
0.0
 11
15.977
 21
43.1588
 31
0.0
  0
LINE
  8
0
 62
     0
 10
15.977
 20
43.1588
 30
0.0
 11
15.977
 21
42.237
 31
0.0
  0
LINE
  8
0
 62
     0
 10
15.977
 20
42.237
 30
0.0
 11
14.2517
 21
42.237
 31
0.0
  0
LINE
  8
0
 62
     0
 10
14.2517
 20
42.237
 30
0.0
 11
14.2517
 21
39.0066
 31
0.0
  0
LINE
  8
0
 62
     0
 10
14.2517
 20
39.0066
 30
0.0
 11
13.4262
 21
39.0066
 31
0.0
  0
LINE
  8
0
 62
     0
 10
13.4262
 20
39.0066
 30
0.0
 11
13.4262
 21
36.2081
 31
0.0
  0
LINE
  8
0
 62
     0
 10
13.4262
 20
36.2081
 30
0.0
 11
14.2517
 21
36.2081
 31
0.0
  0
LINE
  8
0
 62
     0
 10
14.2517
 20
36.2081
 30
0.0
 11
14.2517
 21
29.9379
 31
0.0
  0
LINE
  8
0
 62
     0
 10
14.2517
 20
29.9379
 30
0.0
 11
15.977
 21
29.9379
 31
0.0
  0
LINE
  8
0
 62
     0
 10
15.977
 20
29.9379
 30
0.0
 11
15.977
 21
28.9567
 31
0.0
  0
LINE
  8
0
 62
     0
 10
15.977
 20
28.9567
 30
0.0
 11
19.276
 21
28.9567
 31
0.0
  0
LINE
  8
0
 62
     0
 10
19.276
 20
28.9567
 30
0.0
 11
19.276
 21
29.9379
 31
0.0
  0
LINE
  8
0
 62
     0
 10
19.276
 20
29.9379
 30
0.0
 11
21.0013
 21
29.9379
 31
0.0
  0
LINE
  8
0
 62
     0
 10
21.0013
 20
29.9379
 30
0.0
 11
21.0013
 21
34.4083
 31
0.0
  0
LINE
  8
0
 62
     0
 10
21.0013
 20
34.4083
 30
0.0
 11
22.5268
 21
34.4083
 31
0.0
  0
LINE
  8
0
 62
     0
 10
22.5268
 20
34.4083
 30
0.0
 11
22.5268
 21
29.7077
 31
0.0
  0
LINE
  8
0
 62
     0
 10
22.5268
 20
29.7077
 30
0.0
 11
36.5263
 21
29.7077
 31
0.0
  0
LINE
  8
0
 62
     0
 10
36.5263
 20
29.7077
 30
0.0
 11
36.5263
 21
34.4083
 31
0.0
  0
LINE
  8
0
 62
     0
 10
36.5263
 20
34.4083
 30
0.0
 11
38.0517
 21
34.4083
 31
0.0
  0
LINE
  8
0
 62
     0
 10
38.0517
 20
34.4083
 30
0.0
 11
38.0517
 21
29.9379
 31
0.0
  0
LINE
  8
0
 62
     0
 10
38.0517
 20
29.9379
 30
0.0
 11
39.7771
 21
29.9379
 31
0.0
  0
LINE
  8
0
 62
     0
 10
39.7771
 20
29.9379
 30
0.0
 11
39.7771
 21
28.9567
 31
0.0
  0
LINE
  8
0
 62
     0
 10
39.7771
 20
28.9567
 30
0.0
 11
43.0759
 21
28.9567
 31
0.0
  0
LINE
  8
0
 62
     0
 10
43.0759
 20
28.9567
 30
0.0
 11
43.0759
 21
29.9379
 31
0.0
  0
LINE
  8
0
 62
     0
 10
43.0759
 20
29.9379
 30
0.0
 11
44.8014
 21
29.9379
 31
0.0
  0
LINE
  8
0
 62
     0
 10
44.8014
 20
29.9379
 30
0.0
 11
44.8014
 21
36.2081
 31
0.0
  0
LINE
  8
0
 62
     0
 10
44.8014
 20
36.2081
 30
0.0
 11
45.6269
 21
36.2081
 31
0.0
  0
LINE
  8
0
 62
     0
 10
45.6269
 20
36.2081
 30
0.0
 11
45.6269
 21
39.0066
 31
0.0
  0
LINE
  8
0
 62
     0
 10
45.6269
 20
39.0066
 30
0.0
 11
44.8014
 21
39.0066
 31
0.0
  0
LINE
  8
0
 62
     0
 10
44.8014
 20
39.0066
 30
0.0
 11
44.8014
 21
42.237
 31
0.0
  0
LINE
  8
0
 62
     0
 10
44.8014
 20
42.237
 30
0.0
 11
43.0759
 21
42.237
 31
0.0
  0
LINE
  8
0
 62
     0
 10
43.0759
 20
42.237
 30
0.0
 11
43.0759
 21
43.1588
 31
0.0
  0
LINE
  8
0
 62
     0
 10
43.0759
 20
43.1588
 30
0.0
 11
39.7771
 21
43.1588
 31
0.0
  0
LINE
  8
0
 62
     0
 10
39.7771
 20
43.1588
 30
0.0
 11
39.7771
 21
42.237
 31
0.0
  0
LINE
  8
0
 62
     0
 10
39.7771
 20
42.237
 30
0.0
 11
38.0517
 21
42.237
 31
0.0
  0
LINE
  8
0
 62
     0
 10
38.0517
 20
42.237
 30
0.0
 11
38.0517
 21
39.0066
 31
0.0
  0
LINE
  8
0
 62
     0
 10
38.0517
 20
39.0066
 30
0.0
 11
36.5263
 21
39.0066
 31
0.0
  0
LINE
  8
0
 62
     0
 10
36.5263
 20
39.0066
 30
0.0
 11
36.5263
 21
43.7074
 31
0.0
  0
LINE
  8
0
 62
     0
 10
36.5263
 20
43.7074
 30
0.0
 11
22.5268
 21
43.7074
 31
0.0
  0
LINE
  8
0
 62
     0
 10
296.37
 20
43.7074
 30
0.0
 11
310.37
 21
43.7074
 31
0.0
  0
LINE
  8
0
 62
     0
 10
310.37
 20
43.7074
 30
0.0
 11
310.37
 21
29.7077
 31
0.0
  0
LINE
  8
0
 62
     0
 10
310.37
 20
29.7077
 30
0.0
 11
296.37
 21
29.7077
 31
0.0
  0
LINE
  8
0
 62
     0
 10
296.37
 20
29.7077
 30
0.0
 11
296.37
 21
43.7074
 31
0.0
  0
LINE
  8
0
 62
     0
 10
277.32
 20
43.7074
 30
0.0
 11
291.32
 21
43.7074
 31
0.0
  0
LINE
  8
0
 62
     0
 10
291.32
 20
43.7074
 30
0.0
 11
291.32
 21
29.7077
 31
0.0
  0
LINE
  8
0
 62
     0
 10
291.32
 20
29.7077
 30
0.0
 11
277.32
 21
29.7077
 31
0.0
  0
LINE
  8
0
 62
     0
 10
277.32
 20
29.7077
 30
0.0
 11
277.32
 21
43.7074
 31
0.0
  0
LINE
  8
0
 62
     0
 10
251.127
 20
43.7074
 30
0.0
 11
265.126
 21
43.7074
 31
0.0
  0
LINE
  8
0
 62
     0
 10
265.126
 20
43.7074
 30
0.0
 11
265.126
 21
29.7077
 31
0.0
  0
LINE
  8
0
 62
     0
 10
265.126
 20
29.7077
 30
0.0
 11
251.127
 21
29.7077
 31
0.0
  0
LINE
  8
0
 62
     0
 10
251.127
 20
29.7077
 30
0.0
 11
251.127
 21
43.7074
 31
0.0
  0
LINE
  8
0
 62
     0
 10
224.933
 20
43.7074
 30
0.0
 11
238.933
 21
43.7074
 31
0.0
  0
LINE
  8
0
 62
     0
 10
238.933
 20
43.7074
 30
0.0
 11
238.933
 21
29.7077
 31
0.0
  0
LINE
  8
0
 62
     0
 10
238.933
 20
29.7077
 30
0.0
 11
224.933
 21
29.7077
 31
0.0
  0
LINE
  8
0
 62
     0
 10
224.933
 20
29.7077
 30
0.0
 11
224.933
 21
43.7074
 31
0.0
  0
LINE
  8
0
 62
     0
 10
205.883
 20
43.7074
 30
0.0
 11
219.883
 21
43.7074
 31
0.0
  0
LINE
  8
0
 62
     0
 10
219.883
 20
43.7074
 30
0.0
 11
219.883
 21
29.7077
 31
0.0
  0
LINE
  8
0
 62
     0
 10
219.883
 20
29.7077
 30
0.0
 11
205.883
 21
29.7077
 31
0.0
  0
LINE
  8
0
 62
     0
 10
205.883
 20
29.7077
 30
0.0
 11
205.883
 21
43.7074
 31
0.0
  0
LINE
  8
0
 62
     0
 10
186.833
 20
43.7074
 30
0.0
 11
200.833
 21
43.7074
 31
0.0
  0
LINE
  8
0
 62
     0
 10
200.833
 20
43.7074
 30
0.0
 11
200.833
 21
29.7077
 31
0.0
  0
LINE
  8
0
 62
     0
 10
200.833
 20
29.7077
 30
0.0
 11
186.833
 21
29.7077
 31
0.0
  0
LINE
  8
0
 62
     0
 10
186.833
 20
29.7077
 30
0.0
 11
186.833
 21
43.7074
 31
0.0
  0
LINE
  8
0
 62
     0
 10
167.783
 20
43.7074
 30
0.0
 11
181.783
 21
43.7074
 31
0.0
  0
LINE
  8
0
 62
     0
 10
181.783
 20
43.7074
 30
0.0
 11
181.783
 21
29.7077
 31
0.0
  0
LINE
  8
0
 62
     0
 10
181.783
 20
29.7077
 30
0.0
 11
167.783
 21
29.7077
 31
0.0
  0
LINE
  8
0
 62
     0
 10
167.783
 20
29.7077
 30
0.0
 11
167.783
 21
43.7074
 31
0.0
  0
LINE
  8
0
 62
     0
 10
148.733
 20
43.7074
 30
0.0
 11
162.733
 21
43.7074
 31
0.0
  0
LINE
  8
0
 62
     0
 10
162.733
 20
43.7074
 30
0.0
 11
162.733
 21
29.7077
 31
0.0
  0
LINE
  8
0
 62
     0
 10
162.733
 20
29.7077
 30
0.0
 11
148.733
 21
29.7077
 31
0.0
  0
LINE
  8
0
 62
     0
 10
148.733
 20
29.7077
 30
0.0
 11
148.733
 21
43.7074
 31
0.0
  0
LINE
  8
0
 62
     0
 10
129.683
 20
43.7074
 30
0.0
 11
143.683
 21
43.7074
 31
0.0
  0
LINE
  8
0
 62
     0
 10
143.683
 20
43.7074
 30
0.0
 11
143.683
 21
29.7077
 31
0.0
  0
LINE
  8
0
 62
     0
 10
143.683
 20
29.7077
 30
0.0
 11
129.683
 21
29.7077
 31
0.0
  0
LINE
  8
0
 62
     0
 10
129.683
 20
29.7077
 30
0.0
 11
129.683
 21
43.7074
 31
0.0
  0
LINE
  8
0
 62
     0
 10
110.633
 20
43.7074
 30
0.0
 11
124.633
 21
43.7074
 31
0.0
  0
LINE
  8
0
 62
     0
 10
124.633
 20
43.7074
 30
0.0
 11
124.633
 21
29.7077
 31
0.0
  0
LINE
  8
0
 62
     0
 10
124.633
 20
29.7077
 30
0.0
 11
110.633
 21
29.7077
 31
0.0
  0
LINE
  8
0
 62
     0
 10
110.633
 20
29.7077
 30
0.0
 11
110.633
 21
43.7074
 31
0.0
  0
LINE
  8
0
 62
     0
 10
91.5829
 20
43.7074
 30
0.0
 11
105.583
 21
43.7074
 31
0.0
  0
LINE
  8
0
 62
     0
 10
105.583
 20
43.7074
 30
0.0
 11
105.583
 21
29.7077
 31
0.0
  0
LINE
  8
0
 62
     0
 10
105.583
 20
29.7077
 30
0.0
 11
91.5829
 21
29.7077
 31
0.0
  0
LINE
  8
0
 62
     0
 10
91.5829
 20
29.7077
 30
0.0
 11
91.5829
 21
43.7074
 31
0.0
  0
LINE
  8
0
 62
     0
 10
72.5329
 20
43.7074
 30
0.0
 11
86.5325
 21
43.7074
 31
0.0
  0
LINE
  8
0
 62
     0
 10
86.5325
 20
43.7074
 30
0.0
 11
86.5325
 21
29.7077
 31
0.0
  0
LINE
  8
0
 62
     0
 10
86.5325
 20
29.7077
 30
0.0
 11
72.5329
 21
29.7077
 31
0.0
  0
LINE
  8
0
 62
     0
 10
72.5329
 20
29.7077
 30
0.0
 11
72.5329
 21
43.7074
 31
0.0
  0
LINE
  8
0
 62
     0
 10
53.4829
 20
43.7074
 30
0.0
 11
67.4825
 21
43.7074
 31
0.0
  0
LINE
  8
0
 62
     0
 10
67.4825
 20
43.7074
 30
0.0
 11
67.4825
 21
29.7077
 31
0.0
  0
LINE
  8
0
 62
     0
 10
67.4825
 20
29.7077
 30
0.0
 11
53.4829
 21
29.7077
 31
0.0
  0
LINE
  8
0
 62
     0
 10
53.4829
 20
29.7077
 30
0.0
 11
53.4829
 21
43.7074
 31
0.0
  0
LINE
  8
0
 62
     0
 10
265.413
 20
62.7574
 30
0.0
 11
265.413
 21
58.0566
 31
0.0
  0
LINE
  8
0
 62
     0
 10
265.413
 20
58.0566
 30
0.0
 11
263.889
 21
58.0566
 31
0.0
  0
LINE
  8
0
 62
     0
 10
263.889
 20
58.0566
 30
0.0
 11
263.889
 21
61.287
 31
0.0
  0
LINE
  8
0
 62
     0
 10
263.889
 20
61.287
 30
0.0
 11
262.164
 21
61.287
 31
0.0
  0
LINE
  8
0
 62
     0
 10
262.164
 20
61.287
 30
0.0
 11
262.164
 21
62.2074
 31
0.0
  0
LINE
  8
0
 62
     0
 10
262.164
 20
62.2074
 30
0.0
 11
258.863
 21
62.2074
 31
0.0
  0
LINE
  8
0
 62
     0
 10
258.863
 20
62.2074
 30
0.0
 11
258.863
 21
61.287
 31
0.0
  0
LINE
  8
0
 62
     0
 10
258.863
 20
61.287
 30
0.0
 11
257.139
 21
61.287
 31
0.0
  0
LINE
  8
0
 62
     0
 10
257.139
 20
61.287
 30
0.0
 11
257.139
 21
58.0566
 31
0.0
  0
LINE
  8
0
 62
     0
 10
257.139
 20
58.0566
 30
0.0
 11
256.314
 21
58.0566
 31
0.0
  0
LINE
  8
0
 62
     0
 10
256.314
 20
58.0566
 30
0.0
 11
256.314
 21
55.2581
 31
0.0
  0
LINE
  8
0
 62
     0
 10
256.314
 20
55.2581
 30
0.0
 11
257.139
 21
55.2581
 31
0.0
  0
LINE
  8
0
 62
     0
 10
257.139
 20
55.2581
 30
0.0
 11
257.139
 21
48.9878
 31
0.0
  0
LINE
  8
0
 62
     0
 10
257.139
 20
48.9878
 30
0.0
 11
258.863
 21
48.9878
 31
0.0
  0
LINE
  8
0
 62
     0
 10
258.863
 20
48.9878
 30
0.0
 11
258.863
 21
48.0067
 31
0.0
  0
LINE
  8
0
 62
     0
 10
258.863
 20
48.0067
 30
0.0
 11
262.164
 21
48.0067
 31
0.0
  0
LINE
  8
0
 62
     0
 10
262.164
 20
48.0067
 30
0.0
 11
262.164
 21
48.9878
 31
0.0
  0
LINE
  8
0
 62
     0
 10
262.164
 20
48.9878
 30
0.0
 11
263.889
 21
48.9878
 31
0.0
  0
LINE
  8
0
 62
     0
 10
263.889
 20
48.9878
 30
0.0
 11
263.889
 21
53.4568
 31
0.0
  0
LINE
  8
0
 62
     0
 10
263.889
 20
53.4568
 30
0.0
 11
265.413
 21
53.4568
 31
0.0
  0
LINE
  8
0
 62
     0
 10
265.413
 20
53.4568
 30
0.0
 11
265.413
 21
48.7578
 31
0.0
  0
LINE
  8
0
 62
     0
 10
265.413
 20
48.7578
 30
0.0
 11
279.414
 21
48.7578
 31
0.0
  0
LINE
  8
0
 62
     0
 10
279.414
 20
48.7578
 30
0.0
 11
279.414
 21
53.4568
 31
0.0
  0
LINE
  8
0
 62
     0
 10
279.414
 20
53.4568
 30
0.0
 11
280.938
 21
53.4568
 31
0.0
  0
LINE
  8
0
 62
     0
 10
280.938
 20
53.4568
 30
0.0
 11
280.938
 21
48.9878
 31
0.0
  0
LINE
  8
0
 62
     0
 10
280.938
 20
48.9878
 30
0.0
 11
282.663
 21
48.9878
 31
0.0
  0
LINE
  8
0
 62
     0
 10
282.663
 20
48.9878
 30
0.0
 11
282.663
 21
48.0067
 31
0.0
  0
LINE
  8
0
 62
     0
 10
282.663
 20
48.0067
 30
0.0
 11
285.963
 21
48.0067
 31
0.0
  0
LINE
  8
0
 62
     0
 10
285.963
 20
48.0067
 30
0.0
 11
285.963
 21
48.9878
 31
0.0
  0
LINE
  8
0
 62
     0
 10
285.963
 20
48.9878
 30
0.0
 11
287.689
 21
48.9878
 31
0.0
  0
LINE
  8
0
 62
     0
 10
287.689
 20
48.9878
 30
0.0
 11
287.689
 21
55.2581
 31
0.0
  0
LINE
  8
0
 62
     0
 10
287.689
 20
55.2581
 30
0.0
 11
288.513
 21
55.2581
 31
0.0
  0
LINE
  8
0
 62
     0
 10
288.513
 20
55.2581
 30
0.0
 11
288.513
 21
58.0566
 31
0.0
  0
LINE
  8
0
 62
     0
 10
288.513
 20
58.0566
 30
0.0
 11
287.689
 21
58.0566
 31
0.0
  0
LINE
  8
0
 62
     0
 10
287.689
 20
58.0566
 30
0.0
 11
287.689
 21
61.287
 31
0.0
  0
LINE
  8
0
 62
     0
 10
287.689
 20
61.287
 30
0.0
 11
285.963
 21
61.287
 31
0.0
  0
LINE
  8
0
 62
     0
 10
285.963
 20
61.287
 30
0.0
 11
285.963
 21
62.2074
 31
0.0
  0
LINE
  8
0
 62
     0
 10
285.963
 20
62.2074
 30
0.0
 11
282.663
 21
62.2074
 31
0.0
  0
LINE
  8
0
 62
     0
 10
282.663
 20
62.2074
 30
0.0
 11
282.663
 21
61.287
 31
0.0
  0
LINE
  8
0
 62
     0
 10
282.663
 20
61.287
 30
0.0
 11
280.938
 21
61.287
 31
0.0
  0
LINE
  8
0
 62
     0
 10
280.938
 20
61.287
 30
0.0
 11
280.938
 21
58.0566
 31
0.0
  0
LINE
  8
0
 62
     0
 10
280.938
 20
58.0566
 30
0.0
 11
279.414
 21
58.0566
 31
0.0
  0
LINE
  8
0
 62
     0
 10
279.414
 20
58.0566
 30
0.0
 11
279.414
 21
62.7574
 31
0.0
  0
LINE
  8
0
 62
     0
 10
279.414
 20
62.7574
 30
0.0
 11
265.413
 21
62.7574
 31
0.0
  0
LINE
  8
0
 62
     0
 10
296.37
 20
62.7574
 30
0.0
 11
310.37
 21
62.7574
 31
0.0
  0
LINE
  8
0
 62
     0
 10
310.37
 20
62.7574
 30
0.0
 11
310.37
 21
48.7578
 31
0.0
  0
LINE
  8
0
 62
     0
 10
310.37
 20
48.7578
 30
0.0
 11
296.37
 21
48.7578
 31
0.0
  0
LINE
  8
0
 62
     0
 10
296.37
 20
48.7578
 30
0.0
 11
296.37
 21
62.7574
 31
0.0
  0
LINE
  8
0
 62
     0
 10
234.458
 20
62.7574
 30
0.0
 11
248.458
 21
62.7574
 31
0.0
  0
LINE
  8
0
 62
     0
 10
248.458
 20
62.7574
 30
0.0
 11
248.458
 21
48.7578
 31
0.0
  0
LINE
  8
0
 62
     0
 10
248.458
 20
48.7578
 30
0.0
 11
234.458
 21
48.7578
 31
0.0
  0
LINE
  8
0
 62
     0
 10
234.458
 20
48.7578
 30
0.0
 11
234.458
 21
62.7574
 31
0.0
  0
LINE
  8
0
 62
     0
 10
215.408
 20
62.7574
 30
0.0
 11
229.408
 21
62.7574
 31
0.0
  0
LINE
  8
0
 62
     0
 10
229.408
 20
62.7574
 30
0.0
 11
229.408
 21
48.7578
 31
0.0
  0
LINE
  8
0
 62
     0
 10
229.408
 20
48.7578
 30
0.0
 11
215.408
 21
48.7578
 31
0.0
  0
LINE
  8
0
 62
     0
 10
215.408
 20
48.7578
 30
0.0
 11
215.408
 21
62.7574
 31
0.0
  0
LINE
  8
0
 62
     0
 10
196.358
 20
62.7574
 30
0.0
 11
210.358
 21
62.7574
 31
0.0
  0
LINE
  8
0
 62
     0
 10
210.358
 20
62.7574
 30
0.0
 11
210.358
 21
48.7578
 31
0.0
  0
LINE
  8
0
 62
     0
 10
210.358
 20
48.7578
 30
0.0
 11
196.358
 21
48.7578
 31
0.0
  0
LINE
  8
0
 62
     0
 10
196.358
 20
48.7578
 30
0.0
 11
196.358
 21
62.7574
 31
0.0
  0
LINE
  8
0
 62
     0
 10
177.308
 20
62.7574
 30
0.0
 11
191.308
 21
62.7574
 31
0.0
  0
LINE
  8
0
 62
     0
 10
191.308
 20
62.7574
 30
0.0
 11
191.308
 21
48.7578
 31
0.0
  0
LINE
  8
0
 62
     0
 10
191.308
 20
48.7578
 30
0.0
 11
177.308
 21
48.7578
 31
0.0
  0
LINE
  8
0
 62
     0
 10
177.308
 20
48.7578
 30
0.0
 11
177.308
 21
62.7574
 31
0.0
  0
LINE
  8
0
 62
     0
 10
158.258
 20
62.7574
 30
0.0
 11
172.258
 21
62.7574
 31
0.0
  0
LINE
  8
0
 62
     0
 10
172.258
 20
62.7574
 30
0.0
 11
172.258
 21
48.7578
 31
0.0
  0
LINE
  8
0
 62
     0
 10
172.258
 20
48.7578
 30
0.0
 11
158.258
 21
48.7578
 31
0.0
  0
LINE
  8
0
 62
     0
 10
158.258
 20
48.7578
 30
0.0
 11
158.258
 21
62.7574
 31
0.0
  0
LINE
  8
0
 62
     0
 10
139.208
 20
62.7574
 30
0.0
 11
153.208
 21
62.7574
 31
0.0
  0
LINE
  8
0
 62
     0
 10
153.208
 20
62.7574
 30
0.0
 11
153.208
 21
48.7578
 31
0.0
  0
LINE
  8
0
 62
     0
 10
153.208
 20
48.7578
 30
0.0
 11
139.208
 21
48.7578
 31
0.0
  0
LINE
  8
0
 62
     0
 10
139.208
 20
48.7578
 30
0.0
 11
139.208
 21
62.7574
 31
0.0
  0
LINE
  8
0
 62
     0
 10
120.158
 20
62.7574
 30
0.0
 11
134.158
 21
62.7574
 31
0.0
  0
LINE
  8
0
 62
     0
 10
134.158
 20
62.7574
 30
0.0
 11
134.158
 21
48.7578
 31
0.0
  0
LINE
  8
0
 62
     0
 10
134.158
 20
48.7578
 30
0.0
 11
120.158
 21
48.7578
 31
0.0
  0
LINE
  8
0
 62
     0
 10
120.158
 20
48.7578
 30
0.0
 11
120.158
 21
62.7574
 31
0.0
  0
LINE
  8
0
 62
     0
 10
101.108
 20
62.7574
 30
0.0
 11
115.108
 21
62.7574
 31
0.0
  0
LINE
  8
0
 62
     0
 10
115.108
 20
62.7574
 30
0.0
 11
115.108
 21
48.7578
 31
0.0
  0
LINE
  8
0
 62
     0
 10
115.108
 20
48.7578
 30
0.0
 11
101.108
 21
48.7578
 31
0.0
  0
LINE
  8
0
 62
     0
 10
101.108
 20
48.7578
 30
0.0
 11
101.108
 21
62.7574
 31
0.0
  0
LINE
  8
0
 62
     0
 10
82.0579
 20
62.7574
 30
0.0
 11
96.0575
 21
62.7574
 31
0.0
  0
LINE
  8
0
 62
     0
 10
96.0575
 20
62.7574
 30
0.0
 11
96.0575
 21
48.7578
 31
0.0
  0
LINE
  8
0
 62
     0
 10
96.0575
 20
48.7578
 30
0.0
 11
82.0579
 21
48.7578
 31
0.0
  0
LINE
  8
0
 62
     0
 10
82.0579
 20
48.7578
 30
0.0
 11
82.0579
 21
62.7574
 31
0.0
  0
LINE
  8
0
 62
     0
 10
63.0079
 20
62.7574
 30
0.0
 11
77.0075
 21
62.7574
 31
0.0
  0
LINE
  8
0
 62
     0
 10
77.0075
 20
62.7574
 30
0.0
 11
77.0075
 21
48.7578
 31
0.0
  0
LINE
  8
0
 62
     0
 10
77.0075
 20
48.7578
 30
0.0
 11
63.0079
 21
48.7578
 31
0.0
  0
LINE
  8
0
 62
     0
 10
63.0079
 20
48.7578
 30
0.0
 11
63.0079
 21
62.7574
 31
0.0
  0
LINE
  8
0
 62
     0
 10
43.9579
 20
62.7574
 30
0.0
 11
57.9575
 21
62.7574
 31
0.0
  0
LINE
  8
0
 62
     0
 10
57.9575
 20
62.7574
 30
0.0
 11
57.9575
 21
48.7578
 31
0.0
  0
LINE
  8
0
 62
     0
 10
57.9575
 20
48.7578
 30
0.0
 11
43.9579
 21
48.7578
 31
0.0
  0
LINE
  8
0
 62
     0
 10
43.9579
 20
48.7578
 30
0.0
 11
43.9579
 21
62.7574
 31
0.0
  0
LINE
  8
0
 62
     0
 10
17.7629
 20
62.7574
 30
0.0
 11
31.7638
 21
62.7574
 31
0.0
  0
LINE
  8
0
 62
     0
 10
31.7638
 20
62.7574
 30
0.0
 11
31.7638
 21
48.7578
 31
0.0
  0
LINE
  8
0
 62
     0
 10
31.7638
 20
48.7578
 30
0.0
 11
17.7629
 21
48.7578
 31
0.0
  0
LINE
  8
0
 62
     0
 10
17.7629
 20
48.7578
 30
0.0
 11
17.7629
 21
62.7574
 31
0.0
  0
LINE
  8
0
 62
     0
 10
3.78548
 20
66.2326
 30
0.0
 11
3.50711
 21
66.0908
 31
0.0
  0
LINE
  8
0
 62
     0
 10
3.50711
 20
66.0908
 30
0.0
 11
3.28386
 21
65.8703
 31
0.0
  0
LINE
  8
0
 62
     0
 10
3.28386
 20
65.8703
 30
0.0
 11
3.14331
 21
65.592
 31
0.0
  0
LINE
  8
0
 62
     0
 10
3.14331
 20
65.592
 30
0.0
 11
3.09507
 21
65.2819
 31
0.0
  0
LINE
  8
0
 62
     0
 10
3.09507
 20
65.2819
 30
0.0
 11
3.14331
 21
64.9732
 31
0.0
  0
LINE
  8
0
 62
     0
 10
3.14331
 20
64.9732
 30
0.0
 11
3.28386
 21
64.6949
 31
0.0
  0
LINE
  8
0
 62
     0
 10
3.28386
 20
64.6949
 30
0.0
 11
3.50711
 21
64.473
 31
0.0
  0
LINE
  8
0
 62
     0
 10
3.50711
 20
64.473
 30
0.0
 11
3.78548
 21
64.3308
 31
0.0
  0
LINE
  8
0
 62
     0
 10
3.78548
 20
64.3308
 30
0.0
 11
4.09554
 21
64.2828
 31
0.0
  0
LINE
  8
0
 62
     0
 10
4.09554
 20
64.2828
 30
0.0
 11
4.40422
 21
64.3308
 31
0.0
  0
LINE
  8
0
 62
     0
 10
4.40422
 20
64.3308
 30
0.0
 11
4.68256
 21
64.473
 31
0.0
  0
LINE
  8
0
 62
     0
 10
4.68256
 20
64.473
 30
0.0
 11
4.90442
 21
64.6949
 31
0.0
  0
LINE
  8
0
 62
     0
 10
4.90442
 20
64.6949
 30
0.0
 11
5.04638
 21
64.9732
 31
0.0
  0
LINE
  8
0
 62
     0
 10
5.04638
 20
64.9732
 30
0.0
 11
5.09598
 21
65.2819
 31
0.0
  0
LINE
  8
0
 62
     0
 10
5.09598
 20
65.2819
 30
0.0
 11
5.04638
 21
65.592
 31
0.0
  0
LINE
  8
0
 62
     0
 10
5.04638
 20
65.592
 30
0.0
 11
4.90442
 21
65.8703
 31
0.0
  0
LINE
  8
0
 62
     0
 10
4.90442
 20
65.8703
 30
0.0
 11
4.68256
 21
66.0908
 31
0.0
  0
LINE
  8
0
 62
     0
 10
4.68256
 20
66.0908
 30
0.0
 11
4.40422
 21
66.2326
 31
0.0
  0
LINE
  8
0
 62
     0
 10
4.40422
 20
66.2326
 30
0.0
 11
4.09554
 21
66.2824
 31
0.0
  0
LINE
  8
0
 62
     0
 10
4.09554
 20
66.2824
 30
0.0
 11
3.78548
 21
66.2326
 31
0.0
  0
LINE
  8
0
 62
     0
 10
316.586
 20
66.2326
 30
0.0
 11
316.308
 21
66.0908
 31
0.0
  0
LINE
  8
0
 62
     0
 10
316.308
 20
66.0908
 30
0.0
 11
316.086
 21
65.8703
 31
0.0
  0
LINE
  8
0
 62
     0
 10
316.086
 20
65.8703
 30
0.0
 11
315.944
 21
65.592
 31
0.0
  0
LINE
  8
0
 62
     0
 10
315.944
 20
65.592
 30
0.0
 11
315.896
 21
65.2819
 31
0.0
  0
LINE
  8
0
 62
     0
 10
315.896
 20
65.2819
 30
0.0
 11
315.944
 21
64.9732
 31
0.0
  0
LINE
  8
0
 62
     0
 10
315.944
 20
64.9732
 30
0.0
 11
316.086
 21
64.6949
 31
0.0
  0
LINE
  8
0
 62
     0
 10
316.086
 20
64.6949
 30
0.0
 11
316.308
 21
64.473
 31
0.0
  0
LINE
  8
0
 62
     0
 10
316.308
 20
64.473
 30
0.0
 11
316.586
 21
64.3308
 31
0.0
  0
LINE
  8
0
 62
     0
 10
316.586
 20
64.3308
 30
0.0
 11
316.896
 21
64.2828
 31
0.0
  0
LINE
  8
0
 62
     0
 10
316.896
 20
64.2828
 30
0.0
 11
317.205
 21
64.3308
 31
0.0
  0
LINE
  8
0
 62
     0
 10
317.205
 20
64.3308
 30
0.0
 11
317.483
 21
64.473
 31
0.0
  0
LINE
  8
0
 62
     0
 10
317.483
 20
64.473
 30
0.0
 11
317.705
 21
64.6949
 31
0.0
  0
LINE
  8
0
 62
     0
 10
317.705
 20
64.6949
 30
0.0
 11
317.847
 21
64.9732
 31
0.0
  0
LINE
  8
0
 62
     0
 10
317.847
 20
64.9732
 30
0.0
 11
317.897
 21
65.2819
 31
0.0
  0
LINE
  8
0
 62
     0
 10
317.897
 20
65.2819
 30
0.0
 11
317.847
 21
65.592
 31
0.0
  0
LINE
  8
0
 62
     0
 10
317.847
 20
65.592
 30
0.0
 11
317.705
 21
65.8703
 31
0.0
  0
LINE
  8
0
 62
     0
 10
317.705
 20
65.8703
 30
0.0
 11
317.483
 21
66.0908
 31
0.0
  0
LINE
  8
0
 62
     0
 10
317.483
 20
66.0908
 30
0.0
 11
317.205
 21
66.2326
 31
0.0
  0
LINE
  8
0
 62
     0
 10
317.205
 20
66.2326
 30
0.0
 11
316.896
 21
66.2824
 31
0.0
  0
LINE
  8
0
 62
     0
 10
316.896
 20
66.2824
 30
0.0
 11
316.586
 21
66.2326
 31
0.0
  0
LINE
  8
0
 62
     0
 10
296.37
 20
81.8074
 30
0.0
 11
310.37
 21
81.8074
 31
0.0
  0
LINE
  8
0
 62
     0
 10
310.37
 20
81.8074
 30
0.0
 11
310.37
 21
67.8078
 31
0.0
  0
LINE
  8
0
 62
     0
 10
310.37
 20
67.8078
 30
0.0
 11
296.37
 21
67.8078
 31
0.0
  0
LINE
  8
0
 62
     0
 10
296.37
 20
67.8078
 30
0.0
 11
296.37
 21
81.8074
 31
0.0
  0
LINE
  8
0
 62
     0
 10
272.558
 20
81.8074
 30
0.0
 11
286.558
 21
81.8074
 31
0.0
  0
LINE
  8
0
 62
     0
 10
286.558
 20
81.8074
 30
0.0
 11
286.558
 21
67.8078
 31
0.0
  0
LINE
  8
0
 62
     0
 10
286.558
 20
67.8078
 30
0.0
 11
272.558
 21
67.8078
 31
0.0
  0
LINE
  8
0
 62
     0
 10
272.558
 20
67.8078
 30
0.0
 11
272.558
 21
81.8074
 31
0.0
  0
LINE
  8
0
 62
     0
 10
248.745
 20
81.8074
 30
0.0
 11
262.745
 21
81.8074
 31
0.0
  0
LINE
  8
0
 62
     0
 10
262.745
 20
81.8074
 30
0.0
 11
262.745
 21
67.8078
 31
0.0
  0
LINE
  8
0
 62
     0
 10
262.745
 20
67.8078
 30
0.0
 11
248.745
 21
67.8078
 31
0.0
  0
LINE
  8
0
 62
     0
 10
248.745
 20
67.8078
 30
0.0
 11
248.745
 21
81.8074
 31
0.0
  0
LINE
  8
0
 62
     0
 10
229.695
 20
81.8074
 30
0.0
 11
243.695
 21
81.8074
 31
0.0
  0
LINE
  8
0
 62
     0
 10
243.695
 20
81.8074
 30
0.0
 11
243.695
 21
67.8078
 31
0.0
  0
LINE
  8
0
 62
     0
 10
243.695
 20
67.8078
 30
0.0
 11
229.695
 21
67.8078
 31
0.0
  0
LINE
  8
0
 62
     0
 10
229.695
 20
67.8078
 30
0.0
 11
229.695
 21
81.8074
 31
0.0
  0
LINE
  8
0
 62
     0
 10
210.645
 20
81.8074
 30
0.0
 11
224.645
 21
81.8074
 31
0.0
  0
LINE
  8
0
 62
     0
 10
224.645
 20
81.8074
 30
0.0
 11
224.645
 21
67.8078
 31
0.0
  0
LINE
  8
0
 62
     0
 10
224.645
 20
67.8078
 30
0.0
 11
210.645
 21
67.8078
 31
0.0
  0
LINE
  8
0
 62
     0
 10
210.645
 20
67.8078
 30
0.0
 11
210.645
 21
81.8074
 31
0.0
  0
LINE
  8
0
 62
     0
 10
191.595
 20
81.8074
 30
0.0
 11
205.595
 21
81.8074
 31
0.0
  0
LINE
  8
0
 62
     0
 10
205.595
 20
81.8074
 30
0.0
 11
205.595
 21
67.8078
 31
0.0
  0
LINE
  8
0
 62
     0
 10
205.595
 20
67.8078
 30
0.0
 11
191.595
 21
67.8078
 31
0.0
  0
LINE
  8
0
 62
     0
 10
191.595
 20
67.8078
 30
0.0
 11
191.595
 21
81.8074
 31
0.0
  0
LINE
  8
0
 62
     0
 10
172.545
 20
81.8074
 30
0.0
 11
186.545
 21
81.8074
 31
0.0
  0
LINE
  8
0
 62
     0
 10
186.545
 20
81.8074
 30
0.0
 11
186.545
 21
67.8078
 31
0.0
  0
LINE
  8
0
 62
     0
 10
186.545
 20
67.8078
 30
0.0
 11
172.545
 21
67.8078
 31
0.0
  0
LINE
  8
0
 62
     0
 10
172.545
 20
67.8078
 30
0.0
 11
172.545
 21
81.8074
 31
0.0
  0
LINE
  8
0
 62
     0
 10
153.495
 20
81.8074
 30
0.0
 11
167.495
 21
81.8074
 31
0.0
  0
LINE
  8
0
 62
     0
 10
167.495
 20
81.8074
 30
0.0
 11
167.495
 21
67.8078
 31
0.0
  0
LINE
  8
0
 62
     0
 10
167.495
 20
67.8078
 30
0.0
 11
153.495
 21
67.8078
 31
0.0
  0
LINE
  8
0
 62
     0
 10
153.495
 20
67.8078
 30
0.0
 11
153.495
 21
81.8074
 31
0.0
  0
LINE
  8
0
 62
     0
 10
134.445
 20
81.8074
 30
0.0
 11
148.445
 21
81.8074
 31
0.0
  0
LINE
  8
0
 62
     0
 10
148.445
 20
81.8074
 30
0.0
 11
148.445
 21
67.8078
 31
0.0
  0
LINE
  8
0
 62
     0
 10
148.445
 20
67.8078
 30
0.0
 11
134.445
 21
67.8078
 31
0.0
  0
LINE
  8
0
 62
     0
 10
134.445
 20
67.8078
 30
0.0
 11
134.445
 21
81.8074
 31
0.0
  0
LINE
  8
0
 62
     0
 10
115.395
 20
81.8074
 30
0.0
 11
129.395
 21
81.8074
 31
0.0
  0
LINE
  8
0
 62
     0
 10
129.395
 20
81.8074
 30
0.0
 11
129.395
 21
67.8078
 31
0.0
  0
LINE
  8
0
 62
     0
 10
129.395
 20
67.8078
 30
0.0
 11
115.395
 21
67.8078
 31
0.0
  0
LINE
  8
0
 62
     0
 10
115.395
 20
67.8078
 30
0.0
 11
115.395
 21
81.8074
 31
0.0
  0
LINE
  8
0
 62
     0
 10
96.3454
 20
81.8074
 30
0.0
 11
110.345
 21
81.8074
 31
0.0
  0
LINE
  8
0
 62
     0
 10
110.345
 20
81.8074
 30
0.0
 11
110.345
 21
67.8078
 31
0.0
  0
LINE
  8
0
 62
     0
 10
110.345
 20
67.8078
 30
0.0
 11
96.3454
 21
67.8078
 31
0.0
  0
LINE
  8
0
 62
     0
 10
96.3454
 20
67.8078
 30
0.0
 11
96.3454
 21
81.8074
 31
0.0
  0
LINE
  8
0
 62
     0
 10
77.2954
 20
81.8074
 30
0.0
 11
91.295
 21
81.8074
 31
0.0
  0
LINE
  8
0
 62
     0
 10
91.295
 20
81.8074
 30
0.0
 11
91.295
 21
67.8078
 31
0.0
  0
LINE
  8
0
 62
     0
 10
91.295
 20
67.8078
 30
0.0
 11
77.2954
 21
67.8078
 31
0.0
  0
LINE
  8
0
 62
     0
 10
77.2954
 20
67.8078
 30
0.0
 11
77.2954
 21
81.8074
 31
0.0
  0
LINE
  8
0
 62
     0
 10
58.2454
 20
81.8074
 30
0.0
 11
72.245
 21
81.8074
 31
0.0
  0
LINE
  8
0
 62
     0
 10
72.245
 20
81.8074
 30
0.0
 11
72.245
 21
67.8078
 31
0.0
  0
LINE
  8
0
 62
     0
 10
72.245
 20
67.8078
 30
0.0
 11
58.2454
 21
67.8078
 31
0.0
  0
LINE
  8
0
 62
     0
 10
58.2454
 20
67.8078
 30
0.0
 11
58.2454
 21
81.8074
 31
0.0
  0
LINE
  8
0
 62
     0
 10
39.1954
 20
81.8074
 30
0.0
 11
53.195
 21
81.8074
 31
0.0
  0
LINE
  8
0
 62
     0
 10
53.195
 20
81.8074
 30
0.0
 11
53.195
 21
67.8078
 31
0.0
  0
LINE
  8
0
 62
     0
 10
53.195
 20
67.8078
 30
0.0
 11
39.1954
 21
67.8078
 31
0.0
  0
LINE
  8
0
 62
     0
 10
39.1954
 20
67.8078
 30
0.0
 11
39.1954
 21
81.8074
 31
0.0
  0
LINE
  8
0
 62
     0
 10
15.3831
 20
81.8074
 30
0.0
 11
29.3825
 21
81.8074
 31
0.0
  0
LINE
  8
0
 62
     0
 10
29.3825
 20
81.8074
 30
0.0
 11
29.3825
 21
67.8078
 31
0.0
  0
LINE
  8
0
 62
     0
 10
29.3825
 20
67.8078
 30
0.0
 11
15.3831
 21
67.8078
 31
0.0
  0
LINE
  8
0
 62
     0
 10
15.3831
 20
67.8078
 30
0.0
 11
15.3831
 21
81.8074
 31
0.0
  0
LINE
  8
0
 62
     0
 10
267.795
 20
100.857
 30
0.0
 11
267.795
 21
96.1566
 31
0.0
  0
LINE
  8
0
 62
     0
 10
267.795
 20
96.1566
 30
0.0
 11
266.27
 21
96.1566
 31
0.0
  0
LINE
  8
0
 62
     0
 10
266.27
 20
96.1566
 30
0.0
 11
266.27
 21
99.387
 31
0.0
  0
LINE
  8
0
 62
     0
 10
266.27
 20
99.387
 30
0.0
 11
264.546
 21
99.387
 31
0.0
  0
LINE
  8
0
 62
     0
 10
264.546
 20
99.387
 30
0.0
 11
264.546
 21
100.307
 31
0.0
  0
LINE
  8
0
 62
     0
 10
264.546
 20
100.307
 30
0.0
 11
261.246
 21
100.307
 31
0.0
  0
LINE
  8
0
 62
     0
 10
261.246
 20
100.307
 30
0.0
 11
261.246
 21
99.387
 31
0.0
  0
LINE
  8
0
 62
     0
 10
261.246
 20
99.387
 30
0.0
 11
259.52
 21
99.387
 31
0.0
  0
LINE
  8
0
 62
     0
 10
259.52
 20
99.387
 30
0.0
 11
259.52
 21
96.1566
 31
0.0
  0
LINE
  8
0
 62
     0
 10
259.52
 20
96.1566
 30
0.0
 11
258.695
 21
96.1566
 31
0.0
  0
LINE
  8
0
 62
     0
 10
258.695
 20
96.1566
 30
0.0
 11
258.695
 21
93.3581
 31
0.0
  0
LINE
  8
0
 62
     0
 10
258.695
 20
93.3581
 30
0.0
 11
259.52
 21
93.3581
 31
0.0
  0
LINE
  8
0
 62
     0
 10
259.52
 20
93.3581
 30
0.0
 11
259.52
 21
87.0878
 31
0.0
  0
LINE
  8
0
 62
     0
 10
259.52
 20
87.0878
 30
0.0
 11
261.246
 21
87.0878
 31
0.0
  0
LINE
  8
0
 62
     0
 10
261.246
 20
87.0878
 30
0.0
 11
261.246
 21
86.1067
 31
0.0
  0
LINE
  8
0
 62
     0
 10
261.246
 20
86.1067
 30
0.0
 11
264.546
 21
86.1067
 31
0.0
  0
LINE
  8
0
 62
     0
 10
264.546
 20
86.1067
 30
0.0
 11
264.546
 21
87.0878
 31
0.0
  0
LINE
  8
0
 62
     0
 10
264.546
 20
87.0878
 30
0.0
 11
266.27
 21
87.0878
 31
0.0
  0
LINE
  8
0
 62
     0
 10
266.27
 20
87.0878
 30
0.0
 11
266.27
 21
91.5568
 31
0.0
  0
LINE
  8
0
 62
     0
 10
266.27
 20
91.5568
 30
0.0
 11
267.795
 21
91.5568
 31
0.0
  0
LINE
  8
0
 62
     0
 10
267.795
 20
91.5568
 30
0.0
 11
267.795
 21
86.8578
 31
0.0
  0
LINE
  8
0
 62
     0
 10
267.795
 20
86.8578
 30
0.0
 11
281.795
 21
86.8578
 31
0.0
  0
LINE
  8
0
 62
     0
 10
281.795
 20
86.8578
 30
0.0
 11
281.795
 21
91.5568
 31
0.0
  0
LINE
  8
0
 62
     0
 10
281.795
 20
91.5568
 30
0.0
 11
283.32
 21
91.5568
 31
0.0
  0
LINE
  8
0
 62
     0
 10
283.32
 20
91.5568
 30
0.0
 11
283.32
 21
87.0878
 31
0.0
  0
LINE
  8
0
 62
     0
 10
283.32
 20
87.0878
 30
0.0
 11
285.046
 21
87.0878
 31
0.0
  0
LINE
  8
0
 62
     0
 10
285.046
 20
87.0878
 30
0.0
 11
285.046
 21
86.1067
 31
0.0
  0
LINE
  8
0
 62
     0
 10
285.046
 20
86.1067
 30
0.0
 11
288.345
 21
86.1067
 31
0.0
  0
LINE
  8
0
 62
     0
 10
288.345
 20
86.1067
 30
0.0
 11
288.345
 21
87.0878
 31
0.0
  0
LINE
  8
0
 62
     0
 10
288.345
 20
87.0878
 30
0.0
 11
290.07
 21
87.0878
 31
0.0
  0
LINE
  8
0
 62
     0
 10
290.07
 20
87.0878
 30
0.0
 11
290.07
 21
93.3581
 31
0.0
  0
LINE
  8
0
 62
     0
 10
290.07
 20
93.3581
 30
0.0
 11
290.896
 21
93.3581
 31
0.0
  0
LINE
  8
0
 62
     0
 10
290.896
 20
93.3581
 30
0.0
 11
290.896
 21
96.1566
 31
0.0
  0
LINE
  8
0
 62
     0
 10
290.896
 20
96.1566
 30
0.0
 11
290.07
 21
96.1566
 31
0.0
  0
LINE
  8
0
 62
     0
 10
290.07
 20
96.1566
 30
0.0
 11
290.07
 21
99.387
 31
0.0
  0
LINE
  8
0
 62
     0
 10
290.07
 20
99.387
 30
0.0
 11
288.345
 21
99.387
 31
0.0
  0
LINE
  8
0
 62
     0
 10
288.345
 20
99.387
 30
0.0
 11
288.345
 21
100.307
 31
0.0
  0
LINE
  8
0
 62
     0
 10
288.345
 20
100.307
 30
0.0
 11
285.046
 21
100.307
 31
0.0
  0
LINE
  8
0
 62
     0
 10
285.046
 20
100.307
 30
0.0
 11
285.046
 21
99.387
 31
0.0
  0
LINE
  8
0
 62
     0
 10
285.046
 20
99.387
 30
0.0
 11
283.32
 21
99.387
 31
0.0
  0
LINE
  8
0
 62
     0
 10
283.32
 20
99.387
 30
0.0
 11
283.32
 21
96.1566
 31
0.0
  0
LINE
  8
0
 62
     0
 10
283.32
 20
96.1566
 30
0.0
 11
281.795
 21
96.1566
 31
0.0
  0
LINE
  8
0
 62
     0
 10
281.795
 20
96.1566
 30
0.0
 11
281.795
 21
100.857
 31
0.0
  0
LINE
  8
0
 62
     0
 10
281.795
 20
100.857
 30
0.0
 11
267.795
 21
100.857
 31
0.0
  0
LINE
  8
0
 62
     0
 10
296.37
 20
100.857
 30
0.0
 11
310.37
 21
100.857
 31
0.0
  0
LINE
  8
0
 62
     0
 10
310.37
 20
100.857
 30
0.0
 11
310.37
 21
86.8578
 31
0.0
  0
LINE
  8
0
 62
     0
 10
310.37
 20
86.8578
 30
0.0
 11
296.37
 21
86.8578
 31
0.0
  0
LINE
  8
0
 62
     0
 10
296.37
 20
86.8578
 30
0.0
 11
296.37
 21
100.857
 31
0.0
  0
LINE
  8
0
 62
     0
 10
239.22
 20
100.857
 30
0.0
 11
253.22
 21
100.857
 31
0.0
  0
LINE
  8
0
 62
     0
 10
253.22
 20
100.857
 30
0.0
 11
253.22
 21
86.8578
 31
0.0
  0
LINE
  8
0
 62
     0
 10
253.22
 20
86.8578
 30
0.0
 11
239.22
 21
86.8578
 31
0.0
  0
LINE
  8
0
 62
     0
 10
239.22
 20
86.8578
 30
0.0
 11
239.22
 21
100.857
 31
0.0
  0
LINE
  8
0
 62
     0
 10
220.17
 20
100.857
 30
0.0
 11
234.17
 21
100.857
 31
0.0
  0
LINE
  8
0
 62
     0
 10
234.17
 20
100.857
 30
0.0
 11
234.17
 21
86.8578
 31
0.0
  0
LINE
  8
0
 62
     0
 10
234.17
 20
86.8578
 30
0.0
 11
220.17
 21
86.8578
 31
0.0
  0
LINE
  8
0
 62
     0
 10
220.17
 20
86.8578
 30
0.0
 11
220.17
 21
100.857
 31
0.0
  0
LINE
  8
0
 62
     0
 10
201.12
 20
100.857
 30
0.0
 11
215.12
 21
100.857
 31
0.0
  0
LINE
  8
0
 62
     0
 10
215.12
 20
100.857
 30
0.0
 11
215.12
 21
86.8578
 31
0.0
  0
LINE
  8
0
 62
     0
 10
215.12
 20
86.8578
 30
0.0
 11
201.12
 21
86.8578
 31
0.0
  0
LINE
  8
0
 62
     0
 10
201.12
 20
86.8578
 30
0.0
 11
201.12
 21
100.857
 31
0.0
  0
LINE
  8
0
 62
     0
 10
182.07
 20
100.857
 30
0.0
 11
196.07
 21
100.857
 31
0.0
  0
LINE
  8
0
 62
     0
 10
196.07
 20
100.857
 30
0.0
 11
196.07
 21
86.8578
 31
0.0
  0
LINE
  8
0
 62
     0
 10
196.07
 20
86.8578
 30
0.0
 11
182.07
 21
86.8578
 31
0.0
  0
LINE
  8
0
 62
     0
 10
182.07
 20
86.8578
 30
0.0
 11
182.07
 21
100.857
 31
0.0
  0
LINE
  8
0
 62
     0
 10
163.02
 20
100.857
 30
0.0
 11
177.02
 21
100.857
 31
0.0
  0
LINE
  8
0
 62
     0
 10
177.02
 20
100.857
 30
0.0
 11
177.02
 21
86.8578
 31
0.0
  0
LINE
  8
0
 62
     0
 10
177.02
 20
86.8578
 30
0.0
 11
163.02
 21
86.8578
 31
0.0
  0
LINE
  8
0
 62
     0
 10
163.02
 20
86.8578
 30
0.0
 11
163.02
 21
100.857
 31
0.0
  0
LINE
  8
0
 62
     0
 10
143.97
 20
100.857
 30
0.0
 11
157.97
 21
100.857
 31
0.0
  0
LINE
  8
0
 62
     0
 10
157.97
 20
100.857
 30
0.0
 11
157.97
 21
86.8578
 31
0.0
  0
LINE
  8
0
 62
     0
 10
157.97
 20
86.8578
 30
0.0
 11
143.97
 21
86.8578
 31
0.0
  0
LINE
  8
0
 62
     0
 10
143.97
 20
86.8578
 30
0.0
 11
143.97
 21
100.857
 31
0.0
  0
LINE
  8
0
 62
     0
 10
124.919
 20
100.857
 30
0.0
 11
138.92
 21
100.857
 31
0.0
  0
LINE
  8
0
 62
     0
 10
138.92
 20
100.857
 30
0.0
 11
138.92
 21
86.8578
 31
0.0
  0
LINE
  8
0
 62
     0
 10
138.92
 20
86.8578
 30
0.0
 11
124.919
 21
86.8578
 31
0.0
  0
LINE
  8
0
 62
     0
 10
124.919
 20
86.8578
 30
0.0
 11
124.919
 21
100.857
 31
0.0
  0
LINE
  8
0
 62
     0
 10
105.869
 20
100.857
 30
0.0
 11
119.87
 21
100.857
 31
0.0
  0
LINE
  8
0
 62
     0
 10
119.87
 20
100.857
 30
0.0
 11
119.87
 21
86.8578
 31
0.0
  0
LINE
  8
0
 62
     0
 10
119.87
 20
86.8578
 30
0.0
 11
105.869
 21
86.8578
 31
0.0
  0
LINE
  8
0
 62
     0
 10
105.869
 20
86.8578
 30
0.0
 11
105.869
 21
100.857
 31
0.0
  0
LINE
  8
0
 62
     0
 10
86.8204
 20
100.857
 30
0.0
 11
100.82
 21
100.857
 31
0.0
  0
LINE
  8
0
 62
     0
 10
100.82
 20
100.857
 30
0.0
 11
100.82
 21
86.8578
 31
0.0
  0
LINE
  8
0
 62
     0
 10
100.82
 20
86.8578
 30
0.0
 11
86.8204
 21
86.8578
 31
0.0
  0
LINE
  8
0
 62
     0
 10
86.8204
 20
86.8578
 30
0.0
 11
86.8204
 21
100.857
 31
0.0
  0
LINE
  8
0
 62
     0
 10
67.7704
 20
100.857
 30
0.0
 11
81.77
 21
100.857
 31
0.0
  0
LINE
  8
0
 62
     0
 10
81.77
 20
100.857
 30
0.0
 11
81.77
 21
86.8578
 31
0.0
  0
LINE
  8
0
 62
     0
 10
81.77
 20
86.8578
 30
0.0
 11
67.7704
 21
86.8578
 31
0.0
  0
LINE
  8
0
 62
     0
 10
67.7704
 20
86.8578
 30
0.0
 11
67.7704
 21
100.857
 31
0.0
  0
LINE
  8
0
 62
     0
 10
48.7204
 20
100.857
 30
0.0
 11
62.72
 21
100.857
 31
0.0
  0
LINE
  8
0
 62
     0
 10
62.72
 20
100.857
 30
0.0
 11
62.72
 21
86.8578
 31
0.0
  0
LINE
  8
0
 62
     0
 10
62.72
 20
86.8578
 30
0.0
 11
48.7204
 21
86.8578
 31
0.0
  0
LINE
  8
0
 62
     0
 10
48.7204
 20
86.8578
 30
0.0
 11
48.7204
 21
100.857
 31
0.0
  0
LINE
  8
0
 62
     0
 10
29.6706
 20
100.857
 30
0.0
 11
43.67
 21
100.857
 31
0.0
  0
LINE
  8
0
 62
     0
 10
43.67
 20
100.857
 30
0.0
 11
43.67
 21
86.8578
 31
0.0
  0
LINE
  8
0
 62
     0
 10
43.67
 20
86.8578
 30
0.0
 11
29.6706
 21
86.8578
 31
0.0
  0
LINE
  8
0
 62
     0
 10
29.6706
 20
86.8578
 30
0.0
 11
29.6706
 21
100.857
 31
0.0
  0
LINE
  8
0
 62
     0
 10
10.6192
 20
100.857
 30
0.0
 11
24.62
 21
100.857
 31
0.0
  0
LINE
  8
0
 62
     0
 10
24.62
 20
100.857
 30
0.0
 11
24.62
 21
86.8578
 31
0.0
  0
LINE
  8
0
 62
     0
 10
24.62
 20
86.8578
 30
0.0
 11
10.6192
 21
86.8578
 31
0.0
  0
LINE
  8
0
 62
     0
 10
10.6192
 20
86.8578
 30
0.0
 11
10.6192
 21
100.857
 31
0.0
  0
LINE
  8
0
 62
     0
 10
296.37
 20
119.908
 30
0.0
 11
310.37
 21
119.908
 31
0.0
  0
LINE
  8
0
 62
     0
 10
310.37
 20
119.908
 30
0.0
 11
310.37
 21
105.908
 31
0.0
  0
LINE
  8
0
 62
     0
 10
310.37
 20
105.908
 30
0.0
 11
296.37
 21
105.908
 31
0.0
  0
LINE
  8
0
 62
     0
 10
296.37
 20
105.908
 30
0.0
 11
296.37
 21
119.908
 31
0.0
  0
LINE
  8
0
 62
     0
 10
277.32
 20
119.908
 30
0.0
 11
291.32
 21
119.908
 31
0.0
  0
LINE
  8
0
 62
     0
 10
291.32
 20
119.908
 30
0.0
 11
291.32
 21
105.908
 31
0.0
  0
LINE
  8
0
 62
     0
 10
291.32
 20
105.908
 30
0.0
 11
277.32
 21
105.908
 31
0.0
  0
LINE
  8
0
 62
     0
 10
277.32
 20
105.908
 30
0.0
 11
277.32
 21
119.908
 31
0.0
  0
LINE
  8
0
 62
     0
 10
258.27
 20
119.908
 30
0.0
 11
272.27
 21
119.908
 31
0.0
  0
LINE
  8
0
 62
     0
 10
272.27
 20
119.908
 30
0.0
 11
272.27
 21
105.908
 31
0.0
  0
LINE
  8
0
 62
     0
 10
272.27
 20
105.908
 30
0.0
 11
258.27
 21
105.908
 31
0.0
  0
LINE
  8
0
 62
     0
 10
258.27
 20
105.908
 30
0.0
 11
258.27
 21
119.908
 31
0.0
  0
LINE
  8
0
 62
     0
 10
239.22
 20
119.908
 30
0.0
 11
253.22
 21
119.908
 31
0.0
  0
LINE
  8
0
 62
     0
 10
253.22
 20
119.908
 30
0.0
 11
253.22
 21
105.908
 31
0.0
  0
LINE
  8
0
 62
     0
 10
253.22
 20
105.908
 30
0.0
 11
239.22
 21
105.908
 31
0.0
  0
LINE
  8
0
 62
     0
 10
239.22
 20
105.908
 30
0.0
 11
239.22
 21
119.908
 31
0.0
  0
LINE
  8
0
 62
     0
 10
220.17
 20
119.908
 30
0.0
 11
234.17
 21
119.908
 31
0.0
  0
LINE
  8
0
 62
     0
 10
234.17
 20
119.908
 30
0.0
 11
234.17
 21
105.908
 31
0.0
  0
LINE
  8
0
 62
     0
 10
234.17
 20
105.908
 30
0.0
 11
220.17
 21
105.908
 31
0.0
  0
LINE
  8
0
 62
     0
 10
220.17
 20
105.908
 30
0.0
 11
220.17
 21
119.908
 31
0.0
  0
LINE
  8
0
 62
     0
 10
201.12
 20
119.908
 30
0.0
 11
215.12
 21
119.908
 31
0.0
  0
LINE
  8
0
 62
     0
 10
215.12
 20
119.908
 30
0.0
 11
215.12
 21
105.908
 31
0.0
  0
LINE
  8
0
 62
     0
 10
215.12
 20
105.908
 30
0.0
 11
201.12
 21
105.908
 31
0.0
  0
LINE
  8
0
 62
     0
 10
201.12
 20
105.908
 30
0.0
 11
201.12
 21
119.908
 31
0.0
  0
LINE
  8
0
 62
     0
 10
182.07
 20
119.908
 30
0.0
 11
196.07
 21
119.908
 31
0.0
  0
LINE
  8
0
 62
     0
 10
196.07
 20
119.908
 30
0.0
 11
196.07
 21
105.908
 31
0.0
  0
LINE
  8
0
 62
     0
 10
196.07
 20
105.908
 30
0.0
 11
182.07
 21
105.908
 31
0.0
  0
LINE
  8
0
 62
     0
 10
182.07
 20
105.908
 30
0.0
 11
182.07
 21
119.908
 31
0.0
  0
LINE
  8
0
 62
     0
 10
163.02
 20
119.908
 30
0.0
 11
177.02
 21
119.908
 31
0.0
  0
LINE
  8
0
 62
     0
 10
177.02
 20
119.908
 30
0.0
 11
177.02
 21
105.908
 31
0.0
  0
LINE
  8
0
 62
     0
 10
177.02
 20
105.908
 30
0.0
 11
163.02
 21
105.908
 31
0.0
  0
LINE
  8
0
 62
     0
 10
163.02
 20
105.908
 30
0.0
 11
163.02
 21
119.908
 31
0.0
  0
LINE
  8
0
 62
     0
 10
143.97
 20
119.908
 30
0.0
 11
157.97
 21
119.908
 31
0.0
  0
LINE
  8
0
 62
     0
 10
157.97
 20
119.908
 30
0.0
 11
157.97
 21
105.908
 31
0.0
  0
LINE
  8
0
 62
     0
 10
157.97
 20
105.908
 30
0.0
 11
143.97
 21
105.908
 31
0.0
  0
LINE
  8
0
 62
     0
 10
143.97
 20
105.908
 30
0.0
 11
143.97
 21
119.908
 31
0.0
  0
LINE
  8
0
 62
     0
 10
124.919
 20
119.908
 30
0.0
 11
138.92
 21
119.908
 31
0.0
  0
LINE
  8
0
 62
     0
 10
138.92
 20
119.908
 30
0.0
 11
138.92
 21
105.908
 31
0.0
  0
LINE
  8
0
 62
     0
 10
138.92
 20
105.908
 30
0.0
 11
124.919
 21
105.908
 31
0.0
  0
LINE
  8
0
 62
     0
 10
124.919
 20
105.908
 30
0.0
 11
124.919
 21
119.908
 31
0.0
  0
LINE
  8
0
 62
     0
 10
105.869
 20
119.908
 30
0.0
 11
119.87
 21
119.908
 31
0.0
  0
LINE
  8
0
 62
     0
 10
119.87
 20
119.908
 30
0.0
 11
119.87
 21
105.908
 31
0.0
  0
LINE
  8
0
 62
     0
 10
119.87
 20
105.908
 30
0.0
 11
105.869
 21
105.908
 31
0.0
  0
LINE
  8
0
 62
     0
 10
105.869
 20
105.908
 30
0.0
 11
105.869
 21
119.908
 31
0.0
  0
LINE
  8
0
 62
     0
 10
86.8204
 20
119.908
 30
0.0
 11
100.82
 21
119.908
 31
0.0
  0
LINE
  8
0
 62
     0
 10
100.82
 20
119.908
 30
0.0
 11
100.82
 21
105.908
 31
0.0
  0
LINE
  8
0
 62
     0
 10
100.82
 20
105.908
 30
0.0
 11
86.8204
 21
105.908
 31
0.0
  0
LINE
  8
0
 62
     0
 10
86.8204
 20
105.908
 30
0.0
 11
86.8204
 21
119.908
 31
0.0
  0
LINE
  8
0
 62
     0
 10
67.7704
 20
119.908
 30
0.0
 11
81.77
 21
119.908
 31
0.0
  0
LINE
  8
0
 62
     0
 10
81.77
 20
119.908
 30
0.0
 11
81.77
 21
105.908
 31
0.0
  0
LINE
  8
0
 62
     0
 10
81.77
 20
105.908
 30
0.0
 11
67.7704
 21
105.908
 31
0.0
  0
LINE
  8
0
 62
     0
 10
67.7704
 20
105.908
 30
0.0
 11
67.7704
 21
119.908
 31
0.0
  0
LINE
  8
0
 62
     0
 10
48.7204
 20
119.908
 30
0.0
 11
62.72
 21
119.908
 31
0.0
  0
LINE
  8
0
 62
     0
 10
62.72
 20
119.908
 30
0.0
 11
62.72
 21
105.908
 31
0.0
  0
LINE
  8
0
 62
     0
 10
62.72
 20
105.908
 30
0.0
 11
48.7204
 21
105.908
 31
0.0
  0
LINE
  8
0
 62
     0
 10
48.7204
 20
105.908
 30
0.0
 11
48.7204
 21
119.908
 31
0.0
  0
LINE
  8
0
 62
     0
 10
29.6706
 20
119.908
 30
0.0
 11
43.67
 21
119.908
 31
0.0
  0
LINE
  8
0
 62
     0
 10
43.67
 20
119.908
 30
0.0
 11
43.67
 21
105.908
 31
0.0
  0
LINE
  8
0
 62
     0
 10
43.67
 20
105.908
 30
0.0
 11
29.6706
 21
105.908
 31
0.0
  0
LINE
  8
0
 62
     0
 10
29.6706
 20
105.908
 30
0.0
 11
29.6706
 21
119.908
 31
0.0
  0
LINE
  8
0
 62
     0
 10
10.6192
 20
119.908
 30
0.0
 11
24.62
 21
119.908
 31
0.0
  0
LINE
  8
0
 62
     0
 10
24.62
 20
119.908
 30
0.0
 11
24.62
 21
105.908
 31
0.0
  0
LINE
  8
0
 62
     0
 10
24.62
 20
105.908
 30
0.0
 11
10.6192
 21
105.908
 31
0.0
  0
LINE
  8
0
 62
     0
 10
10.6192
 20
105.908
 30
0.0
 11
10.6192
 21
119.908
 31
0.0
  0
LINE
  8
0
 62
     0
 10
3.78548
 20
127.385
 30
0.0
 11
3.50711
 21
127.244
 31
0.0
  0
LINE
  8
0
 62
     0
 10
3.50711
 20
127.244
 30
0.0
 11
3.28386
 21
127.021
 31
0.0
  0
LINE
  8
0
 62
     0
 10
3.28386
 20
127.021
 30
0.0
 11
3.14331
 21
126.742
 31
0.0
  0
LINE
  8
0
 62
     0
 10
3.14331
 20
126.742
 30
0.0
 11
3.09507
 21
126.432
 31
0.0
  0
LINE
  8
0
 62
     0
 10
3.09507
 20
126.432
 30
0.0
 11
3.14331
 21
126.124
 31
0.0
  0
LINE
  8
0
 62
     0
 10
3.14331
 20
126.124
 30
0.0
 11
3.28386
 21
125.845
 31
0.0
  0
LINE
  8
0
 62
     0
 10
3.28386
 20
125.845
 30
0.0
 11
3.50711
 21
125.623
 31
0.0
  0
LINE
  8
0
 62
     0
 10
3.50711
 20
125.623
 30
0.0
 11
3.78548
 21
125.481
 31
0.0
  0
LINE
  8
0
 62
     0
 10
3.78548
 20
125.481
 30
0.0
 11
4.09554
 21
125.432
 31
0.0
  0
LINE
  8
0
 62
     0
 10
4.09554
 20
125.432
 30
0.0
 11
4.40422
 21
125.481
 31
0.0
  0
LINE
  8
0
 62
     0
 10
4.40422
 20
125.481
 30
0.0
 11
4.68256
 21
125.623
 31
0.0
  0
LINE
  8
0
 62
     0
 10
4.68256
 20
125.623
 30
0.0
 11
4.90442
 21
125.845
 31
0.0
  0
LINE
  8
0
 62
     0
 10
4.90442
 20
125.845
 30
0.0
 11
5.04638
 21
126.124
 31
0.0
  0
LINE
  8
0
 62
     0
 10
5.04638
 20
126.124
 30
0.0
 11
5.09598
 21
126.432
 31
0.0
  0
LINE
  8
0
 62
     0
 10
5.09598
 20
126.432
 30
0.0
 11
5.04638
 21
126.742
 31
0.0
  0
LINE
  8
0
 62
     0
 10
5.04638
 20
126.742
 30
0.0
 11
4.90442
 21
127.021
 31
0.0
  0
LINE
  8
0
 62
     0
 10
4.90442
 20
127.021
 30
0.0
 11
4.68256
 21
127.244
 31
0.0
  0
LINE
  8
0
 62
     0
 10
4.68256
 20
127.244
 30
0.0
 11
4.40422
 21
127.385
 31
0.0
  0
LINE
  8
0
 62
     0
 10
4.40422
 20
127.385
 30
0.0
 11
4.09554
 21
127.433
 31
0.0
  0
LINE
  8
0
 62
     0
 10
4.09554
 20
127.433
 30
0.0
 11
3.78548
 21
127.385
 31
0.0
  0
LINE
  8
0
 62
     0
 10
316.586
 20
127.385
 30
0.0
 11
316.308
 21
127.244
 31
0.0
  0
LINE
  8
0
 62
     0
 10
316.308
 20
127.244
 30
0.0
 11
316.086
 21
127.021
 31
0.0
  0
LINE
  8
0
 62
     0
 10
316.086
 20
127.021
 30
0.0
 11
315.944
 21
126.742
 31
0.0
  0
LINE
  8
0
 62
     0
 10
315.944
 20
126.742
 30
0.0
 11
315.896
 21
126.432
 31
0.0
  0
LINE
  8
0
 62
     0
 10
315.896
 20
126.432
 30
0.0
 11
315.944
 21
126.124
 31
0.0
  0
LINE
  8
0
 62
     0
 10
315.944
 20
126.124
 30
0.0
 11
316.086
 21
125.845
 31
0.0
  0
LINE
  8
0
 62
     0
 10
316.086
 20
125.845
 30
0.0
 11
316.308
 21
125.623
 31
0.0
  0
LINE
  8
0
 62
     0
 10
316.308
 20
125.623
 30
0.0
 11
316.586
 21
125.481
 31
0.0
  0
LINE
  8
0
 62
     0
 10
316.586
 20
125.481
 30
0.0
 11
316.896
 21
125.432
 31
0.0
  0
LINE
  8
0
 62
     0
 10
316.896
 20
125.432
 30
0.0
 11
317.205
 21
125.481
 31
0.0
  0
LINE
  8
0
 62
     0
 10
317.205
 20
125.481
 30
0.0
 11
317.483
 21
125.623
 31
0.0
  0
LINE
  8
0
 62
     0
 10
317.483
 20
125.623
 30
0.0
 11
317.705
 21
125.845
 31
0.0
  0
LINE
  8
0
 62
     0
 10
317.705
 20
125.845
 30
0.0
 11
317.847
 21
126.124
 31
0.0
  0
LINE
  8
0
 62
     0
 10
317.847
 20
126.124
 30
0.0
 11
317.897
 21
126.432
 31
0.0
  0
LINE
  8
0
 62
     0
 10
317.897
 20
126.432
 30
0.0
 11
317.847
 21
126.742
 31
0.0
  0
LINE
  8
0
 62
     0
 10
317.847
 20
126.742
 30
0.0
 11
317.705
 21
127.021
 31
0.0
  0
LINE
  8
0
 62
     0
 10
317.705
 20
127.021
 30
0.0
 11
317.483
 21
127.244
 31
0.0
  0
LINE
  8
0
 62
     0
 10
317.483
 20
127.244
 30
0.0
 11
317.205
 21
127.385
 31
0.0
  0
LINE
  8
0
 62
     0
 10
317.205
 20
127.385
 30
0.0
 11
316.896
 21
127.433
 31
0.0
  0
LINE
  8
0
 62
     0
 10
316.896
 20
127.433
 30
0.0
 11
316.586
 21
127.385
 31
0.0
  0
LINE
  8
0
 62
     0
 10
254.025
 20
127.385
 30
0.0
 11
253.748
 21
127.244
 31
0.0
  0
LINE
  8
0
 62
     0
 10
253.748
 20
127.244
 30
0.0
 11
253.526
 21
127.021
 31
0.0
  0
LINE
  8
0
 62
     0
 10
253.526
 20
127.021
 30
0.0
 11
253.384
 21
126.742
 31
0.0
  0
LINE
  8
0
 62
     0
 10
253.384
 20
126.742
 30
0.0
 11
253.336
 21
126.432
 31
0.0
  0
LINE
  8
0
 62
     0
 10
253.336
 20
126.432
 30
0.0
 11
253.384
 21
126.124
 31
0.0
  0
LINE
  8
0
 62
     0
 10
253.384
 20
126.124
 30
0.0
 11
253.526
 21
125.845
 31
0.0
  0
LINE
  8
0
 62
     0
 10
253.526
 20
125.845
 30
0.0
 11
253.748
 21
125.623
 31
0.0
  0
LINE
  8
0
 62
     0
 10
253.748
 20
125.623
 30
0.0
 11
254.025
 21
125.481
 31
0.0
  0
LINE
  8
0
 62
     0
 10
254.025
 20
125.481
 30
0.0
 11
254.335
 21
125.432
 31
0.0
  0
LINE
  8
0
 62
     0
 10
254.335
 20
125.432
 30
0.0
 11
254.643
 21
125.481
 31
0.0
  0
LINE
  8
0
 62
     0
 10
254.643
 20
125.481
 30
0.0
 11
254.922
 21
125.623
 31
0.0
  0
LINE
  8
0
 62
     0
 10
254.922
 20
125.623
 30
0.0
 11
255.144
 21
125.845
 31
0.0
  0
LINE
  8
0
 62
     0
 10
255.144
 20
125.845
 30
0.0
 11
255.286
 21
126.124
 31
0.0
  0
LINE
  8
0
 62
     0
 10
255.286
 20
126.124
 30
0.0
 11
255.335
 21
126.432
 31
0.0
  0
LINE
  8
0
 62
     0
 10
255.335
 20
126.432
 30
0.0
 11
255.286
 21
126.742
 31
0.0
  0
LINE
  8
0
 62
     0
 10
255.286
 20
126.742
 30
0.0
 11
255.144
 21
127.021
 31
0.0
  0
LINE
  8
0
 62
     0
 10
255.144
 20
127.021
 30
0.0
 11
254.922
 21
127.244
 31
0.0
  0
LINE
  8
0
 62
     0
 10
254.922
 20
127.244
 30
0.0
 11
254.643
 21
127.385
 31
0.0
  0
LINE
  8
0
 62
     0
 10
254.643
 20
127.385
 30
0.0
 11
254.335
 21
127.433
 31
0.0
  0
LINE
  8
0
 62
     0
 10
254.335
 20
127.433
 30
0.0
 11
254.025
 21
127.385
 31
0.0
  0
LINE
  8
0
 62
     0
 10
191.466
 20
127.385
 30
0.0
 11
191.188
 21
127.244
 31
0.0
  0
LINE
  8
0
 62
     0
 10
191.188
 20
127.244
 30
0.0
 11
190.967
 21
127.021
 31
0.0
  0
LINE
  8
0
 62
     0
 10
190.967
 20
127.021
 30
0.0
 11
190.824
 21
126.742
 31
0.0
  0
LINE
  8
0
 62
     0
 10
190.824
 20
126.742
 30
0.0
 11
190.776
 21
126.432
 31
0.0
  0
LINE
  8
0
 62
     0
 10
190.776
 20
126.432
 30
0.0
 11
190.824
 21
126.124
 31
0.0
  0
LINE
  8
0
 62
     0
 10
190.824
 20
126.124
 30
0.0
 11
190.967
 21
125.845
 31
0.0
  0
LINE
  8
0
 62
     0
 10
190.967
 20
125.845
 30
0.0
 11
191.188
 21
125.623
 31
0.0
  0
LINE
  8
0
 62
     0
 10
191.188
 20
125.623
 30
0.0
 11
191.466
 21
125.481
 31
0.0
  0
LINE
  8
0
 62
     0
 10
191.466
 20
125.481
 30
0.0
 11
191.776
 21
125.432
 31
0.0
  0
LINE
  8
0
 62
     0
 10
191.776
 20
125.432
 30
0.0
 11
192.085
 21
125.481
 31
0.0
  0
LINE
  8
0
 62
     0
 10
192.085
 20
125.481
 30
0.0
 11
192.363
 21
125.623
 31
0.0
  0
LINE
  8
0
 62
     0
 10
192.363
 20
125.623
 30
0.0
 11
192.585
 21
125.845
 31
0.0
  0
LINE
  8
0
 62
     0
 10
192.585
 20
125.845
 30
0.0
 11
192.727
 21
126.124
 31
0.0
  0
LINE
  8
0
 62
     0
 10
192.727
 20
126.124
 30
0.0
 11
192.775
 21
126.432
 31
0.0
  0
LINE
  8
0
 62
     0
 10
192.775
 20
126.432
 30
0.0
 11
192.727
 21
126.742
 31
0.0
  0
LINE
  8
0
 62
     0
 10
192.727
 20
126.742
 30
0.0
 11
192.585
 21
127.021
 31
0.0
  0
LINE
  8
0
 62
     0
 10
192.585
 20
127.021
 30
0.0
 11
192.363
 21
127.244
 31
0.0
  0
LINE
  8
0
 62
     0
 10
192.363
 20
127.244
 30
0.0
 11
192.085
 21
127.385
 31
0.0
  0
LINE
  8
0
 62
     0
 10
192.085
 20
127.385
 30
0.0
 11
191.776
 21
127.433
 31
0.0
  0
LINE
  8
0
 62
     0
 10
191.776
 20
127.433
 30
0.0
 11
191.466
 21
127.385
 31
0.0
  0
LINE
  8
0
 62
     0
 10
128.906
 20
127.385
 30
0.0
 11
128.627
 21
127.244
 31
0.0
  0
LINE
  8
0
 62
     0
 10
128.627
 20
127.244
 30
0.0
 11
128.407
 21
127.021
 31
0.0
  0
LINE
  8
0
 62
     0
 10
128.407
 20
127.021
 30
0.0
 11
128.265
 21
126.742
 31
0.0
  0
LINE
  8
0
 62
     0
 10
128.265
 20
126.742
 30
0.0
 11
128.215
 21
126.432
 31
0.0
  0
LINE
  8
0
 62
     0
 10
128.215
 20
126.432
 30
0.0
 11
128.265
 21
126.124
 31
0.0
  0
LINE
  8
0
 62
     0
 10
128.265
 20
126.124
 30
0.0
 11
128.407
 21
125.845
 31
0.0
  0
LINE
  8
0
 62
     0
 10
128.407
 20
125.845
 30
0.0
 11
128.627
 21
125.623
 31
0.0
  0
LINE
  8
0
 62
     0
 10
128.627
 20
125.623
 30
0.0
 11
128.906
 21
125.481
 31
0.0
  0
LINE
  8
0
 62
     0
 10
128.906
 20
125.481
 30
0.0
 11
129.216
 21
125.432
 31
0.0
  0
LINE
  8
0
 62
     0
 10
129.216
 20
125.432
 30
0.0
 11
129.524
 21
125.481
 31
0.0
  0
LINE
  8
0
 62
     0
 10
129.524
 20
125.481
 30
0.0
 11
129.803
 21
125.623
 31
0.0
  0
LINE
  8
0
 62
     0
 10
129.803
 20
125.623
 30
0.0
 11
130.025
 21
125.845
 31
0.0
  0
LINE
  8
0
 62
     0
 10
130.025
 20
125.845
 30
0.0
 11
130.167
 21
126.124
 31
0.0
  0
LINE
  8
0
 62
     0
 10
130.167
 20
126.124
 30
0.0
 11
130.215
 21
126.432
 31
0.0
  0
LINE
  8
0
 62
     0
 10
130.215
 20
126.432
 30
0.0
 11
130.167
 21
126.742
 31
0.0
  0
LINE
  8
0
 62
     0
 10
130.167
 20
126.742
 30
0.0
 11
130.025
 21
127.021
 31
0.0
  0
LINE
  8
0
 62
     0
 10
130.025
 20
127.021
 30
0.0
 11
129.803
 21
127.244
 31
0.0
  0
LINE
  8
0
 62
     0
 10
129.803
 20
127.244
 30
0.0
 11
129.524
 21
127.385
 31
0.0
  0
LINE
  8
0
 62
     0
 10
129.524
 20
127.385
 30
0.0
 11
129.216
 21
127.433
 31
0.0
  0
LINE
  8
0
 62
     0
 10
129.216
 20
127.433
 30
0.0
 11
128.906
 21
127.385
 31
0.0
  0
LINE
  8
0
 62
     0
 10
66.3469
 20
127.385
 30
0.0
 11
66.0672
 21
127.244
 31
0.0
  0
LINE
  8
0
 62
     0
 10
66.0672
 20
127.244
 30
0.0
 11
65.8467
 21
127.021
 31
0.0
  0
LINE
  8
0
 62
     0
 10
65.8467
 20
127.021
 30
0.0
 11
65.7049
 21
126.742
 31
0.0
  0
LINE
  8
0
 62
     0
 10
65.7049
 20
126.742
 30
0.0
 11
65.6551
 21
126.432
 31
0.0
  0
LINE
  8
0
 62
     0
 10
65.6551
 20
126.432
 30
0.0
 11
65.7049
 21
126.124
 31
0.0
  0
LINE
  8
0
 62
     0
 10
65.7049
 20
126.124
 30
0.0
 11
65.8467
 21
125.845
 31
0.0
  0
LINE
  8
0
 62
     0
 10
65.8467
 20
125.845
 30
0.0
 11
66.0672
 21
125.623
 31
0.0
  0
LINE
  8
0
 62
     0
 10
66.0672
 20
125.623
 30
0.0
 11
66.3469
 21
125.481
 31
0.0
  0
LINE
  8
0
 62
     0
 10
66.3469
 20
125.481
 30
0.0
 11
66.6556
 21
125.432
 31
0.0
  0
LINE
  8
0
 62
     0
 10
66.6556
 20
125.432
 30
0.0
 11
66.9643
 21
125.481
 31
0.0
  0
LINE
  8
0
 62
     0
 10
66.9643
 20
125.481
 30
0.0
 11
67.2426
 21
125.623
 31
0.0
  0
LINE
  8
0
 62
     0
 10
67.2426
 20
125.623
 30
0.0
 11
67.4645
 21
125.845
 31
0.0
  0
LINE
  8
0
 62
     0
 10
67.4645
 20
125.845
 30
0.0
 11
67.6067
 21
126.124
 31
0.0
  0
LINE
  8
0
 62
     0
 10
67.6067
 20
126.124
 30
0.0
 11
67.6561
 21
126.432
 31
0.0
  0
LINE
  8
0
 62
     0
 10
67.6561
 20
126.432
 30
0.0
 11
67.6067
 21
126.742
 31
0.0
  0
LINE
  8
0
 62
     0
 10
67.6067
 20
126.742
 30
0.0
 11
67.4645
 21
127.021
 31
0.0
  0
LINE
  8
0
 62
     0
 10
67.4645
 20
127.021
 30
0.0
 11
67.2426
 21
127.244
 31
0.0
  0
LINE
  8
0
 62
     0
 10
67.2426
 20
127.244
 30
0.0
 11
66.9643
 21
127.385
 31
0.0
  0
LINE
  8
0
 62
     0
 10
66.9643
 20
127.385
 30
0.0
 11
66.6556
 21
127.433
 31
0.0
  0
LINE
  8
0
 62
     0
 10
66.6556
 20
127.433
 30
0.0
 11
66.3469
 21
127.385
 31
0.0
  0
ENDSEC
  0
EOF
