<?xml version="1.0" encoding="UTF-8" standalone="no"?>
<svg
   xmlns:dc="http://purl.org/dc/elements/1.1/"
   xmlns:cc="http://creativecommons.org/ns#"
   xmlns:rdf="http://www.w3.org/1999/02/22-rdf-syntax-ns#"
   xmlns:svg="http://www.w3.org/2000/svg"
   xmlns="http://www.w3.org/2000/svg"
   xmlns:sodipodi="http://sodipodi.sourceforge.net/DTD/sodipodi-0.dtd"
   xmlns:inkscape="http://www.inkscape.org/namespaces/inkscape"
   inkscape:version="1.0 (4035a4fb49, 2020-05-01)"
   sodipodi:docname="wrist-rest_hipro_flat.svg"
   id="svg955"
   version="1.1"
   height="1113.6821"
   width="2719.4082">
  <metadata
     id="metadata959">
    <rdf:RDF>
      <cc:Work
         rdf:about="">
        <dc:format>image/svg+xml</dc:format>
        <dc:type
           rdf:resource="http://purl.org/dc/dcmitype/StillImage" />
        <dc:title />
      </cc:Work>
    </rdf:RDF>
  </metadata>
  <sodipodi:namedview
     inkscape:document-rotation="0"
     inkscape:current-layer="g953"
     inkscape:window-maximized="1"
     inkscape:window-y="843"
     inkscape:window-x="1072"
     inkscape:cy="360.52216"
     inkscape:cx="1244.5116"
     inkscape:zoom="0.35355339"
     showgrid="false"
     id="namedview957"
     inkscape:window-height="1017"
     inkscape:window-width="1920"
     inkscape:pageshadow="2"
     inkscape:pageopacity="0"
     guidetolerance="10"
     gridtolerance="10"
     objecttolerance="10"
     borderopacity="1"
     bordercolor="#666666"
     pagecolor="#ffffff" />
  <defs
     id="defs829">
    <marker
       style="overflow:visible"
       refY="0"
       refX="0"
       orient="auto"
       id="DistanceX">
      <path
         id="path817"
         style="stroke:#000000;stroke-width:0.5"
         d="M 3,-3 -3,3 M 0,-5 V 5" />
    </marker>
    <pattern
       y="0"
       x="0"
       width="8"
       patternUnits="userSpaceOnUse"
       id="Hatch"
       height="8">
      <path
         id="path820"
         stroke-width="0.25"
         stroke="#000000"
         linecap="square"
         d="M8 4 l-4,4" />
      <path
         id="path822"
         stroke-width="0.25"
         stroke="#000000"
         linecap="square"
         d="M6 2 l-4,4" />
      <path
         id="path824"
         stroke-width="0.25"
         stroke="#000000"
         linecap="square"
         d="M4 0 l-4,4" />
    </pattern>
    <symbol
       id="*MODEL_SPACE" />
    <symbol
       id="*PAPER_SPACE" />
  </defs>
  <g
     transform="translate(1361.2272,-1074.7038)"
     style="display:inline"
     id="g831"
     inkscape:label="0"
     inkscape:groupmode="layer" />
  <g
     transform="translate(1361.2272,-1074.7038)"
     id="g953"
     inkscape:label="CASE_LAYER"
     inkscape:groupmode="layer">
    <path
       sodipodi:nodetypes="ssssccccsssss"
       id="path901-7-3"
       style="fill:none;stroke:#000000"
       d="m 1350.122,1814.7055 c 4.1747,6e-4 7.559,-3.9376 7.559,-8.1123 v -352.3364 c 0,-4.1747 -3.3843,-6.9356 -7.559,-6.9356 H 955.05386 L 643.3876,1511.5807 H 567.7971 L 256.1308,1447.3212 H 8.0591 c -4.1748,0 -7.5591,3.3066 -7.5591,7.4813 v 352.1165 c 0,4.1747 3.3843,7.5932 7.5591,7.5938 z"
       inkscape:connector-curvature="0" />
    <path
       inkscape:connector-curvature="0"
       id="path903-5"
       style="fill:none;stroke:#000000"
       d="m 851.26224,1866.0597 c 0,0 -10e-6,0 -10e-6,0 -2.8063,0 -5.10236,-2.2961 -5.10236,-5.1024 0,0 0,0 0,0 0,-2.8063 2.29606,-5.1024 5.10236,-5.1024 0,0 10e-6,0 10e-6,0 2.8063,0 5.10236,2.2961 5.10236,5.1024 0,0 0,0 0,0 0,2.8063 -2.29606,5.1024 -5.10236,5.1024 z" />
    <path
       inkscape:connector-curvature="0"
       id="path905-8"
       style="fill:none;stroke:#000000"
       d="m 1338.7839,1844.9054 c 0,0 0,0 0,0 -2.8063,0 -5.1024,-2.296 -5.1024,-5.1023 0,0 0,0 0,0 0,-2.8063 2.2961,-5.1024 5.1024,-5.1024 0,0 0,0 0,0 2.8063,0 5.1023,2.2961 5.1023,5.1024 0,0 0,0 0,0 0,2.8063 -2.296,5.1023 -5.1023,5.1023 z" />
    <path
       inkscape:connector-curvature="0"
       id="path915-8"
       style="fill:none;stroke:#000000"
       d="m 19.3983,1844.9054 c 0,0 0,0 0,0 -2.8063,0 -5.1024,-2.296 -5.1024,-5.1023 0,0 0,0 0,0 0,-2.8063 2.2961,-5.1024 5.1024,-5.1024 0,0 0,0 0,0 2.8063,0 5.1023,2.2961 5.1023,5.1024 0,0 0,0 0,0 0,2.8063 -2.296,5.1023 -5.1023,5.1023 z" />
    <path
       inkscape:connector-curvature="0"
       id="path917-7"
       style="fill:none;stroke:#000000"
       d="m 359.9237,1866.0597 c 0,0 0,0 0,0 -2.8063,0 -5.1024,-2.2961 -5.1024,-5.1024 0,0 0,0 0,0 0,-2.8063 2.2961,-5.1024 5.1024,-5.1024 0,0 0,0 0,0 2.8063,0 5.1024,2.2961 5.1024,5.1024 0,0 0,0 0,0 0,2.8063 -2.2961,5.1024 -5.1024,5.1024 z" />
    <path
       sodipodi:nodetypes="ssssccccsssss"
       id="path901-7-39"
       style="fill:none;stroke:#000000"
       d="m 1350.122,2187.8859 c 4.1747,6e-4 7.559,-3.9376 7.559,-8.1123 v -352.3364 c 0,-4.1747 -3.3843,-6.9356 -7.559,-6.9356 H 955.05387 L 643.3877,1884.7611 H 567.7971 L 256.1309,1820.5016 H 8.0591 c -4.1748,0 -7.5591,3.3066 -7.5591,7.4813 v 352.1165 c 0,4.1747 3.3843,7.5932 7.5591,7.5938 z"
       inkscape:connector-curvature="0" />
    <path
       inkscape:connector-curvature="0"
       id="path903-2"
       style="fill:none;stroke:#000000"
       d="m 851.26217,1120.8189 c 0,0 0,0 0,0 -2.8063,0 -5.1023,-2.2961 -5.1023,-5.1024 0,0 0,0 0,0 0,-2.8063 2.296,-5.1024 5.1023,-5.1024 0,0 0,0 0,0 2.8063,0 5.1024,2.2961 5.1024,5.1024 0,0 0,0 0,0 0,2.8063 -2.2961,5.1024 -5.1024,5.1024 z" />
    <path
       inkscape:connector-curvature="0"
       id="path905-5"
       style="fill:none;stroke:#000000"
       d="m 1338.7839,1099.6646 c 0,0 0,0 0,0 -2.8063,0 -5.1024,-2.296 -5.1024,-5.1023 0,0 0,0 0,0 0,-2.8063 2.2961,-5.1024 5.1024,-5.1024 0,0 0,0 0,0 2.8063,0 5.1023,2.2961 5.1023,5.1024 0,0 0,0 0,0 0,2.8063 -2.296,5.1023 -5.1023,5.1023 z" />
    <path
       inkscape:connector-curvature="0"
       id="path915-6"
       style="fill:none;stroke:#000000"
       d="m 19.3982,1099.6646 c 0,0 0,0 0,0 -2.8063,0 -5.1023,-2.296 -5.1023,-5.1023 0,0 0,0 0,0 0,-2.8063 2.296,-5.1024 5.1023,-5.1024 0,0 0,0 0,0 2.8063,0 5.1024,2.2961 5.1024,5.1024 0,0 0,0 0,0 0,2.8063 -2.2961,5.1023 -5.1024,5.1023 z" />
    <path
       inkscape:connector-curvature="0"
       id="path917-70"
       style="fill:none;stroke:#000000"
       d="m 359.9237,1120.8189 c 0,0 0,0 0,0 -2.8063,0 -5.1024,-2.2961 -5.1024,-5.1024 0,0 0,0 0,0 0,-2.8063 2.2961,-5.1024 5.1024,-5.1024 0,0 0,0 0,0 2.8063,0 5.1023,2.2961 5.1023,5.1024 0,0 0,0 0,0 0,2.8063 -2.296,5.1024 -5.1023,5.1024 z" />
    <path
       sodipodi:nodetypes="ssssccccsssss"
       id="path901-7-1"
       style="fill:none;stroke:#000000"
       d="m 1350.122,1442.6451 c 4.1747,6e-4 7.559,-3.9376 7.559,-8.1123 v -352.3364 c 0,-4.1747 -3.3843,-6.9356 -7.559,-6.9356 H 955.05387 L 643.3876,1139.5203 H 567.7971 L 256.1308,1075.2608 H 8.0591 c -4.1748,0 -7.5591,3.3066 -7.5591,7.4813 v 352.1165 c 0,4.1747 3.3843,7.5932 7.5591,7.5938 z"
       inkscape:connector-curvature="0" />
    <path
       inkscape:connector-curvature="0"
       id="path903-5-7"
       style="fill:none;stroke:#000000"
       d="m -509.96492,1866.0027 c 0,0 -10e-5,0 -10e-5,0 -2.8063,0 -5.1023,-2.2961 -5.1023,-5.1024 0,0 0,0 0,0 0,-2.8063 2.296,-5.1024 5.1023,-5.1024 0,0 10e-5,0 10e-5,0 2.8063,0 5.1023,2.2961 5.1023,5.1024 0,0 0,0 0,0 0,2.8063 -2.296,5.1024 -5.1023,5.1024 z" />
    <path
       inkscape:connector-curvature="0"
       id="path905-8-0"
       style="fill:none;stroke:#000000"
       d="m -22.443321,1844.8484 c 0,0 0,0 0,0 -2.8063,0 -5.1024,-2.296 -5.1024,-5.1023 0,0 0,0 0,0 0,-2.8063 2.2961,-5.1024 5.1024,-5.1024 0,0 0,0 0,0 2.8063,0 5.1023,2.2961 5.1023,5.1024 0,0 0,0 0,0 0,2.8063 -2.296,5.1023 -5.1023,5.1023 z" />
    <path
       inkscape:connector-curvature="0"
       id="path915-8-0"
       style="fill:none;stroke:#000000"
       d="m -1341.8289,1844.8484 c 0,0 0,0 0,0 -2.8063,0 -5.1024,-2.296 -5.1024,-5.1023 0,0 0,0 0,0 0,-2.8063 2.2961,-5.1024 5.1024,-5.1024 0,0 0,0 0,0 2.8063,0 5.1023,2.2961 5.1023,5.1024 0,0 0,0 0,0 0,2.8063 -2.296,5.1023 -5.1023,5.1023 z" />
    <path
       inkscape:connector-curvature="0"
       id="path917-7-0"
       style="fill:none;stroke:#000000"
       d="m -1001.3035,1866.0027 c 0,0 0,0 0,0 -2.8063,0 -5.1024,-2.2961 -5.1024,-5.1024 0,0 0,0 0,0 0,-2.8063 2.2961,-5.1024 5.1024,-5.1024 0,0 0,0 0,0 2.8063,0 5.1024,2.2961 5.1024,5.1024 0,0 0,0 0,0 0,2.8063 -2.2961,5.1024 -5.1024,5.1024 z" />
    <path
       sodipodi:nodetypes="ssssccccsssss"
       id="path901-7-39-9"
       style="fill:none;stroke:#000000"
       d="m -11.105221,2187.8289 c 4.1747,6e-4 7.559,-3.9376 7.559,-8.1123 v -352.3364 c 0,-4.1747 -3.3843,-6.9356 -7.559,-6.9356 H -406.17332 l -311.6662,64.2595 h -75.5906 l -311.66618,-64.2595 h -248.0718 c -4.1748,0 -7.5591,3.3066 -7.5591,7.4813 v 352.1165 c 0,4.1747 3.3843,7.5932 7.5591,7.5938 z"
       inkscape:connector-curvature="0" />
    <path
       inkscape:connector-curvature="0"
       id="path903-2-1"
       style="fill:none;stroke:#000000"
       d="m -509.96502,1120.7619 c 0,0 0,0 0,0 -2.8063,0 -5.1023,-2.2961 -5.1023,-5.1024 0,0 0,0 0,0 0,-2.8063 2.296,-5.1024 5.1023,-5.1024 0,0 0,0 0,0 2.8063,0 5.1024,2.2961 5.1024,5.1024 0,0 0,0 0,0 0,2.8063 -2.2961,5.1024 -5.1024,5.1024 z" />
    <path
       inkscape:connector-curvature="0"
       id="path905-5-0"
       style="fill:none;stroke:#000000"
       d="m -22.443321,1099.6076 c 0,0 0,0 0,0 -2.8063,0 -5.1024,-2.296 -5.1024,-5.1023 0,0 0,0 0,0 0,-2.8063 2.2961,-5.1024 5.1024,-5.1024 0,0 0,0 0,0 2.8063,0 5.1023,2.2961 5.1023,5.1024 0,0 0,0 0,0 0,2.8063 -2.296,5.1023 -5.1023,5.1023 z" />
    <path
       inkscape:connector-curvature="0"
       id="path915-6-5"
       style="fill:none;stroke:#000000"
       d="m -1341.829,1099.6076 c 0,0 0,0 0,0 -2.8063,0 -5.1023,-2.296 -5.1023,-5.1023 0,0 0,0 0,0 0,-2.8063 2.296,-5.1024 5.1023,-5.1024 0,0 0,0 0,0 2.8063,0 5.1024,2.2961 5.1024,5.1024 0,0 0,0 0,0 0,2.8063 -2.2961,5.1023 -5.1024,5.1023 z" />
    <path
       inkscape:connector-curvature="0"
       id="path917-70-6"
       style="fill:none;stroke:#000000"
       d="m -1001.3035,1120.7619 c 0,0 0,0 0,0 -2.8063,0 -5.1024,-2.2961 -5.1024,-5.1024 0,0 0,0 0,0 0,-2.8063 2.2961,-5.1024 5.1024,-5.1024 0,0 0,0 0,0 2.8063,0 5.1023,2.2961 5.1023,5.1024 0,0 0,0 0,0 0,2.8063 -2.296,5.1024 -5.1023,5.1024 z" />
    <path
       sodipodi:nodetypes="ssssccccsssss"
       id="path901-7-1-2"
       style="fill:none;stroke:#000000"
       d="m -11.105221,1442.5881 c 4.1747,6e-4 7.559,-3.9376 7.559,-8.1123 v -352.3364 c 0,-4.1747 -3.3843,-6.9356 -7.559,-6.9356 H -406.17332 l -311.6663,64.2595 h -75.5905 l -311.66628,-64.2595 h -248.0717 c -4.1748,0 -7.5591,3.3066 -7.5591,7.4813 v 352.1165 c 0,4.1747 3.3843,7.5932 7.5591,7.5938 z"
       inkscape:connector-curvature="0" />
    <path
       d="m 370.69281,1486.8861 c -0.1726,0 -0.3256,0.059 -0.4648,0.1398 0,0 -4.5256,-7.8385 -4.5256,-7.8385 0.2818,-0.1636 0.4801,-0.456 0.4801,-0.8052 0,-0.5219 -0.4231,-0.9449 -0.9449,-0.9449 -0.5219,0 -0.9449,0.423 -0.9449,0.9449 0,0 -9.0208,0 -9.0208,0 0,-0.5219 -0.4231,-0.9449 -0.9449,-0.9449 -0.5218,0 -0.9449,0.423 -0.9449,0.9449 0,0.3492 0.1984,0.6415 0.4801,0.8051 0,0 -4.5256,7.8385 -4.5256,7.8385 -0.1393,-0.081 -0.2923,-0.1397 -0.4649,-0.1397 -0.5218,0 -0.9448,0.423 -0.9448,0.9449 0,0.5218 0.423,0.9449 0.9448,0.9449 0.1726,0 0.3256,-0.059 0.4649,-0.1397 0,0 4.5256,7.8385 4.5256,7.8385 -0.2817,0.1635 -0.4801,0.4559 -0.4801,0.8051 0,0.5219 0.4231,0.9449 0.9449,0.9449 0.5218,0 0.9449,-0.423 0.9449,-0.9449 0,0 9.0208,0 9.0208,0 0,0.5219 0.423,0.9449 0.9449,0.9449 0.5218,0 0.9449,-0.423 0.9449,-0.9449 0,-0.3492 -0.1983,-0.6416 -0.4801,-0.8051 0,0 4.5256,-7.8385 4.5256,-7.8385 0.1393,0.081 0.2922,0.1397 0.4648,0.1397 0.5219,0 0.9449,-0.4231 0.9449,-0.9449 0,-0.5219 -0.423,-0.9449 -0.9449,-0.9449 z"
       style="fill:none;stroke:#000000"
       id="path885-8"
       inkscape:connector-curvature="0" />
    <path
       d="m 862.04363,1486.886 c -0.1726,0 -0.3256,0.059 -0.4648,0.1398 0,0 -4.5256,-7.8385 -4.5256,-7.8385 0.2818,-0.1636 0.4801,-0.456 0.4801,-0.8052 0,-0.5219 -0.4231,-0.9449 -0.9449,-0.9449 -0.5219,0 -0.9449,0.423 -0.9449,0.9449 0,0 -9.0208,0 -9.0208,0 0,-0.5219 -0.4231,-0.9449 -0.9449,-0.9449 -0.5218,0 -0.9449,0.423 -0.9449,0.9449 0,0.3492 0.1984,0.6415 0.4801,0.8051 0,0 -4.5256,7.8385 -4.5256,7.8385 -0.1393,-0.081 -0.2923,-0.1397 -0.4649,-0.1397 -0.5218,0 -0.9448,0.423 -0.9448,0.9449 0,0.5218 0.423,0.9449 0.9448,0.9449 0.1726,0 0.3256,-0.059 0.4649,-0.1397 0,0 4.5256,7.8385 4.5256,7.8385 -0.2817,0.1635 -0.4801,0.4559 -0.4801,0.8051 0,0.5219 0.4231,0.9449 0.9449,0.9449 0.5218,0 0.9449,-0.423 0.9449,-0.9449 0,0 9.0208,0 9.0208,0 0,0.5219 0.423,0.9449 0.9449,0.9449 0.5218,0 0.9449,-0.423 0.9449,-0.9449 0,-0.3492 -0.1983,-0.6416 -0.4801,-0.8051 0,0 4.5256,-7.8385 4.5256,-7.8385 0.1393,0.081 0.2922,0.1397 0.4648,0.1397 0.5219,0 0.9449,-0.4231 0.9449,-0.9449 0,-0.5219 -0.423,-0.9449 -0.9449,-0.9449 z"
       style="fill:none;stroke:#000000"
       id="path885-05"
       inkscape:connector-curvature="0" />
    <path
       d="m 1349.4903,1465.5585 c -0.1726,0 -0.3256,0.059 -0.4648,0.1398 0,0 -4.5256,-7.8385 -4.5256,-7.8385 0.2818,-0.1636 0.4801,-0.456 0.4801,-0.8052 0,-0.5219 -0.4231,-0.9449 -0.9449,-0.9449 -0.5219,0 -0.9449,0.423 -0.9449,0.9449 0,0 -9.0208,0 -9.0208,0 0,-0.5219 -0.4231,-0.9449 -0.9449,-0.9449 -0.5218,0 -0.9449,0.423 -0.9449,0.9449 0,0.3492 0.1984,0.6415 0.4801,0.8051 0,0 -4.5256,7.8385 -4.5256,7.8385 -0.1393,-0.081 -0.2923,-0.1397 -0.4649,-0.1397 -0.5218,0 -0.9448,0.423 -0.9448,0.9449 0,0.5218 0.423,0.9449 0.9448,0.9449 0.1726,0 0.3256,-0.059 0.4649,-0.1397 0,0 4.5256,7.8385 4.5256,7.8385 -0.2817,0.1635 -0.4801,0.4559 -0.4801,0.8051 0,0.5219 0.4231,0.9449 0.9449,0.9449 0.5218,0 0.9449,-0.423 0.9449,-0.9449 0,0 9.0208,0 9.0208,0 0,0.5219 0.423,0.9449 0.9449,0.9449 0.5218,0 0.9449,-0.423 0.9449,-0.9449 0,-0.3492 -0.1983,-0.6416 -0.4801,-0.8051 0,0 4.5256,-7.8385 4.5256,-7.8385 0.1393,0.081 0.2922,0.1397 0.4648,0.1397 0.5219,0 0.9449,-0.4231 0.9449,-0.9449 0,-0.5219 -0.423,-0.9449 -0.9449,-0.9449 z"
       style="fill:none;stroke:#000000"
       id="path885-057"
       inkscape:connector-curvature="0" />
    <path
       d="m 30.309287,1465.6728 c -0.1726,0 -0.3256,0.059 -0.4648,0.1398 0,0 -4.5256,-7.8385 -4.5256,-7.8385 0.2818,-0.1636 0.4801,-0.456 0.4801,-0.8052 0,-0.5219 -0.4231,-0.9449 -0.9449,-0.9449 -0.5219,0 -0.9449,0.423 -0.9449,0.9449 0,0 -9.0208,0 -9.0208,0 0,-0.5219 -0.4231,-0.9449 -0.9449,-0.9449 -0.5218,0 -0.9449,0.423 -0.9449,0.9449 0,0.3492 0.1984,0.6415 0.4801,0.8051 0,0 -4.5256001,7.8385 -4.5256001,7.8385 -0.1393,-0.081 -0.2923,-0.1397 -0.4649,-0.1397 -0.5218,0 -0.9448,0.423 -0.9448,0.9449 0,0.5218 0.423,0.9449 0.9448,0.9449 0.1726,0 0.3256,-0.059 0.4649,-0.1397 0,0 4.5256001,7.8385 4.5256001,7.8385 -0.2817,0.1635 -0.4801,0.4559 -0.4801,0.8051 0,0.5219 0.4231,0.9449 0.9449,0.9449 0.5218,0 0.9449,-0.423 0.9449,-0.9449 0,0 9.0208,0 9.0208,0 0,0.5219 0.423,0.9449 0.9449,0.9449 0.5218,0 0.9449,-0.423 0.9449,-0.9449 0,-0.3492 -0.1983,-0.6416 -0.4801,-0.8051 0,0 4.5256,-7.8385 4.5256,-7.8385 0.1393,0.081 0.2922,0.1397 0.4648,0.1397 0.5219,0 0.9449,-0.4231 0.9449,-0.9449 0,-0.5219 -0.423,-0.9449 -0.9449,-0.9449 z"
       style="fill:none;stroke:#000000"
       id="path885-2"
       inkscape:connector-curvature="0" />
    <path
       inkscape:connector-curvature="0"
       d="m -11.153228,1814.6255 c 4.1746998,6e-4 7.558999,-3.9376 7.558999,-8.1123 v -352.3364 c 0,-4.1747 -3.3842992,-6.9356 -7.558999,-6.9356 H -406.22137 l -311.66626,64.2595 h -75.5905 l -311.66627,-64.2595 h -248.0717 c -4.1748,0 -7.5591,3.3066 -7.5591,7.4813 v 352.1165 c 0,4.1747 3.3843,7.5932 7.5591,7.5938 z"
       style="fill:none;stroke:#000000"
       id="path901-7-3-3"
       sodipodi:nodetypes="ssssccccsssss" />
    <path
       inkscape:connector-curvature="0"
       id="path885-8-7"
       style="fill:none;stroke:#000000"
       d="m -990.58243,1486.8061 c -0.1726,0 -0.3256,0.059 -0.4648,0.1398 0,0 -4.5256,-7.8385 -4.5256,-7.8385 0.2818,-0.1636 0.4801,-0.456 0.4801,-0.8052 0,-0.5219 -0.4231,-0.9449 -0.9449,-0.9449 -0.5219,0 -0.9449,0.423 -0.9449,0.9449 0,0 -9.02077,0 -9.02077,0 0,-0.5219 -0.4231,-0.9449 -0.9449,-0.9449 -0.5218,0 -0.9449,0.423 -0.9449,0.9449 0,0.3492 0.1984,0.6415 0.4801,0.8051 0,0 -4.5256,7.8385 -4.5256,7.8385 -0.1393,-0.081 -0.2923,-0.1397 -0.4649,-0.1397 -0.5218,0 -0.9448,0.423 -0.9448,0.9449 0,0.5218 0.423,0.9449 0.9448,0.9449 0.1726,0 0.3256,-0.059 0.4649,-0.1397 0,0 4.5256,7.8385 4.5256,7.8385 -0.2817,0.1635 -0.4801,0.4559 -0.4801,0.8051 0,0.5219 0.4231,0.9449 0.9449,0.9449 0.5218,0 0.9449,-0.423 0.9449,-0.9449 0,0 9.02077,0 9.02077,0 0,0.5219 0.423,0.9449 0.9449,0.9449 0.5218,0 0.9449,-0.423 0.9449,-0.9449 0,-0.3492 -0.1983,-0.6416 -0.4801,-0.8051 0,0 4.5256,-7.8385 4.5256,-7.8385 0.1393,0.081 0.2922,0.1397 0.4648,0.1397 0.5219,0 0.9449,-0.4231 0.9449,-0.9449 0,-0.5219 -0.423,-0.9449 -0.9449,-0.9449 z" />
    <path
       inkscape:connector-curvature="0"
       id="path885-05-7"
       style="fill:none;stroke:#000000"
       d="m -499.2316,1486.806 c -0.1726,0 -0.3256,0.059 -0.4648,0.1398 0,0 -4.5256,-7.8385 -4.5256,-7.8385 0.2818,-0.1636 0.4801,-0.456 0.4801,-0.8052 0,-0.5219 -0.4231,-0.9449 -0.9449,-0.9449 -0.5219,0 -0.9449,0.423 -0.9449,0.9449 0,0 -9.0208,0 -9.0208,0 0,-0.5219 -0.4231,-0.9449 -0.9449,-0.9449 -0.5218,0 -0.9449,0.423 -0.9449,0.9449 0,0.3492 0.1984,0.6415 0.4801,0.8051 0,0 -4.5256,7.8385 -4.5256,7.8385 -0.1393,-0.081 -0.2923,-0.1397 -0.4649,-0.1397 -0.5218,0 -0.9448,0.423 -0.9448,0.9449 0,0.5218 0.423,0.9449 0.9448,0.9449 0.1726,0 0.3256,-0.059 0.4649,-0.1397 0,0 4.5256,7.8385 4.5256,7.8385 -0.2817,0.1635 -0.4801,0.4559 -0.4801,0.8051 0,0.5219 0.4231,0.9449 0.9449,0.9449 0.5218,0 0.9449,-0.423 0.9449,-0.9449 0,0 9.0208,0 9.0208,0 0,0.5219 0.423,0.9449 0.9449,0.9449 0.5218,0 0.9449,-0.423 0.9449,-0.9449 0,-0.3492 -0.1983,-0.6416 -0.4801,-0.8051 0,0 4.5256,-7.8385 4.5256,-7.8385 0.1393,0.081 0.2922,0.1397 0.4648,0.1397 0.5219,0 0.9449,-0.4231 0.9449,-0.9449 0,-0.5219 -0.423,-0.9449 -0.9449,-0.9449 z" />
    <path
       inkscape:connector-curvature="0"
       id="path885-057-4"
       style="fill:none;stroke:#000000"
       d="m -11.784928,1465.4785 c -0.1726,0 -0.3256,0.059 -0.4648,0.1398 0,0 -4.5256,-7.8385 -4.5256,-7.8385 0.2818,-0.1636 0.4801,-0.456 0.4801,-0.8052 0,-0.5219 -0.4231,-0.9449 -0.9449,-0.9449 -0.5219,0 -0.9449,0.423 -0.9449,0.9449 0,0 -9.0208,0 -9.0208,0 0,-0.5219 -0.4231,-0.9449 -0.9449,-0.9449 -0.5218,0 -0.9449,0.423 -0.9449,0.9449 0,0.3492 0.1984,0.6415 0.4801,0.8051 0,0 -4.5256,7.8385 -4.5256,7.8385 -0.1393,-0.081 -0.2923,-0.1397 -0.4649,-0.1397 -0.5218,0 -0.9448,0.423 -0.9448,0.9449 0,0.5218 0.423,0.9449 0.9448,0.9449 0.1726,0 0.3256,-0.059 0.4649,-0.1397 0,0 4.5256,7.8385 4.5256,7.8385 -0.2817,0.1635 -0.4801,0.4559 -0.4801,0.8051 0,0.5219 0.4231,0.9449 0.9449,0.9449 0.5218,0 0.9449,-0.423 0.9449,-0.9449 0,0 9.0208,0 9.0208,0 0,0.5219 0.423,0.9449 0.9449,0.9449 0.5218,0 0.9449,-0.423 0.9449,-0.9449 0,-0.3492 -0.1983,-0.6416 -0.4801,-0.8051 0,0 4.5256,-7.8385 4.5256,-7.8385 0.1393,0.081 0.2922,0.1397 0.4648,0.1397 0.5219,0 0.9449,-0.4231 0.9449,-0.9449 0,-0.5219 -0.423,-0.9449 -0.9449,-0.9449 z" />
    <path
       inkscape:connector-curvature="0"
       id="path885-2-3"
       style="fill:none;stroke:#000000"
       d="m -1330.9659,1465.5928 c -0.1726,0 -0.3256,0.059 -0.4648,0.1398 0,0 -4.5256,-7.8385 -4.5256,-7.8385 0.2818,-0.1636 0.4801,-0.456 0.4801,-0.8052 0,-0.5219 -0.4231,-0.9449 -0.9449,-0.9449 -0.5219,0 -0.9449,0.423 -0.9449,0.9449 0,0 -9.0208,0 -9.0208,0 0,-0.5219 -0.4231,-0.9449 -0.9449,-0.9449 -0.5218,0 -0.9449,0.423 -0.9449,0.9449 0,0.3492 0.1984,0.6415 0.4801,0.8051 0,0 -4.5256,7.8385 -4.5256,7.8385 -0.1393,-0.081 -0.2923,-0.1397 -0.4649,-0.1397 -0.5218,0 -0.9448,0.423 -0.9448,0.9449 0,0.5218 0.423,0.9449 0.9448,0.9449 0.1726,0 0.3256,-0.059 0.4649,-0.1397 0,0 4.5256,7.8385 4.5256,7.8385 -0.2817,0.1635 -0.4801,0.4559 -0.4801,0.8051 0,0.5219 0.4231,0.9449 0.9449,0.9449 0.5218,0 0.9449,-0.423 0.9449,-0.9449 0,0 9.0208,0 9.0208,0 0,0.5219 0.423,0.9449 0.9449,0.9449 0.5218,0 0.9449,-0.423 0.9449,-0.9449 0,-0.3492 -0.1983,-0.6416 -0.4801,-0.8051 0,0 4.5256,-7.8385 4.5256,-7.8385 0.1393,0.081 0.2922,0.1397 0.4648,0.1397 0.5219,0 0.9449,-0.4231 0.9449,-0.9449 0,-0.5219 -0.423,-0.9449 -0.9449,-0.9449 z" />
  </g>
</svg>
