<?xml version="1.0" encoding="UTF-8" standalone="no"?>
<svg
   xmlns:dc="http://purl.org/dc/elements/1.1/"
   xmlns:cc="http://creativecommons.org/ns#"
   xmlns:rdf="http://www.w3.org/1999/02/22-rdf-syntax-ns#"
   xmlns:svg="http://www.w3.org/2000/svg"
   xmlns="http://www.w3.org/2000/svg"
   xmlns:sodipodi="http://sodipodi.sourceforge.net/DTD/sodipodi-0.dtd"
   xmlns:inkscape="http://www.inkscape.org/namespaces/inkscape"
   inkscape:version="1.0 (4035a4fb49, 2020-05-01)"
   sodipodi:docname="wrist-rest_hipro_angled.svg"
   id="svg955"
   version="1.1"
   height="1113.6251"
   width="2123.6243">
  <metadata
     id="metadata959">
    <rdf:RDF>
      <cc:Work
         rdf:about="">
        <dc:format>image/svg+xml</dc:format>
        <dc:type
           rdf:resource="http://purl.org/dc/dcmitype/StillImage" />
        <dc:title />
      </cc:Work>
    </rdf:RDF>
  </metadata>
  <sodipodi:namedview
     inkscape:document-rotation="0"
     inkscape:current-layer="g953"
     inkscape:window-maximized="1"
     inkscape:window-y="843"
     inkscape:window-x="1072"
     inkscape:cy="329.77359"
     inkscape:cx="1309.0719"
     inkscape:zoom="0.36435888"
     showgrid="false"
     id="namedview957"
     inkscape:window-height="1017"
     inkscape:window-width="1920"
     inkscape:pageshadow="2"
     inkscape:pageopacity="0"
     guidetolerance="10"
     gridtolerance="10"
     objecttolerance="10"
     borderopacity="1"
     bordercolor="#666666"
     pagecolor="#ffffff" />
  <defs
     id="defs829">
    <marker
       style="overflow:visible"
       refY="0"
       refX="0"
       orient="auto"
       id="DistanceX">
      <path
         id="path817"
         style="stroke:#000000;stroke-width:0.5"
         d="M 3,-3 -3,3 M 0,-5 V 5" />
    </marker>
    <pattern
       y="0"
       x="0"
       width="8"
       patternUnits="userSpaceOnUse"
       id="Hatch"
       height="8">
      <path
         id="path820"
         stroke-width="0.25"
         stroke="#000000"
         linecap="square"
         d="M8 4 l-4,4" />
      <path
         id="path822"
         stroke-width="0.25"
         stroke="#000000"
         linecap="square"
         d="M6 2 l-4,4" />
      <path
         id="path824"
         stroke-width="0.25"
         stroke="#000000"
         linecap="square"
         d="M4 0 l-4,4" />
    </pattern>
    <symbol
       id="*MODEL_SPACE" />
    <symbol
       id="*PAPER_SPACE" />
  </defs>
  <g
     transform="translate(1692.3649,-1074.7608)"
     id="g831"
     inkscape:label="0"
     inkscape:groupmode="layer" />
  <g
     transform="translate(1692.3649,-1074.7608)"
     id="g953"
     inkscape:label="CASE_LAYER"
     inkscape:groupmode="layer">
    <path
       inkscape:connector-curvature="0"
       id="path883"
       style="fill:none;stroke:#000000"
       d="m 422.32707,1597.9919 c -0.1726,0 -0.3256,0.059 -0.4649,0.1397 0,0 -4.5255,-7.8384 -4.5255,-7.8384 0.2817,-0.1636 0.4801,-0.456 0.4801,-0.8052 0,-0.5219 -0.4231,-0.9449 -0.945,-0.9449 -0.5218,0 -0.9449,0.423 -0.9449,0.9449 0,0 -9.0207,0 -9.0207,0 0,-0.5219 -0.4231,-0.9449 -0.9449,-0.9449 -0.5218,0 -0.9449,0.423 -0.9449,0.9449 0,0.3492 0.1983,0.6415 0.48,0.8051 0,0 -4.5255,7.8384 -4.5255,7.8384 -0.1393,-0.081 -0.2923,-0.1396 -0.4649,-0.1396 -0.5219,0 -0.9449,0.423 -0.9449,0.9449 0,0.5218 0.423,0.9448 0.9449,0.9448 0.1726,0 0.3256,-0.059 0.4648,-0.1396 0,0 4.5256,7.8384 4.5256,7.8384 -0.2817,0.1636 -0.48,0.456 -0.48,0.8052 0,0.5218 0.4231,0.9449 0.9449,0.9449 0.5218,0 0.9449,-0.4231 0.9449,-0.9449 0,0 9.0207,0 9.0207,0 0,0.5218 0.4231,0.9449 0.9449,0.9449 0.5219,0 0.945,-0.4231 0.945,-0.9449 0,-0.3492 -0.1984,-0.6416 -0.4801,-0.8052 0,0 4.5255,-7.8384 4.5255,-7.8384 0.1394,0.081 0.2923,0.1396 0.4649,0.1396 0.5218,0 0.9449,-0.423 0.9449,-0.9448 0,-0.5219 -0.4231,-0.9449 -0.9449,-0.9449 z" />
    <path
       inkscape:connector-curvature="0"
       id="path885"
       style="fill:none;stroke:#000000"
       d="m -65.19452,1619.1461 c -0.17261,0 -0.32561,0.059 -0.46485,0.1398 0,0 -4.52555,-7.8385 -4.52555,-7.8385 0.28174,-0.1636 0.48006,-0.456 0.48006,-0.8052 0,-0.5219 -0.42309,-0.9449 -0.9449,-0.9449 -0.5219,0 -0.94491,0.423 -0.94491,0.9449 0,0 -9.02075,0 -9.02075,0 0,-0.5219 -0.4231,-0.9449 -0.94491,-0.9449 -0.52181,0 -0.9449,0.423 -0.9449,0.9449 0,0.3492 0.19832,0.6415 0.48006,0.8051 0,0 -4.52555,7.8385 -4.52555,7.8385 -0.13933,-0.081 -0.29232,-0.1397 -0.46493,-0.1397 -0.52181,0 -0.94482,0.423 -0.94482,0.9449 0,0.5218 0.42301,0.9449 0.94482,0.9449 0.17261,0 0.3256,-0.059 0.46484,-0.1397 0,0 4.52564,7.8385 4.52564,7.8385 -0.28174,0.1635 -0.48006,0.4559 -0.48006,0.8051 0,0.5219 0.42309,0.9449 0.9449,0.9449 0.52181,0 0.94491,-0.423 0.94491,-0.9449 0,0 9.02075,0 9.02075,0 0,0.5219 0.42301,0.9449 0.94491,0.9449 0.52181,0 0.9449,-0.423 0.9449,-0.9449 0,-0.3492 -0.19832,-0.6416 -0.48006,-0.8051 0,0 4.52555,-7.8385 4.52555,-7.8385 0.13933,0.081 0.29224,0.1397 0.46485,0.1397 0.52181,0 0.9449,-0.4231 0.9449,-0.9449 0,-0.5219 -0.42309,-0.9449 -0.9449,-0.9449 z" />
    <path
       sodipodi:nodetypes="ssccssccs"
       inkscape:connector-curvature="0"
       id="path903-4"
       style="fill:none;stroke:#000000"
       d="m -75.77923,1526.0465 h -1e-5 c -2.8063,0 -5.10236,-2.2961 -5.10236,-5.1024 v 0 c 0,-2.8063 2.29606,-5.1024 5.10236,-5.1024 h 1e-5 c 2.8063,0 5.10236,2.2961 5.10236,5.1024 v 0 c 0,2.8063 -2.29606,5.1024 -5.10236,5.1024 z" />
    <path
       sodipodi:nodetypes="ccccccccc"
       inkscape:connector-curvature="0"
       id="path905-3"
       style="fill:none;stroke:#000000"
       d="m 411.74237,1504.8922 v 0 c -2.8063,0 -5.1024,-2.296 -5.1024,-5.1023 v 0 c 0,-2.8063 2.2961,-5.1024 5.1024,-5.1024 v 0 c 2.8063,0 5.1023,2.2961 5.1023,5.1024 v 0 c 0,2.8063 -2.296,5.1023 -5.1023,5.1023 z" />
    <path
       sodipodi:nodetypes="ssssccccs"
       id="path901-7-7"
       style="fill:none;stroke:#000000"
       d="m 423.08047,1564.4071 c 4.1747,0 7.559,-2.9888 7.559,-7.1635 v -69.8196 c 0,-4.1747 -3.3843,-6.9356 -7.559,-6.9356 H 28.01239 l -311.66623,64.2595 -37.41703,-3e-4 v 19.4667 z"
       inkscape:connector-curvature="0" />
    <path
       sodipodi:nodetypes="ssssccccs"
       id="path901-7-7-0"
       style="fill:none;stroke:#000000"
       d="m 423.08057,1701.6455 c 4.1747,0 7.559,-2.8959 7.559,-7.0706 v -107.7064 c 0,-4.1747 -3.3843,-6.9356 -7.559,-6.9356 H 28.01243 l -311.66628,64.2595 h -37.41702 v 57.2604 z"
       inkscape:connector-curvature="0" />
    <path
       sodipodi:nodetypes="sccssccssccsssccssccssccsss"
       inkscape:connector-curvature="0"
       id="path883-8"
       style="fill:none;stroke:#000000"
       d="m 422.30387,1728.377 c -0.1726,0 -0.3256,0.059 -0.4649,0.1397 l -4.5255,-7.8384 c 0.2817,-0.1636 0.4801,-0.456 0.4801,-0.8052 0,-0.5219 -0.4231,-0.9449 -0.945,-0.9449 -0.5218,0 -0.9449,0.423 -0.9449,0.9449 h -9.0207 c 0,-0.5219 -0.4231,-0.9449 -0.9449,-0.9449 -0.5218,0 -0.9449,0.423 -0.9449,0.9449 0,0.3492 0.1983,0.6415 0.48,0.8051 l -4.5255,7.8384 c -0.1393,-0.081 -0.2923,-0.1396 -0.4649,-0.1396 -0.5219,0 -0.9449,0.423 -0.9449,0.9449 0,0.5218 0.423,0.9448 0.9449,0.9448 0.1726,0 0.3256,-0.059 0.4648,-0.1396 l 4.5256,7.8384 c -0.2817,0.1636 -0.48,0.456 -0.48,0.8052 0,0.5218 0.4231,0.9449 0.9449,0.9449 0.5218,0 0.9449,-0.4231 0.9449,-0.9449 h 9.0207 c 0,0.5218 0.4231,0.9449 0.9449,0.9449 0.5219,0 0.945,-0.4231 0.945,-0.9449 0,-0.3492 -0.1984,-0.6416 -0.4801,-0.8052 l 4.5255,-7.8384 c 0.1394,0.081 0.2923,0.1396 0.4649,0.1396 0.5218,0 0.9449,-0.423 0.9449,-0.9448 0,-0.5219 -0.4231,-0.9449 -0.9449,-0.9449 z" />
    <path
       sodipodi:nodetypes="sccssccssccsssccssccssccsss"
       inkscape:connector-curvature="0"
       id="path885-9"
       style="fill:none;stroke:#000000"
       d="m -65.21784,1749.5312 c -0.1726,0 -0.3256,0.059 -0.4648,0.1398 l -4.5256,-7.8385 c 0.2818,-0.1636 0.4801,-0.456 0.4801,-0.8052 0,-0.5219 -0.4231,-0.9449 -0.9449,-0.9449 -0.5219,0 -0.9449,0.423 -0.9449,0.9449 h -9.0208 c 0,-0.5219 -0.4231,-0.9449 -0.9449,-0.9449 -0.5218,0 -0.9449,0.423 -0.9449,0.9449 0,0.3492 0.1983,0.6415 0.4801,0.8051 l -4.5256,7.8385 c -0.1393,-0.081 -0.2923,-0.1397 -0.4649,-0.1397 -0.5218,0 -0.9448,0.423 -0.9448,0.9449 0,0.5218 0.423,0.9449 0.9448,0.9449 0.1726,0 0.3256,-0.059 0.4648,-0.1397 l 4.5257,7.8385 c -0.2818,0.1635 -0.4801,0.4559 -0.4801,0.8051 0,0.5219 0.4231,0.9449 0.9449,0.9449 0.5218,0 0.9449,-0.423 0.9449,-0.9449 h 9.0208 c 0,0.5219 0.423,0.9449 0.9449,0.9449 0.5218,0 0.9449,-0.423 0.9449,-0.9449 0,-0.3492 -0.1983,-0.6416 -0.4801,-0.8051 l 4.5256,-7.8385 c 0.1393,0.081 0.2922,0.1397 0.4648,0.1397 0.5218,0 0.9449,-0.4231 0.9449,-0.9449 0,-0.5219 -0.4231,-0.9449 -0.9449,-0.9449 z" />
    <path
       sodipodi:nodetypes="ssssccccs"
       id="path901-7-7-0-0"
       style="fill:none;stroke:#000000"
       d="m 423.05737,1869.8269 c 4.1747,0 7.559,-2.8968 7.559,-7.0715 v -145.5018 c 0,-4.1747 -3.3843,-6.9356 -7.559,-6.9356 H 27.98916 l -311.66631,64.2595 h -37.42017 v 95.0583 z"
       inkscape:connector-curvature="0" />
    <path
       inkscape:connector-curvature="0"
       id="path903-3"
       style="fill:none;stroke:#000000"
       d="m -839.73044,1492.8793 c 0,0 0,0 0,0 -2.8063,0 -5.1023,-2.2961 -5.1023,-5.1024 0,0 0,0 0,0 0,-2.8063 2.296,-5.1024 5.1023,-5.1024 0,0 0,0 0,0 2.8063,0 5.1024,2.2961 5.1024,5.1024 0,0 0,0 0,0 0,2.8063 -2.2961,5.1024 -5.1024,5.1024 z" />
    <path
       inkscape:connector-curvature="0"
       id="path905-0"
       style="fill:none;stroke:#000000"
       d="m -352.20874,1471.725 c 0,0 0,0 0,0 -2.8063,0 -5.1024,-2.296 -5.1024,-5.1023 0,0 0,0 0,0 0,-2.8063 2.2961,-5.1024 5.1024,-5.1024 0,0 0,0 0,0 2.8063,0 5.1023,2.2961 5.1023,5.1024 0,0 0,0 0,0 0,2.8063 -2.296,5.1023 -5.1023,5.1023 z" />
    <path
       inkscape:connector-curvature="0"
       id="path915-2"
       style="fill:none;stroke:#000000"
       d="m -1671.5944,1471.725 c 0,0 0,0 0,0 -2.8063,0 -5.1023,-2.296 -5.1023,-5.1023 0,0 0,0 0,0 0,-2.8063 2.296,-5.1024 5.1023,-5.1024 0,0 0,0 0,0 2.8063,0 5.1024,2.2961 5.1024,5.1024 0,0 0,0 0,0 0,2.8063 -2.2961,5.1023 -5.1024,5.1023 z" />
    <path
       inkscape:connector-curvature="0"
       id="path917-1"
       style="fill:none;stroke:#000000"
       d="m -1331.0689,1492.8793 c 0,0 0,0 0,0 -2.8063,0 -5.1024,-2.2961 -5.1024,-5.1024 0,0 0,0 0,0 0,-2.8063 2.2961,-5.1024 5.1024,-5.1024 0,0 0,0 0,0 2.8063,0 5.1023,2.2961 5.1023,5.1024 0,0 0,0 0,0 0,2.8063 -2.296,5.1024 -5.1023,5.1024 z" />
    <path
       sodipodi:nodetypes="ssssccccsssss"
       id="path901-7-3"
       style="fill:none;stroke:#000000"
       d="m -340.87064,1814.7055 c 4.1747,6e-4 7.559,-3.9376 7.559,-8.1123 v -352.3364 c 0,-4.1747 -3.3843,-6.9356 -7.559,-6.9356 h -395.0681 l -311.66626,64.2595 h -75.5905 l -311.6663,-64.2595 h -248.0717 c -4.1748,0 -7.5591,3.3066 -7.5591,7.4813 v 352.1165 c 0,4.1747 3.3843,7.5932 7.5591,7.5938 z"
       inkscape:connector-curvature="0" />
    <path
       inkscape:connector-curvature="0"
       id="path903-5"
       style="fill:none;stroke:#000000"
       d="m -841.10266,1866.0597 c 0,0 -10e-6,0 -10e-6,0 -2.8063,0 -5.10236,-2.2961 -5.10236,-5.1024 0,0 0,0 0,0 0,-2.8063 2.29606,-5.1024 5.10236,-5.1024 0,0 10e-6,0 10e-6,0 2.8063,0 5.10236,2.2961 5.10236,5.1024 0,0 0,0 0,0 0,2.8063 -2.29606,5.1024 -5.10236,5.1024 z" />
    <path
       inkscape:connector-curvature="0"
       id="path905-8"
       style="fill:none;stroke:#000000"
       d="m -353.58101,1844.9054 c 0,0 0,0 0,0 -2.8063,0 -5.1024,-2.296 -5.1024,-5.1023 0,0 0,0 0,0 0,-2.8063 2.2961,-5.1024 5.1024,-5.1024 0,0 0,0 0,0 2.8063,0 5.1023,2.2961 5.1023,5.1024 0,0 0,0 0,0 0,2.8063 -2.296,5.1023 -5.1023,5.1023 z" />
    <path
       inkscape:connector-curvature="0"
       id="path915-8"
       style="fill:none;stroke:#000000"
       d="m -1672.9666,1844.9054 c 0,0 0,0 0,0 -2.8063,0 -5.1024,-2.296 -5.1024,-5.1023 0,0 0,0 0,0 0,-2.8063 2.2961,-5.1024 5.1024,-5.1024 0,0 0,0 0,0 2.8063,0 5.1023,2.2961 5.1023,5.1024 0,0 0,0 0,0 0,2.8063 -2.296,5.1023 -5.1023,5.1023 z" />
    <path
       inkscape:connector-curvature="0"
       id="path917-7"
       style="fill:none;stroke:#000000"
       d="m -1332.4412,1866.0597 c 0,0 0,0 0,0 -2.8063,0 -5.1024,-2.2961 -5.1024,-5.1024 0,0 0,0 0,0 0,-2.8063 2.2961,-5.1024 5.1024,-5.1024 0,0 0,0 0,0 2.8063,0 5.1024,2.2961 5.1024,5.1024 0,0 0,0 0,0 0,2.8063 -2.2961,5.1024 -5.1024,5.1024 z" />
    <path
       sodipodi:nodetypes="ssssccccsssss"
       id="path901-7-39"
       style="fill:none;stroke:#000000"
       d="m -342.24291,2187.8859 c 4.1747,6e-4 7.559,-3.9376 7.559,-8.1123 v -352.3364 c 0,-4.1747 -3.3843,-6.9356 -7.559,-6.9356 h -395.06812 l -311.66617,64.2595 h -75.5906 l -311.6662,-64.2595 h -248.0718 c -4.1748,0 -7.5591,3.3066 -7.5591,7.4813 v 352.1165 c 0,4.1747 3.3843,7.5932 7.5591,7.5938 z"
       inkscape:connector-curvature="0" />
    <path
       inkscape:connector-curvature="0"
       id="path903-2"
       style="fill:none;stroke:#000000"
       d="m -837.49023,1120.8189 c 0,0 0,0 0,0 -2.8063,0 -5.1023,-2.2961 -5.1023,-5.1024 0,0 0,0 0,0 0,-2.8063 2.296,-5.1024 5.1023,-5.1024 0,0 0,0 0,0 2.8063,0 5.1024,2.2961 5.1024,5.1024 0,0 0,0 0,0 0,2.8063 -2.2961,5.1024 -5.1024,5.1024 z" />
    <path
       inkscape:connector-curvature="0"
       id="path905-5"
       style="fill:none;stroke:#000000"
       d="m -349.96854,1099.6646 c 0,0 0,0 0,0 -2.8063,0 -5.1024,-2.296 -5.1024,-5.1023 0,0 0,0 0,0 0,-2.8063 2.2961,-5.1024 5.1024,-5.1024 0,0 0,0 0,0 2.8063,0 5.1023,2.2961 5.1023,5.1024 0,0 0,0 0,0 0,2.8063 -2.296,5.1023 -5.1023,5.1023 z" />
    <path
       inkscape:connector-curvature="0"
       id="path915-6"
       style="fill:none;stroke:#000000"
       d="m -1669.3542,1099.6646 c 0,0 0,0 0,0 -2.8063,0 -5.1023,-2.296 -5.1023,-5.1023 0,0 0,0 0,0 0,-2.8063 2.296,-5.1024 5.1023,-5.1024 0,0 0,0 0,0 2.8063,0 5.1024,2.2961 5.1024,5.1024 0,0 0,0 0,0 0,2.8063 -2.2961,5.1023 -5.1024,5.1023 z" />
    <path
       inkscape:connector-curvature="0"
       id="path917-70"
       style="fill:none;stroke:#000000"
       d="m -1328.8287,1120.8189 c 0,0 0,0 0,0 -2.8063,0 -5.1024,-2.2961 -5.1024,-5.1024 0,0 0,0 0,0 0,-2.8063 2.2961,-5.1024 5.1024,-5.1024 0,0 0,0 0,0 2.8063,0 5.1023,2.2961 5.1023,5.1024 0,0 0,0 0,0 0,2.8063 -2.296,5.1024 -5.1023,5.1024 z" />
    <path
       sodipodi:nodetypes="ssssccccsssss"
       id="path901-7-1"
       style="fill:none;stroke:#000000"
       d="m -338.63044,1442.6451 c 4.1747,6e-4 7.559,-3.9376 7.559,-8.1123 v -352.3364 c 0,-4.1747 -3.3843,-6.9356 -7.559,-6.9356 h -395.06809 l -311.66627,64.2595 h -75.5905 l -311.6663,-64.2595 h -248.0717 c -4.1748,0 -7.5591,3.3066 -7.5591,7.4813 v 352.1165 c 0,4.1747 3.3843,7.5932 7.5591,7.5938 z"
       inkscape:connector-curvature="0" />
    <path
       inkscape:connector-curvature="0"
       id="path877-2"
       style="fill:none;stroke:#000000"
       d="m -280.8437,1196.6533 c -0.1726,0 -0.3256,0.059 -0.4648,0.1398 0,0 -4.5256,-7.8385 -4.5256,-7.8385 0.2818,-0.1636 0.4801,-0.456 0.4801,-0.8052 0,-0.5219 -0.4231,-0.9449 -0.9449,-0.9449 -0.5219,0 -0.9449,0.423 -0.9449,0.9449 0,0 -9.0208,0 -9.0208,0 0,-0.5219 -0.4231,-0.9449 -0.9449,-0.9449 -0.5218,0 -0.9449,0.423 -0.9449,0.9449 0,0.3492 0.1983,0.6416 0.4801,0.8051 0,0 -4.5256,7.8385 -4.5256,7.8385 -0.1393,-0.081 -0.2923,-0.1397 -0.4649,-0.1397 -0.5218,0 -0.9448,0.4231 -0.9448,0.9449 0,0.5219 0.423,0.9449 0.9448,0.9449 0.1726,0 0.3256,-0.059 0.4648,-0.1397 0,0 4.5257,7.8385 4.5257,7.8385 -0.2818,0.1636 -0.4801,0.456 -0.4801,0.8052 0,0.5218 0.4231,0.9449 0.9449,0.9449 0.5218,0 0.9449,-0.4231 0.9449,-0.9449 0,0 9.0208,0 9.0208,0 0,0.5218 0.423,0.9449 0.9449,0.9449 0.5218,0 0.9449,-0.4231 0.9449,-0.9449 0,-0.3492 -0.1983,-0.6416 -0.4801,-0.8052 0,0 4.5256,-7.8385 4.5256,-7.8385 0.1393,0.081 0.2922,0.1397 0.4648,0.1397 0.5218,0 0.9449,-0.423 0.9449,-0.9449 0,-0.5218 -0.4231,-0.9449 -0.9449,-0.9449 z" />
    <path
       inkscape:connector-curvature="0"
       id="path879-36"
       style="fill:none;stroke:#000000"
       d="m 59.681699,1217.8076 c -0.1726,0 -0.3256,0.059 -0.4648,0.1397 0,0 -4.5256,-7.8385 -4.5256,-7.8385 0.2818,-0.1635 0.4801,-0.4559 0.4801,-0.8051 0,-0.5219 -0.4231,-0.9449 -0.9449,-0.9449 -0.5219,0 -0.9449,0.423 -0.9449,0.9449 0,0 -9.0208,0 -9.0208,0 0,-0.5219 -0.423,-0.9449 -0.9449,-0.9449 -0.5218,0 -0.9449,0.423 -0.9449,0.9449 0,0.3492 0.1984,0.6415 0.4801,0.8051 0,0 -4.5256,7.8384 -4.5256,7.8384 -0.1393,-0.081 -0.2923,-0.1396 -0.4649,-0.1396 -0.5218,0 -0.9448,0.423 -0.9448,0.9449 0,0.5218 0.423,0.9448 0.9448,0.9448 0.1726,0 0.3256,-0.059 0.4649,-0.1397 0,0 4.5256,7.8385 4.5256,7.8385 -0.2817,0.1636 -0.4801,0.456 -0.4801,0.8052 0,0.5218 0.4231,0.9449 0.9449,0.9449 0.5219,0 0.9449,-0.4231 0.9449,-0.9449 0,0 9.0208,0 9.0208,0 0,0.5218 0.423,0.9449 0.9449,0.9449 0.5218,0 0.9449,-0.4231 0.9449,-0.9449 0,-0.3492 -0.1983,-0.6416 -0.4801,-0.8052 0,0 4.5256,-7.8385 4.5256,-7.8385 0.1393,0.081 0.2922,0.1397 0.4648,0.1397 0.5219,0 0.945,-0.423 0.945,-0.9448 0,-0.5219 -0.4231,-0.9449 -0.945,-0.9449 z" />
    <path
       sodipodi:nodetypes="ssccssccs"
       inkscape:connector-curvature="0"
       id="path915-5-1"
       style="fill:none;stroke:#000000"
       d="m -291.9114,1103.2042 v 0 c -2.8063,0 -5.1024,-2.296 -5.1024,-5.1023 v 0 c 0,-2.8063 2.2961,-5.1024 5.1024,-5.1024 v 0 c 2.8063,0 5.1024,2.2961 5.1024,5.1024 v 0 c 0,2.8063 -2.2961,5.1023 -5.1024,5.1023 z" />
    <path
       sodipodi:nodetypes="ssccssccs"
       inkscape:connector-curvature="0"
       id="path917-0-0"
       style="fill:none;stroke:#000000"
       d="m 48.613999,1124.3585 v 0 c -2.8063,0 -5.1023,-2.2961 -5.1023,-5.1024 v 0 c 0,-2.8063 2.296,-5.1024 5.1023,-5.1024 v 0 c 2.8063,0 5.1024,2.2961 5.1024,5.1024 v 0 c 0,2.8063 -2.2961,5.1024 -5.1024,5.1024 z" />
    <path
       sodipodi:nodetypes="ccccssssc"
       id="path901-7-7-2"
       style="fill:none;stroke:#000000"
       d="m 293.9074,1162.7191 v -19.6592 H 256.4875 L -55.178801,1078.8004 H -303.2506 c -4.1747,0 -7.559,3.3066 -7.559,7.4813 v 69.0113 c 0,4.1747 3.3843,7.232 7.559,7.2333 z"
       inkscape:connector-curvature="0" />
    <path
       sodipodi:nodetypes="ccccssssc"
       id="path901-7-7-0-1"
       style="fill:none;stroke:#000000"
       d="m 293.86961,1299.9568 v -57.4521 l -37.38211,-3e-4 -311.666301,-64.2595 H -303.2506 c -4.1747,0 -7.559,3.3066 -7.559,7.4813 v 106.8079 c 0,4.1747 3.3843,7.2294 7.559,7.2307 z"
       inkscape:connector-curvature="0" />
    <path
       sodipodi:nodetypes="sccssccssccsssccssccssccsss"
       inkscape:connector-curvature="0"
       id="path877-8-5"
       style="fill:none;stroke:#000000"
       d="m -280.867,1327.0384 c -0.1726,0 -0.3256,0.059 -0.4648,0.1398 l -4.5256,-7.8385 c 0.2818,-0.1636 0.4801,-0.456 0.4801,-0.8052 0,-0.5219 -0.4231,-0.9449 -0.9449,-0.9449 -0.5219,0 -0.9449,0.423 -0.9449,0.9449 h -9.0208 c 0,-0.5219 -0.4231,-0.9449 -0.9449,-0.9449 -0.5218,0 -0.9449,0.423 -0.9449,0.9449 0,0.3492 0.1984,0.6416 0.4801,0.8051 l -4.5256,7.8385 c -0.1393,-0.081 -0.2923,-0.1397 -0.4649,-0.1397 -0.5218,0 -0.9448,0.4231 -0.9448,0.9449 0,0.5219 0.423,0.9449 0.9448,0.9449 0.1726,0 0.3256,-0.059 0.4649,-0.1397 l 4.5256,7.8385 c -0.2817,0.1636 -0.4801,0.456 -0.4801,0.8052 0,0.5218 0.4231,0.9449 0.9449,0.9449 0.5218,0 0.9449,-0.4231 0.9449,-0.9449 h 9.0208 c 0,0.5218 0.423,0.9449 0.9449,0.9449 0.5218,0 0.9449,-0.4231 0.9449,-0.9449 0,-0.3492 -0.1983,-0.6416 -0.4801,-0.8052 l 4.5256,-7.8385 c 0.1393,0.081 0.2922,0.1397 0.4648,0.1397 0.5219,0 0.9449,-0.423 0.9449,-0.9449 0,-0.5218 -0.423,-0.9449 -0.9449,-0.9449 z" />
    <path
       sodipodi:nodetypes="sccssccssccsssccssccssccsss"
       inkscape:connector-curvature="0"
       id="path879-3-1"
       style="fill:none;stroke:#000000"
       d="m 59.658499,1348.1927 c -0.1726,0 -0.3256,0.059 -0.4649,0.1397 l -4.5255,-7.8385 c 0.2817,-0.1635 0.48,-0.4559 0.48,-0.8051 0,-0.5219 -0.4231,-0.9449 -0.9449,-0.9449 -0.5219,0 -0.9449,0.423 -0.9449,0.9449 h -9.0207 c 0,-0.5219 -0.4231,-0.9449 -0.9449,-0.9449 -0.5219,0 -0.9449,0.423 -0.9449,0.9449 0,0.3492 0.1983,0.6415 0.48,0.8051 l -4.5255,7.8384 c -0.1394,-0.081 -0.2924,-0.1396 -0.465,-0.1396 -0.5218,0 -0.9448,0.423 -0.9448,0.9449 0,0.5218 0.423,0.9448 0.9448,0.9448 0.1726,0 0.3256,-0.059 0.4649,-0.1397 l 4.5256,7.8385 c -0.2817,0.1636 -0.48,0.456 -0.48,0.8052 0,0.5218 0.423,0.9449 0.9449,0.9449 0.5218,0 0.9449,-0.4231 0.9449,-0.9449 h 9.0207 c 0,0.5218 0.423,0.9449 0.9449,0.9449 0.5218,0 0.9449,-0.4231 0.9449,-0.9449 0,-0.3492 -0.1983,-0.6416 -0.48,-0.8052 l 4.5255,-7.8385 c 0.1393,0.081 0.2923,0.1397 0.4649,0.1397 0.5218,0 0.9449,-0.423 0.9449,-0.9448 0,-0.5219 -0.4231,-0.9449 -0.9449,-0.9449 z" />
    <path
       sodipodi:nodetypes="ccccssssc"
       id="path901-7-7-0-0-8"
       style="fill:none;stroke:#000000"
       d="m 293.84693,1468.1389 v -95.2494 H 256.4642 L -55.202101,1308.63 H -303.2739 c -4.1747,0 -7.559,3.3066 -7.559,7.4813 v 144.6046 c 0,4.1747 3.3843,7.229 7.559,7.2303 z"
       inkscape:connector-curvature="0" />
    <g
       transform="translate(-282.18128,315.88506)"
       id="text1279"
       style="font-style:normal;font-weight:normal;font-size:40px;line-height:1.25;font-family:sans-serif;letter-spacing:0px;word-spacing:0px;fill:#000000;fill-opacity:1;stroke:none"
       aria-label="アリス">
      <path
         inkscape:connector-curvature="0"
         id="path1281"
         style="font-style:normal;font-variant:normal;font-weight:normal;font-stretch:normal;font-size:53.3333px;line-height:64.252px;font-family:Pristina;-inkscape-font-specification:Pristina;letter-spacing:-4px;fill:none;fill-opacity:1;stroke:#000000;stroke-opacity:1"
         d="m 538.73418,1301.1605 q 0.41667,15.8334 -13.54167,24.5834 l -3.54166,-3.9584 q 12.29166,-6.6666 12.29166,-18.75 v -8.9583 h 4.375 q 1.875,0.2083 0.41667,1.4583 v 5.4167 q 7.5,-5.625 11.45833,-11.0417 l -33.95833,1.25 -0.41667,-4.7916 37.91667,-1.0417 1.45833,-0.4167 3.125,3.75 q 0.625,0.8334 -1.04166,0.625 -6.25,8.125 -15,15.2084 z" />
      <path
         inkscape:connector-curvature="0"
         id="path1283"
         style="font-style:normal;font-variant:normal;font-weight:normal;font-stretch:normal;font-size:53.3333px;line-height:64.252px;font-family:Pristina;-inkscape-font-specification:Pristina;letter-spacing:-4px;fill:none;fill-opacity:1;stroke:#000000;stroke-opacity:1"
         d="m 599.31751,1304.0772 q 0,15.625 -14.58333,22.5 l -4.16667,-3.5417 q 13.75,-6.25 13.95834,-19.1666 v -20.8334 h 4.375 q 2.08333,0.4167 0.41666,1.6667 z m -21.45833,4.5833 h -4.79167 v -23.5416 h 4.58334 q 2.08333,0.2083 0.20833,1.6666 z" />
      <path
         inkscape:connector-curvature="0"
         id="path1285"
         style="font-style:normal;font-variant:normal;font-weight:normal;font-stretch:normal;font-size:53.3333px;line-height:64.252px;font-family:Pristina;-inkscape-font-specification:Pristina;letter-spacing:-4px;fill:none;fill-opacity:1;stroke:#000000;stroke-opacity:1"
         d="m 639.06751,1303.4522 q 8.95833,6.875 17.70833,15.8333 l -4.16666,3.5417 q -8.75,-9.1667 -16.875,-15.4167 -8.125,8.75 -18.54167,15.625 l -3.95833,-3.5416 q 22.08333,-14.375 28.33333,-28.75 l -22.70833,1.4583 -0.625,-5 24.16667,-1.0417 2.49999,-0.625 3.33334,3.3334 q 1.45833,1.4583 -0.83334,1.875 -3.95833,6.875 -8.33333,12.7083 z" />
    </g>
    <path
       inkscape:connector-curvature="0"
       id="path883-7"
       style="fill:none;stroke:#000000"
       d="m 422.44688,1891.7262 c -0.1726,0 -0.3256,0.059 -0.4649,0.1397 0,0 -4.5255,-7.8384 -4.5255,-7.8384 0.2817,-0.1636 0.4801,-0.456 0.4801,-0.8052 0,-0.5219 -0.4231,-0.9449 -0.945,-0.9449 -0.5218,0 -0.9449,0.423 -0.9449,0.9449 0,0 -9.0207,0 -9.0207,0 0,-0.5219 -0.4231,-0.9449 -0.9449,-0.9449 -0.5218,0 -0.9449,0.423 -0.9449,0.9449 0,0.3492 0.1983,0.6415 0.48,0.8051 0,0 -4.5255,7.8384 -4.5255,7.8384 -0.1393,-0.081 -0.2923,-0.1396 -0.4649,-0.1396 -0.5219,0 -0.9449,0.423 -0.9449,0.9449 0,0.5218 0.423,0.9448 0.9449,0.9448 0.1726,0 0.3256,-0.059 0.4648,-0.1396 0,0 4.5256,7.8384 4.5256,7.8384 -0.2817,0.1636 -0.48,0.456 -0.48,0.8052 0,0.5218 0.4231,0.9449 0.9449,0.9449 0.5218,0 0.9449,-0.4231 0.9449,-0.9449 0,0 9.0207,0 9.0207,0 0,0.5218 0.4231,0.9449 0.9449,0.9449 0.5219,0 0.945,-0.4231 0.945,-0.9449 0,-0.3492 -0.1984,-0.6416 -0.4801,-0.8052 0,0 4.5255,-7.8384 4.5255,-7.8384 0.1394,0.081 0.2923,0.1396 0.4649,0.1396 0.5218,0 0.9449,-0.423 0.9449,-0.9448 0,-0.5219 -0.4231,-0.9449 -0.9449,-0.9449 z" />
    <path
       inkscape:connector-curvature="0"
       id="path885-3"
       style="fill:none;stroke:#000000"
       d="m -65.074709,1912.8804 c -0.17261,0 -0.32561,0.059 -0.46485,0.1398 0,0 -4.52555,-7.8385 -4.52555,-7.8385 0.28174,-0.1636 0.48006,-0.456 0.48006,-0.8052 0,-0.5219 -0.42309,-0.9449 -0.9449,-0.9449 -0.5219,0 -0.94491,0.423 -0.94491,0.9449 0,0 -9.02075,0 -9.02075,0 0,-0.5219 -0.4231,-0.9449 -0.94491,-0.9449 -0.52181,0 -0.9449,0.423 -0.9449,0.9449 0,0.3492 0.19832,0.6415 0.48006,0.8051 0,0 -4.52555,7.8385 -4.52555,7.8385 -0.13933,-0.081 -0.29232,-0.1397 -0.46493,-0.1397 -0.52181,0 -0.94482,0.423 -0.94482,0.9449 0,0.5218 0.42301,0.9449 0.94482,0.9449 0.17261,0 0.3256,-0.059 0.46484,-0.1397 0,0 4.52564,7.8385 4.52564,7.8385 -0.28174,0.1635 -0.48006,0.4559 -0.48006,0.8051 0,0.5219 0.42309,0.9449 0.9449,0.9449 0.52181,0 0.94491,-0.423 0.94491,-0.9449 0,0 9.02075,0 9.02075,0 0,0.5219 0.42301,0.9449 0.94491,0.9449 0.52181,0 0.9449,-0.423 0.9449,-0.9449 0,-0.3492 -0.19832,-0.6416 -0.48006,-0.8051 0,0 4.52555,-7.8385 4.52555,-7.8385 0.13933,0.081 0.29224,0.1397 0.46485,0.1397 0.52181,0 0.9449,-0.4231 0.9449,-0.9449 0,-0.5219 -0.42309,-0.9449 -0.9449,-0.9449 z" />
    <path
       sodipodi:nodetypes="ssssccccs"
       id="path901-7-7-0-3"
       style="fill:none;stroke:#000000"
       d="m 423.20038,1995.3798 c 4.1747,0 7.559,-2.8959 7.559,-7.0706 v -107.7064 c 0,-4.1747 -3.3843,-6.9356 -7.559,-6.9356 H 28.132242 l -311.666282,64.2595 h -37.41702 v 57.2604 z"
       inkscape:connector-curvature="0" />
    <path
       sodipodi:nodetypes="ssccssccs"
       inkscape:connector-curvature="0"
       id="path915-5-1-0"
       style="fill:none;stroke:#000000"
       d="m -304.0444,2025.7595 v 0 c -2.8063,0 -5.1024,-2.296 -5.1024,-5.1023 v 0 c 0,-2.8063 2.2961,-5.1024 5.1024,-5.1024 v 0 c 2.8063,0 5.1024,2.2961 5.1024,5.1024 v 0 c 0,2.8063 -2.2961,5.1023 -5.1024,5.1023 z" />
    <path
       sodipodi:nodetypes="ssccssccs"
       inkscape:connector-curvature="0"
       id="path917-0-0-8"
       style="fill:none;stroke:#000000"
       d="m 36.480997,2046.9138 v 0 c -2.8063,0 -5.1023,-2.2961 -5.1023,-5.1024 v 0 c 0,-2.8063 2.296,-5.1024 5.1023,-5.1024 v 0 c 2.8063,0 5.1024,2.2961 5.1024,5.1024 v 0 c 0,2.8063 -2.2961,5.1024 -5.1024,5.1024 z" />
    <path
       sodipodi:nodetypes="ccccssssc"
       id="path901-7-7-2-4"
       style="fill:none;stroke:#000000"
       d="m 281.7744,2085.2744 v -19.6592 H 244.3545 L -67.311803,2001.3557 H -315.3836 c -4.1747,0 -7.559,3.3066 -7.559,7.4813 v 69.0113 c 0,4.1747 3.3843,7.232 7.559,7.2333 z"
       inkscape:connector-curvature="0" />
    <path
       sodipodi:nodetypes="ssccssccs"
       inkscape:connector-curvature="0"
       id="path903-4-9"
       style="fill:none;stroke:#000000"
       d="m -78.41714,2137.4839 h -1e-5 c -2.8063,0 -5.10236,-2.2961 -5.10236,-5.1024 v 0 c 0,-2.8063 2.29606,-5.1024 5.10236,-5.1024 h 1e-5 c 2.8063,0 5.10236,2.2961 5.10236,5.1024 v 0 c 0,2.8063 -2.29606,5.1024 -5.10236,5.1024 z" />
    <path
       sodipodi:nodetypes="ccccccccc"
       inkscape:connector-curvature="0"
       id="path905-3-0"
       style="fill:none;stroke:#000000"
       d="m 409.10446,2116.3296 v 0 c -2.8063,0 -5.1024,-2.296 -5.1024,-5.1023 v 0 c 0,-2.8063 2.2961,-5.1024 5.1024,-5.1024 v 0 c 2.8063,0 5.1023,2.2961 5.1023,5.1024 v 0 c 0,2.8063 -2.296,5.1023 -5.1023,5.1023 z" />
    <path
       sodipodi:nodetypes="ssssccccs"
       id="path901-7-7-8"
       style="fill:none;stroke:#000000"
       d="m 420.44256,2175.8445 c 4.1747,0 7.559,-2.9888 7.559,-7.1635 v -69.8196 c 0,-4.1747 -3.3843,-6.9356 -7.559,-6.9356 H 25.37448 l -311.66623,64.2595 -37.41703,-3e-4 v 19.4667 z"
       inkscape:connector-curvature="0" />
  </g>
</svg>
