  0
SECTION
  2
HEADER
  9
$ACADVER
  1
AC1009
  9
$EXTMIN
 10
0.0
 20
0.0
 30
0.0
  9
$EXTMAX
 10
1000.0
 20
1000.0
 30
0.0
  9
$FILLMODE
 70
 0
  9
$SPLFRAME
 70
 1
  0
ENDSEC
  0
SECTION
  2
TABLES
  0
TABLE
  2
LAYER
 70
1
  0
LAYER
  2
0
 70
     0
 62
     7
  6
CONTINUOUS
  0
ENDTAB
  0
ENDSEC
  0
SECTION
  2
ENTITIES
  0
LINE
  8
0
 62
     0
 10
349.568
 20
160.419
 30
0.0
 11
349.726
 21
160.412
 31
0.0
  0
LINE
  8
0
 62
     0
 10
349.726
 20
160.412
 30
0.0
 11
349.881
 21
160.394
 31
0.0
  0
LINE
  8
0
 62
     0
 10
349.881
 20
160.394
 30
0.0
 11
350.036
 21
160.364
 31
0.0
  0
LINE
  8
0
 62
     0
 10
350.036
 20
160.364
 30
0.0
 11
350.187
 21
160.321
 31
0.0
  0
LINE
  8
0
 62
     0
 10
350.187
 20
160.321
 30
0.0
 11
350.333
 21
160.266
 31
0.0
  0
LINE
  8
0
 62
     0
 10
350.333
 20
160.266
 30
0.0
 11
350.477
 21
160.201
 31
0.0
  0
LINE
  8
0
 62
     0
 10
350.477
 20
160.201
 30
0.0
 11
350.613
 21
160.124
 31
0.0
  0
LINE
  8
0
 62
     0
 10
350.613
 20
160.124
 30
0.0
 11
350.745
 21
160.037
 31
0.0
  0
LINE
  8
0
 62
     0
 10
350.745
 20
160.037
 30
0.0
 11
350.868
 21
159.939
 31
0.0
  0
LINE
  8
0
 62
     0
 10
350.868
 20
159.939
 30
0.0
 11
350.982
 21
159.833
 31
0.0
  0
LINE
  8
0
 62
     0
 10
350.982
 20
159.833
 30
0.0
 11
351.09
 21
159.717
 31
0.0
  0
LINE
  8
0
 62
     0
 10
351.09
 20
159.717
 30
0.0
 11
351.186
 21
159.595
 31
0.0
  0
LINE
  8
0
 62
     0
 10
351.186
 20
159.595
 30
0.0
 11
351.273
 21
159.464
 31
0.0
  0
LINE
  8
0
 62
     0
 10
351.273
 20
159.464
 30
0.0
 11
351.35
 21
159.326
 31
0.0
  0
LINE
  8
0
 62
     0
 10
351.35
 20
159.326
 30
0.0
 11
351.416
 21
159.184
 31
0.0
  0
LINE
  8
0
 62
     0
 10
351.416
 20
159.184
 30
0.0
 11
351.47
 21
159.038
 31
0.0
  0
LINE
  8
0
 62
     0
 10
351.47
 20
159.038
 30
0.0
 11
351.514
 21
158.885
 31
0.0
  0
LINE
  8
0
 62
     0
 10
351.514
 20
158.885
 30
0.0
 11
351.543
 21
158.732
 31
0.0
  0
LINE
  8
0
 62
     0
 10
351.543
 20
158.732
 30
0.0
 11
351.562
 21
158.575
 31
0.0
  0
LINE
  8
0
 62
     0
 10
351.562
 20
158.575
 30
0.0
 11
351.568
 21
158.418
 31
0.0
  0
LINE
  8
0
 62
     0
 10
351.568
 20
158.418
 30
0.0
 11
351.568
 21
2.39779
 31
0.0
  0
LINE
  8
0
 62
     0
 10
351.568
 20
2.39779
 30
0.0
 11
351.562
 21
2.24207
 31
0.0
  0
LINE
  8
0
 62
     0
 10
351.562
 20
2.24207
 30
0.0
 11
351.543
 21
2.08497
 31
0.0
  0
LINE
  8
0
 62
     0
 10
351.543
 20
2.08497
 30
0.0
 11
351.514
 21
1.93201
 31
0.0
  0
LINE
  8
0
 62
     0
 10
351.514
 20
1.93201
 30
0.0
 11
351.47
 21
1.77905
 31
0.0
  0
LINE
  8
0
 62
     0
 10
351.47
 20
1.77905
 30
0.0
 11
351.416
 21
1.63298
 31
0.0
  0
LINE
  8
0
 62
     0
 10
351.416
 20
1.63298
 30
0.0
 11
351.35
 21
1.49104
 31
0.0
  0
LINE
  8
0
 62
     0
 10
351.35
 20
1.49104
 30
0.0
 11
351.273
 21
1.35323
 31
0.0
  0
LINE
  8
0
 62
     0
 10
351.273
 20
1.35323
 30
0.0
 11
351.186
 21
1.22232
 31
0.0
  0
LINE
  8
0
 62
     0
 10
351.186
 20
1.22232
 30
0.0
 11
351.09
 21
1.09968
 31
0.0
  0
LINE
  8
0
 62
     0
 10
351.09
 20
1.09968
 30
0.0
 11
350.982
 21
0.983918
 31
0.0
  0
LINE
  8
0
 62
     0
 10
350.982
 20
0.983918
 30
0.0
 11
350.868
 21
0.87781
 31
0.0
  0
LINE
  8
0
 62
     0
 10
350.868
 20
0.87781
 30
0.0
 11
350.745
 21
0.77997
 31
0.0
  0
LINE
  8
0
 62
     0
 10
350.745
 20
0.77997
 30
0.0
 11
350.613
 21
0.691776
 31
0.0
  0
LINE
  8
0
 62
     0
 10
350.613
 20
0.691776
 30
0.0
 11
350.477
 21
0.615982
 31
0.0
  0
LINE
  8
0
 62
     0
 10
350.477
 20
0.615982
 30
0.0
 11
350.333
 21
0.549836
 31
0.0
  0
LINE
  8
0
 62
     0
 10
350.333
 20
0.549836
 30
0.0
 11
350.187
 21
0.494714
 31
0.0
  0
LINE
  8
0
 62
     0
 10
350.187
 20
0.494714
 30
0.0
 11
350.036
 21
0.453376
 31
0.0
  0
LINE
  8
0
 62
     0
 10
350.036
 20
0.453376
 30
0.0
 11
349.881
 21
0.423058
 31
0.0
  0
LINE
  8
0
 62
     0
 10
349.881
 20
0.423058
 30
0.0
 11
349.726
 21
0.403765
 31
0.0
  0
LINE
  8
0
 62
     0
 10
349.726
 20
0.403765
 30
0.0
 11
349.568
 21
0.396875
 31
0.0
  0
LINE
  8
0
 62
     0
 10
349.568
 20
0.396875
 30
0.0
 11
2.096
 21
0.396875
 31
0.0
  0
LINE
  8
0
 62
     0
 10
2.096
 20
0.396875
 30
0.0
 11
1.9389
 21
0.403765
 31
0.0
  0
LINE
  8
0
 62
     0
 10
1.9389
 20
0.403765
 30
0.0
 11
1.7818
 21
0.423058
 31
0.0
  0
LINE
  8
0
 62
     0
 10
1.7818
 20
0.423058
 30
0.0
 11
1.62884
 21
0.453376
 31
0.0
  0
LINE
  8
0
 62
     0
 10
1.62884
 20
0.453376
 30
0.0
 11
1.47588
 21
0.494714
 31
0.0
  0
LINE
  8
0
 62
     0
 10
1.47588
 20
0.494714
 30
0.0
 11
1.32981
 21
0.549836
 31
0.0
  0
LINE
  8
0
 62
     0
 10
1.32981
 20
0.549836
 30
0.0
 11
1.18787
 21
0.615982
 31
0.0
  0
LINE
  8
0
 62
     0
 10
1.18787
 20
0.615982
 30
0.0
 11
1.05006
 21
0.691776
 31
0.0
  0
LINE
  8
0
 62
     0
 10
1.05006
 20
0.691776
 30
0.0
 11
0.919152
 21
0.77997
 31
0.0
  0
LINE
  8
0
 62
     0
 10
0.919152
 20
0.77997
 30
0.0
 11
0.796505
 21
0.87781
 31
0.0
  0
LINE
  8
0
 62
     0
 10
0.796505
 20
0.87781
 30
0.0
 11
0.680752
 21
0.983918
 31
0.0
  0
LINE
  8
0
 62
     0
 10
0.680752
 20
0.983918
 30
0.0
 11
0.574643
 21
1.09968
 31
0.0
  0
LINE
  8
0
 62
     0
 10
0.574643
 20
1.09968
 30
0.0
 11
0.4768
 21
1.22232
 31
0.0
  0
LINE
  8
0
 62
     0
 10
0.4768
 20
1.22232
 30
0.0
 11
0.389985
 21
1.35323
 31
0.0
  0
LINE
  8
0
 62
     0
 10
0.389985
 20
1.35323
 30
0.0
 11
0.312815
 21
1.49104
 31
0.0
  0
LINE
  8
0
 62
     0
 10
0.312815
 20
1.49104
 30
0.0
 11
0.248047
 21
1.63298
 31
0.0
  0
LINE
  8
0
 62
     0
 10
0.248047
 20
1.63298
 30
0.0
 11
0.192925
 21
1.77905
 31
0.0
  0
LINE
  8
0
 62
     0
 10
0.192925
 20
1.77905
 30
0.0
 11
0.150206
 21
1.93201
 31
0.0
  0
LINE
  8
0
 62
     0
 10
0.150206
 20
1.93201
 30
0.0
 11
0.119889
 21
2.08497
 31
0.0
  0
LINE
  8
0
 62
     0
 10
0.119889
 20
2.08497
 30
0.0
 11
0.101975
 21
2.24207
 31
0.0
  0
LINE
  8
0
 62
     0
 10
0.101975
 20
2.24207
 30
0.0
 11
0.0950846
 21
2.39779
 31
0.0
  0
LINE
  8
0
 62
     0
 10
0.0950846
 20
2.39779
 30
0.0
 11
0.0950846
 21
158.418
 31
0.0
  0
LINE
  8
0
 62
     0
 10
0.0950846
 20
158.418
 30
0.0
 11
0.101975
 21
158.575
 31
0.0
  0
LINE
  8
0
 62
     0
 10
0.101975
 20
158.575
 30
0.0
 11
0.119889
 21
158.732
 31
0.0
  0
LINE
  8
0
 62
     0
 10
0.119889
 20
158.732
 30
0.0
 11
0.150206
 21
158.885
 31
0.0
  0
LINE
  8
0
 62
     0
 10
0.150206
 20
158.885
 30
0.0
 11
0.192925
 21
159.038
 31
0.0
  0
LINE
  8
0
 62
     0
 10
0.192925
 20
159.038
 30
0.0
 11
0.248047
 21
159.184
 31
0.0
  0
LINE
  8
0
 62
     0
 10
0.248047
 20
159.184
 30
0.0
 11
0.312815
 21
159.326
 31
0.0
  0
LINE
  8
0
 62
     0
 10
0.312815
 20
159.326
 30
0.0
 11
0.389985
 21
159.464
 31
0.0
  0
LINE
  8
0
 62
     0
 10
0.389985
 20
159.464
 30
0.0
 11
0.4768
 21
159.595
 31
0.0
  0
LINE
  8
0
 62
     0
 10
0.4768
 20
159.595
 30
0.0
 11
0.574643
 21
159.717
 31
0.0
  0
LINE
  8
0
 62
     0
 10
0.574643
 20
159.717
 30
0.0
 11
0.680752
 21
159.833
 31
0.0
  0
LINE
  8
0
 62
     0
 10
0.680752
 20
159.833
 30
0.0
 11
0.796505
 21
159.939
 31
0.0
  0
LINE
  8
0
 62
     0
 10
0.796505
 20
159.939
 30
0.0
 11
0.919152
 21
160.037
 31
0.0
  0
LINE
  8
0
 62
     0
 10
0.919152
 20
160.037
 30
0.0
 11
1.05006
 21
160.124
 31
0.0
  0
LINE
  8
0
 62
     0
 10
1.05006
 20
160.124
 30
0.0
 11
1.18787
 21
160.201
 31
0.0
  0
LINE
  8
0
 62
     0
 10
1.18787
 20
160.201
 30
0.0
 11
1.32981
 21
160.266
 31
0.0
  0
LINE
  8
0
 62
     0
 10
1.32981
 20
160.266
 30
0.0
 11
1.47588
 21
160.321
 31
0.0
  0
LINE
  8
0
 62
     0
 10
1.47588
 20
160.321
 30
0.0
 11
1.62884
 21
160.364
 31
0.0
  0
LINE
  8
0
 62
     0
 10
1.62884
 20
160.364
 30
0.0
 11
1.7818
 21
160.394
 31
0.0
  0
LINE
  8
0
 62
     0
 10
1.7818
 20
160.394
 30
0.0
 11
1.9389
 21
160.412
 31
0.0
  0
LINE
  8
0
 62
     0
 10
1.9389
 20
160.412
 30
0.0
 11
2.096
 21
160.419
 31
0.0
  0
LINE
  8
0
 62
     0
 10
2.096
 20
160.419
 30
0.0
 11
349.568
 21
160.419
 31
0.0
  0
LINE
  8
0
 62
     0
 10
164.546
 20
16.9237
 30
0.0
 11
164.546
 21
15.9232
 31
0.0
  0
LINE
  8
0
 62
     0
 10
164.546
 20
15.9232
 30
0.0
 11
163.745
 21
15.9232
 31
0.0
  0
LINE
  8
0
 62
     0
 10
163.745
 20
15.9232
 30
0.0
 11
163.745
 21
12.824
 31
0.0
  0
LINE
  8
0
 62
     0
 10
163.745
 20
12.824
 30
0.0
 11
164.546
 21
12.824
 31
0.0
  0
LINE
  8
0
 62
     0
 10
164.546
 20
12.824
 30
0.0
 11
164.546
 21
7.02388
 31
0.0
  0
LINE
  8
0
 62
     0
 10
164.546
 20
7.02388
 30
0.0
 11
163.745
 21
7.02388
 31
0.0
  0
LINE
  8
0
 62
     0
 10
163.745
 20
7.02388
 30
0.0
 11
163.745
 21
3.92328
 31
0.0
  0
LINE
  8
0
 62
     0
 10
163.745
 20
3.92328
 30
0.0
 11
164.546
 21
3.92328
 31
0.0
  0
LINE
  8
0
 62
     0
 10
164.546
 20
3.92328
 30
0.0
 11
164.546
 21
2.92282
 31
0.0
  0
LINE
  8
0
 62
     0
 10
164.546
 20
2.92282
 30
0.0
 11
178.545
 21
2.92282
 31
0.0
  0
LINE
  8
0
 62
     0
 10
178.545
 20
2.92282
 30
0.0
 11
178.545
 21
3.92328
 31
0.0
  0
LINE
  8
0
 62
     0
 10
178.545
 20
3.92328
 30
0.0
 11
179.346
 21
3.92328
 31
0.0
  0
LINE
  8
0
 62
     0
 10
179.346
 20
3.92328
 30
0.0
 11
179.346
 21
7.02388
 31
0.0
  0
LINE
  8
0
 62
     0
 10
179.346
 20
7.02388
 30
0.0
 11
178.545
 21
7.02388
 31
0.0
  0
LINE
  8
0
 62
     0
 10
178.545
 20
7.02388
 30
0.0
 11
178.545
 21
12.824
 31
0.0
  0
LINE
  8
0
 62
     0
 10
178.545
 20
12.824
 30
0.0
 11
179.346
 21
12.824
 31
0.0
  0
LINE
  8
0
 62
     0
 10
179.346
 20
12.824
 30
0.0
 11
179.346
 21
15.9232
 31
0.0
  0
LINE
  8
0
 62
     0
 10
179.346
 20
15.9232
 30
0.0
 11
178.545
 21
15.9232
 31
0.0
  0
LINE
  8
0
 62
     0
 10
178.545
 20
15.9232
 30
0.0
 11
178.545
 21
16.9237
 31
0.0
  0
LINE
  8
0
 62
     0
 10
178.545
 20
16.9237
 30
0.0
 11
164.546
 21
16.9237
 31
0.0
  0
LINE
  8
0
 62
     0
 10
145.496
 20
16.9237
 30
0.0
 11
145.496
 21
15.9232
 31
0.0
  0
LINE
  8
0
 62
     0
 10
145.496
 20
15.9232
 30
0.0
 11
144.695
 21
15.9232
 31
0.0
  0
LINE
  8
0
 62
     0
 10
144.695
 20
15.9232
 30
0.0
 11
144.695
 21
12.824
 31
0.0
  0
LINE
  8
0
 62
     0
 10
144.695
 20
12.824
 30
0.0
 11
145.496
 21
12.824
 31
0.0
  0
LINE
  8
0
 62
     0
 10
145.496
 20
12.824
 30
0.0
 11
145.496
 21
7.02388
 31
0.0
  0
LINE
  8
0
 62
     0
 10
145.496
 20
7.02388
 30
0.0
 11
144.695
 21
7.02388
 31
0.0
  0
LINE
  8
0
 62
     0
 10
144.695
 20
7.02388
 30
0.0
 11
144.695
 21
3.92328
 31
0.0
  0
LINE
  8
0
 62
     0
 10
144.695
 20
3.92328
 30
0.0
 11
145.496
 21
3.92328
 31
0.0
  0
LINE
  8
0
 62
     0
 10
145.496
 20
3.92328
 30
0.0
 11
145.496
 21
2.92282
 31
0.0
  0
LINE
  8
0
 62
     0
 10
145.496
 20
2.92282
 30
0.0
 11
159.495
 21
2.92282
 31
0.0
  0
LINE
  8
0
 62
     0
 10
159.495
 20
2.92282
 30
0.0
 11
159.495
 21
3.92328
 31
0.0
  0
LINE
  8
0
 62
     0
 10
159.495
 20
3.92328
 30
0.0
 11
160.296
 21
3.92328
 31
0.0
  0
LINE
  8
0
 62
     0
 10
160.296
 20
3.92328
 30
0.0
 11
160.296
 21
7.02388
 31
0.0
  0
LINE
  8
0
 62
     0
 10
160.296
 20
7.02388
 30
0.0
 11
159.495
 21
7.02388
 31
0.0
  0
LINE
  8
0
 62
     0
 10
159.495
 20
7.02388
 30
0.0
 11
159.495
 21
12.824
 31
0.0
  0
LINE
  8
0
 62
     0
 10
159.495
 20
12.824
 30
0.0
 11
160.296
 21
12.824
 31
0.0
  0
LINE
  8
0
 62
     0
 10
160.296
 20
12.824
 30
0.0
 11
160.296
 21
15.9232
 31
0.0
  0
LINE
  8
0
 62
     0
 10
160.296
 20
15.9232
 30
0.0
 11
159.495
 21
15.9232
 31
0.0
  0
LINE
  8
0
 62
     0
 10
159.495
 20
15.9232
 30
0.0
 11
159.495
 21
16.9237
 31
0.0
  0
LINE
  8
0
 62
     0
 10
159.495
 20
16.9237
 30
0.0
 11
145.496
 21
16.9237
 31
0.0
  0
LINE
  8
0
 62
     0
 10
126.446
 20
16.9237
 30
0.0
 11
126.446
 21
15.9232
 31
0.0
  0
LINE
  8
0
 62
     0
 10
126.446
 20
15.9232
 30
0.0
 11
125.644
 21
15.9232
 31
0.0
  0
LINE
  8
0
 62
     0
 10
125.644
 20
15.9232
 30
0.0
 11
125.644
 21
12.824
 31
0.0
  0
LINE
  8
0
 62
     0
 10
125.644
 20
12.824
 30
0.0
 11
126.446
 21
12.824
 31
0.0
  0
LINE
  8
0
 62
     0
 10
126.446
 20
12.824
 30
0.0
 11
126.446
 21
7.02388
 31
0.0
  0
LINE
  8
0
 62
     0
 10
126.446
 20
7.02388
 30
0.0
 11
125.644
 21
7.02388
 31
0.0
  0
LINE
  8
0
 62
     0
 10
125.644
 20
7.02388
 30
0.0
 11
125.644
 21
3.92328
 31
0.0
  0
LINE
  8
0
 62
     0
 10
125.644
 20
3.92328
 30
0.0
 11
126.446
 21
3.92328
 31
0.0
  0
LINE
  8
0
 62
     0
 10
126.446
 20
3.92328
 30
0.0
 11
126.446
 21
2.92282
 31
0.0
  0
LINE
  8
0
 62
     0
 10
126.446
 20
2.92282
 30
0.0
 11
140.445
 21
2.92282
 31
0.0
  0
LINE
  8
0
 62
     0
 10
140.445
 20
2.92282
 30
0.0
 11
140.445
 21
3.92328
 31
0.0
  0
LINE
  8
0
 62
     0
 10
140.445
 20
3.92328
 30
0.0
 11
141.246
 21
3.92328
 31
0.0
  0
LINE
  8
0
 62
     0
 10
141.246
 20
3.92328
 30
0.0
 11
141.246
 21
7.02388
 31
0.0
  0
LINE
  8
0
 62
     0
 10
141.246
 20
7.02388
 30
0.0
 11
140.445
 21
7.02388
 31
0.0
  0
LINE
  8
0
 62
     0
 10
140.445
 20
7.02388
 30
0.0
 11
140.445
 21
12.824
 31
0.0
  0
LINE
  8
0
 62
     0
 10
140.445
 20
12.824
 30
0.0
 11
141.246
 21
12.824
 31
0.0
  0
LINE
  8
0
 62
     0
 10
141.246
 20
12.824
 30
0.0
 11
141.246
 21
15.9232
 31
0.0
  0
LINE
  8
0
 62
     0
 10
141.246
 20
15.9232
 30
0.0
 11
140.445
 21
15.9232
 31
0.0
  0
LINE
  8
0
 62
     0
 10
140.445
 20
15.9232
 30
0.0
 11
140.445
 21
16.9237
 31
0.0
  0
LINE
  8
0
 62
     0
 10
140.445
 20
16.9237
 30
0.0
 11
126.446
 21
16.9237
 31
0.0
  0
LINE
  8
0
 62
     0
 10
198.771
 20
39.9108
 30
0.0
 11
199.442
 21
36.7524
 31
0.0
  0
LINE
  8
0
 62
     0
 10
199.442
 20
36.7524
 30
0.0
 11
197.951
 21
36.4352
 31
0.0
  0
LINE
  8
0
 62
     0
 10
197.951
 20
36.4352
 30
0.0
 11
197.826
 21
37.0237
 31
0.0
  0
LINE
  8
0
 62
     0
 10
197.826
 20
37.0237
 30
0.0
 11
198.608
 21
37.1891
 31
0.0
  0
LINE
  8
0
 62
     0
 10
198.608
 20
37.1891
 30
0.0
 11
197.963
 21
40.2209
 31
0.0
  0
LINE
  8
0
 62
     0
 10
197.963
 20
40.2209
 30
0.0
 11
197.182
 21
40.054
 31
0.0
  0
LINE
  8
0
 62
     0
 10
197.182
 20
40.054
 30
0.0
 11
196.974
 21
41.0326
 31
0.0
  0
LINE
  8
0
 62
     0
 10
196.974
 20
41.0326
 30
0.0
 11
183.279
 21
38.1222
 31
0.0
  0
LINE
  8
0
 62
     0
 10
183.279
 20
38.1222
 30
0.0
 11
183.487
 21
37.1436
 31
0.0
  0
LINE
  8
0
 62
     0
 10
183.487
 20
37.1436
 30
0.0
 11
182.704
 21
36.9768
 31
0.0
  0
LINE
  8
0
 62
     0
 10
182.704
 20
36.9768
 30
0.0
 11
183.349
 21
33.9452
 31
0.0
  0
LINE
  8
0
 62
     0
 10
183.349
 20
33.9452
 30
0.0
 11
184.132
 21
34.112
 31
0.0
  0
LINE
  8
0
 62
     0
 10
184.132
 20
34.112
 30
0.0
 11
184.256
 21
33.5249
 31
0.0
  0
LINE
  8
0
 62
     0
 10
184.256
 20
33.5249
 30
0.0
 11
182.765
 21
33.208
 31
0.0
  0
LINE
  8
0
 62
     0
 10
182.765
 20
33.208
 30
0.0
 11
182.094
 21
36.3679
 31
0.0
  0
LINE
  8
0
 62
     0
 10
182.094
 20
36.3679
 30
0.0
 11
175.49
 21
34.9636
 31
0.0
  0
LINE
  8
0
 62
     0
 10
175.49
 20
34.9636
 30
0.0
 11
176.163
 21
31.8037
 31
0.0
  0
LINE
  8
0
 62
     0
 10
176.163
 20
31.8037
 30
0.0
 11
175.355
 21
31.6329
 31
0.0
  0
LINE
  8
0
 62
     0
 10
175.355
 20
31.6329
 30
0.0
 11
175.937
 21
28.8933
 31
0.0
  0
LINE
  8
0
 62
     0
 10
175.937
 20
28.8933
 30
0.0
 11
176.744
 21
29.0656
 31
0.0
  0
LINE
  8
0
 62
     0
 10
176.744
 20
29.0656
 30
0.0
 11
178.048
 21
22.9319
 31
0.0
  0
LINE
  8
0
 62
     0
 10
178.048
 20
22.9319
 30
0.0
 11
179.736
 21
23.2916
 31
0.0
  0
LINE
  8
0
 62
     0
 10
179.736
 20
23.2916
 30
0.0
 11
179.984
 21
22.1175
 31
0.0
  0
LINE
  8
0
 62
     0
 10
179.984
 20
22.1175
 30
0.0
 11
183.213
 21
22.8038
 31
0.0
  0
LINE
  8
0
 62
     0
 10
183.213
 20
22.8038
 30
0.0
 11
182.964
 21
23.9779
 31
0.0
  0
LINE
  8
0
 62
     0
 10
182.964
 20
23.9779
 30
0.0
 11
184.65
 21
24.3348
 31
0.0
  0
LINE
  8
0
 62
     0
 10
184.65
 20
24.3348
 30
0.0
 11
183.721
 21
28.7087
 31
0.0
  0
LINE
  8
0
 62
     0
 10
183.721
 20
28.7087
 30
0.0
 11
185.213
 21
29.0256
 31
0.0
  0
LINE
  8
0
 62
     0
 10
185.213
 20
29.0256
 30
0.0
 11
185.338
 21
28.4386
 31
0.0
  0
LINE
  8
0
 62
     0
 10
185.338
 20
28.4386
 30
0.0
 11
184.555
 21
28.2718
 31
0.0
  0
LINE
  8
0
 62
     0
 10
184.555
 20
28.2718
 30
0.0
 11
185.2
 21
25.2388
 31
0.0
  0
LINE
  8
0
 62
     0
 10
185.2
 20
25.2388
 30
0.0
 11
185.983
 21
25.4069
 31
0.0
  0
LINE
  8
0
 62
     0
 10
185.983
 20
25.4069
 30
0.0
 11
186.189
 21
24.4271
 31
0.0
  0
LINE
  8
0
 62
     0
 10
186.189
 20
24.4271
 30
0.0
 11
199.885
 21
27.3389
 31
0.0
  0
LINE
  8
0
 62
     0
 10
199.885
 20
27.3389
 30
0.0
 11
199.676
 21
28.3159
 31
0.0
  0
LINE
  8
0
 62
     0
 10
199.676
 20
28.3159
 30
0.0
 11
200.459
 21
28.4841
 31
0.0
  0
LINE
  8
0
 62
     0
 10
200.459
 20
28.4841
 30
0.0
 11
199.814
 21
31.5157
 31
0.0
  0
LINE
  8
0
 62
     0
 10
199.814
 20
31.5157
 30
0.0
 11
199.032
 21
31.349
 31
0.0
  0
LINE
  8
0
 62
     0
 10
199.032
 20
31.349
 30
0.0
 11
198.906
 21
31.936
 31
0.0
  0
LINE
  8
0
 62
     0
 10
198.906
 20
31.936
 30
0.0
 11
200.399
 21
32.253
 31
0.0
  0
LINE
  8
0
 62
     0
 10
200.399
 20
32.253
 30
0.0
 11
201.327
 21
27.8805
 31
0.0
  0
LINE
  8
0
 62
     0
 10
201.327
 20
27.8805
 30
0.0
 11
203.015
 21
28.2388
 31
0.0
  0
LINE
  8
0
 62
     0
 10
203.015
 20
28.2388
 30
0.0
 11
203.265
 21
27.0661
 31
0.0
  0
LINE
  8
0
 62
     0
 10
203.265
 20
27.0661
 30
0.0
 11
206.492
 21
27.7509
 31
0.0
  0
LINE
  8
0
 62
     0
 10
206.492
 20
27.7509
 30
0.0
 11
206.244
 21
28.925
 31
0.0
  0
LINE
  8
0
 62
     0
 10
206.244
 20
28.925
 30
0.0
 11
207.931
 21
29.2847
 31
0.0
  0
LINE
  8
0
 62
     0
 10
207.931
 20
29.2847
 30
0.0
 11
206.626
 21
35.4171
 31
0.0
  0
LINE
  8
0
 62
     0
 10
206.626
 20
35.4171
 30
0.0
 11
207.433
 21
35.5879
 31
0.0
  0
LINE
  8
0
 62
     0
 10
207.433
 20
35.5879
 30
0.0
 11
206.852
 21
38.3275
 31
0.0
  0
LINE
  8
0
 62
     0
 10
206.852
 20
38.3275
 30
0.0
 11
206.044
 21
38.155
 31
0.0
  0
LINE
  8
0
 62
     0
 10
206.044
 20
38.155
 30
0.0
 11
205.373
 21
41.3149
 31
0.0
  0
LINE
  8
0
 62
     0
 10
205.373
 20
41.3149
 30
0.0
 11
198.771
 21
39.9108
 31
0.0
  0
LINE
  8
0
 62
     0
 10
111.155
 20
43.3116
 30
0.0
 11
109.469
 21
43.67
 31
0.0
  0
LINE
  8
0
 62
     0
 10
109.469
 20
43.67
 30
0.0
 11
108.165
 21
37.5377
 31
0.0
  0
LINE
  8
0
 62
     0
 10
108.165
 20
37.5377
 30
0.0
 11
107.357
 21
37.7102
 31
0.0
  0
LINE
  8
0
 62
     0
 10
107.357
 20
37.7102
 30
0.0
 11
106.776
 21
34.9705
 31
0.0
  0
LINE
  8
0
 62
     0
 10
106.776
 20
34.9705
 30
0.0
 11
107.582
 21
34.7996
 31
0.0
  0
LINE
  8
0
 62
     0
 10
107.582
 20
34.7996
 30
0.0
 11
106.911
 21
31.6398
 31
0.0
  0
LINE
  8
0
 62
     0
 10
106.911
 20
31.6398
 30
0.0
 11
113.513
 21
30.2369
 31
0.0
  0
LINE
  8
0
 62
     0
 10
113.513
 20
30.2369
 30
0.0
 11
114.186
 21
33.3954
 31
0.0
  0
LINE
  8
0
 62
     0
 10
114.186
 20
33.3954
 30
0.0
 11
115.677
 21
33.0784
 31
0.0
  0
LINE
  8
0
 62
     0
 10
115.677
 20
33.0784
 30
0.0
 11
115.551
 21
32.4914
 31
0.0
  0
LINE
  8
0
 62
     0
 10
115.551
 20
32.4914
 30
0.0
 11
114.77
 21
32.6581
 31
0.0
  0
LINE
  8
0
 62
     0
 10
114.77
 20
32.6581
 30
0.0
 11
114.125
 21
29.6251
 31
0.0
  0
LINE
  8
0
 62
     0
 10
114.125
 20
29.6251
 30
0.0
 11
114.908
 21
29.4597
 31
0.0
  0
LINE
  8
0
 62
     0
 10
114.908
 20
29.4597
 30
0.0
 11
114.7
 21
28.4813
 31
0.0
  0
LINE
  8
0
 62
     0
 10
114.7
 20
28.4813
 30
0.0
 11
128.393
 21
25.5709
 31
0.0
  0
LINE
  8
0
 62
     0
 10
128.393
 20
25.5709
 30
0.0
 11
128.601
 21
26.5479
 31
0.0
  0
LINE
  8
0
 62
     0
 10
128.601
 20
26.5479
 30
0.0
 11
129.384
 21
26.3826
 31
0.0
  0
LINE
  8
0
 62
     0
 10
129.384
 20
26.3826
 30
0.0
 11
130.029
 21
29.4142
 31
0.0
  0
LINE
  8
0
 62
     0
 10
130.029
 20
29.4142
 30
0.0
 11
129.246
 21
29.581
 31
0.0
  0
LINE
  8
0
 62
     0
 10
129.246
 20
29.581
 30
0.0
 11
129.372
 21
30.168
 31
0.0
  0
LINE
  8
0
 62
     0
 10
129.372
 20
30.168
 30
0.0
 11
130.863
 21
29.8511
 31
0.0
  0
LINE
  8
0
 62
     0
 10
130.863
 20
29.8511
 30
0.0
 11
130.19
 21
26.6912
 31
0.0
  0
LINE
  8
0
 62
     0
 10
130.19
 20
26.6912
 30
0.0
 11
136.794
 21
25.287
 31
0.0
  0
LINE
  8
0
 62
     0
 10
136.794
 20
25.287
 30
0.0
 11
137.465
 21
28.4468
 31
0.0
  0
LINE
  8
0
 62
     0
 10
137.465
 20
28.4468
 30
0.0
 11
138.271
 21
28.2759
 31
0.0
  0
LINE
  8
0
 62
     0
 10
138.271
 20
28.2759
 30
0.0
 11
138.854
 21
31.0141
 31
0.0
  0
LINE
  8
0
 62
     0
 10
138.854
 20
31.0141
 30
0.0
 11
138.048
 21
31.1864
 31
0.0
  0
LINE
  8
0
 62
     0
 10
138.048
 20
31.1864
 30
0.0
 11
139.35
 21
37.32
 31
0.0
  0
LINE
  8
0
 62
     0
 10
139.35
 20
37.32
 30
0.0
 11
137.663
 21
37.677
 31
0.0
  0
LINE
  8
0
 62
     0
 10
137.663
 20
37.677
 30
0.0
 11
137.913
 21
38.8511
 31
0.0
  0
LINE
  8
0
 62
     0
 10
137.913
 20
38.8511
 30
0.0
 11
134.685
 21
39.5372
 31
0.0
  0
LINE
  8
0
 62
     0
 10
134.685
 20
39.5372
 30
0.0
 11
134.436
 21
38.3632
 31
0.0
  0
LINE
  8
0
 62
     0
 10
134.436
 20
38.3632
 30
0.0
 11
132.749
 21
38.723
 31
0.0
  0
LINE
  8
0
 62
     0
 10
132.749
 20
38.723
 30
0.0
 11
131.819
 21
34.3504
 31
0.0
  0
LINE
  8
0
 62
     0
 10
131.819
 20
34.3504
 30
0.0
 11
130.327
 21
34.6673
 31
0.0
  0
LINE
  8
0
 62
     0
 10
130.327
 20
34.6673
 30
0.0
 11
130.452
 21
35.2557
 31
0.0
  0
LINE
  8
0
 62
     0
 10
130.452
 20
35.2557
 30
0.0
 11
131.235
 21
35.089
 31
0.0
  0
LINE
  8
0
 62
     0
 10
131.235
 20
35.089
 30
0.0
 11
131.878
 21
38.1208
 31
0.0
  0
LINE
  8
0
 62
     0
 10
131.878
 20
38.1208
 30
0.0
 11
131.097
 21
38.2859
 31
0.0
  0
LINE
  8
0
 62
     0
 10
131.097
 20
38.2859
 30
0.0
 11
131.305
 21
39.2645
 31
0.0
  0
LINE
  8
0
 62
     0
 10
131.305
 20
39.2645
 30
0.0
 11
117.61
 21
42.1749
 31
0.0
  0
LINE
  8
0
 62
     0
 10
117.61
 20
42.1749
 30
0.0
 11
117.402
 21
41.1977
 31
0.0
  0
LINE
  8
0
 62
     0
 10
117.402
 20
41.1977
 30
0.0
 11
116.619
 21
41.3632
 31
0.0
  0
LINE
  8
0
 62
     0
 10
116.619
 20
41.3632
 30
0.0
 11
115.976
 21
38.3314
 31
0.0
  0
LINE
  8
0
 62
     0
 10
115.976
 20
38.3314
 30
0.0
 11
116.757
 21
38.1649
 31
0.0
  0
LINE
  8
0
 62
     0
 10
116.757
 20
38.1649
 30
0.0
 11
116.633
 21
37.5779
 31
0.0
  0
LINE
  8
0
 62
     0
 10
116.633
 20
37.5779
 30
0.0
 11
115.142
 21
37.8961
 31
0.0
  0
LINE
  8
0
 62
     0
 10
115.142
 20
37.8961
 30
0.0
 11
116.071
 21
42.2674
 31
0.0
  0
LINE
  8
0
 62
     0
 10
116.071
 20
42.2674
 30
0.0
 11
114.384
 21
42.6268
 31
0.0
  0
LINE
  8
0
 62
     0
 10
114.384
 20
42.6268
 30
0.0
 11
114.633
 21
43.7995
 31
0.0
  0
LINE
  8
0
 62
     0
 10
114.633
 20
43.7995
 30
0.0
 11
111.406
 21
44.486
 31
0.0
  0
LINE
  8
0
 62
     0
 10
111.406
 20
44.486
 30
0.0
 11
111.155
 21
43.3116
 31
0.0
  0
LINE
  8
0
 62
     0
 10
213.559
 20
44.559
 30
0.0
 11
213.767
 21
43.5804
 31
0.0
  0
LINE
  8
0
 62
     0
 10
213.767
 20
43.5804
 30
0.0
 11
212.984
 21
43.4139
 31
0.0
  0
LINE
  8
0
 62
     0
 10
212.984
 20
43.4139
 30
0.0
 11
213.629
 21
40.3821
 31
0.0
  0
LINE
  8
0
 62
     0
 10
213.629
 20
40.3821
 30
0.0
 11
214.412
 21
40.5476
 31
0.0
  0
LINE
  8
0
 62
     0
 10
214.412
 20
40.5476
 30
0.0
 11
215.617
 21
34.874
 31
0.0
  0
LINE
  8
0
 62
     0
 10
215.617
 20
34.874
 30
0.0
 11
214.835
 21
34.7086
 31
0.0
  0
LINE
  8
0
 62
     0
 10
214.835
 20
34.7086
 30
0.0
 11
215.48
 21
31.6756
 31
0.0
  0
LINE
  8
0
 62
     0
 10
215.48
 20
31.6756
 30
0.0
 11
216.261
 21
31.8423
 31
0.0
  0
LINE
  8
0
 62
     0
 10
216.261
 20
31.8423
 30
0.0
 11
216.469
 21
30.8639
 31
0.0
  0
LINE
  8
0
 62
     0
 10
216.469
 20
30.8639
 30
0.0
 11
230.164
 21
33.7743
 31
0.0
  0
LINE
  8
0
 62
     0
 10
230.164
 20
33.7743
 30
0.0
 11
229.956
 21
34.7555
 31
0.0
  0
LINE
  8
0
 62
     0
 10
229.956
 20
34.7555
 30
0.0
 11
230.739
 21
34.9195
 31
0.0
  0
LINE
  8
0
 62
     0
 10
230.739
 20
34.9195
 30
0.0
 11
230.094
 21
37.9511
 31
0.0
  0
LINE
  8
0
 62
     0
 10
230.094
 20
37.9511
 30
0.0
 11
229.311
 21
37.7857
 31
0.0
  0
LINE
  8
0
 62
     0
 10
229.311
 20
37.7857
 30
0.0
 11
228.105
 21
43.458
 31
0.0
  0
LINE
  8
0
 62
     0
 10
228.105
 20
43.458
 30
0.0
 11
228.888
 21
43.6245
 31
0.0
  0
LINE
  8
0
 62
     0
 10
228.888
 20
43.6245
 30
0.0
 11
228.243
 21
46.6577
 31
0.0
  0
LINE
  8
0
 62
     0
 10
228.243
 20
46.6577
 30
0.0
 11
227.461
 21
46.4908
 31
0.0
  0
LINE
  8
0
 62
     0
 10
227.461
 20
46.4908
 30
0.0
 11
227.254
 21
47.468
 31
0.0
  0
LINE
  8
0
 62
     0
 10
227.254
 20
47.468
 30
0.0
 11
213.559
 21
44.559
 31
0.0
  0
LINE
  8
0
 62
     0
 10
87.1224
 20
47.6331
 30
0.0
 11
86.341
 21
47.8
 31
0.0
  0
LINE
  8
0
 62
     0
 10
86.341
 20
47.8
 30
0.0
 11
85.6961
 21
44.7668
 31
0.0
  0
LINE
  8
0
 62
     0
 10
85.6961
 20
44.7668
 30
0.0
 11
86.4789
 21
44.6017
 31
0.0
  0
LINE
  8
0
 62
     0
 10
86.4789
 20
44.6017
 30
0.0
 11
85.2731
 21
38.9269
 31
0.0
  0
LINE
  8
0
 62
     0
 10
85.2731
 20
38.9269
 30
0.0
 11
84.4889
 21
39.0948
 31
0.0
  0
LINE
  8
0
 62
     0
 10
84.4889
 20
39.0948
 30
0.0
 11
83.8454
 21
36.062
 31
0.0
  0
LINE
  8
0
 62
     0
 10
83.8454
 20
36.062
 30
0.0
 11
84.6282
 21
35.8951
 31
0.0
  0
LINE
  8
0
 62
     0
 10
84.6282
 20
35.8951
 30
0.0
 11
84.4201
 21
34.9167
 31
0.0
  0
LINE
  8
0
 62
     0
 10
84.4201
 20
34.9167
 30
0.0
 11
98.1135
 21
32.0063
 31
0.0
  0
LINE
  8
0
 62
     0
 10
98.1135
 20
32.0063
 30
0.0
 11
98.3216
 21
32.9847
 31
0.0
  0
LINE
  8
0
 62
     0
 10
98.3216
 20
32.9847
 30
0.0
 11
99.1044
 21
32.818
 31
0.0
  0
LINE
  8
0
 62
     0
 10
99.1044
 20
32.818
 30
0.0
 11
99.7479
 21
35.851
 31
0.0
  0
LINE
  8
0
 62
     0
 10
99.7479
 20
35.851
 30
0.0
 11
98.9665
 21
36.0179
 31
0.0
  0
LINE
  8
0
 62
     0
 10
98.9665
 20
36.0179
 30
0.0
 11
100.172
 21
41.6899
 31
0.0
  0
LINE
  8
0
 62
     0
 10
100.172
 20
41.6899
 30
0.0
 11
100.955
 21
41.5244
 31
0.0
  0
LINE
  8
0
 62
     0
 10
100.955
 20
41.5244
 30
0.0
 11
101.6
 21
44.5562
 31
0.0
  0
LINE
  8
0
 62
     0
 10
101.6
 20
44.5562
 30
0.0
 11
100.816
 21
44.7227
 31
0.0
  0
LINE
  8
0
 62
     0
 10
100.816
 20
44.7227
 30
0.0
 11
101.024
 21
45.6999
 31
0.0
  0
LINE
  8
0
 62
     0
 10
101.024
 20
45.6999
 30
0.0
 11
87.3305
 21
48.6117
 31
0.0
  0
LINE
  8
0
 62
     0
 10
87.3305
 20
48.6117
 30
0.0
 11
87.1224
 21
47.6331
 31
0.0
  0
LINE
  8
0
 62
     0
 10
335.043
 20
48.3567
 30
0.0
 11
335.043
 21
47.3562
 31
0.0
  0
LINE
  8
0
 62
     0
 10
335.043
 20
47.3562
 30
0.0
 11
334.243
 21
47.3562
 31
0.0
  0
LINE
  8
0
 62
     0
 10
334.243
 20
47.3562
 30
0.0
 11
334.243
 21
44.257
 31
0.0
  0
LINE
  8
0
 62
     0
 10
334.243
 20
44.257
 30
0.0
 11
335.043
 21
44.257
 31
0.0
  0
LINE
  8
0
 62
     0
 10
335.043
 20
44.257
 30
0.0
 11
335.043
 21
38.457
 31
0.0
  0
LINE
  8
0
 62
     0
 10
335.043
 20
38.457
 30
0.0
 11
334.243
 21
38.457
 31
0.0
  0
LINE
  8
0
 62
     0
 10
334.243
 20
38.457
 30
0.0
 11
334.243
 21
35.3564
 31
0.0
  0
LINE
  8
0
 62
     0
 10
334.243
 20
35.3564
 30
0.0
 11
335.043
 21
35.3564
 31
0.0
  0
LINE
  8
0
 62
     0
 10
335.043
 20
35.3564
 30
0.0
 11
335.043
 21
34.3559
 31
0.0
  0
LINE
  8
0
 62
     0
 10
335.043
 20
34.3559
 30
0.0
 11
349.042
 21
34.3559
 31
0.0
  0
LINE
  8
0
 62
     0
 10
349.042
 20
34.3559
 30
0.0
 11
349.042
 21
35.3564
 31
0.0
  0
LINE
  8
0
 62
     0
 10
349.042
 20
35.3564
 30
0.0
 11
349.843
 21
35.3564
 31
0.0
  0
LINE
  8
0
 62
     0
 10
349.843
 20
35.3564
 30
0.0
 11
349.843
 21
38.457
 31
0.0
  0
LINE
  8
0
 62
     0
 10
349.843
 20
38.457
 30
0.0
 11
349.042
 21
38.457
 31
0.0
  0
LINE
  8
0
 62
     0
 10
349.042
 20
38.457
 30
0.0
 11
349.042
 21
44.257
 31
0.0
  0
LINE
  8
0
 62
     0
 10
349.042
 20
44.257
 30
0.0
 11
349.843
 21
44.257
 31
0.0
  0
LINE
  8
0
 62
     0
 10
349.843
 20
44.257
 30
0.0
 11
349.843
 21
47.3562
 31
0.0
  0
LINE
  8
0
 62
     0
 10
349.843
 20
47.3562
 30
0.0
 11
349.042
 21
47.3562
 31
0.0
  0
LINE
  8
0
 62
     0
 10
349.042
 20
47.3562
 30
0.0
 11
349.042
 21
48.3567
 31
0.0
  0
LINE
  8
0
 62
     0
 10
349.042
 20
48.3567
 30
0.0
 11
335.043
 21
48.3567
 31
0.0
  0
LINE
  8
0
 62
     0
 10
315.993
 20
48.3567
 30
0.0
 11
315.993
 21
47.3562
 31
0.0
  0
LINE
  8
0
 62
     0
 10
315.993
 20
47.3562
 30
0.0
 11
315.193
 21
47.3562
 31
0.0
  0
LINE
  8
0
 62
     0
 10
315.193
 20
47.3562
 30
0.0
 11
315.193
 21
44.257
 31
0.0
  0
LINE
  8
0
 62
     0
 10
315.193
 20
44.257
 30
0.0
 11
315.993
 21
44.257
 31
0.0
  0
LINE
  8
0
 62
     0
 10
315.993
 20
44.257
 30
0.0
 11
315.993
 21
38.457
 31
0.0
  0
LINE
  8
0
 62
     0
 10
315.993
 20
38.457
 30
0.0
 11
315.193
 21
38.457
 31
0.0
  0
LINE
  8
0
 62
     0
 10
315.193
 20
38.457
 30
0.0
 11
315.193
 21
35.3564
 31
0.0
  0
LINE
  8
0
 62
     0
 10
315.193
 20
35.3564
 30
0.0
 11
315.993
 21
35.3564
 31
0.0
  0
LINE
  8
0
 62
     0
 10
315.993
 20
35.3564
 30
0.0
 11
315.993
 21
34.3559
 31
0.0
  0
LINE
  8
0
 62
     0
 10
315.993
 20
34.3559
 30
0.0
 11
329.992
 21
34.3559
 31
0.0
  0
LINE
  8
0
 62
     0
 10
329.992
 20
34.3559
 30
0.0
 11
329.992
 21
35.3564
 31
0.0
  0
LINE
  8
0
 62
     0
 10
329.992
 20
35.3564
 30
0.0
 11
330.793
 21
35.3564
 31
0.0
  0
LINE
  8
0
 62
     0
 10
330.793
 20
35.3564
 30
0.0
 11
330.793
 21
38.457
 31
0.0
  0
LINE
  8
0
 62
     0
 10
330.793
 20
38.457
 30
0.0
 11
329.992
 21
38.457
 31
0.0
  0
LINE
  8
0
 62
     0
 10
329.992
 20
38.457
 30
0.0
 11
329.992
 21
44.257
 31
0.0
  0
LINE
  8
0
 62
     0
 10
329.992
 20
44.257
 30
0.0
 11
330.793
 21
44.257
 31
0.0
  0
LINE
  8
0
 62
     0
 10
330.793
 20
44.257
 30
0.0
 11
330.793
 21
47.3562
 31
0.0
  0
LINE
  8
0
 62
     0
 10
330.793
 20
47.3562
 30
0.0
 11
329.992
 21
47.3562
 31
0.0
  0
LINE
  8
0
 62
     0
 10
329.992
 20
47.3562
 30
0.0
 11
329.992
 21
48.3567
 31
0.0
  0
LINE
  8
0
 62
     0
 10
329.992
 20
48.3567
 30
0.0
 11
315.993
 21
48.3567
 31
0.0
  0
LINE
  8
0
 62
     0
 10
296.943
 20
48.3567
 30
0.0
 11
296.943
 21
47.3562
 31
0.0
  0
LINE
  8
0
 62
     0
 10
296.943
 20
47.3562
 30
0.0
 11
296.143
 21
47.3562
 31
0.0
  0
LINE
  8
0
 62
     0
 10
296.143
 20
47.3562
 30
0.0
 11
296.143
 21
44.257
 31
0.0
  0
LINE
  8
0
 62
     0
 10
296.143
 20
44.257
 30
0.0
 11
296.943
 21
44.257
 31
0.0
  0
LINE
  8
0
 62
     0
 10
296.943
 20
44.257
 30
0.0
 11
296.943
 21
38.457
 31
0.0
  0
LINE
  8
0
 62
     0
 10
296.943
 20
38.457
 30
0.0
 11
296.143
 21
38.457
 31
0.0
  0
LINE
  8
0
 62
     0
 10
296.143
 20
38.457
 30
0.0
 11
296.143
 21
35.3564
 31
0.0
  0
LINE
  8
0
 62
     0
 10
296.143
 20
35.3564
 30
0.0
 11
296.943
 21
35.3564
 31
0.0
  0
LINE
  8
0
 62
     0
 10
296.943
 20
35.3564
 30
0.0
 11
296.943
 21
34.3559
 31
0.0
  0
LINE
  8
0
 62
     0
 10
296.943
 20
34.3559
 30
0.0
 11
310.942
 21
34.3559
 31
0.0
  0
LINE
  8
0
 62
     0
 10
310.942
 20
34.3559
 30
0.0
 11
310.942
 21
35.3564
 31
0.0
  0
LINE
  8
0
 62
     0
 10
310.942
 20
35.3564
 30
0.0
 11
311.743
 21
35.3564
 31
0.0
  0
LINE
  8
0
 62
     0
 10
311.743
 20
35.3564
 30
0.0
 11
311.743
 21
38.457
 31
0.0
  0
LINE
  8
0
 62
     0
 10
311.743
 20
38.457
 30
0.0
 11
310.942
 21
38.457
 31
0.0
  0
LINE
  8
0
 62
     0
 10
310.942
 20
38.457
 30
0.0
 11
310.942
 21
44.257
 31
0.0
  0
LINE
  8
0
 62
     0
 10
310.942
 20
44.257
 30
0.0
 11
311.743
 21
44.257
 31
0.0
  0
LINE
  8
0
 62
     0
 10
311.743
 20
44.257
 30
0.0
 11
311.743
 21
47.3562
 31
0.0
  0
LINE
  8
0
 62
     0
 10
311.743
 20
47.3562
 30
0.0
 11
310.942
 21
47.3562
 31
0.0
  0
LINE
  8
0
 62
     0
 10
310.942
 20
47.3562
 30
0.0
 11
310.942
 21
48.3567
 31
0.0
  0
LINE
  8
0
 62
     0
 10
310.942
 20
48.3567
 30
0.0
 11
296.943
 21
48.3567
 31
0.0
  0
LINE
  8
0
 62
     0
 10
236.852
 20
49.5088
 30
0.0
 11
237.06
 21
48.5302
 31
0.0
  0
LINE
  8
0
 62
     0
 10
237.06
 20
48.5302
 30
0.0
 11
236.277
 21
48.3651
 31
0.0
  0
LINE
  8
0
 62
     0
 10
236.277
 20
48.3651
 30
0.0
 11
236.922
 21
45.3319
 31
0.0
  0
LINE
  8
0
 62
     0
 10
236.922
 20
45.3319
 30
0.0
 11
237.703
 21
45.4988
 31
0.0
  0
LINE
  8
0
 62
     0
 10
237.703
 20
45.4988
 30
0.0
 11
238.909
 21
39.8254
 31
0.0
  0
LINE
  8
0
 62
     0
 10
238.909
 20
39.8254
 30
0.0
 11
238.126
 21
39.66
 31
0.0
  0
LINE
  8
0
 62
     0
 10
238.126
 20
39.66
 30
0.0
 11
238.771
 21
36.6268
 31
0.0
  0
LINE
  8
0
 62
     0
 10
238.771
 20
36.6268
 30
0.0
 11
239.554
 21
36.7937
 31
0.0
  0
LINE
  8
0
 62
     0
 10
239.554
 20
36.7937
 30
0.0
 11
239.762
 21
35.814
 31
0.0
  0
LINE
  8
0
 62
     0
 10
239.762
 20
35.814
 30
0.0
 11
253.456
 21
38.7255
 31
0.0
  0
LINE
  8
0
 62
     0
 10
253.456
 20
38.7255
 30
0.0
 11
253.249
 21
39.7041
 31
0.0
  0
LINE
  8
0
 62
     0
 10
253.249
 20
39.7041
 30
0.0
 11
254.03
 21
39.8709
 31
0.0
  0
LINE
  8
0
 62
     0
 10
254.03
 20
39.8709
 30
0.0
 11
253.387
 21
42.9024
 31
0.0
  0
LINE
  8
0
 62
     0
 10
253.387
 20
42.9024
 30
0.0
 11
252.603
 21
42.7359
 31
0.0
  0
LINE
  8
0
 62
     0
 10
252.603
 20
42.7359
 30
0.0
 11
251.397
 21
48.4092
 31
0.0
  0
LINE
  8
0
 62
     0
 10
251.397
 20
48.4092
 30
0.0
 11
252.18
 21
48.5757
 31
0.0
  0
LINE
  8
0
 62
     0
 10
252.18
 20
48.5757
 30
0.0
 11
251.536
 21
51.6089
 31
0.0
  0
LINE
  8
0
 62
     0
 10
251.536
 20
51.6089
 30
0.0
 11
250.753
 21
51.4406
 31
0.0
  0
LINE
  8
0
 62
     0
 10
250.753
 20
51.4406
 30
0.0
 11
250.545
 21
52.4192
 31
0.0
  0
LINE
  8
0
 62
     0
 10
250.545
 20
52.4192
 30
0.0
 11
236.852
 21
49.5088
 31
0.0
  0
LINE
  8
0
 62
     0
 10
66.1596
 20
52.0898
 30
0.0
 11
65.3768
 21
52.2552
 31
0.0
  0
LINE
  8
0
 62
     0
 10
65.3768
 20
52.2552
 30
0.0
 11
64.7319
 21
49.2234
 31
0.0
  0
LINE
  8
0
 62
     0
 10
64.7319
 20
49.2234
 30
0.0
 11
65.5161
 21
49.0569
 31
0.0
  0
LINE
  8
0
 62
     0
 10
65.5161
 20
49.0569
 30
0.0
 11
64.3089
 21
43.3836
 31
0.0
  0
LINE
  8
0
 62
     0
 10
64.3089
 20
43.3836
 30
0.0
 11
63.5261
 21
43.5501
 31
0.0
  0
LINE
  8
0
 62
     0
 10
63.5261
 20
43.5501
 30
0.0
 11
62.8826
 21
40.5172
 31
0.0
  0
LINE
  8
0
 62
     0
 10
62.8826
 20
40.5172
 30
0.0
 11
63.664
 21
40.3518
 31
0.0
  0
LINE
  8
0
 62
     0
 10
63.664
 20
40.3518
 30
0.0
 11
63.4559
 21
39.3732
 31
0.0
  0
LINE
  8
0
 62
     0
 10
63.4559
 20
39.3732
 30
0.0
 11
77.1507
 21
36.4628
 31
0.0
  0
LINE
  8
0
 62
     0
 10
77.1507
 20
36.4628
 30
0.0
 11
77.3589
 21
37.44
 31
0.0
  0
LINE
  8
0
 62
     0
 10
77.3589
 20
37.44
 30
0.0
 11
78.1417
 21
37.2745
 31
0.0
  0
LINE
  8
0
 62
     0
 10
78.1417
 20
37.2745
 30
0.0
 11
78.7852
 21
40.3063
 31
0.0
  0
LINE
  8
0
 62
     0
 10
78.7852
 20
40.3063
 30
0.0
 11
78.0038
 21
40.4731
 31
0.0
  0
LINE
  8
0
 62
     0
 10
78.0038
 20
40.4731
 30
0.0
 11
79.2095
 21
46.1465
 31
0.0
  0
LINE
  8
0
 62
     0
 10
79.2095
 20
46.1465
 30
0.0
 11
79.991
 21
45.9796
 31
0.0
  0
LINE
  8
0
 62
     0
 10
79.991
 20
45.9796
 30
0.0
 11
80.6358
 21
49.0128
 31
0.0
  0
LINE
  8
0
 62
     0
 10
80.6358
 20
49.0128
 30
0.0
 11
79.853
 21
49.1779
 31
0.0
  0
LINE
  8
0
 62
     0
 10
79.853
 20
49.1779
 30
0.0
 11
80.0612
 21
50.1565
 31
0.0
  0
LINE
  8
0
 62
     0
 10
80.0612
 20
50.1565
 30
0.0
 11
66.3677
 21
53.0669
 31
0.0
  0
LINE
  8
0
 62
     0
 10
66.3677
 20
53.0669
 30
0.0
 11
66.1596
 21
52.0898
 31
0.0
  0
LINE
  8
0
 62
     0
 10
160.685
 20
52.7939
 30
0.0
 11
160.893
 21
51.8171
 31
0.0
  0
LINE
  8
0
 62
     0
 10
160.893
 20
51.8171
 30
0.0
 11
160.11
 21
51.6502
 31
0.0
  0
LINE
  8
0
 62
     0
 10
160.11
 20
51.6502
 30
0.0
 11
160.755
 21
48.6184
 31
0.0
  0
LINE
  8
0
 62
     0
 10
160.755
 20
48.6184
 30
0.0
 11
161.538
 21
48.7839
 31
0.0
  0
LINE
  8
0
 62
     0
 10
161.538
 20
48.7839
 30
0.0
 11
162.743
 21
43.1119
 31
0.0
  0
LINE
  8
0
 62
     0
 10
162.743
 20
43.1119
 30
0.0
 11
161.961
 21
42.9436
 31
0.0
  0
LINE
  8
0
 62
     0
 10
161.961
 20
42.9436
 30
0.0
 11
162.606
 21
39.9122
 31
0.0
  0
LINE
  8
0
 62
     0
 10
162.606
 20
39.9122
 30
0.0
 11
163.387
 21
40.0787
 31
0.0
  0
LINE
  8
0
 62
     0
 10
163.387
 20
40.0787
 30
0.0
 11
163.595
 21
39.1005
 31
0.0
  0
LINE
  8
0
 62
     0
 10
163.595
 20
39.1005
 30
0.0
 11
177.29
 21
42.0109
 31
0.0
  0
LINE
  8
0
 62
     0
 10
177.29
 20
42.0109
 30
0.0
 11
177.082
 21
42.9891
 31
0.0
  0
LINE
  8
0
 62
     0
 10
177.082
 20
42.9891
 30
0.0
 11
177.865
 21
43.156
 31
0.0
  0
LINE
  8
0
 62
     0
 10
177.865
 20
43.156
 30
0.0
 11
177.22
 21
46.1892
 31
0.0
  0
LINE
  8
0
 62
     0
 10
177.22
 20
46.1892
 30
0.0
 11
176.437
 21
46.0223
 31
0.0
  0
LINE
  8
0
 62
     0
 10
176.437
 20
46.0223
 30
0.0
 11
175.231
 21
51.6957
 31
0.0
  0
LINE
  8
0
 62
     0
 10
175.231
 20
51.6957
 30
0.0
 11
176.014
 21
51.8612
 31
0.0
  0
LINE
  8
0
 62
     0
 10
176.014
 20
51.8612
 30
0.0
 11
175.369
 21
54.8929
 31
0.0
  0
LINE
  8
0
 62
     0
 10
175.369
 20
54.8929
 30
0.0
 11
174.587
 21
54.7275
 31
0.0
  0
LINE
  8
0
 62
     0
 10
174.587
 20
54.7275
 30
0.0
 11
174.378
 21
55.7057
 31
0.0
  0
LINE
  8
0
 62
     0
 10
174.378
 20
55.7057
 30
0.0
 11
160.685
 21
52.7939
 31
0.0
  0
LINE
  8
0
 62
     0
 10
266.938
 20
53.1178
 30
0.0
 11
266.938
 21
52.1187
 31
0.0
  0
LINE
  8
0
 62
     0
 10
266.938
 20
52.1187
 30
0.0
 11
266.139
 21
52.1187
 31
0.0
  0
LINE
  8
0
 62
     0
 10
266.139
 20
52.1187
 30
0.0
 11
266.139
 21
49.0181
 31
0.0
  0
LINE
  8
0
 62
     0
 10
266.139
 20
49.0181
 30
0.0
 11
266.938
 21
49.0181
 31
0.0
  0
LINE
  8
0
 62
     0
 10
266.938
 20
49.0181
 30
0.0
 11
266.938
 21
43.2181
 31
0.0
  0
LINE
  8
0
 62
     0
 10
266.938
 20
43.2181
 30
0.0
 11
266.139
 21
43.2181
 31
0.0
  0
LINE
  8
0
 62
     0
 10
266.139
 20
43.2181
 30
0.0
 11
266.139
 21
40.1189
 31
0.0
  0
LINE
  8
0
 62
     0
 10
266.139
 20
40.1189
 30
0.0
 11
266.938
 21
40.1189
 31
0.0
  0
LINE
  8
0
 62
     0
 10
266.938
 20
40.1189
 30
0.0
 11
266.938
 21
39.1185
 31
0.0
  0
LINE
  8
0
 62
     0
 10
266.938
 20
39.1185
 30
0.0
 11
280.938
 21
39.1185
 31
0.0
  0
LINE
  8
0
 62
     0
 10
280.938
 20
39.1185
 30
0.0
 11
280.938
 21
40.1189
 31
0.0
  0
LINE
  8
0
 62
     0
 10
280.938
 20
40.1189
 30
0.0
 11
281.739
 21
40.1189
 31
0.0
  0
LINE
  8
0
 62
     0
 10
281.739
 20
40.1189
 30
0.0
 11
281.739
 21
43.2181
 31
0.0
  0
LINE
  8
0
 62
     0
 10
281.739
 20
43.2181
 30
0.0
 11
280.938
 21
43.2181
 31
0.0
  0
LINE
  8
0
 62
     0
 10
280.938
 20
43.2181
 30
0.0
 11
280.938
 21
49.0181
 31
0.0
  0
LINE
  8
0
 62
     0
 10
280.938
 20
49.0181
 30
0.0
 11
281.739
 21
49.0181
 31
0.0
  0
LINE
  8
0
 62
     0
 10
281.739
 20
49.0181
 30
0.0
 11
281.739
 21
52.1187
 31
0.0
  0
LINE
  8
0
 62
     0
 10
281.739
 20
52.1187
 30
0.0
 11
280.938
 21
52.1187
 31
0.0
  0
LINE
  8
0
 62
     0
 10
280.938
 20
52.1187
 30
0.0
 11
280.938
 21
53.1178
 31
0.0
  0
LINE
  8
0
 62
     0
 10
280.938
 20
53.1178
 30
0.0
 11
266.938
 21
53.1178
 31
0.0
  0
LINE
  8
0
 62
     0
 10
33.5759
 20
53.1178
 30
0.0
 11
33.5759
 21
52.1187
 31
0.0
  0
LINE
  8
0
 62
     0
 10
33.5759
 20
52.1187
 30
0.0
 11
32.7767
 21
52.1187
 31
0.0
  0
LINE
  8
0
 62
     0
 10
32.7767
 20
52.1187
 30
0.0
 11
32.7767
 21
49.0181
 31
0.0
  0
LINE
  8
0
 62
     0
 10
32.7767
 20
49.0181
 30
0.0
 11
33.5759
 21
49.0181
 31
0.0
  0
LINE
  8
0
 62
     0
 10
33.5759
 20
49.0181
 30
0.0
 11
33.5759
 21
43.2181
 31
0.0
  0
LINE
  8
0
 62
     0
 10
33.5759
 20
43.2181
 30
0.0
 11
32.7767
 21
43.2181
 31
0.0
  0
LINE
  8
0
 62
     0
 10
32.7767
 20
43.2181
 30
0.0
 11
32.7767
 21
40.1189
 31
0.0
  0
LINE
  8
0
 62
     0
 10
32.7767
 20
40.1189
 30
0.0
 11
33.5759
 21
40.1189
 31
0.0
  0
LINE
  8
0
 62
     0
 10
33.5759
 20
40.1189
 30
0.0
 11
33.5759
 21
39.1185
 31
0.0
  0
LINE
  8
0
 62
     0
 10
33.5759
 20
39.1185
 30
0.0
 11
47.5767
 21
39.1185
 31
0.0
  0
LINE
  8
0
 62
     0
 10
47.5767
 20
39.1185
 30
0.0
 11
47.5767
 21
40.1189
 31
0.0
  0
LINE
  8
0
 62
     0
 10
47.5767
 20
40.1189
 30
0.0
 11
48.3761
 21
40.1189
 31
0.0
  0
LINE
  8
0
 62
     0
 10
48.3761
 20
40.1189
 30
0.0
 11
48.3761
 21
43.2181
 31
0.0
  0
LINE
  8
0
 62
     0
 10
48.3761
 20
43.2181
 30
0.0
 11
47.5767
 21
43.2181
 31
0.0
  0
LINE
  8
0
 62
     0
 10
47.5767
 20
43.2181
 30
0.0
 11
47.5767
 21
49.0181
 31
0.0
  0
LINE
  8
0
 62
     0
 10
47.5767
 20
49.0181
 30
0.0
 11
48.3761
 21
49.0181
 31
0.0
  0
LINE
  8
0
 62
     0
 10
48.3761
 20
49.0181
 30
0.0
 11
48.3761
 21
52.1187
 31
0.0
  0
LINE
  8
0
 62
     0
 10
48.3761
 20
52.1187
 30
0.0
 11
47.5767
 21
52.1187
 31
0.0
  0
LINE
  8
0
 62
     0
 10
47.5767
 20
52.1187
 30
0.0
 11
47.5767
 21
53.1178
 31
0.0
  0
LINE
  8
0
 62
     0
 10
47.5767
 20
53.1178
 30
0.0
 11
33.5759
 21
53.1178
 31
0.0
  0
LINE
  8
0
 62
     0
 10
7.38216
 20
53.1178
 30
0.0
 11
7.38216
 21
52.1187
 31
0.0
  0
LINE
  8
0
 62
     0
 10
7.38216
 20
52.1187
 30
0.0
 11
6.5829
 21
52.1187
 31
0.0
  0
LINE
  8
0
 62
     0
 10
6.5829
 20
52.1187
 30
0.0
 11
6.5829
 21
49.0181
 31
0.0
  0
LINE
  8
0
 62
     0
 10
6.5829
 20
49.0181
 30
0.0
 11
7.38216
 21
49.0181
 31
0.0
  0
LINE
  8
0
 62
     0
 10
7.38216
 20
49.0181
 30
0.0
 11
7.38216
 21
43.2181
 31
0.0
  0
LINE
  8
0
 62
     0
 10
7.38216
 20
43.2181
 30
0.0
 11
6.5829
 21
43.2181
 31
0.0
  0
LINE
  8
0
 62
     0
 10
6.5829
 20
43.2181
 30
0.0
 11
6.5829
 21
40.1189
 31
0.0
  0
LINE
  8
0
 62
     0
 10
6.5829
 20
40.1189
 30
0.0
 11
7.38216
 21
40.1189
 31
0.0
  0
LINE
  8
0
 62
     0
 10
7.38216
 20
40.1189
 30
0.0
 11
7.38216
 21
39.1185
 31
0.0
  0
LINE
  8
0
 62
     0
 10
7.38216
 20
39.1185
 30
0.0
 11
21.383
 21
39.1185
 31
0.0
  0
LINE
  8
0
 62
     0
 10
21.383
 20
39.1185
 30
0.0
 11
21.383
 21
40.1189
 31
0.0
  0
LINE
  8
0
 62
     0
 10
21.383
 20
40.1189
 30
0.0
 11
22.1823
 21
40.1189
 31
0.0
  0
LINE
  8
0
 62
     0
 10
22.1823
 20
40.1189
 30
0.0
 11
22.1823
 21
43.2181
 31
0.0
  0
LINE
  8
0
 62
     0
 10
22.1823
 20
43.2181
 30
0.0
 11
21.383
 21
43.2181
 31
0.0
  0
LINE
  8
0
 62
     0
 10
21.383
 20
43.2181
 30
0.0
 11
21.383
 21
49.0181
 31
0.0
  0
LINE
  8
0
 62
     0
 10
21.383
 20
49.0181
 30
0.0
 11
22.1823
 21
49.0181
 31
0.0
  0
LINE
  8
0
 62
     0
 10
22.1823
 20
49.0181
 30
0.0
 11
22.1823
 21
52.1187
 31
0.0
  0
LINE
  8
0
 62
     0
 10
22.1823
 20
52.1187
 30
0.0
 11
21.383
 21
52.1187
 31
0.0
  0
LINE
  8
0
 62
     0
 10
21.383
 20
52.1187
 30
0.0
 11
21.383
 21
53.1178
 31
0.0
  0
LINE
  8
0
 62
     0
 10
21.383
 20
53.1178
 30
0.0
 11
7.38216
 21
53.1178
 31
0.0
  0
LINE
  8
0
 62
     0
 10
179.319
 20
56.7559
 30
0.0
 11
179.527
 21
55.7773
 31
0.0
  0
LINE
  8
0
 62
     0
 10
179.527
 20
55.7773
 30
0.0
 11
178.744
 21
55.6108
 31
0.0
  0
LINE
  8
0
 62
     0
 10
178.744
 20
55.6108
 30
0.0
 11
179.389
 21
52.5791
 31
0.0
  0
LINE
  8
0
 62
     0
 10
179.389
 20
52.5791
 30
0.0
 11
180.17
 21
52.7459
 31
0.0
  0
LINE
  8
0
 62
     0
 10
180.17
 20
52.7459
 30
0.0
 11
181.376
 21
47.0726
 31
0.0
  0
LINE
  8
0
 62
     0
 10
181.376
 20
47.0726
 30
0.0
 11
180.595
 21
46.9057
 31
0.0
  0
LINE
  8
0
 62
     0
 10
180.595
 20
46.9057
 30
0.0
 11
181.238
 21
43.8739
 31
0.0
  0
LINE
  8
0
 62
     0
 10
181.238
 20
43.8739
 30
0.0
 11
182.021
 21
44.0394
 31
0.0
  0
LINE
  8
0
 62
     0
 10
182.021
 20
44.0394
 30
0.0
 11
182.229
 21
43.0611
 31
0.0
  0
LINE
  8
0
 62
     0
 10
182.229
 20
43.0611
 30
0.0
 11
195.924
 21
45.9726
 31
0.0
  0
LINE
  8
0
 62
     0
 10
195.924
 20
45.9726
 30
0.0
 11
195.716
 21
46.9498
 31
0.0
  0
LINE
  8
0
 62
     0
 10
195.716
 20
46.9498
 30
0.0
 11
196.497
 21
47.1166
 31
0.0
  0
LINE
  8
0
 62
     0
 10
196.497
 20
47.1166
 30
0.0
 11
195.854
 21
50.1495
 31
0.0
  0
LINE
  8
0
 62
     0
 10
195.854
 20
50.1495
 30
0.0
 11
195.071
 21
49.983
 31
0.0
  0
LINE
  8
0
 62
     0
 10
195.071
 20
49.983
 30
0.0
 11
193.865
 21
55.6563
 31
0.0
  0
LINE
  8
0
 62
     0
 10
193.865
 20
55.6563
 30
0.0
 11
194.648
 21
55.8229
 31
0.0
  0
LINE
  8
0
 62
     0
 10
194.648
 20
55.8229
 30
0.0
 11
194.003
 21
58.8546
 31
0.0
  0
LINE
  8
0
 62
     0
 10
194.003
 20
58.8546
 30
0.0
 11
193.22
 21
58.6878
 31
0.0
  0
LINE
  8
0
 62
     0
 10
193.22
 20
58.6878
 30
0.0
 11
193.012
 21
59.6664
 31
0.0
  0
LINE
  8
0
 62
     0
 10
193.012
 20
59.6664
 30
0.0
 11
179.319
 21
56.7559
 31
0.0
  0
LINE
  8
0
 62
     0
 10
126.02
 20
58.8409
 30
0.0
 11
125.239
 21
59.0077
 31
0.0
  0
LINE
  8
0
 62
     0
 10
125.239
 20
59.0077
 30
0.0
 11
124.594
 21
55.9745
 31
0.0
  0
LINE
  8
0
 62
     0
 10
124.594
 20
55.9745
 30
0.0
 11
125.378
 21
55.8077
 31
0.0
  0
LINE
  8
0
 62
     0
 10
125.378
 20
55.8077
 30
0.0
 11
124.171
 21
50.1357
 31
0.0
  0
LINE
  8
0
 62
     0
 10
124.171
 20
50.1357
 30
0.0
 11
123.388
 21
50.3012
 31
0.0
  0
LINE
  8
0
 62
     0
 10
123.388
 20
50.3012
 30
0.0
 11
122.745
 21
47.2694
 31
0.0
  0
LINE
  8
0
 62
     0
 10
122.745
 20
47.2694
 30
0.0
 11
123.526
 21
47.1029
 31
0.0
  0
LINE
  8
0
 62
     0
 10
123.526
 20
47.1029
 30
0.0
 11
123.318
 21
46.1243
 31
0.0
  0
LINE
  8
0
 62
     0
 10
123.318
 20
46.1243
 30
0.0
 11
137.013
 21
43.2139
 31
0.0
  0
LINE
  8
0
 62
     0
 10
137.013
 20
43.2139
 30
0.0
 11
137.221
 21
44.1925
 31
0.0
  0
LINE
  8
0
 62
     0
 10
137.221
 20
44.1925
 30
0.0
 11
138.003
 21
44.0256
 31
0.0
  0
LINE
  8
0
 62
     0
 10
138.003
 20
44.0256
 30
0.0
 11
138.647
 21
47.0588
 31
0.0
  0
LINE
  8
0
 62
     0
 10
138.647
 20
47.0588
 30
0.0
 11
137.866
 21
47.2239
 31
0.0
  0
LINE
  8
0
 62
     0
 10
137.866
 20
47.2239
 30
0.0
 11
139.072
 21
52.8973
 31
0.0
  0
LINE
  8
0
 62
     0
 10
139.072
 20
52.8973
 30
0.0
 11
139.853
 21
52.7322
 31
0.0
  0
LINE
  8
0
 62
     0
 10
139.853
 20
52.7322
 30
0.0
 11
140.498
 21
55.7636
 31
0.0
  0
LINE
  8
0
 62
     0
 10
140.498
 20
55.7636
 30
0.0
 11
139.715
 21
55.9304
 31
0.0
  0
LINE
  8
0
 62
     0
 10
139.715
 20
55.9304
 30
0.0
 11
139.923
 21
56.9087
 31
0.0
  0
LINE
  8
0
 62
     0
 10
139.923
 20
56.9087
 30
0.0
 11
126.23
 21
59.8181
 31
0.0
  0
LINE
  8
0
 62
     0
 10
126.23
 20
59.8181
 30
0.0
 11
126.02
 21
58.8409
 31
0.0
  0
LINE
  8
0
 62
     0
 10
197.952
 20
60.7162
 30
0.0
 11
198.161
 21
59.738
 31
0.0
  0
LINE
  8
0
 62
     0
 10
198.161
 20
59.738
 30
0.0
 11
197.378
 21
59.5711
 31
0.0
  0
LINE
  8
0
 62
     0
 10
197.378
 20
59.5711
 30
0.0
 11
198.023
 21
56.5397
 31
0.0
  0
LINE
  8
0
 62
     0
 10
198.023
 20
56.5397
 30
0.0
 11
198.804
 21
56.7062
 31
0.0
  0
LINE
  8
0
 62
     0
 10
198.804
 20
56.7062
 30
0.0
 11
200.01
 21
51.0328
 31
0.0
  0
LINE
  8
0
 62
     0
 10
200.01
 20
51.0328
 30
0.0
 11
199.228
 21
50.8663
 31
0.0
  0
LINE
  8
0
 62
     0
 10
199.228
 20
50.8663
 30
0.0
 11
199.872
 21
47.8345
 31
0.0
  0
LINE
  8
0
 62
     0
 10
199.872
 20
47.8345
 30
0.0
 11
200.656
 21
48
 31
0.0
  0
LINE
  8
0
 62
     0
 10
200.656
 20
48
 30
0.0
 11
200.863
 21
47.0228
 31
0.0
  0
LINE
  8
0
 62
     0
 10
200.863
 20
47.0228
 30
0.0
 11
214.558
 21
49.9332
 31
0.0
  0
LINE
  8
0
 62
     0
 10
214.558
 20
49.9332
 30
0.0
 11
214.35
 21
50.9115
 31
0.0
  0
LINE
  8
0
 62
     0
 10
214.35
 20
50.9115
 30
0.0
 11
215.131
 21
51.0769
 31
0.0
  0
LINE
  8
0
 62
     0
 10
215.131
 20
51.0769
 30
0.0
 11
214.487
 21
54.1101
 31
0.0
  0
LINE
  8
0
 62
     0
 10
214.487
 20
54.1101
 30
0.0
 11
213.705
 21
53.9433
 31
0.0
  0
LINE
  8
0
 62
     0
 10
213.705
 20
53.9433
 30
0.0
 11
212.499
 21
59.6166
 31
0.0
  0
LINE
  8
0
 62
     0
 10
212.499
 20
59.6166
 30
0.0
 11
213.282
 21
59.7835
 31
0.0
  0
LINE
  8
0
 62
     0
 10
213.282
 20
59.7835
 30
0.0
 11
212.637
 21
62.8153
 31
0.0
  0
LINE
  8
0
 62
     0
 10
212.637
 20
62.8153
 30
0.0
 11
211.854
 21
62.6498
 31
0.0
  0
LINE
  8
0
 62
     0
 10
211.854
 20
62.6498
 30
0.0
 11
211.646
 21
63.6266
 31
0.0
  0
LINE
  8
0
 62
     0
 10
211.646
 20
63.6266
 30
0.0
 11
197.952
 21
60.7162
 31
0.0
  0
LINE
  8
0
 62
     0
 10
107.388
 20
62.8015
 30
0.0
 11
106.605
 21
62.968
 31
0.0
  0
LINE
  8
0
 62
     0
 10
106.605
 20
62.968
 30
0.0
 11
105.96
 21
59.9352
 31
0.0
  0
LINE
  8
0
 62
     0
 10
105.96
 20
59.9352
 30
0.0
 11
106.743
 21
59.7697
 31
0.0
  0
LINE
  8
0
 62
     0
 10
106.743
 20
59.7697
 30
0.0
 11
105.537
 21
54.0949
 31
0.0
  0
LINE
  8
0
 62
     0
 10
105.537
 20
54.0949
 30
0.0
 11
104.754
 21
54.2629
 31
0.0
  0
LINE
  8
0
 62
     0
 10
104.754
 20
54.2629
 30
0.0
 11
104.111
 21
51.23
 31
0.0
  0
LINE
  8
0
 62
     0
 10
104.111
 20
51.23
 30
0.0
 11
104.892
 21
51.0632
 31
0.0
  0
LINE
  8
0
 62
     0
 10
104.892
 20
51.0632
 30
0.0
 11
104.684
 21
50.0849
 31
0.0
  0
LINE
  8
0
 62
     0
 10
104.684
 20
50.0849
 30
0.0
 11
118.379
 21
47.1745
 31
0.0
  0
LINE
  8
0
 62
     0
 10
118.379
 20
47.1745
 30
0.0
 11
118.587
 21
48.1528
 31
0.0
  0
LINE
  8
0
 62
     0
 10
118.587
 20
48.1528
 30
0.0
 11
119.37
 21
47.9859
 31
0.0
  0
LINE
  8
0
 62
     0
 10
119.37
 20
47.9859
 30
0.0
 11
120.015
 21
51.0177
 31
0.0
  0
LINE
  8
0
 62
     0
 10
120.015
 20
51.0177
 30
0.0
 11
119.232
 21
51.1859
 31
0.0
  0
LINE
  8
0
 62
     0
 10
119.232
 20
51.1859
 30
0.0
 11
120.438
 21
56.8579
 31
0.0
  0
LINE
  8
0
 62
     0
 10
120.438
 20
56.8579
 30
0.0
 11
121.219
 21
56.6924
 31
0.0
  0
LINE
  8
0
 62
     0
 10
121.219
 20
56.6924
 30
0.0
 11
121.864
 21
59.7242
 31
0.0
  0
LINE
  8
0
 62
     0
 10
121.864
 20
59.7242
 30
0.0
 11
121.081
 21
59.8911
 31
0.0
  0
LINE
  8
0
 62
     0
 10
121.081
 20
59.8911
 30
0.0
 11
121.29
 21
60.8679
 31
0.0
  0
LINE
  8
0
 62
     0
 10
121.29
 20
60.8679
 30
0.0
 11
107.596
 21
63.7798
 31
0.0
  0
LINE
  8
0
 62
     0
 10
107.596
 20
63.7798
 30
0.0
 11
107.388
 21
62.8015
 31
0.0
  0
LINE
  8
0
 62
     0
 10
216.585
 20
64.6769
 30
0.0
 11
216.793
 21
63.6986
 31
0.0
  0
LINE
  8
0
 62
     0
 10
216.793
 20
63.6986
 30
0.0
 11
216.011
 21
63.5332
 31
0.0
  0
LINE
  8
0
 62
     0
 10
216.011
 20
63.5332
 30
0.0
 11
216.655
 21
60.5
 31
0.0
  0
LINE
  8
0
 62
     0
 10
216.655
 20
60.5
 30
0.0
 11
217.438
 21
60.6668
 31
0.0
  0
LINE
  8
0
 62
     0
 10
217.438
 20
60.6668
 30
0.0
 11
218.645
 21
54.9935
 31
0.0
  0
LINE
  8
0
 62
     0
 10
218.645
 20
54.9935
 30
0.0
 11
217.861
 21
54.828
 31
0.0
  0
LINE
  8
0
 62
     0
 10
217.861
 20
54.828
 30
0.0
 11
218.506
 21
51.7948
 31
0.0
  0
LINE
  8
0
 62
     0
 10
218.506
 20
51.7948
 30
0.0
 11
219.288
 21
51.9617
 31
0.0
  0
LINE
  8
0
 62
     0
 10
219.288
 20
51.9617
 30
0.0
 11
219.497
 21
50.9834
 31
0.0
  0
LINE
  8
0
 62
     0
 10
219.497
 20
50.9834
 30
0.0
 11
233.19
 21
53.8939
 31
0.0
  0
LINE
  8
0
 62
     0
 10
233.19
 20
53.8939
 30
0.0
 11
232.982
 21
54.8707
 31
0.0
  0
LINE
  8
0
 62
     0
 10
232.982
 20
54.8707
 30
0.0
 11
233.765
 21
55.039
 31
0.0
  0
LINE
  8
0
 62
     0
 10
233.765
 20
55.039
 30
0.0
 11
233.12
 21
58.0704
 31
0.0
  0
LINE
  8
0
 62
     0
 10
233.12
 20
58.0704
 30
0.0
 11
232.339
 21
57.9039
 31
0.0
  0
LINE
  8
0
 62
     0
 10
232.339
 20
57.9039
 30
0.0
 11
231.133
 21
63.5773
 31
0.0
  0
LINE
  8
0
 62
     0
 10
231.133
 20
63.5773
 30
0.0
 11
231.914
 21
63.7438
 31
0.0
  0
LINE
  8
0
 62
     0
 10
231.914
 20
63.7438
 30
0.0
 11
231.271
 21
66.777
 31
0.0
  0
LINE
  8
0
 62
     0
 10
231.271
 20
66.777
 30
0.0
 11
230.488
 21
66.609
 31
0.0
  0
LINE
  8
0
 62
     0
 10
230.488
 20
66.609
 30
0.0
 11
230.28
 21
67.5873
 31
0.0
  0
LINE
  8
0
 62
     0
 10
230.28
 20
67.5873
 30
0.0
 11
216.585
 21
64.6769
 31
0.0
  0
LINE
  8
0
 62
     0
 10
88.7539
 20
66.7618
 30
0.0
 11
87.9711
 21
66.9286
 31
0.0
  0
LINE
  8
0
 62
     0
 10
87.9711
 20
66.9286
 30
0.0
 11
87.3277
 21
63.8969
 31
0.0
  0
LINE
  8
0
 62
     0
 10
87.3277
 20
63.8969
 30
0.0
 11
88.1091
 21
63.7286
 31
0.0
  0
LINE
  8
0
 62
     0
 10
88.1091
 20
63.7286
 30
0.0
 11
86.9033
 21
58.0566
 31
0.0
  0
LINE
  8
0
 62
     0
 10
86.9033
 20
58.0566
 30
0.0
 11
86.1219
 21
58.2235
 31
0.0
  0
LINE
  8
0
 62
     0
 10
86.1219
 20
58.2235
 30
0.0
 11
85.477
 21
55.1903
 31
0.0
  0
LINE
  8
0
 62
     0
 10
85.477
 20
55.1903
 30
0.0
 11
86.2598
 21
55.0252
 31
0.0
  0
LINE
  8
0
 62
     0
 10
86.2598
 20
55.0252
 30
0.0
 11
86.0517
 21
54.0466
 31
0.0
  0
LINE
  8
0
 62
     0
 10
86.0517
 20
54.0466
 30
0.0
 11
99.7451
 21
51.1348
 31
0.0
  0
LINE
  8
0
 62
     0
 10
99.7451
 20
51.1348
 30
0.0
 11
99.9532
 21
52.1134
 31
0.0
  0
LINE
  8
0
 62
     0
 10
99.9532
 20
52.1134
 30
0.0
 11
100.736
 21
51.9479
 31
0.0
  0
LINE
  8
0
 62
     0
 10
100.736
 20
51.9479
 30
0.0
 11
101.381
 21
54.9797
 31
0.0
  0
LINE
  8
0
 62
     0
 10
101.381
 20
54.9797
 30
0.0
 11
100.598
 21
55.1448
 31
0.0
  0
LINE
  8
0
 62
     0
 10
100.598
 20
55.1448
 30
0.0
 11
101.804
 21
60.8196
 31
0.0
  0
LINE
  8
0
 62
     0
 10
101.804
 20
60.8196
 30
0.0
 11
102.587
 21
60.6531
 31
0.0
  0
LINE
  8
0
 62
     0
 10
102.587
 20
60.6531
 30
0.0
 11
103.23
 21
63.6859
 31
0.0
  0
LINE
  8
0
 62
     0
 10
103.23
 20
63.6859
 30
0.0
 11
102.449
 21
63.8514
 31
0.0
  0
LINE
  8
0
 62
     0
 10
102.449
 20
63.8514
 30
0.0
 11
102.657
 21
64.83
 31
0.0
  0
LINE
  8
0
 62
     0
 10
102.657
 20
64.83
 30
0.0
 11
88.9621
 21
67.7404
 31
0.0
  0
LINE
  8
0
 62
     0
 10
88.9621
 20
67.7404
 30
0.0
 11
88.7539
 21
66.7618
 31
0.0
  0
LINE
  8
0
 62
     0
 10
315.993
 20
67.4067
 30
0.0
 11
315.993
 21
66.4062
 31
0.0
  0
LINE
  8
0
 62
     0
 10
315.993
 20
66.4062
 30
0.0
 11
315.193
 21
66.4062
 31
0.0
  0
LINE
  8
0
 62
     0
 10
315.193
 20
66.4062
 30
0.0
 11
315.193
 21
63.307
 31
0.0
  0
LINE
  8
0
 62
     0
 10
315.193
 20
63.307
 30
0.0
 11
315.993
 21
63.307
 31
0.0
  0
LINE
  8
0
 62
     0
 10
315.993
 20
63.307
 30
0.0
 11
315.993
 21
57.507
 31
0.0
  0
LINE
  8
0
 62
     0
 10
315.993
 20
57.507
 30
0.0
 11
315.193
 21
57.507
 31
0.0
  0
LINE
  8
0
 62
     0
 10
315.193
 20
57.507
 30
0.0
 11
315.193
 21
54.4064
 31
0.0
  0
LINE
  8
0
 62
     0
 10
315.193
 20
54.4064
 30
0.0
 11
315.993
 21
54.4064
 31
0.0
  0
LINE
  8
0
 62
     0
 10
315.993
 20
54.4064
 30
0.0
 11
315.993
 21
53.406
 31
0.0
  0
LINE
  8
0
 62
     0
 10
315.993
 20
53.406
 30
0.0
 11
329.992
 21
53.406
 31
0.0
  0
LINE
  8
0
 62
     0
 10
329.992
 20
53.406
 30
0.0
 11
329.992
 21
54.4064
 31
0.0
  0
LINE
  8
0
 62
     0
 10
329.992
 20
54.4064
 30
0.0
 11
330.793
 21
54.4064
 31
0.0
  0
LINE
  8
0
 62
     0
 10
330.793
 20
54.4064
 30
0.0
 11
330.793
 21
57.507
 31
0.0
  0
LINE
  8
0
 62
     0
 10
330.793
 20
57.507
 30
0.0
 11
329.992
 21
57.507
 31
0.0
  0
LINE
  8
0
 62
     0
 10
329.992
 20
57.507
 30
0.0
 11
329.992
 21
63.307
 31
0.0
  0
LINE
  8
0
 62
     0
 10
329.992
 20
63.307
 30
0.0
 11
330.793
 21
63.307
 31
0.0
  0
LINE
  8
0
 62
     0
 10
330.793
 20
63.307
 30
0.0
 11
330.793
 21
66.4062
 31
0.0
  0
LINE
  8
0
 62
     0
 10
330.793
 20
66.4062
 30
0.0
 11
329.992
 21
66.4062
 31
0.0
  0
LINE
  8
0
 62
     0
 10
329.992
 20
66.4062
 30
0.0
 11
329.992
 21
67.4067
 31
0.0
  0
LINE
  8
0
 62
     0
 10
329.992
 20
67.4067
 30
0.0
 11
315.993
 21
67.4067
 31
0.0
  0
LINE
  8
0
 62
     0
 10
235.22
 20
68.6375
 30
0.0
 11
235.427
 21
67.6589
 31
0.0
  0
LINE
  8
0
 62
     0
 10
235.427
 20
67.6589
 30
0.0
 11
234.646
 21
67.4934
 31
0.0
  0
LINE
  8
0
 62
     0
 10
234.646
 20
67.4934
 30
0.0
 11
235.289
 21
64.462
 31
0.0
  0
LINE
  8
0
 62
     0
 10
235.289
 20
64.462
 30
0.0
 11
236.073
 21
64.6271
 31
0.0
  0
LINE
  8
0
 62
     0
 10
236.073
 20
64.6271
 30
0.0
 11
237.278
 21
58.9538
 31
0.0
  0
LINE
  8
0
 62
     0
 10
237.278
 20
58.9538
 30
0.0
 11
236.496
 21
58.7872
 31
0.0
  0
LINE
  8
0
 62
     0
 10
236.496
 20
58.7872
 30
0.0
 11
237.14
 21
55.7555
 31
0.0
  0
LINE
  8
0
 62
     0
 10
237.14
 20
55.7555
 30
0.0
 11
237.923
 21
55.9209
 31
0.0
  0
LINE
  8
0
 62
     0
 10
237.923
 20
55.9209
 30
0.0
 11
238.131
 21
54.9437
 31
0.0
  0
LINE
  8
0
 62
     0
 10
238.131
 20
54.9437
 30
0.0
 11
251.824
 21
57.8541
 31
0.0
  0
LINE
  8
0
 62
     0
 10
251.824
 20
57.8541
 30
0.0
 11
251.616
 21
58.8328
 31
0.0
  0
LINE
  8
0
 62
     0
 10
251.616
 20
58.8328
 30
0.0
 11
252.399
 21
58.9993
 31
0.0
  0
LINE
  8
0
 62
     0
 10
252.399
 20
58.9993
 30
0.0
 11
251.755
 21
62.031
 31
0.0
  0
LINE
  8
0
 62
     0
 10
251.755
 20
62.031
 30
0.0
 11
250.972
 21
61.8642
 31
0.0
  0
LINE
  8
0
 62
     0
 10
250.972
 20
61.8642
 30
0.0
 11
249.767
 21
67.539
 31
0.0
  0
LINE
  8
0
 62
     0
 10
249.767
 20
67.539
 30
0.0
 11
250.548
 21
67.7044
 31
0.0
  0
LINE
  8
0
 62
     0
 10
250.548
 20
67.7044
 30
0.0
 11
249.905
 21
70.7362
 31
0.0
  0
LINE
  8
0
 62
     0
 10
249.905
 20
70.7362
 30
0.0
 11
249.122
 21
70.5707
 31
0.0
  0
LINE
  8
0
 62
     0
 10
249.122
 20
70.5707
 30
0.0
 11
248.914
 21
71.5479
 31
0.0
  0
LINE
  8
0
 62
     0
 10
248.914
 20
71.5479
 30
0.0
 11
235.22
 21
68.6375
 31
0.0
  0
LINE
  8
0
 62
     0
 10
70.1202
 20
70.7224
 30
0.0
 11
69.3374
 21
70.8889
 31
0.0
  0
LINE
  8
0
 62
     0
 10
69.3374
 20
70.8889
 30
0.0
 11
68.694
 21
67.8575
 31
0.0
  0
LINE
  8
0
 62
     0
 10
68.694
 20
67.8575
 30
0.0
 11
69.4754
 21
67.6906
 31
0.0
  0
LINE
  8
0
 62
     0
 10
69.4754
 20
67.6906
 30
0.0
 11
68.2706
 21
62.0173
 31
0.0
  0
LINE
  8
0
 62
     0
 10
68.2706
 20
62.0173
 30
0.0
 11
67.4882
 21
62.1841
 31
0.0
  0
LINE
  8
0
 62
     0
 10
67.4882
 20
62.1841
 30
0.0
 11
66.8433
 21
59.151
 31
0.0
  0
LINE
  8
0
 62
     0
 10
66.8433
 20
59.151
 30
0.0
 11
67.6257
 21
58.9855
 31
0.0
  0
LINE
  8
0
 62
     0
 10
67.6257
 20
58.9855
 30
0.0
 11
67.4176
 21
58.0072
 31
0.0
  0
LINE
  8
0
 62
     0
 10
67.4176
 20
58.0072
 30
0.0
 11
81.1114
 21
55.0968
 31
0.0
  0
LINE
  8
0
 62
     0
 10
81.1114
 20
55.0968
 30
0.0
 11
81.3195
 21
56.0737
 31
0.0
  0
LINE
  8
0
 62
     0
 10
81.3195
 20
56.0737
 30
0.0
 11
82.102
 21
55.9082
 31
0.0
  0
LINE
  8
0
 62
     0
 10
82.102
 20
55.9082
 30
0.0
 11
82.7472
 21
58.94
 31
0.0
  0
LINE
  8
0
 62
     0
 10
82.7472
 20
58.94
 30
0.0
 11
81.9644
 21
59.1069
 31
0.0
  0
LINE
  8
0
 62
     0
 10
81.9644
 20
59.1069
 30
0.0
 11
83.1702
 21
64.7788
 31
0.0
  0
LINE
  8
0
 62
     0
 10
83.1702
 20
64.7788
 30
0.0
 11
83.953
 21
64.6134
 31
0.0
  0
LINE
  8
0
 62
     0
 10
83.953
 20
64.6134
 30
0.0
 11
84.5979
 21
67.6451
 31
0.0
  0
LINE
  8
0
 62
     0
 10
84.5979
 20
67.6451
 30
0.0
 11
83.8151
 21
67.812
 31
0.0
  0
LINE
  8
0
 62
     0
 10
83.8151
 20
67.812
 30
0.0
 11
84.0232
 21
68.7903
 31
0.0
  0
LINE
  8
0
 62
     0
 10
84.0232
 20
68.7903
 30
0.0
 11
70.328
 21
71.7021
 31
0.0
  0
LINE
  8
0
 62
     0
 10
70.328
 20
71.7021
 30
0.0
 11
70.1202
 21
70.7224
 31
0.0
  0
LINE
  8
0
 62
     0
 10
14.5259
 20
72.1678
 30
0.0
 11
14.5259
 21
71.1687
 31
0.0
  0
LINE
  8
0
 62
     0
 10
14.5259
 20
71.1687
 30
0.0
 11
13.7267
 21
71.1687
 31
0.0
  0
LINE
  8
0
 62
     0
 10
13.7267
 20
71.1687
 30
0.0
 11
13.7267
 21
68.0681
 31
0.0
  0
LINE
  8
0
 62
     0
 10
13.7267
 20
68.0681
 30
0.0
 11
14.5259
 21
68.0681
 31
0.0
  0
LINE
  8
0
 62
     0
 10
14.5259
 20
68.0681
 30
0.0
 11
14.5259
 21
67.4688
 31
0.0
  0
LINE
  8
0
 62
     0
 10
14.5259
 20
67.4688
 30
0.0
 11
13.0018
 21
67.4688
 31
0.0
  0
LINE
  8
0
 62
     0
 10
13.0018
 20
67.4688
 30
0.0
 11
13.0018
 21
70.6988
 31
0.0
  0
LINE
  8
0
 62
     0
 10
13.0018
 20
70.6988
 30
0.0
 11
6.25217
 21
70.6988
 31
0.0
  0
LINE
  8
0
 62
     0
 10
6.25217
 20
70.6988
 30
0.0
 11
6.25217
 21
67.4688
 31
0.0
  0
LINE
  8
0
 62
     0
 10
6.25217
 20
67.4688
 30
0.0
 11
5.42671
 21
67.4688
 31
0.0
  0
LINE
  8
0
 62
     0
 10
5.42671
 20
67.4688
 30
0.0
 11
5.42671
 21
64.6688
 31
0.0
  0
LINE
  8
0
 62
     0
 10
5.42671
 20
64.6688
 30
0.0
 11
6.25217
 21
64.6688
 31
0.0
  0
LINE
  8
0
 62
     0
 10
6.25217
 20
64.6688
 30
0.0
 11
6.25217
 21
58.3985
 31
0.0
  0
LINE
  8
0
 62
     0
 10
6.25217
 20
58.3985
 30
0.0
 11
7.97609
 21
58.3985
 31
0.0
  0
LINE
  8
0
 62
     0
 10
7.97609
 20
58.3985
 30
0.0
 11
7.97609
 21
57.1983
 31
0.0
  0
LINE
  8
0
 62
     0
 10
7.97609
 20
57.1983
 30
0.0
 11
11.2765
 21
57.1983
 31
0.0
  0
LINE
  8
0
 62
     0
 10
11.2765
 20
57.1983
 30
0.0
 11
11.2765
 21
58.3985
 31
0.0
  0
LINE
  8
0
 62
     0
 10
11.2765
 20
58.3985
 30
0.0
 11
13.0018
 21
58.3985
 31
0.0
  0
LINE
  8
0
 62
     0
 10
13.0018
 20
58.3985
 30
0.0
 11
13.0018
 21
62.8689
 31
0.0
  0
LINE
  8
0
 62
     0
 10
13.0018
 20
62.8689
 30
0.0
 11
14.5259
 21
62.8689
 31
0.0
  0
LINE
  8
0
 62
     0
 10
14.5259
 20
62.8689
 30
0.0
 11
14.5259
 21
62.2681
 31
0.0
  0
LINE
  8
0
 62
     0
 10
14.5259
 20
62.2681
 30
0.0
 11
13.7267
 21
62.2681
 31
0.0
  0
LINE
  8
0
 62
     0
 10
13.7267
 20
62.2681
 30
0.0
 11
13.7267
 21
59.1689
 31
0.0
  0
LINE
  8
0
 62
     0
 10
13.7267
 20
59.1689
 30
0.0
 11
14.5259
 21
59.1689
 31
0.0
  0
LINE
  8
0
 62
     0
 10
14.5259
 20
59.1689
 30
0.0
 11
14.5259
 21
58.1685
 31
0.0
  0
LINE
  8
0
 62
     0
 10
14.5259
 20
58.1685
 30
0.0
 11
28.5268
 21
58.1685
 31
0.0
  0
LINE
  8
0
 62
     0
 10
28.5268
 20
58.1685
 30
0.0
 11
28.5268
 21
59.1689
 31
0.0
  0
LINE
  8
0
 62
     0
 10
28.5268
 20
59.1689
 30
0.0
 11
29.326
 21
59.1689
 31
0.0
  0
LINE
  8
0
 62
     0
 10
29.326
 20
59.1689
 30
0.0
 11
29.326
 21
62.2681
 31
0.0
  0
LINE
  8
0
 62
     0
 10
29.326
 20
62.2681
 30
0.0
 11
28.5268
 21
62.2681
 31
0.0
  0
LINE
  8
0
 62
     0
 10
28.5268
 20
62.2681
 30
0.0
 11
28.5268
 21
62.8689
 31
0.0
  0
LINE
  8
0
 62
     0
 10
28.5268
 20
62.8689
 30
0.0
 11
30.0509
 21
62.8689
 31
0.0
  0
LINE
  8
0
 62
     0
 10
30.0509
 20
62.8689
 30
0.0
 11
30.0509
 21
58.3985
 31
0.0
  0
LINE
  8
0
 62
     0
 10
30.0509
 20
58.3985
 30
0.0
 11
31.7762
 21
58.3985
 31
0.0
  0
LINE
  8
0
 62
     0
 10
31.7762
 20
58.3985
 30
0.0
 11
31.7762
 21
57.1983
 31
0.0
  0
LINE
  8
0
 62
     0
 10
31.7762
 20
57.1983
 30
0.0
 11
35.0766
 21
57.1983
 31
0.0
  0
LINE
  8
0
 62
     0
 10
35.0766
 20
57.1983
 30
0.0
 11
35.0766
 21
58.3985
 31
0.0
  0
LINE
  8
0
 62
     0
 10
35.0766
 20
58.3985
 30
0.0
 11
36.8018
 21
58.3985
 31
0.0
  0
LINE
  8
0
 62
     0
 10
36.8018
 20
58.3985
 30
0.0
 11
36.8018
 21
64.6688
 31
0.0
  0
LINE
  8
0
 62
     0
 10
36.8018
 20
64.6688
 30
0.0
 11
37.6259
 21
64.6688
 31
0.0
  0
LINE
  8
0
 62
     0
 10
37.6259
 20
64.6688
 30
0.0
 11
37.6259
 21
67.4688
 31
0.0
  0
LINE
  8
0
 62
     0
 10
37.6259
 20
67.4688
 30
0.0
 11
36.8018
 21
67.4688
 31
0.0
  0
LINE
  8
0
 62
     0
 10
36.8018
 20
67.4688
 30
0.0
 11
36.8018
 21
70.6988
 31
0.0
  0
LINE
  8
0
 62
     0
 10
36.8018
 20
70.6988
 30
0.0
 11
30.0509
 21
70.6988
 31
0.0
  0
LINE
  8
0
 62
     0
 10
30.0509
 20
70.6988
 30
0.0
 11
30.0509
 21
67.4688
 31
0.0
  0
LINE
  8
0
 62
     0
 10
30.0509
 20
67.4688
 30
0.0
 11
28.5268
 21
67.4688
 31
0.0
  0
LINE
  8
0
 62
     0
 10
28.5268
 20
67.4688
 30
0.0
 11
28.5268
 21
68.0681
 31
0.0
  0
LINE
  8
0
 62
     0
 10
28.5268
 20
68.0681
 30
0.0
 11
29.326
 21
68.0681
 31
0.0
  0
LINE
  8
0
 62
     0
 10
29.326
 20
68.0681
 30
0.0
 11
29.326
 21
71.1687
 31
0.0
  0
LINE
  8
0
 62
     0
 10
29.326
 20
71.1687
 30
0.0
 11
28.5268
 21
71.1687
 31
0.0
  0
LINE
  8
0
 62
     0
 10
28.5268
 20
71.1687
 30
0.0
 11
28.5268
 21
72.1678
 31
0.0
  0
LINE
  8
0
 62
     0
 10
28.5268
 20
72.1678
 30
0.0
 11
14.5259
 21
72.1678
 31
0.0
  0
LINE
  8
0
 62
     0
 10
285.036
 20
72.1678
 30
0.0
 11
285.036
 21
71.1687
 31
0.0
  0
LINE
  8
0
 62
     0
 10
285.036
 20
71.1687
 30
0.0
 11
284.237
 21
71.1687
 31
0.0
  0
LINE
  8
0
 62
     0
 10
284.237
 20
71.1687
 30
0.0
 11
284.237
 21
68.0681
 31
0.0
  0
LINE
  8
0
 62
     0
 10
284.237
 20
68.0681
 30
0.0
 11
285.036
 21
68.0681
 31
0.0
  0
LINE
  8
0
 62
     0
 10
285.036
 20
68.0681
 30
0.0
 11
285.036
 21
62.2681
 31
0.0
  0
LINE
  8
0
 62
     0
 10
285.036
 20
62.2681
 30
0.0
 11
284.237
 21
62.2681
 31
0.0
  0
LINE
  8
0
 62
     0
 10
284.237
 20
62.2681
 30
0.0
 11
284.237
 21
59.1689
 31
0.0
  0
LINE
  8
0
 62
     0
 10
284.237
 20
59.1689
 30
0.0
 11
285.036
 21
59.1689
 31
0.0
  0
LINE
  8
0
 62
     0
 10
285.036
 20
59.1689
 30
0.0
 11
285.036
 21
58.1685
 31
0.0
  0
LINE
  8
0
 62
     0
 10
285.036
 20
58.1685
 30
0.0
 11
299.037
 21
58.1685
 31
0.0
  0
LINE
  8
0
 62
     0
 10
299.037
 20
58.1685
 30
0.0
 11
299.037
 21
59.1689
 31
0.0
  0
LINE
  8
0
 62
     0
 10
299.037
 20
59.1689
 30
0.0
 11
299.836
 21
59.1689
 31
0.0
  0
LINE
  8
0
 62
     0
 10
299.836
 20
59.1689
 30
0.0
 11
299.836
 21
62.2681
 31
0.0
  0
LINE
  8
0
 62
     0
 10
299.836
 20
62.2681
 30
0.0
 11
299.037
 21
62.2681
 31
0.0
  0
LINE
  8
0
 62
     0
 10
299.037
 20
62.2681
 30
0.0
 11
299.037
 21
68.0681
 31
0.0
  0
LINE
  8
0
 62
     0
 10
299.037
 20
68.0681
 30
0.0
 11
299.836
 21
68.0681
 31
0.0
  0
LINE
  8
0
 62
     0
 10
299.836
 20
68.0681
 30
0.0
 11
299.836
 21
71.1687
 31
0.0
  0
LINE
  8
0
 62
     0
 10
299.836
 20
71.1687
 30
0.0
 11
299.037
 21
71.1687
 31
0.0
  0
LINE
  8
0
 62
     0
 10
299.037
 20
71.1687
 30
0.0
 11
299.037
 21
72.1678
 31
0.0
  0
LINE
  8
0
 62
     0
 10
299.037
 20
72.1678
 30
0.0
 11
285.036
 21
72.1678
 31
0.0
  0
LINE
  8
0
 62
     0
 10
258.843
 20
72.1678
 30
0.0
 11
258.843
 21
71.1687
 31
0.0
  0
LINE
  8
0
 62
     0
 10
258.843
 20
71.1687
 30
0.0
 11
258.043
 21
71.1687
 31
0.0
  0
LINE
  8
0
 62
     0
 10
258.043
 20
71.1687
 30
0.0
 11
258.043
 21
68.0681
 31
0.0
  0
LINE
  8
0
 62
     0
 10
258.043
 20
68.0681
 30
0.0
 11
258.843
 21
68.0681
 31
0.0
  0
LINE
  8
0
 62
     0
 10
258.843
 20
68.0681
 30
0.0
 11
258.843
 21
62.2681
 31
0.0
  0
LINE
  8
0
 62
     0
 10
258.843
 20
62.2681
 30
0.0
 11
258.043
 21
62.2681
 31
0.0
  0
LINE
  8
0
 62
     0
 10
258.043
 20
62.2681
 30
0.0
 11
258.043
 21
59.1689
 31
0.0
  0
LINE
  8
0
 62
     0
 10
258.043
 20
59.1689
 30
0.0
 11
258.843
 21
59.1689
 31
0.0
  0
LINE
  8
0
 62
     0
 10
258.843
 20
59.1689
 30
0.0
 11
258.843
 21
58.1685
 31
0.0
  0
LINE
  8
0
 62
     0
 10
258.843
 20
58.1685
 30
0.0
 11
272.842
 21
58.1685
 31
0.0
  0
LINE
  8
0
 62
     0
 10
272.842
 20
58.1685
 30
0.0
 11
272.842
 21
59.1689
 31
0.0
  0
LINE
  8
0
 62
     0
 10
272.842
 20
59.1689
 30
0.0
 11
273.643
 21
59.1689
 31
0.0
  0
LINE
  8
0
 62
     0
 10
273.643
 20
59.1689
 30
0.0
 11
273.643
 21
62.2681
 31
0.0
  0
LINE
  8
0
 62
     0
 10
273.643
 20
62.2681
 30
0.0
 11
272.842
 21
62.2681
 31
0.0
  0
LINE
  8
0
 62
     0
 10
272.842
 20
62.2681
 30
0.0
 11
272.842
 21
68.0681
 31
0.0
  0
LINE
  8
0
 62
     0
 10
272.842
 20
68.0681
 30
0.0
 11
273.643
 21
68.0681
 31
0.0
  0
LINE
  8
0
 62
     0
 10
273.643
 20
68.0681
 30
0.0
 11
273.643
 21
71.1687
 31
0.0
  0
LINE
  8
0
 62
     0
 10
273.643
 20
71.1687
 30
0.0
 11
272.842
 21
71.1687
 31
0.0
  0
LINE
  8
0
 62
     0
 10
272.842
 20
71.1687
 30
0.0
 11
272.842
 21
72.1678
 31
0.0
  0
LINE
  8
0
 62
     0
 10
272.842
 20
72.1678
 30
0.0
 11
258.843
 21
72.1678
 31
0.0
  0
LINE
  8
0
 62
     0
 10
45.4822
 20
72.1678
 30
0.0
 11
45.4822
 21
71.1687
 31
0.0
  0
LINE
  8
0
 62
     0
 10
45.4822
 20
71.1687
 30
0.0
 11
44.6828
 21
71.1687
 31
0.0
  0
LINE
  8
0
 62
     0
 10
44.6828
 20
71.1687
 30
0.0
 11
44.6828
 21
68.0681
 31
0.0
  0
LINE
  8
0
 62
     0
 10
44.6828
 20
68.0681
 30
0.0
 11
45.4822
 21
68.0681
 31
0.0
  0
LINE
  8
0
 62
     0
 10
45.4822
 20
68.0681
 30
0.0
 11
45.4822
 21
62.2681
 31
0.0
  0
LINE
  8
0
 62
     0
 10
45.4822
 20
62.2681
 30
0.0
 11
44.6828
 21
62.2681
 31
0.0
  0
LINE
  8
0
 62
     0
 10
44.6828
 20
62.2681
 30
0.0
 11
44.6828
 21
59.1689
 31
0.0
  0
LINE
  8
0
 62
     0
 10
44.6828
 20
59.1689
 30
0.0
 11
45.4822
 21
59.1689
 31
0.0
  0
LINE
  8
0
 62
     0
 10
45.4822
 20
59.1689
 30
0.0
 11
45.4822
 21
58.1685
 31
0.0
  0
LINE
  8
0
 62
     0
 10
45.4822
 20
58.1685
 30
0.0
 11
59.4829
 21
58.1685
 31
0.0
  0
LINE
  8
0
 62
     0
 10
59.4829
 20
58.1685
 30
0.0
 11
59.4829
 21
59.1689
 31
0.0
  0
LINE
  8
0
 62
     0
 10
59.4829
 20
59.1689
 30
0.0
 11
60.2823
 21
59.1689
 31
0.0
  0
LINE
  8
0
 62
     0
 10
60.2823
 20
59.1689
 30
0.0
 11
60.2823
 21
62.2681
 31
0.0
  0
LINE
  8
0
 62
     0
 10
60.2823
 20
62.2681
 30
0.0
 11
59.4829
 21
62.2681
 31
0.0
  0
LINE
  8
0
 62
     0
 10
59.4829
 20
62.2681
 30
0.0
 11
59.4829
 21
68.0681
 31
0.0
  0
LINE
  8
0
 62
     0
 10
59.4829
 20
68.0681
 30
0.0
 11
60.2823
 21
68.0681
 31
0.0
  0
LINE
  8
0
 62
     0
 10
60.2823
 20
68.0681
 30
0.0
 11
60.2823
 21
71.1687
 31
0.0
  0
LINE
  8
0
 62
     0
 10
60.2823
 20
71.1687
 30
0.0
 11
59.4829
 21
71.1687
 31
0.0
  0
LINE
  8
0
 62
     0
 10
59.4829
 20
71.1687
 30
0.0
 11
59.4829
 21
72.1678
 31
0.0
  0
LINE
  8
0
 62
     0
 10
59.4829
 20
72.1678
 30
0.0
 11
45.4822
 21
72.1678
 31
0.0
  0
LINE
  8
0
 62
     0
 10
170.699
 20
74.3991
 30
0.0
 11
170.907
 21
73.4219
 31
0.0
  0
LINE
  8
0
 62
     0
 10
170.907
 20
73.4219
 30
0.0
 11
170.124
 21
73.2536
 31
0.0
  0
LINE
  8
0
 62
     0
 10
170.124
 20
73.2536
 30
0.0
 11
170.769
 21
70.2222
 31
0.0
  0
LINE
  8
0
 62
     0
 10
170.769
 20
70.2222
 30
0.0
 11
171.552
 21
70.3887
 31
0.0
  0
LINE
  8
0
 62
     0
 10
171.552
 20
70.3887
 30
0.0
 11
172.758
 21
64.7153
 31
0.0
  0
LINE
  8
0
 62
     0
 10
172.758
 20
64.7153
 30
0.0
 11
171.975
 21
64.5502
 31
0.0
  0
LINE
  8
0
 62
     0
 10
171.975
 20
64.5502
 30
0.0
 11
172.62
 21
61.517
 31
0.0
  0
LINE
  8
0
 62
     0
 10
172.62
 20
61.517
 30
0.0
 11
173.403
 21
61.6839
 31
0.0
  0
LINE
  8
0
 62
     0
 10
173.403
 20
61.6839
 30
0.0
 11
173.611
 21
60.7053
 31
0.0
  0
LINE
  8
0
 62
     0
 10
173.611
 20
60.7053
 30
0.0
 11
187.304
 21
63.6157
 31
0.0
  0
LINE
  8
0
 62
     0
 10
187.304
 20
63.6157
 30
0.0
 11
187.096
 21
64.5943
 31
0.0
  0
LINE
  8
0
 62
     0
 10
187.096
 20
64.5943
 30
0.0
 11
187.879
 21
64.7608
 31
0.0
  0
LINE
  8
0
 62
     0
 10
187.879
 20
64.7608
 30
0.0
 11
187.234
 21
67.7926
 31
0.0
  0
LINE
  8
0
 62
     0
 10
187.234
 20
67.7926
 30
0.0
 11
186.451
 21
67.6257
 31
0.0
  0
LINE
  8
0
 62
     0
 10
186.451
 20
67.6257
 30
0.0
 11
185.245
 21
73.2991
 31
0.0
  0
LINE
  8
0
 62
     0
 10
185.245
 20
73.2991
 30
0.0
 11
186.028
 21
73.466
 31
0.0
  0
LINE
  8
0
 62
     0
 10
186.028
 20
73.466
 30
0.0
 11
185.383
 21
76.4992
 31
0.0
  0
LINE
  8
0
 62
     0
 10
185.383
 20
76.4992
 30
0.0
 11
184.602
 21
76.3309
 31
0.0
  0
LINE
  8
0
 62
     0
 10
184.602
 20
76.3309
 30
0.0
 11
184.394
 21
77.3095
 31
0.0
  0
LINE
  8
0
 62
     0
 10
184.394
 20
77.3095
 30
0.0
 11
170.699
 21
74.3991
 31
0.0
  0
LINE
  8
0
 62
     0
 10
120.665
 20
79.4551
 30
0.0
 11
119.882
 21
79.6216
 31
0.0
  0
LINE
  8
0
 62
     0
 10
119.882
 20
79.6216
 30
0.0
 11
119.239
 21
76.5888
 31
0.0
  0
LINE
  8
0
 62
     0
 10
119.239
 20
76.5888
 30
0.0
 11
120.02
 21
76.4219
 31
0.0
  0
LINE
  8
0
 62
     0
 10
120.02
 20
76.4219
 30
0.0
 11
118.816
 21
70.7499
 31
0.0
  0
LINE
  8
0
 62
     0
 10
118.816
 20
70.7499
 30
0.0
 11
118.033
 21
70.9154
 31
0.0
  0
LINE
  8
0
 62
     0
 10
118.033
 20
70.9154
 30
0.0
 11
117.387
 21
67.8836
 31
0.0
  0
LINE
  8
0
 62
     0
 10
117.387
 20
67.8836
 30
0.0
 11
118.171
 21
67.7168
 31
0.0
  0
LINE
  8
0
 62
     0
 10
118.171
 20
67.7168
 30
0.0
 11
117.963
 21
66.7385
 31
0.0
  0
LINE
  8
0
 62
     0
 10
117.963
 20
66.7385
 30
0.0
 11
131.656
 21
63.8281
 31
0.0
  0
LINE
  8
0
 62
     0
 10
131.656
 20
63.8281
 30
0.0
 11
131.864
 21
64.8063
 31
0.0
  0
LINE
  8
0
 62
     0
 10
131.864
 20
64.8063
 30
0.0
 11
132.647
 21
64.6395
 31
0.0
  0
LINE
  8
0
 62
     0
 10
132.647
 20
64.6395
 30
0.0
 11
133.292
 21
67.6727
 31
0.0
  0
LINE
  8
0
 62
     0
 10
133.292
 20
67.6727
 30
0.0
 11
132.509
 21
67.8381
 31
0.0
  0
LINE
  8
0
 62
     0
 10
132.509
 20
67.8381
 30
0.0
 11
133.714
 21
73.5115
 31
0.0
  0
LINE
  8
0
 62
     0
 10
133.714
 20
73.5115
 30
0.0
 11
134.498
 21
73.346
 31
0.0
  0
LINE
  8
0
 62
     0
 10
134.498
 20
73.346
 30
0.0
 11
135.143
 21
76.3778
 31
0.0
  0
LINE
  8
0
 62
     0
 10
135.143
 20
76.3778
 30
0.0
 11
134.36
 21
76.5447
 31
0.0
  0
LINE
  8
0
 62
     0
 10
134.36
 20
76.5447
 30
0.0
 11
134.567
 21
77.5229
 31
0.0
  0
LINE
  8
0
 62
     0
 10
134.567
 20
77.5229
 30
0.0
 11
120.873
 21
80.4319
 31
0.0
  0
LINE
  8
0
 62
     0
 10
120.873
 20
80.4319
 30
0.0
 11
120.665
 21
79.4551
 31
0.0
  0
LINE
  8
0
 62
     0
 10
189.333
 20
78.3594
 30
0.0
 11
189.541
 21
77.3811
 31
0.0
  0
LINE
  8
0
 62
     0
 10
189.541
 20
77.3811
 30
0.0
 11
188.758
 21
77.2156
 31
0.0
  0
LINE
  8
0
 62
     0
 10
188.758
 20
77.2156
 30
0.0
 11
189.403
 21
74.1839
 31
0.0
  0
LINE
  8
0
 62
     0
 10
189.403
 20
74.1839
 30
0.0
 11
190.186
 21
74.3493
 31
0.0
  0
LINE
  8
0
 62
     0
 10
190.186
 20
74.3493
 30
0.0
 11
191.391
 21
68.676
 31
0.0
  0
LINE
  8
0
 62
     0
 10
191.391
 20
68.676
 30
0.0
 11
190.609
 21
68.5091
 31
0.0
  0
LINE
  8
0
 62
     0
 10
190.609
 20
68.5091
 30
0.0
 11
191.254
 21
65.4773
 31
0.0
  0
LINE
  8
0
 62
     0
 10
191.254
 20
65.4773
 30
0.0
 11
192.035
 21
65.6442
 31
0.0
  0
LINE
  8
0
 62
     0
 10
192.035
 20
65.6442
 30
0.0
 11
192.243
 21
64.6659
 31
0.0
  0
LINE
  8
0
 62
     0
 10
192.243
 20
64.6659
 30
0.0
 11
205.938
 21
67.5763
 31
0.0
  0
LINE
  8
0
 62
     0
 10
205.938
 20
67.5763
 30
0.0
 11
205.73
 21
68.5546
 31
0.0
  0
LINE
  8
0
 62
     0
 10
205.73
 20
68.5546
 30
0.0
 11
206.513
 21
68.7215
 31
0.0
  0
LINE
  8
0
 62
     0
 10
206.513
 20
68.7215
 30
0.0
 11
205.868
 21
71.7532
 31
0.0
  0
LINE
  8
0
 62
     0
 10
205.868
 20
71.7532
 30
0.0
 11
205.085
 21
71.5878
 31
0.0
  0
LINE
  8
0
 62
     0
 10
205.085
 20
71.5878
 30
0.0
 11
203.879
 21
77.2612
 31
0.0
  0
LINE
  8
0
 62
     0
 10
203.879
 20
77.2612
 30
0.0
 11
204.662
 21
77.4266
 31
0.0
  0
LINE
  8
0
 62
     0
 10
204.662
 20
77.4266
 30
0.0
 11
204.017
 21
80.458
 31
0.0
  0
LINE
  8
0
 62
     0
 10
204.017
 20
80.458
 30
0.0
 11
203.236
 21
80.2929
 31
0.0
  0
LINE
  8
0
 62
     0
 10
203.236
 20
80.2929
 30
0.0
 11
203.028
 21
81.2698
 31
0.0
  0
LINE
  8
0
 62
     0
 10
203.028
 20
81.2698
 30
0.0
 11
189.333
 21
78.3594
 31
0.0
  0
LINE
  8
0
 62
     0
 10
102.031
 20
83.4154
 30
0.0
 11
101.25
 21
83.5808
 31
0.0
  0
LINE
  8
0
 62
     0
 10
101.25
 20
83.5808
 30
0.0
 11
100.605
 21
80.549
 31
0.0
  0
LINE
  8
0
 62
     0
 10
100.605
 20
80.549
 30
0.0
 11
101.388
 21
80.3836
 31
0.0
  0
LINE
  8
0
 62
     0
 10
101.388
 20
80.3836
 30
0.0
 11
100.182
 21
74.7102
 31
0.0
  0
LINE
  8
0
 62
     0
 10
100.182
 20
74.7102
 30
0.0
 11
99.398
 21
74.8771
 31
0.0
  0
LINE
  8
0
 62
     0
 10
99.398
 20
74.8771
 30
0.0
 11
98.7545
 21
71.8439
 31
0.0
  0
LINE
  8
0
 62
     0
 10
98.7545
 20
71.8439
 30
0.0
 11
99.537
 21
71.6774
 31
0.0
  0
LINE
  8
0
 62
     0
 10
99.537
 20
71.6774
 30
0.0
 11
99.3292
 21
70.6988
 31
0.0
  0
LINE
  8
0
 62
     0
 10
99.3292
 20
70.6988
 30
0.0
 11
113.023
 21
67.7884
 31
0.0
  0
LINE
  8
0
 62
     0
 10
113.023
 20
67.7884
 30
0.0
 11
113.231
 21
68.767
 31
0.0
  0
LINE
  8
0
 62
     0
 10
113.231
 20
68.767
 30
0.0
 11
114.014
 21
68.6001
 31
0.0
  0
LINE
  8
0
 62
     0
 10
114.014
 20
68.6001
 30
0.0
 11
114.657
 21
71.6319
 31
0.0
  0
LINE
  8
0
 62
     0
 10
114.657
 20
71.6319
 30
0.0
 11
113.876
 21
71.7998
 31
0.0
  0
LINE
  8
0
 62
     0
 10
113.876
 20
71.7998
 30
0.0
 11
115.081
 21
77.4718
 31
0.0
  0
LINE
  8
0
 62
     0
 10
115.081
 20
77.4718
 30
0.0
 11
115.864
 21
77.3067
 31
0.0
  0
LINE
  8
0
 62
     0
 10
115.864
 20
77.3067
 30
0.0
 11
116.509
 21
80.3381
 31
0.0
  0
LINE
  8
0
 62
     0
 10
116.509
 20
80.3381
 30
0.0
 11
115.725
 21
80.5049
 31
0.0
  0
LINE
  8
0
 62
     0
 10
115.725
 20
80.5049
 30
0.0
 11
115.933
 21
81.4821
 31
0.0
  0
LINE
  8
0
 62
     0
 10
115.933
 20
81.4821
 30
0.0
 11
102.24
 21
84.394
 31
0.0
  0
LINE
  8
0
 62
     0
 10
102.24
 20
84.394
 30
0.0
 11
102.031
 21
83.4154
 31
0.0
  0
LINE
  8
0
 62
     0
 10
207.967
 20
82.32
 30
0.0
 11
208.175
 21
81.3428
 31
0.0
  0
LINE
  8
0
 62
     0
 10
208.175
 20
81.3428
 30
0.0
 11
207.392
 21
81.1759
 31
0.0
  0
LINE
  8
0
 62
     0
 10
207.392
 20
81.1759
 30
0.0
 11
208.037
 21
78.1431
 31
0.0
  0
LINE
  8
0
 62
     0
 10
208.037
 20
78.1431
 30
0.0
 11
208.82
 21
78.3096
 31
0.0
  0
LINE
  8
0
 62
     0
 10
208.82
 20
78.3096
 30
0.0
 11
210.026
 21
72.6376
 31
0.0
  0
LINE
  8
0
 62
     0
 10
210.026
 20
72.6376
 30
0.0
 11
209.243
 21
72.4711
 31
0.0
  0
LINE
  8
0
 62
     0
 10
209.243
 20
72.4711
 30
0.0
 11
209.888
 21
69.438
 31
0.0
  0
LINE
  8
0
 62
     0
 10
209.888
 20
69.438
 30
0.0
 11
210.669
 21
69.6048
 31
0.0
  0
LINE
  8
0
 62
     0
 10
210.669
 20
69.6048
 30
0.0
 11
210.877
 21
68.6262
 31
0.0
  0
LINE
  8
0
 62
     0
 10
210.877
 20
68.6262
 30
0.0
 11
224.572
 21
71.5366
 31
0.0
  0
LINE
  8
0
 62
     0
 10
224.572
 20
71.5366
 30
0.0
 11
224.364
 21
72.5152
 31
0.0
  0
LINE
  8
0
 62
     0
 10
224.364
 20
72.5152
 30
0.0
 11
225.147
 21
72.6817
 31
0.0
  0
LINE
  8
0
 62
     0
 10
225.147
 20
72.6817
 30
0.0
 11
224.502
 21
75.7149
 31
0.0
  0
LINE
  8
0
 62
     0
 10
224.502
 20
75.7149
 30
0.0
 11
223.719
 21
75.5467
 31
0.0
  0
LINE
  8
0
 62
     0
 10
223.719
 20
75.5467
 30
0.0
 11
222.513
 21
81.2214
 31
0.0
  0
LINE
  8
0
 62
     0
 10
222.513
 20
81.2214
 30
0.0
 11
223.296
 21
81.3869
 31
0.0
  0
LINE
  8
0
 62
     0
 10
223.296
 20
81.3869
 30
0.0
 11
222.651
 21
84.4201
 31
0.0
  0
LINE
  8
0
 62
     0
 10
222.651
 20
84.4201
 30
0.0
 11
221.868
 21
84.2532
 31
0.0
  0
LINE
  8
0
 62
     0
 10
221.868
 20
84.2532
 30
0.0
 11
221.66
 21
85.2318
 31
0.0
  0
LINE
  8
0
 62
     0
 10
221.66
 20
85.2318
 30
0.0
 11
207.967
 21
82.32
 31
0.0
  0
LINE
  8
0
 62
     0
 10
83.3974
 20
87.376
 30
0.0
 11
82.6163
 21
87.5425
 31
0.0
  0
LINE
  8
0
 62
     0
 10
82.6163
 20
87.5425
 30
0.0
 11
81.9697
 21
84.5111
 31
0.0
  0
LINE
  8
0
 62
     0
 10
81.9697
 20
84.5111
 30
0.0
 11
82.7539
 21
84.3442
 31
0.0
  0
LINE
  8
0
 62
     0
 10
82.7539
 20
84.3442
 30
0.0
 11
81.5481
 21
78.6709
 31
0.0
  0
LINE
  8
0
 62
     0
 10
81.5481
 20
78.6709
 30
0.0
 11
80.7653
 21
78.8377
 31
0.0
  0
LINE
  8
0
 62
     0
 10
80.7653
 20
78.8377
 30
0.0
 11
80.1204
 21
75.8045
 31
0.0
  0
LINE
  8
0
 62
     0
 10
80.1204
 20
75.8045
 30
0.0
 11
80.9032
 21
75.6377
 31
0.0
  0
LINE
  8
0
 62
     0
 10
80.9032
 20
75.6377
 30
0.0
 11
80.6951
 21
74.6608
 31
0.0
  0
LINE
  8
0
 62
     0
 10
80.6951
 20
74.6608
 30
0.0
 11
94.3903
 21
71.749
 31
0.0
  0
LINE
  8
0
 62
     0
 10
94.3903
 20
71.749
 30
0.0
 11
94.5967
 21
72.7273
 31
0.0
  0
LINE
  8
0
 62
     0
 10
94.5967
 20
72.7273
 30
0.0
 11
95.3795
 21
72.5622
 31
0.0
  0
LINE
  8
0
 62
     0
 10
95.3795
 20
72.5622
 30
0.0
 11
96.0244
 21
75.5936
 31
0.0
  0
LINE
  8
0
 62
     0
 10
96.0244
 20
75.5936
 30
0.0
 11
95.2419
 21
75.7604
 31
0.0
  0
LINE
  8
0
 62
     0
 10
95.2419
 20
75.7604
 30
0.0
 11
96.4477
 21
81.4338
 31
0.0
  0
LINE
  8
0
 62
     0
 10
96.4477
 20
81.4338
 30
0.0
 11
97.2301
 21
81.2669
 31
0.0
  0
LINE
  8
0
 62
     0
 10
97.2301
 20
81.2669
 30
0.0
 11
97.875
 21
84.2987
 31
0.0
  0
LINE
  8
0
 62
     0
 10
97.875
 20
84.2987
 30
0.0
 11
97.0926
 21
84.4656
 31
0.0
  0
LINE
  8
0
 62
     0
 10
97.0926
 20
84.4656
 30
0.0
 11
97.2993
 21
85.4438
 31
0.0
  0
LINE
  8
0
 62
     0
 10
97.2993
 20
85.4438
 30
0.0
 11
83.6055
 21
88.3543
 31
0.0
  0
LINE
  8
0
 62
     0
 10
83.6055
 20
88.3543
 30
0.0
 11
83.3974
 21
87.376
 31
0.0
  0
LINE
  8
0
 62
     0
 10
226.6
 20
86.2817
 30
0.0
 11
226.809
 21
85.3034
 31
0.0
  0
LINE
  8
0
 62
     0
 10
226.809
 20
85.3034
 30
0.0
 11
226.026
 21
85.1366
 31
0.0
  0
LINE
  8
0
 62
     0
 10
226.026
 20
85.1366
 30
0.0
 11
226.671
 21
82.1048
 31
0.0
  0
LINE
  8
0
 62
     0
 10
226.671
 20
82.1048
 30
0.0
 11
227.452
 21
82.2702
 31
0.0
  0
LINE
  8
0
 62
     0
 10
227.452
 20
82.2702
 30
0.0
 11
228.658
 21
76.5969
 31
0.0
  0
LINE
  8
0
 62
     0
 10
228.658
 20
76.5969
 30
0.0
 11
227.876
 21
76.4314
 31
0.0
  0
LINE
  8
0
 62
     0
 10
227.876
 20
76.4314
 30
0.0
 11
228.52
 21
73.4
 31
0.0
  0
LINE
  8
0
 62
     0
 10
228.52
 20
73.4
 30
0.0
 11
229.303
 21
73.5651
 31
0.0
  0
LINE
  8
0
 62
     0
 10
229.303
 20
73.5651
 30
0.0
 11
229.511
 21
72.5868
 31
0.0
  0
LINE
  8
0
 62
     0
 10
229.511
 20
72.5868
 30
0.0
 11
243.206
 21
75.4987
 31
0.0
  0
LINE
  8
0
 62
     0
 10
243.206
 20
75.4987
 30
0.0
 11
242.998
 21
76.4769
 31
0.0
  0
LINE
  8
0
 62
     0
 10
242.998
 20
76.4769
 30
0.0
 11
243.779
 21
76.6424
 31
0.0
  0
LINE
  8
0
 62
     0
 10
243.779
 20
76.6424
 30
0.0
 11
243.136
 21
79.6742
 31
0.0
  0
LINE
  8
0
 62
     0
 10
243.136
 20
79.6742
 30
0.0
 11
242.353
 21
79.5087
 31
0.0
  0
LINE
  8
0
 62
     0
 10
242.353
 20
79.5087
 30
0.0
 11
241.147
 21
85.1821
 31
0.0
  0
LINE
  8
0
 62
     0
 10
241.147
 20
85.1821
 30
0.0
 11
241.93
 21
85.3489
 31
0.0
  0
LINE
  8
0
 62
     0
 10
241.93
 20
85.3489
 30
0.0
 11
241.285
 21
88.3804
 31
0.0
  0
LINE
  8
0
 62
     0
 10
241.285
 20
88.3804
 30
0.0
 11
240.502
 21
88.2138
 31
0.0
  0
LINE
  8
0
 62
     0
 10
240.502
 20
88.2138
 30
0.0
 11
240.294
 21
89.1921
 31
0.0
  0
LINE
  8
0
 62
     0
 10
240.294
 20
89.1921
 30
0.0
 11
226.6
 21
86.2817
 31
0.0
  0
LINE
  8
0
 62
     0
 10
64.7651
 20
91.3377
 30
0.0
 11
63.9808
 21
91.5031
 31
0.0
  0
LINE
  8
0
 62
     0
 10
63.9808
 20
91.5031
 30
0.0
 11
63.3374
 21
88.4714
 31
0.0
  0
LINE
  8
0
 62
     0
 10
63.3374
 20
88.4714
 30
0.0
 11
64.1202
 21
88.3049
 31
0.0
  0
LINE
  8
0
 62
     0
 10
64.1202
 20
88.3049
 30
0.0
 11
62.913
 21
82.6311
 31
0.0
  0
LINE
  8
0
 62
     0
 10
62.913
 20
82.6311
 30
0.0
 11
62.1316
 21
82.798
 31
0.0
  0
LINE
  8
0
 62
     0
 10
62.1316
 20
82.798
 30
0.0
 11
61.4867
 21
79.7648
 31
0.0
  0
LINE
  8
0
 62
     0
 10
61.4867
 20
79.7648
 30
0.0
 11
62.2695
 21
79.5997
 31
0.0
  0
LINE
  8
0
 62
     0
 10
62.2695
 20
79.5997
 30
0.0
 11
62.0614
 21
78.6211
 31
0.0
  0
LINE
  8
0
 62
     0
 10
62.0614
 20
78.6211
 30
0.0
 11
75.7548
 21
75.7107
 31
0.0
  0
LINE
  8
0
 62
     0
 10
75.7548
 20
75.7107
 30
0.0
 11
75.9629
 21
76.6879
 31
0.0
  0
LINE
  8
0
 62
     0
 10
75.9629
 20
76.6879
 30
0.0
 11
76.7457
 21
76.5224
 31
0.0
  0
LINE
  8
0
 62
     0
 10
76.7457
 20
76.5224
 30
0.0
 11
77.3906
 21
79.5542
 31
0.0
  0
LINE
  8
0
 62
     0
 10
77.3906
 20
79.5542
 30
0.0
 11
76.6078
 21
79.7207
 31
0.0
  0
LINE
  8
0
 62
     0
 10
76.6078
 20
79.7207
 30
0.0
 11
77.8136
 21
85.393
 31
0.0
  0
LINE
  8
0
 62
     0
 10
77.8136
 20
85.393
 30
0.0
 11
78.5964
 21
85.2276
 31
0.0
  0
LINE
  8
0
 62
     0
 10
78.5964
 20
85.2276
 30
0.0
 11
79.2399
 21
88.2594
 31
0.0
  0
LINE
  8
0
 62
     0
 10
79.2399
 20
88.2594
 30
0.0
 11
78.4585
 21
88.4259
 31
0.0
  0
LINE
  8
0
 62
     0
 10
78.4585
 20
88.4259
 30
0.0
 11
78.6666
 21
89.4045
 31
0.0
  0
LINE
  8
0
 62
     0
 10
78.6666
 20
89.4045
 30
0.0
 11
64.9732
 21
92.3149
 31
0.0
  0
LINE
  8
0
 62
     0
 10
64.9732
 20
92.3149
 30
0.0
 11
64.7651
 21
91.3377
 31
0.0
  0
LINE
  8
0
 62
     0
 10
299.324
 20
91.2178
 30
0.0
 11
299.324
 21
90.2187
 31
0.0
  0
LINE
  8
0
 62
     0
 10
299.324
 20
90.2187
 30
0.0
 11
298.523
 21
90.2187
 31
0.0
  0
LINE
  8
0
 62
     0
 10
298.523
 20
90.2187
 30
0.0
 11
298.523
 21
87.1181
 31
0.0
  0
LINE
  8
0
 62
     0
 10
298.523
 20
87.1181
 30
0.0
 11
299.324
 21
87.1181
 31
0.0
  0
LINE
  8
0
 62
     0
 10
299.324
 20
87.1181
 30
0.0
 11
299.324
 21
86.5188
 31
0.0
  0
LINE
  8
0
 62
     0
 10
299.324
 20
86.5188
 30
0.0
 11
297.798
 21
86.5188
 31
0.0
  0
LINE
  8
0
 62
     0
 10
297.798
 20
86.5188
 30
0.0
 11
297.798
 21
89.7488
 31
0.0
  0
LINE
  8
0
 62
     0
 10
297.798
 20
89.7488
 30
0.0
 11
291.049
 21
89.7488
 31
0.0
  0
LINE
  8
0
 62
     0
 10
291.049
 20
89.7488
 30
0.0
 11
291.049
 21
86.5188
 31
0.0
  0
LINE
  8
0
 62
     0
 10
291.049
 20
86.5188
 30
0.0
 11
290.223
 21
86.5188
 31
0.0
  0
LINE
  8
0
 62
     0
 10
290.223
 20
86.5188
 30
0.0
 11
290.223
 21
83.7188
 31
0.0
  0
LINE
  8
0
 62
     0
 10
290.223
 20
83.7188
 30
0.0
 11
291.049
 21
83.7188
 31
0.0
  0
LINE
  8
0
 62
     0
 10
291.049
 20
83.7188
 30
0.0
 11
291.049
 21
77.4485
 31
0.0
  0
LINE
  8
0
 62
     0
 10
291.049
 20
77.4485
 30
0.0
 11
292.774
 21
77.4485
 31
0.0
  0
LINE
  8
0
 62
     0
 10
292.774
 20
77.4485
 30
0.0
 11
292.774
 21
76.2483
 31
0.0
  0
LINE
  8
0
 62
     0
 10
292.774
 20
76.2483
 30
0.0
 11
296.073
 21
76.2483
 31
0.0
  0
LINE
  8
0
 62
     0
 10
296.073
 20
76.2483
 30
0.0
 11
296.073
 21
77.4485
 31
0.0
  0
LINE
  8
0
 62
     0
 10
296.073
 20
77.4485
 30
0.0
 11
297.798
 21
77.4485
 31
0.0
  0
LINE
  8
0
 62
     0
 10
297.798
 20
77.4485
 30
0.0
 11
297.798
 21
81.9189
 31
0.0
  0
LINE
  8
0
 62
     0
 10
297.798
 20
81.9189
 30
0.0
 11
299.324
 21
81.9189
 31
0.0
  0
LINE
  8
0
 62
     0
 10
299.324
 20
81.9189
 30
0.0
 11
299.324
 21
81.3181
 31
0.0
  0
LINE
  8
0
 62
     0
 10
299.324
 20
81.3181
 30
0.0
 11
298.523
 21
81.3181
 31
0.0
  0
LINE
  8
0
 62
     0
 10
298.523
 20
81.3181
 30
0.0
 11
298.523
 21
78.219
 31
0.0
  0
LINE
  8
0
 62
     0
 10
298.523
 20
78.219
 30
0.0
 11
299.324
 21
78.219
 31
0.0
  0
LINE
  8
0
 62
     0
 10
299.324
 20
78.219
 30
0.0
 11
299.324
 21
77.2185
 31
0.0
  0
LINE
  8
0
 62
     0
 10
299.324
 20
77.2185
 30
0.0
 11
313.323
 21
77.2185
 31
0.0
  0
LINE
  8
0
 62
     0
 10
313.323
 20
77.2185
 30
0.0
 11
313.323
 21
78.219
 31
0.0
  0
LINE
  8
0
 62
     0
 10
313.323
 20
78.219
 30
0.0
 11
314.124
 21
78.219
 31
0.0
  0
LINE
  8
0
 62
     0
 10
314.124
 20
78.219
 30
0.0
 11
314.124
 21
81.3181
 31
0.0
  0
LINE
  8
0
 62
     0
 10
314.124
 20
81.3181
 30
0.0
 11
313.323
 21
81.3181
 31
0.0
  0
LINE
  8
0
 62
     0
 10
313.323
 20
81.3181
 30
0.0
 11
313.323
 21
81.9189
 31
0.0
  0
LINE
  8
0
 62
     0
 10
313.323
 20
81.9189
 30
0.0
 11
314.849
 21
81.9189
 31
0.0
  0
LINE
  8
0
 62
     0
 10
314.849
 20
81.9189
 30
0.0
 11
314.849
 21
77.4485
 31
0.0
  0
LINE
  8
0
 62
     0
 10
314.849
 20
77.4485
 30
0.0
 11
316.574
 21
77.4485
 31
0.0
  0
LINE
  8
0
 62
     0
 10
316.574
 20
77.4485
 30
0.0
 11
316.574
 21
76.2483
 31
0.0
  0
LINE
  8
0
 62
     0
 10
316.574
 20
76.2483
 30
0.0
 11
319.873
 21
76.2483
 31
0.0
  0
LINE
  8
0
 62
     0
 10
319.873
 20
76.2483
 30
0.0
 11
319.873
 21
77.4485
 31
0.0
  0
LINE
  8
0
 62
     0
 10
319.873
 20
77.4485
 30
0.0
 11
321.598
 21
77.4485
 31
0.0
  0
LINE
  8
0
 62
     0
 10
321.598
 20
77.4485
 30
0.0
 11
321.598
 21
83.7188
 31
0.0
  0
LINE
  8
0
 62
     0
 10
321.598
 20
83.7188
 30
0.0
 11
322.424
 21
83.7188
 31
0.0
  0
LINE
  8
0
 62
     0
 10
322.424
 20
83.7188
 30
0.0
 11
322.424
 21
86.5188
 31
0.0
  0
LINE
  8
0
 62
     0
 10
322.424
 20
86.5188
 30
0.0
 11
321.598
 21
86.5188
 31
0.0
  0
LINE
  8
0
 62
     0
 10
321.598
 20
86.5188
 30
0.0
 11
321.598
 21
89.7488
 31
0.0
  0
LINE
  8
0
 62
     0
 10
321.598
 20
89.7488
 30
0.0
 11
314.849
 21
89.7488
 31
0.0
  0
LINE
  8
0
 62
     0
 10
314.849
 20
89.7488
 30
0.0
 11
314.849
 21
86.5188
 31
0.0
  0
LINE
  8
0
 62
     0
 10
314.849
 20
86.5188
 30
0.0
 11
313.323
 21
86.5188
 31
0.0
  0
LINE
  8
0
 62
     0
 10
313.323
 20
86.5188
 30
0.0
 11
313.323
 21
87.1181
 31
0.0
  0
LINE
  8
0
 62
     0
 10
313.323
 20
87.1181
 30
0.0
 11
314.124
 21
87.1181
 31
0.0
  0
LINE
  8
0
 62
     0
 10
314.124
 20
87.1181
 30
0.0
 11
314.124
 21
90.2187
 31
0.0
  0
LINE
  8
0
 62
     0
 10
314.124
 20
90.2187
 30
0.0
 11
313.323
 21
90.2187
 31
0.0
  0
LINE
  8
0
 62
     0
 10
313.323
 20
90.2187
 30
0.0
 11
313.323
 21
91.2178
 31
0.0
  0
LINE
  8
0
 62
     0
 10
313.323
 20
91.2178
 30
0.0
 11
299.324
 21
91.2178
 31
0.0
  0
LINE
  8
0
 62
     0
 10
268.368
 20
91.2178
 30
0.0
 11
268.368
 21
90.2187
 31
0.0
  0
LINE
  8
0
 62
     0
 10
268.368
 20
90.2187
 30
0.0
 11
267.568
 21
90.2187
 31
0.0
  0
LINE
  8
0
 62
     0
 10
267.568
 20
90.2187
 30
0.0
 11
267.568
 21
87.1181
 31
0.0
  0
LINE
  8
0
 62
     0
 10
267.568
 20
87.1181
 30
0.0
 11
268.368
 21
87.1181
 31
0.0
  0
LINE
  8
0
 62
     0
 10
268.368
 20
87.1181
 30
0.0
 11
268.368
 21
81.3181
 31
0.0
  0
LINE
  8
0
 62
     0
 10
268.368
 20
81.3181
 30
0.0
 11
267.568
 21
81.3181
 31
0.0
  0
LINE
  8
0
 62
     0
 10
267.568
 20
81.3181
 30
0.0
 11
267.568
 21
78.219
 31
0.0
  0
LINE
  8
0
 62
     0
 10
267.568
 20
78.219
 30
0.0
 11
268.368
 21
78.219
 31
0.0
  0
LINE
  8
0
 62
     0
 10
268.368
 20
78.219
 30
0.0
 11
268.368
 21
77.2185
 31
0.0
  0
LINE
  8
0
 62
     0
 10
268.368
 20
77.2185
 30
0.0
 11
282.367
 21
77.2185
 31
0.0
  0
LINE
  8
0
 62
     0
 10
282.367
 20
77.2185
 30
0.0
 11
282.367
 21
78.219
 31
0.0
  0
LINE
  8
0
 62
     0
 10
282.367
 20
78.219
 30
0.0
 11
283.168
 21
78.219
 31
0.0
  0
LINE
  8
0
 62
     0
 10
283.168
 20
78.219
 30
0.0
 11
283.168
 21
81.3181
 31
0.0
  0
LINE
  8
0
 62
     0
 10
283.168
 20
81.3181
 30
0.0
 11
282.367
 21
81.3181
 31
0.0
  0
LINE
  8
0
 62
     0
 10
282.367
 20
81.3181
 30
0.0
 11
282.367
 21
87.1181
 31
0.0
  0
LINE
  8
0
 62
     0
 10
282.367
 20
87.1181
 30
0.0
 11
283.168
 21
87.1181
 31
0.0
  0
LINE
  8
0
 62
     0
 10
283.168
 20
87.1181
 30
0.0
 11
283.168
 21
90.2187
 31
0.0
  0
LINE
  8
0
 62
     0
 10
283.168
 20
90.2187
 30
0.0
 11
282.367
 21
90.2187
 31
0.0
  0
LINE
  8
0
 62
     0
 10
282.367
 20
90.2187
 30
0.0
 11
282.367
 21
91.2178
 31
0.0
  0
LINE
  8
0
 62
     0
 10
282.367
 20
91.2178
 30
0.0
 11
268.368
 21
91.2178
 31
0.0
  0
LINE
  8
0
 62
     0
 10
249.318
 20
91.2178
 30
0.0
 11
249.318
 21
90.2187
 31
0.0
  0
LINE
  8
0
 62
     0
 10
249.318
 20
90.2187
 30
0.0
 11
248.518
 21
90.2187
 31
0.0
  0
LINE
  8
0
 62
     0
 10
248.518
 20
90.2187
 30
0.0
 11
248.518
 21
87.1181
 31
0.0
  0
LINE
  8
0
 62
     0
 10
248.518
 20
87.1181
 30
0.0
 11
249.318
 21
87.1181
 31
0.0
  0
LINE
  8
0
 62
     0
 10
249.318
 20
87.1181
 30
0.0
 11
249.318
 21
81.3181
 31
0.0
  0
LINE
  8
0
 62
     0
 10
249.318
 20
81.3181
 30
0.0
 11
248.518
 21
81.3181
 31
0.0
  0
LINE
  8
0
 62
     0
 10
248.518
 20
81.3181
 30
0.0
 11
248.518
 21
78.219
 31
0.0
  0
LINE
  8
0
 62
     0
 10
248.518
 20
78.219
 30
0.0
 11
249.318
 21
78.219
 31
0.0
  0
LINE
  8
0
 62
     0
 10
249.318
 20
78.219
 30
0.0
 11
249.318
 21
77.2185
 31
0.0
  0
LINE
  8
0
 62
     0
 10
249.318
 20
77.2185
 30
0.0
 11
263.317
 21
77.2185
 31
0.0
  0
LINE
  8
0
 62
     0
 10
263.317
 20
77.2185
 30
0.0
 11
263.317
 21
78.219
 31
0.0
  0
LINE
  8
0
 62
     0
 10
263.317
 20
78.219
 30
0.0
 11
264.118
 21
78.219
 31
0.0
  0
LINE
  8
0
 62
     0
 10
264.118
 20
78.219
 30
0.0
 11
264.118
 21
81.3181
 31
0.0
  0
LINE
  8
0
 62
     0
 10
264.118
 20
81.3181
 30
0.0
 11
263.317
 21
81.3181
 31
0.0
  0
LINE
  8
0
 62
     0
 10
263.317
 20
81.3181
 30
0.0
 11
263.317
 21
87.1181
 31
0.0
  0
LINE
  8
0
 62
     0
 10
263.317
 20
87.1181
 30
0.0
 11
264.118
 21
87.1181
 31
0.0
  0
LINE
  8
0
 62
     0
 10
264.118
 20
87.1181
 30
0.0
 11
264.118
 21
90.2187
 31
0.0
  0
LINE
  8
0
 62
     0
 10
264.118
 20
90.2187
 30
0.0
 11
263.317
 21
90.2187
 31
0.0
  0
LINE
  8
0
 62
     0
 10
263.317
 20
90.2187
 30
0.0
 11
263.317
 21
91.2178
 31
0.0
  0
LINE
  8
0
 62
     0
 10
263.317
 20
91.2178
 30
0.0
 11
249.318
 21
91.2178
 31
0.0
  0
LINE
  8
0
 62
     0
 10
40.7211
 20
91.2178
 30
0.0
 11
40.7211
 21
90.2187
 31
0.0
  0
LINE
  8
0
 62
     0
 10
40.7211
 20
90.2187
 30
0.0
 11
39.9203
 21
90.2187
 31
0.0
  0
LINE
  8
0
 62
     0
 10
39.9203
 20
90.2187
 30
0.0
 11
39.9203
 21
87.1181
 31
0.0
  0
LINE
  8
0
 62
     0
 10
39.9203
 20
87.1181
 30
0.0
 11
40.7211
 21
87.1181
 31
0.0
  0
LINE
  8
0
 62
     0
 10
40.7211
 20
87.1181
 30
0.0
 11
40.7211
 21
81.3181
 31
0.0
  0
LINE
  8
0
 62
     0
 10
40.7211
 20
81.3181
 30
0.0
 11
39.9203
 21
81.3181
 31
0.0
  0
LINE
  8
0
 62
     0
 10
39.9203
 20
81.3181
 30
0.0
 11
39.9203
 21
78.219
 31
0.0
  0
LINE
  8
0
 62
     0
 10
39.9203
 20
78.219
 30
0.0
 11
40.7211
 21
78.219
 31
0.0
  0
LINE
  8
0
 62
     0
 10
40.7211
 20
78.219
 30
0.0
 11
40.7211
 21
77.2185
 31
0.0
  0
LINE
  8
0
 62
     0
 10
40.7211
 20
77.2185
 30
0.0
 11
54.7204
 21
77.2185
 31
0.0
  0
LINE
  8
0
 62
     0
 10
54.7204
 20
77.2185
 30
0.0
 11
54.7204
 21
78.219
 31
0.0
  0
LINE
  8
0
 62
     0
 10
54.7204
 20
78.219
 30
0.0
 11
55.5212
 21
78.219
 31
0.0
  0
LINE
  8
0
 62
     0
 10
55.5212
 20
78.219
 30
0.0
 11
55.5212
 21
81.3181
 31
0.0
  0
LINE
  8
0
 62
     0
 10
55.5212
 20
81.3181
 30
0.0
 11
54.7204
 21
81.3181
 31
0.0
  0
LINE
  8
0
 62
     0
 10
54.7204
 20
81.3181
 30
0.0
 11
54.7204
 21
87.1181
 31
0.0
  0
LINE
  8
0
 62
     0
 10
54.7204
 20
87.1181
 30
0.0
 11
55.5212
 21
87.1181
 31
0.0
  0
LINE
  8
0
 62
     0
 10
55.5212
 20
87.1181
 30
0.0
 11
55.5212
 21
90.2187
 31
0.0
  0
LINE
  8
0
 62
     0
 10
55.5212
 20
90.2187
 30
0.0
 11
54.7204
 21
90.2187
 31
0.0
  0
LINE
  8
0
 62
     0
 10
54.7204
 20
90.2187
 30
0.0
 11
54.7204
 21
91.2178
 31
0.0
  0
LINE
  8
0
 62
     0
 10
54.7204
 20
91.2178
 30
0.0
 11
40.7211
 21
91.2178
 31
0.0
  0
LINE
  8
0
 62
     0
 10
9.76341
 20
91.2178
 30
0.0
 11
9.76341
 21
90.2187
 31
0.0
  0
LINE
  8
0
 62
     0
 10
9.76341
 20
90.2187
 30
0.0
 11
8.96415
 21
90.2187
 31
0.0
  0
LINE
  8
0
 62
     0
 10
8.96415
 20
90.2187
 30
0.0
 11
8.96415
 21
87.1181
 31
0.0
  0
LINE
  8
0
 62
     0
 10
8.96415
 20
87.1181
 30
0.0
 11
9.76341
 21
87.1181
 31
0.0
  0
LINE
  8
0
 62
     0
 10
9.76341
 20
87.1181
 30
0.0
 11
9.76341
 21
81.3181
 31
0.0
  0
LINE
  8
0
 62
     0
 10
9.76341
 20
81.3181
 30
0.0
 11
8.96415
 21
81.3181
 31
0.0
  0
LINE
  8
0
 62
     0
 10
8.96415
 20
81.3181
 30
0.0
 11
8.96415
 21
78.219
 31
0.0
  0
LINE
  8
0
 62
     0
 10
8.96415
 20
78.219
 30
0.0
 11
9.76341
 21
78.219
 31
0.0
  0
LINE
  8
0
 62
     0
 10
9.76341
 20
78.219
 30
0.0
 11
9.76341
 21
77.2185
 31
0.0
  0
LINE
  8
0
 62
     0
 10
9.76341
 20
77.2185
 30
0.0
 11
23.7629
 21
77.2185
 31
0.0
  0
LINE
  8
0
 62
     0
 10
23.7629
 20
77.2185
 30
0.0
 11
23.7629
 21
78.219
 31
0.0
  0
LINE
  8
0
 62
     0
 10
23.7629
 20
78.219
 30
0.0
 11
24.5635
 21
78.219
 31
0.0
  0
LINE
  8
0
 62
     0
 10
24.5635
 20
78.219
 30
0.0
 11
24.5635
 21
81.3181
 31
0.0
  0
LINE
  8
0
 62
     0
 10
24.5635
 20
81.3181
 30
0.0
 11
23.7629
 21
81.3181
 31
0.0
  0
LINE
  8
0
 62
     0
 10
23.7629
 20
81.3181
 30
0.0
 11
23.7629
 21
87.1181
 31
0.0
  0
LINE
  8
0
 62
     0
 10
23.7629
 20
87.1181
 30
0.0
 11
24.5635
 21
87.1181
 31
0.0
  0
LINE
  8
0
 62
     0
 10
24.5635
 20
87.1181
 30
0.0
 11
24.5635
 21
90.2187
 31
0.0
  0
LINE
  8
0
 62
     0
 10
24.5635
 20
90.2187
 30
0.0
 11
23.7629
 21
90.2187
 31
0.0
  0
LINE
  8
0
 62
     0
 10
23.7629
 20
90.2187
 30
0.0
 11
23.7629
 21
91.2178
 31
0.0
  0
LINE
  8
0
 62
     0
 10
23.7629
 20
91.2178
 30
0.0
 11
9.76341
 21
91.2178
 31
0.0
  0
LINE
  8
0
 62
     0
 10
162.081
 20
92.0418
 30
0.0
 11
162.289
 21
91.065
 31
0.0
  0
LINE
  8
0
 62
     0
 10
162.289
 20
91.065
 30
0.0
 11
161.506
 21
90.8981
 31
0.0
  0
LINE
  8
0
 62
     0
 10
161.506
 20
90.8981
 30
0.0
 11
162.151
 21
87.8664
 31
0.0
  0
LINE
  8
0
 62
     0
 10
162.151
 20
87.8664
 30
0.0
 11
162.932
 21
88.0318
 31
0.0
  0
LINE
  8
0
 62
     0
 10
162.932
 20
88.0318
 30
0.0
 11
164.138
 21
82.3599
 31
0.0
  0
LINE
  8
0
 62
     0
 10
164.138
 20
82.3599
 30
0.0
 11
163.357
 21
82.193
 31
0.0
  0
LINE
  8
0
 62
     0
 10
163.357
 20
82.193
 30
0.0
 11
164
 21
79.1602
 31
0.0
  0
LINE
  8
0
 62
     0
 10
164
 20
79.1602
 30
0.0
 11
164.783
 21
79.3267
 31
0.0
  0
LINE
  8
0
 62
     0
 10
164.783
 20
79.3267
 30
0.0
 11
164.991
 21
78.3484
 31
0.0
  0
LINE
  8
0
 62
     0
 10
164.991
 20
78.3484
 30
0.0
 11
178.686
 21
81.2588
 31
0.0
  0
LINE
  8
0
 62
     0
 10
178.686
 20
81.2588
 30
0.0
 11
178.478
 21
82.2371
 31
0.0
  0
LINE
  8
0
 62
     0
 10
178.478
 20
82.2371
 30
0.0
 11
179.259
 21
82.4039
 31
0.0
  0
LINE
  8
0
 62
     0
 10
179.259
 20
82.4039
 30
0.0
 11
178.616
 21
85.4371
 31
0.0
  0
LINE
  8
0
 62
     0
 10
178.616
 20
85.4371
 30
0.0
 11
177.833
 21
85.2689
 31
0.0
  0
LINE
  8
0
 62
     0
 10
177.833
 20
85.2689
 30
0.0
 11
176.626
 21
90.9436
 31
0.0
  0
LINE
  8
0
 62
     0
 10
176.626
 20
90.9436
 30
0.0
 11
177.41
 21
91.1091
 31
0.0
  0
LINE
  8
0
 62
     0
 10
177.41
 20
91.1091
 30
0.0
 11
176.765
 21
94.1419
 31
0.0
  0
LINE
  8
0
 62
     0
 10
176.765
 20
94.1419
 30
0.0
 11
175.982
 21
93.9754
 31
0.0
  0
LINE
  8
0
 62
     0
 10
175.982
 20
93.9754
 30
0.0
 11
175.774
 21
94.9537
 31
0.0
  0
LINE
  8
0
 62
     0
 10
175.774
 20
94.9537
 30
0.0
 11
162.081
 21
92.0418
 31
0.0
  0
LINE
  8
0
 62
     0
 10
335.043
 20
95.9817
 30
0.0
 11
335.043
 21
94.9812
 31
0.0
  0
LINE
  8
0
 62
     0
 10
335.043
 20
94.9812
 30
0.0
 11
334.243
 21
94.9812
 31
0.0
  0
LINE
  8
0
 62
     0
 10
334.243
 20
94.9812
 30
0.0
 11
334.243
 21
91.882
 31
0.0
  0
LINE
  8
0
 62
     0
 10
334.243
 20
91.882
 30
0.0
 11
335.043
 21
91.882
 31
0.0
  0
LINE
  8
0
 62
     0
 10
335.043
 20
91.882
 30
0.0
 11
335.043
 21
86.082
 31
0.0
  0
LINE
  8
0
 62
     0
 10
335.043
 20
86.082
 30
0.0
 11
334.243
 21
86.082
 31
0.0
  0
LINE
  8
0
 62
     0
 10
334.243
 20
86.082
 30
0.0
 11
334.243
 21
82.9815
 31
0.0
  0
LINE
  8
0
 62
     0
 10
334.243
 20
82.9815
 30
0.0
 11
335.043
 21
82.9815
 31
0.0
  0
LINE
  8
0
 62
     0
 10
335.043
 20
82.9815
 30
0.0
 11
335.043
 21
81.981
 31
0.0
  0
LINE
  8
0
 62
     0
 10
335.043
 20
81.981
 30
0.0
 11
349.042
 21
81.981
 31
0.0
  0
LINE
  8
0
 62
     0
 10
349.042
 20
81.981
 30
0.0
 11
349.042
 21
82.9815
 31
0.0
  0
LINE
  8
0
 62
     0
 10
349.042
 20
82.9815
 30
0.0
 11
349.843
 21
82.9815
 31
0.0
  0
LINE
  8
0
 62
     0
 10
349.843
 20
82.9815
 30
0.0
 11
349.843
 21
86.082
 31
0.0
  0
LINE
  8
0
 62
     0
 10
349.843
 20
86.082
 30
0.0
 11
349.042
 21
86.082
 31
0.0
  0
LINE
  8
0
 62
     0
 10
349.042
 20
86.082
 30
0.0
 11
349.042
 21
91.882
 31
0.0
  0
LINE
  8
0
 62
     0
 10
349.042
 20
91.882
 30
0.0
 11
349.843
 21
91.882
 31
0.0
  0
LINE
  8
0
 62
     0
 10
349.843
 20
91.882
 30
0.0
 11
349.843
 21
94.9812
 31
0.0
  0
LINE
  8
0
 62
     0
 10
349.843
 20
94.9812
 30
0.0
 11
349.042
 21
94.9812
 31
0.0
  0
LINE
  8
0
 62
     0
 10
349.042
 20
94.9812
 30
0.0
 11
349.042
 21
95.9817
 31
0.0
  0
LINE
  8
0
 62
     0
 10
349.042
 20
95.9817
 30
0.0
 11
335.043
 21
95.9817
 31
0.0
  0
LINE
  8
0
 62
     0
 10
180.713
 20
96.0039
 30
0.0
 11
180.921
 21
95.0253
 31
0.0
  0
LINE
  8
0
 62
     0
 10
180.921
 20
95.0253
 30
0.0
 11
180.14
 21
94.8602
 31
0.0
  0
LINE
  8
0
 62
     0
 10
180.14
 20
94.8602
 30
0.0
 11
180.783
 21
91.827
 31
0.0
  0
LINE
  8
0
 62
     0
 10
180.783
 20
91.827
 30
0.0
 11
181.566
 21
91.9939
 31
0.0
  0
LINE
  8
0
 62
     0
 10
181.566
 20
91.9939
 30
0.0
 11
182.772
 21
86.3191
 31
0.0
  0
LINE
  8
0
 62
     0
 10
182.772
 20
86.3191
 30
0.0
 11
181.989
 21
86.1536
 31
0.0
  0
LINE
  8
0
 62
     0
 10
181.989
 20
86.1536
 30
0.0
 11
182.634
 21
83.1219
 31
0.0
  0
LINE
  8
0
 62
     0
 10
182.634
 20
83.1219
 30
0.0
 11
183.417
 21
83.2873
 31
0.0
  0
LINE
  8
0
 62
     0
 10
183.417
 20
83.2873
 30
0.0
 11
183.625
 21
82.3087
 31
0.0
  0
LINE
  8
0
 62
     0
 10
183.625
 20
82.3087
 30
0.0
 11
197.318
 21
85.2205
 31
0.0
  0
LINE
  8
0
 62
     0
 10
197.318
 20
85.2205
 30
0.0
 11
197.11
 21
86.1991
 31
0.0
  0
LINE
  8
0
 62
     0
 10
197.11
 20
86.1991
 30
0.0
 11
197.893
 21
86.3646
 31
0.0
  0
LINE
  8
0
 62
     0
 10
197.893
 20
86.3646
 30
0.0
 11
197.248
 21
89.396
 31
0.0
  0
LINE
  8
0
 62
     0
 10
197.248
 20
89.396
 30
0.0
 11
196.467
 21
89.2309
 31
0.0
  0
LINE
  8
0
 62
     0
 10
196.467
 20
89.2309
 30
0.0
 11
195.261
 21
94.9029
 31
0.0
  0
LINE
  8
0
 62
     0
 10
195.261
 20
94.9029
 30
0.0
 11
196.042
 21
95.0708
 31
0.0
  0
LINE
  8
0
 62
     0
 10
196.042
 20
95.0708
 30
0.0
 11
195.399
 21
98.1026
 31
0.0
  0
LINE
  8
0
 62
     0
 10
195.399
 20
98.1026
 30
0.0
 11
194.615
 21
97.9357
 31
0.0
  0
LINE
  8
0
 62
     0
 10
194.615
 20
97.9357
 30
0.0
 11
194.408
 21
98.9143
 31
0.0
  0
LINE
  8
0
 62
     0
 10
194.408
 20
98.9143
 30
0.0
 11
180.713
 21
96.0039
 31
0.0
  0
LINE
  8
0
 62
     0
 10
119.968
 20
99.0783
 30
0.0
 11
119.185
 21
99.2449
 31
0.0
  0
LINE
  8
0
 62
     0
 10
119.185
 20
99.2449
 30
0.0
 11
118.54
 21
96.212
 31
0.0
  0
LINE
  8
0
 62
     0
 10
118.54
 20
96.212
 30
0.0
 11
119.323
 21
96.0466
 31
0.0
  0
LINE
  8
0
 62
     0
 10
119.323
 20
96.0466
 30
0.0
 11
118.117
 21
90.3732
 31
0.0
  0
LINE
  8
0
 62
     0
 10
118.117
 20
90.3732
 30
0.0
 11
117.335
 21
90.5397
 31
0.0
  0
LINE
  8
0
 62
     0
 10
117.335
 20
90.5397
 30
0.0
 11
116.691
 21
87.5069
 31
0.0
  0
LINE
  8
0
 62
     0
 10
116.691
 20
87.5069
 30
0.0
 11
117.472
 21
87.34
 31
0.0
  0
LINE
  8
0
 62
     0
 10
117.472
 20
87.34
 30
0.0
 11
117.264
 21
86.3632
 31
0.0
  0
LINE
  8
0
 62
     0
 10
117.264
 20
86.3632
 30
0.0
 11
130.959
 21
83.4528
 31
0.0
  0
LINE
  8
0
 62
     0
 10
130.959
 20
83.4528
 30
0.0
 11
131.166
 21
84.431
 31
0.0
  0
LINE
  8
0
 62
     0
 10
131.166
 20
84.431
 30
0.0
 11
131.95
 21
84.2627
 31
0.0
  0
LINE
  8
0
 62
     0
 10
131.95
 20
84.2627
 30
0.0
 11
132.593
 21
87.2959
 31
0.0
  0
LINE
  8
0
 62
     0
 10
132.593
 20
87.2959
 30
0.0
 11
131.812
 21
87.4628
 31
0.0
  0
LINE
  8
0
 62
     0
 10
131.812
 20
87.4628
 30
0.0
 11
133.018
 21
93.1362
 31
0.0
  0
LINE
  8
0
 62
     0
 10
133.018
 20
93.1362
 30
0.0
 11
133.799
 21
92.9693
 31
0.0
  0
LINE
  8
0
 62
     0
 10
133.799
 20
92.9693
 30
0.0
 11
134.444
 21
96.0011
 31
0.0
  0
LINE
  8
0
 62
     0
 10
134.444
 20
96.0011
 30
0.0
 11
133.662
 21
96.1679
 31
0.0
  0
LINE
  8
0
 62
     0
 10
133.662
 20
96.1679
 30
0.0
 11
133.87
 21
97.1462
 31
0.0
  0
LINE
  8
0
 62
     0
 10
133.87
 20
97.1462
 30
0.0
 11
120.176
 21
100.058
 31
0.0
  0
LINE
  8
0
 62
     0
 10
120.176
 20
100.058
 30
0.0
 11
119.968
 21
99.0783
 31
0.0
  0
LINE
  8
0
 62
     0
 10
199.347
 20
99.9656
 30
0.0
 11
199.555
 21
98.9859
 31
0.0
  0
LINE
  8
0
 62
     0
 10
199.555
 20
98.9859
 30
0.0
 11
198.774
 21
98.8191
 31
0.0
  0
LINE
  8
0
 62
     0
 10
198.774
 20
98.8191
 30
0.0
 11
199.417
 21
95.7873
 31
0.0
  0
LINE
  8
0
 62
     0
 10
199.417
 20
95.7873
 30
0.0
 11
200.2
 21
95.9527
 31
0.0
  0
LINE
  8
0
 62
     0
 10
200.2
 20
95.9527
 30
0.0
 11
201.406
 21
90.2808
 31
0.0
  0
LINE
  8
0
 62
     0
 10
201.406
 20
90.2808
 30
0.0
 11
200.623
 21
90.1139
 31
0.0
  0
LINE
  8
0
 62
     0
 10
200.623
 20
90.1139
 30
0.0
 11
201.268
 21
87.0811
 31
0.0
  0
LINE
  8
0
 62
     0
 10
201.268
 20
87.0811
 30
0.0
 11
202.051
 21
87.2476
 31
0.0
  0
LINE
  8
0
 62
     0
 10
202.051
 20
87.2476
 30
0.0
 11
202.259
 21
86.2707
 31
0.0
  0
LINE
  8
0
 62
     0
 10
202.259
 20
86.2707
 30
0.0
 11
215.952
 21
89.1798
 31
0.0
  0
LINE
  8
0
 62
     0
 10
215.952
 20
89.1798
 30
0.0
 11
215.744
 21
90.1594
 31
0.0
  0
LINE
  8
0
 62
     0
 10
215.744
 20
90.1594
 30
0.0
 11
216.527
 21
90.3249
 31
0.0
  0
LINE
  8
0
 62
     0
 10
216.527
 20
90.3249
 30
0.0
 11
215.882
 21
93.3581
 31
0.0
  0
LINE
  8
0
 62
     0
 10
215.882
 20
93.3581
 30
0.0
 11
215.101
 21
93.1912
 31
0.0
  0
LINE
  8
0
 62
     0
 10
215.101
 20
93.1912
 30
0.0
 11
213.895
 21
98.8646
 31
0.0
  0
LINE
  8
0
 62
     0
 10
213.895
 20
98.8646
 30
0.0
 11
214.676
 21
99.03
 31
0.0
  0
LINE
  8
0
 62
     0
 10
214.676
 20
99.03
 30
0.0
 11
214.033
 21
102.063
 31
0.0
  0
LINE
  8
0
 62
     0
 10
214.033
 20
102.063
 30
0.0
 11
213.25
 21
101.896
 31
0.0
  0
LINE
  8
0
 62
     0
 10
213.25
 20
101.896
 30
0.0
 11
213.042
 21
102.875
 31
0.0
  0
LINE
  8
0
 62
     0
 10
213.042
 20
102.875
 30
0.0
 11
199.347
 21
99.9656
 31
0.0
  0
LINE
  8
0
 62
     0
 10
101.334
 20
103.04
 30
0.0
 11
100.551
 21
103.205
 31
0.0
  0
LINE
  8
0
 62
     0
 10
100.551
 20
103.205
 30
0.0
 11
99.9063
 21
100.174
 31
0.0
  0
LINE
  8
0
 62
     0
 10
99.9063
 20
100.174
 30
0.0
 11
100.689
 21
100.007
 31
0.0
  0
LINE
  8
0
 62
     0
 10
100.689
 20
100.007
 30
0.0
 11
99.4833
 21
94.3335
 31
0.0
  0
LINE
  8
0
 62
     0
 10
99.4833
 20
94.3335
 30
0.0
 11
98.7019
 21
94.5003
 31
0.0
  0
LINE
  8
0
 62
     0
 10
98.7019
 20
94.5003
 30
0.0
 11
98.0571
 21
91.4686
 31
0.0
  0
LINE
  8
0
 62
     0
 10
98.0571
 20
91.4686
 30
0.0
 11
98.8399
 21
91.3021
 31
0.0
  0
LINE
  8
0
 62
     0
 10
98.8399
 20
91.3021
 30
0.0
 11
98.6317
 21
90.3235
 31
0.0
  0
LINE
  8
0
 62
     0
 10
98.6317
 20
90.3235
 30
0.0
 11
112.325
 21
87.4116
 31
0.0
  0
LINE
  8
0
 62
     0
 10
112.325
 20
87.4116
 30
0.0
 11
112.533
 21
88.3902
 31
0.0
  0
LINE
  8
0
 62
     0
 10
112.533
 20
88.3902
 30
0.0
 11
113.316
 21
88.2248
 31
0.0
  0
LINE
  8
0
 62
     0
 10
113.316
 20
88.2248
 30
0.0
 11
113.961
 21
91.2566
 31
0.0
  0
LINE
  8
0
 62
     0
 10
113.961
 20
91.2566
 30
0.0
 11
113.177
 21
91.4231
 31
0.0
  0
LINE
  8
0
 62
     0
 10
113.177
 20
91.4231
 30
0.0
 11
114.384
 21
97.0964
 31
0.0
  0
LINE
  8
0
 62
     0
 10
114.384
 20
97.0964
 30
0.0
 11
115.167
 21
96.9299
 31
0.0
  0
LINE
  8
0
 62
     0
 10
115.167
 20
96.9299
 30
0.0
 11
115.81
 21
99.9628
 31
0.0
  0
LINE
  8
0
 62
     0
 10
115.81
 20
99.9628
 30
0.0
 11
115.029
 21
100.128
 31
0.0
  0
LINE
  8
0
 62
     0
 10
115.029
 20
100.128
 30
0.0
 11
115.236
 21
101.107
 31
0.0
  0
LINE
  8
0
 62
     0
 10
115.236
 20
101.107
 30
0.0
 11
101.542
 21
104.017
 31
0.0
  0
LINE
  8
0
 62
     0
 10
101.542
 20
104.017
 30
0.0
 11
101.334
 21
103.04
 31
0.0
  0
LINE
  8
0
 62
     0
 10
217.981
 20
103.925
 30
0.0
 11
218.189
 21
102.946
 31
0.0
  0
LINE
  8
0
 62
     0
 10
218.189
 20
102.946
 30
0.0
 11
217.406
 21
102.781
 31
0.0
  0
LINE
  8
0
 62
     0
 10
217.406
 20
102.781
 30
0.0
 11
218.051
 21
99.7479
 31
0.0
  0
LINE
  8
0
 62
     0
 10
218.051
 20
99.7479
 30
0.0
 11
218.834
 21
99.9148
 31
0.0
  0
LINE
  8
0
 62
     0
 10
218.834
 20
99.9148
 30
0.0
 11
220.039
 21
94.2414
 31
0.0
  0
LINE
  8
0
 62
     0
 10
220.039
 20
94.2414
 30
0.0
 11
219.257
 21
94.0745
 31
0.0
  0
LINE
  8
0
 62
     0
 10
219.257
 20
94.0745
 30
0.0
 11
219.902
 21
91.0428
 31
0.0
  0
LINE
  8
0
 62
     0
 10
219.902
 20
91.0428
 30
0.0
 11
220.685
 21
91.2096
 31
0.0
  0
LINE
  8
0
 62
     0
 10
220.685
 20
91.2096
 30
0.0
 11
220.893
 21
90.23
 31
0.0
  0
LINE
  8
0
 62
     0
 10
220.893
 20
90.23
 30
0.0
 11
234.586
 21
93.1415
 31
0.0
  0
LINE
  8
0
 62
     0
 10
234.586
 20
93.1415
 30
0.0
 11
234.378
 21
94.1201
 31
0.0
  0
LINE
  8
0
 62
     0
 10
234.378
 20
94.1201
 30
0.0
 11
235.161
 21
94.2869
 31
0.0
  0
LINE
  8
0
 62
     0
 10
235.161
 20
94.2869
 30
0.0
 11
234.516
 21
97.3183
 31
0.0
  0
LINE
  8
0
 62
     0
 10
234.516
 20
97.3183
 30
0.0
 11
233.733
 21
97.1532
 31
0.0
  0
LINE
  8
0
 62
     0
 10
233.733
 20
97.1532
 30
0.0
 11
232.527
 21
102.825
 31
0.0
  0
LINE
  8
0
 62
     0
 10
232.527
 20
102.825
 30
0.0
 11
233.31
 21
102.992
 31
0.0
  0
LINE
  8
0
 62
     0
 10
233.31
 20
102.992
 30
0.0
 11
232.665
 21
106.023
 31
0.0
  0
LINE
  8
0
 62
     0
 10
232.665
 20
106.023
 30
0.0
 11
231.884
 21
105.857
 31
0.0
  0
LINE
  8
0
 62
     0
 10
231.884
 20
105.857
 30
0.0
 11
231.676
 21
106.835
 31
0.0
  0
LINE
  8
0
 62
     0
 10
231.676
 20
106.835
 30
0.0
 11
217.981
 21
103.925
 31
0.0
  0
LINE
  8
0
 62
     0
 10
82.7003
 20
107.001
 30
0.0
 11
81.9175
 21
107.166
 31
0.0
  0
LINE
  8
0
 62
     0
 10
81.9175
 20
107.166
 30
0.0
 11
81.274
 21
104.134
 31
0.0
  0
LINE
  8
0
 62
     0
 10
81.274
 20
104.134
 30
0.0
 11
82.0554
 21
103.967
 31
0.0
  0
LINE
  8
0
 62
     0
 10
82.0554
 20
103.967
 30
0.0
 11
80.8496
 21
98.2941
 31
0.0
  0
LINE
  8
0
 62
     0
 10
80.8496
 20
98.2941
 30
0.0
 11
80.0682
 21
98.461
 31
0.0
  0
LINE
  8
0
 62
     0
 10
80.0682
 20
98.461
 30
0.0
 11
79.4219
 21
95.4278
 31
0.0
  0
LINE
  8
0
 62
     0
 10
79.4219
 20
95.4278
 30
0.0
 11
80.2058
 21
95.2623
 31
0.0
  0
LINE
  8
0
 62
     0
 10
80.2058
 20
95.2623
 30
0.0
 11
79.998
 21
94.2841
 31
0.0
  0
LINE
  8
0
 62
     0
 10
79.998
 20
94.2841
 30
0.0
 11
93.6914
 21
91.3737
 31
0.0
  0
LINE
  8
0
 62
     0
 10
93.6914
 20
91.3737
 30
0.0
 11
93.8996
 21
92.3519
 31
0.0
  0
LINE
  8
0
 62
     0
 10
93.8996
 20
92.3519
 30
0.0
 11
94.681
 21
92.1854
 31
0.0
  0
LINE
  8
0
 62
     0
 10
94.681
 20
92.1854
 30
0.0
 11
95.3273
 21
95.2168
 31
0.0
  0
LINE
  8
0
 62
     0
 10
95.3273
 20
95.2168
 30
0.0
 11
94.543
 21
95.3837
 31
0.0
  0
LINE
  8
0
 62
     0
 10
94.543
 20
95.3837
 30
0.0
 11
95.7488
 21
101.057
 31
0.0
  0
LINE
  8
0
 62
     0
 10
95.7488
 20
101.057
 30
0.0
 11
96.5331
 21
100.89
 31
0.0
  0
LINE
  8
0
 62
     0
 10
96.5331
 20
100.89
 30
0.0
 11
97.1765
 21
103.923
 31
0.0
  0
LINE
  8
0
 62
     0
 10
97.1765
 20
103.923
 30
0.0
 11
96.3951
 21
104.089
 31
0.0
  0
LINE
  8
0
 62
     0
 10
96.3951
 20
104.089
 30
0.0
 11
96.6018
 21
105.067
 31
0.0
  0
LINE
  8
0
 62
     0
 10
96.6018
 20
105.067
 30
0.0
 11
82.9084
 21
107.979
 31
0.0
  0
LINE
  8
0
 62
     0
 10
82.9084
 20
107.979
 30
0.0
 11
82.7003
 21
107.001
 31
0.0
  0
LINE
  8
0
 62
     0
 10
236.616
 20
107.885
 30
0.0
 11
236.823
 21
106.907
 31
0.0
  0
LINE
  8
0
 62
     0
 10
236.823
 20
106.907
 30
0.0
 11
236.04
 21
106.741
 31
0.0
  0
LINE
  8
0
 62
     0
 10
236.04
 20
106.741
 30
0.0
 11
236.685
 21
103.709
 31
0.0
  0
LINE
  8
0
 62
     0
 10
236.685
 20
103.709
 30
0.0
 11
237.468
 21
103.875
 31
0.0
  0
LINE
  8
0
 62
     0
 10
237.468
 20
103.875
 30
0.0
 11
238.674
 21
98.2017
 31
0.0
  0
LINE
  8
0
 62
     0
 10
238.674
 20
98.2017
 30
0.0
 11
237.891
 21
98.0352
 31
0.0
  0
LINE
  8
0
 62
     0
 10
237.891
 20
98.0352
 30
0.0
 11
238.536
 21
95.0034
 31
0.0
  0
LINE
  8
0
 62
     0
 10
238.536
 20
95.0034
 30
0.0
 11
239.317
 21
95.1699
 31
0.0
  0
LINE
  8
0
 62
     0
 10
239.317
 20
95.1699
 30
0.0
 11
239.525
 21
94.1917
 31
0.0
  0
LINE
  8
0
 62
     0
 10
239.525
 20
94.1917
 30
0.0
 11
253.22
 21
97.1021
 31
0.0
  0
LINE
  8
0
 62
     0
 10
253.22
 20
97.1021
 30
0.0
 11
253.012
 21
98.0803
 31
0.0
  0
LINE
  8
0
 62
     0
 10
253.012
 20
98.0803
 30
0.0
 11
253.795
 21
98.2458
 31
0.0
  0
LINE
  8
0
 62
     0
 10
253.795
 20
98.2458
 30
0.0
 11
253.148
 21
101.28
 31
0.0
  0
LINE
  8
0
 62
     0
 10
253.148
 20
101.28
 30
0.0
 11
252.367
 21
101.112
 31
0.0
  0
LINE
  8
0
 62
     0
 10
252.367
 20
101.112
 30
0.0
 11
251.16
 21
106.785
 31
0.0
  0
LINE
  8
0
 62
     0
 10
251.16
 20
106.785
 30
0.0
 11
251.944
 21
106.952
 31
0.0
  0
LINE
  8
0
 62
     0
 10
251.944
 20
106.952
 30
0.0
 11
251.299
 21
109.984
 31
0.0
  0
LINE
  8
0
 62
     0
 10
251.299
 20
109.984
 30
0.0
 11
250.518
 21
109.819
 31
0.0
  0
LINE
  8
0
 62
     0
 10
250.518
 20
109.819
 30
0.0
 11
250.31
 21
110.797
 31
0.0
  0
LINE
  8
0
 62
     0
 10
250.31
 20
110.797
 30
0.0
 11
236.616
 21
107.885
 31
0.0
  0
LINE
  8
0
 62
     0
 10
64.0662
 20
110.961
 30
0.0
 11
63.2852
 21
111.128
 31
0.0
  0
LINE
  8
0
 62
     0
 10
63.2852
 20
111.128
 30
0.0
 11
62.6403
 21
108.095
 31
0.0
  0
LINE
  8
0
 62
     0
 10
62.6403
 20
108.095
 30
0.0
 11
63.4227
 21
107.928
 31
0.0
  0
LINE
  8
0
 62
     0
 10
63.4227
 20
107.928
 30
0.0
 11
62.2169
 21
102.256
 31
0.0
  0
LINE
  8
0
 62
     0
 10
62.2169
 20
102.256
 30
0.0
 11
61.4331
 21
102.421
 31
0.0
  0
LINE
  8
0
 62
     0
 10
61.4331
 20
102.421
 30
0.0
 11
60.7893
 21
99.3895
 31
0.0
  0
LINE
  8
0
 62
     0
 10
60.7893
 20
99.3895
 30
0.0
 11
61.5721
 21
99.223
 31
0.0
  0
LINE
  8
0
 62
     0
 10
61.5721
 20
99.223
 30
0.0
 11
61.3639
 21
98.2444
 31
0.0
  0
LINE
  8
0
 62
     0
 10
61.3639
 20
98.2444
 30
0.0
 11
75.0577
 21
95.334
 31
0.0
  0
LINE
  8
0
 62
     0
 10
75.0577
 20
95.334
 30
0.0
 11
75.2658
 21
96.3126
 31
0.0
  0
LINE
  8
0
 62
     0
 10
75.2658
 20
96.3126
 30
0.0
 11
76.0483
 21
96.1457
 31
0.0
  0
LINE
  8
0
 62
     0
 10
76.0483
 20
96.1457
 30
0.0
 11
76.6921
 21
99.1789
 31
0.0
  0
LINE
  8
0
 62
     0
 10
76.6921
 20
99.1789
 30
0.0
 11
75.9107
 21
99.344
 31
0.0
  0
LINE
  8
0
 62
     0
 10
75.9107
 20
99.344
 30
0.0
 11
77.1165
 21
105.018
 31
0.0
  0
LINE
  8
0
 62
     0
 10
77.1165
 20
105.018
 30
0.0
 11
77.899
 21
104.851
 31
0.0
  0
LINE
  8
0
 62
     0
 10
77.899
 20
104.851
 30
0.0
 11
78.5442
 21
107.884
 31
0.0
  0
LINE
  8
0
 62
     0
 10
78.5442
 20
107.884
 30
0.0
 11
77.76
 21
108.051
 31
0.0
  0
LINE
  8
0
 62
     0
 10
77.76
 20
108.051
 30
0.0
 11
77.9681
 21
109.029
 31
0.0
  0
LINE
  8
0
 62
     0
 10
77.9681
 20
109.029
 30
0.0
 11
64.2744
 21
111.94
 31
0.0
  0
LINE
  8
0
 62
     0
 10
64.2744
 20
111.94
 30
0.0
 11
64.0662
 21
110.961
 31
0.0
  0
LINE
  8
0
 62
     0
 10
301.705
 20
110.268
 30
0.0
 11
301.705
 21
109.269
 31
0.0
  0
LINE
  8
0
 62
     0
 10
301.705
 20
109.269
 30
0.0
 11
300.906
 21
109.269
 31
0.0
  0
LINE
  8
0
 62
     0
 10
300.906
 20
109.269
 30
0.0
 11
300.906
 21
106.168
 31
0.0
  0
LINE
  8
0
 62
     0
 10
300.906
 20
106.168
 30
0.0
 11
301.705
 21
106.168
 31
0.0
  0
LINE
  8
0
 62
     0
 10
301.705
 20
106.168
 30
0.0
 11
301.705
 21
100.368
 31
0.0
  0
LINE
  8
0
 62
     0
 10
301.705
 20
100.368
 30
0.0
 11
300.906
 21
100.368
 31
0.0
  0
LINE
  8
0
 62
     0
 10
300.906
 20
100.368
 30
0.0
 11
300.906
 21
97.2689
 31
0.0
  0
LINE
  8
0
 62
     0
 10
300.906
 20
97.2689
 30
0.0
 11
301.705
 21
97.2689
 31
0.0
  0
LINE
  8
0
 62
     0
 10
301.705
 20
97.2689
 30
0.0
 11
301.705
 21
96.2685
 31
0.0
  0
LINE
  8
0
 62
     0
 10
301.705
 20
96.2685
 30
0.0
 11
315.706
 21
96.2685
 31
0.0
  0
LINE
  8
0
 62
     0
 10
315.706
 20
96.2685
 30
0.0
 11
315.706
 21
97.2689
 31
0.0
  0
LINE
  8
0
 62
     0
 10
315.706
 20
97.2689
 30
0.0
 11
316.505
 21
97.2689
 31
0.0
  0
LINE
  8
0
 62
     0
 10
316.505
 20
97.2689
 30
0.0
 11
316.505
 21
100.368
 31
0.0
  0
LINE
  8
0
 62
     0
 10
316.505
 20
100.368
 30
0.0
 11
315.706
 21
100.368
 31
0.0
  0
LINE
  8
0
 62
     0
 10
315.706
 20
100.368
 30
0.0
 11
315.706
 21
106.168
 31
0.0
  0
LINE
  8
0
 62
     0
 10
315.706
 20
106.168
 30
0.0
 11
316.505
 21
106.168
 31
0.0
  0
LINE
  8
0
 62
     0
 10
316.505
 20
106.168
 30
0.0
 11
316.505
 21
109.269
 31
0.0
  0
LINE
  8
0
 62
     0
 10
316.505
 20
109.269
 30
0.0
 11
315.706
 21
109.269
 31
0.0
  0
LINE
  8
0
 62
     0
 10
315.706
 20
109.269
 30
0.0
 11
315.706
 21
110.268
 31
0.0
  0
LINE
  8
0
 62
     0
 10
315.706
 20
110.268
 30
0.0
 11
301.705
 21
110.268
 31
0.0
  0
LINE
  8
0
 62
     0
 10
277.893
 20
110.268
 30
0.0
 11
277.893
 21
109.269
 31
0.0
  0
LINE
  8
0
 62
     0
 10
277.893
 20
109.269
 30
0.0
 11
277.093
 21
109.269
 31
0.0
  0
LINE
  8
0
 62
     0
 10
277.093
 20
109.269
 30
0.0
 11
277.093
 21
106.168
 31
0.0
  0
LINE
  8
0
 62
     0
 10
277.093
 20
106.168
 30
0.0
 11
277.893
 21
106.168
 31
0.0
  0
LINE
  8
0
 62
     0
 10
277.893
 20
106.168
 30
0.0
 11
277.893
 21
100.368
 31
0.0
  0
LINE
  8
0
 62
     0
 10
277.893
 20
100.368
 30
0.0
 11
277.093
 21
100.368
 31
0.0
  0
LINE
  8
0
 62
     0
 10
277.093
 20
100.368
 30
0.0
 11
277.093
 21
97.2689
 31
0.0
  0
LINE
  8
0
 62
     0
 10
277.093
 20
97.2689
 30
0.0
 11
277.893
 21
97.2689
 31
0.0
  0
LINE
  8
0
 62
     0
 10
277.893
 20
97.2689
 30
0.0
 11
277.893
 21
96.2685
 31
0.0
  0
LINE
  8
0
 62
     0
 10
277.893
 20
96.2685
 30
0.0
 11
291.892
 21
96.2685
 31
0.0
  0
LINE
  8
0
 62
     0
 10
291.892
 20
96.2685
 30
0.0
 11
291.892
 21
97.2689
 31
0.0
  0
LINE
  8
0
 62
     0
 10
291.892
 20
97.2689
 30
0.0
 11
292.693
 21
97.2689
 31
0.0
  0
LINE
  8
0
 62
     0
 10
292.693
 20
97.2689
 30
0.0
 11
292.693
 21
100.368
 31
0.0
  0
LINE
  8
0
 62
     0
 10
292.693
 20
100.368
 30
0.0
 11
291.892
 21
100.368
 31
0.0
  0
LINE
  8
0
 62
     0
 10
291.892
 20
100.368
 30
0.0
 11
291.892
 21
106.168
 31
0.0
  0
LINE
  8
0
 62
     0
 10
291.892
 20
106.168
 30
0.0
 11
292.693
 21
106.168
 31
0.0
  0
LINE
  8
0
 62
     0
 10
292.693
 20
106.168
 30
0.0
 11
292.693
 21
109.269
 31
0.0
  0
LINE
  8
0
 62
     0
 10
292.693
 20
109.269
 30
0.0
 11
291.892
 21
109.269
 31
0.0
  0
LINE
  8
0
 62
     0
 10
291.892
 20
109.269
 30
0.0
 11
291.892
 21
110.268
 31
0.0
  0
LINE
  8
0
 62
     0
 10
291.892
 20
110.268
 30
0.0
 11
277.893
 21
110.268
 31
0.0
  0
LINE
  8
0
 62
     0
 10
258.843
 20
110.268
 30
0.0
 11
258.843
 21
109.269
 31
0.0
  0
LINE
  8
0
 62
     0
 10
258.843
 20
109.269
 30
0.0
 11
258.043
 21
109.269
 31
0.0
  0
LINE
  8
0
 62
     0
 10
258.043
 20
109.269
 30
0.0
 11
258.043
 21
106.168
 31
0.0
  0
LINE
  8
0
 62
     0
 10
258.043
 20
106.168
 30
0.0
 11
258.843
 21
106.168
 31
0.0
  0
LINE
  8
0
 62
     0
 10
258.843
 20
106.168
 30
0.0
 11
258.843
 21
100.368
 31
0.0
  0
LINE
  8
0
 62
     0
 10
258.843
 20
100.368
 30
0.0
 11
258.043
 21
100.368
 31
0.0
  0
LINE
  8
0
 62
     0
 10
258.043
 20
100.368
 30
0.0
 11
258.043
 21
97.2689
 31
0.0
  0
LINE
  8
0
 62
     0
 10
258.043
 20
97.2689
 30
0.0
 11
258.843
 21
97.2689
 31
0.0
  0
LINE
  8
0
 62
     0
 10
258.843
 20
97.2689
 30
0.0
 11
258.843
 21
96.2685
 31
0.0
  0
LINE
  8
0
 62
     0
 10
258.843
 20
96.2685
 30
0.0
 11
272.842
 21
96.2685
 31
0.0
  0
LINE
  8
0
 62
     0
 10
272.842
 20
96.2685
 30
0.0
 11
272.842
 21
97.2689
 31
0.0
  0
LINE
  8
0
 62
     0
 10
272.842
 20
97.2689
 30
0.0
 11
273.643
 21
97.2689
 31
0.0
  0
LINE
  8
0
 62
     0
 10
273.643
 20
97.2689
 30
0.0
 11
273.643
 21
100.368
 31
0.0
  0
LINE
  8
0
 62
     0
 10
273.643
 20
100.368
 30
0.0
 11
272.842
 21
100.368
 31
0.0
  0
LINE
  8
0
 62
     0
 10
272.842
 20
100.368
 30
0.0
 11
272.842
 21
106.168
 31
0.0
  0
LINE
  8
0
 62
     0
 10
272.842
 20
106.168
 30
0.0
 11
273.643
 21
106.168
 31
0.0
  0
LINE
  8
0
 62
     0
 10
273.643
 20
106.168
 30
0.0
 11
273.643
 21
109.269
 31
0.0
  0
LINE
  8
0
 62
     0
 10
273.643
 20
109.269
 30
0.0
 11
272.842
 21
109.269
 31
0.0
  0
LINE
  8
0
 62
     0
 10
272.842
 20
109.269
 30
0.0
 11
272.842
 21
110.268
 31
0.0
  0
LINE
  8
0
 62
     0
 10
272.842
 20
110.268
 30
0.0
 11
258.843
 21
110.268
 31
0.0
  0
LINE
  8
0
 62
     0
 10
40.7211
 20
110.268
 30
0.0
 11
40.7211
 21
109.269
 31
0.0
  0
LINE
  8
0
 62
     0
 10
40.7211
 20
109.269
 30
0.0
 11
39.9203
 21
109.269
 31
0.0
  0
LINE
  8
0
 62
     0
 10
39.9203
 20
109.269
 30
0.0
 11
39.9203
 21
106.168
 31
0.0
  0
LINE
  8
0
 62
     0
 10
39.9203
 20
106.168
 30
0.0
 11
40.7211
 21
106.168
 31
0.0
  0
LINE
  8
0
 62
     0
 10
40.7211
 20
106.168
 30
0.0
 11
40.7211
 21
100.368
 31
0.0
  0
LINE
  8
0
 62
     0
 10
40.7211
 20
100.368
 30
0.0
 11
39.9203
 21
100.368
 31
0.0
  0
LINE
  8
0
 62
     0
 10
39.9203
 20
100.368
 30
0.0
 11
39.9203
 21
97.2689
 31
0.0
  0
LINE
  8
0
 62
     0
 10
39.9203
 20
97.2689
 30
0.0
 11
40.7211
 21
97.2689
 31
0.0
  0
LINE
  8
0
 62
     0
 10
40.7211
 20
97.2689
 30
0.0
 11
40.7211
 21
96.2685
 31
0.0
  0
LINE
  8
0
 62
     0
 10
40.7211
 20
96.2685
 30
0.0
 11
54.7204
 21
96.2685
 31
0.0
  0
LINE
  8
0
 62
     0
 10
54.7204
 20
96.2685
 30
0.0
 11
54.7204
 21
97.2689
 31
0.0
  0
LINE
  8
0
 62
     0
 10
54.7204
 20
97.2689
 30
0.0
 11
55.5212
 21
97.2689
 31
0.0
  0
LINE
  8
0
 62
     0
 10
55.5212
 20
97.2689
 30
0.0
 11
55.5212
 21
100.368
 31
0.0
  0
LINE
  8
0
 62
     0
 10
55.5212
 20
100.368
 30
0.0
 11
54.7204
 21
100.368
 31
0.0
  0
LINE
  8
0
 62
     0
 10
54.7204
 20
100.368
 30
0.0
 11
54.7204
 21
106.168
 31
0.0
  0
LINE
  8
0
 62
     0
 10
54.7204
 20
106.168
 30
0.0
 11
55.5212
 21
106.168
 31
0.0
  0
LINE
  8
0
 62
     0
 10
55.5212
 20
106.168
 30
0.0
 11
55.5212
 21
109.269
 31
0.0
  0
LINE
  8
0
 62
     0
 10
55.5212
 20
109.269
 30
0.0
 11
54.7204
 21
109.269
 31
0.0
  0
LINE
  8
0
 62
     0
 10
54.7204
 20
109.269
 30
0.0
 11
54.7204
 21
110.268
 31
0.0
  0
LINE
  8
0
 62
     0
 10
54.7204
 20
110.268
 30
0.0
 11
40.7211
 21
110.268
 31
0.0
  0
LINE
  8
0
 62
     0
 10
16.9072
 20
110.268
 30
0.0
 11
16.9072
 21
109.269
 31
0.0
  0
LINE
  8
0
 62
     0
 10
16.9072
 20
109.269
 30
0.0
 11
16.1079
 21
109.269
 31
0.0
  0
LINE
  8
0
 62
     0
 10
16.1079
 20
109.269
 30
0.0
 11
16.1079
 21
106.168
 31
0.0
  0
LINE
  8
0
 62
     0
 10
16.1079
 20
106.168
 30
0.0
 11
16.9072
 21
106.168
 31
0.0
  0
LINE
  8
0
 62
     0
 10
16.9072
 20
106.168
 30
0.0
 11
16.9072
 21
100.368
 31
0.0
  0
LINE
  8
0
 62
     0
 10
16.9072
 20
100.368
 30
0.0
 11
16.1079
 21
100.368
 31
0.0
  0
LINE
  8
0
 62
     0
 10
16.1079
 20
100.368
 30
0.0
 11
16.1079
 21
97.2689
 31
0.0
  0
LINE
  8
0
 62
     0
 10
16.1079
 20
97.2689
 30
0.0
 11
16.9072
 21
97.2689
 31
0.0
  0
LINE
  8
0
 62
     0
 10
16.9072
 20
97.2689
 30
0.0
 11
16.9072
 21
96.2685
 31
0.0
  0
LINE
  8
0
 62
     0
 10
16.9072
 20
96.2685
 30
0.0
 11
30.908
 21
96.2685
 31
0.0
  0
LINE
  8
0
 62
     0
 10
30.908
 20
96.2685
 30
0.0
 11
30.908
 21
97.2689
 31
0.0
  0
LINE
  8
0
 62
     0
 10
30.908
 20
97.2689
 30
0.0
 11
31.7073
 21
97.2689
 31
0.0
  0
LINE
  8
0
 62
     0
 10
31.7073
 20
97.2689
 30
0.0
 11
31.7073
 21
100.368
 31
0.0
  0
LINE
  8
0
 62
     0
 10
31.7073
 20
100.368
 30
0.0
 11
30.908
 21
100.368
 31
0.0
  0
LINE
  8
0
 62
     0
 10
30.908
 20
100.368
 30
0.0
 11
30.908
 21
106.168
 31
0.0
  0
LINE
  8
0
 62
     0
 10
30.908
 20
106.168
 30
0.0
 11
31.7073
 21
106.168
 31
0.0
  0
LINE
  8
0
 62
     0
 10
31.7073
 20
106.168
 30
0.0
 11
31.7073
 21
109.269
 31
0.0
  0
LINE
  8
0
 62
     0
 10
31.7073
 20
109.269
 30
0.0
 11
30.908
 21
109.269
 31
0.0
  0
LINE
  8
0
 62
     0
 10
30.908
 20
109.269
 30
0.0
 11
30.908
 21
110.268
 31
0.0
  0
LINE
  8
0
 62
     0
 10
30.908
 20
110.268
 30
0.0
 11
16.9072
 21
110.268
 31
0.0
  0
LINE
  8
0
 62
     0
 10
167.437
 20
112.656
 30
0.0
 11
167.644
 21
111.679
 31
0.0
  0
LINE
  8
0
 62
     0
 10
167.644
 20
111.679
 30
0.0
 11
166.861
 21
111.512
 31
0.0
  0
LINE
  8
0
 62
     0
 10
166.861
 20
111.512
 30
0.0
 11
167.506
 21
108.481
 31
0.0
  0
LINE
  8
0
 62
     0
 10
167.506
 20
108.481
 30
0.0
 11
168.289
 21
108.646
 31
0.0
  0
LINE
  8
0
 62
     0
 10
168.289
 20
108.646
 30
0.0
 11
169.495
 21
102.974
 31
0.0
  0
LINE
  8
0
 62
     0
 10
169.495
 20
102.974
 30
0.0
 11
168.712
 21
102.806
 31
0.0
  0
LINE
  8
0
 62
     0
 10
168.712
 20
102.806
 30
0.0
 11
169.357
 21
99.774
 31
0.0
  0
LINE
  8
0
 62
     0
 10
169.357
 20
99.774
 30
0.0
 11
170.139
 21
99.9409
 31
0.0
  0
LINE
  8
0
 62
     0
 10
170.139
 20
99.9409
 30
0.0
 11
170.348
 21
98.9623
 31
0.0
  0
LINE
  8
0
 62
     0
 10
170.348
 20
98.9623
 30
0.0
 11
184.041
 21
101.873
 31
0.0
  0
LINE
  8
0
 62
     0
 10
184.041
 20
101.873
 30
0.0
 11
183.833
 21
102.851
 31
0.0
  0
LINE
  8
0
 62
     0
 10
183.833
 20
102.851
 30
0.0
 11
184.616
 21
103.018
 31
0.0
  0
LINE
  8
0
 62
     0
 10
184.616
 20
103.018
 30
0.0
 11
183.971
 21
106.051
 31
0.0
  0
LINE
  8
0
 62
     0
 10
183.971
 20
106.051
 30
0.0
 11
183.188
 21
105.883
 31
0.0
  0
LINE
  8
0
 62
     0
 10
183.188
 20
105.883
 30
0.0
 11
181.982
 21
111.558
 31
0.0
  0
LINE
  8
0
 62
     0
 10
181.982
 20
111.558
 30
0.0
 11
182.765
 21
111.723
 31
0.0
  0
LINE
  8
0
 62
     0
 10
182.765
 20
111.723
 30
0.0
 11
182.12
 21
114.755
 31
0.0
  0
LINE
  8
0
 62
     0
 10
182.12
 20
114.755
 30
0.0
 11
181.339
 21
114.589
 31
0.0
  0
LINE
  8
0
 62
     0
 10
181.339
 20
114.589
 30
0.0
 11
181.131
 21
115.568
 31
0.0
  0
LINE
  8
0
 62
     0
 10
181.131
 20
115.568
 30
0.0
 11
167.437
 21
112.656
 31
0.0
  0
LINE
  8
0
 62
     0
 10
133.245
 20
115.732
 30
0.0
 11
132.462
 21
115.898
 31
0.0
  0
LINE
  8
0
 62
     0
 10
132.462
 20
115.898
 30
0.0
 11
131.819
 21
112.867
 31
0.0
  0
LINE
  8
0
 62
     0
 10
131.819
 20
112.867
 30
0.0
 11
132.6
 21
112.699
 31
0.0
  0
LINE
  8
0
 62
     0
 10
132.6
 20
112.699
 30
0.0
 11
131.395
 21
107.027
 31
0.0
  0
LINE
  8
0
 62
     0
 10
131.395
 20
107.027
 30
0.0
 11
130.612
 21
107.192
 31
0.0
  0
LINE
  8
0
 62
     0
 10
130.612
 20
107.192
 30
0.0
 11
129.967
 21
104.16
 31
0.0
  0
LINE
  8
0
 62
     0
 10
129.967
 20
104.16
 30
0.0
 11
130.751
 21
103.995
 31
0.0
  0
LINE
  8
0
 62
     0
 10
130.751
 20
103.995
 30
0.0
 11
130.543
 21
103.017
 31
0.0
  0
LINE
  8
0
 62
     0
 10
130.543
 20
103.017
 30
0.0
 11
144.236
 21
100.105
 31
0.0
  0
LINE
  8
0
 62
     0
 10
144.236
 20
100.105
 30
0.0
 11
144.445
 21
101.085
 31
0.0
  0
LINE
  8
0
 62
     0
 10
144.445
 20
101.085
 30
0.0
 11
145.226
 21
100.918
 31
0.0
  0
LINE
  8
0
 62
     0
 10
145.226
 20
100.918
 30
0.0
 11
145.871
 21
103.95
 31
0.0
  0
LINE
  8
0
 62
     0
 10
145.871
 20
103.95
 30
0.0
 11
145.088
 21
104.115
 31
0.0
  0
LINE
  8
0
 62
     0
 10
145.088
 20
104.115
 30
0.0
 11
146.294
 21
109.79
 31
0.0
  0
LINE
  8
0
 62
     0
 10
146.294
 20
109.79
 30
0.0
 11
147.078
 21
109.623
 31
0.0
  0
LINE
  8
0
 62
     0
 10
147.078
 20
109.623
 30
0.0
 11
147.721
 21
112.655
 31
0.0
  0
LINE
  8
0
 62
     0
 10
147.721
 20
112.655
 30
0.0
 11
146.939
 21
112.822
 31
0.0
  0
LINE
  8
0
 62
     0
 10
146.939
 20
112.822
 30
0.0
 11
147.147
 21
113.8
 31
0.0
  0
LINE
  8
0
 62
     0
 10
147.147
 20
113.8
 30
0.0
 11
133.453
 21
116.71
 31
0.0
  0
LINE
  8
0
 62
     0
 10
133.453
 20
116.71
 30
0.0
 11
133.245
 21
115.732
 31
0.0
  0
LINE
  8
0
 62
     0
 10
330.28
 20
115.032
 30
0.0
 11
330.28
 21
114.031
 31
0.0
  0
LINE
  8
0
 62
     0
 10
330.28
 20
114.031
 30
0.0
 11
329.481
 21
114.031
 31
0.0
  0
LINE
  8
0
 62
     0
 10
329.481
 20
114.031
 30
0.0
 11
329.481
 21
110.932
 31
0.0
  0
LINE
  8
0
 62
     0
 10
329.481
 20
110.932
 30
0.0
 11
330.28
 21
110.932
 31
0.0
  0
LINE
  8
0
 62
     0
 10
330.28
 20
110.932
 30
0.0
 11
330.28
 21
105.132
 31
0.0
  0
LINE
  8
0
 62
     0
 10
330.28
 20
105.132
 30
0.0
 11
329.481
 21
105.132
 31
0.0
  0
LINE
  8
0
 62
     0
 10
329.481
 20
105.132
 30
0.0
 11
329.481
 21
102.031
 31
0.0
  0
LINE
  8
0
 62
     0
 10
329.481
 20
102.031
 30
0.0
 11
330.28
 21
102.031
 31
0.0
  0
LINE
  8
0
 62
     0
 10
330.28
 20
102.031
 30
0.0
 11
330.28
 21
101.031
 31
0.0
  0
LINE
  8
0
 62
     0
 10
330.28
 20
101.031
 30
0.0
 11
344.281
 21
101.031
 31
0.0
  0
LINE
  8
0
 62
     0
 10
344.281
 20
101.031
 30
0.0
 11
344.281
 21
102.031
 31
0.0
  0
LINE
  8
0
 62
     0
 10
344.281
 20
102.031
 30
0.0
 11
345.08
 21
102.031
 31
0.0
  0
LINE
  8
0
 62
     0
 10
345.08
 20
102.031
 30
0.0
 11
345.08
 21
105.132
 31
0.0
  0
LINE
  8
0
 62
     0
 10
345.08
 20
105.132
 30
0.0
 11
344.281
 21
105.132
 31
0.0
  0
LINE
  8
0
 62
     0
 10
344.281
 20
105.132
 30
0.0
 11
344.281
 21
110.932
 31
0.0
  0
LINE
  8
0
 62
     0
 10
344.281
 20
110.932
 30
0.0
 11
345.08
 21
110.932
 31
0.0
  0
LINE
  8
0
 62
     0
 10
345.08
 20
110.932
 30
0.0
 11
345.08
 21
114.031
 31
0.0
  0
LINE
  8
0
 62
     0
 10
345.08
 20
114.031
 30
0.0
 11
344.281
 21
114.031
 31
0.0
  0
LINE
  8
0
 62
     0
 10
344.281
 20
114.031
 30
0.0
 11
344.281
 21
115.032
 31
0.0
  0
LINE
  8
0
 62
     0
 10
344.281
 20
115.032
 30
0.0
 11
330.28
 21
115.032
 31
0.0
  0
LINE
  8
0
 62
     0
 10
186.071
 20
116.618
 30
0.0
 11
186.278
 21
115.639
 31
0.0
  0
LINE
  8
0
 62
     0
 10
186.278
 20
115.639
 30
0.0
 11
185.495
 21
115.474
 31
0.0
  0
LINE
  8
0
 62
     0
 10
185.495
 20
115.474
 30
0.0
 11
186.14
 21
112.441
 31
0.0
  0
LINE
  8
0
 62
     0
 10
186.14
 20
112.441
 30
0.0
 11
186.922
 21
112.608
 31
0.0
  0
LINE
  8
0
 62
     0
 10
186.922
 20
112.608
 30
0.0
 11
188.128
 21
106.933
 31
0.0
  0
LINE
  8
0
 62
     0
 10
188.128
 20
106.933
 30
0.0
 11
187.346
 21
106.767
 31
0.0
  0
LINE
  8
0
 62
     0
 10
187.346
 20
106.767
 30
0.0
 11
187.991
 21
103.736
 31
0.0
  0
LINE
  8
0
 62
     0
 10
187.991
 20
103.736
 30
0.0
 11
188.772
 21
103.901
 31
0.0
  0
LINE
  8
0
 62
     0
 10
188.772
 20
103.901
 30
0.0
 11
188.98
 21
102.923
 31
0.0
  0
LINE
  8
0
 62
     0
 10
188.98
 20
102.923
 30
0.0
 11
202.675
 21
105.835
 31
0.0
  0
LINE
  8
0
 62
     0
 10
202.675
 20
105.835
 30
0.0
 11
202.467
 21
106.812
 31
0.0
  0
LINE
  8
0
 62
     0
 10
202.467
 20
106.812
 30
0.0
 11
203.25
 21
106.978
 31
0.0
  0
LINE
  8
0
 62
     0
 10
203.25
 20
106.978
 30
0.0
 11
202.605
 21
110.01
 31
0.0
  0
LINE
  8
0
 62
     0
 10
202.605
 20
110.01
 30
0.0
 11
201.822
 21
109.845
 31
0.0
  0
LINE
  8
0
 62
     0
 10
201.822
 20
109.845
 30
0.0
 11
200.616
 21
115.517
 31
0.0
  0
LINE
  8
0
 62
     0
 10
200.616
 20
115.517
 30
0.0
 11
201.399
 21
115.685
 31
0.0
  0
LINE
  8
0
 62
     0
 10
201.399
 20
115.685
 30
0.0
 11
200.754
 21
118.717
 31
0.0
  0
LINE
  8
0
 62
     0
 10
200.754
 20
118.717
 30
0.0
 11
199.973
 21
118.55
 31
0.0
  0
LINE
  8
0
 62
     0
 10
199.973
 20
118.55
 30
0.0
 11
199.765
 21
119.528
 31
0.0
  0
LINE
  8
0
 62
     0
 10
199.765
 20
119.528
 30
0.0
 11
186.071
 21
116.618
 31
0.0
  0
LINE
  8
0
 62
     0
 10
114.612
 20
119.692
 30
0.0
 11
113.83
 21
119.859
 31
0.0
  0
LINE
  8
0
 62
     0
 10
113.83
 20
119.859
 30
0.0
 11
113.185
 21
116.826
 31
0.0
  0
LINE
  8
0
 62
     0
 10
113.185
 20
116.826
 30
0.0
 11
113.968
 21
116.66
 31
0.0
  0
LINE
  8
0
 62
     0
 10
113.968
 20
116.66
 30
0.0
 11
112.762
 21
110.987
 31
0.0
  0
LINE
  8
0
 62
     0
 10
112.762
 20
110.987
 30
0.0
 11
111.978
 21
111.154
 31
0.0
  0
LINE
  8
0
 62
     0
 10
111.978
 20
111.154
 30
0.0
 11
111.335
 21
108.121
 31
0.0
  0
LINE
  8
0
 62
     0
 10
111.335
 20
108.121
 30
0.0
 11
112.116
 21
107.956
 31
0.0
  0
LINE
  8
0
 62
     0
 10
112.116
 20
107.956
 30
0.0
 11
111.909
 21
106.976
 31
0.0
  0
LINE
  8
0
 62
     0
 10
111.909
 20
106.976
 30
0.0
 11
125.603
 21
104.067
 31
0.0
  0
LINE
  8
0
 62
     0
 10
125.603
 20
104.067
 30
0.0
 11
125.811
 21
105.044
 31
0.0
  0
LINE
  8
0
 62
     0
 10
125.811
 20
105.044
 30
0.0
 11
126.594
 21
104.877
 31
0.0
  0
LINE
  8
0
 62
     0
 10
126.594
 20
104.877
 30
0.0
 11
127.237
 21
107.91
 31
0.0
  0
LINE
  8
0
 62
     0
 10
127.237
 20
107.91
 30
0.0
 11
126.456
 21
108.077
 31
0.0
  0
LINE
  8
0
 62
     0
 10
126.456
 20
108.077
 30
0.0
 11
127.661
 21
113.749
 31
0.0
  0
LINE
  8
0
 62
     0
 10
127.661
 20
113.749
 30
0.0
 11
128.443
 21
113.584
 31
0.0
  0
LINE
  8
0
 62
     0
 10
128.443
 20
113.584
 30
0.0
 11
129.089
 21
116.615
 31
0.0
  0
LINE
  8
0
 62
     0
 10
129.089
 20
116.615
 30
0.0
 11
128.305
 21
116.782
 31
0.0
  0
LINE
  8
0
 62
     0
 10
128.305
 20
116.782
 30
0.0
 11
128.513
 21
117.76
 31
0.0
  0
LINE
  8
0
 62
     0
 10
128.513
 20
117.76
 30
0.0
 11
114.82
 21
120.671
 31
0.0
  0
LINE
  8
0
 62
     0
 10
114.82
 20
120.671
 30
0.0
 11
114.612
 21
119.692
 31
0.0
  0
LINE
  8
0
 62
     0
 10
204.704
 20
120.578
 30
0.0
 11
204.912
 21
119.6
 31
0.0
  0
LINE
  8
0
 62
     0
 10
204.912
 20
119.6
 30
0.0
 11
204.13
 21
119.433
 31
0.0
  0
LINE
  8
0
 62
     0
 10
204.13
 20
119.433
 30
0.0
 11
204.774
 21
116.401
 31
0.0
  0
LINE
  8
0
 62
     0
 10
204.774
 20
116.401
 30
0.0
 11
205.557
 21
116.567
 31
0.0
  0
LINE
  8
0
 62
     0
 10
205.557
 20
116.567
 30
0.0
 11
206.762
 21
110.895
 31
0.0
  0
LINE
  8
0
 62
     0
 10
206.762
 20
110.895
 30
0.0
 11
205.98
 21
110.728
 31
0.0
  0
LINE
  8
0
 62
     0
 10
205.98
 20
110.728
 30
0.0
 11
206.624
 21
107.696
 31
0.0
  0
LINE
  8
0
 62
     0
 10
206.624
 20
107.696
 30
0.0
 11
207.407
 21
107.862
 31
0.0
  0
LINE
  8
0
 62
     0
 10
207.407
 20
107.862
 30
0.0
 11
207.614
 21
106.885
 31
0.0
  0
LINE
  8
0
 62
     0
 10
207.614
 20
106.885
 30
0.0
 11
221.309
 21
109.794
 31
0.0
  0
LINE
  8
0
 62
     0
 10
221.309
 20
109.794
 30
0.0
 11
221.101
 21
110.774
 31
0.0
  0
LINE
  8
0
 62
     0
 10
221.101
 20
110.774
 30
0.0
 11
221.883
 21
110.939
 31
0.0
  0
LINE
  8
0
 62
     0
 10
221.883
 20
110.939
 30
0.0
 11
221.239
 21
113.972
 31
0.0
  0
LINE
  8
0
 62
     0
 10
221.239
 20
113.972
 30
0.0
 11
220.457
 21
113.805
 31
0.0
  0
LINE
  8
0
 62
     0
 10
220.457
 20
113.805
 30
0.0
 11
219.25
 21
119.479
 31
0.0
  0
LINE
  8
0
 62
     0
 10
219.25
 20
119.479
 30
0.0
 11
220.033
 21
119.644
 31
0.0
  0
LINE
  8
0
 62
     0
 10
220.033
 20
119.644
 30
0.0
 11
219.388
 21
122.677
 31
0.0
  0
LINE
  8
0
 62
     0
 10
219.388
 20
122.677
 30
0.0
 11
218.605
 21
122.51
 31
0.0
  0
LINE
  8
0
 62
     0
 10
218.605
 20
122.51
 30
0.0
 11
218.397
 21
123.489
 31
0.0
  0
LINE
  8
0
 62
     0
 10
218.397
 20
123.489
 30
0.0
 11
204.704
 21
120.578
 31
0.0
  0
LINE
  8
0
 62
     0
 10
95.9778
 20
123.653
 30
0.0
 11
95.195
 21
123.819
 31
0.0
  0
LINE
  8
0
 62
     0
 10
95.195
 20
123.819
 30
0.0
 11
94.5501
 21
120.788
 31
0.0
  0
LINE
  8
0
 62
     0
 10
94.5501
 20
120.788
 30
0.0
 11
95.334
 21
120.621
 31
0.0
  0
LINE
  8
0
 62
     0
 10
95.334
 20
120.621
 30
0.0
 11
94.1268
 21
114.949
 31
0.0
  0
LINE
  8
0
 62
     0
 10
94.1268
 20
114.949
 30
0.0
 11
93.3443
 21
115.115
 31
0.0
  0
LINE
  8
0
 62
     0
 10
93.3443
 20
115.115
 30
0.0
 11
92.7005
 21
112.083
 31
0.0
  0
LINE
  8
0
 62
     0
 10
92.7005
 20
112.083
 30
0.0
 11
93.4819
 21
111.916
 31
0.0
  0
LINE
  8
0
 62
     0
 10
93.4819
 20
111.916
 30
0.0
 11
93.2752
 21
110.938
 31
0.0
  0
LINE
  8
0
 62
     0
 10
93.2752
 20
110.938
 30
0.0
 11
106.969
 21
108.026
 31
0.0
  0
LINE
  8
0
 62
     0
 10
106.969
 20
108.026
 30
0.0
 11
107.177
 21
109.004
 31
0.0
  0
LINE
  8
0
 62
     0
 10
107.177
 20
109.004
 30
0.0
 11
107.96
 21
108.839
 31
0.0
  0
LINE
  8
0
 62
     0
 10
107.96
 20
108.839
 30
0.0
 11
108.604
 21
111.87
 31
0.0
  0
LINE
  8
0
 62
     0
 10
108.604
 20
111.87
 30
0.0
 11
107.822
 21
112.037
 31
0.0
  0
LINE
  8
0
 62
     0
 10
107.822
 20
112.037
 30
0.0
 11
109.028
 21
117.711
 31
0.0
  0
LINE
  8
0
 62
     0
 10
109.028
 20
117.711
 30
0.0
 11
109.809
 21
117.544
 31
0.0
  0
LINE
  8
0
 62
     0
 10
109.809
 20
117.544
 30
0.0
 11
110.454
 21
120.577
 31
0.0
  0
LINE
  8
0
 62
     0
 10
110.454
 20
120.577
 30
0.0
 11
109.671
 21
120.742
 31
0.0
  0
LINE
  8
0
 62
     0
 10
109.671
 20
120.742
 30
0.0
 11
109.879
 21
121.721
 31
0.0
  0
LINE
  8
0
 62
     0
 10
109.879
 20
121.721
 30
0.0
 11
96.1856
 21
124.631
 31
0.0
  0
LINE
  8
0
 62
     0
 10
96.1856
 20
124.631
 30
0.0
 11
95.9778
 21
123.653
 31
0.0
  0
LINE
  8
0
 62
     0
 10
223.337
 20
124.539
 30
0.0
 11
223.545
 21
123.56
 31
0.0
  0
LINE
  8
0
 62
     0
 10
223.545
 20
123.56
 30
0.0
 11
222.763
 21
123.395
 31
0.0
  0
LINE
  8
0
 62
     0
 10
222.763
 20
123.395
 30
0.0
 11
223.407
 21
120.362
 31
0.0
  0
LINE
  8
0
 62
     0
 10
223.407
 20
120.362
 30
0.0
 11
224.189
 21
120.529
 31
0.0
  0
LINE
  8
0
 62
     0
 10
224.189
 20
120.529
 30
0.0
 11
225.396
 21
114.855
 31
0.0
  0
LINE
  8
0
 62
     0
 10
225.396
 20
114.855
 30
0.0
 11
224.613
 21
114.69
 31
0.0
  0
LINE
  8
0
 62
     0
 10
224.613
 20
114.69
 30
0.0
 11
225.257
 21
111.657
 31
0.0
  0
LINE
  8
0
 62
     0
 10
225.257
 20
111.657
 30
0.0
 11
226.041
 21
111.824
 31
0.0
  0
LINE
  8
0
 62
     0
 10
226.041
 20
111.824
 30
0.0
 11
226.249
 21
110.844
 31
0.0
  0
LINE
  8
0
 62
     0
 10
226.249
 20
110.844
 30
0.0
 11
239.943
 21
113.756
 31
0.0
  0
LINE
  8
0
 62
     0
 10
239.943
 20
113.756
 30
0.0
 11
239.735
 21
114.734
 31
0.0
  0
LINE
  8
0
 62
     0
 10
239.735
 20
114.734
 30
0.0
 11
240.516
 21
114.901
 31
0.0
  0
LINE
  8
0
 62
     0
 10
240.516
 20
114.901
 30
0.0
 11
239.872
 21
117.933
 31
0.0
  0
LINE
  8
0
 62
     0
 10
239.872
 20
117.933
 30
0.0
 11
239.089
 21
117.766
 31
0.0
  0
LINE
  8
0
 62
     0
 10
239.089
 20
117.766
 30
0.0
 11
237.884
 21
123.439
 31
0.0
  0
LINE
  8
0
 62
     0
 10
237.884
 20
123.439
 30
0.0
 11
238.667
 21
123.606
 31
0.0
  0
LINE
  8
0
 62
     0
 10
238.667
 20
123.606
 30
0.0
 11
238.022
 21
126.638
 31
0.0
  0
LINE
  8
0
 62
     0
 10
238.022
 20
126.638
 30
0.0
 11
237.239
 21
126.471
 31
0.0
  0
LINE
  8
0
 62
     0
 10
237.239
 20
126.471
 30
0.0
 11
237.031
 21
127.449
 31
0.0
  0
LINE
  8
0
 62
     0
 10
237.031
 20
127.449
 30
0.0
 11
223.337
 21
124.539
 31
0.0
  0
LINE
  8
0
 62
     0
 10
77.3451
 20
127.615
 30
0.0
 11
76.5609
 21
127.78
 31
0.0
  0
LINE
  8
0
 62
     0
 10
76.5609
 20
127.78
 30
0.0
 11
75.9174
 21
124.748
 31
0.0
  0
LINE
  8
0
 62
     0
 10
75.9174
 20
124.748
 30
0.0
 11
76.6988
 21
124.582
 31
0.0
  0
LINE
  8
0
 62
     0
 10
76.6988
 20
124.582
 30
0.0
 11
75.493
 21
118.908
 31
0.0
  0
LINE
  8
0
 62
     0
 10
75.493
 20
118.908
 30
0.0
 11
74.7116
 21
119.075
 31
0.0
  0
LINE
  8
0
 62
     0
 10
74.7116
 20
119.075
 30
0.0
 11
74.0668
 21
116.042
 31
0.0
  0
LINE
  8
0
 62
     0
 10
74.0668
 20
116.042
 30
0.0
 11
74.8496
 21
115.877
 31
0.0
  0
LINE
  8
0
 62
     0
 10
74.8496
 20
115.877
 30
0.0
 11
74.6414
 21
114.898
 31
0.0
  0
LINE
  8
0
 62
     0
 10
74.6414
 20
114.898
 30
0.0
 11
88.3348
 21
111.988
 31
0.0
  0
LINE
  8
0
 62
     0
 10
88.3348
 20
111.988
 30
0.0
 11
88.543
 21
112.966
 31
0.0
  0
LINE
  8
0
 62
     0
 10
88.543
 20
112.966
 30
0.0
 11
89.3258
 21
112.799
 31
0.0
  0
LINE
  8
0
 62
     0
 10
89.3258
 20
112.799
 30
0.0
 11
89.9707
 21
115.831
 31
0.0
  0
LINE
  8
0
 62
     0
 10
89.9707
 20
115.831
 30
0.0
 11
89.1879
 21
115.998
 31
0.0
  0
LINE
  8
0
 62
     0
 10
89.1879
 20
115.998
 30
0.0
 11
90.3937
 21
121.671
 31
0.0
  0
LINE
  8
0
 62
     0
 10
90.3937
 20
121.671
 30
0.0
 11
91.1765
 21
121.504
 31
0.0
  0
LINE
  8
0
 62
     0
 10
91.1765
 20
121.504
 30
0.0
 11
91.8199
 21
124.538
 31
0.0
  0
LINE
  8
0
 62
     0
 10
91.8199
 20
124.538
 30
0.0
 11
91.0389
 21
124.703
 31
0.0
  0
LINE
  8
0
 62
     0
 10
91.0389
 20
124.703
 30
0.0
 11
91.2467
 21
125.681
 31
0.0
  0
LINE
  8
0
 62
     0
 10
91.2467
 20
125.681
 30
0.0
 11
77.5518
 21
128.593
 31
0.0
  0
LINE
  8
0
 62
     0
 10
77.5518
 20
128.593
 30
0.0
 11
77.3451
 21
127.615
 31
0.0
  0
LINE
  8
0
 62
     0
 10
301.705
 20
129.318
 30
0.0
 11
301.705
 21
128.319
 31
0.0
  0
LINE
  8
0
 62
     0
 10
301.705
 20
128.319
 30
0.0
 11
300.906
 21
128.319
 31
0.0
  0
LINE
  8
0
 62
     0
 10
300.906
 20
128.319
 30
0.0
 11
300.906
 21
125.218
 31
0.0
  0
LINE
  8
0
 62
     0
 10
300.906
 20
125.218
 30
0.0
 11
301.705
 21
125.218
 31
0.0
  0
LINE
  8
0
 62
     0
 10
301.705
 20
125.218
 30
0.0
 11
301.705
 21
119.418
 31
0.0
  0
LINE
  8
0
 62
     0
 10
301.705
 20
119.418
 30
0.0
 11
300.906
 21
119.418
 31
0.0
  0
LINE
  8
0
 62
     0
 10
300.906
 20
119.418
 30
0.0
 11
300.906
 21
116.319
 31
0.0
  0
LINE
  8
0
 62
     0
 10
300.906
 20
116.319
 30
0.0
 11
301.705
 21
116.319
 31
0.0
  0
LINE
  8
0
 62
     0
 10
301.705
 20
116.319
 30
0.0
 11
301.705
 21
115.318
 31
0.0
  0
LINE
  8
0
 62
     0
 10
301.705
 20
115.318
 30
0.0
 11
315.706
 21
115.318
 31
0.0
  0
LINE
  8
0
 62
     0
 10
315.706
 20
115.318
 30
0.0
 11
315.706
 21
116.319
 31
0.0
  0
LINE
  8
0
 62
     0
 10
315.706
 20
116.319
 30
0.0
 11
316.505
 21
116.319
 31
0.0
  0
LINE
  8
0
 62
     0
 10
316.505
 20
116.319
 30
0.0
 11
316.505
 21
119.418
 31
0.0
  0
LINE
  8
0
 62
     0
 10
316.505
 20
119.418
 30
0.0
 11
315.706
 21
119.418
 31
0.0
  0
LINE
  8
0
 62
     0
 10
315.706
 20
119.418
 30
0.0
 11
315.706
 21
125.218
 31
0.0
  0
LINE
  8
0
 62
     0
 10
315.706
 20
125.218
 30
0.0
 11
316.505
 21
125.218
 31
0.0
  0
LINE
  8
0
 62
     0
 10
316.505
 20
125.218
 30
0.0
 11
316.505
 21
128.319
 31
0.0
  0
LINE
  8
0
 62
     0
 10
316.505
 20
128.319
 30
0.0
 11
315.706
 21
128.319
 31
0.0
  0
LINE
  8
0
 62
     0
 10
315.706
 20
128.319
 30
0.0
 11
315.706
 21
129.318
 31
0.0
  0
LINE
  8
0
 62
     0
 10
315.706
 20
129.318
 30
0.0
 11
301.705
 21
129.318
 31
0.0
  0
LINE
  8
0
 62
     0
 10
282.655
 20
129.318
 30
0.0
 11
282.655
 21
128.319
 31
0.0
  0
LINE
  8
0
 62
     0
 10
282.655
 20
128.319
 30
0.0
 11
281.856
 21
128.319
 31
0.0
  0
LINE
  8
0
 62
     0
 10
281.856
 20
128.319
 30
0.0
 11
281.856
 21
125.218
 31
0.0
  0
LINE
  8
0
 62
     0
 10
281.856
 20
125.218
 30
0.0
 11
282.655
 21
125.218
 31
0.0
  0
LINE
  8
0
 62
     0
 10
282.655
 20
125.218
 30
0.0
 11
282.655
 21
119.418
 31
0.0
  0
LINE
  8
0
 62
     0
 10
282.655
 20
119.418
 30
0.0
 11
281.856
 21
119.418
 31
0.0
  0
LINE
  8
0
 62
     0
 10
281.856
 20
119.418
 30
0.0
 11
281.856
 21
116.319
 31
0.0
  0
LINE
  8
0
 62
     0
 10
281.856
 20
116.319
 30
0.0
 11
282.655
 21
116.319
 31
0.0
  0
LINE
  8
0
 62
     0
 10
282.655
 20
116.319
 30
0.0
 11
282.655
 21
115.318
 31
0.0
  0
LINE
  8
0
 62
     0
 10
282.655
 20
115.318
 30
0.0
 11
296.656
 21
115.318
 31
0.0
  0
LINE
  8
0
 62
     0
 10
296.656
 20
115.318
 30
0.0
 11
296.656
 21
116.319
 31
0.0
  0
LINE
  8
0
 62
     0
 10
296.656
 20
116.319
 30
0.0
 11
297.455
 21
116.319
 31
0.0
  0
LINE
  8
0
 62
     0
 10
297.455
 20
116.319
 30
0.0
 11
297.455
 21
119.418
 31
0.0
  0
LINE
  8
0
 62
     0
 10
297.455
 20
119.418
 30
0.0
 11
296.656
 21
119.418
 31
0.0
  0
LINE
  8
0
 62
     0
 10
296.656
 20
119.418
 30
0.0
 11
296.656
 21
125.218
 31
0.0
  0
LINE
  8
0
 62
     0
 10
296.656
 20
125.218
 30
0.0
 11
297.455
 21
125.218
 31
0.0
  0
LINE
  8
0
 62
     0
 10
297.455
 20
125.218
 30
0.0
 11
297.455
 21
128.319
 31
0.0
  0
LINE
  8
0
 62
     0
 10
297.455
 20
128.319
 30
0.0
 11
296.656
 21
128.319
 31
0.0
  0
LINE
  8
0
 62
     0
 10
296.656
 20
128.319
 30
0.0
 11
296.656
 21
129.318
 31
0.0
  0
LINE
  8
0
 62
     0
 10
296.656
 20
129.318
 30
0.0
 11
282.655
 21
129.318
 31
0.0
  0
LINE
  8
0
 62
     0
 10
263.605
 20
129.318
 30
0.0
 11
263.605
 21
128.319
 31
0.0
  0
LINE
  8
0
 62
     0
 10
263.605
 20
128.319
 30
0.0
 11
262.806
 21
128.319
 31
0.0
  0
LINE
  8
0
 62
     0
 10
262.806
 20
128.319
 30
0.0
 11
262.806
 21
125.218
 31
0.0
  0
LINE
  8
0
 62
     0
 10
262.806
 20
125.218
 30
0.0
 11
263.605
 21
125.218
 31
0.0
  0
LINE
  8
0
 62
     0
 10
263.605
 20
125.218
 30
0.0
 11
263.605
 21
119.418
 31
0.0
  0
LINE
  8
0
 62
     0
 10
263.605
 20
119.418
 30
0.0
 11
262.806
 21
119.418
 31
0.0
  0
LINE
  8
0
 62
     0
 10
262.806
 20
119.418
 30
0.0
 11
262.806
 21
116.319
 31
0.0
  0
LINE
  8
0
 62
     0
 10
262.806
 20
116.319
 30
0.0
 11
263.605
 21
116.319
 31
0.0
  0
LINE
  8
0
 62
     0
 10
263.605
 20
116.319
 30
0.0
 11
263.605
 21
115.318
 31
0.0
  0
LINE
  8
0
 62
     0
 10
263.605
 20
115.318
 30
0.0
 11
277.606
 21
115.318
 31
0.0
  0
LINE
  8
0
 62
     0
 10
277.606
 20
115.318
 30
0.0
 11
277.606
 21
116.319
 31
0.0
  0
LINE
  8
0
 62
     0
 10
277.606
 20
116.319
 30
0.0
 11
278.405
 21
116.319
 31
0.0
  0
LINE
  8
0
 62
     0
 10
278.405
 20
116.319
 30
0.0
 11
278.405
 21
119.418
 31
0.0
  0
LINE
  8
0
 62
     0
 10
278.405
 20
119.418
 30
0.0
 11
277.606
 21
119.418
 31
0.0
  0
LINE
  8
0
 62
     0
 10
277.606
 20
119.418
 30
0.0
 11
277.606
 21
125.218
 31
0.0
  0
LINE
  8
0
 62
     0
 10
277.606
 20
125.218
 30
0.0
 11
278.405
 21
125.218
 31
0.0
  0
LINE
  8
0
 62
     0
 10
278.405
 20
125.218
 30
0.0
 11
278.405
 21
128.319
 31
0.0
  0
LINE
  8
0
 62
     0
 10
278.405
 20
128.319
 30
0.0
 11
277.606
 21
128.319
 31
0.0
  0
LINE
  8
0
 62
     0
 10
277.606
 20
128.319
 30
0.0
 11
277.606
 21
129.318
 31
0.0
  0
LINE
  8
0
 62
     0
 10
277.606
 20
129.318
 30
0.0
 11
263.605
 21
129.318
 31
0.0
  0
LINE
  8
0
 62
     0
 10
35.9572
 20
129.318
 30
0.0
 11
35.9572
 21
128.319
 31
0.0
  0
LINE
  8
0
 62
     0
 10
35.9572
 20
128.319
 30
0.0
 11
35.1579
 21
128.319
 31
0.0
  0
LINE
  8
0
 62
     0
 10
35.1579
 20
128.319
 30
0.0
 11
35.1579
 21
125.218
 31
0.0
  0
LINE
  8
0
 62
     0
 10
35.1579
 20
125.218
 30
0.0
 11
35.9572
 21
125.218
 31
0.0
  0
LINE
  8
0
 62
     0
 10
35.9572
 20
125.218
 30
0.0
 11
35.9572
 21
119.418
 31
0.0
  0
LINE
  8
0
 62
     0
 10
35.9572
 20
119.418
 30
0.0
 11
35.1579
 21
119.418
 31
0.0
  0
LINE
  8
0
 62
     0
 10
35.1579
 20
119.418
 30
0.0
 11
35.1579
 21
116.319
 31
0.0
  0
LINE
  8
0
 62
     0
 10
35.1579
 20
116.319
 30
0.0
 11
35.9572
 21
116.319
 31
0.0
  0
LINE
  8
0
 62
     0
 10
35.9572
 20
116.319
 30
0.0
 11
35.9572
 21
115.318
 31
0.0
  0
LINE
  8
0
 62
     0
 10
35.9572
 20
115.318
 30
0.0
 11
49.9579
 21
115.318
 31
0.0
  0
LINE
  8
0
 62
     0
 10
49.9579
 20
115.318
 30
0.0
 11
49.9579
 21
116.319
 31
0.0
  0
LINE
  8
0
 62
     0
 10
49.9579
 20
116.319
 30
0.0
 11
50.7573
 21
116.319
 31
0.0
  0
LINE
  8
0
 62
     0
 10
50.7573
 20
116.319
 30
0.0
 11
50.7573
 21
119.418
 31
0.0
  0
LINE
  8
0
 62
     0
 10
50.7573
 20
119.418
 30
0.0
 11
49.9579
 21
119.418
 31
0.0
  0
LINE
  8
0
 62
     0
 10
49.9579
 20
119.418
 30
0.0
 11
49.9579
 21
125.218
 31
0.0
  0
LINE
  8
0
 62
     0
 10
49.9579
 20
125.218
 30
0.0
 11
50.7573
 21
125.218
 31
0.0
  0
LINE
  8
0
 62
     0
 10
50.7573
 20
125.218
 30
0.0
 11
50.7573
 21
128.319
 31
0.0
  0
LINE
  8
0
 62
     0
 10
50.7573
 20
128.319
 30
0.0
 11
49.9579
 21
128.319
 31
0.0
  0
LINE
  8
0
 62
     0
 10
49.9579
 20
128.319
 30
0.0
 11
49.9579
 21
129.318
 31
0.0
  0
LINE
  8
0
 62
     0
 10
49.9579
 20
129.318
 30
0.0
 11
35.9572
 21
129.318
 31
0.0
  0
LINE
  8
0
 62
     0
 10
16.9072
 20
129.318
 30
0.0
 11
16.9072
 21
128.319
 31
0.0
  0
LINE
  8
0
 62
     0
 10
16.9072
 20
128.319
 30
0.0
 11
16.1079
 21
128.319
 31
0.0
  0
LINE
  8
0
 62
     0
 10
16.1079
 20
128.319
 30
0.0
 11
16.1079
 21
125.218
 31
0.0
  0
LINE
  8
0
 62
     0
 10
16.1079
 20
125.218
 30
0.0
 11
16.9072
 21
125.218
 31
0.0
  0
LINE
  8
0
 62
     0
 10
16.9072
 20
125.218
 30
0.0
 11
16.9072
 21
119.418
 31
0.0
  0
LINE
  8
0
 62
     0
 10
16.9072
 20
119.418
 30
0.0
 11
16.1079
 21
119.418
 31
0.0
  0
LINE
  8
0
 62
     0
 10
16.1079
 20
119.418
 30
0.0
 11
16.1079
 21
116.319
 31
0.0
  0
LINE
  8
0
 62
     0
 10
16.1079
 20
116.319
 30
0.0
 11
16.9072
 21
116.319
 31
0.0
  0
LINE
  8
0
 62
     0
 10
16.9072
 20
116.319
 30
0.0
 11
16.9072
 21
115.318
 31
0.0
  0
LINE
  8
0
 62
     0
 10
16.9072
 20
115.318
 30
0.0
 11
30.908
 21
115.318
 31
0.0
  0
LINE
  8
0
 62
     0
 10
30.908
 20
115.318
 30
0.0
 11
30.908
 21
116.319
 31
0.0
  0
LINE
  8
0
 62
     0
 10
30.908
 20
116.319
 30
0.0
 11
31.7073
 21
116.319
 31
0.0
  0
LINE
  8
0
 62
     0
 10
31.7073
 20
116.319
 30
0.0
 11
31.7073
 21
119.418
 31
0.0
  0
LINE
  8
0
 62
     0
 10
31.7073
 20
119.418
 30
0.0
 11
30.908
 21
119.418
 31
0.0
  0
LINE
  8
0
 62
     0
 10
30.908
 20
119.418
 30
0.0
 11
30.908
 21
125.218
 31
0.0
  0
LINE
  8
0
 62
     0
 10
30.908
 20
125.218
 30
0.0
 11
31.7073
 21
125.218
 31
0.0
  0
LINE
  8
0
 62
     0
 10
31.7073
 20
125.218
 30
0.0
 11
31.7073
 21
128.319
 31
0.0
  0
LINE
  8
0
 62
     0
 10
31.7073
 20
128.319
 30
0.0
 11
30.908
 21
128.319
 31
0.0
  0
LINE
  8
0
 62
     0
 10
30.908
 20
128.319
 30
0.0
 11
30.908
 21
129.318
 31
0.0
  0
LINE
  8
0
 62
     0
 10
30.908
 20
129.318
 30
0.0
 11
16.9072
 21
129.318
 31
0.0
  0
LINE
  8
0
 62
     0
 10
244.555
 20
132.176
 30
0.0
 11
244.555
 21
131.177
 31
0.0
  0
LINE
  8
0
 62
     0
 10
244.555
 20
131.177
 30
0.0
 11
243.756
 21
131.177
 31
0.0
  0
LINE
  8
0
 62
     0
 10
243.756
 20
131.177
 30
0.0
 11
243.756
 21
128.076
 31
0.0
  0
LINE
  8
0
 62
     0
 10
243.756
 20
128.076
 30
0.0
 11
244.555
 21
128.076
 31
0.0
  0
LINE
  8
0
 62
     0
 10
244.555
 20
128.076
 30
0.0
 11
244.555
 21
122.276
 31
0.0
  0
LINE
  8
0
 62
     0
 10
244.555
 20
122.276
 30
0.0
 11
243.756
 21
122.276
 31
0.0
  0
LINE
  8
0
 62
     0
 10
243.756
 20
122.276
 30
0.0
 11
243.756
 21
119.177
 31
0.0
  0
LINE
  8
0
 62
     0
 10
243.756
 20
119.177
 30
0.0
 11
244.555
 21
119.177
 31
0.0
  0
LINE
  8
0
 62
     0
 10
244.555
 20
119.177
 30
0.0
 11
244.555
 21
118.176
 31
0.0
  0
LINE
  8
0
 62
     0
 10
244.555
 20
118.176
 30
0.0
 11
258.556
 21
118.176
 31
0.0
  0
LINE
  8
0
 62
     0
 10
258.556
 20
118.176
 30
0.0
 11
258.556
 21
119.177
 31
0.0
  0
LINE
  8
0
 62
     0
 10
258.556
 20
119.177
 30
0.0
 11
259.355
 21
119.177
 31
0.0
  0
LINE
  8
0
 62
     0
 10
259.355
 20
119.177
 30
0.0
 11
259.355
 21
122.276
 31
0.0
  0
LINE
  8
0
 62
     0
 10
259.355
 20
122.276
 30
0.0
 11
258.556
 21
122.276
 31
0.0
  0
LINE
  8
0
 62
     0
 10
258.556
 20
122.276
 30
0.0
 11
258.556
 21
128.076
 31
0.0
  0
LINE
  8
0
 62
     0
 10
258.556
 20
128.076
 30
0.0
 11
259.355
 21
128.076
 31
0.0
  0
LINE
  8
0
 62
     0
 10
259.355
 20
128.076
 30
0.0
 11
259.355
 21
131.177
 31
0.0
  0
LINE
  8
0
 62
     0
 10
259.355
 20
131.177
 30
0.0
 11
258.556
 21
131.177
 31
0.0
  0
LINE
  8
0
 62
     0
 10
258.556
 20
131.177
 30
0.0
 11
258.556
 21
132.176
 31
0.0
  0
LINE
  8
0
 62
     0
 10
258.556
 20
132.176
 30
0.0
 11
244.555
 21
132.176
 31
0.0
  0
LINE
  8
0
 62
     0
 10
55.0072
 20
132.176
 30
0.0
 11
55.0072
 21
131.177
 31
0.0
  0
LINE
  8
0
 62
     0
 10
55.0072
 20
131.177
 30
0.0
 11
54.2078
 21
131.177
 31
0.0
  0
LINE
  8
0
 62
     0
 10
54.2078
 20
131.177
 30
0.0
 11
54.2078
 21
128.076
 31
0.0
  0
LINE
  8
0
 62
     0
 10
54.2078
 20
128.076
 30
0.0
 11
55.0072
 21
128.076
 31
0.0
  0
LINE
  8
0
 62
     0
 10
55.0072
 20
128.076
 30
0.0
 11
55.0072
 21
122.276
 31
0.0
  0
LINE
  8
0
 62
     0
 10
55.0072
 20
122.276
 30
0.0
 11
54.2078
 21
122.276
 31
0.0
  0
LINE
  8
0
 62
     0
 10
54.2078
 20
122.276
 30
0.0
 11
54.2078
 21
119.177
 31
0.0
  0
LINE
  8
0
 62
     0
 10
54.2078
 20
119.177
 30
0.0
 11
55.0072
 21
119.177
 31
0.0
  0
LINE
  8
0
 62
     0
 10
55.0072
 20
119.177
 30
0.0
 11
55.0072
 21
118.176
 31
0.0
  0
LINE
  8
0
 62
     0
 10
55.0072
 20
118.176
 30
0.0
 11
69.0079
 21
118.176
 31
0.0
  0
LINE
  8
0
 62
     0
 10
69.0079
 20
118.176
 30
0.0
 11
69.0079
 21
119.177
 31
0.0
  0
LINE
  8
0
 62
     0
 10
69.0079
 20
119.177
 30
0.0
 11
69.8073
 21
119.177
 31
0.0
  0
LINE
  8
0
 62
     0
 10
69.8073
 20
119.177
 30
0.0
 11
69.8073
 21
122.276
 31
0.0
  0
LINE
  8
0
 62
     0
 10
69.8073
 20
122.276
 30
0.0
 11
69.0079
 21
122.276
 31
0.0
  0
LINE
  8
0
 62
     0
 10
69.0079
 20
122.276
 30
0.0
 11
69.0079
 21
128.076
 31
0.0
  0
LINE
  8
0
 62
     0
 10
69.0079
 20
128.076
 30
0.0
 11
69.8073
 21
128.076
 31
0.0
  0
LINE
  8
0
 62
     0
 10
69.8073
 20
128.076
 30
0.0
 11
69.8073
 21
131.177
 31
0.0
  0
LINE
  8
0
 62
     0
 10
69.8073
 20
131.177
 30
0.0
 11
69.0079
 21
131.177
 31
0.0
  0
LINE
  8
0
 62
     0
 10
69.0079
 20
131.177
 30
0.0
 11
69.0079
 21
132.176
 31
0.0
  0
LINE
  8
0
 62
     0
 10
69.0079
 20
132.176
 30
0.0
 11
55.0072
 21
132.176
 31
0.0
  0
LINE
  8
0
 62
     0
 10
325.518
 20
134.082
 30
0.0
 11
325.518
 21
133.081
 31
0.0
  0
LINE
  8
0
 62
     0
 10
325.518
 20
133.081
 30
0.0
 11
324.718
 21
133.081
 31
0.0
  0
LINE
  8
0
 62
     0
 10
324.718
 20
133.081
 30
0.0
 11
324.718
 21
129.982
 31
0.0
  0
LINE
  8
0
 62
     0
 10
324.718
 20
129.982
 30
0.0
 11
325.518
 21
129.982
 31
0.0
  0
LINE
  8
0
 62
     0
 10
325.518
 20
129.982
 30
0.0
 11
325.518
 21
124.182
 31
0.0
  0
LINE
  8
0
 62
     0
 10
325.518
 20
124.182
 30
0.0
 11
324.718
 21
124.182
 31
0.0
  0
LINE
  8
0
 62
     0
 10
324.718
 20
124.182
 30
0.0
 11
324.718
 21
121.081
 31
0.0
  0
LINE
  8
0
 62
     0
 10
324.718
 20
121.081
 30
0.0
 11
325.518
 21
121.081
 31
0.0
  0
LINE
  8
0
 62
     0
 10
325.518
 20
121.081
 30
0.0
 11
325.518
 21
120.081
 31
0.0
  0
LINE
  8
0
 62
     0
 10
325.518
 20
120.081
 30
0.0
 11
339.517
 21
120.081
 31
0.0
  0
LINE
  8
0
 62
     0
 10
339.517
 20
120.081
 30
0.0
 11
339.517
 21
121.081
 31
0.0
  0
LINE
  8
0
 62
     0
 10
339.517
 20
121.081
 30
0.0
 11
340.318
 21
121.081
 31
0.0
  0
LINE
  8
0
 62
     0
 10
340.318
 20
121.081
 30
0.0
 11
340.318
 21
124.182
 31
0.0
  0
LINE
  8
0
 62
     0
 10
340.318
 20
124.182
 30
0.0
 11
339.517
 21
124.182
 31
0.0
  0
LINE
  8
0
 62
     0
 10
339.517
 20
124.182
 30
0.0
 11
339.517
 21
129.982
 31
0.0
  0
LINE
  8
0
 62
     0
 10
339.517
 20
129.982
 30
0.0
 11
340.318
 21
129.982
 31
0.0
  0
LINE
  8
0
 62
     0
 10
340.318
 20
129.982
 30
0.0
 11
340.318
 21
133.081
 31
0.0
  0
LINE
  8
0
 62
     0
 10
340.318
 20
133.081
 30
0.0
 11
339.517
 21
133.081
 31
0.0
  0
LINE
  8
0
 62
     0
 10
339.517
 20
133.081
 30
0.0
 11
339.517
 21
134.082
 31
0.0
  0
LINE
  8
0
 62
     0
 10
339.517
 20
134.082
 30
0.0
 11
325.518
 21
134.082
 31
0.0
  0
LINE
  8
0
 62
     0
 10
167.144
 20
136.94
 30
0.0
 11
167.352
 21
135.961
 31
0.0
  0
LINE
  8
0
 62
     0
 10
167.352
 20
135.961
 30
0.0
 11
166.569
 21
135.795
 31
0.0
  0
LINE
  8
0
 62
     0
 10
166.569
 20
135.795
 30
0.0
 11
167.214
 21
132.763
 31
0.0
  0
LINE
  8
0
 62
     0
 10
167.214
 20
132.763
 30
0.0
 11
167.997
 21
132.928
 31
0.0
  0
LINE
  8
0
 62
     0
 10
167.997
 20
132.928
 30
0.0
 11
169.202
 21
127.255
 31
0.0
  0
LINE
  8
0
 62
     0
 10
169.202
 20
127.255
 30
0.0
 11
168.42
 21
127.09
 31
0.0
  0
LINE
  8
0
 62
     0
 10
168.42
 20
127.09
 30
0.0
 11
169.065
 21
124.056
 31
0.0
  0
LINE
  8
0
 62
     0
 10
169.065
 20
124.056
 30
0.0
 11
169.846
 21
124.223
 31
0.0
  0
LINE
  8
0
 62
     0
 10
169.846
 20
124.223
 30
0.0
 11
170.054
 21
123.245
 31
0.0
  0
LINE
  8
0
 62
     0
 10
170.054
 20
123.245
 30
0.0
 11
183.749
 21
126.155
 31
0.0
  0
LINE
  8
0
 62
     0
 10
183.749
 20
126.155
 30
0.0
 11
183.541
 21
127.135
 31
0.0
  0
LINE
  8
0
 62
     0
 10
183.541
 20
127.135
 30
0.0
 11
184.324
 21
127.301
 31
0.0
  0
LINE
  8
0
 62
     0
 10
184.324
 20
127.301
 30
0.0
 11
183.679
 21
130.332
 31
0.0
  0
LINE
  8
0
 62
     0
 10
183.679
 20
130.332
 30
0.0
 11
182.896
 21
130.167
 31
0.0
  0
LINE
  8
0
 62
     0
 10
182.896
 20
130.167
 30
0.0
 11
181.69
 21
135.839
 31
0.0
  0
LINE
  8
0
 62
     0
 10
181.69
 20
135.839
 30
0.0
 11
182.473
 21
136.005
 31
0.0
  0
LINE
  8
0
 62
     0
 10
182.473
 20
136.005
 30
0.0
 11
181.828
 21
139.039
 31
0.0
  0
LINE
  8
0
 62
     0
 10
181.828
 20
139.039
 30
0.0
 11
181.045
 21
138.872
 31
0.0
  0
LINE
  8
0
 62
     0
 10
181.045
 20
138.872
 30
0.0
 11
180.837
 21
139.849
 31
0.0
  0
LINE
  8
0
 62
     0
 10
180.837
 20
139.849
 30
0.0
 11
167.144
 21
136.94
 31
0.0
  0
LINE
  8
0
 62
     0
 10
133.537
 20
140.014
 30
0.0
 11
132.756
 21
140.181
 31
0.0
  0
LINE
  8
0
 62
     0
 10
132.756
 20
140.181
 30
0.0
 11
132.111
 21
137.148
 31
0.0
  0
LINE
  8
0
 62
     0
 10
132.111
 20
137.148
 30
0.0
 11
132.894
 21
136.983
 31
0.0
  0
LINE
  8
0
 62
     0
 10
132.894
 20
136.983
 30
0.0
 11
131.688
 21
131.308
 31
0.0
  0
LINE
  8
0
 62
     0
 10
131.688
 20
131.308
 30
0.0
 11
130.904
 21
131.476
 31
0.0
  0
LINE
  8
0
 62
     0
 10
130.904
 20
131.476
 30
0.0
 11
130.26
 21
128.443
 31
0.0
  0
LINE
  8
0
 62
     0
 10
130.26
 20
128.443
 30
0.0
 11
131.043
 21
128.276
 31
0.0
  0
LINE
  8
0
 62
     0
 10
131.043
 20
128.276
 30
0.0
 11
130.835
 21
127.299
 31
0.0
  0
LINE
  8
0
 62
     0
 10
130.835
 20
127.299
 30
0.0
 11
144.529
 21
124.387
 31
0.0
  0
LINE
  8
0
 62
     0
 10
144.529
 20
124.387
 30
0.0
 11
144.737
 21
125.366
 31
0.0
  0
LINE
  8
0
 62
     0
 10
144.737
 20
125.366
 30
0.0
 11
145.519
 21
125.199
 31
0.0
  0
LINE
  8
0
 62
     0
 10
145.519
 20
125.199
 30
0.0
 11
146.163
 21
128.232
 31
0.0
  0
LINE
  8
0
 62
     0
 10
146.163
 20
128.232
 30
0.0
 11
145.381
 21
128.399
 31
0.0
  0
LINE
  8
0
 62
     0
 10
145.381
 20
128.399
 30
0.0
 11
146.587
 21
134.071
 31
0.0
  0
LINE
  8
0
 62
     0
 10
146.587
 20
134.071
 30
0.0
 11
147.37
 21
133.905
 31
0.0
  0
LINE
  8
0
 62
     0
 10
147.37
 20
133.905
 30
0.0
 11
148.015
 21
136.937
 31
0.0
  0
LINE
  8
0
 62
     0
 10
148.015
 20
136.937
 30
0.0
 11
147.231
 21
137.104
 31
0.0
  0
LINE
  8
0
 62
     0
 10
147.231
 20
137.104
 30
0.0
 11
147.439
 21
138.081
 31
0.0
  0
LINE
  8
0
 62
     0
 10
147.439
 20
138.081
 30
0.0
 11
133.745
 21
140.993
 31
0.0
  0
LINE
  8
0
 62
     0
 10
133.745
 20
140.993
 30
0.0
 11
133.537
 21
140.014
 31
0.0
  0
LINE
  8
0
 62
     0
 10
185.777
 20
140.899
 30
0.0
 11
185.986
 21
139.922
 31
0.0
  0
LINE
  8
0
 62
     0
 10
185.986
 20
139.922
 30
0.0
 11
185.203
 21
139.755
 31
0.0
  0
LINE
  8
0
 62
     0
 10
185.203
 20
139.755
 30
0.0
 11
185.848
 21
136.724
 31
0.0
  0
LINE
  8
0
 62
     0
 10
185.848
 20
136.724
 30
0.0
 11
186.63
 21
136.889
 31
0.0
  0
LINE
  8
0
 62
     0
 10
186.63
 20
136.889
 30
0.0
 11
187.835
 21
131.217
 31
0.0
  0
LINE
  8
0
 62
     0
 10
187.835
 20
131.217
 30
0.0
 11
187.053
 21
131.05
 31
0.0
  0
LINE
  8
0
 62
     0
 10
187.053
 20
131.05
 30
0.0
 11
187.697
 21
128.017
 31
0.0
  0
LINE
  8
0
 62
     0
 10
187.697
 20
128.017
 30
0.0
 11
188.481
 21
128.184
 31
0.0
  0
LINE
  8
0
 62
     0
 10
188.481
 20
128.184
 30
0.0
 11
188.688
 21
127.205
 31
0.0
  0
LINE
  8
0
 62
     0
 10
188.688
 20
127.205
 30
0.0
 11
202.383
 21
130.116
 31
0.0
  0
LINE
  8
0
 62
     0
 10
202.383
 20
130.116
 30
0.0
 11
202.175
 21
131.094
 31
0.0
  0
LINE
  8
0
 62
     0
 10
202.175
 20
131.094
 30
0.0
 11
202.958
 21
131.261
 31
0.0
  0
LINE
  8
0
 62
     0
 10
202.958
 20
131.261
 30
0.0
 11
202.312
 21
134.294
 31
0.0
  0
LINE
  8
0
 62
     0
 10
202.312
 20
134.294
 30
0.0
 11
201.53
 21
134.126
 31
0.0
  0
LINE
  8
0
 62
     0
 10
201.53
 20
134.126
 30
0.0
 11
200.324
 21
139.801
 31
0.0
  0
LINE
  8
0
 62
     0
 10
200.324
 20
139.801
 30
0.0
 11
201.107
 21
139.966
 31
0.0
  0
LINE
  8
0
 62
     0
 10
201.107
 20
139.966
 30
0.0
 11
200.462
 21
142.999
 31
0.0
  0
LINE
  8
0
 62
     0
 10
200.462
 20
142.999
 30
0.0
 11
199.679
 21
142.832
 31
0.0
  0
LINE
  8
0
 62
     0
 10
199.679
 20
142.832
 30
0.0
 11
199.471
 21
143.811
 31
0.0
  0
LINE
  8
0
 62
     0
 10
199.471
 20
143.811
 30
0.0
 11
185.777
 21
140.899
 31
0.0
  0
LINE
  8
0
 62
     0
 10
114.905
 20
143.976
 30
0.0
 11
114.121
 21
144.141
 31
0.0
  0
LINE
  8
0
 62
     0
 10
114.121
 20
144.141
 30
0.0
 11
113.476
 21
141.11
 31
0.0
  0
LINE
  8
0
 62
     0
 10
113.476
 20
141.11
 30
0.0
 11
114.26
 21
140.943
 31
0.0
  0
LINE
  8
0
 62
     0
 10
114.26
 20
140.943
 30
0.0
 11
113.053
 21
135.269
 31
0.0
  0
LINE
  8
0
 62
     0
 10
113.053
 20
135.269
 30
0.0
 11
112.272
 21
135.435
 31
0.0
  0
LINE
  8
0
 62
     0
 10
112.272
 20
135.435
 30
0.0
 11
111.627
 21
132.403
 31
0.0
  0
LINE
  8
0
 62
     0
 10
111.627
 20
132.403
 30
0.0
 11
112.409
 21
132.238
 31
0.0
  0
LINE
  8
0
 62
     0
 10
112.409
 20
132.238
 30
0.0
 11
112.201
 21
131.259
 31
0.0
  0
LINE
  8
0
 62
     0
 10
112.201
 20
131.259
 30
0.0
 11
125.895
 21
128.348
 31
0.0
  0
LINE
  8
0
 62
     0
 10
125.895
 20
128.348
 30
0.0
 11
126.103
 21
129.326
 31
0.0
  0
LINE
  8
0
 62
     0
 10
126.103
 20
129.326
 30
0.0
 11
126.886
 21
129.161
 31
0.0
  0
LINE
  8
0
 62
     0
 10
126.886
 20
129.161
 30
0.0
 11
127.531
 21
132.193
 31
0.0
  0
LINE
  8
0
 62
     0
 10
127.531
 20
132.193
 30
0.0
 11
126.748
 21
132.358
 31
0.0
  0
LINE
  8
0
 62
     0
 10
126.748
 20
132.358
 30
0.0
 11
127.954
 21
138.032
 31
0.0
  0
LINE
  8
0
 62
     0
 10
127.954
 20
138.032
 30
0.0
 11
128.736
 21
137.866
 31
0.0
  0
LINE
  8
0
 62
     0
 10
128.736
 20
137.866
 30
0.0
 11
129.38
 21
140.899
 31
0.0
  0
LINE
  8
0
 62
     0
 10
129.38
 20
140.899
 30
0.0
 11
128.598
 21
141.064
 31
0.0
  0
LINE
  8
0
 62
     0
 10
128.598
 20
141.064
 30
0.0
 11
128.807
 21
142.043
 31
0.0
  0
LINE
  8
0
 62
     0
 10
128.807
 20
142.043
 30
0.0
 11
115.112
 21
144.953
 31
0.0
  0
LINE
  8
0
 62
     0
 10
115.112
 20
144.953
 30
0.0
 11
114.905
 21
143.976
 31
0.0
  0
LINE
  8
0
 62
     0
 10
209.069
 20
145.85
 30
0.0
 11
209.277
 21
144.872
 31
0.0
  0
LINE
  8
0
 62
     0
 10
209.277
 20
144.872
 30
0.0
 11
208.496
 21
144.706
 31
0.0
  0
LINE
  8
0
 62
     0
 10
208.496
 20
144.706
 30
0.0
 11
209.139
 21
141.675
 31
0.0
  0
LINE
  8
0
 62
     0
 10
209.139
 20
141.675
 30
0.0
 11
209.922
 21
141.84
 31
0.0
  0
LINE
  8
0
 62
     0
 10
209.922
 20
141.84
 30
0.0
 11
211.128
 21
136.168
 31
0.0
  0
LINE
  8
0
 62
     0
 10
211.128
 20
136.168
 30
0.0
 11
210.345
 21
136
 31
0.0
  0
LINE
  8
0
 62
     0
 10
210.345
 20
136
 30
0.0
 11
210.99
 21
132.968
 31
0.0
  0
LINE
  8
0
 62
     0
 10
210.99
 20
132.968
 30
0.0
 11
211.773
 21
133.135
 31
0.0
  0
LINE
  8
0
 62
     0
 10
211.773
 20
133.135
 30
0.0
 11
211.981
 21
132.157
 31
0.0
  0
LINE
  8
0
 62
     0
 10
211.981
 20
132.157
 30
0.0
 11
225.674
 21
135.067
 31
0.0
  0
LINE
  8
0
 62
     0
 10
225.674
 20
135.067
 30
0.0
 11
225.466
 21
136.046
 31
0.0
  0
LINE
  8
0
 62
     0
 10
225.466
 20
136.046
 30
0.0
 11
226.249
 21
136.211
 31
0.0
  0
LINE
  8
0
 62
     0
 10
226.249
 20
136.211
 30
0.0
 11
225.604
 21
139.244
 31
0.0
  0
LINE
  8
0
 62
     0
 10
225.604
 20
139.244
 30
0.0
 11
224.823
 21
139.077
 31
0.0
  0
LINE
  8
0
 62
     0
 10
224.823
 20
139.077
 30
0.0
 11
223.617
 21
144.752
 31
0.0
  0
LINE
  8
0
 62
     0
 10
223.617
 20
144.752
 30
0.0
 11
224.398
 21
144.917
 31
0.0
  0
LINE
  8
0
 62
     0
 10
224.398
 20
144.917
 30
0.0
 11
223.755
 21
147.949
 31
0.0
  0
LINE
  8
0
 62
     0
 10
223.755
 20
147.949
 30
0.0
 11
222.972
 21
147.784
 31
0.0
  0
LINE
  8
0
 62
     0
 10
222.972
 20
147.784
 30
0.0
 11
222.764
 21
148.762
 31
0.0
  0
LINE
  8
0
 62
     0
 10
222.764
 20
148.762
 30
0.0
 11
209.069
 21
145.85
 31
0.0
  0
LINE
  8
0
 62
     0
 10
91.6122
 20
148.926
 30
0.0
 11
90.8293
 21
149.093
 31
0.0
  0
LINE
  8
0
 62
     0
 10
90.8293
 20
149.093
 30
0.0
 11
90.1845
 21
146.061
 31
0.0
  0
LINE
  8
0
 62
     0
 10
90.1845
 20
146.061
 30
0.0
 11
90.9669
 21
145.893
 31
0.0
  0
LINE
  8
0
 62
     0
 10
90.9669
 20
145.893
 30
0.0
 11
89.7611
 21
140.221
 31
0.0
  0
LINE
  8
0
 62
     0
 10
89.7611
 20
140.221
 30
0.0
 11
88.9787
 21
140.386
 31
0.0
  0
LINE
  8
0
 62
     0
 10
88.9787
 20
140.386
 30
0.0
 11
88.3348
 21
137.355
 31
0.0
  0
LINE
  8
0
 62
     0
 10
88.3348
 20
137.355
 30
0.0
 11
89.1163
 21
137.188
 31
0.0
  0
LINE
  8
0
 62
     0
 10
89.1163
 20
137.188
 30
0.0
 11
88.9095
 21
136.211
 31
0.0
  0
LINE
  8
0
 62
     0
 10
88.9095
 20
136.211
 30
0.0
 11
102.603
 21
133.299
 31
0.0
  0
LINE
  8
0
 62
     0
 10
102.603
 20
133.299
 30
0.0
 11
102.811
 21
134.277
 31
0.0
  0
LINE
  8
0
 62
     0
 10
102.811
 20
134.277
 30
0.0
 11
103.594
 21
134.112
 31
0.0
  0
LINE
  8
0
 62
     0
 10
103.594
 20
134.112
 30
0.0
 11
104.239
 21
137.144
 31
0.0
  0
LINE
  8
0
 62
     0
 10
104.239
 20
137.144
 30
0.0
 11
103.455
 21
137.309
 31
0.0
  0
LINE
  8
0
 62
     0
 10
103.455
 20
137.309
 30
0.0
 11
104.662
 21
142.984
 31
0.0
  0
LINE
  8
0
 62
     0
 10
104.662
 20
142.984
 30
0.0
 11
105.444
 21
142.816
 31
0.0
  0
LINE
  8
0
 62
     0
 10
105.444
 20
142.816
 30
0.0
 11
106.088
 21
145.849
 31
0.0
  0
LINE
  8
0
 62
     0
 10
106.088
 20
145.849
 30
0.0
 11
105.306
 21
146.015
 31
0.0
  0
LINE
  8
0
 62
     0
 10
105.306
 20
146.015
 30
0.0
 11
105.514
 21
146.994
 31
0.0
  0
LINE
  8
0
 62
     0
 10
105.514
 20
146.994
 30
0.0
 11
91.8199
 21
149.904
 31
0.0
  0
LINE
  8
0
 62
     0
 10
91.8199
 20
149.904
 30
0.0
 11
91.6122
 21
148.926
 31
0.0
  0
LINE
  8
0
 62
     0
 10
227.703
 20
149.812
 30
0.0
 11
227.911
 21
148.834
 31
0.0
  0
LINE
  8
0
 62
     0
 10
227.911
 20
148.834
 30
0.0
 11
227.128
 21
148.667
 31
0.0
  0
LINE
  8
0
 62
     0
 10
227.128
 20
148.667
 30
0.0
 11
227.773
 21
145.634
 31
0.0
  0
LINE
  8
0
 62
     0
 10
227.773
 20
145.634
 30
0.0
 11
228.556
 21
145.802
 31
0.0
  0
LINE
  8
0
 62
     0
 10
228.556
 20
145.802
 30
0.0
 11
229.762
 21
140.127
 31
0.0
  0
LINE
  8
0
 62
     0
 10
229.762
 20
140.127
 30
0.0
 11
228.979
 21
139.962
 31
0.0
  0
LINE
  8
0
 62
     0
 10
228.979
 20
139.962
 30
0.0
 11
229.624
 21
136.929
 31
0.0
  0
LINE
  8
0
 62
     0
 10
229.624
 20
136.929
 30
0.0
 11
230.407
 21
137.095
 31
0.0
  0
LINE
  8
0
 62
     0
 10
230.407
 20
137.095
 30
0.0
 11
230.615
 21
136.117
 31
0.0
  0
LINE
  8
0
 62
     0
 10
230.615
 20
136.117
 30
0.0
 11
244.308
 21
139.029
 31
0.0
  0
LINE
  8
0
 62
     0
 10
244.308
 20
139.029
 30
0.0
 11
244.1
 21
140.006
 31
0.0
  0
LINE
  8
0
 62
     0
 10
244.1
 20
140.006
 30
0.0
 11
244.883
 21
140.173
 31
0.0
  0
LINE
  8
0
 62
     0
 10
244.883
 20
140.173
 30
0.0
 11
244.238
 21
143.204
 31
0.0
  0
LINE
  8
0
 62
     0
 10
244.238
 20
143.204
 30
0.0
 11
243.455
 21
143.039
 31
0.0
  0
LINE
  8
0
 62
     0
 10
243.455
 20
143.039
 30
0.0
 11
242.249
 21
148.711
 31
0.0
  0
LINE
  8
0
 62
     0
 10
242.249
 20
148.711
 30
0.0
 11
243.032
 21
148.878
 31
0.0
  0
LINE
  8
0
 62
     0
 10
243.032
 20
148.878
 30
0.0
 11
242.387
 21
151.911
 31
0.0
  0
LINE
  8
0
 62
     0
 10
242.387
 20
151.911
 30
0.0
 11
241.606
 21
151.744
 31
0.0
  0
LINE
  8
0
 62
     0
 10
241.606
 20
151.744
 30
0.0
 11
241.398
 21
152.722
 31
0.0
  0
LINE
  8
0
 62
     0
 10
241.398
 20
152.722
 30
0.0
 11
227.703
 21
149.812
 31
0.0
  0
LINE
  8
0
 62
     0
 10
72.9781
 20
152.886
 30
0.0
 11
72.1953
 21
153.053
 31
0.0
  0
LINE
  8
0
 62
     0
 10
72.1953
 20
153.053
 30
0.0
 11
71.5518
 21
150.02
 31
0.0
  0
LINE
  8
0
 62
     0
 10
71.5518
 20
150.02
 30
0.0
 11
72.3332
 21
149.855
 31
0.0
  0
LINE
  8
0
 62
     0
 10
72.3332
 20
149.855
 30
0.0
 11
71.1274
 21
144.181
 31
0.0
  0
LINE
  8
0
 62
     0
 10
71.1274
 20
144.181
 30
0.0
 11
70.346
 21
144.347
 31
0.0
  0
LINE
  8
0
 62
     0
 10
70.346
 20
144.347
 30
0.0
 11
69.7011
 21
141.315
 31
0.0
  0
LINE
  8
0
 62
     0
 10
69.7011
 20
141.315
 30
0.0
 11
70.4839
 21
141.148
 31
0.0
  0
LINE
  8
0
 62
     0
 10
70.4839
 20
141.148
 30
0.0
 11
70.2758
 21
140.17
 31
0.0
  0
LINE
  8
0
 62
     0
 10
70.2758
 20
140.17
 30
0.0
 11
83.9692
 21
137.261
 31
0.0
  0
LINE
  8
0
 62
     0
 10
83.9692
 20
137.261
 30
0.0
 11
84.1774
 21
138.238
 31
0.0
  0
LINE
  8
0
 62
     0
 10
84.1774
 20
138.238
 30
0.0
 11
84.9588
 21
138.071
 31
0.0
  0
LINE
  8
0
 62
     0
 10
84.9588
 20
138.071
 30
0.0
 11
85.6051
 21
141.104
 31
0.0
  0
LINE
  8
0
 62
     0
 10
85.6051
 20
141.104
 30
0.0
 11
84.8212
 21
141.271
 31
0.0
  0
LINE
  8
0
 62
     0
 10
84.8212
 20
141.271
 30
0.0
 11
86.028
 21
146.943
 31
0.0
  0
LINE
  8
0
 62
     0
 10
86.028
 20
146.943
 30
0.0
 11
86.8109
 21
146.778
 31
0.0
  0
LINE
  8
0
 62
     0
 10
86.8109
 20
146.778
 30
0.0
 11
87.4543
 21
149.809
 31
0.0
  0
LINE
  8
0
 62
     0
 10
87.4543
 20
149.809
 30
0.0
 11
86.6733
 21
149.976
 31
0.0
  0
LINE
  8
0
 62
     0
 10
86.6733
 20
149.976
 30
0.0
 11
86.8811
 21
150.954
 31
0.0
  0
LINE
  8
0
 62
     0
 10
86.8811
 20
150.954
 30
0.0
 11
73.1862
 21
153.865
 31
0.0
  0
LINE
  8
0
 62
     0
 10
73.1862
 20
153.865
 30
0.0
 11
72.9781
 21
152.886
 31
0.0
  0
LINE
  8
0
 62
     0
 10
320.755
 20
153.132
 30
0.0
 11
320.755
 21
152.131
 31
0.0
  0
LINE
  8
0
 62
     0
 10
320.755
 20
152.131
 30
0.0
 11
319.954
 21
152.131
 31
0.0
  0
LINE
  8
0
 62
     0
 10
319.954
 20
152.131
 30
0.0
 11
319.954
 21
149.032
 31
0.0
  0
LINE
  8
0
 62
     0
 10
319.954
 20
149.032
 30
0.0
 11
320.755
 21
149.032
 31
0.0
  0
LINE
  8
0
 62
     0
 10
320.755
 20
149.032
 30
0.0
 11
320.755
 21
143.232
 31
0.0
  0
LINE
  8
0
 62
     0
 10
320.755
 20
143.232
 30
0.0
 11
319.954
 21
143.232
 31
0.0
  0
LINE
  8
0
 62
     0
 10
319.954
 20
143.232
 30
0.0
 11
319.954
 21
140.131
 31
0.0
  0
LINE
  8
0
 62
     0
 10
319.954
 20
140.131
 30
0.0
 11
320.755
 21
140.131
 31
0.0
  0
LINE
  8
0
 62
     0
 10
320.755
 20
140.131
 30
0.0
 11
320.755
 21
139.131
 31
0.0
  0
LINE
  8
0
 62
     0
 10
320.755
 20
139.131
 30
0.0
 11
334.754
 21
139.131
 31
0.0
  0
LINE
  8
0
 62
     0
 10
334.754
 20
139.131
 30
0.0
 11
334.754
 21
140.131
 31
0.0
  0
LINE
  8
0
 62
     0
 10
334.754
 20
140.131
 30
0.0
 11
335.555
 21
140.131
 31
0.0
  0
LINE
  8
0
 62
     0
 10
335.555
 20
140.131
 30
0.0
 11
335.555
 21
143.232
 31
0.0
  0
LINE
  8
0
 62
     0
 10
335.555
 20
143.232
 30
0.0
 11
334.754
 21
143.232
 31
0.0
  0
LINE
  8
0
 62
     0
 10
334.754
 20
143.232
 30
0.0
 11
334.754
 21
149.032
 31
0.0
  0
LINE
  8
0
 62
     0
 10
334.754
 20
149.032
 30
0.0
 11
335.555
 21
149.032
 31
0.0
  0
LINE
  8
0
 62
     0
 10
335.555
 20
149.032
 30
0.0
 11
335.555
 21
152.131
 31
0.0
  0
LINE
  8
0
 62
     0
 10
335.555
 20
152.131
 30
0.0
 11
334.754
 21
152.131
 31
0.0
  0
LINE
  8
0
 62
     0
 10
334.754
 20
152.131
 30
0.0
 11
334.754
 21
153.132
 31
0.0
  0
LINE
  8
0
 62
     0
 10
334.754
 20
153.132
 30
0.0
 11
320.755
 21
153.132
 31
0.0
  0
LINE
  8
0
 62
     0
 10
295.323
 20
153.132
 30
0.0
 11
295.323
 21
152.131
 31
0.0
  0
LINE
  8
0
 62
     0
 10
295.323
 20
152.131
 30
0.0
 11
294.524
 21
152.131
 31
0.0
  0
LINE
  8
0
 62
     0
 10
294.524
 20
152.131
 30
0.0
 11
294.524
 21
149.032
 31
0.0
  0
LINE
  8
0
 62
     0
 10
294.524
 20
149.032
 30
0.0
 11
295.323
 21
149.032
 31
0.0
  0
LINE
  8
0
 62
     0
 10
295.323
 20
149.032
 30
0.0
 11
295.323
 21
143.232
 31
0.0
  0
LINE
  8
0
 62
     0
 10
295.323
 20
143.232
 30
0.0
 11
294.524
 21
143.232
 31
0.0
  0
LINE
  8
0
 62
     0
 10
294.524
 20
143.232
 30
0.0
 11
294.524
 21
140.131
 31
0.0
  0
LINE
  8
0
 62
     0
 10
294.524
 20
140.131
 30
0.0
 11
295.323
 21
140.131
 31
0.0
  0
LINE
  8
0
 62
     0
 10
295.323
 20
140.131
 30
0.0
 11
295.323
 21
139.131
 31
0.0
  0
LINE
  8
0
 62
     0
 10
295.323
 20
139.131
 30
0.0
 11
309.324
 21
139.131
 31
0.0
  0
LINE
  8
0
 62
     0
 10
309.324
 20
139.131
 30
0.0
 11
309.324
 21
140.131
 31
0.0
  0
LINE
  8
0
 62
     0
 10
309.324
 20
140.131
 30
0.0
 11
310.123
 21
140.131
 31
0.0
  0
LINE
  8
0
 62
     0
 10
310.123
 20
140.131
 30
0.0
 11
310.123
 21
143.232
 31
0.0
  0
LINE
  8
0
 62
     0
 10
310.123
 20
143.232
 30
0.0
 11
309.324
 21
143.232
 31
0.0
  0
LINE
  8
0
 62
     0
 10
309.324
 20
143.232
 30
0.0
 11
309.324
 21
149.032
 31
0.0
  0
LINE
  8
0
 62
     0
 10
309.324
 20
149.032
 30
0.0
 11
310.123
 21
149.032
 31
0.0
  0
LINE
  8
0
 62
     0
 10
310.123
 20
149.032
 30
0.0
 11
310.123
 21
152.131
 31
0.0
  0
LINE
  8
0
 62
     0
 10
310.123
 20
152.131
 30
0.0
 11
309.324
 21
152.131
 31
0.0
  0
LINE
  8
0
 62
     0
 10
309.324
 20
152.131
 30
0.0
 11
309.324
 21
153.132
 31
0.0
  0
LINE
  8
0
 62
     0
 10
309.324
 20
153.132
 30
0.0
 11
295.323
 21
153.132
 31
0.0
  0
LINE
  8
0
 62
     0
 10
6.42994
 20
153.132
 30
0.0
 11
6.42994
 21
152.131
 31
0.0
  0
LINE
  8
0
 62
     0
 10
6.42994
 20
152.131
 30
0.0
 11
5.63065
 21
152.131
 31
0.0
  0
LINE
  8
0
 62
     0
 10
5.63065
 20
152.131
 30
0.0
 11
5.63065
 21
149.032
 31
0.0
  0
LINE
  8
0
 62
     0
 10
5.63065
 20
149.032
 30
0.0
 11
6.42994
 21
149.032
 31
0.0
  0
LINE
  8
0
 62
     0
 10
6.42994
 20
149.032
 30
0.0
 11
6.42994
 21
143.232
 31
0.0
  0
LINE
  8
0
 62
     0
 10
6.42994
 20
143.232
 30
0.0
 11
5.63065
 21
143.232
 31
0.0
  0
LINE
  8
0
 62
     0
 10
5.63065
 20
143.232
 30
0.0
 11
5.63065
 21
140.131
 31
0.0
  0
LINE
  8
0
 62
     0
 10
5.63065
 20
140.131
 30
0.0
 11
6.42994
 21
140.131
 31
0.0
  0
LINE
  8
0
 62
     0
 10
6.42994
 20
140.131
 30
0.0
 11
6.42994
 21
139.131
 31
0.0
  0
LINE
  8
0
 62
     0
 10
6.42994
 20
139.131
 30
0.0
 11
20.4308
 21
139.131
 31
0.0
  0
LINE
  8
0
 62
     0
 10
20.4308
 20
139.131
 30
0.0
 11
20.4308
 21
140.131
 31
0.0
  0
LINE
  8
0
 62
     0
 10
20.4308
 20
140.131
 30
0.0
 11
21.2301
 21
140.131
 31
0.0
  0
LINE
  8
0
 62
     0
 10
21.2301
 20
140.131
 30
0.0
 11
21.2301
 21
143.232
 31
0.0
  0
LINE
  8
0
 62
     0
 10
21.2301
 20
143.232
 30
0.0
 11
20.4308
 21
143.232
 31
0.0
  0
LINE
  8
0
 62
     0
 10
20.4308
 20
143.232
 30
0.0
 11
20.4308
 21
149.032
 31
0.0
  0
LINE
  8
0
 62
     0
 10
20.4308
 20
149.032
 30
0.0
 11
21.2301
 21
149.032
 31
0.0
  0
LINE
  8
0
 62
     0
 10
21.2301
 20
149.032
 30
0.0
 11
21.2301
 21
152.131
 31
0.0
  0
LINE
  8
0
 62
     0
 10
21.2301
 20
152.131
 30
0.0
 11
20.4308
 21
152.131
 31
0.0
  0
LINE
  8
0
 62
     0
 10
20.4308
 20
152.131
 30
0.0
 11
20.4308
 21
153.132
 31
0.0
  0
LINE
  8
0
 62
     0
 10
20.4308
 20
153.132
 30
0.0
 11
6.42994
 21
153.132
 31
0.0
  0
LINE
  8
0
 62
     0
 10
250.271
 20
154.084
 30
0.0
 11
250.271
 21
153.084
 31
0.0
  0
LINE
  8
0
 62
     0
 10
250.271
 20
153.084
 30
0.0
 11
249.47
 21
153.084
 31
0.0
  0
LINE
  8
0
 62
     0
 10
249.47
 20
153.084
 30
0.0
 11
249.47
 21
149.983
 31
0.0
  0
LINE
  8
0
 62
     0
 10
249.47
 20
149.983
 30
0.0
 11
250.271
 21
149.983
 31
0.0
  0
LINE
  8
0
 62
     0
 10
250.271
 20
149.983
 30
0.0
 11
250.271
 21
144.183
 31
0.0
  0
LINE
  8
0
 62
     0
 10
250.271
 20
144.183
 30
0.0
 11
249.47
 21
144.183
 31
0.0
  0
LINE
  8
0
 62
     0
 10
249.47
 20
144.183
 30
0.0
 11
249.47
 21
141.084
 31
0.0
  0
LINE
  8
0
 62
     0
 10
249.47
 20
141.084
 30
0.0
 11
250.271
 21
141.084
 31
0.0
  0
LINE
  8
0
 62
     0
 10
250.271
 20
141.084
 30
0.0
 11
250.271
 21
140.083
 31
0.0
  0
LINE
  8
0
 62
     0
 10
250.271
 20
140.083
 30
0.0
 11
264.27
 21
140.083
 31
0.0
  0
LINE
  8
0
 62
     0
 10
264.27
 20
140.083
 30
0.0
 11
264.27
 21
141.084
 31
0.0
  0
LINE
  8
0
 62
     0
 10
264.27
 20
141.084
 30
0.0
 11
265.071
 21
141.084
 31
0.0
  0
LINE
  8
0
 62
     0
 10
265.071
 20
141.084
 30
0.0
 11
265.071
 21
144.183
 31
0.0
  0
LINE
  8
0
 62
     0
 10
265.071
 20
144.183
 30
0.0
 11
264.27
 21
144.183
 31
0.0
  0
LINE
  8
0
 62
     0
 10
264.27
 20
144.183
 30
0.0
 11
264.27
 21
149.983
 31
0.0
  0
LINE
  8
0
 62
     0
 10
264.27
 20
149.983
 30
0.0
 11
265.071
 21
149.983
 31
0.0
  0
LINE
  8
0
 62
     0
 10
265.071
 20
149.983
 30
0.0
 11
265.071
 21
153.084
 31
0.0
  0
LINE
  8
0
 62
     0
 10
265.071
 20
153.084
 30
0.0
 11
264.27
 21
153.084
 31
0.0
  0
LINE
  8
0
 62
     0
 10
264.27
 20
153.084
 30
0.0
 11
264.27
 21
154.084
 31
0.0
  0
LINE
  8
0
 62
     0
 10
264.27
 20
154.084
 30
0.0
 11
250.271
 21
154.084
 31
0.0
  0
LINE
  8
0
 62
     0
 10
50.2461
 20
154.084
 30
0.0
 11
50.2461
 21
153.084
 31
0.0
  0
LINE
  8
0
 62
     0
 10
50.2461
 20
153.084
 30
0.0
 11
49.4453
 21
153.084
 31
0.0
  0
LINE
  8
0
 62
     0
 10
49.4453
 20
153.084
 30
0.0
 11
49.4453
 21
149.983
 31
0.0
  0
LINE
  8
0
 62
     0
 10
49.4453
 20
149.983
 30
0.0
 11
50.2461
 21
149.983
 31
0.0
  0
LINE
  8
0
 62
     0
 10
50.2461
 20
149.983
 30
0.0
 11
50.2461
 21
144.183
 31
0.0
  0
LINE
  8
0
 62
     0
 10
50.2461
 20
144.183
 30
0.0
 11
49.4453
 21
144.183
 31
0.0
  0
LINE
  8
0
 62
     0
 10
49.4453
 20
144.183
 30
0.0
 11
49.4453
 21
141.084
 31
0.0
  0
LINE
  8
0
 62
     0
 10
49.4453
 20
141.084
 30
0.0
 11
50.2461
 21
141.084
 31
0.0
  0
LINE
  8
0
 62
     0
 10
50.2461
 20
141.084
 30
0.0
 11
50.2461
 21
140.083
 31
0.0
  0
LINE
  8
0
 62
     0
 10
50.2461
 20
140.083
 30
0.0
 11
64.2454
 21
140.083
 31
0.0
  0
LINE
  8
0
 62
     0
 10
64.2454
 20
140.083
 30
0.0
 11
64.2454
 21
141.084
 31
0.0
  0
LINE
  8
0
 62
     0
 10
64.2454
 20
141.084
 30
0.0
 11
65.0462
 21
141.084
 31
0.0
  0
LINE
  8
0
 62
     0
 10
65.0462
 20
141.084
 30
0.0
 11
65.0462
 21
144.183
 31
0.0
  0
LINE
  8
0
 62
     0
 10
65.0462
 20
144.183
 30
0.0
 11
64.2454
 21
144.183
 31
0.0
  0
LINE
  8
0
 62
     0
 10
64.2454
 20
144.183
 30
0.0
 11
64.2454
 21
149.983
 31
0.0
  0
LINE
  8
0
 62
     0
 10
64.2454
 20
149.983
 30
0.0
 11
65.0462
 21
149.983
 31
0.0
  0
LINE
  8
0
 62
     0
 10
65.0462
 20
149.983
 30
0.0
 11
65.0462
 21
153.084
 31
0.0
  0
LINE
  8
0
 62
     0
 10
65.0462
 20
153.084
 30
0.0
 11
64.2454
 21
153.084
 31
0.0
  0
LINE
  8
0
 62
     0
 10
64.2454
 20
153.084
 30
0.0
 11
64.2454
 21
154.084
 31
0.0
  0
LINE
  8
0
 62
     0
 10
64.2454
 20
154.084
 30
0.0
 11
50.2461
 21
154.084
 31
0.0
  0
LINE
  8
0
 62
     0
 10
269.321
 20
154.084
 30
0.0
 11
269.321
 21
153.084
 31
0.0
  0
LINE
  8
0
 62
     0
 10
269.321
 20
153.084
 30
0.0
 11
268.52
 21
153.084
 31
0.0
  0
LINE
  8
0
 62
     0
 10
268.52
 20
153.084
 30
0.0
 11
268.52
 21
149.983
 31
0.0
  0
LINE
  8
0
 62
     0
 10
268.52
 20
149.983
 30
0.0
 11
269.321
 21
149.983
 31
0.0
  0
LINE
  8
0
 62
     0
 10
269.321
 20
149.983
 30
0.0
 11
269.321
 21
144.183
 31
0.0
  0
LINE
  8
0
 62
     0
 10
269.321
 20
144.183
 30
0.0
 11
268.52
 21
144.183
 31
0.0
  0
LINE
  8
0
 62
     0
 10
268.52
 20
144.183
 30
0.0
 11
268.52
 21
141.084
 31
0.0
  0
LINE
  8
0
 62
     0
 10
268.52
 20
141.084
 30
0.0
 11
269.321
 21
141.084
 31
0.0
  0
LINE
  8
0
 62
     0
 10
269.321
 20
141.084
 30
0.0
 11
269.321
 21
140.083
 31
0.0
  0
LINE
  8
0
 62
     0
 10
269.321
 20
140.083
 30
0.0
 11
283.32
 21
140.083
 31
0.0
  0
LINE
  8
0
 62
     0
 10
283.32
 20
140.083
 30
0.0
 11
283.32
 21
141.084
 31
0.0
  0
LINE
  8
0
 62
     0
 10
283.32
 20
141.084
 30
0.0
 11
284.121
 21
141.084
 31
0.0
  0
LINE
  8
0
 62
     0
 10
284.121
 20
141.084
 30
0.0
 11
284.121
 21
144.183
 31
0.0
  0
LINE
  8
0
 62
     0
 10
284.121
 20
144.183
 30
0.0
 11
283.32
 21
144.183
 31
0.0
  0
LINE
  8
0
 62
     0
 10
283.32
 20
144.183
 30
0.0
 11
283.32
 21
149.983
 31
0.0
  0
LINE
  8
0
 62
     0
 10
283.32
 20
149.983
 30
0.0
 11
284.121
 21
149.983
 31
0.0
  0
LINE
  8
0
 62
     0
 10
284.121
 20
149.983
 30
0.0
 11
284.121
 21
153.084
 31
0.0
  0
LINE
  8
0
 62
     0
 10
284.121
 20
153.084
 30
0.0
 11
283.32
 21
153.084
 31
0.0
  0
LINE
  8
0
 62
     0
 10
283.32
 20
153.084
 30
0.0
 11
283.32
 21
154.084
 31
0.0
  0
LINE
  8
0
 62
     0
 10
283.32
 20
154.084
 30
0.0
 11
269.321
 21
154.084
 31
0.0
  0
LINE
  8
0
 62
     0
 10
31.196
 20
154.084
 30
0.0
 11
31.196
 21
153.084
 31
0.0
  0
LINE
  8
0
 62
     0
 10
31.196
 20
153.084
 30
0.0
 11
30.3954
 21
153.084
 31
0.0
  0
LINE
  8
0
 62
     0
 10
30.3954
 20
153.084
 30
0.0
 11
30.3954
 21
149.983
 31
0.0
  0
LINE
  8
0
 62
     0
 10
30.3954
 20
149.983
 30
0.0
 11
31.196
 21
149.983
 31
0.0
  0
LINE
  8
0
 62
     0
 10
31.196
 20
149.983
 30
0.0
 11
31.196
 21
144.183
 31
0.0
  0
LINE
  8
0
 62
     0
 10
31.196
 20
144.183
 30
0.0
 11
30.3954
 21
144.183
 31
0.0
  0
LINE
  8
0
 62
     0
 10
30.3954
 20
144.183
 30
0.0
 11
30.3954
 21
141.084
 31
0.0
  0
LINE
  8
0
 62
     0
 10
30.3954
 20
141.084
 30
0.0
 11
31.196
 21
141.084
 31
0.0
  0
LINE
  8
0
 62
     0
 10
31.196
 20
141.084
 30
0.0
 11
31.196
 21
140.083
 31
0.0
  0
LINE
  8
0
 62
     0
 10
31.196
 20
140.083
 30
0.0
 11
45.1954
 21
140.083
 31
0.0
  0
LINE
  8
0
 62
     0
 10
45.1954
 20
140.083
 30
0.0
 11
45.1954
 21
141.084
 31
0.0
  0
LINE
  8
0
 62
     0
 10
45.1954
 20
141.084
 30
0.0
 11
45.9962
 21
141.084
 31
0.0
  0
LINE
  8
0
 62
     0
 10
45.9962
 20
141.084
 30
0.0
 11
45.9962
 21
144.183
 31
0.0
  0
LINE
  8
0
 62
     0
 10
45.9962
 20
144.183
 30
0.0
 11
45.1954
 21
144.183
 31
0.0
  0
LINE
  8
0
 62
     0
 10
45.1954
 20
144.183
 30
0.0
 11
45.1954
 21
149.983
 31
0.0
  0
LINE
  8
0
 62
     0
 10
45.1954
 20
149.983
 30
0.0
 11
45.9962
 21
149.983
 31
0.0
  0
LINE
  8
0
 62
     0
 10
45.9962
 20
149.983
 30
0.0
 11
45.9962
 21
153.084
 31
0.0
  0
LINE
  8
0
 62
     0
 10
45.9962
 20
153.084
 30
0.0
 11
45.1954
 21
153.084
 31
0.0
  0
LINE
  8
0
 62
     0
 10
45.1954
 20
153.084
 30
0.0
 11
45.1954
 21
154.084
 31
0.0
  0
LINE
  8
0
 62
     0
 10
45.1954
 20
154.084
 30
0.0
 11
31.196
 21
154.084
 31
0.0
  0
ENDSEC
  0
EOF
