  0
SECTION
  2
HEADER
  9
$ACADVER
  1
AC1009
  9
$EXTMIN
 10
0.0
 20
0.0
 30
0.0
  9
$EXTMAX
 10
1000.0
 20
1000.0
 30
0.0
  9
$FILLMODE
 70
 0
  9
$SPLFRAME
 70
 1
  0
ENDSEC
  0
SECTION
  2
TABLES
  0
TABLE
  2
LAYER
 70
1
  0
LAYER
  2
0
 70
     0
 62
     7
  6
CONTINUOUS
  0
ENDTAB
  0
ENDSEC
  0
SECTION
  2
ENTITIES
  0
LINE
  8
0
 62
     0
 10
0.0950846
 20
160.419
 30
0.0
 11
351.568
 21
160.419
 31
0.0
  0
LINE
  8
0
 62
     0
 10
351.568
 20
160.419
 30
0.0
 11
351.568
 21
0.398254
 31
0.0
  0
LINE
  8
0
 62
     0
 10
351.568
 20
0.398254
 30
0.0
 11
0.0950846
 21
0.398254
 31
0.0
  0
LINE
  8
0
 62
     0
 10
0.0950846
 20
0.398254
 30
0.0
 11
0.0950846
 21
160.419
 31
0.0
  0
LINE
  8
0
 62
     0
 10
164.545
 20
16.9251
 30
0.0
 11
164.545
 21
15.9246
 31
0.0
  0
LINE
  8
0
 62
     0
 10
164.545
 20
15.9246
 30
0.0
 11
163.744
 21
15.9246
 31
0.0
  0
LINE
  8
0
 62
     0
 10
163.744
 20
15.9246
 30
0.0
 11
163.744
 21
12.824
 31
0.0
  0
LINE
  8
0
 62
     0
 10
163.744
 20
12.824
 30
0.0
 11
164.545
 21
12.824
 31
0.0
  0
LINE
  8
0
 62
     0
 10
164.545
 20
12.824
 30
0.0
 11
164.545
 21
7.02388
 31
0.0
  0
LINE
  8
0
 62
     0
 10
164.545
 20
7.02388
 30
0.0
 11
163.744
 21
7.02388
 31
0.0
  0
LINE
  8
0
 62
     0
 10
163.744
 20
7.02388
 30
0.0
 11
163.744
 21
3.92465
 31
0.0
  0
LINE
  8
0
 62
     0
 10
163.744
 20
3.92465
 30
0.0
 11
164.545
 21
3.92465
 31
0.0
  0
LINE
  8
0
 62
     0
 10
164.545
 20
3.92465
 30
0.0
 11
164.545
 21
2.9242
 31
0.0
  0
LINE
  8
0
 62
     0
 10
164.545
 20
2.9242
 30
0.0
 11
178.544
 21
2.9242
 31
0.0
  0
LINE
  8
0
 62
     0
 10
178.544
 20
2.9242
 30
0.0
 11
178.544
 21
3.92465
 31
0.0
  0
LINE
  8
0
 62
     0
 10
178.544
 20
3.92465
 30
0.0
 11
179.345
 21
3.92465
 31
0.0
  0
LINE
  8
0
 62
     0
 10
179.345
 20
3.92465
 30
0.0
 11
179.345
 21
7.02388
 31
0.0
  0
LINE
  8
0
 62
     0
 10
179.345
 20
7.02388
 30
0.0
 11
178.544
 21
7.02388
 31
0.0
  0
LINE
  8
0
 62
     0
 10
178.544
 20
7.02388
 30
0.0
 11
178.544
 21
12.824
 31
0.0
  0
LINE
  8
0
 62
     0
 10
178.544
 20
12.824
 30
0.0
 11
179.345
 21
12.824
 31
0.0
  0
LINE
  8
0
 62
     0
 10
179.345
 20
12.824
 30
0.0
 11
179.345
 21
15.9246
 31
0.0
  0
LINE
  8
0
 62
     0
 10
179.345
 20
15.9246
 30
0.0
 11
178.544
 21
15.9246
 31
0.0
  0
LINE
  8
0
 62
     0
 10
178.544
 20
15.9246
 30
0.0
 11
178.544
 21
16.9251
 31
0.0
  0
LINE
  8
0
 62
     0
 10
178.544
 20
16.9251
 30
0.0
 11
164.545
 21
16.9251
 31
0.0
  0
LINE
  8
0
 62
     0
 10
145.495
 20
16.9251
 30
0.0
 11
145.495
 21
15.9246
 31
0.0
  0
LINE
  8
0
 62
     0
 10
145.495
 20
15.9246
 30
0.0
 11
144.694
 21
15.9246
 31
0.0
  0
LINE
  8
0
 62
     0
 10
144.694
 20
15.9246
 30
0.0
 11
144.694
 21
12.824
 31
0.0
  0
LINE
  8
0
 62
     0
 10
144.694
 20
12.824
 30
0.0
 11
145.495
 21
12.824
 31
0.0
  0
LINE
  8
0
 62
     0
 10
145.495
 20
12.824
 30
0.0
 11
145.495
 21
7.02388
 31
0.0
  0
LINE
  8
0
 62
     0
 10
145.495
 20
7.02388
 30
0.0
 11
144.694
 21
7.02388
 31
0.0
  0
LINE
  8
0
 62
     0
 10
144.694
 20
7.02388
 30
0.0
 11
144.694
 21
3.92465
 31
0.0
  0
LINE
  8
0
 62
     0
 10
144.694
 20
3.92465
 30
0.0
 11
145.495
 21
3.92465
 31
0.0
  0
LINE
  8
0
 62
     0
 10
145.495
 20
3.92465
 30
0.0
 11
145.495
 21
2.9242
 31
0.0
  0
LINE
  8
0
 62
     0
 10
145.495
 20
2.9242
 30
0.0
 11
159.494
 21
2.9242
 31
0.0
  0
LINE
  8
0
 62
     0
 10
159.494
 20
2.9242
 30
0.0
 11
159.494
 21
3.92465
 31
0.0
  0
LINE
  8
0
 62
     0
 10
159.494
 20
3.92465
 30
0.0
 11
160.295
 21
3.92465
 31
0.0
  0
LINE
  8
0
 62
     0
 10
160.295
 20
3.92465
 30
0.0
 11
160.295
 21
7.02388
 31
0.0
  0
LINE
  8
0
 62
     0
 10
160.295
 20
7.02388
 30
0.0
 11
159.494
 21
7.02388
 31
0.0
  0
LINE
  8
0
 62
     0
 10
159.494
 20
7.02388
 30
0.0
 11
159.494
 21
12.824
 31
0.0
  0
LINE
  8
0
 62
     0
 10
159.494
 20
12.824
 30
0.0
 11
160.295
 21
12.824
 31
0.0
  0
LINE
  8
0
 62
     0
 10
160.295
 20
12.824
 30
0.0
 11
160.295
 21
15.9246
 31
0.0
  0
LINE
  8
0
 62
     0
 10
160.295
 20
15.9246
 30
0.0
 11
159.494
 21
15.9246
 31
0.0
  0
LINE
  8
0
 62
     0
 10
159.494
 20
15.9246
 30
0.0
 11
159.494
 21
16.9251
 31
0.0
  0
LINE
  8
0
 62
     0
 10
159.494
 20
16.9251
 30
0.0
 11
145.495
 21
16.9251
 31
0.0
  0
LINE
  8
0
 62
     0
 10
126.445
 20
16.9251
 30
0.0
 11
126.445
 21
15.9246
 31
0.0
  0
LINE
  8
0
 62
     0
 10
126.445
 20
15.9246
 30
0.0
 11
125.644
 21
15.9246
 31
0.0
  0
LINE
  8
0
 62
     0
 10
125.644
 20
15.9246
 30
0.0
 11
125.644
 21
12.824
 31
0.0
  0
LINE
  8
0
 62
     0
 10
125.644
 20
12.824
 30
0.0
 11
126.445
 21
12.824
 31
0.0
  0
LINE
  8
0
 62
     0
 10
126.445
 20
12.824
 30
0.0
 11
126.445
 21
7.02388
 31
0.0
  0
LINE
  8
0
 62
     0
 10
126.445
 20
7.02388
 30
0.0
 11
125.644
 21
7.02388
 31
0.0
  0
LINE
  8
0
 62
     0
 10
125.644
 20
7.02388
 30
0.0
 11
125.644
 21
3.92465
 31
0.0
  0
LINE
  8
0
 62
     0
 10
125.644
 20
3.92465
 30
0.0
 11
126.445
 21
3.92465
 31
0.0
  0
LINE
  8
0
 62
     0
 10
126.445
 20
3.92465
 30
0.0
 11
126.445
 21
2.9242
 31
0.0
  0
LINE
  8
0
 62
     0
 10
126.445
 20
2.9242
 30
0.0
 11
140.444
 21
2.9242
 31
0.0
  0
LINE
  8
0
 62
     0
 10
140.444
 20
2.9242
 30
0.0
 11
140.444
 21
3.92465
 31
0.0
  0
LINE
  8
0
 62
     0
 10
140.444
 20
3.92465
 30
0.0
 11
141.245
 21
3.92465
 31
0.0
  0
LINE
  8
0
 62
     0
 10
141.245
 20
3.92465
 30
0.0
 11
141.245
 21
7.02388
 31
0.0
  0
LINE
  8
0
 62
     0
 10
141.245
 20
7.02388
 30
0.0
 11
140.444
 21
7.02388
 31
0.0
  0
LINE
  8
0
 62
     0
 10
140.444
 20
7.02388
 30
0.0
 11
140.444
 21
12.824
 31
0.0
  0
LINE
  8
0
 62
     0
 10
140.444
 20
12.824
 30
0.0
 11
141.245
 21
12.824
 31
0.0
  0
LINE
  8
0
 62
     0
 10
141.245
 20
12.824
 30
0.0
 11
141.245
 21
15.9246
 31
0.0
  0
LINE
  8
0
 62
     0
 10
141.245
 20
15.9246
 30
0.0
 11
140.444
 21
15.9246
 31
0.0
  0
LINE
  8
0
 62
     0
 10
140.444
 20
15.9246
 30
0.0
 11
140.444
 21
16.9251
 31
0.0
  0
LINE
  8
0
 62
     0
 10
140.444
 20
16.9251
 30
0.0
 11
126.445
 21
16.9251
 31
0.0
  0
LINE
  8
0
 62
     0
 10
200.266
 20
41.1716
 30
0.0
 11
200.456
 21
40.2717
 31
0.0
  0
LINE
  8
0
 62
     0
 10
200.456
 20
40.2717
 30
0.0
 11
198.769
 21
39.9122
 31
0.0
  0
LINE
  8
0
 62
     0
 10
198.769
 20
39.9122
 30
0.0
 11
199.442
 21
36.7538
 31
0.0
  0
LINE
  8
0
 62
     0
 10
199.442
 20
36.7538
 30
0.0
 11
197.95
 21
36.4367
 31
0.0
  0
LINE
  8
0
 62
     0
 10
197.95
 20
36.4367
 30
0.0
 11
197.824
 21
37.0237
 31
0.0
  0
LINE
  8
0
 62
     0
 10
197.824
 20
37.0237
 30
0.0
 11
198.607
 21
37.1905
 31
0.0
  0
LINE
  8
0
 62
     0
 10
198.607
 20
37.1905
 30
0.0
 11
197.962
 21
40.2209
 31
0.0
  0
LINE
  8
0
 62
     0
 10
197.962
 20
40.2209
 30
0.0
 11
197.181
 21
40.0554
 31
0.0
  0
LINE
  8
0
 62
     0
 10
197.181
 20
40.0554
 30
0.0
 11
196.973
 21
41.0337
 31
0.0
  0
LINE
  8
0
 62
     0
 10
196.973
 20
41.0337
 30
0.0
 11
183.279
 21
38.1222
 31
0.0
  0
LINE
  8
0
 62
     0
 10
183.279
 20
38.1222
 30
0.0
 11
183.487
 21
37.145
 31
0.0
  0
LINE
  8
0
 62
     0
 10
183.487
 20
37.145
 30
0.0
 11
182.703
 21
36.9782
 31
0.0
  0
LINE
  8
0
 62
     0
 10
182.703
 20
36.9782
 30
0.0
 11
183.348
 21
33.9466
 31
0.0
  0
LINE
  8
0
 62
     0
 10
183.348
 20
33.9466
 30
0.0
 11
184.131
 21
34.112
 31
0.0
  0
LINE
  8
0
 62
     0
 10
184.131
 20
34.112
 30
0.0
 11
184.256
 21
33.5249
 31
0.0
  0
LINE
  8
0
 62
     0
 10
184.256
 20
33.5249
 30
0.0
 11
182.764
 21
33.208
 31
0.0
  0
LINE
  8
0
 62
     0
 10
182.764
 20
33.208
 30
0.0
 11
182.093
 21
36.3693
 31
0.0
  0
LINE
  8
0
 62
     0
 10
182.093
 20
36.3693
 30
0.0
 11
180.405
 21
36.0094
 31
0.0
  0
LINE
  8
0
 62
     0
 10
180.405
 20
36.0094
 30
0.0
 11
180.213
 21
36.9108
 31
0.0
  0
LINE
  8
0
 62
     0
 10
180.213
 20
36.9108
 30
0.0
 11
176.985
 21
36.2232
 31
0.0
  0
LINE
  8
0
 62
     0
 10
176.985
 20
36.2232
 30
0.0
 11
177.177
 21
35.3233
 31
0.0
  0
LINE
  8
0
 62
     0
 10
177.177
 20
35.3233
 30
0.0
 11
175.489
 21
34.965
 31
0.0
  0
LINE
  8
0
 62
     0
 10
175.489
 20
34.965
 30
0.0
 11
176.161
 21
31.8051
 31
0.0
  0
LINE
  8
0
 62
     0
 10
176.161
 20
31.8051
 30
0.0
 11
175.354
 21
31.6329
 31
0.0
  0
LINE
  8
0
 62
     0
 10
175.354
 20
31.6329
 30
0.0
 11
175.937
 21
28.8947
 31
0.0
  0
LINE
  8
0
 62
     0
 10
175.937
 20
28.8947
 30
0.0
 11
176.743
 21
29.0669
 31
0.0
  0
LINE
  8
0
 62
     0
 10
176.743
 20
29.0669
 30
0.0
 11
178.047
 21
22.9333
 31
0.0
  0
LINE
  8
0
 62
     0
 10
178.047
 20
22.9333
 30
0.0
 11
179.735
 21
23.293
 31
0.0
  0
LINE
  8
0
 62
     0
 10
179.735
 20
23.293
 30
0.0
 11
179.939
 21
22.3339
 31
0.0
  0
LINE
  8
0
 62
     0
 10
179.939
 20
22.3339
 30
0.0
 11
183.166
 21
23.0188
 31
0.0
  0
LINE
  8
0
 62
     0
 10
183.166
 20
23.0188
 30
0.0
 11
182.962
 21
23.9779
 31
0.0
  0
LINE
  8
0
 62
     0
 10
182.962
 20
23.9779
 30
0.0
 11
184.649
 21
24.3362
 31
0.0
  0
LINE
  8
0
 62
     0
 10
184.649
 20
24.3362
 30
0.0
 11
183.72
 21
28.71
 31
0.0
  0
LINE
  8
0
 62
     0
 10
183.72
 20
28.71
 30
0.0
 11
185.211
 21
29.027
 31
0.0
  0
LINE
  8
0
 62
     0
 10
185.211
 20
29.027
 30
0.0
 11
185.336
 21
28.44
 31
0.0
  0
LINE
  8
0
 62
     0
 10
185.336
 20
28.44
 30
0.0
 11
184.555
 21
28.2732
 31
0.0
  0
LINE
  8
0
 62
     0
 10
184.555
 20
28.2732
 30
0.0
 11
185.199
 21
25.2402
 31
0.0
  0
LINE
  8
0
 62
     0
 10
185.199
 20
25.2402
 30
0.0
 11
185.981
 21
25.4069
 31
0.0
  0
LINE
  8
0
 62
     0
 10
185.981
 20
25.4069
 30
0.0
 11
186.188
 21
24.4285
 31
0.0
  0
LINE
  8
0
 62
     0
 10
186.188
 20
24.4285
 30
0.0
 11
199.883
 21
27.3389
 31
0.0
  0
LINE
  8
0
 62
     0
 10
199.883
 20
27.3389
 30
0.0
 11
199.675
 21
28.3173
 31
0.0
  0
LINE
  8
0
 62
     0
 10
199.675
 20
28.3173
 30
0.0
 11
200.458
 21
28.4841
 31
0.0
  0
LINE
  8
0
 62
     0
 10
200.458
 20
28.4841
 30
0.0
 11
199.814
 21
31.5157
 31
0.0
  0
LINE
  8
0
 62
     0
 10
199.814
 20
31.5157
 30
0.0
 11
199.03
 21
31.3504
 31
0.0
  0
LINE
  8
0
 62
     0
 10
199.03
 20
31.3504
 30
0.0
 11
198.906
 21
31.9374
 31
0.0
  0
LINE
  8
0
 62
     0
 10
198.906
 20
31.9374
 30
0.0
 11
200.397
 21
32.2544
 31
0.0
  0
LINE
  8
0
 62
     0
 10
200.397
 20
32.2544
 30
0.0
 11
201.326
 21
27.8819
 31
0.0
  0
LINE
  8
0
 62
     0
 10
201.326
 20
27.8819
 30
0.0
 11
203.014
 21
28.2401
 31
0.0
  0
LINE
  8
0
 62
     0
 10
203.014
 20
28.2401
 30
0.0
 11
203.218
 21
27.281
 31
0.0
  0
LINE
  8
0
 62
     0
 10
203.218
 20
27.281
 30
0.0
 11
206.445
 21
27.9673
 31
0.0
  0
LINE
  8
0
 62
     0
 10
206.445
 20
27.9673
 30
0.0
 11
206.243
 21
28.9264
 31
0.0
  0
LINE
  8
0
 62
     0
 10
206.243
 20
28.9264
 30
0.0
 11
207.929
 21
29.2861
 31
0.0
  0
LINE
  8
0
 62
     0
 10
207.929
 20
29.2861
 30
0.0
 11
206.626
 21
35.4182
 31
0.0
  0
LINE
  8
0
 62
     0
 10
206.626
 20
35.4182
 30
0.0
 11
207.432
 21
35.5893
 31
0.0
  0
LINE
  8
0
 62
     0
 10
207.432
 20
35.5893
 30
0.0
 11
206.851
 21
38.3286
 31
0.0
  0
LINE
  8
0
 62
     0
 10
206.851
 20
38.3286
 30
0.0
 11
206.043
 21
38.1564
 31
0.0
  0
LINE
  8
0
 62
     0
 10
206.043
 20
38.1564
 30
0.0
 11
205.373
 21
41.3163
 31
0.0
  0
LINE
  8
0
 62
     0
 10
205.373
 20
41.3163
 30
0.0
 11
203.685
 21
40.9582
 31
0.0
  0
LINE
  8
0
 62
     0
 10
203.685
 20
40.9582
 30
0.0
 11
203.494
 21
41.8578
 31
0.0
  0
LINE
  8
0
 62
     0
 10
203.494
 20
41.8578
 30
0.0
 11
200.266
 21
41.1716
 31
0.0
  0
LINE
  8
0
 62
     0
 10
111.154
 20
43.313
 30
0.0
 11
109.467
 21
43.6714
 31
0.0
  0
LINE
  8
0
 62
     0
 10
109.467
 20
43.6714
 30
0.0
 11
108.163
 21
37.5377
 31
0.0
  0
LINE
  8
0
 62
     0
 10
108.163
 20
37.5377
 30
0.0
 11
107.356
 21
37.7102
 31
0.0
  0
LINE
  8
0
 62
     0
 10
107.356
 20
37.7102
 30
0.0
 11
106.775
 21
34.9718
 31
0.0
  0
LINE
  8
0
 62
     0
 10
106.775
 20
34.9718
 30
0.0
 11
107.582
 21
34.801
 31
0.0
  0
LINE
  8
0
 62
     0
 10
107.582
 20
34.801
 30
0.0
 11
106.911
 21
31.6398
 31
0.0
  0
LINE
  8
0
 62
     0
 10
106.911
 20
31.6398
 30
0.0
 11
108.598
 21
31.2829
 31
0.0
  0
LINE
  8
0
 62
     0
 10
108.598
 20
31.2829
 30
0.0
 11
108.406
 21
30.383
 31
0.0
  0
LINE
  8
0
 62
     0
 10
108.406
 20
30.383
 30
0.0
 11
111.633
 21
29.6967
 31
0.0
  0
LINE
  8
0
 62
     0
 10
111.633
 20
29.6967
 30
0.0
 11
111.825
 21
30.5952
 31
0.0
  0
LINE
  8
0
 62
     0
 10
111.825
 20
30.5952
 30
0.0
 11
113.513
 21
30.2369
 31
0.0
  0
LINE
  8
0
 62
     0
 10
113.513
 20
30.2369
 30
0.0
 11
114.184
 21
33.3968
 31
0.0
  0
LINE
  8
0
 62
     0
 10
114.184
 20
33.3968
 30
0.0
 11
115.675
 21
33.0798
 31
0.0
  0
LINE
  8
0
 62
     0
 10
115.675
 20
33.0798
 30
0.0
 11
115.55
 21
32.4928
 31
0.0
  0
LINE
  8
0
 62
     0
 10
115.55
 20
32.4928
 30
0.0
 11
114.768
 21
32.6595
 31
0.0
  0
LINE
  8
0
 62
     0
 10
114.768
 20
32.6595
 30
0.0
 11
114.124
 21
29.6265
 31
0.0
  0
LINE
  8
0
 62
     0
 10
114.124
 20
29.6265
 30
0.0
 11
114.906
 21
29.4611
 31
0.0
  0
LINE
  8
0
 62
     0
 10
114.906
 20
29.4611
 30
0.0
 11
114.698
 21
28.4827
 31
0.0
  0
LINE
  8
0
 62
     0
 10
114.698
 20
28.4827
 30
0.0
 11
128.392
 21
25.5709
 31
0.0
  0
LINE
  8
0
 62
     0
 10
128.392
 20
25.5709
 30
0.0
 11
128.6
 21
26.5493
 31
0.0
  0
LINE
  8
0
 62
     0
 10
128.6
 20
26.5493
 30
0.0
 11
129.384
 21
26.3839
 31
0.0
  0
LINE
  8
0
 62
     0
 10
129.384
 20
26.3839
 30
0.0
 11
130.028
 21
29.4156
 31
0.0
  0
LINE
  8
0
 62
     0
 10
130.028
 20
29.4156
 30
0.0
 11
129.245
 21
29.581
 31
0.0
  0
LINE
  8
0
 62
     0
 10
129.245
 20
29.581
 30
0.0
 11
129.37
 21
30.168
 31
0.0
  0
LINE
  8
0
 62
     0
 10
129.37
 20
30.168
 30
0.0
 11
130.861
 21
29.8511
 31
0.0
  0
LINE
  8
0
 62
     0
 10
130.861
 20
29.8511
 30
0.0
 11
130.19
 21
26.6926
 31
0.0
  0
LINE
  8
0
 62
     0
 10
130.19
 20
26.6926
 30
0.0
 11
131.877
 21
26.3329
 31
0.0
  0
LINE
  8
0
 62
     0
 10
131.877
 20
26.3329
 30
0.0
 11
131.685
 21
25.4331
 31
0.0
  0
LINE
  8
0
 62
     0
 10
131.685
 20
25.4331
 30
0.0
 11
134.914
 21
24.7468
 31
0.0
  0
LINE
  8
0
 62
     0
 10
134.914
 20
24.7468
 30
0.0
 11
135.106
 21
25.648
 31
0.0
  0
LINE
  8
0
 62
     0
 10
135.106
 20
25.648
 30
0.0
 11
136.792
 21
25.2884
 31
0.0
  0
LINE
  8
0
 62
     0
 10
136.792
 20
25.2884
 30
0.0
 11
137.463
 21
28.4482
 31
0.0
  0
LINE
  8
0
 62
     0
 10
137.463
 20
28.4482
 30
0.0
 11
138.271
 21
28.2759
 31
0.0
  0
LINE
  8
0
 62
     0
 10
138.271
 20
28.2759
 30
0.0
 11
138.854
 21
31.0155
 31
0.0
  0
LINE
  8
0
 62
     0
 10
138.854
 20
31.0155
 30
0.0
 11
138.047
 21
31.1878
 31
0.0
  0
LINE
  8
0
 62
     0
 10
138.047
 20
31.1878
 30
0.0
 11
139.35
 21
37.3214
 31
0.0
  0
LINE
  8
0
 62
     0
 10
139.35
 20
37.3214
 30
0.0
 11
137.662
 21
37.6784
 31
0.0
  0
LINE
  8
0
 62
     0
 10
137.662
 20
37.6784
 30
0.0
 11
137.866
 21
38.6373
 31
0.0
  0
LINE
  8
0
 62
     0
 10
137.866
 20
38.6373
 30
0.0
 11
134.638
 21
39.3238
 31
0.0
  0
LINE
  8
0
 62
     0
 10
134.638
 20
39.3238
 30
0.0
 11
134.434
 21
38.3646
 31
0.0
  0
LINE
  8
0
 62
     0
 10
134.434
 20
38.3646
 30
0.0
 11
132.748
 21
38.723
 31
0.0
  0
LINE
  8
0
 62
     0
 10
132.748
 20
38.723
 30
0.0
 11
131.818
 21
34.3517
 31
0.0
  0
LINE
  8
0
 62
     0
 10
131.818
 20
34.3517
 30
0.0
 11
130.325
 21
34.6687
 31
0.0
  0
LINE
  8
0
 62
     0
 10
130.325
 20
34.6687
 30
0.0
 11
130.451
 21
35.2557
 31
0.0
  0
LINE
  8
0
 62
     0
 10
130.451
 20
35.2557
 30
0.0
 11
131.233
 21
35.089
 31
0.0
  0
LINE
  8
0
 62
     0
 10
131.233
 20
35.089
 30
0.0
 11
131.877
 21
38.1222
 31
0.0
  0
LINE
  8
0
 62
     0
 10
131.877
 20
38.1222
 30
0.0
 11
131.095
 21
38.2873
 31
0.0
  0
LINE
  8
0
 62
     0
 10
131.095
 20
38.2873
 30
0.0
 11
131.304
 21
39.2659
 31
0.0
  0
LINE
  8
0
 62
     0
 10
131.304
 20
39.2659
 30
0.0
 11
117.61
 21
42.1763
 31
0.0
  0
LINE
  8
0
 62
     0
 10
117.61
 20
42.1763
 30
0.0
 11
117.402
 21
41.1977
 31
0.0
  0
LINE
  8
0
 62
     0
 10
117.402
 20
41.1977
 30
0.0
 11
116.618
 21
41.3646
 31
0.0
  0
LINE
  8
0
 62
     0
 10
116.618
 20
41.3646
 30
0.0
 11
115.974
 21
38.3328
 31
0.0
  0
LINE
  8
0
 62
     0
 10
115.974
 20
38.3328
 30
0.0
 11
116.757
 21
38.1649
 31
0.0
  0
LINE
  8
0
 62
     0
 10
116.757
 20
38.1649
 30
0.0
 11
116.632
 21
37.5789
 31
0.0
  0
LINE
  8
0
 62
     0
 10
116.632
 20
37.5789
 30
0.0
 11
115.141
 21
37.8961
 31
0.0
  0
LINE
  8
0
 62
     0
 10
115.141
 20
37.8961
 30
0.0
 11
116.07
 21
42.2684
 31
0.0
  0
LINE
  8
0
 62
     0
 10
116.07
 20
42.2684
 30
0.0
 11
114.383
 21
42.6268
 31
0.0
  0
LINE
  8
0
 62
     0
 10
114.383
 20
42.6268
 30
0.0
 11
114.587
 21
43.586
 31
0.0
  0
LINE
  8
0
 62
     0
 10
114.587
 20
43.586
 30
0.0
 11
111.358
 21
44.2708
 31
0.0
  0
LINE
  8
0
 62
     0
 10
111.358
 20
44.2708
 30
0.0
 11
111.154
 21
43.313
 31
0.0
  0
LINE
  8
0
 62
     0
 10
213.557
 20
44.559
 30
0.0
 11
213.765
 21
43.5818
 31
0.0
  0
LINE
  8
0
 62
     0
 10
213.765
 20
43.5818
 30
0.0
 11
212.984
 21
43.4139
 31
0.0
  0
LINE
  8
0
 62
     0
 10
212.984
 20
43.4139
 30
0.0
 11
213.628
 21
40.3821
 31
0.0
  0
LINE
  8
0
 62
     0
 10
213.628
 20
40.3821
 30
0.0
 11
214.41
 21
40.5486
 31
0.0
  0
LINE
  8
0
 62
     0
 10
214.41
 20
40.5486
 30
0.0
 11
215.616
 21
34.8754
 31
0.0
  0
LINE
  8
0
 62
     0
 10
215.616
 20
34.8754
 30
0.0
 11
214.834
 21
34.71
 31
0.0
  0
LINE
  8
0
 62
     0
 10
214.834
 20
34.71
 30
0.0
 11
215.478
 21
31.677
 31
0.0
  0
LINE
  8
0
 62
     0
 10
215.478
 20
31.677
 30
0.0
 11
216.261
 21
31.8437
 31
0.0
  0
LINE
  8
0
 62
     0
 10
216.261
 20
31.8437
 30
0.0
 11
216.469
 21
30.8653
 31
0.0
  0
LINE
  8
0
 62
     0
 10
216.469
 20
30.8653
 30
0.0
 11
230.163
 21
33.7757
 31
0.0
  0
LINE
  8
0
 62
     0
 10
230.163
 20
33.7757
 30
0.0
 11
229.955
 21
34.7569
 31
0.0
  0
LINE
  8
0
 62
     0
 10
229.955
 20
34.7569
 30
0.0
 11
230.737
 21
34.9209
 31
0.0
  0
LINE
  8
0
 62
     0
 10
230.737
 20
34.9209
 30
0.0
 11
230.092
 21
37.9525
 31
0.0
  0
LINE
  8
0
 62
     0
 10
230.092
 20
37.9525
 30
0.0
 11
229.311
 21
37.7857
 31
0.0
  0
LINE
  8
0
 62
     0
 10
229.311
 20
37.7857
 30
0.0
 11
228.104
 21
43.459
 31
0.0
  0
LINE
  8
0
 62
     0
 10
228.104
 20
43.459
 30
0.0
 11
228.888
 21
43.6259
 31
0.0
  0
LINE
  8
0
 62
     0
 10
228.888
 20
43.6259
 30
0.0
 11
228.243
 21
46.6591
 31
0.0
  0
LINE
  8
0
 62
     0
 10
228.243
 20
46.6591
 30
0.0
 11
227.459
 21
46.4908
 31
0.0
  0
LINE
  8
0
 62
     0
 10
227.459
 20
46.4908
 30
0.0
 11
227.252
 21
47.4694
 31
0.0
  0
LINE
  8
0
 62
     0
 10
227.252
 20
47.4694
 30
0.0
 11
213.557
 21
44.559
 31
0.0
  0
LINE
  8
0
 62
     0
 10
87.1209
 20
47.6345
 30
0.0
 11
86.3395
 21
47.8
 31
0.0
  0
LINE
  8
0
 62
     0
 10
86.3395
 20
47.8
 30
0.0
 11
85.6947
 21
44.7682
 31
0.0
  0
LINE
  8
0
 62
     0
 10
85.6947
 20
44.7682
 30
0.0
 11
86.4775
 21
44.6031
 31
0.0
  0
LINE
  8
0
 62
     0
 10
86.4775
 20
44.6031
 30
0.0
 11
85.2717
 21
38.9283
 31
0.0
  0
LINE
  8
0
 62
     0
 10
85.2717
 20
38.9283
 30
0.0
 11
84.4889
 21
39.0948
 31
0.0
  0
LINE
  8
0
 62
     0
 10
84.4889
 20
39.0948
 30
0.0
 11
83.844
 21
36.062
 31
0.0
  0
LINE
  8
0
 62
     0
 10
83.844
 20
36.062
 30
0.0
 11
84.6268
 21
35.8965
 31
0.0
  0
LINE
  8
0
 62
     0
 10
84.6268
 20
35.8965
 30
0.0
 11
84.4187
 21
34.9181
 31
0.0
  0
LINE
  8
0
 62
     0
 10
84.4187
 20
34.9181
 30
0.0
 11
98.1121
 21
32.0077
 31
0.0
  0
LINE
  8
0
 62
     0
 10
98.1121
 20
32.0077
 30
0.0
 11
98.3202
 21
32.9847
 31
0.0
  0
LINE
  8
0
 62
     0
 10
98.3202
 20
32.9847
 30
0.0
 11
99.103
 21
32.8194
 31
0.0
  0
LINE
  8
0
 62
     0
 10
99.103
 20
32.8194
 30
0.0
 11
99.7479
 21
35.851
 31
0.0
  0
LINE
  8
0
 62
     0
 10
99.7479
 20
35.851
 30
0.0
 11
98.9651
 21
36.0179
 31
0.0
  0
LINE
  8
0
 62
     0
 10
98.9651
 20
36.0179
 30
0.0
 11
100.171
 21
41.6913
 31
0.0
  0
LINE
  8
0
 62
     0
 10
100.171
 20
41.6913
 30
0.0
 11
100.954
 21
41.5258
 31
0.0
  0
LINE
  8
0
 62
     0
 10
100.954
 20
41.5258
 30
0.0
 11
101.599
 21
44.5576
 31
0.0
  0
LINE
  8
0
 62
     0
 10
101.599
 20
44.5576
 30
0.0
 11
100.816
 21
44.7227
 31
0.0
  0
LINE
  8
0
 62
     0
 10
100.816
 20
44.7227
 30
0.0
 11
101.024
 21
45.7013
 31
0.0
  0
LINE
  8
0
 62
     0
 10
101.024
 20
45.7013
 30
0.0
 11
87.3291
 21
48.6131
 31
0.0
  0
LINE
  8
0
 62
     0
 10
87.3291
 20
48.6131
 30
0.0
 11
87.1209
 21
47.6345
 31
0.0
  0
LINE
  8
0
 62
     0
 10
335.041
 20
48.3567
 30
0.0
 11
335.041
 21
47.3576
 31
0.0
  0
LINE
  8
0
 62
     0
 10
335.041
 20
47.3576
 30
0.0
 11
334.242
 21
47.3576
 31
0.0
  0
LINE
  8
0
 62
     0
 10
334.242
 20
47.3576
 30
0.0
 11
334.242
 21
44.257
 31
0.0
  0
LINE
  8
0
 62
     0
 10
334.242
 20
44.257
 30
0.0
 11
335.041
 21
44.257
 31
0.0
  0
LINE
  8
0
 62
     0
 10
335.041
 20
44.257
 30
0.0
 11
335.041
 21
38.457
 31
0.0
  0
LINE
  8
0
 62
     0
 10
335.041
 20
38.457
 30
0.0
 11
334.242
 21
38.457
 31
0.0
  0
LINE
  8
0
 62
     0
 10
334.242
 20
38.457
 30
0.0
 11
334.242
 21
35.3579
 31
0.0
  0
LINE
  8
0
 62
     0
 10
334.242
 20
35.3579
 30
0.0
 11
335.041
 21
35.3579
 31
0.0
  0
LINE
  8
0
 62
     0
 10
335.041
 20
35.3579
 30
0.0
 11
335.041
 21
34.3572
 31
0.0
  0
LINE
  8
0
 62
     0
 10
335.041
 20
34.3572
 30
0.0
 11
349.042
 21
34.3572
 31
0.0
  0
LINE
  8
0
 62
     0
 10
349.042
 20
34.3572
 30
0.0
 11
349.042
 21
35.3579
 31
0.0
  0
LINE
  8
0
 62
     0
 10
349.042
 20
35.3579
 30
0.0
 11
349.841
 21
35.3579
 31
0.0
  0
LINE
  8
0
 62
     0
 10
349.841
 20
35.3579
 30
0.0
 11
349.841
 21
38.457
 31
0.0
  0
LINE
  8
0
 62
     0
 10
349.841
 20
38.457
 30
0.0
 11
349.042
 21
38.457
 31
0.0
  0
LINE
  8
0
 62
     0
 10
349.042
 20
38.457
 30
0.0
 11
349.042
 21
44.257
 31
0.0
  0
LINE
  8
0
 62
     0
 10
349.042
 20
44.257
 30
0.0
 11
349.841
 21
44.257
 31
0.0
  0
LINE
  8
0
 62
     0
 10
349.841
 20
44.257
 30
0.0
 11
349.841
 21
47.3576
 31
0.0
  0
LINE
  8
0
 62
     0
 10
349.841
 20
47.3576
 30
0.0
 11
349.042
 21
47.3576
 31
0.0
  0
LINE
  8
0
 62
     0
 10
349.042
 20
47.3576
 30
0.0
 11
349.042
 21
48.3567
 31
0.0
  0
LINE
  8
0
 62
     0
 10
349.042
 20
48.3567
 30
0.0
 11
335.041
 21
48.3567
 31
0.0
  0
LINE
  8
0
 62
     0
 10
315.991
 20
48.3567
 30
0.0
 11
315.991
 21
47.3576
 31
0.0
  0
LINE
  8
0
 62
     0
 10
315.991
 20
47.3576
 30
0.0
 11
315.192
 21
47.3576
 31
0.0
  0
LINE
  8
0
 62
     0
 10
315.192
 20
47.3576
 30
0.0
 11
315.192
 21
44.257
 31
0.0
  0
LINE
  8
0
 62
     0
 10
315.192
 20
44.257
 30
0.0
 11
315.991
 21
44.257
 31
0.0
  0
LINE
  8
0
 62
     0
 10
315.991
 20
44.257
 30
0.0
 11
315.991
 21
38.457
 31
0.0
  0
LINE
  8
0
 62
     0
 10
315.991
 20
38.457
 30
0.0
 11
315.192
 21
38.457
 31
0.0
  0
LINE
  8
0
 62
     0
 10
315.192
 20
38.457
 30
0.0
 11
315.192
 21
35.3579
 31
0.0
  0
LINE
  8
0
 62
     0
 10
315.192
 20
35.3579
 30
0.0
 11
315.991
 21
35.3579
 31
0.0
  0
LINE
  8
0
 62
     0
 10
315.991
 20
35.3579
 30
0.0
 11
315.991
 21
34.3572
 31
0.0
  0
LINE
  8
0
 62
     0
 10
315.991
 20
34.3572
 30
0.0
 11
329.992
 21
34.3572
 31
0.0
  0
LINE
  8
0
 62
     0
 10
329.992
 20
34.3572
 30
0.0
 11
329.992
 21
35.3579
 31
0.0
  0
LINE
  8
0
 62
     0
 10
329.992
 20
35.3579
 30
0.0
 11
330.791
 21
35.3579
 31
0.0
  0
LINE
  8
0
 62
     0
 10
330.791
 20
35.3579
 30
0.0
 11
330.791
 21
38.457
 31
0.0
  0
LINE
  8
0
 62
     0
 10
330.791
 20
38.457
 30
0.0
 11
329.992
 21
38.457
 31
0.0
  0
LINE
  8
0
 62
     0
 10
329.992
 20
38.457
 30
0.0
 11
329.992
 21
44.257
 31
0.0
  0
LINE
  8
0
 62
     0
 10
329.992
 20
44.257
 30
0.0
 11
330.791
 21
44.257
 31
0.0
  0
LINE
  8
0
 62
     0
 10
330.791
 20
44.257
 30
0.0
 11
330.791
 21
47.3576
 31
0.0
  0
LINE
  8
0
 62
     0
 10
330.791
 20
47.3576
 30
0.0
 11
329.992
 21
47.3576
 31
0.0
  0
LINE
  8
0
 62
     0
 10
329.992
 20
47.3576
 30
0.0
 11
329.992
 21
48.3567
 31
0.0
  0
LINE
  8
0
 62
     0
 10
329.992
 20
48.3567
 30
0.0
 11
315.991
 21
48.3567
 31
0.0
  0
LINE
  8
0
 62
     0
 10
296.941
 20
48.3567
 30
0.0
 11
296.941
 21
47.3576
 31
0.0
  0
LINE
  8
0
 62
     0
 10
296.941
 20
47.3576
 30
0.0
 11
296.142
 21
47.3576
 31
0.0
  0
LINE
  8
0
 62
     0
 10
296.142
 20
47.3576
 30
0.0
 11
296.142
 21
44.257
 31
0.0
  0
LINE
  8
0
 62
     0
 10
296.142
 20
44.257
 30
0.0
 11
296.941
 21
44.257
 31
0.0
  0
LINE
  8
0
 62
     0
 10
296.941
 20
44.257
 30
0.0
 11
296.941
 21
38.457
 31
0.0
  0
LINE
  8
0
 62
     0
 10
296.941
 20
38.457
 30
0.0
 11
296.142
 21
38.457
 31
0.0
  0
LINE
  8
0
 62
     0
 10
296.142
 20
38.457
 30
0.0
 11
296.142
 21
35.3579
 31
0.0
  0
LINE
  8
0
 62
     0
 10
296.142
 20
35.3579
 30
0.0
 11
296.941
 21
35.3579
 31
0.0
  0
LINE
  8
0
 62
     0
 10
296.941
 20
35.3579
 30
0.0
 11
296.941
 21
34.3572
 31
0.0
  0
LINE
  8
0
 62
     0
 10
296.941
 20
34.3572
 30
0.0
 11
310.942
 21
34.3572
 31
0.0
  0
LINE
  8
0
 62
     0
 10
310.942
 20
34.3572
 30
0.0
 11
310.942
 21
35.3579
 31
0.0
  0
LINE
  8
0
 62
     0
 10
310.942
 20
35.3579
 30
0.0
 11
311.741
 21
35.3579
 31
0.0
  0
LINE
  8
0
 62
     0
 10
311.741
 20
35.3579
 30
0.0
 11
311.741
 21
38.457
 31
0.0
  0
LINE
  8
0
 62
     0
 10
311.741
 20
38.457
 30
0.0
 11
310.942
 21
38.457
 31
0.0
  0
LINE
  8
0
 62
     0
 10
310.942
 20
38.457
 30
0.0
 11
310.942
 21
44.257
 31
0.0
  0
LINE
  8
0
 62
     0
 10
310.942
 20
44.257
 30
0.0
 11
311.741
 21
44.257
 31
0.0
  0
LINE
  8
0
 62
     0
 10
311.741
 20
44.257
 30
0.0
 11
311.741
 21
47.3576
 31
0.0
  0
LINE
  8
0
 62
     0
 10
311.741
 20
47.3576
 30
0.0
 11
310.942
 21
47.3576
 31
0.0
  0
LINE
  8
0
 62
     0
 10
310.942
 20
47.3576
 30
0.0
 11
310.942
 21
48.3567
 31
0.0
  0
LINE
  8
0
 62
     0
 10
310.942
 20
48.3567
 30
0.0
 11
296.941
 21
48.3567
 31
0.0
  0
LINE
  8
0
 62
     0
 10
236.85
 20
49.5102
 30
0.0
 11
237.059
 21
48.5316
 31
0.0
  0
LINE
  8
0
 62
     0
 10
237.059
 20
48.5316
 30
0.0
 11
236.276
 21
48.3651
 31
0.0
  0
LINE
  8
0
 62
     0
 10
236.276
 20
48.3651
 30
0.0
 11
236.921
 21
45.3334
 31
0.0
  0
LINE
  8
0
 62
     0
 10
236.921
 20
45.3334
 30
0.0
 11
237.702
 21
45.5002
 31
0.0
  0
LINE
  8
0
 62
     0
 10
237.702
 20
45.5002
 30
0.0
 11
238.909
 21
39.8268
 31
0.0
  0
LINE
  8
0
 62
     0
 10
238.909
 20
39.8268
 30
0.0
 11
238.125
 21
39.66
 31
0.0
  0
LINE
  8
0
 62
     0
 10
238.125
 20
39.66
 30
0.0
 11
238.77
 21
36.6268
 31
0.0
  0
LINE
  8
0
 62
     0
 10
238.77
 20
36.6268
 30
0.0
 11
239.553
 21
36.7951
 31
0.0
  0
LINE
  8
0
 62
     0
 10
239.553
 20
36.7951
 30
0.0
 11
239.761
 21
35.8151
 31
0.0
  0
LINE
  8
0
 62
     0
 10
239.761
 20
35.8151
 30
0.0
 11
253.454
 21
38.7269
 31
0.0
  0
LINE
  8
0
 62
     0
 10
253.454
 20
38.7269
 30
0.0
 11
253.248
 21
39.7041
 31
0.0
  0
LINE
  8
0
 62
     0
 10
253.248
 20
39.7041
 30
0.0
 11
254.029
 21
39.8709
 31
0.0
  0
LINE
  8
0
 62
     0
 10
254.029
 20
39.8709
 30
0.0
 11
253.385
 21
42.9038
 31
0.0
  0
LINE
  8
0
 62
     0
 10
253.385
 20
42.9038
 30
0.0
 11
252.601
 21
42.7373
 31
0.0
  0
LINE
  8
0
 62
     0
 10
252.601
 20
42.7373
 30
0.0
 11
251.397
 21
48.4106
 31
0.0
  0
LINE
  8
0
 62
     0
 10
251.397
 20
48.4106
 30
0.0
 11
252.178
 21
48.5757
 31
0.0
  0
LINE
  8
0
 62
     0
 10
252.178
 20
48.5757
 30
0.0
 11
251.535
 21
51.6089
 31
0.0
  0
LINE
  8
0
 62
     0
 10
251.535
 20
51.6089
 30
0.0
 11
250.752
 21
51.4421
 31
0.0
  0
LINE
  8
0
 62
     0
 10
250.752
 20
51.4421
 30
0.0
 11
250.544
 21
52.4207
 31
0.0
  0
LINE
  8
0
 62
     0
 10
250.544
 20
52.4207
 30
0.0
 11
236.85
 21
49.5102
 31
0.0
  0
LINE
  8
0
 62
     0
 10
66.1582
 20
52.0898
 30
0.0
 11
65.3768
 21
52.2566
 31
0.0
  0
LINE
  8
0
 62
     0
 10
65.3768
 20
52.2566
 30
0.0
 11
64.7319
 21
49.2248
 31
0.0
  0
LINE
  8
0
 62
     0
 10
64.7319
 20
49.2248
 30
0.0
 11
65.5147
 21
49.0569
 31
0.0
  0
LINE
  8
0
 62
     0
 10
65.5147
 20
49.0569
 30
0.0
 11
64.3089
 21
43.3846
 31
0.0
  0
LINE
  8
0
 62
     0
 10
64.3089
 20
43.3846
 30
0.0
 11
63.5247
 21
43.5515
 31
0.0
  0
LINE
  8
0
 62
     0
 10
63.5247
 20
43.5515
 30
0.0
 11
62.8812
 21
40.5183
 31
0.0
  0
LINE
  8
0
 62
     0
 10
62.8812
 20
40.5183
 30
0.0
 11
63.664
 21
40.3518
 31
0.0
  0
LINE
  8
0
 62
     0
 10
63.664
 20
40.3518
 30
0.0
 11
63.4559
 21
39.3746
 31
0.0
  0
LINE
  8
0
 62
     0
 10
63.4559
 20
39.3746
 30
0.0
 11
77.1493
 21
36.4642
 31
0.0
  0
LINE
  8
0
 62
     0
 10
77.1493
 20
36.4642
 30
0.0
 11
77.3575
 21
37.4414
 31
0.0
  0
LINE
  8
0
 62
     0
 10
77.3575
 20
37.4414
 30
0.0
 11
78.1403
 21
37.2759
 31
0.0
  0
LINE
  8
0
 62
     0
 10
78.1403
 20
37.2759
 30
0.0
 11
78.7837
 21
40.3077
 31
0.0
  0
LINE
  8
0
 62
     0
 10
78.7837
 20
40.3077
 30
0.0
 11
78.0023
 21
40.4731
 31
0.0
  0
LINE
  8
0
 62
     0
 10
78.0023
 20
40.4731
 30
0.0
 11
79.2081
 21
46.1479
 31
0.0
  0
LINE
  8
0
 62
     0
 10
79.2081
 20
46.1479
 30
0.0
 11
79.991
 21
45.9811
 31
0.0
  0
LINE
  8
0
 62
     0
 10
79.991
 20
45.9811
 30
0.0
 11
80.6358
 21
49.0142
 31
0.0
  0
LINE
  8
0
 62
     0
 10
80.6358
 20
49.0142
 30
0.0
 11
79.852
 21
49.1793
 31
0.0
  0
LINE
  8
0
 62
     0
 10
79.852
 20
49.1793
 30
0.0
 11
80.0597
 21
50.1579
 31
0.0
  0
LINE
  8
0
 62
     0
 10
80.0597
 20
50.1579
 30
0.0
 11
66.3663
 21
53.0684
 31
0.0
  0
LINE
  8
0
 62
     0
 10
66.3663
 20
53.0684
 30
0.0
 11
66.1582
 21
52.0898
 31
0.0
  0
LINE
  8
0
 62
     0
 10
160.683
 20
52.7953
 30
0.0
 11
160.891
 21
51.8171
 31
0.0
  0
LINE
  8
0
 62
     0
 10
160.891
 20
51.8171
 30
0.0
 11
160.11
 21
51.6516
 31
0.0
  0
LINE
  8
0
 62
     0
 10
160.11
 20
51.6516
 30
0.0
 11
160.754
 21
48.6198
 31
0.0
  0
LINE
  8
0
 62
     0
 10
160.754
 20
48.6198
 30
0.0
 11
161.536
 21
48.7853
 31
0.0
  0
LINE
  8
0
 62
     0
 10
161.536
 20
48.7853
 30
0.0
 11
162.742
 21
43.1119
 31
0.0
  0
LINE
  8
0
 62
     0
 10
162.742
 20
43.1119
 30
0.0
 11
161.96
 21
42.9451
 31
0.0
  0
LINE
  8
0
 62
     0
 10
161.96
 20
42.9451
 30
0.0
 11
162.604
 21
39.9136
 31
0.0
  0
LINE
  8
0
 62
     0
 10
162.604
 20
39.9136
 30
0.0
 11
163.387
 21
40.0801
 31
0.0
  0
LINE
  8
0
 62
     0
 10
163.387
 20
40.0801
 30
0.0
 11
163.594
 21
39.1019
 31
0.0
  0
LINE
  8
0
 62
     0
 10
163.594
 20
39.1019
 30
0.0
 11
177.289
 21
42.0123
 31
0.0
  0
LINE
  8
0
 62
     0
 10
177.289
 20
42.0123
 30
0.0
 11
177.081
 21
42.9906
 31
0.0
  0
LINE
  8
0
 62
     0
 10
177.081
 20
42.9906
 30
0.0
 11
177.863
 21
43.1574
 31
0.0
  0
LINE
  8
0
 62
     0
 10
177.863
 20
43.1574
 30
0.0
 11
177.219
 21
46.1892
 31
0.0
  0
LINE
  8
0
 62
     0
 10
177.219
 20
46.1892
 30
0.0
 11
176.437
 21
46.0237
 31
0.0
  0
LINE
  8
0
 62
     0
 10
176.437
 20
46.0237
 30
0.0
 11
175.23
 21
51.6957
 31
0.0
  0
LINE
  8
0
 62
     0
 10
175.23
 20
51.6957
 30
0.0
 11
176.013
 21
51.8626
 31
0.0
  0
LINE
  8
0
 62
     0
 10
176.013
 20
51.8626
 30
0.0
 11
175.369
 21
54.894
 31
0.0
  0
LINE
  8
0
 62
     0
 10
175.369
 20
54.894
 30
0.0
 11
174.585
 21
54.7289
 31
0.0
  0
LINE
  8
0
 62
     0
 10
174.585
 20
54.7289
 30
0.0
 11
174.377
 21
55.7057
 31
0.0
  0
LINE
  8
0
 62
     0
 10
174.377
 20
55.7057
 30
0.0
 11
160.683
 21
52.7953
 31
0.0
  0
LINE
  8
0
 62
     0
 10
266.937
 20
53.1192
 30
0.0
 11
266.937
 21
52.1187
 31
0.0
  0
LINE
  8
0
 62
     0
 10
266.937
 20
52.1187
 30
0.0
 11
266.138
 21
52.1187
 31
0.0
  0
LINE
  8
0
 62
     0
 10
266.138
 20
52.1187
 30
0.0
 11
266.138
 21
49.0195
 31
0.0
  0
LINE
  8
0
 62
     0
 10
266.138
 20
49.0195
 30
0.0
 11
266.937
 21
49.0195
 31
0.0
  0
LINE
  8
0
 62
     0
 10
266.937
 20
49.0195
 30
0.0
 11
266.937
 21
43.2195
 31
0.0
  0
LINE
  8
0
 62
     0
 10
266.937
 20
43.2195
 30
0.0
 11
266.138
 21
43.2195
 31
0.0
  0
LINE
  8
0
 62
     0
 10
266.138
 20
43.2195
 30
0.0
 11
266.138
 21
40.1189
 31
0.0
  0
LINE
  8
0
 62
     0
 10
266.138
 20
40.1189
 30
0.0
 11
266.937
 21
40.1189
 31
0.0
  0
LINE
  8
0
 62
     0
 10
266.937
 20
40.1189
 30
0.0
 11
266.937
 21
39.1199
 31
0.0
  0
LINE
  8
0
 62
     0
 10
266.937
 20
39.1199
 30
0.0
 11
280.938
 21
39.1199
 31
0.0
  0
LINE
  8
0
 62
     0
 10
280.938
 20
39.1199
 30
0.0
 11
280.938
 21
40.1189
 31
0.0
  0
LINE
  8
0
 62
     0
 10
280.938
 20
40.1189
 30
0.0
 11
281.737
 21
40.1189
 31
0.0
  0
LINE
  8
0
 62
     0
 10
281.737
 20
40.1189
 30
0.0
 11
281.737
 21
43.2195
 31
0.0
  0
LINE
  8
0
 62
     0
 10
281.737
 20
43.2195
 30
0.0
 11
280.938
 21
43.2195
 31
0.0
  0
LINE
  8
0
 62
     0
 10
280.938
 20
43.2195
 30
0.0
 11
280.938
 21
49.0195
 31
0.0
  0
LINE
  8
0
 62
     0
 10
280.938
 20
49.0195
 30
0.0
 11
281.737
 21
49.0195
 31
0.0
  0
LINE
  8
0
 62
     0
 10
281.737
 20
49.0195
 30
0.0
 11
281.737
 21
52.1187
 31
0.0
  0
LINE
  8
0
 62
     0
 10
281.737
 20
52.1187
 30
0.0
 11
280.938
 21
52.1187
 31
0.0
  0
LINE
  8
0
 62
     0
 10
280.938
 20
52.1187
 30
0.0
 11
280.938
 21
53.1192
 31
0.0
  0
LINE
  8
0
 62
     0
 10
280.938
 20
53.1192
 30
0.0
 11
266.937
 21
53.1192
 31
0.0
  0
LINE
  8
0
 62
     0
 10
33.5759
 20
53.1192
 30
0.0
 11
33.5759
 21
52.1187
 31
0.0
  0
LINE
  8
0
 62
     0
 10
33.5759
 20
52.1187
 30
0.0
 11
32.7753
 21
52.1187
 31
0.0
  0
LINE
  8
0
 62
     0
 10
32.7753
 20
52.1187
 30
0.0
 11
32.7753
 21
49.0195
 31
0.0
  0
LINE
  8
0
 62
     0
 10
32.7753
 20
49.0195
 30
0.0
 11
33.5759
 21
49.0195
 31
0.0
  0
LINE
  8
0
 62
     0
 10
33.5759
 20
49.0195
 30
0.0
 11
33.5759
 21
43.2195
 31
0.0
  0
LINE
  8
0
 62
     0
 10
33.5759
 20
43.2195
 30
0.0
 11
32.7753
 21
43.2195
 31
0.0
  0
LINE
  8
0
 62
     0
 10
32.7753
 20
43.2195
 30
0.0
 11
32.7753
 21
40.1189
 31
0.0
  0
LINE
  8
0
 62
     0
 10
32.7753
 20
40.1189
 30
0.0
 11
33.5759
 21
40.1189
 31
0.0
  0
LINE
  8
0
 62
     0
 10
33.5759
 20
40.1189
 30
0.0
 11
33.5759
 21
39.1199
 31
0.0
  0
LINE
  8
0
 62
     0
 10
33.5759
 20
39.1199
 30
0.0
 11
47.5753
 21
39.1199
 31
0.0
  0
LINE
  8
0
 62
     0
 10
47.5753
 20
39.1199
 30
0.0
 11
47.5753
 21
40.1189
 31
0.0
  0
LINE
  8
0
 62
     0
 10
47.5753
 20
40.1189
 30
0.0
 11
48.3761
 21
40.1189
 31
0.0
  0
LINE
  8
0
 62
     0
 10
48.3761
 20
40.1189
 30
0.0
 11
48.3761
 21
43.2195
 31
0.0
  0
LINE
  8
0
 62
     0
 10
48.3761
 20
43.2195
 30
0.0
 11
47.5753
 21
43.2195
 31
0.0
  0
LINE
  8
0
 62
     0
 10
47.5753
 20
43.2195
 30
0.0
 11
47.5753
 21
49.0195
 31
0.0
  0
LINE
  8
0
 62
     0
 10
47.5753
 20
49.0195
 30
0.0
 11
48.3761
 21
49.0195
 31
0.0
  0
LINE
  8
0
 62
     0
 10
48.3761
 20
49.0195
 30
0.0
 11
48.3761
 21
52.1187
 31
0.0
  0
LINE
  8
0
 62
     0
 10
48.3761
 20
52.1187
 30
0.0
 11
47.5753
 21
52.1187
 31
0.0
  0
LINE
  8
0
 62
     0
 10
47.5753
 20
52.1187
 30
0.0
 11
47.5753
 21
53.1192
 31
0.0
  0
LINE
  8
0
 62
     0
 10
47.5753
 20
53.1192
 30
0.0
 11
33.5759
 21
53.1192
 31
0.0
  0
LINE
  8
0
 62
     0
 10
7.38216
 20
53.1192
 30
0.0
 11
7.38216
 21
52.1187
 31
0.0
  0
LINE
  8
0
 62
     0
 10
7.38216
 20
52.1187
 30
0.0
 11
6.58153
 21
52.1187
 31
0.0
  0
LINE
  8
0
 62
     0
 10
6.58153
 20
52.1187
 30
0.0
 11
6.58153
 21
49.0195
 31
0.0
  0
LINE
  8
0
 62
     0
 10
6.58153
 20
49.0195
 30
0.0
 11
7.38216
 21
49.0195
 31
0.0
  0
LINE
  8
0
 62
     0
 10
7.38216
 20
49.0195
 30
0.0
 11
7.38216
 21
43.2195
 31
0.0
  0
LINE
  8
0
 62
     0
 10
7.38216
 20
43.2195
 30
0.0
 11
6.58153
 21
43.2195
 31
0.0
  0
LINE
  8
0
 62
     0
 10
6.58153
 20
43.2195
 30
0.0
 11
6.58153
 21
40.1189
 31
0.0
  0
LINE
  8
0
 62
     0
 10
6.58153
 20
40.1189
 30
0.0
 11
7.38216
 21
40.1189
 31
0.0
  0
LINE
  8
0
 62
     0
 10
7.38216
 20
40.1189
 30
0.0
 11
7.38216
 21
39.1199
 31
0.0
  0
LINE
  8
0
 62
     0
 10
7.38216
 20
39.1199
 30
0.0
 11
21.3817
 21
39.1199
 31
0.0
  0
LINE
  8
0
 62
     0
 10
21.3817
 20
39.1199
 30
0.0
 11
21.3817
 21
40.1189
 31
0.0
  0
LINE
  8
0
 62
     0
 10
21.3817
 20
40.1189
 30
0.0
 11
22.1809
 21
40.1189
 31
0.0
  0
LINE
  8
0
 62
     0
 10
22.1809
 20
40.1189
 30
0.0
 11
22.1809
 21
43.2195
 31
0.0
  0
LINE
  8
0
 62
     0
 10
22.1809
 20
43.2195
 30
0.0
 11
21.3817
 21
43.2195
 31
0.0
  0
LINE
  8
0
 62
     0
 10
21.3817
 20
43.2195
 30
0.0
 11
21.3817
 21
49.0195
 31
0.0
  0
LINE
  8
0
 62
     0
 10
21.3817
 20
49.0195
 30
0.0
 11
22.1809
 21
49.0195
 31
0.0
  0
LINE
  8
0
 62
     0
 10
22.1809
 20
49.0195
 30
0.0
 11
22.1809
 21
52.1187
 31
0.0
  0
LINE
  8
0
 62
     0
 10
22.1809
 20
52.1187
 30
0.0
 11
21.3817
 21
52.1187
 31
0.0
  0
LINE
  8
0
 62
     0
 10
21.3817
 20
52.1187
 30
0.0
 11
21.3817
 21
53.1192
 31
0.0
  0
LINE
  8
0
 62
     0
 10
21.3817
 20
53.1192
 30
0.0
 11
7.38216
 21
53.1192
 31
0.0
  0
LINE
  8
0
 62
     0
 10
179.317
 20
56.7559
 30
0.0
 11
179.525
 21
55.7788
 31
0.0
  0
LINE
  8
0
 62
     0
 10
179.525
 20
55.7788
 30
0.0
 11
178.743
 21
55.6122
 31
0.0
  0
LINE
  8
0
 62
     0
 10
178.743
 20
55.6122
 30
0.0
 11
179.388
 21
52.5791
 31
0.0
  0
LINE
  8
0
 62
     0
 10
179.388
 20
52.5791
 30
0.0
 11
180.169
 21
52.7459
 31
0.0
  0
LINE
  8
0
 62
     0
 10
180.169
 20
52.7459
 30
0.0
 11
181.376
 21
47.074
 31
0.0
  0
LINE
  8
0
 62
     0
 10
181.376
 20
47.074
 30
0.0
 11
180.593
 21
46.9071
 31
0.0
  0
LINE
  8
0
 62
     0
 10
180.593
 20
46.9071
 30
0.0
 11
181.237
 21
43.8739
 31
0.0
  0
LINE
  8
0
 62
     0
 10
181.237
 20
43.8739
 30
0.0
 11
182.021
 21
44.0408
 31
0.0
  0
LINE
  8
0
 62
     0
 10
182.021
 20
44.0408
 30
0.0
 11
182.229
 21
43.0622
 31
0.0
  0
LINE
  8
0
 62
     0
 10
182.229
 20
43.0622
 30
0.0
 11
195.923
 21
45.9726
 31
0.0
  0
LINE
  8
0
 62
     0
 10
195.923
 20
45.9726
 30
0.0
 11
195.714
 21
46.9512
 31
0.0
  0
LINE
  8
0
 62
     0
 10
195.714
 20
46.9512
 30
0.0
 11
196.496
 21
47.1181
 31
0.0
  0
LINE
  8
0
 62
     0
 10
196.496
 20
47.1181
 30
0.0
 11
195.852
 21
50.1509
 31
0.0
  0
LINE
  8
0
 62
     0
 10
195.852
 20
50.1509
 30
0.0
 11
195.07
 21
49.983
 31
0.0
  0
LINE
  8
0
 62
     0
 10
195.07
 20
49.983
 30
0.0
 11
193.864
 21
55.6578
 31
0.0
  0
LINE
  8
0
 62
     0
 10
193.864
 20
55.6578
 30
0.0
 11
194.647
 21
55.8229
 31
0.0
  0
LINE
  8
0
 62
     0
 10
194.647
 20
55.8229
 30
0.0
 11
194.002
 21
58.856
 31
0.0
  0
LINE
  8
0
 62
     0
 10
194.002
 20
58.856
 30
0.0
 11
193.219
 21
58.6892
 31
0.0
  0
LINE
  8
0
 62
     0
 10
193.219
 20
58.6892
 30
0.0
 11
193.012
 21
59.6678
 31
0.0
  0
LINE
  8
0
 62
     0
 10
193.012
 20
59.6678
 30
0.0
 11
179.317
 21
56.7559
 31
0.0
  0
LINE
  8
0
 62
     0
 10
126.019
 20
58.8409
 30
0.0
 11
125.239
 21
59.0091
 31
0.0
  0
LINE
  8
0
 62
     0
 10
125.239
 20
59.0091
 30
0.0
 11
124.594
 21
55.976
 31
0.0
  0
LINE
  8
0
 62
     0
 10
124.594
 20
55.976
 30
0.0
 11
125.377
 21
55.8091
 31
0.0
  0
LINE
  8
0
 62
     0
 10
125.377
 20
55.8091
 30
0.0
 11
124.171
 21
50.1357
 31
0.0
  0
LINE
  8
0
 62
     0
 10
124.171
 20
50.1357
 30
0.0
 11
123.388
 21
50.3026
 31
0.0
  0
LINE
  8
0
 62
     0
 10
123.388
 20
50.3026
 30
0.0
 11
122.743
 21
47.2708
 31
0.0
  0
LINE
  8
0
 62
     0
 10
122.743
 20
47.2708
 30
0.0
 11
123.526
 21
47.1039
 31
0.0
  0
LINE
  8
0
 62
     0
 10
123.526
 20
47.1039
 30
0.0
 11
123.318
 21
46.1257
 31
0.0
  0
LINE
  8
0
 62
     0
 10
123.318
 20
46.1257
 30
0.0
 11
137.011
 21
43.2153
 31
0.0
  0
LINE
  8
0
 62
     0
 10
137.011
 20
43.2153
 30
0.0
 11
137.22
 21
44.1935
 31
0.0
  0
LINE
  8
0
 62
     0
 10
137.22
 20
44.1935
 30
0.0
 11
138.002
 21
44.027
 31
0.0
  0
LINE
  8
0
 62
     0
 10
138.002
 20
44.027
 30
0.0
 11
138.646
 21
47.0598
 31
0.0
  0
LINE
  8
0
 62
     0
 10
138.646
 20
47.0598
 30
0.0
 11
137.864
 21
47.2253
 31
0.0
  0
LINE
  8
0
 62
     0
 10
137.864
 20
47.2253
 30
0.0
 11
139.07
 21
52.8987
 31
0.0
  0
LINE
  8
0
 62
     0
 10
139.07
 20
52.8987
 30
0.0
 11
139.853
 21
52.7322
 31
0.0
  0
LINE
  8
0
 62
     0
 10
139.853
 20
52.7322
 30
0.0
 11
140.498
 21
55.765
 31
0.0
  0
LINE
  8
0
 62
     0
 10
140.498
 20
55.765
 30
0.0
 11
139.715
 21
55.9319
 31
0.0
  0
LINE
  8
0
 62
     0
 10
139.715
 20
55.9319
 30
0.0
 11
139.922
 21
56.9087
 31
0.0
  0
LINE
  8
0
 62
     0
 10
139.922
 20
56.9087
 30
0.0
 11
126.228
 21
59.8191
 31
0.0
  0
LINE
  8
0
 62
     0
 10
126.228
 20
59.8191
 30
0.0
 11
126.019
 21
58.8409
 31
0.0
  0
LINE
  8
0
 62
     0
 10
197.951
 20
60.7176
 30
0.0
 11
198.159
 21
59.7394
 31
0.0
  0
LINE
  8
0
 62
     0
 10
198.159
 20
59.7394
 30
0.0
 11
197.376
 21
59.5725
 31
0.0
  0
LINE
  8
0
 62
     0
 10
197.376
 20
59.5725
 30
0.0
 11
198.021
 21
56.5408
 31
0.0
  0
LINE
  8
0
 62
     0
 10
198.021
 20
56.5408
 30
0.0
 11
198.804
 21
56.7076
 31
0.0
  0
LINE
  8
0
 62
     0
 10
198.804
 20
56.7076
 30
0.0
 11
200.01
 21
51.0328
 31
0.0
  0
LINE
  8
0
 62
     0
 10
200.01
 20
51.0328
 30
0.0
 11
199.227
 21
50.8674
 31
0.0
  0
LINE
  8
0
 62
     0
 10
199.227
 20
50.8674
 30
0.0
 11
199.872
 21
47.836
 31
0.0
  0
LINE
  8
0
 62
     0
 10
199.872
 20
47.836
 30
0.0
 11
200.655
 21
48.0011
 31
0.0
  0
LINE
  8
0
 62
     0
 10
200.655
 20
48.0011
 30
0.0
 11
200.861
 21
47.0228
 31
0.0
  0
LINE
  8
0
 62
     0
 10
200.861
 20
47.0228
 30
0.0
 11
214.556
 21
49.9346
 31
0.0
  0
LINE
  8
0
 62
     0
 10
214.556
 20
49.9346
 30
0.0
 11
214.348
 21
50.9129
 31
0.0
  0
LINE
  8
0
 62
     0
 10
214.348
 20
50.9129
 30
0.0
 11
215.131
 21
51.0783
 31
0.0
  0
LINE
  8
0
 62
     0
 10
215.131
 20
51.0783
 30
0.0
 11
214.486
 21
54.1101
 31
0.0
  0
LINE
  8
0
 62
     0
 10
214.486
 20
54.1101
 30
0.0
 11
213.703
 21
53.9447
 31
0.0
  0
LINE
  8
0
 62
     0
 10
213.703
 20
53.9447
 30
0.0
 11
212.497
 21
59.618
 31
0.0
  0
LINE
  8
0
 62
     0
 10
212.497
 20
59.618
 30
0.0
 11
213.28
 21
59.7849
 31
0.0
  0
LINE
  8
0
 62
     0
 10
213.28
 20
59.7849
 30
0.0
 11
212.635
 21
62.8167
 31
0.0
  0
LINE
  8
0
 62
     0
 10
212.635
 20
62.8167
 30
0.0
 11
211.854
 21
62.6498
 31
0.0
  0
LINE
  8
0
 62
     0
 10
211.854
 20
62.6498
 30
0.0
 11
211.646
 21
63.6281
 31
0.0
  0
LINE
  8
0
 62
     0
 10
211.646
 20
63.6281
 30
0.0
 11
197.951
 21
60.7176
 31
0.0
  0
LINE
  8
0
 62
     0
 10
107.386
 20
62.8026
 30
0.0
 11
106.605
 21
62.968
 31
0.0
  0
LINE
  8
0
 62
     0
 10
106.605
 20
62.968
 30
0.0
 11
105.96
 21
59.9362
 31
0.0
  0
LINE
  8
0
 62
     0
 10
105.96
 20
59.9362
 30
0.0
 11
106.743
 21
59.7711
 31
0.0
  0
LINE
  8
0
 62
     0
 10
106.743
 20
59.7711
 30
0.0
 11
105.537
 21
54.0964
 31
0.0
  0
LINE
  8
0
 62
     0
 10
105.537
 20
54.0964
 30
0.0
 11
104.753
 21
54.2629
 31
0.0
  0
LINE
  8
0
 62
     0
 10
104.753
 20
54.2629
 30
0.0
 11
104.109
 21
51.2314
 31
0.0
  0
LINE
  8
0
 62
     0
 10
104.109
 20
51.2314
 30
0.0
 11
104.892
 21
51.0646
 31
0.0
  0
LINE
  8
0
 62
     0
 10
104.892
 20
51.0646
 30
0.0
 11
104.684
 21
50.0863
 31
0.0
  0
LINE
  8
0
 62
     0
 10
104.684
 20
50.0863
 30
0.0
 11
118.379
 21
47.1759
 31
0.0
  0
LINE
  8
0
 62
     0
 10
118.379
 20
47.1759
 30
0.0
 11
118.586
 21
48.1528
 31
0.0
  0
LINE
  8
0
 62
     0
 10
118.586
 20
48.1528
 30
0.0
 11
119.368
 21
47.9873
 31
0.0
  0
LINE
  8
0
 62
     0
 10
119.368
 20
47.9873
 30
0.0
 11
120.013
 21
51.0191
 31
0.0
  0
LINE
  8
0
 62
     0
 10
120.013
 20
51.0191
 30
0.0
 11
119.231
 21
51.1859
 31
0.0
  0
LINE
  8
0
 62
     0
 10
119.231
 20
51.1859
 30
0.0
 11
120.437
 21
56.8593
 31
0.0
  0
LINE
  8
0
 62
     0
 10
120.437
 20
56.8593
 30
0.0
 11
121.219
 21
56.6939
 31
0.0
  0
LINE
  8
0
 62
     0
 10
121.219
 20
56.6939
 30
0.0
 11
121.864
 21
59.7256
 31
0.0
  0
LINE
  8
0
 62
     0
 10
121.864
 20
59.7256
 30
0.0
 11
121.08
 21
59.8911
 31
0.0
  0
LINE
  8
0
 62
     0
 10
121.08
 20
59.8911
 30
0.0
 11
121.288
 21
60.8693
 31
0.0
  0
LINE
  8
0
 62
     0
 10
121.288
 20
60.8693
 30
0.0
 11
107.594
 21
63.7798
 31
0.0
  0
LINE
  8
0
 62
     0
 10
107.594
 20
63.7798
 30
0.0
 11
107.386
 21
62.8026
 31
0.0
  0
LINE
  8
0
 62
     0
 10
216.585
 20
64.6783
 30
0.0
 11
216.793
 21
63.6997
 31
0.0
  0
LINE
  8
0
 62
     0
 10
216.793
 20
63.6997
 30
0.0
 11
216.01
 21
63.5332
 31
0.0
  0
LINE
  8
0
 62
     0
 10
216.01
 20
63.5332
 30
0.0
 11
216.655
 21
60.5014
 31
0.0
  0
LINE
  8
0
 62
     0
 10
216.655
 20
60.5014
 30
0.0
 11
217.438
 21
60.6668
 31
0.0
  0
LINE
  8
0
 62
     0
 10
217.438
 20
60.6668
 30
0.0
 11
218.644
 21
54.9949
 31
0.0
  0
LINE
  8
0
 62
     0
 10
218.644
 20
54.9949
 30
0.0
 11
217.861
 21
54.828
 31
0.0
  0
LINE
  8
0
 62
     0
 10
217.861
 20
54.828
 30
0.0
 11
218.506
 21
51.7948
 31
0.0
  0
LINE
  8
0
 62
     0
 10
218.506
 20
51.7948
 30
0.0
 11
219.287
 21
51.9631
 31
0.0
  0
LINE
  8
0
 62
     0
 10
219.287
 20
51.9631
 30
0.0
 11
219.495
 21
50.9845
 31
0.0
  0
LINE
  8
0
 62
     0
 10
219.495
 20
50.9845
 30
0.0
 11
233.189
 21
53.8949
 31
0.0
  0
LINE
  8
0
 62
     0
 10
233.189
 20
53.8949
 30
0.0
 11
232.982
 21
54.8721
 31
0.0
  0
LINE
  8
0
 62
     0
 10
232.982
 20
54.8721
 30
0.0
 11
233.765
 21
55.039
 31
0.0
  0
LINE
  8
0
 62
     0
 10
233.765
 20
55.039
 30
0.0
 11
233.12
 21
58.0718
 31
0.0
  0
LINE
  8
0
 62
     0
 10
233.12
 20
58.0718
 30
0.0
 11
232.337
 21
57.9053
 31
0.0
  0
LINE
  8
0
 62
     0
 10
232.337
 20
57.9053
 30
0.0
 11
231.132
 21
63.5787
 31
0.0
  0
LINE
  8
0
 62
     0
 10
231.132
 20
63.5787
 30
0.0
 11
231.913
 21
63.7438
 31
0.0
  0
LINE
  8
0
 62
     0
 10
231.913
 20
63.7438
 30
0.0
 11
231.269
 21
66.777
 31
0.0
  0
LINE
  8
0
 62
     0
 10
231.269
 20
66.777
 30
0.0
 11
230.487
 21
66.6101
 31
0.0
  0
LINE
  8
0
 62
     0
 10
230.487
 20
66.6101
 30
0.0
 11
230.279
 21
67.5887
 31
0.0
  0
LINE
  8
0
 62
     0
 10
230.279
 20
67.5887
 30
0.0
 11
216.585
 21
64.6783
 31
0.0
  0
LINE
  8
0
 62
     0
 10
88.7539
 20
66.7632
 30
0.0
 11
87.9697
 21
66.9301
 31
0.0
  0
LINE
  8
0
 62
     0
 10
87.9697
 20
66.9301
 30
0.0
 11
87.3263
 21
63.8969
 31
0.0
  0
LINE
  8
0
 62
     0
 10
87.3263
 20
63.8969
 30
0.0
 11
88.1091
 21
63.73
 31
0.0
  0
LINE
  8
0
 62
     0
 10
88.1091
 20
63.73
 30
0.0
 11
86.9019
 21
58.0566
 31
0.0
  0
LINE
  8
0
 62
     0
 10
86.9019
 20
58.0566
 30
0.0
 11
86.1205
 21
58.2249
 31
0.0
  0
LINE
  8
0
 62
     0
 10
86.1205
 20
58.2249
 30
0.0
 11
85.4756
 21
55.1917
 31
0.0
  0
LINE
  8
0
 62
     0
 10
85.4756
 20
55.1917
 30
0.0
 11
86.2584
 21
55.0252
 31
0.0
  0
LINE
  8
0
 62
     0
 10
86.2584
 20
55.0252
 30
0.0
 11
86.0503
 21
54.048
 31
0.0
  0
LINE
  8
0
 62
     0
 10
86.0503
 20
54.048
 30
0.0
 11
99.7451
 21
51.1362
 31
0.0
  0
LINE
  8
0
 62
     0
 10
99.7451
 20
51.1362
 30
0.0
 11
99.9518
 21
52.1148
 31
0.0
  0
LINE
  8
0
 62
     0
 10
99.9518
 20
52.1148
 30
0.0
 11
100.735
 21
51.9479
 31
0.0
  0
LINE
  8
0
 62
     0
 10
100.735
 20
51.9479
 30
0.0
 11
101.38
 21
54.9811
 31
0.0
  0
LINE
  8
0
 62
     0
 10
101.38
 20
54.9811
 30
0.0
 11
100.597
 21
55.1462
 31
0.0
  0
LINE
  8
0
 62
     0
 10
100.597
 20
55.1462
 30
0.0
 11
101.802
 21
60.8196
 31
0.0
  0
LINE
  8
0
 62
     0
 10
101.802
 20
60.8196
 30
0.0
 11
102.585
 21
60.6531
 31
0.0
  0
LINE
  8
0
 62
     0
 10
102.585
 20
60.6531
 30
0.0
 11
103.229
 21
63.6859
 31
0.0
  0
LINE
  8
0
 62
     0
 10
103.229
 20
63.6859
 30
0.0
 11
102.447
 21
63.8528
 31
0.0
  0
LINE
  8
0
 62
     0
 10
102.447
 20
63.8528
 30
0.0
 11
102.656
 21
64.83
 31
0.0
  0
LINE
  8
0
 62
     0
 10
102.656
 20
64.83
 30
0.0
 11
88.9621
 21
67.7414
 31
0.0
  0
LINE
  8
0
 62
     0
 10
88.9621
 20
67.7414
 30
0.0
 11
88.7539
 21
66.7632
 31
0.0
  0
LINE
  8
0
 62
     0
 10
315.991
 20
67.4067
 30
0.0
 11
315.991
 21
66.4076
 31
0.0
  0
LINE
  8
0
 62
     0
 10
315.991
 20
66.4076
 30
0.0
 11
315.192
 21
66.4076
 31
0.0
  0
LINE
  8
0
 62
     0
 10
315.192
 20
66.4076
 30
0.0
 11
315.192
 21
63.307
 31
0.0
  0
LINE
  8
0
 62
     0
 10
315.192
 20
63.307
 30
0.0
 11
315.991
 21
63.307
 31
0.0
  0
LINE
  8
0
 62
     0
 10
315.991
 20
63.307
 30
0.0
 11
315.991
 21
57.507
 31
0.0
  0
LINE
  8
0
 62
     0
 10
315.991
 20
57.507
 30
0.0
 11
315.192
 21
57.507
 31
0.0
  0
LINE
  8
0
 62
     0
 10
315.192
 20
57.507
 30
0.0
 11
315.192
 21
54.4079
 31
0.0
  0
LINE
  8
0
 62
     0
 10
315.192
 20
54.4079
 30
0.0
 11
315.991
 21
54.4079
 31
0.0
  0
LINE
  8
0
 62
     0
 10
315.991
 20
54.4079
 30
0.0
 11
315.991
 21
53.4074
 31
0.0
  0
LINE
  8
0
 62
     0
 10
315.991
 20
53.4074
 30
0.0
 11
329.992
 21
53.4074
 31
0.0
  0
LINE
  8
0
 62
     0
 10
329.992
 20
53.4074
 30
0.0
 11
329.992
 21
54.4079
 31
0.0
  0
LINE
  8
0
 62
     0
 10
329.992
 20
54.4079
 30
0.0
 11
330.791
 21
54.4079
 31
0.0
  0
LINE
  8
0
 62
     0
 10
330.791
 20
54.4079
 30
0.0
 11
330.791
 21
57.507
 31
0.0
  0
LINE
  8
0
 62
     0
 10
330.791
 20
57.507
 30
0.0
 11
329.992
 21
57.507
 31
0.0
  0
LINE
  8
0
 62
     0
 10
329.992
 20
57.507
 30
0.0
 11
329.992
 21
63.307
 31
0.0
  0
LINE
  8
0
 62
     0
 10
329.992
 20
63.307
 30
0.0
 11
330.791
 21
63.307
 31
0.0
  0
LINE
  8
0
 62
     0
 10
330.791
 20
63.307
 30
0.0
 11
330.791
 21
66.4076
 31
0.0
  0
LINE
  8
0
 62
     0
 10
330.791
 20
66.4076
 30
0.0
 11
329.992
 21
66.4076
 31
0.0
  0
LINE
  8
0
 62
     0
 10
329.992
 20
66.4076
 30
0.0
 11
329.992
 21
67.4067
 31
0.0
  0
LINE
  8
0
 62
     0
 10
329.992
 20
67.4067
 30
0.0
 11
315.991
 21
67.4067
 31
0.0
  0
LINE
  8
0
 62
     0
 10
235.219
 20
68.6386
 30
0.0
 11
235.427
 21
67.6603
 31
0.0
  0
LINE
  8
0
 62
     0
 10
235.427
 20
67.6603
 30
0.0
 11
234.644
 21
67.4949
 31
0.0
  0
LINE
  8
0
 62
     0
 10
234.644
 20
67.4949
 30
0.0
 11
235.289
 21
64.462
 31
0.0
  0
LINE
  8
0
 62
     0
 10
235.289
 20
64.462
 30
0.0
 11
236.072
 21
64.6285
 31
0.0
  0
LINE
  8
0
 62
     0
 10
236.072
 20
64.6285
 30
0.0
 11
237.276
 21
58.9552
 31
0.0
  0
LINE
  8
0
 62
     0
 10
237.276
 20
58.9552
 30
0.0
 11
236.495
 21
58.7887
 31
0.0
  0
LINE
  8
0
 62
     0
 10
236.495
 20
58.7887
 30
0.0
 11
237.138
 21
55.7569
 31
0.0
  0
LINE
  8
0
 62
     0
 10
237.138
 20
55.7569
 30
0.0
 11
237.921
 21
55.9223
 31
0.0
  0
LINE
  8
0
 62
     0
 10
237.921
 20
55.9223
 30
0.0
 11
238.129
 21
54.9437
 31
0.0
  0
LINE
  8
0
 62
     0
 10
238.129
 20
54.9437
 30
0.0
 11
251.823
 21
57.8556
 31
0.0
  0
LINE
  8
0
 62
     0
 10
251.823
 20
57.8556
 30
0.0
 11
251.616
 21
58.8338
 31
0.0
  0
LINE
  8
0
 62
     0
 10
251.616
 20
58.8338
 30
0.0
 11
252.397
 21
59.0007
 31
0.0
  0
LINE
  8
0
 62
     0
 10
252.397
 20
59.0007
 30
0.0
 11
251.754
 21
62.0324
 31
0.0
  0
LINE
  8
0
 62
     0
 10
251.754
 20
62.0324
 30
0.0
 11
250.971
 21
61.8656
 31
0.0
  0
LINE
  8
0
 62
     0
 10
250.971
 20
61.8656
 30
0.0
 11
249.765
 21
67.539
 31
0.0
  0
LINE
  8
0
 62
     0
 10
249.765
 20
67.539
 30
0.0
 11
250.548
 21
67.7058
 31
0.0
  0
LINE
  8
0
 62
     0
 10
250.548
 20
67.7058
 30
0.0
 11
249.903
 21
70.7376
 31
0.0
  0
LINE
  8
0
 62
     0
 10
249.903
 20
70.7376
 30
0.0
 11
249.12
 21
70.5707
 31
0.0
  0
LINE
  8
0
 62
     0
 10
249.12
 20
70.5707
 30
0.0
 11
248.912
 21
71.549
 31
0.0
  0
LINE
  8
0
 62
     0
 10
248.912
 20
71.549
 30
0.0
 11
235.219
 21
68.6386
 31
0.0
  0
LINE
  8
0
 62
     0
 10
70.1202
 20
70.7238
 30
0.0
 11
69.336
 21
70.8903
 31
0.0
  0
LINE
  8
0
 62
     0
 10
69.336
 20
70.8903
 30
0.0
 11
68.6925
 21
67.8586
 31
0.0
  0
LINE
  8
0
 62
     0
 10
68.6925
 20
67.8586
 30
0.0
 11
69.4754
 21
67.6921
 31
0.0
  0
LINE
  8
0
 62
     0
 10
69.4754
 20
67.6921
 30
0.0
 11
68.2696
 21
62.0187
 31
0.0
  0
LINE
  8
0
 62
     0
 10
68.2696
 20
62.0187
 30
0.0
 11
67.4867
 21
62.1841
 31
0.0
  0
LINE
  8
0
 62
     0
 10
67.4867
 20
62.1841
 30
0.0
 11
66.8419
 21
59.1524
 31
0.0
  0
LINE
  8
0
 62
     0
 10
66.8419
 20
59.1524
 30
0.0
 11
67.6243
 21
58.9869
 31
0.0
  0
LINE
  8
0
 62
     0
 10
67.6243
 20
58.9869
 30
0.0
 11
67.4165
 21
58.0087
 31
0.0
  0
LINE
  8
0
 62
     0
 10
67.4165
 20
58.0087
 30
0.0
 11
81.11
 21
55.0968
 31
0.0
  0
LINE
  8
0
 62
     0
 10
81.11
 20
55.0968
 30
0.0
 11
81.3181
 21
56.0751
 31
0.0
  0
LINE
  8
0
 62
     0
 10
81.3181
 20
56.0751
 30
0.0
 11
82.102
 21
55.9096
 31
0.0
  0
LINE
  8
0
 62
     0
 10
82.102
 20
55.9096
 30
0.0
 11
82.7458
 21
58.9414
 31
0.0
  0
LINE
  8
0
 62
     0
 10
82.7458
 20
58.9414
 30
0.0
 11
81.963
 21
59.1069
 31
0.0
  0
LINE
  8
0
 62
     0
 10
81.963
 20
59.1069
 30
0.0
 11
83.1688
 21
64.7802
 31
0.0
  0
LINE
  8
0
 62
     0
 10
83.1688
 20
64.7802
 30
0.0
 11
83.9516
 21
64.6148
 31
0.0
  0
LINE
  8
0
 62
     0
 10
83.9516
 20
64.6148
 30
0.0
 11
84.5965
 21
67.6465
 31
0.0
  0
LINE
  8
0
 62
     0
 10
84.5965
 20
67.6465
 30
0.0
 11
83.8137
 21
67.8134
 31
0.0
  0
LINE
  8
0
 62
     0
 10
83.8137
 20
67.8134
 30
0.0
 11
84.0218
 21
68.7917
 31
0.0
  0
LINE
  8
0
 62
     0
 10
84.0218
 20
68.7917
 30
0.0
 11
70.327
 21
71.7021
 31
0.0
  0
LINE
  8
0
 62
     0
 10
70.327
 20
71.7021
 30
0.0
 11
70.1202
 21
70.7238
 31
0.0
  0
LINE
  8
0
 62
     0
 10
14.5259
 20
72.1692
 30
0.0
 11
14.5259
 21
71.1687
 31
0.0
  0
LINE
  8
0
 62
     0
 10
14.5259
 20
71.1687
 30
0.0
 11
13.7253
 21
71.1687
 31
0.0
  0
LINE
  8
0
 62
     0
 10
13.7253
 20
71.1687
 30
0.0
 11
13.7253
 21
68.0695
 31
0.0
  0
LINE
  8
0
 62
     0
 10
13.7253
 20
68.0695
 30
0.0
 11
14.5259
 21
68.0695
 31
0.0
  0
LINE
  8
0
 62
     0
 10
14.5259
 20
68.0695
 30
0.0
 11
14.5259
 21
67.4688
 31
0.0
  0
LINE
  8
0
 62
     0
 10
14.5259
 20
67.4688
 30
0.0
 11
13.0004
 21
67.4688
 31
0.0
  0
LINE
  8
0
 62
     0
 10
13.0004
 20
67.4688
 30
0.0
 11
13.0004
 21
70.6988
 31
0.0
  0
LINE
  8
0
 62
     0
 10
13.0004
 20
70.6988
 30
0.0
 11
11.2751
 21
70.6988
 31
0.0
  0
LINE
  8
0
 62
     0
 10
11.2751
 20
70.6988
 30
0.0
 11
11.2751
 21
71.6195
 31
0.0
  0
LINE
  8
0
 62
     0
 10
11.2751
 20
71.6195
 30
0.0
 11
7.97609
 21
71.6195
 31
0.0
  0
LINE
  8
0
 62
     0
 10
7.97609
 20
71.6195
 30
0.0
 11
7.97609
 21
70.6988
 31
0.0
  0
LINE
  8
0
 62
     0
 10
7.97609
 20
70.6988
 30
0.0
 11
6.2508
 21
70.6988
 31
0.0
  0
LINE
  8
0
 62
     0
 10
6.2508
 20
70.6988
 30
0.0
 11
6.2508
 21
67.4688
 31
0.0
  0
LINE
  8
0
 62
     0
 10
6.2508
 20
67.4688
 30
0.0
 11
5.42533
 21
67.4688
 31
0.0
  0
LINE
  8
0
 62
     0
 10
5.42533
 20
67.4688
 30
0.0
 11
5.42533
 21
64.6698
 31
0.0
  0
LINE
  8
0
 62
     0
 10
5.42533
 20
64.6698
 30
0.0
 11
6.2508
 21
64.6698
 31
0.0
  0
LINE
  8
0
 62
     0
 10
6.2508
 20
64.6698
 30
0.0
 11
6.2508
 21
58.3999
 31
0.0
  0
LINE
  8
0
 62
     0
 10
6.2508
 20
58.3999
 30
0.0
 11
7.97609
 21
58.3999
 31
0.0
  0
LINE
  8
0
 62
     0
 10
7.97609
 20
58.3999
 30
0.0
 11
7.97609
 21
57.4188
 31
0.0
  0
LINE
  8
0
 62
     0
 10
7.97609
 20
57.4188
 30
0.0
 11
11.2751
 21
57.4188
 31
0.0
  0
LINE
  8
0
 62
     0
 10
11.2751
 20
57.4188
 30
0.0
 11
11.2751
 21
58.3999
 31
0.0
  0
LINE
  8
0
 62
     0
 10
11.2751
 20
58.3999
 30
0.0
 11
13.0004
 21
58.3999
 31
0.0
  0
LINE
  8
0
 62
     0
 10
13.0004
 20
58.3999
 30
0.0
 11
13.0004
 21
62.8689
 31
0.0
  0
LINE
  8
0
 62
     0
 10
13.0004
 20
62.8689
 30
0.0
 11
14.5259
 21
62.8689
 31
0.0
  0
LINE
  8
0
 62
     0
 10
14.5259
 20
62.8689
 30
0.0
 11
14.5259
 21
62.2695
 31
0.0
  0
LINE
  8
0
 62
     0
 10
14.5259
 20
62.2695
 30
0.0
 11
13.7253
 21
62.2695
 31
0.0
  0
LINE
  8
0
 62
     0
 10
13.7253
 20
62.2695
 30
0.0
 11
13.7253
 21
59.1689
 31
0.0
  0
LINE
  8
0
 62
     0
 10
13.7253
 20
59.1689
 30
0.0
 11
14.5259
 21
59.1689
 31
0.0
  0
LINE
  8
0
 62
     0
 10
14.5259
 20
59.1689
 30
0.0
 11
14.5259
 21
58.1699
 31
0.0
  0
LINE
  8
0
 62
     0
 10
14.5259
 20
58.1699
 30
0.0
 11
28.5254
 21
58.1699
 31
0.0
  0
LINE
  8
0
 62
     0
 10
28.5254
 20
58.1699
 30
0.0
 11
28.5254
 21
59.1689
 31
0.0
  0
LINE
  8
0
 62
     0
 10
28.5254
 20
59.1689
 30
0.0
 11
29.326
 21
59.1689
 31
0.0
  0
LINE
  8
0
 62
     0
 10
29.326
 20
59.1689
 30
0.0
 11
29.326
 21
62.2695
 31
0.0
  0
LINE
  8
0
 62
     0
 10
29.326
 20
62.2695
 30
0.0
 11
28.5254
 21
62.2695
 31
0.0
  0
LINE
  8
0
 62
     0
 10
28.5254
 20
62.2695
 30
0.0
 11
28.5254
 21
62.8689
 31
0.0
  0
LINE
  8
0
 62
     0
 10
28.5254
 20
62.8689
 30
0.0
 11
30.0509
 21
62.8689
 31
0.0
  0
LINE
  8
0
 62
     0
 10
30.0509
 20
62.8689
 30
0.0
 11
30.0509
 21
58.3999
 31
0.0
  0
LINE
  8
0
 62
     0
 10
30.0509
 20
58.3999
 30
0.0
 11
31.7748
 21
58.3999
 31
0.0
  0
LINE
  8
0
 62
     0
 10
31.7748
 20
58.3999
 30
0.0
 11
31.7748
 21
57.4188
 31
0.0
  0
LINE
  8
0
 62
     0
 10
31.7748
 20
57.4188
 30
0.0
 11
35.0752
 21
57.4188
 31
0.0
  0
LINE
  8
0
 62
     0
 10
35.0752
 20
57.4188
 30
0.0
 11
35.0752
 21
58.3999
 31
0.0
  0
LINE
  8
0
 62
     0
 10
35.0752
 20
58.3999
 30
0.0
 11
36.8004
 21
58.3999
 31
0.0
  0
LINE
  8
0
 62
     0
 10
36.8004
 20
58.3999
 30
0.0
 11
36.8004
 21
64.6698
 31
0.0
  0
LINE
  8
0
 62
     0
 10
36.8004
 20
64.6698
 30
0.0
 11
37.6259
 21
64.6698
 31
0.0
  0
LINE
  8
0
 62
     0
 10
37.6259
 20
64.6698
 30
0.0
 11
37.6259
 21
67.4688
 31
0.0
  0
LINE
  8
0
 62
     0
 10
37.6259
 20
67.4688
 30
0.0
 11
36.8004
 21
67.4688
 31
0.0
  0
LINE
  8
0
 62
     0
 10
36.8004
 20
67.4688
 30
0.0
 11
36.8004
 21
70.6988
 31
0.0
  0
LINE
  8
0
 62
     0
 10
36.8004
 20
70.6988
 30
0.0
 11
35.0752
 21
70.6988
 31
0.0
  0
LINE
  8
0
 62
     0
 10
35.0752
 20
70.6988
 30
0.0
 11
35.0752
 21
71.6195
 31
0.0
  0
LINE
  8
0
 62
     0
 10
35.0752
 20
71.6195
 30
0.0
 11
31.7748
 21
71.6195
 31
0.0
  0
LINE
  8
0
 62
     0
 10
31.7748
 20
71.6195
 30
0.0
 11
31.7748
 21
70.6988
 31
0.0
  0
LINE
  8
0
 62
     0
 10
31.7748
 20
70.6988
 30
0.0
 11
30.0509
 21
70.6988
 31
0.0
  0
LINE
  8
0
 62
     0
 10
30.0509
 20
70.6988
 30
0.0
 11
30.0509
 21
67.4688
 31
0.0
  0
LINE
  8
0
 62
     0
 10
30.0509
 20
67.4688
 30
0.0
 11
28.5254
 21
67.4688
 31
0.0
  0
LINE
  8
0
 62
     0
 10
28.5254
 20
67.4688
 30
0.0
 11
28.5254
 21
68.0695
 31
0.0
  0
LINE
  8
0
 62
     0
 10
28.5254
 20
68.0695
 30
0.0
 11
29.326
 21
68.0695
 31
0.0
  0
LINE
  8
0
 62
     0
 10
29.326
 20
68.0695
 30
0.0
 11
29.326
 21
71.1687
 31
0.0
  0
LINE
  8
0
 62
     0
 10
29.326
 20
71.1687
 30
0.0
 11
28.5254
 21
71.1687
 31
0.0
  0
LINE
  8
0
 62
     0
 10
28.5254
 20
71.1687
 30
0.0
 11
28.5254
 21
72.1692
 31
0.0
  0
LINE
  8
0
 62
     0
 10
28.5254
 20
72.1692
 30
0.0
 11
14.5259
 21
72.1692
 31
0.0
  0
LINE
  8
0
 62
     0
 10
285.036
 20
72.1692
 30
0.0
 11
285.036
 21
71.1687
 31
0.0
  0
LINE
  8
0
 62
     0
 10
285.036
 20
71.1687
 30
0.0
 11
284.236
 21
71.1687
 31
0.0
  0
LINE
  8
0
 62
     0
 10
284.236
 20
71.1687
 30
0.0
 11
284.236
 21
68.0695
 31
0.0
  0
LINE
  8
0
 62
     0
 10
284.236
 20
68.0695
 30
0.0
 11
285.036
 21
68.0695
 31
0.0
  0
LINE
  8
0
 62
     0
 10
285.036
 20
68.0695
 30
0.0
 11
285.036
 21
62.2695
 31
0.0
  0
LINE
  8
0
 62
     0
 10
285.036
 20
62.2695
 30
0.0
 11
284.236
 21
62.2695
 31
0.0
  0
LINE
  8
0
 62
     0
 10
284.236
 20
62.2695
 30
0.0
 11
284.236
 21
59.1689
 31
0.0
  0
LINE
  8
0
 62
     0
 10
284.236
 20
59.1689
 30
0.0
 11
285.036
 21
59.1689
 31
0.0
  0
LINE
  8
0
 62
     0
 10
285.036
 20
59.1689
 30
0.0
 11
285.036
 21
58.1699
 31
0.0
  0
LINE
  8
0
 62
     0
 10
285.036
 20
58.1699
 30
0.0
 11
299.036
 21
58.1699
 31
0.0
  0
LINE
  8
0
 62
     0
 10
299.036
 20
58.1699
 30
0.0
 11
299.036
 21
59.1689
 31
0.0
  0
LINE
  8
0
 62
     0
 10
299.036
 20
59.1689
 30
0.0
 11
299.835
 21
59.1689
 31
0.0
  0
LINE
  8
0
 62
     0
 10
299.835
 20
59.1689
 30
0.0
 11
299.835
 21
62.2695
 31
0.0
  0
LINE
  8
0
 62
     0
 10
299.835
 20
62.2695
 30
0.0
 11
299.036
 21
62.2695
 31
0.0
  0
LINE
  8
0
 62
     0
 10
299.036
 20
62.2695
 30
0.0
 11
299.036
 21
68.0695
 31
0.0
  0
LINE
  8
0
 62
     0
 10
299.036
 20
68.0695
 30
0.0
 11
299.835
 21
68.0695
 31
0.0
  0
LINE
  8
0
 62
     0
 10
299.835
 20
68.0695
 30
0.0
 11
299.835
 21
71.1687
 31
0.0
  0
LINE
  8
0
 62
     0
 10
299.835
 20
71.1687
 30
0.0
 11
299.036
 21
71.1687
 31
0.0
  0
LINE
  8
0
 62
     0
 10
299.036
 20
71.1687
 30
0.0
 11
299.036
 21
72.1692
 31
0.0
  0
LINE
  8
0
 62
     0
 10
299.036
 20
72.1692
 30
0.0
 11
285.036
 21
72.1692
 31
0.0
  0
LINE
  8
0
 62
     0
 10
258.841
 20
72.1692
 30
0.0
 11
258.841
 21
71.1687
 31
0.0
  0
LINE
  8
0
 62
     0
 10
258.841
 20
71.1687
 30
0.0
 11
258.042
 21
71.1687
 31
0.0
  0
LINE
  8
0
 62
     0
 10
258.042
 20
71.1687
 30
0.0
 11
258.042
 21
68.0695
 31
0.0
  0
LINE
  8
0
 62
     0
 10
258.042
 20
68.0695
 30
0.0
 11
258.841
 21
68.0695
 31
0.0
  0
LINE
  8
0
 62
     0
 10
258.841
 20
68.0695
 30
0.0
 11
258.841
 21
62.2695
 31
0.0
  0
LINE
  8
0
 62
     0
 10
258.841
 20
62.2695
 30
0.0
 11
258.042
 21
62.2695
 31
0.0
  0
LINE
  8
0
 62
     0
 10
258.042
 20
62.2695
 30
0.0
 11
258.042
 21
59.1689
 31
0.0
  0
LINE
  8
0
 62
     0
 10
258.042
 20
59.1689
 30
0.0
 11
258.841
 21
59.1689
 31
0.0
  0
LINE
  8
0
 62
     0
 10
258.841
 20
59.1689
 30
0.0
 11
258.841
 21
58.1699
 31
0.0
  0
LINE
  8
0
 62
     0
 10
258.841
 20
58.1699
 30
0.0
 11
272.842
 21
58.1699
 31
0.0
  0
LINE
  8
0
 62
     0
 10
272.842
 20
58.1699
 30
0.0
 11
272.842
 21
59.1689
 31
0.0
  0
LINE
  8
0
 62
     0
 10
272.842
 20
59.1689
 30
0.0
 11
273.641
 21
59.1689
 31
0.0
  0
LINE
  8
0
 62
     0
 10
273.641
 20
59.1689
 30
0.0
 11
273.641
 21
62.2695
 31
0.0
  0
LINE
  8
0
 62
     0
 10
273.641
 20
62.2695
 30
0.0
 11
272.842
 21
62.2695
 31
0.0
  0
LINE
  8
0
 62
     0
 10
272.842
 20
62.2695
 30
0.0
 11
272.842
 21
68.0695
 31
0.0
  0
LINE
  8
0
 62
     0
 10
272.842
 20
68.0695
 30
0.0
 11
273.641
 21
68.0695
 31
0.0
  0
LINE
  8
0
 62
     0
 10
273.641
 20
68.0695
 30
0.0
 11
273.641
 21
71.1687
 31
0.0
  0
LINE
  8
0
 62
     0
 10
273.641
 20
71.1687
 30
0.0
 11
272.842
 21
71.1687
 31
0.0
  0
LINE
  8
0
 62
     0
 10
272.842
 20
71.1687
 30
0.0
 11
272.842
 21
72.1692
 31
0.0
  0
LINE
  8
0
 62
     0
 10
272.842
 20
72.1692
 30
0.0
 11
258.841
 21
72.1692
 31
0.0
  0
LINE
  8
0
 62
     0
 10
45.4822
 20
72.1692
 30
0.0
 11
45.4822
 21
71.1687
 31
0.0
  0
LINE
  8
0
 62
     0
 10
45.4822
 20
71.1687
 30
0.0
 11
44.6814
 21
71.1687
 31
0.0
  0
LINE
  8
0
 62
     0
 10
44.6814
 20
71.1687
 30
0.0
 11
44.6814
 21
68.0695
 31
0.0
  0
LINE
  8
0
 62
     0
 10
44.6814
 20
68.0695
 30
0.0
 11
45.4822
 21
68.0695
 31
0.0
  0
LINE
  8
0
 62
     0
 10
45.4822
 20
68.0695
 30
0.0
 11
45.4822
 21
62.2695
 31
0.0
  0
LINE
  8
0
 62
     0
 10
45.4822
 20
62.2695
 30
0.0
 11
44.6814
 21
62.2695
 31
0.0
  0
LINE
  8
0
 62
     0
 10
44.6814
 20
62.2695
 30
0.0
 11
44.6814
 21
59.1689
 31
0.0
  0
LINE
  8
0
 62
     0
 10
44.6814
 20
59.1689
 30
0.0
 11
45.4822
 21
59.1689
 31
0.0
  0
LINE
  8
0
 62
     0
 10
45.4822
 20
59.1689
 30
0.0
 11
45.4822
 21
58.1699
 31
0.0
  0
LINE
  8
0
 62
     0
 10
45.4822
 20
58.1699
 30
0.0
 11
59.4815
 21
58.1699
 31
0.0
  0
LINE
  8
0
 62
     0
 10
59.4815
 20
58.1699
 30
0.0
 11
59.4815
 21
59.1689
 31
0.0
  0
LINE
  8
0
 62
     0
 10
59.4815
 20
59.1689
 30
0.0
 11
60.2809
 21
59.1689
 31
0.0
  0
LINE
  8
0
 62
     0
 10
60.2809
 20
59.1689
 30
0.0
 11
60.2809
 21
62.2695
 31
0.0
  0
LINE
  8
0
 62
     0
 10
60.2809
 20
62.2695
 30
0.0
 11
59.4815
 21
62.2695
 31
0.0
  0
LINE
  8
0
 62
     0
 10
59.4815
 20
62.2695
 30
0.0
 11
59.4815
 21
68.0695
 31
0.0
  0
LINE
  8
0
 62
     0
 10
59.4815
 20
68.0695
 30
0.0
 11
60.2809
 21
68.0695
 31
0.0
  0
LINE
  8
0
 62
     0
 10
60.2809
 20
68.0695
 30
0.0
 11
60.2809
 21
71.1687
 31
0.0
  0
LINE
  8
0
 62
     0
 10
60.2809
 20
71.1687
 30
0.0
 11
59.4815
 21
71.1687
 31
0.0
  0
LINE
  8
0
 62
     0
 10
59.4815
 20
71.1687
 30
0.0
 11
59.4815
 21
72.1692
 31
0.0
  0
LINE
  8
0
 62
     0
 10
59.4815
 20
72.1692
 30
0.0
 11
45.4822
 21
72.1692
 31
0.0
  0
LINE
  8
0
 62
     0
 10
170.699
 20
74.4001
 30
0.0
 11
170.907
 21
73.4219
 31
0.0
  0
LINE
  8
0
 62
     0
 10
170.907
 20
73.4219
 30
0.0
 11
170.123
 21
73.255
 31
0.0
  0
LINE
  8
0
 62
     0
 10
170.123
 20
73.255
 30
0.0
 11
170.768
 21
70.2236
 31
0.0
  0
LINE
  8
0
 62
     0
 10
170.768
 20
70.2236
 30
0.0
 11
171.551
 21
70.3887
 31
0.0
  0
LINE
  8
0
 62
     0
 10
171.551
 20
70.3887
 30
0.0
 11
172.756
 21
64.7167
 31
0.0
  0
LINE
  8
0
 62
     0
 10
172.756
 20
64.7167
 30
0.0
 11
171.975
 21
64.5502
 31
0.0
  0
LINE
  8
0
 62
     0
 10
171.975
 20
64.5502
 30
0.0
 11
172.619
 21
61.517
 31
0.0
  0
LINE
  8
0
 62
     0
 10
172.619
 20
61.517
 30
0.0
 11
173.401
 21
61.6839
 31
0.0
  0
LINE
  8
0
 62
     0
 10
173.401
 20
61.6839
 30
0.0
 11
173.609
 21
60.7067
 31
0.0
  0
LINE
  8
0
 62
     0
 10
173.609
 20
60.7067
 30
0.0
 11
187.303
 21
63.6157
 31
0.0
  0
LINE
  8
0
 62
     0
 10
187.303
 20
63.6157
 30
0.0
 11
187.095
 21
64.5954
 31
0.0
  0
LINE
  8
0
 62
     0
 10
187.095
 20
64.5954
 30
0.0
 11
187.877
 21
64.7608
 31
0.0
  0
LINE
  8
0
 62
     0
 10
187.877
 20
64.7608
 30
0.0
 11
187.234
 21
67.794
 31
0.0
  0
LINE
  8
0
 62
     0
 10
187.234
 20
67.794
 30
0.0
 11
186.45
 21
67.6271
 31
0.0
  0
LINE
  8
0
 62
     0
 10
186.45
 20
67.6271
 30
0.0
 11
185.244
 21
73.3005
 31
0.0
  0
LINE
  8
0
 62
     0
 10
185.244
 20
73.3005
 30
0.0
 11
186.027
 21
73.466
 31
0.0
  0
LINE
  8
0
 62
     0
 10
186.027
 20
73.466
 30
0.0
 11
185.382
 21
76.4992
 31
0.0
  0
LINE
  8
0
 62
     0
 10
185.382
 20
76.4992
 30
0.0
 11
184.6
 21
76.3323
 31
0.0
  0
LINE
  8
0
 62
     0
 10
184.6
 20
76.3323
 30
0.0
 11
184.393
 21
77.3105
 31
0.0
  0
LINE
  8
0
 62
     0
 10
184.393
 20
77.3105
 30
0.0
 11
170.699
 21
74.4001
 31
0.0
  0
LINE
  8
0
 62
     0
 10
120.665
 20
79.4551
 30
0.0
 11
119.881
 21
79.623
 31
0.0
  0
LINE
  8
0
 62
     0
 10
119.881
 20
79.623
 30
0.0
 11
119.237
 21
76.5898
 31
0.0
  0
LINE
  8
0
 62
     0
 10
119.237
 20
76.5898
 30
0.0
 11
120.019
 21
76.4233
 31
0.0
  0
LINE
  8
0
 62
     0
 10
120.019
 20
76.4233
 30
0.0
 11
118.814
 21
70.7499
 31
0.0
  0
LINE
  8
0
 62
     0
 10
118.814
 20
70.7499
 30
0.0
 11
118.032
 21
70.9164
 31
0.0
  0
LINE
  8
0
 62
     0
 10
118.032
 20
70.9164
 30
0.0
 11
117.387
 21
67.885
 31
0.0
  0
LINE
  8
0
 62
     0
 10
117.387
 20
67.885
 30
0.0
 11
118.17
 21
67.7182
 31
0.0
  0
LINE
  8
0
 62
     0
 10
118.17
 20
67.7182
 30
0.0
 11
117.961
 21
66.7399
 31
0.0
  0
LINE
  8
0
 62
     0
 10
117.961
 20
66.7399
 30
0.0
 11
131.655
 21
63.8295
 31
0.0
  0
LINE
  8
0
 62
     0
 10
131.655
 20
63.8295
 30
0.0
 11
131.863
 21
64.8077
 31
0.0
  0
LINE
  8
0
 62
     0
 10
131.863
 20
64.8077
 30
0.0
 11
132.646
 21
64.6409
 31
0.0
  0
LINE
  8
0
 62
     0
 10
132.646
 20
64.6409
 30
0.0
 11
133.291
 21
67.6741
 31
0.0
  0
LINE
  8
0
 62
     0
 10
133.291
 20
67.6741
 30
0.0
 11
132.508
 21
67.8395
 31
0.0
  0
LINE
  8
0
 62
     0
 10
132.508
 20
67.8395
 30
0.0
 11
133.714
 21
73.5129
 31
0.0
  0
LINE
  8
0
 62
     0
 10
133.714
 20
73.5129
 30
0.0
 11
134.497
 21
73.346
 31
0.0
  0
LINE
  8
0
 62
     0
 10
134.497
 20
73.346
 30
0.0
 11
135.141
 21
76.3778
 31
0.0
  0
LINE
  8
0
 62
     0
 10
135.141
 20
76.3778
 30
0.0
 11
134.359
 21
76.5457
 31
0.0
  0
LINE
  8
0
 62
     0
 10
134.359
 20
76.5457
 30
0.0
 11
134.567
 21
77.5229
 31
0.0
  0
LINE
  8
0
 62
     0
 10
134.567
 20
77.5229
 30
0.0
 11
120.872
 21
80.4333
 31
0.0
  0
LINE
  8
0
 62
     0
 10
120.872
 20
80.4333
 30
0.0
 11
120.665
 21
79.4551
 31
0.0
  0
LINE
  8
0
 62
     0
 10
189.333
 20
78.3608
 30
0.0
 11
189.539
 21
77.3825
 31
0.0
  0
LINE
  8
0
 62
     0
 10
189.539
 20
77.3825
 30
0.0
 11
188.758
 21
77.2171
 31
0.0
  0
LINE
  8
0
 62
     0
 10
188.758
 20
77.2171
 30
0.0
 11
189.402
 21
74.1839
 31
0.0
  0
LINE
  8
0
 62
     0
 10
189.402
 20
74.1839
 30
0.0
 11
190.184
 21
74.3507
 31
0.0
  0
LINE
  8
0
 62
     0
 10
190.184
 20
74.3507
 30
0.0
 11
191.39
 21
68.6774
 31
0.0
  0
LINE
  8
0
 62
     0
 10
191.39
 20
68.6774
 30
0.0
 11
190.608
 21
68.5105
 31
0.0
  0
LINE
  8
0
 62
     0
 10
190.608
 20
68.5105
 30
0.0
 11
191.252
 21
65.4787
 31
0.0
  0
LINE
  8
0
 62
     0
 10
191.252
 20
65.4787
 30
0.0
 11
192.035
 21
65.6456
 31
0.0
  0
LINE
  8
0
 62
     0
 10
192.035
 20
65.6456
 30
0.0
 11
192.242
 21
64.6659
 31
0.0
  0
LINE
  8
0
 62
     0
 10
192.242
 20
64.6659
 30
0.0
 11
205.937
 21
67.5778
 31
0.0
  0
LINE
  8
0
 62
     0
 10
205.937
 20
67.5778
 30
0.0
 11
205.729
 21
68.556
 31
0.0
  0
LINE
  8
0
 62
     0
 10
205.729
 20
68.556
 30
0.0
 11
206.512
 21
68.7229
 31
0.0
  0
LINE
  8
0
 62
     0
 10
206.512
 20
68.7229
 30
0.0
 11
205.867
 21
71.7543
 31
0.0
  0
LINE
  8
0
 62
     0
 10
205.867
 20
71.7543
 30
0.0
 11
205.085
 21
71.5892
 31
0.0
  0
LINE
  8
0
 62
     0
 10
205.085
 20
71.5892
 30
0.0
 11
203.878
 21
77.2612
 31
0.0
  0
LINE
  8
0
 62
     0
 10
203.878
 20
77.2612
 30
0.0
 11
204.662
 21
77.4277
 31
0.0
  0
LINE
  8
0
 62
     0
 10
204.662
 20
77.4277
 30
0.0
 11
204.017
 21
80.4594
 31
0.0
  0
LINE
  8
0
 62
     0
 10
204.017
 20
80.4594
 30
0.0
 11
203.235
 21
80.2929
 31
0.0
  0
LINE
  8
0
 62
     0
 10
203.235
 20
80.2929
 30
0.0
 11
203.026
 21
81.2712
 31
0.0
  0
LINE
  8
0
 62
     0
 10
203.026
 20
81.2712
 30
0.0
 11
189.333
 21
78.3608
 31
0.0
  0
LINE
  8
0
 62
     0
 10
102.03
 20
83.4168
 30
0.0
 11
101.249
 21
83.5822
 31
0.0
  0
LINE
  8
0
 62
     0
 10
101.249
 20
83.5822
 30
0.0
 11
100.604
 21
80.5505
 31
0.0
  0
LINE
  8
0
 62
     0
 10
100.604
 20
80.5505
 30
0.0
 11
101.387
 21
80.3836
 31
0.0
  0
LINE
  8
0
 62
     0
 10
101.387
 20
80.3836
 30
0.0
 11
100.181
 21
74.7116
 31
0.0
  0
LINE
  8
0
 62
     0
 10
100.181
 20
74.7116
 30
0.0
 11
99.398
 21
74.8771
 31
0.0
  0
LINE
  8
0
 62
     0
 10
99.398
 20
74.8771
 30
0.0
 11
98.7531
 21
71.8453
 31
0.0
  0
LINE
  8
0
 62
     0
 10
98.7531
 20
71.8453
 30
0.0
 11
99.5355
 21
71.6788
 31
0.0
  0
LINE
  8
0
 62
     0
 10
99.5355
 20
71.6788
 30
0.0
 11
99.3278
 21
70.7002
 31
0.0
  0
LINE
  8
0
 62
     0
 10
99.3278
 20
70.7002
 30
0.0
 11
113.021
 21
67.7898
 31
0.0
  0
LINE
  8
0
 62
     0
 10
113.021
 20
67.7898
 30
0.0
 11
113.229
 21
68.7684
 31
0.0
  0
LINE
  8
0
 62
     0
 10
113.229
 20
68.7684
 30
0.0
 11
114.012
 21
68.6015
 31
0.0
  0
LINE
  8
0
 62
     0
 10
114.012
 20
68.6015
 30
0.0
 11
114.657
 21
71.6333
 31
0.0
  0
LINE
  8
0
 62
     0
 10
114.657
 20
71.6333
 30
0.0
 11
113.874
 21
71.7998
 31
0.0
  0
LINE
  8
0
 62
     0
 10
113.874
 20
71.7998
 30
0.0
 11
115.08
 21
77.4732
 31
0.0
  0
LINE
  8
0
 62
     0
 10
115.08
 20
77.4732
 30
0.0
 11
115.863
 21
77.3081
 31
0.0
  0
LINE
  8
0
 62
     0
 10
115.863
 20
77.3081
 30
0.0
 11
116.508
 21
80.3395
 31
0.0
  0
LINE
  8
0
 62
     0
 10
116.508
 20
80.3395
 30
0.0
 11
115.725
 21
80.5049
 31
0.0
  0
LINE
  8
0
 62
     0
 10
115.725
 20
80.5049
 30
0.0
 11
115.933
 21
81.4836
 31
0.0
  0
LINE
  8
0
 62
     0
 10
115.933
 20
81.4836
 30
0.0
 11
102.238
 21
84.394
 31
0.0
  0
LINE
  8
0
 62
     0
 10
102.238
 20
84.394
 30
0.0
 11
102.03
 21
83.4168
 31
0.0
  0
LINE
  8
0
 62
     0
 10
207.965
 20
82.3214
 30
0.0
 11
208.173
 21
81.3428
 31
0.0
  0
LINE
  8
0
 62
     0
 10
208.173
 20
81.3428
 30
0.0
 11
207.392
 21
81.1773
 31
0.0
  0
LINE
  8
0
 62
     0
 10
207.392
 20
81.1773
 30
0.0
 11
208.036
 21
78.1445
 31
0.0
  0
LINE
  8
0
 62
     0
 10
208.036
 20
78.1445
 30
0.0
 11
208.818
 21
78.311
 31
0.0
  0
LINE
  8
0
 62
     0
 10
208.818
 20
78.311
 30
0.0
 11
210.024
 21
72.6376
 31
0.0
  0
LINE
  8
0
 62
     0
 10
210.024
 20
72.6376
 30
0.0
 11
209.241
 21
72.4711
 31
0.0
  0
LINE
  8
0
 62
     0
 10
209.241
 20
72.4711
 30
0.0
 11
209.886
 21
69.4394
 31
0.0
  0
LINE
  8
0
 62
     0
 10
209.886
 20
69.4394
 30
0.0
 11
210.669
 21
69.6062
 31
0.0
  0
LINE
  8
0
 62
     0
 10
210.669
 20
69.6062
 30
0.0
 11
210.877
 21
68.6276
 31
0.0
  0
LINE
  8
0
 62
     0
 10
210.877
 20
68.6276
 30
0.0
 11
224.571
 21
71.538
 31
0.0
  0
LINE
  8
0
 62
     0
 10
224.571
 20
71.538
 30
0.0
 11
224.362
 21
72.5166
 31
0.0
  0
LINE
  8
0
 62
     0
 10
224.362
 20
72.5166
 30
0.0
 11
225.145
 21
72.6817
 31
0.0
  0
LINE
  8
0
 62
     0
 10
225.145
 20
72.6817
 30
0.0
 11
224.5
 21
75.7149
 31
0.0
  0
LINE
  8
0
 62
     0
 10
224.5
 20
75.7149
 30
0.0
 11
223.719
 21
75.5481
 31
0.0
  0
LINE
  8
0
 62
     0
 10
223.719
 20
75.5481
 30
0.0
 11
222.512
 21
81.2229
 31
0.0
  0
LINE
  8
0
 62
     0
 10
222.512
 20
81.2229
 30
0.0
 11
223.295
 21
81.3883
 31
0.0
  0
LINE
  8
0
 62
     0
 10
223.295
 20
81.3883
 30
0.0
 11
222.651
 21
84.4201
 31
0.0
  0
LINE
  8
0
 62
     0
 10
222.651
 20
84.4201
 30
0.0
 11
221.867
 21
84.2546
 31
0.0
  0
LINE
  8
0
 62
     0
 10
221.867
 20
84.2546
 30
0.0
 11
221.659
 21
85.2329
 31
0.0
  0
LINE
  8
0
 62
     0
 10
221.659
 20
85.2329
 30
0.0
 11
207.965
 21
82.3214
 31
0.0
  0
LINE
  8
0
 62
     0
 10
83.396
 20
87.3774
 30
0.0
 11
82.6149
 21
87.5439
 31
0.0
  0
LINE
  8
0
 62
     0
 10
82.6149
 20
87.5439
 30
0.0
 11
81.9697
 21
84.5111
 31
0.0
  0
LINE
  8
0
 62
     0
 10
81.9697
 20
84.5111
 30
0.0
 11
82.7525
 21
84.3456
 31
0.0
  0
LINE
  8
0
 62
     0
 10
82.7525
 20
84.3456
 30
0.0
 11
81.5467
 21
78.6709
 31
0.0
  0
LINE
  8
0
 62
     0
 10
81.5467
 20
78.6709
 30
0.0
 11
80.7642
 21
78.8388
 31
0.0
  0
LINE
  8
0
 62
     0
 10
80.7642
 20
78.8388
 30
0.0
 11
80.119
 21
75.8059
 31
0.0
  0
LINE
  8
0
 62
     0
 10
80.119
 20
75.8059
 30
0.0
 11
80.9018
 21
75.6391
 31
0.0
  0
LINE
  8
0
 62
     0
 10
80.9018
 20
75.6391
 30
0.0
 11
80.6951
 21
74.6608
 31
0.0
  0
LINE
  8
0
 62
     0
 10
80.6951
 20
74.6608
 30
0.0
 11
94.3889
 21
71.7504
 31
0.0
  0
LINE
  8
0
 62
     0
 10
94.3889
 20
71.7504
 30
0.0
 11
94.5967
 21
72.7287
 31
0.0
  0
LINE
  8
0
 62
     0
 10
94.5967
 20
72.7287
 30
0.0
 11
95.3781
 21
72.5622
 31
0.0
  0
LINE
  8
0
 62
     0
 10
95.3781
 20
72.5622
 30
0.0
 11
96.0229
 21
75.595
 31
0.0
  0
LINE
  8
0
 62
     0
 10
96.0229
 20
75.595
 30
0.0
 11
95.2405
 21
75.7618
 31
0.0
  0
LINE
  8
0
 62
     0
 10
95.2405
 20
75.7618
 30
0.0
 11
96.4463
 21
81.4338
 31
0.0
  0
LINE
  8
0
 62
     0
 10
96.4463
 20
81.4338
 30
0.0
 11
97.2287
 21
81.2669
 31
0.0
  0
LINE
  8
0
 62
     0
 10
97.2287
 20
81.2669
 30
0.0
 11
97.874
 21
84.3001
 31
0.0
  0
LINE
  8
0
 62
     0
 10
97.874
 20
84.3001
 30
0.0
 11
97.0911
 21
84.467
 31
0.0
  0
LINE
  8
0
 62
     0
 10
97.0911
 20
84.467
 30
0.0
 11
97.2993
 21
85.4438
 31
0.0
  0
LINE
  8
0
 62
     0
 10
97.2993
 20
85.4438
 30
0.0
 11
83.6041
 21
88.3557
 31
0.0
  0
LINE
  8
0
 62
     0
 10
83.6041
 20
88.3557
 30
0.0
 11
83.396
 21
87.3774
 31
0.0
  0
LINE
  8
0
 62
     0
 10
226.599
 20
86.2817
 30
0.0
 11
226.807
 21
85.3048
 31
0.0
  0
LINE
  8
0
 62
     0
 10
226.807
 20
85.3048
 30
0.0
 11
226.024
 21
85.138
 31
0.0
  0
LINE
  8
0
 62
     0
 10
226.024
 20
85.138
 30
0.0
 11
226.669
 21
82.1048
 31
0.0
  0
LINE
  8
0
 62
     0
 10
226.669
 20
82.1048
 30
0.0
 11
227.452
 21
82.2717
 31
0.0
  0
LINE
  8
0
 62
     0
 10
227.452
 20
82.2717
 30
0.0
 11
228.658
 21
76.5983
 31
0.0
  0
LINE
  8
0
 62
     0
 10
228.658
 20
76.5983
 30
0.0
 11
227.875
 21
76.4328
 31
0.0
  0
LINE
  8
0
 62
     0
 10
227.875
 20
76.4328
 30
0.0
 11
228.52
 21
73.4
 31
0.0
  0
LINE
  8
0
 62
     0
 10
228.52
 20
73.4
 30
0.0
 11
229.303
 21
73.5665
 31
0.0
  0
LINE
  8
0
 62
     0
 10
229.303
 20
73.5665
 30
0.0
 11
229.511
 21
72.5883
 31
0.0
  0
LINE
  8
0
 62
     0
 10
229.511
 20
72.5883
 30
0.0
 11
243.204
 21
75.5001
 31
0.0
  0
LINE
  8
0
 62
     0
 10
243.204
 20
75.5001
 30
0.0
 11
242.997
 21
76.4769
 31
0.0
  0
LINE
  8
0
 62
     0
 10
242.997
 20
76.4769
 30
0.0
 11
243.779
 21
76.6438
 31
0.0
  0
LINE
  8
0
 62
     0
 10
243.779
 20
76.6438
 30
0.0
 11
243.134
 21
79.6756
 31
0.0
  0
LINE
  8
0
 62
     0
 10
243.134
 20
79.6756
 30
0.0
 11
242.351
 21
79.5101
 31
0.0
  0
LINE
  8
0
 62
     0
 10
242.351
 20
79.5101
 30
0.0
 11
241.146
 21
85.1821
 31
0.0
  0
LINE
  8
0
 62
     0
 10
241.146
 20
85.1821
 30
0.0
 11
241.928
 21
85.3489
 31
0.0
  0
LINE
  8
0
 62
     0
 10
241.928
 20
85.3489
 30
0.0
 11
241.283
 21
88.3818
 31
0.0
  0
LINE
  8
0
 62
     0
 10
241.283
 20
88.3818
 30
0.0
 11
240.502
 21
88.2153
 31
0.0
  0
LINE
  8
0
 62
     0
 10
240.502
 20
88.2153
 30
0.0
 11
240.294
 21
89.1935
 31
0.0
  0
LINE
  8
0
 62
     0
 10
240.294
 20
89.1935
 30
0.0
 11
226.599
 21
86.2817
 31
0.0
  0
LINE
  8
0
 62
     0
 10
64.7637
 20
91.3377
 30
0.0
 11
63.9808
 21
91.5046
 31
0.0
  0
LINE
  8
0
 62
     0
 10
63.9808
 20
91.5046
 30
0.0
 11
63.336
 21
88.4728
 31
0.0
  0
LINE
  8
0
 62
     0
 10
63.336
 20
88.4728
 30
0.0
 11
64.1188
 21
88.3059
 31
0.0
  0
LINE
  8
0
 62
     0
 10
64.1188
 20
88.3059
 30
0.0
 11
62.913
 21
82.6325
 31
0.0
  0
LINE
  8
0
 62
     0
 10
62.913
 20
82.6325
 30
0.0
 11
62.1302
 21
82.798
 31
0.0
  0
LINE
  8
0
 62
     0
 10
62.1302
 20
82.798
 30
0.0
 11
61.4853
 21
79.7662
 31
0.0
  0
LINE
  8
0
 62
     0
 10
61.4853
 20
79.7662
 30
0.0
 11
62.2681
 21
79.6011
 31
0.0
  0
LINE
  8
0
 62
     0
 10
62.2681
 20
79.6011
 30
0.0
 11
62.06
 21
78.6225
 31
0.0
  0
LINE
  8
0
 62
     0
 10
62.06
 20
78.6225
 30
0.0
 11
75.7548
 21
75.7107
 31
0.0
  0
LINE
  8
0
 62
     0
 10
75.7548
 20
75.7107
 30
0.0
 11
75.9629
 21
76.6893
 31
0.0
  0
LINE
  8
0
 62
     0
 10
75.9629
 20
76.6893
 30
0.0
 11
76.7443
 21
76.5239
 31
0.0
  0
LINE
  8
0
 62
     0
 10
76.7443
 20
76.5239
 30
0.0
 11
77.3892
 21
79.5556
 31
0.0
  0
LINE
  8
0
 62
     0
 10
77.3892
 20
79.5556
 30
0.0
 11
76.6064
 21
79.7207
 31
0.0
  0
LINE
  8
0
 62
     0
 10
76.6064
 20
79.7207
 30
0.0
 11
77.8122
 21
85.3944
 31
0.0
  0
LINE
  8
0
 62
     0
 10
77.8122
 20
85.3944
 30
0.0
 11
78.595
 21
85.229
 31
0.0
  0
LINE
  8
0
 62
     0
 10
78.595
 20
85.229
 30
0.0
 11
79.2399
 21
88.2608
 31
0.0
  0
LINE
  8
0
 62
     0
 10
79.2399
 20
88.2608
 30
0.0
 11
78.4571
 21
88.4273
 31
0.0
  0
LINE
  8
0
 62
     0
 10
78.4571
 20
88.4273
 30
0.0
 11
78.6652
 21
89.4059
 31
0.0
  0
LINE
  8
0
 62
     0
 10
78.6652
 20
89.4059
 30
0.0
 11
64.9718
 21
92.3163
 31
0.0
  0
LINE
  8
0
 62
     0
 10
64.9718
 20
92.3163
 30
0.0
 11
64.7637
 21
91.3377
 31
0.0
  0
LINE
  8
0
 62
     0
 10
299.322
 20
91.2192
 30
0.0
 11
299.322
 21
90.2187
 31
0.0
  0
LINE
  8
0
 62
     0
 10
299.322
 20
90.2187
 30
0.0
 11
298.523
 21
90.2187
 31
0.0
  0
LINE
  8
0
 62
     0
 10
298.523
 20
90.2187
 30
0.0
 11
298.523
 21
87.1195
 31
0.0
  0
LINE
  8
0
 62
     0
 10
298.523
 20
87.1195
 30
0.0
 11
299.322
 21
87.1195
 31
0.0
  0
LINE
  8
0
 62
     0
 10
299.322
 20
87.1195
 30
0.0
 11
299.322
 21
86.5188
 31
0.0
  0
LINE
  8
0
 62
     0
 10
299.322
 20
86.5188
 30
0.0
 11
297.797
 21
86.5188
 31
0.0
  0
LINE
  8
0
 62
     0
 10
297.797
 20
86.5188
 30
0.0
 11
297.797
 21
89.7488
 31
0.0
  0
LINE
  8
0
 62
     0
 10
297.797
 20
89.7488
 30
0.0
 11
296.073
 21
89.7488
 31
0.0
  0
LINE
  8
0
 62
     0
 10
296.073
 20
89.7488
 30
0.0
 11
296.073
 21
90.6695
 31
0.0
  0
LINE
  8
0
 62
     0
 10
296.073
 20
90.6695
 30
0.0
 11
292.772
 21
90.6695
 31
0.0
  0
LINE
  8
0
 62
     0
 10
292.772
 20
90.6695
 30
0.0
 11
292.772
 21
89.7488
 31
0.0
  0
LINE
  8
0
 62
     0
 10
292.772
 20
89.7488
 30
0.0
 11
291.047
 21
89.7488
 31
0.0
  0
LINE
  8
0
 62
     0
 10
291.047
 20
89.7488
 30
0.0
 11
291.047
 21
86.5188
 31
0.0
  0
LINE
  8
0
 62
     0
 10
291.047
 20
86.5188
 30
0.0
 11
290.223
 21
86.5188
 31
0.0
  0
LINE
  8
0
 62
     0
 10
290.223
 20
86.5188
 30
0.0
 11
290.223
 21
83.7198
 31
0.0
  0
LINE
  8
0
 62
     0
 10
290.223
 20
83.7198
 30
0.0
 11
291.047
 21
83.7198
 31
0.0
  0
LINE
  8
0
 62
     0
 10
291.047
 20
83.7198
 30
0.0
 11
291.047
 21
77.4499
 31
0.0
  0
LINE
  8
0
 62
     0
 10
291.047
 20
77.4499
 30
0.0
 11
292.772
 21
77.4499
 31
0.0
  0
LINE
  8
0
 62
     0
 10
292.772
 20
77.4499
 30
0.0
 11
292.772
 21
76.4688
 31
0.0
  0
LINE
  8
0
 62
     0
 10
292.772
 20
76.4688
 30
0.0
 11
296.073
 21
76.4688
 31
0.0
  0
LINE
  8
0
 62
     0
 10
296.073
 20
76.4688
 30
0.0
 11
296.073
 21
77.4499
 31
0.0
  0
LINE
  8
0
 62
     0
 10
296.073
 20
77.4499
 30
0.0
 11
297.797
 21
77.4499
 31
0.0
  0
LINE
  8
0
 62
     0
 10
297.797
 20
77.4499
 30
0.0
 11
297.797
 21
81.9189
 31
0.0
  0
LINE
  8
0
 62
     0
 10
297.797
 20
81.9189
 30
0.0
 11
299.322
 21
81.9189
 31
0.0
  0
LINE
  8
0
 62
     0
 10
299.322
 20
81.9189
 30
0.0
 11
299.322
 21
81.3195
 31
0.0
  0
LINE
  8
0
 62
     0
 10
299.322
 20
81.3195
 30
0.0
 11
298.523
 21
81.3195
 31
0.0
  0
LINE
  8
0
 62
     0
 10
298.523
 20
81.3195
 30
0.0
 11
298.523
 21
78.219
 31
0.0
  0
LINE
  8
0
 62
     0
 10
298.523
 20
78.219
 30
0.0
 11
299.322
 21
78.219
 31
0.0
  0
LINE
  8
0
 62
     0
 10
299.322
 20
78.219
 30
0.0
 11
299.322
 21
77.2199
 31
0.0
  0
LINE
  8
0
 62
     0
 10
299.322
 20
77.2199
 30
0.0
 11
313.323
 21
77.2199
 31
0.0
  0
LINE
  8
0
 62
     0
 10
313.323
 20
77.2199
 30
0.0
 11
313.323
 21
78.219
 31
0.0
  0
LINE
  8
0
 62
     0
 10
313.323
 20
78.219
 30
0.0
 11
314.123
 21
78.219
 31
0.0
  0
LINE
  8
0
 62
     0
 10
314.123
 20
78.219
 30
0.0
 11
314.123
 21
81.3195
 31
0.0
  0
LINE
  8
0
 62
     0
 10
314.123
 20
81.3195
 30
0.0
 11
313.323
 21
81.3195
 31
0.0
  0
LINE
  8
0
 62
     0
 10
313.323
 20
81.3195
 30
0.0
 11
313.323
 21
81.9189
 31
0.0
  0
LINE
  8
0
 62
     0
 10
313.323
 20
81.9189
 30
0.0
 11
314.847
 21
81.9189
 31
0.0
  0
LINE
  8
0
 62
     0
 10
314.847
 20
81.9189
 30
0.0
 11
314.847
 21
77.4499
 31
0.0
  0
LINE
  8
0
 62
     0
 10
314.847
 20
77.4499
 30
0.0
 11
316.573
 21
77.4499
 31
0.0
  0
LINE
  8
0
 62
     0
 10
316.573
 20
77.4499
 30
0.0
 11
316.573
 21
76.4688
 31
0.0
  0
LINE
  8
0
 62
     0
 10
316.573
 20
76.4688
 30
0.0
 11
319.873
 21
76.4688
 31
0.0
  0
LINE
  8
0
 62
     0
 10
319.873
 20
76.4688
 30
0.0
 11
319.873
 21
77.4499
 31
0.0
  0
LINE
  8
0
 62
     0
 10
319.873
 20
77.4499
 30
0.0
 11
321.597
 21
77.4499
 31
0.0
  0
LINE
  8
0
 62
     0
 10
321.597
 20
77.4499
 30
0.0
 11
321.597
 21
83.7198
 31
0.0
  0
LINE
  8
0
 62
     0
 10
321.597
 20
83.7198
 30
0.0
 11
322.422
 21
83.7198
 31
0.0
  0
LINE
  8
0
 62
     0
 10
322.422
 20
83.7198
 30
0.0
 11
322.422
 21
86.5188
 31
0.0
  0
LINE
  8
0
 62
     0
 10
322.422
 20
86.5188
 30
0.0
 11
321.597
 21
86.5188
 31
0.0
  0
LINE
  8
0
 62
     0
 10
321.597
 20
86.5188
 30
0.0
 11
321.597
 21
89.7488
 31
0.0
  0
LINE
  8
0
 62
     0
 10
321.597
 20
89.7488
 30
0.0
 11
319.873
 21
89.7488
 31
0.0
  0
LINE
  8
0
 62
     0
 10
319.873
 20
89.7488
 30
0.0
 11
319.873
 21
90.6695
 31
0.0
  0
LINE
  8
0
 62
     0
 10
319.873
 20
90.6695
 30
0.0
 11
316.573
 21
90.6695
 31
0.0
  0
LINE
  8
0
 62
     0
 10
316.573
 20
90.6695
 30
0.0
 11
316.573
 21
89.7488
 31
0.0
  0
LINE
  8
0
 62
     0
 10
316.573
 20
89.7488
 30
0.0
 11
314.847
 21
89.7488
 31
0.0
  0
LINE
  8
0
 62
     0
 10
314.847
 20
89.7488
 30
0.0
 11
314.847
 21
86.5188
 31
0.0
  0
LINE
  8
0
 62
     0
 10
314.847
 20
86.5188
 30
0.0
 11
313.323
 21
86.5188
 31
0.0
  0
LINE
  8
0
 62
     0
 10
313.323
 20
86.5188
 30
0.0
 11
313.323
 21
87.1195
 31
0.0
  0
LINE
  8
0
 62
     0
 10
313.323
 20
87.1195
 30
0.0
 11
314.123
 21
87.1195
 31
0.0
  0
LINE
  8
0
 62
     0
 10
314.123
 20
87.1195
 30
0.0
 11
314.123
 21
90.2187
 31
0.0
  0
LINE
  8
0
 62
     0
 10
314.123
 20
90.2187
 30
0.0
 11
313.323
 21
90.2187
 31
0.0
  0
LINE
  8
0
 62
     0
 10
313.323
 20
90.2187
 30
0.0
 11
313.323
 21
91.2192
 31
0.0
  0
LINE
  8
0
 62
     0
 10
313.323
 20
91.2192
 30
0.0
 11
299.322
 21
91.2192
 31
0.0
  0
LINE
  8
0
 62
     0
 10
268.366
 20
91.2192
 30
0.0
 11
268.366
 21
90.2187
 31
0.0
  0
LINE
  8
0
 62
     0
 10
268.366
 20
90.2187
 30
0.0
 11
267.567
 21
90.2187
 31
0.0
  0
LINE
  8
0
 62
     0
 10
267.567
 20
90.2187
 30
0.0
 11
267.567
 21
87.1195
 31
0.0
  0
LINE
  8
0
 62
     0
 10
267.567
 20
87.1195
 30
0.0
 11
268.366
 21
87.1195
 31
0.0
  0
LINE
  8
0
 62
     0
 10
268.366
 20
87.1195
 30
0.0
 11
268.366
 21
81.3195
 31
0.0
  0
LINE
  8
0
 62
     0
 10
268.366
 20
81.3195
 30
0.0
 11
267.567
 21
81.3195
 31
0.0
  0
LINE
  8
0
 62
     0
 10
267.567
 20
81.3195
 30
0.0
 11
267.567
 21
78.219
 31
0.0
  0
LINE
  8
0
 62
     0
 10
267.567
 20
78.219
 30
0.0
 11
268.366
 21
78.219
 31
0.0
  0
LINE
  8
0
 62
     0
 10
268.366
 20
78.219
 30
0.0
 11
268.366
 21
77.2199
 31
0.0
  0
LINE
  8
0
 62
     0
 10
268.366
 20
77.2199
 30
0.0
 11
282.367
 21
77.2199
 31
0.0
  0
LINE
  8
0
 62
     0
 10
282.367
 20
77.2199
 30
0.0
 11
282.367
 21
78.219
 31
0.0
  0
LINE
  8
0
 62
     0
 10
282.367
 20
78.219
 30
0.0
 11
283.166
 21
78.219
 31
0.0
  0
LINE
  8
0
 62
     0
 10
283.166
 20
78.219
 30
0.0
 11
283.166
 21
81.3195
 31
0.0
  0
LINE
  8
0
 62
     0
 10
283.166
 20
81.3195
 30
0.0
 11
282.367
 21
81.3195
 31
0.0
  0
LINE
  8
0
 62
     0
 10
282.367
 20
81.3195
 30
0.0
 11
282.367
 21
87.1195
 31
0.0
  0
LINE
  8
0
 62
     0
 10
282.367
 20
87.1195
 30
0.0
 11
283.166
 21
87.1195
 31
0.0
  0
LINE
  8
0
 62
     0
 10
283.166
 20
87.1195
 30
0.0
 11
283.166
 21
90.2187
 31
0.0
  0
LINE
  8
0
 62
     0
 10
283.166
 20
90.2187
 30
0.0
 11
282.367
 21
90.2187
 31
0.0
  0
LINE
  8
0
 62
     0
 10
282.367
 20
90.2187
 30
0.0
 11
282.367
 21
91.2192
 31
0.0
  0
LINE
  8
0
 62
     0
 10
282.367
 20
91.2192
 30
0.0
 11
268.366
 21
91.2192
 31
0.0
  0
LINE
  8
0
 62
     0
 10
249.316
 20
91.2192
 30
0.0
 11
249.316
 21
90.2187
 31
0.0
  0
LINE
  8
0
 62
     0
 10
249.316
 20
90.2187
 30
0.0
 11
248.517
 21
90.2187
 31
0.0
  0
LINE
  8
0
 62
     0
 10
248.517
 20
90.2187
 30
0.0
 11
248.517
 21
87.1195
 31
0.0
  0
LINE
  8
0
 62
     0
 10
248.517
 20
87.1195
 30
0.0
 11
249.316
 21
87.1195
 31
0.0
  0
LINE
  8
0
 62
     0
 10
249.316
 20
87.1195
 30
0.0
 11
249.316
 21
81.3195
 31
0.0
  0
LINE
  8
0
 62
     0
 10
249.316
 20
81.3195
 30
0.0
 11
248.517
 21
81.3195
 31
0.0
  0
LINE
  8
0
 62
     0
 10
248.517
 20
81.3195
 30
0.0
 11
248.517
 21
78.219
 31
0.0
  0
LINE
  8
0
 62
     0
 10
248.517
 20
78.219
 30
0.0
 11
249.316
 21
78.219
 31
0.0
  0
LINE
  8
0
 62
     0
 10
249.316
 20
78.219
 30
0.0
 11
249.316
 21
77.2199
 31
0.0
  0
LINE
  8
0
 62
     0
 10
249.316
 20
77.2199
 30
0.0
 11
263.317
 21
77.2199
 31
0.0
  0
LINE
  8
0
 62
     0
 10
263.317
 20
77.2199
 30
0.0
 11
263.317
 21
78.219
 31
0.0
  0
LINE
  8
0
 62
     0
 10
263.317
 20
78.219
 30
0.0
 11
264.116
 21
78.219
 31
0.0
  0
LINE
  8
0
 62
     0
 10
264.116
 20
78.219
 30
0.0
 11
264.116
 21
81.3195
 31
0.0
  0
LINE
  8
0
 62
     0
 10
264.116
 20
81.3195
 30
0.0
 11
263.317
 21
81.3195
 31
0.0
  0
LINE
  8
0
 62
     0
 10
263.317
 20
81.3195
 30
0.0
 11
263.317
 21
87.1195
 31
0.0
  0
LINE
  8
0
 62
     0
 10
263.317
 20
87.1195
 30
0.0
 11
264.116
 21
87.1195
 31
0.0
  0
LINE
  8
0
 62
     0
 10
264.116
 20
87.1195
 30
0.0
 11
264.116
 21
90.2187
 31
0.0
  0
LINE
  8
0
 62
     0
 10
264.116
 20
90.2187
 30
0.0
 11
263.317
 21
90.2187
 31
0.0
  0
LINE
  8
0
 62
     0
 10
263.317
 20
90.2187
 30
0.0
 11
263.317
 21
91.2192
 31
0.0
  0
LINE
  8
0
 62
     0
 10
263.317
 20
91.2192
 30
0.0
 11
249.316
 21
91.2192
 31
0.0
  0
LINE
  8
0
 62
     0
 10
40.7197
 20
91.2192
 30
0.0
 11
40.7197
 21
90.2187
 31
0.0
  0
LINE
  8
0
 62
     0
 10
40.7197
 20
90.2187
 30
0.0
 11
39.9189
 21
90.2187
 31
0.0
  0
LINE
  8
0
 62
     0
 10
39.9189
 20
90.2187
 30
0.0
 11
39.9189
 21
87.1195
 31
0.0
  0
LINE
  8
0
 62
     0
 10
39.9189
 20
87.1195
 30
0.0
 11
40.7197
 21
87.1195
 31
0.0
  0
LINE
  8
0
 62
     0
 10
40.7197
 20
87.1195
 30
0.0
 11
40.7197
 21
81.3195
 31
0.0
  0
LINE
  8
0
 62
     0
 10
40.7197
 20
81.3195
 30
0.0
 11
39.9189
 21
81.3195
 31
0.0
  0
LINE
  8
0
 62
     0
 10
39.9189
 20
81.3195
 30
0.0
 11
39.9189
 21
78.219
 31
0.0
  0
LINE
  8
0
 62
     0
 10
39.9189
 20
78.219
 30
0.0
 11
40.7197
 21
78.219
 31
0.0
  0
LINE
  8
0
 62
     0
 10
40.7197
 20
78.219
 30
0.0
 11
40.7197
 21
77.2199
 31
0.0
  0
LINE
  8
0
 62
     0
 10
40.7197
 20
77.2199
 30
0.0
 11
54.719
 21
77.2199
 31
0.0
  0
LINE
  8
0
 62
     0
 10
54.719
 20
77.2199
 30
0.0
 11
54.719
 21
78.219
 31
0.0
  0
LINE
  8
0
 62
     0
 10
54.719
 20
78.219
 30
0.0
 11
55.5198
 21
78.219
 31
0.0
  0
LINE
  8
0
 62
     0
 10
55.5198
 20
78.219
 30
0.0
 11
55.5198
 21
81.3195
 31
0.0
  0
LINE
  8
0
 62
     0
 10
55.5198
 20
81.3195
 30
0.0
 11
54.719
 21
81.3195
 31
0.0
  0
LINE
  8
0
 62
     0
 10
54.719
 20
81.3195
 30
0.0
 11
54.719
 21
87.1195
 31
0.0
  0
LINE
  8
0
 62
     0
 10
54.719
 20
87.1195
 30
0.0
 11
55.5198
 21
87.1195
 31
0.0
  0
LINE
  8
0
 62
     0
 10
55.5198
 20
87.1195
 30
0.0
 11
55.5198
 21
90.2187
 31
0.0
  0
LINE
  8
0
 62
     0
 10
55.5198
 20
90.2187
 30
0.0
 11
54.719
 21
90.2187
 31
0.0
  0
LINE
  8
0
 62
     0
 10
54.719
 20
90.2187
 30
0.0
 11
54.719
 21
91.2192
 31
0.0
  0
LINE
  8
0
 62
     0
 10
54.719
 20
91.2192
 30
0.0
 11
40.7197
 21
91.2192
 31
0.0
  0
LINE
  8
0
 62
     0
 10
9.76203
 20
91.2192
 30
0.0
 11
9.76203
 21
90.2187
 31
0.0
  0
LINE
  8
0
 62
     0
 10
9.76203
 20
90.2187
 30
0.0
 11
8.96278
 21
90.2187
 31
0.0
  0
LINE
  8
0
 62
     0
 10
8.96278
 20
90.2187
 30
0.0
 11
8.96278
 21
87.1195
 31
0.0
  0
LINE
  8
0
 62
     0
 10
8.96278
 20
87.1195
 30
0.0
 11
9.76203
 21
87.1195
 31
0.0
  0
LINE
  8
0
 62
     0
 10
9.76203
 20
87.1195
 30
0.0
 11
9.76203
 21
81.3195
 31
0.0
  0
LINE
  8
0
 62
     0
 10
9.76203
 20
81.3195
 30
0.0
 11
8.96278
 21
81.3195
 31
0.0
  0
LINE
  8
0
 62
     0
 10
8.96278
 20
81.3195
 30
0.0
 11
8.96278
 21
78.219
 31
0.0
  0
LINE
  8
0
 62
     0
 10
8.96278
 20
78.219
 30
0.0
 11
9.76203
 21
78.219
 31
0.0
  0
LINE
  8
0
 62
     0
 10
9.76203
 20
78.219
 30
0.0
 11
9.76203
 21
77.2199
 31
0.0
  0
LINE
  8
0
 62
     0
 10
9.76203
 20
77.2199
 30
0.0
 11
23.7629
 21
77.2199
 31
0.0
  0
LINE
  8
0
 62
     0
 10
23.7629
 20
77.2199
 30
0.0
 11
23.7629
 21
78.219
 31
0.0
  0
LINE
  8
0
 62
     0
 10
23.7629
 20
78.219
 30
0.0
 11
24.5622
 21
78.219
 31
0.0
  0
LINE
  8
0
 62
     0
 10
24.5622
 20
78.219
 30
0.0
 11
24.5622
 21
81.3195
 31
0.0
  0
LINE
  8
0
 62
     0
 10
24.5622
 20
81.3195
 30
0.0
 11
23.7629
 21
81.3195
 31
0.0
  0
LINE
  8
0
 62
     0
 10
23.7629
 20
81.3195
 30
0.0
 11
23.7629
 21
87.1195
 31
0.0
  0
LINE
  8
0
 62
     0
 10
23.7629
 20
87.1195
 30
0.0
 11
24.5622
 21
87.1195
 31
0.0
  0
LINE
  8
0
 62
     0
 10
24.5622
 20
87.1195
 30
0.0
 11
24.5622
 21
90.2187
 31
0.0
  0
LINE
  8
0
 62
     0
 10
24.5622
 20
90.2187
 30
0.0
 11
23.7629
 21
90.2187
 31
0.0
  0
LINE
  8
0
 62
     0
 10
23.7629
 20
90.2187
 30
0.0
 11
23.7629
 21
91.2192
 31
0.0
  0
LINE
  8
0
 62
     0
 10
23.7629
 20
91.2192
 30
0.0
 11
9.76203
 21
91.2192
 31
0.0
  0
LINE
  8
0
 62
     0
 10
162.08
 20
92.0433
 30
0.0
 11
162.287
 21
91.065
 31
0.0
  0
LINE
  8
0
 62
     0
 10
162.287
 20
91.065
 30
0.0
 11
161.505
 21
90.8995
 31
0.0
  0
LINE
  8
0
 62
     0
 10
161.505
 20
90.8995
 30
0.0
 11
162.15
 21
87.8678
 31
0.0
  0
LINE
  8
0
 62
     0
 10
162.15
 20
87.8678
 30
0.0
 11
162.931
 21
88.0332
 31
0.0
  0
LINE
  8
0
 62
     0
 10
162.931
 20
88.0332
 30
0.0
 11
164.138
 21
82.3599
 31
0.0
  0
LINE
  8
0
 62
     0
 10
164.138
 20
82.3599
 30
0.0
 11
163.356
 21
82.193
 31
0.0
  0
LINE
  8
0
 62
     0
 10
163.356
 20
82.193
 30
0.0
 11
163.999
 21
79.1616
 31
0.0
  0
LINE
  8
0
 62
     0
 10
163.999
 20
79.1616
 30
0.0
 11
164.783
 21
79.3267
 31
0.0
  0
LINE
  8
0
 62
     0
 10
164.783
 20
79.3267
 30
0.0
 11
164.99
 21
78.3498
 31
0.0
  0
LINE
  8
0
 62
     0
 10
164.99
 20
78.3498
 30
0.0
 11
178.685
 21
81.2602
 31
0.0
  0
LINE
  8
0
 62
     0
 10
178.685
 20
81.2602
 30
0.0
 11
178.477
 21
82.2385
 31
0.0
  0
LINE
  8
0
 62
     0
 10
178.477
 20
82.2385
 30
0.0
 11
179.258
 21
82.4039
 31
0.0
  0
LINE
  8
0
 62
     0
 10
179.258
 20
82.4039
 30
0.0
 11
178.615
 21
85.4371
 31
0.0
  0
LINE
  8
0
 62
     0
 10
178.615
 20
85.4371
 30
0.0
 11
177.832
 21
85.2703
 31
0.0
  0
LINE
  8
0
 62
     0
 10
177.832
 20
85.2703
 30
0.0
 11
176.626
 21
90.9451
 31
0.0
  0
LINE
  8
0
 62
     0
 10
176.626
 20
90.9451
 30
0.0
 11
177.409
 21
91.1105
 31
0.0
  0
LINE
  8
0
 62
     0
 10
177.409
 20
91.1105
 30
0.0
 11
176.764
 21
94.1419
 31
0.0
  0
LINE
  8
0
 62
     0
 10
176.764
 20
94.1419
 30
0.0
 11
175.981
 21
93.9768
 31
0.0
  0
LINE
  8
0
 62
     0
 10
175.981
 20
93.9768
 30
0.0
 11
175.773
 21
94.9537
 31
0.0
  0
LINE
  8
0
 62
     0
 10
175.773
 20
94.9537
 30
0.0
 11
162.08
 21
92.0433
 31
0.0
  0
LINE
  8
0
 62
     0
 10
335.041
 20
95.9817
 30
0.0
 11
335.041
 21
94.9826
 31
0.0
  0
LINE
  8
0
 62
     0
 10
335.041
 20
94.9826
 30
0.0
 11
334.242
 21
94.9826
 31
0.0
  0
LINE
  8
0
 62
     0
 10
334.242
 20
94.9826
 30
0.0
 11
334.242
 21
91.882
 31
0.0
  0
LINE
  8
0
 62
     0
 10
334.242
 20
91.882
 30
0.0
 11
335.041
 21
91.882
 31
0.0
  0
LINE
  8
0
 62
     0
 10
335.041
 20
91.882
 30
0.0
 11
335.041
 21
86.082
 31
0.0
  0
LINE
  8
0
 62
     0
 10
335.041
 20
86.082
 30
0.0
 11
334.242
 21
86.082
 31
0.0
  0
LINE
  8
0
 62
     0
 10
334.242
 20
86.082
 30
0.0
 11
334.242
 21
82.9829
 31
0.0
  0
LINE
  8
0
 62
     0
 10
334.242
 20
82.9829
 30
0.0
 11
335.041
 21
82.9829
 31
0.0
  0
LINE
  8
0
 62
     0
 10
335.041
 20
82.9829
 30
0.0
 11
335.041
 21
81.9824
 31
0.0
  0
LINE
  8
0
 62
     0
 10
335.041
 20
81.9824
 30
0.0
 11
349.042
 21
81.9824
 31
0.0
  0
LINE
  8
0
 62
     0
 10
349.042
 20
81.9824
 30
0.0
 11
349.042
 21
82.9829
 31
0.0
  0
LINE
  8
0
 62
     0
 10
349.042
 20
82.9829
 30
0.0
 11
349.841
 21
82.9829
 31
0.0
  0
LINE
  8
0
 62
     0
 10
349.841
 20
82.9829
 30
0.0
 11
349.841
 21
86.082
 31
0.0
  0
LINE
  8
0
 62
     0
 10
349.841
 20
86.082
 30
0.0
 11
349.042
 21
86.082
 31
0.0
  0
LINE
  8
0
 62
     0
 10
349.042
 20
86.082
 30
0.0
 11
349.042
 21
91.882
 31
0.0
  0
LINE
  8
0
 62
     0
 10
349.042
 20
91.882
 30
0.0
 11
349.841
 21
91.882
 31
0.0
  0
LINE
  8
0
 62
     0
 10
349.841
 20
91.882
 30
0.0
 11
349.841
 21
94.9826
 31
0.0
  0
LINE
  8
0
 62
     0
 10
349.841
 20
94.9826
 30
0.0
 11
349.042
 21
94.9826
 31
0.0
  0
LINE
  8
0
 62
     0
 10
349.042
 20
94.9826
 30
0.0
 11
349.042
 21
95.9817
 31
0.0
  0
LINE
  8
0
 62
     0
 10
349.042
 20
95.9817
 30
0.0
 11
335.041
 21
95.9817
 31
0.0
  0
LINE
  8
0
 62
     0
 10
180.713
 20
96.0039
 30
0.0
 11
180.92
 21
95.0267
 31
0.0
  0
LINE
  8
0
 62
     0
 10
180.92
 20
95.0267
 30
0.0
 11
180.139
 21
94.8602
 31
0.0
  0
LINE
  8
0
 62
     0
 10
180.139
 20
94.8602
 30
0.0
 11
180.782
 21
91.827
 31
0.0
  0
LINE
  8
0
 62
     0
 10
180.782
 20
91.827
 30
0.0
 11
181.565
 21
91.9949
 31
0.0
  0
LINE
  8
0
 62
     0
 10
181.565
 20
91.9949
 30
0.0
 11
182.772
 21
86.3205
 31
0.0
  0
LINE
  8
0
 62
     0
 10
182.772
 20
86.3205
 30
0.0
 11
181.988
 21
86.155
 31
0.0
  0
LINE
  8
0
 62
     0
 10
181.988
 20
86.155
 30
0.0
 11
182.634
 21
83.1219
 31
0.0
  0
LINE
  8
0
 62
     0
 10
182.634
 20
83.1219
 30
0.0
 11
183.416
 21
83.2887
 31
0.0
  0
LINE
  8
0
 62
     0
 10
183.416
 20
83.2887
 30
0.0
 11
183.624
 21
82.3101
 31
0.0
  0
LINE
  8
0
 62
     0
 10
183.624
 20
82.3101
 30
0.0
 11
197.317
 21
85.2219
 31
0.0
  0
LINE
  8
0
 62
     0
 10
197.317
 20
85.2219
 30
0.0
 11
197.109
 21
86.1991
 31
0.0
  0
LINE
  8
0
 62
     0
 10
197.109
 20
86.1991
 30
0.0
 11
197.893
 21
86.3656
 31
0.0
  0
LINE
  8
0
 62
     0
 10
197.893
 20
86.3656
 30
0.0
 11
197.247
 21
89.3974
 31
0.0
  0
LINE
  8
0
 62
     0
 10
197.247
 20
89.3974
 30
0.0
 11
196.465
 21
89.2309
 31
0.0
  0
LINE
  8
0
 62
     0
 10
196.465
 20
89.2309
 30
0.0
 11
195.26
 21
94.9043
 31
0.0
  0
LINE
  8
0
 62
     0
 10
195.26
 20
94.9043
 30
0.0
 11
196.041
 21
95.0708
 31
0.0
  0
LINE
  8
0
 62
     0
 10
196.041
 20
95.0708
 30
0.0
 11
195.398
 21
98.104
 31
0.0
  0
LINE
  8
0
 62
     0
 10
195.398
 20
98.104
 30
0.0
 11
194.615
 21
97.9371
 31
0.0
  0
LINE
  8
0
 62
     0
 10
194.615
 20
97.9371
 30
0.0
 11
194.407
 21
98.9157
 31
0.0
  0
LINE
  8
0
 62
     0
 10
194.407
 20
98.9157
 30
0.0
 11
180.713
 21
96.0039
 31
0.0
  0
LINE
  8
0
 62
     0
 10
119.967
 20
99.0794
 30
0.0
 11
119.185
 21
99.2463
 31
0.0
  0
LINE
  8
0
 62
     0
 10
119.185
 20
99.2463
 30
0.0
 11
118.539
 21
96.2131
 31
0.0
  0
LINE
  8
0
 62
     0
 10
118.539
 20
96.2131
 30
0.0
 11
119.323
 21
96.048
 31
0.0
  0
LINE
  8
0
 62
     0
 10
119.323
 20
96.048
 30
0.0
 11
118.117
 21
90.3746
 31
0.0
  0
LINE
  8
0
 62
     0
 10
118.117
 20
90.3746
 30
0.0
 11
117.333
 21
90.5397
 31
0.0
  0
LINE
  8
0
 62
     0
 10
117.333
 20
90.5397
 30
0.0
 11
116.689
 21
87.5083
 31
0.0
  0
LINE
  8
0
 62
     0
 10
116.689
 20
87.5083
 30
0.0
 11
117.471
 21
87.3414
 31
0.0
  0
LINE
  8
0
 62
     0
 10
117.471
 20
87.3414
 30
0.0
 11
117.264
 21
86.3632
 31
0.0
  0
LINE
  8
0
 62
     0
 10
117.264
 20
86.3632
 30
0.0
 11
130.958
 21
83.4542
 31
0.0
  0
LINE
  8
0
 62
     0
 10
130.958
 20
83.4542
 30
0.0
 11
131.166
 21
84.431
 31
0.0
  0
LINE
  8
0
 62
     0
 10
131.166
 20
84.431
 30
0.0
 11
131.948
 21
84.2641
 31
0.0
  0
LINE
  8
0
 62
     0
 10
131.948
 20
84.2641
 30
0.0
 11
132.592
 21
87.2973
 31
0.0
  0
LINE
  8
0
 62
     0
 10
132.592
 20
87.2973
 30
0.0
 11
131.811
 21
87.4642
 31
0.0
  0
LINE
  8
0
 62
     0
 10
131.811
 20
87.4642
 30
0.0
 11
133.017
 21
93.1362
 31
0.0
  0
LINE
  8
0
 62
     0
 10
133.017
 20
93.1362
 30
0.0
 11
133.798
 21
92.9707
 31
0.0
  0
LINE
  8
0
 62
     0
 10
133.798
 20
92.9707
 30
0.0
 11
134.444
 21
96.0025
 31
0.0
  0
LINE
  8
0
 62
     0
 10
134.444
 20
96.0025
 30
0.0
 11
133.66
 21
96.1679
 31
0.0
  0
LINE
  8
0
 62
     0
 10
133.66
 20
96.1679
 30
0.0
 11
133.868
 21
97.1476
 31
0.0
  0
LINE
  8
0
 62
     0
 10
133.868
 20
97.1476
 30
0.0
 11
120.174
 21
100.058
 31
0.0
  0
LINE
  8
0
 62
     0
 10
120.174
 20
100.058
 30
0.0
 11
119.967
 21
99.0794
 31
0.0
  0
LINE
  8
0
 62
     0
 10
199.347
 20
99.967
 30
0.0
 11
199.555
 21
98.9873
 31
0.0
  0
LINE
  8
0
 62
     0
 10
199.555
 20
98.9873
 30
0.0
 11
198.772
 21
98.8205
 31
0.0
  0
LINE
  8
0
 62
     0
 10
198.772
 20
98.8205
 30
0.0
 11
199.416
 21
95.7887
 31
0.0
  0
LINE
  8
0
 62
     0
 10
199.416
 20
95.7887
 30
0.0
 11
200.2
 21
95.9541
 31
0.0
  0
LINE
  8
0
 62
     0
 10
200.2
 20
95.9541
 30
0.0
 11
201.404
 21
90.2808
 31
0.0
  0
LINE
  8
0
 62
     0
 10
201.404
 20
90.2808
 30
0.0
 11
200.623
 21
90.1153
 31
0.0
  0
LINE
  8
0
 62
     0
 10
200.623
 20
90.1153
 30
0.0
 11
201.267
 21
87.0825
 31
0.0
  0
LINE
  8
0
 62
     0
 10
201.267
 20
87.0825
 30
0.0
 11
202.049
 21
87.249
 31
0.0
  0
LINE
  8
0
 62
     0
 10
202.049
 20
87.249
 30
0.0
 11
202.257
 21
86.2722
 31
0.0
  0
LINE
  8
0
 62
     0
 10
202.257
 20
86.2722
 30
0.0
 11
215.951
 21
89.1812
 31
0.0
  0
LINE
  8
0
 62
     0
 10
215.951
 20
89.1812
 30
0.0
 11
215.743
 21
90.1608
 31
0.0
  0
LINE
  8
0
 62
     0
 10
215.743
 20
90.1608
 30
0.0
 11
216.527
 21
90.3263
 31
0.0
  0
LINE
  8
0
 62
     0
 10
216.527
 20
90.3263
 30
0.0
 11
215.882
 21
93.3581
 31
0.0
  0
LINE
  8
0
 62
     0
 10
215.882
 20
93.3581
 30
0.0
 11
215.099
 21
93.1926
 31
0.0
  0
LINE
  8
0
 62
     0
 10
215.099
 20
93.1926
 30
0.0
 11
213.894
 21
98.866
 31
0.0
  0
LINE
  8
0
 62
     0
 10
213.894
 20
98.866
 30
0.0
 11
214.675
 21
99.0314
 31
0.0
  0
LINE
  8
0
 62
     0
 10
214.675
 20
99.0314
 30
0.0
 11
214.031
 21
102.064
 31
0.0
  0
LINE
  8
0
 62
     0
 10
214.031
 20
102.064
 30
0.0
 11
213.249
 21
101.898
 31
0.0
  0
LINE
  8
0
 62
     0
 10
213.249
 20
101.898
 30
0.0
 11
213.041
 21
102.876
 31
0.0
  0
LINE
  8
0
 62
     0
 10
213.041
 20
102.876
 30
0.0
 11
199.347
 21
99.967
 31
0.0
  0
LINE
  8
0
 62
     0
 10
101.333
 20
103.04
 30
0.0
 11
100.55
 21
103.207
 31
0.0
  0
LINE
  8
0
 62
     0
 10
100.55
 20
103.207
 30
0.0
 11
99.9049
 21
100.174
 31
0.0
  0
LINE
  8
0
 62
     0
 10
99.9049
 20
100.174
 30
0.0
 11
100.689
 21
100.008
 31
0.0
  0
LINE
  8
0
 62
     0
 10
100.689
 20
100.008
 30
0.0
 11
99.4819
 21
94.3349
 31
0.0
  0
LINE
  8
0
 62
     0
 10
99.4819
 20
94.3349
 30
0.0
 11
98.7005
 21
94.5018
 31
0.0
  0
LINE
  8
0
 62
     0
 10
98.7005
 20
94.5018
 30
0.0
 11
98.0556
 21
91.47
 31
0.0
  0
LINE
  8
0
 62
     0
 10
98.0556
 20
91.47
 30
0.0
 11
98.8385
 21
91.3021
 31
0.0
  0
LINE
  8
0
 62
     0
 10
98.8385
 20
91.3021
 30
0.0
 11
98.6303
 21
90.3249
 31
0.0
  0
LINE
  8
0
 62
     0
 10
98.6303
 20
90.3249
 30
0.0
 11
112.324
 21
87.413
 31
0.0
  0
LINE
  8
0
 62
     0
 10
112.324
 20
87.413
 30
0.0
 11
112.532
 21
88.3916
 31
0.0
  0
LINE
  8
0
 62
     0
 10
112.532
 20
88.3916
 30
0.0
 11
113.315
 21
88.2248
 31
0.0
  0
LINE
  8
0
 62
     0
 10
113.315
 20
88.2248
 30
0.0
 11
113.96
 21
91.258
 31
0.0
  0
LINE
  8
0
 62
     0
 10
113.96
 20
91.258
 30
0.0
 11
113.177
 21
91.4245
 31
0.0
  0
LINE
  8
0
 62
     0
 10
113.177
 20
91.4245
 30
0.0
 11
114.383
 21
97.0979
 31
0.0
  0
LINE
  8
0
 62
     0
 10
114.383
 20
97.0979
 30
0.0
 11
115.165
 21
96.9313
 31
0.0
  0
LINE
  8
0
 62
     0
 10
115.165
 20
96.9313
 30
0.0
 11
115.809
 21
99.9628
 31
0.0
  0
LINE
  8
0
 62
     0
 10
115.809
 20
99.9628
 30
0.0
 11
115.028
 21
100.13
 31
0.0
  0
LINE
  8
0
 62
     0
 10
115.028
 20
100.13
 30
0.0
 11
115.234
 21
101.108
 31
0.0
  0
LINE
  8
0
 62
     0
 10
115.234
 20
101.108
 30
0.0
 11
101.541
 21
104.018
 31
0.0
  0
LINE
  8
0
 62
     0
 10
101.541
 20
104.018
 30
0.0
 11
101.333
 21
103.04
 31
0.0
  0
LINE
  8
0
 62
     0
 10
217.981
 20
103.925
 30
0.0
 11
218.189
 21
102.948
 31
0.0
  0
LINE
  8
0
 62
     0
 10
218.189
 20
102.948
 30
0.0
 11
217.405
 21
102.781
 31
0.0
  0
LINE
  8
0
 62
     0
 10
217.405
 20
102.781
 30
0.0
 11
218.051
 21
99.7493
 31
0.0
  0
LINE
  8
0
 62
     0
 10
218.051
 20
99.7493
 30
0.0
 11
218.833
 21
99.9162
 31
0.0
  0
LINE
  8
0
 62
     0
 10
218.833
 20
99.9162
 30
0.0
 11
220.038
 21
94.2428
 31
0.0
  0
LINE
  8
0
 62
     0
 10
220.038
 20
94.2428
 30
0.0
 11
219.257
 21
94.076
 31
0.0
  0
LINE
  8
0
 62
     0
 10
219.257
 20
94.076
 30
0.0
 11
219.901
 21
91.0428
 31
0.0
  0
LINE
  8
0
 62
     0
 10
219.901
 20
91.0428
 30
0.0
 11
220.683
 21
91.211
 31
0.0
  0
LINE
  8
0
 62
     0
 10
220.683
 20
91.211
 30
0.0
 11
220.891
 21
90.231
 31
0.0
  0
LINE
  8
0
 62
     0
 10
220.891
 20
90.231
 30
0.0
 11
234.585
 21
93.1429
 31
0.0
  0
LINE
  8
0
 62
     0
 10
234.585
 20
93.1429
 30
0.0
 11
234.378
 21
94.1201
 31
0.0
  0
LINE
  8
0
 62
     0
 10
234.378
 20
94.1201
 30
0.0
 11
235.16
 21
94.2869
 31
0.0
  0
LINE
  8
0
 62
     0
 10
235.16
 20
94.2869
 30
0.0
 11
234.516
 21
97.3197
 31
0.0
  0
LINE
  8
0
 62
     0
 10
234.516
 20
97.3197
 30
0.0
 11
233.732
 21
97.1532
 31
0.0
  0
LINE
  8
0
 62
     0
 10
233.732
 20
97.1532
 30
0.0
 11
232.526
 21
102.827
 31
0.0
  0
LINE
  8
0
 62
     0
 10
232.526
 20
102.827
 30
0.0
 11
233.31
 21
102.992
 31
0.0
  0
LINE
  8
0
 62
     0
 10
233.31
 20
102.992
 30
0.0
 11
232.664
 21
106.025
 31
0.0
  0
LINE
  8
0
 62
     0
 10
232.664
 20
106.025
 30
0.0
 11
231.883
 21
105.858
 31
0.0
  0
LINE
  8
0
 62
     0
 10
231.883
 20
105.858
 30
0.0
 11
231.674
 21
106.837
 31
0.0
  0
LINE
  8
0
 62
     0
 10
231.674
 20
106.837
 30
0.0
 11
217.981
 21
103.925
 31
0.0
  0
LINE
  8
0
 62
     0
 10
82.6989
 20
107.002
 30
0.0
 11
81.9161
 21
107.167
 31
0.0
  0
LINE
  8
0
 62
     0
 10
81.9161
 20
107.167
 30
0.0
 11
81.2726
 21
104.136
 31
0.0
  0
LINE
  8
0
 62
     0
 10
81.2726
 20
104.136
 30
0.0
 11
82.054
 21
103.969
 31
0.0
  0
LINE
  8
0
 62
     0
 10
82.054
 20
103.969
 30
0.0
 11
80.8482
 21
98.2955
 31
0.0
  0
LINE
  8
0
 62
     0
 10
80.8482
 20
98.2955
 30
0.0
 11
80.0668
 21
98.461
 31
0.0
  0
LINE
  8
0
 62
     0
 10
80.0668
 20
98.461
 30
0.0
 11
79.4219
 21
95.4292
 31
0.0
  0
LINE
  8
0
 62
     0
 10
79.4219
 20
95.4292
 30
0.0
 11
80.2047
 21
95.2638
 31
0.0
  0
LINE
  8
0
 62
     0
 10
80.2047
 20
95.2638
 30
0.0
 11
79.9966
 21
94.2855
 31
0.0
  0
LINE
  8
0
 62
     0
 10
79.9966
 20
94.2855
 30
0.0
 11
93.69
 21
91.3751
 31
0.0
  0
LINE
  8
0
 62
     0
 10
93.69
 20
91.3751
 30
0.0
 11
93.8982
 21
92.3519
 31
0.0
  0
LINE
  8
0
 62
     0
 10
93.8982
 20
92.3519
 30
0.0
 11
94.681
 21
92.1865
 31
0.0
  0
LINE
  8
0
 62
     0
 10
94.681
 20
92.1865
 30
0.0
 11
95.3258
 21
95.2183
 31
0.0
  0
LINE
  8
0
 62
     0
 10
95.3258
 20
95.2183
 30
0.0
 11
94.543
 21
95.3851
 31
0.0
  0
LINE
  8
0
 62
     0
 10
94.543
 20
95.3851
 30
0.0
 11
95.7488
 21
101.058
 31
0.0
  0
LINE
  8
0
 62
     0
 10
95.7488
 20
101.058
 30
0.0
 11
96.5316
 21
100.892
 31
0.0
  0
LINE
  8
0
 62
     0
 10
96.5316
 20
100.892
 30
0.0
 11
97.1751
 21
103.925
 31
0.0
  0
LINE
  8
0
 62
     0
 10
97.1751
 20
103.925
 30
0.0
 11
96.3937
 21
104.09
 31
0.0
  0
LINE
  8
0
 62
     0
 10
96.3937
 20
104.09
 30
0.0
 11
96.6018
 21
105.069
 31
0.0
  0
LINE
  8
0
 62
     0
 10
96.6018
 20
105.069
 30
0.0
 11
82.907
 21
107.979
 31
0.0
  0
LINE
  8
0
 62
     0
 10
82.907
 20
107.979
 30
0.0
 11
82.6989
 21
107.002
 31
0.0
  0
LINE
  8
0
 62
     0
 10
236.615
 20
107.887
 30
0.0
 11
236.821
 21
106.908
 31
0.0
  0
LINE
  8
0
 62
     0
 10
236.821
 20
106.908
 30
0.0
 11
236.04
 21
106.743
 31
0.0
  0
LINE
  8
0
 62
     0
 10
236.04
 20
106.743
 30
0.0
 11
236.684
 21
103.71
 31
0.0
  0
LINE
  8
0
 62
     0
 10
236.684
 20
103.71
 30
0.0
 11
237.466
 21
103.876
 31
0.0
  0
LINE
  8
0
 62
     0
 10
237.466
 20
103.876
 30
0.0
 11
238.672
 21
98.2017
 31
0.0
  0
LINE
  8
0
 62
     0
 10
238.672
 20
98.2017
 30
0.0
 11
237.889
 21
98.0362
 31
0.0
  0
LINE
  8
0
 62
     0
 10
237.889
 20
98.0362
 30
0.0
 11
238.534
 21
95.0048
 31
0.0
  0
LINE
  8
0
 62
     0
 10
238.534
 20
95.0048
 30
0.0
 11
239.317
 21
95.1699
 31
0.0
  0
LINE
  8
0
 62
     0
 10
239.317
 20
95.1699
 30
0.0
 11
239.525
 21
94.1931
 31
0.0
  0
LINE
  8
0
 62
     0
 10
239.525
 20
94.1931
 30
0.0
 11
253.219
 21
97.1035
 31
0.0
  0
LINE
  8
0
 62
     0
 10
253.219
 20
97.1035
 30
0.0
 11
253.01
 21
98.0818
 31
0.0
  0
LINE
  8
0
 62
     0
 10
253.01
 20
98.0818
 30
0.0
 11
253.793
 21
98.2472
 31
0.0
  0
LINE
  8
0
 62
     0
 10
253.793
 20
98.2472
 30
0.0
 11
253.147
 21
101.282
 31
0.0
  0
LINE
  8
0
 62
     0
 10
253.147
 20
101.282
 30
0.0
 11
252.367
 21
101.114
 31
0.0
  0
LINE
  8
0
 62
     0
 10
252.367
 20
101.114
 30
0.0
 11
251.16
 21
106.787
 31
0.0
  0
LINE
  8
0
 62
     0
 10
251.16
 20
106.787
 30
0.0
 11
251.944
 21
106.954
 31
0.0
  0
LINE
  8
0
 62
     0
 10
251.944
 20
106.954
 30
0.0
 11
251.299
 21
109.986
 31
0.0
  0
LINE
  8
0
 62
     0
 10
251.299
 20
109.986
 30
0.0
 11
250.516
 21
109.82
 31
0.0
  0
LINE
  8
0
 62
     0
 10
250.516
 20
109.82
 30
0.0
 11
250.308
 21
110.797
 31
0.0
  0
LINE
  8
0
 62
     0
 10
250.308
 20
110.797
 30
0.0
 11
236.615
 21
107.887
 31
0.0
  0
LINE
  8
0
 62
     0
 10
64.0652
 20
110.961
 30
0.0
 11
63.2837
 21
111.128
 31
0.0
  0
LINE
  8
0
 62
     0
 10
63.2837
 20
111.128
 30
0.0
 11
62.6389
 21
108.096
 31
0.0
  0
LINE
  8
0
 62
     0
 10
62.6389
 20
108.096
 30
0.0
 11
63.4213
 21
107.929
 31
0.0
  0
LINE
  8
0
 62
     0
 10
63.4213
 20
107.929
 30
0.0
 11
62.2155
 21
102.256
 31
0.0
  0
LINE
  8
0
 62
     0
 10
62.2155
 20
102.256
 30
0.0
 11
61.4331
 21
102.423
 31
0.0
  0
LINE
  8
0
 62
     0
 10
61.4331
 20
102.423
 30
0.0
 11
60.7882
 21
99.3909
 31
0.0
  0
LINE
  8
0
 62
     0
 10
60.7882
 20
99.3909
 30
0.0
 11
61.5707
 21
99.2244
 31
0.0
  0
LINE
  8
0
 62
     0
 10
61.5707
 20
99.2244
 30
0.0
 11
61.3625
 21
98.2458
 31
0.0
  0
LINE
  8
0
 62
     0
 10
61.3625
 20
98.2458
 30
0.0
 11
75.0563
 21
95.3354
 31
0.0
  0
LINE
  8
0
 62
     0
 10
75.0563
 20
95.3354
 30
0.0
 11
75.2644
 21
96.314
 31
0.0
  0
LINE
  8
0
 62
     0
 10
75.2644
 20
96.314
 30
0.0
 11
76.0469
 21
96.1471
 31
0.0
  0
LINE
  8
0
 62
     0
 10
76.0469
 20
96.1471
 30
0.0
 11
76.6921
 21
99.1789
 31
0.0
  0
LINE
  8
0
 62
     0
 10
76.6921
 20
99.1789
 30
0.0
 11
75.9093
 21
99.3454
 31
0.0
  0
LINE
  8
0
 62
     0
 10
75.9093
 20
99.3454
 30
0.0
 11
77.1151
 21
105.019
 31
0.0
  0
LINE
  8
0
 62
     0
 10
77.1151
 20
105.019
 30
0.0
 11
77.8979
 21
104.852
 31
0.0
  0
LINE
  8
0
 62
     0
 10
77.8979
 20
104.852
 30
0.0
 11
78.5428
 21
107.884
 31
0.0
  0
LINE
  8
0
 62
     0
 10
78.5428
 20
107.884
 30
0.0
 11
77.76
 21
108.052
 31
0.0
  0
LINE
  8
0
 62
     0
 10
77.76
 20
108.052
 30
0.0
 11
77.9681
 21
109.029
 31
0.0
  0
LINE
  8
0
 62
     0
 10
77.9681
 20
109.029
 30
0.0
 11
64.2729
 21
111.941
 31
0.0
  0
LINE
  8
0
 62
     0
 10
64.2729
 20
111.941
 30
0.0
 11
64.0652
 21
110.961
 31
0.0
  0
LINE
  8
0
 62
     0
 10
301.705
 20
110.269
 30
0.0
 11
301.705
 21
109.269
 31
0.0
  0
LINE
  8
0
 62
     0
 10
301.705
 20
109.269
 30
0.0
 11
300.904
 21
109.269
 31
0.0
  0
LINE
  8
0
 62
     0
 10
300.904
 20
109.269
 30
0.0
 11
300.904
 21
106.17
 31
0.0
  0
LINE
  8
0
 62
     0
 10
300.904
 20
106.17
 30
0.0
 11
301.705
 21
106.17
 31
0.0
  0
LINE
  8
0
 62
     0
 10
301.705
 20
106.17
 30
0.0
 11
301.705
 21
100.37
 31
0.0
  0
LINE
  8
0
 62
     0
 10
301.705
 20
100.37
 30
0.0
 11
300.904
 21
100.37
 31
0.0
  0
LINE
  8
0
 62
     0
 10
300.904
 20
100.37
 30
0.0
 11
300.904
 21
97.2689
 31
0.0
  0
LINE
  8
0
 62
     0
 10
300.904
 20
97.2689
 30
0.0
 11
301.705
 21
97.2689
 31
0.0
  0
LINE
  8
0
 62
     0
 10
301.705
 20
97.2689
 30
0.0
 11
301.705
 21
96.2699
 31
0.0
  0
LINE
  8
0
 62
     0
 10
301.705
 20
96.2699
 30
0.0
 11
315.704
 21
96.2699
 31
0.0
  0
LINE
  8
0
 62
     0
 10
315.704
 20
96.2699
 30
0.0
 11
315.704
 21
97.2689
 31
0.0
  0
LINE
  8
0
 62
     0
 10
315.704
 20
97.2689
 30
0.0
 11
316.505
 21
97.2689
 31
0.0
  0
LINE
  8
0
 62
     0
 10
316.505
 20
97.2689
 30
0.0
 11
316.505
 21
100.37
 31
0.0
  0
LINE
  8
0
 62
     0
 10
316.505
 20
100.37
 30
0.0
 11
315.704
 21
100.37
 31
0.0
  0
LINE
  8
0
 62
     0
 10
315.704
 20
100.37
 30
0.0
 11
315.704
 21
106.17
 31
0.0
  0
LINE
  8
0
 62
     0
 10
315.704
 20
106.17
 30
0.0
 11
316.505
 21
106.17
 31
0.0
  0
LINE
  8
0
 62
     0
 10
316.505
 20
106.17
 30
0.0
 11
316.505
 21
109.269
 31
0.0
  0
LINE
  8
0
 62
     0
 10
316.505
 20
109.269
 30
0.0
 11
315.704
 21
109.269
 31
0.0
  0
LINE
  8
0
 62
     0
 10
315.704
 20
109.269
 30
0.0
 11
315.704
 21
110.269
 31
0.0
  0
LINE
  8
0
 62
     0
 10
315.704
 20
110.269
 30
0.0
 11
301.705
 21
110.269
 31
0.0
  0
LINE
  8
0
 62
     0
 10
277.891
 20
110.269
 30
0.0
 11
277.891
 21
109.269
 31
0.0
  0
LINE
  8
0
 62
     0
 10
277.891
 20
109.269
 30
0.0
 11
277.092
 21
109.269
 31
0.0
  0
LINE
  8
0
 62
     0
 10
277.092
 20
109.269
 30
0.0
 11
277.092
 21
106.17
 31
0.0
  0
LINE
  8
0
 62
     0
 10
277.092
 20
106.17
 30
0.0
 11
277.891
 21
106.17
 31
0.0
  0
LINE
  8
0
 62
     0
 10
277.891
 20
106.17
 30
0.0
 11
277.891
 21
100.37
 31
0.0
  0
LINE
  8
0
 62
     0
 10
277.891
 20
100.37
 30
0.0
 11
277.092
 21
100.37
 31
0.0
  0
LINE
  8
0
 62
     0
 10
277.092
 20
100.37
 30
0.0
 11
277.092
 21
97.2689
 31
0.0
  0
LINE
  8
0
 62
     0
 10
277.092
 20
97.2689
 30
0.0
 11
277.891
 21
97.2689
 31
0.0
  0
LINE
  8
0
 62
     0
 10
277.891
 20
97.2689
 30
0.0
 11
277.891
 21
96.2699
 31
0.0
  0
LINE
  8
0
 62
     0
 10
277.891
 20
96.2699
 30
0.0
 11
291.892
 21
96.2699
 31
0.0
  0
LINE
  8
0
 62
     0
 10
291.892
 20
96.2699
 30
0.0
 11
291.892
 21
97.2689
 31
0.0
  0
LINE
  8
0
 62
     0
 10
291.892
 20
97.2689
 30
0.0
 11
292.691
 21
97.2689
 31
0.0
  0
LINE
  8
0
 62
     0
 10
292.691
 20
97.2689
 30
0.0
 11
292.691
 21
100.37
 31
0.0
  0
LINE
  8
0
 62
     0
 10
292.691
 20
100.37
 30
0.0
 11
291.892
 21
100.37
 31
0.0
  0
LINE
  8
0
 62
     0
 10
291.892
 20
100.37
 30
0.0
 11
291.892
 21
106.17
 31
0.0
  0
LINE
  8
0
 62
     0
 10
291.892
 20
106.17
 30
0.0
 11
292.691
 21
106.17
 31
0.0
  0
LINE
  8
0
 62
     0
 10
292.691
 20
106.17
 30
0.0
 11
292.691
 21
109.269
 31
0.0
  0
LINE
  8
0
 62
     0
 10
292.691
 20
109.269
 30
0.0
 11
291.892
 21
109.269
 31
0.0
  0
LINE
  8
0
 62
     0
 10
291.892
 20
109.269
 30
0.0
 11
291.892
 21
110.269
 31
0.0
  0
LINE
  8
0
 62
     0
 10
291.892
 20
110.269
 30
0.0
 11
277.891
 21
110.269
 31
0.0
  0
LINE
  8
0
 62
     0
 10
258.841
 20
110.269
 30
0.0
 11
258.841
 21
109.269
 31
0.0
  0
LINE
  8
0
 62
     0
 10
258.841
 20
109.269
 30
0.0
 11
258.042
 21
109.269
 31
0.0
  0
LINE
  8
0
 62
     0
 10
258.042
 20
109.269
 30
0.0
 11
258.042
 21
106.17
 31
0.0
  0
LINE
  8
0
 62
     0
 10
258.042
 20
106.17
 30
0.0
 11
258.841
 21
106.17
 31
0.0
  0
LINE
  8
0
 62
     0
 10
258.841
 20
106.17
 30
0.0
 11
258.841
 21
100.37
 31
0.0
  0
LINE
  8
0
 62
     0
 10
258.841
 20
100.37
 30
0.0
 11
258.042
 21
100.37
 31
0.0
  0
LINE
  8
0
 62
     0
 10
258.042
 20
100.37
 30
0.0
 11
258.042
 21
97.2689
 31
0.0
  0
LINE
  8
0
 62
     0
 10
258.042
 20
97.2689
 30
0.0
 11
258.841
 21
97.2689
 31
0.0
  0
LINE
  8
0
 62
     0
 10
258.841
 20
97.2689
 30
0.0
 11
258.841
 21
96.2699
 31
0.0
  0
LINE
  8
0
 62
     0
 10
258.841
 20
96.2699
 30
0.0
 11
272.842
 21
96.2699
 31
0.0
  0
LINE
  8
0
 62
     0
 10
272.842
 20
96.2699
 30
0.0
 11
272.842
 21
97.2689
 31
0.0
  0
LINE
  8
0
 62
     0
 10
272.842
 20
97.2689
 30
0.0
 11
273.641
 21
97.2689
 31
0.0
  0
LINE
  8
0
 62
     0
 10
273.641
 20
97.2689
 30
0.0
 11
273.641
 21
100.37
 31
0.0
  0
LINE
  8
0
 62
     0
 10
273.641
 20
100.37
 30
0.0
 11
272.842
 21
100.37
 31
0.0
  0
LINE
  8
0
 62
     0
 10
272.842
 20
100.37
 30
0.0
 11
272.842
 21
106.17
 31
0.0
  0
LINE
  8
0
 62
     0
 10
272.842
 20
106.17
 30
0.0
 11
273.641
 21
106.17
 31
0.0
  0
LINE
  8
0
 62
     0
 10
273.641
 20
106.17
 30
0.0
 11
273.641
 21
109.269
 31
0.0
  0
LINE
  8
0
 62
     0
 10
273.641
 20
109.269
 30
0.0
 11
272.842
 21
109.269
 31
0.0
  0
LINE
  8
0
 62
     0
 10
272.842
 20
109.269
 30
0.0
 11
272.842
 21
110.269
 31
0.0
  0
LINE
  8
0
 62
     0
 10
272.842
 20
110.269
 30
0.0
 11
258.841
 21
110.269
 31
0.0
  0
LINE
  8
0
 62
     0
 10
40.7197
 20
110.269
 30
0.0
 11
40.7197
 21
109.269
 31
0.0
  0
LINE
  8
0
 62
     0
 10
40.7197
 20
109.269
 30
0.0
 11
39.9189
 21
109.269
 31
0.0
  0
LINE
  8
0
 62
     0
 10
39.9189
 20
109.269
 30
0.0
 11
39.9189
 21
106.17
 31
0.0
  0
LINE
  8
0
 62
     0
 10
39.9189
 20
106.17
 30
0.0
 11
40.7197
 21
106.17
 31
0.0
  0
LINE
  8
0
 62
     0
 10
40.7197
 20
106.17
 30
0.0
 11
40.7197
 21
100.37
 31
0.0
  0
LINE
  8
0
 62
     0
 10
40.7197
 20
100.37
 30
0.0
 11
39.9189
 21
100.37
 31
0.0
  0
LINE
  8
0
 62
     0
 10
39.9189
 20
100.37
 30
0.0
 11
39.9189
 21
97.2689
 31
0.0
  0
LINE
  8
0
 62
     0
 10
39.9189
 20
97.2689
 30
0.0
 11
40.7197
 21
97.2689
 31
0.0
  0
LINE
  8
0
 62
     0
 10
40.7197
 20
97.2689
 30
0.0
 11
40.7197
 21
96.2699
 31
0.0
  0
LINE
  8
0
 62
     0
 10
40.7197
 20
96.2699
 30
0.0
 11
54.719
 21
96.2699
 31
0.0
  0
LINE
  8
0
 62
     0
 10
54.719
 20
96.2699
 30
0.0
 11
54.719
 21
97.2689
 31
0.0
  0
LINE
  8
0
 62
     0
 10
54.719
 20
97.2689
 30
0.0
 11
55.5198
 21
97.2689
 31
0.0
  0
LINE
  8
0
 62
     0
 10
55.5198
 20
97.2689
 30
0.0
 11
55.5198
 21
100.37
 31
0.0
  0
LINE
  8
0
 62
     0
 10
55.5198
 20
100.37
 30
0.0
 11
54.719
 21
100.37
 31
0.0
  0
LINE
  8
0
 62
     0
 10
54.719
 20
100.37
 30
0.0
 11
54.719
 21
106.17
 31
0.0
  0
LINE
  8
0
 62
     0
 10
54.719
 20
106.17
 30
0.0
 11
55.5198
 21
106.17
 31
0.0
  0
LINE
  8
0
 62
     0
 10
55.5198
 20
106.17
 30
0.0
 11
55.5198
 21
109.269
 31
0.0
  0
LINE
  8
0
 62
     0
 10
55.5198
 20
109.269
 30
0.0
 11
54.719
 21
109.269
 31
0.0
  0
LINE
  8
0
 62
     0
 10
54.719
 20
109.269
 30
0.0
 11
54.719
 21
110.269
 31
0.0
  0
LINE
  8
0
 62
     0
 10
54.719
 20
110.269
 30
0.0
 11
40.7197
 21
110.269
 31
0.0
  0
LINE
  8
0
 62
     0
 10
16.9072
 20
110.269
 30
0.0
 11
16.9072
 21
109.269
 31
0.0
  0
LINE
  8
0
 62
     0
 10
16.9072
 20
109.269
 30
0.0
 11
16.1065
 21
109.269
 31
0.0
  0
LINE
  8
0
 62
     0
 10
16.1065
 20
109.269
 30
0.0
 11
16.1065
 21
106.17
 31
0.0
  0
LINE
  8
0
 62
     0
 10
16.1065
 20
106.17
 30
0.0
 11
16.9072
 21
106.17
 31
0.0
  0
LINE
  8
0
 62
     0
 10
16.9072
 20
106.17
 30
0.0
 11
16.9072
 21
100.37
 31
0.0
  0
LINE
  8
0
 62
     0
 10
16.9072
 20
100.37
 30
0.0
 11
16.1065
 21
100.37
 31
0.0
  0
LINE
  8
0
 62
     0
 10
16.1065
 20
100.37
 30
0.0
 11
16.1065
 21
97.2689
 31
0.0
  0
LINE
  8
0
 62
     0
 10
16.1065
 20
97.2689
 30
0.0
 11
16.9072
 21
97.2689
 31
0.0
  0
LINE
  8
0
 62
     0
 10
16.9072
 20
97.2689
 30
0.0
 11
16.9072
 21
96.2699
 31
0.0
  0
LINE
  8
0
 62
     0
 10
16.9072
 20
96.2699
 30
0.0
 11
30.9066
 21
96.2699
 31
0.0
  0
LINE
  8
0
 62
     0
 10
30.9066
 20
96.2699
 30
0.0
 11
30.9066
 21
97.2689
 31
0.0
  0
LINE
  8
0
 62
     0
 10
30.9066
 20
97.2689
 30
0.0
 11
31.7059
 21
97.2689
 31
0.0
  0
LINE
  8
0
 62
     0
 10
31.7059
 20
97.2689
 30
0.0
 11
31.7059
 21
100.37
 31
0.0
  0
LINE
  8
0
 62
     0
 10
31.7059
 20
100.37
 30
0.0
 11
30.9066
 21
100.37
 31
0.0
  0
LINE
  8
0
 62
     0
 10
30.9066
 20
100.37
 30
0.0
 11
30.9066
 21
106.17
 31
0.0
  0
LINE
  8
0
 62
     0
 10
30.9066
 20
106.17
 30
0.0
 11
31.7059
 21
106.17
 31
0.0
  0
LINE
  8
0
 62
     0
 10
31.7059
 20
106.17
 30
0.0
 11
31.7059
 21
109.269
 31
0.0
  0
LINE
  8
0
 62
     0
 10
31.7059
 20
109.269
 30
0.0
 11
30.9066
 21
109.269
 31
0.0
  0
LINE
  8
0
 62
     0
 10
30.9066
 20
109.269
 30
0.0
 11
30.9066
 21
110.269
 31
0.0
  0
LINE
  8
0
 62
     0
 10
30.9066
 20
110.269
 30
0.0
 11
16.9072
 21
110.269
 31
0.0
  0
LINE
  8
0
 62
     0
 10
167.436
 20
112.657
 30
0.0
 11
167.644
 21
111.679
 31
0.0
  0
LINE
  8
0
 62
     0
 10
167.644
 20
111.679
 30
0.0
 11
166.861
 21
111.514
 31
0.0
  0
LINE
  8
0
 62
     0
 10
166.861
 20
111.514
 30
0.0
 11
167.506
 21
108.482
 31
0.0
  0
LINE
  8
0
 62
     0
 10
167.506
 20
108.482
 30
0.0
 11
168.287
 21
108.647
 31
0.0
  0
LINE
  8
0
 62
     0
 10
168.287
 20
108.647
 30
0.0
 11
169.493
 21
102.974
 31
0.0
  0
LINE
  8
0
 62
     0
 10
169.493
 20
102.974
 30
0.0
 11
168.712
 21
102.807
 31
0.0
  0
LINE
  8
0
 62
     0
 10
168.712
 20
102.807
 30
0.0
 11
169.356
 21
99.7754
 31
0.0
  0
LINE
  8
0
 62
     0
 10
169.356
 20
99.7754
 30
0.0
 11
170.138
 21
99.9423
 31
0.0
  0
LINE
  8
0
 62
     0
 10
170.138
 20
99.9423
 30
0.0
 11
170.346
 21
98.9637
 31
0.0
  0
LINE
  8
0
 62
     0
 10
170.346
 20
98.9637
 30
0.0
 11
184.041
 21
101.874
 31
0.0
  0
LINE
  8
0
 62
     0
 10
184.041
 20
101.874
 30
0.0
 11
183.833
 21
102.853
 31
0.0
  0
LINE
  8
0
 62
     0
 10
183.833
 20
102.853
 30
0.0
 11
184.614
 21
103.019
 31
0.0
  0
LINE
  8
0
 62
     0
 10
184.614
 20
103.019
 30
0.0
 11
183.971
 21
106.051
 31
0.0
  0
LINE
  8
0
 62
     0
 10
183.971
 20
106.051
 30
0.0
 11
183.188
 21
105.884
 31
0.0
  0
LINE
  8
0
 62
     0
 10
183.188
 20
105.884
 30
0.0
 11
181.981
 21
111.559
 31
0.0
  0
LINE
  8
0
 62
     0
 10
181.981
 20
111.559
 30
0.0
 11
182.765
 21
111.724
 31
0.0
  0
LINE
  8
0
 62
     0
 10
182.765
 20
111.724
 30
0.0
 11
182.12
 21
114.756
 31
0.0
  0
LINE
  8
0
 62
     0
 10
182.12
 20
114.756
 30
0.0
 11
181.337
 21
114.591
 31
0.0
  0
LINE
  8
0
 62
     0
 10
181.337
 20
114.591
 30
0.0
 11
181.13
 21
115.568
 31
0.0
  0
LINE
  8
0
 62
     0
 10
181.13
 20
115.568
 30
0.0
 11
167.436
 21
112.657
 31
0.0
  0
LINE
  8
0
 62
     0
 10
133.244
 20
115.733
 30
0.0
 11
132.461
 21
115.9
 31
0.0
  0
LINE
  8
0
 62
     0
 10
132.461
 20
115.9
 30
0.0
 11
131.818
 21
112.867
 31
0.0
  0
LINE
  8
0
 62
     0
 10
131.818
 20
112.867
 30
0.0
 11
132.599
 21
112.7
 31
0.0
  0
LINE
  8
0
 62
     0
 10
132.599
 20
112.7
 30
0.0
 11
131.393
 21
107.027
 31
0.0
  0
LINE
  8
0
 62
     0
 10
131.393
 20
107.027
 30
0.0
 11
130.612
 21
107.193
 31
0.0
  0
LINE
  8
0
 62
     0
 10
130.612
 20
107.193
 30
0.0
 11
129.967
 21
104.162
 31
0.0
  0
LINE
  8
0
 62
     0
 10
129.967
 20
104.162
 30
0.0
 11
130.75
 21
103.995
 31
0.0
  0
LINE
  8
0
 62
     0
 10
130.75
 20
103.995
 30
0.0
 11
130.542
 21
103.018
 31
0.0
  0
LINE
  8
0
 62
     0
 10
130.542
 20
103.018
 30
0.0
 11
144.235
 21
100.106
 31
0.0
  0
LINE
  8
0
 62
     0
 10
144.235
 20
100.106
 30
0.0
 11
144.443
 21
101.086
 31
0.0
  0
LINE
  8
0
 62
     0
 10
144.443
 20
101.086
 30
0.0
 11
145.226
 21
100.918
 31
0.0
  0
LINE
  8
0
 62
     0
 10
145.226
 20
100.918
 30
0.0
 11
145.871
 21
103.951
 31
0.0
  0
LINE
  8
0
 62
     0
 10
145.871
 20
103.951
 30
0.0
 11
145.088
 21
104.116
 31
0.0
  0
LINE
  8
0
 62
     0
 10
145.088
 20
104.116
 30
0.0
 11
146.294
 21
109.791
 31
0.0
  0
LINE
  8
0
 62
     0
 10
146.294
 20
109.791
 30
0.0
 11
147.077
 21
109.623
 31
0.0
  0
LINE
  8
0
 62
     0
 10
147.077
 20
109.623
 30
0.0
 11
147.72
 21
112.656
 31
0.0
  0
LINE
  8
0
 62
     0
 10
147.72
 20
112.656
 30
0.0
 11
146.939
 21
112.823
 31
0.0
  0
LINE
  8
0
 62
     0
 10
146.939
 20
112.823
 30
0.0
 11
147.147
 21
113.8
 31
0.0
  0
LINE
  8
0
 62
     0
 10
147.147
 20
113.8
 30
0.0
 11
133.452
 21
116.712
 31
0.0
  0
LINE
  8
0
 62
     0
 10
133.452
 20
116.712
 30
0.0
 11
133.244
 21
115.733
 31
0.0
  0
LINE
  8
0
 62
     0
 10
330.28
 20
115.032
 30
0.0
 11
330.28
 21
114.033
 31
0.0
  0
LINE
  8
0
 62
     0
 10
330.28
 20
114.033
 30
0.0
 11
329.479
 21
114.033
 31
0.0
  0
LINE
  8
0
 62
     0
 10
329.479
 20
114.033
 30
0.0
 11
329.479
 21
110.932
 31
0.0
  0
LINE
  8
0
 62
     0
 10
329.479
 20
110.932
 30
0.0
 11
330.28
 21
110.932
 31
0.0
  0
LINE
  8
0
 62
     0
 10
330.28
 20
110.932
 30
0.0
 11
330.28
 21
105.132
 31
0.0
  0
LINE
  8
0
 62
     0
 10
330.28
 20
105.132
 30
0.0
 11
329.479
 21
105.132
 31
0.0
  0
LINE
  8
0
 62
     0
 10
329.479
 20
105.132
 30
0.0
 11
329.479
 21
102.033
 31
0.0
  0
LINE
  8
0
 62
     0
 10
329.479
 20
102.033
 30
0.0
 11
330.28
 21
102.033
 31
0.0
  0
LINE
  8
0
 62
     0
 10
330.28
 20
102.033
 30
0.0
 11
330.28
 21
101.032
 31
0.0
  0
LINE
  8
0
 62
     0
 10
330.28
 20
101.032
 30
0.0
 11
344.279
 21
101.032
 31
0.0
  0
LINE
  8
0
 62
     0
 10
344.279
 20
101.032
 30
0.0
 11
344.279
 21
102.033
 31
0.0
  0
LINE
  8
0
 62
     0
 10
344.279
 20
102.033
 30
0.0
 11
345.08
 21
102.033
 31
0.0
  0
LINE
  8
0
 62
     0
 10
345.08
 20
102.033
 30
0.0
 11
345.08
 21
105.132
 31
0.0
  0
LINE
  8
0
 62
     0
 10
345.08
 20
105.132
 30
0.0
 11
344.279
 21
105.132
 31
0.0
  0
LINE
  8
0
 62
     0
 10
344.279
 20
105.132
 30
0.0
 11
344.279
 21
110.932
 31
0.0
  0
LINE
  8
0
 62
     0
 10
344.279
 20
110.932
 30
0.0
 11
345.08
 21
110.932
 31
0.0
  0
LINE
  8
0
 62
     0
 10
345.08
 20
110.932
 30
0.0
 11
345.08
 21
114.033
 31
0.0
  0
LINE
  8
0
 62
     0
 10
345.08
 20
114.033
 30
0.0
 11
344.279
 21
114.033
 31
0.0
  0
LINE
  8
0
 62
     0
 10
344.279
 20
114.033
 30
0.0
 11
344.279
 21
115.032
 31
0.0
  0
LINE
  8
0
 62
     0
 10
344.279
 20
115.032
 30
0.0
 11
330.28
 21
115.032
 31
0.0
  0
LINE
  8
0
 62
     0
 10
186.069
 20
116.618
 30
0.0
 11
186.276
 21
115.641
 31
0.0
  0
LINE
  8
0
 62
     0
 10
186.276
 20
115.641
 30
0.0
 11
185.495
 21
115.474
 31
0.0
  0
LINE
  8
0
 62
     0
 10
185.495
 20
115.474
 30
0.0
 11
186.139
 21
112.441
 31
0.0
  0
LINE
  8
0
 62
     0
 10
186.139
 20
112.441
 30
0.0
 11
186.921
 21
112.608
 31
0.0
  0
LINE
  8
0
 62
     0
 10
186.921
 20
112.608
 30
0.0
 11
188.127
 21
106.934
 31
0.0
  0
LINE
  8
0
 62
     0
 10
188.127
 20
106.934
 30
0.0
 11
187.344
 21
106.769
 31
0.0
  0
LINE
  8
0
 62
     0
 10
187.344
 20
106.769
 30
0.0
 11
187.989
 21
103.736
 31
0.0
  0
LINE
  8
0
 62
     0
 10
187.989
 20
103.736
 30
0.0
 11
188.772
 21
103.903
 31
0.0
  0
LINE
  8
0
 62
     0
 10
188.772
 20
103.903
 30
0.0
 11
188.98
 21
102.924
 31
0.0
  0
LINE
  8
0
 62
     0
 10
188.98
 20
102.924
 30
0.0
 11
202.674
 21
105.836
 31
0.0
  0
LINE
  8
0
 62
     0
 10
202.674
 20
105.836
 30
0.0
 11
202.466
 21
106.813
 31
0.0
  0
LINE
  8
0
 62
     0
 10
202.466
 20
106.813
 30
0.0
 11
203.248
 21
106.98
 31
0.0
  0
LINE
  8
0
 62
     0
 10
203.248
 20
106.98
 30
0.0
 11
202.603
 21
110.012
 31
0.0
  0
LINE
  8
0
 62
     0
 10
202.603
 20
110.012
 30
0.0
 11
201.822
 21
109.845
 31
0.0
  0
LINE
  8
0
 62
     0
 10
201.822
 20
109.845
 30
0.0
 11
200.615
 21
115.518
 31
0.0
  0
LINE
  8
0
 62
     0
 10
200.615
 20
115.518
 30
0.0
 11
201.399
 21
115.685
 31
0.0
  0
LINE
  8
0
 62
     0
 10
201.399
 20
115.685
 30
0.0
 11
200.754
 21
118.718
 31
0.0
  0
LINE
  8
0
 62
     0
 10
200.754
 20
118.718
 30
0.0
 11
199.971
 21
118.551
 31
0.0
  0
LINE
  8
0
 62
     0
 10
199.971
 20
118.551
 30
0.0
 11
199.763
 21
119.53
 31
0.0
  0
LINE
  8
0
 62
     0
 10
199.763
 20
119.53
 30
0.0
 11
186.069
 21
116.618
 31
0.0
  0
LINE
  8
0
 62
     0
 10
114.61
 20
119.694
 30
0.0
 11
113.829
 21
119.86
 31
0.0
  0
LINE
  8
0
 62
     0
 10
113.829
 20
119.86
 30
0.0
 11
113.184
 21
116.827
 31
0.0
  0
LINE
  8
0
 62
     0
 10
113.184
 20
116.827
 30
0.0
 11
113.967
 21
116.662
 31
0.0
  0
LINE
  8
0
 62
     0
 10
113.967
 20
116.662
 30
0.0
 11
112.761
 21
110.988
 31
0.0
  0
LINE
  8
0
 62
     0
 10
112.761
 20
110.988
 30
0.0
 11
111.978
 21
111.154
 31
0.0
  0
LINE
  8
0
 62
     0
 10
111.978
 20
111.154
 30
0.0
 11
111.333
 21
108.122
 31
0.0
  0
LINE
  8
0
 62
     0
 10
111.333
 20
108.122
 30
0.0
 11
112.116
 21
107.957
 31
0.0
  0
LINE
  8
0
 62
     0
 10
112.116
 20
107.957
 30
0.0
 11
111.908
 21
106.977
 31
0.0
  0
LINE
  8
0
 62
     0
 10
111.908
 20
106.977
 30
0.0
 11
125.601
 21
104.068
 31
0.0
  0
LINE
  8
0
 62
     0
 10
125.601
 20
104.068
 30
0.0
 11
125.809
 21
105.045
 31
0.0
  0
LINE
  8
0
 62
     0
 10
125.809
 20
105.045
 30
0.0
 11
126.592
 21
104.878
 31
0.0
  0
LINE
  8
0
 62
     0
 10
126.592
 20
104.878
 30
0.0
 11
127.237
 21
107.912
 31
0.0
  0
LINE
  8
0
 62
     0
 10
127.237
 20
107.912
 30
0.0
 11
126.454
 21
108.077
 31
0.0
  0
LINE
  8
0
 62
     0
 10
126.454
 20
108.077
 30
0.0
 11
127.66
 21
113.75
 31
0.0
  0
LINE
  8
0
 62
     0
 10
127.66
 20
113.75
 30
0.0
 11
128.443
 21
113.585
 31
0.0
  0
LINE
  8
0
 62
     0
 10
128.443
 20
113.585
 30
0.0
 11
129.088
 21
116.616
 31
0.0
  0
LINE
  8
0
 62
     0
 10
129.088
 20
116.616
 30
0.0
 11
128.305
 21
116.783
 31
0.0
  0
LINE
  8
0
 62
     0
 10
128.305
 20
116.783
 30
0.0
 11
128.513
 21
117.762
 31
0.0
  0
LINE
  8
0
 62
     0
 10
128.513
 20
117.762
 30
0.0
 11
114.818
 21
120.672
 31
0.0
  0
LINE
  8
0
 62
     0
 10
114.818
 20
120.672
 30
0.0
 11
114.61
 21
119.694
 31
0.0
  0
LINE
  8
0
 62
     0
 10
204.702
 20
120.58
 30
0.0
 11
204.91
 21
119.601
 31
0.0
  0
LINE
  8
0
 62
     0
 10
204.91
 20
119.601
 30
0.0
 11
204.129
 21
119.435
 31
0.0
  0
LINE
  8
0
 62
     0
 10
204.129
 20
119.435
 30
0.0
 11
204.772
 21
116.403
 31
0.0
  0
LINE
  8
0
 62
     0
 10
204.772
 20
116.403
 30
0.0
 11
205.555
 21
116.568
 31
0.0
  0
LINE
  8
0
 62
     0
 10
205.555
 20
116.568
 30
0.0
 11
206.761
 21
110.895
 31
0.0
  0
LINE
  8
0
 62
     0
 10
206.761
 20
110.895
 30
0.0
 11
205.978
 21
110.73
 31
0.0
  0
LINE
  8
0
 62
     0
 10
205.978
 20
110.73
 30
0.0
 11
206.623
 21
107.698
 31
0.0
  0
LINE
  8
0
 62
     0
 10
206.623
 20
107.698
 30
0.0
 11
207.406
 21
107.863
 31
0.0
  0
LINE
  8
0
 62
     0
 10
207.406
 20
107.863
 30
0.0
 11
207.614
 21
106.885
 31
0.0
  0
LINE
  8
0
 62
     0
 10
207.614
 20
106.885
 30
0.0
 11
221.307
 21
109.795
 31
0.0
  0
LINE
  8
0
 62
     0
 10
221.307
 20
109.795
 30
0.0
 11
221.099
 21
110.775
 31
0.0
  0
LINE
  8
0
 62
     0
 10
221.099
 20
110.775
 30
0.0
 11
221.882
 21
110.94
 31
0.0
  0
LINE
  8
0
 62
     0
 10
221.882
 20
110.94
 30
0.0
 11
221.237
 21
113.972
 31
0.0
  0
LINE
  8
0
 62
     0
 10
221.237
 20
113.972
 30
0.0
 11
220.456
 21
113.807
 31
0.0
  0
LINE
  8
0
 62
     0
 10
220.456
 20
113.807
 30
0.0
 11
219.25
 21
119.48
 31
0.0
  0
LINE
  8
0
 62
     0
 10
219.25
 20
119.48
 30
0.0
 11
220.031
 21
119.645
 31
0.0
  0
LINE
  8
0
 62
     0
 10
220.031
 20
119.645
 30
0.0
 11
219.388
 21
122.678
 31
0.0
  0
LINE
  8
0
 62
     0
 10
219.388
 20
122.678
 30
0.0
 11
218.605
 21
122.512
 31
0.0
  0
LINE
  8
0
 62
     0
 10
218.605
 20
122.512
 30
0.0
 11
218.397
 21
123.49
 31
0.0
  0
LINE
  8
0
 62
     0
 10
218.397
 20
123.49
 30
0.0
 11
204.702
 21
120.58
 31
0.0
  0
LINE
  8
0
 62
     0
 10
95.9764
 20
123.654
 30
0.0
 11
95.195
 21
123.821
 31
0.0
  0
LINE
  8
0
 62
     0
 10
95.195
 20
123.821
 30
0.0
 11
94.5501
 21
120.788
 31
0.0
  0
LINE
  8
0
 62
     0
 10
94.5501
 20
120.788
 30
0.0
 11
95.3326
 21
120.622
 31
0.0
  0
LINE
  8
0
 62
     0
 10
95.3326
 20
120.622
 30
0.0
 11
94.1268
 21
114.949
 31
0.0
  0
LINE
  8
0
 62
     0
 10
94.1268
 20
114.949
 30
0.0
 11
93.3443
 21
115.116
 31
0.0
  0
LINE
  8
0
 62
     0
 10
93.3443
 20
115.116
 30
0.0
 11
92.6994
 21
112.083
 31
0.0
  0
LINE
  8
0
 62
     0
 10
92.6994
 20
112.083
 30
0.0
 11
93.4819
 21
111.916
 31
0.0
  0
LINE
  8
0
 62
     0
 10
93.4819
 20
111.916
 30
0.0
 11
93.2737
 21
110.939
 31
0.0
  0
LINE
  8
0
 62
     0
 10
93.2737
 20
110.939
 30
0.0
 11
106.969
 21
108.027
 31
0.0
  0
LINE
  8
0
 62
     0
 10
106.969
 20
108.027
 30
0.0
 11
107.176
 21
109.006
 31
0.0
  0
LINE
  8
0
 62
     0
 10
107.176
 20
109.006
 30
0.0
 11
107.958
 21
108.839
 31
0.0
  0
LINE
  8
0
 62
     0
 10
107.958
 20
108.839
 30
0.0
 11
108.603
 21
111.872
 31
0.0
  0
LINE
  8
0
 62
     0
 10
108.603
 20
111.872
 30
0.0
 11
107.821
 21
112.039
 31
0.0
  0
LINE
  8
0
 62
     0
 10
107.821
 20
112.039
 30
0.0
 11
109.026
 21
117.712
 31
0.0
  0
LINE
  8
0
 62
     0
 10
109.026
 20
117.712
 30
0.0
 11
109.809
 21
117.545
 31
0.0
  0
LINE
  8
0
 62
     0
 10
109.809
 20
117.545
 30
0.0
 11
110.454
 21
120.577
 31
0.0
  0
LINE
  8
0
 62
     0
 10
110.454
 20
120.577
 30
0.0
 11
109.671
 21
120.744
 31
0.0
  0
LINE
  8
0
 62
     0
 10
109.671
 20
120.744
 30
0.0
 11
109.878
 21
121.721
 31
0.0
  0
LINE
  8
0
 62
     0
 10
109.878
 20
121.721
 30
0.0
 11
96.1842
 21
124.633
 31
0.0
  0
LINE
  8
0
 62
     0
 10
96.1842
 20
124.633
 30
0.0
 11
95.9764
 21
123.654
 31
0.0
  0
LINE
  8
0
 62
     0
 10
223.336
 20
124.539
 30
0.0
 11
223.544
 21
123.562
 31
0.0
  0
LINE
  8
0
 62
     0
 10
223.544
 20
123.562
 30
0.0
 11
222.761
 21
123.395
 31
0.0
  0
LINE
  8
0
 62
     0
 10
222.761
 20
123.395
 30
0.0
 11
223.406
 21
120.364
 31
0.0
  0
LINE
  8
0
 62
     0
 10
223.406
 20
120.364
 30
0.0
 11
224.189
 21
120.529
 31
0.0
  0
LINE
  8
0
 62
     0
 10
224.189
 20
120.529
 30
0.0
 11
225.395
 21
114.857
 31
0.0
  0
LINE
  8
0
 62
     0
 10
225.395
 20
114.857
 30
0.0
 11
224.612
 21
114.69
 31
0.0
  0
LINE
  8
0
 62
     0
 10
224.612
 20
114.69
 30
0.0
 11
225.257
 21
111.657
 31
0.0
  0
LINE
  8
0
 62
     0
 10
225.257
 20
111.657
 30
0.0
 11
226.04
 21
111.825
 31
0.0
  0
LINE
  8
0
 62
     0
 10
226.04
 20
111.825
 30
0.0
 11
226.248
 21
110.845
 31
0.0
  0
LINE
  8
0
 62
     0
 10
226.248
 20
110.845
 30
0.0
 11
239.941
 21
113.757
 31
0.0
  0
LINE
  8
0
 62
     0
 10
239.941
 20
113.757
 30
0.0
 11
239.733
 21
114.734
 31
0.0
  0
LINE
  8
0
 62
     0
 10
239.733
 20
114.734
 30
0.0
 11
240.516
 21
114.901
 31
0.0
  0
LINE
  8
0
 62
     0
 10
240.516
 20
114.901
 30
0.0
 11
239.871
 21
117.934
 31
0.0
  0
LINE
  8
0
 62
     0
 10
239.871
 20
117.934
 30
0.0
 11
239.088
 21
117.767
 31
0.0
  0
LINE
  8
0
 62
     0
 10
239.088
 20
117.767
 30
0.0
 11
237.883
 21
123.44
 31
0.0
  0
LINE
  8
0
 62
     0
 10
237.883
 20
123.44
 30
0.0
 11
238.665
 21
123.606
 31
0.0
  0
LINE
  8
0
 62
     0
 10
238.665
 20
123.606
 30
0.0
 11
238.02
 21
126.639
 31
0.0
  0
LINE
  8
0
 62
     0
 10
238.02
 20
126.639
 30
0.0
 11
237.239
 21
126.472
 31
0.0
  0
LINE
  8
0
 62
     0
 10
237.239
 20
126.472
 30
0.0
 11
237.031
 21
127.451
 31
0.0
  0
LINE
  8
0
 62
     0
 10
237.031
 20
127.451
 30
0.0
 11
223.336
 21
124.539
 31
0.0
  0
LINE
  8
0
 62
     0
 10
77.3437
 20
127.616
 30
0.0
 11
76.5609
 21
127.781
 31
0.0
  0
LINE
  8
0
 62
     0
 10
76.5609
 20
127.781
 30
0.0
 11
75.916
 21
124.75
 31
0.0
  0
LINE
  8
0
 62
     0
 10
75.916
 20
124.75
 30
0.0
 11
76.6988
 21
124.583
 31
0.0
  0
LINE
  8
0
 62
     0
 10
76.6988
 20
124.583
 30
0.0
 11
75.493
 21
118.909
 31
0.0
  0
LINE
  8
0
 62
     0
 10
75.493
 20
118.909
 30
0.0
 11
74.7102
 21
119.076
 31
0.0
  0
LINE
  8
0
 62
     0
 10
74.7102
 20
119.076
 30
0.0
 11
74.0653
 21
116.043
 31
0.0
  0
LINE
  8
0
 62
     0
 10
74.0653
 20
116.043
 30
0.0
 11
74.8482
 21
115.878
 31
0.0
  0
LINE
  8
0
 62
     0
 10
74.8482
 20
115.878
 30
0.0
 11
74.64
 21
114.899
 31
0.0
  0
LINE
  8
0
 62
     0
 10
74.64
 20
114.899
 30
0.0
 11
88.3348
 21
111.989
 31
0.0
  0
LINE
  8
0
 62
     0
 10
88.3348
 20
111.989
 30
0.0
 11
88.543
 21
112.966
 31
0.0
  0
LINE
  8
0
 62
     0
 10
88.543
 20
112.966
 30
0.0
 11
89.3244
 21
112.801
 31
0.0
  0
LINE
  8
0
 62
     0
 10
89.3244
 20
112.801
 30
0.0
 11
89.9693
 21
115.832
 31
0.0
  0
LINE
  8
0
 62
     0
 10
89.9693
 20
115.832
 30
0.0
 11
89.1868
 21
115.998
 31
0.0
  0
LINE
  8
0
 62
     0
 10
89.1868
 20
115.998
 30
0.0
 11
90.3923
 21
121.672
 31
0.0
  0
LINE
  8
0
 62
     0
 10
90.3923
 20
121.672
 30
0.0
 11
91.1751
 21
121.506
 31
0.0
  0
LINE
  8
0
 62
     0
 10
91.1751
 20
121.506
 30
0.0
 11
91.8199
 21
124.539
 31
0.0
  0
LINE
  8
0
 62
     0
 10
91.8199
 20
124.539
 30
0.0
 11
91.0375
 21
124.704
 31
0.0
  0
LINE
  8
0
 62
     0
 10
91.0375
 20
124.704
 30
0.0
 11
91.2453
 21
125.683
 31
0.0
  0
LINE
  8
0
 62
     0
 10
91.2453
 20
125.683
 30
0.0
 11
77.5518
 21
128.593
 31
0.0
  0
LINE
  8
0
 62
     0
 10
77.5518
 20
128.593
 30
0.0
 11
77.3437
 21
127.616
 31
0.0
  0
LINE
  8
0
 62
     0
 10
301.705
 20
129.319
 30
0.0
 11
301.705
 21
128.319
 31
0.0
  0
LINE
  8
0
 62
     0
 10
301.705
 20
128.319
 30
0.0
 11
300.904
 21
128.319
 31
0.0
  0
LINE
  8
0
 62
     0
 10
300.904
 20
128.319
 30
0.0
 11
300.904
 21
125.22
 31
0.0
  0
LINE
  8
0
 62
     0
 10
300.904
 20
125.22
 30
0.0
 11
301.705
 21
125.22
 31
0.0
  0
LINE
  8
0
 62
     0
 10
301.705
 20
125.22
 30
0.0
 11
301.705
 21
119.42
 31
0.0
  0
LINE
  8
0
 62
     0
 10
301.705
 20
119.42
 30
0.0
 11
300.904
 21
119.42
 31
0.0
  0
LINE
  8
0
 62
     0
 10
300.904
 20
119.42
 30
0.0
 11
300.904
 21
116.319
 31
0.0
  0
LINE
  8
0
 62
     0
 10
300.904
 20
116.319
 30
0.0
 11
301.705
 21
116.319
 31
0.0
  0
LINE
  8
0
 62
     0
 10
301.705
 20
116.319
 30
0.0
 11
301.705
 21
115.32
 31
0.0
  0
LINE
  8
0
 62
     0
 10
301.705
 20
115.32
 30
0.0
 11
315.704
 21
115.32
 31
0.0
  0
LINE
  8
0
 62
     0
 10
315.704
 20
115.32
 30
0.0
 11
315.704
 21
116.319
 31
0.0
  0
LINE
  8
0
 62
     0
 10
315.704
 20
116.319
 30
0.0
 11
316.505
 21
116.319
 31
0.0
  0
LINE
  8
0
 62
     0
 10
316.505
 20
116.319
 30
0.0
 11
316.505
 21
119.42
 31
0.0
  0
LINE
  8
0
 62
     0
 10
316.505
 20
119.42
 30
0.0
 11
315.704
 21
119.42
 31
0.0
  0
LINE
  8
0
 62
     0
 10
315.704
 20
119.42
 30
0.0
 11
315.704
 21
125.22
 31
0.0
  0
LINE
  8
0
 62
     0
 10
315.704
 20
125.22
 30
0.0
 11
316.505
 21
125.22
 31
0.0
  0
LINE
  8
0
 62
     0
 10
316.505
 20
125.22
 30
0.0
 11
316.505
 21
128.319
 31
0.0
  0
LINE
  8
0
 62
     0
 10
316.505
 20
128.319
 30
0.0
 11
315.704
 21
128.319
 31
0.0
  0
LINE
  8
0
 62
     0
 10
315.704
 20
128.319
 30
0.0
 11
315.704
 21
129.319
 31
0.0
  0
LINE
  8
0
 62
     0
 10
315.704
 20
129.319
 30
0.0
 11
301.705
 21
129.319
 31
0.0
  0
LINE
  8
0
 62
     0
 10
282.655
 20
129.319
 30
0.0
 11
282.655
 21
128.319
 31
0.0
  0
LINE
  8
0
 62
     0
 10
282.655
 20
128.319
 30
0.0
 11
281.854
 21
128.319
 31
0.0
  0
LINE
  8
0
 62
     0
 10
281.854
 20
128.319
 30
0.0
 11
281.854
 21
125.22
 31
0.0
  0
LINE
  8
0
 62
     0
 10
281.854
 20
125.22
 30
0.0
 11
282.655
 21
125.22
 31
0.0
  0
LINE
  8
0
 62
     0
 10
282.655
 20
125.22
 30
0.0
 11
282.655
 21
119.42
 31
0.0
  0
LINE
  8
0
 62
     0
 10
282.655
 20
119.42
 30
0.0
 11
281.854
 21
119.42
 31
0.0
  0
LINE
  8
0
 62
     0
 10
281.854
 20
119.42
 30
0.0
 11
281.854
 21
116.319
 31
0.0
  0
LINE
  8
0
 62
     0
 10
281.854
 20
116.319
 30
0.0
 11
282.655
 21
116.319
 31
0.0
  0
LINE
  8
0
 62
     0
 10
282.655
 20
116.319
 30
0.0
 11
282.655
 21
115.32
 31
0.0
  0
LINE
  8
0
 62
     0
 10
282.655
 20
115.32
 30
0.0
 11
296.654
 21
115.32
 31
0.0
  0
LINE
  8
0
 62
     0
 10
296.654
 20
115.32
 30
0.0
 11
296.654
 21
116.319
 31
0.0
  0
LINE
  8
0
 62
     0
 10
296.654
 20
116.319
 30
0.0
 11
297.455
 21
116.319
 31
0.0
  0
LINE
  8
0
 62
     0
 10
297.455
 20
116.319
 30
0.0
 11
297.455
 21
119.42
 31
0.0
  0
LINE
  8
0
 62
     0
 10
297.455
 20
119.42
 30
0.0
 11
296.654
 21
119.42
 31
0.0
  0
LINE
  8
0
 62
     0
 10
296.654
 20
119.42
 30
0.0
 11
296.654
 21
125.22
 31
0.0
  0
LINE
  8
0
 62
     0
 10
296.654
 20
125.22
 30
0.0
 11
297.455
 21
125.22
 31
0.0
  0
LINE
  8
0
 62
     0
 10
297.455
 20
125.22
 30
0.0
 11
297.455
 21
128.319
 31
0.0
  0
LINE
  8
0
 62
     0
 10
297.455
 20
128.319
 30
0.0
 11
296.654
 21
128.319
 31
0.0
  0
LINE
  8
0
 62
     0
 10
296.654
 20
128.319
 30
0.0
 11
296.654
 21
129.319
 31
0.0
  0
LINE
  8
0
 62
     0
 10
296.654
 20
129.319
 30
0.0
 11
282.655
 21
129.319
 31
0.0
  0
LINE
  8
0
 62
     0
 10
263.605
 20
129.319
 30
0.0
 11
263.605
 21
128.319
 31
0.0
  0
LINE
  8
0
 62
     0
 10
263.605
 20
128.319
 30
0.0
 11
262.804
 21
128.319
 31
0.0
  0
LINE
  8
0
 62
     0
 10
262.804
 20
128.319
 30
0.0
 11
262.804
 21
125.22
 31
0.0
  0
LINE
  8
0
 62
     0
 10
262.804
 20
125.22
 30
0.0
 11
263.605
 21
125.22
 31
0.0
  0
LINE
  8
0
 62
     0
 10
263.605
 20
125.22
 30
0.0
 11
263.605
 21
119.42
 31
0.0
  0
LINE
  8
0
 62
     0
 10
263.605
 20
119.42
 30
0.0
 11
262.804
 21
119.42
 31
0.0
  0
LINE
  8
0
 62
     0
 10
262.804
 20
119.42
 30
0.0
 11
262.804
 21
116.319
 31
0.0
  0
LINE
  8
0
 62
     0
 10
262.804
 20
116.319
 30
0.0
 11
263.605
 21
116.319
 31
0.0
  0
LINE
  8
0
 62
     0
 10
263.605
 20
116.319
 30
0.0
 11
263.605
 21
115.32
 31
0.0
  0
LINE
  8
0
 62
     0
 10
263.605
 20
115.32
 30
0.0
 11
277.604
 21
115.32
 31
0.0
  0
LINE
  8
0
 62
     0
 10
277.604
 20
115.32
 30
0.0
 11
277.604
 21
116.319
 31
0.0
  0
LINE
  8
0
 62
     0
 10
277.604
 20
116.319
 30
0.0
 11
278.405
 21
116.319
 31
0.0
  0
LINE
  8
0
 62
     0
 10
278.405
 20
116.319
 30
0.0
 11
278.405
 21
119.42
 31
0.0
  0
LINE
  8
0
 62
     0
 10
278.405
 20
119.42
 30
0.0
 11
277.604
 21
119.42
 31
0.0
  0
LINE
  8
0
 62
     0
 10
277.604
 20
119.42
 30
0.0
 11
277.604
 21
125.22
 31
0.0
  0
LINE
  8
0
 62
     0
 10
277.604
 20
125.22
 30
0.0
 11
278.405
 21
125.22
 31
0.0
  0
LINE
  8
0
 62
     0
 10
278.405
 20
125.22
 30
0.0
 11
278.405
 21
128.319
 31
0.0
  0
LINE
  8
0
 62
     0
 10
278.405
 20
128.319
 30
0.0
 11
277.604
 21
128.319
 31
0.0
  0
LINE
  8
0
 62
     0
 10
277.604
 20
128.319
 30
0.0
 11
277.604
 21
129.319
 31
0.0
  0
LINE
  8
0
 62
     0
 10
277.604
 20
129.319
 30
0.0
 11
263.605
 21
129.319
 31
0.0
  0
LINE
  8
0
 62
     0
 10
35.9572
 20
129.319
 30
0.0
 11
35.9572
 21
128.319
 31
0.0
  0
LINE
  8
0
 62
     0
 10
35.9572
 20
128.319
 30
0.0
 11
35.1565
 21
128.319
 31
0.0
  0
LINE
  8
0
 62
     0
 10
35.1565
 20
128.319
 30
0.0
 11
35.1565
 21
125.22
 31
0.0
  0
LINE
  8
0
 62
     0
 10
35.1565
 20
125.22
 30
0.0
 11
35.9572
 21
125.22
 31
0.0
  0
LINE
  8
0
 62
     0
 10
35.9572
 20
125.22
 30
0.0
 11
35.9572
 21
119.42
 31
0.0
  0
LINE
  8
0
 62
     0
 10
35.9572
 20
119.42
 30
0.0
 11
35.1565
 21
119.42
 31
0.0
  0
LINE
  8
0
 62
     0
 10
35.1565
 20
119.42
 30
0.0
 11
35.1565
 21
116.319
 31
0.0
  0
LINE
  8
0
 62
     0
 10
35.1565
 20
116.319
 30
0.0
 11
35.9572
 21
116.319
 31
0.0
  0
LINE
  8
0
 62
     0
 10
35.9572
 20
116.319
 30
0.0
 11
35.9572
 21
115.32
 31
0.0
  0
LINE
  8
0
 62
     0
 10
35.9572
 20
115.32
 30
0.0
 11
49.9565
 21
115.32
 31
0.0
  0
LINE
  8
0
 62
     0
 10
49.9565
 20
115.32
 30
0.0
 11
49.9565
 21
116.319
 31
0.0
  0
LINE
  8
0
 62
     0
 10
49.9565
 20
116.319
 30
0.0
 11
50.7559
 21
116.319
 31
0.0
  0
LINE
  8
0
 62
     0
 10
50.7559
 20
116.319
 30
0.0
 11
50.7559
 21
119.42
 31
0.0
  0
LINE
  8
0
 62
     0
 10
50.7559
 20
119.42
 30
0.0
 11
49.9565
 21
119.42
 31
0.0
  0
LINE
  8
0
 62
     0
 10
49.9565
 20
119.42
 30
0.0
 11
49.9565
 21
125.22
 31
0.0
  0
LINE
  8
0
 62
     0
 10
49.9565
 20
125.22
 30
0.0
 11
50.7559
 21
125.22
 31
0.0
  0
LINE
  8
0
 62
     0
 10
50.7559
 20
125.22
 30
0.0
 11
50.7559
 21
128.319
 31
0.0
  0
LINE
  8
0
 62
     0
 10
50.7559
 20
128.319
 30
0.0
 11
49.9565
 21
128.319
 31
0.0
  0
LINE
  8
0
 62
     0
 10
49.9565
 20
128.319
 30
0.0
 11
49.9565
 21
129.319
 31
0.0
  0
LINE
  8
0
 62
     0
 10
49.9565
 20
129.319
 30
0.0
 11
35.9572
 21
129.319
 31
0.0
  0
LINE
  8
0
 62
     0
 10
16.9072
 20
129.319
 30
0.0
 11
16.9072
 21
128.319
 31
0.0
  0
LINE
  8
0
 62
     0
 10
16.9072
 20
128.319
 30
0.0
 11
16.1065
 21
128.319
 31
0.0
  0
LINE
  8
0
 62
     0
 10
16.1065
 20
128.319
 30
0.0
 11
16.1065
 21
125.22
 31
0.0
  0
LINE
  8
0
 62
     0
 10
16.1065
 20
125.22
 30
0.0
 11
16.9072
 21
125.22
 31
0.0
  0
LINE
  8
0
 62
     0
 10
16.9072
 20
125.22
 30
0.0
 11
16.9072
 21
119.42
 31
0.0
  0
LINE
  8
0
 62
     0
 10
16.9072
 20
119.42
 30
0.0
 11
16.1065
 21
119.42
 31
0.0
  0
LINE
  8
0
 62
     0
 10
16.1065
 20
119.42
 30
0.0
 11
16.1065
 21
116.319
 31
0.0
  0
LINE
  8
0
 62
     0
 10
16.1065
 20
116.319
 30
0.0
 11
16.9072
 21
116.319
 31
0.0
  0
LINE
  8
0
 62
     0
 10
16.9072
 20
116.319
 30
0.0
 11
16.9072
 21
115.32
 31
0.0
  0
LINE
  8
0
 62
     0
 10
16.9072
 20
115.32
 30
0.0
 11
30.9066
 21
115.32
 31
0.0
  0
LINE
  8
0
 62
     0
 10
30.9066
 20
115.32
 30
0.0
 11
30.9066
 21
116.319
 31
0.0
  0
LINE
  8
0
 62
     0
 10
30.9066
 20
116.319
 30
0.0
 11
31.7059
 21
116.319
 31
0.0
  0
LINE
  8
0
 62
     0
 10
31.7059
 20
116.319
 30
0.0
 11
31.7059
 21
119.42
 31
0.0
  0
LINE
  8
0
 62
     0
 10
31.7059
 20
119.42
 30
0.0
 11
30.9066
 21
119.42
 31
0.0
  0
LINE
  8
0
 62
     0
 10
30.9066
 20
119.42
 30
0.0
 11
30.9066
 21
125.22
 31
0.0
  0
LINE
  8
0
 62
     0
 10
30.9066
 20
125.22
 30
0.0
 11
31.7059
 21
125.22
 31
0.0
  0
LINE
  8
0
 62
     0
 10
31.7059
 20
125.22
 30
0.0
 11
31.7059
 21
128.319
 31
0.0
  0
LINE
  8
0
 62
     0
 10
31.7059
 20
128.319
 30
0.0
 11
30.9066
 21
128.319
 31
0.0
  0
LINE
  8
0
 62
     0
 10
30.9066
 20
128.319
 30
0.0
 11
30.9066
 21
129.319
 31
0.0
  0
LINE
  8
0
 62
     0
 10
30.9066
 20
129.319
 30
0.0
 11
16.9072
 21
129.319
 31
0.0
  0
LINE
  8
0
 62
     0
 10
244.555
 20
132.177
 30
0.0
 11
244.555
 21
131.177
 31
0.0
  0
LINE
  8
0
 62
     0
 10
244.555
 20
131.177
 30
0.0
 11
243.754
 21
131.177
 31
0.0
  0
LINE
  8
0
 62
     0
 10
243.754
 20
131.177
 30
0.0
 11
243.754
 21
128.078
 31
0.0
  0
LINE
  8
0
 62
     0
 10
243.754
 20
128.078
 30
0.0
 11
244.555
 21
128.078
 31
0.0
  0
LINE
  8
0
 62
     0
 10
244.555
 20
128.078
 30
0.0
 11
244.555
 21
122.277
 31
0.0
  0
LINE
  8
0
 62
     0
 10
244.555
 20
122.277
 30
0.0
 11
243.754
 21
122.277
 31
0.0
  0
LINE
  8
0
 62
     0
 10
243.754
 20
122.277
 30
0.0
 11
243.754
 21
119.177
 31
0.0
  0
LINE
  8
0
 62
     0
 10
243.754
 20
119.177
 30
0.0
 11
244.555
 21
119.177
 31
0.0
  0
LINE
  8
0
 62
     0
 10
244.555
 20
119.177
 30
0.0
 11
244.555
 21
118.178
 31
0.0
  0
LINE
  8
0
 62
     0
 10
244.555
 20
118.178
 30
0.0
 11
258.554
 21
118.178
 31
0.0
  0
LINE
  8
0
 62
     0
 10
258.554
 20
118.178
 30
0.0
 11
258.554
 21
119.177
 31
0.0
  0
LINE
  8
0
 62
     0
 10
258.554
 20
119.177
 30
0.0
 11
259.355
 21
119.177
 31
0.0
  0
LINE
  8
0
 62
     0
 10
259.355
 20
119.177
 30
0.0
 11
259.355
 21
122.277
 31
0.0
  0
LINE
  8
0
 62
     0
 10
259.355
 20
122.277
 30
0.0
 11
258.554
 21
122.277
 31
0.0
  0
LINE
  8
0
 62
     0
 10
258.554
 20
122.277
 30
0.0
 11
258.554
 21
128.078
 31
0.0
  0
LINE
  8
0
 62
     0
 10
258.554
 20
128.078
 30
0.0
 11
259.355
 21
128.078
 31
0.0
  0
LINE
  8
0
 62
     0
 10
259.355
 20
128.078
 30
0.0
 11
259.355
 21
131.177
 31
0.0
  0
LINE
  8
0
 62
     0
 10
259.355
 20
131.177
 30
0.0
 11
258.554
 21
131.177
 31
0.0
  0
LINE
  8
0
 62
     0
 10
258.554
 20
131.177
 30
0.0
 11
258.554
 21
132.177
 31
0.0
  0
LINE
  8
0
 62
     0
 10
258.554
 20
132.177
 30
0.0
 11
244.555
 21
132.177
 31
0.0
  0
LINE
  8
0
 62
     0
 10
55.0072
 20
132.177
 30
0.0
 11
55.0072
 21
131.177
 31
0.0
  0
LINE
  8
0
 62
     0
 10
55.0072
 20
131.177
 30
0.0
 11
54.2064
 21
131.177
 31
0.0
  0
LINE
  8
0
 62
     0
 10
54.2064
 20
131.177
 30
0.0
 11
54.2064
 21
128.078
 31
0.0
  0
LINE
  8
0
 62
     0
 10
54.2064
 20
128.078
 30
0.0
 11
55.0072
 21
128.078
 31
0.0
  0
LINE
  8
0
 62
     0
 10
55.0072
 20
128.078
 30
0.0
 11
55.0072
 21
122.277
 31
0.0
  0
LINE
  8
0
 62
     0
 10
55.0072
 20
122.277
 30
0.0
 11
54.2064
 21
122.277
 31
0.0
  0
LINE
  8
0
 62
     0
 10
54.2064
 20
122.277
 30
0.0
 11
54.2064
 21
119.177
 31
0.0
  0
LINE
  8
0
 62
     0
 10
54.2064
 20
119.177
 30
0.0
 11
55.0072
 21
119.177
 31
0.0
  0
LINE
  8
0
 62
     0
 10
55.0072
 20
119.177
 30
0.0
 11
55.0072
 21
118.178
 31
0.0
  0
LINE
  8
0
 62
     0
 10
55.0072
 20
118.178
 30
0.0
 11
69.0065
 21
118.178
 31
0.0
  0
LINE
  8
0
 62
     0
 10
69.0065
 20
118.178
 30
0.0
 11
69.0065
 21
119.177
 31
0.0
  0
LINE
  8
0
 62
     0
 10
69.0065
 20
119.177
 30
0.0
 11
69.8059
 21
119.177
 31
0.0
  0
LINE
  8
0
 62
     0
 10
69.8059
 20
119.177
 30
0.0
 11
69.8059
 21
122.277
 31
0.0
  0
LINE
  8
0
 62
     0
 10
69.8059
 20
122.277
 30
0.0
 11
69.0065
 21
122.277
 31
0.0
  0
LINE
  8
0
 62
     0
 10
69.0065
 20
122.277
 30
0.0
 11
69.0065
 21
128.078
 31
0.0
  0
LINE
  8
0
 62
     0
 10
69.0065
 20
128.078
 30
0.0
 11
69.8059
 21
128.078
 31
0.0
  0
LINE
  8
0
 62
     0
 10
69.8059
 20
128.078
 30
0.0
 11
69.8059
 21
131.177
 31
0.0
  0
LINE
  8
0
 62
     0
 10
69.8059
 20
131.177
 30
0.0
 11
69.0065
 21
131.177
 31
0.0
  0
LINE
  8
0
 62
     0
 10
69.0065
 20
131.177
 30
0.0
 11
69.0065
 21
132.177
 31
0.0
  0
LINE
  8
0
 62
     0
 10
69.0065
 20
132.177
 30
0.0
 11
55.0072
 21
132.177
 31
0.0
  0
LINE
  8
0
 62
     0
 10
325.516
 20
134.082
 30
0.0
 11
325.516
 21
133.083
 31
0.0
  0
LINE
  8
0
 62
     0
 10
325.516
 20
133.083
 30
0.0
 11
324.717
 21
133.083
 31
0.0
  0
LINE
  8
0
 62
     0
 10
324.717
 20
133.083
 30
0.0
 11
324.717
 21
129.982
 31
0.0
  0
LINE
  8
0
 62
     0
 10
324.717
 20
129.982
 30
0.0
 11
325.516
 21
129.982
 31
0.0
  0
LINE
  8
0
 62
     0
 10
325.516
 20
129.982
 30
0.0
 11
325.516
 21
124.182
 31
0.0
  0
LINE
  8
0
 62
     0
 10
325.516
 20
124.182
 30
0.0
 11
324.717
 21
124.182
 31
0.0
  0
LINE
  8
0
 62
     0
 10
324.717
 20
124.182
 30
0.0
 11
324.717
 21
121.083
 31
0.0
  0
LINE
  8
0
 62
     0
 10
324.717
 20
121.083
 30
0.0
 11
325.516
 21
121.083
 31
0.0
  0
LINE
  8
0
 62
     0
 10
325.516
 20
121.083
 30
0.0
 11
325.516
 21
120.082
 31
0.0
  0
LINE
  8
0
 62
     0
 10
325.516
 20
120.082
 30
0.0
 11
339.517
 21
120.082
 31
0.0
  0
LINE
  8
0
 62
     0
 10
339.517
 20
120.082
 30
0.0
 11
339.517
 21
121.083
 31
0.0
  0
LINE
  8
0
 62
     0
 10
339.517
 20
121.083
 30
0.0
 11
340.316
 21
121.083
 31
0.0
  0
LINE
  8
0
 62
     0
 10
340.316
 20
121.083
 30
0.0
 11
340.316
 21
124.182
 31
0.0
  0
LINE
  8
0
 62
     0
 10
340.316
 20
124.182
 30
0.0
 11
339.517
 21
124.182
 31
0.0
  0
LINE
  8
0
 62
     0
 10
339.517
 20
124.182
 30
0.0
 11
339.517
 21
129.982
 31
0.0
  0
LINE
  8
0
 62
     0
 10
339.517
 20
129.982
 30
0.0
 11
340.316
 21
129.982
 31
0.0
  0
LINE
  8
0
 62
     0
 10
340.316
 20
129.982
 30
0.0
 11
340.316
 21
133.083
 31
0.0
  0
LINE
  8
0
 62
     0
 10
340.316
 20
133.083
 30
0.0
 11
339.517
 21
133.083
 31
0.0
  0
LINE
  8
0
 62
     0
 10
339.517
 20
133.083
 30
0.0
 11
339.517
 21
134.082
 31
0.0
  0
LINE
  8
0
 62
     0
 10
339.517
 20
134.082
 30
0.0
 11
325.516
 21
134.082
 31
0.0
  0
LINE
  8
0
 62
     0
 10
167.142
 20
136.94
 30
0.0
 11
167.35
 21
135.963
 31
0.0
  0
LINE
  8
0
 62
     0
 10
167.35
 20
135.963
 30
0.0
 11
166.569
 21
135.796
 31
0.0
  0
LINE
  8
0
 62
     0
 10
166.569
 20
135.796
 30
0.0
 11
167.212
 21
132.763
 31
0.0
  0
LINE
  8
0
 62
     0
 10
167.212
 20
132.763
 30
0.0
 11
167.995
 21
132.93
 31
0.0
  0
LINE
  8
0
 62
     0
 10
167.995
 20
132.93
 30
0.0
 11
169.201
 21
127.256
 31
0.0
  0
LINE
  8
0
 62
     0
 10
169.201
 20
127.256
 30
0.0
 11
168.418
 21
127.091
 31
0.0
  0
LINE
  8
0
 62
     0
 10
168.418
 20
127.091
 30
0.0
 11
169.063
 21
124.058
 31
0.0
  0
LINE
  8
0
 62
     0
 10
169.063
 20
124.058
 30
0.0
 11
169.846
 21
124.225
 31
0.0
  0
LINE
  8
0
 62
     0
 10
169.846
 20
124.225
 30
0.0
 11
170.054
 21
123.246
 31
0.0
  0
LINE
  8
0
 62
     0
 10
170.054
 20
123.246
 30
0.0
 11
183.747
 21
126.157
 31
0.0
  0
LINE
  8
0
 62
     0
 10
183.747
 20
126.157
 30
0.0
 11
183.54
 21
127.135
 31
0.0
  0
LINE
  8
0
 62
     0
 10
183.54
 20
127.135
 30
0.0
 11
184.322
 21
127.302
 31
0.0
  0
LINE
  8
0
 62
     0
 10
184.322
 20
127.302
 30
0.0
 11
183.677
 21
130.333
 31
0.0
  0
LINE
  8
0
 62
     0
 10
183.677
 20
130.333
 30
0.0
 11
182.896
 21
130.167
 31
0.0
  0
LINE
  8
0
 62
     0
 10
182.896
 20
130.167
 30
0.0
 11
181.689
 21
135.84
 31
0.0
  0
LINE
  8
0
 62
     0
 10
181.689
 20
135.84
 30
0.0
 11
182.471
 21
136.007
 31
0.0
  0
LINE
  8
0
 62
     0
 10
182.471
 20
136.007
 30
0.0
 11
181.828
 21
139.04
 31
0.0
  0
LINE
  8
0
 62
     0
 10
181.828
 20
139.04
 30
0.0
 11
181.044
 21
138.872
 31
0.0
  0
LINE
  8
0
 62
     0
 10
181.044
 20
138.872
 30
0.0
 11
180.836
 21
139.85
 31
0.0
  0
LINE
  8
0
 62
     0
 10
180.836
 20
139.85
 30
0.0
 11
167.142
 21
136.94
 31
0.0
  0
LINE
  8
0
 62
     0
 10
133.536
 20
140.016
 30
0.0
 11
132.755
 21
140.181
 31
0.0
  0
LINE
  8
0
 62
     0
 10
132.755
 20
140.181
 30
0.0
 11
132.11
 21
137.149
 31
0.0
  0
LINE
  8
0
 62
     0
 10
132.11
 20
137.149
 30
0.0
 11
132.892
 21
136.984
 31
0.0
  0
LINE
  8
0
 62
     0
 10
132.892
 20
136.984
 30
0.0
 11
131.687
 21
131.309
 31
0.0
  0
LINE
  8
0
 62
     0
 10
131.687
 20
131.309
 30
0.0
 11
130.904
 21
131.476
 31
0.0
  0
LINE
  8
0
 62
     0
 10
130.904
 20
131.476
 30
0.0
 11
130.259
 21
128.443
 31
0.0
  0
LINE
  8
0
 62
     0
 10
130.259
 20
128.443
 30
0.0
 11
131.042
 21
128.277
 31
0.0
  0
LINE
  8
0
 62
     0
 10
131.042
 20
128.277
 30
0.0
 11
130.834
 21
127.299
 31
0.0
  0
LINE
  8
0
 62
     0
 10
130.834
 20
127.299
 30
0.0
 11
144.527
 21
124.389
 31
0.0
  0
LINE
  8
0
 62
     0
 10
144.527
 20
124.389
 30
0.0
 11
144.735
 21
125.367
 31
0.0
  0
LINE
  8
0
 62
     0
 10
144.735
 20
125.367
 30
0.0
 11
145.518
 21
125.2
 31
0.0
  0
LINE
  8
0
 62
     0
 10
145.518
 20
125.2
 30
0.0
 11
146.163
 21
128.232
 31
0.0
  0
LINE
  8
0
 62
     0
 10
146.163
 20
128.232
 30
0.0
 11
145.38
 21
128.4
 31
0.0
  0
LINE
  8
0
 62
     0
 10
145.38
 20
128.4
 30
0.0
 11
146.586
 21
134.072
 31
0.0
  0
LINE
  8
0
 62
     0
 10
146.586
 20
134.072
 30
0.0
 11
147.369
 21
133.907
 31
0.0
  0
LINE
  8
0
 62
     0
 10
147.369
 20
133.907
 30
0.0
 11
148.014
 21
136.938
 31
0.0
  0
LINE
  8
0
 62
     0
 10
148.014
 20
136.938
 30
0.0
 11
147.231
 21
137.104
 31
0.0
  0
LINE
  8
0
 62
     0
 10
147.231
 20
137.104
 30
0.0
 11
147.439
 21
138.082
 31
0.0
  0
LINE
  8
0
 62
     0
 10
147.439
 20
138.082
 30
0.0
 11
133.744
 21
140.994
 31
0.0
  0
LINE
  8
0
 62
     0
 10
133.744
 20
140.994
 30
0.0
 11
133.536
 21
140.016
 31
0.0
  0
LINE
  8
0
 62
     0
 10
185.776
 20
140.9
 30
0.0
 11
185.984
 21
139.922
 31
0.0
  0
LINE
  8
0
 62
     0
 10
185.984
 20
139.922
 30
0.0
 11
185.201
 21
139.756
 31
0.0
  0
LINE
  8
0
 62
     0
 10
185.201
 20
139.756
 30
0.0
 11
185.847
 21
136.725
 31
0.0
  0
LINE
  8
0
 62
     0
 10
185.847
 20
136.725
 30
0.0
 11
186.629
 21
136.89
 31
0.0
  0
LINE
  8
0
 62
     0
 10
186.629
 20
136.89
 30
0.0
 11
187.835
 21
131.217
 31
0.0
  0
LINE
  8
0
 62
     0
 10
187.835
 20
131.217
 30
0.0
 11
187.052
 21
131.05
 31
0.0
  0
LINE
  8
0
 62
     0
 10
187.052
 20
131.05
 30
0.0
 11
187.697
 21
128.018
 31
0.0
  0
LINE
  8
0
 62
     0
 10
187.697
 20
128.018
 30
0.0
 11
188.48
 21
128.184
 31
0.0
  0
LINE
  8
0
 62
     0
 10
188.48
 20
128.184
 30
0.0
 11
188.688
 21
127.207
 31
0.0
  0
LINE
  8
0
 62
     0
 10
188.688
 20
127.207
 30
0.0
 11
202.382
 21
130.117
 31
0.0
  0
LINE
  8
0
 62
     0
 10
202.382
 20
130.117
 30
0.0
 11
202.173
 21
131.095
 31
0.0
  0
LINE
  8
0
 62
     0
 10
202.173
 20
131.095
 30
0.0
 11
202.956
 21
131.262
 31
0.0
  0
LINE
  8
0
 62
     0
 10
202.956
 20
131.262
 30
0.0
 11
202.311
 21
134.294
 31
0.0
  0
LINE
  8
0
 62
     0
 10
202.311
 20
134.294
 30
0.0
 11
201.529
 21
134.127
 31
0.0
  0
LINE
  8
0
 62
     0
 10
201.529
 20
134.127
 30
0.0
 11
200.324
 21
139.802
 31
0.0
  0
LINE
  8
0
 62
     0
 10
200.324
 20
139.802
 30
0.0
 11
201.106
 21
139.967
 31
0.0
  0
LINE
  8
0
 62
     0
 10
201.106
 20
139.967
 30
0.0
 11
200.462
 21
142.999
 31
0.0
  0
LINE
  8
0
 62
     0
 10
200.462
 20
142.999
 30
0.0
 11
199.679
 21
142.834
 31
0.0
  0
LINE
  8
0
 62
     0
 10
199.679
 20
142.834
 30
0.0
 11
199.471
 21
143.812
 31
0.0
  0
LINE
  8
0
 62
     0
 10
199.471
 20
143.812
 30
0.0
 11
185.776
 21
140.9
 31
0.0
  0
LINE
  8
0
 62
     0
 10
114.904
 20
143.976
 30
0.0
 11
114.121
 21
144.143
 31
0.0
  0
LINE
  8
0
 62
     0
 10
114.121
 20
144.143
 30
0.0
 11
113.476
 21
141.11
 31
0.0
  0
LINE
  8
0
 62
     0
 10
113.476
 20
141.11
 30
0.0
 11
114.259
 21
140.943
 31
0.0
  0
LINE
  8
0
 62
     0
 10
114.259
 20
140.943
 30
0.0
 11
113.053
 21
135.271
 31
0.0
  0
LINE
  8
0
 62
     0
 10
113.053
 20
135.271
 30
0.0
 11
112.27
 21
135.436
 31
0.0
  0
LINE
  8
0
 62
     0
 10
112.27
 20
135.436
 30
0.0
 11
111.625
 21
132.405
 31
0.0
  0
LINE
  8
0
 62
     0
 10
111.625
 20
132.405
 30
0.0
 11
112.408
 21
132.238
 31
0.0
  0
LINE
  8
0
 62
     0
 10
112.408
 20
132.238
 30
0.0
 11
112.2
 21
131.261
 31
0.0
  0
LINE
  8
0
 62
     0
 10
112.2
 20
131.261
 30
0.0
 11
125.895
 21
128.349
 31
0.0
  0
LINE
  8
0
 62
     0
 10
125.895
 20
128.349
 30
0.0
 11
126.103
 21
129.328
 31
0.0
  0
LINE
  8
0
 62
     0
 10
126.103
 20
129.328
 30
0.0
 11
126.884
 21
129.161
 31
0.0
  0
LINE
  8
0
 62
     0
 10
126.884
 20
129.161
 30
0.0
 11
127.529
 21
132.194
 31
0.0
  0
LINE
  8
0
 62
     0
 10
127.529
 20
132.194
 30
0.0
 11
126.746
 21
132.359
 31
0.0
  0
LINE
  8
0
 62
     0
 10
126.746
 20
132.359
 30
0.0
 11
127.952
 21
138.034
 31
0.0
  0
LINE
  8
0
 62
     0
 10
127.952
 20
138.034
 30
0.0
 11
128.735
 21
137.866
 31
0.0
  0
LINE
  8
0
 62
     0
 10
128.735
 20
137.866
 30
0.0
 11
129.38
 21
140.899
 31
0.0
  0
LINE
  8
0
 62
     0
 10
129.38
 20
140.899
 30
0.0
 11
128.597
 21
141.066
 31
0.0
  0
LINE
  8
0
 62
     0
 10
128.597
 20
141.066
 30
0.0
 11
128.805
 21
142.044
 31
0.0
  0
LINE
  8
0
 62
     0
 10
128.805
 20
142.044
 30
0.0
 11
115.11
 21
144.955
 31
0.0
  0
LINE
  8
0
 62
     0
 10
115.11
 20
144.955
 30
0.0
 11
114.904
 21
143.976
 31
0.0
  0
LINE
  8
0
 62
     0
 10
209.069
 20
145.852
 30
0.0
 11
209.277
 21
144.873
 31
0.0
  0
LINE
  8
0
 62
     0
 10
209.277
 20
144.873
 30
0.0
 11
208.494
 21
144.708
 31
0.0
  0
LINE
  8
0
 62
     0
 10
208.494
 20
144.708
 30
0.0
 11
209.138
 21
141.675
 31
0.0
  0
LINE
  8
0
 62
     0
 10
209.138
 20
141.675
 30
0.0
 11
209.922
 21
141.841
 31
0.0
  0
LINE
  8
0
 62
     0
 10
209.922
 20
141.841
 30
0.0
 11
211.128
 21
136.168
 31
0.0
  0
LINE
  8
0
 62
     0
 10
211.128
 20
136.168
 30
0.0
 11
210.345
 21
136.001
 31
0.0
  0
LINE
  8
0
 62
     0
 10
210.345
 20
136.001
 30
0.0
 11
210.99
 21
132.97
 31
0.0
  0
LINE
  8
0
 62
     0
 10
210.99
 20
132.97
 30
0.0
 11
211.771
 21
133.135
 31
0.0
  0
LINE
  8
0
 62
     0
 10
211.771
 20
133.135
 30
0.0
 11
211.98
 21
132.158
 31
0.0
  0
LINE
  8
0
 62
     0
 10
211.98
 20
132.158
 30
0.0
 11
225.673
 21
135.068
 31
0.0
  0
LINE
  8
0
 62
     0
 10
225.673
 20
135.068
 30
0.0
 11
225.465
 21
136.047
 31
0.0
  0
LINE
  8
0
 62
     0
 10
225.465
 20
136.047
 30
0.0
 11
226.249
 21
136.212
 31
0.0
  0
LINE
  8
0
 62
     0
 10
226.249
 20
136.212
 30
0.0
 11
225.604
 21
139.245
 31
0.0
  0
LINE
  8
0
 62
     0
 10
225.604
 20
139.245
 30
0.0
 11
224.821
 21
139.078
 31
0.0
  0
LINE
  8
0
 62
     0
 10
224.821
 20
139.078
 30
0.0
 11
223.616
 21
144.752
 31
0.0
  0
LINE
  8
0
 62
     0
 10
223.616
 20
144.752
 30
0.0
 11
224.397
 21
144.919
 31
0.0
  0
LINE
  8
0
 62
     0
 10
224.397
 20
144.919
 30
0.0
 11
223.754
 21
147.95
 31
0.0
  0
LINE
  8
0
 62
     0
 10
223.754
 20
147.95
 30
0.0
 11
222.971
 21
147.785
 31
0.0
  0
LINE
  8
0
 62
     0
 10
222.971
 20
147.785
 30
0.0
 11
222.763
 21
148.762
 31
0.0
  0
LINE
  8
0
 62
     0
 10
222.763
 20
148.762
 30
0.0
 11
209.069
 21
145.852
 31
0.0
  0
LINE
  8
0
 62
     0
 10
91.6107
 20
148.927
 30
0.0
 11
90.8279
 21
149.094
 31
0.0
  0
LINE
  8
0
 62
     0
 10
90.8279
 20
149.094
 30
0.0
 11
90.1831
 21
146.061
 31
0.0
  0
LINE
  8
0
 62
     0
 10
90.1831
 20
146.061
 30
0.0
 11
90.9669
 21
145.894
 31
0.0
  0
LINE
  8
0
 62
     0
 10
90.9669
 20
145.894
 30
0.0
 11
89.7601
 21
140.221
 31
0.0
  0
LINE
  8
0
 62
     0
 10
89.7601
 20
140.221
 30
0.0
 11
88.9773
 21
140.388
 31
0.0
  0
LINE
  8
0
 62
     0
 10
88.9773
 20
140.388
 30
0.0
 11
88.3338
 21
137.356
 31
0.0
  0
LINE
  8
0
 62
     0
 10
88.3338
 20
137.356
 30
0.0
 11
89.1148
 21
137.189
 31
0.0
  0
LINE
  8
0
 62
     0
 10
89.1148
 20
137.189
 30
0.0
 11
88.9081
 21
136.211
 31
0.0
  0
LINE
  8
0
 62
     0
 10
88.9081
 20
136.211
 30
0.0
 11
102.602
 21
133.3
 31
0.0
  0
LINE
  8
0
 62
     0
 10
102.602
 20
133.3
 30
0.0
 11
102.81
 21
134.279
 31
0.0
  0
LINE
  8
0
 62
     0
 10
102.81
 20
134.279
 30
0.0
 11
103.592
 21
134.112
 31
0.0
  0
LINE
  8
0
 62
     0
 10
103.592
 20
134.112
 30
0.0
 11
104.238
 21
137.144
 31
0.0
  0
LINE
  8
0
 62
     0
 10
104.238
 20
137.144
 30
0.0
 11
103.455
 21
137.311
 31
0.0
  0
LINE
  8
0
 62
     0
 10
103.455
 20
137.311
 30
0.0
 11
104.661
 21
142.984
 31
0.0
  0
LINE
  8
0
 62
     0
 10
104.661
 20
142.984
 30
0.0
 11
105.442
 21
142.817
 31
0.0
  0
LINE
  8
0
 62
     0
 10
105.442
 20
142.817
 30
0.0
 11
106.087
 21
145.849
 31
0.0
  0
LINE
  8
0
 62
     0
 10
106.087
 20
145.849
 30
0.0
 11
105.304
 21
146.017
 31
0.0
  0
LINE
  8
0
 62
     0
 10
105.304
 20
146.017
 30
0.0
 11
105.512
 21
146.994
 31
0.0
  0
LINE
  8
0
 62
     0
 10
105.512
 20
146.994
 30
0.0
 11
91.8185
 21
149.906
 31
0.0
  0
LINE
  8
0
 62
     0
 10
91.8185
 20
149.906
 30
0.0
 11
91.6107
 21
148.927
 31
0.0
  0
LINE
  8
0
 62
     0
 10
227.703
 20
149.812
 30
0.0
 11
227.911
 21
148.835
 31
0.0
  0
LINE
  8
0
 62
     0
 10
227.911
 20
148.835
 30
0.0
 11
227.127
 21
148.668
 31
0.0
  0
LINE
  8
0
 62
     0
 10
227.127
 20
148.668
 30
0.0
 11
227.772
 21
145.635
 31
0.0
  0
LINE
  8
0
 62
     0
 10
227.772
 20
145.635
 30
0.0
 11
228.554
 21
145.802
 31
0.0
  0
LINE
  8
0
 62
     0
 10
228.554
 20
145.802
 30
0.0
 11
229.76
 21
140.129
 31
0.0
  0
LINE
  8
0
 62
     0
 10
229.76
 20
140.129
 30
0.0
 11
228.979
 21
139.962
 31
0.0
  0
LINE
  8
0
 62
     0
 10
228.979
 20
139.962
 30
0.0
 11
229.622
 21
136.93
 31
0.0
  0
LINE
  8
0
 62
     0
 10
229.622
 20
136.93
 30
0.0
 11
230.405
 21
137.097
 31
0.0
  0
LINE
  8
0
 62
     0
 10
230.405
 20
137.097
 30
0.0
 11
230.613
 21
136.119
 31
0.0
  0
LINE
  8
0
 62
     0
 10
230.613
 20
136.119
 30
0.0
 11
244.307
 21
139.029
 31
0.0
  0
LINE
  8
0
 62
     0
 10
244.307
 20
139.029
 30
0.0
 11
244.1
 21
140.007
 31
0.0
  0
LINE
  8
0
 62
     0
 10
244.1
 20
140.007
 30
0.0
 11
244.881
 21
140.174
 31
0.0
  0
LINE
  8
0
 62
     0
 10
244.881
 20
140.174
 30
0.0
 11
244.238
 21
143.206
 31
0.0
  0
LINE
  8
0
 62
     0
 10
244.238
 20
143.206
 30
0.0
 11
243.454
 21
143.039
 31
0.0
  0
LINE
  8
0
 62
     0
 10
243.454
 20
143.039
 30
0.0
 11
242.248
 21
148.712
 31
0.0
  0
LINE
  8
0
 62
     0
 10
242.248
 20
148.712
 30
0.0
 11
243.031
 21
148.879
 31
0.0
  0
LINE
  8
0
 62
     0
 10
243.031
 20
148.879
 30
0.0
 11
242.386
 21
151.911
 31
0.0
  0
LINE
  8
0
 62
     0
 10
242.386
 20
151.911
 30
0.0
 11
241.604
 21
151.746
 31
0.0
  0
LINE
  8
0
 62
     0
 10
241.604
 20
151.746
 30
0.0
 11
241.396
 21
152.724
 31
0.0
  0
LINE
  8
0
 62
     0
 10
241.396
 20
152.724
 30
0.0
 11
227.703
 21
149.812
 31
0.0
  0
LINE
  8
0
 62
     0
 10
72.9781
 20
152.888
 30
0.0
 11
72.1942
 21
153.054
 31
0.0
  0
LINE
  8
0
 62
     0
 10
72.1942
 20
153.054
 30
0.0
 11
71.5504
 21
150.022
 31
0.0
  0
LINE
  8
0
 62
     0
 10
71.5504
 20
150.022
 30
0.0
 11
72.3318
 21
149.855
 31
0.0
  0
LINE
  8
0
 62
     0
 10
72.3318
 20
149.855
 30
0.0
 11
71.126
 21
144.183
 31
0.0
  0
LINE
  8
0
 62
     0
 10
71.126
 20
144.183
 30
0.0
 11
70.3446
 21
144.348
 31
0.0
  0
LINE
  8
0
 62
     0
 10
70.3446
 20
144.348
 30
0.0
 11
69.6997
 21
141.316
 31
0.0
  0
LINE
  8
0
 62
     0
 10
69.6997
 20
141.316
 30
0.0
 11
70.4825
 21
141.15
 31
0.0
  0
LINE
  8
0
 62
     0
 10
70.4825
 20
141.15
 30
0.0
 11
70.2744
 21
140.171
 31
0.0
  0
LINE
  8
0
 62
     0
 10
70.2744
 20
140.171
 30
0.0
 11
83.9682
 21
137.261
 31
0.0
  0
LINE
  8
0
 62
     0
 10
83.9682
 20
137.261
 30
0.0
 11
84.176
 21
138.239
 31
0.0
  0
LINE
  8
0
 62
     0
 10
84.176
 20
138.239
 30
0.0
 11
84.9588
 21
138.073
 31
0.0
  0
LINE
  8
0
 62
     0
 10
84.9588
 20
138.073
 30
0.0
 11
85.6036
 21
141.105
 31
0.0
  0
LINE
  8
0
 62
     0
 10
85.6036
 20
141.105
 30
0.0
 11
84.8212
 21
141.271
 31
0.0
  0
LINE
  8
0
 62
     0
 10
84.8212
 20
141.271
 30
0.0
 11
86.0266
 21
146.944
 31
0.0
  0
LINE
  8
0
 62
     0
 10
86.0266
 20
146.944
 30
0.0
 11
86.8094
 21
146.779
 31
0.0
  0
LINE
  8
0
 62
     0
 10
86.8094
 20
146.779
 30
0.0
 11
87.4529
 21
149.811
 31
0.0
  0
LINE
  8
0
 62
     0
 10
87.4529
 20
149.811
 30
0.0
 11
86.6719
 21
149.976
 31
0.0
  0
LINE
  8
0
 62
     0
 10
86.6719
 20
149.976
 30
0.0
 11
86.8796
 21
150.956
 31
0.0
  0
LINE
  8
0
 62
     0
 10
86.8796
 20
150.956
 30
0.0
 11
73.1848
 21
153.865
 31
0.0
  0
LINE
  8
0
 62
     0
 10
73.1848
 20
153.865
 30
0.0
 11
72.9781
 21
152.888
 31
0.0
  0
LINE
  8
0
 62
     0
 10
320.754
 20
153.132
 30
0.0
 11
320.754
 21
152.133
 31
0.0
  0
LINE
  8
0
 62
     0
 10
320.754
 20
152.133
 30
0.0
 11
319.953
 21
152.133
 31
0.0
  0
LINE
  8
0
 62
     0
 10
319.953
 20
152.133
 30
0.0
 11
319.953
 21
149.032
 31
0.0
  0
LINE
  8
0
 62
     0
 10
319.953
 20
149.032
 30
0.0
 11
320.754
 21
149.032
 31
0.0
  0
LINE
  8
0
 62
     0
 10
320.754
 20
149.032
 30
0.0
 11
320.754
 21
143.232
 31
0.0
  0
LINE
  8
0
 62
     0
 10
320.754
 20
143.232
 30
0.0
 11
319.953
 21
143.232
 31
0.0
  0
LINE
  8
0
 62
     0
 10
319.953
 20
143.232
 30
0.0
 11
319.953
 21
140.133
 31
0.0
  0
LINE
  8
0
 62
     0
 10
319.953
 20
140.133
 30
0.0
 11
320.754
 21
140.133
 31
0.0
  0
LINE
  8
0
 62
     0
 10
320.754
 20
140.133
 30
0.0
 11
320.754
 21
139.132
 31
0.0
  0
LINE
  8
0
 62
     0
 10
320.754
 20
139.132
 30
0.0
 11
334.753
 21
139.132
 31
0.0
  0
LINE
  8
0
 62
     0
 10
334.753
 20
139.132
 30
0.0
 11
334.753
 21
140.133
 31
0.0
  0
LINE
  8
0
 62
     0
 10
334.753
 20
140.133
 30
0.0
 11
335.555
 21
140.133
 31
0.0
  0
LINE
  8
0
 62
     0
 10
335.555
 20
140.133
 30
0.0
 11
335.555
 21
143.232
 31
0.0
  0
LINE
  8
0
 62
     0
 10
335.555
 20
143.232
 30
0.0
 11
334.753
 21
143.232
 31
0.0
  0
LINE
  8
0
 62
     0
 10
334.753
 20
143.232
 30
0.0
 11
334.753
 21
149.032
 31
0.0
  0
LINE
  8
0
 62
     0
 10
334.753
 20
149.032
 30
0.0
 11
335.555
 21
149.032
 31
0.0
  0
LINE
  8
0
 62
     0
 10
335.555
 20
149.032
 30
0.0
 11
335.555
 21
152.133
 31
0.0
  0
LINE
  8
0
 62
     0
 10
335.555
 20
152.133
 30
0.0
 11
334.753
 21
152.133
 31
0.0
  0
LINE
  8
0
 62
     0
 10
334.753
 20
152.133
 30
0.0
 11
334.753
 21
153.132
 31
0.0
  0
LINE
  8
0
 62
     0
 10
334.753
 20
153.132
 30
0.0
 11
320.754
 21
153.132
 31
0.0
  0
LINE
  8
0
 62
     0
 10
295.322
 20
153.132
 30
0.0
 11
295.322
 21
152.133
 31
0.0
  0
LINE
  8
0
 62
     0
 10
295.322
 20
152.133
 30
0.0
 11
294.523
 21
152.133
 31
0.0
  0
LINE
  8
0
 62
     0
 10
294.523
 20
152.133
 30
0.0
 11
294.523
 21
149.032
 31
0.0
  0
LINE
  8
0
 62
     0
 10
294.523
 20
149.032
 30
0.0
 11
295.322
 21
149.032
 31
0.0
  0
LINE
  8
0
 62
     0
 10
295.322
 20
149.032
 30
0.0
 11
295.322
 21
143.232
 31
0.0
  0
LINE
  8
0
 62
     0
 10
295.322
 20
143.232
 30
0.0
 11
294.523
 21
143.232
 31
0.0
  0
LINE
  8
0
 62
     0
 10
294.523
 20
143.232
 30
0.0
 11
294.523
 21
140.133
 31
0.0
  0
LINE
  8
0
 62
     0
 10
294.523
 20
140.133
 30
0.0
 11
295.322
 21
140.133
 31
0.0
  0
LINE
  8
0
 62
     0
 10
295.322
 20
140.133
 30
0.0
 11
295.322
 21
139.132
 31
0.0
  0
LINE
  8
0
 62
     0
 10
295.322
 20
139.132
 30
0.0
 11
309.323
 21
139.132
 31
0.0
  0
LINE
  8
0
 62
     0
 10
309.323
 20
139.132
 30
0.0
 11
309.323
 21
140.133
 31
0.0
  0
LINE
  8
0
 62
     0
 10
309.323
 20
140.133
 30
0.0
 11
310.122
 21
140.133
 31
0.0
  0
LINE
  8
0
 62
     0
 10
310.122
 20
140.133
 30
0.0
 11
310.122
 21
143.232
 31
0.0
  0
LINE
  8
0
 62
     0
 10
310.122
 20
143.232
 30
0.0
 11
309.323
 21
143.232
 31
0.0
  0
LINE
  8
0
 62
     0
 10
309.323
 20
143.232
 30
0.0
 11
309.323
 21
149.032
 31
0.0
  0
LINE
  8
0
 62
     0
 10
309.323
 20
149.032
 30
0.0
 11
310.122
 21
149.032
 31
0.0
  0
LINE
  8
0
 62
     0
 10
310.122
 20
149.032
 30
0.0
 11
310.122
 21
152.133
 31
0.0
  0
LINE
  8
0
 62
     0
 10
310.122
 20
152.133
 30
0.0
 11
309.323
 21
152.133
 31
0.0
  0
LINE
  8
0
 62
     0
 10
309.323
 20
152.133
 30
0.0
 11
309.323
 21
153.132
 31
0.0
  0
LINE
  8
0
 62
     0
 10
309.323
 20
153.132
 30
0.0
 11
295.322
 21
153.132
 31
0.0
  0
LINE
  8
0
 62
     0
 10
6.42994
 20
153.132
 30
0.0
 11
6.42994
 21
152.133
 31
0.0
  0
LINE
  8
0
 62
     0
 10
6.42994
 20
152.133
 30
0.0
 11
5.62927
 21
152.133
 31
0.0
  0
LINE
  8
0
 62
     0
 10
5.62927
 20
152.133
 30
0.0
 11
5.62927
 21
149.032
 31
0.0
  0
LINE
  8
0
 62
     0
 10
5.62927
 20
149.032
 30
0.0
 11
6.42994
 21
149.032
 31
0.0
  0
LINE
  8
0
 62
     0
 10
6.42994
 20
149.032
 30
0.0
 11
6.42994
 21
143.232
 31
0.0
  0
LINE
  8
0
 62
     0
 10
6.42994
 20
143.232
 30
0.0
 11
5.62927
 21
143.232
 31
0.0
  0
LINE
  8
0
 62
     0
 10
5.62927
 20
143.232
 30
0.0
 11
5.62927
 21
140.133
 31
0.0
  0
LINE
  8
0
 62
     0
 10
5.62927
 20
140.133
 30
0.0
 11
6.42994
 21
140.133
 31
0.0
  0
LINE
  8
0
 62
     0
 10
6.42994
 20
140.133
 30
0.0
 11
6.42994
 21
139.132
 31
0.0
  0
LINE
  8
0
 62
     0
 10
6.42994
 20
139.132
 30
0.0
 11
20.4294
 21
139.132
 31
0.0
  0
LINE
  8
0
 62
     0
 10
20.4294
 20
139.132
 30
0.0
 11
20.4294
 21
140.133
 31
0.0
  0
LINE
  8
0
 62
     0
 10
20.4294
 20
140.133
 30
0.0
 11
21.2301
 21
140.133
 31
0.0
  0
LINE
  8
0
 62
     0
 10
21.2301
 20
140.133
 30
0.0
 11
21.2301
 21
143.232
 31
0.0
  0
LINE
  8
0
 62
     0
 10
21.2301
 20
143.232
 30
0.0
 11
20.4294
 21
143.232
 31
0.0
  0
LINE
  8
0
 62
     0
 10
20.4294
 20
143.232
 30
0.0
 11
20.4294
 21
149.032
 31
0.0
  0
LINE
  8
0
 62
     0
 10
20.4294
 20
149.032
 30
0.0
 11
21.2301
 21
149.032
 31
0.0
  0
LINE
  8
0
 62
     0
 10
21.2301
 20
149.032
 30
0.0
 11
21.2301
 21
152.133
 31
0.0
  0
LINE
  8
0
 62
     0
 10
21.2301
 20
152.133
 30
0.0
 11
20.4294
 21
152.133
 31
0.0
  0
LINE
  8
0
 62
     0
 10
20.4294
 20
152.133
 30
0.0
 11
20.4294
 21
153.132
 31
0.0
  0
LINE
  8
0
 62
     0
 10
20.4294
 20
153.132
 30
0.0
 11
6.42994
 21
153.132
 31
0.0
  0
LINE
  8
0
 62
     0
 10
250.27
 20
154.084
 30
0.0
 11
250.27
 21
153.085
 31
0.0
  0
LINE
  8
0
 62
     0
 10
250.27
 20
153.085
 30
0.0
 11
249.469
 21
153.085
 31
0.0
  0
LINE
  8
0
 62
     0
 10
249.469
 20
153.085
 30
0.0
 11
249.469
 21
149.984
 31
0.0
  0
LINE
  8
0
 62
     0
 10
249.469
 20
149.984
 30
0.0
 11
250.27
 21
149.984
 31
0.0
  0
LINE
  8
0
 62
     0
 10
250.27
 20
149.984
 30
0.0
 11
250.27
 21
144.184
 31
0.0
  0
LINE
  8
0
 62
     0
 10
250.27
 20
144.184
 30
0.0
 11
249.469
 21
144.184
 31
0.0
  0
LINE
  8
0
 62
     0
 10
249.469
 20
144.184
 30
0.0
 11
249.469
 21
141.085
 31
0.0
  0
LINE
  8
0
 62
     0
 10
249.469
 20
141.085
 30
0.0
 11
250.27
 21
141.085
 31
0.0
  0
LINE
  8
0
 62
     0
 10
250.27
 20
141.085
 30
0.0
 11
250.27
 21
140.085
 31
0.0
  0
LINE
  8
0
 62
     0
 10
250.27
 20
140.085
 30
0.0
 11
264.269
 21
140.085
 31
0.0
  0
LINE
  8
0
 62
     0
 10
264.269
 20
140.085
 30
0.0
 11
264.269
 21
141.085
 31
0.0
  0
LINE
  8
0
 62
     0
 10
264.269
 20
141.085
 30
0.0
 11
265.07
 21
141.085
 31
0.0
  0
LINE
  8
0
 62
     0
 10
265.07
 20
141.085
 30
0.0
 11
265.07
 21
144.184
 31
0.0
  0
LINE
  8
0
 62
     0
 10
265.07
 20
144.184
 30
0.0
 11
264.269
 21
144.184
 31
0.0
  0
LINE
  8
0
 62
     0
 10
264.269
 20
144.184
 30
0.0
 11
264.269
 21
149.984
 31
0.0
  0
LINE
  8
0
 62
     0
 10
264.269
 20
149.984
 30
0.0
 11
265.07
 21
149.984
 31
0.0
  0
LINE
  8
0
 62
     0
 10
265.07
 20
149.984
 30
0.0
 11
265.07
 21
153.085
 31
0.0
  0
LINE
  8
0
 62
     0
 10
265.07
 20
153.085
 30
0.0
 11
264.269
 21
153.085
 31
0.0
  0
LINE
  8
0
 62
     0
 10
264.269
 20
153.085
 30
0.0
 11
264.269
 21
154.084
 31
0.0
  0
LINE
  8
0
 62
     0
 10
264.269
 20
154.084
 30
0.0
 11
250.27
 21
154.084
 31
0.0
  0
LINE
  8
0
 62
     0
 10
50.2447
 20
154.084
 30
0.0
 11
50.2447
 21
153.085
 31
0.0
  0
LINE
  8
0
 62
     0
 10
50.2447
 20
153.085
 30
0.0
 11
49.4439
 21
153.085
 31
0.0
  0
LINE
  8
0
 62
     0
 10
49.4439
 20
153.085
 30
0.0
 11
49.4439
 21
149.984
 31
0.0
  0
LINE
  8
0
 62
     0
 10
49.4439
 20
149.984
 30
0.0
 11
50.2447
 21
149.984
 31
0.0
  0
LINE
  8
0
 62
     0
 10
50.2447
 20
149.984
 30
0.0
 11
50.2447
 21
144.184
 31
0.0
  0
LINE
  8
0
 62
     0
 10
50.2447
 20
144.184
 30
0.0
 11
49.4439
 21
144.184
 31
0.0
  0
LINE
  8
0
 62
     0
 10
49.4439
 20
144.184
 30
0.0
 11
49.4439
 21
141.085
 31
0.0
  0
LINE
  8
0
 62
     0
 10
49.4439
 20
141.085
 30
0.0
 11
50.2447
 21
141.085
 31
0.0
  0
LINE
  8
0
 62
     0
 10
50.2447
 20
141.085
 30
0.0
 11
50.2447
 21
140.085
 31
0.0
  0
LINE
  8
0
 62
     0
 10
50.2447
 20
140.085
 30
0.0
 11
64.244
 21
140.085
 31
0.0
  0
LINE
  8
0
 62
     0
 10
64.244
 20
140.085
 30
0.0
 11
64.244
 21
141.085
 31
0.0
  0
LINE
  8
0
 62
     0
 10
64.244
 20
141.085
 30
0.0
 11
65.0448
 21
141.085
 31
0.0
  0
LINE
  8
0
 62
     0
 10
65.0448
 20
141.085
 30
0.0
 11
65.0448
 21
144.184
 31
0.0
  0
LINE
  8
0
 62
     0
 10
65.0448
 20
144.184
 30
0.0
 11
64.244
 21
144.184
 31
0.0
  0
LINE
  8
0
 62
     0
 10
64.244
 20
144.184
 30
0.0
 11
64.244
 21
149.984
 31
0.0
  0
LINE
  8
0
 62
     0
 10
64.244
 20
149.984
 30
0.0
 11
65.0448
 21
149.984
 31
0.0
  0
LINE
  8
0
 62
     0
 10
65.0448
 20
149.984
 30
0.0
 11
65.0448
 21
153.085
 31
0.0
  0
LINE
  8
0
 62
     0
 10
65.0448
 20
153.085
 30
0.0
 11
64.244
 21
153.085
 31
0.0
  0
LINE
  8
0
 62
     0
 10
64.244
 20
153.085
 30
0.0
 11
64.244
 21
154.084
 31
0.0
  0
LINE
  8
0
 62
     0
 10
64.244
 20
154.084
 30
0.0
 11
50.2447
 21
154.084
 31
0.0
  0
LINE
  8
0
 62
     0
 10
269.32
 20
154.084
 30
0.0
 11
269.32
 21
153.085
 31
0.0
  0
LINE
  8
0
 62
     0
 10
269.32
 20
153.085
 30
0.0
 11
268.519
 21
153.085
 31
0.0
  0
LINE
  8
0
 62
     0
 10
268.519
 20
153.085
 30
0.0
 11
268.519
 21
149.984
 31
0.0
  0
LINE
  8
0
 62
     0
 10
268.519
 20
149.984
 30
0.0
 11
269.32
 21
149.984
 31
0.0
  0
LINE
  8
0
 62
     0
 10
269.32
 20
149.984
 30
0.0
 11
269.32
 21
144.184
 31
0.0
  0
LINE
  8
0
 62
     0
 10
269.32
 20
144.184
 30
0.0
 11
268.519
 21
144.184
 31
0.0
  0
LINE
  8
0
 62
     0
 10
268.519
 20
144.184
 30
0.0
 11
268.519
 21
141.085
 31
0.0
  0
LINE
  8
0
 62
     0
 10
268.519
 20
141.085
 30
0.0
 11
269.32
 21
141.085
 31
0.0
  0
LINE
  8
0
 62
     0
 10
269.32
 20
141.085
 30
0.0
 11
269.32
 21
140.085
 31
0.0
  0
LINE
  8
0
 62
     0
 10
269.32
 20
140.085
 30
0.0
 11
283.319
 21
140.085
 31
0.0
  0
LINE
  8
0
 62
     0
 10
283.319
 20
140.085
 30
0.0
 11
283.319
 21
141.085
 31
0.0
  0
LINE
  8
0
 62
     0
 10
283.319
 20
141.085
 30
0.0
 11
284.12
 21
141.085
 31
0.0
  0
LINE
  8
0
 62
     0
 10
284.12
 20
141.085
 30
0.0
 11
284.12
 21
144.184
 31
0.0
  0
LINE
  8
0
 62
     0
 10
284.12
 20
144.184
 30
0.0
 11
283.319
 21
144.184
 31
0.0
  0
LINE
  8
0
 62
     0
 10
283.319
 20
144.184
 30
0.0
 11
283.319
 21
149.984
 31
0.0
  0
LINE
  8
0
 62
     0
 10
283.319
 20
149.984
 30
0.0
 11
284.12
 21
149.984
 31
0.0
  0
LINE
  8
0
 62
     0
 10
284.12
 20
149.984
 30
0.0
 11
284.12
 21
153.085
 31
0.0
  0
LINE
  8
0
 62
     0
 10
284.12
 20
153.085
 30
0.0
 11
283.319
 21
153.085
 31
0.0
  0
LINE
  8
0
 62
     0
 10
283.319
 20
153.085
 30
0.0
 11
283.319
 21
154.084
 31
0.0
  0
LINE
  8
0
 62
     0
 10
283.319
 20
154.084
 30
0.0
 11
269.32
 21
154.084
 31
0.0
  0
LINE
  8
0
 62
     0
 10
31.1947
 20
154.084
 30
0.0
 11
31.1947
 21
153.085
 31
0.0
  0
LINE
  8
0
 62
     0
 10
31.1947
 20
153.085
 30
0.0
 11
30.394
 21
153.085
 31
0.0
  0
LINE
  8
0
 62
     0
 10
30.394
 20
153.085
 30
0.0
 11
30.394
 21
149.984
 31
0.0
  0
LINE
  8
0
 62
     0
 10
30.394
 20
149.984
 30
0.0
 11
31.1947
 21
149.984
 31
0.0
  0
LINE
  8
0
 62
     0
 10
31.1947
 20
149.984
 30
0.0
 11
31.1947
 21
144.184
 31
0.0
  0
LINE
  8
0
 62
     0
 10
31.1947
 20
144.184
 30
0.0
 11
30.394
 21
144.184
 31
0.0
  0
LINE
  8
0
 62
     0
 10
30.394
 20
144.184
 30
0.0
 11
30.394
 21
141.085
 31
0.0
  0
LINE
  8
0
 62
     0
 10
30.394
 20
141.085
 30
0.0
 11
31.1947
 21
141.085
 31
0.0
  0
LINE
  8
0
 62
     0
 10
31.1947
 20
141.085
 30
0.0
 11
31.1947
 21
140.085
 31
0.0
  0
LINE
  8
0
 62
     0
 10
31.1947
 20
140.085
 30
0.0
 11
45.194
 21
140.085
 31
0.0
  0
LINE
  8
0
 62
     0
 10
45.194
 20
140.085
 30
0.0
 11
45.194
 21
141.085
 31
0.0
  0
LINE
  8
0
 62
     0
 10
45.194
 20
141.085
 30
0.0
 11
45.9948
 21
141.085
 31
0.0
  0
LINE
  8
0
 62
     0
 10
45.9948
 20
141.085
 30
0.0
 11
45.9948
 21
144.184
 31
0.0
  0
LINE
  8
0
 62
     0
 10
45.9948
 20
144.184
 30
0.0
 11
45.194
 21
144.184
 31
0.0
  0
LINE
  8
0
 62
     0
 10
45.194
 20
144.184
 30
0.0
 11
45.194
 21
149.984
 31
0.0
  0
LINE
  8
0
 62
     0
 10
45.194
 20
149.984
 30
0.0
 11
45.9948
 21
149.984
 31
0.0
  0
LINE
  8
0
 62
     0
 10
45.9948
 20
149.984
 30
0.0
 11
45.9948
 21
153.085
 31
0.0
  0
LINE
  8
0
 62
     0
 10
45.9948
 20
153.085
 30
0.0
 11
45.194
 21
153.085
 31
0.0
  0
LINE
  8
0
 62
     0
 10
45.194
 20
153.085
 30
0.0
 11
45.194
 21
154.084
 31
0.0
  0
LINE
  8
0
 62
     0
 10
45.194
 20
154.084
 30
0.0
 11
31.1947
 21
154.084
 31
0.0
  0
ENDSEC
  0
EOF
