  0
SECTION
  2
HEADER
  9
$ACADVER
  1
AC1009
  9
$EXTMIN
 10
0.0
 20
0.0
 30
0.0
  9
$EXTMAX
 10
1000.0
 20
1000.0
 30
0.0
  9
$FILLMODE
 70
 0
  9
$SPLFRAME
 70
 1
  0
ENDSEC
  0
SECTION
  2
TABLES
  0
TABLE
  2
LAYER
 70
1
  0
LAYER
  2
0
 70
     0
 62
     7
  6
CONTINUOUS
  0
ENDTAB
  0
ENDSEC
  0
SECTION
  2
ENTITIES
  0
LINE
  8
0
 62
     0
 10
350.569
 20
160.419
 30
0.0
 11
350.646
 21
160.416
 31
0.0
  0
LINE
  8
0
 62
     0
 10
350.646
 20
160.416
 30
0.0
 11
350.725
 21
160.406
 31
0.0
  0
LINE
  8
0
 62
     0
 10
350.725
 20
160.406
 30
0.0
 11
350.802
 21
160.391
 31
0.0
  0
LINE
  8
0
 62
     0
 10
350.802
 20
160.391
 30
0.0
 11
350.877
 21
160.371
 31
0.0
  0
LINE
  8
0
 62
     0
 10
350.877
 20
160.371
 30
0.0
 11
350.952
 21
160.343
 31
0.0
  0
LINE
  8
0
 62
     0
 10
350.952
 20
160.343
 30
0.0
 11
351.022
 21
160.31
 31
0.0
  0
LINE
  8
0
 62
     0
 10
351.022
 20
160.31
 30
0.0
 11
351.091
 21
160.272
 31
0.0
  0
LINE
  8
0
 62
     0
 10
351.091
 20
160.272
 30
0.0
 11
351.156
 21
160.228
 31
0.0
  0
LINE
  8
0
 62
     0
 10
351.156
 20
160.228
 30
0.0
 11
351.218
 21
160.179
 31
0.0
  0
LINE
  8
0
 62
     0
 10
351.218
 20
160.179
 30
0.0
 11
351.276
 21
160.127
 31
0.0
  0
LINE
  8
0
 62
     0
 10
351.276
 20
160.127
 30
0.0
 11
351.328
 21
160.069
 31
0.0
  0
LINE
  8
0
 62
     0
 10
351.328
 20
160.069
 30
0.0
 11
351.378
 21
160.007
 31
0.0
  0
LINE
  8
0
 62
     0
 10
351.378
 20
160.007
 30
0.0
 11
351.422
 21
159.942
 31
0.0
  0
LINE
  8
0
 62
     0
 10
351.422
 20
159.942
 30
0.0
 11
351.459
 21
159.872
 31
0.0
  0
LINE
  8
0
 62
     0
 10
351.459
 20
159.872
 30
0.0
 11
351.492
 21
159.801
 31
0.0
  0
LINE
  8
0
 62
     0
 10
351.492
 20
159.801
 30
0.0
 11
351.52
 21
159.728
 31
0.0
  0
LINE
  8
0
 62
     0
 10
351.52
 20
159.728
 30
0.0
 11
351.54
 21
159.653
 31
0.0
  0
LINE
  8
0
 62
     0
 10
351.54
 20
159.653
 30
0.0
 11
351.557
 21
159.575
 31
0.0
  0
LINE
  8
0
 62
     0
 10
351.557
 20
159.575
 30
0.0
 11
351.565
 21
159.497
 31
0.0
  0
LINE
  8
0
 62
     0
 10
351.565
 20
159.497
 30
0.0
 11
351.568
 21
159.419
 31
0.0
  0
LINE
  8
0
 62
     0
 10
351.568
 20
159.419
 30
0.0
 11
351.568
 21
1.39733
 31
0.0
  0
LINE
  8
0
 62
     0
 10
351.568
 20
1.39733
 30
0.0
 11
351.565
 21
1.31878
 31
0.0
  0
LINE
  8
0
 62
     0
 10
351.565
 20
1.31878
 30
0.0
 11
351.557
 21
1.24161
 31
0.0
  0
LINE
  8
0
 62
     0
 10
351.557
 20
1.24161
 30
0.0
 11
351.54
 21
1.16444
 31
0.0
  0
LINE
  8
0
 62
     0
 10
351.54
 20
1.16444
 30
0.0
 11
351.52
 21
1.08865
 31
0.0
  0
LINE
  8
0
 62
     0
 10
351.52
 20
1.08865
 30
0.0
 11
351.492
 21
1.01562
 31
0.0
  0
LINE
  8
0
 62
     0
 10
351.492
 20
1.01562
 30
0.0
 11
351.459
 21
0.943956
 31
0.0
  0
LINE
  8
0
 62
     0
 10
351.459
 20
0.943956
 30
0.0
 11
351.422
 21
0.875055
 31
0.0
  0
LINE
  8
0
 62
     0
 10
351.422
 20
0.875055
 30
0.0
 11
351.378
 21
0.810288
 31
0.0
  0
LINE
  8
0
 62
     0
 10
351.378
 20
0.810288
 30
0.0
 11
351.328
 21
0.748273
 31
0.0
  0
LINE
  8
0
 62
     0
 10
351.328
 20
0.748273
 30
0.0
 11
351.276
 21
0.690397
 31
0.0
  0
LINE
  8
0
 62
     0
 10
351.276
 20
0.690397
 30
0.0
 11
351.218
 21
0.63803
 31
0.0
  0
LINE
  8
0
 62
     0
 10
351.218
 20
0.63803
 30
0.0
 11
351.156
 21
0.588423
 31
0.0
  0
LINE
  8
0
 62
     0
 10
351.156
 20
0.588423
 30
0.0
 11
351.091
 21
0.545705
 31
0.0
  0
LINE
  8
0
 62
     0
 10
351.091
 20
0.545705
 30
0.0
 11
351.022
 21
0.505739
 31
0.0
  0
LINE
  8
0
 62
     0
 10
351.022
 20
0.505739
 30
0.0
 11
350.952
 21
0.474045
 31
0.0
  0
LINE
  8
0
 62
     0
 10
350.952
 20
0.474045
 30
0.0
 11
350.877
 21
0.446486
 31
0.0
  0
LINE
  8
0
 62
     0
 10
350.877
 20
0.446486
 30
0.0
 11
350.802
 21
0.425813
 31
0.0
  0
LINE
  8
0
 62
     0
 10
350.802
 20
0.425813
 30
0.0
 11
350.725
 21
0.410655
 31
0.0
  0
LINE
  8
0
 62
     0
 10
350.725
 20
0.410655
 30
0.0
 11
350.646
 21
0.40101
 31
0.0
  0
LINE
  8
0
 62
     0
 10
350.646
 20
0.40101
 30
0.0
 11
350.569
 21
0.396875
 31
0.0
  0
LINE
  8
0
 62
     0
 10
350.569
 20
0.396875
 30
0.0
 11
1.09554
 21
0.396875
 31
0.0
  0
LINE
  8
0
 62
     0
 10
1.09554
 20
0.396875
 30
0.0
 11
1.01699
 21
0.40101
 31
0.0
  0
LINE
  8
0
 62
     0
 10
1.01699
 20
0.40101
 30
0.0
 11
0.938445
 21
0.410655
 31
0.0
  0
LINE
  8
0
 62
     0
 10
0.938445
 20
0.410655
 30
0.0
 11
0.861275
 21
0.425813
 31
0.0
  0
LINE
  8
0
 62
     0
 10
0.861275
 20
0.425813
 30
0.0
 11
0.785481
 21
0.446486
 31
0.0
  0
LINE
  8
0
 62
     0
 10
0.785481
 20
0.446486
 30
0.0
 11
0.712445
 21
0.474045
 31
0.0
  0
LINE
  8
0
 62
     0
 10
0.712445
 20
0.474045
 30
0.0
 11
0.642165
 21
0.505739
 31
0.0
  0
LINE
  8
0
 62
     0
 10
0.642165
 20
0.505739
 30
0.0
 11
0.571885
 21
0.545705
 31
0.0
  0
LINE
  8
0
 62
     0
 10
0.571885
 20
0.545705
 30
0.0
 11
0.507118
 21
0.588423
 31
0.0
  0
LINE
  8
0
 62
     0
 10
0.507118
 20
0.588423
 30
0.0
 11
0.445107
 21
0.63803
 31
0.0
  0
LINE
  8
0
 62
     0
 10
0.445107
 20
0.63803
 30
0.0
 11
0.38723
 21
0.690397
 31
0.0
  0
LINE
  8
0
 62
     0
 10
0.38723
 20
0.690397
 30
0.0
 11
0.334863
 21
0.748273
 31
0.0
  0
LINE
  8
0
 62
     0
 10
0.334863
 20
0.748273
 30
0.0
 11
0.285254
 21
0.810288
 31
0.0
  0
LINE
  8
0
 62
     0
 10
0.285254
 20
0.810288
 30
0.0
 11
0.242535
 21
0.875055
 31
0.0
  0
LINE
  8
0
 62
     0
 10
0.242535
 20
0.875055
 30
0.0
 11
0.20395
 21
0.943956
 31
0.0
  0
LINE
  8
0
 62
     0
 10
0.20395
 20
0.943956
 30
0.0
 11
0.170877
 21
1.01562
 31
0.0
  0
LINE
  8
0
 62
     0
 10
0.170877
 20
1.01562
 30
0.0
 11
0.143316
 21
1.08865
 31
0.0
  0
LINE
  8
0
 62
     0
 10
0.143316
 20
1.08865
 30
0.0
 11
0.122645
 21
1.16444
 31
0.0
  0
LINE
  8
0
 62
     0
 10
0.122645
 20
1.16444
 30
0.0
 11
0.107487
 21
1.24161
 31
0.0
  0
LINE
  8
0
 62
     0
 10
0.107487
 20
1.24161
 30
0.0
 11
0.0978408
 21
1.31878
 31
0.0
  0
LINE
  8
0
 62
     0
 10
0.0978408
 20
1.31878
 30
0.0
 11
0.0950846
 21
1.39871
 31
0.0
  0
LINE
  8
0
 62
     0
 10
0.0950846
 20
1.39871
 30
0.0
 11
0.0950846
 21
159.419
 31
0.0
  0
LINE
  8
0
 62
     0
 10
0.0950846
 20
159.419
 30
0.0
 11
0.0978408
 21
159.497
 31
0.0
  0
LINE
  8
0
 62
     0
 10
0.0978408
 20
159.497
 30
0.0
 11
0.107487
 21
159.575
 31
0.0
  0
LINE
  8
0
 62
     0
 10
0.107487
 20
159.575
 30
0.0
 11
0.122645
 21
159.653
 31
0.0
  0
LINE
  8
0
 62
     0
 10
0.122645
 20
159.653
 30
0.0
 11
0.143316
 21
159.728
 31
0.0
  0
LINE
  8
0
 62
     0
 10
0.143316
 20
159.728
 30
0.0
 11
0.170877
 21
159.801
 31
0.0
  0
LINE
  8
0
 62
     0
 10
0.170877
 20
159.801
 30
0.0
 11
0.20395
 21
159.872
 31
0.0
  0
LINE
  8
0
 62
     0
 10
0.20395
 20
159.872
 30
0.0
 11
0.242535
 21
159.942
 31
0.0
  0
LINE
  8
0
 62
     0
 10
0.242535
 20
159.942
 30
0.0
 11
0.285254
 21
160.007
 31
0.0
  0
LINE
  8
0
 62
     0
 10
0.285254
 20
160.007
 30
0.0
 11
0.334863
 21
160.069
 31
0.0
  0
LINE
  8
0
 62
     0
 10
0.334863
 20
160.069
 30
0.0
 11
0.38723
 21
160.127
 31
0.0
  0
LINE
  8
0
 62
     0
 10
0.38723
 20
160.127
 30
0.0
 11
0.445107
 21
160.179
 31
0.0
  0
LINE
  8
0
 62
     0
 10
0.445107
 20
160.179
 30
0.0
 11
0.507118
 21
160.228
 31
0.0
  0
LINE
  8
0
 62
     0
 10
0.507118
 20
160.228
 30
0.0
 11
0.571885
 21
160.272
 31
0.0
  0
LINE
  8
0
 62
     0
 10
0.571885
 20
160.272
 30
0.0
 11
0.642165
 21
160.31
 31
0.0
  0
LINE
  8
0
 62
     0
 10
0.642165
 20
160.31
 30
0.0
 11
0.712445
 21
160.343
 31
0.0
  0
LINE
  8
0
 62
     0
 10
0.712445
 20
160.343
 30
0.0
 11
0.785481
 21
160.371
 31
0.0
  0
LINE
  8
0
 62
     0
 10
0.785481
 20
160.371
 30
0.0
 11
0.861275
 21
160.391
 31
0.0
  0
LINE
  8
0
 62
     0
 10
0.861275
 20
160.391
 30
0.0
 11
0.938445
 21
160.406
 31
0.0
  0
LINE
  8
0
 62
     0
 10
0.938445
 20
160.406
 30
0.0
 11
1.01699
 21
160.416
 31
0.0
  0
LINE
  8
0
 62
     0
 10
1.01699
 20
160.416
 30
0.0
 11
1.09554
 21
160.419
 31
0.0
  0
LINE
  8
0
 62
     0
 10
1.09554
 20
160.419
 30
0.0
 11
350.569
 21
160.419
 31
0.0
  0
LINE
  8
0
 62
     0
 10
164.546
 20
16.9237
 30
0.0
 11
178.545
 21
16.9237
 31
0.0
  0
LINE
  8
0
 62
     0
 10
178.545
 20
16.9237
 30
0.0
 11
178.545
 21
2.92282
 31
0.0
  0
LINE
  8
0
 62
     0
 10
178.545
 20
2.92282
 30
0.0
 11
164.546
 21
2.92282
 31
0.0
  0
LINE
  8
0
 62
     0
 10
164.546
 20
2.92282
 30
0.0
 11
164.546
 21
16.9237
 31
0.0
  0
LINE
  8
0
 62
     0
 10
145.496
 20
16.9237
 30
0.0
 11
159.495
 21
16.9237
 31
0.0
  0
LINE
  8
0
 62
     0
 10
159.495
 20
16.9237
 30
0.0
 11
159.495
 21
2.92282
 31
0.0
  0
LINE
  8
0
 62
     0
 10
159.495
 20
2.92282
 30
0.0
 11
145.496
 21
2.92282
 31
0.0
  0
LINE
  8
0
 62
     0
 10
145.496
 20
2.92282
 30
0.0
 11
145.496
 21
16.9237
 31
0.0
  0
LINE
  8
0
 62
     0
 10
126.446
 20
16.9237
 30
0.0
 11
140.445
 21
16.9237
 31
0.0
  0
LINE
  8
0
 62
     0
 10
140.445
 20
16.9237
 30
0.0
 11
140.445
 21
2.92282
 31
0.0
  0
LINE
  8
0
 62
     0
 10
140.445
 20
2.92282
 30
0.0
 11
126.446
 21
2.92282
 31
0.0
  0
LINE
  8
0
 62
     0
 10
126.446
 20
2.92282
 30
0.0
 11
126.446
 21
16.9237
 31
0.0
  0
LINE
  8
0
 62
     0
 10
173.962
 20
36.1417
 30
0.0
 11
176.874
 21
22.4469
 31
0.0
  0
LINE
  8
0
 62
     0
 10
176.874
 20
22.4469
 30
0.0
 11
190.567
 21
25.3587
 31
0.0
  0
LINE
  8
0
 62
     0
 10
190.567
 20
25.3587
 30
0.0
 11
187.657
 21
39.0521
 31
0.0
  0
LINE
  8
0
 62
     0
 10
187.657
 20
39.0521
 30
0.0
 11
173.962
 21
36.1417
 31
0.0
  0
LINE
  8
0
 62
     0
 10
128.674
 20
25.5102
 30
0.0
 11
142.368
 21
22.5998
 31
0.0
  0
LINE
  8
0
 62
     0
 10
142.368
 20
22.5998
 30
0.0
 11
145.28
 21
36.2948
 31
0.0
  0
LINE
  8
0
 62
     0
 10
145.28
 20
36.2948
 30
0.0
 11
131.586
 21
39.2038
 31
0.0
  0
LINE
  8
0
 62
     0
 10
131.586
 20
39.2038
 30
0.0
 11
128.674
 21
25.5102
 31
0.0
  0
LINE
  8
0
 62
     0
 10
219.734
 20
44.3674
 30
0.0
 11
220.405
 21
41.209
 31
0.0
  0
LINE
  8
0
 62
     0
 10
220.405
 20
41.209
 30
0.0
 11
218.914
 21
40.8919
 31
0.0
  0
LINE
  8
0
 62
     0
 10
218.914
 20
40.8919
 30
0.0
 11
217.937
 21
45.4889
 31
0.0
  0
LINE
  8
0
 62
     0
 10
217.937
 20
45.4889
 30
0.0
 11
204.243
 21
42.5771
 31
0.0
  0
LINE
  8
0
 62
     0
 10
204.243
 20
42.5771
 30
0.0
 11
205.219
 21
37.9801
 31
0.0
  0
LINE
  8
0
 62
     0
 10
205.219
 20
37.9801
 30
0.0
 11
203.728
 21
37.6633
 31
0.0
  0
LINE
  8
0
 62
     0
 10
203.728
 20
37.6633
 30
0.0
 11
203.057
 21
40.8231
 31
0.0
  0
LINE
  8
0
 62
     0
 10
203.057
 20
40.8231
 30
0.0
 11
196.453
 21
39.4187
 31
0.0
  0
LINE
  8
0
 62
     0
 10
196.453
 20
39.4187
 30
0.0
 11
197.126
 21
36.2617
 31
0.0
  0
LINE
  8
0
 62
     0
 10
197.126
 20
36.2617
 30
0.0
 11
196.318
 21
36.0881
 31
0.0
  0
LINE
  8
0
 62
     0
 10
196.318
 20
36.0881
 30
0.0
 11
196.901
 21
33.3499
 31
0.0
  0
LINE
  8
0
 62
     0
 10
196.901
 20
33.3499
 30
0.0
 11
197.707
 21
33.5208
 31
0.0
  0
LINE
  8
0
 62
     0
 10
197.707
 20
33.5208
 30
0.0
 11
199.011
 21
27.3885
 31
0.0
  0
LINE
  8
0
 62
     0
 10
199.011
 20
27.3885
 30
0.0
 11
200.699
 21
27.7468
 31
0.0
  0
LINE
  8
0
 62
     0
 10
200.699
 20
27.7468
 30
0.0
 11
200.947
 21
26.5741
 31
0.0
  0
LINE
  8
0
 62
     0
 10
200.947
 20
26.5741
 30
0.0
 11
204.176
 21
27.259
 31
0.0
  0
LINE
  8
0
 62
     0
 10
204.176
 20
27.259
 30
0.0
 11
203.926
 21
28.4331
 31
0.0
  0
LINE
  8
0
 62
     0
 10
203.926
 20
28.4331
 30
0.0
 11
205.613
 21
28.7914
 31
0.0
  0
LINE
  8
0
 62
     0
 10
205.613
 20
28.7914
 30
0.0
 11
204.684
 21
33.1639
 31
0.0
  0
LINE
  8
0
 62
     0
 10
204.684
 20
33.1639
 30
0.0
 11
206.175
 21
33.4808
 31
0.0
  0
LINE
  8
0
 62
     0
 10
206.175
 20
33.4808
 30
0.0
 11
207.152
 21
28.8837
 31
0.0
  0
LINE
  8
0
 62
     0
 10
207.152
 20
28.8837
 30
0.0
 11
220.847
 21
31.7941
 31
0.0
  0
LINE
  8
0
 62
     0
 10
220.847
 20
31.7941
 30
0.0
 11
219.87
 21
36.3926
 31
0.0
  0
LINE
  8
0
 62
     0
 10
219.87
 20
36.3926
 30
0.0
 11
221.361
 21
36.7083
 31
0.0
  0
LINE
  8
0
 62
     0
 10
221.361
 20
36.7083
 30
0.0
 11
222.29
 21
32.3371
 31
0.0
  0
LINE
  8
0
 62
     0
 10
222.29
 20
32.3371
 30
0.0
 11
223.978
 21
32.6953
 31
0.0
  0
LINE
  8
0
 62
     0
 10
223.978
 20
32.6953
 30
0.0
 11
224.227
 21
31.5213
 31
0.0
  0
LINE
  8
0
 62
     0
 10
224.227
 20
31.5213
 30
0.0
 11
227.455
 21
32.2075
 31
0.0
  0
LINE
  8
0
 62
     0
 10
227.455
 20
32.2075
 30
0.0
 11
227.207
 21
33.3816
 31
0.0
  0
LINE
  8
0
 62
     0
 10
227.207
 20
33.3816
 30
0.0
 11
228.894
 21
33.7399
 31
0.0
  0
LINE
  8
0
 62
     0
 10
228.894
 20
33.7399
 30
0.0
 11
227.59
 21
39.872
 31
0.0
  0
LINE
  8
0
 62
     0
 10
227.59
 20
39.872
 30
0.0
 11
228.396
 21
40.0445
 31
0.0
  0
LINE
  8
0
 62
     0
 10
228.396
 20
40.0445
 30
0.0
 11
227.814
 21
42.7838
 31
0.0
  0
LINE
  8
0
 62
     0
 10
227.814
 20
42.7838
 30
0.0
 11
227.007
 21
42.6117
 31
0.0
  0
LINE
  8
0
 62
     0
 10
227.007
 20
42.6117
 30
0.0
 11
226.336
 21
45.7715
 31
0.0
  0
LINE
  8
0
 62
     0
 10
226.336
 20
45.7715
 30
0.0
 11
219.734
 21
44.3674
 31
0.0
  0
LINE
  8
0
 62
     0
 10
94.8517
 20
46.7776
 30
0.0
 11
93.1637
 21
47.1357
 31
0.0
  0
LINE
  8
0
 62
     0
 10
93.1637
 20
47.1357
 30
0.0
 11
91.8602
 21
41.0034
 31
0.0
  0
LINE
  8
0
 62
     0
 10
91.8602
 20
41.0034
 30
0.0
 11
91.0537
 21
41.1759
 31
0.0
  0
LINE
  8
0
 62
     0
 10
91.0537
 20
41.1759
 30
0.0
 11
90.4709
 21
38.4362
 31
0.0
  0
LINE
  8
0
 62
     0
 10
90.4709
 20
38.4362
 30
0.0
 11
91.2784
 21
38.264
 31
0.0
  0
LINE
  8
0
 62
     0
 10
91.2784
 20
38.264
 30
0.0
 11
90.606
 21
35.1069
 31
0.0
  0
LINE
  8
0
 62
     0
 10
90.606
 20
35.1069
 30
0.0
 11
97.2097
 21
33.7013
 31
0.0
  0
LINE
  8
0
 62
     0
 10
97.2097
 20
33.7013
 30
0.0
 11
97.8807
 21
36.8625
 31
0.0
  0
LINE
  8
0
 62
     0
 10
97.8807
 20
36.8625
 30
0.0
 11
99.3733
 21
36.5442
 31
0.0
  0
LINE
  8
0
 62
     0
 10
99.3733
 20
36.5442
 30
0.0
 11
98.3961
 21
31.9471
 31
0.0
  0
LINE
  8
0
 62
     0
 10
98.3961
 20
31.9471
 30
0.0
 11
112.089
 21
29.0366
 31
0.0
  0
LINE
  8
0
 62
     0
 10
112.089
 20
29.0366
 30
0.0
 11
113.067
 21
33.6338
 31
0.0
  0
LINE
  8
0
 62
     0
 10
113.067
 20
33.6338
 30
0.0
 11
114.558
 21
33.3168
 31
0.0
  0
LINE
  8
0
 62
     0
 10
114.558
 20
33.3168
 30
0.0
 11
113.887
 21
30.157
 31
0.0
  0
LINE
  8
0
 62
     0
 10
113.887
 20
30.157
 30
0.0
 11
120.489
 21
28.7528
 31
0.0
  0
LINE
  8
0
 62
     0
 10
120.489
 20
28.7528
 30
0.0
 11
121.16
 21
31.914
 31
0.0
  0
LINE
  8
0
 62
     0
 10
121.16
 20
31.914
 30
0.0
 11
121.967
 21
31.7417
 31
0.0
  0
LINE
  8
0
 62
     0
 10
121.967
 20
31.7417
 30
0.0
 11
122.549
 21
34.4813
 31
0.0
  0
LINE
  8
0
 62
     0
 10
122.549
 20
34.4813
 30
0.0
 11
121.743
 21
34.6508
 31
0.0
  0
LINE
  8
0
 62
     0
 10
121.743
 20
34.6508
 30
0.0
 11
123.046
 21
40.7843
 31
0.0
  0
LINE
  8
0
 62
     0
 10
123.046
 20
40.7843
 30
0.0
 11
121.358
 21
41.1441
 31
0.0
  0
LINE
  8
0
 62
     0
 10
121.358
 20
41.1441
 30
0.0
 11
121.609
 21
42.3168
 31
0.0
  0
LINE
  8
0
 62
     0
 10
121.609
 20
42.3168
 30
0.0
 11
118.38
 21
43.0029
 31
0.0
  0
LINE
  8
0
 62
     0
 10
118.38
 20
43.0029
 30
0.0
 11
118.131
 21
41.8289
 31
0.0
  0
LINE
  8
0
 62
     0
 10
118.131
 20
41.8289
 30
0.0
 11
116.443
 21
42.1887
 31
0.0
  0
LINE
  8
0
 62
     0
 10
116.443
 20
42.1887
 30
0.0
 11
115.514
 21
37.8146
 31
0.0
  0
LINE
  8
0
 62
     0
 10
115.514
 20
37.8146
 30
0.0
 11
114.023
 21
38.1332
 31
0.0
  0
LINE
  8
0
 62
     0
 10
114.023
 20
38.1332
 30
0.0
 11
115
 21
42.7302
 31
0.0
  0
LINE
  8
0
 62
     0
 10
115
 20
42.7302
 30
0.0
 11
101.305
 21
45.642
 31
0.0
  0
LINE
  8
0
 62
     0
 10
101.305
 20
45.642
 30
0.0
 11
100.328
 21
41.0436
 31
0.0
  0
LINE
  8
0
 62
     0
 10
100.328
 20
41.0436
 30
0.0
 11
98.837
 21
41.3604
 31
0.0
  0
LINE
  8
0
 62
     0
 10
98.837
 20
41.3604
 30
0.0
 11
99.7659
 21
45.7331
 31
0.0
  0
LINE
  8
0
 62
     0
 10
99.7659
 20
45.7331
 30
0.0
 11
98.0793
 21
46.0911
 31
0.0
  0
LINE
  8
0
 62
     0
 10
98.0793
 20
46.0911
 30
0.0
 11
98.3287
 21
47.2652
 31
0.0
  0
LINE
  8
0
 62
     0
 10
98.3287
 20
47.2652
 30
0.0
 11
95.1011
 21
47.9517
 31
0.0
  0
LINE
  8
0
 62
     0
 10
95.1011
 20
47.9517
 30
0.0
 11
94.8517
 21
46.7776
 31
0.0
  0
LINE
  8
0
 62
     0
 10
335.043
 20
48.3567
 30
0.0
 11
349.042
 21
48.3567
 31
0.0
  0
LINE
  8
0
 62
     0
 10
349.042
 20
48.3567
 30
0.0
 11
349.042
 21
34.3559
 31
0.0
  0
LINE
  8
0
 62
     0
 10
349.042
 20
34.3559
 30
0.0
 11
335.043
 21
34.3559
 31
0.0
  0
LINE
  8
0
 62
     0
 10
335.043
 20
34.3559
 30
0.0
 11
335.043
 21
48.3567
 31
0.0
  0
LINE
  8
0
 62
     0
 10
315.993
 20
48.3567
 30
0.0
 11
329.992
 21
48.3567
 31
0.0
  0
LINE
  8
0
 62
     0
 10
329.992
 20
48.3567
 30
0.0
 11
329.992
 21
34.3559
 31
0.0
  0
LINE
  8
0
 62
     0
 10
329.992
 20
34.3559
 30
0.0
 11
315.993
 21
34.3559
 31
0.0
  0
LINE
  8
0
 62
     0
 10
315.993
 20
34.3559
 30
0.0
 11
315.993
 21
48.3567
 31
0.0
  0
LINE
  8
0
 62
     0
 10
296.943
 20
48.3567
 30
0.0
 11
310.942
 21
48.3567
 31
0.0
  0
LINE
  8
0
 62
     0
 10
310.942
 20
48.3567
 30
0.0
 11
310.942
 21
34.3559
 31
0.0
  0
LINE
  8
0
 62
     0
 10
310.942
 20
34.3559
 30
0.0
 11
296.943
 21
34.3559
 31
0.0
  0
LINE
  8
0
 62
     0
 10
296.943
 20
34.3559
 30
0.0
 11
296.943
 21
48.3567
 31
0.0
  0
LINE
  8
0
 62
     0
 10
236.852
 20
49.5088
 30
0.0
 11
239.762
 21
35.814
 31
0.0
  0
LINE
  8
0
 62
     0
 10
239.762
 20
35.814
 30
0.0
 11
253.456
 21
38.7255
 31
0.0
  0
LINE
  8
0
 62
     0
 10
253.456
 20
38.7255
 30
0.0
 11
250.545
 21
52.4192
 31
0.0
  0
LINE
  8
0
 62
     0
 10
250.545
 20
52.4192
 30
0.0
 11
236.852
 21
49.5088
 31
0.0
  0
LINE
  8
0
 62
     0
 10
65.786
 20
38.8786
 30
0.0
 11
79.4812
 21
35.9668
 31
0.0
  0
LINE
  8
0
 62
     0
 10
79.4812
 20
35.9668
 30
0.0
 11
82.3902
 21
49.6616
 31
0.0
  0
LINE
  8
0
 62
     0
 10
82.3902
 20
49.6616
 30
0.0
 11
68.6964
 21
52.572
 31
0.0
  0
LINE
  8
0
 62
     0
 10
68.6964
 20
52.572
 30
0.0
 11
65.786
 21
38.8786
 31
0.0
  0
LINE
  8
0
 62
     0
 10
160.685
 20
52.7939
 30
0.0
 11
163.595
 21
39.1005
 31
0.0
  0
LINE
  8
0
 62
     0
 10
163.595
 20
39.1005
 30
0.0
 11
177.29
 21
42.0109
 31
0.0
  0
LINE
  8
0
 62
     0
 10
177.29
 20
42.0109
 30
0.0
 11
174.378
 21
55.7057
 31
0.0
  0
LINE
  8
0
 62
     0
 10
174.378
 20
55.7057
 30
0.0
 11
160.685
 21
52.7939
 31
0.0
  0
LINE
  8
0
 62
     0
 10
266.938
 20
53.1178
 30
0.0
 11
280.938
 21
53.1178
 31
0.0
  0
LINE
  8
0
 62
     0
 10
280.938
 20
53.1178
 30
0.0
 11
280.938
 21
39.1185
 31
0.0
  0
LINE
  8
0
 62
     0
 10
280.938
 20
39.1185
 30
0.0
 11
266.938
 21
39.1185
 31
0.0
  0
LINE
  8
0
 62
     0
 10
266.938
 20
39.1185
 30
0.0
 11
266.938
 21
53.1178
 31
0.0
  0
LINE
  8
0
 62
     0
 10
33.5759
 20
53.1178
 30
0.0
 11
47.5767
 21
53.1178
 31
0.0
  0
LINE
  8
0
 62
     0
 10
47.5767
 20
53.1178
 30
0.0
 11
47.5767
 21
39.1185
 31
0.0
  0
LINE
  8
0
 62
     0
 10
47.5767
 20
39.1185
 30
0.0
 11
33.5759
 21
39.1185
 31
0.0
  0
LINE
  8
0
 62
     0
 10
33.5759
 20
39.1185
 30
0.0
 11
33.5759
 21
53.1178
 31
0.0
  0
LINE
  8
0
 62
     0
 10
7.38216
 20
53.1178
 30
0.0
 11
21.383
 21
53.1178
 31
0.0
  0
LINE
  8
0
 62
     0
 10
21.383
 20
53.1178
 30
0.0
 11
21.383
 21
39.1185
 31
0.0
  0
LINE
  8
0
 62
     0
 10
21.383
 20
39.1185
 30
0.0
 11
7.38216
 21
39.1185
 31
0.0
  0
LINE
  8
0
 62
     0
 10
7.38216
 20
39.1185
 30
0.0
 11
7.38216
 21
53.1178
 31
0.0
  0
LINE
  8
0
 62
     0
 10
179.319
 20
56.7559
 30
0.0
 11
182.229
 21
43.0611
 31
0.0
  0
LINE
  8
0
 62
     0
 10
182.229
 20
43.0611
 30
0.0
 11
195.924
 21
45.9726
 31
0.0
  0
LINE
  8
0
 62
     0
 10
195.924
 20
45.9726
 30
0.0
 11
193.012
 21
59.6664
 31
0.0
  0
LINE
  8
0
 62
     0
 10
193.012
 20
59.6664
 30
0.0
 11
179.319
 21
56.7559
 31
0.0
  0
LINE
  8
0
 62
     0
 10
123.318
 20
46.1243
 30
0.0
 11
137.013
 21
43.2139
 31
0.0
  0
LINE
  8
0
 62
     0
 10
137.013
 20
43.2139
 30
0.0
 11
139.923
 21
56.9087
 31
0.0
  0
LINE
  8
0
 62
     0
 10
139.923
 20
56.9087
 30
0.0
 11
126.23
 21
59.8181
 31
0.0
  0
LINE
  8
0
 62
     0
 10
126.23
 20
59.8181
 30
0.0
 11
123.318
 21
46.1243
 31
0.0
  0
LINE
  8
0
 62
     0
 10
197.952
 20
60.7162
 30
0.0
 11
200.863
 21
47.0228
 31
0.0
  0
LINE
  8
0
 62
     0
 10
200.863
 20
47.0228
 30
0.0
 11
214.558
 21
49.9332
 31
0.0
  0
LINE
  8
0
 62
     0
 10
214.558
 20
49.9332
 30
0.0
 11
211.646
 21
63.6266
 31
0.0
  0
LINE
  8
0
 62
     0
 10
211.646
 20
63.6266
 30
0.0
 11
197.952
 21
60.7162
 31
0.0
  0
LINE
  8
0
 62
     0
 10
104.684
 20
50.0849
 30
0.0
 11
118.379
 21
47.1745
 31
0.0
  0
LINE
  8
0
 62
     0
 10
118.379
 20
47.1745
 30
0.0
 11
121.29
 21
60.8679
 31
0.0
  0
LINE
  8
0
 62
     0
 10
121.29
 20
60.8679
 30
0.0
 11
107.596
 21
63.7798
 31
0.0
  0
LINE
  8
0
 62
     0
 10
107.596
 20
63.7798
 30
0.0
 11
104.684
 21
50.0849
 31
0.0
  0
LINE
  8
0
 62
     0
 10
216.585
 20
64.6769
 30
0.0
 11
219.497
 21
50.9834
 31
0.0
  0
LINE
  8
0
 62
     0
 10
219.497
 20
50.9834
 30
0.0
 11
233.19
 21
53.8939
 31
0.0
  0
LINE
  8
0
 62
     0
 10
233.19
 20
53.8939
 30
0.0
 11
230.28
 21
67.5873
 31
0.0
  0
LINE
  8
0
 62
     0
 10
230.28
 20
67.5873
 30
0.0
 11
216.585
 21
64.6769
 31
0.0
  0
LINE
  8
0
 62
     0
 10
86.0517
 20
54.0466
 30
0.0
 11
99.7451
 21
51.1348
 31
0.0
  0
LINE
  8
0
 62
     0
 10
99.7451
 20
51.1348
 30
0.0
 11
102.657
 21
64.83
 31
0.0
  0
LINE
  8
0
 62
     0
 10
102.657
 20
64.83
 30
0.0
 11
88.9621
 21
67.7404
 31
0.0
  0
LINE
  8
0
 62
     0
 10
88.9621
 20
67.7404
 30
0.0
 11
86.0517
 21
54.0466
 31
0.0
  0
LINE
  8
0
 62
     0
 10
315.993
 20
67.4067
 30
0.0
 11
329.992
 21
67.4067
 31
0.0
  0
LINE
  8
0
 62
     0
 10
329.992
 20
67.4067
 30
0.0
 11
329.992
 21
53.406
 31
0.0
  0
LINE
  8
0
 62
     0
 10
329.992
 20
53.406
 30
0.0
 11
315.993
 21
53.406
 31
0.0
  0
LINE
  8
0
 62
     0
 10
315.993
 20
53.406
 30
0.0
 11
315.993
 21
67.4067
 31
0.0
  0
LINE
  8
0
 62
     0
 10
235.22
 20
68.6375
 30
0.0
 11
238.131
 21
54.9437
 31
0.0
  0
LINE
  8
0
 62
     0
 10
238.131
 20
54.9437
 30
0.0
 11
251.824
 21
57.8541
 31
0.0
  0
LINE
  8
0
 62
     0
 10
251.824
 20
57.8541
 30
0.0
 11
248.914
 21
71.5479
 31
0.0
  0
LINE
  8
0
 62
     0
 10
248.914
 20
71.5479
 30
0.0
 11
235.22
 21
68.6375
 31
0.0
  0
LINE
  8
0
 62
     0
 10
67.4176
 20
58.0072
 30
0.0
 11
81.1114
 21
55.0968
 31
0.0
  0
LINE
  8
0
 62
     0
 10
81.1114
 20
55.0968
 30
0.0
 11
84.0232
 21
68.7903
 31
0.0
  0
LINE
  8
0
 62
     0
 10
84.0232
 20
68.7903
 30
0.0
 11
70.328
 21
71.7021
 31
0.0
  0
LINE
  8
0
 62
     0
 10
70.328
 20
71.7021
 30
0.0
 11
67.4176
 21
58.0072
 31
0.0
  0
LINE
  8
0
 62
     0
 10
14.5259
 20
72.1678
 30
0.0
 11
14.5259
 21
67.4688
 31
0.0
  0
LINE
  8
0
 62
     0
 10
14.5259
 20
67.4688
 30
0.0
 11
13.0018
 21
67.4688
 31
0.0
  0
LINE
  8
0
 62
     0
 10
13.0018
 20
67.4688
 30
0.0
 11
13.0018
 21
70.6988
 31
0.0
  0
LINE
  8
0
 62
     0
 10
13.0018
 20
70.6988
 30
0.0
 11
6.25217
 21
70.6988
 31
0.0
  0
LINE
  8
0
 62
     0
 10
6.25217
 20
70.6988
 30
0.0
 11
6.25217
 21
67.4688
 31
0.0
  0
LINE
  8
0
 62
     0
 10
6.25217
 20
67.4688
 30
0.0
 11
5.42671
 21
67.4688
 31
0.0
  0
LINE
  8
0
 62
     0
 10
5.42671
 20
67.4688
 30
0.0
 11
5.42671
 21
64.6688
 31
0.0
  0
LINE
  8
0
 62
     0
 10
5.42671
 20
64.6688
 30
0.0
 11
6.25217
 21
64.6688
 31
0.0
  0
LINE
  8
0
 62
     0
 10
6.25217
 20
64.6688
 30
0.0
 11
6.25217
 21
58.3985
 31
0.0
  0
LINE
  8
0
 62
     0
 10
6.25217
 20
58.3985
 30
0.0
 11
7.97609
 21
58.3985
 31
0.0
  0
LINE
  8
0
 62
     0
 10
7.97609
 20
58.3985
 30
0.0
 11
7.97609
 21
57.1983
 31
0.0
  0
LINE
  8
0
 62
     0
 10
7.97609
 20
57.1983
 30
0.0
 11
11.2765
 21
57.1983
 31
0.0
  0
LINE
  8
0
 62
     0
 10
11.2765
 20
57.1983
 30
0.0
 11
11.2765
 21
58.3985
 31
0.0
  0
LINE
  8
0
 62
     0
 10
11.2765
 20
58.3985
 30
0.0
 11
13.0018
 21
58.3985
 31
0.0
  0
LINE
  8
0
 62
     0
 10
13.0018
 20
58.3985
 30
0.0
 11
13.0018
 21
62.8689
 31
0.0
  0
LINE
  8
0
 62
     0
 10
13.0018
 20
62.8689
 30
0.0
 11
14.5259
 21
62.8689
 31
0.0
  0
LINE
  8
0
 62
     0
 10
14.5259
 20
62.8689
 30
0.0
 11
14.5259
 21
58.1685
 31
0.0
  0
LINE
  8
0
 62
     0
 10
14.5259
 20
58.1685
 30
0.0
 11
28.5268
 21
58.1685
 31
0.0
  0
LINE
  8
0
 62
     0
 10
28.5268
 20
58.1685
 30
0.0
 11
28.5268
 21
62.8689
 31
0.0
  0
LINE
  8
0
 62
     0
 10
28.5268
 20
62.8689
 30
0.0
 11
30.0509
 21
62.8689
 31
0.0
  0
LINE
  8
0
 62
     0
 10
30.0509
 20
62.8689
 30
0.0
 11
30.0509
 21
58.3985
 31
0.0
  0
LINE
  8
0
 62
     0
 10
30.0509
 20
58.3985
 30
0.0
 11
31.7762
 21
58.3985
 31
0.0
  0
LINE
  8
0
 62
     0
 10
31.7762
 20
58.3985
 30
0.0
 11
31.7762
 21
57.1983
 31
0.0
  0
LINE
  8
0
 62
     0
 10
31.7762
 20
57.1983
 30
0.0
 11
35.0766
 21
57.1983
 31
0.0
  0
LINE
  8
0
 62
     0
 10
35.0766
 20
57.1983
 30
0.0
 11
35.0766
 21
58.3985
 31
0.0
  0
LINE
  8
0
 62
     0
 10
35.0766
 20
58.3985
 30
0.0
 11
36.8018
 21
58.3985
 31
0.0
  0
LINE
  8
0
 62
     0
 10
36.8018
 20
58.3985
 30
0.0
 11
36.8018
 21
64.6688
 31
0.0
  0
LINE
  8
0
 62
     0
 10
36.8018
 20
64.6688
 30
0.0
 11
37.6259
 21
64.6688
 31
0.0
  0
LINE
  8
0
 62
     0
 10
37.6259
 20
64.6688
 30
0.0
 11
37.6259
 21
67.4688
 31
0.0
  0
LINE
  8
0
 62
     0
 10
37.6259
 20
67.4688
 30
0.0
 11
36.8018
 21
67.4688
 31
0.0
  0
LINE
  8
0
 62
     0
 10
36.8018
 20
67.4688
 30
0.0
 11
36.8018
 21
70.6988
 31
0.0
  0
LINE
  8
0
 62
     0
 10
36.8018
 20
70.6988
 30
0.0
 11
30.0509
 21
70.6988
 31
0.0
  0
LINE
  8
0
 62
     0
 10
30.0509
 20
70.6988
 30
0.0
 11
30.0509
 21
67.4688
 31
0.0
  0
LINE
  8
0
 62
     0
 10
30.0509
 20
67.4688
 30
0.0
 11
28.5268
 21
67.4688
 31
0.0
  0
LINE
  8
0
 62
     0
 10
28.5268
 20
67.4688
 30
0.0
 11
28.5268
 21
72.1678
 31
0.0
  0
LINE
  8
0
 62
     0
 10
28.5268
 20
72.1678
 30
0.0
 11
14.5259
 21
72.1678
 31
0.0
  0
LINE
  8
0
 62
     0
 10
285.036
 20
72.1678
 30
0.0
 11
299.037
 21
72.1678
 31
0.0
  0
LINE
  8
0
 62
     0
 10
299.037
 20
72.1678
 30
0.0
 11
299.037
 21
58.1685
 31
0.0
  0
LINE
  8
0
 62
     0
 10
299.037
 20
58.1685
 30
0.0
 11
285.036
 21
58.1685
 31
0.0
  0
LINE
  8
0
 62
     0
 10
285.036
 20
58.1685
 30
0.0
 11
285.036
 21
72.1678
 31
0.0
  0
LINE
  8
0
 62
     0
 10
258.843
 20
72.1678
 30
0.0
 11
272.842
 21
72.1678
 31
0.0
  0
LINE
  8
0
 62
     0
 10
272.842
 20
72.1678
 30
0.0
 11
272.842
 21
58.1685
 31
0.0
  0
LINE
  8
0
 62
     0
 10
272.842
 20
58.1685
 30
0.0
 11
258.843
 21
58.1685
 31
0.0
  0
LINE
  8
0
 62
     0
 10
258.843
 20
58.1685
 30
0.0
 11
258.843
 21
72.1678
 31
0.0
  0
LINE
  8
0
 62
     0
 10
45.4822
 20
72.1678
 30
0.0
 11
59.4829
 21
72.1678
 31
0.0
  0
LINE
  8
0
 62
     0
 10
59.4829
 20
72.1678
 30
0.0
 11
59.4829
 21
58.1685
 31
0.0
  0
LINE
  8
0
 62
     0
 10
59.4829
 20
58.1685
 30
0.0
 11
45.4822
 21
58.1685
 31
0.0
  0
LINE
  8
0
 62
     0
 10
45.4822
 20
58.1685
 30
0.0
 11
45.4822
 21
72.1678
 31
0.0
  0
LINE
  8
0
 62
     0
 10
170.699
 20
74.3991
 30
0.0
 11
173.611
 21
60.7053
 31
0.0
  0
LINE
  8
0
 62
     0
 10
173.611
 20
60.7053
 30
0.0
 11
187.304
 21
63.6157
 31
0.0
  0
LINE
  8
0
 62
     0
 10
187.304
 20
63.6157
 30
0.0
 11
184.394
 21
77.3095
 31
0.0
  0
LINE
  8
0
 62
     0
 10
184.394
 20
77.3095
 30
0.0
 11
170.699
 21
74.3991
 31
0.0
  0
LINE
  8
0
 62
     0
 10
117.963
 20
66.7385
 30
0.0
 11
131.656
 21
63.8281
 31
0.0
  0
LINE
  8
0
 62
     0
 10
131.656
 20
63.8281
 30
0.0
 11
134.567
 21
77.5229
 31
0.0
  0
LINE
  8
0
 62
     0
 10
134.567
 20
77.5229
 30
0.0
 11
120.873
 21
80.4319
 31
0.0
  0
LINE
  8
0
 62
     0
 10
120.873
 20
80.4319
 30
0.0
 11
117.963
 21
66.7385
 31
0.0
  0
LINE
  8
0
 62
     0
 10
189.333
 20
78.3594
 30
0.0
 11
192.243
 21
64.6659
 31
0.0
  0
LINE
  8
0
 62
     0
 10
192.243
 20
64.6659
 30
0.0
 11
205.938
 21
67.5763
 31
0.0
  0
LINE
  8
0
 62
     0
 10
205.938
 20
67.5763
 30
0.0
 11
203.028
 21
81.2698
 31
0.0
  0
LINE
  8
0
 62
     0
 10
203.028
 20
81.2698
 30
0.0
 11
189.333
 21
78.3594
 31
0.0
  0
LINE
  8
0
 62
     0
 10
99.3292
 20
70.6988
 30
0.0
 11
113.023
 21
67.7884
 31
0.0
  0
LINE
  8
0
 62
     0
 10
113.023
 20
67.7884
 30
0.0
 11
115.933
 21
81.4821
 31
0.0
  0
LINE
  8
0
 62
     0
 10
115.933
 20
81.4821
 30
0.0
 11
102.24
 21
84.394
 31
0.0
  0
LINE
  8
0
 62
     0
 10
102.24
 20
84.394
 30
0.0
 11
99.3292
 21
70.6988
 31
0.0
  0
LINE
  8
0
 62
     0
 10
207.967
 20
82.32
 30
0.0
 11
210.877
 21
68.6262
 31
0.0
  0
LINE
  8
0
 62
     0
 10
210.877
 20
68.6262
 30
0.0
 11
224.572
 21
71.5366
 31
0.0
  0
LINE
  8
0
 62
     0
 10
224.572
 20
71.5366
 30
0.0
 11
221.66
 21
85.2318
 31
0.0
  0
LINE
  8
0
 62
     0
 10
221.66
 20
85.2318
 30
0.0
 11
207.967
 21
82.32
 31
0.0
  0
LINE
  8
0
 62
     0
 10
80.6951
 20
74.6608
 30
0.0
 11
94.3903
 21
71.749
 31
0.0
  0
LINE
  8
0
 62
     0
 10
94.3903
 20
71.749
 30
0.0
 11
97.2993
 21
85.4438
 31
0.0
  0
LINE
  8
0
 62
     0
 10
97.2993
 20
85.4438
 30
0.0
 11
83.6055
 21
88.3543
 31
0.0
  0
LINE
  8
0
 62
     0
 10
83.6055
 20
88.3543
 30
0.0
 11
80.6951
 21
74.6608
 31
0.0
  0
LINE
  8
0
 62
     0
 10
226.6
 20
86.2817
 30
0.0
 11
229.511
 21
72.5868
 31
0.0
  0
LINE
  8
0
 62
     0
 10
229.511
 20
72.5868
 30
0.0
 11
243.206
 21
75.4987
 31
0.0
  0
LINE
  8
0
 62
     0
 10
243.206
 20
75.4987
 30
0.0
 11
240.294
 21
89.1921
 31
0.0
  0
LINE
  8
0
 62
     0
 10
240.294
 20
89.1921
 30
0.0
 11
226.6
 21
86.2817
 31
0.0
  0
LINE
  8
0
 62
     0
 10
62.0614
 20
78.6211
 30
0.0
 11
75.7548
 21
75.7107
 31
0.0
  0
LINE
  8
0
 62
     0
 10
75.7548
 20
75.7107
 30
0.0
 11
78.6666
 21
89.4045
 31
0.0
  0
LINE
  8
0
 62
     0
 10
78.6666
 20
89.4045
 30
0.0
 11
64.9732
 21
92.3149
 31
0.0
  0
LINE
  8
0
 62
     0
 10
64.9732
 20
92.3149
 30
0.0
 11
62.0614
 21
78.6211
 31
0.0
  0
LINE
  8
0
 62
     0
 10
299.324
 20
91.2178
 30
0.0
 11
299.324
 21
86.5188
 31
0.0
  0
LINE
  8
0
 62
     0
 10
299.324
 20
86.5188
 30
0.0
 11
297.798
 21
86.5188
 31
0.0
  0
LINE
  8
0
 62
     0
 10
297.798
 20
86.5188
 30
0.0
 11
297.798
 21
89.7488
 31
0.0
  0
LINE
  8
0
 62
     0
 10
297.798
 20
89.7488
 30
0.0
 11
291.049
 21
89.7488
 31
0.0
  0
LINE
  8
0
 62
     0
 10
291.049
 20
89.7488
 30
0.0
 11
291.049
 21
86.5188
 31
0.0
  0
LINE
  8
0
 62
     0
 10
291.049
 20
86.5188
 30
0.0
 11
290.223
 21
86.5188
 31
0.0
  0
LINE
  8
0
 62
     0
 10
290.223
 20
86.5188
 30
0.0
 11
290.223
 21
83.7188
 31
0.0
  0
LINE
  8
0
 62
     0
 10
290.223
 20
83.7188
 30
0.0
 11
291.049
 21
83.7188
 31
0.0
  0
LINE
  8
0
 62
     0
 10
291.049
 20
83.7188
 30
0.0
 11
291.049
 21
77.4485
 31
0.0
  0
LINE
  8
0
 62
     0
 10
291.049
 20
77.4485
 30
0.0
 11
292.774
 21
77.4485
 31
0.0
  0
LINE
  8
0
 62
     0
 10
292.774
 20
77.4485
 30
0.0
 11
292.774
 21
76.2483
 31
0.0
  0
LINE
  8
0
 62
     0
 10
292.774
 20
76.2483
 30
0.0
 11
296.073
 21
76.2483
 31
0.0
  0
LINE
  8
0
 62
     0
 10
296.073
 20
76.2483
 30
0.0
 11
296.073
 21
77.4485
 31
0.0
  0
LINE
  8
0
 62
     0
 10
296.073
 20
77.4485
 30
0.0
 11
297.798
 21
77.4485
 31
0.0
  0
LINE
  8
0
 62
     0
 10
297.798
 20
77.4485
 30
0.0
 11
297.798
 21
81.9189
 31
0.0
  0
LINE
  8
0
 62
     0
 10
297.798
 20
81.9189
 30
0.0
 11
299.324
 21
81.9189
 31
0.0
  0
LINE
  8
0
 62
     0
 10
299.324
 20
81.9189
 30
0.0
 11
299.324
 21
77.2185
 31
0.0
  0
LINE
  8
0
 62
     0
 10
299.324
 20
77.2185
 30
0.0
 11
313.323
 21
77.2185
 31
0.0
  0
LINE
  8
0
 62
     0
 10
313.323
 20
77.2185
 30
0.0
 11
313.323
 21
81.9189
 31
0.0
  0
LINE
  8
0
 62
     0
 10
313.323
 20
81.9189
 30
0.0
 11
314.849
 21
81.9189
 31
0.0
  0
LINE
  8
0
 62
     0
 10
314.849
 20
81.9189
 30
0.0
 11
314.849
 21
77.4485
 31
0.0
  0
LINE
  8
0
 62
     0
 10
314.849
 20
77.4485
 30
0.0
 11
316.574
 21
77.4485
 31
0.0
  0
LINE
  8
0
 62
     0
 10
316.574
 20
77.4485
 30
0.0
 11
316.574
 21
76.2483
 31
0.0
  0
LINE
  8
0
 62
     0
 10
316.574
 20
76.2483
 30
0.0
 11
319.873
 21
76.2483
 31
0.0
  0
LINE
  8
0
 62
     0
 10
319.873
 20
76.2483
 30
0.0
 11
319.873
 21
77.4485
 31
0.0
  0
LINE
  8
0
 62
     0
 10
319.873
 20
77.4485
 30
0.0
 11
321.598
 21
77.4485
 31
0.0
  0
LINE
  8
0
 62
     0
 10
321.598
 20
77.4485
 30
0.0
 11
321.598
 21
83.7188
 31
0.0
  0
LINE
  8
0
 62
     0
 10
321.598
 20
83.7188
 30
0.0
 11
322.424
 21
83.7188
 31
0.0
  0
LINE
  8
0
 62
     0
 10
322.424
 20
83.7188
 30
0.0
 11
322.424
 21
86.5188
 31
0.0
  0
LINE
  8
0
 62
     0
 10
322.424
 20
86.5188
 30
0.0
 11
321.598
 21
86.5188
 31
0.0
  0
LINE
  8
0
 62
     0
 10
321.598
 20
86.5188
 30
0.0
 11
321.598
 21
89.7488
 31
0.0
  0
LINE
  8
0
 62
     0
 10
321.598
 20
89.7488
 30
0.0
 11
314.849
 21
89.7488
 31
0.0
  0
LINE
  8
0
 62
     0
 10
314.849
 20
89.7488
 30
0.0
 11
314.849
 21
86.5188
 31
0.0
  0
LINE
  8
0
 62
     0
 10
314.849
 20
86.5188
 30
0.0
 11
313.323
 21
86.5188
 31
0.0
  0
LINE
  8
0
 62
     0
 10
313.323
 20
86.5188
 30
0.0
 11
313.323
 21
91.2178
 31
0.0
  0
LINE
  8
0
 62
     0
 10
313.323
 20
91.2178
 30
0.0
 11
299.324
 21
91.2178
 31
0.0
  0
LINE
  8
0
 62
     0
 10
268.368
 20
91.2178
 30
0.0
 11
282.367
 21
91.2178
 31
0.0
  0
LINE
  8
0
 62
     0
 10
282.367
 20
91.2178
 30
0.0
 11
282.367
 21
77.2185
 31
0.0
  0
LINE
  8
0
 62
     0
 10
282.367
 20
77.2185
 30
0.0
 11
268.368
 21
77.2185
 31
0.0
  0
LINE
  8
0
 62
     0
 10
268.368
 20
77.2185
 30
0.0
 11
268.368
 21
91.2178
 31
0.0
  0
LINE
  8
0
 62
     0
 10
249.318
 20
91.2178
 30
0.0
 11
263.317
 21
91.2178
 31
0.0
  0
LINE
  8
0
 62
     0
 10
263.317
 20
91.2178
 30
0.0
 11
263.317
 21
77.2185
 31
0.0
  0
LINE
  8
0
 62
     0
 10
263.317
 20
77.2185
 30
0.0
 11
249.318
 21
77.2185
 31
0.0
  0
LINE
  8
0
 62
     0
 10
249.318
 20
77.2185
 30
0.0
 11
249.318
 21
91.2178
 31
0.0
  0
LINE
  8
0
 62
     0
 10
40.7211
 20
91.2178
 30
0.0
 11
54.7204
 21
91.2178
 31
0.0
  0
LINE
  8
0
 62
     0
 10
54.7204
 20
91.2178
 30
0.0
 11
54.7204
 21
77.2185
 31
0.0
  0
LINE
  8
0
 62
     0
 10
54.7204
 20
77.2185
 30
0.0
 11
40.7211
 21
77.2185
 31
0.0
  0
LINE
  8
0
 62
     0
 10
40.7211
 20
77.2185
 30
0.0
 11
40.7211
 21
91.2178
 31
0.0
  0
LINE
  8
0
 62
     0
 10
9.76341
 20
91.2178
 30
0.0
 11
23.7629
 21
91.2178
 31
0.0
  0
LINE
  8
0
 62
     0
 10
23.7629
 20
91.2178
 30
0.0
 11
23.7629
 21
77.2185
 31
0.0
  0
LINE
  8
0
 62
     0
 10
23.7629
 20
77.2185
 30
0.0
 11
9.76341
 21
77.2185
 31
0.0
  0
LINE
  8
0
 62
     0
 10
9.76341
 20
77.2185
 30
0.0
 11
9.76341
 21
91.2178
 31
0.0
  0
LINE
  8
0
 62
     0
 10
162.081
 20
92.0418
 30
0.0
 11
164.991
 21
78.3484
 31
0.0
  0
LINE
  8
0
 62
     0
 10
164.991
 20
78.3484
 30
0.0
 11
178.686
 21
81.2588
 31
0.0
  0
LINE
  8
0
 62
     0
 10
178.686
 20
81.2588
 30
0.0
 11
175.774
 21
94.9537
 31
0.0
  0
LINE
  8
0
 62
     0
 10
175.774
 20
94.9537
 30
0.0
 11
162.081
 21
92.0418
 31
0.0
  0
LINE
  8
0
 62
     0
 10
335.043
 20
95.9817
 30
0.0
 11
349.042
 21
95.9817
 31
0.0
  0
LINE
  8
0
 62
     0
 10
349.042
 20
95.9817
 30
0.0
 11
349.042
 21
81.981
 31
0.0
  0
LINE
  8
0
 62
     0
 10
349.042
 20
81.981
 30
0.0
 11
335.043
 21
81.981
 31
0.0
  0
LINE
  8
0
 62
     0
 10
335.043
 20
81.981
 30
0.0
 11
335.043
 21
95.9817
 31
0.0
  0
LINE
  8
0
 62
     0
 10
180.713
 20
96.0039
 30
0.0
 11
183.625
 21
82.3087
 31
0.0
  0
LINE
  8
0
 62
     0
 10
183.625
 20
82.3087
 30
0.0
 11
197.318
 21
85.2205
 31
0.0
  0
LINE
  8
0
 62
     0
 10
197.318
 20
85.2205
 30
0.0
 11
194.408
 21
98.9143
 31
0.0
  0
LINE
  8
0
 62
     0
 10
194.408
 20
98.9143
 30
0.0
 11
180.713
 21
96.0039
 31
0.0
  0
LINE
  8
0
 62
     0
 10
117.264
 20
86.3632
 30
0.0
 11
130.959
 21
83.4528
 31
0.0
  0
LINE
  8
0
 62
     0
 10
130.959
 20
83.4528
 30
0.0
 11
133.87
 21
97.1462
 31
0.0
  0
LINE
  8
0
 62
     0
 10
133.87
 20
97.1462
 30
0.0
 11
120.176
 21
100.058
 31
0.0
  0
LINE
  8
0
 62
     0
 10
120.176
 20
100.058
 30
0.0
 11
117.264
 21
86.3632
 31
0.0
  0
LINE
  8
0
 62
     0
 10
199.347
 20
99.9656
 30
0.0
 11
202.259
 21
86.2707
 31
0.0
  0
LINE
  8
0
 62
     0
 10
202.259
 20
86.2707
 30
0.0
 11
215.952
 21
89.1798
 31
0.0
  0
LINE
  8
0
 62
     0
 10
215.952
 20
89.1798
 30
0.0
 11
213.042
 21
102.875
 31
0.0
  0
LINE
  8
0
 62
     0
 10
213.042
 20
102.875
 30
0.0
 11
199.347
 21
99.9656
 31
0.0
  0
LINE
  8
0
 62
     0
 10
98.6317
 20
90.3235
 30
0.0
 11
112.325
 21
87.4116
 31
0.0
  0
LINE
  8
0
 62
     0
 10
112.325
 20
87.4116
 30
0.0
 11
115.236
 21
101.107
 31
0.0
  0
LINE
  8
0
 62
     0
 10
115.236
 20
101.107
 30
0.0
 11
101.542
 21
104.017
 31
0.0
  0
LINE
  8
0
 62
     0
 10
101.542
 20
104.017
 30
0.0
 11
98.6317
 21
90.3235
 31
0.0
  0
LINE
  8
0
 62
     0
 10
217.981
 20
103.925
 30
0.0
 11
220.893
 21
90.23
 31
0.0
  0
LINE
  8
0
 62
     0
 10
220.893
 20
90.23
 30
0.0
 11
234.586
 21
93.1415
 31
0.0
  0
LINE
  8
0
 62
     0
 10
234.586
 20
93.1415
 30
0.0
 11
231.676
 21
106.835
 31
0.0
  0
LINE
  8
0
 62
     0
 10
231.676
 20
106.835
 30
0.0
 11
217.981
 21
103.925
 31
0.0
  0
LINE
  8
0
 62
     0
 10
79.998
 20
94.2841
 30
0.0
 11
93.6914
 21
91.3737
 31
0.0
  0
LINE
  8
0
 62
     0
 10
93.6914
 20
91.3737
 30
0.0
 11
96.6018
 21
105.067
 31
0.0
  0
LINE
  8
0
 62
     0
 10
96.6018
 20
105.067
 30
0.0
 11
82.9084
 21
107.979
 31
0.0
  0
LINE
  8
0
 62
     0
 10
82.9084
 20
107.979
 30
0.0
 11
79.998
 21
94.2841
 31
0.0
  0
LINE
  8
0
 62
     0
 10
236.616
 20
107.885
 30
0.0
 11
239.525
 21
94.1917
 31
0.0
  0
LINE
  8
0
 62
     0
 10
239.525
 20
94.1917
 30
0.0
 11
253.22
 21
97.1021
 31
0.0
  0
LINE
  8
0
 62
     0
 10
253.22
 20
97.1021
 30
0.0
 11
250.31
 21
110.797
 31
0.0
  0
LINE
  8
0
 62
     0
 10
250.31
 20
110.797
 30
0.0
 11
236.616
 21
107.885
 31
0.0
  0
LINE
  8
0
 62
     0
 10
148.802
 20
108.697
 30
0.0
 11
151.714
 21
95.002
 31
0.0
  0
LINE
  8
0
 62
     0
 10
151.714
 20
95.002
 30
0.0
 11
165.407
 21
97.9124
 31
0.0
  0
LINE
  8
0
 62
     0
 10
165.407
 20
97.9124
 30
0.0
 11
162.497
 21
111.606
 31
0.0
  0
LINE
  8
0
 62
     0
 10
162.497
 20
111.606
 30
0.0
 11
148.802
 21
108.697
 31
0.0
  0
LINE
  8
0
 62
     0
 10
61.3639
 20
98.2444
 30
0.0
 11
75.0577
 21
95.334
 31
0.0
  0
LINE
  8
0
 62
     0
 10
75.0577
 20
95.334
 30
0.0
 11
77.9681
 21
109.029
 31
0.0
  0
LINE
  8
0
 62
     0
 10
77.9681
 20
109.029
 30
0.0
 11
64.2744
 21
111.94
 31
0.0
  0
LINE
  8
0
 62
     0
 10
64.2744
 20
111.94
 30
0.0
 11
61.3639
 21
98.2444
 31
0.0
  0
LINE
  8
0
 62
     0
 10
301.705
 20
110.268
 30
0.0
 11
315.706
 21
110.268
 31
0.0
  0
LINE
  8
0
 62
     0
 10
315.706
 20
110.268
 30
0.0
 11
315.706
 21
96.2685
 31
0.0
  0
LINE
  8
0
 62
     0
 10
315.706
 20
96.2685
 30
0.0
 11
301.705
 21
96.2685
 31
0.0
  0
LINE
  8
0
 62
     0
 10
301.705
 20
96.2685
 30
0.0
 11
301.705
 21
110.268
 31
0.0
  0
LINE
  8
0
 62
     0
 10
277.893
 20
110.268
 30
0.0
 11
291.892
 21
110.268
 31
0.0
  0
LINE
  8
0
 62
     0
 10
291.892
 20
110.268
 30
0.0
 11
291.892
 21
96.2685
 31
0.0
  0
LINE
  8
0
 62
     0
 10
291.892
 20
96.2685
 30
0.0
 11
277.893
 21
96.2685
 31
0.0
  0
LINE
  8
0
 62
     0
 10
277.893
 20
96.2685
 30
0.0
 11
277.893
 21
110.268
 31
0.0
  0
LINE
  8
0
 62
     0
 10
258.843
 20
110.268
 30
0.0
 11
272.842
 21
110.268
 31
0.0
  0
LINE
  8
0
 62
     0
 10
272.842
 20
110.268
 30
0.0
 11
272.842
 21
96.2685
 31
0.0
  0
LINE
  8
0
 62
     0
 10
272.842
 20
96.2685
 30
0.0
 11
258.843
 21
96.2685
 31
0.0
  0
LINE
  8
0
 62
     0
 10
258.843
 20
96.2685
 30
0.0
 11
258.843
 21
110.268
 31
0.0
  0
LINE
  8
0
 62
     0
 10
40.7211
 20
110.268
 30
0.0
 11
54.7204
 21
110.268
 31
0.0
  0
LINE
  8
0
 62
     0
 10
54.7204
 20
110.268
 30
0.0
 11
54.7204
 21
96.2685
 31
0.0
  0
LINE
  8
0
 62
     0
 10
54.7204
 20
96.2685
 30
0.0
 11
40.7211
 21
96.2685
 31
0.0
  0
LINE
  8
0
 62
     0
 10
40.7211
 20
96.2685
 30
0.0
 11
40.7211
 21
110.268
 31
0.0
  0
LINE
  8
0
 62
     0
 10
16.9072
 20
110.268
 30
0.0
 11
30.908
 21
110.268
 31
0.0
  0
LINE
  8
0
 62
     0
 10
30.908
 20
110.268
 30
0.0
 11
30.908
 21
96.2685
 31
0.0
  0
LINE
  8
0
 62
     0
 10
30.908
 20
96.2685
 30
0.0
 11
16.9072
 21
96.2685
 31
0.0
  0
LINE
  8
0
 62
     0
 10
16.9072
 20
96.2685
 30
0.0
 11
16.9072
 21
110.268
 31
0.0
  0
LINE
  8
0
 62
     0
 10
167.437
 20
112.656
 30
0.0
 11
170.348
 21
98.9623
 31
0.0
  0
LINE
  8
0
 62
     0
 10
170.348
 20
98.9623
 30
0.0
 11
184.041
 21
101.873
 31
0.0
  0
LINE
  8
0
 62
     0
 10
184.041
 20
101.873
 30
0.0
 11
181.131
 21
115.568
 31
0.0
  0
LINE
  8
0
 62
     0
 10
181.131
 20
115.568
 30
0.0
 11
167.437
 21
112.656
 31
0.0
  0
LINE
  8
0
 62
     0
 10
130.543
 20
103.017
 30
0.0
 11
144.236
 21
100.105
 31
0.0
  0
LINE
  8
0
 62
     0
 10
144.236
 20
100.105
 30
0.0
 11
147.147
 21
113.8
 31
0.0
  0
LINE
  8
0
 62
     0
 10
147.147
 20
113.8
 30
0.0
 11
133.453
 21
116.71
 31
0.0
  0
LINE
  8
0
 62
     0
 10
133.453
 20
116.71
 30
0.0
 11
130.543
 21
103.017
 31
0.0
  0
LINE
  8
0
 62
     0
 10
330.28
 20
115.032
 30
0.0
 11
344.281
 21
115.032
 31
0.0
  0
LINE
  8
0
 62
     0
 10
344.281
 20
115.032
 30
0.0
 11
344.281
 21
101.031
 31
0.0
  0
LINE
  8
0
 62
     0
 10
344.281
 20
101.031
 30
0.0
 11
330.28
 21
101.031
 31
0.0
  0
LINE
  8
0
 62
     0
 10
330.28
 20
101.031
 30
0.0
 11
330.28
 21
115.032
 31
0.0
  0
LINE
  8
0
 62
     0
 10
186.071
 20
116.618
 30
0.0
 11
188.98
 21
102.923
 31
0.0
  0
LINE
  8
0
 62
     0
 10
188.98
 20
102.923
 30
0.0
 11
202.675
 21
105.835
 31
0.0
  0
LINE
  8
0
 62
     0
 10
202.675
 20
105.835
 30
0.0
 11
199.765
 21
119.528
 31
0.0
  0
LINE
  8
0
 62
     0
 10
199.765
 20
119.528
 30
0.0
 11
186.071
 21
116.618
 31
0.0
  0
LINE
  8
0
 62
     0
 10
111.909
 20
106.976
 30
0.0
 11
125.603
 21
104.067
 31
0.0
  0
LINE
  8
0
 62
     0
 10
125.603
 20
104.067
 30
0.0
 11
128.513
 21
117.76
 31
0.0
  0
LINE
  8
0
 62
     0
 10
128.513
 20
117.76
 30
0.0
 11
114.82
 21
120.671
 31
0.0
  0
LINE
  8
0
 62
     0
 10
114.82
 20
120.671
 30
0.0
 11
111.909
 21
106.976
 31
0.0
  0
LINE
  8
0
 62
     0
 10
204.704
 20
120.578
 30
0.0
 11
207.614
 21
106.885
 31
0.0
  0
LINE
  8
0
 62
     0
 10
207.614
 20
106.885
 30
0.0
 11
221.309
 21
109.794
 31
0.0
  0
LINE
  8
0
 62
     0
 10
221.309
 20
109.794
 30
0.0
 11
218.397
 21
123.489
 31
0.0
  0
LINE
  8
0
 62
     0
 10
218.397
 20
123.489
 30
0.0
 11
204.704
 21
120.578
 31
0.0
  0
LINE
  8
0
 62
     0
 10
93.2752
 20
110.938
 30
0.0
 11
106.969
 21
108.026
 31
0.0
  0
LINE
  8
0
 62
     0
 10
106.969
 20
108.026
 30
0.0
 11
109.879
 21
121.721
 31
0.0
  0
LINE
  8
0
 62
     0
 10
109.879
 20
121.721
 30
0.0
 11
96.1856
 21
124.631
 31
0.0
  0
LINE
  8
0
 62
     0
 10
96.1856
 20
124.631
 30
0.0
 11
93.2752
 21
110.938
 31
0.0
  0
LINE
  8
0
 62
     0
 10
223.337
 20
124.539
 30
0.0
 11
226.249
 21
110.844
 31
0.0
  0
LINE
  8
0
 62
     0
 10
226.249
 20
110.844
 30
0.0
 11
239.943
 21
113.756
 31
0.0
  0
LINE
  8
0
 62
     0
 10
239.943
 20
113.756
 30
0.0
 11
237.031
 21
127.449
 31
0.0
  0
LINE
  8
0
 62
     0
 10
237.031
 20
127.449
 30
0.0
 11
223.337
 21
124.539
 31
0.0
  0
LINE
  8
0
 62
     0
 10
74.6414
 20
114.898
 30
0.0
 11
88.3348
 21
111.988
 31
0.0
  0
LINE
  8
0
 62
     0
 10
88.3348
 20
111.988
 30
0.0
 11
91.2467
 21
125.681
 31
0.0
  0
LINE
  8
0
 62
     0
 10
91.2467
 20
125.681
 30
0.0
 11
77.5518
 21
128.593
 31
0.0
  0
LINE
  8
0
 62
     0
 10
77.5518
 20
128.593
 30
0.0
 11
74.6414
 21
114.898
 31
0.0
  0
LINE
  8
0
 62
     0
 10
301.705
 20
129.318
 30
0.0
 11
315.706
 21
129.318
 31
0.0
  0
LINE
  8
0
 62
     0
 10
315.706
 20
129.318
 30
0.0
 11
315.706
 21
115.318
 31
0.0
  0
LINE
  8
0
 62
     0
 10
315.706
 20
115.318
 30
0.0
 11
301.705
 21
115.318
 31
0.0
  0
LINE
  8
0
 62
     0
 10
301.705
 20
115.318
 30
0.0
 11
301.705
 21
129.318
 31
0.0
  0
LINE
  8
0
 62
     0
 10
282.655
 20
129.318
 30
0.0
 11
296.656
 21
129.318
 31
0.0
  0
LINE
  8
0
 62
     0
 10
296.656
 20
129.318
 30
0.0
 11
296.656
 21
115.318
 31
0.0
  0
LINE
  8
0
 62
     0
 10
296.656
 20
115.318
 30
0.0
 11
282.655
 21
115.318
 31
0.0
  0
LINE
  8
0
 62
     0
 10
282.655
 20
115.318
 30
0.0
 11
282.655
 21
129.318
 31
0.0
  0
LINE
  8
0
 62
     0
 10
263.605
 20
129.318
 30
0.0
 11
277.606
 21
129.318
 31
0.0
  0
LINE
  8
0
 62
     0
 10
277.606
 20
129.318
 30
0.0
 11
277.606
 21
115.318
 31
0.0
  0
LINE
  8
0
 62
     0
 10
277.606
 20
115.318
 30
0.0
 11
263.605
 21
115.318
 31
0.0
  0
LINE
  8
0
 62
     0
 10
263.605
 20
115.318
 30
0.0
 11
263.605
 21
129.318
 31
0.0
  0
LINE
  8
0
 62
     0
 10
35.9572
 20
129.318
 30
0.0
 11
49.9579
 21
129.318
 31
0.0
  0
LINE
  8
0
 62
     0
 10
49.9579
 20
129.318
 30
0.0
 11
49.9579
 21
115.318
 31
0.0
  0
LINE
  8
0
 62
     0
 10
49.9579
 20
115.318
 30
0.0
 11
35.9572
 21
115.318
 31
0.0
  0
LINE
  8
0
 62
     0
 10
35.9572
 20
115.318
 30
0.0
 11
35.9572
 21
129.318
 31
0.0
  0
LINE
  8
0
 62
     0
 10
16.9072
 20
129.318
 30
0.0
 11
30.908
 21
129.318
 31
0.0
  0
LINE
  8
0
 62
     0
 10
30.908
 20
129.318
 30
0.0
 11
30.908
 21
115.318
 31
0.0
  0
LINE
  8
0
 62
     0
 10
30.908
 20
115.318
 30
0.0
 11
16.9072
 21
115.318
 31
0.0
  0
LINE
  8
0
 62
     0
 10
16.9072
 20
115.318
 30
0.0
 11
16.9072
 21
129.318
 31
0.0
  0
LINE
  8
0
 62
     0
 10
244.555
 20
132.176
 30
0.0
 11
258.556
 21
132.176
 31
0.0
  0
LINE
  8
0
 62
     0
 10
258.556
 20
132.176
 30
0.0
 11
258.556
 21
118.176
 31
0.0
  0
LINE
  8
0
 62
     0
 10
258.556
 20
118.176
 30
0.0
 11
244.555
 21
118.176
 31
0.0
  0
LINE
  8
0
 62
     0
 10
244.555
 20
118.176
 30
0.0
 11
244.555
 21
132.176
 31
0.0
  0
LINE
  8
0
 62
     0
 10
55.0072
 20
132.176
 30
0.0
 11
69.0079
 21
132.176
 31
0.0
  0
LINE
  8
0
 62
     0
 10
69.0079
 20
132.176
 30
0.0
 11
69.0079
 21
118.176
 31
0.0
  0
LINE
  8
0
 62
     0
 10
69.0079
 20
118.176
 30
0.0
 11
55.0072
 21
118.176
 31
0.0
  0
LINE
  8
0
 62
     0
 10
55.0072
 20
118.176
 30
0.0
 11
55.0072
 21
132.176
 31
0.0
  0
LINE
  8
0
 62
     0
 10
325.518
 20
134.082
 30
0.0
 11
339.517
 21
134.082
 31
0.0
  0
LINE
  8
0
 62
     0
 10
339.517
 20
134.082
 30
0.0
 11
339.517
 21
120.081
 31
0.0
  0
LINE
  8
0
 62
     0
 10
339.517
 20
120.081
 30
0.0
 11
325.518
 21
120.081
 31
0.0
  0
LINE
  8
0
 62
     0
 10
325.518
 20
120.081
 30
0.0
 11
325.518
 21
134.082
 31
0.0
  0
LINE
  8
0
 62
     0
 10
167.144
 20
136.94
 30
0.0
 11
170.054
 21
123.245
 31
0.0
  0
LINE
  8
0
 62
     0
 10
170.054
 20
123.245
 30
0.0
 11
183.749
 21
126.155
 31
0.0
  0
LINE
  8
0
 62
     0
 10
183.749
 20
126.155
 30
0.0
 11
180.837
 21
139.849
 31
0.0
  0
LINE
  8
0
 62
     0
 10
180.837
 20
139.849
 30
0.0
 11
167.144
 21
136.94
 31
0.0
  0
LINE
  8
0
 62
     0
 10
130.835
 20
127.299
 30
0.0
 11
144.529
 21
124.387
 31
0.0
  0
LINE
  8
0
 62
     0
 10
144.529
 20
124.387
 30
0.0
 11
147.439
 21
138.081
 31
0.0
  0
LINE
  8
0
 62
     0
 10
147.439
 20
138.081
 30
0.0
 11
133.745
 21
140.993
 31
0.0
  0
LINE
  8
0
 62
     0
 10
133.745
 20
140.993
 30
0.0
 11
130.835
 21
127.299
 31
0.0
  0
LINE
  8
0
 62
     0
 10
185.777
 20
140.899
 30
0.0
 11
188.688
 21
127.205
 31
0.0
  0
LINE
  8
0
 62
     0
 10
188.688
 20
127.205
 30
0.0
 11
202.383
 21
130.116
 31
0.0
  0
LINE
  8
0
 62
     0
 10
202.383
 20
130.116
 30
0.0
 11
199.471
 21
143.811
 31
0.0
  0
LINE
  8
0
 62
     0
 10
199.471
 20
143.811
 30
0.0
 11
185.777
 21
140.899
 31
0.0
  0
LINE
  8
0
 62
     0
 10
112.201
 20
131.259
 30
0.0
 11
125.895
 21
128.348
 31
0.0
  0
LINE
  8
0
 62
     0
 10
125.895
 20
128.348
 30
0.0
 11
128.807
 21
142.043
 31
0.0
  0
LINE
  8
0
 62
     0
 10
128.807
 20
142.043
 30
0.0
 11
115.112
 21
144.953
 31
0.0
  0
LINE
  8
0
 62
     0
 10
115.112
 20
144.953
 30
0.0
 11
112.201
 21
131.259
 31
0.0
  0
LINE
  8
0
 62
     0
 10
209.069
 20
145.85
 30
0.0
 11
211.981
 21
132.157
 31
0.0
  0
LINE
  8
0
 62
     0
 10
211.981
 20
132.157
 30
0.0
 11
225.674
 21
135.067
 31
0.0
  0
LINE
  8
0
 62
     0
 10
225.674
 20
135.067
 30
0.0
 11
222.764
 21
148.762
 31
0.0
  0
LINE
  8
0
 62
     0
 10
222.764
 20
148.762
 30
0.0
 11
209.069
 21
145.85
 31
0.0
  0
LINE
  8
0
 62
     0
 10
88.9095
 20
136.211
 30
0.0
 11
102.603
 21
133.299
 31
0.0
  0
LINE
  8
0
 62
     0
 10
102.603
 20
133.299
 30
0.0
 11
105.514
 21
146.994
 31
0.0
  0
LINE
  8
0
 62
     0
 10
105.514
 20
146.994
 30
0.0
 11
91.8199
 21
149.904
 31
0.0
  0
LINE
  8
0
 62
     0
 10
91.8199
 20
149.904
 30
0.0
 11
88.9095
 21
136.211
 31
0.0
  0
LINE
  8
0
 62
     0
 10
227.703
 20
149.812
 30
0.0
 11
230.615
 21
136.117
 31
0.0
  0
LINE
  8
0
 62
     0
 10
230.615
 20
136.117
 30
0.0
 11
244.308
 21
139.029
 31
0.0
  0
LINE
  8
0
 62
     0
 10
244.308
 20
139.029
 30
0.0
 11
241.398
 21
152.722
 31
0.0
  0
LINE
  8
0
 62
     0
 10
241.398
 20
152.722
 30
0.0
 11
227.703
 21
149.812
 31
0.0
  0
LINE
  8
0
 62
     0
 10
70.2758
 20
140.17
 30
0.0
 11
83.9692
 21
137.261
 31
0.0
  0
LINE
  8
0
 62
     0
 10
83.9692
 20
137.261
 30
0.0
 11
86.8811
 21
150.954
 31
0.0
  0
LINE
  8
0
 62
     0
 10
86.8811
 20
150.954
 30
0.0
 11
73.1862
 21
153.865
 31
0.0
  0
LINE
  8
0
 62
     0
 10
73.1862
 20
153.865
 30
0.0
 11
70.2758
 21
140.17
 31
0.0
  0
LINE
  8
0
 62
     0
 10
320.755
 20
153.132
 30
0.0
 11
334.754
 21
153.132
 31
0.0
  0
LINE
  8
0
 62
     0
 10
334.754
 20
153.132
 30
0.0
 11
334.754
 21
139.131
 31
0.0
  0
LINE
  8
0
 62
     0
 10
334.754
 20
139.131
 30
0.0
 11
320.755
 21
139.131
 31
0.0
  0
LINE
  8
0
 62
     0
 10
320.755
 20
139.131
 30
0.0
 11
320.755
 21
153.132
 31
0.0
  0
LINE
  8
0
 62
     0
 10
295.323
 20
153.132
 30
0.0
 11
309.324
 21
153.132
 31
0.0
  0
LINE
  8
0
 62
     0
 10
309.324
 20
153.132
 30
0.0
 11
309.324
 21
139.131
 31
0.0
  0
LINE
  8
0
 62
     0
 10
309.324
 20
139.131
 30
0.0
 11
295.323
 21
139.131
 31
0.0
  0
LINE
  8
0
 62
     0
 10
295.323
 20
139.131
 30
0.0
 11
295.323
 21
153.132
 31
0.0
  0
LINE
  8
0
 62
     0
 10
6.42994
 20
153.132
 30
0.0
 11
20.4308
 21
153.132
 31
0.0
  0
LINE
  8
0
 62
     0
 10
20.4308
 20
153.132
 30
0.0
 11
20.4308
 21
139.131
 31
0.0
  0
LINE
  8
0
 62
     0
 10
20.4308
 20
139.131
 30
0.0
 11
6.42994
 21
139.131
 31
0.0
  0
LINE
  8
0
 62
     0
 10
6.42994
 20
139.131
 30
0.0
 11
6.42994
 21
153.132
 31
0.0
  0
LINE
  8
0
 62
     0
 10
250.271
 20
154.084
 30
0.0
 11
264.27
 21
154.084
 31
0.0
  0
LINE
  8
0
 62
     0
 10
264.27
 20
154.084
 30
0.0
 11
264.27
 21
140.083
 31
0.0
  0
LINE
  8
0
 62
     0
 10
264.27
 20
140.083
 30
0.0
 11
250.271
 21
140.083
 31
0.0
  0
LINE
  8
0
 62
     0
 10
250.271
 20
140.083
 30
0.0
 11
250.271
 21
154.084
 31
0.0
  0
LINE
  8
0
 62
     0
 10
50.2461
 20
154.084
 30
0.0
 11
64.2454
 21
154.084
 31
0.0
  0
LINE
  8
0
 62
     0
 10
64.2454
 20
154.084
 30
0.0
 11
64.2454
 21
140.083
 31
0.0
  0
LINE
  8
0
 62
     0
 10
64.2454
 20
140.083
 30
0.0
 11
50.2461
 21
140.083
 31
0.0
  0
LINE
  8
0
 62
     0
 10
50.2461
 20
140.083
 30
0.0
 11
50.2461
 21
154.084
 31
0.0
  0
LINE
  8
0
 62
     0
 10
269.321
 20
154.084
 30
0.0
 11
283.32
 21
154.084
 31
0.0
  0
LINE
  8
0
 62
     0
 10
283.32
 20
154.084
 30
0.0
 11
283.32
 21
140.083
 31
0.0
  0
LINE
  8
0
 62
     0
 10
283.32
 20
140.083
 30
0.0
 11
269.321
 21
140.083
 31
0.0
  0
LINE
  8
0
 62
     0
 10
269.321
 20
140.083
 30
0.0
 11
269.321
 21
154.084
 31
0.0
  0
LINE
  8
0
 62
     0
 10
31.196
 20
154.084
 30
0.0
 11
45.1954
 21
154.084
 31
0.0
  0
LINE
  8
0
 62
     0
 10
45.1954
 20
154.084
 30
0.0
 11
45.1954
 21
140.083
 31
0.0
  0
LINE
  8
0
 62
     0
 10
45.1954
 20
140.083
 30
0.0
 11
31.196
 21
140.083
 31
0.0
  0
LINE
  8
0
 62
     0
 10
31.196
 20
140.083
 30
0.0
 11
31.196
 21
154.084
 31
0.0
  0
ENDSEC
  0
EOF
