  0
SECTION
  2
HEADER
  9
$ACADVER
  1
AC1032
  9
$ACADMAINTVER
 90
      174
  9
$DWGCODEPAGE
  3
ANSI_936
  9
$LASTSAVEDBY
  1
xuech
  9
$REQUIREDVERSIONS
160
                 0
  9
$INSBASE
 10
0.0
 20
0.0
 30
0.0
  9
$EXTMIN
 10
0.0821903026894688
 20
0.3849205098906623
 30
0.0
  9
$EXTMAX
 10
351.5680000000001
 20
160.4190211632416
 30
0.0
  9
$LIMMIN
 10
0.0
 20
0.0
  9
$LIMMAX
 10
12.0
 20
9.0
  9
$ORTHOMODE
 70
     0
  9
$REGENMODE
 70
     1
  9
$FILLMODE
 70
     0
  9
$QTEXTMODE
 70
     0
  9
$MIRRTEXT
 70
     0
  9
$LTSCALE
 40
1.0
  9
$ATTMODE
 70
     1
  9
$TEXTSIZE
 40
0.2
  9
$TRACEWID
 40
0.05
  9
$TEXTSTYLE
  7
Standard
  9
$CLAYER
  8
0
  9
$CELTYPE
  6
Continuous
  9
$CECOLOR
 62
   256
  9
$CELTSCALE
 40
1.0
  9
$DISPSILH
 70
     0
  9
$DIMSCALE
 40
1.0
  9
$DIMASZ
 40
0.18
  9
$DIMEXO
 40
0.0625
  9
$DIMDLI
 40
0.38
  9
$DIMRND
 40
0.0
  9
$DIMDLE
 40
0.0
  9
$DIMEXE
 40
0.18
  9
$DIMTP
 40
0.0
  9
$DIMTM
 40
0.0
  9
$DIMTXT
 40
0.18
  9
$DIMCEN
 40
0.09
  9
$DIMTSZ
 40
0.0
  9
$DIMTOL
 70
     0
  9
$DIMLIM
 70
     0
  9
$DIMTIH
 70
     1
  9
$DIMTOH
 70
     1
  9
$DIMSE1
 70
     0
  9
$DIMSE2
 70
     0
  9
$DIMTAD
 70
     0
  9
$DIMZIN
 70
     0
  9
$DIMBLK
  1

  9
$DIMASO
 70
     1
  9
$DIMSHO
 70
     1
  9
$DIMPOST
  1

  9
$DIMAPOST
  1

  9
$DIMALT
 70
     0
  9
$DIMALTD
 70
     2
  9
$DIMALTF
 40
25.4
  9
$DIMLFAC
 40
1.0
  9
$DIMTOFL
 70
     0
  9
$DIMTVP
 40
0.0
  9
$DIMTIX
 70
     0
  9
$DIMSOXD
 70
     0
  9
$DIMSAH
 70
     0
  9
$DIMBLK1
  1

  9
$DIMBLK2
  1

  9
$DIMSTYLE
  2
Standard
  9
$DIMCLRD
 70
     0
  9
$DIMCLRE
 70
     0
  9
$DIMCLRT
 70
     0
  9
$DIMTFAC
 40
1.0
  9
$DIMGAP
 40
0.09
  9
$DIMJUST
 70
     0
  9
$DIMSD1
 70
     0
  9
$DIMSD2
 70
     0
  9
$DIMTOLJ
 70
     1
  9
$DIMTZIN
 70
     0
  9
$DIMALTZ
 70
     0
  9
$DIMALTTZ
 70
     0
  9
$DIMUPT
 70
     0
  9
$DIMDEC
 70
     4
  9
$DIMTDEC
 70
     4
  9
$DIMALTU
 70
     2
  9
$DIMALTTD
 70
     2
  9
$DIMTXSTY
  7
Standard
  9
$DIMAUNIT
 70
     0
  9
$DIMADEC
 70
     0
  9
$DIMALTRND
 40
0.0
  9
$DIMAZIN
 70
     0
  9
$DIMDSEP
 70
    46
  9
$DIMATFIT
 70
     3
  9
$DIMFRAC
 70
     0
  9
$DIMLDRBLK
  1

  9
$DIMLUNIT
 70
     2
  9
$DIMLWD
 70
    -2
  9
$DIMLWE
 70
    -2
  9
$DIMTMOVE
 70
     0
  9
$DIMFXL
 40
1.0
  9
$DIMFXLON
 70
     0
  9
$DIMJOGANG
 40
0.7853981633974483
  9
$DIMTFILL
 70
     0
  9
$DIMTFILLCLR
 70
     0
  9
$DIMARCSYM
 70
     0
  9
$DIMLTYPE
  6

  9
$DIMLTEX1
  6

  9
$DIMLTEX2
  6

  9
$DIMTXTDIRECTION
 70
     0
  9
$LUNITS
 70
     2
  9
$LUPREC
 70
     4
  9
$SKETCHINC
 40
0.1
  9
$FILLETRAD
 40
0.0
  9
$AUNITS
 70
     0
  9
$AUPREC
 70
     0
  9
$MENU
  1
.
  9
$ELEVATION
 40
0.0
  9
$PELEVATION
 40
0.0
  9
$THICKNESS
 40
0.0
  9
$LIMCHECK
 70
     0
  9
$CHAMFERA
 40
0.0
  9
$CHAMFERB
 40
0.0
  9
$CHAMFERC
 40
0.0
  9
$CHAMFERD
 40
0.0
  9
$SKPOLY
 70
     0
  9
$TDCREATE
 40
2459548.476284723
  9
$TDUCREATE
 40
2459548.142951389
  9
$TDUPDATE
 40
2459548.551574074
  9
$TDUUPDATE
 40
2459548.218240741
  9
$TDINDWG
 40
0.0752893519
  9
$TDUSRTIMER
 40
0.0752893519
  9
$USRTIMER
 70
     1
  9
$ANGBASE
 50
0.0
  9
$ANGDIR
 70
     0
  9
$PDMODE
 70
     0
  9
$PDSIZE
 40
0.0
  9
$PLINEWID
 40
0.0
  9
$SPLFRAME
 70
     1
  9
$SPLINETYPE
 70
     6
  9
$SPLINESEGS
 70
     8
  9
$HANDSEED
  5
365
  9
$SURFTAB1
 70
     6
  9
$SURFTAB2
 70
     6
  9
$SURFTYPE
 70
     6
  9
$SURFU
 70
     6
  9
$SURFV
 70
     6
  9
$UCSBASE
  2

  9
$UCSNAME
  2

  9
$UCSORG
 10
0.0
 20
0.0
 30
0.0
  9
$UCSXDIR
 10
1.0
 20
0.0
 30
0.0
  9
$UCSYDIR
 10
0.0
 20
1.0
 30
0.0
  9
$UCSORTHOREF
  2

  9
$UCSORTHOVIEW
 70
     0
  9
$UCSORGTOP
 10
0.0
 20
0.0
 30
0.0
  9
$UCSORGBOTTOM
 10
0.0
 20
0.0
 30
0.0
  9
$UCSORGLEFT
 10
0.0
 20
0.0
 30
0.0
  9
$UCSORGRIGHT
 10
0.0
 20
0.0
 30
0.0
  9
$UCSORGFRONT
 10
0.0
 20
0.0
 30
0.0
  9
$UCSORGBACK
 10
0.0
 20
0.0
 30
0.0
  9
$PUCSBASE
  2

  9
$PUCSNAME
  2

  9
$PUCSORG
 10
0.0
 20
0.0
 30
0.0
  9
$PUCSXDIR
 10
1.0
 20
0.0
 30
0.0
  9
$PUCSYDIR
 10
0.0
 20
1.0
 30
0.0
  9
$PUCSORTHOREF
  2

  9
$PUCSORTHOVIEW
 70
     0
  9
$PUCSORGTOP
 10
0.0
 20
0.0
 30
0.0
  9
$PUCSORGBOTTOM
 10
0.0
 20
0.0
 30
0.0
  9
$PUCSORGLEFT
 10
0.0
 20
0.0
 30
0.0
  9
$PUCSORGRIGHT
 10
0.0
 20
0.0
 30
0.0
  9
$PUCSORGFRONT
 10
0.0
 20
0.0
 30
0.0
  9
$PUCSORGBACK
 10
0.0
 20
0.0
 30
0.0
  9
$USERI1
 70
     0
  9
$USERI2
 70
     0
  9
$USERI3
 70
     0
  9
$USERI4
 70
     0
  9
$USERI5
 70
     0
  9
$USERR1
 40
0.0
  9
$USERR2
 40
0.0
  9
$USERR3
 40
0.0
  9
$USERR4
 40
0.0
  9
$USERR5
 40
0.0
  9
$WORLDVIEW
 70
     1
  9
$SHADEDGE
 70
     3
  9
$SHADEDIF
 70
    70
  9
$TILEMODE
 70
     1
  9
$MAXACTVP
 70
    64
  9
$PINSBASE
 10
0.0
 20
0.0
 30
0.0
  9
$PLIMCHECK
 70
     0
  9
$PEXTMIN
 10
1.000000000000000E+20
 20
1.000000000000000E+20
 30
1.000000000000000E+20
  9
$PEXTMAX
 10
-1.000000000000000E+20
 20
-1.000000000000000E+20
 30
-1.000000000000000E+20
  9
$PLIMMIN
 10
0.0
 20
0.0
  9
$PLIMMAX
 10
12.0
 20
9.0
  9
$UNITMODE
 70
     0
  9
$VISRETAIN
 70
     1
  9
$PLINEGEN
 70
     0
  9
$PSLTSCALE
 70
     1
  9
$TREEDEPTH
 70
  3020
  9
$CMLSTYLE
  2
Standard
  9
$CMLJUST
 70
     0
  9
$CMLSCALE
 40
1.0
  9
$PROXYGRAPHICS
 70
     1
  9
$MEASUREMENT
 70
     0
  9
$CELWEIGHT
370
    -1
  9
$ENDCAPS
280
     0
  9
$JOINSTYLE
280
     0
  9
$LWDISPLAY
290
     0
  9
$INSUNITS
 70
     0
  9
$HYPERLINKBASE
  1

  9
$STYLESHEET
  1

  9
$XEDIT
290
     1
  9
$CEPSNTYPE
380
     0
  9
$PSTYLEMODE
290
     1
  9
$FINGERPRINTGUID
  2
{69F006C6-C7BC-AF4E-A36B-21537618740B}
  9
$VERSIONGUID
  2
{A35144AB-5F69-CA45-A520-C8AD1E3C6178}
  9
$EXTNAMES
290
     1
  9
$PSVPSCALE
 40
0.0
  9
$OLESTARTUP
290
     0
  9
$SORTENTS
280
   127
  9
$INDEXCTL
280
     0
  9
$HIDETEXT
280
     0
  9
$XCLIPFRAME
280
     2
  9
$HALOGAP
280
     0
  9
$OBSCOLOR
 70
   257
  9
$OBSLTYPE
280
     0
  9
$INTERSECTIONDISPLAY
280
     0
  9
$INTERSECTIONCOLOR
 70
   257
  9
$DIMASSOC
280
     1
  9
$PROJECTNAME
  1

  9
$CAMERADISPLAY
290
     0
  9
$LENSLENGTH
 40
50.0
  9
$CAMERAHEIGHT
 40
0.0
  9
$STEPSPERSEC
 40
2.0
  9
$STEPSIZE
 40
6.0
  9
$3DDWFPREC
 40
2.0
  9
$PSOLWIDTH
 40
0.25
  9
$PSOLHEIGHT
 40
4.0
  9
$LOFTANG1
 40
1.570796326794896
  9
$LOFTANG2
 40
1.570796326794896
  9
$LOFTMAG1
 40
0.0
  9
$LOFTMAG2
 40
0.0
  9
$LOFTPARAM
 70
     7
  9
$LOFTNORMALS
280
     1
  9
$LATITUDE
 40
37.795
  9
$LONGITUDE
 40
-122.394
  9
$NORTHDIRECTION
 40
0.0
  9
$TIMEZONE
 70
 -8000
  9
$LIGHTGLYPHDISPLAY
280
     1
  9
$TILEMODELIGHTSYNCH
280
     1
  9
$CMATERIAL
347
11
  9
$SOLIDHIST
280
     0
  9
$SHOWHIST
280
     1
  9
$DWFFRAME
280
     2
  9
$DGNFRAME
280
     0
  9
$REALWORLDSCALE
290
     1
  9
$INTERFERECOLOR
 62
     1
  9
$INTERFEREOBJVS
345
33
  9
$INTERFEREVPVS
346
30
  9
$CSHADOW
280
     0
  9
$SHADOWPLANELOCATION
 40
0.0
  0
ENDSEC
  0
SECTION
  2
CLASSES
  0
CLASS
  1
ACDBDICTIONARYWDFLT
  2
AcDbDictionaryWithDefault
  3
ObjectDBX Classes
 90
        0
 91
        1
280
     0
281
     0
  0
CLASS
  1
MATERIAL
  2
AcDbMaterial
  3
ObjectDBX Classes
 90
     1153
 91
        3
280
     0
281
     0
  0
CLASS
  1
VISUALSTYLE
  2
AcDbVisualStyle
  3
ObjectDBX Classes
 90
     4095
 91
       24
280
     0
281
     0
  0
CLASS
  1
SCALE
  2
AcDbScale
  3
ObjectDBX Classes
 90
     1153
 91
       17
280
     0
281
     0
  0
CLASS
  1
TABLESTYLE
  2
AcDbTableStyle
  3
ObjectDBX Classes
 90
     4095
 91
        1
280
     0
281
     0
  0
CLASS
  1
MLEADERSTYLE
  2
AcDbMLeaderStyle
  3
ACDB_MLEADERSTYLE_CLASS
 90
     4095
 91
        1
280
     0
281
     0
  0
CLASS
  1
ACDBSECTIONVIEWSTYLE
  2
AcDbSectionViewStyle
  3
ObjectDBX Classes
 90
     1025
 91
        1
280
     0
281
     0
  0
CLASS
  1
ACDBDETAILVIEWSTYLE
  2
AcDbDetailViewStyle
  3
ObjectDBX Classes
 90
     1025
 91
        1
280
     0
281
     0
  0
CLASS
  1
DICTIONARYVAR
  2
AcDbDictionaryVar
  3
ObjectDBX Classes
 90
        0
 91
       27
280
     0
281
     0
  0
CLASS
  1
CELLSTYLEMAP
  2
AcDbCellStyleMap
  3
ObjectDBX Classes
 90
     1152
 91
        5
280
     0
281
     0
  0
ENDSEC
  0
SECTION
  2
TABLES
  0
TABLE
  2
VPORT
  5
8
330
0
100
AcDbSymbolTable
 70
     1
  0
VPORT
  5
74
330
8
100
AcDbSymbolTableRecord
100
AcDbViewportTableRecord
  2
*Active
 70
     0
 10
0.0
 20
0.0
 11
1.0
 21
1.0
 12
121.9353640116619
 22
31.24348845448674
 13
0.0
 23
0.0
 14
1.0
 24
1.0
 15
0.0
 25
0.0
 16
0.0
 26
0.0
 36
1.0
 17
0.0
 27
0.0
 37
0.0
 40
293.984343571574
 41
2.489334195216548
 42
50.0
 43
0.0
 44
0.0
 50
0.0
 51
0.0
 71
     0
 72
   100
 73
     1
 74
     1
 75
     0
 76
     0
 77
     0
 78
     0
281
     0
 65
     1
110
0.0
120
0.0
130
0.0
111
1.0
121
0.0
131
0.0
112
0.0
122
1.0
132
0.0
 79
     0
146
0.0
348
2F
 60
     3
 61
     5
292
     1
282
     1
141
0.0
142
0.0
 63
   250
421
  3355443
1001
ACAD_NAV_VCDISPLAY
1070
     3
  0
ENDTAB
  0
TABLE
  2
LTYPE
  5
5
330
0
100
AcDbSymbolTable
 70
     2
  0
LTYPE
  5
5A
330
5
100
AcDbSymbolTableRecord
100
AcDbLinetypeTableRecord
  2
ByBlock
 70
     0
  3

 72
    65
 73
     0
 40
0.0
  0
LTYPE
  5
5B
330
5
100
AcDbSymbolTableRecord
100
AcDbLinetypeTableRecord
  2
ByLayer
 70
     0
  3

 72
    65
 73
     0
 40
0.0
  0
LTYPE
  5
5C
330
5
100
AcDbSymbolTableRecord
100
AcDbLinetypeTableRecord
  2
Continuous
 70
     0
  3
Solid line
 72
    65
 73
     0
 40
0.0
  0
ENDTAB
  0
TABLE
  2
LAYER
  5
2
102
{ACAD_XDICTIONARY
360
2C8
102
}
330
0
100
AcDbSymbolTable
 70
     1
  0
LAYER
  5
54
102
{ACAD_XDICTIONARY
360
34F
102
}
330
2
100
AcDbSymbolTableRecord
100
AcDbLayerTableRecord
  2
0
 70
     0
 62
     7
  6
Continuous
370
    -3
390
F
347
21
348
0
  0
ENDTAB
  0
TABLE
  2
STYLE
  5
3
330
0
100
AcDbSymbolTable
 70
     2
  0
STYLE
  5
55
330
3
100
AcDbSymbolTableRecord
100
AcDbTextStyleTableRecord
  2
Standard
 70
     0
 40
0.0
 41
1.0
 50
0.0
 71
     0
 42
0.2
  3
txt
  4

  0
STYLE
  5
59
330
3
100
AcDbSymbolTableRecord
100
AcDbTextStyleTableRecord
  2
Annotative
 70
     0
 40
0.0
 41
1.0
 50
0.0
 71
     0
 42
0.2
  3
txt
  4

1001
AcadAnnotative
1000
AnnotativeData
1002
{
1070
     1
1070
     1
1002
}
  0
ENDTAB
  0
TABLE
  2
VIEW
  5
6
330
0
100
AcDbSymbolTable
 70
     2
  0
ENDTAB
  0
TABLE
  2
UCS
  5
7
330
0
100
AcDbSymbolTable
 70
     0
  0
ENDTAB
  0
TABLE
  2
APPID
  5
9
330
0
100
AcDbSymbolTable
 70
     4
  0
APPID
  5
56
330
9
100
AcDbSymbolTableRecord
100
AcDbRegAppTableRecord
  2
ACAD
 70
     0
  0
APPID
  5
5D
330
9
100
AcDbSymbolTableRecord
100
AcDbRegAppTableRecord
  2
AcadAnnotative
 70
     0
  0
APPID
  5
2B3
330
9
100
AcDbSymbolTableRecord
100
AcDbRegAppTableRecord
  2
ACAD_NAV_VCDISPLAY
 70
     0
  0
APPID
  5
2EE
330
9
100
AcDbSymbolTableRecord
100
AcDbRegAppTableRecord
  2
ACAD_EXEMPT_FROM_CAD_STANDARDS
 70
     0
  0
ENDTAB
  0
TABLE
  2
DIMSTYLE
  5
A
330
0
100
AcDbSymbolTable
 70
     3
100
AcDbDimStyleTable
 71
     0
  0
DIMSTYLE
105
57
330
A
100
AcDbSymbolTableRecord
100
AcDbDimStyleTableRecord
  2
Standard
 70
     0
340
55
  0
DIMSTYLE
105
58
330
A
100
AcDbSymbolTableRecord
100
AcDbDimStyleTableRecord
  2
Annotative
 70
     0
340
55
1001
AcadAnnotative
1000
AnnotativeData
1002
{
1070
     1
1070
     1
1002
}
  0
ENDTAB
  0
TABLE
  2
BLOCK_RECORD
  5
1
330
0
100
AcDbSymbolTable
 70
    10
  0
BLOCK_RECORD
  5
6F
330
1
100
AcDbSymbolTableRecord
100
AcDbBlockTableRecord
  2
*Model_Space
340
72
 70
     0
280
     1
281
     0
  0
BLOCK_RECORD
  5
6B
330
1
100
AcDbSymbolTableRecord
100
AcDbBlockTableRecord
  2
*Paper_Space
340
6E
 70
     0
280
     1
281
     0
  0
BLOCK_RECORD
  5
30C
330
1
100
AcDbSymbolTableRecord
100
AcDbBlockTableRecord
  2
A$Cfa97a349
340
0
 70
     0
280
     1
281
     0
  0
BLOCK_RECORD
  5
330
330
1
100
AcDbSymbolTableRecord
100
AcDbBlockTableRecord
  2
A$C52d75a84
340
0
 70
     0
280
     1
281
     0
  0
ENDTAB
  0
ENDSEC
  0
SECTION
  2
BLOCKS
  0
BLOCK
  5
70
330
6F
100
AcDbEntity
  8
0
100
AcDbBlockBegin
  2
*Model_Space
 70
     0
 10
0.0
 20
0.0
 30
0.0
  3
*Model_Space
  1

  0
ENDBLK
  5
71
330
6F
100
AcDbEntity
  8
0
100
AcDbBlockEnd
  0
BLOCK
  5
6C
330
6B
100
AcDbEntity
 67
     1
  8
0
100
AcDbBlockBegin
  2
*Paper_Space
 70
     0
 10
0.0
 20
0.0
 30
0.0
  3
*Paper_Space
  1

  0
ENDBLK
  5
6D
330
6B
100
AcDbEntity
 67
     1
  8
0
100
AcDbBlockEnd
  0
BLOCK
  5
310
330
30C
100
AcDbEntity
  8
0
100
AcDbBlockBegin
  2
A$Cfa97a349
 70
     0
 10
0.0
 20
0.0
 30
0.0
  3
A$Cfa97a349
  1

  0
CIRCLE
  5
30D
330
30C
100
AcDbEntity
  8
0
100
AcDbCircle
 10
2.031999999999996
 20
2.031999999999996
 30
0.0
 40
2.032
  0
CIRCLE
  5
30E
330
30C
100
AcDbEntity
  8
0
100
AcDbCircle
 10
11.34885589698966
 20
4.012358855039195
 30
0.0
 40
3.048
  0
CIRCLE
  5
30F
330
30C
100
AcDbEntity
  8
0
100
AcDbCircle
 10
20.6657117939789
 20
5.992717710078295
 30
0.0
 40
2.032
  0
ENDBLK
  5
311
330
30C
100
AcDbEntity
  8
0
100
AcDbBlockEnd
  0
BLOCK
  5
334
330
330
100
AcDbEntity
  8
0
100
AcDbBlockBegin
  2
A$C52d75a84
 70
     0
 10
0.0
 20
0.0
 30
0.0
  3
A$C52d75a84
  1

  0
CIRCLE
  5
331
330
330
100
AcDbEntity
  8
0
100
AcDbCircle
 10
2.031999999999996
 20
2.031999999999996
 30
0.0
 40
2.032
  0
CIRCLE
  5
332
330
330
100
AcDbEntity
  8
0
100
AcDbCircle
 10
11.34885589698966
 20
4.012358855039195
 30
0.0
 40
3.048
  0
CIRCLE
  5
333
330
330
100
AcDbEntity
  8
0
100
AcDbCircle
 10
20.6657117939789
 20
5.992717710078295
 30
0.0
 40
2.032
  0
ENDBLK
  5
335
330
330
100
AcDbEntity
  8
0
100
AcDbBlockEnd
  0
ENDSEC
  0
SECTION
  2
ENTITIES
  0
LINE
  5
75
330
6F
100
AcDbEntity
  8
0
 62
     0
100
AcDbLine
 10
350.569
 20
160.419
 30
0.0
 11
350.646
 21
160.416
 31
0.0
  0
LINE
  5
76
330
6F
100
AcDbEntity
  8
0
 62
     0
100
AcDbLine
 10
350.646
 20
160.416
 30
0.0
 11
350.725
 21
160.406
 31
0.0
  0
LINE
  5
77
330
6F
100
AcDbEntity
  8
0
 62
     0
100
AcDbLine
 10
350.725
 20
160.406
 30
0.0
 11
350.802
 21
160.391
 31
0.0
  0
LINE
  5
78
330
6F
100
AcDbEntity
  8
0
 62
     0
100
AcDbLine
 10
350.802
 20
160.391
 30
0.0
 11
350.877
 21
160.371
 31
0.0
  0
LINE
  5
79
330
6F
100
AcDbEntity
  8
0
 62
     0
100
AcDbLine
 10
350.877
 20
160.371
 30
0.0
 11
350.952
 21
160.343
 31
0.0
  0
LINE
  5
7A
330
6F
100
AcDbEntity
  8
0
 62
     0
100
AcDbLine
 10
350.952
 20
160.343
 30
0.0
 11
351.022
 21
160.31
 31
0.0
  0
LINE
  5
7B
330
6F
100
AcDbEntity
  8
0
 62
     0
100
AcDbLine
 10
351.022
 20
160.31
 30
0.0
 11
351.091
 21
160.272
 31
0.0
  0
LINE
  5
7C
330
6F
100
AcDbEntity
  8
0
 62
     0
100
AcDbLine
 10
351.091
 20
160.272
 30
0.0
 11
351.156
 21
160.228
 31
0.0
  0
LINE
  5
7D
330
6F
100
AcDbEntity
  8
0
 62
     0
100
AcDbLine
 10
351.156
 20
160.228
 30
0.0
 11
351.218
 21
160.179
 31
0.0
  0
LINE
  5
7E
330
6F
100
AcDbEntity
  8
0
 62
     0
100
AcDbLine
 10
351.218
 20
160.179
 30
0.0
 11
351.276
 21
160.127
 31
0.0
  0
LINE
  5
7F
330
6F
100
AcDbEntity
  8
0
 62
     0
100
AcDbLine
 10
351.276
 20
160.127
 30
0.0
 11
351.328
 21
160.069
 31
0.0
  0
LINE
  5
80
330
6F
100
AcDbEntity
  8
0
 62
     0
100
AcDbLine
 10
351.328
 20
160.069
 30
0.0
 11
351.3780000000001
 21
160.007
 31
0.0
  0
LINE
  5
81
330
6F
100
AcDbEntity
  8
0
 62
     0
100
AcDbLine
 10
351.3780000000001
 20
160.007
 30
0.0
 11
351.422
 21
159.942
 31
0.0
  0
LINE
  5
82
330
6F
100
AcDbEntity
  8
0
 62
     0
100
AcDbLine
 10
351.422
 20
159.942
 30
0.0
 11
351.459
 21
159.872
 31
0.0
  0
LINE
  5
83
330
6F
100
AcDbEntity
  8
0
 62
     0
100
AcDbLine
 10
351.459
 20
159.872
 30
0.0
 11
351.492
 21
159.801
 31
0.0
  0
LINE
  5
84
330
6F
100
AcDbEntity
  8
0
 62
     0
100
AcDbLine
 10
351.492
 20
159.801
 30
0.0
 11
351.52
 21
159.728
 31
0.0
  0
LINE
  5
85
330
6F
100
AcDbEntity
  8
0
 62
     0
100
AcDbLine
 10
351.52
 20
159.728
 30
0.0
 11
351.54
 21
159.653
 31
0.0
  0
LINE
  5
86
330
6F
100
AcDbEntity
  8
0
 62
     0
100
AcDbLine
 10
351.54
 20
159.653
 30
0.0
 11
351.557
 21
159.575
 31
0.0
  0
LINE
  5
87
330
6F
100
AcDbEntity
  8
0
 62
     0
100
AcDbLine
 10
351.557
 20
159.575
 30
0.0
 11
351.565
 21
159.497
 31
0.0
  0
LINE
  5
88
330
6F
100
AcDbEntity
  8
0
 62
     0
100
AcDbLine
 10
351.565
 20
159.497
 30
0.0
 11
351.5680000000001
 21
159.419
 31
0.0
  0
LINE
  5
89
330
6F
100
AcDbEntity
  8
0
 62
     0
100
AcDbLine
 10
351.5680000000001
 20
159.419
 30
0.0
 11
351.5680000000001
 21
1.397329999999999
 31
0.0
  0
LINE
  5
8A
330
6F
100
AcDbEntity
  8
0
 62
     0
100
AcDbLine
 10
351.5680000000001
 20
1.397329999999999
 30
0.0
 11
351.565
 21
1.318779999999999
 31
0.0
  0
LINE
  5
8B
330
6F
100
AcDbEntity
  8
0
 62
     0
100
AcDbLine
 10
351.565
 20
1.318779999999999
 30
0.0
 11
351.557
 21
1.24161
 31
0.0
  0
LINE
  5
8C
330
6F
100
AcDbEntity
  8
0
 62
     0
100
AcDbLine
 10
351.557
 20
1.24161
 30
0.0
 11
351.54
 21
1.164439999999999
 31
0.0
  0
LINE
  5
8D
330
6F
100
AcDbEntity
  8
0
 62
     0
100
AcDbLine
 10
351.54
 20
1.164439999999999
 30
0.0
 11
351.52
 21
1.088649999999999
 31
0.0
  0
LINE
  5
8E
330
6F
100
AcDbEntity
  8
0
 62
     0
100
AcDbLine
 10
351.52
 20
1.088649999999999
 30
0.0
 11
351.492
 21
1.015619999999999
 31
0.0
  0
LINE
  5
8F
330
6F
100
AcDbEntity
  8
0
 62
     0
100
AcDbLine
 10
351.492
 20
1.015619999999999
 30
0.0
 11
351.459
 21
0.9439559999999998
 31
0.0
  0
LINE
  5
90
330
6F
100
AcDbEntity
  8
0
 62
     0
100
AcDbLine
 10
351.459
 20
0.9439559999999998
 30
0.0
 11
351.422
 21
0.8750549999999998
 31
0.0
  0
LINE
  5
91
330
6F
100
AcDbEntity
  8
0
 62
     0
100
AcDbLine
 10
351.422
 20
0.8750549999999998
 30
0.0
 11
351.3780000000001
 21
0.810288
 31
0.0
  0
LINE
  5
92
330
6F
100
AcDbEntity
  8
0
 62
     0
100
AcDbLine
 10
351.3780000000001
 20
0.810288
 30
0.0
 11
351.328
 21
0.748273
 31
0.0
  0
LINE
  5
93
330
6F
100
AcDbEntity
  8
0
 62
     0
100
AcDbLine
 10
351.328
 20
0.748273
 30
0.0
 11
351.276
 21
0.6903970000000001
 31
0.0
  0
LINE
  5
94
330
6F
100
AcDbEntity
  8
0
 62
     0
100
AcDbLine
 10
351.276
 20
0.6903970000000001
 30
0.0
 11
351.218
 21
0.63803
 31
0.0
  0
LINE
  5
95
330
6F
100
AcDbEntity
  8
0
 62
     0
100
AcDbLine
 10
351.218
 20
0.63803
 30
0.0
 11
351.156
 21
0.5884229999999999
 31
0.0
  0
LINE
  5
96
330
6F
100
AcDbEntity
  8
0
 62
     0
100
AcDbLine
 10
351.156
 20
0.5884229999999999
 30
0.0
 11
351.091
 21
0.545705
 31
0.0
  0
LINE
  5
97
330
6F
100
AcDbEntity
  8
0
 62
     0
100
AcDbLine
 10
351.091
 20
0.545705
 30
0.0
 11
351.022
 21
0.5057390000000001
 31
0.0
  0
LINE
  5
98
330
6F
100
AcDbEntity
  8
0
 62
     0
100
AcDbLine
 10
351.022
 20
0.5057390000000001
 30
0.0
 11
350.952
 21
0.474045
 31
0.0
  0
LINE
  5
99
330
6F
100
AcDbEntity
  8
0
 62
     0
100
AcDbLine
 10
350.952
 20
0.474045
 30
0.0
 11
350.877
 21
0.446486
 31
0.0
  0
LINE
  5
9A
330
6F
100
AcDbEntity
  8
0
 62
     0
100
AcDbLine
 10
350.877
 20
0.446486
 30
0.0
 11
350.802
 21
0.425813
 31
0.0
  0
LINE
  5
9B
330
6F
100
AcDbEntity
  8
0
 62
     0
100
AcDbLine
 10
350.802
 20
0.425813
 30
0.0
 11
350.725
 21
0.4106550000000001
 31
0.0
  0
LINE
  5
9C
330
6F
100
AcDbEntity
  8
0
 62
     0
100
AcDbLine
 10
350.725
 20
0.4106550000000001
 30
0.0
 11
350.646
 21
0.40101
 31
0.0
  0
LINE
  5
9D
330
6F
100
AcDbEntity
  8
0
 62
     0
100
AcDbLine
 10
350.646
 20
0.40101
 30
0.0
 11
350.569
 21
0.396875
 31
0.0
  0
LINE
  5
9E
330
6F
100
AcDbEntity
  8
0
 62
     0
100
AcDbLine
 10
350.569
 20
0.396875
 30
0.0
 11
1.095539999999999
 21
0.396875
 31
0.0
  0
LINE
  5
9F
330
6F
100
AcDbEntity
  8
0
 62
     0
100
AcDbLine
 10
1.095539999999999
 20
0.396875
 30
0.0
 11
1.01699
 21
0.40101
 31
0.0
  0
LINE
  5
A0
330
6F
100
AcDbEntity
  8
0
 62
     0
100
AcDbLine
 10
1.01699
 20
0.40101
 30
0.0
 11
0.9384450000000001
 21
0.4106550000000001
 31
0.0
  0
LINE
  5
A1
330
6F
100
AcDbEntity
  8
0
 62
     0
100
AcDbLine
 10
0.9384450000000001
 20
0.4106550000000001
 30
0.0
 11
0.861275
 21
0.425813
 31
0.0
  0
LINE
  5
A2
330
6F
100
AcDbEntity
  8
0
 62
     0
100
AcDbLine
 10
0.861275
 20
0.425813
 30
0.0
 11
0.785481
 21
0.446486
 31
0.0
  0
LINE
  5
A3
330
6F
100
AcDbEntity
  8
0
 62
     0
100
AcDbLine
 10
0.785481
 20
0.446486
 30
0.0
 11
0.712445
 21
0.474045
 31
0.0
  0
LINE
  5
A4
330
6F
100
AcDbEntity
  8
0
 62
     0
100
AcDbLine
 10
0.712445
 20
0.474045
 30
0.0
 11
0.642165
 21
0.5057390000000001
 31
0.0
  0
LINE
  5
A5
330
6F
100
AcDbEntity
  8
0
 62
     0
100
AcDbLine
 10
0.642165
 20
0.5057390000000001
 30
0.0
 11
0.5718850000000001
 21
0.545705
 31
0.0
  0
LINE
  5
A6
330
6F
100
AcDbEntity
  8
0
 62
     0
100
AcDbLine
 10
0.5718850000000001
 20
0.545705
 30
0.0
 11
0.5071180000000001
 21
0.5884229999999999
 31
0.0
  0
LINE
  5
A7
330
6F
100
AcDbEntity
  8
0
 62
     0
100
AcDbLine
 10
0.5071180000000001
 20
0.5884229999999999
 30
0.0
 11
0.445107
 21
0.63803
 31
0.0
  0
LINE
  5
A8
330
6F
100
AcDbEntity
  8
0
 62
     0
100
AcDbLine
 10
0.445107
 20
0.63803
 30
0.0
 11
0.38723
 21
0.6903970000000001
 31
0.0
  0
LINE
  5
A9
330
6F
100
AcDbEntity
  8
0
 62
     0
100
AcDbLine
 10
0.38723
 20
0.6903970000000001
 30
0.0
 11
0.334863
 21
0.748273
 31
0.0
  0
LINE
  5
AA
330
6F
100
AcDbEntity
  8
0
 62
     0
100
AcDbLine
 10
0.334863
 20
0.748273
 30
0.0
 11
0.285254
 21
0.810288
 31
0.0
  0
LINE
  5
AB
330
6F
100
AcDbEntity
  8
0
 62
     0
100
AcDbLine
 10
0.285254
 20
0.810288
 30
0.0
 11
0.242535
 21
0.8750549999999998
 31
0.0
  0
LINE
  5
AC
330
6F
100
AcDbEntity
  8
0
 62
     0
100
AcDbLine
 10
0.242535
 20
0.8750549999999998
 30
0.0
 11
0.20395
 21
0.9439559999999998
 31
0.0
  0
LINE
  5
AD
330
6F
100
AcDbEntity
  8
0
 62
     0
100
AcDbLine
 10
0.20395
 20
0.9439559999999998
 30
0.0
 11
0.170877
 21
1.015619999999999
 31
0.0
  0
LINE
  5
AE
330
6F
100
AcDbEntity
  8
0
 62
     0
100
AcDbLine
 10
0.170877
 20
1.015619999999999
 30
0.0
 11
0.143316
 21
1.088649999999999
 31
0.0
  0
LINE
  5
AF
330
6F
100
AcDbEntity
  8
0
 62
     0
100
AcDbLine
 10
0.143316
 20
1.088649999999999
 30
0.0
 11
0.122645
 21
1.164439999999999
 31
0.0
  0
LINE
  5
B0
330
6F
100
AcDbEntity
  8
0
 62
     0
100
AcDbLine
 10
0.122645
 20
1.164439999999999
 30
0.0
 11
0.107487
 21
1.24161
 31
0.0
  0
LINE
  5
B1
330
6F
100
AcDbEntity
  8
0
 62
     0
100
AcDbLine
 10
0.107487
 20
1.24161
 30
0.0
 11
0.0978408
 21
1.318779999999999
 31
0.0
  0
LINE
  5
B2
330
6F
100
AcDbEntity
  8
0
 62
     0
100
AcDbLine
 10
0.0978408
 20
1.318779999999999
 30
0.0
 11
0.0950846
 21
1.39871
 31
0.0
  0
LINE
  5
B3
330
6F
100
AcDbEntity
  8
0
 62
     0
100
AcDbLine
 10
0.0950846
 20
1.39871
 30
0.0
 11
0.0950846
 21
159.419
 31
0.0
  0
LINE
  5
B4
330
6F
100
AcDbEntity
  8
0
 62
     0
100
AcDbLine
 10
0.0950846
 20
159.419
 30
0.0
 11
0.0978408
 21
159.497
 31
0.0
  0
LINE
  5
B5
330
6F
100
AcDbEntity
  8
0
 62
     0
100
AcDbLine
 10
0.0978408
 20
159.497
 30
0.0
 11
0.107487
 21
159.575
 31
0.0
  0
LINE
  5
B6
330
6F
100
AcDbEntity
  8
0
 62
     0
100
AcDbLine
 10
0.107487
 20
159.575
 30
0.0
 11
0.122645
 21
159.653
 31
0.0
  0
LINE
  5
B7
330
6F
100
AcDbEntity
  8
0
 62
     0
100
AcDbLine
 10
0.122645
 20
159.653
 30
0.0
 11
0.143316
 21
159.728
 31
0.0
  0
LINE
  5
B8
330
6F
100
AcDbEntity
  8
0
 62
     0
100
AcDbLine
 10
0.143316
 20
159.728
 30
0.0
 11
0.170877
 21
159.801
 31
0.0
  0
LINE
  5
B9
330
6F
100
AcDbEntity
  8
0
 62
     0
100
AcDbLine
 10
0.170877
 20
159.801
 30
0.0
 11
0.20395
 21
159.872
 31
0.0
  0
LINE
  5
BA
330
6F
100
AcDbEntity
  8
0
 62
     0
100
AcDbLine
 10
0.20395
 20
159.872
 30
0.0
 11
0.242535
 21
159.942
 31
0.0
  0
LINE
  5
BB
330
6F
100
AcDbEntity
  8
0
 62
     0
100
AcDbLine
 10
0.242535
 20
159.942
 30
0.0
 11
0.285254
 21
160.007
 31
0.0
  0
LINE
  5
BC
330
6F
100
AcDbEntity
  8
0
 62
     0
100
AcDbLine
 10
0.285254
 20
160.007
 30
0.0
 11
0.334863
 21
160.069
 31
0.0
  0
LINE
  5
BD
330
6F
100
AcDbEntity
  8
0
 62
     0
100
AcDbLine
 10
0.334863
 20
160.069
 30
0.0
 11
0.38723
 21
160.127
 31
0.0
  0
LINE
  5
BE
330
6F
100
AcDbEntity
  8
0
 62
     0
100
AcDbLine
 10
0.38723
 20
160.127
 30
0.0
 11
0.445107
 21
160.179
 31
0.0
  0
LINE
  5
BF
330
6F
100
AcDbEntity
  8
0
 62
     0
100
AcDbLine
 10
0.445107
 20
160.179
 30
0.0
 11
0.5071180000000001
 21
160.228
 31
0.0
  0
LINE
  5
C0
330
6F
100
AcDbEntity
  8
0
 62
     0
100
AcDbLine
 10
0.5071180000000001
 20
160.228
 30
0.0
 11
0.5718850000000001
 21
160.272
 31
0.0
  0
LINE
  5
C1
330
6F
100
AcDbEntity
  8
0
 62
     0
100
AcDbLine
 10
0.5718850000000001
 20
160.272
 30
0.0
 11
0.642165
 21
160.31
 31
0.0
  0
LINE
  5
C2
330
6F
100
AcDbEntity
  8
0
 62
     0
100
AcDbLine
 10
0.642165
 20
160.31
 30
0.0
 11
0.712445
 21
160.343
 31
0.0
  0
LINE
  5
C3
330
6F
100
AcDbEntity
  8
0
 62
     0
100
AcDbLine
 10
0.712445
 20
160.343
 30
0.0
 11
0.785481
 21
160.371
 31
0.0
  0
LINE
  5
C4
330
6F
100
AcDbEntity
  8
0
 62
     0
100
AcDbLine
 10
0.785481
 20
160.371
 30
0.0
 11
0.861275
 21
160.391
 31
0.0
  0
LINE
  5
C5
330
6F
100
AcDbEntity
  8
0
 62
     0
100
AcDbLine
 10
0.861275
 20
160.391
 30
0.0
 11
0.9384450000000001
 21
160.406
 31
0.0
  0
LINE
  5
C6
330
6F
100
AcDbEntity
  8
0
 62
     0
100
AcDbLine
 10
0.9384450000000001
 20
160.406
 30
0.0
 11
1.01699
 21
160.416
 31
0.0
  0
LINE
  5
C7
330
6F
100
AcDbEntity
  8
0
 62
     0
100
AcDbLine
 10
1.01699
 20
160.416
 30
0.0
 11
1.095539999999999
 21
160.419
 31
0.0
  0
LINE
  5
C8
330
6F
100
AcDbEntity
  8
0
 62
     0
100
AcDbLine
 10
1.095539999999999
 20
160.419
 30
0.0
 11
350.569
 21
160.419
 31
0.0
  0
LINE
  5
C9
330
6F
100
AcDbEntity
  8
0
 62
     0
100
AcDbLine
 10
164.546
 20
16.9237
 30
0.0
 11
178.545
 21
16.9237
 31
0.0
  0
LINE
  5
CA
330
6F
100
AcDbEntity
  8
0
 62
     0
100
AcDbLine
 10
178.545
 20
16.9237
 30
0.0
 11
178.545
 21
2.92282
 31
0.0
  0
LINE
  5
CB
330
6F
100
AcDbEntity
  8
0
 62
     0
100
AcDbLine
 10
178.545
 20
2.92282
 30
0.0
 11
164.546
 21
2.92282
 31
0.0
  0
LINE
  5
CC
330
6F
100
AcDbEntity
  8
0
 62
     0
100
AcDbLine
 10
164.546
 20
2.92282
 30
0.0
 11
164.546
 21
16.9237
 31
0.0
  0
LINE
  5
CD
330
6F
100
AcDbEntity
  8
0
 62
     0
100
AcDbLine
 10
145.496
 20
16.9237
 30
0.0
 11
159.495
 21
16.9237
 31
0.0
  0
LINE
  5
CE
330
6F
100
AcDbEntity
  8
0
 62
     0
100
AcDbLine
 10
159.495
 20
16.9237
 30
0.0
 11
159.495
 21
2.92282
 31
0.0
  0
LINE
  5
CF
330
6F
100
AcDbEntity
  8
0
 62
     0
100
AcDbLine
 10
159.495
 20
2.92282
 30
0.0
 11
145.496
 21
2.92282
 31
0.0
  0
LINE
  5
D0
330
6F
100
AcDbEntity
  8
0
 62
     0
100
AcDbLine
 10
145.496
 20
2.92282
 30
0.0
 11
145.496
 21
16.9237
 31
0.0
  0
LINE
  5
D1
330
6F
100
AcDbEntity
  8
0
 62
     0
100
AcDbLine
 10
126.446
 20
16.9237
 30
0.0
 11
140.445
 21
16.9237
 31
0.0
  0
LINE
  5
D2
330
6F
100
AcDbEntity
  8
0
 62
     0
100
AcDbLine
 10
140.445
 20
16.9237
 30
0.0
 11
140.445
 21
2.92282
 31
0.0
  0
LINE
  5
D3
330
6F
100
AcDbEntity
  8
0
 62
     0
100
AcDbLine
 10
140.445
 20
2.92282
 30
0.0
 11
126.446
 21
2.92282
 31
0.0
  0
LINE
  5
D4
330
6F
100
AcDbEntity
  8
0
 62
     0
100
AcDbLine
 10
126.446
 20
2.92282
 30
0.0
 11
126.446
 21
16.9237
 31
0.0
  0
LINE
  5
D5
330
6F
100
AcDbEntity
  8
0
 62
     0
100
AcDbLine
 10
173.962
 20
36.1417
 30
0.0
 11
176.874
 21
22.4469
 31
0.0
  0
LINE
  5
D6
330
6F
100
AcDbEntity
  8
0
 62
     0
100
AcDbLine
 10
176.874
 20
22.4469
 30
0.0
 11
190.567
 21
25.3587
 31
0.0
  0
LINE
  5
D7
330
6F
100
AcDbEntity
  8
0
 62
     0
100
AcDbLine
 10
190.567
 20
25.3587
 30
0.0
 11
187.657
 21
39.0521
 31
0.0
  0
LINE
  5
D8
330
6F
100
AcDbEntity
  8
0
 62
     0
100
AcDbLine
 10
187.657
 20
39.0521
 30
0.0
 11
173.962
 21
36.1417
 31
0.0
  0
LINE
  5
D9
330
6F
100
AcDbEntity
  8
0
 62
     0
100
AcDbLine
 10
128.674
 20
25.5102
 30
0.0
 11
142.368
 21
22.5998
 31
0.0
  0
LINE
  5
DA
330
6F
100
AcDbEntity
  8
0
 62
     0
100
AcDbLine
 10
142.368
 20
22.5998
 30
0.0
 11
145.28
 21
36.2948
 31
0.0
  0
LINE
  5
DB
330
6F
100
AcDbEntity
  8
0
 62
     0
100
AcDbLine
 10
145.28
 20
36.2948
 30
0.0
 11
131.586
 21
39.2038
 31
0.0
  0
LINE
  5
DC
330
6F
100
AcDbEntity
  8
0
 62
     0
100
AcDbLine
 10
131.586
 20
39.2038
 30
0.0
 11
128.674
 21
25.5102
 31
0.0
  0
LINE
  5
DD
330
6F
100
AcDbEntity
  8
0
 62
     0
100
AcDbLine
 10
219.734
 20
44.3674
 30
0.0
 11
220.405
 21
41.20899999999999
 31
0.0
  0
LINE
  5
DE
330
6F
100
AcDbEntity
  8
0
 62
     0
100
AcDbLine
 10
220.405
 20
41.20899999999999
 30
0.0
 11
218.914
 21
40.8919
 31
0.0
  0
LINE
  5
DF
330
6F
100
AcDbEntity
  8
0
 62
     0
100
AcDbLine
 10
218.914
 20
40.8919
 30
0.0
 11
217.937
 21
45.4889
 31
0.0
  0
LINE
  5
E0
330
6F
100
AcDbEntity
  8
0
 62
     0
100
AcDbLine
 10
217.937
 20
45.4889
 30
0.0
 11
204.243
 21
42.5771
 31
0.0
  0
LINE
  5
E1
330
6F
100
AcDbEntity
  8
0
 62
     0
100
AcDbLine
 10
204.243
 20
42.5771
 30
0.0
 11
205.219
 21
37.9801
 31
0.0
  0
LINE
  5
E2
330
6F
100
AcDbEntity
  8
0
 62
     0
100
AcDbLine
 10
205.219
 20
37.9801
 30
0.0
 11
203.728
 21
37.6633
 31
0.0
  0
LINE
  5
E3
330
6F
100
AcDbEntity
  8
0
 62
     0
100
AcDbLine
 10
203.728
 20
37.6633
 30
0.0
 11
203.057
 21
40.82309999999999
 31
0.0
  0
LINE
  5
E4
330
6F
100
AcDbEntity
  8
0
 62
     0
100
AcDbLine
 10
203.057
 20
40.82309999999999
 30
0.0
 11
196.453
 21
39.4187
 31
0.0
  0
LINE
  5
E5
330
6F
100
AcDbEntity
  8
0
 62
     0
100
AcDbLine
 10
196.453
 20
39.4187
 30
0.0
 11
197.126
 21
36.2617
 31
0.0
  0
LINE
  5
E6
330
6F
100
AcDbEntity
  8
0
 62
     0
100
AcDbLine
 10
197.126
 20
36.2617
 30
0.0
 11
196.318
 21
36.0881
 31
0.0
  0
LINE
  5
E7
330
6F
100
AcDbEntity
  8
0
 62
     0
100
AcDbLine
 10
196.318
 20
36.0881
 30
0.0
 11
196.901
 21
33.3499
 31
0.0
  0
LINE
  5
E8
330
6F
100
AcDbEntity
  8
0
 62
     0
100
AcDbLine
 10
196.901
 20
33.3499
 30
0.0
 11
197.707
 21
33.5208
 31
0.0
  0
LINE
  5
E9
330
6F
100
AcDbEntity
  8
0
 62
     0
100
AcDbLine
 10
197.707
 20
33.5208
 30
0.0
 11
199.011
 21
27.3885
 31
0.0
  0
LINE
  5
EA
330
6F
100
AcDbEntity
  8
0
 62
     0
100
AcDbLine
 10
199.011
 20
27.3885
 30
0.0
 11
200.699
 21
27.7468
 31
0.0
  0
LINE
  5
EB
330
6F
100
AcDbEntity
  8
0
 62
     0
100
AcDbLine
 10
200.699
 20
27.7468
 30
0.0
 11
200.947
 21
26.5741
 31
0.0
  0
LINE
  5
EC
330
6F
100
AcDbEntity
  8
0
 62
     0
100
AcDbLine
 10
200.947
 20
26.5741
 30
0.0
 11
204.176
 21
27.259
 31
0.0
  0
LINE
  5
ED
330
6F
100
AcDbEntity
  8
0
 62
     0
100
AcDbLine
 10
204.176
 20
27.259
 30
0.0
 11
203.926
 21
28.4331
 31
0.0
  0
LINE
  5
EE
330
6F
100
AcDbEntity
  8
0
 62
     0
100
AcDbLine
 10
203.926
 20
28.4331
 30
0.0
 11
205.613
 21
28.7914
 31
0.0
  0
LINE
  5
EF
330
6F
100
AcDbEntity
  8
0
 62
     0
100
AcDbLine
 10
205.613
 20
28.7914
 30
0.0
 11
204.684
 21
33.1639
 31
0.0
  0
LINE
  5
F0
330
6F
100
AcDbEntity
  8
0
 62
     0
100
AcDbLine
 10
204.684
 20
33.1639
 30
0.0
 11
206.175
 21
33.4808
 31
0.0
  0
LINE
  5
F1
330
6F
100
AcDbEntity
  8
0
 62
     0
100
AcDbLine
 10
206.175
 20
33.4808
 30
0.0
 11
207.152
 21
28.8837
 31
0.0
  0
LINE
  5
F2
330
6F
100
AcDbEntity
  8
0
 62
     0
100
AcDbLine
 10
207.152
 20
28.8837
 30
0.0
 11
220.847
 21
31.7941
 31
0.0
  0
LINE
  5
F3
330
6F
100
AcDbEntity
  8
0
 62
     0
100
AcDbLine
 10
220.847
 20
31.7941
 30
0.0
 11
219.87
 21
36.3926
 31
0.0
  0
LINE
  5
F4
330
6F
100
AcDbEntity
  8
0
 62
     0
100
AcDbLine
 10
219.87
 20
36.3926
 30
0.0
 11
221.361
 21
36.7083
 31
0.0
  0
LINE
  5
F5
330
6F
100
AcDbEntity
  8
0
 62
     0
100
AcDbLine
 10
221.361
 20
36.7083
 30
0.0
 11
222.29
 21
32.3371
 31
0.0
  0
LINE
  5
F6
330
6F
100
AcDbEntity
  8
0
 62
     0
100
AcDbLine
 10
222.29
 20
32.3371
 30
0.0
 11
223.978
 21
32.6953
 31
0.0
  0
LINE
  5
F7
330
6F
100
AcDbEntity
  8
0
 62
     0
100
AcDbLine
 10
223.978
 20
32.6953
 30
0.0
 11
224.227
 21
31.5213
 31
0.0
  0
LINE
  5
F8
330
6F
100
AcDbEntity
  8
0
 62
     0
100
AcDbLine
 10
224.227
 20
31.5213
 30
0.0
 11
227.455
 21
32.20750000000001
 31
0.0
  0
LINE
  5
F9
330
6F
100
AcDbEntity
  8
0
 62
     0
100
AcDbLine
 10
227.455
 20
32.20750000000001
 30
0.0
 11
227.207
 21
33.3816
 31
0.0
  0
LINE
  5
FA
330
6F
100
AcDbEntity
  8
0
 62
     0
100
AcDbLine
 10
227.207
 20
33.3816
 30
0.0
 11
228.894
 21
33.7399
 31
0.0
  0
LINE
  5
FB
330
6F
100
AcDbEntity
  8
0
 62
     0
100
AcDbLine
 10
228.894
 20
33.7399
 30
0.0
 11
227.59
 21
39.872
 31
0.0
  0
LINE
  5
FC
330
6F
100
AcDbEntity
  8
0
 62
     0
100
AcDbLine
 10
227.59
 20
39.872
 30
0.0
 11
228.396
 21
40.0445
 31
0.0
  0
LINE
  5
FD
330
6F
100
AcDbEntity
  8
0
 62
     0
100
AcDbLine
 10
228.396
 20
40.0445
 30
0.0
 11
227.814
 21
42.7838
 31
0.0
  0
LINE
  5
FE
330
6F
100
AcDbEntity
  8
0
 62
     0
100
AcDbLine
 10
227.814
 20
42.7838
 30
0.0
 11
227.007
 21
42.61169999999999
 31
0.0
  0
LINE
  5
FF
330
6F
100
AcDbEntity
  8
0
 62
     0
100
AcDbLine
 10
227.007
 20
42.61169999999999
 30
0.0
 11
226.336
 21
45.7715
 31
0.0
  0
LINE
  5
100
330
6F
100
AcDbEntity
  8
0
 62
     0
100
AcDbLine
 10
226.336
 20
45.7715
 30
0.0
 11
219.734
 21
44.3674
 31
0.0
  0
LINE
  5
101
330
6F
100
AcDbEntity
  8
0
 62
     0
100
AcDbLine
 10
94.8517
 20
46.7776
 30
0.0
 11
93.1637
 21
47.13569999999999
 31
0.0
  0
LINE
  5
102
330
6F
100
AcDbEntity
  8
0
 62
     0
100
AcDbLine
 10
93.1637
 20
47.13569999999999
 30
0.0
 11
91.8602
 21
41.0034
 31
0.0
  0
LINE
  5
103
330
6F
100
AcDbEntity
  8
0
 62
     0
100
AcDbLine
 10
91.8602
 20
41.0034
 30
0.0
 11
91.0537
 21
41.17589999999999
 31
0.0
  0
LINE
  5
104
330
6F
100
AcDbEntity
  8
0
 62
     0
100
AcDbLine
 10
91.0537
 20
41.17589999999999
 30
0.0
 11
90.4709
 21
38.4362
 31
0.0
  0
LINE
  5
105
330
6F
100
AcDbEntity
  8
0
 62
     0
100
AcDbLine
 10
90.4709
 20
38.4362
 30
0.0
 11
91.2784
 21
38.26400000000001
 31
0.0
  0
LINE
  5
106
330
6F
100
AcDbEntity
  8
0
 62
     0
100
AcDbLine
 10
91.2784
 20
38.26400000000001
 30
0.0
 11
90.606
 21
35.1069
 31
0.0
  0
LINE
  5
107
330
6F
100
AcDbEntity
  8
0
 62
     0
100
AcDbLine
 10
90.606
 20
35.1069
 30
0.0
 11
97.20970000000001
 21
33.7013
 31
0.0
  0
LINE
  5
108
330
6F
100
AcDbEntity
  8
0
 62
     0
100
AcDbLine
 10
97.20970000000001
 20
33.7013
 30
0.0
 11
97.88070000000001
 21
36.8625
 31
0.0
  0
LINE
  5
109
330
6F
100
AcDbEntity
  8
0
 62
     0
100
AcDbLine
 10
97.88070000000001
 20
36.8625
 30
0.0
 11
99.37330000000001
 21
36.5442
 31
0.0
  0
LINE
  5
10A
330
6F
100
AcDbEntity
  8
0
 62
     0
100
AcDbLine
 10
99.37330000000001
 20
36.5442
 30
0.0
 11
98.3961
 21
31.9471
 31
0.0
  0
LINE
  5
10B
330
6F
100
AcDbEntity
  8
0
 62
     0
100
AcDbLine
 10
98.3961
 20
31.9471
 30
0.0
 11
112.089
 21
29.0366
 31
0.0
  0
LINE
  5
10C
330
6F
100
AcDbEntity
  8
0
 62
     0
100
AcDbLine
 10
112.089
 20
29.0366
 30
0.0
 11
113.067
 21
33.6338
 31
0.0
  0
LINE
  5
10D
330
6F
100
AcDbEntity
  8
0
 62
     0
100
AcDbLine
 10
113.067
 20
33.6338
 30
0.0
 11
114.558
 21
33.3168
 31
0.0
  0
LINE
  5
10E
330
6F
100
AcDbEntity
  8
0
 62
     0
100
AcDbLine
 10
114.558
 20
33.3168
 30
0.0
 11
113.887
 21
30.157
 31
0.0
  0
LINE
  5
10F
330
6F
100
AcDbEntity
  8
0
 62
     0
100
AcDbLine
 10
113.887
 20
30.157
 30
0.0
 11
120.489
 21
28.7528
 31
0.0
  0
LINE
  5
110
330
6F
100
AcDbEntity
  8
0
 62
     0
100
AcDbLine
 10
120.489
 20
28.7528
 30
0.0
 11
121.16
 21
31.914
 31
0.0
  0
LINE
  5
111
330
6F
100
AcDbEntity
  8
0
 62
     0
100
AcDbLine
 10
121.16
 20
31.914
 30
0.0
 11
121.967
 21
31.7417
 31
0.0
  0
LINE
  5
112
330
6F
100
AcDbEntity
  8
0
 62
     0
100
AcDbLine
 10
121.967
 20
31.7417
 30
0.0
 11
122.549
 21
34.4813
 31
0.0
  0
LINE
  5
113
330
6F
100
AcDbEntity
  8
0
 62
     0
100
AcDbLine
 10
122.549
 20
34.4813
 30
0.0
 11
121.743
 21
34.6508
 31
0.0
  0
LINE
  5
114
330
6F
100
AcDbEntity
  8
0
 62
     0
100
AcDbLine
 10
121.743
 20
34.6508
 30
0.0
 11
123.046
 21
40.78429999999999
 31
0.0
  0
LINE
  5
115
330
6F
100
AcDbEntity
  8
0
 62
     0
100
AcDbLine
 10
123.046
 20
40.78429999999999
 30
0.0
 11
121.358
 21
41.1441
 31
0.0
  0
LINE
  5
116
330
6F
100
AcDbEntity
  8
0
 62
     0
100
AcDbLine
 10
121.358
 20
41.1441
 30
0.0
 11
121.609
 21
42.31679999999999
 31
0.0
  0
LINE
  5
117
330
6F
100
AcDbEntity
  8
0
 62
     0
100
AcDbLine
 10
121.609
 20
42.31679999999999
 30
0.0
 11
118.38
 21
43.00289999999999
 31
0.0
  0
LINE
  5
118
330
6F
100
AcDbEntity
  8
0
 62
     0
100
AcDbLine
 10
118.38
 20
43.00289999999999
 30
0.0
 11
118.131
 21
41.82889999999999
 31
0.0
  0
LINE
  5
119
330
6F
100
AcDbEntity
  8
0
 62
     0
100
AcDbLine
 10
118.131
 20
41.82889999999999
 30
0.0
 11
116.443
 21
42.18869999999999
 31
0.0
  0
LINE
  5
11A
330
6F
100
AcDbEntity
  8
0
 62
     0
100
AcDbLine
 10
116.443
 20
42.18869999999999
 30
0.0
 11
115.514
 21
37.8146
 31
0.0
  0
LINE
  5
11B
330
6F
100
AcDbEntity
  8
0
 62
     0
100
AcDbLine
 10
115.514
 20
37.8146
 30
0.0
 11
114.023
 21
38.1332
 31
0.0
  0
LINE
  5
11C
330
6F
100
AcDbEntity
  8
0
 62
     0
100
AcDbLine
 10
114.023
 20
38.1332
 30
0.0
 11
115.0
 21
42.7302
 31
0.0
  0
LINE
  5
11D
330
6F
100
AcDbEntity
  8
0
 62
     0
100
AcDbLine
 10
115.0
 20
42.7302
 30
0.0
 11
101.305
 21
45.64199999999999
 31
0.0
  0
LINE
  5
11E
330
6F
100
AcDbEntity
  8
0
 62
     0
100
AcDbLine
 10
101.305
 20
45.64199999999999
 30
0.0
 11
100.328
 21
41.04359999999999
 31
0.0
  0
LINE
  5
11F
330
6F
100
AcDbEntity
  8
0
 62
     0
100
AcDbLine
 10
100.328
 20
41.04359999999999
 30
0.0
 11
98.83700000000001
 21
41.3604
 31
0.0
  0
LINE
  5
120
330
6F
100
AcDbEntity
  8
0
 62
     0
100
AcDbLine
 10
98.83700000000001
 20
41.3604
 30
0.0
 11
99.76590000000001
 21
45.7331
 31
0.0
  0
LINE
  5
121
330
6F
100
AcDbEntity
  8
0
 62
     0
100
AcDbLine
 10
99.76590000000001
 20
45.7331
 30
0.0
 11
98.0793
 21
46.0911
 31
0.0
  0
LINE
  5
122
330
6F
100
AcDbEntity
  8
0
 62
     0
100
AcDbLine
 10
98.0793
 20
46.0911
 30
0.0
 11
98.32869999999999
 21
47.26519999999999
 31
0.0
  0
LINE
  5
123
330
6F
100
AcDbEntity
  8
0
 62
     0
100
AcDbLine
 10
98.32869999999999
 20
47.26519999999999
 30
0.0
 11
95.1011
 21
47.9517
 31
0.0
  0
LINE
  5
124
330
6F
100
AcDbEntity
  8
0
 62
     0
100
AcDbLine
 10
95.1011
 20
47.9517
 30
0.0
 11
94.8517
 21
46.7776
 31
0.0
  0
LINE
  5
125
330
6F
100
AcDbEntity
  8
0
 62
     0
100
AcDbLine
 10
335.043
 20
48.3567
 30
0.0
 11
349.042
 21
48.3567
 31
0.0
  0
LINE
  5
126
330
6F
100
AcDbEntity
  8
0
 62
     0
100
AcDbLine
 10
349.042
 20
48.3567
 30
0.0
 11
349.042
 21
34.3559
 31
0.0
  0
LINE
  5
127
330
6F
100
AcDbEntity
  8
0
 62
     0
100
AcDbLine
 10
349.042
 20
34.3559
 30
0.0
 11
335.043
 21
34.3559
 31
0.0
  0
LINE
  5
128
330
6F
100
AcDbEntity
  8
0
 62
     0
100
AcDbLine
 10
335.043
 20
34.3559
 30
0.0
 11
335.043
 21
48.3567
 31
0.0
  0
LINE
  5
129
330
6F
100
AcDbEntity
  8
0
 62
     0
100
AcDbLine
 10
315.993
 20
48.3567
 30
0.0
 11
329.992
 21
48.3567
 31
0.0
  0
LINE
  5
12A
330
6F
100
AcDbEntity
  8
0
 62
     0
100
AcDbLine
 10
329.992
 20
48.3567
 30
0.0
 11
329.992
 21
34.3559
 31
0.0
  0
LINE
  5
12B
330
6F
100
AcDbEntity
  8
0
 62
     0
100
AcDbLine
 10
329.992
 20
34.3559
 30
0.0
 11
315.993
 21
34.3559
 31
0.0
  0
LINE
  5
12C
330
6F
100
AcDbEntity
  8
0
 62
     0
100
AcDbLine
 10
315.993
 20
34.3559
 30
0.0
 11
315.993
 21
48.3567
 31
0.0
  0
LINE
  5
12D
330
6F
100
AcDbEntity
  8
0
 62
     0
100
AcDbLine
 10
296.943
 20
48.3567
 30
0.0
 11
310.942
 21
48.3567
 31
0.0
  0
LINE
  5
12E
330
6F
100
AcDbEntity
  8
0
 62
     0
100
AcDbLine
 10
310.942
 20
48.3567
 30
0.0
 11
310.942
 21
34.3559
 31
0.0
  0
LINE
  5
12F
330
6F
100
AcDbEntity
  8
0
 62
     0
100
AcDbLine
 10
310.942
 20
34.3559
 30
0.0
 11
296.943
 21
34.3559
 31
0.0
  0
LINE
  5
130
330
6F
100
AcDbEntity
  8
0
 62
     0
100
AcDbLine
 10
296.943
 20
34.3559
 30
0.0
 11
296.943
 21
48.3567
 31
0.0
  0
LINE
  5
131
330
6F
100
AcDbEntity
  8
0
 62
     0
100
AcDbLine
 10
236.852
 20
49.5088
 30
0.0
 11
239.762
 21
35.814
 31
0.0
  0
LINE
  5
132
330
6F
100
AcDbEntity
  8
0
 62
     0
100
AcDbLine
 10
239.762
 20
35.814
 30
0.0
 11
253.456
 21
38.7255
 31
0.0
  0
LINE
  5
133
330
6F
100
AcDbEntity
  8
0
 62
     0
100
AcDbLine
 10
253.456
 20
38.7255
 30
0.0
 11
250.545
 21
52.4192
 31
0.0
  0
LINE
  5
134
330
6F
100
AcDbEntity
  8
0
 62
     0
100
AcDbLine
 10
250.545
 20
52.4192
 30
0.0
 11
236.852
 21
49.5088
 31
0.0
  0
LINE
  5
135
330
6F
100
AcDbEntity
  8
0
 62
     0
100
AcDbLine
 10
65.786
 20
38.8786
 30
0.0
 11
79.4812
 21
35.9668
 31
0.0
  0
LINE
  5
136
330
6F
100
AcDbEntity
  8
0
 62
     0
100
AcDbLine
 10
79.4812
 20
35.9668
 30
0.0
 11
82.3902
 21
49.6616
 31
0.0
  0
LINE
  5
137
330
6F
100
AcDbEntity
  8
0
 62
     0
100
AcDbLine
 10
82.3902
 20
49.6616
 30
0.0
 11
68.6964
 21
52.572
 31
0.0
  0
LINE
  5
138
330
6F
100
AcDbEntity
  8
0
 62
     0
100
AcDbLine
 10
68.6964
 20
52.572
 30
0.0
 11
65.786
 21
38.8786
 31
0.0
  0
LINE
  5
139
330
6F
100
AcDbEntity
  8
0
 62
     0
100
AcDbLine
 10
160.685
 20
52.7939
 30
0.0
 11
163.595
 21
39.1005
 31
0.0
  0
LINE
  5
13A
330
6F
100
AcDbEntity
  8
0
 62
     0
100
AcDbLine
 10
163.595
 20
39.1005
 30
0.0
 11
177.29
 21
42.01089999999999
 31
0.0
  0
LINE
  5
13B
330
6F
100
AcDbEntity
  8
0
 62
     0
100
AcDbLine
 10
177.29
 20
42.01089999999999
 30
0.0
 11
174.378
 21
55.7057
 31
0.0
  0
LINE
  5
13C
330
6F
100
AcDbEntity
  8
0
 62
     0
100
AcDbLine
 10
174.378
 20
55.7057
 30
0.0
 11
160.685
 21
52.7939
 31
0.0
  0
LINE
  5
13D
330
6F
100
AcDbEntity
  8
0
 62
     0
100
AcDbLine
 10
266.938
 20
53.1178
 30
0.0
 11
280.938
 21
53.1178
 31
0.0
  0
LINE
  5
13E
330
6F
100
AcDbEntity
  8
0
 62
     0
100
AcDbLine
 10
280.938
 20
53.1178
 30
0.0
 11
280.938
 21
39.1185
 31
0.0
  0
LINE
  5
13F
330
6F
100
AcDbEntity
  8
0
 62
     0
100
AcDbLine
 10
280.938
 20
39.1185
 30
0.0
 11
266.938
 21
39.1185
 31
0.0
  0
LINE
  5
140
330
6F
100
AcDbEntity
  8
0
 62
     0
100
AcDbLine
 10
266.938
 20
39.1185
 30
0.0
 11
266.938
 21
53.1178
 31
0.0
  0
LINE
  5
141
330
6F
100
AcDbEntity
  8
0
 62
     0
100
AcDbLine
 10
33.5759
 20
53.1178
 30
0.0
 11
47.5767
 21
53.1178
 31
0.0
  0
LINE
  5
142
330
6F
100
AcDbEntity
  8
0
 62
     0
100
AcDbLine
 10
47.5767
 20
53.1178
 30
0.0
 11
47.5767
 21
39.1185
 31
0.0
  0
LINE
  5
143
330
6F
100
AcDbEntity
  8
0
 62
     0
100
AcDbLine
 10
47.5767
 20
39.1185
 30
0.0
 11
33.5759
 21
39.1185
 31
0.0
  0
LINE
  5
144
330
6F
100
AcDbEntity
  8
0
 62
     0
100
AcDbLine
 10
33.5759
 20
39.1185
 30
0.0
 11
33.5759
 21
53.1178
 31
0.0
  0
LINE
  5
145
330
6F
100
AcDbEntity
  8
0
 62
     0
100
AcDbLine
 10
7.38216
 20
53.1178
 30
0.0
 11
21.383
 21
53.1178
 31
0.0
  0
LINE
  5
146
330
6F
100
AcDbEntity
  8
0
 62
     0
100
AcDbLine
 10
21.383
 20
53.1178
 30
0.0
 11
21.383
 21
39.1185
 31
0.0
  0
LINE
  5
147
330
6F
100
AcDbEntity
  8
0
 62
     0
100
AcDbLine
 10
21.383
 20
39.1185
 30
0.0
 11
7.38216
 21
39.1185
 31
0.0
  0
LINE
  5
148
330
6F
100
AcDbEntity
  8
0
 62
     0
100
AcDbLine
 10
7.38216
 20
39.1185
 30
0.0
 11
7.38216
 21
53.1178
 31
0.0
  0
LINE
  5
149
330
6F
100
AcDbEntity
  8
0
 62
     0
100
AcDbLine
 10
179.319
 20
56.75589999999999
 30
0.0
 11
182.229
 21
43.0611
 31
0.0
  0
LINE
  5
14A
330
6F
100
AcDbEntity
  8
0
 62
     0
100
AcDbLine
 10
182.229
 20
43.0611
 30
0.0
 11
195.924
 21
45.9726
 31
0.0
  0
LINE
  5
14B
330
6F
100
AcDbEntity
  8
0
 62
     0
100
AcDbLine
 10
195.924
 20
45.9726
 30
0.0
 11
193.012
 21
59.6664
 31
0.0
  0
LINE
  5
14C
330
6F
100
AcDbEntity
  8
0
 62
     0
100
AcDbLine
 10
193.012
 20
59.6664
 30
0.0
 11
179.319
 21
56.75589999999999
 31
0.0
  0
LINE
  5
14D
330
6F
100
AcDbEntity
  8
0
 62
     0
100
AcDbLine
 10
123.318
 20
46.12429999999999
 30
0.0
 11
137.013
 21
43.2139
 31
0.0
  0
LINE
  5
14E
330
6F
100
AcDbEntity
  8
0
 62
     0
100
AcDbLine
 10
137.013
 20
43.2139
 30
0.0
 11
139.923
 21
56.9087
 31
0.0
  0
LINE
  5
14F
330
6F
100
AcDbEntity
  8
0
 62
     0
100
AcDbLine
 10
139.923
 20
56.9087
 30
0.0
 11
126.23
 21
59.8181
 31
0.0
  0
LINE
  5
150
330
6F
100
AcDbEntity
  8
0
 62
     0
100
AcDbLine
 10
126.23
 20
59.8181
 30
0.0
 11
123.318
 21
46.12429999999999
 31
0.0
  0
LINE
  5
151
330
6F
100
AcDbEntity
  8
0
 62
     0
100
AcDbLine
 10
197.952
 20
60.7162
 30
0.0
 11
200.863
 21
47.0228
 31
0.0
  0
LINE
  5
152
330
6F
100
AcDbEntity
  8
0
 62
     0
100
AcDbLine
 10
200.863
 20
47.0228
 30
0.0
 11
214.558
 21
49.9332
 31
0.0
  0
LINE
  5
153
330
6F
100
AcDbEntity
  8
0
 62
     0
100
AcDbLine
 10
214.558
 20
49.9332
 30
0.0
 11
211.646
 21
63.6266
 31
0.0
  0
LINE
  5
154
330
6F
100
AcDbEntity
  8
0
 62
     0
100
AcDbLine
 10
211.646
 20
63.6266
 30
0.0
 11
197.952
 21
60.7162
 31
0.0
  0
LINE
  5
155
330
6F
100
AcDbEntity
  8
0
 62
     0
100
AcDbLine
 10
104.684
 20
50.0849
 30
0.0
 11
118.379
 21
47.1745
 31
0.0
  0
LINE
  5
156
330
6F
100
AcDbEntity
  8
0
 62
     0
100
AcDbLine
 10
118.379
 20
47.1745
 30
0.0
 11
121.29
 21
60.8679
 31
0.0
  0
LINE
  5
157
330
6F
100
AcDbEntity
  8
0
 62
     0
100
AcDbLine
 10
121.29
 20
60.8679
 30
0.0
 11
107.596
 21
63.7798
 31
0.0
  0
LINE
  5
158
330
6F
100
AcDbEntity
  8
0
 62
     0
100
AcDbLine
 10
107.596
 20
63.7798
 30
0.0
 11
104.684
 21
50.0849
 31
0.0
  0
LINE
  5
159
330
6F
100
AcDbEntity
  8
0
 62
     0
100
AcDbLine
 10
216.585
 20
64.67690000000001
 30
0.0
 11
219.497
 21
50.9834
 31
0.0
  0
LINE
  5
15A
330
6F
100
AcDbEntity
  8
0
 62
     0
100
AcDbLine
 10
219.497
 20
50.9834
 30
0.0
 11
233.19
 21
53.8939
 31
0.0
  0
LINE
  5
15B
330
6F
100
AcDbEntity
  8
0
 62
     0
100
AcDbLine
 10
233.19
 20
53.8939
 30
0.0
 11
230.28
 21
67.58729999999999
 31
0.0
  0
LINE
  5
15C
330
6F
100
AcDbEntity
  8
0
 62
     0
100
AcDbLine
 10
230.28
 20
67.58729999999999
 30
0.0
 11
216.585
 21
64.67690000000001
 31
0.0
  0
LINE
  5
15D
330
6F
100
AcDbEntity
  8
0
 62
     0
100
AcDbLine
 10
86.05169999999999
 20
54.04659999999999
 30
0.0
 11
99.7451
 21
51.1348
 31
0.0
  0
LINE
  5
15E
330
6F
100
AcDbEntity
  8
0
 62
     0
100
AcDbLine
 10
99.7451
 20
51.1348
 30
0.0
 11
102.657
 21
64.83
 31
0.0
  0
LINE
  5
15F
330
6F
100
AcDbEntity
  8
0
 62
     0
100
AcDbLine
 10
102.657
 20
64.83
 30
0.0
 11
88.96210000000001
 21
67.74039999999999
 31
0.0
  0
LINE
  5
160
330
6F
100
AcDbEntity
  8
0
 62
     0
100
AcDbLine
 10
88.96210000000001
 20
67.74039999999999
 30
0.0
 11
86.05169999999999
 21
54.04659999999999
 31
0.0
  0
LINE
  5
161
330
6F
100
AcDbEntity
  8
0
 62
     0
100
AcDbLine
 10
315.993
 20
67.4067
 30
0.0
 11
329.992
 21
67.4067
 31
0.0
  0
LINE
  5
162
330
6F
100
AcDbEntity
  8
0
 62
     0
100
AcDbLine
 10
329.992
 20
67.4067
 30
0.0
 11
329.992
 21
53.40600000000001
 31
0.0
  0
LINE
  5
163
330
6F
100
AcDbEntity
  8
0
 62
     0
100
AcDbLine
 10
329.992
 20
53.40600000000001
 30
0.0
 11
315.993
 21
53.40600000000001
 31
0.0
  0
LINE
  5
164
330
6F
100
AcDbEntity
  8
0
 62
     0
100
AcDbLine
 10
315.993
 20
53.40600000000001
 30
0.0
 11
315.993
 21
67.4067
 31
0.0
  0
LINE
  5
165
330
6F
100
AcDbEntity
  8
0
 62
     0
100
AcDbLine
 10
235.22
 20
68.6375
 30
0.0
 11
238.131
 21
54.94369999999999
 31
0.0
  0
LINE
  5
166
330
6F
100
AcDbEntity
  8
0
 62
     0
100
AcDbLine
 10
238.131
 20
54.94369999999999
 30
0.0
 11
251.824
 21
57.8541
 31
0.0
  0
LINE
  5
167
330
6F
100
AcDbEntity
  8
0
 62
     0
100
AcDbLine
 10
251.824
 20
57.8541
 30
0.0
 11
248.914
 21
71.5479
 31
0.0
  0
LINE
  5
168
330
6F
100
AcDbEntity
  8
0
 62
     0
100
AcDbLine
 10
248.914
 20
71.5479
 30
0.0
 11
235.22
 21
68.6375
 31
0.0
  0
LINE
  5
169
330
6F
100
AcDbEntity
  8
0
 62
     0
100
AcDbLine
 10
67.41759999999999
 20
58.0072
 30
0.0
 11
81.1114
 21
55.0968
 31
0.0
  0
LINE
  5
16A
330
6F
100
AcDbEntity
  8
0
 62
     0
100
AcDbLine
 10
81.1114
 20
55.0968
 30
0.0
 11
84.02320000000001
 21
68.7903
 31
0.0
  0
LINE
  5
16B
330
6F
100
AcDbEntity
  8
0
 62
     0
100
AcDbLine
 10
84.02320000000001
 20
68.7903
 30
0.0
 11
70.328
 21
71.7021
 31
0.0
  0
LINE
  5
16C
330
6F
100
AcDbEntity
  8
0
 62
     0
100
AcDbLine
 10
70.328
 20
71.7021
 30
0.0
 11
67.41759999999999
 21
58.0072
 31
0.0
  0
LINE
  5
16D
330
6F
100
AcDbEntity
  8
0
 62
     0
100
AcDbLine
 10
14.5259
 20
72.16779999999999
 30
0.0
 11
14.5259
 21
67.4688
 31
0.0
  0
LINE
  5
16E
330
6F
100
AcDbEntity
  8
0
 62
     0
100
AcDbLine
 10
14.5259
 20
67.4688
 30
0.0
 11
13.0018
 21
67.4688
 31
0.0
  0
LINE
  5
16F
330
6F
100
AcDbEntity
  8
0
 62
     0
100
AcDbLine
 10
13.0018
 20
67.4688
 30
0.0
 11
13.0018
 21
70.69880000000001
 31
0.0
  0
LINE
  5
170
330
6F
100
AcDbEntity
  8
0
 62
     0
100
AcDbLine
 10
13.0018
 20
70.69880000000001
 30
0.0
 11
6.252169999999999
 21
70.69880000000001
 31
0.0
  0
LINE
  5
171
330
6F
100
AcDbEntity
  8
0
 62
     0
100
AcDbLine
 10
6.252169999999999
 20
70.69880000000001
 30
0.0
 11
6.252169999999999
 21
67.4688
 31
0.0
  0
LINE
  5
172
330
6F
100
AcDbEntity
  8
0
 62
     0
100
AcDbLine
 10
6.252169999999999
 20
67.4688
 30
0.0
 11
5.426709999999999
 21
67.4688
 31
0.0
  0
LINE
  5
173
330
6F
100
AcDbEntity
  8
0
 62
     0
100
AcDbLine
 10
5.426709999999999
 20
67.4688
 30
0.0
 11
5.426709999999999
 21
64.6688
 31
0.0
  0
LINE
  5
174
330
6F
100
AcDbEntity
  8
0
 62
     0
100
AcDbLine
 10
5.426709999999999
 20
64.6688
 30
0.0
 11
6.252169999999999
 21
64.6688
 31
0.0
  0
LINE
  5
175
330
6F
100
AcDbEntity
  8
0
 62
     0
100
AcDbLine
 10
6.252169999999999
 20
64.6688
 30
0.0
 11
6.252169999999999
 21
58.3985
 31
0.0
  0
LINE
  5
176
330
6F
100
AcDbEntity
  8
0
 62
     0
100
AcDbLine
 10
6.252169999999999
 20
58.3985
 30
0.0
 11
7.976089999999999
 21
58.3985
 31
0.0
  0
LINE
  5
177
330
6F
100
AcDbEntity
  8
0
 62
     0
100
AcDbLine
 10
7.976089999999999
 20
58.3985
 30
0.0
 11
7.976089999999999
 21
57.1983
 31
0.0
  0
LINE
  5
178
330
6F
100
AcDbEntity
  8
0
 62
     0
100
AcDbLine
 10
7.976089999999999
 20
57.1983
 30
0.0
 11
11.2765
 21
57.1983
 31
0.0
  0
LINE
  5
179
330
6F
100
AcDbEntity
  8
0
 62
     0
100
AcDbLine
 10
11.2765
 20
57.1983
 30
0.0
 11
11.2765
 21
58.3985
 31
0.0
  0
LINE
  5
17A
330
6F
100
AcDbEntity
  8
0
 62
     0
100
AcDbLine
 10
11.2765
 20
58.3985
 30
0.0
 11
13.0018
 21
58.3985
 31
0.0
  0
LINE
  5
17B
330
6F
100
AcDbEntity
  8
0
 62
     0
100
AcDbLine
 10
13.0018
 20
58.3985
 30
0.0
 11
13.0018
 21
62.86889999999999
 31
0.0
  0
LINE
  5
17C
330
6F
100
AcDbEntity
  8
0
 62
     0
100
AcDbLine
 10
13.0018
 20
62.86889999999999
 30
0.0
 11
14.5259
 21
62.86889999999999
 31
0.0
  0
LINE
  5
17D
330
6F
100
AcDbEntity
  8
0
 62
     0
100
AcDbLine
 10
14.5259
 20
62.86889999999999
 30
0.0
 11
14.5259
 21
58.1685
 31
0.0
  0
LINE
  5
17E
330
6F
100
AcDbEntity
  8
0
 62
     0
100
AcDbLine
 10
14.5259
 20
58.1685
 30
0.0
 11
28.5268
 21
58.1685
 31
0.0
  0
LINE
  5
17F
330
6F
100
AcDbEntity
  8
0
 62
     0
100
AcDbLine
 10
28.5268
 20
58.1685
 30
0.0
 11
28.5268
 21
62.86889999999999
 31
0.0
  0
LINE
  5
180
330
6F
100
AcDbEntity
  8
0
 62
     0
100
AcDbLine
 10
28.5268
 20
62.86889999999999
 30
0.0
 11
30.0509
 21
62.86889999999999
 31
0.0
  0
LINE
  5
181
330
6F
100
AcDbEntity
  8
0
 62
     0
100
AcDbLine
 10
30.0509
 20
62.86889999999999
 30
0.0
 11
30.0509
 21
58.3985
 31
0.0
  0
LINE
  5
182
330
6F
100
AcDbEntity
  8
0
 62
     0
100
AcDbLine
 10
30.0509
 20
58.3985
 30
0.0
 11
31.7762
 21
58.3985
 31
0.0
  0
LINE
  5
183
330
6F
100
AcDbEntity
  8
0
 62
     0
100
AcDbLine
 10
31.7762
 20
58.3985
 30
0.0
 11
31.7762
 21
57.1983
 31
0.0
  0
LINE
  5
184
330
6F
100
AcDbEntity
  8
0
 62
     0
100
AcDbLine
 10
31.7762
 20
57.1983
 30
0.0
 11
35.0766
 21
57.1983
 31
0.0
  0
LINE
  5
185
330
6F
100
AcDbEntity
  8
0
 62
     0
100
AcDbLine
 10
35.0766
 20
57.1983
 30
0.0
 11
35.0766
 21
58.3985
 31
0.0
  0
LINE
  5
186
330
6F
100
AcDbEntity
  8
0
 62
     0
100
AcDbLine
 10
35.0766
 20
58.3985
 30
0.0
 11
36.8018
 21
58.3985
 31
0.0
  0
LINE
  5
187
330
6F
100
AcDbEntity
  8
0
 62
     0
100
AcDbLine
 10
36.8018
 20
58.3985
 30
0.0
 11
36.8018
 21
64.6688
 31
0.0
  0
LINE
  5
188
330
6F
100
AcDbEntity
  8
0
 62
     0
100
AcDbLine
 10
36.8018
 20
64.6688
 30
0.0
 11
37.6259
 21
64.6688
 31
0.0
  0
LINE
  5
189
330
6F
100
AcDbEntity
  8
0
 62
     0
100
AcDbLine
 10
37.6259
 20
64.6688
 30
0.0
 11
37.6259
 21
67.4688
 31
0.0
  0
LINE
  5
18A
330
6F
100
AcDbEntity
  8
0
 62
     0
100
AcDbLine
 10
37.6259
 20
67.4688
 30
0.0
 11
36.8018
 21
67.4688
 31
0.0
  0
LINE
  5
18B
330
6F
100
AcDbEntity
  8
0
 62
     0
100
AcDbLine
 10
36.8018
 20
67.4688
 30
0.0
 11
36.8018
 21
70.69880000000001
 31
0.0
  0
LINE
  5
18C
330
6F
100
AcDbEntity
  8
0
 62
     0
100
AcDbLine
 10
36.8018
 20
70.69880000000001
 30
0.0
 11
30.0509
 21
70.69880000000001
 31
0.0
  0
LINE
  5
18D
330
6F
100
AcDbEntity
  8
0
 62
     0
100
AcDbLine
 10
30.0509
 20
70.69880000000001
 30
0.0
 11
30.0509
 21
67.4688
 31
0.0
  0
LINE
  5
18E
330
6F
100
AcDbEntity
  8
0
 62
     0
100
AcDbLine
 10
30.0509
 20
67.4688
 30
0.0
 11
28.5268
 21
67.4688
 31
0.0
  0
LINE
  5
18F
330
6F
100
AcDbEntity
  8
0
 62
     0
100
AcDbLine
 10
28.5268
 20
67.4688
 30
0.0
 11
28.5268
 21
72.16779999999999
 31
0.0
  0
LINE
  5
190
330
6F
100
AcDbEntity
  8
0
 62
     0
100
AcDbLine
 10
28.5268
 20
72.16779999999999
 30
0.0
 11
14.5259
 21
72.16779999999999
 31
0.0
  0
LINE
  5
191
330
6F
100
AcDbEntity
  8
0
 62
     0
100
AcDbLine
 10
285.036
 20
72.16779999999999
 30
0.0
 11
299.037
 21
72.16779999999999
 31
0.0
  0
LINE
  5
192
330
6F
100
AcDbEntity
  8
0
 62
     0
100
AcDbLine
 10
299.037
 20
72.16779999999999
 30
0.0
 11
299.037
 21
58.1685
 31
0.0
  0
LINE
  5
193
330
6F
100
AcDbEntity
  8
0
 62
     0
100
AcDbLine
 10
299.037
 20
58.1685
 30
0.0
 11
285.036
 21
58.1685
 31
0.0
  0
LINE
  5
194
330
6F
100
AcDbEntity
  8
0
 62
     0
100
AcDbLine
 10
285.036
 20
58.1685
 30
0.0
 11
285.036
 21
72.16779999999999
 31
0.0
  0
LINE
  5
195
330
6F
100
AcDbEntity
  8
0
 62
     0
100
AcDbLine
 10
258.843
 20
72.16779999999999
 30
0.0
 11
272.842
 21
72.16779999999999
 31
0.0
  0
LINE
  5
196
330
6F
100
AcDbEntity
  8
0
 62
     0
100
AcDbLine
 10
272.842
 20
72.16779999999999
 30
0.0
 11
272.842
 21
58.1685
 31
0.0
  0
LINE
  5
197
330
6F
100
AcDbEntity
  8
0
 62
     0
100
AcDbLine
 10
272.842
 20
58.1685
 30
0.0
 11
258.843
 21
58.1685
 31
0.0
  0
LINE
  5
198
330
6F
100
AcDbEntity
  8
0
 62
     0
100
AcDbLine
 10
258.843
 20
58.1685
 30
0.0
 11
258.843
 21
72.16779999999999
 31
0.0
  0
LINE
  5
199
330
6F
100
AcDbEntity
  8
0
 62
     0
100
AcDbLine
 10
45.48219999999999
 20
72.16779999999999
 30
0.0
 11
59.4829
 21
72.16779999999999
 31
0.0
  0
LINE
  5
19A
330
6F
100
AcDbEntity
  8
0
 62
     0
100
AcDbLine
 10
59.4829
 20
72.16779999999999
 30
0.0
 11
59.4829
 21
58.1685
 31
0.0
  0
LINE
  5
19B
330
6F
100
AcDbEntity
  8
0
 62
     0
100
AcDbLine
 10
59.4829
 20
58.1685
 30
0.0
 11
45.48219999999999
 21
58.1685
 31
0.0
  0
LINE
  5
19C
330
6F
100
AcDbEntity
  8
0
 62
     0
100
AcDbLine
 10
45.48219999999999
 20
58.1685
 30
0.0
 11
45.48219999999999
 21
72.16779999999999
 31
0.0
  0
LINE
  5
19D
330
6F
100
AcDbEntity
  8
0
 62
     0
100
AcDbLine
 10
170.699
 20
74.39910000000001
 30
0.0
 11
173.611
 21
60.7053
 31
0.0
  0
LINE
  5
19E
330
6F
100
AcDbEntity
  8
0
 62
     0
100
AcDbLine
 10
173.611
 20
60.7053
 30
0.0
 11
187.304
 21
63.6157
 31
0.0
  0
LINE
  5
19F
330
6F
100
AcDbEntity
  8
0
 62
     0
100
AcDbLine
 10
187.304
 20
63.6157
 30
0.0
 11
184.394
 21
77.30949999999999
 31
0.0
  0
LINE
  5
1A0
330
6F
100
AcDbEntity
  8
0
 62
     0
100
AcDbLine
 10
184.394
 20
77.30949999999999
 30
0.0
 11
170.699
 21
74.39910000000001
 31
0.0
  0
LINE
  5
1A1
330
6F
100
AcDbEntity
  8
0
 62
     0
100
AcDbLine
 10
117.963
 20
66.7385
 30
0.0
 11
131.656
 21
63.8281
 31
0.0
  0
LINE
  5
1A2
330
6F
100
AcDbEntity
  8
0
 62
     0
100
AcDbLine
 10
131.656
 20
63.8281
 30
0.0
 11
134.567
 21
77.52290000000001
 31
0.0
  0
LINE
  5
1A3
330
6F
100
AcDbEntity
  8
0
 62
     0
100
AcDbLine
 10
134.567
 20
77.52290000000001
 30
0.0
 11
120.873
 21
80.4319
 31
0.0
  0
LINE
  5
1A4
330
6F
100
AcDbEntity
  8
0
 62
     0
100
AcDbLine
 10
120.873
 20
80.4319
 30
0.0
 11
117.963
 21
66.7385
 31
0.0
  0
LINE
  5
1A5
330
6F
100
AcDbEntity
  8
0
 62
     0
100
AcDbLine
 10
189.333
 20
78.35939999999999
 30
0.0
 11
192.243
 21
64.6659
 31
0.0
  0
LINE
  5
1A6
330
6F
100
AcDbEntity
  8
0
 62
     0
100
AcDbLine
 10
192.243
 20
64.6659
 30
0.0
 11
205.938
 21
67.5763
 31
0.0
  0
LINE
  5
1A7
330
6F
100
AcDbEntity
  8
0
 62
     0
100
AcDbLine
 10
205.938
 20
67.5763
 30
0.0
 11
203.028
 21
81.26980000000001
 31
0.0
  0
LINE
  5
1A8
330
6F
100
AcDbEntity
  8
0
 62
     0
100
AcDbLine
 10
203.028
 20
81.26980000000001
 30
0.0
 11
189.333
 21
78.35939999999999
 31
0.0
  0
LINE
  5
1A9
330
6F
100
AcDbEntity
  8
0
 62
     0
100
AcDbLine
 10
99.32920000000001
 20
70.69880000000001
 30
0.0
 11
113.023
 21
67.78839999999999
 31
0.0
  0
LINE
  5
1AA
330
6F
100
AcDbEntity
  8
0
 62
     0
100
AcDbLine
 10
113.023
 20
67.78839999999999
 30
0.0
 11
115.933
 21
81.4821
 31
0.0
  0
LINE
  5
1AB
330
6F
100
AcDbEntity
  8
0
 62
     0
100
AcDbLine
 10
115.933
 20
81.4821
 30
0.0
 11
102.24
 21
84.39399999999999
 31
0.0
  0
LINE
  5
1AC
330
6F
100
AcDbEntity
  8
0
 62
     0
100
AcDbLine
 10
102.24
 20
84.39399999999999
 30
0.0
 11
99.32920000000001
 21
70.69880000000001
 31
0.0
  0
LINE
  5
1AD
330
6F
100
AcDbEntity
  8
0
 62
     0
100
AcDbLine
 10
207.967
 20
82.31999999999999
 30
0.0
 11
210.877
 21
68.62619999999999
 31
0.0
  0
LINE
  5
1AE
330
6F
100
AcDbEntity
  8
0
 62
     0
100
AcDbLine
 10
210.877
 20
68.62619999999999
 30
0.0
 11
224.572
 21
71.53660000000001
 31
0.0
  0
LINE
  5
1AF
330
6F
100
AcDbEntity
  8
0
 62
     0
100
AcDbLine
 10
224.572
 20
71.53660000000001
 30
0.0
 11
221.66
 21
85.23180000000001
 31
0.0
  0
LINE
  5
1B0
330
6F
100
AcDbEntity
  8
0
 62
     0
100
AcDbLine
 10
221.66
 20
85.23180000000001
 30
0.0
 11
207.967
 21
82.31999999999999
 31
0.0
  0
LINE
  5
1B1
330
6F
100
AcDbEntity
  8
0
 62
     0
100
AcDbLine
 10
80.69509999999999
 20
74.66079999999999
 30
0.0
 11
94.3903
 21
71.749
 31
0.0
  0
LINE
  5
1B2
330
6F
100
AcDbEntity
  8
0
 62
     0
100
AcDbLine
 10
94.3903
 20
71.749
 30
0.0
 11
97.29930000000001
 21
85.4438
 31
0.0
  0
LINE
  5
1B3
330
6F
100
AcDbEntity
  8
0
 62
     0
100
AcDbLine
 10
97.29930000000001
 20
85.4438
 30
0.0
 11
83.60550000000001
 21
88.3543
 31
0.0
  0
LINE
  5
1B4
330
6F
100
AcDbEntity
  8
0
 62
     0
100
AcDbLine
 10
83.60550000000001
 20
88.3543
 30
0.0
 11
80.69509999999999
 21
74.66079999999999
 31
0.0
  0
LINE
  5
1B5
330
6F
100
AcDbEntity
  8
0
 62
     0
100
AcDbLine
 10
226.6
 20
86.2817
 30
0.0
 11
229.511
 21
72.5868
 31
0.0
  0
LINE
  5
1B6
330
6F
100
AcDbEntity
  8
0
 62
     0
100
AcDbLine
 10
229.511
 20
72.5868
 30
0.0
 11
243.206
 21
75.4987
 31
0.0
  0
LINE
  5
1B7
330
6F
100
AcDbEntity
  8
0
 62
     0
100
AcDbLine
 10
243.206
 20
75.4987
 30
0.0
 11
240.294
 21
89.19209999999999
 31
0.0
  0
LINE
  5
1B8
330
6F
100
AcDbEntity
  8
0
 62
     0
100
AcDbLine
 10
240.294
 20
89.19209999999999
 30
0.0
 11
226.6
 21
86.2817
 31
0.0
  0
LINE
  5
1B9
330
6F
100
AcDbEntity
  8
0
 62
     0
100
AcDbLine
 10
62.0614
 20
78.6211
 30
0.0
 11
75.7548
 21
75.7107
 31
0.0
  0
LINE
  5
1BA
330
6F
100
AcDbEntity
  8
0
 62
     0
100
AcDbLine
 10
75.7548
 20
75.7107
 30
0.0
 11
78.6666
 21
89.4045
 31
0.0
  0
LINE
  5
1BB
330
6F
100
AcDbEntity
  8
0
 62
     0
100
AcDbLine
 10
78.6666
 20
89.4045
 30
0.0
 11
64.97320000000001
 21
92.31489999999999
 31
0.0
  0
LINE
  5
1BC
330
6F
100
AcDbEntity
  8
0
 62
     0
100
AcDbLine
 10
64.97320000000001
 20
92.31489999999999
 30
0.0
 11
62.0614
 21
78.6211
 31
0.0
  0
LINE
  5
1BD
330
6F
100
AcDbEntity
  8
0
 62
     0
100
AcDbLine
 10
299.324
 20
91.21779999999999
 30
0.0
 11
299.324
 21
86.5188
 31
0.0
  0
LINE
  5
1BE
330
6F
100
AcDbEntity
  8
0
 62
     0
100
AcDbLine
 10
299.324
 20
86.5188
 30
0.0
 11
297.798
 21
86.5188
 31
0.0
  0
LINE
  5
1BF
330
6F
100
AcDbEntity
  8
0
 62
     0
100
AcDbLine
 10
297.798
 20
86.5188
 30
0.0
 11
297.798
 21
89.7488
 31
0.0
  0
LINE
  5
1C0
330
6F
100
AcDbEntity
  8
0
 62
     0
100
AcDbLine
 10
297.798
 20
89.7488
 30
0.0
 11
291.049
 21
89.7488
 31
0.0
  0
LINE
  5
1C1
330
6F
100
AcDbEntity
  8
0
 62
     0
100
AcDbLine
 10
291.049
 20
89.7488
 30
0.0
 11
291.049
 21
86.5188
 31
0.0
  0
LINE
  5
1C2
330
6F
100
AcDbEntity
  8
0
 62
     0
100
AcDbLine
 10
291.049
 20
86.5188
 30
0.0
 11
290.223
 21
86.5188
 31
0.0
  0
LINE
  5
1C3
330
6F
100
AcDbEntity
  8
0
 62
     0
100
AcDbLine
 10
290.223
 20
86.5188
 30
0.0
 11
290.223
 21
83.7188
 31
0.0
  0
LINE
  5
1C4
330
6F
100
AcDbEntity
  8
0
 62
     0
100
AcDbLine
 10
290.223
 20
83.7188
 30
0.0
 11
291.049
 21
83.7188
 31
0.0
  0
LINE
  5
1C5
330
6F
100
AcDbEntity
  8
0
 62
     0
100
AcDbLine
 10
291.049
 20
83.7188
 30
0.0
 11
291.049
 21
77.44849999999999
 31
0.0
  0
LINE
  5
1C6
330
6F
100
AcDbEntity
  8
0
 62
     0
100
AcDbLine
 10
291.049
 20
77.44849999999999
 30
0.0
 11
292.774
 21
77.44849999999999
 31
0.0
  0
LINE
  5
1C7
330
6F
100
AcDbEntity
  8
0
 62
     0
100
AcDbLine
 10
292.774
 20
77.44849999999999
 30
0.0
 11
292.774
 21
76.2483
 31
0.0
  0
LINE
  5
1C8
330
6F
100
AcDbEntity
  8
0
 62
     0
100
AcDbLine
 10
292.774
 20
76.2483
 30
0.0
 11
296.073
 21
76.2483
 31
0.0
  0
LINE
  5
1C9
330
6F
100
AcDbEntity
  8
0
 62
     0
100
AcDbLine
 10
296.073
 20
76.2483
 30
0.0
 11
296.073
 21
77.44849999999999
 31
0.0
  0
LINE
  5
1CA
330
6F
100
AcDbEntity
  8
0
 62
     0
100
AcDbLine
 10
296.073
 20
77.44849999999999
 30
0.0
 11
297.798
 21
77.44849999999999
 31
0.0
  0
LINE
  5
1CB
330
6F
100
AcDbEntity
  8
0
 62
     0
100
AcDbLine
 10
297.798
 20
77.44849999999999
 30
0.0
 11
297.798
 21
81.91889999999999
 31
0.0
  0
LINE
  5
1CC
330
6F
100
AcDbEntity
  8
0
 62
     0
100
AcDbLine
 10
297.798
 20
81.91889999999999
 30
0.0
 11
299.324
 21
81.91889999999999
 31
0.0
  0
LINE
  5
1CD
330
6F
100
AcDbEntity
  8
0
 62
     0
100
AcDbLine
 10
299.324
 20
81.91889999999999
 30
0.0
 11
299.324
 21
77.2185
 31
0.0
  0
LINE
  5
1CE
330
6F
100
AcDbEntity
  8
0
 62
     0
100
AcDbLine
 10
299.324
 20
77.2185
 30
0.0
 11
313.323
 21
77.2185
 31
0.0
  0
LINE
  5
1CF
330
6F
100
AcDbEntity
  8
0
 62
     0
100
AcDbLine
 10
313.323
 20
77.2185
 30
0.0
 11
313.323
 21
81.91889999999999
 31
0.0
  0
LINE
  5
1D0
330
6F
100
AcDbEntity
  8
0
 62
     0
100
AcDbLine
 10
313.323
 20
81.91889999999999
 30
0.0
 11
314.849
 21
81.91889999999999
 31
0.0
  0
LINE
  5
1D1
330
6F
100
AcDbEntity
  8
0
 62
     0
100
AcDbLine
 10
314.849
 20
81.91889999999999
 30
0.0
 11
314.849
 21
77.44849999999999
 31
0.0
  0
LINE
  5
1D2
330
6F
100
AcDbEntity
  8
0
 62
     0
100
AcDbLine
 10
314.849
 20
77.44849999999999
 30
0.0
 11
316.574
 21
77.44849999999999
 31
0.0
  0
LINE
  5
1D3
330
6F
100
AcDbEntity
  8
0
 62
     0
100
AcDbLine
 10
316.574
 20
77.44849999999999
 30
0.0
 11
316.574
 21
76.2483
 31
0.0
  0
LINE
  5
1D4
330
6F
100
AcDbEntity
  8
0
 62
     0
100
AcDbLine
 10
316.574
 20
76.2483
 30
0.0
 11
319.873
 21
76.2483
 31
0.0
  0
LINE
  5
1D5
330
6F
100
AcDbEntity
  8
0
 62
     0
100
AcDbLine
 10
319.873
 20
76.2483
 30
0.0
 11
319.873
 21
77.44849999999999
 31
0.0
  0
LINE
  5
1D6
330
6F
100
AcDbEntity
  8
0
 62
     0
100
AcDbLine
 10
319.873
 20
77.44849999999999
 30
0.0
 11
321.598
 21
77.44849999999999
 31
0.0
  0
LINE
  5
1D7
330
6F
100
AcDbEntity
  8
0
 62
     0
100
AcDbLine
 10
321.598
 20
77.44849999999999
 30
0.0
 11
321.598
 21
83.7188
 31
0.0
  0
LINE
  5
1D8
330
6F
100
AcDbEntity
  8
0
 62
     0
100
AcDbLine
 10
321.598
 20
83.7188
 30
0.0
 11
322.424
 21
83.7188
 31
0.0
  0
LINE
  5
1D9
330
6F
100
AcDbEntity
  8
0
 62
     0
100
AcDbLine
 10
322.424
 20
83.7188
 30
0.0
 11
322.424
 21
86.5188
 31
0.0
  0
LINE
  5
1DA
330
6F
100
AcDbEntity
  8
0
 62
     0
100
AcDbLine
 10
322.424
 20
86.5188
 30
0.0
 11
321.598
 21
86.5188
 31
0.0
  0
LINE
  5
1DB
330
6F
100
AcDbEntity
  8
0
 62
     0
100
AcDbLine
 10
321.598
 20
86.5188
 30
0.0
 11
321.598
 21
89.7488
 31
0.0
  0
LINE
  5
1DC
330
6F
100
AcDbEntity
  8
0
 62
     0
100
AcDbLine
 10
321.598
 20
89.7488
 30
0.0
 11
314.849
 21
89.7488
 31
0.0
  0
LINE
  5
1DD
330
6F
100
AcDbEntity
  8
0
 62
     0
100
AcDbLine
 10
314.849
 20
89.7488
 30
0.0
 11
314.849
 21
86.5188
 31
0.0
  0
LINE
  5
1DE
330
6F
100
AcDbEntity
  8
0
 62
     0
100
AcDbLine
 10
314.849
 20
86.5188
 30
0.0
 11
313.323
 21
86.5188
 31
0.0
  0
LINE
  5
1DF
330
6F
100
AcDbEntity
  8
0
 62
     0
100
AcDbLine
 10
313.323
 20
86.5188
 30
0.0
 11
313.323
 21
91.21779999999999
 31
0.0
  0
LINE
  5
1E0
330
6F
100
AcDbEntity
  8
0
 62
     0
100
AcDbLine
 10
313.323
 20
91.21779999999999
 30
0.0
 11
299.324
 21
91.21779999999999
 31
0.0
  0
LINE
  5
1E1
330
6F
100
AcDbEntity
  8
0
 62
     0
100
AcDbLine
 10
268.368
 20
91.21779999999999
 30
0.0
 11
282.367
 21
91.21779999999999
 31
0.0
  0
LINE
  5
1E2
330
6F
100
AcDbEntity
  8
0
 62
     0
100
AcDbLine
 10
282.367
 20
91.21779999999999
 30
0.0
 11
282.367
 21
77.2185
 31
0.0
  0
LINE
  5
1E3
330
6F
100
AcDbEntity
  8
0
 62
     0
100
AcDbLine
 10
282.367
 20
77.2185
 30
0.0
 11
268.368
 21
77.2185
 31
0.0
  0
LINE
  5
1E4
330
6F
100
AcDbEntity
  8
0
 62
     0
100
AcDbLine
 10
268.368
 20
77.2185
 30
0.0
 11
268.368
 21
91.21779999999999
 31
0.0
  0
LINE
  5
1E5
330
6F
100
AcDbEntity
  8
0
 62
     0
100
AcDbLine
 10
249.318
 20
91.21779999999999
 30
0.0
 11
263.317
 21
91.21779999999999
 31
0.0
  0
LINE
  5
1E6
330
6F
100
AcDbEntity
  8
0
 62
     0
100
AcDbLine
 10
263.317
 20
91.21779999999999
 30
0.0
 11
263.317
 21
77.2185
 31
0.0
  0
LINE
  5
1E7
330
6F
100
AcDbEntity
  8
0
 62
     0
100
AcDbLine
 10
263.317
 20
77.2185
 30
0.0
 11
249.318
 21
77.2185
 31
0.0
  0
LINE
  5
1E8
330
6F
100
AcDbEntity
  8
0
 62
     0
100
AcDbLine
 10
249.318
 20
77.2185
 30
0.0
 11
249.318
 21
91.21779999999999
 31
0.0
  0
LINE
  5
1E9
330
6F
100
AcDbEntity
  8
0
 62
     0
100
AcDbLine
 10
40.7211
 20
91.21779999999999
 30
0.0
 11
54.72039999999999
 21
91.21779999999999
 31
0.0
  0
LINE
  5
1EA
330
6F
100
AcDbEntity
  8
0
 62
     0
100
AcDbLine
 10
54.72039999999999
 20
91.21779999999999
 30
0.0
 11
54.72039999999999
 21
77.2185
 31
0.0
  0
LINE
  5
1EB
330
6F
100
AcDbEntity
  8
0
 62
     0
100
AcDbLine
 10
54.72039999999999
 20
77.2185
 30
0.0
 11
40.7211
 21
77.2185
 31
0.0
  0
LINE
  5
1EC
330
6F
100
AcDbEntity
  8
0
 62
     0
100
AcDbLine
 10
40.7211
 20
77.2185
 30
0.0
 11
40.7211
 21
91.21779999999999
 31
0.0
  0
LINE
  5
1ED
330
6F
100
AcDbEntity
  8
0
 62
     0
100
AcDbLine
 10
9.76341
 20
91.21779999999999
 30
0.0
 11
23.7629
 21
91.21779999999999
 31
0.0
  0
LINE
  5
1EE
330
6F
100
AcDbEntity
  8
0
 62
     0
100
AcDbLine
 10
23.7629
 20
91.21779999999999
 30
0.0
 11
23.7629
 21
77.2185
 31
0.0
  0
LINE
  5
1EF
330
6F
100
AcDbEntity
  8
0
 62
     0
100
AcDbLine
 10
23.7629
 20
77.2185
 30
0.0
 11
9.76341
 21
77.2185
 31
0.0
  0
LINE
  5
1F0
330
6F
100
AcDbEntity
  8
0
 62
     0
100
AcDbLine
 10
9.76341
 20
77.2185
 30
0.0
 11
9.76341
 21
91.21779999999999
 31
0.0
  0
LINE
  5
1F1
330
6F
100
AcDbEntity
  8
0
 62
     0
100
AcDbLine
 10
162.081
 20
92.04179999999999
 30
0.0
 11
164.991
 21
78.34839999999999
 31
0.0
  0
LINE
  5
1F2
330
6F
100
AcDbEntity
  8
0
 62
     0
100
AcDbLine
 10
164.991
 20
78.34839999999999
 30
0.0
 11
178.686
 21
81.2588
 31
0.0
  0
LINE
  5
1F3
330
6F
100
AcDbEntity
  8
0
 62
     0
100
AcDbLine
 10
178.686
 20
81.2588
 30
0.0
 11
175.774
 21
94.95369999999999
 31
0.0
  0
LINE
  5
1F4
330
6F
100
AcDbEntity
  8
0
 62
     0
100
AcDbLine
 10
175.774
 20
94.95369999999999
 30
0.0
 11
162.081
 21
92.04179999999999
 31
0.0
  0
LINE
  5
1F5
330
6F
100
AcDbEntity
  8
0
 62
     0
100
AcDbLine
 10
335.043
 20
95.98170000000001
 30
0.0
 11
349.042
 21
95.98170000000001
 31
0.0
  0
LINE
  5
1F6
330
6F
100
AcDbEntity
  8
0
 62
     0
100
AcDbLine
 10
349.042
 20
95.98170000000001
 30
0.0
 11
349.042
 21
81.98100000000001
 31
0.0
  0
LINE
  5
1F7
330
6F
100
AcDbEntity
  8
0
 62
     0
100
AcDbLine
 10
349.042
 20
81.98100000000001
 30
0.0
 11
335.043
 21
81.98100000000001
 31
0.0
  0
LINE
  5
1F8
330
6F
100
AcDbEntity
  8
0
 62
     0
100
AcDbLine
 10
335.043
 20
81.98100000000001
 30
0.0
 11
335.043
 21
95.98170000000001
 31
0.0
  0
LINE
  5
1F9
330
6F
100
AcDbEntity
  8
0
 62
     0
100
AcDbLine
 10
180.713
 20
96.0039
 30
0.0
 11
183.625
 21
82.30870000000001
 31
0.0
  0
LINE
  5
1FA
330
6F
100
AcDbEntity
  8
0
 62
     0
100
AcDbLine
 10
183.625
 20
82.30870000000001
 30
0.0
 11
197.318
 21
85.2205
 31
0.0
  0
LINE
  5
1FB
330
6F
100
AcDbEntity
  8
0
 62
     0
100
AcDbLine
 10
197.318
 20
85.2205
 30
0.0
 11
194.4079999999999
 21
98.91429999999999
 31
0.0
  0
LINE
  5
1FC
330
6F
100
AcDbEntity
  8
0
 62
     0
100
AcDbLine
 10
194.4079999999999
 20
98.91429999999999
 30
0.0
 11
180.713
 21
96.0039
 31
0.0
  0
LINE
  5
1FD
330
6F
100
AcDbEntity
  8
0
 62
     0
100
AcDbLine
 10
117.264
 20
86.36320000000001
 30
0.0
 11
130.959
 21
83.4528
 31
0.0
  0
LINE
  5
1FE
330
6F
100
AcDbEntity
  8
0
 62
     0
100
AcDbLine
 10
130.959
 20
83.4528
 30
0.0
 11
133.87
 21
97.1462
 31
0.0
  0
LINE
  5
1FF
330
6F
100
AcDbEntity
  8
0
 62
     0
100
AcDbLine
 10
133.87
 20
97.1462
 30
0.0
 11
120.176
 21
100.058
 31
0.0
  0
LINE
  5
200
330
6F
100
AcDbEntity
  8
0
 62
     0
100
AcDbLine
 10
120.176
 20
100.058
 30
0.0
 11
117.264
 21
86.36320000000001
 31
0.0
  0
LINE
  5
201
330
6F
100
AcDbEntity
  8
0
 62
     0
100
AcDbLine
 10
199.347
 20
99.9656
 30
0.0
 11
202.259
 21
86.27070000000001
 31
0.0
  0
LINE
  5
202
330
6F
100
AcDbEntity
  8
0
 62
     0
100
AcDbLine
 10
202.259
 20
86.27070000000001
 30
0.0
 11
215.952
 21
89.1798
 31
0.0
  0
LINE
  5
203
330
6F
100
AcDbEntity
  8
0
 62
     0
100
AcDbLine
 10
215.952
 20
89.1798
 30
0.0
 11
213.042
 21
102.875
 31
0.0
  0
LINE
  5
204
330
6F
100
AcDbEntity
  8
0
 62
     0
100
AcDbLine
 10
213.042
 20
102.875
 30
0.0
 11
199.347
 21
99.9656
 31
0.0
  0
LINE
  5
205
330
6F
100
AcDbEntity
  8
0
 62
     0
100
AcDbLine
 10
98.6317
 20
90.32349999999999
 30
0.0
 11
112.325
 21
87.4116
 31
0.0
  0
LINE
  5
206
330
6F
100
AcDbEntity
  8
0
 62
     0
100
AcDbLine
 10
112.325
 20
87.4116
 30
0.0
 11
115.236
 21
101.107
 31
0.0
  0
LINE
  5
207
330
6F
100
AcDbEntity
  8
0
 62
     0
100
AcDbLine
 10
115.236
 20
101.107
 30
0.0
 11
101.542
 21
104.017
 31
0.0
  0
LINE
  5
208
330
6F
100
AcDbEntity
  8
0
 62
     0
100
AcDbLine
 10
101.542
 20
104.017
 30
0.0
 11
98.6317
 21
90.32349999999999
 31
0.0
  0
LINE
  5
209
330
6F
100
AcDbEntity
  8
0
 62
     0
100
AcDbLine
 10
217.981
 20
103.925
 30
0.0
 11
220.893
 21
90.23000000000001
 31
0.0
  0
LINE
  5
20A
330
6F
100
AcDbEntity
  8
0
 62
     0
100
AcDbLine
 10
220.893
 20
90.23000000000001
 30
0.0
 11
234.586
 21
93.14149999999999
 31
0.0
  0
LINE
  5
20B
330
6F
100
AcDbEntity
  8
0
 62
     0
100
AcDbLine
 10
234.586
 20
93.14149999999999
 30
0.0
 11
231.676
 21
106.835
 31
0.0
  0
LINE
  5
20C
330
6F
100
AcDbEntity
  8
0
 62
     0
100
AcDbLine
 10
231.676
 20
106.835
 30
0.0
 11
217.981
 21
103.925
 31
0.0
  0
LINE
  5
20D
330
6F
100
AcDbEntity
  8
0
 62
     0
100
AcDbLine
 10
79.998
 20
94.28409999999999
 30
0.0
 11
93.69139999999999
 21
91.3737
 31
0.0
  0
LINE
  5
20E
330
6F
100
AcDbEntity
  8
0
 62
     0
100
AcDbLine
 10
93.69139999999999
 20
91.3737
 30
0.0
 11
96.6018
 21
105.067
 31
0.0
  0
LINE
  5
20F
330
6F
100
AcDbEntity
  8
0
 62
     0
100
AcDbLine
 10
96.6018
 20
105.067
 30
0.0
 11
82.90840000000001
 21
107.979
 31
0.0
  0
LINE
  5
210
330
6F
100
AcDbEntity
  8
0
 62
     0
100
AcDbLine
 10
82.90840000000001
 20
107.979
 30
0.0
 11
79.998
 21
94.28409999999999
 31
0.0
  0
LINE
  5
211
330
6F
100
AcDbEntity
  8
0
 62
     0
100
AcDbLine
 10
236.616
 20
107.885
 30
0.0
 11
239.525
 21
94.19169999999999
 31
0.0
  0
LINE
  5
212
330
6F
100
AcDbEntity
  8
0
 62
     0
100
AcDbLine
 10
239.525
 20
94.19169999999999
 30
0.0
 11
253.22
 21
97.1021
 31
0.0
  0
LINE
  5
213
330
6F
100
AcDbEntity
  8
0
 62
     0
100
AcDbLine
 10
253.22
 20
97.1021
 30
0.0
 11
250.31
 21
110.797
 31
0.0
  0
LINE
  5
214
330
6F
100
AcDbEntity
  8
0
 62
     0
100
AcDbLine
 10
250.31
 20
110.797
 30
0.0
 11
236.616
 21
107.885
 31
0.0
  0
LINE
  5
215
330
6F
100
AcDbEntity
  8
0
 62
     0
100
AcDbLine
 10
148.802
 20
108.697
 30
0.0
 11
151.714
 21
95.00200000000001
 31
0.0
  0
LINE
  5
216
330
6F
100
AcDbEntity
  8
0
 62
     0
100
AcDbLine
 10
151.714
 20
95.00200000000001
 30
0.0
 11
165.407
 21
97.91240000000001
 31
0.0
  0
LINE
  5
217
330
6F
100
AcDbEntity
  8
0
 62
     0
100
AcDbLine
 10
165.407
 20
97.91240000000001
 30
0.0
 11
162.497
 21
111.606
 31
0.0
  0
LINE
  5
218
330
6F
100
AcDbEntity
  8
0
 62
     0
100
AcDbLine
 10
162.497
 20
111.606
 30
0.0
 11
148.802
 21
108.697
 31
0.0
  0
LINE
  5
219
330
6F
100
AcDbEntity
  8
0
 62
     0
100
AcDbLine
 10
61.3639
 20
98.2444
 30
0.0
 11
75.0577
 21
95.334
 31
0.0
  0
LINE
  5
21A
330
6F
100
AcDbEntity
  8
0
 62
     0
100
AcDbLine
 10
75.0577
 20
95.334
 30
0.0
 11
77.9681
 21
109.029
 31
0.0
  0
LINE
  5
21B
330
6F
100
AcDbEntity
  8
0
 62
     0
100
AcDbLine
 10
77.9681
 20
109.029
 30
0.0
 11
64.2744
 21
111.94
 31
0.0
  0
LINE
  5
21C
330
6F
100
AcDbEntity
  8
0
 62
     0
100
AcDbLine
 10
64.2744
 20
111.94
 30
0.0
 11
61.3639
 21
98.2444
 31
0.0
  0
LINE
  5
21D
330
6F
100
AcDbEntity
  8
0
 62
     0
100
AcDbLine
 10
301.705
 20
110.268
 30
0.0
 11
315.7059999999999
 21
110.268
 31
0.0
  0
LINE
  5
21E
330
6F
100
AcDbEntity
  8
0
 62
     0
100
AcDbLine
 10
315.7059999999999
 20
110.268
 30
0.0
 11
315.7059999999999
 21
96.26850000000001
 31
0.0
  0
LINE
  5
21F
330
6F
100
AcDbEntity
  8
0
 62
     0
100
AcDbLine
 10
315.7059999999999
 20
96.26850000000001
 30
0.0
 11
301.705
 21
96.26850000000001
 31
0.0
  0
LINE
  5
220
330
6F
100
AcDbEntity
  8
0
 62
     0
100
AcDbLine
 10
301.705
 20
96.26850000000001
 30
0.0
 11
301.705
 21
110.268
 31
0.0
  0
LINE
  5
221
330
6F
100
AcDbEntity
  8
0
 62
     0
100
AcDbLine
 10
277.893
 20
110.268
 30
0.0
 11
291.892
 21
110.268
 31
0.0
  0
LINE
  5
222
330
6F
100
AcDbEntity
  8
0
 62
     0
100
AcDbLine
 10
291.892
 20
110.268
 30
0.0
 11
291.892
 21
96.26850000000001
 31
0.0
  0
LINE
  5
223
330
6F
100
AcDbEntity
  8
0
 62
     0
100
AcDbLine
 10
291.892
 20
96.26850000000001
 30
0.0
 11
277.893
 21
96.26850000000001
 31
0.0
  0
LINE
  5
224
330
6F
100
AcDbEntity
  8
0
 62
     0
100
AcDbLine
 10
277.893
 20
96.26850000000001
 30
0.0
 11
277.893
 21
110.268
 31
0.0
  0
LINE
  5
225
330
6F
100
AcDbEntity
  8
0
 62
     0
100
AcDbLine
 10
258.843
 20
110.268
 30
0.0
 11
272.842
 21
110.268
 31
0.0
  0
LINE
  5
226
330
6F
100
AcDbEntity
  8
0
 62
     0
100
AcDbLine
 10
272.842
 20
110.268
 30
0.0
 11
272.842
 21
96.26850000000001
 31
0.0
  0
LINE
  5
227
330
6F
100
AcDbEntity
  8
0
 62
     0
100
AcDbLine
 10
272.842
 20
96.26850000000001
 30
0.0
 11
258.843
 21
96.26850000000001
 31
0.0
  0
LINE
  5
228
330
6F
100
AcDbEntity
  8
0
 62
     0
100
AcDbLine
 10
258.843
 20
96.26850000000001
 30
0.0
 11
258.843
 21
110.268
 31
0.0
  0
LINE
  5
229
330
6F
100
AcDbEntity
  8
0
 62
     0
100
AcDbLine
 10
40.7211
 20
110.268
 30
0.0
 11
54.72039999999999
 21
110.268
 31
0.0
  0
LINE
  5
22A
330
6F
100
AcDbEntity
  8
0
 62
     0
100
AcDbLine
 10
54.72039999999999
 20
110.268
 30
0.0
 11
54.72039999999999
 21
96.26850000000001
 31
0.0
  0
LINE
  5
22B
330
6F
100
AcDbEntity
  8
0
 62
     0
100
AcDbLine
 10
54.72039999999999
 20
96.26850000000001
 30
0.0
 11
40.7211
 21
96.26850000000001
 31
0.0
  0
LINE
  5
22C
330
6F
100
AcDbEntity
  8
0
 62
     0
100
AcDbLine
 10
40.7211
 20
96.26850000000001
 30
0.0
 11
40.7211
 21
110.268
 31
0.0
  0
LINE
  5
22D
330
6F
100
AcDbEntity
  8
0
 62
     0
100
AcDbLine
 10
16.9072
 20
110.268
 30
0.0
 11
30.908
 21
110.268
 31
0.0
  0
LINE
  5
22E
330
6F
100
AcDbEntity
  8
0
 62
     0
100
AcDbLine
 10
30.908
 20
110.268
 30
0.0
 11
30.908
 21
96.26850000000001
 31
0.0
  0
LINE
  5
22F
330
6F
100
AcDbEntity
  8
0
 62
     0
100
AcDbLine
 10
30.908
 20
96.26850000000001
 30
0.0
 11
16.9072
 21
96.26850000000001
 31
0.0
  0
LINE
  5
230
330
6F
100
AcDbEntity
  8
0
 62
     0
100
AcDbLine
 10
16.9072
 20
96.26850000000001
 30
0.0
 11
16.9072
 21
110.268
 31
0.0
  0
LINE
  5
231
330
6F
100
AcDbEntity
  8
0
 62
     0
100
AcDbLine
 10
167.437
 20
112.656
 30
0.0
 11
170.348
 21
98.9623
 31
0.0
  0
LINE
  5
232
330
6F
100
AcDbEntity
  8
0
 62
     0
100
AcDbLine
 10
170.348
 20
98.9623
 30
0.0
 11
184.041
 21
101.873
 31
0.0
  0
LINE
  5
233
330
6F
100
AcDbEntity
  8
0
 62
     0
100
AcDbLine
 10
184.041
 20
101.873
 30
0.0
 11
181.1309999999999
 21
115.568
 31
0.0
  0
LINE
  5
234
330
6F
100
AcDbEntity
  8
0
 62
     0
100
AcDbLine
 10
181.1309999999999
 20
115.568
 30
0.0
 11
167.437
 21
112.656
 31
0.0
  0
LINE
  5
235
330
6F
100
AcDbEntity
  8
0
 62
     0
100
AcDbLine
 10
130.543
 20
103.017
 30
0.0
 11
144.236
 21
100.105
 31
0.0
  0
LINE
  5
236
330
6F
100
AcDbEntity
  8
0
 62
     0
100
AcDbLine
 10
144.236
 20
100.105
 30
0.0
 11
147.147
 21
113.8
 31
0.0
  0
LINE
  5
237
330
6F
100
AcDbEntity
  8
0
 62
     0
100
AcDbLine
 10
147.147
 20
113.8
 30
0.0
 11
133.453
 21
116.71
 31
0.0
  0
LINE
  5
238
330
6F
100
AcDbEntity
  8
0
 62
     0
100
AcDbLine
 10
133.453
 20
116.71
 30
0.0
 11
130.543
 21
103.017
 31
0.0
  0
LINE
  5
239
330
6F
100
AcDbEntity
  8
0
 62
     0
100
AcDbLine
 10
330.28
 20
115.032
 30
0.0
 11
344.281
 21
115.032
 31
0.0
  0
LINE
  5
23A
330
6F
100
AcDbEntity
  8
0
 62
     0
100
AcDbLine
 10
344.281
 20
115.032
 30
0.0
 11
344.281
 21
101.031
 31
0.0
  0
LINE
  5
23B
330
6F
100
AcDbEntity
  8
0
 62
     0
100
AcDbLine
 10
344.281
 20
101.031
 30
0.0
 11
330.28
 21
101.031
 31
0.0
  0
LINE
  5
23C
330
6F
100
AcDbEntity
  8
0
 62
     0
100
AcDbLine
 10
330.28
 20
101.031
 30
0.0
 11
330.28
 21
115.032
 31
0.0
  0
LINE
  5
23D
330
6F
100
AcDbEntity
  8
0
 62
     0
100
AcDbLine
 10
186.071
 20
116.618
 30
0.0
 11
188.98
 21
102.923
 31
0.0
  0
LINE
  5
23E
330
6F
100
AcDbEntity
  8
0
 62
     0
100
AcDbLine
 10
188.98
 20
102.923
 30
0.0
 11
202.675
 21
105.835
 31
0.0
  0
LINE
  5
23F
330
6F
100
AcDbEntity
  8
0
 62
     0
100
AcDbLine
 10
202.675
 20
105.835
 30
0.0
 11
199.765
 21
119.528
 31
0.0
  0
LINE
  5
240
330
6F
100
AcDbEntity
  8
0
 62
     0
100
AcDbLine
 10
199.765
 20
119.528
 30
0.0
 11
186.071
 21
116.618
 31
0.0
  0
LINE
  5
241
330
6F
100
AcDbEntity
  8
0
 62
     0
100
AcDbLine
 10
111.909
 20
106.976
 30
0.0
 11
125.603
 21
104.067
 31
0.0
  0
LINE
  5
242
330
6F
100
AcDbEntity
  8
0
 62
     0
100
AcDbLine
 10
125.603
 20
104.067
 30
0.0
 11
128.513
 21
117.76
 31
0.0
  0
LINE
  5
243
330
6F
100
AcDbEntity
  8
0
 62
     0
100
AcDbLine
 10
128.513
 20
117.76
 30
0.0
 11
114.82
 21
120.671
 31
0.0
  0
LINE
  5
244
330
6F
100
AcDbEntity
  8
0
 62
     0
100
AcDbLine
 10
114.82
 20
120.671
 30
0.0
 11
111.909
 21
106.976
 31
0.0
  0
LINE
  5
245
330
6F
100
AcDbEntity
  8
0
 62
     0
100
AcDbLine
 10
204.704
 20
120.578
 30
0.0
 11
207.614
 21
106.885
 31
0.0
  0
LINE
  5
246
330
6F
100
AcDbEntity
  8
0
 62
     0
100
AcDbLine
 10
207.614
 20
106.885
 30
0.0
 11
221.309
 21
109.794
 31
0.0
  0
LINE
  5
247
330
6F
100
AcDbEntity
  8
0
 62
     0
100
AcDbLine
 10
221.309
 20
109.794
 30
0.0
 11
218.397
 21
123.489
 31
0.0
  0
LINE
  5
248
330
6F
100
AcDbEntity
  8
0
 62
     0
100
AcDbLine
 10
218.397
 20
123.489
 30
0.0
 11
204.704
 21
120.578
 31
0.0
  0
LINE
  5
249
330
6F
100
AcDbEntity
  8
0
 62
     0
100
AcDbLine
 10
93.27519999999999
 20
110.938
 30
0.0
 11
106.969
 21
108.026
 31
0.0
  0
LINE
  5
24A
330
6F
100
AcDbEntity
  8
0
 62
     0
100
AcDbLine
 10
106.969
 20
108.026
 30
0.0
 11
109.879
 21
121.721
 31
0.0
  0
LINE
  5
24B
330
6F
100
AcDbEntity
  8
0
 62
     0
100
AcDbLine
 10
109.879
 20
121.721
 30
0.0
 11
96.1856
 21
124.631
 31
0.0
  0
LINE
  5
24C
330
6F
100
AcDbEntity
  8
0
 62
     0
100
AcDbLine
 10
96.1856
 20
124.631
 30
0.0
 11
93.27519999999999
 21
110.938
 31
0.0
  0
LINE
  5
24D
330
6F
100
AcDbEntity
  8
0
 62
     0
100
AcDbLine
 10
223.337
 20
124.539
 30
0.0
 11
226.249
 21
110.844
 31
0.0
  0
LINE
  5
24E
330
6F
100
AcDbEntity
  8
0
 62
     0
100
AcDbLine
 10
226.249
 20
110.844
 30
0.0
 11
239.943
 21
113.756
 31
0.0
  0
LINE
  5
24F
330
6F
100
AcDbEntity
  8
0
 62
     0
100
AcDbLine
 10
239.943
 20
113.756
 30
0.0
 11
237.031
 21
127.449
 31
0.0
  0
LINE
  5
250
330
6F
100
AcDbEntity
  8
0
 62
     0
100
AcDbLine
 10
237.031
 20
127.449
 30
0.0
 11
223.337
 21
124.539
 31
0.0
  0
LINE
  5
251
330
6F
100
AcDbEntity
  8
0
 62
     0
100
AcDbLine
 10
74.6414
 20
114.898
 30
0.0
 11
88.33479999999999
 21
111.988
 31
0.0
  0
LINE
  5
252
330
6F
100
AcDbEntity
  8
0
 62
     0
100
AcDbLine
 10
88.33479999999999
 20
111.988
 30
0.0
 11
91.2467
 21
125.681
 31
0.0
  0
LINE
  5
253
330
6F
100
AcDbEntity
  8
0
 62
     0
100
AcDbLine
 10
91.2467
 20
125.681
 30
0.0
 11
77.5518
 21
128.593
 31
0.0
  0
LINE
  5
254
330
6F
100
AcDbEntity
  8
0
 62
     0
100
AcDbLine
 10
77.5518
 20
128.593
 30
0.0
 11
74.6414
 21
114.898
 31
0.0
  0
LINE
  5
255
330
6F
100
AcDbEntity
  8
0
 62
     0
100
AcDbLine
 10
301.705
 20
129.3179999999999
 30
0.0
 11
315.7059999999999
 21
129.3179999999999
 31
0.0
  0
LINE
  5
256
330
6F
100
AcDbEntity
  8
0
 62
     0
100
AcDbLine
 10
315.7059999999999
 20
129.3179999999999
 30
0.0
 11
315.7059999999999
 21
115.318
 31
0.0
  0
LINE
  5
257
330
6F
100
AcDbEntity
  8
0
 62
     0
100
AcDbLine
 10
315.7059999999999
 20
115.318
 30
0.0
 11
301.705
 21
115.318
 31
0.0
  0
LINE
  5
258
330
6F
100
AcDbEntity
  8
0
 62
     0
100
AcDbLine
 10
301.705
 20
115.318
 30
0.0
 11
301.705
 21
129.3179999999999
 31
0.0
  0
LINE
  5
259
330
6F
100
AcDbEntity
  8
0
 62
     0
100
AcDbLine
 10
282.655
 20
129.3179999999999
 30
0.0
 11
296.656
 21
129.3179999999999
 31
0.0
  0
LINE
  5
25A
330
6F
100
AcDbEntity
  8
0
 62
     0
100
AcDbLine
 10
296.656
 20
129.3179999999999
 30
0.0
 11
296.656
 21
115.318
 31
0.0
  0
LINE
  5
25B
330
6F
100
AcDbEntity
  8
0
 62
     0
100
AcDbLine
 10
296.656
 20
115.318
 30
0.0
 11
282.655
 21
115.318
 31
0.0
  0
LINE
  5
25C
330
6F
100
AcDbEntity
  8
0
 62
     0
100
AcDbLine
 10
282.655
 20
115.318
 30
0.0
 11
282.655
 21
129.3179999999999
 31
0.0
  0
LINE
  5
25D
330
6F
100
AcDbEntity
  8
0
 62
     0
100
AcDbLine
 10
263.605
 20
129.3179999999999
 30
0.0
 11
277.606
 21
129.3179999999999
 31
0.0
  0
LINE
  5
25E
330
6F
100
AcDbEntity
  8
0
 62
     0
100
AcDbLine
 10
277.606
 20
129.3179999999999
 30
0.0
 11
277.606
 21
115.318
 31
0.0
  0
LINE
  5
25F
330
6F
100
AcDbEntity
  8
0
 62
     0
100
AcDbLine
 10
277.606
 20
115.318
 30
0.0
 11
263.605
 21
115.318
 31
0.0
  0
LINE
  5
260
330
6F
100
AcDbEntity
  8
0
 62
     0
100
AcDbLine
 10
263.605
 20
115.318
 30
0.0
 11
263.605
 21
129.3179999999999
 31
0.0
  0
LINE
  5
261
330
6F
100
AcDbEntity
  8
0
 62
     0
100
AcDbLine
 10
35.9572
 20
129.3179999999999
 30
0.0
 11
49.9579
 21
129.3179999999999
 31
0.0
  0
LINE
  5
262
330
6F
100
AcDbEntity
  8
0
 62
     0
100
AcDbLine
 10
49.9579
 20
129.3179999999999
 30
0.0
 11
49.9579
 21
115.318
 31
0.0
  0
LINE
  5
263
330
6F
100
AcDbEntity
  8
0
 62
     0
100
AcDbLine
 10
49.9579
 20
115.318
 30
0.0
 11
35.9572
 21
115.318
 31
0.0
  0
LINE
  5
264
330
6F
100
AcDbEntity
  8
0
 62
     0
100
AcDbLine
 10
35.9572
 20
115.318
 30
0.0
 11
35.9572
 21
129.3179999999999
 31
0.0
  0
LINE
  5
265
330
6F
100
AcDbEntity
  8
0
 62
     0
100
AcDbLine
 10
16.9072
 20
129.3179999999999
 30
0.0
 11
30.908
 21
129.3179999999999
 31
0.0
  0
LINE
  5
266
330
6F
100
AcDbEntity
  8
0
 62
     0
100
AcDbLine
 10
30.908
 20
129.3179999999999
 30
0.0
 11
30.908
 21
115.318
 31
0.0
  0
LINE
  5
267
330
6F
100
AcDbEntity
  8
0
 62
     0
100
AcDbLine
 10
30.908
 20
115.318
 30
0.0
 11
16.9072
 21
115.318
 31
0.0
  0
LINE
  5
268
330
6F
100
AcDbEntity
  8
0
 62
     0
100
AcDbLine
 10
16.9072
 20
115.318
 30
0.0
 11
16.9072
 21
129.3179999999999
 31
0.0
  0
LINE
  5
269
330
6F
100
AcDbEntity
  8
0
 62
     0
100
AcDbLine
 10
244.555
 20
132.176
 30
0.0
 11
258.556
 21
132.176
 31
0.0
  0
LINE
  5
26A
330
6F
100
AcDbEntity
  8
0
 62
     0
100
AcDbLine
 10
258.556
 20
132.176
 30
0.0
 11
258.556
 21
118.176
 31
0.0
  0
LINE
  5
26B
330
6F
100
AcDbEntity
  8
0
 62
     0
100
AcDbLine
 10
258.556
 20
118.176
 30
0.0
 11
244.555
 21
118.176
 31
0.0
  0
LINE
  5
26C
330
6F
100
AcDbEntity
  8
0
 62
     0
100
AcDbLine
 10
244.555
 20
118.176
 30
0.0
 11
244.555
 21
132.176
 31
0.0
  0
LINE
  5
26D
330
6F
100
AcDbEntity
  8
0
 62
     0
100
AcDbLine
 10
55.0072
 20
132.176
 30
0.0
 11
69.0079
 21
132.176
 31
0.0
  0
LINE
  5
26E
330
6F
100
AcDbEntity
  8
0
 62
     0
100
AcDbLine
 10
69.0079
 20
132.176
 30
0.0
 11
69.0079
 21
118.176
 31
0.0
  0
LINE
  5
26F
330
6F
100
AcDbEntity
  8
0
 62
     0
100
AcDbLine
 10
69.0079
 20
118.176
 30
0.0
 11
55.0072
 21
118.176
 31
0.0
  0
LINE
  5
270
330
6F
100
AcDbEntity
  8
0
 62
     0
100
AcDbLine
 10
55.0072
 20
118.176
 30
0.0
 11
55.0072
 21
132.176
 31
0.0
  0
LINE
  5
271
330
6F
100
AcDbEntity
  8
0
 62
     0
100
AcDbLine
 10
325.518
 20
134.082
 30
0.0
 11
339.517
 21
134.082
 31
0.0
  0
LINE
  5
272
330
6F
100
AcDbEntity
  8
0
 62
     0
100
AcDbLine
 10
339.517
 20
134.082
 30
0.0
 11
339.517
 21
120.081
 31
0.0
  0
LINE
  5
273
330
6F
100
AcDbEntity
  8
0
 62
     0
100
AcDbLine
 10
339.517
 20
120.081
 30
0.0
 11
325.518
 21
120.081
 31
0.0
  0
LINE
  5
274
330
6F
100
AcDbEntity
  8
0
 62
     0
100
AcDbLine
 10
325.518
 20
120.081
 30
0.0
 11
325.518
 21
134.082
 31
0.0
  0
LINE
  5
275
330
6F
100
AcDbEntity
  8
0
 62
     0
100
AcDbLine
 10
167.144
 20
136.94
 30
0.0
 11
170.054
 21
123.245
 31
0.0
  0
LINE
  5
276
330
6F
100
AcDbEntity
  8
0
 62
     0
100
AcDbLine
 10
170.054
 20
123.245
 30
0.0
 11
183.749
 21
126.155
 31
0.0
  0
LINE
  5
277
330
6F
100
AcDbEntity
  8
0
 62
     0
100
AcDbLine
 10
183.749
 20
126.155
 30
0.0
 11
180.837
 21
139.849
 31
0.0
  0
LINE
  5
278
330
6F
100
AcDbEntity
  8
0
 62
     0
100
AcDbLine
 10
180.837
 20
139.849
 30
0.0
 11
167.144
 21
136.94
 31
0.0
  0
LINE
  5
279
330
6F
100
AcDbEntity
  8
0
 62
     0
100
AcDbLine
 10
130.835
 20
127.299
 30
0.0
 11
144.529
 21
124.387
 31
0.0
  0
LINE
  5
27A
330
6F
100
AcDbEntity
  8
0
 62
     0
100
AcDbLine
 10
144.529
 20
124.387
 30
0.0
 11
147.439
 21
138.081
 31
0.0
  0
LINE
  5
27B
330
6F
100
AcDbEntity
  8
0
 62
     0
100
AcDbLine
 10
147.439
 20
138.081
 30
0.0
 11
133.745
 21
140.993
 31
0.0
  0
LINE
  5
27C
330
6F
100
AcDbEntity
  8
0
 62
     0
100
AcDbLine
 10
133.745
 20
140.993
 30
0.0
 11
130.835
 21
127.299
 31
0.0
  0
LINE
  5
27D
330
6F
100
AcDbEntity
  8
0
 62
     0
100
AcDbLine
 10
185.777
 20
140.899
 30
0.0
 11
188.688
 21
127.205
 31
0.0
  0
LINE
  5
27E
330
6F
100
AcDbEntity
  8
0
 62
     0
100
AcDbLine
 10
188.688
 20
127.205
 30
0.0
 11
202.383
 21
130.116
 31
0.0
  0
LINE
  5
27F
330
6F
100
AcDbEntity
  8
0
 62
     0
100
AcDbLine
 10
202.383
 20
130.116
 30
0.0
 11
199.4709999999999
 21
143.811
 31
0.0
  0
LINE
  5
280
330
6F
100
AcDbEntity
  8
0
 62
     0
100
AcDbLine
 10
199.4709999999999
 20
143.811
 30
0.0
 11
185.777
 21
140.899
 31
0.0
  0
LINE
  5
281
330
6F
100
AcDbEntity
  8
0
 62
     0
100
AcDbLine
 10
112.201
 20
131.259
 30
0.0
 11
125.895
 21
128.348
 31
0.0
  0
LINE
  5
282
330
6F
100
AcDbEntity
  8
0
 62
     0
100
AcDbLine
 10
125.895
 20
128.348
 30
0.0
 11
128.807
 21
142.043
 31
0.0
  0
LINE
  5
283
330
6F
100
AcDbEntity
  8
0
 62
     0
100
AcDbLine
 10
128.807
 20
142.043
 30
0.0
 11
115.112
 21
144.953
 31
0.0
  0
LINE
  5
284
330
6F
100
AcDbEntity
  8
0
 62
     0
100
AcDbLine
 10
115.112
 20
144.953
 30
0.0
 11
112.201
 21
131.259
 31
0.0
  0
LINE
  5
285
330
6F
100
AcDbEntity
  8
0
 62
     0
100
AcDbLine
 10
209.069
 20
145.85
 30
0.0
 11
211.981
 21
132.157
 31
0.0
  0
LINE
  5
286
330
6F
100
AcDbEntity
  8
0
 62
     0
100
AcDbLine
 10
211.981
 20
132.157
 30
0.0
 11
225.674
 21
135.067
 31
0.0
  0
LINE
  5
287
330
6F
100
AcDbEntity
  8
0
 62
     0
100
AcDbLine
 10
225.674
 20
135.067
 30
0.0
 11
222.764
 21
148.762
 31
0.0
  0
LINE
  5
288
330
6F
100
AcDbEntity
  8
0
 62
     0
100
AcDbLine
 10
222.764
 20
148.762
 30
0.0
 11
209.069
 21
145.85
 31
0.0
  0
LINE
  5
289
330
6F
100
AcDbEntity
  8
0
 62
     0
100
AcDbLine
 10
88.9095
 20
136.211
 30
0.0
 11
102.603
 21
133.299
 31
0.0
  0
LINE
  5
28A
330
6F
100
AcDbEntity
  8
0
 62
     0
100
AcDbLine
 10
102.603
 20
133.299
 30
0.0
 11
105.514
 21
146.994
 31
0.0
  0
LINE
  5
28B
330
6F
100
AcDbEntity
  8
0
 62
     0
100
AcDbLine
 10
105.514
 20
146.994
 30
0.0
 11
91.8199
 21
149.904
 31
0.0
  0
LINE
  5
28C
330
6F
100
AcDbEntity
  8
0
 62
     0
100
AcDbLine
 10
91.8199
 20
149.904
 30
0.0
 11
88.9095
 21
136.211
 31
0.0
  0
LINE
  5
28D
330
6F
100
AcDbEntity
  8
0
 62
     0
100
AcDbLine
 10
227.703
 20
149.812
 30
0.0
 11
230.615
 21
136.117
 31
0.0
  0
LINE
  5
28E
330
6F
100
AcDbEntity
  8
0
 62
     0
100
AcDbLine
 10
230.615
 20
136.117
 30
0.0
 11
244.308
 21
139.029
 31
0.0
  0
LINE
  5
28F
330
6F
100
AcDbEntity
  8
0
 62
     0
100
AcDbLine
 10
244.308
 20
139.029
 30
0.0
 11
241.398
 21
152.722
 31
0.0
  0
LINE
  5
290
330
6F
100
AcDbEntity
  8
0
 62
     0
100
AcDbLine
 10
241.398
 20
152.722
 30
0.0
 11
227.703
 21
149.812
 31
0.0
  0
LINE
  5
291
330
6F
100
AcDbEntity
  8
0
 62
     0
100
AcDbLine
 10
70.2758
 20
140.17
 30
0.0
 11
83.96919999999999
 21
137.261
 31
0.0
  0
LINE
  5
292
330
6F
100
AcDbEntity
  8
0
 62
     0
100
AcDbLine
 10
83.96919999999999
 20
137.261
 30
0.0
 11
86.88109999999999
 21
150.954
 31
0.0
  0
LINE
  5
293
330
6F
100
AcDbEntity
  8
0
 62
     0
100
AcDbLine
 10
86.88109999999999
 20
150.954
 30
0.0
 11
73.1862
 21
153.865
 31
0.0
  0
LINE
  5
294
330
6F
100
AcDbEntity
  8
0
 62
     0
100
AcDbLine
 10
73.1862
 20
153.865
 30
0.0
 11
70.2758
 21
140.17
 31
0.0
  0
LINE
  5
295
330
6F
100
AcDbEntity
  8
0
 62
     0
100
AcDbLine
 10
320.755
 20
153.132
 30
0.0
 11
334.754
 21
153.132
 31
0.0
  0
LINE
  5
296
330
6F
100
AcDbEntity
  8
0
 62
     0
100
AcDbLine
 10
334.754
 20
153.132
 30
0.0
 11
334.754
 21
139.131
 31
0.0
  0
LINE
  5
297
330
6F
100
AcDbEntity
  8
0
 62
     0
100
AcDbLine
 10
334.754
 20
139.131
 30
0.0
 11
320.755
 21
139.131
 31
0.0
  0
LINE
  5
298
330
6F
100
AcDbEntity
  8
0
 62
     0
100
AcDbLine
 10
320.755
 20
139.131
 30
0.0
 11
320.755
 21
153.132
 31
0.0
  0
LINE
  5
299
330
6F
100
AcDbEntity
  8
0
 62
     0
100
AcDbLine
 10
295.323
 20
153.132
 30
0.0
 11
309.324
 21
153.132
 31
0.0
  0
LINE
  5
29A
330
6F
100
AcDbEntity
  8
0
 62
     0
100
AcDbLine
 10
309.324
 20
153.132
 30
0.0
 11
309.324
 21
139.131
 31
0.0
  0
LINE
  5
29B
330
6F
100
AcDbEntity
  8
0
 62
     0
100
AcDbLine
 10
309.324
 20
139.131
 30
0.0
 11
295.323
 21
139.131
 31
0.0
  0
LINE
  5
29C
330
6F
100
AcDbEntity
  8
0
 62
     0
100
AcDbLine
 10
295.323
 20
139.131
 30
0.0
 11
295.323
 21
153.132
 31
0.0
  0
LINE
  5
29D
330
6F
100
AcDbEntity
  8
0
 62
     0
100
AcDbLine
 10
6.42994
 20
153.132
 30
0.0
 11
20.4308
 21
153.132
 31
0.0
  0
LINE
  5
29E
330
6F
100
AcDbEntity
  8
0
 62
     0
100
AcDbLine
 10
20.4308
 20
153.132
 30
0.0
 11
20.4308
 21
139.131
 31
0.0
  0
LINE
  5
29F
330
6F
100
AcDbEntity
  8
0
 62
     0
100
AcDbLine
 10
20.4308
 20
139.131
 30
0.0
 11
6.42994
 21
139.131
 31
0.0
  0
LINE
  5
2A0
330
6F
100
AcDbEntity
  8
0
 62
     0
100
AcDbLine
 10
6.42994
 20
139.131
 30
0.0
 11
6.42994
 21
153.132
 31
0.0
  0
LINE
  5
2A1
330
6F
100
AcDbEntity
  8
0
 62
     0
100
AcDbLine
 10
250.271
 20
154.084
 30
0.0
 11
264.27
 21
154.084
 31
0.0
  0
LINE
  5
2A2
330
6F
100
AcDbEntity
  8
0
 62
     0
100
AcDbLine
 10
264.27
 20
154.084
 30
0.0
 11
264.27
 21
140.083
 31
0.0
  0
LINE
  5
2A3
330
6F
100
AcDbEntity
  8
0
 62
     0
100
AcDbLine
 10
264.27
 20
140.083
 30
0.0
 11
250.271
 21
140.083
 31
0.0
  0
LINE
  5
2A4
330
6F
100
AcDbEntity
  8
0
 62
     0
100
AcDbLine
 10
250.271
 20
140.083
 30
0.0
 11
250.271
 21
154.084
 31
0.0
  0
LINE
  5
2A5
330
6F
100
AcDbEntity
  8
0
 62
     0
100
AcDbLine
 10
50.2461
 20
154.084
 30
0.0
 11
64.2454
 21
154.084
 31
0.0
  0
LINE
  5
2A6
330
6F
100
AcDbEntity
  8
0
 62
     0
100
AcDbLine
 10
64.2454
 20
154.084
 30
0.0
 11
64.2454
 21
140.083
 31
0.0
  0
LINE
  5
2A7
330
6F
100
AcDbEntity
  8
0
 62
     0
100
AcDbLine
 10
64.2454
 20
140.083
 30
0.0
 11
50.2461
 21
140.083
 31
0.0
  0
LINE
  5
2A8
330
6F
100
AcDbEntity
  8
0
 62
     0
100
AcDbLine
 10
50.2461
 20
140.083
 30
0.0
 11
50.2461
 21
154.084
 31
0.0
  0
LINE
  5
2A9
330
6F
100
AcDbEntity
  8
0
 62
     0
100
AcDbLine
 10
269.321
 20
154.084
 30
0.0
 11
283.32
 21
154.084
 31
0.0
  0
LINE
  5
2AA
330
6F
100
AcDbEntity
  8
0
 62
     0
100
AcDbLine
 10
283.32
 20
154.084
 30
0.0
 11
283.32
 21
140.083
 31
0.0
  0
LINE
  5
2AB
330
6F
100
AcDbEntity
  8
0
 62
     0
100
AcDbLine
 10
283.32
 20
140.083
 30
0.0
 11
269.321
 21
140.083
 31
0.0
  0
LINE
  5
2AC
330
6F
100
AcDbEntity
  8
0
 62
     0
100
AcDbLine
 10
269.321
 20
140.083
 30
0.0
 11
269.321
 21
154.084
 31
0.0
  0
LINE
  5
2AD
330
6F
100
AcDbEntity
  8
0
 62
     0
100
AcDbLine
 10
31.196
 20
154.084
 30
0.0
 11
45.1954
 21
154.084
 31
0.0
  0
LINE
  5
2AE
330
6F
100
AcDbEntity
  8
0
 62
     0
100
AcDbLine
 10
45.1954
 20
154.084
 30
0.0
 11
45.1954
 21
140.083
 31
0.0
  0
LINE
  5
2AF
330
6F
100
AcDbEntity
  8
0
 62
     0
100
AcDbLine
 10
45.1954
 20
140.083
 30
0.0
 11
31.196
 21
140.083
 31
0.0
  0
LINE
  5
2B0
330
6F
100
AcDbEntity
  8
0
 62
     0
100
AcDbLine
 10
31.196
 20
140.083
 30
0.0
 11
31.196
 21
154.084
 31
0.0
  0
LWPOLYLINE
  5
2CF
330
6F
100
AcDbEntity
  8
0
100
AcDbPolyline
 90
        5
 70
     1
 43
0.0
 10
26.33597364325579
 20
47.910461407619
 10
28.87597364325575
 20
47.910461407619
 10
28.87597364325575
 20
44.35446140761905
 10
26.33597364325579
 20
44.35446140761905
 10
26.33597364325579
 20
47.910461407619
  0
CIRCLE
  5
2E1
330
6F
100
AcDbEntity
  8
0
100
AcDbCircle
 10
142.235212395502
 20
69.04474722132545
 30
0.0
 40
2.032
  0
CIRCLE
  5
2E2
330
6F
100
AcDbEntity
  8
0
100
AcDbCircle
 10
151.7602123955021
 20
69.04474722132545
 30
0.0
 40
3.048
  0
CIRCLE
  5
2E3
330
6F
100
AcDbEntity
  8
0
100
AcDbCircle
 10
161.2852123955018
 20
69.04474722132545
 30
0.0
 40
2.032
  0
CIRCLE
  5
2EB
330
6F
100
AcDbEntity
  8
0
100
AcDbCircle
 10
177.1131346542435
 20
77.7043941967494
 30
0.0
 40
2.032
  0
CIRCLE
  5
2EC
330
6F
100
AcDbEntity
  8
0
100
AcDbCircle
 10
186.4299905512332
 20
79.6847530517886
 30
0.0
 40
3.048
  0
CIRCLE
  5
2ED
330
6F
100
AcDbEntity
  8
0
100
AcDbCircle
 10
195.7468464482224
 20
81.6651119068277
 30
0.0
 40
2.032
  0
CIRCLE
  5
2F5
330
6F
100
AcDbEntity
  8
0
100
AcDbCircle
 10
105.765949048558
 20
67.37390481361924
 30
0.0
 40
2.032
  0
CIRCLE
  5
2F6
330
6F
100
AcDbEntity
  8
0
100
AcDbCircle
 10
115.0828049455476
 20
65.39354595858004
 30
0.0
 40
3.048
  0
CIRCLE
  5
2F7
330
6F
100
AcDbEntity
  8
0
100
AcDbCircle
 10
124.3996608425369
 20
63.41318710354094
 30
0.0
 40
2.032
  0
CIRCLE
  5
309
330
6F
100
AcDbEntity
  8
0
100
AcDbCircle
 10
86.44671402239493
 20
90.96582138883853
 30
0.0
 40
2.032
  0
CIRCLE
  5
30A
330
6F
100
AcDbEntity
  8
0
100
AcDbCircle
 10
95.76356991938459
 20
88.98546253379933
 30
0.0
 40
3.048
  0
CIRCLE
  5
30B
330
6F
100
AcDbEntity
  8
0
100
AcDbCircle
 10
105.0804258163738
 20
87.00510367876026
 30
0.0
 40
2.032
  0
CIRCLE
  5
319
330
6F
100
AcDbEntity
  8
0
100
AcDbCircle
 10
180.871180658133
 20
60.28033671399255
 30
0.0
 40
2.032
  0
CIRCLE
  5
31A
330
6F
100
AcDbEntity
  8
0
100
AcDbCircle
 10
190.1880365551227
 20
62.26069556903175
 30
0.0
 40
3.048
  0
CIRCLE
  5
31B
330
6F
100
AcDbEntity
  8
0
100
AcDbCircle
 10
199.5048924521119
 20
64.24105442407086
 30
0.0
 40
2.032
  0
CIRCLE
  5
323
330
6F
100
AcDbEntity
  8
0
100
AcDbCircle
 10
195.7468464482224
 20
81.6651119068277
 30
0.0
 40
2.032
  0
CIRCLE
  5
324
330
6F
100
AcDbEntity
  8
0
100
AcDbCircle
 10
205.0637023452122
 20
83.6454707618669
 30
0.0
 40
3.048
  0
CIRCLE
  5
325
330
6F
100
AcDbEntity
  8
0
100
AcDbCircle
 10
214.3805582422014
 20
85.62582961690599
 30
0.0
 40
2.032
  0
ENDSEC
  0
SECTION
  2
OBJECTS
  0
DICTIONARY
  5
C
330
0
100
AcDbDictionary
281
     1
  3
ACAD_CIP_PREVIOUS_PRODUCT_INFO
350
2B2
  3
ACAD_COLOR
350
62
  3
ACAD_DETAILVIEWSTYLE
350
69
  3
ACAD_GROUP
350
D
  3
ACAD_LAYOUT
350
61
  3
ACAD_MATERIAL
350
10
  3
ACAD_MLEADERSTYLE
350
65
  3
ACAD_MLINESTYLE
350
5E
  3
ACAD_PLOTSETTINGS
350
60
  3
ACAD_PLOTSTYLENAME
350
E
  3
ACAD_SCALELIST
350
42
  3
ACAD_SECTIONVIEWSTYLE
350
67
  3
ACAD_TABLESTYLE
350
63
  3
ACAD_VISUALSTYLE
350
29
  3
ACDB_RECOMPOSE_DATA
350
364
  3
AcDbVariableDictionary
350
2F8
  0
DICTIONARY
  5
2C8
330
2
100
AcDbDictionary
280
     1
281
     1
  3
ACAD_LAYERSTATES
360
2C9
  0
DICTIONARY
  5
34F
330
54
100
AcDbDictionary
280
     1
281
     1
  3
ADSK_XREC_LAYER_RECONCILED
360
350
  0
XRECORD
  5
2B2
102
{ACAD_REACTORS
330
C
102
}
330
C
100
AcDbXrecord
280
     1
300
ACD
300
2021
300

  0
DICTIONARY
  5
62
102
{ACAD_REACTORS
330
C
102
}
330
C
100
AcDbDictionary
281
     1
  0
DICTIONARY
  5
69
102
{ACAD_REACTORS
330
C
102
}
330
C
100
AcDbDictionary
281
     1
  3
Imperial24
350
6A
  0
DICTIONARY
  5
D
102
{ACAD_REACTORS
330
C
102
}
330
C
100
AcDbDictionary
281
     1
  0
DICTIONARY
  5
61
102
{ACAD_REACTORS
330
C
102
}
330
C
100
AcDbDictionary
281
     1
  3
Layout1
350
6E
  3
Model
350
72
  0
DICTIONARY
  5
10
102
{ACAD_REACTORS
330
C
102
}
330
C
100
AcDbDictionary
281
     1
  3
ByBlock
350
19
  3
ByLayer
350
11
  3
Global
350
21
  0
DICTIONARY
  5
65
102
{ACAD_REACTORS
330
C
102
}
330
C
100
AcDbDictionary
281
     1
  3
Standard
350
66
  0
DICTIONARY
  5
5E
102
{ACAD_REACTORS
330
C
102
}
330
C
100
AcDbDictionary
281
     1
  3
Standard
350
5F
  0
DICTIONARY
  5
60
102
{ACAD_REACTORS
330
C
102
}
330
C
100
AcDbDictionary
281
     1
  0
ACDBDICTIONARYWDFLT
  5
E
102
{ACAD_REACTORS
330
C
102
}
330
C
100
AcDbDictionary
281
     1
  3
Normal
350
F
100
AcDbDictionaryWithDefault
340
F
  0
DICTIONARY
  5
42
102
{ACAD_REACTORS
330
C
102
}
330
C
100
AcDbDictionary
281
     1
  3
A0
350
43
  3
A1
350
44
  3
A2
350
45
  3
A3
350
46
  3
A4
350
47
  3
A5
350
48
  3
A6
350
49
  3
A7
350
4A
  3
A8
350
4B
  3
A9
350
4C
  3
B0
350
4D
  3
B1
350
4E
  3
B2
350
4F
  3
B3
350
50
  3
B4
350
51
  3
B5
350
52
  3
B6
350
53
  0
DICTIONARY
  5
67
102
{ACAD_REACTORS
330
C
102
}
330
C
100
AcDbDictionary
281
     1
  3
Imperial24
350
68
  0
DICTIONARY
  5
63
102
{ACAD_REACTORS
330
C
102
}
330
C
100
AcDbDictionary
281
     1
  3
Standard
350
64
  0
DICTIONARY
  5
29
102
{ACAD_REACTORS
330
C
102
}
330
C
100
AcDbDictionary
281
     1
  3
2dWireframe
350
2F
  3
Basic
350
2E
  3
Brighten
350
35
  3
ColorChange
350
39
  3
Conceptual
350
32
  3
Dim
350
34
  3
EdgeColorOff
350
41
  3
Facepattern
350
38
  3
Flat
350
2A
  3
FlatWithEdges
350
2B
  3
Gouraud
350
2C
  3
GouraudWithEdges
350
2D
  3
Hidden
350
31
  3
JitterOff
350
3F
  3
Linepattern
350
37
  3
OverhangOff
350
40
  3
Realistic
350
33
  3
Shaded
350
3E
  3
Shaded with edges
350
3D
  3
Shades of Gray
350
3A
  3
Sketchy
350
3B
  3
Thicken
350
36
  3
Wireframe
350
30
  3
X-Ray
350
3C
  0
XRECORD
  5
364
102
{ACAD_REACTORS
330
C
102
}
330
C
100
AcDbXrecord
280
     1
 90
        1
330
64
  0
DICTIONARY
  5
2F8
102
{ACAD_REACTORS
330
C
102
}
330
C
100
AcDbDictionary
281
     1
  3
CANNOSCALE
350
2FE
  3
CMLEADERSTYLE
350
2FA
  3
CTABLESTYLE
350
2F9
  3
CVIEWDETAILSTYLE
350
2FB
  3
CVIEWSECTIONSTYLE
350
2FC
  3
LAYEREVAL
350
300
  3
LAYERNOTIFY
350
301
  3
LIGHTINGUNITS
350
2FF
  3
MSLTSCALE
350
2FD
  0
DICTIONARY
  5
2C9
102
{ACAD_REACTORS
330
2C8
102
}
330
2C8
100
AcDbDictionary
281
     1
  0
XRECORD
  5
350
102
{ACAD_REACTORS
330
34F
102
}
330
34F
100
AcDbXrecord
280
     1
290
     1
  0
ACDBDETAILVIEWSTYLE
  5
6A
102
{ACAD_REACTORS
330
69
102
}
330
69
100
AcDbModelDocViewStyle
 70
     0
  3
Imperial24
290
     0
300
Imperial24
 90
        0
100
AcDbDetailViewStyle
 70
     0
 71
     0
 90
        3
 71
     1
340
55
 62
   256
 40
0.24
340
0
 62
   256
 40
0.24
300

 40
0.36
280
     3
 71
     2
340
5C
 90
       25
 62
   256
 71
     3
340
55
 62
   256
 40
0.24
 90
        1
 40
0.75
 90
        1
300
%<\AcVar ViewType \f "%tc1">% %<\AcVar ViewDetailId>%\PSCALE %<\AcVar ViewScale \f "%sn">%
 71
     4
340
5C
 90
       25
 62
   256
340
5C
 90
       25
 62
   256
280
     0
  0
LAYOUT
  5
6E
102
{ACAD_REACTORS
330
61
102
}
330
61
100
AcDbPlotSettings
  1

  2
Microsoft Print to PDF
  4

  6

 40
0.0
 41
0.0
 42
0.0
 43
0.0
 44
0.0
 45
0.0
 46
0.0
 47
0.0
 48
0.0
 49
0.0
140
0.0
141
0.0
142
1.0
143
1.0
 70
   688
 72
     0
 73
     0
 74
     5
  7

 75
    16
147
1.0
 76
     0
 77
     2
 78
   300
148
0.0
149
0.0
100
AcDbLayout
  1
Layout1
 70
     1
 71
     1
 10
0.0
 20
0.0
 11
12.0
 21
9.0
 12
0.0
 22
0.0
 32
0.0
 14
1.000000000000000E+20
 24
1.000000000000000E+20
 34
1.000000000000000E+20
 15
-1.000000000000000E+20
 25
-1.000000000000000E+20
 35
-1.000000000000000E+20
146
0.0
 13
0.0
 23
0.0
 33
0.0
 16
1.0
 26
0.0
 36
0.0
 17
0.0
 27
1.0
 37
0.0
 76
     0
330
6B
  0
LAYOUT
  5
72
102
{ACAD_REACTORS
330
61
102
}
330
61
100
AcDbPlotSettings
  1

  2
Microsoft Print to PDF
  4

  6

 40
0.0
 41
0.0
 42
0.0
 43
0.0
 44
0.0
 45
0.0
 46
0.0
 47
0.0
 48
0.0
 49
0.0
140
0.0
141
0.0
142
1.0
143
1.0
 70
  1712
 72
     0
 73
     0
 74
     0
  7

 75
     0
147
1.0
 76
     0
 77
     2
 78
   300
148
0.0
149
0.0
100
AcDbLayout
  1
Model
 70
     1
 71
     0
 10
0.0
 20
0.0
 11
12.0
 21
9.0
 12
0.0
 22
0.0
 32
0.0
 14
0.0
 24
0.0
 34
0.0
 15
0.0
 25
0.0
 35
0.0
146
0.0
 13
0.0
 23
0.0
 33
0.0
 16
1.0
 26
0.0
 36
0.0
 17
0.0
 27
1.0
 37
0.0
 76
     0
330
6F
331
74
  0
MATERIAL
  5
19
102
{ACAD_XDICTIONARY
360
1A
102
}
102
{ACAD_REACTORS
330
10
102
}
330
10
100
AcDbMaterial
  1
ByBlock
 72
     0
 43
0.0208333333333333
 43
0.0
 43
0.0
 43
0.0
 43
0.0
 43
0.0208333333333333
 43
0.0
 43
0.0
 43
0.0
 43
0.0
 43
1.0
 43
0.0
 43
0.0
 43
0.0
 43
0.0
 43
1.0
 77
     0
 47
0.0208333333333333
 47
0.0
 47
0.0
 47
0.0
 47
0.0
 47
0.0208333333333333
 47
0.0
 47
0.0
 47
0.0
 47
0.0
 47
1.0
 47
0.0
 47
0.0
 47
0.0
 47
0.0
 47
1.0
171
     0
 49
0.0208333333333333
 49
0.0
 49
0.0
 49
0.0
 49
0.0
 49
0.0208333333333333
 49
0.0
 49
0.0
 49
0.0
 49
0.0
 49
1.0
 49
0.0
 49
0.0
 49
0.0
 49
0.0
 49
1.0
175
     0
142
0.0208333333333333
142
0.0
142
0.0
142
0.0
142
0.0
142
0.0208333333333333
142
0.0
142
0.0
142
0.0
142
0.0
142
1.0
142
0.0
142
0.0
142
0.0
142
0.0
142
1.0
179
     0
144
0.0208333333333333
144
0.0
144
0.0
144
0.0
144
0.0
144
0.0208333333333333
144
0.0
144
0.0
144
0.0
144
0.0
144
1.0
144
0.0
144
0.0
144
0.0
144
0.0
144
1.0
147
0.0208333333333333
147
0.0
147
0.0
147
0.0
147
0.0
147
0.0208333333333333
147
0.0
147
0.0
147
0.0
147
0.0
147
1.0
147
0.0
147
0.0
147
0.0
147
0.0
147
1.0
  0
MATERIAL
  5
11
102
{ACAD_XDICTIONARY
360
12
102
}
102
{ACAD_REACTORS
330
10
102
}
330
10
100
AcDbMaterial
  1
ByLayer
 72
     0
 43
0.0208333333333333
 43
0.0
 43
0.0
 43
0.0
 43
0.0
 43
0.0208333333333333
 43
0.0
 43
0.0
 43
0.0
 43
0.0
 43
1.0
 43
0.0
 43
0.0
 43
0.0
 43
0.0
 43
1.0
 77
     0
 47
0.0208333333333333
 47
0.0
 47
0.0
 47
0.0
 47
0.0
 47
0.0208333333333333
 47
0.0
 47
0.0
 47
0.0
 47
0.0
 47
1.0
 47
0.0
 47
0.0
 47
0.0
 47
0.0
 47
1.0
171
     0
 49
0.0208333333333333
 49
0.0
 49
0.0
 49
0.0
 49
0.0
 49
0.0208333333333333
 49
0.0
 49
0.0
 49
0.0
 49
0.0
 49
1.0
 49
0.0
 49
0.0
 49
0.0
 49
0.0
 49
1.0
175
     0
142
0.0208333333333333
142
0.0
142
0.0
142
0.0
142
0.0
142
0.0208333333333333
142
0.0
142
0.0
142
0.0
142
0.0
142
1.0
142
0.0
142
0.0
142
0.0
142
0.0
142
1.0
179
     0
144
0.0208333333333333
144
0.0
144
0.0
144
0.0
144
0.0
144
0.0208333333333333
144
0.0
144
0.0
144
0.0
144
0.0
144
1.0
144
0.0
144
0.0
144
0.0
144
0.0
144
1.0
147
0.0208333333333333
147
0.0
147
0.0
147
0.0
147
0.0
147
0.0208333333333333
147
0.0
147
0.0
147
0.0
147
0.0
147
1.0
147
0.0
147
0.0
147
0.0
147
0.0
147
1.0
  0
MATERIAL
  5
21
102
{ACAD_XDICTIONARY
360
22
102
}
102
{ACAD_REACTORS
330
10
102
}
330
10
100
AcDbMaterial
  1
Global
 72
     0
 43
0.0208333333333333
 43
0.0
 43
0.0
 43
0.0
 43
0.0
 43
0.0208333333333333
 43
0.0
 43
0.0
 43
0.0
 43
0.0
 43
1.0
 43
0.0
 43
0.0
 43
0.0
 43
0.0
 43
1.0
 77
     0
 47
0.0208333333333333
 47
0.0
 47
0.0
 47
0.0
 47
0.0
 47
0.0208333333333333
 47
0.0
 47
0.0
 47
0.0
 47
0.0
 47
1.0
 47
0.0
 47
0.0
 47
0.0
 47
0.0
 47
1.0
171
     0
 49
0.0208333333333333
 49
0.0
 49
0.0
 49
0.0
 49
0.0
 49
0.0208333333333333
 49
0.0
 49
0.0
 49
0.0
 49
0.0
 49
1.0
 49
0.0
 49
0.0
 49
0.0
 49
0.0
 49
1.0
175
     0
142
0.0208333333333333
142
0.0
142
0.0
142
0.0
142
0.0
142
0.0208333333333333
142
0.0
142
0.0
142
0.0
142
0.0
142
1.0
142
0.0
142
0.0
142
0.0
142
0.0
142
1.0
179
     0
144
0.0208333333333333
144
0.0
144
0.0
144
0.0
144
0.0
144
0.0208333333333333
144
0.0
144
0.0
144
0.0
144
0.0
144
1.0
144
0.0
144
0.0
144
0.0
144
0.0
144
1.0
147
0.0208333333333333
147
0.0
147
0.0
147
0.0
147
0.0
147
0.0208333333333333
147
0.0
147
0.0
147
0.0
147
0.0
147
1.0
147
0.0
147
0.0
147
0.0
147
0.0
147
1.0
  0
MLEADERSTYLE
  5
66
102
{ACAD_REACTORS
330
65
102
}
330
65
100
AcDbMLeaderStyle
179
     2
170
     2
171
     1
172
     0
 90
        2
 40
0.0
 41
0.0
173
     1
 91
-1056964608
340
5A
 92
       -2
290
     1
 42
0.09
291
     1
 43
0.36
  3
Standard
 44
0.18
300

342
55
174
     1
178
     6
175
     1
176
     0
 93
-1056964608
 45
0.18
292
     0
297
     0
 46
0.18
 94
-1056964608
 47
1.0
 49
1.0
140
1.0
293
     1
141
0.0
294
     1
177
     0
142
1.0
295
     0
296
     0
143
0.125
271
     0
272
     9
273
     9
298
     0
  0
MLINESTYLE
  5
5F
102
{ACAD_REACTORS
330
5E
102
}
330
5E
100
AcDbMlineStyle
  2
STANDARD
 70
     0
  3

 62
   256
 51
90.0
 52
90.0
 71
     2
 49
0.5
 62
   256
  6
BYLAYER
 49
-0.5
 62
   256
  6
BYLAYER
  0
ACDBPLACEHOLDER
  5
F
102
{ACAD_REACTORS
330
E
102
}
330
E
  0
SCALE
  5
43
102
{ACAD_REACTORS
330
42
102
}
330
42
100
AcDbScale
 70
     0
300
1:1
140
1.0
141
1.0
290
     1
  0
SCALE
  5
44
102
{ACAD_REACTORS
330
42
102
}
330
42
100
AcDbScale
 70
     0
300
1/128" = 1'-0"
140
0.0078125
141
12.0
290
     0
  0
SCALE
  5
45
102
{ACAD_REACTORS
330
42
102
}
330
42
100
AcDbScale
 70
     0
300
1/64" = 1'-0"
140
0.015625
141
12.0
290
     0
  0
SCALE
  5
46
102
{ACAD_REACTORS
330
42
102
}
330
42
100
AcDbScale
 70
     0
300
1/32" = 1'-0"
140
0.03125
141
12.0
290
     0
  0
SCALE
  5
47
102
{ACAD_REACTORS
330
42
102
}
330
42
100
AcDbScale
 70
     0
300
1/16" = 1'-0"
140
0.0625
141
12.0
290
     0
  0
SCALE
  5
48
102
{ACAD_REACTORS
330
42
102
}
330
42
100
AcDbScale
 70
     0
300
3/32" = 1'-0"
140
0.09375
141
12.0
290
     0
  0
SCALE
  5
49
102
{ACAD_REACTORS
330
42
102
}
330
42
100
AcDbScale
 70
     0
300
1/8" = 1'-0"
140
0.125
141
12.0
290
     0
  0
SCALE
  5
4A
102
{ACAD_REACTORS
330
42
102
}
330
42
100
AcDbScale
 70
     0
300
3/16" = 1'-0"
140
0.1875
141
12.0
290
     0
  0
SCALE
  5
4B
102
{ACAD_REACTORS
330
42
102
}
330
42
100
AcDbScale
 70
     0
300
1/4" = 1'-0"
140
0.25
141
12.0
290
     0
  0
SCALE
  5
4C
102
{ACAD_REACTORS
330
42
102
}
330
42
100
AcDbScale
 70
     0
300
3/8" = 1'-0"
140
0.375
141
12.0
290
     0
  0
SCALE
  5
4D
102
{ACAD_REACTORS
330
42
102
}
330
42
100
AcDbScale
 70
     0
300
1/2" = 1'-0"
140
0.5
141
12.0
290
     0
  0
SCALE
  5
4E
102
{ACAD_REACTORS
330
42
102
}
330
42
100
AcDbScale
 70
     0
300
3/4" = 1'-0"
140
0.75
141
12.0
290
     0
  0
SCALE
  5
4F
102
{ACAD_REACTORS
330
42
102
}
330
42
100
AcDbScale
 70
     0
300
1" = 1'-0"
140
1.0
141
12.0
290
     0
  0
SCALE
  5
50
102
{ACAD_REACTORS
330
42
102
}
330
42
100
AcDbScale
 70
     0
300
1-1/2" = 1'-0"
140
1.5
141
12.0
290
     0
  0
SCALE
  5
51
102
{ACAD_REACTORS
330
42
102
}
330
42
100
AcDbScale
 70
     0
300
3" = 1'-0"
140
3.0
141
12.0
290
     0
  0
SCALE
  5
52
102
{ACAD_REACTORS
330
42
102
}
330
42
100
AcDbScale
 70
     0
300
6" = 1'-0"
140
6.0
141
12.0
290
     0
  0
SCALE
  5
53
102
{ACAD_REACTORS
330
42
102
}
330
42
100
AcDbScale
 70
     0
300
1'-0" = 1'-0"
140
12.0
141
12.0
290
     0
  0
ACDBSECTIONVIEWSTYLE
  5
68
102
{ACAD_REACTORS
330
67
102
}
330
67
100
AcDbModelDocViewStyle
 70
     0
  3
Imperial24
290
     0
300
Imperial24
 90
        0
100
AcDbSectionViewStyle
 70
     0
 71
     0
 90
       78
 71
     1
340
55
 62
   256
 40
0.24
340
0
340
0
 62
   256
 40
0.24
300
I, O, Q, S, X, Z
 40
0.48
 90
        3
 40
0.18
 90
        1
 71
     2
340
5C
 90
       25
 62
   256
340
5C
 90
       50
 62
   256
 40
0.24
 40
0.0
 40
0.24
 71
     3
340
55
 62
   256
 40
0.24
 90
        1
 40
0.75
 90
        1
300
%<\AcVar ViewType \f "%tc1">% %<\AcVar ViewSectionStartId>%-%<\AcVar ViewSectionEndId>%\PSCALE %<\AcVar ViewScale \f "%sn">%
 71
     4
 62
   256
 62
   257
300
ANSI31
 40
1.0
 90
        0
290
     0
290
     0
 90
        6
 40
0.0
 40
1.570796326794896
 40
0.2617993877991494
 40
1.308996938995747
 40
-0.2617993877991494
 40
1.832595714594046
  0
TABLESTYLE
  5
64
102
{ACAD_XDICTIONARY
360
362
102
}
102
{ACAD_REACTORS
330
63
102
}
330
63
100
AcDbTableStyle
280
     0
  3
Standard
 70
     0
 71
     0
 40
0.06
 41
0.06
280
     0
281
     0
  7
Standard
140
0.18
170
     2
 62
     0
 63
     7
283
     0
 90
      512
 91
        0
  1

274
    -2
284
     1
 64
     0
275
    -2
285
     1
 65
     0
276
    -2
286
     1
 66
     0
277
    -2
287
     1
 67
     0
278
    -2
288
     1
 68
     0
279
    -2
289
     1
 69
     0
  7
Standard
140
0.25
170
     5
 62
     0
 63
     7
283
     0
 90
      512
 91
        0
  1

274
    -2
284
     1
 64
     0
275
    -2
285
     1
 65
     0
276
    -2
286
     1
 66
     0
277
    -2
287
     1
 67
     0
278
    -2
288
     1
 68
     0
279
    -2
289
     1
 69
     0
  7
Standard
140
0.18
170
     5
 62
     0
 63
     7
283
     0
 90
      512
 91
        0
  1

274
    -2
284
     1
 64
     0
275
    -2
285
     1
 65
     0
276
    -2
286
     1
 66
     0
277
    -2
287
     1
 67
     0
278
    -2
288
     1
 68
     0
279
    -2
289
     1
 69
     0
  0
VISUALSTYLE
  5
2F
102
{ACAD_REACTORS
330
29
102
}
330
29
100
AcDbVisualStyle
  2
2dWireframe
 70
     4
177
     3
291
     0
 70
    58
 90
        0
176
     1
 90
        2
176
     1
 90
        0
176
     1
 90
        0
176
     1
 40
0.6
176
     1
 40
30.0
176
     1
 62
     7
420
 16777215
176
     1
 90
        1
176
     1
 90
        4
176
     1
 62
     7
176
     1
 62
   257
176
     1
 90
        1
176
     1
 90
        1
176
     1
 40
1.0
176
     1
 90
        0
176
     1
 62
   257
176
     1
 40
1.0
176
     1
 90
        1
176
     1
 90
        6
176
     1
 90
        2
176
     1
 62
     7
176
     1
 90
        5
176
     1
 90
        0
176
     1
 90
        0
176
     1
290
     0
176
     1
 90
        1
176
     1
 40
0.0
176
     1
 90
        0
176
     1
290
     1
176
     1
290
     1
176
     1
290
     0
176
     1
290
     0
176
     1
290
     0
176
     1
290
     0
176
     1
290
     0
176
     1
290
     0
176
     1
290
     0
176
     1
 90
       50
176
     1
 40
0.0
176
     1
 40
1.0
176
     1
 90
        0
176
     1
 62
    18
420
        0
176
     1
 90
       50
176
     1
 90
        3
176
     1
 62
     5
420
      255
176
     1
290
     0
176
     1
 90
       50
176
     1
 90
       50
176
     1
 90
       50
176
     1
290
     0
176
     1
 90
       50
176
     1
 62
   256
176
     0
 40
1.0
176
     0
 90
        2
176
     1
  1
strokes_ogs.tif
176
     1
290
     0
176
     1
 40
1.0
176
     1
 40
1.0
176
     1
  0
VISUALSTYLE
  5
2E
102
{ACAD_REACTORS
330
29
102
}
330
29
100
AcDbVisualStyle
  2
Basic
 70
     7
177
     3
291
     1
 70
    58
 90
        1
176
     1
 90
        0
176
     1
 90
        1
176
     1
 90
        0
176
     1
 40
0.6
176
     1
 40
30.0
176
     1
 62
     7
420
 16777215
176
     1
 90
        0
176
     1
 90
        4
176
     1
 62
     7
176
     1
 62
   257
176
     1
 90
        1
176
     1
 90
        1
176
     1
 40
1.0
176
     1
 90
        8
176
     1
 62
     7
176
     1
 40
1.0
176
     1
 90
        1
176
     1
 90
        6
176
     1
 90
        2
176
     1
 62
     7
176
     1
 90
        5
176
     1
 90
        0
176
     1
 90
        0
176
     1
290
     0
176
     1
 90
        1
176
     1
 40
0.0
176
     1
 90
        0
176
     1
290
     0
176
     1
290
     1
176
     1
290
     1
176
     1
290
     0
176
     1
290
     0
176
     1
290
     0
176
     1
290
     0
176
     1
290
     0
176
     1
290
     0
176
     1
 90
       50
176
     1
 40
0.0
176
     1
 40
1.0
176
     1
 90
        0
176
     1
 62
    18
420
        0
176
     1
 90
       50
176
     1
 90
        3
176
     1
 62
     5
420
      255
176
     1
290
     0
176
     1
 90
       50
176
     1
 90
       50
176
     1
 90
       50
176
     1
290
     0
176
     1
 90
       50
176
     1
 62
   256
176
     0
 40
1.0
176
     0
 90
        2
176
     1
  1
strokes_ogs.tif
176
     1
290
     0
176
     1
 40
1.0
176
     1
 40
1.0
176
     1
  0
VISUALSTYLE
  5
35
102
{ACAD_REACTORS
330
29
102
}
330
29
100
AcDbVisualStyle
  2
Brighten
 70
    12
177
     3
291
     1
 70
    58
 90
        2
176
     1
 90
        2
176
     1
 90
        0
176
     1
 90
        0
176
     1
 40
0.6
176
     1
 40
30.0
176
     1
 62
     7
420
 16777215
176
     1
 90
        1
176
     1
 90
        4
176
     1
 62
     7
176
     1
 62
   257
176
     1
 90
        1
176
     1
 90
        1
176
     1
 40
1.0
176
     1
 90
        8
176
     1
 62
     7
176
     1
 40
1.0
176
     1
 90
        1
176
     1
 90
        6
176
     1
 90
        2
176
     1
 62
     7
176
     1
 90
        5
176
     1
 90
        0
176
     1
 90
        0
176
     1
290
     0
176
     1
 90
        1
176
     1
 40
50.0
176
     1
 90
        0
176
     1
290
     0
176
     1
290
     1
176
     1
290
     1
176
     1
290
     0
176
     1
290
     0
176
     1
290
     0
176
     1
290
     0
176
     1
290
     0
176
     1
290
     0
176
     1
 90
       50
176
     1
 40
0.0
176
     1
 40
1.0
176
     1
 90
        0
176
     1
 62
    18
420
        0
176
     1
 90
       50
176
     1
 90
        3
176
     1
 62
     5
420
      255
176
     1
290
     0
176
     1
 90
       50
176
     1
 90
       50
176
     1
 90
       50
176
     1
290
     0
176
     1
 90
       50
176
     1
 62
   256
176
     0
 40
1.0
176
     0
 90
        2
176
     1
  1
strokes_ogs.tif
176
     1
290
     0
176
     1
 40
1.0
176
     1
 40
1.0
176
     1
  0
VISUALSTYLE
  5
39
102
{ACAD_REACTORS
330
29
102
}
330
29
100
AcDbVisualStyle
  2
ColorChange
 70
    16
177
     3
291
     1
 70
    58
 90
        2
176
     1
 90
        2
176
     1
 90
        3
176
     1
 90
        0
176
     1
 40
0.6
176
     1
 40
30.0
176
     1
 62
     8
420
  8421504
176
     1
 90
        1
176
     1
 90
        4
176
     1
 62
     7
176
     1
 62
   257
176
     1
 90
        1
176
     1
 90
        1
176
     1
 40
1.0
176
     1
 90
        8
176
     1
 62
     8
420
  8421504
176
     1
 40
1.0
176
     1
 90
        1
176
     1
 90
        6
176
     1
 90
        2
176
     1
 62
     7
176
     1
 90
        5
176
     1
 90
        0
176
     1
 90
        0
176
     1
290
     0
176
     1
 90
        1
176
     1
 40
0.0
176
     1
 90
        0
176
     1
290
     0
176
     1
290
     1
176
     1
290
     1
176
     1
290
     0
176
     1
290
     0
176
     1
290
     0
176
     1
290
     0
176
     1
290
     0
176
     1
290
     0
176
     1
 90
       50
176
     1
 40
0.0
176
     1
 40
1.0
176
     1
 90
        0
176
     1
 62
    18
420
        0
176
     1
 90
       50
176
     1
 90
        3
176
     1
 62
     5
420
      255
176
     1
290
     0
176
     1
 90
       50
176
     1
 90
       50
176
     1
 90
       50
176
     1
290
     0
176
     1
 90
       50
176
     1
 62
   256
176
     0
 40
1.0
176
     0
 90
        2
176
     1
  1
strokes_ogs.tif
176
     1
290
     0
176
     1
 40
1.0
176
     1
 40
1.0
176
     1
  0
VISUALSTYLE
  5
32
102
{ACAD_REACTORS
330
29
102
}
330
29
100
AcDbVisualStyle
  2
Conceptual
 70
     9
177
     3
291
     0
 70
    58
 90
        3
176
     1
 90
        2
176
     1
 90
        0
176
     1
 90
        0
176
     1
 40
0.6
176
     1
 40
30.0
176
     1
 62
     7
420
 16777215
176
     1
 90
        2
176
     1
 90
        2
176
     1
 62
     7
176
     1
 62
   257
176
     1
 90
        1
176
     1
 90
        1
176
     1
 40
179.0
176
     1
 90
        8
176
     1
 62
     7
176
     1
 40
1.0
176
     1
 90
        1
176
     1
 90
        6
176
     1
 90
        2
176
     1
 62
     7
176
     1
 90
        3
176
     1
 90
        0
176
     1
 90
        0
176
     1
290
     0
176
     1
 90
        1
176
     1
 40
0.0
176
     1
 90
        0
176
     1
290
     0
176
     1
290
     1
176
     1
290
     1
176
     1
290
     0
176
     1
290
     0
176
     1
290
     0
176
     1
290
     0
176
     1
290
     0
176
     1
290
     0
176
     1
 90
       50
176
     1
 40
0.0
176
     1
 40
1.0
176
     1
 90
        0
176
     1
 62
    18
420
        0
176
     1
 90
       50
176
     1
 90
        3
176
     1
 62
     5
420
      255
176
     1
290
     0
176
     1
 90
       50
176
     1
 90
       50
176
     1
 90
       50
176
     1
290
     0
176
     1
 90
       50
176
     1
 62
   256
176
     0
 40
1.0
176
     0
 90
        2
176
     1
  1
strokes_ogs.tif
176
     1
290
     0
176
     1
 40
1.0
176
     1
 40
1.0
176
     1
  0
VISUALSTYLE
  5
34
102
{ACAD_REACTORS
330
29
102
}
330
29
100
AcDbVisualStyle
  2
Dim
 70
    11
177
     3
291
     1
 70
    58
 90
        2
176
     1
 90
        2
176
     1
 90
        0
176
     1
 90
        0
176
     1
 40
0.6
176
     1
 40
30.0
176
     1
 62
     7
420
 16777215
176
     1
 90
        1
176
     1
 90
        4
176
     1
 62
     7
176
     1
 62
   257
176
     1
 90
        1
176
     1
 90
        1
176
     1
 40
1.0
176
     1
 90
        8
176
     1
 62
     7
176
     1
 40
1.0
176
     1
 90
        1
176
     1
 90
        6
176
     1
 90
        2
176
     1
 62
     7
176
     1
 90
        5
176
     1
 90
        0
176
     1
 90
        0
176
     1
290
     0
176
     1
 90
        1
176
     1
 40
-50.0
176
     1
 90
        0
176
     1
290
     0
176
     1
290
     1
176
     1
290
     1
176
     1
290
     0
176
     1
290
     0
176
     1
290
     0
176
     1
290
     0
176
     1
290
     0
176
     1
290
     0
176
     1
 90
       50
176
     1
 40
0.0
176
     1
 40
1.0
176
     1
 90
        0
176
     1
 62
    18
420
        0
176
     1
 90
       50
176
     1
 90
        3
176
     1
 62
     5
420
      255
176
     1
290
     0
176
     1
 90
       50
176
     1
 90
       50
176
     1
 90
       50
176
     1
290
     0
176
     1
 90
       50
176
     1
 62
   256
176
     0
 40
1.0
176
     0
 90
        2
176
     1
  1
strokes_ogs.tif
176
     1
290
     0
176
     1
 40
1.0
176
     1
 40
1.0
176
     1
  0
VISUALSTYLE
  5
41
102
{ACAD_REACTORS
330
29
102
}
330
29
100
AcDbVisualStyle
  2
EdgeColorOff
 70
    22
177
     3
291
     1
 70
    58
 90
        2
176
     0
 90
        2
176
     0
 90
        0
176
     0
 90
        0
176
     0
 40
0.6
176
     0
 40
30.0
176
     0
 62
     7
420
 16777215
176
     0
 90
        1
176
     0
 90
        4
176
     0
 62
     7
176
     0
 62
   257
176
     0
 90
        1
176
     0
 90
        1
176
     0
 40
1.0
176
     0
 90
        8
176
     2
 62
     7
176
     0
 40
1.0
176
     0
 90
        1
176
     0
 90
        6
176
     0
 90
        2
176
     0
 62
     7
176
     0
 90
        5
176
     0
 90
        0
176
     0
 90
        0
176
     0
290
     0
176
     0
 90
        1
176
     0
 40
0.0
176
     0
 90
        0
176
     0
290
     0
176
     1
290
     1
176
     1
290
     1
176
     1
290
     0
176
     1
290
     0
176
     1
290
     0
176
     1
290
     0
176
     1
290
     0
176
     1
290
     0
176
     1
 90
       50
176
     0
 40
0.0
176
     0
 40
1.0
176
     0
 90
        0
176
     0
 62
    18
420
        0
176
     0
 90
       50
176
     0
 90
        3
176
     0
 62
     5
420
      255
176
     0
290
     0
176
     1
 90
       50
176
     0
 90
       50
176
     0
 90
       50
176
     0
290
     0
176
     1
 90
       50
176
     0
 62
   256
176
     0
 40
1.0
176
     0
 90
        2
176
     0
  1
strokes_ogs.tif
176
     0
290
     0
176
     1
 40
1.0
176
     0
 40
1.0
176
     0
  0
VISUALSTYLE
  5
38
102
{ACAD_REACTORS
330
29
102
}
330
29
100
AcDbVisualStyle
  2
Facepattern
 70
    15
177
     3
291
     1
 70
    58
 90
        2
176
     1
 90
        2
176
     1
 90
        0
176
     1
 90
        0
176
     1
 40
0.6
176
     1
 40
30.0
176
     1
 62
     7
420
 16777215
176
     1
 90
        1
176
     1
 90
        4
176
     1
 62
     7
176
     1
 62
   257
176
     1
 90
        1
176
     1
 90
        1
176
     1
 40
1.0
176
     1
 90
        8
176
     1
 62
     7
176
     1
 40
1.0
176
     1
 90
        1
176
     1
 90
        6
176
     1
 90
        2
176
     1
 62
     7
176
     1
 90
        5
176
     1
 90
        0
176
     1
 90
        0
176
     1
290
     0
176
     1
 90
        1
176
     1
 40
0.0
176
     1
 90
        0
176
     1
290
     0
176
     1
290
     1
176
     1
290
     1
176
     1
290
     0
176
     1
290
     0
176
     1
290
     0
176
     1
290
     0
176
     1
290
     0
176
     1
290
     0
176
     1
 90
       50
176
     1
 40
0.0
176
     1
 40
1.0
176
     1
 90
        0
176
     1
 62
    18
420
        0
176
     1
 90
       50
176
     1
 90
        3
176
     1
 62
     5
420
      255
176
     1
290
     0
176
     1
 90
       50
176
     1
 90
       50
176
     1
 90
       50
176
     1
290
     0
176
     1
 90
       50
176
     1
 62
   256
176
     0
 40
1.0
176
     0
 90
        2
176
     1
  1
strokes_ogs.tif
176
     1
290
     0
176
     1
 40
1.0
176
     1
 40
1.0
176
     1
  0
VISUALSTYLE
  5
2A
102
{ACAD_REACTORS
330
29
102
}
330
29
100
AcDbVisualStyle
  2
Flat
 70
     0
177
     3
291
     1
 70
    58
 90
        2
176
     1
 90
        1
176
     1
 90
        1
176
     1
 90
        2
176
     1
 40
0.6
176
     1
 40
30.0
176
     1
 62
     7
420
 16777215
176
     1
 90
        0
176
     1
 90
        0
176
     1
 62
     7
176
     1
 62
   257
176
     1
 90
        1
176
     1
 90
        1
176
     1
 40
1.0
176
     1
 90
        8
176
     1
 62
     7
176
     1
 40
1.0
176
     1
 90
        1
176
     1
 90
        6
176
     1
 90
        2
176
     1
 62
     7
176
     1
 90
        5
176
     1
 90
        0
176
     1
 90
        0
176
     1
290
     0
176
     1
 90
       13
176
     1
 40
0.0
176
     1
 90
        0
176
     1
290
     0
176
     1
290
     1
176
     1
290
     1
176
     1
290
     0
176
     1
290
     0
176
     1
290
     0
176
     1
290
     0
176
     1
290
     0
176
     1
290
     0
176
     1
 90
       50
176
     1
 40
0.0
176
     1
 40
1.0
176
     1
 90
        0
176
     1
 62
    18
420
        0
176
     1
 90
       50
176
     1
 90
        3
176
     1
 62
     5
420
      255
176
     1
290
     0
176
     1
 90
       50
176
     1
 90
       50
176
     1
 90
       50
176
     1
290
     0
176
     1
 90
       50
176
     1
 62
   256
176
     0
 40
1.0
176
     0
 90
        2
176
     1
  1
strokes_ogs.tif
176
     1
290
     0
176
     1
 40
1.0
176
     1
 40
1.0
176
     1
  0
VISUALSTYLE
  5
2B
102
{ACAD_REACTORS
330
29
102
}
330
29
100
AcDbVisualStyle
  2
FlatWithEdges
 70
     1
177
     3
291
     1
 70
    58
 90
        2
176
     1
 90
        1
176
     1
 90
        1
176
     1
 90
        2
176
     1
 40
0.6
176
     1
 40
30.0
176
     1
 62
     7
420
 16777215
176
     1
 90
        1
176
     1
 90
        0
176
     1
 62
     7
176
     1
 62
   257
176
     1
 90
        1
176
     1
 90
        1
176
     1
 40
1.0
176
     1
 90
        0
176
     1
 62
   257
176
     1
 40
1.0
176
     1
 90
        1
176
     1
 90
        6
176
     1
 90
        2
176
     1
 62
     7
176
     1
 90
        5
176
     1
 90
        0
176
     1
 90
        0
176
     1
290
     0
176
     1
 90
       13
176
     1
 40
0.0
176
     1
 90
        0
176
     1
290
     0
176
     1
290
     1
176
     1
290
     1
176
     1
290
     0
176
     1
290
     0
176
     1
290
     0
176
     1
290
     0
176
     1
290
     0
176
     1
290
     0
176
     1
 90
       50
176
     1
 40
0.0
176
     1
 40
1.0
176
     1
 90
        0
176
     1
 62
    18
420
        0
176
     1
 90
       50
176
     1
 90
        3
176
     1
 62
     5
420
      255
176
     1
290
     0
176
     1
 90
       50
176
     1
 90
       50
176
     1
 90
       50
176
     1
290
     0
176
     1
 90
       50
176
     1
 62
   256
176
     0
 40
1.0
176
     0
 90
        2
176
     1
  1
strokes_ogs.tif
176
     1
290
     0
176
     1
 40
1.0
176
     1
 40
1.0
176
     1
  0
VISUALSTYLE
  5
2C
102
{ACAD_REACTORS
330
29
102
}
330
29
100
AcDbVisualStyle
  2
Gouraud
 70
     2
177
     3
291
     1
 70
    58
 90
        2
176
     1
 90
        2
176
     1
 90
        1
176
     1
 90
        2
176
     1
 40
0.6
176
     1
 40
30.0
176
     1
 62
     7
420
 16777215
176
     1
 90
        0
176
     1
 90
        0
176
     1
 62
     7
176
     1
 62
   257
176
     1
 90
        1
176
     1
 90
        1
176
     1
 40
1.0
176
     1
 90
        0
176
     1
 62
     7
176
     1
 40
1.0
176
     1
 90
        1
176
     1
 90
        6
176
     1
 90
        2
176
     1
 62
     7
176
     1
 90
        5
176
     1
 90
        0
176
     1
 90
        0
176
     1
290
     0
176
     1
 90
       13
176
     1
 40
0.0
176
     1
 90
        0
176
     1
290
     0
176
     1
290
     1
176
     1
290
     1
176
     1
290
     0
176
     1
290
     0
176
     1
290
     0
176
     1
290
     0
176
     1
290
     0
176
     1
290
     0
176
     1
 90
       50
176
     1
 40
0.0
176
     1
 40
1.0
176
     1
 90
        0
176
     1
 62
    18
420
        0
176
     1
 90
       50
176
     1
 90
        3
176
     1
 62
     5
420
      255
176
     1
290
     0
176
     1
 90
       50
176
     1
 90
       50
176
     1
 90
       50
176
     1
290
     0
176
     1
 90
       50
176
     1
 62
   256
176
     0
 40
1.0
176
     0
 90
        2
176
     1
  1
strokes_ogs.tif
176
     1
290
     0
176
     1
 40
1.0
176
     1
 40
1.0
176
     1
  0
VISUALSTYLE
  5
2D
102
{ACAD_REACTORS
330
29
102
}
330
29
100
AcDbVisualStyle
  2
GouraudWithEdges
 70
     3
177
     3
291
     1
 70
    58
 90
        2
176
     1
 90
        2
176
     1
 90
        1
176
     1
 90
        2
176
     1
 40
0.6
176
     1
 40
30.0
176
     1
 62
     7
420
 16777215
176
     1
 90
        1
176
     1
 90
        0
176
     1
 62
     7
176
     1
 62
   257
176
     1
 90
        1
176
     1
 90
        1
176
     1
 40
1.0
176
     1
 90
        0
176
     1
 62
   257
176
     1
 40
1.0
176
     1
 90
        1
176
     1
 90
        6
176
     1
 90
        2
176
     1
 62
     7
176
     1
 90
        5
176
     1
 90
        0
176
     1
 90
        0
176
     1
290
     0
176
     1
 90
       13
176
     1
 40
0.0
176
     1
 90
        0
176
     1
290
     0
176
     1
290
     1
176
     1
290
     1
176
     1
290
     0
176
     1
290
     0
176
     1
290
     0
176
     1
290
     0
176
     1
290
     0
176
     1
290
     0
176
     1
 90
       50
176
     1
 40
0.0
176
     1
 40
1.0
176
     1
 90
        0
176
     1
 62
    18
420
        0
176
     1
 90
       50
176
     1
 90
        3
176
     1
 62
     5
420
      255
176
     1
290
     0
176
     1
 90
       50
176
     1
 90
       50
176
     1
 90
       50
176
     1
290
     0
176
     1
 90
       50
176
     1
 62
   256
176
     0
 40
1.0
176
     0
 90
        2
176
     1
  1
strokes_ogs.tif
176
     1
290
     0
176
     1
 40
1.0
176
     1
 40
1.0
176
     1
  0
VISUALSTYLE
  5
31
102
{ACAD_REACTORS
330
29
102
}
330
29
100
AcDbVisualStyle
  2
Hidden
 70
     6
177
     3
291
     0
 70
    58
 90
        1
176
     1
 90
        2
176
     1
 90
        2
176
     1
 90
        0
176
     1
 40
0.6
176
     1
 40
30.0
176
     1
 62
     7
420
 16777215
176
     1
 90
        2
176
     1
 90
        2
176
     1
 62
     7
176
     1
 62
   257
176
     1
 90
        2
176
     1
 90
        1
176
     1
 40
40.0
176
     1
 90
        0
176
     1
 62
   257
176
     1
 40
1.0
176
     1
 90
        1
176
     1
 90
        6
176
     1
 90
        2
176
     1
 62
     7
176
     1
 90
        3
176
     1
 90
        0
176
     1
 90
        0
176
     1
290
     0
176
     1
 90
        1
176
     1
 40
0.0
176
     1
 90
        0
176
     1
290
     0
176
     1
290
     1
176
     1
290
     1
176
     1
290
     0
176
     1
290
     0
176
     1
290
     0
176
     1
290
     0
176
     1
290
     0
176
     1
290
     0
176
     1
 90
       50
176
     1
 40
0.0
176
     1
 40
1.0
176
     1
 90
        0
176
     1
 62
    18
420
        0
176
     1
 90
       50
176
     1
 90
        3
176
     1
 62
     5
420
      255
176
     1
290
     0
176
     1
 90
       50
176
     1
 90
       50
176
     1
 90
       50
176
     1
290
     0
176
     1
 90
       50
176
     1
 62
   256
176
     0
 40
1.0
176
     0
 90
        2
176
     1
  1
strokes_ogs.tif
176
     1
290
     0
176
     1
 40
1.0
176
     1
 40
1.0
176
     1
  0
VISUALSTYLE
  5
3F
102
{ACAD_REACTORS
330
29
102
}
330
29
100
AcDbVisualStyle
  2
JitterOff
 70
    20
177
     3
291
     1
 70
    58
 90
        2
176
     0
 90
        2
176
     0
 90
        0
176
     0
 90
        0
176
     0
 40
0.6
176
     0
 40
30.0
176
     0
 62
     7
420
 16777215
176
     0
 90
        1
176
     0
 90
        4
176
     0
 62
     7
176
     0
 62
   257
176
     0
 90
        1
176
     0
 90
        1
176
     0
 40
1.0
176
     0
 90
       10
176
     2
 62
     7
176
     0
 40
1.0
176
     0
 90
        1
176
     0
 90
        6
176
     0
 90
        2
176
     0
 62
     7
176
     0
 90
        5
176
     0
 90
        0
176
     0
 90
        0
176
     0
290
     0
176
     0
 90
        1
176
     0
 40
0.0
176
     0
 90
        0
176
     0
290
     0
176
     1
290
     1
176
     1
290
     1
176
     1
290
     0
176
     1
290
     0
176
     1
290
     0
176
     1
290
     0
176
     1
290
     0
176
     1
290
     0
176
     1
 90
       50
176
     0
 40
0.0
176
     0
 40
1.0
176
     0
 90
        0
176
     0
 62
    18
420
        0
176
     0
 90
       50
176
     0
 90
        3
176
     0
 62
     5
420
      255
176
     0
290
     0
176
     1
 90
       50
176
     0
 90
       50
176
     0
 90
       50
176
     0
290
     0
176
     1
 90
       50
176
     0
 62
   256
176
     0
 40
1.0
176
     0
 90
        2
176
     0
  1
strokes_ogs.tif
176
     0
290
     0
176
     1
 40
1.0
176
     0
 40
1.0
176
     0
  0
VISUALSTYLE
  5
37
102
{ACAD_REACTORS
330
29
102
}
330
29
100
AcDbVisualStyle
  2
Linepattern
 70
    14
177
     3
291
     1
 70
    58
 90
        2
176
     1
 90
        2
176
     1
 90
        0
176
     1
 90
        0
176
     1
 40
0.6
176
     1
 40
30.0
176
     1
 62
     7
420
 16777215
176
     1
 90
        1
176
     1
 90
        4
176
     1
 62
     7
176
     1
 62
   257
176
     1
 90
        7
176
     1
 90
        7
176
     1
 40
1.0
176
     1
 90
        8
176
     1
 62
     7
176
     1
 40
1.0
176
     1
 90
        1
176
     1
 90
        6
176
     1
 90
        2
176
     1
 62
     7
176
     1
 90
        5
176
     1
 90
        0
176
     1
 90
        0
176
     1
290
     0
176
     1
 90
        1
176
     1
 40
0.0
176
     1
 90
        0
176
     1
290
     0
176
     1
290
     1
176
     1
290
     1
176
     1
290
     0
176
     1
290
     0
176
     1
290
     0
176
     1
290
     0
176
     1
290
     0
176
     1
290
     0
176
     1
 90
       50
176
     1
 40
0.0
176
     1
 40
1.0
176
     1
 90
        0
176
     1
 62
    18
420
        0
176
     1
 90
       50
176
     1
 90
        3
176
     1
 62
     5
420
      255
176
     1
290
     0
176
     1
 90
       50
176
     1
 90
       50
176
     1
 90
       50
176
     1
290
     0
176
     1
 90
       50
176
     1
 62
   256
176
     0
 40
1.0
176
     0
 90
        2
176
     1
  1
strokes_ogs.tif
176
     1
290
     0
176
     1
 40
1.0
176
     1
 40
1.0
176
     1
  0
VISUALSTYLE
  5
40
102
{ACAD_REACTORS
330
29
102
}
330
29
100
AcDbVisualStyle
  2
OverhangOff
 70
    21
177
     3
291
     1
 70
    58
 90
        2
176
     0
 90
        2
176
     0
 90
        0
176
     0
 90
        0
176
     0
 40
0.6
176
     0
 40
30.0
176
     0
 62
     7
420
 16777215
176
     0
 90
        1
176
     0
 90
        4
176
     0
 62
     7
176
     0
 62
   257
176
     0
 90
        1
176
     0
 90
        1
176
     0
 40
1.0
176
     0
 90
        9
176
     2
 62
     7
176
     0
 40
1.0
176
     0
 90
        1
176
     0
 90
        6
176
     0
 90
        2
176
     0
 62
     7
176
     0
 90
        5
176
     0
 90
        0
176
     0
 90
        0
176
     0
290
     0
176
     0
 90
        1
176
     0
 40
0.0
176
     0
 90
        0
176
     0
290
     0
176
     1
290
     1
176
     1
290
     1
176
     1
290
     0
176
     1
290
     0
176
     1
290
     0
176
     1
290
     0
176
     1
290
     0
176
     1
290
     0
176
     1
 90
       50
176
     0
 40
0.0
176
     0
 40
1.0
176
     0
 90
        0
176
     0
 62
    18
420
        0
176
     0
 90
       50
176
     0
 90
        3
176
     0
 62
     5
420
      255
176
     0
290
     0
176
     1
 90
       50
176
     0
 90
       50
176
     0
 90
       50
176
     0
290
     0
176
     1
 90
       50
176
     0
 62
   256
176
     0
 40
1.0
176
     0
 90
        2
176
     0
  1
strokes_ogs.tif
176
     0
290
     0
176
     1
 40
1.0
176
     0
 40
1.0
176
     0
  0
VISUALSTYLE
  5
33
102
{ACAD_REACTORS
330
29
102
}
330
29
100
AcDbVisualStyle
  2
Realistic
 70
     8
177
     3
291
     0
 70
    58
 90
        2
176
     1
 90
        3
176
     1
 90
        0
176
     1
 90
        2
176
     1
 40
0.6
176
     1
 40
30.0
176
     1
 62
     7
420
 16777215
176
     1
 90
        0
176
     1
 90
        0
176
     1
 62
     7
176
     1
 62
   257
176
     1
 90
        1
176
     1
 90
        1
176
     1
 40
1.0
176
     1
 90
        8
176
     1
 62
   257
176
     1
 40
1.0
176
     1
 90
        1
176
     1
 90
        6
176
     1
 90
        2
176
     1
 62
     7
176
     1
 90
        3
176
     1
 90
        0
176
     1
 90
        0
176
     1
290
     0
176
     1
 90
       13
176
     1
 40
0.0
176
     1
 90
        0
176
     1
290
     0
176
     1
290
     1
176
     1
290
     1
176
     1
290
     0
176
     1
290
     0
176
     1
290
     0
176
     1
290
     0
176
     1
290
     0
176
     1
290
     0
176
     1
 90
       50
176
     1
 40
0.0
176
     1
 40
1.0
176
     1
 90
        0
176
     1
 62
    18
420
        0
176
     1
 90
       50
176
     1
 90
        3
176
     1
 62
     5
420
      255
176
     1
290
     0
176
     1
 90
       50
176
     1
 90
       50
176
     1
 90
       50
176
     1
290
     0
176
     1
 90
       50
176
     1
 62
   256
176
     0
 40
1.0
176
     0
 90
        2
176
     1
  1
strokes_ogs.tif
176
     1
290
     0
176
     1
 40
1.0
176
     1
 40
1.0
176
     1
  0
VISUALSTYLE
  5
3E
102
{ACAD_REACTORS
330
29
102
}
330
29
100
AcDbVisualStyle
  2
Shaded
 70
    27
177
     3
291
     0
 70
    58
 90
        2
176
     1
 90
        2
176
     1
 90
        1
176
     1
 90
        2
176
     1
 40
0.6
176
     1
 40
30.0
176
     1
 62
     7
420
 16777215
176
     1
 90
        0
176
     1
 90
        4
176
     1
 62
     7
176
     1
 62
   257
176
     1
 90
        1
176
     1
 90
        1
176
     1
 40
1.0
176
     1
 90
        8
176
     1
 62
   257
176
     1
 40
1.0
176
     1
 90
        1
176
     1
 90
        6
176
     1
 90
        2
176
     1
 62
     8
420
  7895160
176
     1
 90
        3
176
     1
 90
        0
176
     1
 90
        0
176
     1
290
     0
176
     1
 90
        5
176
     1
 40
0.0
176
     1
 90
        0
176
     1
290
     0
176
     1
290
     1
176
     1
290
     1
176
     1
290
     0
176
     1
290
     0
176
     1
290
     0
176
     1
290
     0
176
     1
290
     0
176
     1
290
     0
176
     1
 90
       50
176
     1
 40
0.0
176
     1
 40
1.0
176
     1
 90
        0
176
     1
 62
    18
420
        0
176
     1
 90
       50
176
     1
 90
        3
176
     1
 62
     5
420
      255
176
     1
290
     0
176
     1
 90
       50
176
     1
 90
       50
176
     1
 90
       50
176
     1
290
     0
176
     1
 90
       50
176
     1
 62
   256
176
     0
 40
1.0
176
     0
 90
        2
176
     1
  1
strokes_ogs.tif
176
     1
290
     0
176
     1
 40
1.0
176
     1
 40
1.0
176
     1
  0
VISUALSTYLE
  5
3D
102
{ACAD_REACTORS
330
29
102
}
330
29
100
AcDbVisualStyle
  2
Shaded with edges
 70
    26
177
     3
291
     0
 70
    58
 90
        2
176
     1
 90
        2
176
     1
 90
        1
176
     1
 90
        2
176
     1
 40
0.6
176
     1
 40
30.0
176
     1
 62
     7
420
 16777215
176
     1
 90
        1
176
     1
 90
        2
176
     1
 62
     7
176
     1
 62
   257
176
     1
 90
        2
176
     1
 90
        1
176
     1
 40
1.0
176
     1
 90
        8
176
     1
 62
   257
176
     1
 40
1.0
176
     1
 90
        1
176
     1
 90
        6
176
     1
 90
        2
176
     1
 62
     7
176
     1
 90
        3
176
     1
 90
        0
176
     1
 90
        0
176
     1
290
     0
176
     1
 90
        5
176
     1
 40
0.0
176
     1
 90
        0
176
     1
290
     0
176
     1
290
     1
176
     1
290
     1
176
     1
290
     0
176
     1
290
     0
176
     1
290
     0
176
     1
290
     0
176
     1
290
     0
176
     1
290
     0
176
     1
 90
       50
176
     1
 40
0.0
176
     1
 40
1.0
176
     1
 90
        0
176
     1
 62
    18
420
        0
176
     1
 90
       50
176
     1
 90
        3
176
     1
 62
     5
420
      255
176
     1
290
     0
176
     1
 90
       50
176
     1
 90
       50
176
     1
 90
       50
176
     1
290
     0
176
     1
 90
       50
176
     1
 62
   256
176
     0
 40
1.0
176
     0
 90
        2
176
     1
  1
strokes_ogs.tif
176
     1
290
     0
176
     1
 40
1.0
176
     1
 40
1.0
176
     1
  0
VISUALSTYLE
  5
3A
102
{ACAD_REACTORS
330
29
102
}
330
29
100
AcDbVisualStyle
  2
Shades of Gray
 70
    23
177
     3
291
     0
 70
    58
 90
        2
176
     1
 90
        2
176
     1
 90
        3
176
     1
 90
        0
176
     1
 40
0.6
176
     1
 40
30.0
176
     1
 62
     7
420
 16777215
176
     1
 90
        2
176
     1
 90
        2
176
     1
 62
     7
176
     1
 62
     7
176
     1
 90
        1
176
     1
 90
        1
176
     1
 40
40.0
176
     1
 90
        8
176
     1
 62
     7
176
     1
 40
1.0
176
     1
 90
        1
176
     1
 90
        6
176
     1
 90
        2
176
     1
 62
     7
176
     1
 90
        3
176
     1
 90
        0
176
     1
 90
        0
176
     1
290
     0
176
     1
 90
        1
176
     1
 40
0.0
176
     1
 90
        0
176
     1
290
     0
176
     1
290
     1
176
     1
290
     1
176
     1
290
     0
176
     1
290
     0
176
     1
290
     0
176
     1
290
     0
176
     1
290
     0
176
     1
290
     0
176
     1
 90
       50
176
     1
 40
0.0
176
     1
 40
1.0
176
     1
 90
        0
176
     1
 62
    18
420
        0
176
     1
 90
       50
176
     1
 90
        3
176
     1
 62
     5
420
      255
176
     1
290
     0
176
     1
 90
       50
176
     1
 90
       50
176
     1
 90
       50
176
     1
290
     0
176
     1
 90
       50
176
     1
 62
   256
176
     0
 40
1.0
176
     0
 90
        2
176
     1
  1
strokes_ogs.tif
176
     1
290
     0
176
     1
 40
1.0
176
     1
 40
1.0
176
     1
  0
VISUALSTYLE
  5
3B
102
{ACAD_REACTORS
330
29
102
}
330
29
100
AcDbVisualStyle
  2
Sketchy
 70
    24
177
     3
291
     0
 70
    58
 90
        1
176
     1
 90
        2
176
     1
 90
        2
176
     1
 90
        0
176
     1
 40
0.6
176
     1
 40
30.0
176
     1
 62
     7
420
 16777215
176
     1
 90
        2
176
     1
 90
        2
176
     1
 62
     7
176
     1
 62
     7
176
     1
 90
        1
176
     1
 90
        1
176
     1
 40
40.0
176
     1
 90
       11
176
     1
 62
     7
176
     1
 40
1.0
176
     1
 90
        1
176
     1
 90
        6
176
     1
 90
        2
176
     1
 62
     7
176
     1
 90
        6
176
     1
 90
        0
176
     1
 90
        0
176
     1
290
     0
176
     1
 90
        1
176
     1
 40
0.0
176
     1
 90
        0
176
     1
290
     0
176
     1
290
     1
176
     1
290
     1
176
     1
290
     0
176
     1
290
     0
176
     1
290
     0
176
     1
290
     0
176
     1
290
     0
176
     1
290
     0
176
     1
 90
       50
176
     1
 40
0.0
176
     1
 40
1.0
176
     1
 90
        0
176
     1
 62
    18
420
        0
176
     1
 90
       50
176
     1
 90
        3
176
     1
 62
     5
420
      255
176
     1
290
     0
176
     1
 90
       50
176
     1
 90
       50
176
     1
 90
       50
176
     1
290
     0
176
     1
 90
       50
176
     1
 62
   256
176
     0
 40
1.0
176
     0
 90
        2
176
     1
  1
strokes_ogs.tif
176
     1
290
     0
176
     1
 40
1.0
176
     1
 40
1.0
176
     1
  0
VISUALSTYLE
  5
36
102
{ACAD_REACTORS
330
29
102
}
330
29
100
AcDbVisualStyle
  2
Thicken
 70
    13
177
     3
291
     1
 70
    58
 90
        2
176
     1
 90
        2
176
     1
 90
        0
176
     1
 90
        0
176
     1
 40
0.6
176
     1
 40
30.0
176
     1
 62
     7
420
 16777215
176
     1
 90
        1
176
     1
 90
        4
176
     1
 62
     7
176
     1
 62
   257
176
     1
 90
        1
176
     1
 90
        1
176
     1
 40
1.0
176
     1
 90
       12
176
     1
 62
     7
176
     1
 40
1.0
176
     1
 90
        1
176
     1
 90
        6
176
     1
 90
        2
176
     1
 62
     7
176
     1
 90
        5
176
     1
 90
        0
176
     1
 90
        0
176
     1
290
     0
176
     1
 90
        1
176
     1
 40
0.0
176
     1
 90
        0
176
     1
290
     0
176
     1
290
     1
176
     1
290
     1
176
     1
290
     0
176
     1
290
     0
176
     1
290
     0
176
     1
290
     0
176
     1
290
     0
176
     1
290
     0
176
     1
 90
       50
176
     1
 40
0.0
176
     1
 40
1.0
176
     1
 90
        0
176
     1
 62
    18
420
        0
176
     1
 90
       50
176
     1
 90
        3
176
     1
 62
     5
420
      255
176
     1
290
     0
176
     1
 90
       50
176
     1
 90
       50
176
     1
 90
       50
176
     1
290
     0
176
     1
 90
       50
176
     1
 62
   256
176
     0
 40
1.0
176
     0
 90
        2
176
     1
  1
strokes_ogs.tif
176
     1
290
     0
176
     1
 40
1.0
176
     1
 40
1.0
176
     1
  0
VISUALSTYLE
  5
30
102
{ACAD_REACTORS
330
29
102
}
330
29
100
AcDbVisualStyle
  2
Wireframe
 70
     5
177
     3
291
     0
 70
    58
 90
        0
176
     1
 90
        2
176
     1
 90
        0
176
     1
 90
        0
176
     1
 40
0.6
176
     1
 40
30.0
176
     1
 62
     7
420
 16777215
176
     1
 90
        1
176
     1
 90
        4
176
     1
 62
     7
176
     1
 62
   257
176
     1
 90
        1
176
     1
 90
        1
176
     1
 40
1.0
176
     1
 90
        0
176
     1
 62
   257
176
     1
 40
1.0
176
     1
 90
        1
176
     1
 90
        6
176
     1
 90
        2
176
     1
 62
     7
176
     1
 90
        3
176
     1
 90
        0
176
     1
 90
        0
176
     1
290
     0
176
     1
 90
        1
176
     1
 40
0.0
176
     1
 90
        0
176
     1
290
     0
176
     1
290
     1
176
     1
290
     1
176
     1
290
     0
176
     1
290
     0
176
     1
290
     0
176
     1
290
     0
176
     1
290
     0
176
     1
290
     0
176
     1
 90
       50
176
     1
 40
0.0
176
     1
 40
1.0
176
     1
 90
        0
176
     1
 62
    18
420
        0
176
     1
 90
       50
176
     1
 90
        3
176
     1
 62
     5
420
      255
176
     1
290
     0
176
     1
 90
       50
176
     1
 90
       50
176
     1
 90
       50
176
     1
290
     0
176
     1
 90
       50
176
     1
 62
   256
176
     0
 40
1.0
176
     0
 90
        2
176
     1
  1
strokes_ogs.tif
176
     1
290
     0
176
     1
 40
1.0
176
     1
 40
1.0
176
     1
  0
VISUALSTYLE
  5
3C
102
{ACAD_REACTORS
330
29
102
}
330
29
100
AcDbVisualStyle
  2
X-Ray
 70
    25
177
     3
291
     0
 70
    58
 90
        2
176
     1
 90
        2
176
     1
 90
        1
176
     1
 90
        1
176
     1
 40
0.5
176
     1
 40
30.0
176
     1
 62
     7
420
 16777215
176
     1
 90
        1
176
     1
 90
        0
176
     1
 62
     7
176
     1
 62
   257
176
     1
 90
        1
176
     1
 90
        1
176
     1
 40
1.0
176
     1
 90
        8
176
     1
 62
     7
176
     1
 40
1.0
176
     1
 90
        1
176
     1
 90
        6
176
     1
 90
        2
176
     1
 62
     7
176
     1
 90
        3
176
     1
 90
        0
176
     1
 90
        0
176
     1
290
     0
176
     1
 90
       13
176
     1
 40
0.0
176
     1
 90
        0
176
     1
290
     0
176
     1
290
     1
176
     1
290
     1
176
     1
290
     0
176
     1
290
     0
176
     1
290
     0
176
     1
290
     0
176
     1
290
     0
176
     1
290
     0
176
     1
 90
       50
176
     1
 40
0.0
176
     1
 40
1.0
176
     1
 90
        0
176
     1
 62
    18
420
        0
176
     1
 90
       50
176
     1
 90
        3
176
     1
 62
     5
420
      255
176
     1
290
     0
176
     1
 90
       50
176
     1
 90
       50
176
     1
 90
       50
176
     1
290
     0
176
     1
 90
       50
176
     1
 62
   256
176
     0
 40
1.0
176
     0
 90
        2
176
     1
  1
strokes_ogs.tif
176
     1
290
     0
176
     1
 40
1.0
176
     1
 40
1.0
176
     1
  0
DICTIONARYVAR
  5
2FE
102
{ACAD_REACTORS
330
2F8
102
}
330
2F8
100
DictionaryVariables
280
     0
  1
1:1
  0
DICTIONARYVAR
  5
2FA
102
{ACAD_REACTORS
330
2F8
102
}
330
2F8
100
DictionaryVariables
280
     0
  1
STANDARD
  0
DICTIONARYVAR
  5
2F9
102
{ACAD_REACTORS
330
2F8
102
}
330
2F8
100
DictionaryVariables
280
     0
  1
STANDARD
  0
DICTIONARYVAR
  5
2FB
102
{ACAD_REACTORS
330
2F8
102
}
330
2F8
100
DictionaryVariables
280
     0
  1
Imperial24
  0
DICTIONARYVAR
  5
2FC
102
{ACAD_REACTORS
330
2F8
102
}
330
2F8
100
DictionaryVariables
280
     0
  1
Imperial24
  0
DICTIONARYVAR
  5
300
102
{ACAD_REACTORS
330
2F8
102
}
330
2F8
100
DictionaryVariables
280
     0
  1
1
  0
DICTIONARYVAR
  5
301
102
{ACAD_REACTORS
330
2F8
102
}
330
2F8
100
DictionaryVariables
280
     0
  1
15
  0
DICTIONARYVAR
  5
2FF
102
{ACAD_REACTORS
330
2F8
102
}
330
2F8
100
DictionaryVariables
280
     0
  1
0
  0
DICTIONARYVAR
  5
2FD
102
{ACAD_REACTORS
330
2F8
102
}
330
2F8
100
DictionaryVariables
280
     0
  1
0
  0
DICTIONARY
  5
1A
330
19
100
AcDbDictionary
280
     1
281
     1
  3
BUMPTILE
360
1C
  3
DIFFUSETILE
360
1B
  3
OPACITYTILE
360
1F
  3
REFLECTIONTILE
360
1E
  3
REFRACTIONTILE
360
20
  3
SPECULARTILE
360
1D
  0
DICTIONARY
  5
12
330
11
100
AcDbDictionary
280
     1
281
     1
  3
BUMPTILE
360
14
  3
DIFFUSETILE
360
13
  3
OPACITYTILE
360
17
  3
REFLECTIONTILE
360
16
  3
REFRACTIONTILE
360
18
  3
SPECULARTILE
360
15
  0
DICTIONARY
  5
22
330
21
100
AcDbDictionary
280
     1
281
     1
  3
BUMPTILE
360
24
  3
DIFFUSETILE
360
23
  3
OPACITYTILE
360
27
  3
REFLECTIONTILE
360
26
  3
REFRACTIONTILE
360
28
  3
SPECULARTILE
360
25
  0
DICTIONARY
  5
362
330
64
100
AcDbDictionary
280
     1
281
     1
  3
ACAD_ROUNDTRIP_2008_TABLESTYLE_CELLSTYLEMAP
360
363
  0
XRECORD
  5
1C
102
{ACAD_REACTORS
330
1A
102
}
330
1A
100
AcDbXrecord
280
     1
270
     1
271
     1
  0
XRECORD
  5
1B
102
{ACAD_REACTORS
330
1A
102
}
330
1A
100
AcDbXrecord
280
     1
270
     1
271
     1
  0
XRECORD
  5
1F
102
{ACAD_REACTORS
330
1A
102
}
330
1A
100
AcDbXrecord
280
     1
270
     1
271
     1
  0
XRECORD
  5
1E
102
{ACAD_REACTORS
330
1A
102
}
330
1A
100
AcDbXrecord
280
     1
270
     1
271
     1
  0
XRECORD
  5
20
102
{ACAD_REACTORS
330
1A
102
}
330
1A
100
AcDbXrecord
280
     1
270
     1
271
     1
  0
XRECORD
  5
1D
102
{ACAD_REACTORS
330
1A
102
}
330
1A
100
AcDbXrecord
280
     1
270
     1
271
     1
  0
XRECORD
  5
14
102
{ACAD_REACTORS
330
12
102
}
330
12
100
AcDbXrecord
280
     1
270
     1
271
     1
  0
XRECORD
  5
13
102
{ACAD_REACTORS
330
12
102
}
330
12
100
AcDbXrecord
280
     1
270
     1
271
     1
  0
XRECORD
  5
17
102
{ACAD_REACTORS
330
12
102
}
330
12
100
AcDbXrecord
280
     1
270
     1
271
     1
  0
XRECORD
  5
16
102
{ACAD_REACTORS
330
12
102
}
330
12
100
AcDbXrecord
280
     1
270
     1
271
     1
  0
XRECORD
  5
18
102
{ACAD_REACTORS
330
12
102
}
330
12
100
AcDbXrecord
280
     1
270
     1
271
     1
  0
XRECORD
  5
15
102
{ACAD_REACTORS
330
12
102
}
330
12
100
AcDbXrecord
280
     1
270
     1
271
     1
  0
XRECORD
  5
24
102
{ACAD_REACTORS
330
22
102
}
330
22
100
AcDbXrecord
280
     1
270
     1
271
     1
  0
XRECORD
  5
23
102
{ACAD_REACTORS
330
22
102
}
330
22
100
AcDbXrecord
280
     1
270
     1
271
     1
  0
XRECORD
  5
27
102
{ACAD_REACTORS
330
22
102
}
330
22
100
AcDbXrecord
280
     1
270
     1
271
     1
  0
XRECORD
  5
26
102
{ACAD_REACTORS
330
22
102
}
330
22
100
AcDbXrecord
280
     1
270
     1
271
     1
  0
XRECORD
  5
28
102
{ACAD_REACTORS
330
22
102
}
330
22
100
AcDbXrecord
280
     1
270
     1
271
     1
  0
XRECORD
  5
25
102
{ACAD_REACTORS
330
22
102
}
330
22
100
AcDbXrecord
280
     1
270
     1
271
     1
  0
CELLSTYLEMAP
  5
363
102
{ACAD_REACTORS
330
362
102
}
330
362
100
AcDbCellStyleMap
 90
        3
300
CELLSTYLE
  1
TABLEFORMAT_BEGIN
 90
        5
170
     1
 91
        0
 92
    32768
 62
   257
 93
        1
300
CONTENTFORMAT
  1
CONTENTFORMAT_BEGIN
 90
        0
 91
        0
 92
      512
 93
        0
300

 40
0.0
140
1.0
 94
        5
 62
     0
340
55
144
0.25
309
CONTENTFORMAT_END
171
     0
 94
        0
309
TABLEFORMAT_END
  1
CELLSTYLE_BEGIN
 90
        1
 91
        1
300
_TITLE
309
CELLSTYLE_END
300
CELLSTYLE
  1
TABLEFORMAT_BEGIN
 90
        5
170
     1
 91
        0
 92
        0
 62
   257
 93
        1
300
CONTENTFORMAT
  1
CONTENTFORMAT_BEGIN
 90
        0
 91
        0
 92
      512
 93
        0
300

 40
0.0
140
1.0
 94
        5
 62
     0
340
55
144
0.18
309
CONTENTFORMAT_END
171
     0
 94
        0
309
TABLEFORMAT_END
  1
CELLSTYLE_BEGIN
 90
        2
 91
        1
300
_HEADER
309
CELLSTYLE_END
300
CELLSTYLE
  1
TABLEFORMAT_BEGIN
 90
        5
170
     1
 91
        0
 92
        0
 62
   257
 93
        1
300
CONTENTFORMAT
  1
CONTENTFORMAT_BEGIN
 90
        0
 91
        0
 92
      512
 93
        0
300

 40
0.0
140
1.0
 94
        2
 62
     0
340
55
144
0.18
309
CONTENTFORMAT_END
171
     0
 94
        0
309
TABLEFORMAT_END
  1
CELLSTYLE_BEGIN
 90
        3
 91
        2
300
_DATA
309
CELLSTYLE_END
  0
ENDSEC
  0
SECTION
  2
ACDSDATA
 70
     2
 71
     8
  0
ACDSSCHEMA
 90
        0
  1
AcDb_Thumbnail_Schema
  2
AcDbDs::ID
280
    10
 91
        8
  2
Thumbnail_Data
280
    15
 91
        0
101
ACDSRECORD
 95
        0
 90
        1
  2
AcDbDs::TreatedAsObjectData
280
     1
291
     1
101
ACDSRECORD
 95
        0
 90
        2
  2
AcDbDs::Legacy
280
     1
291
     1
101
ACDSRECORD
  1
AcDbDs::ID
 90
        3
  2
AcDs:Indexable
280
     1
291
     1
101
ACDSRECORD
  1
AcDbDs::ID
 90
        4
  2
AcDbDs::HandleAttribute
280
     7
282
     1
  0
ACDSSCHEMA
 90
        1
  1
AcDbDs::TreatedAsObjectDataSchema
  2
AcDbDs::TreatedAsObjectData
280
     1
 91
        0
  0
ACDSSCHEMA
 90
        2
  1
AcDbDs::LegacySchema
  2
AcDbDs::Legacy
280
     1
 91
        0
  0
ACDSSCHEMA
 90
        3
  1
AcDbDs::IndexedPropertySchema
  2
AcDs:Indexable
280
     1
 91
        0
  0
ACDSSCHEMA
 90
        4
  1
AcDbDs::HandleAttributeSchema
  2
AcDbDs::HandleAttribute
280
     7
 91
        1
284
     1
  0
ACDSRECORD
 90
        0
  2
AcDbDs::ID
280
    10
320
72
  2
Thumbnail_Data
280
    15
 94
     1708
310
89504E470D0A1A0A0000000D49484452000001000000006608030000001376BFA700000300504C5445212830FFFFFF2128300000000000000000000000000000000000000000000000000000330000660000990000CC0000FF0033000033330033660033990033CC0033FF0066000066330066660066990066CC0066FF0099
310
000099330099660099990099CC0099FF00CC0000CC3300CC6600CC9900CCCC00CCFF00FF0000FF3300FF6600FF9900FFCC00FFFF3300003300333300663300993300CC3300FF3333003333333333663333993333CC3333FF3366003366333366663366993366CC3366FF3399003399333399663399993399CC3399FF33CC00
310
33CC3333CC6633CC9933CCCC33CCFF33FF0033FF3333FF6633FF9933FFCC33FFFF6600006600336600666600996600CC6600FF6633006633336633666633996633CC6633FF6666006666336666666666996666CC6666FF6699006699336699666699996699CC6699FF66CC0066CC3366CC6666CC9966CCCC66CCFF66FF0066
310
FF3366FF6666FF9966FFCC66FFFF9900009900339900669900999900CC9900FF9933009933339933669933999933CC9933FF9966009966339966669966999966CC9966FF9999009999339999669999999999CC9999FF99CC0099CC3399CC6699CC9999CCCC99CCFF99FF0099FF3399FF6699FF9999FFCC99FFFFCC0000CC00
310
33CC0066CC0099CC00CCCC00FFCC3300CC3333CC3366CC3399CC33CCCC33FFCC6600CC6633CC6666CC6699CC66CCCC66FFCC9900CC9933CC9966CC9999CC99CCCC99FFCCCC00CCCC33CCCC66CCCC99CCCCCCCCCCFFCCFF00CCFF33CCFF66CCFF99CCFFCCCCFFFFFF0000FF0033FF0066FF0099FF00CCFF00FFFF3300FF3333
310
FF3366FF3399FF33CCFF33FFFF6600FF6633FF6666FF6699FF66CCFF66FFFF9900FF9933FF9966FF9999FF99CCFF99FFFFCC00FFCC33FFCC66FFCC99FFCCCCFFCCFFFFFF00FFFF33FFFF66FFFF99FFFFCCFFFFFF0000000D0D0D1A1A1A2828283535354343435050505D5D5D6B6B6B787878868686939393A1A1A1AEAEAEBB
310
BBBBC9C9C9D6D6D6E4E4E4F1F1F1FFFFFF0000000000000000000000000000000000000000000000000000000000002E4550F10000034A4944415478DAED5B4972C3300CD3FFFFCB7BA733B6448290D4249D866A8043B63A760891E022B73541100441F85DD81B5183808FBC34FF15D7B2DC8BF3D212F973597102FA8FB4EB
310
FDF5D2BECD78CEF670AE668390E6292943401B163B02ACD3F3E8B23746407A710C01F792EE88B88E8A273D9880FB53F73CE58038FD51044078F6C76EC13422DC81F791D63F0D22585903964E0DE67965F4148DB57D40334EA903BC830F4BA3CFEF82842865610258F2C6E56EC129D0FA55FAB7F850848018FED9A21111EE77
310
439EF087057589725094804902E832105DA17F15FF1E1D659956CE2000742F060DF390592E3C91001FE3EB8A7078F7C88573024A8AA081AD7435733C4005682E17C2198C2C7A5911CCF13C8B876165A8138CB5976EE5BD1CD622C03FFB52087D7BE1F5A3938662105CDF4A86C0240140656CACEF89AC9186D05211509C80E1
310
D0CE732722CF0E3A9A80CDE2A6BE27340E938EF82C0276E11D167B9F04818003447023F0E81390046947ECFB8353A6C2CC3A5703CE38DA9BE6BF5580003FA388236173358D913A9847492E2C7033A01A01590BAE82E7B6DDF788B9170497C6019985E8388800A87F51B75212B434413A980092E953FB67CD9B0D81B221A096
310
0832029235B90FBA45804AE59A8062CD101341EFAE7CF203F33D48966B112CD70D720A783F18CDDF27827966ACB42FE07A1CD7EFB17EB0278894089C83C09966C3D72A04C426302542BF7972BDB918C8DD10490458413917A9430053448BC6B9B627E84328782D77528DA7D9FA1E800248C3F80E8E552238808020D1C199A7
310
02070AB24A04793BB01A016EB30FD7779D08D763B145CE295907D01438EF07E9168885AFB104585204214EADC5963FAB5BEE85702C4643BE6C1AEC956EDEFACCF361F05F1B1D41340C0988D39182BD00129037BDC70028BA40DE12CED33F7EFF48E9107039CCF89C276D815C8553A327AC4D0011C1EEEE1688C28DA3160C6F
310
78274DDA0CA949C06A22D87C5E683911C6DB096FD268C95457037647B8450659B75D9CBC78E91A04349CE45BAA6BAC3DB3A007DE2C9DF633ACFDF8E6A87F41C0642EF84797AE41406A17DE75E977101035FC65213F908094C5458008100112C1D309F8F47F9B13044110044110044110044110044110044110044110044110
310
04411004A102BE001EBC447828EB46AF0000000049454E44AE4260822008822008C2BEF807B09A37120FC952CA0000000049454E44AE426082
  0
ENDSEC
  0
EOF
