  0
SECTION
  2
HEADER
  9
$ACADVER
  1
AC1009
  9
$EXTMIN
 10
0.0
 20
0.0
 30
0.0
  9
$EXTMAX
 10
1000.0
 20
1000.0
 30
0.0
  9
$FILLMODE
 70
 0
  9
$SPLFRAME
 70
 1
  0
ENDSEC
  0
SECTION
  2
TABLES
  0
TABLE
  2
LAYER
 70
1
  0
LAYER
  2
0
 70
     0
 62
     7
  6
CONTINUOUS
  0
ENDTAB
  0
ENDSEC
  0
SECTION
  2
ENTITIES
  0
LINE
  8
0
 62
     0
 10
0.0950846
 20
76.4575
 30
0.0
 11
266.795
 21
76.4575
 31
0.0
  0
LINE
  8
0
 62
     0
 10
266.795
 20
76.4575
 30
0.0
 11
266.795
 21
0.257693
 31
0.0
  0
LINE
  8
0
 62
     0
 10
266.795
 20
0.257693
 30
0.0
 11
0.0950846
 21
0.257693
 31
0.0
  0
LINE
  8
0
 62
     0
 10
0.0950846
 20
0.257693
 30
0.0
 11
0.0950846
 21
76.4575
 31
0.0
  0
LINE
  8
0
 62
     0
 10
164.545
 20
16.7831
 30
0.0
 11
164.545
 21
12.0826
 31
0.0
  0
LINE
  8
0
 62
     0
 10
164.545
 20
12.0826
 30
0.0
 11
163.019
 21
12.0826
 31
0.0
  0
LINE
  8
0
 62
     0
 10
163.019
 20
12.0826
 30
0.0
 11
163.019
 21
15.3128
 31
0.0
  0
LINE
  8
0
 62
     0
 10
163.019
 20
15.3128
 30
0.0
 11
161.294
 21
15.3128
 31
0.0
  0
LINE
  8
0
 62
     0
 10
161.294
 20
15.3128
 30
0.0
 11
161.294
 21
16.2347
 31
0.0
  0
LINE
  8
0
 62
     0
 10
161.294
 20
16.2347
 30
0.0
 11
157.993
 21
16.2347
 31
0.0
  0
LINE
  8
0
 62
     0
 10
157.993
 20
16.2347
 30
0.0
 11
157.993
 21
15.3128
 31
0.0
  0
LINE
  8
0
 62
     0
 10
157.993
 20
15.3128
 30
0.0
 11
156.268
 21
15.3128
 31
0.0
  0
LINE
  8
0
 62
     0
 10
156.268
 20
15.3128
 30
0.0
 11
156.268
 21
12.0826
 31
0.0
  0
LINE
  8
0
 62
     0
 10
156.268
 20
12.0826
 30
0.0
 11
155.444
 21
12.0826
 31
0.0
  0
LINE
  8
0
 62
     0
 10
155.444
 20
12.0826
 30
0.0
 11
155.444
 21
9.28384
 31
0.0
  0
LINE
  8
0
 62
     0
 10
155.444
 20
9.28384
 30
0.0
 11
156.268
 21
9.28384
 31
0.0
  0
LINE
  8
0
 62
     0
 10
156.268
 20
9.28384
 30
0.0
 11
156.268
 21
3.01377
 31
0.0
  0
LINE
  8
0
 62
     0
 10
156.268
 20
3.01377
 30
0.0
 11
157.993
 21
3.01377
 31
0.0
  0
LINE
  8
0
 62
     0
 10
157.993
 20
3.01377
 30
0.0
 11
157.993
 21
2.03261
 31
0.0
  0
LINE
  8
0
 62
     0
 10
157.993
 20
2.03261
 30
0.0
 11
161.294
 21
2.03261
 31
0.0
  0
LINE
  8
0
 62
     0
 10
161.294
 20
2.03261
 30
0.0
 11
161.294
 21
3.01377
 31
0.0
  0
LINE
  8
0
 62
     0
 10
161.294
 20
3.01377
 30
0.0
 11
163.019
 21
3.01377
 31
0.0
  0
LINE
  8
0
 62
     0
 10
163.019
 20
3.01377
 30
0.0
 11
163.019
 21
7.48273
 31
0.0
  0
LINE
  8
0
 62
     0
 10
163.019
 20
7.48273
 30
0.0
 11
164.545
 21
7.48273
 31
0.0
  0
LINE
  8
0
 62
     0
 10
164.545
 20
7.48273
 30
0.0
 11
164.545
 21
2.78364
 31
0.0
  0
LINE
  8
0
 62
     0
 10
164.545
 20
2.78364
 30
0.0
 11
178.544
 21
2.78364
 31
0.0
  0
LINE
  8
0
 62
     0
 10
178.544
 20
2.78364
 30
0.0
 11
178.544
 21
7.48273
 31
0.0
  0
LINE
  8
0
 62
     0
 10
178.544
 20
7.48273
 30
0.0
 11
180.07
 21
7.48273
 31
0.0
  0
LINE
  8
0
 62
     0
 10
180.07
 20
7.48273
 30
0.0
 11
180.07
 21
3.01377
 31
0.0
  0
LINE
  8
0
 62
     0
 10
180.07
 20
3.01377
 30
0.0
 11
181.795
 21
3.01377
 31
0.0
  0
LINE
  8
0
 62
     0
 10
181.795
 20
3.01377
 30
0.0
 11
181.795
 21
2.03261
 31
0.0
  0
LINE
  8
0
 62
     0
 10
181.795
 20
2.03261
 30
0.0
 11
185.094
 21
2.03261
 31
0.0
  0
LINE
  8
0
 62
     0
 10
185.094
 20
2.03261
 30
0.0
 11
185.094
 21
3.01377
 31
0.0
  0
LINE
  8
0
 62
     0
 10
185.094
 20
3.01377
 30
0.0
 11
186.819
 21
3.01377
 31
0.0
  0
LINE
  8
0
 62
     0
 10
186.819
 20
3.01377
 30
0.0
 11
186.819
 21
9.28384
 31
0.0
  0
LINE
  8
0
 62
     0
 10
186.819
 20
9.28384
 30
0.0
 11
187.643
 21
9.28384
 31
0.0
  0
LINE
  8
0
 62
     0
 10
187.643
 20
9.28384
 30
0.0
 11
187.643
 21
12.0826
 31
0.0
  0
LINE
  8
0
 62
     0
 10
187.643
 20
12.0826
 30
0.0
 11
186.819
 21
12.0826
 31
0.0
  0
LINE
  8
0
 62
     0
 10
186.819
 20
12.0826
 30
0.0
 11
186.819
 21
15.3128
 31
0.0
  0
LINE
  8
0
 62
     0
 10
186.819
 20
15.3128
 30
0.0
 11
185.094
 21
15.3128
 31
0.0
  0
LINE
  8
0
 62
     0
 10
185.094
 20
15.3128
 30
0.0
 11
185.094
 21
16.2347
 31
0.0
  0
LINE
  8
0
 62
     0
 10
185.094
 20
16.2347
 30
0.0
 11
181.795
 21
16.2347
 31
0.0
  0
LINE
  8
0
 62
     0
 10
181.795
 20
16.2347
 30
0.0
 11
181.795
 21
15.3128
 31
0.0
  0
LINE
  8
0
 62
     0
 10
181.795
 20
15.3128
 30
0.0
 11
180.07
 21
15.3128
 31
0.0
  0
LINE
  8
0
 62
     0
 10
180.07
 20
15.3128
 30
0.0
 11
180.07
 21
12.0826
 31
0.0
  0
LINE
  8
0
 62
     0
 10
180.07
 20
12.0826
 30
0.0
 11
178.544
 21
12.0826
 31
0.0
  0
LINE
  8
0
 62
     0
 10
178.544
 20
12.0826
 30
0.0
 11
178.544
 21
16.7831
 31
0.0
  0
LINE
  8
0
 62
     0
 10
178.544
 20
16.7831
 30
0.0
 11
164.545
 21
16.7831
 31
0.0
  0
LINE
  8
0
 62
     0
 10
88.3447
 20
16.7831
 30
0.0
 11
88.3447
 21
12.0826
 31
0.0
  0
LINE
  8
0
 62
     0
 10
88.3447
 20
12.0826
 30
0.0
 11
86.8193
 21
12.0826
 31
0.0
  0
LINE
  8
0
 62
     0
 10
86.8193
 20
12.0826
 30
0.0
 11
86.8193
 21
15.3128
 31
0.0
  0
LINE
  8
0
 62
     0
 10
86.8193
 20
15.3128
 30
0.0
 11
85.0939
 21
15.3128
 31
0.0
  0
LINE
  8
0
 62
     0
 10
85.0939
 20
15.3128
 30
0.0
 11
85.0939
 21
16.2347
 31
0.0
  0
LINE
  8
0
 62
     0
 10
85.0939
 20
16.2347
 30
0.0
 11
81.7947
 21
16.2347
 31
0.0
  0
LINE
  8
0
 62
     0
 10
81.7947
 20
16.2347
 30
0.0
 11
81.7947
 21
15.3128
 31
0.0
  0
LINE
  8
0
 62
     0
 10
81.7947
 20
15.3128
 30
0.0
 11
80.0696
 21
15.3128
 31
0.0
  0
LINE
  8
0
 62
     0
 10
80.0696
 20
15.3128
 30
0.0
 11
80.0696
 21
12.0826
 31
0.0
  0
LINE
  8
0
 62
     0
 10
80.0696
 20
12.0826
 30
0.0
 11
79.2441
 21
12.0826
 31
0.0
  0
LINE
  8
0
 62
     0
 10
79.2441
 20
12.0826
 30
0.0
 11
79.2441
 21
9.28384
 31
0.0
  0
LINE
  8
0
 62
     0
 10
79.2441
 20
9.28384
 30
0.0
 11
80.0696
 21
9.28384
 31
0.0
  0
LINE
  8
0
 62
     0
 10
80.0696
 20
9.28384
 30
0.0
 11
80.0696
 21
3.01377
 31
0.0
  0
LINE
  8
0
 62
     0
 10
80.0696
 20
3.01377
 30
0.0
 11
81.7947
 21
3.01377
 31
0.0
  0
LINE
  8
0
 62
     0
 10
81.7947
 20
3.01377
 30
0.0
 11
81.7947
 21
2.03261
 31
0.0
  0
LINE
  8
0
 62
     0
 10
81.7947
 20
2.03261
 30
0.0
 11
85.0939
 21
2.03261
 31
0.0
  0
LINE
  8
0
 62
     0
 10
85.0939
 20
2.03261
 30
0.0
 11
85.0939
 21
3.01377
 31
0.0
  0
LINE
  8
0
 62
     0
 10
85.0939
 20
3.01377
 30
0.0
 11
86.8193
 21
3.01377
 31
0.0
  0
LINE
  8
0
 62
     0
 10
86.8193
 20
3.01377
 30
0.0
 11
86.8193
 21
7.48273
 31
0.0
  0
LINE
  8
0
 62
     0
 10
86.8193
 20
7.48273
 30
0.0
 11
88.3447
 21
7.48273
 31
0.0
  0
LINE
  8
0
 62
     0
 10
88.3447
 20
7.48273
 30
0.0
 11
88.3447
 21
2.78364
 31
0.0
  0
LINE
  8
0
 62
     0
 10
88.3447
 20
2.78364
 30
0.0
 11
102.344
 21
2.78364
 31
0.0
  0
LINE
  8
0
 62
     0
 10
102.344
 20
2.78364
 30
0.0
 11
102.344
 21
7.48273
 31
0.0
  0
LINE
  8
0
 62
     0
 10
102.344
 20
7.48273
 30
0.0
 11
103.87
 21
7.48273
 31
0.0
  0
LINE
  8
0
 62
     0
 10
103.87
 20
7.48273
 30
0.0
 11
103.87
 21
3.01377
 31
0.0
  0
LINE
  8
0
 62
     0
 10
103.87
 20
3.01377
 30
0.0
 11
105.595
 21
3.01377
 31
0.0
  0
LINE
  8
0
 62
     0
 10
105.595
 20
3.01377
 30
0.0
 11
105.595
 21
2.03261
 31
0.0
  0
LINE
  8
0
 62
     0
 10
105.595
 20
2.03261
 30
0.0
 11
108.894
 21
2.03261
 31
0.0
  0
LINE
  8
0
 62
     0
 10
108.894
 20
2.03261
 30
0.0
 11
108.894
 21
3.01377
 31
0.0
  0
LINE
  8
0
 62
     0
 10
108.894
 20
3.01377
 30
0.0
 11
110.619
 21
3.01377
 31
0.0
  0
LINE
  8
0
 62
     0
 10
110.619
 20
3.01377
 30
0.0
 11
110.619
 21
9.28384
 31
0.0
  0
LINE
  8
0
 62
     0
 10
110.619
 20
9.28384
 30
0.0
 11
111.445
 21
9.28384
 31
0.0
  0
LINE
  8
0
 62
     0
 10
111.445
 20
9.28384
 30
0.0
 11
111.445
 21
12.0826
 31
0.0
  0
LINE
  8
0
 62
     0
 10
111.445
 20
12.0826
 30
0.0
 11
110.619
 21
12.0826
 31
0.0
  0
LINE
  8
0
 62
     0
 10
110.619
 20
12.0826
 30
0.0
 11
110.619
 21
15.3128
 31
0.0
  0
LINE
  8
0
 62
     0
 10
110.619
 20
15.3128
 30
0.0
 11
108.894
 21
15.3128
 31
0.0
  0
LINE
  8
0
 62
     0
 10
108.894
 20
15.3128
 30
0.0
 11
108.894
 21
16.2347
 31
0.0
  0
LINE
  8
0
 62
     0
 10
108.894
 20
16.2347
 30
0.0
 11
105.595
 21
16.2347
 31
0.0
  0
LINE
  8
0
 62
     0
 10
105.595
 20
16.2347
 30
0.0
 11
105.595
 21
15.3128
 31
0.0
  0
LINE
  8
0
 62
     0
 10
105.595
 20
15.3128
 30
0.0
 11
103.87
 21
15.3128
 31
0.0
  0
LINE
  8
0
 62
     0
 10
103.87
 20
15.3128
 30
0.0
 11
103.87
 21
12.0826
 31
0.0
  0
LINE
  8
0
 62
     0
 10
103.87
 20
12.0826
 30
0.0
 11
102.344
 21
12.0826
 31
0.0
  0
LINE
  8
0
 62
     0
 10
102.344
 20
12.0826
 30
0.0
 11
102.344
 21
16.7831
 31
0.0
  0
LINE
  8
0
 62
     0
 10
102.344
 20
16.7831
 30
0.0
 11
88.3447
 21
16.7831
 31
0.0
  0
LINE
  8
0
 62
     0
 10
250.27
 20
16.7831
 30
0.0
 11
264.269
 21
16.7831
 31
0.0
  0
LINE
  8
0
 62
     0
 10
264.269
 20
16.7831
 30
0.0
 11
264.269
 21
2.78364
 31
0.0
  0
LINE
  8
0
 62
     0
 10
264.269
 20
2.78364
 30
0.0
 11
250.27
 21
2.78364
 31
0.0
  0
LINE
  8
0
 62
     0
 10
250.27
 20
2.78364
 30
0.0
 11
250.27
 21
16.7831
 31
0.0
  0
LINE
  8
0
 62
     0
 10
231.22
 20
16.7831
 30
0.0
 11
245.219
 21
16.7831
 31
0.0
  0
LINE
  8
0
 62
     0
 10
245.219
 20
16.7831
 30
0.0
 11
245.219
 21
2.78364
 31
0.0
  0
LINE
  8
0
 62
     0
 10
245.219
 20
2.78364
 30
0.0
 11
231.22
 21
2.78364
 31
0.0
  0
LINE
  8
0
 62
     0
 10
231.22
 20
2.78364
 30
0.0
 11
231.22
 21
16.7831
 31
0.0
  0
LINE
  8
0
 62
     0
 10
212.17
 20
16.7831
 30
0.0
 11
226.169
 21
16.7831
 31
0.0
  0
LINE
  8
0
 62
     0
 10
226.169
 20
16.7831
 30
0.0
 11
226.169
 21
2.78364
 31
0.0
  0
LINE
  8
0
 62
     0
 10
226.169
 20
2.78364
 30
0.0
 11
212.17
 21
2.78364
 31
0.0
  0
LINE
  8
0
 62
     0
 10
212.17
 20
2.78364
 30
0.0
 11
212.17
 21
16.7831
 31
0.0
  0
LINE
  8
0
 62
     0
 10
193.118
 20
16.7831
 30
0.0
 11
207.119
 21
16.7831
 31
0.0
  0
LINE
  8
0
 62
     0
 10
207.119
 20
16.7831
 30
0.0
 11
207.119
 21
2.78364
 31
0.0
  0
LINE
  8
0
 62
     0
 10
207.119
 20
2.78364
 30
0.0
 11
193.118
 21
2.78364
 31
0.0
  0
LINE
  8
0
 62
     0
 10
193.118
 20
2.78364
 30
0.0
 11
193.118
 21
16.7831
 31
0.0
  0
LINE
  8
0
 62
     0
 10
135.97
 20
16.7831
 30
0.0
 11
149.969
 21
16.7831
 31
0.0
  0
LINE
  8
0
 62
     0
 10
149.969
 20
16.7831
 30
0.0
 11
149.969
 21
2.78364
 31
0.0
  0
LINE
  8
0
 62
     0
 10
149.969
 20
2.78364
 30
0.0
 11
135.97
 21
2.78364
 31
0.0
  0
LINE
  8
0
 62
     0
 10
135.97
 20
2.78364
 30
0.0
 11
135.97
 21
16.7831
 31
0.0
  0
LINE
  8
0
 62
     0
 10
116.918
 20
16.7831
 30
0.0
 11
130.919
 21
16.7831
 31
0.0
  0
LINE
  8
0
 62
     0
 10
130.919
 20
16.7831
 30
0.0
 11
130.919
 21
2.78364
 31
0.0
  0
LINE
  8
0
 62
     0
 10
130.919
 20
2.78364
 30
0.0
 11
116.918
 21
2.78364
 31
0.0
  0
LINE
  8
0
 62
     0
 10
116.918
 20
2.78364
 30
0.0
 11
116.918
 21
16.7831
 31
0.0
  0
LINE
  8
0
 62
     0
 10
59.7697
 20
16.7831
 30
0.0
 11
73.769
 21
16.7831
 31
0.0
  0
LINE
  8
0
 62
     0
 10
73.769
 20
16.7831
 30
0.0
 11
73.769
 21
2.78364
 31
0.0
  0
LINE
  8
0
 62
     0
 10
73.769
 20
2.78364
 30
0.0
 11
59.7697
 21
2.78364
 31
0.0
  0
LINE
  8
0
 62
     0
 10
59.7697
 20
2.78364
 30
0.0
 11
59.7697
 21
16.7831
 31
0.0
  0
LINE
  8
0
 62
     0
 10
40.7197
 20
16.7831
 30
0.0
 11
54.719
 21
16.7831
 31
0.0
  0
LINE
  8
0
 62
     0
 10
54.719
 20
16.7831
 30
0.0
 11
54.719
 21
2.78364
 31
0.0
  0
LINE
  8
0
 62
     0
 10
54.719
 20
2.78364
 30
0.0
 11
40.7197
 21
2.78364
 31
0.0
  0
LINE
  8
0
 62
     0
 10
40.7197
 20
2.78364
 30
0.0
 11
40.7197
 21
16.7831
 31
0.0
  0
LINE
  8
0
 62
     0
 10
21.6697
 20
16.7831
 30
0.0
 11
35.669
 21
16.7831
 31
0.0
  0
LINE
  8
0
 62
     0
 10
35.669
 20
16.7831
 30
0.0
 11
35.669
 21
2.78364
 31
0.0
  0
LINE
  8
0
 62
     0
 10
35.669
 20
2.78364
 30
0.0
 11
21.6697
 21
2.78364
 31
0.0
  0
LINE
  8
0
 62
     0
 10
21.6697
 20
2.78364
 30
0.0
 11
21.6697
 21
16.7831
 31
0.0
  0
LINE
  8
0
 62
     0
 10
2.61965
 20
16.7831
 30
0.0
 11
16.6192
 21
16.7831
 31
0.0
  0
LINE
  8
0
 62
     0
 10
16.6192
 20
16.7831
 30
0.0
 11
16.6192
 21
2.78364
 31
0.0
  0
LINE
  8
0
 62
     0
 10
16.6192
 20
2.78364
 30
0.0
 11
2.61965
 21
2.78364
 31
0.0
  0
LINE
  8
0
 62
     0
 10
2.61965
 20
2.78364
 30
0.0
 11
2.61965
 21
16.7831
 31
0.0
  0
LINE
  8
0
 62
     0
 10
250.27
 20
35.833
 30
0.0
 11
264.269
 21
35.833
 31
0.0
  0
LINE
  8
0
 62
     0
 10
264.269
 20
35.833
 30
0.0
 11
264.269
 21
21.8336
 31
0.0
  0
LINE
  8
0
 62
     0
 10
264.269
 20
21.8336
 30
0.0
 11
250.27
 21
21.8336
 31
0.0
  0
LINE
  8
0
 62
     0
 10
250.27
 20
21.8336
 30
0.0
 11
250.27
 21
35.833
 31
0.0
  0
LINE
  8
0
 62
     0
 10
231.22
 20
35.833
 30
0.0
 11
245.219
 21
35.833
 31
0.0
  0
LINE
  8
0
 62
     0
 10
245.219
 20
35.833
 30
0.0
 11
245.219
 21
21.8336
 31
0.0
  0
LINE
  8
0
 62
     0
 10
245.219
 20
21.8336
 30
0.0
 11
231.22
 21
21.8336
 31
0.0
  0
LINE
  8
0
 62
     0
 10
231.22
 20
21.8336
 30
0.0
 11
231.22
 21
35.833
 31
0.0
  0
LINE
  8
0
 62
     0
 10
212.17
 20
35.833
 30
0.0
 11
226.169
 21
35.833
 31
0.0
  0
LINE
  8
0
 62
     0
 10
226.169
 20
35.833
 30
0.0
 11
226.169
 21
21.8336
 31
0.0
  0
LINE
  8
0
 62
     0
 10
226.169
 20
21.8336
 30
0.0
 11
212.17
 21
21.8336
 31
0.0
  0
LINE
  8
0
 62
     0
 10
212.17
 20
21.8336
 30
0.0
 11
212.17
 21
35.833
 31
0.0
  0
LINE
  8
0
 62
     0
 10
193.12
 20
35.833
 30
0.0
 11
207.119
 21
35.833
 31
0.0
  0
LINE
  8
0
 62
     0
 10
207.119
 20
35.833
 30
0.0
 11
207.119
 21
21.8336
 31
0.0
  0
LINE
  8
0
 62
     0
 10
207.119
 20
21.8336
 30
0.0
 11
193.12
 21
21.8336
 31
0.0
  0
LINE
  8
0
 62
     0
 10
193.12
 20
21.8336
 30
0.0
 11
193.12
 21
35.833
 31
0.0
  0
LINE
  8
0
 62
     0
 10
174.07
 20
35.833
 30
0.0
 11
188.069
 21
35.833
 31
0.0
  0
LINE
  8
0
 62
     0
 10
188.069
 20
35.833
 30
0.0
 11
188.069
 21
21.8336
 31
0.0
  0
LINE
  8
0
 62
     0
 10
188.069
 20
21.8336
 30
0.0
 11
174.07
 21
21.8336
 31
0.0
  0
LINE
  8
0
 62
     0
 10
174.07
 20
21.8336
 30
0.0
 11
174.07
 21
35.833
 31
0.0
  0
LINE
  8
0
 62
     0
 10
155.02
 20
35.833
 30
0.0
 11
169.019
 21
35.833
 31
0.0
  0
LINE
  8
0
 62
     0
 10
169.019
 20
35.833
 30
0.0
 11
169.019
 21
21.8336
 31
0.0
  0
LINE
  8
0
 62
     0
 10
169.019
 20
21.8336
 30
0.0
 11
155.02
 21
21.8336
 31
0.0
  0
LINE
  8
0
 62
     0
 10
155.02
 20
21.8336
 30
0.0
 11
155.02
 21
35.833
 31
0.0
  0
LINE
  8
0
 62
     0
 10
135.97
 20
35.833
 30
0.0
 11
149.969
 21
35.833
 31
0.0
  0
LINE
  8
0
 62
     0
 10
149.969
 20
35.833
 30
0.0
 11
149.969
 21
21.8336
 31
0.0
  0
LINE
  8
0
 62
     0
 10
149.969
 20
21.8336
 30
0.0
 11
135.97
 21
21.8336
 31
0.0
  0
LINE
  8
0
 62
     0
 10
135.97
 20
21.8336
 30
0.0
 11
135.97
 21
35.833
 31
0.0
  0
LINE
  8
0
 62
     0
 10
116.918
 20
35.833
 30
0.0
 11
130.919
 21
35.833
 31
0.0
  0
LINE
  8
0
 62
     0
 10
130.919
 20
35.833
 30
0.0
 11
130.919
 21
21.8336
 31
0.0
  0
LINE
  8
0
 62
     0
 10
130.919
 20
21.8336
 30
0.0
 11
116.918
 21
21.8336
 31
0.0
  0
LINE
  8
0
 62
     0
 10
116.918
 20
21.8336
 30
0.0
 11
116.918
 21
35.833
 31
0.0
  0
LINE
  8
0
 62
     0
 10
97.8683
 20
35.833
 30
0.0
 11
111.869
 21
35.833
 31
0.0
  0
LINE
  8
0
 62
     0
 10
111.869
 20
35.833
 30
0.0
 11
111.869
 21
21.8336
 31
0.0
  0
LINE
  8
0
 62
     0
 10
111.869
 20
21.8336
 30
0.0
 11
97.8683
 21
21.8336
 31
0.0
  0
LINE
  8
0
 62
     0
 10
97.8683
 20
21.8336
 30
0.0
 11
97.8683
 21
35.833
 31
0.0
  0
LINE
  8
0
 62
     0
 10
78.8197
 20
35.833
 30
0.0
 11
92.819
 21
35.833
 31
0.0
  0
LINE
  8
0
 62
     0
 10
92.819
 20
35.833
 30
0.0
 11
92.819
 21
21.8336
 31
0.0
  0
LINE
  8
0
 62
     0
 10
92.819
 20
21.8336
 30
0.0
 11
78.8197
 21
21.8336
 31
0.0
  0
LINE
  8
0
 62
     0
 10
78.8197
 20
21.8336
 30
0.0
 11
78.8197
 21
35.833
 31
0.0
  0
LINE
  8
0
 62
     0
 10
59.7697
 20
35.833
 30
0.0
 11
73.769
 21
35.833
 31
0.0
  0
LINE
  8
0
 62
     0
 10
73.769
 20
35.833
 30
0.0
 11
73.769
 21
21.8336
 31
0.0
  0
LINE
  8
0
 62
     0
 10
73.769
 20
21.8336
 30
0.0
 11
59.7697
 21
21.8336
 31
0.0
  0
LINE
  8
0
 62
     0
 10
59.7697
 20
21.8336
 30
0.0
 11
59.7697
 21
35.833
 31
0.0
  0
LINE
  8
0
 62
     0
 10
40.7197
 20
35.833
 30
0.0
 11
54.719
 21
35.833
 31
0.0
  0
LINE
  8
0
 62
     0
 10
54.719
 20
35.833
 30
0.0
 11
54.719
 21
21.8336
 31
0.0
  0
LINE
  8
0
 62
     0
 10
54.719
 20
21.8336
 30
0.0
 11
40.7197
 21
21.8336
 31
0.0
  0
LINE
  8
0
 62
     0
 10
40.7197
 20
21.8336
 30
0.0
 11
40.7197
 21
35.833
 31
0.0
  0
LINE
  8
0
 62
     0
 10
21.6697
 20
35.833
 30
0.0
 11
35.669
 21
35.833
 31
0.0
  0
LINE
  8
0
 62
     0
 10
35.669
 20
35.833
 30
0.0
 11
35.669
 21
21.8336
 31
0.0
  0
LINE
  8
0
 62
     0
 10
35.669
 20
21.8336
 30
0.0
 11
21.6697
 21
21.8336
 31
0.0
  0
LINE
  8
0
 62
     0
 10
21.6697
 20
21.8336
 30
0.0
 11
21.6697
 21
35.833
 31
0.0
  0
LINE
  8
0
 62
     0
 10
2.61965
 20
35.833
 30
0.0
 11
16.6192
 21
35.833
 31
0.0
  0
LINE
  8
0
 62
     0
 10
16.6192
 20
35.833
 30
0.0
 11
16.6192
 21
21.8336
 31
0.0
  0
LINE
  8
0
 62
     0
 10
16.6192
 20
21.8336
 30
0.0
 11
2.61965
 21
21.8336
 31
0.0
  0
LINE
  8
0
 62
     0
 10
2.61965
 20
21.8336
 30
0.0
 11
2.61965
 21
35.833
 31
0.0
  0
LINE
  8
0
 62
     0
 10
250.27
 20
54.8831
 30
0.0
 11
264.269
 21
54.8831
 31
0.0
  0
LINE
  8
0
 62
     0
 10
264.269
 20
54.8831
 30
0.0
 11
264.269
 21
40.8838
 31
0.0
  0
LINE
  8
0
 62
     0
 10
264.269
 20
40.8838
 30
0.0
 11
250.27
 21
40.8838
 31
0.0
  0
LINE
  8
0
 62
     0
 10
250.27
 20
40.8838
 30
0.0
 11
250.27
 21
54.8831
 31
0.0
  0
LINE
  8
0
 62
     0
 10
231.22
 20
54.8831
 30
0.0
 11
245.219
 21
54.8831
 31
0.0
  0
LINE
  8
0
 62
     0
 10
245.219
 20
54.8831
 30
0.0
 11
245.219
 21
40.8838
 31
0.0
  0
LINE
  8
0
 62
     0
 10
245.219
 20
40.8838
 30
0.0
 11
231.22
 21
40.8838
 31
0.0
  0
LINE
  8
0
 62
     0
 10
231.22
 20
40.8838
 30
0.0
 11
231.22
 21
54.8831
 31
0.0
  0
LINE
  8
0
 62
     0
 10
212.17
 20
54.8831
 30
0.0
 11
226.169
 21
54.8831
 31
0.0
  0
LINE
  8
0
 62
     0
 10
226.169
 20
54.8831
 30
0.0
 11
226.169
 21
40.8838
 31
0.0
  0
LINE
  8
0
 62
     0
 10
226.169
 20
40.8838
 30
0.0
 11
212.17
 21
40.8838
 31
0.0
  0
LINE
  8
0
 62
     0
 10
212.17
 20
40.8838
 30
0.0
 11
212.17
 21
54.8831
 31
0.0
  0
LINE
  8
0
 62
     0
 10
193.12
 20
54.8831
 30
0.0
 11
207.119
 21
54.8831
 31
0.0
  0
LINE
  8
0
 62
     0
 10
207.119
 20
54.8831
 30
0.0
 11
207.119
 21
40.8838
 31
0.0
  0
LINE
  8
0
 62
     0
 10
207.119
 20
40.8838
 30
0.0
 11
193.12
 21
40.8838
 31
0.0
  0
LINE
  8
0
 62
     0
 10
193.12
 20
40.8838
 30
0.0
 11
193.12
 21
54.8831
 31
0.0
  0
LINE
  8
0
 62
     0
 10
174.07
 20
54.8831
 30
0.0
 11
188.069
 21
54.8831
 31
0.0
  0
LINE
  8
0
 62
     0
 10
188.069
 20
54.8831
 30
0.0
 11
188.069
 21
40.8838
 31
0.0
  0
LINE
  8
0
 62
     0
 10
188.069
 20
40.8838
 30
0.0
 11
174.07
 21
40.8838
 31
0.0
  0
LINE
  8
0
 62
     0
 10
174.07
 20
40.8838
 30
0.0
 11
174.07
 21
54.8831
 31
0.0
  0
LINE
  8
0
 62
     0
 10
155.02
 20
54.8831
 30
0.0
 11
169.019
 21
54.8831
 31
0.0
  0
LINE
  8
0
 62
     0
 10
169.019
 20
54.8831
 30
0.0
 11
169.019
 21
40.8838
 31
0.0
  0
LINE
  8
0
 62
     0
 10
169.019
 20
40.8838
 30
0.0
 11
155.02
 21
40.8838
 31
0.0
  0
LINE
  8
0
 62
     0
 10
155.02
 20
40.8838
 30
0.0
 11
155.02
 21
54.8831
 31
0.0
  0
LINE
  8
0
 62
     0
 10
135.97
 20
54.8831
 30
0.0
 11
149.969
 21
54.8831
 31
0.0
  0
LINE
  8
0
 62
     0
 10
149.969
 20
54.8831
 30
0.0
 11
149.969
 21
40.8838
 31
0.0
  0
LINE
  8
0
 62
     0
 10
149.969
 20
40.8838
 30
0.0
 11
135.97
 21
40.8838
 31
0.0
  0
LINE
  8
0
 62
     0
 10
135.97
 20
40.8838
 30
0.0
 11
135.97
 21
54.8831
 31
0.0
  0
LINE
  8
0
 62
     0
 10
116.918
 20
54.8831
 30
0.0
 11
130.919
 21
54.8831
 31
0.0
  0
LINE
  8
0
 62
     0
 10
130.919
 20
54.8831
 30
0.0
 11
130.919
 21
40.8838
 31
0.0
  0
LINE
  8
0
 62
     0
 10
130.919
 20
40.8838
 30
0.0
 11
116.918
 21
40.8838
 31
0.0
  0
LINE
  8
0
 62
     0
 10
116.918
 20
40.8838
 30
0.0
 11
116.918
 21
54.8831
 31
0.0
  0
LINE
  8
0
 62
     0
 10
97.8683
 20
54.8831
 30
0.0
 11
111.869
 21
54.8831
 31
0.0
  0
LINE
  8
0
 62
     0
 10
111.869
 20
54.8831
 30
0.0
 11
111.869
 21
40.8838
 31
0.0
  0
LINE
  8
0
 62
     0
 10
111.869
 20
40.8838
 30
0.0
 11
97.8683
 21
40.8838
 31
0.0
  0
LINE
  8
0
 62
     0
 10
97.8683
 20
40.8838
 30
0.0
 11
97.8683
 21
54.8831
 31
0.0
  0
LINE
  8
0
 62
     0
 10
78.8197
 20
54.8831
 30
0.0
 11
92.819
 21
54.8831
 31
0.0
  0
LINE
  8
0
 62
     0
 10
92.819
 20
54.8831
 30
0.0
 11
92.819
 21
40.8838
 31
0.0
  0
LINE
  8
0
 62
     0
 10
92.819
 20
40.8838
 30
0.0
 11
78.8197
 21
40.8838
 31
0.0
  0
LINE
  8
0
 62
     0
 10
78.8197
 20
40.8838
 30
0.0
 11
78.8197
 21
54.8831
 31
0.0
  0
LINE
  8
0
 62
     0
 10
59.7697
 20
54.8831
 30
0.0
 11
73.769
 21
54.8831
 31
0.0
  0
LINE
  8
0
 62
     0
 10
73.769
 20
54.8831
 30
0.0
 11
73.769
 21
40.8838
 31
0.0
  0
LINE
  8
0
 62
     0
 10
73.769
 20
40.8838
 30
0.0
 11
59.7697
 21
40.8838
 31
0.0
  0
LINE
  8
0
 62
     0
 10
59.7697
 20
40.8838
 30
0.0
 11
59.7697
 21
54.8831
 31
0.0
  0
LINE
  8
0
 62
     0
 10
40.7197
 20
54.8831
 30
0.0
 11
54.719
 21
54.8831
 31
0.0
  0
LINE
  8
0
 62
     0
 10
54.719
 20
54.8831
 30
0.0
 11
54.719
 21
40.8838
 31
0.0
  0
LINE
  8
0
 62
     0
 10
54.719
 20
40.8838
 30
0.0
 11
40.7197
 21
40.8838
 31
0.0
  0
LINE
  8
0
 62
     0
 10
40.7197
 20
40.8838
 30
0.0
 11
40.7197
 21
54.8831
 31
0.0
  0
LINE
  8
0
 62
     0
 10
21.6697
 20
54.8831
 30
0.0
 11
35.669
 21
54.8831
 31
0.0
  0
LINE
  8
0
 62
     0
 10
35.669
 20
54.8831
 30
0.0
 11
35.669
 21
40.8838
 31
0.0
  0
LINE
  8
0
 62
     0
 10
35.669
 20
40.8838
 30
0.0
 11
21.6697
 21
40.8838
 31
0.0
  0
LINE
  8
0
 62
     0
 10
21.6697
 20
40.8838
 30
0.0
 11
21.6697
 21
54.8831
 31
0.0
  0
LINE
  8
0
 62
     0
 10
2.61965
 20
54.8831
 30
0.0
 11
16.6192
 21
54.8831
 31
0.0
  0
LINE
  8
0
 62
     0
 10
16.6192
 20
54.8831
 30
0.0
 11
16.6192
 21
40.8838
 31
0.0
  0
LINE
  8
0
 62
     0
 10
16.6192
 20
40.8838
 30
0.0
 11
2.61965
 21
40.8838
 31
0.0
  0
LINE
  8
0
 62
     0
 10
2.61965
 20
40.8838
 30
0.0
 11
2.61965
 21
54.8831
 31
0.0
  0
LINE
  8
0
 62
     0
 10
250.27
 20
73.9331
 30
0.0
 11
264.269
 21
73.9331
 31
0.0
  0
LINE
  8
0
 62
     0
 10
264.269
 20
73.9331
 30
0.0
 11
264.269
 21
59.9338
 31
0.0
  0
LINE
  8
0
 62
     0
 10
264.269
 20
59.9338
 30
0.0
 11
250.27
 21
59.9338
 31
0.0
  0
LINE
  8
0
 62
     0
 10
250.27
 20
59.9338
 30
0.0
 11
250.27
 21
73.9331
 31
0.0
  0
LINE
  8
0
 62
     0
 10
231.22
 20
73.9331
 30
0.0
 11
245.219
 21
73.9331
 31
0.0
  0
LINE
  8
0
 62
     0
 10
245.219
 20
73.9331
 30
0.0
 11
245.219
 21
59.9338
 31
0.0
  0
LINE
  8
0
 62
     0
 10
245.219
 20
59.9338
 30
0.0
 11
231.22
 21
59.9338
 31
0.0
  0
LINE
  8
0
 62
     0
 10
231.22
 20
59.9338
 30
0.0
 11
231.22
 21
73.9331
 31
0.0
  0
LINE
  8
0
 62
     0
 10
212.17
 20
73.9331
 30
0.0
 11
226.169
 21
73.9331
 31
0.0
  0
LINE
  8
0
 62
     0
 10
226.169
 20
73.9331
 30
0.0
 11
226.169
 21
59.9338
 31
0.0
  0
LINE
  8
0
 62
     0
 10
226.169
 20
59.9338
 30
0.0
 11
212.17
 21
59.9338
 31
0.0
  0
LINE
  8
0
 62
     0
 10
212.17
 20
59.9338
 30
0.0
 11
212.17
 21
73.9331
 31
0.0
  0
LINE
  8
0
 62
     0
 10
193.12
 20
73.9331
 30
0.0
 11
207.119
 21
73.9331
 31
0.0
  0
LINE
  8
0
 62
     0
 10
207.119
 20
73.9331
 30
0.0
 11
207.119
 21
59.9338
 31
0.0
  0
LINE
  8
0
 62
     0
 10
207.119
 20
59.9338
 30
0.0
 11
193.12
 21
59.9338
 31
0.0
  0
LINE
  8
0
 62
     0
 10
193.12
 20
59.9338
 30
0.0
 11
193.12
 21
73.9331
 31
0.0
  0
LINE
  8
0
 62
     0
 10
174.07
 20
73.9331
 30
0.0
 11
188.069
 21
73.9331
 31
0.0
  0
LINE
  8
0
 62
     0
 10
188.069
 20
73.9331
 30
0.0
 11
188.069
 21
59.9338
 31
0.0
  0
LINE
  8
0
 62
     0
 10
188.069
 20
59.9338
 30
0.0
 11
174.07
 21
59.9338
 31
0.0
  0
LINE
  8
0
 62
     0
 10
174.07
 20
59.9338
 30
0.0
 11
174.07
 21
73.9331
 31
0.0
  0
LINE
  8
0
 62
     0
 10
155.02
 20
73.9331
 30
0.0
 11
169.019
 21
73.9331
 31
0.0
  0
LINE
  8
0
 62
     0
 10
169.019
 20
73.9331
 30
0.0
 11
169.019
 21
59.9338
 31
0.0
  0
LINE
  8
0
 62
     0
 10
169.019
 20
59.9338
 30
0.0
 11
155.02
 21
59.9338
 31
0.0
  0
LINE
  8
0
 62
     0
 10
155.02
 20
59.9338
 30
0.0
 11
155.02
 21
73.9331
 31
0.0
  0
LINE
  8
0
 62
     0
 10
135.97
 20
73.9331
 30
0.0
 11
149.969
 21
73.9331
 31
0.0
  0
LINE
  8
0
 62
     0
 10
149.969
 20
73.9331
 30
0.0
 11
149.969
 21
59.9338
 31
0.0
  0
LINE
  8
0
 62
     0
 10
149.969
 20
59.9338
 30
0.0
 11
135.97
 21
59.9338
 31
0.0
  0
LINE
  8
0
 62
     0
 10
135.97
 20
59.9338
 30
0.0
 11
135.97
 21
73.9331
 31
0.0
  0
LINE
  8
0
 62
     0
 10
116.918
 20
73.9331
 30
0.0
 11
130.919
 21
73.9331
 31
0.0
  0
LINE
  8
0
 62
     0
 10
130.919
 20
73.9331
 30
0.0
 11
130.919
 21
59.9338
 31
0.0
  0
LINE
  8
0
 62
     0
 10
130.919
 20
59.9338
 30
0.0
 11
116.918
 21
59.9338
 31
0.0
  0
LINE
  8
0
 62
     0
 10
116.918
 20
59.9338
 30
0.0
 11
116.918
 21
73.9331
 31
0.0
  0
LINE
  8
0
 62
     0
 10
97.8683
 20
73.9331
 30
0.0
 11
111.869
 21
73.9331
 31
0.0
  0
LINE
  8
0
 62
     0
 10
111.869
 20
73.9331
 30
0.0
 11
111.869
 21
59.9338
 31
0.0
  0
LINE
  8
0
 62
     0
 10
111.869
 20
59.9338
 30
0.0
 11
97.8683
 21
59.9338
 31
0.0
  0
LINE
  8
0
 62
     0
 10
97.8683
 20
59.9338
 30
0.0
 11
97.8683
 21
73.9331
 31
0.0
  0
LINE
  8
0
 62
     0
 10
78.8197
 20
73.9331
 30
0.0
 11
92.819
 21
73.9331
 31
0.0
  0
LINE
  8
0
 62
     0
 10
92.819
 20
73.9331
 30
0.0
 11
92.819
 21
59.9338
 31
0.0
  0
LINE
  8
0
 62
     0
 10
92.819
 20
59.9338
 30
0.0
 11
78.8197
 21
59.9338
 31
0.0
  0
LINE
  8
0
 62
     0
 10
78.8197
 20
59.9338
 30
0.0
 11
78.8197
 21
73.9331
 31
0.0
  0
LINE
  8
0
 62
     0
 10
59.7697
 20
73.9331
 30
0.0
 11
73.769
 21
73.9331
 31
0.0
  0
LINE
  8
0
 62
     0
 10
73.769
 20
73.9331
 30
0.0
 11
73.769
 21
59.9338
 31
0.0
  0
LINE
  8
0
 62
     0
 10
73.769
 20
59.9338
 30
0.0
 11
59.7697
 21
59.9338
 31
0.0
  0
LINE
  8
0
 62
     0
 10
59.7697
 20
59.9338
 30
0.0
 11
59.7697
 21
73.9331
 31
0.0
  0
LINE
  8
0
 62
     0
 10
40.7197
 20
73.9331
 30
0.0
 11
54.719
 21
73.9331
 31
0.0
  0
LINE
  8
0
 62
     0
 10
54.719
 20
73.9331
 30
0.0
 11
54.719
 21
59.9338
 31
0.0
  0
LINE
  8
0
 62
     0
 10
54.719
 20
59.9338
 30
0.0
 11
40.7197
 21
59.9338
 31
0.0
  0
LINE
  8
0
 62
     0
 10
40.7197
 20
59.9338
 30
0.0
 11
40.7197
 21
73.9331
 31
0.0
  0
LINE
  8
0
 62
     0
 10
21.6697
 20
73.9331
 30
0.0
 11
35.669
 21
73.9331
 31
0.0
  0
LINE
  8
0
 62
     0
 10
35.669
 20
73.9331
 30
0.0
 11
35.669
 21
59.9338
 31
0.0
  0
LINE
  8
0
 62
     0
 10
35.669
 20
59.9338
 30
0.0
 11
21.6697
 21
59.9338
 31
0.0
  0
LINE
  8
0
 62
     0
 10
21.6697
 20
59.9338
 30
0.0
 11
21.6697
 21
73.9331
 31
0.0
  0
LINE
  8
0
 62
     0
 10
2.61965
 20
73.9331
 30
0.0
 11
16.6192
 21
73.9331
 31
0.0
  0
LINE
  8
0
 62
     0
 10
16.6192
 20
73.9331
 30
0.0
 11
16.6192
 21
59.9338
 31
0.0
  0
LINE
  8
0
 62
     0
 10
16.6192
 20
59.9338
 30
0.0
 11
2.61965
 21
59.9338
 31
0.0
  0
LINE
  8
0
 62
     0
 10
2.61965
 20
59.9338
 30
0.0
 11
2.61965
 21
73.9331
 31
0.0
  0
ENDSEC
  0
EOF
