  0
SECTION
  2
HEADER
  9
$ACADVER
  1
AC1009
  9
$EXTMIN
 10
0.0
 20
0.0
 30
0.0
  9
$EXTMAX
 10
1000.0
 20
1000.0
 30
0.0
  9
$FILLMODE
 70
 0
  9
$SPLFRAME
 70
 1
  0
ENDSEC
  0
SECTION
  2
TABLES
  0
TABLE
  2
LAYER
 70
1
  0
LAYER
  2
0
 70
     0
 62
     7
  6
CONTINUOUS
  0
ENDTAB
  0
ENDSEC
  0
SECTION
  2
ENTITIES
  0
LINE
  8
0
 62
     0
 10
264.797
 20
76.4575
 30
0.0
 11
264.953
 21
76.4508
 31
0.0
  0
LINE
  8
0
 62
     0
 10
264.953
 20
76.4508
 30
0.0
 11
265.108
 21
76.4328
 31
0.0
  0
LINE
  8
0
 62
     0
 10
265.108
 20
76.4328
 30
0.0
 11
265.263
 21
76.4025
 31
0.0
  0
LINE
  8
0
 62
     0
 10
265.263
 20
76.4025
 30
0.0
 11
265.414
 21
76.3598
 31
0.0
  0
LINE
  8
0
 62
     0
 10
265.414
 20
76.3598
 30
0.0
 11
265.562
 21
76.3048
 31
0.0
  0
LINE
  8
0
 62
     0
 10
265.562
 20
76.3048
 30
0.0
 11
265.704
 21
76.2399
 31
0.0
  0
LINE
  8
0
 62
     0
 10
265.704
 20
76.2399
 30
0.0
 11
265.84
 21
76.163
 31
0.0
  0
LINE
  8
0
 62
     0
 10
265.84
 20
76.163
 30
0.0
 11
265.971
 21
76.0758
 31
0.0
  0
LINE
  8
0
 62
     0
 10
265.971
 20
76.0758
 30
0.0
 11
266.095
 21
75.9781
 31
0.0
  0
LINE
  8
0
 62
     0
 10
266.095
 20
75.9781
 30
0.0
 11
266.211
 21
75.8719
 31
0.0
  0
LINE
  8
0
 62
     0
 10
266.211
 20
75.8719
 30
0.0
 11
266.317
 21
75.7562
 31
0.0
  0
LINE
  8
0
 62
     0
 10
266.317
 20
75.7562
 30
0.0
 11
266.415
 21
75.6338
 31
0.0
  0
LINE
  8
0
 62
     0
 10
266.415
 20
75.6338
 30
0.0
 11
266.502
 21
75.5026
 31
0.0
  0
LINE
  8
0
 62
     0
 10
266.502
 20
75.5026
 30
0.0
 11
266.579
 21
75.365
 31
0.0
  0
LINE
  8
0
 62
     0
 10
266.579
 20
75.365
 30
0.0
 11
266.644
 21
75.2228
 31
0.0
  0
LINE
  8
0
 62
     0
 10
266.644
 20
75.2228
 30
0.0
 11
266.699
 21
75.0768
 31
0.0
  0
LINE
  8
0
 62
     0
 10
266.699
 20
75.0768
 30
0.0
 11
266.74
 21
74.924
 31
0.0
  0
LINE
  8
0
 62
     0
 10
266.74
 20
74.924
 30
0.0
 11
266.772
 21
74.7709
 31
0.0
  0
LINE
  8
0
 62
     0
 10
266.772
 20
74.7709
 30
0.0
 11
266.79
 21
74.6139
 31
0.0
  0
LINE
  8
0
 62
     0
 10
266.79
 20
74.6139
 30
0.0
 11
266.796
 21
74.4569
 31
0.0
  0
LINE
  8
0
 62
     0
 10
266.796
 20
74.4569
 30
0.0
 11
266.796
 21
2.25585
 31
0.0
  0
LINE
  8
0
 62
     0
 10
266.796
 20
2.25585
 30
0.0
 11
266.79
 21
2.10013
 31
0.0
  0
LINE
  8
0
 62
     0
 10
266.79
 20
2.10013
 30
0.0
 11
266.772
 21
1.94441
 31
0.0
  0
LINE
  8
0
 62
     0
 10
266.772
 20
1.94441
 30
0.0
 11
266.74
 21
1.79007
 31
0.0
  0
LINE
  8
0
 62
     0
 10
266.74
 20
1.79007
 30
0.0
 11
266.699
 21
1.63849
 31
0.0
  0
LINE
  8
0
 62
     0
 10
266.699
 20
1.63849
 30
0.0
 11
266.644
 21
1.49104
 31
0.0
  0
LINE
  8
0
 62
     0
 10
266.644
 20
1.49104
 30
0.0
 11
266.579
 21
1.3491
 31
0.0
  0
LINE
  8
0
 62
     0
 10
266.579
 20
1.3491
 30
0.0
 11
266.502
 21
1.21267
 31
0.0
  0
LINE
  8
0
 62
     0
 10
266.502
 20
1.21267
 30
0.0
 11
266.415
 21
1.08176
 31
0.0
  0
LINE
  8
0
 62
     0
 10
266.415
 20
1.08176
 30
0.0
 11
266.317
 21
0.957735
 31
0.0
  0
LINE
  8
0
 62
     0
 10
266.317
 20
0.957735
 30
0.0
 11
266.211
 21
0.841982
 31
0.0
  0
LINE
  8
0
 62
     0
 10
266.211
 20
0.841982
 30
0.0
 11
266.095
 21
0.735873
 31
0.0
  0
LINE
  8
0
 62
     0
 10
266.095
 20
0.735873
 30
0.0
 11
265.971
 21
0.63803
 31
0.0
  0
LINE
  8
0
 62
     0
 10
265.971
 20
0.63803
 30
0.0
 11
265.84
 21
0.551215
 31
0.0
  0
LINE
  8
0
 62
     0
 10
265.84
 20
0.551215
 30
0.0
 11
265.704
 21
0.474045
 31
0.0
  0
LINE
  8
0
 62
     0
 10
265.704
 20
0.474045
 30
0.0
 11
265.562
 21
0.409279
 31
0.0
  0
LINE
  8
0
 62
     0
 10
265.562
 20
0.409279
 30
0.0
 11
265.414
 21
0.354157
 31
0.0
  0
LINE
  8
0
 62
     0
 10
265.414
 20
0.354157
 30
0.0
 11
265.263
 21
0.312815
 31
0.0
  0
LINE
  8
0
 62
     0
 10
265.263
 20
0.312815
 30
0.0
 11
265.108
 21
0.28112
 31
0.0
  0
LINE
  8
0
 62
     0
 10
265.108
 20
0.28112
 30
0.0
 11
264.953
 21
0.263205
 31
0.0
  0
LINE
  8
0
 62
     0
 10
264.953
 20
0.263205
 30
0.0
 11
264.796
 21
0.257693
 31
0.0
  0
LINE
  8
0
 62
     0
 10
264.796
 20
0.257693
 30
0.0
 11
2.096
 21
0.256315
 31
0.0
  0
LINE
  8
0
 62
     0
 10
2.096
 20
0.256315
 30
0.0
 11
1.9389
 21
0.263205
 31
0.0
  0
LINE
  8
0
 62
     0
 10
1.9389
 20
0.263205
 30
0.0
 11
1.7818
 21
0.28112
 31
0.0
  0
LINE
  8
0
 62
     0
 10
1.7818
 20
0.28112
 30
0.0
 11
1.62884
 21
0.312815
 31
0.0
  0
LINE
  8
0
 62
     0
 10
1.62884
 20
0.312815
 30
0.0
 11
1.47588
 21
0.354157
 31
0.0
  0
LINE
  8
0
 62
     0
 10
1.47588
 20
0.354157
 30
0.0
 11
1.32981
 21
0.409279
 31
0.0
  0
LINE
  8
0
 62
     0
 10
1.32981
 20
0.409279
 30
0.0
 11
1.18787
 21
0.474045
 31
0.0
  0
LINE
  8
0
 62
     0
 10
1.18787
 20
0.474045
 30
0.0
 11
1.05006
 21
0.551215
 31
0.0
  0
LINE
  8
0
 62
     0
 10
1.05006
 20
0.551215
 30
0.0
 11
0.919152
 21
0.63803
 31
0.0
  0
LINE
  8
0
 62
     0
 10
0.919152
 20
0.63803
 30
0.0
 11
0.796505
 21
0.735873
 31
0.0
  0
LINE
  8
0
 62
     0
 10
0.796505
 20
0.735873
 30
0.0
 11
0.680752
 21
0.841982
 31
0.0
  0
LINE
  8
0
 62
     0
 10
0.680752
 20
0.841982
 30
0.0
 11
0.574643
 21
0.957735
 31
0.0
  0
LINE
  8
0
 62
     0
 10
0.574643
 20
0.957735
 30
0.0
 11
0.4768
 21
1.08176
 31
0.0
  0
LINE
  8
0
 62
     0
 10
0.4768
 20
1.08176
 30
0.0
 11
0.389985
 21
1.21267
 31
0.0
  0
LINE
  8
0
 62
     0
 10
0.389985
 20
1.21267
 30
0.0
 11
0.312815
 21
1.3491
 31
0.0
  0
LINE
  8
0
 62
     0
 10
0.312815
 20
1.3491
 30
0.0
 11
0.248047
 21
1.49104
 31
0.0
  0
LINE
  8
0
 62
     0
 10
0.248047
 20
1.49104
 30
0.0
 11
0.192925
 21
1.63849
 31
0.0
  0
LINE
  8
0
 62
     0
 10
0.192925
 20
1.63849
 30
0.0
 11
0.150206
 21
1.79007
 31
0.0
  0
LINE
  8
0
 62
     0
 10
0.150206
 20
1.79007
 30
0.0
 11
0.119889
 21
1.94441
 31
0.0
  0
LINE
  8
0
 62
     0
 10
0.119889
 20
1.94441
 30
0.0
 11
0.101975
 21
2.10013
 31
0.0
  0
LINE
  8
0
 62
     0
 10
0.101975
 20
2.10013
 30
0.0
 11
0.0950846
 21
2.25585
 31
0.0
  0
LINE
  8
0
 62
     0
 10
0.0950846
 20
2.25585
 30
0.0
 11
0.0950846
 21
74.4569
 31
0.0
  0
LINE
  8
0
 62
     0
 10
0.0950846
 20
74.4569
 30
0.0
 11
0.101975
 21
74.6139
 31
0.0
  0
LINE
  8
0
 62
     0
 10
0.101975
 20
74.6139
 30
0.0
 11
0.119889
 21
74.7709
 31
0.0
  0
LINE
  8
0
 62
     0
 10
0.119889
 20
74.7709
 30
0.0
 11
0.150206
 21
74.924
 31
0.0
  0
LINE
  8
0
 62
     0
 10
0.150206
 20
74.924
 30
0.0
 11
0.192925
 21
75.0768
 31
0.0
  0
LINE
  8
0
 62
     0
 10
0.192925
 20
75.0768
 30
0.0
 11
0.248047
 21
75.2228
 31
0.0
  0
LINE
  8
0
 62
     0
 10
0.248047
 20
75.2228
 30
0.0
 11
0.312815
 21
75.365
 31
0.0
  0
LINE
  8
0
 62
     0
 10
0.312815
 20
75.365
 30
0.0
 11
0.389985
 21
75.5026
 31
0.0
  0
LINE
  8
0
 62
     0
 10
0.389985
 20
75.5026
 30
0.0
 11
0.4768
 21
75.6338
 31
0.0
  0
LINE
  8
0
 62
     0
 10
0.4768
 20
75.6338
 30
0.0
 11
0.574643
 21
75.7562
 31
0.0
  0
LINE
  8
0
 62
     0
 10
0.574643
 20
75.7562
 30
0.0
 11
0.680752
 21
75.8719
 31
0.0
  0
LINE
  8
0
 62
     0
 10
0.680752
 20
75.8719
 30
0.0
 11
0.796505
 21
75.9781
 31
0.0
  0
LINE
  8
0
 62
     0
 10
0.796505
 20
75.9781
 30
0.0
 11
0.919152
 21
76.0758
 31
0.0
  0
LINE
  8
0
 62
     0
 10
0.919152
 20
76.0758
 30
0.0
 11
1.05006
 21
76.163
 31
0.0
  0
LINE
  8
0
 62
     0
 10
1.05006
 20
76.163
 30
0.0
 11
1.18787
 21
76.2399
 31
0.0
  0
LINE
  8
0
 62
     0
 10
1.18787
 20
76.2399
 30
0.0
 11
1.32981
 21
76.3048
 31
0.0
  0
LINE
  8
0
 62
     0
 10
1.32981
 20
76.3048
 30
0.0
 11
1.47588
 21
76.3598
 31
0.0
  0
LINE
  8
0
 62
     0
 10
1.47588
 20
76.3598
 30
0.0
 11
1.62884
 21
76.4025
 31
0.0
  0
LINE
  8
0
 62
     0
 10
1.62884
 20
76.4025
 30
0.0
 11
1.7818
 21
76.4328
 31
0.0
  0
LINE
  8
0
 62
     0
 10
1.7818
 20
76.4328
 30
0.0
 11
1.9389
 21
76.4508
 31
0.0
  0
LINE
  8
0
 62
     0
 10
1.9389
 20
76.4508
 30
0.0
 11
2.096
 21
76.4575
 31
0.0
  0
LINE
  8
0
 62
     0
 10
2.096
 20
76.4575
 30
0.0
 11
264.797
 21
76.4575
 31
0.0
  0
LINE
  8
0
 62
     0
 10
164.546
 20
16.7817
 30
0.0
 11
164.546
 21
12.0826
 31
0.0
  0
LINE
  8
0
 62
     0
 10
164.546
 20
12.0826
 30
0.0
 11
163.019
 21
12.0826
 31
0.0
  0
LINE
  8
0
 62
     0
 10
163.019
 20
12.0826
 30
0.0
 11
163.019
 21
15.3128
 31
0.0
  0
LINE
  8
0
 62
     0
 10
163.019
 20
15.3128
 30
0.0
 11
161.295
 21
15.3128
 31
0.0
  0
LINE
  8
0
 62
     0
 10
161.295
 20
15.3128
 30
0.0
 11
161.295
 21
16.2333
 31
0.0
  0
LINE
  8
0
 62
     0
 10
161.295
 20
16.2333
 30
0.0
 11
157.995
 21
16.2333
 31
0.0
  0
LINE
  8
0
 62
     0
 10
157.995
 20
16.2333
 30
0.0
 11
157.995
 21
15.3128
 31
0.0
  0
LINE
  8
0
 62
     0
 10
157.995
 20
15.3128
 30
0.0
 11
156.27
 21
15.3128
 31
0.0
  0
LINE
  8
0
 62
     0
 10
156.27
 20
15.3128
 30
0.0
 11
156.27
 21
12.0826
 31
0.0
  0
LINE
  8
0
 62
     0
 10
156.27
 20
12.0826
 30
0.0
 11
155.446
 21
12.0826
 31
0.0
  0
LINE
  8
0
 62
     0
 10
155.446
 20
12.0826
 30
0.0
 11
155.446
 21
9.28247
 31
0.0
  0
LINE
  8
0
 62
     0
 10
155.446
 20
9.28247
 30
0.0
 11
156.27
 21
9.28247
 31
0.0
  0
LINE
  8
0
 62
     0
 10
156.27
 20
9.28247
 30
0.0
 11
156.27
 21
3.01239
 31
0.0
  0
LINE
  8
0
 62
     0
 10
156.27
 20
3.01239
 30
0.0
 11
157.995
 21
3.01239
 31
0.0
  0
LINE
  8
0
 62
     0
 10
157.995
 20
3.01239
 30
0.0
 11
157.995
 21
2.03261
 31
0.0
  0
LINE
  8
0
 62
     0
 10
157.995
 20
2.03261
 30
0.0
 11
161.295
 21
2.03261
 31
0.0
  0
LINE
  8
0
 62
     0
 10
161.295
 20
2.03261
 30
0.0
 11
161.295
 21
3.01239
 31
0.0
  0
LINE
  8
0
 62
     0
 10
161.295
 20
3.01239
 30
0.0
 11
163.019
 21
3.01239
 31
0.0
  0
LINE
  8
0
 62
     0
 10
163.019
 20
3.01239
 30
0.0
 11
163.019
 21
7.48273
 31
0.0
  0
LINE
  8
0
 62
     0
 10
163.019
 20
7.48273
 30
0.0
 11
164.546
 21
7.48273
 31
0.0
  0
LINE
  8
0
 62
     0
 10
164.546
 20
7.48273
 30
0.0
 11
164.546
 21
2.78226
 31
0.0
  0
LINE
  8
0
 62
     0
 10
164.546
 20
2.78226
 30
0.0
 11
178.545
 21
2.78226
 31
0.0
  0
LINE
  8
0
 62
     0
 10
178.545
 20
2.78226
 30
0.0
 11
178.545
 21
7.48273
 31
0.0
  0
LINE
  8
0
 62
     0
 10
178.545
 20
7.48273
 30
0.0
 11
180.071
 21
7.48273
 31
0.0
  0
LINE
  8
0
 62
     0
 10
180.071
 20
7.48273
 30
0.0
 11
180.071
 21
3.01239
 31
0.0
  0
LINE
  8
0
 62
     0
 10
180.071
 20
3.01239
 30
0.0
 11
181.795
 21
3.01239
 31
0.0
  0
LINE
  8
0
 62
     0
 10
181.795
 20
3.01239
 30
0.0
 11
181.795
 21
2.03261
 31
0.0
  0
LINE
  8
0
 62
     0
 10
181.795
 20
2.03261
 30
0.0
 11
185.095
 21
2.03261
 31
0.0
  0
LINE
  8
0
 62
     0
 10
185.095
 20
2.03261
 30
0.0
 11
185.095
 21
3.01239
 31
0.0
  0
LINE
  8
0
 62
     0
 10
185.095
 20
3.01239
 30
0.0
 11
186.821
 21
3.01239
 31
0.0
  0
LINE
  8
0
 62
     0
 10
186.821
 20
3.01239
 30
0.0
 11
186.821
 21
9.28247
 31
0.0
  0
LINE
  8
0
 62
     0
 10
186.821
 20
9.28247
 30
0.0
 11
187.645
 21
9.28247
 31
0.0
  0
LINE
  8
0
 62
     0
 10
187.645
 20
9.28247
 30
0.0
 11
187.645
 21
12.0826
 31
0.0
  0
LINE
  8
0
 62
     0
 10
187.645
 20
12.0826
 30
0.0
 11
186.821
 21
12.0826
 31
0.0
  0
LINE
  8
0
 62
     0
 10
186.821
 20
12.0826
 30
0.0
 11
186.821
 21
15.3128
 31
0.0
  0
LINE
  8
0
 62
     0
 10
186.821
 20
15.3128
 30
0.0
 11
185.095
 21
15.3128
 31
0.0
  0
LINE
  8
0
 62
     0
 10
185.095
 20
15.3128
 30
0.0
 11
185.095
 21
16.2333
 31
0.0
  0
LINE
  8
0
 62
     0
 10
185.095
 20
16.2333
 30
0.0
 11
181.795
 21
16.2333
 31
0.0
  0
LINE
  8
0
 62
     0
 10
181.795
 20
16.2333
 30
0.0
 11
181.795
 21
15.3128
 31
0.0
  0
LINE
  8
0
 62
     0
 10
181.795
 20
15.3128
 30
0.0
 11
180.071
 21
15.3128
 31
0.0
  0
LINE
  8
0
 62
     0
 10
180.071
 20
15.3128
 30
0.0
 11
180.071
 21
12.0826
 31
0.0
  0
LINE
  8
0
 62
     0
 10
180.071
 20
12.0826
 30
0.0
 11
178.545
 21
12.0826
 31
0.0
  0
LINE
  8
0
 62
     0
 10
178.545
 20
12.0826
 30
0.0
 11
178.545
 21
16.7817
 31
0.0
  0
LINE
  8
0
 62
     0
 10
178.545
 20
16.7817
 30
0.0
 11
164.546
 21
16.7817
 31
0.0
  0
LINE
  8
0
 62
     0
 10
88.3461
 20
16.7817
 30
0.0
 11
88.3461
 21
12.0826
 31
0.0
  0
LINE
  8
0
 62
     0
 10
88.3461
 20
12.0826
 30
0.0
 11
86.8204
 21
12.0826
 31
0.0
  0
LINE
  8
0
 62
     0
 10
86.8204
 20
12.0826
 30
0.0
 11
86.8204
 21
15.3128
 31
0.0
  0
LINE
  8
0
 62
     0
 10
86.8204
 20
15.3128
 30
0.0
 11
85.0953
 21
15.3128
 31
0.0
  0
LINE
  8
0
 62
     0
 10
85.0953
 20
15.3128
 30
0.0
 11
85.0953
 21
16.2333
 31
0.0
  0
LINE
  8
0
 62
     0
 10
85.0953
 20
16.2333
 30
0.0
 11
81.7947
 21
16.2333
 31
0.0
  0
LINE
  8
0
 62
     0
 10
81.7947
 20
16.2333
 30
0.0
 11
81.7947
 21
15.3128
 31
0.0
  0
LINE
  8
0
 62
     0
 10
81.7947
 20
15.3128
 30
0.0
 11
80.071
 21
15.3128
 31
0.0
  0
LINE
  8
0
 62
     0
 10
80.071
 20
15.3128
 30
0.0
 11
80.071
 21
12.0826
 31
0.0
  0
LINE
  8
0
 62
     0
 10
80.071
 20
12.0826
 30
0.0
 11
79.2455
 21
12.0826
 31
0.0
  0
LINE
  8
0
 62
     0
 10
79.2455
 20
12.0826
 30
0.0
 11
79.2455
 21
9.28247
 31
0.0
  0
LINE
  8
0
 62
     0
 10
79.2455
 20
9.28247
 30
0.0
 11
80.071
 21
9.28247
 31
0.0
  0
LINE
  8
0
 62
     0
 10
80.071
 20
9.28247
 30
0.0
 11
80.071
 21
3.01239
 31
0.0
  0
LINE
  8
0
 62
     0
 10
80.071
 20
3.01239
 30
0.0
 11
81.7947
 21
3.01239
 31
0.0
  0
LINE
  8
0
 62
     0
 10
81.7947
 20
3.01239
 30
0.0
 11
81.7947
 21
2.03261
 31
0.0
  0
LINE
  8
0
 62
     0
 10
81.7947
 20
2.03261
 30
0.0
 11
85.0953
 21
2.03261
 31
0.0
  0
LINE
  8
0
 62
     0
 10
85.0953
 20
2.03261
 30
0.0
 11
85.0953
 21
3.01239
 31
0.0
  0
LINE
  8
0
 62
     0
 10
85.0953
 20
3.01239
 30
0.0
 11
86.8204
 21
3.01239
 31
0.0
  0
LINE
  8
0
 62
     0
 10
86.8204
 20
3.01239
 30
0.0
 11
86.8204
 21
7.48273
 31
0.0
  0
LINE
  8
0
 62
     0
 10
86.8204
 20
7.48273
 30
0.0
 11
88.3461
 21
7.48273
 31
0.0
  0
LINE
  8
0
 62
     0
 10
88.3461
 20
7.48273
 30
0.0
 11
88.3461
 21
2.78226
 31
0.0
  0
LINE
  8
0
 62
     0
 10
88.3461
 20
2.78226
 30
0.0
 11
102.345
 21
2.78226
 31
0.0
  0
LINE
  8
0
 62
     0
 10
102.345
 20
2.78226
 30
0.0
 11
102.345
 21
7.48273
 31
0.0
  0
LINE
  8
0
 62
     0
 10
102.345
 20
7.48273
 30
0.0
 11
103.871
 21
7.48273
 31
0.0
  0
LINE
  8
0
 62
     0
 10
103.871
 20
7.48273
 30
0.0
 11
103.871
 21
3.01239
 31
0.0
  0
LINE
  8
0
 62
     0
 10
103.871
 20
3.01239
 30
0.0
 11
105.595
 21
3.01239
 31
0.0
  0
LINE
  8
0
 62
     0
 10
105.595
 20
3.01239
 30
0.0
 11
105.595
 21
2.03261
 31
0.0
  0
LINE
  8
0
 62
     0
 10
105.595
 20
2.03261
 30
0.0
 11
108.895
 21
2.03261
 31
0.0
  0
LINE
  8
0
 62
     0
 10
108.895
 20
2.03261
 30
0.0
 11
108.895
 21
3.01239
 31
0.0
  0
LINE
  8
0
 62
     0
 10
108.895
 20
3.01239
 30
0.0
 11
110.621
 21
3.01239
 31
0.0
  0
LINE
  8
0
 62
     0
 10
110.621
 20
3.01239
 30
0.0
 11
110.621
 21
9.28247
 31
0.0
  0
LINE
  8
0
 62
     0
 10
110.621
 20
9.28247
 30
0.0
 11
111.446
 21
9.28247
 31
0.0
  0
LINE
  8
0
 62
     0
 10
111.446
 20
9.28247
 30
0.0
 11
111.446
 21
12.0826
 31
0.0
  0
LINE
  8
0
 62
     0
 10
111.446
 20
12.0826
 30
0.0
 11
110.621
 21
12.0826
 31
0.0
  0
LINE
  8
0
 62
     0
 10
110.621
 20
12.0826
 30
0.0
 11
110.621
 21
15.3128
 31
0.0
  0
LINE
  8
0
 62
     0
 10
110.621
 20
15.3128
 30
0.0
 11
108.895
 21
15.3128
 31
0.0
  0
LINE
  8
0
 62
     0
 10
108.895
 20
15.3128
 30
0.0
 11
108.895
 21
16.2333
 31
0.0
  0
LINE
  8
0
 62
     0
 10
108.895
 20
16.2333
 30
0.0
 11
105.595
 21
16.2333
 31
0.0
  0
LINE
  8
0
 62
     0
 10
105.595
 20
16.2333
 30
0.0
 11
105.595
 21
15.3128
 31
0.0
  0
LINE
  8
0
 62
     0
 10
105.595
 20
15.3128
 30
0.0
 11
103.871
 21
15.3128
 31
0.0
  0
LINE
  8
0
 62
     0
 10
103.871
 20
15.3128
 30
0.0
 11
103.871
 21
12.0826
 31
0.0
  0
LINE
  8
0
 62
     0
 10
103.871
 20
12.0826
 30
0.0
 11
102.345
 21
12.0826
 31
0.0
  0
LINE
  8
0
 62
     0
 10
102.345
 20
12.0826
 30
0.0
 11
102.345
 21
16.7817
 31
0.0
  0
LINE
  8
0
 62
     0
 10
102.345
 20
16.7817
 30
0.0
 11
88.3461
 21
16.7817
 31
0.0
  0
LINE
  8
0
 62
     0
 10
250.271
 20
16.7817
 30
0.0
 11
264.27
 21
16.7817
 31
0.0
  0
LINE
  8
0
 62
     0
 10
264.27
 20
16.7817
 30
0.0
 11
264.27
 21
2.78226
 31
0.0
  0
LINE
  8
0
 62
     0
 10
264.27
 20
2.78226
 30
0.0
 11
250.271
 21
2.78226
 31
0.0
  0
LINE
  8
0
 62
     0
 10
250.271
 20
2.78226
 30
0.0
 11
250.271
 21
16.7817
 31
0.0
  0
LINE
  8
0
 62
     0
 10
231.221
 20
16.7817
 30
0.0
 11
245.22
 21
16.7817
 31
0.0
  0
LINE
  8
0
 62
     0
 10
245.22
 20
16.7817
 30
0.0
 11
245.22
 21
2.78226
 31
0.0
  0
LINE
  8
0
 62
     0
 10
245.22
 20
2.78226
 30
0.0
 11
231.221
 21
2.78226
 31
0.0
  0
LINE
  8
0
 62
     0
 10
231.221
 20
2.78226
 30
0.0
 11
231.221
 21
16.7817
 31
0.0
  0
LINE
  8
0
 62
     0
 10
212.171
 20
16.7817
 30
0.0
 11
226.17
 21
16.7817
 31
0.0
  0
LINE
  8
0
 62
     0
 10
226.17
 20
16.7817
 30
0.0
 11
226.17
 21
2.78226
 31
0.0
  0
LINE
  8
0
 62
     0
 10
226.17
 20
2.78226
 30
0.0
 11
212.171
 21
2.78226
 31
0.0
  0
LINE
  8
0
 62
     0
 10
212.171
 20
2.78226
 30
0.0
 11
212.171
 21
16.7817
 31
0.0
  0
LINE
  8
0
 62
     0
 10
193.12
 20
16.7817
 30
0.0
 11
207.119
 21
16.7817
 31
0.0
  0
LINE
  8
0
 62
     0
 10
207.119
 20
16.7817
 30
0.0
 11
207.119
 21
2.78226
 31
0.0
  0
LINE
  8
0
 62
     0
 10
207.119
 20
2.78226
 30
0.0
 11
193.12
 21
2.78226
 31
0.0
  0
LINE
  8
0
 62
     0
 10
193.12
 20
2.78226
 30
0.0
 11
193.12
 21
16.7817
 31
0.0
  0
LINE
  8
0
 62
     0
 10
135.971
 20
16.7817
 30
0.0
 11
149.97
 21
16.7817
 31
0.0
  0
LINE
  8
0
 62
     0
 10
149.97
 20
16.7817
 30
0.0
 11
149.97
 21
2.78226
 31
0.0
  0
LINE
  8
0
 62
     0
 10
149.97
 20
2.78226
 30
0.0
 11
135.971
 21
2.78226
 31
0.0
  0
LINE
  8
0
 62
     0
 10
135.971
 20
2.78226
 30
0.0
 11
135.971
 21
16.7817
 31
0.0
  0
LINE
  8
0
 62
     0
 10
116.92
 20
16.7817
 30
0.0
 11
130.92
 21
16.7817
 31
0.0
  0
LINE
  8
0
 62
     0
 10
130.92
 20
16.7817
 30
0.0
 11
130.92
 21
2.78226
 31
0.0
  0
LINE
  8
0
 62
     0
 10
130.92
 20
2.78226
 30
0.0
 11
116.92
 21
2.78226
 31
0.0
  0
LINE
  8
0
 62
     0
 10
116.92
 20
2.78226
 30
0.0
 11
116.92
 21
16.7817
 31
0.0
  0
LINE
  8
0
 62
     0
 10
59.7711
 20
16.7817
 30
0.0
 11
73.7704
 21
16.7817
 31
0.0
  0
LINE
  8
0
 62
     0
 10
73.7704
 20
16.7817
 30
0.0
 11
73.7704
 21
2.78226
 31
0.0
  0
LINE
  8
0
 62
     0
 10
73.7704
 20
2.78226
 30
0.0
 11
59.7711
 21
2.78226
 31
0.0
  0
LINE
  8
0
 62
     0
 10
59.7711
 20
2.78226
 30
0.0
 11
59.7711
 21
16.7817
 31
0.0
  0
LINE
  8
0
 62
     0
 10
40.7211
 20
16.7817
 30
0.0
 11
54.7204
 21
16.7817
 31
0.0
  0
LINE
  8
0
 62
     0
 10
54.7204
 20
16.7817
 30
0.0
 11
54.7204
 21
2.78226
 31
0.0
  0
LINE
  8
0
 62
     0
 10
54.7204
 20
2.78226
 30
0.0
 11
40.7211
 21
2.78226
 31
0.0
  0
LINE
  8
0
 62
     0
 10
40.7211
 20
2.78226
 30
0.0
 11
40.7211
 21
16.7817
 31
0.0
  0
LINE
  8
0
 62
     0
 10
21.671
 20
16.7817
 30
0.0
 11
35.6704
 21
16.7817
 31
0.0
  0
LINE
  8
0
 62
     0
 10
35.6704
 20
16.7817
 30
0.0
 11
35.6704
 21
2.78226
 31
0.0
  0
LINE
  8
0
 62
     0
 10
35.6704
 20
2.78226
 30
0.0
 11
21.671
 21
2.78226
 31
0.0
  0
LINE
  8
0
 62
     0
 10
21.671
 20
2.78226
 30
0.0
 11
21.671
 21
16.7817
 31
0.0
  0
LINE
  8
0
 62
     0
 10
2.62103
 20
16.7817
 30
0.0
 11
16.6205
 21
16.7817
 31
0.0
  0
LINE
  8
0
 62
     0
 10
16.6205
 20
16.7817
 30
0.0
 11
16.6205
 21
2.78226
 31
0.0
  0
LINE
  8
0
 62
     0
 10
16.6205
 20
2.78226
 30
0.0
 11
2.62103
 21
2.78226
 31
0.0
  0
LINE
  8
0
 62
     0
 10
2.62103
 20
2.78226
 30
0.0
 11
2.62103
 21
16.7817
 31
0.0
  0
LINE
  8
0
 62
     0
 10
250.271
 20
35.8316
 30
0.0
 11
264.27
 21
35.8316
 31
0.0
  0
LINE
  8
0
 62
     0
 10
264.27
 20
35.8316
 30
0.0
 11
264.27
 21
21.8323
 31
0.0
  0
LINE
  8
0
 62
     0
 10
264.27
 20
21.8323
 30
0.0
 11
250.271
 21
21.8323
 31
0.0
  0
LINE
  8
0
 62
     0
 10
250.271
 20
21.8323
 30
0.0
 11
250.271
 21
35.8316
 31
0.0
  0
LINE
  8
0
 62
     0
 10
231.221
 20
35.8316
 30
0.0
 11
245.22
 21
35.8316
 31
0.0
  0
LINE
  8
0
 62
     0
 10
245.22
 20
35.8316
 30
0.0
 11
245.22
 21
21.8323
 31
0.0
  0
LINE
  8
0
 62
     0
 10
245.22
 20
21.8323
 30
0.0
 11
231.221
 21
21.8323
 31
0.0
  0
LINE
  8
0
 62
     0
 10
231.221
 20
21.8323
 30
0.0
 11
231.221
 21
35.8316
 31
0.0
  0
LINE
  8
0
 62
     0
 10
212.171
 20
35.8316
 30
0.0
 11
226.17
 21
35.8316
 31
0.0
  0
LINE
  8
0
 62
     0
 10
226.17
 20
35.8316
 30
0.0
 11
226.17
 21
21.8323
 31
0.0
  0
LINE
  8
0
 62
     0
 10
226.17
 20
21.8323
 30
0.0
 11
212.171
 21
21.8323
 31
0.0
  0
LINE
  8
0
 62
     0
 10
212.171
 20
21.8323
 30
0.0
 11
212.171
 21
35.8316
 31
0.0
  0
LINE
  8
0
 62
     0
 10
193.121
 20
35.8316
 30
0.0
 11
207.12
 21
35.8316
 31
0.0
  0
LINE
  8
0
 62
     0
 10
207.12
 20
35.8316
 30
0.0
 11
207.12
 21
21.8323
 31
0.0
  0
LINE
  8
0
 62
     0
 10
207.12
 20
21.8323
 30
0.0
 11
193.121
 21
21.8323
 31
0.0
  0
LINE
  8
0
 62
     0
 10
193.121
 20
21.8323
 30
0.0
 11
193.121
 21
35.8316
 31
0.0
  0
LINE
  8
0
 62
     0
 10
174.071
 20
35.8316
 30
0.0
 11
188.07
 21
35.8316
 31
0.0
  0
LINE
  8
0
 62
     0
 10
188.07
 20
35.8316
 30
0.0
 11
188.07
 21
21.8323
 31
0.0
  0
LINE
  8
0
 62
     0
 10
188.07
 20
21.8323
 30
0.0
 11
174.071
 21
21.8323
 31
0.0
  0
LINE
  8
0
 62
     0
 10
174.071
 20
21.8323
 30
0.0
 11
174.071
 21
35.8316
 31
0.0
  0
LINE
  8
0
 62
     0
 10
155.021
 20
35.8316
 30
0.0
 11
169.02
 21
35.8316
 31
0.0
  0
LINE
  8
0
 62
     0
 10
169.02
 20
35.8316
 30
0.0
 11
169.02
 21
21.8323
 31
0.0
  0
LINE
  8
0
 62
     0
 10
169.02
 20
21.8323
 30
0.0
 11
155.021
 21
21.8323
 31
0.0
  0
LINE
  8
0
 62
     0
 10
155.021
 20
21.8323
 30
0.0
 11
155.021
 21
35.8316
 31
0.0
  0
LINE
  8
0
 62
     0
 10
135.971
 20
35.8316
 30
0.0
 11
149.97
 21
35.8316
 31
0.0
  0
LINE
  8
0
 62
     0
 10
149.97
 20
35.8316
 30
0.0
 11
149.97
 21
21.8323
 31
0.0
  0
LINE
  8
0
 62
     0
 10
149.97
 20
21.8323
 30
0.0
 11
135.971
 21
21.8323
 31
0.0
  0
LINE
  8
0
 62
     0
 10
135.971
 20
21.8323
 30
0.0
 11
135.971
 21
35.8316
 31
0.0
  0
LINE
  8
0
 62
     0
 10
116.92
 20
35.8316
 30
0.0
 11
130.92
 21
35.8316
 31
0.0
  0
LINE
  8
0
 62
     0
 10
130.92
 20
35.8316
 30
0.0
 11
130.92
 21
21.8323
 31
0.0
  0
LINE
  8
0
 62
     0
 10
130.92
 20
21.8323
 30
0.0
 11
116.92
 21
21.8323
 31
0.0
  0
LINE
  8
0
 62
     0
 10
116.92
 20
21.8323
 30
0.0
 11
116.92
 21
35.8316
 31
0.0
  0
LINE
  8
0
 62
     0
 10
97.8697
 20
35.8316
 30
0.0
 11
111.869
 21
35.8316
 31
0.0
  0
LINE
  8
0
 62
     0
 10
111.869
 20
35.8316
 30
0.0
 11
111.869
 21
21.8323
 31
0.0
  0
LINE
  8
0
 62
     0
 10
111.869
 20
21.8323
 30
0.0
 11
97.8697
 21
21.8323
 31
0.0
  0
LINE
  8
0
 62
     0
 10
97.8697
 20
21.8323
 30
0.0
 11
97.8697
 21
35.8316
 31
0.0
  0
LINE
  8
0
 62
     0
 10
78.8211
 20
35.8316
 30
0.0
 11
92.8204
 21
35.8316
 31
0.0
  0
LINE
  8
0
 62
     0
 10
92.8204
 20
35.8316
 30
0.0
 11
92.8204
 21
21.8323
 31
0.0
  0
LINE
  8
0
 62
     0
 10
92.8204
 20
21.8323
 30
0.0
 11
78.8211
 21
21.8323
 31
0.0
  0
LINE
  8
0
 62
     0
 10
78.8211
 20
21.8323
 30
0.0
 11
78.8211
 21
35.8316
 31
0.0
  0
LINE
  8
0
 62
     0
 10
59.7711
 20
35.8316
 30
0.0
 11
73.7704
 21
35.8316
 31
0.0
  0
LINE
  8
0
 62
     0
 10
73.7704
 20
35.8316
 30
0.0
 11
73.7704
 21
21.8323
 31
0.0
  0
LINE
  8
0
 62
     0
 10
73.7704
 20
21.8323
 30
0.0
 11
59.7711
 21
21.8323
 31
0.0
  0
LINE
  8
0
 62
     0
 10
59.7711
 20
21.8323
 30
0.0
 11
59.7711
 21
35.8316
 31
0.0
  0
LINE
  8
0
 62
     0
 10
40.7211
 20
35.8316
 30
0.0
 11
54.7204
 21
35.8316
 31
0.0
  0
LINE
  8
0
 62
     0
 10
54.7204
 20
35.8316
 30
0.0
 11
54.7204
 21
21.8323
 31
0.0
  0
LINE
  8
0
 62
     0
 10
54.7204
 20
21.8323
 30
0.0
 11
40.7211
 21
21.8323
 31
0.0
  0
LINE
  8
0
 62
     0
 10
40.7211
 20
21.8323
 30
0.0
 11
40.7211
 21
35.8316
 31
0.0
  0
LINE
  8
0
 62
     0
 10
21.671
 20
35.8316
 30
0.0
 11
35.6704
 21
35.8316
 31
0.0
  0
LINE
  8
0
 62
     0
 10
35.6704
 20
35.8316
 30
0.0
 11
35.6704
 21
21.8323
 31
0.0
  0
LINE
  8
0
 62
     0
 10
35.6704
 20
21.8323
 30
0.0
 11
21.671
 21
21.8323
 31
0.0
  0
LINE
  8
0
 62
     0
 10
21.671
 20
21.8323
 30
0.0
 11
21.671
 21
35.8316
 31
0.0
  0
LINE
  8
0
 62
     0
 10
2.62103
 20
35.8316
 30
0.0
 11
16.6205
 21
35.8316
 31
0.0
  0
LINE
  8
0
 62
     0
 10
16.6205
 20
35.8316
 30
0.0
 11
16.6205
 21
21.8323
 31
0.0
  0
LINE
  8
0
 62
     0
 10
16.6205
 20
21.8323
 30
0.0
 11
2.62103
 21
21.8323
 31
0.0
  0
LINE
  8
0
 62
     0
 10
2.62103
 20
21.8323
 30
0.0
 11
2.62103
 21
35.8316
 31
0.0
  0
LINE
  8
0
 62
     0
 10
250.271
 20
54.8816
 30
0.0
 11
264.27
 21
54.8816
 31
0.0
  0
LINE
  8
0
 62
     0
 10
264.27
 20
54.8816
 30
0.0
 11
264.27
 21
40.8824
 31
0.0
  0
LINE
  8
0
 62
     0
 10
264.27
 20
40.8824
 30
0.0
 11
250.271
 21
40.8824
 31
0.0
  0
LINE
  8
0
 62
     0
 10
250.271
 20
40.8824
 30
0.0
 11
250.271
 21
54.8816
 31
0.0
  0
LINE
  8
0
 62
     0
 10
231.221
 20
54.8816
 30
0.0
 11
245.22
 21
54.8816
 31
0.0
  0
LINE
  8
0
 62
     0
 10
245.22
 20
54.8816
 30
0.0
 11
245.22
 21
40.8824
 31
0.0
  0
LINE
  8
0
 62
     0
 10
245.22
 20
40.8824
 30
0.0
 11
231.221
 21
40.8824
 31
0.0
  0
LINE
  8
0
 62
     0
 10
231.221
 20
40.8824
 30
0.0
 11
231.221
 21
54.8816
 31
0.0
  0
LINE
  8
0
 62
     0
 10
212.171
 20
54.8816
 30
0.0
 11
226.17
 21
54.8816
 31
0.0
  0
LINE
  8
0
 62
     0
 10
226.17
 20
54.8816
 30
0.0
 11
226.17
 21
40.8824
 31
0.0
  0
LINE
  8
0
 62
     0
 10
226.17
 20
40.8824
 30
0.0
 11
212.171
 21
40.8824
 31
0.0
  0
LINE
  8
0
 62
     0
 10
212.171
 20
40.8824
 30
0.0
 11
212.171
 21
54.8816
 31
0.0
  0
LINE
  8
0
 62
     0
 10
193.121
 20
54.8816
 30
0.0
 11
207.12
 21
54.8816
 31
0.0
  0
LINE
  8
0
 62
     0
 10
207.12
 20
54.8816
 30
0.0
 11
207.12
 21
40.8824
 31
0.0
  0
LINE
  8
0
 62
     0
 10
207.12
 20
40.8824
 30
0.0
 11
193.121
 21
40.8824
 31
0.0
  0
LINE
  8
0
 62
     0
 10
193.121
 20
40.8824
 30
0.0
 11
193.121
 21
54.8816
 31
0.0
  0
LINE
  8
0
 62
     0
 10
174.071
 20
54.8816
 30
0.0
 11
188.07
 21
54.8816
 31
0.0
  0
LINE
  8
0
 62
     0
 10
188.07
 20
54.8816
 30
0.0
 11
188.07
 21
40.8824
 31
0.0
  0
LINE
  8
0
 62
     0
 10
188.07
 20
40.8824
 30
0.0
 11
174.071
 21
40.8824
 31
0.0
  0
LINE
  8
0
 62
     0
 10
174.071
 20
40.8824
 30
0.0
 11
174.071
 21
54.8816
 31
0.0
  0
LINE
  8
0
 62
     0
 10
155.021
 20
54.8816
 30
0.0
 11
169.02
 21
54.8816
 31
0.0
  0
LINE
  8
0
 62
     0
 10
169.02
 20
54.8816
 30
0.0
 11
169.02
 21
40.8824
 31
0.0
  0
LINE
  8
0
 62
     0
 10
169.02
 20
40.8824
 30
0.0
 11
155.021
 21
40.8824
 31
0.0
  0
LINE
  8
0
 62
     0
 10
155.021
 20
40.8824
 30
0.0
 11
155.021
 21
54.8816
 31
0.0
  0
LINE
  8
0
 62
     0
 10
135.971
 20
54.8816
 30
0.0
 11
149.97
 21
54.8816
 31
0.0
  0
LINE
  8
0
 62
     0
 10
149.97
 20
54.8816
 30
0.0
 11
149.97
 21
40.8824
 31
0.0
  0
LINE
  8
0
 62
     0
 10
149.97
 20
40.8824
 30
0.0
 11
135.971
 21
40.8824
 31
0.0
  0
LINE
  8
0
 62
     0
 10
135.971
 20
40.8824
 30
0.0
 11
135.971
 21
54.8816
 31
0.0
  0
LINE
  8
0
 62
     0
 10
116.92
 20
54.8816
 30
0.0
 11
130.92
 21
54.8816
 31
0.0
  0
LINE
  8
0
 62
     0
 10
130.92
 20
54.8816
 30
0.0
 11
130.92
 21
40.8824
 31
0.0
  0
LINE
  8
0
 62
     0
 10
130.92
 20
40.8824
 30
0.0
 11
116.92
 21
40.8824
 31
0.0
  0
LINE
  8
0
 62
     0
 10
116.92
 20
40.8824
 30
0.0
 11
116.92
 21
54.8816
 31
0.0
  0
LINE
  8
0
 62
     0
 10
97.8697
 20
54.8816
 30
0.0
 11
111.869
 21
54.8816
 31
0.0
  0
LINE
  8
0
 62
     0
 10
111.869
 20
54.8816
 30
0.0
 11
111.869
 21
40.8824
 31
0.0
  0
LINE
  8
0
 62
     0
 10
111.869
 20
40.8824
 30
0.0
 11
97.8697
 21
40.8824
 31
0.0
  0
LINE
  8
0
 62
     0
 10
97.8697
 20
40.8824
 30
0.0
 11
97.8697
 21
54.8816
 31
0.0
  0
LINE
  8
0
 62
     0
 10
78.8211
 20
54.8816
 30
0.0
 11
92.8204
 21
54.8816
 31
0.0
  0
LINE
  8
0
 62
     0
 10
92.8204
 20
54.8816
 30
0.0
 11
92.8204
 21
40.8824
 31
0.0
  0
LINE
  8
0
 62
     0
 10
92.8204
 20
40.8824
 30
0.0
 11
78.8211
 21
40.8824
 31
0.0
  0
LINE
  8
0
 62
     0
 10
78.8211
 20
40.8824
 30
0.0
 11
78.8211
 21
54.8816
 31
0.0
  0
LINE
  8
0
 62
     0
 10
59.7711
 20
54.8816
 30
0.0
 11
73.7704
 21
54.8816
 31
0.0
  0
LINE
  8
0
 62
     0
 10
73.7704
 20
54.8816
 30
0.0
 11
73.7704
 21
40.8824
 31
0.0
  0
LINE
  8
0
 62
     0
 10
73.7704
 20
40.8824
 30
0.0
 11
59.7711
 21
40.8824
 31
0.0
  0
LINE
  8
0
 62
     0
 10
59.7711
 20
40.8824
 30
0.0
 11
59.7711
 21
54.8816
 31
0.0
  0
LINE
  8
0
 62
     0
 10
40.7211
 20
54.8816
 30
0.0
 11
54.7204
 21
54.8816
 31
0.0
  0
LINE
  8
0
 62
     0
 10
54.7204
 20
54.8816
 30
0.0
 11
54.7204
 21
40.8824
 31
0.0
  0
LINE
  8
0
 62
     0
 10
54.7204
 20
40.8824
 30
0.0
 11
40.7211
 21
40.8824
 31
0.0
  0
LINE
  8
0
 62
     0
 10
40.7211
 20
40.8824
 30
0.0
 11
40.7211
 21
54.8816
 31
0.0
  0
LINE
  8
0
 62
     0
 10
21.671
 20
54.8816
 30
0.0
 11
35.6704
 21
54.8816
 31
0.0
  0
LINE
  8
0
 62
     0
 10
35.6704
 20
54.8816
 30
0.0
 11
35.6704
 21
40.8824
 31
0.0
  0
LINE
  8
0
 62
     0
 10
35.6704
 20
40.8824
 30
0.0
 11
21.671
 21
40.8824
 31
0.0
  0
LINE
  8
0
 62
     0
 10
21.671
 20
40.8824
 30
0.0
 11
21.671
 21
54.8816
 31
0.0
  0
LINE
  8
0
 62
     0
 10
2.62103
 20
54.8816
 30
0.0
 11
16.6205
 21
54.8816
 31
0.0
  0
LINE
  8
0
 62
     0
 10
16.6205
 20
54.8816
 30
0.0
 11
16.6205
 21
40.8824
 31
0.0
  0
LINE
  8
0
 62
     0
 10
16.6205
 20
40.8824
 30
0.0
 11
2.62103
 21
40.8824
 31
0.0
  0
LINE
  8
0
 62
     0
 10
2.62103
 20
40.8824
 30
0.0
 11
2.62103
 21
54.8816
 31
0.0
  0
LINE
  8
0
 62
     0
 10
250.271
 20
73.9316
 30
0.0
 11
264.27
 21
73.9316
 31
0.0
  0
LINE
  8
0
 62
     0
 10
264.27
 20
73.9316
 30
0.0
 11
264.27
 21
59.9324
 31
0.0
  0
LINE
  8
0
 62
     0
 10
264.27
 20
59.9324
 30
0.0
 11
250.271
 21
59.9324
 31
0.0
  0
LINE
  8
0
 62
     0
 10
250.271
 20
59.9324
 30
0.0
 11
250.271
 21
73.9316
 31
0.0
  0
LINE
  8
0
 62
     0
 10
231.221
 20
73.9316
 30
0.0
 11
245.22
 21
73.9316
 31
0.0
  0
LINE
  8
0
 62
     0
 10
245.22
 20
73.9316
 30
0.0
 11
245.22
 21
59.9324
 31
0.0
  0
LINE
  8
0
 62
     0
 10
245.22
 20
59.9324
 30
0.0
 11
231.221
 21
59.9324
 31
0.0
  0
LINE
  8
0
 62
     0
 10
231.221
 20
59.9324
 30
0.0
 11
231.221
 21
73.9316
 31
0.0
  0
LINE
  8
0
 62
     0
 10
212.171
 20
73.9316
 30
0.0
 11
226.17
 21
73.9316
 31
0.0
  0
LINE
  8
0
 62
     0
 10
226.17
 20
73.9316
 30
0.0
 11
226.17
 21
59.9324
 31
0.0
  0
LINE
  8
0
 62
     0
 10
226.17
 20
59.9324
 30
0.0
 11
212.171
 21
59.9324
 31
0.0
  0
LINE
  8
0
 62
     0
 10
212.171
 20
59.9324
 30
0.0
 11
212.171
 21
73.9316
 31
0.0
  0
LINE
  8
0
 62
     0
 10
193.121
 20
73.9316
 30
0.0
 11
207.12
 21
73.9316
 31
0.0
  0
LINE
  8
0
 62
     0
 10
207.12
 20
73.9316
 30
0.0
 11
207.12
 21
59.9324
 31
0.0
  0
LINE
  8
0
 62
     0
 10
207.12
 20
59.9324
 30
0.0
 11
193.121
 21
59.9324
 31
0.0
  0
LINE
  8
0
 62
     0
 10
193.121
 20
59.9324
 30
0.0
 11
193.121
 21
73.9316
 31
0.0
  0
LINE
  8
0
 62
     0
 10
174.071
 20
73.9316
 30
0.0
 11
188.07
 21
73.9316
 31
0.0
  0
LINE
  8
0
 62
     0
 10
188.07
 20
73.9316
 30
0.0
 11
188.07
 21
59.9324
 31
0.0
  0
LINE
  8
0
 62
     0
 10
188.07
 20
59.9324
 30
0.0
 11
174.071
 21
59.9324
 31
0.0
  0
LINE
  8
0
 62
     0
 10
174.071
 20
59.9324
 30
0.0
 11
174.071
 21
73.9316
 31
0.0
  0
LINE
  8
0
 62
     0
 10
155.021
 20
73.9316
 30
0.0
 11
169.02
 21
73.9316
 31
0.0
  0
LINE
  8
0
 62
     0
 10
169.02
 20
73.9316
 30
0.0
 11
169.02
 21
59.9324
 31
0.0
  0
LINE
  8
0
 62
     0
 10
169.02
 20
59.9324
 30
0.0
 11
155.021
 21
59.9324
 31
0.0
  0
LINE
  8
0
 62
     0
 10
155.021
 20
59.9324
 30
0.0
 11
155.021
 21
73.9316
 31
0.0
  0
LINE
  8
0
 62
     0
 10
135.971
 20
73.9316
 30
0.0
 11
149.97
 21
73.9316
 31
0.0
  0
LINE
  8
0
 62
     0
 10
149.97
 20
73.9316
 30
0.0
 11
149.97
 21
59.9324
 31
0.0
  0
LINE
  8
0
 62
     0
 10
149.97
 20
59.9324
 30
0.0
 11
135.971
 21
59.9324
 31
0.0
  0
LINE
  8
0
 62
     0
 10
135.971
 20
59.9324
 30
0.0
 11
135.971
 21
73.9316
 31
0.0
  0
LINE
  8
0
 62
     0
 10
116.92
 20
73.9316
 30
0.0
 11
130.92
 21
73.9316
 31
0.0
  0
LINE
  8
0
 62
     0
 10
130.92
 20
73.9316
 30
0.0
 11
130.92
 21
59.9324
 31
0.0
  0
LINE
  8
0
 62
     0
 10
130.92
 20
59.9324
 30
0.0
 11
116.92
 21
59.9324
 31
0.0
  0
LINE
  8
0
 62
     0
 10
116.92
 20
59.9324
 30
0.0
 11
116.92
 21
73.9316
 31
0.0
  0
LINE
  8
0
 62
     0
 10
97.8697
 20
73.9316
 30
0.0
 11
111.869
 21
73.9316
 31
0.0
  0
LINE
  8
0
 62
     0
 10
111.869
 20
73.9316
 30
0.0
 11
111.869
 21
59.9324
 31
0.0
  0
LINE
  8
0
 62
     0
 10
111.869
 20
59.9324
 30
0.0
 11
97.8697
 21
59.9324
 31
0.0
  0
LINE
  8
0
 62
     0
 10
97.8697
 20
59.9324
 30
0.0
 11
97.8697
 21
73.9316
 31
0.0
  0
LINE
  8
0
 62
     0
 10
78.8211
 20
73.9316
 30
0.0
 11
92.8204
 21
73.9316
 31
0.0
  0
LINE
  8
0
 62
     0
 10
92.8204
 20
73.9316
 30
0.0
 11
92.8204
 21
59.9324
 31
0.0
  0
LINE
  8
0
 62
     0
 10
92.8204
 20
59.9324
 30
0.0
 11
78.8211
 21
59.9324
 31
0.0
  0
LINE
  8
0
 62
     0
 10
78.8211
 20
59.9324
 30
0.0
 11
78.8211
 21
73.9316
 31
0.0
  0
LINE
  8
0
 62
     0
 10
59.7711
 20
73.9316
 30
0.0
 11
73.7704
 21
73.9316
 31
0.0
  0
LINE
  8
0
 62
     0
 10
73.7704
 20
73.9316
 30
0.0
 11
73.7704
 21
59.9324
 31
0.0
  0
LINE
  8
0
 62
     0
 10
73.7704
 20
59.9324
 30
0.0
 11
59.7711
 21
59.9324
 31
0.0
  0
LINE
  8
0
 62
     0
 10
59.7711
 20
59.9324
 30
0.0
 11
59.7711
 21
73.9316
 31
0.0
  0
LINE
  8
0
 62
     0
 10
40.7211
 20
73.9316
 30
0.0
 11
54.7204
 21
73.9316
 31
0.0
  0
LINE
  8
0
 62
     0
 10
54.7204
 20
73.9316
 30
0.0
 11
54.7204
 21
59.9324
 31
0.0
  0
LINE
  8
0
 62
     0
 10
54.7204
 20
59.9324
 30
0.0
 11
40.7211
 21
59.9324
 31
0.0
  0
LINE
  8
0
 62
     0
 10
40.7211
 20
59.9324
 30
0.0
 11
40.7211
 21
73.9316
 31
0.0
  0
LINE
  8
0
 62
     0
 10
21.671
 20
73.9316
 30
0.0
 11
35.6704
 21
73.9316
 31
0.0
  0
LINE
  8
0
 62
     0
 10
35.6704
 20
73.9316
 30
0.0
 11
35.6704
 21
59.9324
 31
0.0
  0
LINE
  8
0
 62
     0
 10
35.6704
 20
59.9324
 30
0.0
 11
21.671
 21
59.9324
 31
0.0
  0
LINE
  8
0
 62
     0
 10
21.671
 20
59.9324
 30
0.0
 11
21.671
 21
73.9316
 31
0.0
  0
LINE
  8
0
 62
     0
 10
2.62103
 20
73.9316
 30
0.0
 11
16.6205
 21
73.9316
 31
0.0
  0
LINE
  8
0
 62
     0
 10
16.6205
 20
73.9316
 30
0.0
 11
16.6205
 21
59.9324
 31
0.0
  0
LINE
  8
0
 62
     0
 10
16.6205
 20
59.9324
 30
0.0
 11
2.62103
 21
59.9324
 31
0.0
  0
LINE
  8
0
 62
     0
 10
2.62103
 20
59.9324
 30
0.0
 11
2.62103
 21
73.9316
 31
0.0
  0
ENDSEC
  0
EOF
