0
SECTION
2
HEADER
9
$INSUNITS
70
4
9
$ACADVER
1
AC1014
9
$HANDSEED
5
FFFF
0
ENDSEC
0
SECTION
2
TABLES
0
TABLE
2
VPORT
5
8
100
AcDbSymbolTable
0
ENDTAB
0
TABLE
2
LTYPE
5
5
100
AcDbSymbolTable
0
LTYPE
5
14
100
AcDbSymbolTableRecord
100
AcDbLinetypeTableRecord
2
BYBLOCK
70
0
0
LTYPE
5
15
100
AcDbSymbolTableRecord
100
AcDbLinetypeTableRecord
2
BYLAYER
70
0
0
ENDTAB
0
TABLE
2
LAYER
5
2
100
AcDbSymbolTable
70
2
0
LAYER
5
50
100
AcDbSymbolTableRecord
100
AcDbLayerTableRecord
2
0
70
0
6
CONTINUOUS
0
ENDTAB
0
TABLE
2
STYLE
5
3
100
AcDbSymbolTable
70
1
0
STYLE
5
11
100
AcDbSymbolTableRecord
100
AcDbTextStyleTableRecord
2
STANDARD
70
0
0
ENDTAB
0
TABLE
2
VIEW
5
6
100
AcDbSymbolTable
70
0
0
ENDTAB
0
TABLE
2
UCS
5
7
100
AcDbSymbolTable
70
0
0
ENDTAB
0
TABLE
2
APPID
5
9
100
AcDbSymbolTable
70
2
0
APPID
5
12
100
AcDbSymbolTableRecord
100
AcDbRegAppTableRecord
2
ACAD
70
0
0
ENDTAB
0
TABLE
2
DIMSTYLE
5
A
100
AcDbSymbolTable
70
1
0
ENDTAB
0
TABLE
2
BLOCK_RECORD
5
1
100
AcDbSymbolTable
70
1
0
BLOCK_RECORD
5
1F
100
AcDbSymbolTableRecord
100
AcDbBlockTableRecord
2
*MODEL_SPACE
0
BLOCK_RECORD
5
1B
100
AcDbSymbolTableRecord
100
AcDbBlockTableRecord
2
*PAPER_SPACE
0
ENDTAB
0
ENDSEC
0
SECTION
2
BLOCKS
0
BLOCK
5
20
100
AcDbEntity
100
AcDbBlockBegin
2
*MODEL_SPACE
0
ENDBLK
5
21
100
AcDbEntity
100
AcDbBlockEnd
0
BLOCK
5
1C
100
AcDbEntity
100
AcDbBlockBegin
2
*PAPER_SPACE
0
ENDBLK
5
1D
100
AcDbEntity
100
AcDbBlockEnd
0
ENDSEC
0
SECTION
2
ENTITIES
0
LWPOLYLINE
5
100
100
AcDbEntity
8
0
100
AcDbPolyline
90
4
70
1
43
0.0
10
-315.7059999999999
20
-96.268500000000017
10
-315.7059999999999
20
-110.268
10
-301.70499999999998
20
-110.268
10
-301.70499999999998
20
-96.268500000000017
0
LWPOLYLINE
5
101
100
AcDbEntity
8
0
100
AcDbPolyline
90
4
70
1
43
0.0
10
-349.04199999999997
20
-95.981700000000018
10
-335.04300000000001
20
-95.981700000000018
10
-335.04300000000001
20
-81.981000000000023
10
-349.04199999999997
20
-81.981000000000023
0
LWPOLYLINE
5
102
100
AcDbEntity
8
0
100
AcDbPolyline
90
4
70
1
43
0.0
10
-282.36700000000002
20
-77.218500000000006
10
-282.36700000000002
20
-91.217799999999997
10
-268.36799999999999
20
-91.217799999999997
10
-268.36799999999999
20
-77.218500000000006
0
LWPOLYLINE
5
103
100
AcDbEntity
8
0
100
AcDbPolyline
90
4
70
1
43
0.0
10
-250.31000000000003
20
-110.79700000000003
10
-236.61599999999999
20
-107.88500000000001
10
-239.52500000000001
20
-94.191699999999997
10
-253.22000000000003
20
-97.102100000000007
0
LWPOLYLINE
5
104
100
AcDbEntity
8
0
100
AcDbPolyline
90
36
70
1
43
0.0
10
-203.72799999999998
20
-37.6633
10
-203.05700000000002
20
-40.823099999999968
10
-196.45300000000003
20
-39.418700000000001
10
-197.12599999999998
20
-36.261700000000005
10
-196.31799999999998
20
-36.088099999999997
10
-196.90100000000001
20
-33.349899999999998
10
-197.70700000000002
20
-33.520800000000001
10
-199.011
20
-27.388500000000001
10
-200.69900000000004
20
-27.7468
10
-200.94700000000003
20
-26.574100000000005
10
-204.17599999999999
20
-27.259
10
-203.92600000000002
20
-28.433100000000003
10
-205.61300000000003
20
-28.791399999999999
10
-204.68400000000003
20
-33.163899999999998
10
-206.17500000000004
20
-33.480800000000002
10
-207.15200000000004
20
-28.883700000000001
10
-220.84700000000001
20
-31.794100000000004
10
-219.87
20
-36.392600000000002
10
-221.36099999999999
20
-36.708300000000008
10
-222.28999999999999
20
-32.337100000000007
10
-223.97800000000001
20
-32.695300000000003
10
-224.22700000000003
20
-31.5213
10
-227.45500000000004
20
-32.20750000000001
10
-227.20699999999999
20
-33.381600000000006
10
-228.89400000000001
20
-33.739899999999999
10
-227.59
20
-39.872
10
-228.39600000000002
20
-40.044499999999999
10
-227.81400000000005
20
-42.783799999999999
10
-227.00700000000001
20
-42.611699999999992
10
-226.33600000000001
20
-45.771500000000003
10
-219.73400000000001
20
-44.367400000000004
10
-220.40500000000003
20
-41.208999999999982
10
-218.91400000000004
20
-40.891900000000007
10
-217.93700000000001
20
-45.488900000000001
10
-204.24300000000002
20
-42.577100000000002
10
-205.21900000000002
20
-37.9801
0
LWPOLYLINE
5
105
100
AcDbEntity
8
0
100
AcDbPolyline
90
4
70
1
43
0.0
10
-236.85200000000003
20
-49.508800000000008
10
-239.76200000000003
20
-35.814000000000007
10
-253.45600000000002
20
-38.725499999999997
10
-250.54500000000002
20
-52.419200000000004
0
LWPOLYLINE
5
106
100
AcDbEntity
8
0
100
AcDbPolyline
90
4
70
1
43
0.0
10
-329.99199999999996
20
-34.355899999999998
10
-329.99199999999996
20
-48.356700000000004
10
-315.99299999999999
20
-48.356700000000004
10
-315.99299999999999
20
-34.355899999999998
0
LWPOLYLINE
5
107
100
AcDbEntity
8
0
100
AcDbPolyline
90
4
70
1
43
0.0
10
-128.67400000000001
20
-25.510200000000005
10
-142.36799999999999
20
-22.599800000000002
10
-145.28
20
-36.294800000000002
10
-131.58600000000001
20
-39.203800000000001
0
LWPOLYLINE
5
108
100
AcDbEntity
8
0
100
AcDbPolyline
90
4
70
1
43
0.0
10
-187.65700000000004
20
-39.052100000000003
10
-173.96200000000005
20
-36.1417
10
-176.87400000000002
20
-22.446899999999999
10
-190.56700000000004
20
-25.358699999999999
0
LWPOLYLINE
5
109
100
AcDbEntity
8
0
100
AcDbPolyline
90
4
70
1
43
0.0
10
-68.696400000000011
20
-52.572000000000003
10
-65.786000000000001
20
-38.878599999999999
10
-79.481200000000001
20
-35.966799999999999
10
-82.390199999999993
20
-49.661600000000007
0
LWPOLYLINE
5
110
100
AcDbEntity
8
0
100
AcDbPolyline
90
4
70
1
43
0.0
10
-137.01300000000001
20
-43.213900000000002
10
-139.923
20
-56.908700000000003
10
-126.23000000000002
20
-59.818100000000001
10
-123.31800000000001
20
-46.124299999999991
0
LWPOLYLINE
5
111
100
AcDbEntity
8
0
100
AcDbPolyline
90
4
70
1
43
0.0
10
-21.383000000000006
20
-39.118499999999997
10
-21.383000000000006
20
-53.117800000000003
10
-7.3821600000000007
20
-53.117800000000003
10
-7.3821599999999998
20
-39.118499999999997
0
LWPOLYLINE
5
112
100
AcDbEntity
8
0
100
AcDbPolyline
90
4
70
1
43
0.0
10
-349.04199999999997
20
-34.355899999999998
10
-349.04199999999997
20
-48.356700000000004
10
-335.04300000000001
20
-48.356700000000004
10
-335.04300000000001
20
-34.355899999999998
0
LWPOLYLINE
5
113
100
AcDbEntity
8
0
100
AcDbPolyline
90
4
70
1
43
0.0
10
-266.93799999999999
20
-53.117800000000003
10
-266.93799999999999
20
-39.118499999999997
10
-280.93799999999999
20
-39.118499999999997
10
-280.93799999999999
20
-53.117800000000003
0
LWPOLYLINE
5
114
100
AcDbEntity
8
0
100
AcDbPolyline
90
4
70
1
43
0.0
10
-160.685
20
-52.793900000000001
10
-163.595
20
-39.100499999999997
10
-177.28999999999999
20
-42.010899999999999
10
-174.37799999999999
20
-55.7057
0
LWPOLYLINE
5
115
100
AcDbEntity
8
0
100
AcDbPolyline
90
4
70
1
43
0.0
10
-33.575900000000004
20
-39.118499999999997
10
-47.576700000000002
20
-39.118499999999997
10
-47.576700000000002
20
-53.117800000000003
10
-33.575900000000004
20
-53.117800000000003
0
LWPOLYLINE
5
116
100
AcDbEntity
8
0
100
AcDbPolyline
90
4
70
1
43
0.0
10
-179.31900000000002
20
-56.755899999999997
10
-182.22900000000004
20
-43.061100000000003
10
-195.92400000000001
20
-45.9726
10
-193.012
20
-59.66640000000001
0
LWPOLYLINE
5
117
100
AcDbEntity
8
0
100
AcDbPolyline
90
4
70
1
43
0.0
10
-197.952
20
-60.716200000000001
10
-200.863
20
-47.022800000000004
10
-214.55799999999999
20
-49.933200000000006
10
-211.64600000000002
20
-63.62660000000001
0
LWPOLYLINE
5
118
100
AcDbEntity
8
0
100
AcDbPolyline
90
4
70
1
43
0.0
10
-296.94299999999998
20
-48.356700000000004
10
-296.94299999999998
20
-34.355899999999998
10
-310.94200000000001
20
-34.355899999999998
10
-310.94200000000001
20
-48.356700000000004
0
LWPOLYLINE
5
119
100
AcDbEntity
8
0
100
AcDbPolyline
90
4
70
1
43
0.0
10
-272.84199999999998
20
-58.168500000000009
10
-272.84199999999998
20
-72.167799999999986
10
-258.84300000000002
20
-72.167799999999986
10
-258.84300000000002
20
-58.168500000000009
0
LWPOLYLINE
5
120
100
AcDbEntity
8
0
100
AcDbPolyline
90
4
70
1
43
0.0
10
-230.28000000000003
20
-67.587299999999985
10
-216.58500000000004
20
-64.676900000000018
10
-219.49700000000004
20
-50.983400000000003
10
-233.19000000000003
20
-53.893900000000002
0
LWPOLYLINE
5
121
100
AcDbEntity
8
0
100
AcDbPolyline
90
4
70
1
43
0.0
10
-107.596
20
-63.779800000000009
10
-104.68400000000001
20
-50.084900000000005
10
-118.37899999999999
20
-47.174500000000002
10
-121.29000000000002
20
-60.867900000000006
0
LWPOLYLINE
5
122
100
AcDbEntity
8
0
100
AcDbPolyline
90
4
70
1
43
0.0
10
-86.051699999999997
20
-54.046599999999998
10
-99.745100000000008
20
-51.134799999999998
10
-102.65700000000002
20
-64.830000000000013
10
-88.962100000000021
20
-67.740399999999994
0
CIRCLE
5
123
100
AcDbEntity
8
0
100
AcDbCircle
10
-186.42999055123309
20
-79.68475305178859
30
0
40
3.0480000000000018
210
0
220
-0
230
1
0
CIRCLE
5
124
100
AcDbEntity
8
0
100
AcDbCircle
10
-142.235212395502
20
-69.044747221325451
30
0
40
2.0320000000000067
210
0
220
-0
230
1
0
LWPOLYLINE
5
125
100
AcDbEntity
8
0
100
AcDbPolyline
90
4
70
1
43
0.0
10
-283.31999999999999
20
-154.084
10
-269.32099999999997
20
-154.084
10
-269.32099999999997
20
-140.083
10
-283.31999999999999
20
-140.083
0
LWPOLYLINE
5
126
100
AcDbEntity
8
0
100
AcDbPolyline
90
4
70
1
43
0.0
10
-250.27100000000002
20
-140.083
10
-264.26999999999998
20
-140.083
10
-264.26999999999998
20
-154.084
10
-250.27100000000002
20
-154.084
0
CIRCLE
5
127
100
AcDbEntity
8
0
100
AcDbCircle
10
-205.06370234521216
20
-83.645470761866903
30
0
40
3.0480000000000018
210
0
220
-0
230
1
0
LWPOLYLINE
5
128
100
AcDbEntity
8
0
100
AcDbPolyline
90
6
70
1
43
0.0
10
-112.32500000000002
20
-87.411600000000007
10
-115.23600000000002
20
-101.10700000000001
10
-101.54200000000002
20
-104.01700000000002
10
-98.631699999999995
20
-90.323499999999996
10
-104.78355096244979
20
-89.015300017705187
42
5.5560486631182764
10
-106.16956647049655
20
-88.720561820347257
0
LWPOLYLINE
5
129
100
AcDbEntity
8
0
100
AcDbPolyline
90
4
70
1
43
0.0
10
-164.99099999999999
20
-78.348399999999984
10
-178.68599999999998
20
-81.258800000000008
10
-175.774
20
-94.953699999999998
10
-162.08100000000002
20
-92.041799999999995
0
LWPOLYLINE
5
130
100
AcDbEntity
8
0
100
AcDbPolyline
90
36
70
1
43
0.0
10
-113.887
20
-30.156999999999996
10
-120.489
20
-28.752800000000001
10
-121.16
20
-31.914000000000001
10
-121.96700000000001
20
-31.741700000000002
10
-122.54899999999999
20
-34.481299999999997
10
-121.74300000000001
20
-34.650799999999997
10
-123.04600000000001
20
-40.784299999999988
10
-121.358
20
-41.144100000000002
10
-121.60899999999999
20
-42.316800000000001
10
-118.38000000000001
20
-43.002899999999997
10
-118.131
20
-41.828899999999997
10
-116.44300000000001
20
-42.18869999999999
10
-115.51400000000001
20
-37.814599999999999
10
-114.023
20
-38.133200000000002
10
-115
20
-42.730200000000011
10
-101.30500000000001
20
-45.641999999999989
10
-100.328
20
-41.043599999999984
10
-98.837000000000018
20
-41.360400000000006
10
-99.765900000000016
20
-45.7331
10
-98.079300000000003
20
-46.091100000000004
10
-98.328699999999998
20
-47.2652
10
-95.101100000000002
20
-47.951700000000002
10
-94.851699999999994
20
-46.7776
10
-93.163700000000006
20
-47.1357
10
-91.860200000000006
20
-41.003399999999999
10
-91.053700000000006
20
-41.175899999999984
10
-90.4709
20
-38.436199999999999
10
-91.278400000000005
20
-38.26400000000001
10
-90.606000000000009
20
-35.106900000000003
10
-97.209700000000012
20
-33.701300000000003
10
-97.880700000000019
20
-36.862499999999997
10
-99.373300000000015
20
-36.544200000000004
10
-98.396100000000004
20
-31.947100000000002
10
-112.089
20
-29.036600000000004
10
-113.06700000000001
20
-33.633800000000001
10
-114.55799999999999
20
-33.316800000000001
0
CIRCLE
5
131
100
AcDbEntity
8
0
100
AcDbCircle
10
-95.763569919384594
20
-88.985462533799321
30
0
40
3.0480000000000018
210
0
220
-0
230
1
0
LWPOLYLINE
5
132
100
AcDbEntity
8
0
100
AcDbPolyline
90
4
70
1
43
0.0
10
-202.38299999999998
20
-130.11600000000001
10
-199.47099999999992
20
-143.81100000000001
10
-185.77700000000004
20
-140.899
10
-188.68799999999999
20
-127.20500000000001
0
LWPOLYLINE
5
133
100
AcDbEntity
8
0
100
AcDbPolyline
90
4
70
1
43
0.0
10
-211.98099999999999
20
-132.15700000000001
10
-225.67400000000004
20
-135.06700000000001
10
-222.76400000000001
20
-148.762
10
-209.06900000000005
20
-145.85000000000002
0
LWPOLYLINE
5
134
100
AcDbEntity
8
0
100
AcDbPolyline
90
4
70
1
43
0.0
10
-128.80700000000002
20
-142.04300000000001
10
-115.11200000000002
20
-144.953
10
-112.20100000000002
20
-131.25899999999999
10
-125.89500000000001
20
-128.34799999999998
0
LWPOLYLINE
5
135
100
AcDbEntity
8
0
100
AcDbPolyline
90
4
70
1
43
0.0
10
-325.51800000000003
20
-134.08199999999999
10
-325.51800000000003
20
-120.081
10
-339.51700000000005
20
-120.081
10
-339.51700000000005
20
-134.08199999999999
0
LWPOLYLINE
5
136
100
AcDbEntity
8
0
100
AcDbPolyline
90
4
70
1
43
0.0
10
-170.05400000000003
20
-123.245
10
-183.74900000000002
20
-126.155
10
-180.83700000000005
20
-139.84899999999999
10
-167.14400000000001
20
-136.94
0
LWPOLYLINE
5
137
100
AcDbEntity
8
0
100
AcDbPolyline
90
4
70
1
43
0.0
10
-88.909500000000008
20
-136.21100000000001
10
-102.60300000000001
20
-133.29900000000004
10
-105.51400000000001
20
-146.994
10
-91.819900000000004
20
-149.904
0
LWPOLYLINE
5
138
100
AcDbEntity
8
0
100
AcDbPolyline
90
4
70
1
43
0.0
10
-130.83500000000001
20
-127.29900000000001
10
-144.529
20
-124.387
10
-147.43899999999999
20
-138.08100000000002
10
-133.745
20
-140.99299999999999
0
LWPOLYLINE
5
139
100
AcDbEntity
8
0
100
AcDbPolyline
90
4
70
1
43
0.0
10
-49.957900000000002
20
-129.3179999999999
10
-35.9572
20
-129.3179999999999
10
-35.9572
20
-115.31800000000001
10
-49.957900000000002
20
-115.31800000000001
0
LWPOLYLINE
5
140
100
AcDbEntity
8
0
100
AcDbPolyline
90
4
70
1
43
0.0
10
-230.61500000000001
20
-136.11700000000002
10
-244.30800000000002
20
-139.029
10
-241.39800000000002
20
-152.72200000000001
10
-227.70300000000003
20
-149.81200000000001
0
LWPOLYLINE
5
141
100
AcDbEntity
8
0
100
AcDbPolyline
90
4
70
1
43
0.0
10
-295.32299999999998
20
-139.131
10
-309.32400000000001
20
-139.131
10
-309.32400000000001
20
-153.13200000000001
10
-295.32299999999998
20
-153.13200000000001
0
LWPOLYLINE
5
142
100
AcDbEntity
8
0
100
AcDbPolyline
90
4
70
1
43
0.0
10
-70.275800000000004
20
-140.16999999999999
10
-83.969200000000001
20
-137.261
10
-86.881099999999975
20
-150.95400000000001
10
-73.186199999999999
20
-153.86500000000001
0
LWPOLYLINE
5
143
100
AcDbEntity
8
0
100
AcDbPolyline
90
4
70
1
43
0.0
10
-55.007200000000005
20
-132.17600000000002
10
-55.007200000000005
20
-118.176
10
-69.007900000000006
20
-118.176
10
-69.007900000000006
20
-132.17600000000002
0
LWPOLYLINE
5
144
100
AcDbEntity
8
0
100
AcDbPolyline
90
4
70
1
43
0.0
10
-6.4299400000000002
20
-153.13200000000001
10
-6.4299400000000002
20
-139.131
10
-20.430800000000001
20
-139.131
10
-20.430800000000001
20
-153.13200000000001
0
LWPOLYLINE
5
145
100
AcDbEntity
8
0
100
AcDbPolyline
90
4
70
1
43
0.0
10
-320.755
20
-139.131
10
-334.75400000000002
20
-139.131
10
-334.75400000000002
20
-153.13200000000001
10
-320.755
20
-153.13200000000001
0
LWPOLYLINE
5
146
100
AcDbEntity
8
0
100
AcDbPolyline
90
4
70
1
43
0.0
10
-16.9072
20
-115.31800000000001
10
-30.908000000000001
20
-115.31800000000001
10
-30.908000000000001
20
-129.3179999999999
10
-16.9072
20
-129.3179999999999
0
LWPOLYLINE
5
147
100
AcDbEntity
8
0
100
AcDbPolyline
90
4
70
1
43
0.0
10
-126.446
20
-2.9228200000000006
10
-140.44499999999999
20
-2.9228199999999993
10
-140.44499999999999
20
-16.9237
10
-126.446
20
-16.923700000000004
0
LWPOLYLINE
5
148
100
AcDbEntity
8
0
100
AcDbPolyline
90
4
70
1
43
0.0
10
-145.49600000000001
20
-16.923700000000004
10
-145.49600000000001
20
-2.9228200000000006
10
-159.495
20
-2.9228199999999993
10
-159.495
20
-16.9237
0
LWPOLYLINE
5
149
100
AcDbEntity
8
0
100
AcDbPolyline
90
4
70
1
43
0.0
10
-178.54499999999999
20
-16.9237
10
-164.54599999999999
20
-16.923700000000004
10
-164.54599999999999
20
-2.9228200000000006
10
-178.54499999999999
20
-2.9228199999999993
0
LWPOLYLINE
5
150
100
AcDbEntity
8
0
100
AcDbPolyline
90
4
70
1
43
0.0
10
-248.91400000000004
20
-71.547899999999998
10
-235.22000000000003
20
-68.637500000000003
10
-238.13099999999997
20
-54.9437
10
-251.82400000000001
20
-57.854100000000003
0
LWPOLYLINE
5
151
100
AcDbEntity
8
0
100
AcDbPolyline
90
8
70
1
43
0.0
10
-173.61099999999999
20
-60.705300000000008
10
-179.83472673673563
20
-62.028131687328958
42
6.0837408662257912
10
-181.10717480953011
20
-62.298586143697989
10
-187.304
20
-63.615700000000004
10
-184.39400000000003
20
-77.309499999999986
10
-178.21334595406529
20
-75.996015112428722
42
5.4528206035678153
10
-176.8027442668442
20
-75.696240366135342
10
-170.69900000000001
20
-74.399100000000018
0
LWPOLYLINE
5
152
100
AcDbEntity
8
0
100
AcDbPolyline
90
4
70
1
43
0.0
10
-285.036
20
-58.168500000000009
10
-299.03700000000003
20
-58.168500000000009
10
-299.03700000000003
20
-72.167799999999986
10
-285.036
20
-72.167799999999986
0
LWPOLYLINE
5
153
100
AcDbEntity
8
0
100
AcDbPolyline
90
4
70
1
43
0.0
10
-67.417599999999993
20
-58.007199999999997
10
-81.111400000000003
20
-55.096800000000002
10
-84.023200000000017
20
-68.790300000000002
10
-70.328000000000003
20
-71.702100000000002
0
LWPOLYLINE
5
154
100
AcDbEntity
8
0
100
AcDbPolyline
90
4
70
1
43
0.0
10
-59.482900000000001
20
-58.168500000000009
10
-59.482900000000001
20
-72.167799999999986
10
-45.482199999999999
20
-72.167799999999986
10
-45.482199999999999
20
-58.168500000000009
0
LWPOLYLINE
5
155
100
AcDbEntity
8
0
100
AcDbPolyline
90
4
70
1
43
0.0
10
-329.99199999999996
20
-53.40600000000002
10
-329.99199999999996
20
-67.406700000000001
10
-315.99299999999999
20
-67.406700000000001
10
-315.99299999999999
20
-53.40600000000002
0
LWPOLYLINE
5
156
100
AcDbEntity
8
0
100
AcDbPolyline
90
6
70
1
43
0.0
10
-87.53414187826921
20
-92.682365783332457
42
-5.570295328883442
10
-86.151418373387116
20
-92.976250318116328
10
-79.998000000000005
20
-94.284099999999995
10
-82.908400000000015
20
-107.979
10
-96.601799999999997
20
-105.06700000000002
10
-93.691400000000002
20
-91.373700000000014
0
LWPOLYLINE
5
157
100
AcDbEntity
8
0
100
AcDbPolyline
90
36
70
1
43
0.0
10
-6.2521699999999978
20
-64.668800000000005
10
-6.2521699999999978
20
-58.398499999999999
10
-7.9760900000000001
20
-58.398499999999999
10
-7.9760900000000001
20
-57.19830000000001
10
-11.2765
20
-57.19830000000001
10
-11.2765
20
-58.398499999999999
10
-13.001800000000001
20
-58.398499999999999
10
-13.001800000000001
20
-62.868899999999996
10
-14.5259
20
-62.868899999999996
10
-14.5259
20
-58.168500000000009
10
-28.526800000000001
20
-58.168500000000009
10
-28.526800000000001
20
-62.868899999999996
10
-30.050899999999999
20
-62.868899999999996
10
-30.050899999999999
20
-58.398499999999999
10
-31.776200000000003
20
-58.398499999999999
10
-31.776200000000003
20
-57.19830000000001
10
-35.076599999999999
20
-57.19830000000001
10
-35.076599999999999
20
-58.398499999999999
10
-36.8018
20
-58.398499999999999
10
-36.8018
20
-64.668800000000005
10
-37.625900000000001
20
-64.668800000000005
10
-37.625900000000001
20
-67.468800000000016
10
-36.8018
20
-67.468800000000016
10
-36.8018
20
-70.69880000000002
10
-30.050899999999999
20
-70.69880000000002
10
-30.050899999999999
20
-67.468800000000016
10
-28.526800000000001
20
-67.468800000000016
10
-28.526800000000001
20
-72.167799999999986
10
-14.5259
20
-72.167799999999986
10
-14.5259
20
-67.468800000000016
10
-13.001800000000001
20
-67.468800000000016
10
-13.001800000000001
20
-70.69880000000002
10
-6.2521699999999978
20
-70.69880000000002
10
-6.2521699999999978
20
-67.468800000000016
10
-5.426709999999999
20
-67.468800000000016
10
-5.426709999999999
20
-64.668800000000005
0
CIRCLE
5
158
100
AcDbEntity
8
0
100
AcDbCircle
10
-115.08280494554761
20
-65.393545958580034
30
0
40
3.0480000000000018
210
0
220
-0
230
1
0
LWPOLYLINE
5
159
100
AcDbEntity
8
0
100
AcDbPolyline
90
4
70
1
43
0.0
10
-26.335973643255791
20
-47.910461407618989
10
-26.335973643255791
20
-44.354461407619048
10
-28.875973643255751
20
-44.354461407619048
10
-28.875973643255751
20
-47.910461407618989
0
LWPOLYLINE
5
160
100
AcDbEntity
8
0
100
AcDbPolyline
90
6
70
1
43
0.0
10
-125.46388589940608
20
-65.144212530370908
42
-5.7943495674936747
10
-124.13147578447378
20
-65.427411712325096
10
-117.96300000000001
20
-66.738500000000002
10
-120.87299999999999
20
-80.431900000000013
10
-134.56700000000001
20
-77.522900000000021
10
-131.65600000000001
20
-63.828099999999999
0
LWPOLYLINE
5
161
100
AcDbEntity
8
0
100
AcDbPolyline
90
4
70
1
43
0.0
10
-45.195399999999999
20
-140.083
10
-45.195399999999999
20
-154.084
10
-31.196000000000002
20
-154.084
10
-31.196000000000002
20
-140.083
0
LWPOLYLINE
5
162
100
AcDbEntity
8
0
100
AcDbPolyline
90
6
70
1
43
0.0
10
-214.06974444939988
20
-83.617741275670937
42
-5.447625854296545
10
-215.48156533103014
20
-83.917963290067433
10
-221.66
20
-85.231800000000021
10
-224.572
20
-71.536600000000021
10
-210.87700000000001
20
-68.626199999999997
10
-207.96700000000001
20
-82.319999999999979
0
CIRCLE
5
163
100
AcDbEntity
8
0
100
AcDbCircle
10
-161.28521239550182
20
-69.044747221325451
30
0
40
2.0319999999999894
210
0
220
-0
230
1
0
CIRCLE
5
164
100
AcDbEntity
8
0
100
AcDbCircle
10
-190.18803655512269
20
-62.26069556903176
30
0
40
3.0480000000000018
210
0
220
-0
230
1
0
CIRCLE
5
165
100
AcDbEntity
8
0
100
AcDbCircle
10
-8.6803130935285839
20
-162.87016693238309
30
0
40
0.90000000000000191
210
0
220
-0
230
1
0
LWPOLYLINE
5
166
100
AcDbEntity
8
0
100
AcDbPolyline
90
8
70
1
43
0.0
10
-195.43776202233065
20
-79.656756654968333
42
-5.4628312200824256
10
-196.8459465620731
20
-79.956017719916588
10
-203.02800000000002
20
-81.269800000000018
10
-205.93800000000002
20
-67.576300000000003
10
-199.74084595437222
20
-66.259308606469872
42
-6.0846882535783449
10
-198.46857754989469
20
-65.988931829223318
10
-192.24299999999999
20
-64.665899999999993
10
-189.333
20
-78.35939999999998
0
CIRCLE
5
167
100
AcDbEntity
8
0
100
AcDbCircle
10
-116.0803130935286
20
-162.87016693238309
30
0
40
0.89999999999999858
210
0
220
-0
230
1
0
LWPOLYLINE
5
168
100
AcDbEntity
8
0
100
AcDbPolyline
90
36
70
1
43
0.0
10
-297.798
20
-77.448499999999981
10
-297.798
20
-81.918899999999994
10
-299.32400000000001
20
-81.918899999999994
10
-299.32400000000001
20
-77.218500000000006
10
-313.32299999999998
20
-77.218500000000006
10
-313.32299999999998
20
-81.918899999999994
10
-314.84899999999999
20
-81.918899999999994
10
-314.84899999999999
20
-77.448499999999981
10
-316.57400000000001
20
-77.448499999999981
10
-316.57400000000001
20
-76.2483
10
-319.87299999999999
20
-76.2483
10
-319.87299999999999
20
-77.448499999999981
10
-321.59800000000007
20
-77.448499999999981
10
-321.59800000000007
20
-83.718800000000016
10
-322.42400000000004
20
-83.718800000000016
10
-322.42400000000004
20
-86.518799999999999
10
-321.59800000000007
20
-86.518799999999999
10
-321.59800000000007
20
-89.748800000000003
10
-314.84899999999999
20
-89.748800000000003
10
-314.84899999999999
20
-86.518799999999999
10
-313.32299999999998
20
-86.518799999999999
10
-313.32299999999998
20
-91.217799999999997
10
-299.32400000000001
20
-91.217799999999997
10
-299.32400000000001
20
-86.518799999999999
10
-297.798
20
-86.518799999999999
10
-297.798
20
-89.748800000000003
10
-291.04900000000004
20
-89.748800000000003
10
-291.04900000000004
20
-86.518799999999999
10
-290.22300000000001
20
-86.518799999999999
10
-290.22300000000001
20
-83.718800000000016
10
-291.04900000000004
20
-83.718800000000016
10
-291.04900000000004
20
-77.448499999999981
10
-292.774
20
-77.448499999999981
10
-292.774
20
-76.2483
10
-296.07299999999998
20
-76.2483
10
-296.07299999999998
20
-77.448499999999981
0
LWPOLYLINE
5
169
100
AcDbEntity
8
0
100
AcDbPolyline
90
4
70
1
43
0.0
10
-94.390300000000011
20
-71.748999999999995
10
-97.299300000000017
20
-85.44380000000001
10
-83.605500000000021
20
-88.354300000000009
10
-80.695099999999996
20
-74.660799999999981
0
LWPOLYLINE
5
170
100
AcDbEntity
8
0
100
AcDbPolyline
90
6
70
1
43
0.0
10
-106.83102685672702
20
-69.10440568404546
42
-5.7856394530428341
10
-105.49672375320156
20
-69.387990646035604
10
-99.329200000000014
20
-70.69880000000002
10
-102.24000000000001
20
-84.393999999999977
10
-115.93299999999999
20
-81.482100000000003
10
-113.02300000000001
20
-67.788399999999996
0
LWPOLYLINE
5
171
100
AcDbEntity
8
0
100
AcDbPolyline
90
4
70
1
43
0.0
10
-75.754800000000003
20
-75.710700000000003
10
-78.666600000000003
20
-89.404499999999999
10
-64.973200000000006
20
-92.314899999999994
10
-62.061400000000006
20
-78.621099999999998
0
LWPOLYLINE
5
172
100
AcDbEntity
8
0
100
AcDbPolyline
90
4
70
1
43
0.0
10
-226.59999999999999
20
-86.281700000000001
10
-229.511
20
-72.586799999999997
10
-243.20599999999999
20
-75.498699999999999
10
-240.29400000000004
20
-89.192099999999982
0
LWPOLYLINE
5
173
100
AcDbEntity
8
0
100
AcDbPolyline
90
4
70
1
43
0.0
10
-50.246099999999998
20
-140.083
10
-64.245400000000004
20
-140.083
10
-64.245400000000004
20
-154.084
10
-50.246099999999998
20
-154.084
0
CIRCLE
5
174
100
AcDbEntity
8
0
100
AcDbCircle
10
-151.76021239550209
20
-69.044747221325451
30
0
40
3.0480000000000018
210
0
220
-0
230
1
0
CIRCLE
5
175
100
AcDbEntity
8
0
100
AcDbCircle
10
-222.58031309352859
20
-162.87016693238309
30
0
40
0.89999999999999858
210
0
220
-0
230
1
0
CIRCLE
5
176
100
AcDbEntity
8
0
100
AcDbCircle
10
-341.58031309352856
20
-162.87016693238309
30
0
40
0.90000000000003411
210
0
220
-0
230
1
0
CIRCLE
5
177
100
AcDbEntity
8
0
100
AcDbCircle
10
-341.58031309352856
20
2.1298330676169286
30
0
40
0.90000000000003411
210
0
220
-0
230
1
0
CIRCLE
5
178
100
AcDbEntity
8
0
100
AcDbCircle
10
-222.58031309352859
20
2.1298330676169286
30
0
40
0.89999999999999858
210
0
220
-0
230
1
0
CIRCLE
5
179
100
AcDbEntity
8
0
100
AcDbCircle
10
-116.0803130935286
20
2.1298330676169286
30
0
40
0.89999999999999858
210
0
220
-0
230
1
0
CIRCLE
5
180
100
AcDbEntity
8
0
100
AcDbCircle
10
-9.6803130935285839
20
2.1298330676169286
30
0
40
0.90000000000000191
210
0
220
-0
230
1
0
LWPOLYLINE
5
181
100
AcDbEntity
8
0
100
AcDbPolyline
90
4
70
1
43
0.0
10
-291.892
20
-96.268500000000017
10
-291.892
20
-110.268
10
-277.89299999999997
20
-110.268
10
-277.89299999999997
20
-96.268500000000017
0
LWPOLYLINE
5
182
100
AcDbEntity
8
0
100
AcDbPolyline
90
4
70
1
43
0.0
10
-258.84300000000002
20
-96.268500000000017
10
-272.84199999999998
20
-96.268500000000017
10
-272.84199999999998
20
-110.268
10
-258.84300000000002
20
-110.268
0
LWPOLYLINE
5
183
100
AcDbEntity
8
0
100
AcDbPolyline
90
4
70
1
43
0.0
10
-88.334800000000001
20
-111.988
10
-91.246700000000004
20
-125.68100000000001
10
-77.5518
20
-128.59299999999999
10
-74.641400000000004
20
-114.89800000000001
0
LWPOLYLINE
5
184
100
AcDbEntity
8
0
100
AcDbPolyline
90
4
70
1
43
0.0
10
-54.720399999999998
20
-96.268500000000017
10
-54.720399999999998
20
-110.268
10
-40.721100000000007
20
-110.268
10
-40.721100000000007
20
-96.268500000000017
0
LWPOLYLINE
5
185
100
AcDbEntity
8
0
100
AcDbPolyline
90
4
70
1
43
0.0
10
-30.908000000000001
20
-96.268500000000017
10
-30.908000000000001
20
-110.268
10
-16.9072
20
-110.268
10
-16.9072
20
-96.268500000000017
0
LWPOLYLINE
5
186
100
AcDbEntity
8
0
100
AcDbPolyline
90
4
70
1
43
0.0
10
-23.762900000000002
20
-77.218500000000006
10
-23.762900000000002
20
-91.217799999999997
10
-9.7634100000000004
20
-91.217799999999997
10
-9.7634100000000004
20
-77.218500000000006
0
LWPOLYLINE
5
187
100
AcDbEntity
8
0
100
AcDbPolyline
90
4
70
1
43
0.0
10
-181.13099999999991
20
-115.56800000000001
10
-167.43700000000001
20
-112.65600000000001
10
-170.34800000000001
20
-98.962300000000013
10
-184.041
20
-101.873
0
LWPOLYLINE
5
188
100
AcDbEntity
8
0
100
AcDbPolyline
90
4
70
1
43
0.0
10
-296.65600000000001
20
-115.31800000000001
10
-296.65600000000001
20
-129.3179999999999
10
-282.65499999999997
20
-129.3179999999999
10
-282.65499999999997
20
-115.31800000000001
0
LWPOLYLINE
5
189
100
AcDbEntity
8
0
100
AcDbPolyline
90
4
70
1
43
0.0
10
-277.60599999999999
20
-129.3179999999999
10
-263.60500000000002
20
-129.3179999999999
10
-263.60500000000002
20
-115.31800000000001
10
-277.60599999999999
20
-115.31800000000001
0
LWPOLYLINE
5
190
100
AcDbEntity
8
0
100
AcDbPolyline
90
4
70
1
43
0.0
10
-199.76500000000001
20
-119.52799999999999
10
-186.071
20
-116.61799999999999
10
-188.97999999999999
20
-102.92299999999999
10
-202.67500000000001
20
-105.83500000000001
0
LWPOLYLINE
5
191
100
AcDbEntity
8
0
100
AcDbPolyline
90
4
70
1
43
0.0
10
-330.27999999999997
20
-101.03100000000001
10
-344.28100000000001
20
-101.03100000000001
10
-344.28100000000001
20
-115.03200000000001
10
-330.27999999999997
20
-115.03200000000001
0
LWPOLYLINE
5
192
100
AcDbEntity
8
0
100
AcDbPolyline
90
4
70
1
43
0.0
10
-109.87899999999999
20
-121.721
10
-96.185600000000008
20
-124.631
10
-93.275199999999998
20
-110.938
10
-106.96899999999999
20
-108.02600000000001
0
LWPOLYLINE
5
193
100
AcDbEntity
8
0
100
AcDbPolyline
90
4
70
1
43
0.0
10
-207.61400000000003
20
-106.88500000000002
10
-221.30900000000003
20
-109.794
10
-218.39700000000005
20
-123.489
10
-204.70400000000001
20
-120.578
0
LWPOLYLINE
5
194
100
AcDbEntity
8
0
100
AcDbPolyline
90
4
70
1
43
0.0
10
-258.55599999999998
20
-118.176
10
-258.55599999999998
20
-132.17600000000002
10
-244.55500000000001
20
-132.17600000000002
10
-244.55500000000001
20
-118.176
0
LWPOLYLINE
5
195
100
AcDbEntity
8
0
100
AcDbPolyline
90
4
70
1
43
0.0
10
-223.33700000000005
20
-124.53900000000002
10
-226.24900000000002
20
-110.84400000000001
10
-239.94299999999998
20
-113.756
10
-237.03100000000001
20
-127.44900000000001
0
LWPOLYLINE
5
196
100
AcDbEntity
8
0
100
AcDbPolyline
90
4
70
1
43
0.0
10
-315.7059999999999
20
-115.31800000000001
10
-315.7059999999999
20
-129.3179999999999
10
-301.70499999999998
20
-129.3179999999999
10
-301.70499999999998
20
-115.31800000000001
0
LWPOLYLINE
5
197
100
AcDbEntity
8
0
100
AcDbPolyline
90
4
70
1
43
0.0
10
-128.51300000000003
20
-117.76000000000002
10
-114.81999999999999
20
-120.67100000000002
10
-111.90899999999999
20
-106.97600000000001
10
-125.60299999999999
20
-104.06700000000001
0
LWPOLYLINE
5
198
100
AcDbEntity
8
0
100
AcDbPolyline
90
4
70
1
43
0.0
10
-147.14700000000002
20
-113.80000000000001
10
-133.45300000000003
20
-116.70999999999999
10
-130.54300000000001
20
-103.01700000000002
10
-144.23599999999999
20
-100.105
0
LWPOLYLINE
5
199
100
AcDbEntity
8
0
100
AcDbPolyline
90
4
70
1
43
0.0
10
-197.31799999999998
20
-85.220500000000001
10
-194.40799999999996
20
-98.914299999999997
10
-180.71300000000002
20
-96.003900000000016
10
-183.625
20
-82.308700000000016
0
LWPOLYLINE
5
200
100
AcDbEntity
8
0
100
AcDbPolyline
90
4
70
1
43
0.0
10
-249.31799999999998
20
-91.217799999999997
10
-249.31799999999998
20
-77.218500000000006
10
-263.31700000000001
20
-77.218500000000006
10
-263.31700000000001
20
-91.217799999999997
0
LWPOLYLINE
5
201
100
AcDbEntity
8
0
100
AcDbPolyline
90
4
70
1
43
0.0
10
-64.274400000000014
20
-111.94000000000001
10
-61.363900000000001
20
-98.244400000000013
10
-75.057699999999997
20
-95.334000000000003
10
-77.968100000000007
20
-109.02900000000001
0
LWPOLYLINE
5
202
100
AcDbEntity
8
0
100
AcDbPolyline
90
4
70
1
43
0.0
10
-120.17600000000002
20
-100.05800000000001
10
-117.264
20
-86.363200000000035
10
-130.959
20
-83.452800000000011
10
-133.87
20
-97.146199999999993
0
LWPOLYLINE
5
203
100
AcDbEntity
8
0
100
AcDbPolyline
90
4
70
1
43
0.0
10
-213.04200000000003
20
-102.87500000000001
10
-199.34700000000004
20
-99.965600000000009
10
-202.25900000000001
20
-86.270700000000019
10
-215.95200000000003
20
-89.1798
0
LWPOLYLINE
5
204
100
AcDbEntity
8
0
100
AcDbPolyline
90
4
70
1
43
0.0
10
-54.720399999999998
20
-91.217799999999997
10
-40.721100000000007
20
-91.217799999999997
10
-40.721100000000007
20
-77.218500000000006
10
-54.720399999999998
20
-77.218500000000006
0
LWPOLYLINE
5
205
100
AcDbEntity
8
0
100
AcDbPolyline
90
4
70
1
43
0.0
10
-234.58600000000001
20
-93.141499999999994
10
-231.67599999999999
20
-106.83500000000001
10
-217.98100000000002
20
-103.925
10
-220.89300000000003
20
-90.230000000000018
0
LWPOLYLINE
5
206
100
AcDbEntity
8
0
100
AcDbPolyline
90
152
70
1
43
0.0
10
-7.3821600000000025
20
3.1031249999999986
10
-7.3821600000000007
20
0.6031249999999988
42
0.41421356237309459
10
-6.3821600000000007
20
-0.39687500000000164
10
-1.0955399999999971
20
-0.39687499999999998
10
-1.0169900000000001
20
-0.40100999999999998
10
-0.93844499999999997
20
-0.41065500000000033
10
-0.86127500000000012
20
-0.425813
10
-0.7854810000000001
20
-0.44648600000000005
10
-0.71244499999999999
20
-0.47404500000000005
10
-0.64216499999999999
20
-0.50573900000000005
10
-0.57188500000000009
20
-0.545705
10
-0.50711800000000007
20
-0.58842299999999992
10
-0.44510700000000003
20
-0.63802999999999999
10
-0.38723000000000007
20
-0.69039700000000026
10
-0.33486300000000002
20
-0.74827299999999997
10
-0.28525400000000001
20
-0.81028800000000012
10
-0.242535
20
-0.87505499999999992
10
-0.20394999999999999
20
-0.9439559999999998
10
-0.170877
20
-1.0156199999999971
10
-0.143316
20
-1.088649999999999
10
-0.122645
20
-1.164439999999999
10
-0.107487
20
-1.2416100000000001
10
-0.097840800000000006
20
-1.3187799999999981
10
-0.095084600000000019
20
-1.3987099999999941
10
-0.095084600000000019
20
-159.41899999999998
10
-0.097840800000000006
20
-159.49700000000001
10
-0.107487
20
-159.57499999999999
10
-0.122645
20
-159.65299999999999
10
-0.143316
20
-159.72800000000001
10
-0.170877
20
-159.80100000000002
10
-0.20394999999999999
20
-159.87200000000001
10
-0.242535
20
-159.94200000000001
10
-0.28525400000000001
20
-160.00700000000001
10
-0.33486300000000002
20
-160.06899999999999
10
-0.38723000000000007
20
-160.12700000000001
10
-0.44510700000000003
20
-160.179
10
-0.50711800000000007
20
-160.22800000000001
10
-0.57188500000000009
20
-160.27200000000005
10
-0.64216499999999999
20
-160.31000000000003
10
-0.71244499999999999
20
-160.34299999999999
10
-0.7854810000000001
20
-160.37100000000004
10
-0.86127500000000012
20
-160.39100000000002
10
-0.93844499999999997
20
-160.40600000000001
10
-1.0169900000000001
20
-160.416
10
-1.0955399999999971
20
-160.41899999999998
10
-5.4299400000000011
20
-160.41899999999998
42
0.41421356237309015
10
-6.4299399999999984
20
-161.41899999999998
10
-6.4299400000000029
20
-163.91899999999998
42
-0.41421356237309015
10
-7.4299400000000002
20
-164.91900000000001
10
-9.9299400000000002
20
-164.91900000000001
42
-0.41421356237309048
10
-10.92994
20
-163.91899999999998
10
-10.92994
20
-161.41899999999998
42
0.41421356237308915
10
-11.929940000000002
20
-160.41899999999998
10
-25.159934937272496
20
-160.41899999999998
10
-25.159934937272496
20
-160.44000762049109
10
-25.175084600000002
20
-160.44000762049109
10
-25.175084600000002
20
-160.41899999999998
10
-112.80345026391609
20
-160.41899999999998
42
0.41421356237308982
10
-113.80345026391609
20
-161.41899999999998
10
-113.80345026391609
20
-163.91899999999998
42
-0.41421356237307944
10
-114.80345026391609
20
-164.91900000000001
10
-117.3034502639161
20
-164.91900000000001
42
-0.41421356237310542
10
-118.3034502639161
20
-163.91899999999998
10
-118.3034502639161
20
-161.41899999999998
42
0.41421356237310542
10
-119.30345026391609
20
-160.41899999999998
10
-219.25231906835918
20
-160.41899999999998
42
0.41421356237309503
10
-220.25231906835921
20
-161.41899999999998
10
-220.25231906835921
20
-163.91899999999998
42
-0.41421356237309503
10
-221.25231906835921
20
-164.91900000000001
10
-223.75231906835918
20
-164.91900000000001
42
-0.41421356237307422
10
-224.75231906835918
20
-163.91899999999998
10
-224.75231906835918
20
-161.41899999999998
42
0.41421356237307422
10
-225.75231906835921
20
-160.41899999999998
10
-338.30378533895549
20
-160.41899999999998
42
0.41421356237313667
10
-339.30378533895549
20
-161.41899999999998
10
-339.30378533895549
20
-163.91899999999998
42
-0.41421356237313667
10
-340.30378533895549
20
-164.91900000000001
10
-342.80378533895555
20
-164.91899999999998
42
-0.41421356237310542
10
-343.80378533895555
20
-163.91899999999998
10
-343.80378533895561
20
-161.41899999999995
42
0.41421356237310542
10
-344.80378533895544
20
-160.41900000000004
10
-350.56900000000007
20
-160.41899999999998
10
-350.64599999999996
20
-160.416
10
-350.72500000000002
20
-160.40600000000001
10
-350.80199999999996
20
-160.39100000000002
10
-350.87699999999995
20
-160.37100000000004
10
-350.952
20
-160.34299999999999
10
-351.02200000000005
20
-160.31000000000003
10
-351.09100000000007
20
-160.27200000000005
10
-351.15600000000001
20
-160.22800000000001
10
-351.21800000000002
20
-160.179
10
-351.27600000000001
20
-160.12700000000001
10
-351.32800000000003
20
-160.06899999999999
10
-351.37800000000021
20
-160.00700000000001
10
-351.42199999999997
20
-159.94200000000001
10
-351.45900000000006
20
-159.87200000000001
10
-351.49200000000002
20
-159.80100000000002
10
-351.51999999999998
20
-159.72800000000001
10
-351.54000000000002
20
-159.65299999999999
10
-351.55699999999996
20
-159.57499999999999
10
-351.565
20
-159.49700000000001
10
-351.56800000000021
20
-159.41899999999998
10
-351.56800000000021
20
-1.3973299999999966
10
-351.565
20
-1.3187799999999981
10
-351.55699999999996
20
-1.2416100000000001
10
-351.54000000000002
20
-1.164439999999999
10
-351.51999999999998
20
-1.088649999999999
10
-351.49200000000002
20
-1.0156199999999971
10
-351.45900000000006
20
-0.9439559999999998
10
-351.42199999999997
20
-0.87505499999999992
10
-351.37800000000021
20
-0.81028800000000012
10
-351.32800000000003
20
-0.74827299999999997
10
-351.27600000000001
20
-0.69039700000000026
10
-351.21800000000002
20
-0.63802999999999999
10
-351.15600000000001
20
-0.58842299999999992
10
-351.09100000000007
20
-0.545705
10
-351.02200000000005
20
-0.50573900000000005
10
-350.952
20
-0.47404500000000005
10
-350.87699999999995
20
-0.44648600000000005
10
-350.80199999999996
20
-0.425813
10
-350.72500000000002
20
-0.41065500000000033
10
-350.64599999999996
20
-0.40100999999999998
10
-350.56900000000007
20
-0.39687499999999998
10
-344.80378533895561
20
-0.39687499999999998
42
0.41421356237309725
10
-343.80378533895561
20
0.60312499999999991
10
-343.80378533895561
20
3.1031250000000012
42
-0.41421356237309748
10
-342.80378533895555
20
4.1031250000000004
10
-340.30378533895549
20
4.1031249999999879
42
-0.41421356237312873
10
-339.30378533895549
20
3.1031250000000012
10
-339.30378533895549
20
0.60312500000000036
42
0.41421356237312851
10
-338.30378533895549
20
-0.39687499999998604
10
-225.75231906835921
20
-0.39687499999999654
42
0.41421356237306922
10
-224.75231906835918
20
0.60312500000000047
10
-224.75231906835918
20
3.1031250000000012
42
-0.41421356237306933
10
-223.75231906835918
20
4.1031250000000004
10
-221.25231906835921
20
4.1031249999999986
42
-0.41421356237309015
10
-220.25231906835921
20
3.1031250000000012
10
-220.25231906835921
20
0.60312500000000013
42
0.41421356237309004
10
-219.25231906835918
20
-0.39687499999999704
10
-119.30345026391609
20
-0.39687500000000642
42
0.41421356237309809
10
-118.3034502639161
20
0.60312500000000047
10
-118.3034502639161
20
3.1031250000000012
42
-0.41421356237309798
10
-117.3034502639161
20
4.1031250000000004
10
-114.80345026391609
20
4.1031249999999986
42
-0.41421356237309537
10
-113.80345026391609
20
3.1031250000000012
10
-113.80345026391609
20
0.60312500000000013
42
0.41421356237309548
10
-112.80345026391609
20
-0.39687499999999792
10
-12.882160000000002
20
-0.39687500000000153
42
0.41421356237309209
10
-11.882160000000002
20
0.60312499999999825
10
-11.882160000000002
20
3.1031249999999986
42
-0.41421356237309459
10
-10.882160000000001
20
4.1031249999999986
10
-8.3821600000000025
20
4.1031249999999977
42
-0.41421356237309492
0
ENDSEC
0
SECTION
2
OBJECTS
0
DICTIONARY
5
C
100
AcDbDictionary
3
ACAD_GROUP
350
D
3
ACAD_MLINESTYLE
350
17
0
DICTIONARY
5
D
100
AcDbDictionary
0
DICTIONARY
5
1A
330
C
100
AcDbDictionary
0
DICTIONARY
5
17
100
AcDbDictionary
0
ENDSEC
0
EOF
