  0
SECTION
  2
HEADER
  9
$ACADVER
  1
AC1009
  9
$EXTMIN
 10
0.0
 20
0.0
 30
0.0
  9
$EXTMAX
 10
1000.0
 20
1000.0
 30
0.0
  9
$FILLMODE
 70
 0
  9
$SPLFRAME
 70
 1
  0
ENDSEC
  0
SECTION
  2
TABLES
  0
TABLE
  2
LAYER
 70
1
  0
LAYER
  2
0
 70
     0
 62
     7
  6
CONTINUOUS
  0
ENDTAB
  0
ENDSEC
  0
SECTION
  2
ENTITIES
  0
LINE
  8
0
 62
     0
 10
19.3959
 20
122.432
 30
0.0
 11
8.09597
 21
122.432
 31
0.0
  0
LINE
  8
0
 62
     0
 10
8.09597
 20
122.432
 30
0.0
 11
8.09597
 21
8.13181
 31
0.0
  0
LINE
  8
0
 62
     0
 10
8.09597
 20
8.13181
 30
0.0
 11
236.696
 21
8.13181
 31
0.0
  0
LINE
  8
0
 62
     0
 10
236.696
 20
8.13181
 30
0.0
 11
236.696
 21
122.432
 31
0.0
  0
LINE
  8
0
 62
     0
 10
236.696
 20
122.432
 30
0.0
 11
33.3954
 21
122.432
 31
0.0
  0
LINE
  8
0
 62
     0
 10
33.3954
 20
122.432
 30
0.0
 11
33.3954
 21
130.433
 31
0.0
  0
LINE
  8
0
 62
     0
 10
33.3954
 20
130.433
 30
0.0
 11
242.696
 21
130.433
 31
0.0
  0
LINE
  8
0
 62
     0
 10
242.696
 20
130.433
 30
0.0
 11
242.853
 21
130.426
 31
0.0
  0
LINE
  8
0
 62
     0
 10
242.853
 20
130.426
 30
0.0
 11
243.009
 21
130.408
 31
0.0
  0
LINE
  8
0
 62
     0
 10
243.009
 20
130.408
 30
0.0
 11
243.163
 21
130.377
 31
0.0
  0
LINE
  8
0
 62
     0
 10
243.163
 20
130.377
 30
0.0
 11
243.315
 21
130.335
 31
0.0
  0
LINE
  8
0
 62
     0
 10
243.315
 20
130.335
 30
0.0
 11
243.462
 21
130.28
 31
0.0
  0
LINE
  8
0
 62
     0
 10
243.462
 20
130.28
 30
0.0
 11
243.604
 21
130.215
 31
0.0
  0
LINE
  8
0
 62
     0
 10
243.604
 20
130.215
 30
0.0
 11
243.741
 21
130.138
 31
0.0
  0
LINE
  8
0
 62
     0
 10
243.741
 20
130.138
 30
0.0
 11
243.871
 21
130.051
 31
0.0
  0
LINE
  8
0
 62
     0
 10
243.871
 20
130.051
 30
0.0
 11
243.994
 21
129.953
 31
0.0
  0
LINE
  8
0
 62
     0
 10
243.994
 20
129.953
 30
0.0
 11
244.11
 21
129.847
 31
0.0
  0
LINE
  8
0
 62
     0
 10
244.11
 20
129.847
 30
0.0
 11
244.216
 21
129.731
 31
0.0
  0
LINE
  8
0
 62
     0
 10
244.216
 20
129.731
 30
0.0
 11
244.315
 21
129.609
 31
0.0
  0
LINE
  8
0
 62
     0
 10
244.315
 20
129.609
 30
0.0
 11
244.402
 21
129.478
 31
0.0
  0
LINE
  8
0
 62
     0
 10
244.402
 20
129.478
 30
0.0
 11
244.479
 21
129.34
 31
0.0
  0
LINE
  8
0
 62
     0
 10
244.479
 20
129.34
 30
0.0
 11
244.544
 21
129.198
 31
0.0
  0
LINE
  8
0
 62
     0
 10
244.544
 20
129.198
 30
0.0
 11
244.599
 21
129.052
 31
0.0
  0
LINE
  8
0
 62
     0
 10
244.599
 20
129.052
 30
0.0
 11
244.64
 21
128.899
 31
0.0
  0
LINE
  8
0
 62
     0
 10
244.64
 20
128.899
 30
0.0
 11
244.672
 21
128.746
 31
0.0
  0
LINE
  8
0
 62
     0
 10
244.672
 20
128.746
 30
0.0
 11
244.69
 21
128.589
 31
0.0
  0
LINE
  8
0
 62
     0
 10
244.69
 20
128.589
 30
0.0
 11
244.697
 21
128.432
 31
0.0
  0
LINE
  8
0
 62
     0
 10
244.697
 20
128.432
 30
0.0
 11
244.697
 21
2.13183
 31
0.0
  0
LINE
  8
0
 62
     0
 10
244.697
 20
2.13183
 30
0.0
 11
244.69
 21
1.97473
 31
0.0
  0
LINE
  8
0
 62
     0
 10
244.69
 20
1.97473
 30
0.0
 11
244.672
 21
1.81901
 31
0.0
  0
LINE
  8
0
 62
     0
 10
244.672
 20
1.81901
 30
0.0
 11
244.64
 21
1.66467
 31
0.0
  0
LINE
  8
0
 62
     0
 10
244.64
 20
1.66467
 30
0.0
 11
244.599
 21
1.51309
 31
0.0
  0
LINE
  8
0
 62
     0
 10
244.599
 20
1.51309
 30
0.0
 11
244.544
 21
1.36563
 31
0.0
  0
LINE
  8
0
 62
     0
 10
244.544
 20
1.36563
 30
0.0
 11
244.479
 21
1.2237
 31
0.0
  0
LINE
  8
0
 62
     0
 10
244.479
 20
1.2237
 30
0.0
 11
244.402
 21
1.08727
 31
0.0
  0
LINE
  8
0
 62
     0
 10
244.402
 20
1.08727
 30
0.0
 11
244.315
 21
0.956359
 31
0.0
  0
LINE
  8
0
 62
     0
 10
244.315
 20
0.956359
 30
0.0
 11
244.216
 21
0.833713
 31
0.0
  0
LINE
  8
0
 62
     0
 10
244.216
 20
0.833713
 30
0.0
 11
244.11
 21
0.717959
 31
0.0
  0
LINE
  8
0
 62
     0
 10
244.11
 20
0.717959
 30
0.0
 11
243.994
 21
0.611851
 31
0.0
  0
LINE
  8
0
 62
     0
 10
243.994
 20
0.611851
 30
0.0
 11
243.871
 21
0.512632
 31
0.0
  0
LINE
  8
0
 62
     0
 10
243.871
 20
0.512632
 30
0.0
 11
243.741
 21
0.425813
 31
0.0
  0
LINE
  8
0
 62
     0
 10
243.741
 20
0.425813
 30
0.0
 11
243.604
 21
0.348644
 31
0.0
  0
LINE
  8
0
 62
     0
 10
243.604
 20
0.348644
 30
0.0
 11
243.462
 21
0.283876
 31
0.0
  0
LINE
  8
0
 62
     0
 10
243.462
 20
0.283876
 30
0.0
 11
243.315
 21
0.228755
 31
0.0
  0
LINE
  8
0
 62
     0
 10
243.315
 20
0.228755
 30
0.0
 11
243.163
 21
0.187413
 31
0.0
  0
LINE
  8
0
 62
     0
 10
243.163
 20
0.187413
 30
0.0
 11
243.009
 21
0.155718
 31
0.0
  0
LINE
  8
0
 62
     0
 10
243.009
 20
0.155718
 30
0.0
 11
242.853
 21
0.137804
 31
0.0
  0
LINE
  8
0
 62
     0
 10
242.853
 20
0.137804
 30
0.0
 11
242.696
 21
0.130914
 31
0.0
  0
LINE
  8
0
 62
     0
 10
242.696
 20
0.130914
 30
0.0
 11
2.096
 21
0.130914
 31
0.0
  0
LINE
  8
0
 62
     0
 10
2.096
 20
0.130914
 30
0.0
 11
1.9389
 21
0.137804
 31
0.0
  0
LINE
  8
0
 62
     0
 10
1.9389
 20
0.137804
 30
0.0
 11
1.7818
 21
0.155718
 31
0.0
  0
LINE
  8
0
 62
     0
 10
1.7818
 20
0.155718
 30
0.0
 11
1.62884
 21
0.187413
 31
0.0
  0
LINE
  8
0
 62
     0
 10
1.62884
 20
0.187413
 30
0.0
 11
1.47588
 21
0.228755
 31
0.0
  0
LINE
  8
0
 62
     0
 10
1.47588
 20
0.228755
 30
0.0
 11
1.32981
 21
0.283876
 31
0.0
  0
LINE
  8
0
 62
     0
 10
1.32981
 20
0.283876
 30
0.0
 11
1.18787
 21
0.348644
 31
0.0
  0
LINE
  8
0
 62
     0
 10
1.18787
 20
0.348644
 30
0.0
 11
1.05006
 21
0.425813
 31
0.0
  0
LINE
  8
0
 62
     0
 10
1.05006
 20
0.425813
 30
0.0
 11
0.919152
 21
0.512632
 31
0.0
  0
LINE
  8
0
 62
     0
 10
0.919152
 20
0.512632
 30
0.0
 11
0.796505
 21
0.611851
 31
0.0
  0
LINE
  8
0
 62
     0
 10
0.796505
 20
0.611851
 30
0.0
 11
0.680752
 21
0.717959
 31
0.0
  0
LINE
  8
0
 62
     0
 10
0.680752
 20
0.717959
 30
0.0
 11
0.574643
 21
0.833713
 31
0.0
  0
LINE
  8
0
 62
     0
 10
0.574643
 20
0.833713
 30
0.0
 11
0.4768
 21
0.956359
 31
0.0
  0
LINE
  8
0
 62
     0
 10
0.4768
 20
0.956359
 30
0.0
 11
0.389985
 21
1.08727
 31
0.0
  0
LINE
  8
0
 62
     0
 10
0.389985
 20
1.08727
 30
0.0
 11
0.312815
 21
1.2237
 31
0.0
  0
LINE
  8
0
 62
     0
 10
0.312815
 20
1.2237
 30
0.0
 11
0.248047
 21
1.36563
 31
0.0
  0
LINE
  8
0
 62
     0
 10
0.248047
 20
1.36563
 30
0.0
 11
0.192925
 21
1.51309
 31
0.0
  0
LINE
  8
0
 62
     0
 10
0.192925
 20
1.51309
 30
0.0
 11
0.150206
 21
1.66467
 31
0.0
  0
LINE
  8
0
 62
     0
 10
0.150206
 20
1.66467
 30
0.0
 11
0.119889
 21
1.81901
 31
0.0
  0
LINE
  8
0
 62
     0
 10
0.119889
 20
1.81901
 30
0.0
 11
0.101975
 21
1.97473
 31
0.0
  0
LINE
  8
0
 62
     0
 10
0.101975
 20
1.97473
 30
0.0
 11
0.0950846
 21
2.13183
 31
0.0
  0
LINE
  8
0
 62
     0
 10
0.0950846
 20
2.13183
 30
0.0
 11
0.0950846
 21
128.432
 31
0.0
  0
LINE
  8
0
 62
     0
 10
0.0950846
 20
128.432
 30
0.0
 11
0.101975
 21
128.589
 31
0.0
  0
LINE
  8
0
 62
     0
 10
0.101975
 20
128.589
 30
0.0
 11
0.119889
 21
128.746
 31
0.0
  0
LINE
  8
0
 62
     0
 10
0.119889
 20
128.746
 30
0.0
 11
0.150206
 21
128.899
 31
0.0
  0
LINE
  8
0
 62
     0
 10
0.150206
 20
128.899
 30
0.0
 11
0.192925
 21
129.052
 31
0.0
  0
LINE
  8
0
 62
     0
 10
0.192925
 20
129.052
 30
0.0
 11
0.248047
 21
129.198
 31
0.0
  0
LINE
  8
0
 62
     0
 10
0.248047
 20
129.198
 30
0.0
 11
0.312815
 21
129.34
 31
0.0
  0
LINE
  8
0
 62
     0
 10
0.312815
 20
129.34
 30
0.0
 11
0.389985
 21
129.478
 31
0.0
  0
LINE
  8
0
 62
     0
 10
0.389985
 20
129.478
 30
0.0
 11
0.4768
 21
129.609
 31
0.0
  0
LINE
  8
0
 62
     0
 10
0.4768
 20
129.609
 30
0.0
 11
0.574643
 21
129.731
 31
0.0
  0
LINE
  8
0
 62
     0
 10
0.574643
 20
129.731
 30
0.0
 11
0.680752
 21
129.847
 31
0.0
  0
LINE
  8
0
 62
     0
 10
0.680752
 20
129.847
 30
0.0
 11
0.796505
 21
129.953
 31
0.0
  0
LINE
  8
0
 62
     0
 10
0.796505
 20
129.953
 30
0.0
 11
0.919152
 21
130.051
 31
0.0
  0
LINE
  8
0
 62
     0
 10
0.919152
 20
130.051
 30
0.0
 11
1.05006
 21
130.138
 31
0.0
  0
LINE
  8
0
 62
     0
 10
1.05006
 20
130.138
 30
0.0
 11
1.18787
 21
130.215
 31
0.0
  0
LINE
  8
0
 62
     0
 10
1.18787
 20
130.215
 30
0.0
 11
1.32981
 21
130.28
 31
0.0
  0
LINE
  8
0
 62
     0
 10
1.32981
 20
130.28
 30
0.0
 11
1.47588
 21
130.335
 31
0.0
  0
LINE
  8
0
 62
     0
 10
1.47588
 20
130.335
 30
0.0
 11
1.62884
 21
130.377
 31
0.0
  0
LINE
  8
0
 62
     0
 10
1.62884
 20
130.377
 30
0.0
 11
1.7818
 21
130.408
 31
0.0
  0
LINE
  8
0
 62
     0
 10
1.7818
 20
130.408
 30
0.0
 11
1.9389
 21
130.426
 31
0.0
  0
LINE
  8
0
 62
     0
 10
1.9389
 20
130.426
 30
0.0
 11
2.096
 21
130.433
 31
0.0
  0
LINE
  8
0
 62
     0
 10
2.096
 20
130.433
 30
0.0
 11
19.3959
 21
130.433
 31
0.0
  0
LINE
  8
0
 62
     0
 10
19.3959
 20
130.433
 30
0.0
 11
19.3959
 21
122.432
 31
0.0
  0
LINE
  8
0
 62
     0
 10
3.63114
 20
5.55763
 30
0.0
 11
3.21359
 21
5.34681
 31
0.0
  0
LINE
  8
0
 62
     0
 10
3.21359
 20
5.34681
 30
0.0
 11
2.88148
 21
5.01329
 31
0.0
  0
LINE
  8
0
 62
     0
 10
2.88148
 20
5.01329
 30
0.0
 11
2.66788
 21
4.59574
 31
0.0
  0
LINE
  8
0
 62
     0
 10
2.66788
 20
4.59574
 30
0.0
 11
2.59485
 21
4.13135
 31
0.0
  0
LINE
  8
0
 62
     0
 10
2.59485
 20
4.13135
 30
0.0
 11
2.66788
 21
3.66832
 31
0.0
  0
LINE
  8
0
 62
     0
 10
2.66788
 20
3.66832
 30
0.0
 11
2.88148
 21
3.25079
 31
0.0
  0
LINE
  8
0
 62
     0
 10
2.88148
 20
3.25079
 30
0.0
 11
3.21359
 21
2.91869
 31
0.0
  0
LINE
  8
0
 62
     0
 10
3.21359
 20
2.91869
 30
0.0
 11
3.63114
 21
2.70509
 31
0.0
  0
LINE
  8
0
 62
     0
 10
3.63114
 20
2.70509
 30
0.0
 11
4.09416
 21
2.63067
 31
0.0
  0
LINE
  8
0
 62
     0
 10
4.09416
 20
2.63067
 30
0.0
 11
4.55856
 21
2.70509
 31
0.0
  0
LINE
  8
0
 62
     0
 10
4.55856
 20
2.70509
 30
0.0
 11
4.97611
 21
2.91869
 31
0.0
  0
LINE
  8
0
 62
     0
 10
4.97611
 20
2.91869
 30
0.0
 11
5.30821
 21
3.25079
 31
0.0
  0
LINE
  8
0
 62
     0
 10
5.30821
 20
3.25079
 30
0.0
 11
5.52178
 21
3.66832
 31
0.0
  0
LINE
  8
0
 62
     0
 10
5.52178
 20
3.66832
 30
0.0
 11
5.59484
 21
4.13135
 31
0.0
  0
LINE
  8
0
 62
     0
 10
5.59484
 20
4.13135
 30
0.0
 11
5.52178
 21
4.59574
 31
0.0
  0
LINE
  8
0
 62
     0
 10
5.52178
 20
4.59574
 30
0.0
 11
5.30821
 21
5.01329
 31
0.0
  0
LINE
  8
0
 62
     0
 10
5.30821
 20
5.01329
 30
0.0
 11
4.97611
 21
5.34681
 31
0.0
  0
LINE
  8
0
 62
     0
 10
4.97611
 20
5.34681
 30
0.0
 11
4.55856
 21
5.55763
 31
0.0
  0
LINE
  8
0
 62
     0
 10
4.55856
 20
5.55763
 30
0.0
 11
4.09416
 21
5.63203
 31
0.0
  0
LINE
  8
0
 62
     0
 10
4.09416
 20
5.63203
 30
0.0
 11
3.63114
 21
5.55763
 31
0.0
  0
LINE
  8
0
 62
     0
 10
62.7821
 20
5.55763
 30
0.0
 11
62.363
 21
5.34681
 31
0.0
  0
LINE
  8
0
 62
     0
 10
62.363
 20
5.34681
 30
0.0
 11
62.031
 21
5.01329
 31
0.0
  0
LINE
  8
0
 62
     0
 10
62.031
 20
5.01329
 30
0.0
 11
61.8187
 21
4.59574
 31
0.0
  0
LINE
  8
0
 62
     0
 10
61.8187
 20
4.59574
 30
0.0
 11
61.7456
 21
4.13135
 31
0.0
  0
LINE
  8
0
 62
     0
 10
61.7456
 20
4.13135
 30
0.0
 11
61.8187
 21
3.66832
 31
0.0
  0
LINE
  8
0
 62
     0
 10
61.8187
 20
3.66832
 30
0.0
 11
62.031
 21
3.25079
 31
0.0
  0
LINE
  8
0
 62
     0
 10
62.031
 20
3.25079
 30
0.0
 11
62.363
 21
2.91869
 31
0.0
  0
LINE
  8
0
 62
     0
 10
62.363
 20
2.91869
 30
0.0
 11
62.7821
 21
2.70509
 31
0.0
  0
LINE
  8
0
 62
     0
 10
62.7821
 20
2.70509
 30
0.0
 11
63.2449
 21
2.63067
 31
0.0
  0
LINE
  8
0
 62
     0
 10
63.2449
 20
2.63067
 30
0.0
 11
63.7081
 21
2.70509
 31
0.0
  0
LINE
  8
0
 62
     0
 10
63.7081
 20
2.70509
 30
0.0
 11
64.1269
 21
2.91869
 31
0.0
  0
LINE
  8
0
 62
     0
 10
64.1269
 20
2.91869
 30
0.0
 11
64.4592
 21
3.25079
 31
0.0
  0
LINE
  8
0
 62
     0
 10
64.4592
 20
3.25079
 30
0.0
 11
64.6712
 21
3.66832
 31
0.0
  0
LINE
  8
0
 62
     0
 10
64.6712
 20
3.66832
 30
0.0
 11
64.7457
 21
4.13135
 31
0.0
  0
LINE
  8
0
 62
     0
 10
64.7457
 20
4.13135
 30
0.0
 11
64.6712
 21
4.59574
 31
0.0
  0
LINE
  8
0
 62
     0
 10
64.6712
 20
4.59574
 30
0.0
 11
64.4592
 21
5.01329
 31
0.0
  0
LINE
  8
0
 62
     0
 10
64.4592
 20
5.01329
 30
0.0
 11
64.1269
 21
5.34681
 31
0.0
  0
LINE
  8
0
 62
     0
 10
64.1269
 20
5.34681
 30
0.0
 11
63.7081
 21
5.55763
 31
0.0
  0
LINE
  8
0
 62
     0
 10
63.7081
 20
5.55763
 30
0.0
 11
63.2449
 21
5.63203
 31
0.0
  0
LINE
  8
0
 62
     0
 10
63.2449
 20
5.63203
 30
0.0
 11
62.7821
 21
5.55763
 31
0.0
  0
LINE
  8
0
 62
     0
 10
121.932
 20
5.55763
 30
0.0
 11
121.514
 21
5.34681
 31
0.0
  0
LINE
  8
0
 62
     0
 10
121.514
 20
5.34681
 30
0.0
 11
121.182
 21
5.01329
 31
0.0
  0
LINE
  8
0
 62
     0
 10
121.182
 20
5.01329
 30
0.0
 11
120.968
 21
4.59574
 31
0.0
  0
LINE
  8
0
 62
     0
 10
120.968
 20
4.59574
 30
0.0
 11
120.895
 21
4.13135
 31
0.0
  0
LINE
  8
0
 62
     0
 10
120.895
 20
4.13135
 30
0.0
 11
120.968
 21
3.66832
 31
0.0
  0
LINE
  8
0
 62
     0
 10
120.968
 20
3.66832
 30
0.0
 11
121.182
 21
3.25079
 31
0.0
  0
LINE
  8
0
 62
     0
 10
121.182
 20
3.25079
 30
0.0
 11
121.514
 21
2.91869
 31
0.0
  0
LINE
  8
0
 62
     0
 10
121.514
 20
2.91869
 30
0.0
 11
121.932
 21
2.70509
 31
0.0
  0
LINE
  8
0
 62
     0
 10
121.932
 20
2.70509
 30
0.0
 11
122.396
 21
2.63067
 31
0.0
  0
LINE
  8
0
 62
     0
 10
122.396
 20
2.63067
 30
0.0
 11
122.859
 21
2.70509
 31
0.0
  0
LINE
  8
0
 62
     0
 10
122.859
 20
2.70509
 30
0.0
 11
123.276
 21
2.91869
 31
0.0
  0
LINE
  8
0
 62
     0
 10
123.276
 20
2.91869
 30
0.0
 11
123.61
 21
3.25079
 31
0.0
  0
LINE
  8
0
 62
     0
 10
123.61
 20
3.25079
 30
0.0
 11
123.822
 21
3.66832
 31
0.0
  0
LINE
  8
0
 62
     0
 10
123.822
 20
3.66832
 30
0.0
 11
123.895
 21
4.13135
 31
0.0
  0
LINE
  8
0
 62
     0
 10
123.895
 20
4.13135
 30
0.0
 11
123.822
 21
4.59574
 31
0.0
  0
LINE
  8
0
 62
     0
 10
123.822
 20
4.59574
 30
0.0
 11
123.61
 21
5.01329
 31
0.0
  0
LINE
  8
0
 62
     0
 10
123.61
 20
5.01329
 30
0.0
 11
123.276
 21
5.34681
 31
0.0
  0
LINE
  8
0
 62
     0
 10
123.276
 20
5.34681
 30
0.0
 11
122.859
 21
5.55763
 31
0.0
  0
LINE
  8
0
 62
     0
 10
122.859
 20
5.55763
 30
0.0
 11
122.396
 21
5.63203
 31
0.0
  0
LINE
  8
0
 62
     0
 10
122.396
 20
5.63203
 30
0.0
 11
121.932
 21
5.55763
 31
0.0
  0
LINE
  8
0
 62
     0
 10
181.083
 20
5.55763
 30
0.0
 11
180.665
 21
5.34681
 31
0.0
  0
LINE
  8
0
 62
     0
 10
180.665
 20
5.34681
 30
0.0
 11
180.333
 21
5.01329
 31
0.0
  0
LINE
  8
0
 62
     0
 10
180.333
 20
5.01329
 30
0.0
 11
180.119
 21
4.59574
 31
0.0
  0
LINE
  8
0
 62
     0
 10
180.119
 20
4.59574
 30
0.0
 11
180.045
 21
4.13135
 31
0.0
  0
LINE
  8
0
 62
     0
 10
180.045
 20
4.13135
 30
0.0
 11
180.119
 21
3.66832
 31
0.0
  0
LINE
  8
0
 62
     0
 10
180.119
 20
3.66832
 30
0.0
 11
180.333
 21
3.25079
 31
0.0
  0
LINE
  8
0
 62
     0
 10
180.333
 20
3.25079
 30
0.0
 11
180.665
 21
2.91869
 31
0.0
  0
LINE
  8
0
 62
     0
 10
180.665
 20
2.91869
 30
0.0
 11
181.083
 21
2.70509
 31
0.0
  0
LINE
  8
0
 62
     0
 10
181.083
 20
2.70509
 30
0.0
 11
181.545
 21
2.63067
 31
0.0
  0
LINE
  8
0
 62
     0
 10
181.545
 20
2.63067
 30
0.0
 11
182.01
 21
2.70509
 31
0.0
  0
LINE
  8
0
 62
     0
 10
182.01
 20
2.70509
 30
0.0
 11
182.427
 21
2.91869
 31
0.0
  0
LINE
  8
0
 62
     0
 10
182.427
 20
2.91869
 30
0.0
 11
182.76
 21
3.25079
 31
0.0
  0
LINE
  8
0
 62
     0
 10
182.76
 20
3.25079
 30
0.0
 11
182.973
 21
3.66832
 31
0.0
  0
LINE
  8
0
 62
     0
 10
182.973
 20
3.66832
 30
0.0
 11
183.045
 21
4.13135
 31
0.0
  0
LINE
  8
0
 62
     0
 10
183.045
 20
4.13135
 30
0.0
 11
182.973
 21
4.59574
 31
0.0
  0
LINE
  8
0
 62
     0
 10
182.973
 20
4.59574
 30
0.0
 11
182.76
 21
5.01329
 31
0.0
  0
LINE
  8
0
 62
     0
 10
182.76
 20
5.01329
 30
0.0
 11
182.427
 21
5.34681
 31
0.0
  0
LINE
  8
0
 62
     0
 10
182.427
 20
5.34681
 30
0.0
 11
182.01
 21
5.55763
 31
0.0
  0
LINE
  8
0
 62
     0
 10
182.01
 20
5.55763
 30
0.0
 11
181.545
 21
5.63203
 31
0.0
  0
LINE
  8
0
 62
     0
 10
181.545
 20
5.63203
 30
0.0
 11
181.083
 21
5.55763
 31
0.0
  0
LINE
  8
0
 62
     0
 10
240.232
 20
5.55763
 30
0.0
 11
239.814
 21
5.34681
 31
0.0
  0
LINE
  8
0
 62
     0
 10
239.814
 20
5.34681
 30
0.0
 11
239.482
 21
5.01329
 31
0.0
  0
LINE
  8
0
 62
     0
 10
239.482
 20
5.01329
 30
0.0
 11
239.27
 21
4.59574
 31
0.0
  0
LINE
  8
0
 62
     0
 10
239.27
 20
4.59574
 30
0.0
 11
239.197
 21
4.13135
 31
0.0
  0
LINE
  8
0
 62
     0
 10
239.197
 20
4.13135
 30
0.0
 11
239.27
 21
3.66832
 31
0.0
  0
LINE
  8
0
 62
     0
 10
239.27
 20
3.66832
 30
0.0
 11
239.482
 21
3.25079
 31
0.0
  0
LINE
  8
0
 62
     0
 10
239.482
 20
3.25079
 30
0.0
 11
239.814
 21
2.91869
 31
0.0
  0
LINE
  8
0
 62
     0
 10
239.814
 20
2.91869
 30
0.0
 11
240.232
 21
2.70509
 31
0.0
  0
LINE
  8
0
 62
     0
 10
240.232
 20
2.70509
 30
0.0
 11
240.696
 21
2.63067
 31
0.0
  0
LINE
  8
0
 62
     0
 10
240.696
 20
2.63067
 30
0.0
 11
241.16
 21
2.70509
 31
0.0
  0
LINE
  8
0
 62
     0
 10
241.16
 20
2.70509
 30
0.0
 11
241.577
 21
2.91869
 31
0.0
  0
LINE
  8
0
 62
     0
 10
241.577
 20
2.91869
 30
0.0
 11
241.909
 21
3.25079
 31
0.0
  0
LINE
  8
0
 62
     0
 10
241.909
 20
3.25079
 30
0.0
 11
242.123
 21
3.66832
 31
0.0
  0
LINE
  8
0
 62
     0
 10
242.123
 20
3.66832
 30
0.0
 11
242.197
 21
4.13135
 31
0.0
  0
LINE
  8
0
 62
     0
 10
242.197
 20
4.13135
 30
0.0
 11
242.123
 21
4.59574
 31
0.0
  0
LINE
  8
0
 62
     0
 10
242.123
 20
4.59574
 30
0.0
 11
241.909
 21
5.01329
 31
0.0
  0
LINE
  8
0
 62
     0
 10
241.909
 20
5.01329
 30
0.0
 11
241.577
 21
5.34681
 31
0.0
  0
LINE
  8
0
 62
     0
 10
241.577
 20
5.34681
 30
0.0
 11
241.16
 21
5.55763
 31
0.0
  0
LINE
  8
0
 62
     0
 10
241.16
 20
5.55763
 30
0.0
 11
240.696
 21
5.63203
 31
0.0
  0
LINE
  8
0
 62
     0
 10
240.696
 20
5.63203
 30
0.0
 11
240.232
 21
5.55763
 31
0.0
  0
LINE
  8
0
 62
     0
 10
3.63114
 20
66.7096
 30
0.0
 11
3.21359
 21
66.4958
 31
0.0
  0
LINE
  8
0
 62
     0
 10
3.21359
 20
66.4958
 30
0.0
 11
2.88148
 21
66.1638
 31
0.0
  0
LINE
  8
0
 62
     0
 10
2.88148
 20
66.1638
 30
0.0
 11
2.66788
 21
65.7461
 31
0.0
  0
LINE
  8
0
 62
     0
 10
2.66788
 20
65.7461
 30
0.0
 11
2.59485
 21
65.2819
 31
0.0
  0
LINE
  8
0
 62
     0
 10
2.59485
 20
65.2819
 30
0.0
 11
2.66788
 21
64.8187
 31
0.0
  0
LINE
  8
0
 62
     0
 10
2.66788
 20
64.8187
 30
0.0
 11
2.88148
 21
64.3999
 31
0.0
  0
LINE
  8
0
 62
     0
 10
2.88148
 20
64.3999
 30
0.0
 11
3.21359
 21
64.0676
 31
0.0
  0
LINE
  8
0
 62
     0
 10
3.21359
 20
64.0676
 30
0.0
 11
3.63114
 21
63.8556
 31
0.0
  0
LINE
  8
0
 62
     0
 10
3.63114
 20
63.8556
 30
0.0
 11
4.09416
 21
63.7826
 31
0.0
  0
LINE
  8
0
 62
     0
 10
4.09416
 20
63.7826
 30
0.0
 11
4.55856
 21
63.8556
 31
0.0
  0
LINE
  8
0
 62
     0
 10
4.55856
 20
63.8556
 30
0.0
 11
4.97611
 21
64.0676
 31
0.0
  0
LINE
  8
0
 62
     0
 10
4.97611
 20
64.0676
 30
0.0
 11
5.30821
 21
64.3999
 31
0.0
  0
LINE
  8
0
 62
     0
 10
5.30821
 20
64.3999
 30
0.0
 11
5.52178
 21
64.8187
 31
0.0
  0
LINE
  8
0
 62
     0
 10
5.52178
 20
64.8187
 30
0.0
 11
5.59484
 21
65.2819
 31
0.0
  0
LINE
  8
0
 62
     0
 10
5.59484
 20
65.2819
 30
0.0
 11
5.52178
 21
65.7461
 31
0.0
  0
LINE
  8
0
 62
     0
 10
5.52178
 20
65.7461
 30
0.0
 11
5.30821
 21
66.1638
 31
0.0
  0
LINE
  8
0
 62
     0
 10
5.30821
 20
66.1638
 30
0.0
 11
4.97611
 21
66.4958
 31
0.0
  0
LINE
  8
0
 62
     0
 10
4.97611
 20
66.4958
 30
0.0
 11
4.55856
 21
66.7096
 31
0.0
  0
LINE
  8
0
 62
     0
 10
4.55856
 20
66.7096
 30
0.0
 11
4.09416
 21
66.7826
 31
0.0
  0
LINE
  8
0
 62
     0
 10
4.09416
 20
66.7826
 30
0.0
 11
3.63114
 21
66.7096
 31
0.0
  0
LINE
  8
0
 62
     0
 10
240.232
 20
66.7096
 30
0.0
 11
239.814
 21
66.4958
 31
0.0
  0
LINE
  8
0
 62
     0
 10
239.814
 20
66.4958
 30
0.0
 11
239.482
 21
66.1638
 31
0.0
  0
LINE
  8
0
 62
     0
 10
239.482
 20
66.1638
 30
0.0
 11
239.27
 21
65.7461
 31
0.0
  0
LINE
  8
0
 62
     0
 10
239.27
 20
65.7461
 30
0.0
 11
239.197
 21
65.2819
 31
0.0
  0
LINE
  8
0
 62
     0
 10
239.197
 20
65.2819
 30
0.0
 11
239.27
 21
64.8187
 31
0.0
  0
LINE
  8
0
 62
     0
 10
239.27
 20
64.8187
 30
0.0
 11
239.482
 21
64.3999
 31
0.0
  0
LINE
  8
0
 62
     0
 10
239.482
 20
64.3999
 30
0.0
 11
239.814
 21
64.0676
 31
0.0
  0
LINE
  8
0
 62
     0
 10
239.814
 20
64.0676
 30
0.0
 11
240.232
 21
63.8556
 31
0.0
  0
LINE
  8
0
 62
     0
 10
240.232
 20
63.8556
 30
0.0
 11
240.696
 21
63.7826
 31
0.0
  0
LINE
  8
0
 62
     0
 10
240.696
 20
63.7826
 30
0.0
 11
241.16
 21
63.8556
 31
0.0
  0
LINE
  8
0
 62
     0
 10
241.16
 20
63.8556
 30
0.0
 11
241.577
 21
64.0676
 31
0.0
  0
LINE
  8
0
 62
     0
 10
241.577
 20
64.0676
 30
0.0
 11
241.909
 21
64.3999
 31
0.0
  0
LINE
  8
0
 62
     0
 10
241.909
 20
64.3999
 30
0.0
 11
242.123
 21
64.8187
 31
0.0
  0
LINE
  8
0
 62
     0
 10
242.123
 20
64.8187
 30
0.0
 11
242.197
 21
65.2819
 31
0.0
  0
LINE
  8
0
 62
     0
 10
242.197
 20
65.2819
 30
0.0
 11
242.123
 21
65.7461
 31
0.0
  0
LINE
  8
0
 62
     0
 10
242.123
 20
65.7461
 30
0.0
 11
241.909
 21
66.1638
 31
0.0
  0
LINE
  8
0
 62
     0
 10
241.909
 20
66.1638
 30
0.0
 11
241.577
 21
66.4958
 31
0.0
  0
LINE
  8
0
 62
     0
 10
241.577
 20
66.4958
 30
0.0
 11
241.16
 21
66.7096
 31
0.0
  0
LINE
  8
0
 62
     0
 10
241.16
 20
66.7096
 30
0.0
 11
240.696
 21
66.7826
 31
0.0
  0
LINE
  8
0
 62
     0
 10
240.696
 20
66.7826
 30
0.0
 11
240.232
 21
66.7096
 31
0.0
  0
LINE
  8
0
 62
     0
 10
3.63114
 20
127.86
 30
0.0
 11
3.21359
 21
127.646
 31
0.0
  0
LINE
  8
0
 62
     0
 10
3.21359
 20
127.646
 30
0.0
 11
2.88148
 21
127.314
 31
0.0
  0
LINE
  8
0
 62
     0
 10
2.88148
 20
127.314
 30
0.0
 11
2.66788
 21
126.897
 31
0.0
  0
LINE
  8
0
 62
     0
 10
2.66788
 20
126.897
 30
0.0
 11
2.59485
 21
126.432
 31
0.0
  0
LINE
  8
0
 62
     0
 10
2.59485
 20
126.432
 30
0.0
 11
2.66788
 21
125.969
 31
0.0
  0
LINE
  8
0
 62
     0
 10
2.66788
 20
125.969
 30
0.0
 11
2.88148
 21
125.552
 31
0.0
  0
LINE
  8
0
 62
     0
 10
2.88148
 20
125.552
 30
0.0
 11
3.21359
 21
125.22
 31
0.0
  0
LINE
  8
0
 62
     0
 10
3.21359
 20
125.22
 30
0.0
 11
3.63114
 21
125.006
 31
0.0
  0
LINE
  8
0
 62
     0
 10
3.63114
 20
125.006
 30
0.0
 11
4.09416
 21
124.933
 31
0.0
  0
LINE
  8
0
 62
     0
 10
4.09416
 20
124.933
 30
0.0
 11
4.55856
 21
125.006
 31
0.0
  0
LINE
  8
0
 62
     0
 10
4.55856
 20
125.006
 30
0.0
 11
4.97611
 21
125.22
 31
0.0
  0
LINE
  8
0
 62
     0
 10
4.97611
 20
125.22
 30
0.0
 11
5.30821
 21
125.552
 31
0.0
  0
LINE
  8
0
 62
     0
 10
5.30821
 20
125.552
 30
0.0
 11
5.52178
 21
125.969
 31
0.0
  0
LINE
  8
0
 62
     0
 10
5.52178
 20
125.969
 30
0.0
 11
5.59484
 21
126.432
 31
0.0
  0
LINE
  8
0
 62
     0
 10
5.59484
 20
126.432
 30
0.0
 11
5.52178
 21
126.897
 31
0.0
  0
LINE
  8
0
 62
     0
 10
5.52178
 20
126.897
 30
0.0
 11
5.30821
 21
127.314
 31
0.0
  0
LINE
  8
0
 62
     0
 10
5.30821
 20
127.314
 30
0.0
 11
4.97611
 21
127.646
 31
0.0
  0
LINE
  8
0
 62
     0
 10
4.97611
 20
127.646
 30
0.0
 11
4.55856
 21
127.86
 31
0.0
  0
LINE
  8
0
 62
     0
 10
4.55856
 20
127.86
 30
0.0
 11
4.09416
 21
127.933
 31
0.0
  0
LINE
  8
0
 62
     0
 10
4.09416
 20
127.933
 30
0.0
 11
3.63114
 21
127.86
 31
0.0
  0
LINE
  8
0
 62
     0
 10
240.232
 20
127.86
 30
0.0
 11
239.814
 21
127.646
 31
0.0
  0
LINE
  8
0
 62
     0
 10
239.814
 20
127.646
 30
0.0
 11
239.482
 21
127.314
 31
0.0
  0
LINE
  8
0
 62
     0
 10
239.482
 20
127.314
 30
0.0
 11
239.27
 21
126.897
 31
0.0
  0
LINE
  8
0
 62
     0
 10
239.27
 20
126.897
 30
0.0
 11
239.197
 21
126.432
 31
0.0
  0
LINE
  8
0
 62
     0
 10
239.197
 20
126.432
 30
0.0
 11
239.27
 21
125.969
 31
0.0
  0
LINE
  8
0
 62
     0
 10
239.27
 20
125.969
 30
0.0
 11
239.482
 21
125.552
 31
0.0
  0
LINE
  8
0
 62
     0
 10
239.482
 20
125.552
 30
0.0
 11
239.814
 21
125.22
 31
0.0
  0
LINE
  8
0
 62
     0
 10
239.814
 20
125.22
 30
0.0
 11
240.232
 21
125.006
 31
0.0
  0
LINE
  8
0
 62
     0
 10
240.232
 20
125.006
 30
0.0
 11
240.696
 21
124.933
 31
0.0
  0
LINE
  8
0
 62
     0
 10
240.696
 20
124.933
 30
0.0
 11
241.16
 21
125.006
 31
0.0
  0
LINE
  8
0
 62
     0
 10
241.16
 20
125.006
 30
0.0
 11
241.577
 21
125.22
 31
0.0
  0
LINE
  8
0
 62
     0
 10
241.577
 20
125.22
 30
0.0
 11
241.909
 21
125.552
 31
0.0
  0
LINE
  8
0
 62
     0
 10
241.909
 20
125.552
 30
0.0
 11
242.123
 21
125.969
 31
0.0
  0
LINE
  8
0
 62
     0
 10
242.123
 20
125.969
 30
0.0
 11
242.197
 21
126.432
 31
0.0
  0
LINE
  8
0
 62
     0
 10
242.197
 20
126.432
 30
0.0
 11
242.123
 21
126.897
 31
0.0
  0
LINE
  8
0
 62
     0
 10
242.123
 20
126.897
 30
0.0
 11
241.909
 21
127.314
 31
0.0
  0
LINE
  8
0
 62
     0
 10
241.909
 20
127.314
 30
0.0
 11
241.577
 21
127.646
 31
0.0
  0
LINE
  8
0
 62
     0
 10
241.577
 20
127.646
 30
0.0
 11
241.16
 21
127.86
 31
0.0
  0
LINE
  8
0
 62
     0
 10
241.16
 20
127.86
 30
0.0
 11
240.696
 21
127.933
 31
0.0
  0
LINE
  8
0
 62
     0
 10
240.696
 20
127.933
 30
0.0
 11
240.232
 21
127.86
 31
0.0
  0
LINE
  8
0
 62
     0
 10
181.083
 20
127.86
 30
0.0
 11
180.665
 21
127.646
 31
0.0
  0
LINE
  8
0
 62
     0
 10
180.665
 20
127.646
 30
0.0
 11
180.333
 21
127.314
 31
0.0
  0
LINE
  8
0
 62
     0
 10
180.333
 20
127.314
 30
0.0
 11
180.119
 21
126.897
 31
0.0
  0
LINE
  8
0
 62
     0
 10
180.119
 20
126.897
 30
0.0
 11
180.045
 21
126.432
 31
0.0
  0
LINE
  8
0
 62
     0
 10
180.045
 20
126.432
 30
0.0
 11
180.119
 21
125.969
 31
0.0
  0
LINE
  8
0
 62
     0
 10
180.119
 20
125.969
 30
0.0
 11
180.333
 21
125.552
 31
0.0
  0
LINE
  8
0
 62
     0
 10
180.333
 20
125.552
 30
0.0
 11
180.665
 21
125.22
 31
0.0
  0
LINE
  8
0
 62
     0
 10
180.665
 20
125.22
 30
0.0
 11
181.083
 21
125.006
 31
0.0
  0
LINE
  8
0
 62
     0
 10
181.083
 20
125.006
 30
0.0
 11
181.545
 21
124.933
 31
0.0
  0
LINE
  8
0
 62
     0
 10
181.545
 20
124.933
 30
0.0
 11
182.01
 21
125.006
 31
0.0
  0
LINE
  8
0
 62
     0
 10
182.01
 20
125.006
 30
0.0
 11
182.427
 21
125.22
 31
0.0
  0
LINE
  8
0
 62
     0
 10
182.427
 20
125.22
 30
0.0
 11
182.76
 21
125.552
 31
0.0
  0
LINE
  8
0
 62
     0
 10
182.76
 20
125.552
 30
0.0
 11
182.973
 21
125.969
 31
0.0
  0
LINE
  8
0
 62
     0
 10
182.973
 20
125.969
 30
0.0
 11
183.045
 21
126.432
 31
0.0
  0
LINE
  8
0
 62
     0
 10
183.045
 20
126.432
 30
0.0
 11
182.973
 21
126.897
 31
0.0
  0
LINE
  8
0
 62
     0
 10
182.973
 20
126.897
 30
0.0
 11
182.76
 21
127.314
 31
0.0
  0
LINE
  8
0
 62
     0
 10
182.76
 20
127.314
 30
0.0
 11
182.427
 21
127.646
 31
0.0
  0
LINE
  8
0
 62
     0
 10
182.427
 20
127.646
 30
0.0
 11
182.01
 21
127.86
 31
0.0
  0
LINE
  8
0
 62
     0
 10
182.01
 20
127.86
 30
0.0
 11
181.545
 21
127.933
 31
0.0
  0
LINE
  8
0
 62
     0
 10
181.545
 20
127.933
 30
0.0
 11
181.083
 21
127.86
 31
0.0
  0
LINE
  8
0
 62
     0
 10
121.932
 20
127.86
 30
0.0
 11
121.514
 21
127.646
 31
0.0
  0
LINE
  8
0
 62
     0
 10
121.514
 20
127.646
 30
0.0
 11
121.182
 21
127.314
 31
0.0
  0
LINE
  8
0
 62
     0
 10
121.182
 20
127.314
 30
0.0
 11
120.968
 21
126.897
 31
0.0
  0
LINE
  8
0
 62
     0
 10
120.968
 20
126.897
 30
0.0
 11
120.895
 21
126.432
 31
0.0
  0
LINE
  8
0
 62
     0
 10
120.895
 20
126.432
 30
0.0
 11
120.968
 21
125.969
 31
0.0
  0
LINE
  8
0
 62
     0
 10
120.968
 20
125.969
 30
0.0
 11
121.182
 21
125.552
 31
0.0
  0
LINE
  8
0
 62
     0
 10
121.182
 20
125.552
 30
0.0
 11
121.514
 21
125.22
 31
0.0
  0
LINE
  8
0
 62
     0
 10
121.514
 20
125.22
 30
0.0
 11
121.932
 21
125.006
 31
0.0
  0
LINE
  8
0
 62
     0
 10
121.932
 20
125.006
 30
0.0
 11
122.396
 21
124.933
 31
0.0
  0
LINE
  8
0
 62
     0
 10
122.396
 20
124.933
 30
0.0
 11
122.859
 21
125.006
 31
0.0
  0
LINE
  8
0
 62
     0
 10
122.859
 20
125.006
 30
0.0
 11
123.276
 21
125.22
 31
0.0
  0
LINE
  8
0
 62
     0
 10
123.276
 20
125.22
 30
0.0
 11
123.61
 21
125.552
 31
0.0
  0
LINE
  8
0
 62
     0
 10
123.61
 20
125.552
 30
0.0
 11
123.822
 21
125.969
 31
0.0
  0
LINE
  8
0
 62
     0
 10
123.822
 20
125.969
 30
0.0
 11
123.895
 21
126.432
 31
0.0
  0
LINE
  8
0
 62
     0
 10
123.895
 20
126.432
 30
0.0
 11
123.822
 21
126.897
 31
0.0
  0
LINE
  8
0
 62
     0
 10
123.822
 20
126.897
 30
0.0
 11
123.61
 21
127.314
 31
0.0
  0
LINE
  8
0
 62
     0
 10
123.61
 20
127.314
 30
0.0
 11
123.276
 21
127.646
 31
0.0
  0
LINE
  8
0
 62
     0
 10
123.276
 20
127.646
 30
0.0
 11
122.859
 21
127.86
 31
0.0
  0
LINE
  8
0
 62
     0
 10
122.859
 20
127.86
 30
0.0
 11
122.396
 21
127.933
 31
0.0
  0
LINE
  8
0
 62
     0
 10
122.396
 20
127.933
 30
0.0
 11
121.932
 21
127.86
 31
0.0
  0
LINE
  8
0
 62
     0
 10
62.7821
 20
127.86
 30
0.0
 11
62.363
 21
127.646
 31
0.0
  0
LINE
  8
0
 62
     0
 10
62.363
 20
127.646
 30
0.0
 11
62.031
 21
127.314
 31
0.0
  0
LINE
  8
0
 62
     0
 10
62.031
 20
127.314
 30
0.0
 11
61.8187
 21
126.897
 31
0.0
  0
LINE
  8
0
 62
     0
 10
61.8187
 20
126.897
 30
0.0
 11
61.7456
 21
126.432
 31
0.0
  0
LINE
  8
0
 62
     0
 10
61.7456
 20
126.432
 30
0.0
 11
61.8187
 21
125.969
 31
0.0
  0
LINE
  8
0
 62
     0
 10
61.8187
 20
125.969
 30
0.0
 11
62.031
 21
125.552
 31
0.0
  0
LINE
  8
0
 62
     0
 10
62.031
 20
125.552
 30
0.0
 11
62.363
 21
125.22
 31
0.0
  0
LINE
  8
0
 62
     0
 10
62.363
 20
125.22
 30
0.0
 11
62.7821
 21
125.006
 31
0.0
  0
LINE
  8
0
 62
     0
 10
62.7821
 20
125.006
 30
0.0
 11
63.2449
 21
124.933
 31
0.0
  0
LINE
  8
0
 62
     0
 10
63.2449
 20
124.933
 30
0.0
 11
63.7081
 21
125.006
 31
0.0
  0
LINE
  8
0
 62
     0
 10
63.7081
 20
125.006
 30
0.0
 11
64.1269
 21
125.22
 31
0.0
  0
LINE
  8
0
 62
     0
 10
64.1269
 20
125.22
 30
0.0
 11
64.4592
 21
125.552
 31
0.0
  0
LINE
  8
0
 62
     0
 10
64.4592
 20
125.552
 30
0.0
 11
64.6712
 21
125.969
 31
0.0
  0
LINE
  8
0
 62
     0
 10
64.6712
 20
125.969
 30
0.0
 11
64.7457
 21
126.432
 31
0.0
  0
LINE
  8
0
 62
     0
 10
64.7457
 20
126.432
 30
0.0
 11
64.6712
 21
126.897
 31
0.0
  0
LINE
  8
0
 62
     0
 10
64.6712
 20
126.897
 30
0.0
 11
64.4592
 21
127.314
 31
0.0
  0
LINE
  8
0
 62
     0
 10
64.4592
 20
127.314
 30
0.0
 11
64.1269
 21
127.646
 31
0.0
  0
LINE
  8
0
 62
     0
 10
64.1269
 20
127.646
 30
0.0
 11
63.7081
 21
127.86
 31
0.0
  0
LINE
  8
0
 62
     0
 10
63.7081
 20
127.86
 30
0.0
 11
63.2449
 21
127.933
 31
0.0
  0
LINE
  8
0
 62
     0
 10
63.2449
 20
127.933
 30
0.0
 11
62.7821
 21
127.86
 31
0.0
  0
ENDSEC
  0
EOF
