  0
SECTION
  2
HEADER
  9
$ACADVER
  1
AC1009
  9
$EXTMIN
 10
0.0
 20
0.0
 30
0.0
  9
$EXTMAX
 10
1000.0
 20
1000.0
 30
0.0
  9
$FILLMODE
 70
 0
  9
$SPLFRAME
 70
 1
  0
ENDSEC
  0
SECTION
  2
TABLES
  0
TABLE
  2
LAYER
 70
1
  0
LAYER
  2
0
 70
     0
 62
     7
  6
CONTINUOUS
  0
ENDTAB
  0
ENDSEC
  0
SECTION
  2
ENTITIES
  0
LINE
  8
0
 62
     0
 10
242.696
 20
130.433
 30
0.0
 11
242.853
 21
130.426
 31
0.0
  0
LINE
  8
0
 62
     0
 10
242.853
 20
130.426
 30
0.0
 11
243.009
 21
130.408
 31
0.0
  0
LINE
  8
0
 62
     0
 10
243.009
 20
130.408
 30
0.0
 11
243.163
 21
130.377
 31
0.0
  0
LINE
  8
0
 62
     0
 10
243.163
 20
130.377
 30
0.0
 11
243.315
 21
130.335
 31
0.0
  0
LINE
  8
0
 62
     0
 10
243.315
 20
130.335
 30
0.0
 11
243.462
 21
130.28
 31
0.0
  0
LINE
  8
0
 62
     0
 10
243.462
 20
130.28
 30
0.0
 11
243.604
 21
130.215
 31
0.0
  0
LINE
  8
0
 62
     0
 10
243.604
 20
130.215
 30
0.0
 11
243.741
 21
130.138
 31
0.0
  0
LINE
  8
0
 62
     0
 10
243.741
 20
130.138
 30
0.0
 11
243.871
 21
130.051
 31
0.0
  0
LINE
  8
0
 62
     0
 10
243.871
 20
130.051
 30
0.0
 11
243.994
 21
129.953
 31
0.0
  0
LINE
  8
0
 62
     0
 10
243.994
 20
129.953
 30
0.0
 11
244.11
 21
129.847
 31
0.0
  0
LINE
  8
0
 62
     0
 10
244.11
 20
129.847
 30
0.0
 11
244.216
 21
129.731
 31
0.0
  0
LINE
  8
0
 62
     0
 10
244.216
 20
129.731
 30
0.0
 11
244.315
 21
129.609
 31
0.0
  0
LINE
  8
0
 62
     0
 10
244.315
 20
129.609
 30
0.0
 11
244.402
 21
129.478
 31
0.0
  0
LINE
  8
0
 62
     0
 10
244.402
 20
129.478
 30
0.0
 11
244.479
 21
129.34
 31
0.0
  0
LINE
  8
0
 62
     0
 10
244.479
 20
129.34
 30
0.0
 11
244.544
 21
129.198
 31
0.0
  0
LINE
  8
0
 62
     0
 10
244.544
 20
129.198
 30
0.0
 11
244.599
 21
129.052
 31
0.0
  0
LINE
  8
0
 62
     0
 10
244.599
 20
129.052
 30
0.0
 11
244.64
 21
128.899
 31
0.0
  0
LINE
  8
0
 62
     0
 10
244.64
 20
128.899
 30
0.0
 11
244.672
 21
128.746
 31
0.0
  0
LINE
  8
0
 62
     0
 10
244.672
 20
128.746
 30
0.0
 11
244.69
 21
128.589
 31
0.0
  0
LINE
  8
0
 62
     0
 10
244.69
 20
128.589
 30
0.0
 11
244.697
 21
128.432
 31
0.0
  0
LINE
  8
0
 62
     0
 10
244.697
 20
128.432
 30
0.0
 11
244.697
 21
2.13183
 31
0.0
  0
LINE
  8
0
 62
     0
 10
244.697
 20
2.13183
 30
0.0
 11
244.69
 21
1.97473
 31
0.0
  0
LINE
  8
0
 62
     0
 10
244.69
 20
1.97473
 30
0.0
 11
244.672
 21
1.81901
 31
0.0
  0
LINE
  8
0
 62
     0
 10
244.672
 20
1.81901
 30
0.0
 11
244.64
 21
1.66467
 31
0.0
  0
LINE
  8
0
 62
     0
 10
244.64
 20
1.66467
 30
0.0
 11
244.599
 21
1.51309
 31
0.0
  0
LINE
  8
0
 62
     0
 10
244.599
 20
1.51309
 30
0.0
 11
244.544
 21
1.36563
 31
0.0
  0
LINE
  8
0
 62
     0
 10
244.544
 20
1.36563
 30
0.0
 11
244.479
 21
1.2237
 31
0.0
  0
LINE
  8
0
 62
     0
 10
244.479
 20
1.2237
 30
0.0
 11
244.402
 21
1.08727
 31
0.0
  0
LINE
  8
0
 62
     0
 10
244.402
 20
1.08727
 30
0.0
 11
244.315
 21
0.956359
 31
0.0
  0
LINE
  8
0
 62
     0
 10
244.315
 20
0.956359
 30
0.0
 11
244.216
 21
0.833713
 31
0.0
  0
LINE
  8
0
 62
     0
 10
244.216
 20
0.833713
 30
0.0
 11
244.11
 21
0.717959
 31
0.0
  0
LINE
  8
0
 62
     0
 10
244.11
 20
0.717959
 30
0.0
 11
243.994
 21
0.611851
 31
0.0
  0
LINE
  8
0
 62
     0
 10
243.994
 20
0.611851
 30
0.0
 11
243.871
 21
0.512632
 31
0.0
  0
LINE
  8
0
 62
     0
 10
243.871
 20
0.512632
 30
0.0
 11
243.741
 21
0.425813
 31
0.0
  0
LINE
  8
0
 62
     0
 10
243.741
 20
0.425813
 30
0.0
 11
243.604
 21
0.348644
 31
0.0
  0
LINE
  8
0
 62
     0
 10
243.604
 20
0.348644
 30
0.0
 11
243.462
 21
0.283876
 31
0.0
  0
LINE
  8
0
 62
     0
 10
243.462
 20
0.283876
 30
0.0
 11
243.315
 21
0.228755
 31
0.0
  0
LINE
  8
0
 62
     0
 10
243.315
 20
0.228755
 30
0.0
 11
243.163
 21
0.187413
 31
0.0
  0
LINE
  8
0
 62
     0
 10
243.163
 20
0.187413
 30
0.0
 11
243.009
 21
0.155718
 31
0.0
  0
LINE
  8
0
 62
     0
 10
243.009
 20
0.155718
 30
0.0
 11
242.853
 21
0.137804
 31
0.0
  0
LINE
  8
0
 62
     0
 10
242.853
 20
0.137804
 30
0.0
 11
242.696
 21
0.130914
 31
0.0
  0
LINE
  8
0
 62
     0
 10
242.696
 20
0.130914
 30
0.0
 11
2.096
 21
0.130914
 31
0.0
  0
LINE
  8
0
 62
     0
 10
2.096
 20
0.130914
 30
0.0
 11
1.9389
 21
0.137804
 31
0.0
  0
LINE
  8
0
 62
     0
 10
1.9389
 20
0.137804
 30
0.0
 11
1.7818
 21
0.155718
 31
0.0
  0
LINE
  8
0
 62
     0
 10
1.7818
 20
0.155718
 30
0.0
 11
1.62884
 21
0.187413
 31
0.0
  0
LINE
  8
0
 62
     0
 10
1.62884
 20
0.187413
 30
0.0
 11
1.47588
 21
0.228755
 31
0.0
  0
LINE
  8
0
 62
     0
 10
1.47588
 20
0.228755
 30
0.0
 11
1.32981
 21
0.283876
 31
0.0
  0
LINE
  8
0
 62
     0
 10
1.32981
 20
0.283876
 30
0.0
 11
1.18787
 21
0.348644
 31
0.0
  0
LINE
  8
0
 62
     0
 10
1.18787
 20
0.348644
 30
0.0
 11
1.05006
 21
0.425813
 31
0.0
  0
LINE
  8
0
 62
     0
 10
1.05006
 20
0.425813
 30
0.0
 11
0.919152
 21
0.512632
 31
0.0
  0
LINE
  8
0
 62
     0
 10
0.919152
 20
0.512632
 30
0.0
 11
0.796505
 21
0.611851
 31
0.0
  0
LINE
  8
0
 62
     0
 10
0.796505
 20
0.611851
 30
0.0
 11
0.680752
 21
0.717959
 31
0.0
  0
LINE
  8
0
 62
     0
 10
0.680752
 20
0.717959
 30
0.0
 11
0.574643
 21
0.833713
 31
0.0
  0
LINE
  8
0
 62
     0
 10
0.574643
 20
0.833713
 30
0.0
 11
0.4768
 21
0.956359
 31
0.0
  0
LINE
  8
0
 62
     0
 10
0.4768
 20
0.956359
 30
0.0
 11
0.389985
 21
1.08727
 31
0.0
  0
LINE
  8
0
 62
     0
 10
0.389985
 20
1.08727
 30
0.0
 11
0.312815
 21
1.2237
 31
0.0
  0
LINE
  8
0
 62
     0
 10
0.312815
 20
1.2237
 30
0.0
 11
0.248047
 21
1.36563
 31
0.0
  0
LINE
  8
0
 62
     0
 10
0.248047
 20
1.36563
 30
0.0
 11
0.192925
 21
1.51309
 31
0.0
  0
LINE
  8
0
 62
     0
 10
0.192925
 20
1.51309
 30
0.0
 11
0.150206
 21
1.66467
 31
0.0
  0
LINE
  8
0
 62
     0
 10
0.150206
 20
1.66467
 30
0.0
 11
0.119889
 21
1.81901
 31
0.0
  0
LINE
  8
0
 62
     0
 10
0.119889
 20
1.81901
 30
0.0
 11
0.101975
 21
1.97473
 31
0.0
  0
LINE
  8
0
 62
     0
 10
0.101975
 20
1.97473
 30
0.0
 11
0.0950846
 21
2.13183
 31
0.0
  0
LINE
  8
0
 62
     0
 10
0.0950846
 20
2.13183
 30
0.0
 11
0.0950846
 21
128.432
 31
0.0
  0
LINE
  8
0
 62
     0
 10
0.0950846
 20
128.432
 30
0.0
 11
0.101975
 21
128.589
 31
0.0
  0
LINE
  8
0
 62
     0
 10
0.101975
 20
128.589
 30
0.0
 11
0.119889
 21
128.746
 31
0.0
  0
LINE
  8
0
 62
     0
 10
0.119889
 20
128.746
 30
0.0
 11
0.150206
 21
128.899
 31
0.0
  0
LINE
  8
0
 62
     0
 10
0.150206
 20
128.899
 30
0.0
 11
0.192925
 21
129.052
 31
0.0
  0
LINE
  8
0
 62
     0
 10
0.192925
 20
129.052
 30
0.0
 11
0.248047
 21
129.198
 31
0.0
  0
LINE
  8
0
 62
     0
 10
0.248047
 20
129.198
 30
0.0
 11
0.312815
 21
129.34
 31
0.0
  0
LINE
  8
0
 62
     0
 10
0.312815
 20
129.34
 30
0.0
 11
0.389985
 21
129.478
 31
0.0
  0
LINE
  8
0
 62
     0
 10
0.389985
 20
129.478
 30
0.0
 11
0.4768
 21
129.609
 31
0.0
  0
LINE
  8
0
 62
     0
 10
0.4768
 20
129.609
 30
0.0
 11
0.574643
 21
129.731
 31
0.0
  0
LINE
  8
0
 62
     0
 10
0.574643
 20
129.731
 30
0.0
 11
0.680752
 21
129.847
 31
0.0
  0
LINE
  8
0
 62
     0
 10
0.680752
 20
129.847
 30
0.0
 11
0.796505
 21
129.953
 31
0.0
  0
LINE
  8
0
 62
     0
 10
0.796505
 20
129.953
 30
0.0
 11
0.919152
 21
130.051
 31
0.0
  0
LINE
  8
0
 62
     0
 10
0.919152
 20
130.051
 30
0.0
 11
1.05006
 21
130.138
 31
0.0
  0
LINE
  8
0
 62
     0
 10
1.05006
 20
130.138
 30
0.0
 11
1.18787
 21
130.215
 31
0.0
  0
LINE
  8
0
 62
     0
 10
1.18787
 20
130.215
 30
0.0
 11
1.32981
 21
130.28
 31
0.0
  0
LINE
  8
0
 62
     0
 10
1.32981
 20
130.28
 30
0.0
 11
1.47588
 21
130.335
 31
0.0
  0
LINE
  8
0
 62
     0
 10
1.47588
 20
130.335
 30
0.0
 11
1.62884
 21
130.377
 31
0.0
  0
LINE
  8
0
 62
     0
 10
1.62884
 20
130.377
 30
0.0
 11
1.7818
 21
130.408
 31
0.0
  0
LINE
  8
0
 62
     0
 10
1.7818
 20
130.408
 30
0.0
 11
1.9389
 21
130.426
 31
0.0
  0
LINE
  8
0
 62
     0
 10
1.9389
 20
130.426
 30
0.0
 11
2.096
 21
130.433
 31
0.0
  0
LINE
  8
0
 62
     0
 10
2.096
 20
130.433
 30
0.0
 11
242.696
 21
130.433
 31
0.0
  0
LINE
  8
0
 62
     0
 10
3.75514
 20
5.18005
 30
0.0
 11
3.44785
 21
5.02158
 31
0.0
  0
LINE
  8
0
 62
     0
 10
3.44785
 20
5.02158
 30
0.0
 11
3.20394
 21
4.77767
 31
0.0
  0
LINE
  8
0
 62
     0
 10
3.20394
 20
4.77767
 30
0.0
 11
3.04822
 21
4.47174
 31
0.0
  0
LINE
  8
0
 62
     0
 10
3.04822
 20
4.47174
 30
0.0
 11
2.99448
 21
4.13135
 31
0.0
  0
LINE
  8
0
 62
     0
 10
2.99448
 20
4.13135
 30
0.0
 11
3.04822
 21
3.79236
 31
0.0
  0
LINE
  8
0
 62
     0
 10
3.04822
 20
3.79236
 30
0.0
 11
3.20394
 21
3.48506
 31
0.0
  0
LINE
  8
0
 62
     0
 10
3.20394
 20
3.48506
 30
0.0
 11
3.44785
 21
3.24253
 31
0.0
  0
LINE
  8
0
 62
     0
 10
3.44785
 20
3.24253
 30
0.0
 11
3.75514
 21
3.08543
 31
0.0
  0
LINE
  8
0
 62
     0
 10
3.75514
 20
3.08543
 30
0.0
 11
4.09416
 21
3.03168
 31
0.0
  0
LINE
  8
0
 62
     0
 10
4.09416
 20
3.03168
 30
0.0
 11
4.43452
 21
3.08543
 31
0.0
  0
LINE
  8
0
 62
     0
 10
4.43452
 20
3.08543
 30
0.0
 11
4.74183
 21
3.24253
 31
0.0
  0
LINE
  8
0
 62
     0
 10
4.74183
 20
3.24253
 30
0.0
 11
4.98436
 21
3.48506
 31
0.0
  0
LINE
  8
0
 62
     0
 10
4.98436
 20
3.48506
 30
0.0
 11
5.14145
 21
3.79236
 31
0.0
  0
LINE
  8
0
 62
     0
 10
5.14145
 20
3.79236
 30
0.0
 11
5.19384
 21
4.13135
 31
0.0
  0
LINE
  8
0
 62
     0
 10
5.19384
 20
4.13135
 30
0.0
 11
5.14145
 21
4.47174
 31
0.0
  0
LINE
  8
0
 62
     0
 10
5.14145
 20
4.47174
 30
0.0
 11
4.98436
 21
4.77767
 31
0.0
  0
LINE
  8
0
 62
     0
 10
4.98436
 20
4.77767
 30
0.0
 11
4.74183
 21
5.02158
 31
0.0
  0
LINE
  8
0
 62
     0
 10
4.74183
 20
5.02158
 30
0.0
 11
4.43452
 21
5.18005
 31
0.0
  0
LINE
  8
0
 62
     0
 10
4.43452
 20
5.18005
 30
0.0
 11
4.09416
 21
5.23102
 31
0.0
  0
LINE
  8
0
 62
     0
 10
4.09416
 20
5.23102
 30
0.0
 11
3.75514
 21
5.18005
 31
0.0
  0
LINE
  8
0
 62
     0
 10
62.9059
 20
5.18005
 30
0.0
 11
62.5987
 21
5.02158
 31
0.0
  0
LINE
  8
0
 62
     0
 10
62.5987
 20
5.02158
 30
0.0
 11
62.3549
 21
4.77767
 31
0.0
  0
LINE
  8
0
 62
     0
 10
62.3549
 20
4.77767
 30
0.0
 11
62.1993
 21
4.47174
 31
0.0
  0
LINE
  8
0
 62
     0
 10
62.1993
 20
4.47174
 30
0.0
 11
62.1453
 21
4.13135
 31
0.0
  0
LINE
  8
0
 62
     0
 10
62.1453
 20
4.13135
 30
0.0
 11
62.1993
 21
3.79236
 31
0.0
  0
LINE
  8
0
 62
     0
 10
62.1993
 20
3.79236
 30
0.0
 11
62.3549
 21
3.48506
 31
0.0
  0
LINE
  8
0
 62
     0
 10
62.3549
 20
3.48506
 30
0.0
 11
62.5987
 21
3.24253
 31
0.0
  0
LINE
  8
0
 62
     0
 10
62.5987
 20
3.24253
 30
0.0
 11
62.9059
 21
3.08543
 31
0.0
  0
LINE
  8
0
 62
     0
 10
62.9059
 20
3.08543
 30
0.0
 11
63.2449
 21
3.03168
 31
0.0
  0
LINE
  8
0
 62
     0
 10
63.2449
 20
3.03168
 30
0.0
 11
63.5854
 21
3.08543
 31
0.0
  0
LINE
  8
0
 62
     0
 10
63.5854
 20
3.08543
 30
0.0
 11
63.8912
 21
3.24253
 31
0.0
  0
LINE
  8
0
 62
     0
 10
63.8912
 20
3.24253
 30
0.0
 11
64.1354
 21
3.48506
 31
0.0
  0
LINE
  8
0
 62
     0
 10
64.1354
 20
3.48506
 30
0.0
 11
64.2909
 21
3.79236
 31
0.0
  0
LINE
  8
0
 62
     0
 10
64.2909
 20
3.79236
 30
0.0
 11
64.346
 21
4.13135
 31
0.0
  0
LINE
  8
0
 62
     0
 10
64.346
 20
4.13135
 30
0.0
 11
64.2909
 21
4.47174
 31
0.0
  0
LINE
  8
0
 62
     0
 10
64.2909
 20
4.47174
 30
0.0
 11
64.1354
 21
4.77767
 31
0.0
  0
LINE
  8
0
 62
     0
 10
64.1354
 20
4.77767
 30
0.0
 11
63.8912
 21
5.02158
 31
0.0
  0
LINE
  8
0
 62
     0
 10
63.8912
 20
5.02158
 30
0.0
 11
63.5854
 21
5.18005
 31
0.0
  0
LINE
  8
0
 62
     0
 10
63.5854
 20
5.18005
 30
0.0
 11
63.2449
 21
5.23102
 31
0.0
  0
LINE
  8
0
 62
     0
 10
63.2449
 20
5.23102
 30
0.0
 11
62.9059
 21
5.18005
 31
0.0
  0
LINE
  8
0
 62
     0
 10
122.055
 20
5.18005
 30
0.0
 11
121.748
 21
5.02158
 31
0.0
  0
LINE
  8
0
 62
     0
 10
121.748
 20
5.02158
 30
0.0
 11
121.506
 21
4.77767
 31
0.0
  0
LINE
  8
0
 62
     0
 10
121.506
 20
4.77767
 30
0.0
 11
121.35
 21
4.47174
 31
0.0
  0
LINE
  8
0
 62
     0
 10
121.35
 20
4.47174
 30
0.0
 11
121.295
 21
4.13135
 31
0.0
  0
LINE
  8
0
 62
     0
 10
121.295
 20
4.13135
 30
0.0
 11
121.35
 21
3.79236
 31
0.0
  0
LINE
  8
0
 62
     0
 10
121.35
 20
3.79236
 30
0.0
 11
121.506
 21
3.48506
 31
0.0
  0
LINE
  8
0
 62
     0
 10
121.506
 20
3.48506
 30
0.0
 11
121.748
 21
3.24253
 31
0.0
  0
LINE
  8
0
 62
     0
 10
121.748
 20
3.24253
 30
0.0
 11
122.055
 21
3.08543
 31
0.0
  0
LINE
  8
0
 62
     0
 10
122.055
 20
3.08543
 30
0.0
 11
122.396
 21
3.03168
 31
0.0
  0
LINE
  8
0
 62
     0
 10
122.396
 20
3.03168
 30
0.0
 11
122.735
 21
3.08543
 31
0.0
  0
LINE
  8
0
 62
     0
 10
122.735
 20
3.08543
 30
0.0
 11
123.042
 21
3.24253
 31
0.0
  0
LINE
  8
0
 62
     0
 10
123.042
 20
3.24253
 30
0.0
 11
123.285
 21
3.48506
 31
0.0
  0
LINE
  8
0
 62
     0
 10
123.285
 20
3.48506
 30
0.0
 11
123.442
 21
3.79236
 31
0.0
  0
LINE
  8
0
 62
     0
 10
123.442
 20
3.79236
 30
0.0
 11
123.496
 21
4.13135
 31
0.0
  0
LINE
  8
0
 62
     0
 10
123.496
 20
4.13135
 30
0.0
 11
123.442
 21
4.47174
 31
0.0
  0
LINE
  8
0
 62
     0
 10
123.442
 20
4.47174
 30
0.0
 11
123.285
 21
4.77767
 31
0.0
  0
LINE
  8
0
 62
     0
 10
123.285
 20
4.77767
 30
0.0
 11
123.042
 21
5.02158
 31
0.0
  0
LINE
  8
0
 62
     0
 10
123.042
 20
5.02158
 30
0.0
 11
122.735
 21
5.18005
 31
0.0
  0
LINE
  8
0
 62
     0
 10
122.735
 20
5.18005
 30
0.0
 11
122.396
 21
5.23102
 31
0.0
  0
LINE
  8
0
 62
     0
 10
122.396
 20
5.23102
 30
0.0
 11
122.055
 21
5.18005
 31
0.0
  0
LINE
  8
0
 62
     0
 10
181.205
 20
5.18005
 30
0.0
 11
180.899
 21
5.02158
 31
0.0
  0
LINE
  8
0
 62
     0
 10
180.899
 20
5.02158
 30
0.0
 11
180.655
 21
4.77767
 31
0.0
  0
LINE
  8
0
 62
     0
 10
180.655
 20
4.77767
 30
0.0
 11
180.499
 21
4.47174
 31
0.0
  0
LINE
  8
0
 62
     0
 10
180.499
 20
4.47174
 30
0.0
 11
180.446
 21
4.13135
 31
0.0
  0
LINE
  8
0
 62
     0
 10
180.446
 20
4.13135
 30
0.0
 11
180.499
 21
3.79236
 31
0.0
  0
LINE
  8
0
 62
     0
 10
180.499
 20
3.79236
 30
0.0
 11
180.655
 21
3.48506
 31
0.0
  0
LINE
  8
0
 62
     0
 10
180.655
 20
3.48506
 30
0.0
 11
180.899
 21
3.24253
 31
0.0
  0
LINE
  8
0
 62
     0
 10
180.899
 20
3.24253
 30
0.0
 11
181.205
 21
3.08543
 31
0.0
  0
LINE
  8
0
 62
     0
 10
181.205
 20
3.08543
 30
0.0
 11
181.545
 21
3.03168
 31
0.0
  0
LINE
  8
0
 62
     0
 10
181.545
 20
3.03168
 30
0.0
 11
181.886
 21
3.08543
 31
0.0
  0
LINE
  8
0
 62
     0
 10
181.886
 20
3.08543
 30
0.0
 11
182.192
 21
3.24253
 31
0.0
  0
LINE
  8
0
 62
     0
 10
182.192
 20
3.24253
 30
0.0
 11
182.436
 21
3.48506
 31
0.0
  0
LINE
  8
0
 62
     0
 10
182.436
 20
3.48506
 30
0.0
 11
182.591
 21
3.79236
 31
0.0
  0
LINE
  8
0
 62
     0
 10
182.591
 20
3.79236
 30
0.0
 11
182.645
 21
4.13135
 31
0.0
  0
LINE
  8
0
 62
     0
 10
182.645
 20
4.13135
 30
0.0
 11
182.591
 21
4.47174
 31
0.0
  0
LINE
  8
0
 62
     0
 10
182.591
 20
4.47174
 30
0.0
 11
182.436
 21
4.77767
 31
0.0
  0
LINE
  8
0
 62
     0
 10
182.436
 20
4.77767
 30
0.0
 11
182.192
 21
5.02158
 31
0.0
  0
LINE
  8
0
 62
     0
 10
182.192
 20
5.02158
 30
0.0
 11
181.886
 21
5.18005
 31
0.0
  0
LINE
  8
0
 62
     0
 10
181.886
 20
5.18005
 30
0.0
 11
181.545
 21
5.23102
 31
0.0
  0
LINE
  8
0
 62
     0
 10
181.545
 20
5.23102
 30
0.0
 11
181.205
 21
5.18005
 31
0.0
  0
LINE
  8
0
 62
     0
 10
240.356
 20
5.18005
 30
0.0
 11
240.05
 21
5.02158
 31
0.0
  0
LINE
  8
0
 62
     0
 10
240.05
 20
5.02158
 30
0.0
 11
239.806
 21
4.77767
 31
0.0
  0
LINE
  8
0
 62
     0
 10
239.806
 20
4.77767
 30
0.0
 11
239.649
 21
4.47174
 31
0.0
  0
LINE
  8
0
 62
     0
 10
239.649
 20
4.47174
 30
0.0
 11
239.597
 21
4.13135
 31
0.0
  0
LINE
  8
0
 62
     0
 10
239.597
 20
4.13135
 30
0.0
 11
239.649
 21
3.79236
 31
0.0
  0
LINE
  8
0
 62
     0
 10
239.649
 20
3.79236
 30
0.0
 11
239.806
 21
3.48506
 31
0.0
  0
LINE
  8
0
 62
     0
 10
239.806
 20
3.48506
 30
0.0
 11
240.05
 21
3.24253
 31
0.0
  0
LINE
  8
0
 62
     0
 10
240.05
 20
3.24253
 30
0.0
 11
240.356
 21
3.08543
 31
0.0
  0
LINE
  8
0
 62
     0
 10
240.356
 20
3.08543
 30
0.0
 11
240.696
 21
3.03168
 31
0.0
  0
LINE
  8
0
 62
     0
 10
240.696
 20
3.03168
 30
0.0
 11
241.035
 21
3.08543
 31
0.0
  0
LINE
  8
0
 62
     0
 10
241.035
 20
3.08543
 30
0.0
 11
241.343
 21
3.24253
 31
0.0
  0
LINE
  8
0
 62
     0
 10
241.343
 20
3.24253
 30
0.0
 11
241.585
 21
3.48506
 31
0.0
  0
LINE
  8
0
 62
     0
 10
241.585
 20
3.48506
 30
0.0
 11
241.742
 21
3.79236
 31
0.0
  0
LINE
  8
0
 62
     0
 10
241.742
 20
3.79236
 30
0.0
 11
241.796
 21
4.13135
 31
0.0
  0
LINE
  8
0
 62
     0
 10
241.796
 20
4.13135
 30
0.0
 11
241.742
 21
4.47174
 31
0.0
  0
LINE
  8
0
 62
     0
 10
241.742
 20
4.47174
 30
0.0
 11
241.585
 21
4.77767
 31
0.0
  0
LINE
  8
0
 62
     0
 10
241.585
 20
4.77767
 30
0.0
 11
241.343
 21
5.02158
 31
0.0
  0
LINE
  8
0
 62
     0
 10
241.343
 20
5.02158
 30
0.0
 11
241.035
 21
5.18005
 31
0.0
  0
LINE
  8
0
 62
     0
 10
241.035
 20
5.18005
 30
0.0
 11
240.696
 21
5.23102
 31
0.0
  0
LINE
  8
0
 62
     0
 10
240.696
 20
5.23102
 30
0.0
 11
240.356
 21
5.18005
 31
0.0
  0
LINE
  8
0
 62
     0
 10
220.17
 20
24.6586
 30
0.0
 11
234.17
 21
24.6586
 31
0.0
  0
LINE
  8
0
 62
     0
 10
234.17
 20
24.6586
 30
0.0
 11
234.17
 21
10.6577
 31
0.0
  0
LINE
  8
0
 62
     0
 10
234.17
 20
10.6577
 30
0.0
 11
220.17
 21
10.6577
 31
0.0
  0
LINE
  8
0
 62
     0
 10
220.17
 20
10.6577
 30
0.0
 11
220.17
 21
24.6586
 31
0.0
  0
LINE
  8
0
 62
     0
 10
201.12
 20
24.6586
 30
0.0
 11
215.12
 21
24.6586
 31
0.0
  0
LINE
  8
0
 62
     0
 10
215.12
 20
24.6586
 30
0.0
 11
215.12
 21
10.6577
 31
0.0
  0
LINE
  8
0
 62
     0
 10
215.12
 20
10.6577
 30
0.0
 11
201.12
 21
10.6577
 31
0.0
  0
LINE
  8
0
 62
     0
 10
201.12
 20
10.6577
 30
0.0
 11
201.12
 21
24.6586
 31
0.0
  0
LINE
  8
0
 62
     0
 10
182.07
 20
24.6586
 30
0.0
 11
196.07
 21
24.6586
 31
0.0
  0
LINE
  8
0
 62
     0
 10
196.07
 20
24.6586
 30
0.0
 11
196.07
 21
10.6577
 31
0.0
  0
LINE
  8
0
 62
     0
 10
196.07
 20
10.6577
 30
0.0
 11
182.07
 21
10.6577
 31
0.0
  0
LINE
  8
0
 62
     0
 10
182.07
 20
10.6577
 30
0.0
 11
182.07
 21
24.6586
 31
0.0
  0
LINE
  8
0
 62
     0
 10
163.02
 20
24.6586
 30
0.0
 11
177.02
 21
24.6586
 31
0.0
  0
LINE
  8
0
 62
     0
 10
177.02
 20
24.6586
 30
0.0
 11
177.02
 21
10.6577
 31
0.0
  0
LINE
  8
0
 62
     0
 10
177.02
 20
10.6577
 30
0.0
 11
163.02
 21
10.6577
 31
0.0
  0
LINE
  8
0
 62
     0
 10
163.02
 20
10.6577
 30
0.0
 11
163.02
 21
24.6586
 31
0.0
  0
LINE
  8
0
 62
     0
 10
143.97
 20
24.6586
 30
0.0
 11
157.97
 21
24.6586
 31
0.0
  0
LINE
  8
0
 62
     0
 10
157.97
 20
24.6586
 30
0.0
 11
157.97
 21
10.6577
 31
0.0
  0
LINE
  8
0
 62
     0
 10
157.97
 20
10.6577
 30
0.0
 11
143.97
 21
10.6577
 31
0.0
  0
LINE
  8
0
 62
     0
 10
143.97
 20
10.6577
 30
0.0
 11
143.97
 21
24.6586
 31
0.0
  0
LINE
  8
0
 62
     0
 10
124.919
 20
24.6586
 30
0.0
 11
138.92
 21
24.6586
 31
0.0
  0
LINE
  8
0
 62
     0
 10
138.92
 20
24.6586
 30
0.0
 11
138.92
 21
10.6577
 31
0.0
  0
LINE
  8
0
 62
     0
 10
138.92
 20
10.6577
 30
0.0
 11
124.919
 21
10.6577
 31
0.0
  0
LINE
  8
0
 62
     0
 10
124.919
 20
10.6577
 30
0.0
 11
124.919
 21
24.6586
 31
0.0
  0
LINE
  8
0
 62
     0
 10
105.869
 20
24.6586
 30
0.0
 11
119.87
 21
24.6586
 31
0.0
  0
LINE
  8
0
 62
     0
 10
119.87
 20
24.6586
 30
0.0
 11
119.87
 21
10.6577
 31
0.0
  0
LINE
  8
0
 62
     0
 10
119.87
 20
10.6577
 30
0.0
 11
105.869
 21
10.6577
 31
0.0
  0
LINE
  8
0
 62
     0
 10
105.869
 20
10.6577
 30
0.0
 11
105.869
 21
24.6586
 31
0.0
  0
LINE
  8
0
 62
     0
 10
86.8204
 20
24.6586
 30
0.0
 11
100.82
 21
24.6586
 31
0.0
  0
LINE
  8
0
 62
     0
 10
100.82
 20
24.6586
 30
0.0
 11
100.82
 21
10.6577
 31
0.0
  0
LINE
  8
0
 62
     0
 10
100.82
 20
10.6577
 30
0.0
 11
86.8204
 21
10.6577
 31
0.0
  0
LINE
  8
0
 62
     0
 10
86.8204
 20
10.6577
 30
0.0
 11
86.8204
 21
24.6586
 31
0.0
  0
LINE
  8
0
 62
     0
 10
67.7704
 20
24.6586
 30
0.0
 11
81.77
 21
24.6586
 31
0.0
  0
LINE
  8
0
 62
     0
 10
81.77
 20
24.6586
 30
0.0
 11
81.77
 21
10.6577
 31
0.0
  0
LINE
  8
0
 62
     0
 10
81.77
 20
10.6577
 30
0.0
 11
67.7704
 21
10.6577
 31
0.0
  0
LINE
  8
0
 62
     0
 10
67.7704
 20
10.6577
 30
0.0
 11
67.7704
 21
24.6586
 31
0.0
  0
LINE
  8
0
 62
     0
 10
48.7204
 20
24.6586
 30
0.0
 11
62.72
 21
24.6586
 31
0.0
  0
LINE
  8
0
 62
     0
 10
62.72
 20
24.6586
 30
0.0
 11
62.72
 21
10.6577
 31
0.0
  0
LINE
  8
0
 62
     0
 10
62.72
 20
10.6577
 30
0.0
 11
48.7204
 21
10.6577
 31
0.0
  0
LINE
  8
0
 62
     0
 10
48.7204
 20
10.6577
 30
0.0
 11
48.7204
 21
24.6586
 31
0.0
  0
LINE
  8
0
 62
     0
 10
29.6706
 20
24.6586
 30
0.0
 11
43.67
 21
24.6586
 31
0.0
  0
LINE
  8
0
 62
     0
 10
43.67
 20
24.6586
 30
0.0
 11
43.67
 21
10.6577
 31
0.0
  0
LINE
  8
0
 62
     0
 10
43.67
 20
10.6577
 30
0.0
 11
29.6706
 21
10.6577
 31
0.0
  0
LINE
  8
0
 62
     0
 10
29.6706
 20
10.6577
 30
0.0
 11
29.6706
 21
24.6586
 31
0.0
  0
LINE
  8
0
 62
     0
 10
10.6192
 20
24.6586
 30
0.0
 11
24.62
 21
24.6586
 31
0.0
  0
LINE
  8
0
 62
     0
 10
24.62
 20
24.6586
 30
0.0
 11
24.62
 21
10.6577
 31
0.0
  0
LINE
  8
0
 62
     0
 10
24.62
 20
10.6577
 30
0.0
 11
10.6192
 21
10.6577
 31
0.0
  0
LINE
  8
0
 62
     0
 10
10.6192
 20
10.6577
 30
0.0
 11
10.6192
 21
24.6586
 31
0.0
  0
LINE
  8
0
 62
     0
 10
220.17
 20
43.7074
 30
0.0
 11
234.17
 21
43.7074
 31
0.0
  0
LINE
  8
0
 62
     0
 10
234.17
 20
43.7074
 30
0.0
 11
234.17
 21
29.7077
 31
0.0
  0
LINE
  8
0
 62
     0
 10
234.17
 20
29.7077
 30
0.0
 11
220.17
 21
29.7077
 31
0.0
  0
LINE
  8
0
 62
     0
 10
220.17
 20
29.7077
 30
0.0
 11
220.17
 21
43.7074
 31
0.0
  0
LINE
  8
0
 62
     0
 10
201.12
 20
43.7074
 30
0.0
 11
215.12
 21
43.7074
 31
0.0
  0
LINE
  8
0
 62
     0
 10
215.12
 20
43.7074
 30
0.0
 11
215.12
 21
29.7077
 31
0.0
  0
LINE
  8
0
 62
     0
 10
215.12
 20
29.7077
 30
0.0
 11
201.12
 21
29.7077
 31
0.0
  0
LINE
  8
0
 62
     0
 10
201.12
 20
29.7077
 30
0.0
 11
201.12
 21
43.7074
 31
0.0
  0
LINE
  8
0
 62
     0
 10
182.07
 20
43.7074
 30
0.0
 11
196.07
 21
43.7074
 31
0.0
  0
LINE
  8
0
 62
     0
 10
196.07
 20
43.7074
 30
0.0
 11
196.07
 21
29.7077
 31
0.0
  0
LINE
  8
0
 62
     0
 10
196.07
 20
29.7077
 30
0.0
 11
182.07
 21
29.7077
 31
0.0
  0
LINE
  8
0
 62
     0
 10
182.07
 20
29.7077
 30
0.0
 11
182.07
 21
43.7074
 31
0.0
  0
LINE
  8
0
 62
     0
 10
163.02
 20
43.7074
 30
0.0
 11
177.02
 21
43.7074
 31
0.0
  0
LINE
  8
0
 62
     0
 10
177.02
 20
43.7074
 30
0.0
 11
177.02
 21
29.7077
 31
0.0
  0
LINE
  8
0
 62
     0
 10
177.02
 20
29.7077
 30
0.0
 11
163.02
 21
29.7077
 31
0.0
  0
LINE
  8
0
 62
     0
 10
163.02
 20
29.7077
 30
0.0
 11
163.02
 21
43.7074
 31
0.0
  0
LINE
  8
0
 62
     0
 10
143.97
 20
43.7074
 30
0.0
 11
157.97
 21
43.7074
 31
0.0
  0
LINE
  8
0
 62
     0
 10
157.97
 20
43.7074
 30
0.0
 11
157.97
 21
29.7077
 31
0.0
  0
LINE
  8
0
 62
     0
 10
157.97
 20
29.7077
 30
0.0
 11
143.97
 21
29.7077
 31
0.0
  0
LINE
  8
0
 62
     0
 10
143.97
 20
29.7077
 30
0.0
 11
143.97
 21
43.7074
 31
0.0
  0
LINE
  8
0
 62
     0
 10
124.919
 20
43.7074
 30
0.0
 11
138.92
 21
43.7074
 31
0.0
  0
LINE
  8
0
 62
     0
 10
138.92
 20
43.7074
 30
0.0
 11
138.92
 21
29.7077
 31
0.0
  0
LINE
  8
0
 62
     0
 10
138.92
 20
29.7077
 30
0.0
 11
124.919
 21
29.7077
 31
0.0
  0
LINE
  8
0
 62
     0
 10
124.919
 20
29.7077
 30
0.0
 11
124.919
 21
43.7074
 31
0.0
  0
LINE
  8
0
 62
     0
 10
105.869
 20
43.7074
 30
0.0
 11
119.87
 21
43.7074
 31
0.0
  0
LINE
  8
0
 62
     0
 10
119.87
 20
43.7074
 30
0.0
 11
119.87
 21
29.7077
 31
0.0
  0
LINE
  8
0
 62
     0
 10
119.87
 20
29.7077
 30
0.0
 11
105.869
 21
29.7077
 31
0.0
  0
LINE
  8
0
 62
     0
 10
105.869
 20
29.7077
 30
0.0
 11
105.869
 21
43.7074
 31
0.0
  0
LINE
  8
0
 62
     0
 10
86.8204
 20
43.7074
 30
0.0
 11
100.82
 21
43.7074
 31
0.0
  0
LINE
  8
0
 62
     0
 10
100.82
 20
43.7074
 30
0.0
 11
100.82
 21
29.7077
 31
0.0
  0
LINE
  8
0
 62
     0
 10
100.82
 20
29.7077
 30
0.0
 11
86.8204
 21
29.7077
 31
0.0
  0
LINE
  8
0
 62
     0
 10
86.8204
 20
29.7077
 30
0.0
 11
86.8204
 21
43.7074
 31
0.0
  0
LINE
  8
0
 62
     0
 10
67.7704
 20
43.7074
 30
0.0
 11
81.77
 21
43.7074
 31
0.0
  0
LINE
  8
0
 62
     0
 10
81.77
 20
43.7074
 30
0.0
 11
81.77
 21
29.7077
 31
0.0
  0
LINE
  8
0
 62
     0
 10
81.77
 20
29.7077
 30
0.0
 11
67.7704
 21
29.7077
 31
0.0
  0
LINE
  8
0
 62
     0
 10
67.7704
 20
29.7077
 30
0.0
 11
67.7704
 21
43.7074
 31
0.0
  0
LINE
  8
0
 62
     0
 10
48.7204
 20
43.7074
 30
0.0
 11
62.72
 21
43.7074
 31
0.0
  0
LINE
  8
0
 62
     0
 10
62.72
 20
43.7074
 30
0.0
 11
62.72
 21
29.7077
 31
0.0
  0
LINE
  8
0
 62
     0
 10
62.72
 20
29.7077
 30
0.0
 11
48.7204
 21
29.7077
 31
0.0
  0
LINE
  8
0
 62
     0
 10
48.7204
 20
29.7077
 30
0.0
 11
48.7204
 21
43.7074
 31
0.0
  0
LINE
  8
0
 62
     0
 10
29.6706
 20
43.7074
 30
0.0
 11
43.67
 21
43.7074
 31
0.0
  0
LINE
  8
0
 62
     0
 10
43.67
 20
43.7074
 30
0.0
 11
43.67
 21
29.7077
 31
0.0
  0
LINE
  8
0
 62
     0
 10
43.67
 20
29.7077
 30
0.0
 11
29.6706
 21
29.7077
 31
0.0
  0
LINE
  8
0
 62
     0
 10
29.6706
 20
29.7077
 30
0.0
 11
29.6706
 21
43.7074
 31
0.0
  0
LINE
  8
0
 62
     0
 10
10.6192
 20
43.7074
 30
0.0
 11
24.62
 21
43.7074
 31
0.0
  0
LINE
  8
0
 62
     0
 10
24.62
 20
43.7074
 30
0.0
 11
24.62
 21
29.7077
 31
0.0
  0
LINE
  8
0
 62
     0
 10
24.62
 20
29.7077
 30
0.0
 11
10.6192
 21
29.7077
 31
0.0
  0
LINE
  8
0
 62
     0
 10
10.6192
 20
29.7077
 30
0.0
 11
10.6192
 21
43.7074
 31
0.0
  0
LINE
  8
0
 62
     0
 10
220.17
 20
62.7574
 30
0.0
 11
234.17
 21
62.7574
 31
0.0
  0
LINE
  8
0
 62
     0
 10
234.17
 20
62.7574
 30
0.0
 11
234.17
 21
48.7578
 31
0.0
  0
LINE
  8
0
 62
     0
 10
234.17
 20
48.7578
 30
0.0
 11
220.17
 21
48.7578
 31
0.0
  0
LINE
  8
0
 62
     0
 10
220.17
 20
48.7578
 30
0.0
 11
220.17
 21
62.7574
 31
0.0
  0
LINE
  8
0
 62
     0
 10
201.12
 20
62.7574
 30
0.0
 11
215.12
 21
62.7574
 31
0.0
  0
LINE
  8
0
 62
     0
 10
215.12
 20
62.7574
 30
0.0
 11
215.12
 21
48.7578
 31
0.0
  0
LINE
  8
0
 62
     0
 10
215.12
 20
48.7578
 30
0.0
 11
201.12
 21
48.7578
 31
0.0
  0
LINE
  8
0
 62
     0
 10
201.12
 20
48.7578
 30
0.0
 11
201.12
 21
62.7574
 31
0.0
  0
LINE
  8
0
 62
     0
 10
182.07
 20
62.7574
 30
0.0
 11
196.07
 21
62.7574
 31
0.0
  0
LINE
  8
0
 62
     0
 10
196.07
 20
62.7574
 30
0.0
 11
196.07
 21
48.7578
 31
0.0
  0
LINE
  8
0
 62
     0
 10
196.07
 20
48.7578
 30
0.0
 11
182.07
 21
48.7578
 31
0.0
  0
LINE
  8
0
 62
     0
 10
182.07
 20
48.7578
 30
0.0
 11
182.07
 21
62.7574
 31
0.0
  0
LINE
  8
0
 62
     0
 10
163.02
 20
62.7574
 30
0.0
 11
177.02
 21
62.7574
 31
0.0
  0
LINE
  8
0
 62
     0
 10
177.02
 20
62.7574
 30
0.0
 11
177.02
 21
48.7578
 31
0.0
  0
LINE
  8
0
 62
     0
 10
177.02
 20
48.7578
 30
0.0
 11
163.02
 21
48.7578
 31
0.0
  0
LINE
  8
0
 62
     0
 10
163.02
 20
48.7578
 30
0.0
 11
163.02
 21
62.7574
 31
0.0
  0
LINE
  8
0
 62
     0
 10
143.97
 20
62.7574
 30
0.0
 11
157.97
 21
62.7574
 31
0.0
  0
LINE
  8
0
 62
     0
 10
157.97
 20
62.7574
 30
0.0
 11
157.97
 21
48.7578
 31
0.0
  0
LINE
  8
0
 62
     0
 10
157.97
 20
48.7578
 30
0.0
 11
143.97
 21
48.7578
 31
0.0
  0
LINE
  8
0
 62
     0
 10
143.97
 20
48.7578
 30
0.0
 11
143.97
 21
62.7574
 31
0.0
  0
LINE
  8
0
 62
     0
 10
124.919
 20
62.7574
 30
0.0
 11
138.92
 21
62.7574
 31
0.0
  0
LINE
  8
0
 62
     0
 10
138.92
 20
62.7574
 30
0.0
 11
138.92
 21
48.7578
 31
0.0
  0
LINE
  8
0
 62
     0
 10
138.92
 20
48.7578
 30
0.0
 11
124.919
 21
48.7578
 31
0.0
  0
LINE
  8
0
 62
     0
 10
124.919
 20
48.7578
 30
0.0
 11
124.919
 21
62.7574
 31
0.0
  0
LINE
  8
0
 62
     0
 10
105.869
 20
62.7574
 30
0.0
 11
119.87
 21
62.7574
 31
0.0
  0
LINE
  8
0
 62
     0
 10
119.87
 20
62.7574
 30
0.0
 11
119.87
 21
48.7578
 31
0.0
  0
LINE
  8
0
 62
     0
 10
119.87
 20
48.7578
 30
0.0
 11
105.869
 21
48.7578
 31
0.0
  0
LINE
  8
0
 62
     0
 10
105.869
 20
48.7578
 30
0.0
 11
105.869
 21
62.7574
 31
0.0
  0
LINE
  8
0
 62
     0
 10
86.8204
 20
62.7574
 30
0.0
 11
100.82
 21
62.7574
 31
0.0
  0
LINE
  8
0
 62
     0
 10
100.82
 20
62.7574
 30
0.0
 11
100.82
 21
48.7578
 31
0.0
  0
LINE
  8
0
 62
     0
 10
100.82
 20
48.7578
 30
0.0
 11
86.8204
 21
48.7578
 31
0.0
  0
LINE
  8
0
 62
     0
 10
86.8204
 20
48.7578
 30
0.0
 11
86.8204
 21
62.7574
 31
0.0
  0
LINE
  8
0
 62
     0
 10
67.7704
 20
62.7574
 30
0.0
 11
81.77
 21
62.7574
 31
0.0
  0
LINE
  8
0
 62
     0
 10
81.77
 20
62.7574
 30
0.0
 11
81.77
 21
48.7578
 31
0.0
  0
LINE
  8
0
 62
     0
 10
81.77
 20
48.7578
 30
0.0
 11
67.7704
 21
48.7578
 31
0.0
  0
LINE
  8
0
 62
     0
 10
67.7704
 20
48.7578
 30
0.0
 11
67.7704
 21
62.7574
 31
0.0
  0
LINE
  8
0
 62
     0
 10
48.7204
 20
62.7574
 30
0.0
 11
62.72
 21
62.7574
 31
0.0
  0
LINE
  8
0
 62
     0
 10
62.72
 20
62.7574
 30
0.0
 11
62.72
 21
48.7578
 31
0.0
  0
LINE
  8
0
 62
     0
 10
62.72
 20
48.7578
 30
0.0
 11
48.7204
 21
48.7578
 31
0.0
  0
LINE
  8
0
 62
     0
 10
48.7204
 20
48.7578
 30
0.0
 11
48.7204
 21
62.7574
 31
0.0
  0
LINE
  8
0
 62
     0
 10
29.6706
 20
62.7574
 30
0.0
 11
43.67
 21
62.7574
 31
0.0
  0
LINE
  8
0
 62
     0
 10
43.67
 20
62.7574
 30
0.0
 11
43.67
 21
48.7578
 31
0.0
  0
LINE
  8
0
 62
     0
 10
43.67
 20
48.7578
 30
0.0
 11
29.6706
 21
48.7578
 31
0.0
  0
LINE
  8
0
 62
     0
 10
29.6706
 20
48.7578
 30
0.0
 11
29.6706
 21
62.7574
 31
0.0
  0
LINE
  8
0
 62
     0
 10
10.6192
 20
62.7574
 30
0.0
 11
24.62
 21
62.7574
 31
0.0
  0
LINE
  8
0
 62
     0
 10
24.62
 20
62.7574
 30
0.0
 11
24.62
 21
48.7578
 31
0.0
  0
LINE
  8
0
 62
     0
 10
24.62
 20
48.7578
 30
0.0
 11
10.6192
 21
48.7578
 31
0.0
  0
LINE
  8
0
 62
     0
 10
10.6192
 20
48.7578
 30
0.0
 11
10.6192
 21
62.7574
 31
0.0
  0
LINE
  8
0
 62
     0
 10
3.75514
 20
66.3279
 30
0.0
 11
3.44785
 21
66.1719
 31
0.0
  0
LINE
  8
0
 62
     0
 10
3.44785
 20
66.1719
 30
0.0
 11
3.20394
 21
65.9296
 31
0.0
  0
LINE
  8
0
 62
     0
 10
3.20394
 20
65.9296
 30
0.0
 11
3.04822
 21
65.6223
 31
0.0
  0
LINE
  8
0
 62
     0
 10
3.04822
 20
65.6223
 30
0.0
 11
2.99448
 21
65.2819
 31
0.0
  0
LINE
  8
0
 62
     0
 10
2.99448
 20
65.2819
 30
0.0
 11
3.04822
 21
64.9429
 31
0.0
  0
LINE
  8
0
 62
     0
 10
3.04822
 20
64.9429
 30
0.0
 11
3.20394
 21
64.6356
 31
0.0
  0
LINE
  8
0
 62
     0
 10
3.20394
 20
64.6356
 30
0.0
 11
3.44785
 21
64.3929
 31
0.0
  0
LINE
  8
0
 62
     0
 10
3.44785
 20
64.3929
 30
0.0
 11
3.75514
 21
64.2359
 31
0.0
  0
LINE
  8
0
 62
     0
 10
3.75514
 20
64.2359
 30
0.0
 11
4.09416
 21
64.1823
 31
0.0
  0
LINE
  8
0
 62
     0
 10
4.09416
 20
64.1823
 30
0.0
 11
4.43452
 21
64.2359
 31
0.0
  0
LINE
  8
0
 62
     0
 10
4.43452
 20
64.2359
 30
0.0
 11
4.74183
 21
64.3929
 31
0.0
  0
LINE
  8
0
 62
     0
 10
4.74183
 20
64.3929
 30
0.0
 11
4.98436
 21
64.6356
 31
0.0
  0
LINE
  8
0
 62
     0
 10
4.98436
 20
64.6356
 30
0.0
 11
5.14145
 21
64.9429
 31
0.0
  0
LINE
  8
0
 62
     0
 10
5.14145
 20
64.9429
 30
0.0
 11
5.19384
 21
65.2819
 31
0.0
  0
LINE
  8
0
 62
     0
 10
5.19384
 20
65.2819
 30
0.0
 11
5.14145
 21
65.6223
 31
0.0
  0
LINE
  8
0
 62
     0
 10
5.14145
 20
65.6223
 30
0.0
 11
4.98436
 21
65.9296
 31
0.0
  0
LINE
  8
0
 62
     0
 10
4.98436
 20
65.9296
 30
0.0
 11
4.74183
 21
66.1719
 31
0.0
  0
LINE
  8
0
 62
     0
 10
4.74183
 20
66.1719
 30
0.0
 11
4.43452
 21
66.3279
 31
0.0
  0
LINE
  8
0
 62
     0
 10
4.43452
 20
66.3279
 30
0.0
 11
4.09416
 21
66.3829
 31
0.0
  0
LINE
  8
0
 62
     0
 10
4.09416
 20
66.3829
 30
0.0
 11
3.75514
 21
66.3279
 31
0.0
  0
LINE
  8
0
 62
     0
 10
240.356
 20
66.3279
 30
0.0
 11
240.05
 21
66.1719
 31
0.0
  0
LINE
  8
0
 62
     0
 10
240.05
 20
66.1719
 30
0.0
 11
239.806
 21
65.9296
 31
0.0
  0
LINE
  8
0
 62
     0
 10
239.806
 20
65.9296
 30
0.0
 11
239.649
 21
65.6223
 31
0.0
  0
LINE
  8
0
 62
     0
 10
239.649
 20
65.6223
 30
0.0
 11
239.597
 21
65.2819
 31
0.0
  0
LINE
  8
0
 62
     0
 10
239.597
 20
65.2819
 30
0.0
 11
239.649
 21
64.9429
 31
0.0
  0
LINE
  8
0
 62
     0
 10
239.649
 20
64.9429
 30
0.0
 11
239.806
 21
64.6356
 31
0.0
  0
LINE
  8
0
 62
     0
 10
239.806
 20
64.6356
 30
0.0
 11
240.05
 21
64.3929
 31
0.0
  0
LINE
  8
0
 62
     0
 10
240.05
 20
64.3929
 30
0.0
 11
240.356
 21
64.2359
 31
0.0
  0
LINE
  8
0
 62
     0
 10
240.356
 20
64.2359
 30
0.0
 11
240.696
 21
64.1823
 31
0.0
  0
LINE
  8
0
 62
     0
 10
240.696
 20
64.1823
 30
0.0
 11
241.035
 21
64.2359
 31
0.0
  0
LINE
  8
0
 62
     0
 10
241.035
 20
64.2359
 30
0.0
 11
241.343
 21
64.3929
 31
0.0
  0
LINE
  8
0
 62
     0
 10
241.343
 20
64.3929
 30
0.0
 11
241.585
 21
64.6356
 31
0.0
  0
LINE
  8
0
 62
     0
 10
241.585
 20
64.6356
 30
0.0
 11
241.742
 21
64.9429
 31
0.0
  0
LINE
  8
0
 62
     0
 10
241.742
 20
64.9429
 30
0.0
 11
241.796
 21
65.2819
 31
0.0
  0
LINE
  8
0
 62
     0
 10
241.796
 20
65.2819
 30
0.0
 11
241.742
 21
65.6223
 31
0.0
  0
LINE
  8
0
 62
     0
 10
241.742
 20
65.6223
 30
0.0
 11
241.585
 21
65.9296
 31
0.0
  0
LINE
  8
0
 62
     0
 10
241.585
 20
65.9296
 30
0.0
 11
241.343
 21
66.1719
 31
0.0
  0
LINE
  8
0
 62
     0
 10
241.343
 20
66.1719
 30
0.0
 11
241.035
 21
66.3279
 31
0.0
  0
LINE
  8
0
 62
     0
 10
241.035
 20
66.3279
 30
0.0
 11
240.696
 21
66.3829
 31
0.0
  0
LINE
  8
0
 62
     0
 10
240.696
 20
66.3829
 30
0.0
 11
240.356
 21
66.3279
 31
0.0
  0
LINE
  8
0
 62
     0
 10
220.17
 20
81.8074
 30
0.0
 11
234.17
 21
81.8074
 31
0.0
  0
LINE
  8
0
 62
     0
 10
234.17
 20
81.8074
 30
0.0
 11
234.17
 21
67.8078
 31
0.0
  0
LINE
  8
0
 62
     0
 10
234.17
 20
67.8078
 30
0.0
 11
220.17
 21
67.8078
 31
0.0
  0
LINE
  8
0
 62
     0
 10
220.17
 20
67.8078
 30
0.0
 11
220.17
 21
81.8074
 31
0.0
  0
LINE
  8
0
 62
     0
 10
201.12
 20
81.8074
 30
0.0
 11
215.12
 21
81.8074
 31
0.0
  0
LINE
  8
0
 62
     0
 10
215.12
 20
81.8074
 30
0.0
 11
215.12
 21
67.8078
 31
0.0
  0
LINE
  8
0
 62
     0
 10
215.12
 20
67.8078
 30
0.0
 11
201.12
 21
67.8078
 31
0.0
  0
LINE
  8
0
 62
     0
 10
201.12
 20
67.8078
 30
0.0
 11
201.12
 21
81.8074
 31
0.0
  0
LINE
  8
0
 62
     0
 10
182.07
 20
81.8074
 30
0.0
 11
196.07
 21
81.8074
 31
0.0
  0
LINE
  8
0
 62
     0
 10
196.07
 20
81.8074
 30
0.0
 11
196.07
 21
67.8078
 31
0.0
  0
LINE
  8
0
 62
     0
 10
196.07
 20
67.8078
 30
0.0
 11
182.07
 21
67.8078
 31
0.0
  0
LINE
  8
0
 62
     0
 10
182.07
 20
67.8078
 30
0.0
 11
182.07
 21
81.8074
 31
0.0
  0
LINE
  8
0
 62
     0
 10
163.02
 20
81.8074
 30
0.0
 11
177.02
 21
81.8074
 31
0.0
  0
LINE
  8
0
 62
     0
 10
177.02
 20
81.8074
 30
0.0
 11
177.02
 21
67.8078
 31
0.0
  0
LINE
  8
0
 62
     0
 10
177.02
 20
67.8078
 30
0.0
 11
163.02
 21
67.8078
 31
0.0
  0
LINE
  8
0
 62
     0
 10
163.02
 20
67.8078
 30
0.0
 11
163.02
 21
81.8074
 31
0.0
  0
LINE
  8
0
 62
     0
 10
143.97
 20
81.8074
 30
0.0
 11
157.97
 21
81.8074
 31
0.0
  0
LINE
  8
0
 62
     0
 10
157.97
 20
81.8074
 30
0.0
 11
157.97
 21
67.8078
 31
0.0
  0
LINE
  8
0
 62
     0
 10
157.97
 20
67.8078
 30
0.0
 11
143.97
 21
67.8078
 31
0.0
  0
LINE
  8
0
 62
     0
 10
143.97
 20
67.8078
 30
0.0
 11
143.97
 21
81.8074
 31
0.0
  0
LINE
  8
0
 62
     0
 10
124.919
 20
81.8074
 30
0.0
 11
138.92
 21
81.8074
 31
0.0
  0
LINE
  8
0
 62
     0
 10
138.92
 20
81.8074
 30
0.0
 11
138.92
 21
67.8078
 31
0.0
  0
LINE
  8
0
 62
     0
 10
138.92
 20
67.8078
 30
0.0
 11
124.919
 21
67.8078
 31
0.0
  0
LINE
  8
0
 62
     0
 10
124.919
 20
67.8078
 30
0.0
 11
124.919
 21
81.8074
 31
0.0
  0
LINE
  8
0
 62
     0
 10
105.869
 20
81.8074
 30
0.0
 11
119.87
 21
81.8074
 31
0.0
  0
LINE
  8
0
 62
     0
 10
119.87
 20
81.8074
 30
0.0
 11
119.87
 21
67.8078
 31
0.0
  0
LINE
  8
0
 62
     0
 10
119.87
 20
67.8078
 30
0.0
 11
105.869
 21
67.8078
 31
0.0
  0
LINE
  8
0
 62
     0
 10
105.869
 20
67.8078
 30
0.0
 11
105.869
 21
81.8074
 31
0.0
  0
LINE
  8
0
 62
     0
 10
86.8204
 20
81.8074
 30
0.0
 11
100.82
 21
81.8074
 31
0.0
  0
LINE
  8
0
 62
     0
 10
100.82
 20
81.8074
 30
0.0
 11
100.82
 21
67.8078
 31
0.0
  0
LINE
  8
0
 62
     0
 10
100.82
 20
67.8078
 30
0.0
 11
86.8204
 21
67.8078
 31
0.0
  0
LINE
  8
0
 62
     0
 10
86.8204
 20
67.8078
 30
0.0
 11
86.8204
 21
81.8074
 31
0.0
  0
LINE
  8
0
 62
     0
 10
67.7704
 20
81.8074
 30
0.0
 11
81.77
 21
81.8074
 31
0.0
  0
LINE
  8
0
 62
     0
 10
81.77
 20
81.8074
 30
0.0
 11
81.77
 21
67.8078
 31
0.0
  0
LINE
  8
0
 62
     0
 10
81.77
 20
67.8078
 30
0.0
 11
67.7704
 21
67.8078
 31
0.0
  0
LINE
  8
0
 62
     0
 10
67.7704
 20
67.8078
 30
0.0
 11
67.7704
 21
81.8074
 31
0.0
  0
LINE
  8
0
 62
     0
 10
48.7204
 20
81.8074
 30
0.0
 11
62.72
 21
81.8074
 31
0.0
  0
LINE
  8
0
 62
     0
 10
62.72
 20
81.8074
 30
0.0
 11
62.72
 21
67.8078
 31
0.0
  0
LINE
  8
0
 62
     0
 10
62.72
 20
67.8078
 30
0.0
 11
48.7204
 21
67.8078
 31
0.0
  0
LINE
  8
0
 62
     0
 10
48.7204
 20
67.8078
 30
0.0
 11
48.7204
 21
81.8074
 31
0.0
  0
LINE
  8
0
 62
     0
 10
29.6706
 20
81.8074
 30
0.0
 11
43.67
 21
81.8074
 31
0.0
  0
LINE
  8
0
 62
     0
 10
43.67
 20
81.8074
 30
0.0
 11
43.67
 21
67.8078
 31
0.0
  0
LINE
  8
0
 62
     0
 10
43.67
 20
67.8078
 30
0.0
 11
29.6706
 21
67.8078
 31
0.0
  0
LINE
  8
0
 62
     0
 10
29.6706
 20
67.8078
 30
0.0
 11
29.6706
 21
81.8074
 31
0.0
  0
LINE
  8
0
 62
     0
 10
10.6192
 20
81.8074
 30
0.0
 11
24.62
 21
81.8074
 31
0.0
  0
LINE
  8
0
 62
     0
 10
24.62
 20
81.8074
 30
0.0
 11
24.62
 21
67.8078
 31
0.0
  0
LINE
  8
0
 62
     0
 10
24.62
 20
67.8078
 30
0.0
 11
10.6192
 21
67.8078
 31
0.0
  0
LINE
  8
0
 62
     0
 10
10.6192
 20
67.8078
 30
0.0
 11
10.6192
 21
81.8074
 31
0.0
  0
LINE
  8
0
 62
     0
 10
220.17
 20
100.857
 30
0.0
 11
234.17
 21
100.857
 31
0.0
  0
LINE
  8
0
 62
     0
 10
234.17
 20
100.857
 30
0.0
 11
234.17
 21
86.8578
 31
0.0
  0
LINE
  8
0
 62
     0
 10
234.17
 20
86.8578
 30
0.0
 11
220.17
 21
86.8578
 31
0.0
  0
LINE
  8
0
 62
     0
 10
220.17
 20
86.8578
 30
0.0
 11
220.17
 21
100.857
 31
0.0
  0
LINE
  8
0
 62
     0
 10
201.12
 20
100.857
 30
0.0
 11
215.12
 21
100.857
 31
0.0
  0
LINE
  8
0
 62
     0
 10
215.12
 20
100.857
 30
0.0
 11
215.12
 21
86.8578
 31
0.0
  0
LINE
  8
0
 62
     0
 10
215.12
 20
86.8578
 30
0.0
 11
201.12
 21
86.8578
 31
0.0
  0
LINE
  8
0
 62
     0
 10
201.12
 20
86.8578
 30
0.0
 11
201.12
 21
100.857
 31
0.0
  0
LINE
  8
0
 62
     0
 10
182.07
 20
100.857
 30
0.0
 11
196.07
 21
100.857
 31
0.0
  0
LINE
  8
0
 62
     0
 10
196.07
 20
100.857
 30
0.0
 11
196.07
 21
86.8578
 31
0.0
  0
LINE
  8
0
 62
     0
 10
196.07
 20
86.8578
 30
0.0
 11
182.07
 21
86.8578
 31
0.0
  0
LINE
  8
0
 62
     0
 10
182.07
 20
86.8578
 30
0.0
 11
182.07
 21
100.857
 31
0.0
  0
LINE
  8
0
 62
     0
 10
163.02
 20
100.857
 30
0.0
 11
177.02
 21
100.857
 31
0.0
  0
LINE
  8
0
 62
     0
 10
177.02
 20
100.857
 30
0.0
 11
177.02
 21
86.8578
 31
0.0
  0
LINE
  8
0
 62
     0
 10
177.02
 20
86.8578
 30
0.0
 11
163.02
 21
86.8578
 31
0.0
  0
LINE
  8
0
 62
     0
 10
163.02
 20
86.8578
 30
0.0
 11
163.02
 21
100.857
 31
0.0
  0
LINE
  8
0
 62
     0
 10
143.97
 20
100.857
 30
0.0
 11
157.97
 21
100.857
 31
0.0
  0
LINE
  8
0
 62
     0
 10
157.97
 20
100.857
 30
0.0
 11
157.97
 21
86.8578
 31
0.0
  0
LINE
  8
0
 62
     0
 10
157.97
 20
86.8578
 30
0.0
 11
143.97
 21
86.8578
 31
0.0
  0
LINE
  8
0
 62
     0
 10
143.97
 20
86.8578
 30
0.0
 11
143.97
 21
100.857
 31
0.0
  0
LINE
  8
0
 62
     0
 10
124.919
 20
100.857
 30
0.0
 11
138.92
 21
100.857
 31
0.0
  0
LINE
  8
0
 62
     0
 10
138.92
 20
100.857
 30
0.0
 11
138.92
 21
86.8578
 31
0.0
  0
LINE
  8
0
 62
     0
 10
138.92
 20
86.8578
 30
0.0
 11
124.919
 21
86.8578
 31
0.0
  0
LINE
  8
0
 62
     0
 10
124.919
 20
86.8578
 30
0.0
 11
124.919
 21
100.857
 31
0.0
  0
LINE
  8
0
 62
     0
 10
105.869
 20
100.857
 30
0.0
 11
119.87
 21
100.857
 31
0.0
  0
LINE
  8
0
 62
     0
 10
119.87
 20
100.857
 30
0.0
 11
119.87
 21
86.8578
 31
0.0
  0
LINE
  8
0
 62
     0
 10
119.87
 20
86.8578
 30
0.0
 11
105.869
 21
86.8578
 31
0.0
  0
LINE
  8
0
 62
     0
 10
105.869
 20
86.8578
 30
0.0
 11
105.869
 21
100.857
 31
0.0
  0
LINE
  8
0
 62
     0
 10
86.8204
 20
100.857
 30
0.0
 11
100.82
 21
100.857
 31
0.0
  0
LINE
  8
0
 62
     0
 10
100.82
 20
100.857
 30
0.0
 11
100.82
 21
86.8578
 31
0.0
  0
LINE
  8
0
 62
     0
 10
100.82
 20
86.8578
 30
0.0
 11
86.8204
 21
86.8578
 31
0.0
  0
LINE
  8
0
 62
     0
 10
86.8204
 20
86.8578
 30
0.0
 11
86.8204
 21
100.857
 31
0.0
  0
LINE
  8
0
 62
     0
 10
67.7704
 20
100.857
 30
0.0
 11
81.77
 21
100.857
 31
0.0
  0
LINE
  8
0
 62
     0
 10
81.77
 20
100.857
 30
0.0
 11
81.77
 21
86.8578
 31
0.0
  0
LINE
  8
0
 62
     0
 10
81.77
 20
86.8578
 30
0.0
 11
67.7704
 21
86.8578
 31
0.0
  0
LINE
  8
0
 62
     0
 10
67.7704
 20
86.8578
 30
0.0
 11
67.7704
 21
100.857
 31
0.0
  0
LINE
  8
0
 62
     0
 10
48.7204
 20
100.857
 30
0.0
 11
62.72
 21
100.857
 31
0.0
  0
LINE
  8
0
 62
     0
 10
62.72
 20
100.857
 30
0.0
 11
62.72
 21
86.8578
 31
0.0
  0
LINE
  8
0
 62
     0
 10
62.72
 20
86.8578
 30
0.0
 11
48.7204
 21
86.8578
 31
0.0
  0
LINE
  8
0
 62
     0
 10
48.7204
 20
86.8578
 30
0.0
 11
48.7204
 21
100.857
 31
0.0
  0
LINE
  8
0
 62
     0
 10
29.6706
 20
100.857
 30
0.0
 11
43.67
 21
100.857
 31
0.0
  0
LINE
  8
0
 62
     0
 10
43.67
 20
100.857
 30
0.0
 11
43.67
 21
86.8578
 31
0.0
  0
LINE
  8
0
 62
     0
 10
43.67
 20
86.8578
 30
0.0
 11
29.6706
 21
86.8578
 31
0.0
  0
LINE
  8
0
 62
     0
 10
29.6706
 20
86.8578
 30
0.0
 11
29.6706
 21
100.857
 31
0.0
  0
LINE
  8
0
 62
     0
 10
10.6192
 20
100.857
 30
0.0
 11
24.62
 21
100.857
 31
0.0
  0
LINE
  8
0
 62
     0
 10
24.62
 20
100.857
 30
0.0
 11
24.62
 21
86.8578
 31
0.0
  0
LINE
  8
0
 62
     0
 10
24.62
 20
86.8578
 30
0.0
 11
10.6192
 21
86.8578
 31
0.0
  0
LINE
  8
0
 62
     0
 10
10.6192
 20
86.8578
 30
0.0
 11
10.6192
 21
100.857
 31
0.0
  0
LINE
  8
0
 62
     0
 10
220.17
 20
119.908
 30
0.0
 11
234.17
 21
119.908
 31
0.0
  0
LINE
  8
0
 62
     0
 10
234.17
 20
119.908
 30
0.0
 11
234.17
 21
105.908
 31
0.0
  0
LINE
  8
0
 62
     0
 10
234.17
 20
105.908
 30
0.0
 11
220.17
 21
105.908
 31
0.0
  0
LINE
  8
0
 62
     0
 10
220.17
 20
105.908
 30
0.0
 11
220.17
 21
119.908
 31
0.0
  0
LINE
  8
0
 62
     0
 10
201.12
 20
119.908
 30
0.0
 11
215.12
 21
119.908
 31
0.0
  0
LINE
  8
0
 62
     0
 10
215.12
 20
119.908
 30
0.0
 11
215.12
 21
105.908
 31
0.0
  0
LINE
  8
0
 62
     0
 10
215.12
 20
105.908
 30
0.0
 11
201.12
 21
105.908
 31
0.0
  0
LINE
  8
0
 62
     0
 10
201.12
 20
105.908
 30
0.0
 11
201.12
 21
119.908
 31
0.0
  0
LINE
  8
0
 62
     0
 10
182.07
 20
119.908
 30
0.0
 11
196.07
 21
119.908
 31
0.0
  0
LINE
  8
0
 62
     0
 10
196.07
 20
119.908
 30
0.0
 11
196.07
 21
105.908
 31
0.0
  0
LINE
  8
0
 62
     0
 10
196.07
 20
105.908
 30
0.0
 11
182.07
 21
105.908
 31
0.0
  0
LINE
  8
0
 62
     0
 10
182.07
 20
105.908
 30
0.0
 11
182.07
 21
119.908
 31
0.0
  0
LINE
  8
0
 62
     0
 10
163.02
 20
119.908
 30
0.0
 11
177.02
 21
119.908
 31
0.0
  0
LINE
  8
0
 62
     0
 10
177.02
 20
119.908
 30
0.0
 11
177.02
 21
105.908
 31
0.0
  0
LINE
  8
0
 62
     0
 10
177.02
 20
105.908
 30
0.0
 11
163.02
 21
105.908
 31
0.0
  0
LINE
  8
0
 62
     0
 10
163.02
 20
105.908
 30
0.0
 11
163.02
 21
119.908
 31
0.0
  0
LINE
  8
0
 62
     0
 10
143.97
 20
119.908
 30
0.0
 11
157.97
 21
119.908
 31
0.0
  0
LINE
  8
0
 62
     0
 10
157.97
 20
119.908
 30
0.0
 11
157.97
 21
105.908
 31
0.0
  0
LINE
  8
0
 62
     0
 10
157.97
 20
105.908
 30
0.0
 11
143.97
 21
105.908
 31
0.0
  0
LINE
  8
0
 62
     0
 10
143.97
 20
105.908
 30
0.0
 11
143.97
 21
119.908
 31
0.0
  0
LINE
  8
0
 62
     0
 10
124.919
 20
119.908
 30
0.0
 11
138.92
 21
119.908
 31
0.0
  0
LINE
  8
0
 62
     0
 10
138.92
 20
119.908
 30
0.0
 11
138.92
 21
105.908
 31
0.0
  0
LINE
  8
0
 62
     0
 10
138.92
 20
105.908
 30
0.0
 11
124.919
 21
105.908
 31
0.0
  0
LINE
  8
0
 62
     0
 10
124.919
 20
105.908
 30
0.0
 11
124.919
 21
119.908
 31
0.0
  0
LINE
  8
0
 62
     0
 10
105.869
 20
119.908
 30
0.0
 11
119.87
 21
119.908
 31
0.0
  0
LINE
  8
0
 62
     0
 10
119.87
 20
119.908
 30
0.0
 11
119.87
 21
105.908
 31
0.0
  0
LINE
  8
0
 62
     0
 10
119.87
 20
105.908
 30
0.0
 11
105.869
 21
105.908
 31
0.0
  0
LINE
  8
0
 62
     0
 10
105.869
 20
105.908
 30
0.0
 11
105.869
 21
119.908
 31
0.0
  0
LINE
  8
0
 62
     0
 10
86.8204
 20
119.908
 30
0.0
 11
100.82
 21
119.908
 31
0.0
  0
LINE
  8
0
 62
     0
 10
100.82
 20
119.908
 30
0.0
 11
100.82
 21
105.908
 31
0.0
  0
LINE
  8
0
 62
     0
 10
100.82
 20
105.908
 30
0.0
 11
86.8204
 21
105.908
 31
0.0
  0
LINE
  8
0
 62
     0
 10
86.8204
 20
105.908
 30
0.0
 11
86.8204
 21
119.908
 31
0.0
  0
LINE
  8
0
 62
     0
 10
67.7704
 20
119.908
 30
0.0
 11
81.77
 21
119.908
 31
0.0
  0
LINE
  8
0
 62
     0
 10
81.77
 20
119.908
 30
0.0
 11
81.77
 21
105.908
 31
0.0
  0
LINE
  8
0
 62
     0
 10
81.77
 20
105.908
 30
0.0
 11
67.7704
 21
105.908
 31
0.0
  0
LINE
  8
0
 62
     0
 10
67.7704
 20
105.908
 30
0.0
 11
67.7704
 21
119.908
 31
0.0
  0
LINE
  8
0
 62
     0
 10
48.7204
 20
119.908
 30
0.0
 11
62.72
 21
119.908
 31
0.0
  0
LINE
  8
0
 62
     0
 10
62.72
 20
119.908
 30
0.0
 11
62.72
 21
105.908
 31
0.0
  0
LINE
  8
0
 62
     0
 10
62.72
 20
105.908
 30
0.0
 11
48.7204
 21
105.908
 31
0.0
  0
LINE
  8
0
 62
     0
 10
48.7204
 20
105.908
 30
0.0
 11
48.7204
 21
119.908
 31
0.0
  0
LINE
  8
0
 62
     0
 10
29.6706
 20
119.908
 30
0.0
 11
43.67
 21
119.908
 31
0.0
  0
LINE
  8
0
 62
     0
 10
43.67
 20
119.908
 30
0.0
 11
43.67
 21
105.908
 31
0.0
  0
LINE
  8
0
 62
     0
 10
43.67
 20
105.908
 30
0.0
 11
29.6706
 21
105.908
 31
0.0
  0
LINE
  8
0
 62
     0
 10
29.6706
 20
105.908
 30
0.0
 11
29.6706
 21
119.908
 31
0.0
  0
LINE
  8
0
 62
     0
 10
10.6192
 20
119.908
 30
0.0
 11
24.62
 21
119.908
 31
0.0
  0
LINE
  8
0
 62
     0
 10
24.62
 20
119.908
 30
0.0
 11
24.62
 21
105.908
 31
0.0
  0
LINE
  8
0
 62
     0
 10
24.62
 20
105.908
 30
0.0
 11
10.6192
 21
105.908
 31
0.0
  0
LINE
  8
0
 62
     0
 10
10.6192
 20
105.908
 30
0.0
 11
10.6192
 21
119.908
 31
0.0
  0
LINE
  8
0
 62
     0
 10
3.75514
 20
127.479
 30
0.0
 11
3.44785
 21
127.324
 31
0.0
  0
LINE
  8
0
 62
     0
 10
3.44785
 20
127.324
 30
0.0
 11
3.20394
 21
127.08
 31
0.0
  0
LINE
  8
0
 62
     0
 10
3.20394
 20
127.08
 30
0.0
 11
3.04822
 21
126.772
 31
0.0
  0
LINE
  8
0
 62
     0
 10
3.04822
 20
126.772
 30
0.0
 11
2.99448
 21
126.432
 31
0.0
  0
LINE
  8
0
 62
     0
 10
2.99448
 20
126.432
 30
0.0
 11
3.04822
 21
126.093
 31
0.0
  0
LINE
  8
0
 62
     0
 10
3.04822
 20
126.093
 30
0.0
 11
3.20394
 21
125.786
 31
0.0
  0
LINE
  8
0
 62
     0
 10
3.20394
 20
125.786
 30
0.0
 11
3.44785
 21
125.543
 31
0.0
  0
LINE
  8
0
 62
     0
 10
3.44785
 20
125.543
 30
0.0
 11
3.75514
 21
125.386
 31
0.0
  0
LINE
  8
0
 62
     0
 10
3.75514
 20
125.386
 30
0.0
 11
4.09416
 21
125.332
 31
0.0
  0
LINE
  8
0
 62
     0
 10
4.09416
 20
125.332
 30
0.0
 11
4.43452
 21
125.386
 31
0.0
  0
LINE
  8
0
 62
     0
 10
4.43452
 20
125.386
 30
0.0
 11
4.74183
 21
125.543
 31
0.0
  0
LINE
  8
0
 62
     0
 10
4.74183
 20
125.543
 30
0.0
 11
4.98436
 21
125.786
 31
0.0
  0
LINE
  8
0
 62
     0
 10
4.98436
 20
125.786
 30
0.0
 11
5.14145
 21
126.093
 31
0.0
  0
LINE
  8
0
 62
     0
 10
5.14145
 20
126.093
 30
0.0
 11
5.19384
 21
126.432
 31
0.0
  0
LINE
  8
0
 62
     0
 10
5.19384
 20
126.432
 30
0.0
 11
5.14145
 21
126.772
 31
0.0
  0
LINE
  8
0
 62
     0
 10
5.14145
 20
126.772
 30
0.0
 11
4.98436
 21
127.08
 31
0.0
  0
LINE
  8
0
 62
     0
 10
4.98436
 20
127.08
 30
0.0
 11
4.74183
 21
127.324
 31
0.0
  0
LINE
  8
0
 62
     0
 10
4.74183
 20
127.324
 30
0.0
 11
4.43452
 21
127.479
 31
0.0
  0
LINE
  8
0
 62
     0
 10
4.43452
 20
127.479
 30
0.0
 11
4.09416
 21
127.532
 31
0.0
  0
LINE
  8
0
 62
     0
 10
4.09416
 20
127.532
 30
0.0
 11
3.75514
 21
127.479
 31
0.0
  0
LINE
  8
0
 62
     0
 10
240.356
 20
127.479
 30
0.0
 11
240.05
 21
127.324
 31
0.0
  0
LINE
  8
0
 62
     0
 10
240.05
 20
127.324
 30
0.0
 11
239.806
 21
127.08
 31
0.0
  0
LINE
  8
0
 62
     0
 10
239.806
 20
127.08
 30
0.0
 11
239.649
 21
126.772
 31
0.0
  0
LINE
  8
0
 62
     0
 10
239.649
 20
126.772
 30
0.0
 11
239.597
 21
126.432
 31
0.0
  0
LINE
  8
0
 62
     0
 10
239.597
 20
126.432
 30
0.0
 11
239.649
 21
126.093
 31
0.0
  0
LINE
  8
0
 62
     0
 10
239.649
 20
126.093
 30
0.0
 11
239.806
 21
125.786
 31
0.0
  0
LINE
  8
0
 62
     0
 10
239.806
 20
125.786
 30
0.0
 11
240.05
 21
125.543
 31
0.0
  0
LINE
  8
0
 62
     0
 10
240.05
 20
125.543
 30
0.0
 11
240.356
 21
125.386
 31
0.0
  0
LINE
  8
0
 62
     0
 10
240.356
 20
125.386
 30
0.0
 11
240.696
 21
125.332
 31
0.0
  0
LINE
  8
0
 62
     0
 10
240.696
 20
125.332
 30
0.0
 11
241.035
 21
125.386
 31
0.0
  0
LINE
  8
0
 62
     0
 10
241.035
 20
125.386
 30
0.0
 11
241.343
 21
125.543
 31
0.0
  0
LINE
  8
0
 62
     0
 10
241.343
 20
125.543
 30
0.0
 11
241.585
 21
125.786
 31
0.0
  0
LINE
  8
0
 62
     0
 10
241.585
 20
125.786
 30
0.0
 11
241.742
 21
126.093
 31
0.0
  0
LINE
  8
0
 62
     0
 10
241.742
 20
126.093
 30
0.0
 11
241.796
 21
126.432
 31
0.0
  0
LINE
  8
0
 62
     0
 10
241.796
 20
126.432
 30
0.0
 11
241.742
 21
126.772
 31
0.0
  0
LINE
  8
0
 62
     0
 10
241.742
 20
126.772
 30
0.0
 11
241.585
 21
127.08
 31
0.0
  0
LINE
  8
0
 62
     0
 10
241.585
 20
127.08
 30
0.0
 11
241.343
 21
127.324
 31
0.0
  0
LINE
  8
0
 62
     0
 10
241.343
 20
127.324
 30
0.0
 11
241.035
 21
127.479
 31
0.0
  0
LINE
  8
0
 62
     0
 10
241.035
 20
127.479
 30
0.0
 11
240.696
 21
127.532
 31
0.0
  0
LINE
  8
0
 62
     0
 10
240.696
 20
127.532
 30
0.0
 11
240.356
 21
127.479
 31
0.0
  0
LINE
  8
0
 62
     0
 10
181.205
 20
127.479
 30
0.0
 11
180.899
 21
127.324
 31
0.0
  0
LINE
  8
0
 62
     0
 10
180.899
 20
127.324
 30
0.0
 11
180.655
 21
127.08
 31
0.0
  0
LINE
  8
0
 62
     0
 10
180.655
 20
127.08
 30
0.0
 11
180.499
 21
126.772
 31
0.0
  0
LINE
  8
0
 62
     0
 10
180.499
 20
126.772
 30
0.0
 11
180.446
 21
126.432
 31
0.0
  0
LINE
  8
0
 62
     0
 10
180.446
 20
126.432
 30
0.0
 11
180.499
 21
126.093
 31
0.0
  0
LINE
  8
0
 62
     0
 10
180.499
 20
126.093
 30
0.0
 11
180.655
 21
125.786
 31
0.0
  0
LINE
  8
0
 62
     0
 10
180.655
 20
125.786
 30
0.0
 11
180.899
 21
125.543
 31
0.0
  0
LINE
  8
0
 62
     0
 10
180.899
 20
125.543
 30
0.0
 11
181.205
 21
125.386
 31
0.0
  0
LINE
  8
0
 62
     0
 10
181.205
 20
125.386
 30
0.0
 11
181.545
 21
125.332
 31
0.0
  0
LINE
  8
0
 62
     0
 10
181.545
 20
125.332
 30
0.0
 11
181.886
 21
125.386
 31
0.0
  0
LINE
  8
0
 62
     0
 10
181.886
 20
125.386
 30
0.0
 11
182.192
 21
125.543
 31
0.0
  0
LINE
  8
0
 62
     0
 10
182.192
 20
125.543
 30
0.0
 11
182.436
 21
125.786
 31
0.0
  0
LINE
  8
0
 62
     0
 10
182.436
 20
125.786
 30
0.0
 11
182.591
 21
126.093
 31
0.0
  0
LINE
  8
0
 62
     0
 10
182.591
 20
126.093
 30
0.0
 11
182.645
 21
126.432
 31
0.0
  0
LINE
  8
0
 62
     0
 10
182.645
 20
126.432
 30
0.0
 11
182.591
 21
126.772
 31
0.0
  0
LINE
  8
0
 62
     0
 10
182.591
 20
126.772
 30
0.0
 11
182.436
 21
127.08
 31
0.0
  0
LINE
  8
0
 62
     0
 10
182.436
 20
127.08
 30
0.0
 11
182.192
 21
127.324
 31
0.0
  0
LINE
  8
0
 62
     0
 10
182.192
 20
127.324
 30
0.0
 11
181.886
 21
127.479
 31
0.0
  0
LINE
  8
0
 62
     0
 10
181.886
 20
127.479
 30
0.0
 11
181.545
 21
127.532
 31
0.0
  0
LINE
  8
0
 62
     0
 10
181.545
 20
127.532
 30
0.0
 11
181.205
 21
127.479
 31
0.0
  0
LINE
  8
0
 62
     0
 10
122.055
 20
127.479
 30
0.0
 11
121.748
 21
127.324
 31
0.0
  0
LINE
  8
0
 62
     0
 10
121.748
 20
127.324
 30
0.0
 11
121.506
 21
127.08
 31
0.0
  0
LINE
  8
0
 62
     0
 10
121.506
 20
127.08
 30
0.0
 11
121.35
 21
126.772
 31
0.0
  0
LINE
  8
0
 62
     0
 10
121.35
 20
126.772
 30
0.0
 11
121.295
 21
126.432
 31
0.0
  0
LINE
  8
0
 62
     0
 10
121.295
 20
126.432
 30
0.0
 11
121.35
 21
126.093
 31
0.0
  0
LINE
  8
0
 62
     0
 10
121.35
 20
126.093
 30
0.0
 11
121.506
 21
125.786
 31
0.0
  0
LINE
  8
0
 62
     0
 10
121.506
 20
125.786
 30
0.0
 11
121.748
 21
125.543
 31
0.0
  0
LINE
  8
0
 62
     0
 10
121.748
 20
125.543
 30
0.0
 11
122.055
 21
125.386
 31
0.0
  0
LINE
  8
0
 62
     0
 10
122.055
 20
125.386
 30
0.0
 11
122.396
 21
125.332
 31
0.0
  0
LINE
  8
0
 62
     0
 10
122.396
 20
125.332
 30
0.0
 11
122.735
 21
125.386
 31
0.0
  0
LINE
  8
0
 62
     0
 10
122.735
 20
125.386
 30
0.0
 11
123.042
 21
125.543
 31
0.0
  0
LINE
  8
0
 62
     0
 10
123.042
 20
125.543
 30
0.0
 11
123.285
 21
125.786
 31
0.0
  0
LINE
  8
0
 62
     0
 10
123.285
 20
125.786
 30
0.0
 11
123.442
 21
126.093
 31
0.0
  0
LINE
  8
0
 62
     0
 10
123.442
 20
126.093
 30
0.0
 11
123.496
 21
126.432
 31
0.0
  0
LINE
  8
0
 62
     0
 10
123.496
 20
126.432
 30
0.0
 11
123.442
 21
126.772
 31
0.0
  0
LINE
  8
0
 62
     0
 10
123.442
 20
126.772
 30
0.0
 11
123.285
 21
127.08
 31
0.0
  0
LINE
  8
0
 62
     0
 10
123.285
 20
127.08
 30
0.0
 11
123.042
 21
127.324
 31
0.0
  0
LINE
  8
0
 62
     0
 10
123.042
 20
127.324
 30
0.0
 11
122.735
 21
127.479
 31
0.0
  0
LINE
  8
0
 62
     0
 10
122.735
 20
127.479
 30
0.0
 11
122.396
 21
127.532
 31
0.0
  0
LINE
  8
0
 62
     0
 10
122.396
 20
127.532
 30
0.0
 11
122.055
 21
127.479
 31
0.0
  0
LINE
  8
0
 62
     0
 10
62.9059
 20
127.479
 30
0.0
 11
62.5987
 21
127.324
 31
0.0
  0
LINE
  8
0
 62
     0
 10
62.5987
 20
127.324
 30
0.0
 11
62.3549
 21
127.08
 31
0.0
  0
LINE
  8
0
 62
     0
 10
62.3549
 20
127.08
 30
0.0
 11
62.1993
 21
126.772
 31
0.0
  0
LINE
  8
0
 62
     0
 10
62.1993
 20
126.772
 30
0.0
 11
62.1453
 21
126.432
 31
0.0
  0
LINE
  8
0
 62
     0
 10
62.1453
 20
126.432
 30
0.0
 11
62.1993
 21
126.093
 31
0.0
  0
LINE
  8
0
 62
     0
 10
62.1993
 20
126.093
 30
0.0
 11
62.3549
 21
125.786
 31
0.0
  0
LINE
  8
0
 62
     0
 10
62.3549
 20
125.786
 30
0.0
 11
62.5987
 21
125.543
 31
0.0
  0
LINE
  8
0
 62
     0
 10
62.5987
 20
125.543
 30
0.0
 11
62.9059
 21
125.386
 31
0.0
  0
LINE
  8
0
 62
     0
 10
62.9059
 20
125.386
 30
0.0
 11
63.2449
 21
125.332
 31
0.0
  0
LINE
  8
0
 62
     0
 10
63.2449
 20
125.332
 30
0.0
 11
63.5854
 21
125.386
 31
0.0
  0
LINE
  8
0
 62
     0
 10
63.5854
 20
125.386
 30
0.0
 11
63.8912
 21
125.543
 31
0.0
  0
LINE
  8
0
 62
     0
 10
63.8912
 20
125.543
 30
0.0
 11
64.1354
 21
125.786
 31
0.0
  0
LINE
  8
0
 62
     0
 10
64.1354
 20
125.786
 30
0.0
 11
64.2909
 21
126.093
 31
0.0
  0
LINE
  8
0
 62
     0
 10
64.2909
 20
126.093
 30
0.0
 11
64.346
 21
126.432
 31
0.0
  0
LINE
  8
0
 62
     0
 10
64.346
 20
126.432
 30
0.0
 11
64.2909
 21
126.772
 31
0.0
  0
LINE
  8
0
 62
     0
 10
64.2909
 20
126.772
 30
0.0
 11
64.1354
 21
127.08
 31
0.0
  0
LINE
  8
0
 62
     0
 10
64.1354
 20
127.08
 30
0.0
 11
63.8912
 21
127.324
 31
0.0
  0
LINE
  8
0
 62
     0
 10
63.8912
 20
127.324
 30
0.0
 11
63.5854
 21
127.479
 31
0.0
  0
LINE
  8
0
 62
     0
 10
63.5854
 20
127.479
 30
0.0
 11
63.2449
 21
127.532
 31
0.0
  0
LINE
  8
0
 62
     0
 10
63.2449
 20
127.532
 30
0.0
 11
62.9059
 21
127.479
 31
0.0
  0
ENDSEC
  0
EOF
